<?xml version="1.0" encoding="UTF-8" standalone="no"?>
<!DOCTYPE svg PUBLIC "-//W3C//DTD SVG 1.1//EN"
 "http://www.w3.org/Graphics/SVG/1.1/DTD/svg11.dtd">
<!-- Generated by graphviz version 2.43.0 (0)
 -->
<!-- Title: ttg/ttg/serialization/std/array.h Pages: 1 -->
<!--zoomable 269 -->

<svg id="main" version="1.1" xmlns="http://www.w3.org/2000/svg" xmlns:xlink="http://www.w3.org/1999/xlink" xml:space="preserve" onload="init(evt)">
<style type="text/css"><![CDATA[
.node, .edge {opacity: 0.7;}
.node.selected, .edge.selected {opacity: 1;}
.edge:hover path { stroke: red; }
.edge:hover polygon { stroke: red; fill: red; }
]]></style>

<defs>
  <circle id="rim" cx="0" cy="0" r="7"/>
  <circle id="rim2" cx="0" cy="0" r="3.5"/>
  <g id="zoomPlus">
    <use xlink:href="#rim" fill="#404040"><set attributeName="fill" to="#808080" begin="zoomplus.mouseover" end="zoomplus.mouseout"/></use>
    <path d="M-4,0h8M0,-4v8" fill="none" stroke="white" stroke-width="1.5" pointer-events="none"/>
  </g>
  <g id="zoomMin">
    <use xlink:href="#rim" fill="#404040"><set attributeName="fill" to="#808080" begin="zoomminus.mouseover" end="zoomminus.mouseout"/></use>
    <path d="M-4,0h8" fill="none" stroke="white" stroke-width="1.5" pointer-events="none"/>
  </g>
  <g id="arrowUp" transform="translate(30 24)">
    <use xlink:href="#rim"/>
    <path pointer-events="none" fill="none" stroke="white" stroke-width="1.5" d="M0,-3.0v7 M-2.5,-0.5L0,-3.0L2.5,-0.5"/>
  </g>
  <g id="arrowRight" transform="rotate(90) translate(36 -43)">
    <use xlink:href="#rim"/>
    <path pointer-events="none" fill="none" stroke="white" stroke-width="1.5" d="M0,-3.0v7 M-2.5,-0.5L0,-3.0L2.5,-0.5"/>
  </g>
  <g id="arrowDown" transform="rotate(180) translate(-30 -48)">
    <use xlink:href="#rim"/>
    <path pointer-events="none" fill="none" stroke="white" stroke-width="1.5" d="M0,-3.0v7 M-2.5,-0.5L0,-3.0L2.5,-0.5"/>
  </g>
  <g id="arrowLeft" transform="rotate(270) translate(-36 17)">
    <use xlink:href="#rim"/>
    <path pointer-events="none" fill="none" stroke="white" stroke-width="1.5" d="M0,-3.0v7 M-2.5,-0.5L0,-3.0L2.5,-0.5"/>
  </g>
  <g id="resetDef">
    <use xlink:href="#rim2" fill="#404040"><set attributeName="fill" to="#808080" begin="reset.mouseover" end="reset.mouseout"/></use>
  </g>
</defs>
<script type="application/ecmascript">
var viewWidth = 821;
var viewHeight = 269;
var sectionId = 'dynsection-0';
</script>
<script type="application/ecmascript" xlink:href="svg.min.js"/>
<svg id="graph" class="graph">
<g id="viewport">
<title>ttg/ttg/serialization/std/array.h</title>
<!-- Node1 -->
<g id="Node000001" class="node">
<title>Node1</title>
<g id="a_Node000001"><a xlink:title=" ">
<polygon fill="#999999" stroke="#666666" points="739,-261 626,-261 626,-231 739,-231 739,-261"/>
<text text-anchor="start" x="634" y="-249" font-family="Times,serif" font-size="10.00">ttg/ttg/serialization</text>
<text text-anchor="middle" x="682.5" y="-238" font-family="Times,serif" font-size="10.00">/std/array.h</text>
</a>
</g>
</g>
<!-- Node2 -->
<g id="Node000002" class="node">
<title>Node2</title>
<g id="a_Node000002"><a xlink:href="traits_8h.html" target="_top" xlink:title=" ">
<polygon fill="white" stroke="#666666" points="749.5,-195 615.5,-195 615.5,-176 749.5,-176 749.5,-195"/>
<text text-anchor="middle" x="682.5" y="-183" font-family="Times,serif" font-size="10.00">ttg/serialization/traits.h</text>
</a>
</g>
</g>
<!-- Node1&#45;&gt;Node2 -->
<g id="edge1_Node000001_Node000002" class="edge">
<title>Node1&#45;&gt;Node2</title>
<g id="a_edge1_Node000001_Node000002"><a xlink:title=" ">
<path fill="none" stroke="#63b8ff" d="M682.5,-230.84C682.5,-223.21 682.5,-213.7 682.5,-205.45"/>
<polygon fill="#63b8ff" stroke="#63b8ff" points="686,-205.27 682.5,-195.27 679,-205.27 686,-205.27"/>
</a>
</g>
</g>
<!-- Node3 -->
<g id="Node000003" class="node">
<title>Node3</title>
<g id="a_Node000003"><a xlink:href="meta_8h.html" target="_top" xlink:title=" ">
<polygon fill="white" stroke="#666666" points="436,-140 347,-140 347,-121 436,-121 436,-140"/>
<text text-anchor="middle" x="391.5" y="-128" font-family="Times,serif" font-size="10.00">ttg/util/meta.h</text>
</a>
</g>
</g>
<!-- Node2&#45;&gt;Node3 -->
<g id="edge2_Node000002_Node000003" class="edge">
<title>Node2&#45;&gt;Node3</title>
<g id="a_edge2_Node000002_Node000003"><a xlink:title=" ">
<path fill="none" stroke="#63b8ff" d="M635.75,-175.98C584.02,-166.56 500.77,-151.4 446.09,-141.44"/>
<polygon fill="#63b8ff" stroke="#63b8ff" points="446.69,-137.99 436.23,-139.65 445.44,-144.88 446.69,-137.99"/>
</a>
</g>
</g>
<!-- Node5 -->
<g id="Node000005" class="node">
<title>Node5</title>
<g id="a_Node000005"><a xlink:title=" ">
<polygon fill="#e0e0e0" stroke="#999999" points="591,-19 520,-19 520,0 591,0 591,-19"/>
<text text-anchor="middle" x="555.5" y="-7" font-family="Times,serif" font-size="10.00">type_traits</text>
</a>
</g>
</g>
<!-- Node2&#45;&gt;Node5 -->
<g id="edge13_Node000002_Node000005" class="edge">
<title>Node2&#45;&gt;Node5</title>
<g id="a_edge13_Node000002_Node000005"><a xlink:title=" ">
<path fill="none" stroke="#63b8ff" d="M702.03,-175.86C745.47,-155.48 843.28,-102.56 803.5,-55 778.24,-24.81 665.92,-15.07 601.44,-11.95"/>
<polygon fill="#63b8ff" stroke="#63b8ff" points="601.28,-8.44 591.14,-11.49 600.97,-15.44 601.28,-8.44"/>
</a>
</g>
</g>
<!-- Node13 -->
<g id="Node000013" class="node">
<title>Node13</title>
<g id="a_Node000013"><a xlink:title=" ">
<polygon fill="#e0e0e0" stroke="#999999" points="713,-140 652,-140 652,-121 713,-121 713,-140"/>
<text text-anchor="middle" x="682.5" y="-128" font-family="Times,serif" font-size="10.00">iostream</text>
</a>
</g>
</g>
<!-- Node2&#45;&gt;Node13 -->
<g id="edge14_Node000002_Node000013" class="edge">
<title>Node2&#45;&gt;Node13</title>
<g id="a_edge14_Node000002_Node000013"><a xlink:title=" ">
<path fill="none" stroke="#63b8ff" d="M682.5,-175.75C682.5,-168.8 682.5,-158.85 682.5,-150.13"/>
<polygon fill="#63b8ff" stroke="#63b8ff" points="686,-150.09 682.5,-140.09 679,-150.09 686,-150.09"/>
</a>
</g>
</g>
<!-- Node14 -->
<g id="Node000014" class="node">
<title>Node14</title>
<g id="a_Node000014"><a xlink:href="backends_8h.html" target="_top" xlink:title=" ">
<polygon fill="white" stroke="#666666" points="634,-140 477,-140 477,-121 634,-121 634,-140"/>
<text text-anchor="middle" x="555.5" y="-128" font-family="Times,serif" font-size="10.00">ttg/serialization/backends.h</text>
</a>
</g>
</g>
<!-- Node2&#45;&gt;Node14 -->
<g id="edge15_Node000002_Node000014" class="edge">
<title>Node2&#45;&gt;Node14</title>
<g id="a_edge15_Node000002_Node000014"><a xlink:title=" ">
<path fill="none" stroke="#63b8ff" d="M662.1,-175.98C641.48,-167.38 609.39,-153.99 585.81,-144.15"/>
<polygon fill="#63b8ff" stroke="#63b8ff" points="586.85,-140.79 576.28,-140.17 584.16,-147.25 586.85,-140.79"/>
</a>
</g>
</g>
<!-- Node4 -->
<g id="Node000004" class="node">
<title>Node4</title>
<g id="a_Node000004"><a xlink:title=" ">
<polygon fill="#e0e0e0" stroke="#999999" points="425.5,-79.5 357.5,-79.5 357.5,-60.5 425.5,-60.5 425.5,-79.5"/>
<text text-anchor="middle" x="391.5" y="-67.5" font-family="Times,serif" font-size="10.00">functional</text>
</a>
</g>
</g>
<!-- Node3&#45;&gt;Node4 -->
<g id="edge3_Node000003_Node000004" class="edge">
<title>Node3&#45;&gt;Node4</title>
<g id="a_edge3_Node000003_Node000004"><a xlink:title=" ">
<path fill="none" stroke="#63b8ff" d="M391.5,-120.87C391.5,-112.75 391.5,-100.31 391.5,-89.89"/>
<polygon fill="#63b8ff" stroke="#63b8ff" points="395,-89.67 391.5,-79.67 388,-89.67 395,-89.67"/>
</a>
</g>
</g>
<!-- Node3&#45;&gt;Node5 -->
<g id="edge4_Node000003_Node000005" class="edge">
<title>Node3&#45;&gt;Node5</title>
<g id="a_edge4_Node000003_Node000005"><a xlink:title=" ">
<path fill="none" stroke="#63b8ff" d="M399.41,-120.93C413.26,-106.23 443.22,-75.81 472.5,-55 489.66,-42.81 510.55,-31.62 527.08,-23.52"/>
<polygon fill="#63b8ff" stroke="#63b8ff" points="528.74,-26.6 536.25,-19.12 525.72,-20.29 528.74,-26.6"/>
</a>
</g>
</g>
<!-- Node6 -->
<g id="Node000006" class="node">
<title>Node6</title>
<g id="a_Node000006"><a xlink:href="span_8h.html" target="_top" xlink:title=" ">
<polygon fill="white" stroke="#666666" points="219.5,-79.5 131.5,-79.5 131.5,-60.5 219.5,-60.5 219.5,-79.5"/>
<text text-anchor="middle" x="175.5" y="-67.5" font-family="Times,serif" font-size="10.00">ttg/util/span.h</text>
</a>
</g>
</g>
<!-- Node3&#45;&gt;Node6 -->
<g id="edge5_Node000003_Node000006" class="edge">
<title>Node3&#45;&gt;Node6</title>
<g id="a_edge5_Node000003_Node000006"><a xlink:title=" ">
<path fill="none" stroke="#63b8ff" d="M360.09,-120.99C322.26,-110.75 258.59,-93.5 216.81,-82.19"/>
<polygon fill="#63b8ff" stroke="#63b8ff" points="217.51,-78.75 206.95,-79.52 215.68,-85.51 217.51,-78.75"/>
</a>
</g>
</g>
<!-- Node11 -->
<g id="Node000011" class="node">
<title>Node11</title>
<g id="a_Node000011"><a xlink:href="typelist_8h.html" target="_top" xlink:title=" ">
<polygon fill="white" stroke="#666666" points="339,-79.5 238,-79.5 238,-60.5 339,-60.5 339,-79.5"/>
<text text-anchor="middle" x="288.5" y="-67.5" font-family="Times,serif" font-size="10.00">ttg/util/typelist.h</text>
</a>
</g>
</g>
<!-- Node3&#45;&gt;Node11 -->
<g id="edge11_Node000003_Node000011" class="edge">
<title>Node3&#45;&gt;Node11</title>
<g id="a_edge11_Node000003_Node000011"><a xlink:title=" ">
<path fill="none" stroke="#63b8ff" d="M376.3,-120.87C359.49,-111.32 332.18,-95.81 312.48,-84.62"/>
<polygon fill="#63b8ff" stroke="#63b8ff" points="314.18,-81.56 303.76,-79.67 310.73,-87.65 314.18,-81.56"/>
</a>
</g>
</g>
<!-- Node6&#45;&gt;Node5 -->
<g id="edge9_Node000006_Node000005" class="edge">
<title>Node6&#45;&gt;Node5</title>
<g id="a_edge9_Node000006_Node000005"><a xlink:title=" ">
<path fill="none" stroke="#63b8ff" d="M205.34,-60.43C212.86,-58.46 220.94,-56.51 228.5,-55 328.03,-35.16 446.39,-21.47 509.86,-14.92"/>
<polygon fill="#63b8ff" stroke="#63b8ff" points="510.35,-18.39 519.94,-13.89 509.64,-11.42 510.35,-18.39"/>
</a>
</g>
</g>
<!-- Node7 -->
<g id="Node000007" class="node">
<title>Node7</title>
<g id="a_Node000007"><a xlink:title=" ">
<polygon fill="#e0e0e0" stroke="#999999" points="197.5,-19 153.5,-19 153.5,0 197.5,0 197.5,-19"/>
<text text-anchor="middle" x="175.5" y="-7" font-family="Times,serif" font-size="10.00">array</text>
</a>
</g>
</g>
<!-- Node6&#45;&gt;Node7 -->
<g id="edge6_Node000006_Node000007" class="edge">
<title>Node6&#45;&gt;Node7</title>
<g id="a_edge6_Node000006_Node000007"><a xlink:title=" ">
<path fill="none" stroke="#63b8ff" d="M175.5,-60.37C175.5,-52.25 175.5,-39.81 175.5,-29.39"/>
<polygon fill="#63b8ff" stroke="#63b8ff" points="179,-29.17 175.5,-19.17 172,-29.17 179,-29.17"/>
</a>
</g>
</g>
<!-- Node8 -->
<g id="Node000008" class="node">
<title>Node8</title>
<g id="a_Node000008"><a xlink:title=" ">
<polygon fill="#e0e0e0" stroke="#999999" points="269.5,-19 215.5,-19 215.5,0 269.5,0 269.5,-19"/>
<text text-anchor="middle" x="242.5" y="-7" font-family="Times,serif" font-size="10.00">cstddef</text>
</a>
</g>
</g>
<!-- Node6&#45;&gt;Node8 -->
<g id="edge7_Node000006_Node000008" class="edge">
<title>Node6&#45;&gt;Node8</title>
<g id="a_edge7_Node000006_Node000008"><a xlink:title=" ">
<path fill="none" stroke="#63b8ff" d="M185.39,-60.37C195.78,-51.3 212.34,-36.84 224.95,-25.82"/>
<polygon fill="#63b8ff" stroke="#63b8ff" points="227.34,-28.38 232.57,-19.17 222.74,-23.11 227.34,-28.38"/>
</a>
</g>
</g>
<!-- Node9 -->
<g id="Node000009" class="node">
<title>Node9</title>
<g id="a_Node000009"><a xlink:title=" ">
<polygon fill="#e0e0e0" stroke="#999999" points="51,-19 0,-19 0,0 51,0 51,-19"/>
<text text-anchor="middle" x="25.5" y="-7" font-family="Times,serif" font-size="10.00">cstdint</text>
</a>
</g>
</g>
<!-- Node6&#45;&gt;Node9 -->
<g id="edge8_Node000006_Node000009" class="edge">
<title>Node6&#45;&gt;Node9</title>
<g id="a_edge8_Node000006_Node000009"><a xlink:title=" ">
<path fill="none" stroke="#63b8ff" d="M153.69,-60.49C128.25,-50.57 85.99,-34.09 56.99,-22.78"/>
<polygon fill="#63b8ff" stroke="#63b8ff" points="57.93,-19.39 47.34,-19.02 55.38,-25.91 57.93,-19.39"/>
</a>
</g>
</g>
<!-- Node10 -->
<g id="Node000010" class="node">
<title>Node10</title>
<g id="a_Node000010"><a xlink:title=" ">
<polygon fill="#e0e0e0" stroke="#999999" points="135.5,-19 69.5,-19 69.5,0 135.5,0 135.5,-19"/>
<text text-anchor="middle" x="102.5" y="-7" font-family="Times,serif" font-size="10.00">exception</text>
</a>
</g>
</g>
<!-- Node6&#45;&gt;Node10 -->
<g id="edge10_Node000006_Node000010" class="edge">
<title>Node6&#45;&gt;Node10</title>
<g id="a_edge10_Node000006_Node000010"><a xlink:title=" ">
<path fill="none" stroke="#63b8ff" d="M164.73,-60.37C153.3,-51.21 135.02,-36.56 121.22,-25.51"/>
<polygon fill="#63b8ff" stroke="#63b8ff" points="123.31,-22.69 113.32,-19.17 118.93,-28.15 123.31,-22.69"/>
</a>
</g>
</g>
<!-- Node12 -->
<g id="Node000012" class="node">
<title>Node12</title>
<g id="a_Node000012"><a xlink:title=" ">
<polygon fill="#e0e0e0" stroke="#999999" points="331,-19 288,-19 288,0 331,0 331,-19"/>
<text text-anchor="middle" x="309.5" y="-7" font-family="Times,serif" font-size="10.00">tuple</text>
</a>
</g>
</g>
<!-- Node11&#45;&gt;Node12 -->
<g id="edge12_Node000011_Node000012" class="edge">
<title>Node11&#45;&gt;Node12</title>
<g id="a_edge12_Node000011_Node000012"><a xlink:title=" ">
<path fill="none" stroke="#63b8ff" d="M291.6,-60.37C294.58,-52.07 299.17,-39.28 302.96,-28.72"/>
<polygon fill="#63b8ff" stroke="#63b8ff" points="306.3,-29.76 306.39,-19.17 299.72,-27.4 306.3,-29.76"/>
</a>
</g>
</g>
<!-- Node15 -->
<g id="Node000015" class="node">
<title>Node15</title>
<g id="a_Node000015"><a xlink:href="boost_8h.html" target="_top" xlink:title=" ">
<polygon fill="white" stroke="#666666" points="629,-85 482,-85 482,-55 629,-55 629,-85"/>
<text text-anchor="start" x="490" y="-73" font-family="Times,serif" font-size="10.00">ttg/serialization/backends</text>
<text text-anchor="middle" x="555.5" y="-62" font-family="Times,serif" font-size="10.00">/boost.h</text>
</a>
</g>
</g>
<!-- Node14&#45;&gt;Node15 -->
<g id="edge16_Node000014_Node000015" class="edge">
<title>Node14&#45;&gt;Node15</title>
<g id="a_edge16_Node000014_Node000015"><a xlink:title=" ">
<path fill="none" stroke="#63b8ff" d="M555.5,-120.87C555.5,-114.11 555.5,-104.35 555.5,-95.26"/>
<polygon fill="#63b8ff" stroke="#63b8ff" points="559,-95.11 555.5,-85.11 552,-95.11 559,-95.11"/>
</a>
</g>
</g>
<!-- Node16 -->
<g id="Node000016" class="node">
<title>Node16</title>
<g id="a_Node000016"><a xlink:href="madness_8h.html" target="_top" xlink:title=" ">
<polygon fill="white" stroke="#666666" points="794,-85 647,-85 647,-55 794,-55 794,-85"/>
<text text-anchor="start" x="655" y="-73" font-family="Times,serif" font-size="10.00">ttg/serialization/backends</text>
<text text-anchor="middle" x="720.5" y="-62" font-family="Times,serif" font-size="10.00">/madness.h</text>
</a>
</g>
</g>
<!-- Node14&#45;&gt;Node16 -->
<g id="edge18_Node000014_Node000016" class="edge">
<title>Node14&#45;&gt;Node16</title>
<g id="a_edge18_Node000014_Node000016"><a xlink:title=" ">
<path fill="none" stroke="#63b8ff" d="M579.49,-120.99C603.45,-112.5 640.96,-99.2 671.27,-88.45"/>
<polygon fill="#63b8ff" stroke="#63b8ff" points="672.58,-91.7 680.83,-85.06 670.24,-85.11 672.58,-91.7"/>
</a>
</g>
</g>
<!-- Node15&#45;&gt;Node5 -->
<g id="edge17_Node000015_Node000005" class="edge">
<title>Node15&#45;&gt;Node5</title>
<g id="a_edge17_Node000015_Node000005"><a xlink:title=" ">
<path fill="none" stroke="#63b8ff" d="M555.5,-54.84C555.5,-47.21 555.5,-37.7 555.5,-29.45"/>
<polygon fill="#63b8ff" stroke="#63b8ff" points="559,-29.27 555.5,-19.27 552,-29.27 559,-29.27"/>
</a>
</g>
</g>
<!-- Node16&#45;&gt;Node2 -->
<g id="edge20_Node000016_Node000002" class="edge">
<title>Node16&#45;&gt;Node2</title>
<g id="a_edge20_Node000016_Node000002"><a xlink:title=" ">
<path fill="none" stroke="#63b8ff" d="M723.98,-85.01C726.84,-99.34 729.41,-121.98 722.5,-140 718.26,-151.06 709.86,-161.09 701.86,-168.82"/>
<polygon fill="#63b8ff" stroke="#63b8ff" points="699.25,-166.45 694.14,-175.73 703.92,-171.67 699.25,-166.45"/>
</a>
</g>
</g>
<!-- Node16&#45;&gt;Node5 -->
<g id="edge19_Node000016_Node000005" class="edge">
<title>Node16&#45;&gt;Node5</title>
<g id="a_edge19_Node000016_Node000005"><a xlink:title=" ">
<path fill="none" stroke="#63b8ff" d="M680.98,-54.99C653.08,-45.1 616.09,-31.98 589.5,-22.56"/>
<polygon fill="#63b8ff" stroke="#63b8ff" points="590.46,-19.18 579.87,-19.14 588.12,-25.78 590.46,-19.18"/>
</a>
</g>
</g>
</g>
</svg>

<g id="navigator" transform="translate(0 0)" fill="#404254">
  <rect fill="#f2f5e9" fill-opacity="0.5" stroke="#606060" stroke-width=".5" x="0" y="0" width="60" height="60"/>
  <use id="zoomplus" xlink:href="#zoomPlus" x="17" y="9" onmousedown="handleZoom(evt,'in')"/>
  <use id="zoomminus" xlink:href="#zoomMin" x="42" y="9" onmousedown="handleZoom(evt,'out')"/>
  <use id="reset" xlink:href="#resetDef" x="30" y="36" onmousedown="handleReset()"/>
   <use id="arrowup" xlink:href="#arrowUp" x="0" y="0" onmousedown="handlePan(0,-1)"/>
  <use id="arrowright" xlink:href="#arrowRight" x="0" y="0" onmousedown="handlePan(1,0)"/>
  <use id="arrowdown" xlink:href="#arrowDown" x="0" y="0" onmousedown="handlePan(0,1)"/>
  <use id="arrowleft" xlink:href="#arrowLeft" x="0" y="0" onmousedown="handlePan(-1,0)"/>
</g>
<svg viewBox="0 0 15 15" width="100%" height="30px" preserveAspectRatio="xMaxYMin meet">
 <g id="arrow_out" transform="scale(0.3 0.3)">
  <a xlink:href="array_8h__incl_org.svg" target="_base">
   <rect id="button" ry="5" rx="5" y="6" x="6" height="38" width="38"
        fill="#f2f5e9" fill-opacity="0.5" stroke="#606060" stroke-width="1.0"/>
   <path id="arrow"
     d="M 11.500037,31.436501 C 11.940474,20.09759 22.043105,11.32322 32.158766,21.979434 L 37.068811,17.246167 C 37.068811,17.246167 37.088388,32 37.088388,32 L 22.160133,31.978069 C 22.160133,31.978069 26.997745,27.140456 26.997745,27.140456 C 18.528582,18.264221 13.291696,25.230495 11.500037,31.436501 z"
     style="fill:#404040;"/>
  </a>
 </g>
</svg>

<style type='text/css'>
<![CDATA[
[data-mouse-over-selected='false'] { opacity: 0.7; }
[data-mouse-over-selected='true']  { opacity: 1.0; }
]]>
</style>
<script type="application/ecmascript"><![CDATA[
document.addEventListener('DOMContentLoaded', (event) => {
  highlightEdges();
  highlightAdjacentNodes();
});
]]></script>
</svg>
