<?xml version="1.0" encoding="UTF-8" standalone="no"?>
<!DOCTYPE svg PUBLIC "-//W3C//DTD SVG 1.1//EN"
 "http://www.w3.org/Graphics/SVG/1.1/DTD/svg11.dtd">
<!-- Generated by graphviz version 2.43.0 (0)
 -->
<!-- Title: ttg/ttg/serialization/backends.h Pages: 1 -->
<svg width="1360pt" height="379pt"
 viewBox="0.00 0.00 1359.50 379.00" xmlns="http://www.w3.org/2000/svg" xmlns:xlink="http://www.w3.org/1999/xlink">
<g id="graph0" class="graph" transform="scale(1 1) rotate(0) translate(4 375)">
<title>ttg/ttg/serialization/backends.h</title>
<!-- Node1 -->
<g id="Node000001" class="node">
<title>Node1</title>
<g id="a_Node000001"><a xlink:title=" ">
<polygon fill="#999999" stroke="#666666" points="391.5,-371 278.5,-371 278.5,-341 391.5,-341 391.5,-371"/>
<text text-anchor="start" x="286.5" y="-359" font-family="Times,serif" font-size="10.00">ttg/ttg/serialization</text>
<text text-anchor="middle" x="335" y="-348" font-family="Times,serif" font-size="10.00">/backends.h</text>
</a>
</g>
</g>
<!-- Node2 -->
<g id="Node000002" class="node">
<title>Node2</title>
<g id="a_Node000002"><a xlink:href="serialization_8h.html" target="_top" xlink:title=" ">
<polygon fill="white" stroke="#666666" points="253,-233.5 131,-233.5 131,-214.5 253,-214.5 253,-233.5"/>
<text text-anchor="middle" x="192" y="-221.5" font-family="Times,serif" font-size="10.00">ttg/ttg/serialization.h</text>
</a>
</g>
</g>
<!-- Node1&#45;&gt;Node2 -->
<g id="edge1_Node000001_Node000002" class="edge">
<title>Node1&#45;&gt;Node2</title>
<g id="a_edge1_Node000001_Node000002"><a xlink:title=" ">
<path fill="none" stroke="#63b8ff" d="M311.88,-333.98C280.01,-305.01 223.99,-254.08 201.62,-233.75"/>
<polygon fill="#63b8ff" stroke="#63b8ff" points="309.67,-336.7 319.42,-340.84 314.38,-331.52 309.67,-336.7"/>
</a>
</g>
</g>
<!-- Node15 -->
<g id="Node000015" class="node">
<title>Node15</title>
<g id="a_Node000015"><a xlink:href="traits_8h.html" target="_top" xlink:title=" ">
<polygon fill="white" stroke="#666666" points="648.5,-305 535.5,-305 535.5,-275 648.5,-275 648.5,-305"/>
<text text-anchor="start" x="543.5" y="-293" font-family="Times,serif" font-size="10.00">ttg/ttg/serialization</text>
<text text-anchor="middle" x="592" y="-282" font-family="Times,serif" font-size="10.00">/traits.h</text>
</a>
</g>
</g>
<!-- Node1&#45;&gt;Node15 -->
<g id="edge17_Node000001_Node000015" class="edge">
<title>Node1&#45;&gt;Node15</title>
<g id="a_edge17_Node000001_Node000015"><a xlink:title=" ">
<path fill="none" stroke="#63b8ff" d="M401.19,-338.52C442.87,-328.14 496.09,-314.88 535.73,-305.01"/>
<polygon fill="#63b8ff" stroke="#63b8ff" points="400.26,-335.14 391.4,-340.95 401.95,-341.93 400.26,-335.14"/>
</a>
</g>
</g>
<!-- Node3 -->
<g id="Node000003" class="node">
<title>Node3</title>
<g id="a_Node000003"><a xlink:href="fibonacci_8cc.html" target="_top" xlink:title=" ">
<polygon fill="white" stroke="#666666" points="128,-35.5 0,-35.5 0,-5.5 128,-5.5 128,-35.5"/>
<text text-anchor="start" x="8" y="-23.5" font-family="Times,serif" font-size="10.00">doc/dox/dev/devsamp</text>
<text text-anchor="middle" x="64" y="-12.5" font-family="Times,serif" font-size="10.00">/fibonacci/fibonacci.cc</text>
</a>
</g>
</g>
<!-- Node2&#45;&gt;Node3 -->
<g id="edge2_Node000002_Node000003" class="edge">
<title>Node2&#45;&gt;Node3</title>
<g id="a_edge2_Node000002_Node000003"><a xlink:title=" ">
<path fill="none" stroke="#63b8ff" d="M180.97,-205.64C156.08,-166.45 95.9,-71.72 73.03,-35.71"/>
<polygon fill="#63b8ff" stroke="#63b8ff" points="178.18,-207.78 186.5,-214.34 184.09,-204.02 178.18,-207.78"/>
</a>
</g>
</g>
<!-- Node4 -->
<g id="Node000004" class="node">
<title>Node4</title>
<g id="a_Node000004"><a xlink:href="fibonacci__device_8cc.html" target="_top" xlink:title=" ">
<polygon fill="white" stroke="#666666" points="274,-41 146,-41 146,0 274,0 274,-41"/>
<text text-anchor="start" x="154" y="-29" font-family="Times,serif" font-size="10.00">doc/dox/dev/devsamp</text>
<text text-anchor="start" x="154" y="-18" font-family="Times,serif" font-size="10.00">/fibonacci/fibonacci</text>
<text text-anchor="middle" x="210" y="-7" font-family="Times,serif" font-size="10.00">_device.cc</text>
</a>
</g>
</g>
<!-- Node2&#45;&gt;Node4 -->
<g id="edge3_Node000002_Node000004" class="edge">
<title>Node2&#45;&gt;Node4</title>
<g id="a_edge3_Node000002_Node000004"><a xlink:title=" ">
<path fill="none" stroke="#63b8ff" d="M193.68,-204.14C197.09,-165.98 204.78,-79.95 208.25,-41.14"/>
<polygon fill="#63b8ff" stroke="#63b8ff" points="190.18,-204.07 192.77,-214.34 197.15,-204.69 190.18,-204.07"/>
</a>
</g>
</g>
<!-- Node5 -->
<g id="Node000005" class="node">
<title>Node5</title>
<g id="a_Node000005"><a xlink:href="buffer_8h.html" target="_top" xlink:title=" ">
<polygon fill="white" stroke="#666666" points="336.5,-167.5 245.5,-167.5 245.5,-148.5 336.5,-148.5 336.5,-167.5"/>
<text text-anchor="middle" x="291" y="-155.5" font-family="Times,serif" font-size="10.00">ttg/ttg/buffer.h</text>
</a>
</g>
</g>
<!-- Node2&#45;&gt;Node5 -->
<g id="edge4_Node000002_Node000005" class="edge">
<title>Node2&#45;&gt;Node5</title>
<g id="a_edge4_Node000002_Node000005"><a xlink:title=" ">
<path fill="none" stroke="#63b8ff" d="M213.89,-208.85C233.35,-196.27 261.18,-178.28 277.54,-167.7"/>
<polygon fill="#63b8ff" stroke="#63b8ff" points="211.85,-206 205.35,-214.37 215.65,-211.88 211.85,-206"/>
</a>
</g>
</g>
<!-- Node6 -->
<g id="Node000006" class="node">
<title>Node6</title>
<g id="a_Node000006"><a xlink:href="ttg_8h.html" target="_top" xlink:title=" ">
<polygon fill="white" stroke="#666666" points="615,-101.5 557,-101.5 557,-82.5 615,-82.5 615,-101.5"/>
<text text-anchor="middle" x="586" y="-89.5" font-family="Times,serif" font-size="10.00">ttg/ttg.h</text>
</a>
</g>
</g>
<!-- Node5&#45;&gt;Node6 -->
<g id="edge5_Node000005_Node000006" class="edge">
<title>Node5&#45;&gt;Node6</title>
<g id="a_edge5_Node000005_Node000006"><a xlink:title=" ">
<path fill="none" stroke="#63b8ff" d="M340.42,-146.28C402.38,-132.84 506.57,-110.23 556.96,-99.3"/>
<polygon fill="#63b8ff" stroke="#63b8ff" points="339.51,-142.89 330.48,-148.44 340.99,-149.74 339.51,-142.89"/>
</a>
</g>
</g>
<!-- Node14 -->
<g id="Node000014" class="node">
<title>Node14</title>
<g id="a_Node000014"><a xlink:href="parsec__data_8h.html" target="_top" xlink:title=" ">
<polygon fill="white" stroke="#666666" points="352,-107 230,-107 230,-77 352,-77 352,-107"/>
<text text-anchor="start" x="238" y="-95" font-family="Times,serif" font-size="10.00">ttg/ttg/parsec/parsec</text>
<text text-anchor="middle" x="291" y="-84" font-family="Times,serif" font-size="10.00">_data.h</text>
</a>
</g>
</g>
<!-- Node5&#45;&gt;Node14 -->
<g id="edge15_Node000005_Node000014" class="edge">
<title>Node5&#45;&gt;Node14</title>
<g id="a_edge15_Node000005_Node000014"><a xlink:title=" ">
<path fill="none" stroke="#63b8ff" d="M291,-138.35C291,-128.47 291,-116.51 291,-107.36"/>
<polygon fill="#63b8ff" stroke="#63b8ff" points="287.5,-138.37 291,-148.37 294.5,-138.37 287.5,-138.37"/>
</a>
</g>
</g>
<!-- Node6&#45;&gt;Node3 -->
<g id="edge6_Node000006_Node000003" class="edge">
<title>Node6&#45;&gt;Node3</title>
<g id="a_edge6_Node000006_Node000003"><a xlink:title=" ">
<path fill="none" stroke="#63b8ff" d="M546.79,-84.74C529.95,-82.16 510.03,-79.26 492,-77 334.64,-57.31 293,-69.55 137,-41 128.87,-39.51 120.32,-37.58 112.05,-35.5"/>
<polygon fill="#63b8ff" stroke="#63b8ff" points="546.41,-88.23 556.83,-86.3 547.49,-81.31 546.41,-88.23"/>
</a>
</g>
</g>
<!-- Node6&#45;&gt;Node4 -->
<g id="edge7_Node000006_Node000004" class="edge">
<title>Node6&#45;&gt;Node4</title>
<g id="a_edge7_Node000006_Node000004"><a xlink:title=" ">
<path fill="none" stroke="#63b8ff" d="M546.62,-84.99C476.5,-74.21 332.7,-51.71 283,-41 280.05,-40.36 277.04,-39.69 274.01,-38.98"/>
<polygon fill="#63b8ff" stroke="#63b8ff" points="546.4,-88.5 556.82,-86.56 547.47,-81.58 546.4,-88.5"/>
</a>
</g>
</g>
<!-- Node7 -->
<g id="Node000007" class="node">
<title>Node7</title>
<g id="a_Node000007"><a xlink:href="helloworld_8cpp.html" target="_top" xlink:title=" ">
<polygon fill="white" stroke="#666666" points="573.5,-35.5 422.5,-35.5 422.5,-5.5 573.5,-5.5 573.5,-35.5"/>
<text text-anchor="start" x="430.5" y="-23.5" font-family="Times,serif" font-size="10.00">doc/dox/dev/devsamp</text>
<text text-anchor="middle" x="498" y="-12.5" font-family="Times,serif" font-size="10.00">/helloworld/helloworld.cpp</text>
</a>
</g>
</g>
<!-- Node6&#45;&gt;Node7 -->
<g id="edge8_Node000006_Node000007" class="edge">
<title>Node6&#45;&gt;Node7</title>
<g id="a_edge8_Node000006_Node000007"><a xlink:title=" ">
<path fill="none" stroke="#63b8ff" d="M567.06,-76.04C551.9,-64.07 530.78,-47.39 515.9,-35.64"/>
<polygon fill="#63b8ff" stroke="#63b8ff" points="565.19,-79.03 575.21,-82.48 569.53,-73.53 565.19,-79.03"/>
</a>
</g>
</g>
<!-- Node8 -->
<g id="Node000008" class="node">
<title>Node8</title>
<g id="a_Node000008"><a xlink:href="distributed_8cc.html" target="_top" xlink:title=" ">
<polygon fill="white" stroke="#666666" points="878,-35.5 744,-35.5 744,-5.5 878,-5.5 878,-35.5"/>
<text text-anchor="start" x="752" y="-23.5" font-family="Times,serif" font-size="10.00">doc/dox/user/examples</text>
<text text-anchor="middle" x="811" y="-12.5" font-family="Times,serif" font-size="10.00">/distributed.cc</text>
</a>
</g>
</g>
<!-- Node6&#45;&gt;Node8 -->
<g id="edge9_Node000006_Node000008" class="edge">
<title>Node6&#45;&gt;Node8</title>
<g id="a_edge9_Node000006_Node000008"><a xlink:title=" ">
<path fill="none" stroke="#63b8ff" d="M623.26,-79.49C662.34,-67.42 723.78,-48.44 765.65,-35.51"/>
<polygon fill="#63b8ff" stroke="#63b8ff" points="622.11,-76.18 613.59,-82.48 624.18,-82.87 622.11,-76.18"/>
</a>
</g>
</g>
<!-- Node9 -->
<g id="Node000009" class="node">
<title>Node9</title>
<g id="a_Node000009"><a xlink:href="iterative_8cc.html" target="_top" xlink:title=" ">
<polygon fill="white" stroke="#666666" points="1030,-35.5 896,-35.5 896,-5.5 1030,-5.5 1030,-35.5"/>
<text text-anchor="start" x="904" y="-23.5" font-family="Times,serif" font-size="10.00">doc/dox/user/examples</text>
<text text-anchor="middle" x="963" y="-12.5" font-family="Times,serif" font-size="10.00">/iterative.cc</text>
</a>
</g>
</g>
<!-- Node6&#45;&gt;Node9 -->
<g id="edge10_Node000006_Node000009" class="edge">
<title>Node6&#45;&gt;Node9</title>
<g id="a_edge10_Node000006_Node000009"><a xlink:title=" ">
<path fill="none" stroke="#63b8ff" d="M625.35,-85.57C683.03,-77.37 793.8,-60.66 887,-41 894.73,-39.37 902.86,-37.48 910.81,-35.52"/>
<polygon fill="#63b8ff" stroke="#63b8ff" points="624.63,-82.14 615.21,-87.01 625.61,-89.07 624.63,-82.14"/>
</a>
</g>
</g>
<!-- Node10 -->
<g id="Node000010" class="node">
<title>Node10</title>
<g id="a_Node000010"><a xlink:href="reducing_8cc.html" target="_top" xlink:title=" ">
<polygon fill="white" stroke="#666666" points="1182,-35.5 1048,-35.5 1048,-5.5 1182,-5.5 1182,-35.5"/>
<text text-anchor="start" x="1056" y="-23.5" font-family="Times,serif" font-size="10.00">doc/dox/user/examples</text>
<text text-anchor="middle" x="1115" y="-12.5" font-family="Times,serif" font-size="10.00">/reducing.cc</text>
</a>
</g>
</g>
<!-- Node6&#45;&gt;Node10 -->
<g id="edge11_Node000006_Node000010" class="edge">
<title>Node6&#45;&gt;Node10</title>
<g id="a_edge11_Node000006_Node000010"><a xlink:title=" ">
<path fill="none" stroke="#63b8ff" d="M625.54,-88.52C704.59,-83.15 887.53,-68.65 1039,-41 1047.31,-39.48 1056.05,-37.56 1064.53,-35.51"/>
<polygon fill="#63b8ff" stroke="#63b8ff" points="624.83,-85.06 615.09,-89.22 625.3,-92.05 624.83,-85.06"/>
</a>
</g>
</g>
<!-- Node11 -->
<g id="Node000011" class="node">
<title>Node11</title>
<g id="a_Node000011"><a xlink:href="simple_8cc.html" target="_top" xlink:title=" ">
<polygon fill="white" stroke="#666666" points="726,-35.5 592,-35.5 592,-5.5 726,-5.5 726,-35.5"/>
<text text-anchor="start" x="600" y="-23.5" font-family="Times,serif" font-size="10.00">doc/dox/user/examples</text>
<text text-anchor="middle" x="659" y="-12.5" font-family="Times,serif" font-size="10.00">/simple.cc</text>
</a>
</g>
</g>
<!-- Node6&#45;&gt;Node11 -->
<g id="edge12_Node000006_Node000011" class="edge">
<title>Node6&#45;&gt;Node11</title>
<g id="a_edge12_Node000006_Node000011"><a xlink:title=" ">
<path fill="none" stroke="#63b8ff" d="M602.42,-75.37C614.94,-63.45 632.04,-47.17 644.15,-35.64"/>
<polygon fill="#63b8ff" stroke="#63b8ff" points="599.78,-73.05 594.95,-82.48 604.61,-78.12 599.78,-73.05"/>
</a>
</g>
</g>
<!-- Node12 -->
<g id="Node000012" class="node">
<title>Node12</title>
<g id="a_Node000012"><a xlink:href="ttg_2madness_2ttg_8h.html" target="_top" xlink:title=" ">
<polygon fill="white" stroke="#666666" points="1324,-30 1200,-30 1200,-11 1324,-11 1324,-30"/>
<text text-anchor="middle" x="1262" y="-18" font-family="Times,serif" font-size="10.00">ttg/ttg/madness/ttg.h</text>
</a>
</g>
</g>
<!-- Node6&#45;&gt;Node12 -->
<g id="edge13_Node000006_Node000012" class="edge">
<title>Node6&#45;&gt;Node12</title>
<g id="a_edge13_Node000006_Node000012"><a xlink:title=" ">
<path fill="none" stroke="#63b8ff" d="M625.43,-90.27C722.39,-87.92 979.94,-78.37 1191,-41 1205.85,-38.37 1222.1,-34.02 1235.3,-30.1"/>
<polygon fill="#63b8ff" stroke="#63b8ff" points="625.13,-86.77 615.21,-90.5 625.29,-93.77 625.13,-86.77"/>
</a>
</g>
</g>
<!-- Node13 -->
<g id="Node000013" class="node">
<title>Node13</title>
<g id="a_Node000013"><a xlink:href="ttg_2parsec_2ttg_8h.html" target="_top" xlink:title=" ">
<polygon fill="white" stroke="#666666" points="404,-30 292,-30 292,-11 404,-11 404,-30"/>
<text text-anchor="middle" x="348" y="-18" font-family="Times,serif" font-size="10.00">ttg/ttg/parsec/ttg.h</text>
</a>
</g>
</g>
<!-- Node6&#45;&gt;Node13 -->
<g id="edge14_Node000006_Node000013" class="edge">
<title>Node6&#45;&gt;Node13</title>
<g id="a_edge14_Node000006_Node000013"><a xlink:title=" ">
<path fill="none" stroke="#63b8ff" d="M547.05,-79.86C511.97,-69.81 458.99,-54.55 413,-41 400.91,-37.44 387.57,-33.45 376.14,-30.01"/>
<polygon fill="#63b8ff" stroke="#63b8ff" points="546.32,-83.3 556.89,-82.69 548.25,-76.57 546.32,-83.3"/>
</a>
</g>
</g>
<!-- Node14&#45;&gt;Node13 -->
<g id="edge16_Node000014_Node000013" class="edge">
<title>Node14&#45;&gt;Node13</title>
<g id="a_edge16_Node000014_Node000013"><a xlink:title=" ">
<path fill="none" stroke="#63b8ff" d="M308.88,-69.2C319.67,-56.04 332.84,-39.99 340.81,-30.27"/>
<polygon fill="#63b8ff" stroke="#63b8ff" points="306.17,-66.98 302.53,-76.94 311.58,-71.42 306.17,-66.98"/>
</a>
</g>
</g>
<!-- Node15&#45;&gt;Node2 -->
<g id="edge22_Node000015_Node000002" class="edge">
<title>Node15&#45;&gt;Node2</title>
<g id="a_edge22_Node000015_Node000002"><a xlink:title=" ">
<path fill="none" stroke="#63b8ff" d="M525.26,-279.83C458.49,-270.43 352.93,-254.97 262,-239 252.6,-237.35 242.52,-235.42 233.03,-233.54"/>
<polygon fill="#63b8ff" stroke="#63b8ff" points="524.84,-283.3 535.23,-281.23 525.81,-276.37 524.84,-283.3"/>
</a>
</g>
</g>
<!-- Node16 -->
<g id="Node000016" class="node">
<title>Node16</title>
<g id="a_Node000016"><a xlink:href="madness_2buffer_8h.html" target="_top" xlink:title=" ">
<polygon fill="white" stroke="#666666" points="1235,-167.5 1095,-167.5 1095,-148.5 1235,-148.5 1235,-167.5"/>
<text text-anchor="middle" x="1165" y="-155.5" font-family="Times,serif" font-size="10.00">ttg/ttg/madness/buffer.h</text>
</a>
</g>
</g>
<!-- Node15&#45;&gt;Node16 -->
<g id="edge18_Node000015_Node000016" class="edge">
<title>Node15&#45;&gt;Node16</title>
<g id="a_edge18_Node000015_Node000016"><a xlink:title=" ">
<path fill="none" stroke="#63b8ff" d="M658.92,-287.48C774.82,-283.97 1007.54,-272.82 1081,-239 1116.67,-222.58 1146.74,-184.76 1159.04,-167.66"/>
<polygon fill="#63b8ff" stroke="#63b8ff" points="658.65,-283.98 648.76,-287.78 658.86,-290.98 658.65,-283.98"/>
</a>
</g>
</g>
<!-- Node18 -->
<g id="Node000018" class="node">
<title>Node18</title>
<g id="a_Node000018"><a xlink:href="madness_8h.html" target="_top" xlink:title=" ">
<polygon fill="white" stroke="#666666" points="398.5,-239 271.5,-239 271.5,-209 398.5,-209 398.5,-239"/>
<text text-anchor="start" x="279.5" y="-227" font-family="Times,serif" font-size="10.00">ttg/ttg/serialization</text>
<text text-anchor="middle" x="335" y="-216" font-family="Times,serif" font-size="10.00">/backends/madness.h</text>
</a>
</g>
</g>
<!-- Node15&#45;&gt;Node18 -->
<g id="edge23_Node000015_Node000018" class="edge">
<title>Node15&#45;&gt;Node18</title>
<g id="a_edge23_Node000015_Node000018"><a xlink:title=" ">
<path fill="none" stroke="#63b8ff" d="M525.81,-272.52C484.13,-262.14 430.91,-248.88 391.27,-239.01"/>
<polygon fill="#63b8ff" stroke="#63b8ff" points="525.05,-275.93 535.6,-274.95 526.74,-269.14 525.05,-275.93"/>
</a>
</g>
</g>
<!-- Node19 -->
<g id="Node000019" class="node">
<title>Node19</title>
<g id="a_Node000019"><a xlink:href="data__descriptor_8h.html" target="_top" xlink:title=" ">
<polygon fill="white" stroke="#666666" points="483.5,-107 370.5,-107 370.5,-77 483.5,-77 483.5,-107"/>
<text text-anchor="start" x="378.5" y="-95" font-family="Times,serif" font-size="10.00">ttg/ttg/serialization</text>
<text text-anchor="middle" x="427" y="-84" font-family="Times,serif" font-size="10.00">/data_descriptor.h</text>
</a>
</g>
</g>
<!-- Node15&#45;&gt;Node19 -->
<g id="edge25_Node000015_Node000019" class="edge">
<title>Node15&#45;&gt;Node19</title>
<g id="a_edge25_Node000015_Node000019"><a xlink:title=" ">
<path fill="none" stroke="#63b8ff" d="M528.41,-271.32C509.78,-263.74 490.53,-253.25 476,-239 438.58,-202.31 429.74,-136.22 427.65,-107.25"/>
<polygon fill="#63b8ff" stroke="#63b8ff" points="527.18,-274.6 537.77,-274.92 529.69,-268.07 527.18,-274.6"/>
</a>
</g>
</g>
<!-- Node20 -->
<g id="Node000020" class="node">
<title>Node20</title>
<g id="a_Node000020"><a xlink:href="allocator_8h.html" target="_top" xlink:title=" ">
<polygon fill="white" stroke="#666666" points="606.5,-239 493.5,-239 493.5,-209 606.5,-209 606.5,-239"/>
<text text-anchor="start" x="501.5" y="-227" font-family="Times,serif" font-size="10.00">ttg/ttg/serialization</text>
<text text-anchor="middle" x="550" y="-216" font-family="Times,serif" font-size="10.00">/std/allocator.h</text>
</a>
</g>
</g>
<!-- Node15&#45;&gt;Node20 -->
<g id="edge27_Node000015_Node000020" class="edge">
<title>Node15&#45;&gt;Node20</title>
<g id="a_edge27_Node000015_Node000020"><a xlink:title=" ">
<path fill="none" stroke="#63b8ff" d="M577.07,-266.24C571.14,-257.21 564.51,-247.11 559.3,-239.16"/>
<polygon fill="#63b8ff" stroke="#63b8ff" points="574.27,-268.36 582.68,-274.8 580.12,-264.52 574.27,-268.36"/>
</a>
</g>
</g>
<!-- Node21 -->
<g id="Node000021" class="node">
<title>Node21</title>
<g id="a_Node000021"><a xlink:href="list_8h.html" target="_top" xlink:title=" ">
<polygon fill="white" stroke="#666666" points="568.5,-173 455.5,-173 455.5,-143 568.5,-143 568.5,-173"/>
<text text-anchor="start" x="463.5" y="-161" font-family="Times,serif" font-size="10.00">ttg/ttg/serialization</text>
<text text-anchor="middle" x="512" y="-150" font-family="Times,serif" font-size="10.00">/std/list.h</text>
</a>
</g>
</g>
<!-- Node15&#45;&gt;Node21 -->
<g id="edge32_Node000015_Node000021" class="edge">
<title>Node15&#45;&gt;Node21</title>
<g id="a_edge32_Node000015_Node000021"><a xlink:title=" ">
<path fill="none" stroke="#63b8ff" d="M525.56,-272.19C509.23,-264.76 493.67,-254.14 484,-239 470.61,-218.04 487.1,-189.89 499.86,-173.18"/>
<polygon fill="#63b8ff" stroke="#63b8ff" points="524.65,-275.6 535.23,-276.2 527.34,-269.13 524.65,-275.6"/>
</a>
</g>
</g>
<!-- Node22 -->
<g id="Node000022" class="node">
<title>Node22</title>
<g id="a_Node000022"><a xlink:href="vector_8h.html" target="_top" xlink:title=" ">
<polygon fill="white" stroke="#666666" points="699.5,-173 586.5,-173 586.5,-143 699.5,-143 699.5,-173"/>
<text text-anchor="start" x="594.5" y="-161" font-family="Times,serif" font-size="10.00">ttg/ttg/serialization</text>
<text text-anchor="middle" x="643" y="-150" font-family="Times,serif" font-size="10.00">/std/vector.h</text>
</a>
</g>
</g>
<!-- Node15&#45;&gt;Node22 -->
<g id="edge39_Node000015_Node000022" class="edge">
<title>Node15&#45;&gt;Node22</title>
<g id="a_edge39_Node000015_Node000022"><a xlink:title=" ">
<path fill="none" stroke="#63b8ff" d="M603.93,-265.66C607.99,-257.34 612.4,-247.85 616,-239 625.23,-216.33 633.91,-189.19 638.82,-173.06"/>
<polygon fill="#63b8ff" stroke="#63b8ff" points="600.72,-264.26 599.4,-274.77 606.99,-267.37 600.72,-264.26"/>
</a>
</g>
</g>
<!-- Node23 -->
<g id="Node000023" class="node">
<title>Node23</title>
<g id="a_Node000023"><a xlink:href="array_8h.html" target="_top" xlink:title=" ">
<polygon fill="white" stroke="#666666" points="776.5,-239 663.5,-239 663.5,-209 776.5,-209 776.5,-239"/>
<text text-anchor="start" x="671.5" y="-227" font-family="Times,serif" font-size="10.00">ttg/ttg/serialization</text>
<text text-anchor="middle" x="720" y="-216" font-family="Times,serif" font-size="10.00">/std/array.h</text>
</a>
</g>
</g>
<!-- Node15&#45;&gt;Node23 -->
<g id="edge30_Node000015_Node000023" class="edge">
<title>Node15&#45;&gt;Node23</title>
<g id="a_edge30_Node000015_Node000023"><a xlink:title=" ">
<path fill="none" stroke="#63b8ff" d="M629.24,-270.38C649.27,-260.36 673.57,-248.22 691.98,-239.01"/>
<polygon fill="#63b8ff" stroke="#63b8ff" points="627.47,-267.35 620.09,-274.95 630.6,-273.61 627.47,-267.35"/>
</a>
</g>
</g>
<!-- Node25 -->
<g id="Node000025" class="node">
<title>Node25</title>
<g id="a_Node000025"><a xlink:href="serialization_2std_2pair_8h.html" target="_top" xlink:title=" ">
<polygon fill="white" stroke="#666666" points="1070.5,-107 957.5,-107 957.5,-77 1070.5,-77 1070.5,-107"/>
<text text-anchor="start" x="965.5" y="-95" font-family="Times,serif" font-size="10.00">ttg/ttg/serialization</text>
<text text-anchor="middle" x="1014" y="-84" font-family="Times,serif" font-size="10.00">/std/pair.h</text>
</a>
</g>
</g>
<!-- Node15&#45;&gt;Node25 -->
<g id="edge33_Node000015_Node000025" class="edge">
<title>Node15&#45;&gt;Node25</title>
<g id="a_edge33_Node000015_Node000025"><a xlink:title=" ">
<path fill="none" stroke="#63b8ff" d="M659.1,-286.5C779.6,-281.31 1022.53,-267.42 1048,-239 1082.05,-201.02 1044.03,-135.61 1024.34,-107.04"/>
<polygon fill="#63b8ff" stroke="#63b8ff" points="658.73,-283.01 648.88,-286.93 659.02,-290 658.73,-283.01"/>
</a>
</g>
</g>
<!-- Node26 -->
<g id="Node000026" class="node">
<title>Node26</title>
<g id="a_Node000026"><a xlink:href="tuple_8h.html" target="_top" xlink:title=" ">
<polygon fill="white" stroke="#666666" points="907.5,-239 794.5,-239 794.5,-209 907.5,-209 907.5,-239"/>
<text text-anchor="start" x="802.5" y="-227" font-family="Times,serif" font-size="10.00">ttg/ttg/serialization</text>
<text text-anchor="middle" x="851" y="-216" font-family="Times,serif" font-size="10.00">/std/tuple.h</text>
</a>
</g>
</g>
<!-- Node15&#45;&gt;Node26 -->
<g id="edge37_Node000015_Node000026" class="edge">
<title>Node15&#45;&gt;Node26</title>
<g id="a_edge37_Node000015_Node000026"><a xlink:title=" ">
<path fill="none" stroke="#63b8ff" d="M658.38,-272.6C700.39,-262.22 754.12,-248.94 794.16,-239.05"/>
<polygon fill="#63b8ff" stroke="#63b8ff" points="657.39,-269.24 648.52,-275.03 659.07,-276.03 657.39,-269.24"/>
</a>
</g>
</g>
<!-- Node27 -->
<g id="Node000027" class="node">
<title>Node27</title>
<g id="a_Node000027"><a xlink:href="variant_8h.html" target="_top" xlink:title=" ">
<polygon fill="white" stroke="#666666" points="1038.5,-239 925.5,-239 925.5,-209 1038.5,-209 1038.5,-239"/>
<text text-anchor="start" x="933.5" y="-227" font-family="Times,serif" font-size="10.00">ttg/ttg/serialization</text>
<text text-anchor="middle" x="982" y="-216" font-family="Times,serif" font-size="10.00">/std/variant.h</text>
</a>
</g>
</g>
<!-- Node15&#45;&gt;Node27 -->
<g id="edge38_Node000015_Node000027" class="edge">
<title>Node15&#45;&gt;Node27</title>
<g id="a_edge38_Node000015_Node000027"><a xlink:title=" ">
<path fill="none" stroke="#63b8ff" d="M658.77,-279.91C724.61,-270.67 828.01,-255.41 917,-239 919.72,-238.5 922.51,-237.97 925.32,-237.42"/>
<polygon fill="#63b8ff" stroke="#63b8ff" points="657.96,-276.49 648.54,-281.34 658.92,-283.42 657.96,-276.49"/>
</a>
</g>
</g>
<!-- Node16&#45;&gt;Node12 -->
<g id="edge21_Node000016_Node000012" class="edge">
<title>Node16&#45;&gt;Node12</title>
<g id="a_edge21_Node000016_Node000012"><a xlink:title=" ">
<path fill="none" stroke="#63b8ff" d="M1163.94,-137.81C1163.91,-120.57 1166.2,-95.24 1178,-77 1192.62,-54.4 1220.05,-38.9 1239.58,-30.15"/>
<polygon fill="#63b8ff" stroke="#63b8ff" points="1160.46,-138.37 1164.25,-148.27 1167.46,-138.17 1160.46,-138.37"/>
</a>
</g>
</g>
<!-- Node17 -->
<g id="Node000017" class="node">
<title>Node17</title>
<g id="a_Node000017"><a xlink:href="madness_2devicefunc_8h.html" target="_top" xlink:title=" ">
<polygon fill="white" stroke="#666666" points="1351.5,-101.5 1186.5,-101.5 1186.5,-82.5 1351.5,-82.5 1351.5,-101.5"/>
<text text-anchor="middle" x="1269" y="-89.5" font-family="Times,serif" font-size="10.00">ttg/ttg/madness/devicefunc.h</text>
</a>
</g>
</g>
<!-- Node16&#45;&gt;Node17 -->
<g id="edge19_Node000016_Node000017" class="edge">
<title>Node16&#45;&gt;Node17</title>
<g id="a_edge19_Node000016_Node000017"><a xlink:title=" ">
<path fill="none" stroke="#63b8ff" d="M1187.72,-143.02C1208.17,-130.43 1237.6,-112.32 1254.86,-101.7"/>
<polygon fill="#63b8ff" stroke="#63b8ff" points="1185.71,-140.15 1179.03,-148.37 1189.38,-146.11 1185.71,-140.15"/>
</a>
</g>
</g>
<!-- Node17&#45;&gt;Node12 -->
<g id="edge20_Node000017_Node000012" class="edge">
<title>Node17&#45;&gt;Node12</title>
<g id="a_edge20_Node000017_Node000012"><a xlink:title=" ">
<path fill="none" stroke="#63b8ff" d="M1267.11,-72.21C1265.73,-58.5 1263.92,-40.55 1262.87,-30.09"/>
<polygon fill="#63b8ff" stroke="#63b8ff" points="1263.66,-72.88 1268.14,-82.48 1270.62,-72.18 1263.66,-72.88"/>
</a>
</g>
</g>
<!-- Node18&#45;&gt;Node1 -->
<g id="edge24_Node000018_Node000001" class="edge">
<title>Node18&#45;&gt;Node1</title>
<g id="a_edge24_Node000018_Node000001"><a xlink:title=" ">
<path fill="none" stroke="#63b8ff" d="M335,-249.3C335,-276.27 335,-318.86 335,-340.84"/>
<polygon fill="#63b8ff" stroke="#63b8ff" points="338.5,-249.14 335,-239.14 331.5,-249.14 338.5,-249.14"/>
</a>
</g>
</g>
<!-- Node19&#45;&gt;Node13 -->
<g id="edge26_Node000019_Node000013" class="edge">
<title>Node19&#45;&gt;Node13</title>
<g id="a_edge26_Node000019_Node000013"><a xlink:title=" ">
<path fill="none" stroke="#63b8ff" d="M403.48,-70.31C388.3,-56.95 369.33,-40.26 357.97,-30.27"/>
<polygon fill="#63b8ff" stroke="#63b8ff" points="401.19,-72.96 411.01,-76.94 405.82,-67.7 401.19,-72.96"/>
</a>
</g>
</g>
<!-- Node20&#45;&gt;Node21 -->
<g id="edge28_Node000020_Node000021" class="edge">
<title>Node20&#45;&gt;Node21</title>
<g id="a_edge28_Node000020_Node000021"><a xlink:title=" ">
<path fill="none" stroke="#63b8ff" d="M536.32,-199.96C531,-191 525.08,-181.03 520.41,-173.16"/>
<polygon fill="#63b8ff" stroke="#63b8ff" points="533.45,-201.98 541.57,-208.8 539.47,-198.41 533.45,-201.98"/>
</a>
</g>
</g>
<!-- Node20&#45;&gt;Node22 -->
<g id="edge29_Node000020_Node000022" class="edge">
<title>Node20&#45;&gt;Node22</title>
<g id="a_edge29_Node000020_Node000022"><a xlink:title=" ">
<path fill="none" stroke="#63b8ff" d="M579.02,-203.03C593.09,-193.34 609.67,-181.94 622.42,-173.16"/>
<polygon fill="#63b8ff" stroke="#63b8ff" points="576.89,-200.24 570.64,-208.8 580.86,-206.01 576.89,-200.24"/>
</a>
</g>
</g>
<!-- Node24 -->
<g id="Node000024" class="node">
<title>Node24</title>
<g id="a_Node000024"><a xlink:href="multiindex_8h.html" target="_top" xlink:title=" ">
<polygon fill="white" stroke="#666666" points="852.5,-167.5 717.5,-167.5 717.5,-148.5 852.5,-148.5 852.5,-167.5"/>
<text text-anchor="middle" x="785" y="-155.5" font-family="Times,serif" font-size="10.00">ttg/ttg/util/multiindex.h</text>
</a>
</g>
</g>
<!-- Node23&#45;&gt;Node24 -->
<g id="edge31_Node000023_Node000024" class="edge">
<title>Node23&#45;&gt;Node24</title>
<g id="a_edge31_Node000023_Node000024"><a xlink:title=" ">
<path fill="none" stroke="#63b8ff" d="M741.73,-201.6C753.42,-190.1 767.2,-176.52 776.02,-167.84"/>
<polygon fill="#63b8ff" stroke="#63b8ff" points="739.1,-199.29 734.43,-208.8 744.01,-204.27 739.1,-199.29"/>
</a>
</g>
</g>
<!-- Node25&#45;&gt;Node8 -->
<g id="edge34_Node000025_Node000008" class="edge">
<title>Node25&#45;&gt;Node8</title>
<g id="a_edge34_Node000025_Node000008"><a xlink:title=" ">
<path fill="none" stroke="#63b8ff" d="M963.08,-73.57C928.75,-61.81 884.06,-46.51 852.02,-35.54"/>
<polygon fill="#63b8ff" stroke="#63b8ff" points="962.33,-77.01 972.92,-76.94 964.59,-70.39 962.33,-77.01"/>
</a>
</g>
</g>
<!-- Node25&#45;&gt;Node9 -->
<g id="edge35_Node000025_Node000009" class="edge">
<title>Node25&#45;&gt;Node9</title>
<g id="a_edge35_Node000025_Node000009"><a xlink:title=" ">
<path fill="none" stroke="#63b8ff" d="M997.64,-68.71C989.65,-57.82 980.28,-45.05 973.31,-35.54"/>
<polygon fill="#63b8ff" stroke="#63b8ff" points="994.94,-70.94 1003.68,-76.94 1000.58,-66.8 994.94,-70.94"/>
</a>
</g>
</g>
<!-- Node25&#45;&gt;Node10 -->
<g id="edge36_Node000025_Node000010" class="edge">
<title>Node25&#45;&gt;Node10</title>
<g id="a_edge36_Node000025_Node000010"><a xlink:title=" ">
<path fill="none" stroke="#63b8ff" d="M1042.69,-71.25C1059.25,-59.86 1079.68,-45.81 1094.59,-35.54"/>
<polygon fill="#63b8ff" stroke="#63b8ff" points="1040.69,-68.38 1034.44,-76.94 1044.66,-74.15 1040.69,-68.38"/>
</a>
</g>
</g>
</g>
</svg>
