<?xml version="1.0" encoding="UTF-8" standalone="no"?>
<!DOCTYPE svg PUBLIC "-//W3C//DTD SVG 1.1//EN"
 "http://www.w3.org/Graphics/SVG/1.1/DTD/svg11.dtd">
<!-- Generated by graphviz version 2.43.0 (0)
 -->
<!-- Title: ttg/ttg/util/backtrace.h Pages: 1 -->
<svg width="282pt" height="82pt"
 viewBox="0.00 0.00 281.50 82.00" xmlns="http://www.w3.org/2000/svg" xmlns:xlink="http://www.w3.org/1999/xlink">
<g id="graph0" class="graph" transform="scale(1 1) rotate(0) translate(4 78)">
<title>ttg/ttg/util/backtrace.h</title>
<!-- Node1 -->
<g id="Node000001" class="node">
<title>Node1</title>
<g id="a_Node000001"><a xlink:title=" ">
<polygon fill="#999999" stroke="#666666" points="209,-74 79,-74 79,-55 209,-55 209,-74"/>
<text text-anchor="middle" x="144" y="-62" font-family="Times,serif" font-size="10.00">ttg/ttg/util/backtrace.h</text>
</a>
</g>
</g>
<!-- Node2 -->
<g id="Node000002" class="node">
<title>Node2</title>
<g id="a_Node000002"><a xlink:href="backtrace_8cpp.html" target="_top" xlink:title=" ">
<polygon fill="white" stroke="#666666" points="142,-19 0,-19 0,0 142,0 142,-19"/>
<text text-anchor="middle" x="71" y="-7" font-family="Times,serif" font-size="10.00">ttg/ttg/util/backtrace.cpp</text>
</a>
</g>
</g>
<!-- Node1&#45;&gt;Node2 -->
<g id="edge1_Node000001_Node000002" class="edge">
<title>Node1&#45;&gt;Node2</title>
<g id="a_edge1_Node000001_Node000002"><a xlink:title=" ">
<path fill="none" stroke="#63b8ff" d="M123.86,-48.88C110.72,-39.34 94.02,-27.21 82.94,-19.17"/>
<polygon fill="#63b8ff" stroke="#63b8ff" points="122.12,-51.94 132.27,-54.98 126.24,-46.28 122.12,-51.94"/>
</a>
</g>
</g>
<!-- Node3 -->
<g id="Node000003" class="node">
<title>Node3</title>
<g id="a_Node000003"><a xlink:href="bug_8cpp.html" target="_top" xlink:title=" ">
<polygon fill="white" stroke="#666666" points="273.5,-19 160.5,-19 160.5,0 273.5,0 273.5,-19"/>
<text text-anchor="middle" x="217" y="-7" font-family="Times,serif" font-size="10.00">ttg/ttg/util/bug.cpp</text>
</a>
</g>
</g>
<!-- Node1&#45;&gt;Node3 -->
<g id="edge2_Node000001_Node000003" class="edge">
<title>Node1&#45;&gt;Node3</title>
<g id="a_edge2_Node000001_Node000003"><a xlink:title=" ">
<path fill="none" stroke="#63b8ff" d="M164.14,-48.88C177.28,-39.34 193.98,-27.21 205.06,-19.17"/>
<polygon fill="#63b8ff" stroke="#63b8ff" points="161.76,-46.28 155.73,-54.98 165.88,-51.94 161.76,-46.28"/>
</a>
</g>
</g>
</g>
</svg>
