<?xml version="1.0" encoding="UTF-8" standalone="no"?>
<!DOCTYPE svg PUBLIC "-//W3C//DTD SVG 1.1//EN"
 "http://www.w3.org/Graphics/SVG/1.1/DTD/svg11.dtd">
<!-- Generated by graphviz version 2.43.0 (0)
 -->
<!-- Title: ttg/ttg/base/tt.h Pages: 1 -->
<svg width="799pt" height="192pt"
 viewBox="0.00 0.00 799.00 192.00" xmlns="http://www.w3.org/2000/svg" xmlns:xlink="http://www.w3.org/1999/xlink">
<g id="graph0" class="graph" transform="scale(1 1) rotate(0) translate(4 188)">
<title>ttg/ttg/base/tt.h</title>
<!-- Node1 -->
<g id="Node000001" class="node">
<title>Node1</title>
<g id="a_Node000001"><a xlink:title=" ">
<polygon fill="#999999" stroke="#666666" points="460,-184 365,-184 365,-165 460,-165 460,-184"/>
<text text-anchor="middle" x="412.5" y="-172" font-family="Times,serif" font-size="10.00">ttg/ttg/base/tt.h</text>
</a>
</g>
</g>
<!-- Node2 -->
<g id="Node000002" class="node">
<title>Node2</title>
<g id="a_Node000002"><a xlink:title=" ">
<polygon fill="#e0e0e0" stroke="#999999" points="143,-129 92,-129 92,-110 143,-110 143,-129"/>
<text text-anchor="middle" x="117.5" y="-117" font-family="Times,serif" font-size="10.00">cstdint</text>
</a>
</g>
</g>
<!-- Node1&#45;&gt;Node2 -->
<g id="edge1_Node000001_Node000002" class="edge">
<title>Node1&#45;&gt;Node2</title>
<g id="a_edge1_Node000001_Node000002"><a xlink:title=" ">
<path fill="none" stroke="#63b8ff" d="M364.94,-165.73C313.65,-157.24 229.64,-142.95 157.5,-129 156.06,-128.72 154.6,-128.43 153.12,-128.14"/>
<polygon fill="#63b8ff" stroke="#63b8ff" points="153.79,-124.7 143.29,-126.13 152.39,-131.56 153.79,-124.7"/>
</a>
</g>
</g>
<!-- Node3 -->
<g id="Node000003" class="node">
<title>Node3</title>
<g id="a_Node000003"><a xlink:title=" ">
<polygon fill="#e0e0e0" stroke="#999999" points="61,-19 0,-19 0,0 61,0 61,-19"/>
<text text-anchor="middle" x="30.5" y="-7" font-family="Times,serif" font-size="10.00">iostream</text>
</a>
</g>
</g>
<!-- Node1&#45;&gt;Node3 -->
<g id="edge2_Node000001_Node000003" class="edge">
<title>Node1&#45;&gt;Node3</title>
<g id="a_edge2_Node000001_Node000003"><a xlink:title=" ">
<path fill="none" stroke="#63b8ff" d="M364.67,-169.3C319.93,-164.07 252.02,-152.74 197.5,-129 136.68,-102.52 75.81,-51.69 47.26,-26.07"/>
<polygon fill="#63b8ff" stroke="#63b8ff" points="49.54,-23.41 39.79,-19.27 44.83,-28.59 49.54,-23.41"/>
</a>
</g>
</g>
<!-- Node4 -->
<g id="Node000004" class="node">
<title>Node4</title>
<g id="a_Node000004"><a xlink:title=" ">
<polygon fill="#e0e0e0" stroke="#999999" points="715.5,-129 657.5,-129 657.5,-110 715.5,-110 715.5,-129"/>
<text text-anchor="middle" x="686.5" y="-117" font-family="Times,serif" font-size="10.00">optional</text>
</a>
</g>
</g>
<!-- Node1&#45;&gt;Node4 -->
<g id="edge3_Node000001_Node000004" class="edge">
<title>Node1&#45;&gt;Node4</title>
<g id="a_edge3_Node000001_Node000004"><a xlink:title=" ">
<path fill="none" stroke="#63b8ff" d="M460.06,-165.02C505.64,-156.78 576.63,-143.67 647.48,-129.15"/>
<polygon fill="#63b8ff" stroke="#63b8ff" points="648.39,-132.54 657.48,-127.1 646.98,-125.69 648.39,-132.54"/>
</a>
</g>
</g>
<!-- Node5 -->
<g id="Node000005" class="node">
<title>Node5</title>
<g id="a_Node000005"><a xlink:title=" ">
<polygon fill="#e0e0e0" stroke="#999999" points="791,-129 734,-129 734,-110 791,-110 791,-129"/>
<text text-anchor="middle" x="762.5" y="-117" font-family="Times,serif" font-size="10.00">sstream</text>
</a>
</g>
</g>
<!-- Node1&#45;&gt;Node5 -->
<g id="edge4_Node000001_Node000005" class="edge">
<title>Node1&#45;&gt;Node5</title>
<g id="a_edge4_Node000001_Node000005"><a xlink:title=" ">
<path fill="none" stroke="#63b8ff" d="M460.26,-167.87C519.66,-160.61 624.36,-146.94 723.98,-128.96"/>
<polygon fill="#63b8ff" stroke="#63b8ff" points="724.71,-132.38 733.92,-127.15 723.45,-125.5 724.71,-132.38"/>
</a>
</g>
</g>
<!-- Node6 -->
<g id="Node000006" class="node">
<title>Node6</title>
<g id="a_Node000006"><a xlink:title=" ">
<polygon fill="#e0e0e0" stroke="#999999" points="528,-74 481,-74 481,-55 528,-55 528,-74"/>
<text text-anchor="middle" x="504.5" y="-62" font-family="Times,serif" font-size="10.00">string</text>
</a>
</g>
</g>
<!-- Node1&#45;&gt;Node6 -->
<g id="edge5_Node000001_Node000006" class="edge">
<title>Node1&#45;&gt;Node6</title>
<g id="a_edge5_Node000001_Node000006"><a xlink:title=" ">
<path fill="none" stroke="#63b8ff" d="M430.94,-164.89C445.55,-157.26 465.59,-144.86 478.5,-129 489.19,-115.86 496.03,-97.73 499.99,-84.2"/>
<polygon fill="#63b8ff" stroke="#63b8ff" points="503.48,-84.7 502.67,-74.13 496.72,-82.9 503.48,-84.7"/>
</a>
</g>
</g>
<!-- Node7 -->
<g id="Node000007" class="node">
<title>Node7</title>
<g id="a_Node000007"><a xlink:title=" ">
<polygon fill="#e0e0e0" stroke="#999999" points="398.5,-19 350.5,-19 350.5,0 398.5,0 398.5,-19"/>
<text text-anchor="middle" x="374.5" y="-7" font-family="Times,serif" font-size="10.00">vector</text>
</a>
</g>
</g>
<!-- Node1&#45;&gt;Node7 -->
<g id="edge6_Node000001_Node000007" class="edge">
<title>Node1&#45;&gt;Node7</title>
<g id="a_edge6_Node000001_Node000007"><a xlink:title=" ">
<path fill="none" stroke="#63b8ff" d="M389.72,-164.89C374.47,-157.79 355.58,-146.08 346.5,-129 328.88,-95.86 349.16,-51.69 363.26,-27.73"/>
<polygon fill="#63b8ff" stroke="#63b8ff" points="366.33,-29.41 368.61,-19.06 360.38,-25.73 366.33,-29.41"/>
</a>
</g>
</g>
<!-- Node8 -->
<g id="Node000008" class="node">
<title>Node8</title>
<g id="a_Node000008"><a xlink:href="base_2terminal_8h.html" target="_top" xlink:title=" ">
<polygon fill="white" stroke="#666666" points="469,-129 356,-129 356,-110 469,-110 469,-129"/>
<text text-anchor="middle" x="412.5" y="-117" font-family="Times,serif" font-size="10.00">ttg/base/terminal.h</text>
</a>
</g>
</g>
<!-- Node1&#45;&gt;Node8 -->
<g id="edge7_Node000001_Node000008" class="edge">
<title>Node1&#45;&gt;Node8</title>
<g id="a_edge7_Node000001_Node000008"><a xlink:title=" ">
<path fill="none" stroke="#63b8ff" d="M412.5,-164.75C412.5,-157.8 412.5,-147.85 412.5,-139.13"/>
<polygon fill="#63b8ff" stroke="#63b8ff" points="416,-139.09 412.5,-129.09 409,-139.09 416,-139.09"/>
</a>
</g>
</g>
<!-- Node11 -->
<g id="Node000011" class="node">
<title>Node11</title>
<g id="a_Node000011"><a xlink:href="demangle_8h.html" target="_top" xlink:title=" ">
<polygon fill="white" stroke="#666666" points="639.5,-129 525.5,-129 525.5,-110 639.5,-110 639.5,-129"/>
<text text-anchor="middle" x="582.5" y="-117" font-family="Times,serif" font-size="10.00">ttg/util/demangle.h</text>
</a>
</g>
</g>
<!-- Node1&#45;&gt;Node11 -->
<g id="edge12_Node000001_Node000011" class="edge">
<title>Node1&#45;&gt;Node11</title>
<g id="a_edge12_Node000001_Node000011"><a xlink:title=" ">
<path fill="none" stroke="#63b8ff" d="M439.81,-164.98C468.35,-156.09 513.33,-142.07 545.14,-132.15"/>
<polygon fill="#63b8ff" stroke="#63b8ff" points="546.47,-135.4 554.97,-129.08 544.38,-128.72 546.47,-135.4"/>
</a>
</g>
</g>
<!-- Node15 -->
<g id="Node000015" class="node">
<title>Node15</title>
<g id="a_Node000015"><a xlink:href="trace_8h.html" target="_top" xlink:title=" ">
<polygon fill="white" stroke="#666666" points="296,-129 207,-129 207,-110 296,-110 296,-129"/>
<text text-anchor="middle" x="251.5" y="-117" font-family="Times,serif" font-size="10.00">ttg/util/trace.h</text>
</a>
</g>
</g>
<!-- Node1&#45;&gt;Node15 -->
<g id="edge17_Node000001_Node000015" class="edge">
<title>Node1&#45;&gt;Node15</title>
<g id="a_edge17_Node000001_Node000015"><a xlink:title=" ">
<path fill="none" stroke="#63b8ff" d="M386.63,-164.98C359.72,-156.13 317.38,-142.19 287.27,-132.28"/>
<polygon fill="#63b8ff" stroke="#63b8ff" points="288.16,-128.88 277.57,-129.08 285.97,-135.53 288.16,-128.88"/>
</a>
</g>
</g>
<!-- Node8&#45;&gt;Node6 -->
<g id="edge8_Node000008_Node000006" class="edge">
<title>Node8&#45;&gt;Node6</title>
<g id="a_edge8_Node000008_Node000006"><a xlink:title=" ">
<path fill="none" stroke="#63b8ff" d="M427.28,-109.98C441.68,-101.69 463.81,-88.94 480.69,-79.22"/>
<polygon fill="#63b8ff" stroke="#63b8ff" points="482.53,-82.19 489.45,-74.17 479.04,-76.13 482.53,-82.19"/>
</a>
</g>
</g>
<!-- Node8&#45;&gt;Node7 -->
<g id="edge9_Node000008_Node000007" class="edge">
<title>Node8&#45;&gt;Node7</title>
<g id="a_edge9_Node000008_Node000007"><a xlink:title=" ">
<path fill="none" stroke="#63b8ff" d="M407.84,-109.83C403.23,-101.01 396.2,-86.83 391.5,-74 386.09,-59.25 381.59,-42 378.57,-29.2"/>
<polygon fill="#63b8ff" stroke="#63b8ff" points="381.95,-28.26 376.33,-19.28 375.12,-29.81 381.95,-28.26"/>
</a>
</g>
</g>
<!-- Node9 -->
<g id="Node000009" class="node">
<title>Node9</title>
<g id="a_Node000009"><a xlink:href="fwd_8h.html" target="_top" xlink:title=" ">
<polygon fill="white" stroke="#666666" points="462.5,-74 400.5,-74 400.5,-55 462.5,-55 462.5,-74"/>
<text text-anchor="middle" x="431.5" y="-62" font-family="Times,serif" font-size="10.00">ttg/fwd.h</text>
</a>
</g>
</g>
<!-- Node8&#45;&gt;Node9 -->
<g id="edge10_Node000008_Node000009" class="edge">
<title>Node8&#45;&gt;Node9</title>
<g id="a_edge10_Node000008_Node000009"><a xlink:title=" ">
<path fill="none" stroke="#63b8ff" d="M415.64,-109.75C418.18,-102.65 421.86,-92.4 425.03,-83.56"/>
<polygon fill="#63b8ff" stroke="#63b8ff" points="428.34,-84.68 428.42,-74.09 421.75,-82.32 428.34,-84.68"/>
</a>
</g>
</g>
<!-- Node10 -->
<g id="Node000010" class="node">
<title>Node10</title>
<g id="a_Node000010"><a xlink:href="impl__selector_8h.html" target="_top" xlink:title=" ">
<polygon fill="white" stroke="#666666" points="526.5,-19 416.5,-19 416.5,0 526.5,0 526.5,-19"/>
<text text-anchor="middle" x="471.5" y="-7" font-family="Times,serif" font-size="10.00">ttg/impl_selector.h</text>
</a>
</g>
</g>
<!-- Node9&#45;&gt;Node10 -->
<g id="edge11_Node000009_Node000010" class="edge">
<title>Node9&#45;&gt;Node10</title>
<g id="a_edge11_Node000009_Node000010"><a xlink:title=" ">
<path fill="none" stroke="#63b8ff" d="M438.11,-54.75C443.76,-47.26 452.04,-36.28 458.95,-27.13"/>
<polygon fill="#63b8ff" stroke="#63b8ff" points="461.79,-29.18 465.02,-19.09 456.2,-24.96 461.79,-29.18"/>
</a>
</g>
</g>
<!-- Node11&#45;&gt;Node6 -->
<g id="edge14_Node000011_Node000006" class="edge">
<title>Node11&#45;&gt;Node6</title>
<g id="a_edge14_Node000011_Node000006"><a xlink:title=" ">
<path fill="none" stroke="#63b8ff" d="M569.97,-109.98C558.1,-101.92 540.04,-89.65 525.89,-80.03"/>
<polygon fill="#63b8ff" stroke="#63b8ff" points="527.5,-76.9 517.26,-74.17 523.56,-82.69 527.5,-76.9"/>
</a>
</g>
</g>
<!-- Node12 -->
<g id="Node000012" class="node">
<title>Node12</title>
<g id="a_Node000012"><a xlink:title=" ">
<polygon fill="#e0e0e0" stroke="#999999" points="605,-74 546,-74 546,-55 605,-55 605,-74"/>
<text text-anchor="middle" x="575.5" y="-62" font-family="Times,serif" font-size="10.00">cxxabi.h</text>
</a>
</g>
</g>
<!-- Node11&#45;&gt;Node12 -->
<g id="edge13_Node000011_Node000012" class="edge">
<title>Node11&#45;&gt;Node12</title>
<g id="a_edge13_Node000011_Node000012"><a xlink:title=" ">
<path fill="none" stroke="#63b8ff" d="M581.34,-109.75C580.43,-102.8 579.11,-92.85 577.96,-84.13"/>
<polygon fill="#63b8ff" stroke="#63b8ff" points="581.41,-83.54 576.63,-74.09 574.47,-84.46 581.41,-83.54"/>
</a>
</g>
</g>
<!-- Node13 -->
<g id="Node000013" class="node">
<title>Node13</title>
<g id="a_Node000013"><a xlink:title=" ">
<polygon fill="#e0e0e0" stroke="#999999" points="682,-74 623,-74 623,-55 682,-55 682,-74"/>
<text text-anchor="middle" x="652.5" y="-62" font-family="Times,serif" font-size="10.00">typeinfo</text>
</a>
</g>
</g>
<!-- Node11&#45;&gt;Node13 -->
<g id="edge15_Node000011_Node000013" class="edge">
<title>Node11&#45;&gt;Node13</title>
<g id="a_edge15_Node000011_Node000013"><a xlink:title=" ">
<path fill="none" stroke="#63b8ff" d="M593.75,-109.98C604.3,-102 620.3,-89.88 632.94,-80.31"/>
<polygon fill="#63b8ff" stroke="#63b8ff" points="635.19,-83 641.05,-74.17 630.96,-77.42 635.19,-83"/>
</a>
</g>
</g>
<!-- Node14 -->
<g id="Node000014" class="node">
<title>Node14</title>
<g id="a_Node000014"><a xlink:title=" ">
<polygon fill="#e0e0e0" stroke="#999999" points="759,-74 700,-74 700,-55 759,-55 759,-74"/>
<text text-anchor="middle" x="729.5" y="-62" font-family="Times,serif" font-size="10.00">memory</text>
</a>
</g>
</g>
<!-- Node11&#45;&gt;Node14 -->
<g id="edge16_Node000011_Node000014" class="edge">
<title>Node11&#45;&gt;Node14</title>
<g id="a_edge16_Node000011_Node000014"><a xlink:title=" ">
<path fill="none" stroke="#63b8ff" d="M606.12,-109.98C630.4,-101.23 668.45,-87.51 695.87,-77.62"/>
<polygon fill="#63b8ff" stroke="#63b8ff" points="697.23,-80.85 705.45,-74.17 694.86,-74.27 697.23,-80.85"/>
</a>
</g>
</g>
<!-- Node16 -->
<g id="Node000016" class="node">
<title>Node16</title>
<g id="a_Node000016"><a xlink:href="print_8h.html" target="_top" xlink:title=" ">
<polygon fill="white" stroke="#666666" points="287.5,-74 199.5,-74 199.5,-55 287.5,-55 287.5,-74"/>
<text text-anchor="middle" x="243.5" y="-62" font-family="Times,serif" font-size="10.00">ttg/util/print.h</text>
</a>
</g>
</g>
<!-- Node15&#45;&gt;Node16 -->
<g id="edge18_Node000015_Node000016" class="edge">
<title>Node15&#45;&gt;Node16</title>
<g id="a_edge18_Node000015_Node000016"><a xlink:title=" ">
<path fill="none" stroke="#63b8ff" d="M250.18,-109.75C249.13,-102.8 247.63,-92.85 246.31,-84.13"/>
<polygon fill="#63b8ff" stroke="#63b8ff" points="249.75,-83.45 244.8,-74.09 242.83,-84.5 249.75,-83.45"/>
</a>
</g>
</g>
<!-- Node16&#45;&gt;Node3 -->
<g id="edge19_Node000016_Node000003" class="edge">
<title>Node16&#45;&gt;Node3</title>
<g id="a_edge19_Node000016_Node000003"><a xlink:title=" ">
<path fill="none" stroke="#63b8ff" d="M209.28,-54.98C171.55,-45.6 110.91,-30.51 70.89,-20.55"/>
<polygon fill="#63b8ff" stroke="#63b8ff" points="71.73,-17.15 61.18,-18.13 70.04,-23.95 71.73,-17.15"/>
</a>
</g>
</g>
<!-- Node16&#45;&gt;Node7 -->
<g id="edge22_Node000016_Node000007" class="edge">
<title>Node16&#45;&gt;Node7</title>
<g id="a_edge22_Node000016_Node000007"><a xlink:title=" ">
<path fill="none" stroke="#63b8ff" d="M264.55,-54.98C285.91,-46.34 319.2,-32.87 343.56,-23.02"/>
<polygon fill="#63b8ff" stroke="#63b8ff" points="345.11,-26.17 353.07,-19.17 342.49,-19.68 345.11,-26.17"/>
</a>
</g>
</g>
<!-- Node17 -->
<g id="Node000017" class="node">
<title>Node17</title>
<g id="a_Node000017"><a xlink:title=" ">
<polygon fill="#e0e0e0" stroke="#999999" points="332,-19 283,-19 283,0 332,0 332,-19"/>
<text text-anchor="middle" x="307.5" y="-7" font-family="Times,serif" font-size="10.00">mutex</text>
</a>
</g>
</g>
<!-- Node16&#45;&gt;Node17 -->
<g id="edge20_Node000016_Node000017" class="edge">
<title>Node16&#45;&gt;Node17</title>
<g id="a_edge20_Node000016_Node000017"><a xlink:title=" ">
<path fill="none" stroke="#63b8ff" d="M253.78,-54.98C263.34,-47.07 277.78,-35.11 289.28,-25.58"/>
<polygon fill="#63b8ff" stroke="#63b8ff" points="291.56,-28.24 297.03,-19.17 287.1,-22.85 291.56,-28.24"/>
</a>
</g>
</g>
<!-- Node18 -->
<g id="Node000018" class="node">
<title>Node18</title>
<g id="a_Node000018"><a xlink:title=" ">
<polygon fill="#e0e0e0" stroke="#999999" points="138,-19 79,-19 79,0 138,0 138,-19"/>
<text text-anchor="middle" x="108.5" y="-7" font-family="Times,serif" font-size="10.00">complex</text>
</a>
</g>
</g>
<!-- Node16&#45;&gt;Node18 -->
<g id="edge21_Node000016_Node000018" class="edge">
<title>Node16&#45;&gt;Node18</title>
<g id="a_edge21_Node000016_Node000018"><a xlink:title=" ">
<path fill="none" stroke="#63b8ff" d="M221.81,-54.98C199.7,-46.3 165.18,-32.75 140.05,-22.88"/>
<polygon fill="#63b8ff" stroke="#63b8ff" points="141.17,-19.57 130.58,-19.17 138.61,-26.08 141.17,-19.57"/>
</a>
</g>
</g>
<!-- Node19 -->
<g id="Node000019" class="node">
<title>Node19</title>
<g id="a_Node000019"><a xlink:title=" ">
<polygon fill="#e0e0e0" stroke="#999999" points="200.5,-19 156.5,-19 156.5,0 200.5,0 200.5,-19"/>
<text text-anchor="middle" x="178.5" y="-7" font-family="Times,serif" font-size="10.00">array</text>
</a>
</g>
</g>
<!-- Node16&#45;&gt;Node19 -->
<g id="edge23_Node000016_Node000019" class="edge">
<title>Node16&#45;&gt;Node19</title>
<g id="a_edge23_Node000016_Node000019"><a xlink:title=" ">
<path fill="none" stroke="#63b8ff" d="M233.06,-54.98C223.35,-47.07 208.68,-35.11 197,-25.58"/>
<polygon fill="#63b8ff" stroke="#63b8ff" points="199.1,-22.78 189.13,-19.17 194.67,-28.2 199.1,-22.78"/>
</a>
</g>
</g>
<!-- Node20 -->
<g id="Node000020" class="node">
<title>Node20</title>
<g id="a_Node000020"><a xlink:title=" ">
<polygon fill="#e0e0e0" stroke="#999999" points="264.5,-19 218.5,-19 218.5,0 264.5,0 264.5,-19"/>
<text text-anchor="middle" x="241.5" y="-7" font-family="Times,serif" font-size="10.00">utility</text>
</a>
</g>
</g>
<!-- Node16&#45;&gt;Node20 -->
<g id="edge24_Node000016_Node000020" class="edge">
<title>Node16&#45;&gt;Node20</title>
<g id="a_edge24_Node000016_Node000020"><a xlink:title=" ">
<path fill="none" stroke="#63b8ff" d="M243.17,-54.75C242.91,-47.8 242.53,-37.85 242.2,-29.13"/>
<polygon fill="#63b8ff" stroke="#63b8ff" points="245.7,-28.95 241.82,-19.09 238.7,-29.21 245.7,-28.95"/>
</a>
</g>
</g>
</g>
</svg>
