<?xml version="1.0" encoding="UTF-8" standalone="no"?>
<!DOCTYPE svg PUBLIC "-//W3C//DTD SVG 1.1//EN"
 "http://www.w3.org/Graphics/SVG/1.1/DTD/svg11.dtd">
<!-- Generated by graphviz version 2.43.0 (0)
 -->
<!-- Title: ttg/ttg/base/world.h Pages: 1 -->
<svg width="1332pt" height="599pt"
 viewBox="0.00 0.00 1332.00 599.00" xmlns="http://www.w3.org/2000/svg" xmlns:xlink="http://www.w3.org/1999/xlink">
<g id="graph0" class="graph" transform="scale(1 1) rotate(0) translate(4 595)">
<title>ttg/ttg/base/world.h</title>
<!-- Node1 -->
<g id="Node000001" class="node">
<title>Node1</title>
<g id="a_Node000001"><a xlink:title=" ">
<polygon fill="#999999" stroke="#666666" points="890,-591 774,-591 774,-572 890,-572 890,-591"/>
<text text-anchor="middle" x="832" y="-579" font-family="Times,serif" font-size="10.00">ttg/ttg/base/world.h</text>
</a>
</g>
</g>
<!-- Node2 -->
<g id="Node000002" class="node">
<title>Node2</title>
<g id="a_Node000002"><a xlink:href="ttg_8h.html" target="_top" xlink:title=" ">
<polygon fill="white" stroke="#666666" points="714,-96 656,-96 656,-77 714,-77 714,-96"/>
<text text-anchor="middle" x="685" y="-84" font-family="Times,serif" font-size="10.00">ttg/ttg.h</text>
</a>
</g>
</g>
<!-- Node1&#45;&gt;Node2 -->
<g id="edge1_Node000001_Node000002" class="edge">
<title>Node1&#45;&gt;Node2</title>
<g id="a_edge1_Node000001_Node000002"><a xlink:title=" ">
<path fill="none" stroke="#63b8ff" d="M767.74,-570.19C681.22,-554.46 538,-521.08 538,-472.5 538,-472.5 538,-472.5 538,-195.5 538,-137.55 613.12,-107.26 655.96,-94.7"/>
<polygon fill="#63b8ff" stroke="#63b8ff" points="767.27,-573.66 777.73,-571.97 768.5,-566.77 767.27,-573.66"/>
</a>
</g>
</g>
<!-- Node11 -->
<g id="Node000011" class="node">
<title>Node11</title>
<g id="a_Node000011"><a xlink:href="ttg_2parsec_2ttg_8h.html" target="_top" xlink:title=" ">
<polygon fill="white" stroke="#666666" points="1182,-30 1070,-30 1070,-11 1182,-11 1182,-30"/>
<text text-anchor="middle" x="1126" y="-18" font-family="Times,serif" font-size="10.00">ttg/ttg/parsec/ttg.h</text>
</a>
</g>
</g>
<!-- Node1&#45;&gt;Node11 -->
<g id="edge11_Node000001_Node000011" class="edge">
<title>Node1&#45;&gt;Node11</title>
<g id="a_edge11_Node000001_Node000011"><a xlink:title=" ">
<path fill="none" stroke="#63b8ff" d="M900.5,-579.35C1034,-575.25 1316,-556.62 1316,-472.5 1316,-472.5 1316,-472.5 1316,-195.5 1316,-106.27 1200.61,-50.44 1149.68,-30.15"/>
<polygon fill="#63b8ff" stroke="#63b8ff" points="900.28,-575.86 890.38,-579.64 900.48,-582.85 900.28,-575.86"/>
</a>
</g>
</g>
<!-- Node12 -->
<g id="Node000012" class="node">
<title>Node12</title>
<g id="a_Node000012"><a xlink:href="world_8h.html" target="_top" xlink:title=" ">
<polygon fill="white" stroke="#666666" points="876.5,-536 787.5,-536 787.5,-517 876.5,-517 876.5,-536"/>
<text text-anchor="middle" x="832" y="-524" font-family="Times,serif" font-size="10.00">ttg/ttg/world.h</text>
</a>
</g>
</g>
<!-- Node1&#45;&gt;Node12 -->
<g id="edge12_Node000001_Node000012" class="edge">
<title>Node1&#45;&gt;Node12</title>
<g id="a_edge12_Node000001_Node000012"><a xlink:title=" ">
<path fill="none" stroke="#63b8ff" d="M832,-561.66C832,-552.93 832,-542.99 832,-536.09"/>
<polygon fill="#63b8ff" stroke="#63b8ff" points="828.5,-561.75 832,-571.75 835.5,-561.75 828.5,-561.75"/>
</a>
</g>
</g>
<!-- Node3 -->
<g id="Node000003" class="node">
<title>Node3</title>
<g id="a_Node000003"><a xlink:href="fibonacci_8cc.html" target="_top" xlink:title=" ">
<polygon fill="white" stroke="#666666" points="280,-35.5 152,-35.5 152,-5.5 280,-5.5 280,-35.5"/>
<text text-anchor="start" x="160" y="-23.5" font-family="Times,serif" font-size="10.00">doc/dox/dev/devsamp</text>
<text text-anchor="middle" x="216" y="-12.5" font-family="Times,serif" font-size="10.00">/fibonacci/fibonacci.cc</text>
</a>
</g>
</g>
<!-- Node2&#45;&gt;Node3 -->
<g id="edge2_Node000002_Node000003" class="edge">
<title>Node2&#45;&gt;Node3</title>
<g id="a_edge2_Node000002_Node000003"><a xlink:title=" ">
<path fill="none" stroke="#63b8ff" d="M645.63,-83.03C574.12,-78.11 418.33,-65.4 289,-41 281.01,-39.49 272.61,-37.57 264.46,-35.53"/>
<polygon fill="#63b8ff" stroke="#63b8ff" points="645.75,-86.54 655.96,-83.73 646.22,-79.56 645.75,-86.54"/>
</a>
</g>
</g>
<!-- Node4 -->
<g id="Node000004" class="node">
<title>Node4</title>
<g id="a_Node000004"><a xlink:href="fibonacci__device_8cc.html" target="_top" xlink:title=" ">
<polygon fill="white" stroke="#666666" points="426,-41 298,-41 298,0 426,0 426,-41"/>
<text text-anchor="start" x="306" y="-29" font-family="Times,serif" font-size="10.00">doc/dox/dev/devsamp</text>
<text text-anchor="start" x="306" y="-18" font-family="Times,serif" font-size="10.00">/fibonacci/fibonacci</text>
<text text-anchor="middle" x="362" y="-7" font-family="Times,serif" font-size="10.00">_device.cc</text>
</a>
</g>
</g>
<!-- Node2&#45;&gt;Node4 -->
<g id="edge3_Node000002_Node000004" class="edge">
<title>Node2&#45;&gt;Node4</title>
<g id="a_edge3_Node000002_Node000004"><a xlink:title=" ">
<path fill="none" stroke="#63b8ff" d="M646.04,-79.62C596.68,-71.92 509.13,-57.47 435,-41 432.05,-40.35 429.05,-39.65 426.02,-38.93"/>
<polygon fill="#63b8ff" stroke="#63b8ff" points="645.55,-83.08 655.97,-81.15 646.62,-76.16 645.55,-83.08"/>
</a>
</g>
</g>
<!-- Node5 -->
<g id="Node000005" class="node">
<title>Node5</title>
<g id="a_Node000005"><a xlink:href="helloworld_8cpp.html" target="_top" xlink:title=" ">
<polygon fill="white" stroke="#666666" points="595.5,-35.5 444.5,-35.5 444.5,-5.5 595.5,-5.5 595.5,-35.5"/>
<text text-anchor="start" x="452.5" y="-23.5" font-family="Times,serif" font-size="10.00">doc/dox/dev/devsamp</text>
<text text-anchor="middle" x="520" y="-12.5" font-family="Times,serif" font-size="10.00">/helloworld/helloworld.cpp</text>
</a>
</g>
</g>
<!-- Node2&#45;&gt;Node5 -->
<g id="edge4_Node000002_Node000005" class="edge">
<title>Node2&#45;&gt;Node5</title>
<g id="a_edge4_Node000002_Node000005"><a xlink:title=" ">
<path fill="none" stroke="#63b8ff" d="M653.15,-73.15C625.46,-62.4 585.34,-46.85 556.39,-35.62"/>
<polygon fill="#63b8ff" stroke="#63b8ff" points="652.16,-76.52 662.75,-76.87 654.69,-69.99 652.16,-76.52"/>
</a>
</g>
</g>
<!-- Node6 -->
<g id="Node000006" class="node">
<title>Node6</title>
<g id="a_Node000006"><a xlink:href="distributed_8cc.html" target="_top" xlink:title=" ">
<polygon fill="white" stroke="#666666" points="748,-35.5 614,-35.5 614,-5.5 748,-5.5 748,-35.5"/>
<text text-anchor="start" x="622" y="-23.5" font-family="Times,serif" font-size="10.00">doc/dox/user/examples</text>
<text text-anchor="middle" x="681" y="-12.5" font-family="Times,serif" font-size="10.00">/distributed.cc</text>
</a>
</g>
</g>
<!-- Node2&#45;&gt;Node6 -->
<g id="edge5_Node000002_Node000006" class="edge">
<title>Node2&#45;&gt;Node6</title>
<g id="a_edge5_Node000002_Node000006"><a xlink:title=" ">
<path fill="none" stroke="#63b8ff" d="M683.83,-66.85C683.22,-56.97 682.47,-45.01 681.9,-35.86"/>
<polygon fill="#63b8ff" stroke="#63b8ff" points="680.34,-67.11 684.46,-76.87 687.33,-66.67 680.34,-67.11"/>
</a>
</g>
</g>
<!-- Node7 -->
<g id="Node000007" class="node">
<title>Node7</title>
<g id="a_Node000007"><a xlink:href="iterative_8cc.html" target="_top" xlink:title=" ">
<polygon fill="white" stroke="#666666" points="900,-35.5 766,-35.5 766,-5.5 900,-5.5 900,-35.5"/>
<text text-anchor="start" x="774" y="-23.5" font-family="Times,serif" font-size="10.00">doc/dox/user/examples</text>
<text text-anchor="middle" x="833" y="-12.5" font-family="Times,serif" font-size="10.00">/iterative.cc</text>
</a>
</g>
</g>
<!-- Node2&#45;&gt;Node7 -->
<g id="edge6_Node000002_Node000007" class="edge">
<title>Node2&#45;&gt;Node7</title>
<g id="a_edge6_Node000002_Node000007"><a xlink:title=" ">
<path fill="none" stroke="#63b8ff" d="M714.22,-72.86C739.04,-62.13 774.62,-46.75 800.36,-35.62"/>
<polygon fill="#63b8ff" stroke="#63b8ff" points="712.75,-69.69 704.96,-76.87 715.53,-76.11 712.75,-69.69"/>
</a>
</g>
</g>
<!-- Node8 -->
<g id="Node000008" class="node">
<title>Node8</title>
<g id="a_Node000008"><a xlink:href="reducing_8cc.html" target="_top" xlink:title=" ">
<polygon fill="white" stroke="#666666" points="1052,-35.5 918,-35.5 918,-5.5 1052,-5.5 1052,-35.5"/>
<text text-anchor="start" x="926" y="-23.5" font-family="Times,serif" font-size="10.00">doc/dox/user/examples</text>
<text text-anchor="middle" x="985" y="-12.5" font-family="Times,serif" font-size="10.00">/reducing.cc</text>
</a>
</g>
</g>
<!-- Node2&#45;&gt;Node8 -->
<g id="edge7_Node000002_Node000008" class="edge">
<title>Node2&#45;&gt;Node8</title>
<g id="a_edge7_Node000002_Node000008"><a xlink:title=" ">
<path fill="none" stroke="#63b8ff" d="M723.99,-78.43C768.79,-70.15 844.44,-55.68 909,-41 916.44,-39.31 924.26,-37.42 931.94,-35.51"/>
<polygon fill="#63b8ff" stroke="#63b8ff" points="723.31,-75 714.1,-80.25 724.57,-81.88 723.31,-75"/>
</a>
</g>
</g>
<!-- Node9 -->
<g id="Node000009" class="node">
<title>Node9</title>
<g id="a_Node000009"><a xlink:href="simple_8cc.html" target="_top" xlink:title=" ">
<polygon fill="white" stroke="#666666" points="134,-35.5 0,-35.5 0,-5.5 134,-5.5 134,-35.5"/>
<text text-anchor="start" x="8" y="-23.5" font-family="Times,serif" font-size="10.00">doc/dox/user/examples</text>
<text text-anchor="middle" x="67" y="-12.5" font-family="Times,serif" font-size="10.00">/simple.cc</text>
</a>
</g>
</g>
<!-- Node2&#45;&gt;Node9 -->
<g id="edge8_Node000002_Node000009" class="edge">
<title>Node2&#45;&gt;Node9</title>
<g id="a_edge8_Node000002_Node000009"><a xlink:title=" ">
<path fill="none" stroke="#63b8ff" d="M645.75,-84.55C556.08,-81.89 329.55,-72.36 143,-41 134.4,-39.55 125.35,-37.61 116.62,-35.51"/>
<polygon fill="#63b8ff" stroke="#63b8ff" points="645.9,-88.06 656,-84.84 646.1,-81.06 645.9,-88.06"/>
</a>
</g>
</g>
<!-- Node10 -->
<g id="Node000010" class="node">
<title>Node10</title>
<g id="a_Node000010"><a xlink:href="ttg_2madness_2ttg_8h.html" target="_top" xlink:title=" ">
<polygon fill="white" stroke="#666666" points="1324,-30 1200,-30 1200,-11 1324,-11 1324,-30"/>
<text text-anchor="middle" x="1262" y="-18" font-family="Times,serif" font-size="10.00">ttg/ttg/madness/ttg.h</text>
</a>
</g>
</g>
<!-- Node2&#45;&gt;Node10 -->
<g id="edge9_Node000002_Node000010" class="edge">
<title>Node2&#45;&gt;Node10</title>
<g id="a_edge9_Node000002_Node000010"><a xlink:title=" ">
<path fill="none" stroke="#63b8ff" d="M724.08,-84.46C809.44,-81.67 1018.74,-71.97 1191,-41 1205.85,-38.33 1222.09,-33.98 1235.29,-30.06"/>
<polygon fill="#63b8ff" stroke="#63b8ff" points="723.94,-80.96 714.05,-84.77 724.16,-87.96 723.94,-80.96"/>
</a>
</g>
</g>
<!-- Node2&#45;&gt;Node11 -->
<g id="edge10_Node000002_Node000011" class="edge">
<title>Node2&#45;&gt;Node11</title>
<g id="a_edge10_Node000002_Node000011"><a xlink:title=" ">
<path fill="none" stroke="#63b8ff" d="M724.42,-83.1C793.29,-78.39 939.73,-66.17 1061,-41 1074.5,-38.2 1089.23,-33.89 1101.26,-30.03"/>
<polygon fill="#63b8ff" stroke="#63b8ff" points="723.79,-79.63 714.05,-83.79 724.26,-86.61 723.79,-79.63"/>
</a>
</g>
</g>
<!-- Node12&#45;&gt;Node2 -->
<g id="edge13_Node000012_Node000002" class="edge">
<title>Node12&#45;&gt;Node2</title>
<g id="a_edge13_Node000012_Node000002"><a xlink:title=" ">
<path fill="none" stroke="#63b8ff" d="M777.15,-525.53C701.94,-522.36 576,-504.11 576,-417.5 576,-417.5 576,-417.5 576,-195.5 576,-145.82 633.85,-111.2 665.26,-96.07"/>
<polygon fill="#63b8ff" stroke="#63b8ff" points="777.29,-529.04 787.41,-525.88 777.53,-522.04 777.29,-529.04"/>
</a>
</g>
</g>
<!-- Node12&#45;&gt;Node10 -->
<g id="edge16_Node000012_Node000010" class="edge">
<title>Node12&#45;&gt;Node10</title>
<g id="a_edge16_Node000012_Node000010"><a xlink:title=" ">
<path fill="none" stroke="#63b8ff" d="M886.83,-523.69C1005.99,-518.26 1278,-497.14 1278,-417.5 1278,-417.5 1278,-417.5 1278,-195.5 1278,-131.79 1267.23,-55.52 1263.36,-30.16"/>
<polygon fill="#63b8ff" stroke="#63b8ff" points="886.64,-520.19 876.81,-524.12 886.95,-527.19 886.64,-520.19"/>
</a>
</g>
</g>
<!-- Node13 -->
<g id="Node000013" class="node">
<title>Node13</title>
<g id="a_Node000013"><a xlink:href="broadcast_8h.html" target="_top" xlink:title=" ">
<polygon fill="white" stroke="#666666" points="983.5,-151 872.5,-151 872.5,-132 983.5,-132 983.5,-151"/>
<text text-anchor="middle" x="928" y="-139" font-family="Times,serif" font-size="10.00">ttg/ttg/broadcast.h</text>
</a>
</g>
</g>
<!-- Node12&#45;&gt;Node13 -->
<g id="edge14_Node000012_Node000013" class="edge">
<title>Node12&#45;&gt;Node13</title>
<g id="a_edge14_Node000012_Node000013"><a xlink:title=" ">
<path fill="none" stroke="#63b8ff" d="M777.31,-521.75C712.73,-514.01 614,-490.27 614,-417.5 614,-417.5 614,-417.5 614,-360.5 614,-229.76 799.94,-171.14 885.65,-151.07"/>
<polygon fill="#63b8ff" stroke="#63b8ff" points="777.03,-525.24 787.36,-522.86 777.8,-518.28 777.03,-525.24"/>
</a>
</g>
</g>
<!-- Node14 -->
<g id="Node000014" class="node">
<title>Node14</title>
<g id="a_Node000014"><a xlink:href="run_8h.html" target="_top" xlink:title=" ">
<polygon fill="white" stroke="#666666" points="871.5,-481 792.5,-481 792.5,-462 871.5,-462 871.5,-481"/>
<text text-anchor="middle" x="832" y="-469" font-family="Times,serif" font-size="10.00">ttg/ttg/run.h</text>
</a>
</g>
</g>
<!-- Node12&#45;&gt;Node14 -->
<g id="edge17_Node000012_Node000014" class="edge">
<title>Node12&#45;&gt;Node14</title>
<g id="a_edge17_Node000012_Node000014"><a xlink:title=" ">
<path fill="none" stroke="#63b8ff" d="M832,-506.66C832,-497.93 832,-487.99 832,-481.09"/>
<polygon fill="#63b8ff" stroke="#63b8ff" points="828.5,-506.75 832,-516.75 835.5,-506.75 828.5,-506.75"/>
</a>
</g>
</g>
<!-- Node15 -->
<g id="Node000015" class="node">
<title>Node15</title>
<g id="a_Node000015"><a xlink:href="terminal_8h.html" target="_top" xlink:title=" ">
<polygon fill="white" stroke="#666666" points="1060,-426 956,-426 956,-407 1060,-407 1060,-426"/>
<text text-anchor="middle" x="1008" y="-414" font-family="Times,serif" font-size="10.00">ttg/ttg/terminal.h</text>
</a>
</g>
</g>
<!-- Node12&#45;&gt;Node15 -->
<g id="edge41_Node000012_Node000015" class="edge">
<title>Node12&#45;&gt;Node15</title>
<g id="a_edge41_Node000012_Node000015"><a xlink:title=" ">
<path fill="none" stroke="#63b8ff" d="M854.68,-511.59C891.54,-488.97 963.39,-444.88 993.83,-426.2"/>
<polygon fill="#63b8ff" stroke="#63b8ff" points="852.8,-508.63 846.11,-516.84 856.46,-514.6 852.8,-508.63"/>
</a>
</g>
</g>
<!-- Node13&#45;&gt;Node2 -->
<g id="edge15_Node000013_Node000002" class="edge">
<title>Node13&#45;&gt;Node2</title>
<g id="a_edge15_Node000013_Node000002"><a xlink:title=" ">
<path fill="none" stroke="#63b8ff" d="M879.12,-129.84C829.65,-119.05 754.83,-102.73 714.03,-93.83"/>
<polygon fill="#63b8ff" stroke="#63b8ff" points="878.44,-133.27 888.96,-131.98 879.93,-126.43 878.44,-133.27"/>
</a>
</g>
</g>
<!-- Node14&#45;&gt;Node2 -->
<g id="edge18_Node000014_Node000002" class="edge">
<title>Node14&#45;&gt;Node2</title>
<g id="a_edge18_Node000014_Node000002"><a xlink:title=" ">
<path fill="none" stroke="#63b8ff" d="M821.86,-452.64C798.35,-410.68 739.26,-302.08 702,-206 692.8,-182.26 689.79,-176.17 686,-151 683.08,-131.59 683.74,-108.47 684.41,-96.19"/>
<polygon fill="#63b8ff" stroke="#63b8ff" points="818.96,-454.63 826.92,-461.62 825.06,-451.19 818.96,-454.63"/>
</a>
</g>
</g>
<!-- Node14&#45;&gt;Node15 -->
<g id="edge19_Node000014_Node000015" class="edge">
<title>Node14&#45;&gt;Node15</title>
<g id="a_edge19_Node000014_Node000015"><a xlink:title=" ">
<path fill="none" stroke="#63b8ff" d="M870,-459.06C902.9,-449.15 949.74,-435.04 979.5,-426.08"/>
<polygon fill="#63b8ff" stroke="#63b8ff" points="868.84,-455.75 860.28,-461.98 870.86,-462.45 868.84,-455.75"/>
</a>
</g>
</g>
<!-- Node15&#45;&gt;Node11 -->
<g id="edge40_Node000015_Node000011" class="edge">
<title>Node15&#45;&gt;Node11</title>
<g id="a_edge40_Node000015_Node000011"><a xlink:title=" ">
<path fill="none" stroke="#63b8ff" d="M1070.38,-412.55C1139.09,-405.55 1240,-382.51 1240,-307.5 1240,-307.5 1240,-307.5 1240,-140.5 1240,-85.85 1176.54,-46.51 1144.32,-30.05"/>
<polygon fill="#63b8ff" stroke="#63b8ff" points="1069.7,-409.1 1060.07,-413.51 1070.35,-416.07 1069.7,-409.1"/>
</a>
</g>
</g>
<!-- Node16 -->
<g id="Node000016" class="node">
<title>Node16</title>
<g id="a_Node000016"><a xlink:href="edge_8h.html" target="_top" xlink:title=" ">
<polygon fill="white" stroke="#666666" points="1051,-371 965,-371 965,-352 1051,-352 1051,-371"/>
<text text-anchor="middle" x="1008" y="-359" font-family="Times,serif" font-size="10.00">ttg/ttg/edge.h</text>
</a>
</g>
</g>
<!-- Node15&#45;&gt;Node16 -->
<g id="edge20_Node000015_Node000016" class="edge">
<title>Node15&#45;&gt;Node16</title>
<g id="a_edge20_Node000015_Node000016"><a xlink:title=" ">
<path fill="none" stroke="#63b8ff" d="M1008,-396.66C1008,-387.93 1008,-377.99 1008,-371.09"/>
<polygon fill="#63b8ff" stroke="#63b8ff" points="1004.5,-396.75 1008,-406.75 1011.5,-396.75 1004.5,-396.75"/>
</a>
</g>
</g>
<!-- Node17 -->
<g id="Node000017" class="node">
<title>Node17</title>
<g id="a_Node000017"><a xlink:href="func_8h.html" target="_top" xlink:title=" ">
<polygon fill="white" stroke="#666666" points="1054.5,-206 971.5,-206 971.5,-187 1054.5,-187 1054.5,-206"/>
<text text-anchor="middle" x="1013" y="-194" font-family="Times,serif" font-size="10.00">ttg/ttg/func.h</text>
</a>
</g>
</g>
<!-- Node15&#45;&gt;Node17 -->
<g id="edge39_Node000015_Node000017" class="edge">
<title>Node15&#45;&gt;Node17</title>
<g id="a_edge39_Node000015_Node000017"><a xlink:title=" ">
<path fill="none" stroke="#63b8ff" d="M1032.58,-401.29C1043.09,-393.76 1054.25,-383.48 1060,-371 1087.54,-311.19 1037.75,-232.11 1019.4,-206.15"/>
<polygon fill="#63b8ff" stroke="#63b8ff" points="1030.43,-398.51 1024.03,-406.95 1034.3,-404.35 1030.43,-398.51"/>
</a>
</g>
</g>
<!-- Node16&#45;&gt;Node2 -->
<g id="edge21_Node000016_Node000002" class="edge">
<title>Node16&#45;&gt;Node2</title>
<g id="a_edge21_Node000016_Node000002"><a xlink:title=" ">
<path fill="none" stroke="#63b8ff" d="M960.73,-349.36C908.41,-335.3 823.5,-307.2 763,-261 717.32,-226.12 711.92,-205.93 695,-151 689.15,-132.02 686.6,-108.73 685.59,-96.31"/>
<polygon fill="#63b8ff" stroke="#63b8ff" points="959.86,-352.75 970.42,-351.9 961.64,-345.98 959.86,-352.75"/>
</a>
</g>
</g>
<!-- Node16&#45;&gt;Node11 -->
<g id="edge27_Node000016_Node000011" class="edge">
<title>Node16&#45;&gt;Node11</title>
<g id="a_edge27_Node000016_Node000011"><a xlink:title=" ">
<path fill="none" stroke="#63b8ff" d="M1028.95,-345.71C1062.86,-319.85 1126,-262.92 1126,-197.5 1126,-197.5 1126,-197.5 1126,-140.5 1126,-99.18 1126,-49.79 1126,-30.16"/>
<polygon fill="#63b8ff" stroke="#63b8ff" points="1026.58,-343.11 1020.63,-351.88 1030.75,-348.73 1026.58,-343.11"/>
</a>
</g>
</g>
<!-- Node16&#45;&gt;Node17 -->
<g id="edge22_Node000016_Node000017" class="edge">
<title>Node16&#45;&gt;Node17</title>
<g id="a_edge22_Node000016_Node000017"><a xlink:title=" ">
<path fill="none" stroke="#63b8ff" d="M1010.55,-341.94C1011.53,-333.97 1012.52,-324.55 1013,-316 1015.3,-274.92 1014.01,-225.7 1013.33,-206.13"/>
<polygon fill="#63b8ff" stroke="#63b8ff" points="1007.07,-341.62 1009.24,-351.99 1014.01,-342.53 1007.07,-341.62"/>
</a>
</g>
</g>
<!-- Node18 -->
<g id="Node000018" class="node">
<title>Node18</title>
<g id="a_Node000018"><a xlink:href="tt_8h.html" target="_top" xlink:title=" ">
<polygon fill="white" stroke="#666666" points="1004,-316 936,-316 936,-297 1004,-297 1004,-316"/>
<text text-anchor="middle" x="970" y="-304" font-family="Times,serif" font-size="10.00">ttg/ttg/tt.h</text>
</a>
</g>
</g>
<!-- Node16&#45;&gt;Node18 -->
<g id="edge28_Node000016_Node000018" class="edge">
<title>Node16&#45;&gt;Node18</title>
<g id="a_edge28_Node000016_Node000018"><a xlink:title=" ">
<path fill="none" stroke="#63b8ff" d="M995.73,-343.39C989.19,-334.27 981.43,-323.45 976.16,-316.09"/>
<polygon fill="#63b8ff" stroke="#63b8ff" points="993.05,-345.66 1001.73,-351.75 998.74,-341.58 993.05,-345.66"/>
</a>
</g>
</g>
<!-- Node17&#45;&gt;Node2 -->
<g id="edge23_Node000017_Node000002" class="edge">
<title>Node17&#45;&gt;Node2</title>
<g id="a_edge23_Node000017_Node000002"><a xlink:title=" ">
<path fill="none" stroke="#63b8ff" d="M1012.24,-176.68C1010.6,-162.25 1005.92,-142.99 993,-132 951.27,-96.52 782.45,-89.33 714.02,-87.87"/>
<polygon fill="#63b8ff" stroke="#63b8ff" points="1008.78,-177.26 1013.01,-186.98 1015.76,-176.75 1008.78,-177.26"/>
</a>
</g>
</g>
<!-- Node17&#45;&gt;Node10 -->
<g id="edge25_Node000017_Node000010" class="edge">
<title>Node17&#45;&gt;Node10</title>
<g id="a_edge25_Node000017_Node000010"><a xlink:title=" ">
<path fill="none" stroke="#63b8ff" d="M1033.76,-180.99C1083.74,-146.07 1209.56,-58.14 1249.58,-30.18"/>
<polygon fill="#63b8ff" stroke="#63b8ff" points="1031.54,-178.27 1025.35,-186.87 1035.55,-184.01 1031.54,-178.27"/>
</a>
</g>
</g>
<!-- Node17&#45;&gt;Node11 -->
<g id="edge26_Node000017_Node000011" class="edge">
<title>Node17&#45;&gt;Node11</title>
<g id="a_edge26_Node000017_Node000011"><a xlink:title=" ">
<path fill="none" stroke="#63b8ff" d="M1020.43,-177.39C1030.71,-153.36 1050.65,-110.11 1074,-77 1086.78,-58.87 1105.18,-40.63 1116.32,-30.24"/>
<polygon fill="#63b8ff" stroke="#63b8ff" points="1017.17,-176.13 1016.53,-186.7 1023.62,-178.84 1017.17,-176.13"/>
</a>
</g>
</g>
<!-- Node17&#45;&gt;Node13 -->
<g id="edge24_Node000017_Node000013" class="edge">
<title>Node17&#45;&gt;Node13</title>
<g id="a_edge24_Node000017_Node000013"><a xlink:title=" ">
<path fill="none" stroke="#63b8ff" d="M990.43,-181.42C975,-171.81 955.05,-159.37 941.91,-151.17"/>
<polygon fill="#63b8ff" stroke="#63b8ff" points="989.01,-184.66 999.34,-186.98 992.71,-178.72 989.01,-184.66"/>
</a>
</g>
</g>
<!-- Node18&#45;&gt;Node2 -->
<g id="edge29_Node000018_Node000002" class="edge">
<title>Node18&#45;&gt;Node2</title>
<g id="a_edge29_Node000018_Node000002"><a xlink:title=" ">
<path fill="none" stroke="#63b8ff" d="M925.89,-303.33C886.7,-299.51 829.37,-289.11 788,-261 725.71,-218.67 695.4,-125.06 687.29,-96.17"/>
<polygon fill="#63b8ff" stroke="#63b8ff" points="925.68,-306.82 935.94,-304.2 926.28,-299.85 925.68,-306.82"/>
</a>
</g>
</g>
<!-- Node18&#45;&gt;Node10 -->
<g id="edge32_Node000018_Node000010" class="edge">
<title>Node18&#45;&gt;Node10</title>
<g id="a_edge32_Node000018_Node000010"><a xlink:title=" ">
<path fill="none" stroke="#63b8ff" d="M1014.57,-304.09C1081.95,-299.31 1202,-279.31 1202,-197.5 1202,-197.5 1202,-197.5 1202,-140.5 1202,-94.69 1237.89,-48.56 1254.16,-30"/>
<polygon fill="#63b8ff" stroke="#63b8ff" points="1014,-300.62 1004.23,-304.73 1014.43,-307.6 1014,-300.62"/>
</a>
</g>
</g>
<!-- Node18&#45;&gt;Node11 -->
<g id="edge33_Node000018_Node000011" class="edge">
<title>Node18&#45;&gt;Node11</title>
<g id="a_edge33_Node000018_Node000011"><a xlink:title=" ">
<path fill="none" stroke="#63b8ff" d="M988.78,-290.12C1009.8,-272 1043.58,-240.03 1064,-206 1082.96,-174.42 1114.59,-62.83 1123.56,-30.4"/>
<polygon fill="#63b8ff" stroke="#63b8ff" points="986.27,-287.66 980.89,-296.79 990.79,-293.01 986.27,-287.66"/>
</a>
</g>
</g>
<!-- Node18&#45;&gt;Node13 -->
<g id="edge30_Node000018_Node000013" class="edge">
<title>Node18&#45;&gt;Node13</title>
<g id="a_edge30_Node000018_Node000013"><a xlink:title=" ">
<path fill="none" stroke="#63b8ff" d="M965.19,-286.83C956.13,-251.67 936.86,-176.9 930.27,-151.31"/>
<polygon fill="#63b8ff" stroke="#63b8ff" points="961.86,-287.93 967.74,-296.74 968.64,-286.18 961.86,-287.93"/>
</a>
</g>
</g>
<!-- Node18&#45;&gt;Node17 -->
<g id="edge31_Node000018_Node000017" class="edge">
<title>Node18&#45;&gt;Node17</title>
<g id="a_edge31_Node000018_Node000017"><a xlink:title=" ">
<path fill="none" stroke="#63b8ff" d="M976.62,-287.37C981.33,-274.63 987.88,-257.21 994,-242 999.02,-229.53 1005.18,-215.26 1009.1,-206.32"/>
<polygon fill="#63b8ff" stroke="#63b8ff" points="973.31,-286.23 973.15,-296.83 979.88,-288.65 973.31,-286.23"/>
</a>
</g>
</g>
<!-- Node19 -->
<g id="Node000019" class="node">
<title>Node19</title>
<g id="a_Node000019"><a xlink:href="traverse_8h.html" target="_top" xlink:title=" ">
<polygon fill="white" stroke="#666666" points="899.5,-261 796.5,-261 796.5,-242 899.5,-242 899.5,-261"/>
<text text-anchor="middle" x="848" y="-249" font-family="Times,serif" font-size="10.00">ttg/ttg/traverse.h</text>
</a>
</g>
</g>
<!-- Node18&#45;&gt;Node19 -->
<g id="edge34_Node000018_Node000019" class="edge">
<title>Node18&#45;&gt;Node19</title>
<g id="a_edge34_Node000018_Node000019"><a xlink:title=" ">
<path fill="none" stroke="#63b8ff" d="M940.99,-292.9C918.46,-283.11 887.8,-269.79 867.96,-261.17"/>
<polygon fill="#63b8ff" stroke="#63b8ff" points="939.83,-296.21 950.4,-296.98 942.62,-289.79 939.83,-296.21"/>
</a>
</g>
</g>
<!-- Node19&#45;&gt;Node2 -->
<g id="edge35_Node000019_Node000002" class="edge">
<title>Node19&#45;&gt;Node2</title>
<g id="a_edge35_Node000019_Node000002"><a xlink:title=" ">
<path fill="none" stroke="#63b8ff" d="M849.83,-231.48C851.22,-205.7 849.65,-159.69 825,-132 796.77,-100.28 746.04,-91 714.02,-88.38"/>
<polygon fill="#63b8ff" stroke="#63b8ff" points="846.32,-231.54 849.06,-241.77 853.3,-232.06 846.32,-231.54"/>
</a>
</g>
</g>
<!-- Node19&#45;&gt;Node17 -->
<g id="edge36_Node000019_Node000017" class="edge">
<title>Node19&#45;&gt;Node17</title>
<g id="a_edge36_Node000019_Node000017"><a xlink:title=" ">
<path fill="none" stroke="#63b8ff" d="M884.43,-238.8C915.22,-228.91 958.62,-214.97 986.28,-206.08"/>
<polygon fill="#63b8ff" stroke="#63b8ff" points="882.96,-235.59 874.51,-241.98 885.1,-242.26 882.96,-235.59"/>
</a>
</g>
</g>
<!-- Node20 -->
<g id="Node000020" class="node">
<title>Node20</title>
<g id="a_Node000020"><a xlink:href="dot_8h.html" target="_top" xlink:title=" ">
<polygon fill="white" stroke="#666666" points="815.5,-151 718.5,-151 718.5,-132 815.5,-132 815.5,-151"/>
<text text-anchor="middle" x="767" y="-139" font-family="Times,serif" font-size="10.00">ttg/ttg/util/dot.h</text>
</a>
</g>
</g>
<!-- Node19&#45;&gt;Node20 -->
<g id="edge37_Node000019_Node000020" class="edge">
<title>Node19&#45;&gt;Node20</title>
<g id="a_edge37_Node000019_Node000020"><a xlink:title=" ">
<path fill="none" stroke="#63b8ff" d="M835.16,-233.38C817.63,-210.01 786.85,-168.97 773.49,-151.16"/>
<polygon fill="#63b8ff" stroke="#63b8ff" points="832.57,-235.76 841.37,-241.66 838.17,-231.56 832.57,-235.76"/>
</a>
</g>
</g>
<!-- Node20&#45;&gt;Node2 -->
<g id="edge38_Node000020_Node000002" class="edge">
<title>Node20&#45;&gt;Node2</title>
<g id="a_edge38_Node000020_Node000002"><a xlink:title=" ">
<path fill="none" stroke="#63b8ff" d="M745.22,-126.42C730.34,-116.81 711.09,-104.37 698.41,-96.17"/>
<polygon fill="#63b8ff" stroke="#63b8ff" points="743.53,-129.5 753.83,-131.98 747.33,-123.62 743.53,-129.5"/>
</a>
</g>
</g>
</g>
</svg>
