<?xml version="1.0" encoding="UTF-8" standalone="no"?>
<!DOCTYPE svg PUBLIC "-//W3C//DTD SVG 1.1//EN"
 "http://www.w3.org/Graphics/SVG/1.1/DTD/svg11.dtd">
<!-- Generated by graphviz version 2.43.0 (0)
 -->
<!-- Title: ttg/ttg/base/world.h Pages: 1 -->
<svg width="883pt" height="247pt"
 viewBox="0.00 0.00 883.00 247.00" xmlns="http://www.w3.org/2000/svg" xmlns:xlink="http://www.w3.org/1999/xlink">
<g id="graph0" class="graph" transform="scale(1 1) rotate(0) translate(4 243)">
<title>ttg/ttg/base/world.h</title>
<!-- Node1 -->
<g id="Node000001" class="node">
<title>Node1</title>
<g id="a_Node000001"><a xlink:title=" ">
<polygon fill="#999999" stroke="#666666" points="785,-239 669,-239 669,-220 785,-220 785,-239"/>
<text text-anchor="middle" x="727" y="-227" font-family="Times,serif" font-size="10.00">ttg/ttg/base/world.h</text>
</a>
</g>
</g>
<!-- Node2 -->
<g id="Node000002" class="node">
<title>Node2</title>
<g id="a_Node000002"><a xlink:title=" ">
<polygon fill="#e0e0e0" stroke="#999999" points="363.5,-184 310.5,-184 310.5,-165 363.5,-165 363.5,-184"/>
<text text-anchor="middle" x="337" y="-172" font-family="Times,serif" font-size="10.00">cassert</text>
</a>
</g>
</g>
<!-- Node1&#45;&gt;Node2 -->
<g id="edge1_Node000001_Node000002" class="edge">
<title>Node1&#45;&gt;Node2</title>
<g id="a_edge1_Node000001_Node000002"><a xlink:title=" ">
<path fill="none" stroke="#63b8ff" d="M668.76,-223.11C600.44,-216.35 483.57,-203.45 373.61,-183.92"/>
<polygon fill="#63b8ff" stroke="#63b8ff" points="374.13,-180.46 363.67,-182.13 372.89,-187.35 374.13,-180.46"/>
</a>
</g>
</g>
<!-- Node3 -->
<g id="Node000003" class="node">
<title>Node3</title>
<g id="a_Node000003"><a xlink:title=" ">
<polygon fill="#e0e0e0" stroke="#999999" points="430,-184 382,-184 382,-165 430,-165 430,-184"/>
<text text-anchor="middle" x="406" y="-172" font-family="Times,serif" font-size="10.00">future</text>
</a>
</g>
</g>
<!-- Node1&#45;&gt;Node3 -->
<g id="edge2_Node000001_Node000003" class="edge">
<title>Node1&#45;&gt;Node3</title>
<g id="a_edge2_Node000001_Node000003"><a xlink:title=" ">
<path fill="none" stroke="#63b8ff" d="M668.78,-221.22C612.56,-213.81 524.85,-201.22 439.89,-184.01"/>
<polygon fill="#63b8ff" stroke="#63b8ff" points="440.59,-180.58 430.09,-182 439.18,-187.43 440.59,-180.58"/>
</a>
</g>
</g>
<!-- Node4 -->
<g id="Node000004" class="node">
<title>Node4</title>
<g id="a_Node000004"><a xlink:title=" ">
<polygon fill="#e0e0e0" stroke="#999999" points="719.5,-19 658.5,-19 658.5,0 719.5,0 719.5,-19"/>
<text text-anchor="middle" x="689" y="-7" font-family="Times,serif" font-size="10.00">iostream</text>
</a>
</g>
</g>
<!-- Node1&#45;&gt;Node4 -->
<g id="edge3_Node000001_Node000004" class="edge">
<title>Node1&#45;&gt;Node4</title>
<g id="a_edge3_Node000001_Node000004"><a xlink:title=" ">
<path fill="none" stroke="#63b8ff" d="M726.82,-219.68C726.11,-193.92 722.73,-116.7 707,-55 704.71,-46.02 701.01,-36.44 697.56,-28.48"/>
<polygon fill="#63b8ff" stroke="#63b8ff" points="700.63,-26.78 693.31,-19.13 694.26,-29.68 700.63,-26.78"/>
</a>
</g>
</g>
<!-- Node5 -->
<g id="Node000005" class="node">
<title>Node5</title>
<g id="a_Node000005"><a xlink:title=" ">
<polygon fill="#e0e0e0" stroke="#999999" points="825,-184 793,-184 793,-165 825,-165 825,-184"/>
<text text-anchor="middle" x="809" y="-172" font-family="Times,serif" font-size="10.00">list</text>
</a>
</g>
</g>
<!-- Node1&#45;&gt;Node5 -->
<g id="edge4_Node000001_Node000005" class="edge">
<title>Node1&#45;&gt;Node5</title>
<g id="a_edge4_Node000001_Node000005"><a xlink:title=" ">
<path fill="none" stroke="#63b8ff" d="M740.17,-219.98C752.77,-211.84 772,-199.41 786.94,-189.76"/>
<polygon fill="#63b8ff" stroke="#63b8ff" points="789.09,-192.54 795.59,-184.17 785.29,-186.66 789.09,-192.54"/>
</a>
</g>
</g>
<!-- Node6 -->
<g id="Node000006" class="node">
<title>Node6</title>
<g id="a_Node000006"><a xlink:title=" ">
<polygon fill="#e0e0e0" stroke="#999999" points="660.5,-74 601.5,-74 601.5,-55 660.5,-55 660.5,-74"/>
<text text-anchor="middle" x="631" y="-62" font-family="Times,serif" font-size="10.00">memory</text>
</a>
</g>
</g>
<!-- Node1&#45;&gt;Node6 -->
<g id="edge5_Node000001_Node000006" class="edge">
<title>Node1&#45;&gt;Node6</title>
<g id="a_edge5_Node000001_Node000006"><a xlink:title=" ">
<path fill="none" stroke="#63b8ff" d="M723.62,-219.77C715.61,-199.59 694.27,-148.49 669,-110 662.39,-99.94 653.76,-89.65 646.39,-81.51"/>
<polygon fill="#63b8ff" stroke="#63b8ff" points="648.94,-79.11 639.57,-74.17 643.81,-83.88 648.94,-79.11"/>
</a>
</g>
</g>
<!-- Node7 -->
<g id="Node000007" class="node">
<title>Node7</title>
<g id="a_Node000007"><a xlink:title=" ">
<polygon fill="#e0e0e0" stroke="#999999" points="875,-184 843,-184 843,-165 875,-165 875,-184"/>
<text text-anchor="middle" x="859" y="-172" font-family="Times,serif" font-size="10.00">set</text>
</a>
</g>
</g>
<!-- Node1&#45;&gt;Node7 -->
<g id="edge6_Node000001_Node000007" class="edge">
<title>Node1&#45;&gt;Node7</title>
<g id="a_edge6_Node000001_Node000007"><a xlink:title=" ">
<path fill="none" stroke="#63b8ff" d="M748.21,-219.98C771.4,-210.67 808.55,-195.76 833.36,-185.8"/>
<polygon fill="#63b8ff" stroke="#63b8ff" points="834.86,-188.96 842.84,-181.99 832.25,-182.47 834.86,-188.96"/>
</a>
</g>
</g>
<!-- Node8 -->
<g id="Node000008" class="node">
<title>Node8</title>
<g id="a_Node000008"><a xlink:href="base_2tt_8h.html" target="_top" xlink:title=" ">
<polygon fill="white" stroke="#666666" points="526,-184 448,-184 448,-165 526,-165 526,-184"/>
<text text-anchor="middle" x="487" y="-172" font-family="Times,serif" font-size="10.00">ttg/base/tt.h</text>
</a>
</g>
</g>
<!-- Node1&#45;&gt;Node8 -->
<g id="edge7_Node000001_Node000008" class="edge">
<title>Node1&#45;&gt;Node8</title>
<g id="a_edge7_Node000001_Node000008"><a xlink:title=" ">
<path fill="none" stroke="#63b8ff" d="M688.44,-219.98C646.93,-210.82 580.79,-196.21 535.71,-186.26"/>
<polygon fill="#63b8ff" stroke="#63b8ff" points="536.38,-182.82 525.86,-184.08 534.87,-189.66 536.38,-182.82"/>
</a>
</g>
</g>
<!-- Node8&#45;&gt;Node4 -->
<g id="edge9_Node000008_Node000004" class="edge">
<title>Node8&#45;&gt;Node4</title>
<g id="a_edge9_Node000008_Node000004"><a xlink:title=" ">
<path fill="none" stroke="#63b8ff" d="M526.36,-168.94C573.9,-162.61 649.89,-149.55 669,-129 694.37,-101.72 694.08,-54.84 691.58,-28.97"/>
<polygon fill="#63b8ff" stroke="#63b8ff" points="695.05,-28.53 690.4,-19.01 688.1,-29.35 695.05,-28.53"/>
</a>
</g>
</g>
<!-- Node9 -->
<g id="Node000009" class="node">
<title>Node9</title>
<g id="a_Node000009"><a xlink:title=" ">
<polygon fill="#e0e0e0" stroke="#999999" points="401.5,-129 350.5,-129 350.5,-110 401.5,-110 401.5,-129"/>
<text text-anchor="middle" x="376" y="-117" font-family="Times,serif" font-size="10.00">cstdint</text>
</a>
</g>
</g>
<!-- Node8&#45;&gt;Node9 -->
<g id="edge8_Node000008_Node000009" class="edge">
<title>Node8&#45;&gt;Node9</title>
<g id="a_edge8_Node000008_Node000009"><a xlink:title=" ">
<path fill="none" stroke="#63b8ff" d="M469.17,-164.98C451.39,-156.5 423.85,-143.35 403.32,-133.54"/>
<polygon fill="#63b8ff" stroke="#63b8ff" points="404.69,-130.32 394.16,-129.17 401.67,-136.64 404.69,-130.32"/>
</a>
</g>
</g>
<!-- Node10 -->
<g id="Node000010" class="node">
<title>Node10</title>
<g id="a_Node000010"><a xlink:title=" ">
<polygon fill="#e0e0e0" stroke="#999999" points="478,-129 420,-129 420,-110 478,-110 478,-129"/>
<text text-anchor="middle" x="449" y="-117" font-family="Times,serif" font-size="10.00">optional</text>
</a>
</g>
</g>
<!-- Node8&#45;&gt;Node10 -->
<g id="edge10_Node000008_Node000010" class="edge">
<title>Node8&#45;&gt;Node10</title>
<g id="a_edge10_Node000008_Node000010"><a xlink:title=" ">
<path fill="none" stroke="#63b8ff" d="M480.73,-164.75C475.41,-157.34 467.64,-146.5 461.12,-137.41"/>
<polygon fill="#63b8ff" stroke="#63b8ff" points="463.83,-135.18 455.16,-129.09 458.14,-139.26 463.83,-135.18"/>
</a>
</g>
</g>
<!-- Node11 -->
<g id="Node000011" class="node">
<title>Node11</title>
<g id="a_Node000011"><a xlink:title=" ">
<polygon fill="#e0e0e0" stroke="#999999" points="553.5,-129 496.5,-129 496.5,-110 553.5,-110 553.5,-129"/>
<text text-anchor="middle" x="525" y="-117" font-family="Times,serif" font-size="10.00">sstream</text>
</a>
</g>
</g>
<!-- Node8&#45;&gt;Node11 -->
<g id="edge11_Node000008_Node000011" class="edge">
<title>Node8&#45;&gt;Node11</title>
<g id="a_edge11_Node000008_Node000011"><a xlink:title=" ">
<path fill="none" stroke="#63b8ff" d="M493.27,-164.75C498.59,-157.34 506.36,-146.5 512.88,-137.41"/>
<polygon fill="#63b8ff" stroke="#63b8ff" points="515.86,-139.26 518.84,-129.09 510.17,-135.18 515.86,-139.26"/>
</a>
</g>
</g>
<!-- Node12 -->
<g id="Node000012" class="node">
<title>Node12</title>
<g id="a_Node000012"><a xlink:title=" ">
<polygon fill="#e0e0e0" stroke="#999999" points="227.5,-74 180.5,-74 180.5,-55 227.5,-55 227.5,-74"/>
<text text-anchor="middle" x="204" y="-62" font-family="Times,serif" font-size="10.00">string</text>
</a>
</g>
</g>
<!-- Node8&#45;&gt;Node12 -->
<g id="edge12_Node000008_Node000012" class="edge">
<title>Node8&#45;&gt;Node12</title>
<g id="a_edge12_Node000008_Node000012"><a xlink:title=" ">
<path fill="none" stroke="#63b8ff" d="M447.98,-166.52C444.94,-166 441.92,-165.49 439,-165 387.97,-156.49 244.15,-166.96 209,-129 198.09,-117.22 197.95,-98.38 199.87,-84.27"/>
<polygon fill="#63b8ff" stroke="#63b8ff" points="203.35,-84.66 201.68,-74.2 196.46,-83.42 203.35,-84.66"/>
</a>
</g>
</g>
<!-- Node13 -->
<g id="Node000013" class="node">
<title>Node13</title>
<g id="a_Node000013"><a xlink:title=" ">
<polygon fill="#e0e0e0" stroke="#999999" points="176,-19 128,-19 128,0 176,0 176,-19"/>
<text text-anchor="middle" x="152" y="-7" font-family="Times,serif" font-size="10.00">vector</text>
</a>
</g>
</g>
<!-- Node8&#45;&gt;Node13 -->
<g id="edge13_Node000008_Node000013" class="edge">
<title>Node8&#45;&gt;Node13</title>
<g id="a_edge13_Node000008_Node000013"><a xlink:title=" ">
<path fill="none" stroke="#63b8ff" d="M447.98,-166.5C444.94,-165.98 441.92,-165.48 439,-165 331.68,-147.52 284.32,-193.8 197,-129 165.15,-105.36 155.84,-56.26 153.12,-29.28"/>
<polygon fill="#63b8ff" stroke="#63b8ff" points="156.6,-28.89 152.31,-19.2 149.62,-29.45 156.6,-28.89"/>
</a>
</g>
</g>
<!-- Node14 -->
<g id="Node000014" class="node">
<title>Node14</title>
<g id="a_Node000014"><a xlink:href="base_2terminal_8h.html" target="_top" xlink:title=" ">
<polygon fill="white" stroke="#666666" points="123.5,-129 10.5,-129 10.5,-110 123.5,-110 123.5,-129"/>
<text text-anchor="middle" x="67" y="-117" font-family="Times,serif" font-size="10.00">ttg/base/terminal.h</text>
</a>
</g>
</g>
<!-- Node8&#45;&gt;Node14 -->
<g id="edge14_Node000008_Node000014" class="edge">
<title>Node8&#45;&gt;Node14</title>
<g id="a_edge14_Node000008_Node000014"><a xlink:title=" ">
<path fill="none" stroke="#63b8ff" d="M448,-166.4C444.96,-165.91 441.93,-165.43 439,-165 305.72,-145.25 271.78,-145.01 138,-129 136.54,-128.82 135.06,-128.65 133.56,-128.47"/>
<polygon fill="#63b8ff" stroke="#63b8ff" points="133.93,-124.99 123.58,-127.27 133.09,-131.94 133.93,-124.99"/>
</a>
</g>
</g>
<!-- Node17 -->
<g id="Node000017" class="node">
<title>Node17</title>
<g id="a_Node000017"><a xlink:href="demangle_8h.html" target="_top" xlink:title=" ">
<polygon fill="white" stroke="#666666" points="332,-129 218,-129 218,-110 332,-110 332,-129"/>
<text text-anchor="middle" x="275" y="-117" font-family="Times,serif" font-size="10.00">ttg/util/demangle.h</text>
</a>
</g>
</g>
<!-- Node8&#45;&gt;Node17 -->
<g id="edge19_Node000008_Node000017" class="edge">
<title>Node8&#45;&gt;Node17</title>
<g id="a_edge19_Node000008_Node000017"><a xlink:title=" ">
<path fill="none" stroke="#63b8ff" d="M452.94,-164.98C416.58,-155.89 358.83,-141.46 319.03,-131.51"/>
<polygon fill="#63b8ff" stroke="#63b8ff" points="319.88,-128.11 309.33,-129.08 318.18,-134.9 319.88,-128.11"/>
</a>
</g>
</g>
<!-- Node20 -->
<g id="Node000020" class="node">
<title>Node20</title>
<g id="a_Node000020"><a xlink:href="trace_8h.html" target="_top" xlink:title=" ">
<polygon fill="white" stroke="#666666" points="660.5,-129 571.5,-129 571.5,-110 660.5,-110 660.5,-129"/>
<text text-anchor="middle" x="616" y="-117" font-family="Times,serif" font-size="10.00">ttg/util/trace.h</text>
</a>
</g>
</g>
<!-- Node8&#45;&gt;Node20 -->
<g id="edge24_Node000008_Node000020" class="edge">
<title>Node8&#45;&gt;Node20</title>
<g id="a_edge24_Node000008_Node000020"><a xlink:title=" ">
<path fill="none" stroke="#63b8ff" d="M507.73,-164.98C528.76,-156.34 561.55,-142.87 585.54,-133.02"/>
<polygon fill="#63b8ff" stroke="#63b8ff" points="586.98,-136.21 594.9,-129.17 584.32,-129.73 586.98,-136.21"/>
</a>
</g>
</g>
<!-- Node14&#45;&gt;Node12 -->
<g id="edge15_Node000014_Node000012" class="edge">
<title>Node14&#45;&gt;Node12</title>
<g id="a_edge15_Node000014_Node000012"><a xlink:title=" ">
<path fill="none" stroke="#63b8ff" d="M89.01,-109.98C111.45,-101.3 146.48,-87.75 171.99,-77.88"/>
<polygon fill="#63b8ff" stroke="#63b8ff" points="173.52,-81.04 181.59,-74.17 171,-74.51 173.52,-81.04"/>
</a>
</g>
</g>
<!-- Node14&#45;&gt;Node13 -->
<g id="edge16_Node000014_Node000013" class="edge">
<title>Node14&#45;&gt;Node13</title>
<g id="a_edge16_Node000014_Node000013"><a xlink:title=" ">
<path fill="none" stroke="#63b8ff" d="M73.96,-109.66C88.16,-91.61 120.69,-50.28 138.95,-27.08"/>
<polygon fill="#63b8ff" stroke="#63b8ff" points="141.75,-29.18 145.19,-19.16 136.25,-24.85 141.75,-29.18"/>
</a>
</g>
</g>
<!-- Node15 -->
<g id="Node000015" class="node">
<title>Node15</title>
<g id="a_Node000015"><a xlink:href="fwd_8h.html" target="_top" xlink:title=" ">
<polygon fill="white" stroke="#666666" points="86,-74 24,-74 24,-55 86,-55 86,-74"/>
<text text-anchor="middle" x="55" y="-62" font-family="Times,serif" font-size="10.00">ttg/fwd.h</text>
</a>
</g>
</g>
<!-- Node14&#45;&gt;Node15 -->
<g id="edge17_Node000014_Node000015" class="edge">
<title>Node14&#45;&gt;Node15</title>
<g id="a_edge17_Node000014_Node000015"><a xlink:title=" ">
<path fill="none" stroke="#63b8ff" d="M65.02,-109.75C63.43,-102.72 61.14,-92.62 59.15,-83.84"/>
<polygon fill="#63b8ff" stroke="#63b8ff" points="62.57,-83.07 56.94,-74.09 55.74,-84.62 62.57,-83.07"/>
</a>
</g>
</g>
<!-- Node16 -->
<g id="Node000016" class="node">
<title>Node16</title>
<g id="a_Node000016"><a xlink:href="impl__selector_8h.html" target="_top" xlink:title=" ">
<polygon fill="white" stroke="#666666" points="110,-19 0,-19 0,0 110,0 110,-19"/>
<text text-anchor="middle" x="55" y="-7" font-family="Times,serif" font-size="10.00">ttg/impl_selector.h</text>
</a>
</g>
</g>
<!-- Node15&#45;&gt;Node16 -->
<g id="edge18_Node000015_Node000016" class="edge">
<title>Node15&#45;&gt;Node16</title>
<g id="a_edge18_Node000015_Node000016"><a xlink:title=" ">
<path fill="none" stroke="#63b8ff" d="M55,-54.75C55,-47.8 55,-37.85 55,-29.13"/>
<polygon fill="#63b8ff" stroke="#63b8ff" points="58.5,-29.09 55,-19.09 51.5,-29.09 58.5,-29.09"/>
</a>
</g>
</g>
<!-- Node17&#45;&gt;Node6 -->
<g id="edge23_Node000017_Node000006" class="edge">
<title>Node17&#45;&gt;Node6</title>
<g id="a_edge23_Node000017_Node000006"><a xlink:title=" ">
<path fill="none" stroke="#63b8ff" d="M332.12,-111.01C405.22,-101.33 528.9,-84.65 591.08,-74.01"/>
<polygon fill="#63b8ff" stroke="#63b8ff" points="591.99,-77.41 601.24,-72.23 590.78,-70.51 591.99,-77.41"/>
</a>
</g>
</g>
<!-- Node17&#45;&gt;Node12 -->
<g id="edge21_Node000017_Node000012" class="edge">
<title>Node17&#45;&gt;Node12</title>
<g id="a_edge21_Node000017_Node000012"><a xlink:title=" ">
<path fill="none" stroke="#63b8ff" d="M263.59,-109.98C252.89,-102 236.66,-89.88 223.84,-80.31"/>
<polygon fill="#63b8ff" stroke="#63b8ff" points="225.72,-77.35 215.61,-74.17 221.53,-82.96 225.72,-77.35"/>
</a>
</g>
</g>
<!-- Node18 -->
<g id="Node000018" class="node">
<title>Node18</title>
<g id="a_Node000018"><a xlink:title=" ">
<polygon fill="#e0e0e0" stroke="#999999" points="304.5,-74 245.5,-74 245.5,-55 304.5,-55 304.5,-74"/>
<text text-anchor="middle" x="275" y="-62" font-family="Times,serif" font-size="10.00">cxxabi.h</text>
</a>
</g>
</g>
<!-- Node17&#45;&gt;Node18 -->
<g id="edge20_Node000017_Node000018" class="edge">
<title>Node17&#45;&gt;Node18</title>
<g id="a_edge20_Node000017_Node000018"><a xlink:title=" ">
<path fill="none" stroke="#63b8ff" d="M275,-109.75C275,-102.8 275,-92.85 275,-84.13"/>
<polygon fill="#63b8ff" stroke="#63b8ff" points="278.5,-84.09 275,-74.09 271.5,-84.09 278.5,-84.09"/>
</a>
</g>
</g>
<!-- Node19 -->
<g id="Node000019" class="node">
<title>Node19</title>
<g id="a_Node000019"><a xlink:title=" ">
<polygon fill="#e0e0e0" stroke="#999999" points="381.5,-74 322.5,-74 322.5,-55 381.5,-55 381.5,-74"/>
<text text-anchor="middle" x="352" y="-62" font-family="Times,serif" font-size="10.00">typeinfo</text>
</a>
</g>
</g>
<!-- Node17&#45;&gt;Node19 -->
<g id="edge22_Node000017_Node000019" class="edge">
<title>Node17&#45;&gt;Node19</title>
<g id="a_edge22_Node000017_Node000019"><a xlink:title=" ">
<path fill="none" stroke="#63b8ff" d="M287.37,-109.98C299.09,-101.92 316.92,-89.65 330.89,-80.03"/>
<polygon fill="#63b8ff" stroke="#63b8ff" points="333.15,-82.72 339.4,-74.17 329.18,-76.96 333.15,-82.72"/>
</a>
</g>
</g>
<!-- Node21 -->
<g id="Node000021" class="node">
<title>Node21</title>
<g id="a_Node000021"><a xlink:href="print_8h.html" target="_top" xlink:title=" ">
<polygon fill="white" stroke="#666666" points="583,-74 495,-74 495,-55 583,-55 583,-74"/>
<text text-anchor="middle" x="539" y="-62" font-family="Times,serif" font-size="10.00">ttg/util/print.h</text>
</a>
</g>
</g>
<!-- Node20&#45;&gt;Node21 -->
<g id="edge25_Node000020_Node000021" class="edge">
<title>Node20&#45;&gt;Node21</title>
<g id="a_edge25_Node000020_Node000021"><a xlink:title=" ">
<path fill="none" stroke="#63b8ff" d="M603.63,-109.98C591.91,-101.92 574.08,-89.65 560.11,-80.03"/>
<polygon fill="#63b8ff" stroke="#63b8ff" points="561.82,-76.96 551.6,-74.17 557.85,-82.72 561.82,-76.96"/>
</a>
</g>
</g>
<!-- Node21&#45;&gt;Node4 -->
<g id="edge26_Node000021_Node000004" class="edge">
<title>Node21&#45;&gt;Node4</title>
<g id="a_edge26_Node000021_Node000004"><a xlink:title=" ">
<path fill="none" stroke="#63b8ff" d="M563.1,-54.98C587.88,-46.23 626.7,-32.51 654.69,-22.62"/>
<polygon fill="#63b8ff" stroke="#63b8ff" points="656.2,-25.8 664.46,-19.17 653.87,-19.2 656.2,-25.8"/>
</a>
</g>
</g>
<!-- Node21&#45;&gt;Node13 -->
<g id="edge29_Node000021_Node000013" class="edge">
<title>Node21&#45;&gt;Node13</title>
<g id="a_edge29_Node000021_Node000013"><a xlink:title=" ">
<path fill="none" stroke="#63b8ff" d="M494.98,-57.47C417.16,-46.81 256.85,-24.86 186.44,-15.22"/>
<polygon fill="#63b8ff" stroke="#63b8ff" points="186.72,-11.72 176.33,-13.83 185.77,-18.66 186.72,-11.72"/>
</a>
</g>
</g>
<!-- Node22 -->
<g id="Node000022" class="node">
<title>Node22</title>
<g id="a_Node000022"><a xlink:title=" ">
<polygon fill="#e0e0e0" stroke="#999999" points="495.5,-19 446.5,-19 446.5,0 495.5,0 495.5,-19"/>
<text text-anchor="middle" x="471" y="-7" font-family="Times,serif" font-size="10.00">mutex</text>
</a>
</g>
</g>
<!-- Node21&#45;&gt;Node22 -->
<g id="edge27_Node000021_Node000022" class="edge">
<title>Node21&#45;&gt;Node22</title>
<g id="a_edge27_Node000021_Node000022"><a xlink:title=" ">
<path fill="none" stroke="#63b8ff" d="M528.07,-54.98C517.92,-47.07 502.58,-35.11 490.35,-25.58"/>
<polygon fill="#63b8ff" stroke="#63b8ff" points="492.16,-22.56 482.12,-19.17 487.86,-28.08 492.16,-22.56"/>
</a>
</g>
</g>
<!-- Node23 -->
<g id="Node000023" class="node">
<title>Node23</title>
<g id="a_Node000023"><a xlink:title=" ">
<polygon fill="#e0e0e0" stroke="#999999" points="572.5,-19 513.5,-19 513.5,0 572.5,0 572.5,-19"/>
<text text-anchor="middle" x="543" y="-7" font-family="Times,serif" font-size="10.00">complex</text>
</a>
</g>
</g>
<!-- Node21&#45;&gt;Node23 -->
<g id="edge28_Node000021_Node000023" class="edge">
<title>Node21&#45;&gt;Node23</title>
<g id="a_edge28_Node000021_Node000023"><a xlink:title=" ">
<path fill="none" stroke="#63b8ff" d="M539.66,-54.75C540.18,-47.8 540.94,-37.85 541.59,-29.13"/>
<polygon fill="#63b8ff" stroke="#63b8ff" points="545.09,-29.32 542.35,-19.09 538.11,-28.8 545.09,-29.32"/>
</a>
</g>
</g>
<!-- Node24 -->
<g id="Node000024" class="node">
<title>Node24</title>
<g id="a_Node000024"><a xlink:title=" ">
<polygon fill="#e0e0e0" stroke="#999999" points="635,-19 591,-19 591,0 635,0 635,-19"/>
<text text-anchor="middle" x="613" y="-7" font-family="Times,serif" font-size="10.00">array</text>
</a>
</g>
</g>
<!-- Node21&#45;&gt;Node24 -->
<g id="edge30_Node000021_Node000024" class="edge">
<title>Node21&#45;&gt;Node24</title>
<g id="a_edge30_Node000021_Node000024"><a xlink:title=" ">
<path fill="none" stroke="#63b8ff" d="M550.89,-54.98C562.15,-46.92 579.29,-34.65 592.71,-25.03"/>
<polygon fill="#63b8ff" stroke="#63b8ff" points="594.8,-27.84 600.89,-19.17 590.73,-22.15 594.8,-27.84"/>
</a>
</g>
</g>
<!-- Node25 -->
<g id="Node000025" class="node">
<title>Node25</title>
<g id="a_Node000025"><a xlink:title=" ">
<polygon fill="#e0e0e0" stroke="#999999" points="428,-19 382,-19 382,0 428,0 428,-19"/>
<text text-anchor="middle" x="405" y="-7" font-family="Times,serif" font-size="10.00">utility</text>
</a>
</g>
</g>
<!-- Node21&#45;&gt;Node25 -->
<g id="edge31_Node000021_Node000025" class="edge">
<title>Node21&#45;&gt;Node25</title>
<g id="a_edge31_Node000021_Node000025"><a xlink:title=" ">
<path fill="none" stroke="#63b8ff" d="M517.47,-54.98C495.53,-46.3 461.26,-32.75 436.31,-22.88"/>
<polygon fill="#63b8ff" stroke="#63b8ff" points="437.51,-19.59 426.92,-19.17 434.93,-26.1 437.51,-19.59"/>
</a>
</g>
</g>
</g>
</svg>
