<?xml version="1.0" encoding="UTF-8" standalone="no"?>
<!DOCTYPE svg PUBLIC "-//W3C//DTD SVG 1.1//EN"
 "http://www.w3.org/Graphics/SVG/1.1/DTD/svg11.dtd">
<!-- Generated by graphviz version 2.43.0 (0)
 -->
<!-- Title: ttg/ttg/base/tt.h Pages: 1 -->
<svg width="1346pt" height="654pt"
 viewBox="0.00 0.00 1346.00 654.00" xmlns="http://www.w3.org/2000/svg" xmlns:xlink="http://www.w3.org/1999/xlink">
<g id="graph0" class="graph" transform="scale(1 1) rotate(0) translate(4 650)">
<title>ttg/ttg/base/tt.h</title>
<!-- Node1 -->
<g id="Node000001" class="node">
<title>Node1</title>
<g id="a_Node000001"><a xlink:title=" ">
<polygon fill="#999999" stroke="#666666" points="1328.5,-646 1233.5,-646 1233.5,-627 1328.5,-627 1328.5,-646"/>
<text text-anchor="middle" x="1281" y="-634" font-family="Times,serif" font-size="10.00">ttg/ttg/base/tt.h</text>
</a>
</g>
</g>
<!-- Node2 -->
<g id="Node000002" class="node">
<title>Node2</title>
<g id="a_Node000002"><a xlink:href="base_2world_8h.html" target="_top" xlink:title=" ">
<polygon fill="white" stroke="#666666" points="1011,-591 895,-591 895,-572 1011,-572 1011,-591"/>
<text text-anchor="middle" x="953" y="-579" font-family="Times,serif" font-size="10.00">ttg/ttg/base/world.h</text>
</a>
</g>
</g>
<!-- Node1&#45;&gt;Node2 -->
<g id="edge1_Node000001_Node000002" class="edge">
<title>Node1&#45;&gt;Node2</title>
<g id="a_edge1_Node000001_Node000002"><a xlink:title=" ">
<path fill="none" stroke="#63b8ff" d="M1223.37,-626.19C1161.84,-616.25 1065.18,-600.63 1005.64,-591.01"/>
<polygon fill="#63b8ff" stroke="#63b8ff" points="1222.88,-629.65 1233.31,-627.79 1223.99,-622.74 1222.88,-629.65"/>
</a>
</g>
</g>
<!-- Node11 -->
<g id="Node000011" class="node">
<title>Node11</title>
<g id="a_Node000011"><a xlink:href="ttg_2madness_2ttg_8h.html" target="_top" xlink:title=" ">
<polygon fill="white" stroke="#666666" points="1324,-30 1200,-30 1200,-11 1324,-11 1324,-30"/>
<text text-anchor="middle" x="1262" y="-18" font-family="Times,serif" font-size="10.00">ttg/ttg/madness/ttg.h</text>
</a>
</g>
</g>
<!-- Node1&#45;&gt;Node11 -->
<g id="edge43_Node000001_Node000011" class="edge">
<title>Node1&#45;&gt;Node11</title>
<g id="a_edge43_Node000001_Node000011"><a xlink:title=" ">
<path fill="none" stroke="#63b8ff" d="M1296.05,-619.24C1312.94,-599.24 1338,-563.49 1338,-527.5 1338,-527.5 1338,-527.5 1338,-140.5 1338,-92.45 1293.45,-48.22 1272.57,-30.13"/>
<polygon fill="#63b8ff" stroke="#63b8ff" points="1293.38,-616.98 1289.41,-626.8 1298.64,-621.6 1293.38,-616.98"/>
</a>
</g>
</g>
<!-- Node12 -->
<g id="Node000012" class="node">
<title>Node12</title>
<g id="a_Node000012"><a xlink:href="ttg_2parsec_2ttg_8h.html" target="_top" xlink:title=" ">
<polygon fill="white" stroke="#666666" points="1182,-30 1070,-30 1070,-11 1182,-11 1182,-30"/>
<text text-anchor="middle" x="1126" y="-18" font-family="Times,serif" font-size="10.00">ttg/ttg/parsec/ttg.h</text>
</a>
</g>
</g>
<!-- Node1&#45;&gt;Node12 -->
<g id="edge44_Node000001_Node000012" class="edge">
<title>Node1&#45;&gt;Node12</title>
<g id="a_edge44_Node000001_Node000012"><a xlink:title=" ">
<path fill="none" stroke="#63b8ff" d="M1286.22,-617.23C1291.84,-595.9 1300,-559.44 1300,-527.5 1300,-527.5 1300,-527.5 1300,-140.5 1300,-103.45 1191.13,-50.55 1145.62,-30.06"/>
<polygon fill="#63b8ff" stroke="#63b8ff" points="1282.83,-616.34 1283.56,-626.91 1289.58,-618.19 1282.83,-616.34"/>
</a>
</g>
</g>
<!-- Node19 -->
<g id="Node000019" class="node">
<title>Node19</title>
<g id="a_Node000019"><a xlink:href="tt_8h.html" target="_top" xlink:title=" ">
<polygon fill="white" stroke="#666666" points="990,-316 922,-316 922,-297 990,-297 990,-316"/>
<text text-anchor="middle" x="956" y="-304" font-family="Times,serif" font-size="10.00">ttg/ttg/tt.h</text>
</a>
</g>
</g>
<!-- Node1&#45;&gt;Node19 -->
<g id="edge45_Node000001_Node000019" class="edge">
<title>Node1&#45;&gt;Node19</title>
<g id="a_edge45_Node000001_Node000019"><a xlink:title=" ">
<path fill="none" stroke="#63b8ff" d="M1265.09,-619.45C1207.13,-560.95 1008.34,-360.32 964.57,-316.15"/>
<polygon fill="#63b8ff" stroke="#63b8ff" points="1262.78,-622.09 1272.31,-626.73 1267.75,-617.16 1262.78,-622.09"/>
</a>
</g>
</g>
<!-- Node3 -->
<g id="Node000003" class="node">
<title>Node3</title>
<g id="a_Node000003"><a xlink:href="ttg_8h.html" target="_top" xlink:title=" ">
<polygon fill="white" stroke="#666666" points="706,-96 648,-96 648,-77 706,-77 706,-96"/>
<text text-anchor="middle" x="677" y="-84" font-family="Times,serif" font-size="10.00">ttg/ttg.h</text>
</a>
</g>
</g>
<!-- Node2&#45;&gt;Node3 -->
<g id="edge2_Node000002_Node000003" class="edge">
<title>Node2&#45;&gt;Node3</title>
<g id="a_edge2_Node000002_Node000003"><a xlink:title=" ">
<path fill="none" stroke="#63b8ff" d="M884.28,-578.84C754,-573.83 484,-553.65 484,-472.5 484,-472.5 484,-472.5 484,-195.5 484,-121.4 593.7,-97.64 647.69,-90.44"/>
<polygon fill="#63b8ff" stroke="#63b8ff" points="884.43,-582.35 894.55,-579.22 884.68,-575.36 884.43,-582.35"/>
</a>
</g>
</g>
<!-- Node2&#45;&gt;Node12 -->
<g id="edge12_Node000002_Node000012" class="edge">
<title>Node2&#45;&gt;Node12</title>
<g id="a_edge12_Node000002_Node000012"><a xlink:title=" ">
<path fill="none" stroke="#63b8ff" d="M1003.46,-569.52C1091.05,-547.16 1262,-487.51 1262,-362.5 1262,-362.5 1262,-362.5 1262,-195.5 1262,-116.9 1174.79,-52.61 1140.04,-30.11"/>
<polygon fill="#63b8ff" stroke="#63b8ff" points="1002.57,-566.13 993.71,-571.94 1004.26,-572.93 1002.57,-566.13"/>
</a>
</g>
</g>
<!-- Node13 -->
<g id="Node000013" class="node">
<title>Node13</title>
<g id="a_Node000013"><a xlink:href="world_8h.html" target="_top" xlink:title=" ">
<polygon fill="white" stroke="#666666" points="800.5,-536 711.5,-536 711.5,-517 800.5,-517 800.5,-536"/>
<text text-anchor="middle" x="756" y="-524" font-family="Times,serif" font-size="10.00">ttg/ttg/world.h</text>
</a>
</g>
</g>
<!-- Node2&#45;&gt;Node13 -->
<g id="edge13_Node000002_Node000013" class="edge">
<title>Node2&#45;&gt;Node13</title>
<g id="a_edge13_Node000002_Node000013"><a xlink:title=" ">
<path fill="none" stroke="#63b8ff" d="M911.41,-569.31C874.55,-559.39 821.5,-545.12 787.9,-536.08"/>
<polygon fill="#63b8ff" stroke="#63b8ff" points="910.78,-572.77 921.35,-571.98 912.6,-566.01 910.78,-572.77"/>
</a>
</g>
</g>
<!-- Node4 -->
<g id="Node000004" class="node">
<title>Node4</title>
<g id="a_Node000004"><a xlink:href="fibonacci_8cc.html" target="_top" xlink:title=" ">
<polygon fill="white" stroke="#666666" points="736,-35.5 608,-35.5 608,-5.5 736,-5.5 736,-35.5"/>
<text text-anchor="start" x="616" y="-23.5" font-family="Times,serif" font-size="10.00">doc/dox/dev/devsamp</text>
<text text-anchor="middle" x="672" y="-12.5" font-family="Times,serif" font-size="10.00">/fibonacci/fibonacci.cc</text>
</a>
</g>
</g>
<!-- Node3&#45;&gt;Node4 -->
<g id="edge3_Node000003_Node000004" class="edge">
<title>Node3&#45;&gt;Node4</title>
<g id="a_edge3_Node000003_Node000004"><a xlink:title=" ">
<path fill="none" stroke="#63b8ff" d="M675.54,-66.85C674.77,-56.97 673.84,-45.01 673.12,-35.86"/>
<polygon fill="#63b8ff" stroke="#63b8ff" points="672.06,-67.17 676.33,-76.87 679.04,-66.63 672.06,-67.17"/>
</a>
</g>
</g>
<!-- Node5 -->
<g id="Node000005" class="node">
<title>Node5</title>
<g id="a_Node000005"><a xlink:href="fibonacci__device_8cc.html" target="_top" xlink:title=" ">
<polygon fill="white" stroke="#666666" points="882,-41 754,-41 754,0 882,0 882,-41"/>
<text text-anchor="start" x="762" y="-29" font-family="Times,serif" font-size="10.00">doc/dox/dev/devsamp</text>
<text text-anchor="start" x="762" y="-18" font-family="Times,serif" font-size="10.00">/fibonacci/fibonacci</text>
<text text-anchor="middle" x="818" y="-7" font-family="Times,serif" font-size="10.00">_device.cc</text>
</a>
</g>
</g>
<!-- Node3&#45;&gt;Node5 -->
<g id="edge4_Node000003_Node000005" class="edge">
<title>Node3&#45;&gt;Node5</title>
<g id="a_edge4_Node000003_Node000005"><a xlink:title=" ">
<path fill="none" stroke="#63b8ff" d="M705.2,-72.7C725.18,-63.63 752.35,-51.3 775.02,-41.01"/>
<polygon fill="#63b8ff" stroke="#63b8ff" points="703.68,-69.55 696.02,-76.87 706.57,-75.92 703.68,-69.55"/>
</a>
</g>
</g>
<!-- Node6 -->
<g id="Node000006" class="node">
<title>Node6</title>
<g id="a_Node000006"><a xlink:href="helloworld_8cpp.html" target="_top" xlink:title=" ">
<polygon fill="white" stroke="#666666" points="1051.5,-35.5 900.5,-35.5 900.5,-5.5 1051.5,-5.5 1051.5,-35.5"/>
<text text-anchor="start" x="908.5" y="-23.5" font-family="Times,serif" font-size="10.00">doc/dox/dev/devsamp</text>
<text text-anchor="middle" x="976" y="-12.5" font-family="Times,serif" font-size="10.00">/helloworld/helloworld.cpp</text>
</a>
</g>
</g>
<!-- Node3&#45;&gt;Node6 -->
<g id="edge5_Node000003_Node000006" class="edge">
<title>Node3&#45;&gt;Node6</title>
<g id="a_edge5_Node000003_Node000006"><a xlink:title=" ">
<path fill="none" stroke="#63b8ff" d="M716.15,-77.61C759.1,-68.9 830.04,-54.33 891,-41 898.99,-39.25 907.39,-37.38 915.67,-35.5"/>
<polygon fill="#63b8ff" stroke="#63b8ff" points="715.22,-74.23 706.12,-79.64 716.61,-81.09 715.22,-74.23"/>
</a>
</g>
</g>
<!-- Node7 -->
<g id="Node000007" class="node">
<title>Node7</title>
<g id="a_Node000007"><a xlink:href="distributed_8cc.html" target="_top" xlink:title=" ">
<polygon fill="white" stroke="#666666" points="134,-35.5 0,-35.5 0,-5.5 134,-5.5 134,-35.5"/>
<text text-anchor="start" x="8" y="-23.5" font-family="Times,serif" font-size="10.00">doc/dox/user/examples</text>
<text text-anchor="middle" x="67" y="-12.5" font-family="Times,serif" font-size="10.00">/distributed.cc</text>
</a>
</g>
</g>
<!-- Node3&#45;&gt;Node7 -->
<g id="edge6_Node000003_Node000007" class="edge">
<title>Node3&#45;&gt;Node7</title>
<g id="a_edge6_Node000003_Node000007"><a xlink:title=" ">
<path fill="none" stroke="#63b8ff" d="M637.69,-84.48C548.92,-81.69 326.35,-71.94 143,-41 134.4,-39.55 125.36,-37.61 116.62,-35.51"/>
<polygon fill="#63b8ff" stroke="#63b8ff" points="637.74,-87.99 647.84,-84.79 637.95,-80.99 637.74,-87.99"/>
</a>
</g>
</g>
<!-- Node8 -->
<g id="Node000008" class="node">
<title>Node8</title>
<g id="a_Node000008"><a xlink:href="iterative_8cc.html" target="_top" xlink:title=" ">
<polygon fill="white" stroke="#666666" points="286,-35.5 152,-35.5 152,-5.5 286,-5.5 286,-35.5"/>
<text text-anchor="start" x="160" y="-23.5" font-family="Times,serif" font-size="10.00">doc/dox/user/examples</text>
<text text-anchor="middle" x="219" y="-12.5" font-family="Times,serif" font-size="10.00">/iterative.cc</text>
</a>
</g>
</g>
<!-- Node3&#45;&gt;Node8 -->
<g id="edge7_Node000003_Node000008" class="edge">
<title>Node3&#45;&gt;Node8</title>
<g id="a_edge7_Node000003_Node000008"><a xlink:title=" ">
<path fill="none" stroke="#63b8ff" d="M637.48,-82.67C567.85,-77.29 418.94,-64.01 295,-41 286.83,-39.48 278.24,-37.58 269.89,-35.57"/>
<polygon fill="#63b8ff" stroke="#63b8ff" points="637.33,-86.17 647.56,-83.43 637.86,-79.19 637.33,-86.17"/>
</a>
</g>
</g>
<!-- Node9 -->
<g id="Node000009" class="node">
<title>Node9</title>
<g id="a_Node000009"><a xlink:href="reducing_8cc.html" target="_top" xlink:title=" ">
<polygon fill="white" stroke="#666666" points="438,-35.5 304,-35.5 304,-5.5 438,-5.5 438,-35.5"/>
<text text-anchor="start" x="312" y="-23.5" font-family="Times,serif" font-size="10.00">doc/dox/user/examples</text>
<text text-anchor="middle" x="371" y="-12.5" font-family="Times,serif" font-size="10.00">/reducing.cc</text>
</a>
</g>
</g>
<!-- Node3&#45;&gt;Node9 -->
<g id="edge8_Node000003_Node000009" class="edge">
<title>Node3&#45;&gt;Node9</title>
<g id="a_edge8_Node000003_Node000009"><a xlink:title=" ">
<path fill="none" stroke="#63b8ff" d="M637.72,-78.64C591.81,-70.45 513.63,-55.98 447,-41 439.56,-39.33 431.73,-37.45 424.05,-35.55"/>
<polygon fill="#63b8ff" stroke="#63b8ff" points="637.38,-82.14 647.84,-80.44 638.6,-75.24 637.38,-82.14"/>
</a>
</g>
</g>
<!-- Node10 -->
<g id="Node000010" class="node">
<title>Node10</title>
<g id="a_Node000010"><a xlink:href="simple_8cc.html" target="_top" xlink:title=" ">
<polygon fill="white" stroke="#666666" points="590,-35.5 456,-35.5 456,-5.5 590,-5.5 590,-35.5"/>
<text text-anchor="start" x="464" y="-23.5" font-family="Times,serif" font-size="10.00">doc/dox/user/examples</text>
<text text-anchor="middle" x="523" y="-12.5" font-family="Times,serif" font-size="10.00">/simple.cc</text>
</a>
</g>
</g>
<!-- Node3&#45;&gt;Node10 -->
<g id="edge9_Node000003_Node000010" class="edge">
<title>Node3&#45;&gt;Node10</title>
<g id="a_edge9_Node000003_Node000010"><a xlink:title=" ">
<path fill="none" stroke="#63b8ff" d="M646.93,-73C621.1,-62.27 583.87,-46.8 556.97,-35.62"/>
<polygon fill="#63b8ff" stroke="#63b8ff" points="645.65,-76.26 656.23,-76.87 648.34,-69.8 645.65,-76.26"/>
</a>
</g>
</g>
<!-- Node3&#45;&gt;Node11 -->
<g id="edge10_Node000003_Node000011" class="edge">
<title>Node3&#45;&gt;Node11</title>
<g id="a_edge10_Node000003_Node000011"><a xlink:title=" ">
<path fill="none" stroke="#63b8ff" d="M716.38,-84.53C802.89,-81.85 1015.8,-72.37 1191,-41 1205.85,-38.34 1222.09,-33.99 1235.29,-30.07"/>
<polygon fill="#63b8ff" stroke="#63b8ff" points="716.12,-81.03 706.23,-84.83 716.32,-88.03 716.12,-81.03"/>
</a>
</g>
</g>
<!-- Node3&#45;&gt;Node12 -->
<g id="edge11_Node000003_Node000012" class="edge">
<title>Node3&#45;&gt;Node12</title>
<g id="a_edge11_Node000003_Node000012"><a xlink:title=" ">
<path fill="none" stroke="#63b8ff" d="M716.3,-83.24C786.22,-78.7 936.59,-66.66 1061,-41 1074.5,-38.22 1089.24,-33.9 1101.26,-30.04"/>
<polygon fill="#63b8ff" stroke="#63b8ff" points="715.94,-79.75 706.18,-83.88 716.38,-86.74 715.94,-79.75"/>
</a>
</g>
</g>
<!-- Node13&#45;&gt;Node3 -->
<g id="edge14_Node000013_Node000003" class="edge">
<title>Node13&#45;&gt;Node3</title>
<g id="a_edge14_Node000013_Node000003"><a xlink:title=" ">
<path fill="none" stroke="#63b8ff" d="M701.13,-523.47C631.96,-517.64 522,-496.02 522,-417.5 522,-417.5 522,-417.5 522,-195.5 522,-134.82 602.95,-105.44 647.85,-93.81"/>
<polygon fill="#63b8ff" stroke="#63b8ff" points="701.2,-526.99 711.44,-524.25 701.73,-520.01 701.2,-526.99"/>
</a>
</g>
</g>
<!-- Node13&#45;&gt;Node11 -->
<g id="edge17_Node000013_Node000011" class="edge">
<title>Node13&#45;&gt;Node11</title>
<g id="a_edge17_Node000013_Node000011"><a xlink:title=" ">
<path fill="none" stroke="#63b8ff" d="M810.9,-524.61C934.52,-519.41 1224,-487.97 1224,-307.5 1224,-307.5 1224,-307.5 1224,-195.5 1224,-130.57 1249.57,-55.08 1258.76,-30.05"/>
<polygon fill="#63b8ff" stroke="#63b8ff" points="810.73,-521.11 800.87,-524.99 811,-528.11 810.73,-521.11"/>
</a>
</g>
</g>
<!-- Node14 -->
<g id="Node000014" class="node">
<title>Node14</title>
<g id="a_Node000014"><a xlink:href="broadcast_8h.html" target="_top" xlink:title=" ">
<polygon fill="white" stroke="#666666" points="737.5,-151 626.5,-151 626.5,-132 737.5,-132 737.5,-151"/>
<text text-anchor="middle" x="682" y="-139" font-family="Times,serif" font-size="10.00">ttg/ttg/broadcast.h</text>
</a>
</g>
</g>
<!-- Node13&#45;&gt;Node14 -->
<g id="edge15_Node000013_Node000014" class="edge">
<title>Node13&#45;&gt;Node14</title>
<g id="a_edge15_Node000013_Node000014"><a xlink:title=" ">
<path fill="none" stroke="#63b8ff" d="M721.33,-512.83C705.26,-505.54 686.91,-495.01 674,-481 653.1,-458.32 646,-448.34 646,-417.5 646,-417.5 646,-417.5 646,-250.5 646,-211.76 667.1,-169.03 676.99,-151.13"/>
<polygon fill="#63b8ff" stroke="#63b8ff" points="720.4,-516.24 730.97,-516.95 723.15,-509.8 720.4,-516.24"/>
</a>
</g>
</g>
<!-- Node15 -->
<g id="Node000015" class="node">
<title>Node15</title>
<g id="a_Node000015"><a xlink:href="run_8h.html" target="_top" xlink:title=" ">
<polygon fill="white" stroke="#666666" points="761.5,-481 682.5,-481 682.5,-462 761.5,-462 761.5,-481"/>
<text text-anchor="middle" x="722" y="-469" font-family="Times,serif" font-size="10.00">ttg/ttg/run.h</text>
</a>
</g>
</g>
<!-- Node13&#45;&gt;Node15 -->
<g id="edge18_Node000013_Node000015" class="edge">
<title>Node13&#45;&gt;Node15</title>
<g id="a_edge18_Node000013_Node000015"><a xlink:title=" ">
<path fill="none" stroke="#63b8ff" d="M744.84,-508.1C739.03,-499.04 732.18,-488.37 727.51,-481.09"/>
<polygon fill="#63b8ff" stroke="#63b8ff" points="742.04,-510.22 750.39,-516.75 747.93,-506.44 742.04,-510.22"/>
</a>
</g>
</g>
<!-- Node16 -->
<g id="Node000016" class="node">
<title>Node16</title>
<g id="a_Node000016"><a xlink:href="terminal_8h.html" target="_top" xlink:title=" ">
<polygon fill="white" stroke="#666666" points="842,-426 738,-426 738,-407 842,-407 842,-426"/>
<text text-anchor="middle" x="790" y="-414" font-family="Times,serif" font-size="10.00">ttg/ttg/terminal.h</text>
</a>
</g>
</g>
<!-- Node13&#45;&gt;Node16 -->
<g id="edge42_Node000013_Node000016" class="edge">
<title>Node13&#45;&gt;Node16</title>
<g id="a_edge42_Node000013_Node000016"><a xlink:title=" ">
<path fill="none" stroke="#63b8ff" d="M762.22,-507.5C764.98,-499.42 768.22,-489.75 771,-481 777.21,-461.48 783.97,-438.41 787.51,-426.16"/>
<polygon fill="#63b8ff" stroke="#63b8ff" points="758.9,-506.4 758.96,-517 765.52,-508.68 758.9,-506.4"/>
</a>
</g>
</g>
<!-- Node14&#45;&gt;Node3 -->
<g id="edge16_Node000014_Node000003" class="edge">
<title>Node14&#45;&gt;Node3</title>
<g id="a_edge16_Node000014_Node000003"><a xlink:title=" ">
<path fill="none" stroke="#63b8ff" d="M680.22,-121.66C679.4,-112.93 678.46,-102.99 677.81,-96.09"/>
<polygon fill="#63b8ff" stroke="#63b8ff" points="676.75,-122.12 681.17,-131.75 683.72,-121.46 676.75,-122.12"/>
</a>
</g>
</g>
<!-- Node15&#45;&gt;Node3 -->
<g id="edge19_Node000015_Node000003" class="edge">
<title>Node15&#45;&gt;Node3</title>
<g id="a_edge19_Node000015_Node000003"><a xlink:title=" ">
<path fill="none" stroke="#63b8ff" d="M672.5,-459.65C624.86,-445.96 560,-417.25 560,-362.5 560,-362.5 560,-362.5 560,-195.5 560,-144.36 621.1,-110.73 654.99,-96.01"/>
<polygon fill="#63b8ff" stroke="#63b8ff" points="671.8,-463.09 682.37,-462.35 673.65,-456.34 671.8,-463.09"/>
</a>
</g>
</g>
<!-- Node15&#45;&gt;Node16 -->
<g id="edge20_Node000015_Node000016" class="edge">
<title>Node15&#45;&gt;Node16</title>
<g id="a_edge20_Node000015_Node000016"><a xlink:title=" ">
<path fill="none" stroke="#63b8ff" d="M741.12,-455.6C753.3,-446.11 768.66,-434.13 778.88,-426.17"/>
<polygon fill="#63b8ff" stroke="#63b8ff" points="738.66,-453.08 732.93,-461.98 742.96,-458.6 738.66,-453.08"/>
</a>
</g>
</g>
<!-- Node16&#45;&gt;Node12 -->
<g id="edge41_Node000016_Node000012" class="edge">
<title>Node16&#45;&gt;Node12</title>
<g id="a_edge41_Node000016_Node000012"><a xlink:title=" ">
<path fill="none" stroke="#63b8ff" d="M852.29,-411.42C963.8,-402.39 1186,-375.83 1186,-307.5 1186,-307.5 1186,-307.5 1186,-140.5 1186,-94.69 1150.11,-48.56 1133.84,-30"/>
<polygon fill="#63b8ff" stroke="#63b8ff" points="851.87,-407.94 842.18,-412.21 852.42,-414.92 851.87,-407.94"/>
</a>
</g>
</g>
<!-- Node17 -->
<g id="Node000017" class="node">
<title>Node17</title>
<g id="a_Node000017"><a xlink:href="edge_8h.html" target="_top" xlink:title=" ">
<polygon fill="white" stroke="#666666" points="841,-371 755,-371 755,-352 841,-352 841,-371"/>
<text text-anchor="middle" x="798" y="-359" font-family="Times,serif" font-size="10.00">ttg/ttg/edge.h</text>
</a>
</g>
</g>
<!-- Node16&#45;&gt;Node17 -->
<g id="edge21_Node000016_Node000017" class="edge">
<title>Node16&#45;&gt;Node17</title>
<g id="a_edge21_Node000016_Node000017"><a xlink:title=" ">
<path fill="none" stroke="#63b8ff" d="M792.84,-396.66C794.16,-387.93 795.66,-377.99 796.7,-371.09"/>
<polygon fill="#63b8ff" stroke="#63b8ff" points="789.35,-396.34 791.32,-406.75 796.27,-397.38 789.35,-396.34"/>
</a>
</g>
</g>
<!-- Node18 -->
<g id="Node000018" class="node">
<title>Node18</title>
<g id="a_Node000018"><a xlink:href="func_8h.html" target="_top" xlink:title=" ">
<polygon fill="white" stroke="#666666" points="851.5,-206 768.5,-206 768.5,-187 851.5,-187 851.5,-206"/>
<text text-anchor="middle" x="810" y="-194" font-family="Times,serif" font-size="10.00">ttg/ttg/func.h</text>
</a>
</g>
</g>
<!-- Node16&#45;&gt;Node18 -->
<g id="edge40_Node000016_Node000018" class="edge">
<title>Node16&#45;&gt;Node18</title>
<g id="a_edge40_Node000016_Node000018"><a xlink:title=" ">
<path fill="none" stroke="#63b8ff" d="M769.3,-400.66C760.33,-392.95 750.81,-382.69 746,-371 742.79,-363.19 744.35,-360.28 746,-352 757.67,-293.34 792,-229.04 804.96,-206.17"/>
<polygon fill="#63b8ff" stroke="#63b8ff" points="767.23,-403.49 777.22,-407 771.6,-398.02 767.23,-403.49"/>
</a>
</g>
</g>
<!-- Node17&#45;&gt;Node3 -->
<g id="edge22_Node000017_Node000003" class="edge">
<title>Node17&#45;&gt;Node3</title>
<g id="a_edge22_Node000017_Node000003"><a xlink:title=" ">
<path fill="none" stroke="#63b8ff" d="M777.89,-345.53C738.13,-314.52 650.53,-238.79 618,-151 615.07,-143.08 614.23,-139.56 618,-132 626.24,-115.46 643.88,-103.45 657.73,-96.1"/>
<polygon fill="#63b8ff" stroke="#63b8ff" points="775.98,-348.48 786.04,-351.78 780.24,-342.92 775.98,-348.48"/>
</a>
</g>
</g>
<!-- Node17&#45;&gt;Node12 -->
<g id="edge28_Node000017_Node000012" class="edge">
<title>Node17&#45;&gt;Node12</title>
<g id="a_edge28_Node000017_Node000012"><a xlink:title=" ">
<path fill="none" stroke="#63b8ff" d="M851.26,-355.97C893.24,-350.72 952.27,-339.56 999,-316 1037.4,-296.64 1072,-295.5 1072,-252.5 1072,-252.5 1072,-252.5 1072,-140.5 1072,-95.58 1104.3,-48.96 1118.94,-30.14"/>
<polygon fill="#63b8ff" stroke="#63b8ff" points="850.77,-352.5 841.25,-357.15 851.59,-359.45 850.77,-352.5"/>
</a>
</g>
</g>
<!-- Node17&#45;&gt;Node18 -->
<g id="edge23_Node000017_Node000018" class="edge">
<title>Node17&#45;&gt;Node18</title>
<g id="a_edge23_Node000017_Node000018"><a xlink:title=" ">
<path fill="none" stroke="#63b8ff" d="M799.41,-341.37C802.01,-306.03 807.48,-231.79 809.35,-206.31"/>
<polygon fill="#63b8ff" stroke="#63b8ff" points="795.89,-341.51 798.65,-351.74 802.87,-342.02 795.89,-341.51"/>
</a>
</g>
</g>
<!-- Node17&#45;&gt;Node19 -->
<g id="edge29_Node000017_Node000019" class="edge">
<title>Node17&#45;&gt;Node19</title>
<g id="a_edge29_Node000017_Node000019"><a xlink:title=" ">
<path fill="none" stroke="#63b8ff" d="M832.88,-348.8C862.37,-338.91 903.93,-324.97 930.42,-316.08"/>
<polygon fill="#63b8ff" stroke="#63b8ff" points="831.75,-345.49 823.39,-351.98 833.98,-352.12 831.75,-345.49"/>
</a>
</g>
</g>
<!-- Node18&#45;&gt;Node3 -->
<g id="edge24_Node000018_Node000003" class="edge">
<title>Node18&#45;&gt;Node3</title>
<g id="a_edge24_Node000018_Node000003"><a xlink:title=" ">
<path fill="none" stroke="#63b8ff" d="M795.64,-179.11C783.42,-165.66 765.03,-146.52 747,-132 729.5,-117.91 707.34,-104.47 692.69,-96.12"/>
<polygon fill="#63b8ff" stroke="#63b8ff" points="793.12,-181.55 802.4,-186.67 798.34,-176.88 793.12,-181.55"/>
</a>
</g>
</g>
<!-- Node18&#45;&gt;Node11 -->
<g id="edge26_Node000018_Node000011" class="edge">
<title>Node18&#45;&gt;Node11</title>
<g id="a_edge26_Node000018_Node000011"><a xlink:title=" ">
<path fill="none" stroke="#63b8ff" d="M842.91,-183.47C867.05,-174.6 900.61,-162.18 930,-151 1047.39,-106.34 1187.37,-51.08 1240.3,-30.11"/>
<polygon fill="#63b8ff" stroke="#63b8ff" points="841.68,-180.19 833.5,-186.92 844.09,-186.76 841.68,-180.19"/>
</a>
</g>
</g>
<!-- Node18&#45;&gt;Node12 -->
<g id="edge27_Node000018_Node000012" class="edge">
<title>Node18&#45;&gt;Node12</title>
<g id="a_edge27_Node000018_Node000012"><a xlink:title=" ">
<path fill="none" stroke="#63b8ff" d="M838.54,-182.46C856.66,-173.95 880.49,-162.35 901,-151 955.49,-120.84 965.93,-107.91 1020,-77 1050.66,-59.47 1087.34,-40.75 1108.53,-30.15"/>
<polygon fill="#63b8ff" stroke="#63b8ff" points="836.7,-179.45 829.11,-186.85 839.65,-185.8 836.7,-179.45"/>
</a>
</g>
</g>
<!-- Node18&#45;&gt;Node14 -->
<g id="edge25_Node000018_Node000014" class="edge">
<title>Node18&#45;&gt;Node14</title>
<g id="a_edge25_Node000018_Node000014"><a xlink:title=" ">
<path fill="none" stroke="#63b8ff" d="M779.88,-183.03C756.21,-173.23 723.85,-159.83 702.94,-151.17"/>
<polygon fill="#63b8ff" stroke="#63b8ff" points="778.86,-186.39 789.43,-186.98 781.53,-179.93 778.86,-186.39"/>
</a>
</g>
</g>
<!-- Node19&#45;&gt;Node3 -->
<g id="edge30_Node000019_Node000003" class="edge">
<title>Node19&#45;&gt;Node3</title>
<g id="a_edge30_Node000019_Node000003"><a xlink:title=" ">
<path fill="none" stroke="#63b8ff" d="M967.53,-287.63C974.26,-275.04 980.76,-257.68 977,-242 964.2,-188.65 965,-164.77 921,-132 887.33,-106.92 763.38,-94.23 706.22,-89.6"/>
<polygon fill="#63b8ff" stroke="#63b8ff" points="964.31,-286.2 962.27,-296.59 970.35,-289.74 964.31,-286.2"/>
</a>
</g>
</g>
<!-- Node19&#45;&gt;Node11 -->
<g id="edge33_Node000019_Node000011" class="edge">
<title>Node19&#45;&gt;Node11</title>
<g id="a_edge33_Node000019_Node000011"><a xlink:title=" ">
<path fill="none" stroke="#63b8ff" d="M1000.49,-300.18C1057.21,-290.63 1148,-264.83 1148,-197.5 1148,-197.5 1148,-197.5 1148,-140.5 1148,-85.85 1211.46,-46.51 1243.68,-30.05"/>
<polygon fill="#63b8ff" stroke="#63b8ff" points="999.66,-296.77 990.33,-301.78 1000.75,-303.68 999.66,-296.77"/>
</a>
</g>
</g>
<!-- Node19&#45;&gt;Node12 -->
<g id="edge34_Node000019_Node000012" class="edge">
<title>Node19&#45;&gt;Node12</title>
<g id="a_edge34_Node000019_Node000012"><a xlink:title=" ">
<path fill="none" stroke="#63b8ff" d="M976.09,-290.77C999.2,-271.95 1034,-237.05 1034,-197.5 1034,-197.5 1034,-197.5 1034,-140.5 1034,-110.33 1040.38,-101.49 1058,-77 1072.51,-56.84 1096.11,-39.85 1111.34,-30.17"/>
<polygon fill="#63b8ff" stroke="#63b8ff" points="973.9,-288.03 968.19,-296.95 978.22,-293.54 973.9,-288.03"/>
</a>
</g>
</g>
<!-- Node19&#45;&gt;Node14 -->
<g id="edge31_Node000019_Node000014" class="edge">
<title>Node19&#45;&gt;Node14</title>
<g id="a_edge31_Node000019_Node000014"><a xlink:title=" ">
<path fill="none" stroke="#63b8ff" d="M915.47,-293.97C891.1,-286.26 859.9,-274.96 834,-261 797.93,-241.55 792.34,-231.16 760,-206 735.47,-186.91 707.34,-163.67 692.48,-151.28"/>
<polygon fill="#63b8ff" stroke="#63b8ff" points="914.53,-297.35 925.12,-296.95 916.6,-290.66 914.53,-297.35"/>
</a>
</g>
</g>
<!-- Node19&#45;&gt;Node18 -->
<g id="edge32_Node000019_Node000018" class="edge">
<title>Node19&#45;&gt;Node18</title>
<g id="a_edge32_Node000019_Node000018"><a xlink:title=" ">
<path fill="none" stroke="#63b8ff" d="M917.03,-293.59C897.36,-286.3 873.93,-275.54 856,-261 836.76,-245.4 821.62,-219.88 814.48,-206.44"/>
<polygon fill="#63b8ff" stroke="#63b8ff" points="916.04,-296.96 926.64,-297 918.38,-290.36 916.04,-296.96"/>
</a>
</g>
</g>
<!-- Node20 -->
<g id="Node000020" class="node">
<title>Node20</title>
<g id="a_Node000020"><a xlink:href="traverse_8h.html" target="_top" xlink:title=" ">
<polygon fill="white" stroke="#666666" points="967.5,-261 864.5,-261 864.5,-242 967.5,-242 967.5,-261"/>
<text text-anchor="middle" x="916" y="-249" font-family="Times,serif" font-size="10.00">ttg/ttg/traverse.h</text>
</a>
</g>
</g>
<!-- Node19&#45;&gt;Node20 -->
<g id="edge35_Node000019_Node000020" class="edge">
<title>Node19&#45;&gt;Node20</title>
<g id="a_edge35_Node000019_Node000020"><a xlink:title=" ">
<path fill="none" stroke="#63b8ff" d="M943.3,-288.67C936.37,-279.5 928.09,-268.52 922.48,-261.09"/>
<polygon fill="#63b8ff" stroke="#63b8ff" points="940.58,-290.87 949.39,-296.75 946.16,-286.66 940.58,-290.87"/>
</a>
</g>
</g>
<!-- Node20&#45;&gt;Node3 -->
<g id="edge36_Node000020_Node000003" class="edge">
<title>Node20&#45;&gt;Node3</title>
<g id="a_edge36_Node000020_Node000003"><a xlink:title=" ">
<path fill="none" stroke="#63b8ff" d="M919.64,-231.97C923.57,-206.05 926.25,-159.09 901,-132 874.91,-104.01 760.84,-92.93 706.28,-89.17"/>
<polygon fill="#63b8ff" stroke="#63b8ff" points="916.17,-231.52 917.9,-241.97 923.07,-232.72 916.17,-231.52"/>
</a>
</g>
</g>
<!-- Node20&#45;&gt;Node18 -->
<g id="edge37_Node000020_Node000018" class="edge">
<title>Node20&#45;&gt;Node18</title>
<g id="a_edge37_Node000020_Node000018"><a xlink:title=" ">
<path fill="none" stroke="#63b8ff" d="M890,-237.5C870.5,-227.75 844.35,-214.68 827.34,-206.17"/>
<polygon fill="#63b8ff" stroke="#63b8ff" points="888.46,-240.64 898.97,-241.98 891.59,-234.38 888.46,-240.64"/>
</a>
</g>
</g>
<!-- Node21 -->
<g id="Node000021" class="node">
<title>Node21</title>
<g id="a_Node000021"><a xlink:href="dot_8h.html" target="_top" xlink:title=" ">
<polygon fill="white" stroke="#666666" points="891.5,-151 794.5,-151 794.5,-132 891.5,-132 891.5,-151"/>
<text text-anchor="middle" x="843" y="-139" font-family="Times,serif" font-size="10.00">ttg/ttg/util/dot.h</text>
</a>
</g>
</g>
<!-- Node20&#45;&gt;Node21 -->
<g id="edge38_Node000020_Node000021" class="edge">
<title>Node20&#45;&gt;Node21</title>
<g id="a_edge38_Node000020_Node000021"><a xlink:title=" ">
<path fill="none" stroke="#63b8ff" d="M904.22,-233.07C888.38,-209.64 860.84,-168.89 848.85,-151.16"/>
<polygon fill="#63b8ff" stroke="#63b8ff" points="901.53,-235.34 910.03,-241.66 907.33,-231.42 901.53,-235.34"/>
</a>
</g>
</g>
<!-- Node21&#45;&gt;Node3 -->
<g id="edge39_Node000021_Node000003" class="edge">
<title>Node21&#45;&gt;Node3</title>
<g id="a_edge39_Node000021_Node000003"><a xlink:title=" ">
<path fill="none" stroke="#63b8ff" d="M806.75,-128.93C775.75,-119.03 731.83,-105.01 703.88,-96.08"/>
<polygon fill="#63b8ff" stroke="#63b8ff" points="805.74,-132.28 816.33,-131.98 807.87,-125.61 805.74,-132.28"/>
</a>
</g>
</g>
</g>
</svg>
