<?xml version="1.0" encoding="UTF-8" standalone="no"?>
<!DOCTYPE svg PUBLIC "-//W3C//DTD SVG 1.1//EN"
 "http://www.w3.org/Graphics/SVG/1.1/DTD/svg11.dtd">
<!-- Generated by graphviz version 2.43.0 (0)
 -->
<!-- Title: ttg/ttg/buffer.h Pages: 1 -->
<svg width="920pt" height="313pt"
 viewBox="0.00 0.00 919.50 313.00" xmlns="http://www.w3.org/2000/svg" xmlns:xlink="http://www.w3.org/1999/xlink">
<g id="graph0" class="graph" transform="scale(1 1) rotate(0) translate(4 309)">
<title>ttg/ttg/buffer.h</title>
<!-- Node1 -->
<g id="Node000001" class="node">
<title>Node1</title>
<g id="a_Node000001"><a xlink:title=" ">
<polygon fill="#999999" stroke="#666666" points="476.5,-305 385.5,-305 385.5,-286 476.5,-286 476.5,-305"/>
<text text-anchor="middle" x="431" y="-293" font-family="Times,serif" font-size="10.00">ttg/ttg/buffer.h</text>
</a>
</g>
</g>
<!-- Node2 -->
<g id="Node000002" class="node">
<title>Node2</title>
<g id="a_Node000002"><a xlink:title=" ">
<polygon fill="#e0e0e0" stroke="#999999" points="352.5,-250 293.5,-250 293.5,-231 352.5,-231 352.5,-250"/>
<text text-anchor="middle" x="323" y="-238" font-family="Times,serif" font-size="10.00">memory</text>
</a>
</g>
</g>
<!-- Node1&#45;&gt;Node2 -->
<g id="edge1_Node000001_Node000002" class="edge">
<title>Node1&#45;&gt;Node2</title>
<g id="a_edge1_Node000001_Node000002"><a xlink:title=" ">
<path fill="none" stroke="#63b8ff" d="M413.65,-285.98C396.43,-277.54 369.8,-264.47 349.85,-254.68"/>
<polygon fill="#63b8ff" stroke="#63b8ff" points="351.19,-251.43 340.67,-250.17 348.1,-257.72 351.19,-251.43"/>
</a>
</g>
</g>
<!-- Node3 -->
<g id="Node000003" class="node">
<title>Node3</title>
<g id="a_Node000003"><a xlink:href="fwd_8h.html" target="_top" xlink:title=" ">
<polygon fill="white" stroke="#666666" points="433,-250 371,-250 371,-231 433,-231 433,-250"/>
<text text-anchor="middle" x="402" y="-238" font-family="Times,serif" font-size="10.00">ttg/fwd.h</text>
</a>
</g>
</g>
<!-- Node1&#45;&gt;Node3 -->
<g id="edge2_Node000001_Node000003" class="edge">
<title>Node1&#45;&gt;Node3</title>
<g id="a_edge2_Node000001_Node000003"><a xlink:title=" ">
<path fill="none" stroke="#63b8ff" d="M426.21,-285.75C422.24,-278.49 416.47,-267.95 411.57,-258.98"/>
<polygon fill="#63b8ff" stroke="#63b8ff" points="414.57,-257.18 406.7,-250.09 408.43,-260.54 414.57,-257.18"/>
</a>
</g>
</g>
<!-- Node5 -->
<g id="Node000005" class="node">
<title>Node5</title>
<g id="a_Node000005"><a xlink:href="meta_8h.html" target="_top" xlink:title=" ">
<polygon fill="white" stroke="#666666" points="466.5,-140 377.5,-140 377.5,-121 466.5,-121 466.5,-140"/>
<text text-anchor="middle" x="422" y="-128" font-family="Times,serif" font-size="10.00">ttg/util/meta.h</text>
</a>
</g>
</g>
<!-- Node1&#45;&gt;Node5 -->
<g id="edge4_Node000001_Node000005" class="edge">
<title>Node1&#45;&gt;Node5</title>
<g id="a_edge4_Node000001_Node000005"><a xlink:title=" ">
<path fill="none" stroke="#63b8ff" d="M433.83,-285.75C436.55,-276.86 440.46,-262.64 442,-250 445.98,-217.35 448.89,-208.16 442,-176 440.03,-166.8 436,-157.2 432.07,-149.29"/>
<polygon fill="#63b8ff" stroke="#63b8ff" points="435.09,-147.51 427.32,-140.32 428.91,-150.79 435.09,-147.51"/>
</a>
</g>
</g>
<!-- Node15 -->
<g id="Node000015" class="node">
<title>Node15</title>
<g id="a_Node000015"><a xlink:href="serialization_8h.html" target="_top" xlink:title=" ">
<polygon fill="white" stroke="#666666" points="665.5,-250 560.5,-250 560.5,-231 665.5,-231 665.5,-250"/>
<text text-anchor="middle" x="613" y="-238" font-family="Times,serif" font-size="10.00">ttg/serialization.h</text>
</a>
</g>
</g>
<!-- Node1&#45;&gt;Node15 -->
<g id="edge15_Node000001_Node000015" class="edge">
<title>Node1&#45;&gt;Node15</title>
<g id="a_edge15_Node000001_Node000015"><a xlink:title=" ">
<path fill="none" stroke="#63b8ff" d="M460.24,-285.98C491.06,-277.01 539.78,-262.82 573.89,-252.89"/>
<polygon fill="#63b8ff" stroke="#63b8ff" points="574.91,-256.24 583.53,-250.08 572.95,-249.52 574.91,-256.24"/>
</a>
</g>
</g>
<!-- Node4 -->
<g id="Node000004" class="node">
<title>Node4</title>
<g id="a_Node000004"><a xlink:href="impl__selector_8h.html" target="_top" xlink:title=" ">
<polygon fill="white" stroke="#666666" points="433,-195 323,-195 323,-176 433,-176 433,-195"/>
<text text-anchor="middle" x="378" y="-183" font-family="Times,serif" font-size="10.00">ttg/impl_selector.h</text>
</a>
</g>
</g>
<!-- Node3&#45;&gt;Node4 -->
<g id="edge3_Node000003_Node000004" class="edge">
<title>Node3&#45;&gt;Node4</title>
<g id="a_edge3_Node000003_Node000004"><a xlink:title=" ">
<path fill="none" stroke="#63b8ff" d="M398.04,-230.75C394.79,-223.57 390.08,-213.18 386.05,-204.27"/>
<polygon fill="#63b8ff" stroke="#63b8ff" points="389.2,-202.75 381.89,-195.09 382.83,-205.64 389.2,-202.75"/>
</a>
</g>
</g>
<!-- Node6 -->
<g id="Node000006" class="node">
<title>Node6</title>
<g id="a_Node000006"><a xlink:title=" ">
<polygon fill="#e0e0e0" stroke="#999999" points="425,-79.5 357,-79.5 357,-60.5 425,-60.5 425,-79.5"/>
<text text-anchor="middle" x="391" y="-67.5" font-family="Times,serif" font-size="10.00">functional</text>
</a>
</g>
</g>
<!-- Node5&#45;&gt;Node6 -->
<g id="edge5_Node000005_Node000006" class="edge">
<title>Node5&#45;&gt;Node6</title>
<g id="a_edge5_Node000005_Node000006"><a xlink:title=" ">
<path fill="none" stroke="#63b8ff" d="M417.43,-120.87C412.94,-112.4 405.97,-99.24 400.31,-88.57"/>
<polygon fill="#63b8ff" stroke="#63b8ff" points="403.37,-86.86 395.59,-79.67 397.18,-90.14 403.37,-86.86"/>
</a>
</g>
</g>
<!-- Node7 -->
<g id="Node000007" class="node">
<title>Node7</title>
<g id="a_Node000007"><a xlink:title=" ">
<polygon fill="#e0e0e0" stroke="#999999" points="590.5,-19 519.5,-19 519.5,0 590.5,0 590.5,-19"/>
<text text-anchor="middle" x="555" y="-7" font-family="Times,serif" font-size="10.00">type_traits</text>
</a>
</g>
</g>
<!-- Node5&#45;&gt;Node7 -->
<g id="edge6_Node000005_Node000007" class="edge">
<title>Node5&#45;&gt;Node7</title>
<g id="a_edge6_Node000005_Node000007"><a xlink:title=" ">
<path fill="none" stroke="#63b8ff" d="M426.25,-120.7C433.87,-105.66 451.12,-74.74 473,-55 487.88,-41.58 507.53,-30.74 523.86,-23.12"/>
<polygon fill="#63b8ff" stroke="#63b8ff" points="525.34,-26.29 533.04,-19.01 522.48,-19.9 525.34,-26.29"/>
</a>
</g>
</g>
<!-- Node8 -->
<g id="Node000008" class="node">
<title>Node8</title>
<g id="a_Node000008"><a xlink:href="span_8h.html" target="_top" xlink:title=" ">
<polygon fill="white" stroke="#666666" points="219,-79.5 131,-79.5 131,-60.5 219,-60.5 219,-79.5"/>
<text text-anchor="middle" x="175" y="-67.5" font-family="Times,serif" font-size="10.00">ttg/util/span.h</text>
</a>
</g>
</g>
<!-- Node5&#45;&gt;Node8 -->
<g id="edge7_Node000005_Node000008" class="edge">
<title>Node5&#45;&gt;Node8</title>
<g id="a_edge7_Node000005_Node000008"><a xlink:title=" ">
<path fill="none" stroke="#63b8ff" d="M383.48,-120.94C344.47,-112.2 282.44,-98.09 229,-85 225.14,-84.06 221.13,-83.05 217.12,-82.04"/>
<polygon fill="#63b8ff" stroke="#63b8ff" points="217.79,-78.6 207.23,-79.51 216.05,-85.38 217.79,-78.6"/>
</a>
</g>
</g>
<!-- Node13 -->
<g id="Node000013" class="node">
<title>Node13</title>
<g id="a_Node000013"><a xlink:href="typelist_8h.html" target="_top" xlink:title=" ">
<polygon fill="white" stroke="#666666" points="338.5,-79.5 237.5,-79.5 237.5,-60.5 338.5,-60.5 338.5,-79.5"/>
<text text-anchor="middle" x="288" y="-67.5" font-family="Times,serif" font-size="10.00">ttg/util/typelist.h</text>
</a>
</g>
</g>
<!-- Node5&#45;&gt;Node13 -->
<g id="edge13_Node000005_Node000013" class="edge">
<title>Node5&#45;&gt;Node13</title>
<g id="a_edge13_Node000005_Node000013"><a xlink:title=" ">
<path fill="none" stroke="#63b8ff" d="M402.52,-120.99C379.99,-111.16 342.69,-94.88 316.81,-83.58"/>
<polygon fill="#63b8ff" stroke="#63b8ff" points="318.07,-80.31 307.51,-79.52 315.27,-86.73 318.07,-80.31"/>
</a>
</g>
</g>
<!-- Node8&#45;&gt;Node7 -->
<g id="edge11_Node000008_Node000007" class="edge">
<title>Node8&#45;&gt;Node7</title>
<g id="a_edge11_Node000008_Node000007"><a xlink:title=" ">
<path fill="none" stroke="#63b8ff" d="M205.41,-60.45C213.07,-58.48 221.3,-56.52 229,-55 328.01,-35.48 445.62,-21.71 509.01,-15.05"/>
<polygon fill="#63b8ff" stroke="#63b8ff" points="509.49,-18.52 519.07,-14 508.77,-11.55 509.49,-18.52"/>
</a>
</g>
</g>
<!-- Node9 -->
<g id="Node000009" class="node">
<title>Node9</title>
<g id="a_Node000009"><a xlink:title=" ">
<polygon fill="#e0e0e0" stroke="#999999" points="270,-19 226,-19 226,0 270,0 270,-19"/>
<text text-anchor="middle" x="248" y="-7" font-family="Times,serif" font-size="10.00">array</text>
</a>
</g>
</g>
<!-- Node8&#45;&gt;Node9 -->
<g id="edge8_Node000008_Node000009" class="edge">
<title>Node8&#45;&gt;Node9</title>
<g id="a_edge8_Node000008_Node000009"><a xlink:title=" ">
<path fill="none" stroke="#63b8ff" d="M185.77,-60.37C197.2,-51.21 215.48,-36.56 229.28,-25.51"/>
<polygon fill="#63b8ff" stroke="#63b8ff" points="231.57,-28.15 237.18,-19.17 227.19,-22.69 231.57,-28.15"/>
</a>
</g>
</g>
<!-- Node10 -->
<g id="Node000010" class="node">
<title>Node10</title>
<g id="a_Node000010"><a xlink:title=" ">
<polygon fill="#e0e0e0" stroke="#999999" points="54,-19 0,-19 0,0 54,0 54,-19"/>
<text text-anchor="middle" x="27" y="-7" font-family="Times,serif" font-size="10.00">cstddef</text>
</a>
</g>
</g>
<!-- Node8&#45;&gt;Node10 -->
<g id="edge9_Node000008_Node000010" class="edge">
<title>Node8&#45;&gt;Node10</title>
<g id="a_edge9_Node000008_Node000010"><a xlink:title=" ">
<path fill="none" stroke="#63b8ff" d="M153.48,-60.49C128.38,-50.57 86.68,-34.09 58.07,-22.78"/>
<polygon fill="#63b8ff" stroke="#63b8ff" points="59.13,-19.44 48.55,-19.02 56.56,-25.95 59.13,-19.44"/>
</a>
</g>
</g>
<!-- Node11 -->
<g id="Node000011" class="node">
<title>Node11</title>
<g id="a_Node000011"><a xlink:title=" ">
<polygon fill="#e0e0e0" stroke="#999999" points="123.5,-19 72.5,-19 72.5,0 123.5,0 123.5,-19"/>
<text text-anchor="middle" x="98" y="-7" font-family="Times,serif" font-size="10.00">cstdint</text>
</a>
</g>
</g>
<!-- Node8&#45;&gt;Node11 -->
<g id="edge10_Node000008_Node000011" class="edge">
<title>Node8&#45;&gt;Node11</title>
<g id="a_edge10_Node000008_Node000011"><a xlink:title=" ">
<path fill="none" stroke="#63b8ff" d="M163.64,-60.37C151.58,-51.21 132.3,-36.56 117.75,-25.51"/>
<polygon fill="#63b8ff" stroke="#63b8ff" points="119.49,-22.43 109.41,-19.17 115.25,-28 119.49,-22.43"/>
</a>
</g>
</g>
<!-- Node12 -->
<g id="Node000012" class="node">
<title>Node12</title>
<g id="a_Node000012"><a xlink:title=" ">
<polygon fill="#e0e0e0" stroke="#999999" points="208,-19 142,-19 142,0 208,0 208,-19"/>
<text text-anchor="middle" x="175" y="-7" font-family="Times,serif" font-size="10.00">exception</text>
</a>
</g>
</g>
<!-- Node8&#45;&gt;Node12 -->
<g id="edge12_Node000008_Node000012" class="edge">
<title>Node8&#45;&gt;Node12</title>
<g id="a_edge12_Node000008_Node000012"><a xlink:title=" ">
<path fill="none" stroke="#63b8ff" d="M175,-60.37C175,-52.25 175,-39.81 175,-29.39"/>
<polygon fill="#63b8ff" stroke="#63b8ff" points="178.5,-29.17 175,-19.17 171.5,-29.17 178.5,-29.17"/>
</a>
</g>
</g>
<!-- Node14 -->
<g id="Node000014" class="node">
<title>Node14</title>
<g id="a_Node000014"><a xlink:title=" ">
<polygon fill="#e0e0e0" stroke="#999999" points="331.5,-19 288.5,-19 288.5,0 331.5,0 331.5,-19"/>
<text text-anchor="middle" x="310" y="-7" font-family="Times,serif" font-size="10.00">tuple</text>
</a>
</g>
</g>
<!-- Node13&#45;&gt;Node14 -->
<g id="edge14_Node000013_Node000014" class="edge">
<title>Node13&#45;&gt;Node14</title>
<g id="a_edge14_Node000013_Node000014"><a xlink:title=" ">
<path fill="none" stroke="#63b8ff" d="M291.25,-60.37C294.37,-52.07 299.18,-39.28 303.15,-28.72"/>
<polygon fill="#63b8ff" stroke="#63b8ff" points="306.5,-29.76 306.74,-19.17 299.94,-27.3 306.5,-29.76"/>
</a>
</g>
</g>
<!-- Node16 -->
<g id="Node000016" class="node">
<title>Node16</title>
<g id="a_Node000016"><a xlink:href="traits_8h.html" target="_top" xlink:title=" ">
<polygon fill="white" stroke="#666666" points="781,-195 647,-195 647,-176 781,-176 781,-195"/>
<text text-anchor="middle" x="714" y="-183" font-family="Times,serif" font-size="10.00">ttg/serialization/traits.h</text>
</a>
</g>
</g>
<!-- Node15&#45;&gt;Node16 -->
<g id="edge16_Node000015_Node000016" class="edge">
<title>Node15&#45;&gt;Node16</title>
<g id="a_edge16_Node000015_Node000016"><a xlink:title=" ">
<path fill="none" stroke="#63b8ff" d="M629.23,-230.98C645.18,-222.61 669.78,-209.7 688.38,-199.95"/>
<polygon fill="#63b8ff" stroke="#63b8ff" points="690.25,-202.92 697.48,-195.17 687,-196.72 690.25,-202.92"/>
</a>
</g>
</g>
<!-- Node18 -->
<g id="Node000018" class="node">
<title>Node18</title>
<g id="a_Node000018"><a xlink:href="backends_8h.html" target="_top" xlink:title=" ">
<polygon fill="white" stroke="#666666" points="691.5,-140 534.5,-140 534.5,-121 691.5,-121 691.5,-140"/>
<text text-anchor="middle" x="613" y="-128" font-family="Times,serif" font-size="10.00">ttg/serialization/backends.h</text>
</a>
</g>
</g>
<!-- Node15&#45;&gt;Node18 -->
<g id="edge26_Node000015_Node000018" class="edge">
<title>Node15&#45;&gt;Node18</title>
<g id="a_edge26_Node000015_Node000018"><a xlink:title=" ">
<path fill="none" stroke="#63b8ff" d="M613,-230.66C613,-213.17 613,-173.8 613,-150.27"/>
<polygon fill="#63b8ff" stroke="#63b8ff" points="616.5,-150.16 613,-140.16 609.5,-150.16 616.5,-150.16"/>
</a>
</g>
</g>
<!-- Node16&#45;&gt;Node5 -->
<g id="edge17_Node000016_Node000005" class="edge">
<title>Node16&#45;&gt;Node5</title>
<g id="a_edge17_Node000016_Node000005"><a xlink:title=" ">
<path fill="none" stroke="#63b8ff" d="M667.09,-175.98C615.18,-166.56 531.64,-151.4 476.78,-141.44"/>
<polygon fill="#63b8ff" stroke="#63b8ff" points="477.34,-137.99 466.88,-139.65 476.09,-144.88 477.34,-137.99"/>
</a>
</g>
</g>
<!-- Node16&#45;&gt;Node7 -->
<g id="edge18_Node000016_Node000007" class="edge">
<title>Node16&#45;&gt;Node7</title>
<g id="a_edge18_Node000016_Node000007"><a xlink:title=" ">
<path fill="none" stroke="#63b8ff" d="M727.94,-175.92C760.99,-154.57 838.71,-97.69 803,-55 777.74,-24.81 665.42,-15.07 600.94,-11.95"/>
<polygon fill="#63b8ff" stroke="#63b8ff" points="600.78,-8.44 590.64,-11.49 600.47,-15.44 600.78,-8.44"/>
</a>
</g>
</g>
<!-- Node17 -->
<g id="Node000017" class="node">
<title>Node17</title>
<g id="a_Node000017"><a xlink:title=" ">
<polygon fill="#e0e0e0" stroke="#999999" points="911.5,-140 850.5,-140 850.5,-121 911.5,-121 911.5,-140"/>
<text text-anchor="middle" x="881" y="-128" font-family="Times,serif" font-size="10.00">iostream</text>
</a>
</g>
</g>
<!-- Node16&#45;&gt;Node17 -->
<g id="edge19_Node000016_Node000017" class="edge">
<title>Node16&#45;&gt;Node17</title>
<g id="a_edge19_Node000016_Node000017"><a xlink:title=" ">
<path fill="none" stroke="#63b8ff" d="M740.83,-175.98C768.87,-167.09 813.05,-153.07 844.3,-143.15"/>
<polygon fill="#63b8ff" stroke="#63b8ff" points="845.49,-146.44 853.96,-140.08 843.37,-139.77 845.49,-146.44"/>
</a>
</g>
</g>
<!-- Node16&#45;&gt;Node18 -->
<g id="edge20_Node000016_Node000018" class="edge">
<title>Node16&#45;&gt;Node18</title>
<g id="a_edge20_Node000016_Node000018"><a xlink:title=" ">
<path fill="none" stroke="#63b8ff" d="M697.77,-175.98C681.82,-167.61 657.22,-154.7 638.62,-144.95"/>
<polygon fill="#63b8ff" stroke="#63b8ff" points="640,-141.72 629.52,-140.17 636.75,-147.92 640,-141.72"/>
</a>
</g>
</g>
<!-- Node19 -->
<g id="Node000019" class="node">
<title>Node19</title>
<g id="a_Node000019"><a xlink:href="boost_8h.html" target="_top" xlink:title=" ">
<polygon fill="white" stroke="#666666" points="628.5,-85 481.5,-85 481.5,-55 628.5,-55 628.5,-85"/>
<text text-anchor="start" x="489.5" y="-73" font-family="Times,serif" font-size="10.00">ttg/serialization/backends</text>
<text text-anchor="middle" x="555" y="-62" font-family="Times,serif" font-size="10.00">/boost.h</text>
</a>
</g>
</g>
<!-- Node18&#45;&gt;Node19 -->
<g id="edge21_Node000018_Node000019" class="edge">
<title>Node18&#45;&gt;Node19</title>
<g id="a_edge21_Node000018_Node000019"><a xlink:title=" ">
<path fill="none" stroke="#63b8ff" d="M604.44,-120.87C597.01,-113.37 585.93,-102.2 576.14,-92.33"/>
<polygon fill="#63b8ff" stroke="#63b8ff" points="578.52,-89.75 568.99,-85.11 573.55,-94.68 578.52,-89.75"/>
</a>
</g>
</g>
<!-- Node20 -->
<g id="Node000020" class="node">
<title>Node20</title>
<g id="a_Node000020"><a xlink:href="madness_8h.html" target="_top" xlink:title=" ">
<polygon fill="white" stroke="#666666" points="793.5,-85 646.5,-85 646.5,-55 793.5,-55 793.5,-85"/>
<text text-anchor="start" x="654.5" y="-73" font-family="Times,serif" font-size="10.00">ttg/serialization/backends</text>
<text text-anchor="middle" x="720" y="-62" font-family="Times,serif" font-size="10.00">/madness.h</text>
</a>
</g>
</g>
<!-- Node18&#45;&gt;Node20 -->
<g id="edge23_Node000018_Node000020" class="edge">
<title>Node18&#45;&gt;Node20</title>
<g id="a_edge23_Node000018_Node000020"><a xlink:title=" ">
<path fill="none" stroke="#63b8ff" d="M628.79,-120.87C643.58,-112.78 666.18,-100.42 685.19,-90.03"/>
<polygon fill="#63b8ff" stroke="#63b8ff" points="687.09,-92.98 694.18,-85.11 683.73,-86.84 687.09,-92.98"/>
</a>
</g>
</g>
<!-- Node19&#45;&gt;Node7 -->
<g id="edge22_Node000019_Node000007" class="edge">
<title>Node19&#45;&gt;Node7</title>
<g id="a_edge22_Node000019_Node000007"><a xlink:title=" ">
<path fill="none" stroke="#63b8ff" d="M555,-54.84C555,-47.21 555,-37.7 555,-29.45"/>
<polygon fill="#63b8ff" stroke="#63b8ff" points="558.5,-29.27 555,-19.27 551.5,-29.27 558.5,-29.27"/>
</a>
</g>
</g>
<!-- Node20&#45;&gt;Node7 -->
<g id="edge24_Node000020_Node000007" class="edge">
<title>Node20&#45;&gt;Node7</title>
<g id="a_edge24_Node000020_Node000007"><a xlink:title=" ">
<path fill="none" stroke="#63b8ff" d="M680.48,-54.99C652.58,-45.1 615.59,-31.98 589,-22.56"/>
<polygon fill="#63b8ff" stroke="#63b8ff" points="589.96,-19.18 579.37,-19.14 587.62,-25.78 589.96,-19.18"/>
</a>
</g>
</g>
<!-- Node20&#45;&gt;Node16 -->
<g id="edge25_Node000020_Node000016" class="edge">
<title>Node20&#45;&gt;Node16</title>
<g id="a_edge25_Node000020_Node000016"><a xlink:title=" ">
<path fill="none" stroke="#63b8ff" d="M719.25,-85.18C718.17,-105.61 716.18,-143.34 714.98,-165.96"/>
<polygon fill="#63b8ff" stroke="#63b8ff" points="711.48,-165.8 714.45,-175.97 718.47,-166.17 711.48,-165.8"/>
</a>
</g>
</g>
</g>
</svg>
