<?xml version="1.0" encoding="UTF-8" standalone="no"?>
<!DOCTYPE svg PUBLIC "-//W3C//DTD SVG 1.1//EN"
 "http://www.w3.org/Graphics/SVG/1.1/DTD/svg11.dtd">
<!-- Generated by graphviz version 2.43.0 (0)
 -->
<!-- Title: ttg/ttg/util/bug.cpp Pages: 1 -->
<!--zoomable 137 -->

<svg id="main" version="1.1" xmlns="http://www.w3.org/2000/svg" xmlns:xlink="http://www.w3.org/1999/xlink" xml:space="preserve" onload="init(evt)">
<style type="text/css"><![CDATA[
.node, .edge {opacity: 0.7;}
.node.selected, .edge.selected {opacity: 1;}
.edge:hover path { stroke: red; }
.edge:hover polygon { stroke: red; fill: red; }
]]></style>

<defs>
  <circle id="rim" cx="0" cy="0" r="7"/>
  <circle id="rim2" cx="0" cy="0" r="3.5"/>
  <g id="zoomPlus">
    <use xlink:href="#rim" fill="#404040"><set attributeName="fill" to="#808080" begin="zoomplus.mouseover" end="zoomplus.mouseout"/></use>
    <path d="M-4,0h8M0,-4v8" fill="none" stroke="white" stroke-width="1.5" pointer-events="none"/>
  </g>
  <g id="zoomMin">
    <use xlink:href="#rim" fill="#404040"><set attributeName="fill" to="#808080" begin="zoomminus.mouseover" end="zoomminus.mouseout"/></use>
    <path d="M-4,0h8" fill="none" stroke="white" stroke-width="1.5" pointer-events="none"/>
  </g>
  <g id="arrowUp" transform="translate(30 24)">
    <use xlink:href="#rim"/>
    <path pointer-events="none" fill="none" stroke="white" stroke-width="1.5" d="M0,-3.0v7 M-2.5,-0.5L0,-3.0L2.5,-0.5"/>
  </g>
  <g id="arrowRight" transform="rotate(90) translate(36 -43)">
    <use xlink:href="#rim"/>
    <path pointer-events="none" fill="none" stroke="white" stroke-width="1.5" d="M0,-3.0v7 M-2.5,-0.5L0,-3.0L2.5,-0.5"/>
  </g>
  <g id="arrowDown" transform="rotate(180) translate(-30 -48)">
    <use xlink:href="#rim"/>
    <path pointer-events="none" fill="none" stroke="white" stroke-width="1.5" d="M0,-3.0v7 M-2.5,-0.5L0,-3.0L2.5,-0.5"/>
  </g>
  <g id="arrowLeft" transform="rotate(270) translate(-36 17)">
    <use xlink:href="#rim"/>
    <path pointer-events="none" fill="none" stroke="white" stroke-width="1.5" d="M0,-3.0v7 M-2.5,-0.5L0,-3.0L2.5,-0.5"/>
  </g>
  <g id="resetDef">
    <use xlink:href="#rim2" fill="#404040"><set attributeName="fill" to="#808080" begin="reset.mouseover" end="reset.mouseout"/></use>
  </g>
</defs>
<script type="application/ecmascript">
var viewWidth = 1147;
var viewHeight = 137;
var sectionId = 'dynsection-0';
</script>
<script type="application/ecmascript" xlink:href="svg.min.js"/>
<svg id="graph" class="graph">
<g id="viewport">
<title>ttg/ttg/util/bug.cpp</title>
<!-- Node1 -->
<g id="Node000001" class="node">
<title>Node1</title>
<g id="a_Node000001"><a xlink:title=" ">
<polygon fill="#999999" stroke="#666666" points="806,-129 693,-129 693,-110 806,-110 806,-129"/>
<text text-anchor="middle" x="749.5" y="-117" font-family="Times,serif" font-size="10.00">ttg/ttg/util/bug.cpp</text>
</a>
</g>
</g>
<!-- Node2 -->
<g id="Node000002" class="node">
<title>Node2</title>
<g id="a_Node000002"><a xlink:href="bug_8h.html" target="_top" xlink:title=" ">
<polygon fill="white" stroke="#666666" points="369,-74 322,-74 322,-55 369,-55 369,-74"/>
<text text-anchor="middle" x="345.5" y="-62" font-family="Times,serif" font-size="10.00">bug.h</text>
</a>
</g>
</g>
<!-- Node1&#45;&gt;Node2 -->
<g id="edge1_Node000001_Node000002" class="edge">
<title>Node1&#45;&gt;Node2</title>
<g id="a_edge1_Node000001_Node000002"><a xlink:title=" ">
<path fill="none" stroke="#63b8ff" d="M692.9,-111.07C607.59,-99.88 448.68,-79.04 379.33,-69.94"/>
<polygon fill="#63b8ff" stroke="#63b8ff" points="379.75,-66.46 369.38,-68.63 378.84,-73.4 379.75,-66.46"/>
</a>
</g>
</g>
<!-- Node10 -->
<g id="Node000010" class="node">
<title>Node10</title>
<g id="a_Node000010"><a xlink:title=" ">
<polygon fill="#e0e0e0" stroke="#999999" points="574,-74 515,-74 515,-55 574,-55 574,-74"/>
<text text-anchor="middle" x="544.5" y="-62" font-family="Times,serif" font-size="10.00">unistd.h</text>
</a>
</g>
</g>
<!-- Node1&#45;&gt;Node10 -->
<g id="edge9_Node000001_Node000010" class="edge">
<title>Node1&#45;&gt;Node10</title>
<g id="a_edge9_Node000001_Node000010"><a xlink:title=" ">
<path fill="none" stroke="#63b8ff" d="M716.56,-109.98C680.41,-100.64 622.39,-85.64 583.86,-75.68"/>
<polygon fill="#63b8ff" stroke="#63b8ff" points="584.59,-72.25 574.03,-73.13 582.83,-79.03 584.59,-72.25"/>
</a>
</g>
</g>
<!-- Node11 -->
<g id="Node000011" class="node">
<title>Node11</title>
<g id="a_Node000011"><a xlink:title=" ">
<polygon fill="#e0e0e0" stroke="#999999" points="636.5,-74 592.5,-74 592.5,-55 636.5,-55 636.5,-74"/>
<text text-anchor="middle" x="614.5" y="-62" font-family="Times,serif" font-size="10.00">cfenv</text>
</a>
</g>
</g>
<!-- Node1&#45;&gt;Node11 -->
<g id="edge10_Node000001_Node000011" class="edge">
<title>Node1&#45;&gt;Node11</title>
<g id="a_edge10_Node000001_Node000011"><a xlink:title=" ">
<path fill="none" stroke="#63b8ff" d="M727.81,-109.98C705.7,-101.3 671.18,-87.75 646.05,-77.88"/>
<polygon fill="#63b8ff" stroke="#63b8ff" points="647.17,-74.57 636.58,-74.17 644.61,-81.08 647.17,-74.57"/>
</a>
</g>
</g>
<!-- Node12 -->
<g id="Node000012" class="node">
<title>Node12</title>
<g id="a_Node000012"><a xlink:title=" ">
<polygon fill="#e0e0e0" stroke="#999999" points="708,-74 655,-74 655,-55 708,-55 708,-74"/>
<text text-anchor="middle" x="681.5" y="-62" font-family="Times,serif" font-size="10.00">csignal</text>
</a>
</g>
</g>
<!-- Node1&#45;&gt;Node12 -->
<g id="edge11_Node000001_Node000012" class="edge">
<title>Node1&#45;&gt;Node12</title>
<g id="a_edge11_Node000001_Node000012"><a xlink:title=" ">
<path fill="none" stroke="#63b8ff" d="M738.57,-109.98C728.42,-102.07 713.08,-90.11 700.85,-80.58"/>
<polygon fill="#63b8ff" stroke="#63b8ff" points="702.66,-77.56 692.62,-74.17 698.36,-83.08 702.66,-77.56"/>
</a>
</g>
</g>
<!-- Node13 -->
<g id="Node000013" class="node">
<title>Node13</title>
<g id="a_Node000013"><a xlink:title=" ">
<polygon fill="#e0e0e0" stroke="#999999" points="773,-74 726,-74 726,-55 773,-55 773,-74"/>
<text text-anchor="middle" x="749.5" y="-62" font-family="Times,serif" font-size="10.00">cstdio</text>
</a>
</g>
</g>
<!-- Node1&#45;&gt;Node13 -->
<g id="edge12_Node000001_Node000013" class="edge">
<title>Node1&#45;&gt;Node13</title>
<g id="a_edge12_Node000001_Node000013"><a xlink:title=" ">
<path fill="none" stroke="#63b8ff" d="M749.5,-109.75C749.5,-102.8 749.5,-92.85 749.5,-84.13"/>
<polygon fill="#63b8ff" stroke="#63b8ff" points="753,-84.09 749.5,-74.09 746,-84.09 753,-84.09"/>
</a>
</g>
</g>
<!-- Node14 -->
<g id="Node000014" class="node">
<title>Node14</title>
<g id="a_Node000014"><a xlink:title=" ">
<polygon fill="#e0e0e0" stroke="#999999" points="841.5,-74 791.5,-74 791.5,-55 841.5,-55 841.5,-74"/>
<text text-anchor="middle" x="816.5" y="-62" font-family="Times,serif" font-size="10.00">cstdlib</text>
</a>
</g>
</g>
<!-- Node1&#45;&gt;Node14 -->
<g id="edge13_Node000001_Node000014" class="edge">
<title>Node1&#45;&gt;Node14</title>
<g id="a_edge13_Node000001_Node000014"><a xlink:title=" ">
<path fill="none" stroke="#63b8ff" d="M760.26,-109.98C770.27,-102.07 785.39,-90.11 797.43,-80.58"/>
<polygon fill="#63b8ff" stroke="#63b8ff" points="799.87,-83.12 805.54,-74.17 795.53,-77.63 799.87,-83.12"/>
</a>
</g>
</g>
<!-- Node15 -->
<g id="Node000015" class="node">
<title>Node15</title>
<g id="a_Node000015"><a xlink:title=" ">
<polygon fill="#e0e0e0" stroke="#999999" points="911.5,-74 859.5,-74 859.5,-55 911.5,-55 911.5,-74"/>
<text text-anchor="middle" x="885.5" y="-62" font-family="Times,serif" font-size="10.00">cstring</text>
</a>
</g>
</g>
<!-- Node1&#45;&gt;Node15 -->
<g id="edge14_Node000001_Node000015" class="edge">
<title>Node1&#45;&gt;Node15</title>
<g id="a_edge14_Node000001_Node000015"><a xlink:title=" ">
<path fill="none" stroke="#63b8ff" d="M771.35,-109.98C793.62,-101.3 828.4,-87.75 853.72,-77.88"/>
<polygon fill="#63b8ff" stroke="#63b8ff" points="855.21,-81.06 863.25,-74.17 852.66,-74.54 855.21,-81.06"/>
</a>
</g>
</g>
<!-- Node16 -->
<g id="Node000016" class="node">
<title>Node16</title>
<g id="a_Node000016"><a xlink:title=" ">
<polygon fill="#e0e0e0" stroke="#999999" points="991,-74 930,-74 930,-55 991,-55 991,-74"/>
<text text-anchor="middle" x="960.5" y="-62" font-family="Times,serif" font-size="10.00">iostream</text>
</a>
</g>
</g>
<!-- Node1&#45;&gt;Node16 -->
<g id="edge15_Node000001_Node000016" class="edge">
<title>Node1&#45;&gt;Node16</title>
<g id="a_edge15_Node000001_Node000016"><a xlink:title=" ">
<path fill="none" stroke="#63b8ff" d="M783.4,-109.98C820.59,-100.64 880.24,-85.66 919.9,-75.7"/>
<polygon fill="#63b8ff" stroke="#63b8ff" points="920.93,-79.05 929.77,-73.22 919.22,-72.26 920.93,-79.05"/>
</a>
</g>
</g>
<!-- Node17 -->
<g id="Node000017" class="node">
<title>Node17</title>
<g id="a_Node000017"><a xlink:title=" ">
<polygon fill="#e0e0e0" stroke="#999999" points="1063.5,-74 1009.5,-74 1009.5,-55 1063.5,-55 1063.5,-74"/>
<text text-anchor="middle" x="1036.5" y="-62" font-family="Times,serif" font-size="10.00">iterator</text>
</a>
</g>
</g>
<!-- Node1&#45;&gt;Node17 -->
<g id="edge16_Node000001_Node000017" class="edge">
<title>Node1&#45;&gt;Node17</title>
<g id="a_edge16_Node000001_Node000017"><a xlink:title=" ">
<path fill="none" stroke="#63b8ff" d="M802.55,-109.99C851.28,-101.97 925.72,-89.21 999.48,-74.12"/>
<polygon fill="#63b8ff" stroke="#63b8ff" points="1000.32,-77.52 1009.41,-72.07 998.91,-70.66 1000.32,-77.52"/>
</a>
</g>
</g>
<!-- Node18 -->
<g id="Node000018" class="node">
<title>Node18</title>
<g id="a_Node000018"><a xlink:title=" ">
<polygon fill="#e0e0e0" stroke="#999999" points="1139,-74 1082,-74 1082,-55 1139,-55 1139,-74"/>
<text text-anchor="middle" x="1110.5" y="-62" font-family="Times,serif" font-size="10.00">sstream</text>
</a>
</g>
</g>
<!-- Node1&#45;&gt;Node18 -->
<g id="edge17_Node000001_Node000018" class="edge">
<title>Node1&#45;&gt;Node18</title>
<g id="a_edge17_Node000001_Node000018"><a xlink:title=" ">
<path fill="none" stroke="#63b8ff" d="M806.03,-112.16C868.6,-104.81 972.63,-91.64 1072.01,-73.94"/>
<polygon fill="#63b8ff" stroke="#63b8ff" points="1072.7,-77.38 1081.92,-72.16 1071.46,-70.49 1072.7,-77.38"/>
</a>
</g>
</g>
<!-- Node19 -->
<g id="Node000019" class="node">
<title>Node19</title>
<g id="a_Node000019"><a xlink:href="backtrace_8h.html" target="_top" xlink:title=" ">
<polygon fill="white" stroke="#666666" points="496.5,-74 420.5,-74 420.5,-55 496.5,-55 496.5,-74"/>
<text text-anchor="middle" x="458.5" y="-62" font-family="Times,serif" font-size="10.00">backtrace.h</text>
</a>
</g>
</g>
<!-- Node1&#45;&gt;Node19 -->
<g id="edge18_Node000001_Node000019" class="edge">
<title>Node1&#45;&gt;Node19</title>
<g id="a_edge18_Node000001_Node000019"><a xlink:title=" ">
<path fill="none" stroke="#63b8ff" d="M702.75,-109.98C649.01,-100.2 561.26,-84.22 506.86,-74.31"/>
<polygon fill="#63b8ff" stroke="#63b8ff" points="507.24,-70.82 496.78,-72.47 505.99,-77.71 507.24,-70.82"/>
</a>
</g>
</g>
<!-- Node3 -->
<g id="Node000003" class="node">
<title>Node3</title>
<g id="a_Node000003"><a xlink:title=" ">
<polygon fill="#e0e0e0" stroke="#999999" points="416,-19 363,-19 363,0 416,0 416,-19"/>
<text text-anchor="middle" x="389.5" y="-7" font-family="Times,serif" font-size="10.00">cassert</text>
</a>
</g>
</g>
<!-- Node2&#45;&gt;Node3 -->
<g id="edge2_Node000002_Node000003" class="edge">
<title>Node2&#45;&gt;Node3</title>
<g id="a_edge2_Node000002_Node000003"><a xlink:title=" ">
<path fill="none" stroke="#63b8ff" d="M352.77,-54.75C359.04,-47.18 368.29,-36.05 375.93,-26.84"/>
<polygon fill="#63b8ff" stroke="#63b8ff" points="378.67,-29.02 382.37,-19.09 373.29,-24.55 378.67,-29.02"/>
</a>
</g>
</g>
<!-- Node4 -->
<g id="Node000004" class="node">
<title>Node4</title>
<g id="a_Node000004"><a xlink:title=" ">
<polygon fill="#e0e0e0" stroke="#999999" points="59,-19 0,-19 0,0 59,0 59,-19"/>
<text text-anchor="middle" x="29.5" y="-7" font-family="Times,serif" font-size="10.00">memory</text>
</a>
</g>
</g>
<!-- Node2&#45;&gt;Node4 -->
<g id="edge3_Node000002_Node000004" class="edge">
<title>Node2&#45;&gt;Node4</title>
<g id="a_edge3_Node000002_Node000004"><a xlink:title=" ">
<path fill="none" stroke="#63b8ff" d="M321.71,-60.13C275.24,-53.45 168.97,-37.71 69.22,-19.04"/>
<polygon fill="#63b8ff" stroke="#63b8ff" points="69.75,-15.58 59.28,-17.17 68.45,-22.46 69.75,-15.58"/>
</a>
</g>
</g>
<!-- Node5 -->
<g id="Node000005" class="node">
<title>Node5</title>
<g id="a_Node000005"><a xlink:title=" ">
<polygon fill="#e0e0e0" stroke="#999999" points="143.5,-19 77.5,-19 77.5,0 143.5,0 143.5,-19"/>
<text text-anchor="middle" x="110.5" y="-7" font-family="Times,serif" font-size="10.00">stdexcept</text>
</a>
</g>
</g>
<!-- Node2&#45;&gt;Node5 -->
<g id="edge4_Node000002_Node000005" class="edge">
<title>Node2&#45;&gt;Node5</title>
<g id="a_edge4_Node000002_Node000005"><a xlink:title=" ">
<path fill="none" stroke="#63b8ff" d="M321.67,-58.13C282.26,-49.24 202.96,-31.35 153.54,-20.21"/>
<polygon fill="#63b8ff" stroke="#63b8ff" points="154.3,-16.79 143.78,-18.01 152.76,-23.62 154.3,-16.79"/>
</a>
</g>
</g>
<!-- Node6 -->
<g id="Node000006" class="node">
<title>Node6</title>
<g id="a_Node000006"><a xlink:title=" ">
<polygon fill="#e0e0e0" stroke="#999999" points="548,-19 501,-19 501,0 548,0 548,-19"/>
<text text-anchor="middle" x="524.5" y="-7" font-family="Times,serif" font-size="10.00">string</text>
</a>
</g>
</g>
<!-- Node2&#45;&gt;Node6 -->
<g id="edge5_Node000002_Node000006" class="edge">
<title>Node2&#45;&gt;Node6</title>
<g id="a_edge5_Node000002_Node000006"><a xlink:title=" ">
<path fill="none" stroke="#63b8ff" d="M369.27,-56.46C400.52,-47.21 455.59,-30.9 491.03,-20.41"/>
<polygon fill="#63b8ff" stroke="#63b8ff" points="492.32,-23.68 500.92,-17.48 490.33,-16.97 492.32,-23.68"/>
</a>
</g>
</g>
<!-- Node7 -->
<g id="Node000007" class="node">
<title>Node7</title>
<g id="a_Node000007"><a xlink:title=" ">
<polygon fill="#e0e0e0" stroke="#999999" points="259.5,-19 161.5,-19 161.5,0 259.5,0 259.5,-19"/>
<text text-anchor="middle" x="210.5" y="-7" font-family="Times,serif" font-size="10.00">unordered_map</text>
</a>
</g>
</g>
<!-- Node2&#45;&gt;Node7 -->
<g id="edge6_Node000002_Node000007" class="edge">
<title>Node2&#45;&gt;Node7</title>
<g id="a_edge6_Node000002_Node000007"><a xlink:title=" ">
<path fill="none" stroke="#63b8ff" d="M323.81,-54.98C301.7,-46.3 267.18,-32.75 242.05,-22.88"/>
<polygon fill="#63b8ff" stroke="#63b8ff" points="243.17,-19.57 232.58,-19.17 240.61,-26.08 243.17,-19.57"/>
</a>
</g>
</g>
<!-- Node8 -->
<g id="Node000008" class="node">
<title>Node8</title>
<g id="a_Node000008"><a xlink:title=" ">
<polygon fill="#e0e0e0" stroke="#999999" points="482.5,-19 434.5,-19 434.5,0 482.5,0 482.5,-19"/>
<text text-anchor="middle" x="458.5" y="-7" font-family="Times,serif" font-size="10.00">vector</text>
</a>
</g>
</g>
<!-- Node2&#45;&gt;Node8 -->
<g id="edge7_Node000002_Node000008" class="edge">
<title>Node2&#45;&gt;Node8</title>
<g id="a_edge7_Node000002_Node000008"><a xlink:title=" ">
<path fill="none" stroke="#63b8ff" d="M363.66,-54.98C381.75,-46.5 409.78,-33.35 430.69,-23.54"/>
<polygon fill="#63b8ff" stroke="#63b8ff" points="432.45,-26.59 440.01,-19.17 429.47,-20.25 432.45,-26.59"/>
</a>
</g>
</g>
<!-- Node9 -->
<g id="Node000009" class="node">
<title>Node9</title>
<g id="a_Node000009"><a xlink:title=" ">
<polygon fill="#e0e0e0" stroke="#999999" points="345,-19 278,-19 278,0 345,0 345,-19"/>
<text text-anchor="middle" x="311.5" y="-7" font-family="Times,serif" font-size="10.00">pthread.h</text>
</a>
</g>
</g>
<!-- Node2&#45;&gt;Node9 -->
<g id="edge8_Node000002_Node000009" class="edge">
<title>Node2&#45;&gt;Node9</title>
<g id="a_edge8_Node000002_Node000009"><a xlink:title=" ">
<path fill="none" stroke="#63b8ff" d="M339.89,-54.75C335.18,-47.42 328.33,-36.73 322.53,-27.7"/>
<polygon fill="#63b8ff" stroke="#63b8ff" points="325.36,-25.62 317.01,-19.09 319.46,-29.4 325.36,-25.62"/>
</a>
</g>
</g>
<!-- Node19&#45;&gt;Node6 -->
<g id="edge19_Node000019_Node000006" class="edge">
<title>Node19&#45;&gt;Node6</title>
<g id="a_edge19_Node000019_Node000006"><a xlink:title=" ">
<path fill="none" stroke="#63b8ff" d="M469.1,-54.98C478.96,-47.07 493.85,-35.11 505.72,-25.58"/>
<polygon fill="#63b8ff" stroke="#63b8ff" points="508.1,-28.16 513.7,-19.17 503.71,-22.7 508.1,-28.16"/>
</a>
</g>
</g>
<!-- Node19&#45;&gt;Node8 -->
<g id="edge20_Node000019_Node000008" class="edge">
<title>Node19&#45;&gt;Node8</title>
<g id="a_edge20_Node000019_Node000008"><a xlink:title=" ">
<path fill="none" stroke="#63b8ff" d="M458.5,-54.75C458.5,-47.8 458.5,-37.85 458.5,-29.13"/>
<polygon fill="#63b8ff" stroke="#63b8ff" points="462,-29.09 458.5,-19.09 455,-29.09 462,-29.09"/>
</a>
</g>
</g>
</g>
</svg>

<g id="navigator" transform="translate(0 0)" fill="#404254">
  <rect fill="#f2f5e9" fill-opacity="0.5" stroke="#606060" stroke-width=".5" x="0" y="0" width="60" height="60"/>
  <use id="zoomplus" xlink:href="#zoomPlus" x="17" y="9" onmousedown="handleZoom(evt,'in')"/>
  <use id="zoomminus" xlink:href="#zoomMin" x="42" y="9" onmousedown="handleZoom(evt,'out')"/>
  <use id="reset" xlink:href="#resetDef" x="30" y="36" onmousedown="handleReset()"/>
   <use id="arrowup" xlink:href="#arrowUp" x="0" y="0" onmousedown="handlePan(0,-1)"/>
  <use id="arrowright" xlink:href="#arrowRight" x="0" y="0" onmousedown="handlePan(1,0)"/>
  <use id="arrowdown" xlink:href="#arrowDown" x="0" y="0" onmousedown="handlePan(0,1)"/>
  <use id="arrowleft" xlink:href="#arrowLeft" x="0" y="0" onmousedown="handlePan(-1,0)"/>
</g>
<svg viewBox="0 0 15 15" width="100%" height="30px" preserveAspectRatio="xMaxYMin meet">
 <g id="arrow_out" transform="scale(0.3 0.3)">
  <a xlink:href="bug_8cpp__incl_org.svg" target="_base">
   <rect id="button" ry="5" rx="5" y="6" x="6" height="38" width="38"
        fill="#f2f5e9" fill-opacity="0.5" stroke="#606060" stroke-width="1.0"/>
   <path id="arrow"
     d="M 11.500037,31.436501 C 11.940474,20.09759 22.043105,11.32322 32.158766,21.979434 L 37.068811,17.246167 C 37.068811,17.246167 37.088388,32 37.088388,32 L 22.160133,31.978069 C 22.160133,31.978069 26.997745,27.140456 26.997745,27.140456 C 18.528582,18.264221 13.291696,25.230495 11.500037,31.436501 z"
     style="fill:#404040;"/>
  </a>
 </g>
</svg>

<style type='text/css'>
<![CDATA[
[data-mouse-over-selected='false'] { opacity: 0.7; }
[data-mouse-over-selected='true']  { opacity: 1.0; }
]]>
</style>
<script type="application/ecmascript"><![CDATA[
document.addEventListener('DOMContentLoaded', (event) => {
  highlightEdges();
  highlightAdjacentNodes();
});
]]></script>
</svg>
