<?xml version="1.0" encoding="UTF-8" standalone="no"?>
<!DOCTYPE svg PUBLIC "-//W3C//DTD SVG 1.1//EN"
 "http://www.w3.org/Graphics/SVG/1.1/DTD/svg11.dtd">
<!-- Generated by graphviz version 2.43.0 (0)
 -->
<!-- Title: ttg/ttg/util/bug.h Pages: 1 -->
<svg width="556pt" height="82pt"
 viewBox="0.00 0.00 556.00 82.00" xmlns="http://www.w3.org/2000/svg" xmlns:xlink="http://www.w3.org/1999/xlink">
<g id="graph0" class="graph" transform="scale(1 1) rotate(0) translate(4 78)">
<title>ttg/ttg/util/bug.h</title>
<!-- Node1 -->
<g id="Node000001" class="node">
<title>Node1</title>
<g id="a_Node000001"><a xlink:title=" ">
<polygon fill="#999999" stroke="#666666" points="307,-74 206,-74 206,-55 307,-55 307,-74"/>
<text text-anchor="middle" x="256.5" y="-62" font-family="Times,serif" font-size="10.00">ttg/ttg/util/bug.h</text>
</a>
</g>
</g>
<!-- Node2 -->
<g id="Node000002" class="node">
<title>Node2</title>
<g id="a_Node000002"><a xlink:title=" ">
<polygon fill="#e0e0e0" stroke="#999999" points="53,-19 0,-19 0,0 53,0 53,-19"/>
<text text-anchor="middle" x="26.5" y="-7" font-family="Times,serif" font-size="10.00">cassert</text>
</a>
</g>
</g>
<!-- Node1&#45;&gt;Node2 -->
<g id="edge1_Node000001_Node000002" class="edge">
<title>Node1&#45;&gt;Node2</title>
<g id="a_edge1_Node000001_Node000002"><a xlink:title=" ">
<path fill="none" stroke="#63b8ff" d="M218.35,-54.96C181.09,-46.58 122.51,-33.31 63.16,-19.37"/>
<polygon fill="#63b8ff" stroke="#63b8ff" points="63.78,-15.92 53.24,-17.04 62.18,-22.73 63.78,-15.92"/>
</a>
</g>
</g>
<!-- Node3 -->
<g id="Node000003" class="node">
<title>Node3</title>
<g id="a_Node000003"><a xlink:title=" ">
<polygon fill="#e0e0e0" stroke="#999999" points="130,-19 71,-19 71,0 130,0 130,-19"/>
<text text-anchor="middle" x="100.5" y="-7" font-family="Times,serif" font-size="10.00">memory</text>
</a>
</g>
</g>
<!-- Node1&#45;&gt;Node3 -->
<g id="edge2_Node000001_Node000003" class="edge">
<title>Node1&#45;&gt;Node3</title>
<g id="a_edge2_Node000001_Node000003"><a xlink:title=" ">
<path fill="none" stroke="#63b8ff" d="M231.44,-54.98C205.47,-46.16 164.69,-32.31 135.54,-22.41"/>
<polygon fill="#63b8ff" stroke="#63b8ff" points="136.35,-18.99 125.76,-19.08 134.1,-25.61 136.35,-18.99"/>
</a>
</g>
</g>
<!-- Node4 -->
<g id="Node000004" class="node">
<title>Node4</title>
<g id="a_Node000004"><a xlink:title=" ">
<polygon fill="#e0e0e0" stroke="#999999" points="214.5,-19 148.5,-19 148.5,0 214.5,0 214.5,-19"/>
<text text-anchor="middle" x="181.5" y="-7" font-family="Times,serif" font-size="10.00">stdexcept</text>
</a>
</g>
</g>
<!-- Node1&#45;&gt;Node4 -->
<g id="edge3_Node000001_Node000004" class="edge">
<title>Node1&#45;&gt;Node4</title>
<g id="a_edge3_Node000001_Node000004"><a xlink:title=" ">
<path fill="none" stroke="#63b8ff" d="M244.45,-54.98C233.04,-46.92 215.67,-34.65 202.07,-25.03"/>
<polygon fill="#63b8ff" stroke="#63b8ff" points="203.96,-22.08 193.77,-19.17 199.92,-27.8 203.96,-22.08"/>
</a>
</g>
</g>
<!-- Node5 -->
<g id="Node000005" class="node">
<title>Node5</title>
<g id="a_Node000005"><a xlink:title=" ">
<polygon fill="#e0e0e0" stroke="#999999" points="280,-19 233,-19 233,0 280,0 280,-19"/>
<text text-anchor="middle" x="256.5" y="-7" font-family="Times,serif" font-size="10.00">string</text>
</a>
</g>
</g>
<!-- Node1&#45;&gt;Node5 -->
<g id="edge4_Node000001_Node000005" class="edge">
<title>Node1&#45;&gt;Node5</title>
<g id="a_edge4_Node000001_Node000005"><a xlink:title=" ">
<path fill="none" stroke="#63b8ff" d="M256.5,-54.75C256.5,-47.8 256.5,-37.85 256.5,-29.13"/>
<polygon fill="#63b8ff" stroke="#63b8ff" points="260,-29.09 256.5,-19.09 253,-29.09 260,-29.09"/>
</a>
</g>
</g>
<!-- Node6 -->
<g id="Node000006" class="node">
<title>Node6</title>
<g id="a_Node000006"><a xlink:title=" ">
<polygon fill="#e0e0e0" stroke="#999999" points="396.5,-19 298.5,-19 298.5,0 396.5,0 396.5,-19"/>
<text text-anchor="middle" x="347.5" y="-7" font-family="Times,serif" font-size="10.00">unordered_map</text>
</a>
</g>
</g>
<!-- Node1&#45;&gt;Node6 -->
<g id="edge5_Node000001_Node000006" class="edge">
<title>Node1&#45;&gt;Node6</title>
<g id="a_edge5_Node000001_Node000006"><a xlink:title=" ">
<path fill="none" stroke="#63b8ff" d="M271.12,-54.98C285.36,-46.69 307.25,-33.94 323.95,-24.22"/>
<polygon fill="#63b8ff" stroke="#63b8ff" points="325.73,-27.23 332.61,-19.17 322.21,-21.18 325.73,-27.23"/>
</a>
</g>
</g>
<!-- Node7 -->
<g id="Node000007" class="node">
<title>Node7</title>
<g id="a_Node000007"><a xlink:title=" ">
<polygon fill="#e0e0e0" stroke="#999999" points="462.5,-19 414.5,-19 414.5,0 462.5,0 462.5,-19"/>
<text text-anchor="middle" x="438.5" y="-7" font-family="Times,serif" font-size="10.00">vector</text>
</a>
</g>
</g>
<!-- Node1&#45;&gt;Node7 -->
<g id="edge6_Node000001_Node000007" class="edge">
<title>Node1&#45;&gt;Node7</title>
<g id="a_edge6_Node000001_Node000007"><a xlink:title=" ">
<path fill="none" stroke="#63b8ff" d="M285.74,-54.98C318.07,-45.57 370.08,-30.42 404.28,-20.46"/>
<polygon fill="#63b8ff" stroke="#63b8ff" points="405.66,-23.71 414.28,-17.55 403.7,-16.99 405.66,-23.71"/>
</a>
</g>
</g>
<!-- Node8 -->
<g id="Node000008" class="node">
<title>Node8</title>
<g id="a_Node000008"><a xlink:title=" ">
<polygon fill="#e0e0e0" stroke="#999999" points="548,-19 481,-19 481,0 548,0 548,-19"/>
<text text-anchor="middle" x="514.5" y="-7" font-family="Times,serif" font-size="10.00">pthread.h</text>
</a>
</g>
</g>
<!-- Node1&#45;&gt;Node8 -->
<g id="edge7_Node000001_Node000008" class="edge">
<title>Node1&#45;&gt;Node8</title>
<g id="a_edge7_Node000001_Node000008"><a xlink:title=" ">
<path fill="none" stroke="#63b8ff" d="M297.95,-54.98C345.43,-45.23 422.86,-29.33 471.12,-19.41"/>
<polygon fill="#63b8ff" stroke="#63b8ff" points="471.87,-22.83 480.96,-17.39 470.46,-15.97 471.87,-22.83"/>
</a>
</g>
</g>
</g>
</svg>
