<?xml version="1.0" encoding="UTF-8" standalone="no"?>
<!DOCTYPE svg PUBLIC "-//W3C//DTD SVG 1.1//EN"
 "http://www.w3.org/Graphics/SVG/1.1/DTD/svg11.dtd">
<!-- Generated by graphviz version 2.43.0 (0)
 -->
<!-- Title: ttg_madness::TT::invoke Pages: 1 -->
<svg width="324pt" height="64pt"
 viewBox="0.00 0.00 324.00 64.00" xmlns="http://www.w3.org/2000/svg" xmlns:xlink="http://www.w3.org/1999/xlink">
<g id="graph0" class="graph" transform="scale(1 1) rotate(0) translate(4 60)">
<title>ttg_madness::TT::invoke</title>
<!-- Node1 -->
<g id="Node000001" class="node">
<title>Node1</title>
<g id="a_Node000001"><a xlink:title="Manual injection of a task that has no key or arguments.">
<polygon fill="#999999" stroke="#666666" points="316,-37 176,-37 176,-18 316,-18 316,-37"/>
<text text-anchor="middle" x="246" y="-25" font-family="Times,serif" font-size="10.00">ttg_madness::TT::invoke</text>
</a>
</g>
</g>
<!-- Node2 -->
<g id="Node000002" class="node">
<title>Node2</title>
<g id="a_Node000002"><a xlink:href="classttg__madness_1_1_t_t.html#ab8d0229e3251029b0efa3019fea5bade" target="_top" xlink:title="Manual injection of a task that has no arguments.">
<polygon fill="white" stroke="#666666" points="140,-56 0,-56 0,-37 140,-37 140,-56"/>
<text text-anchor="middle" x="70" y="-44" font-family="Times,serif" font-size="10.00">ttg_madness::TT::invoke</text>
</a>
</g>
</g>
<!-- Node1&#45;&gt;Node2 -->
<g id="edge1_Node000001_Node000002" class="edge">
<title>Node1&#45;&gt;Node2</title>
<g id="a_edge1_Node000001_Node000002"><a xlink:title=" ">
<path fill="none" stroke="#63b8ff" d="M165.97,-36.13C157.38,-37.07 148.68,-38.02 140.22,-38.94"/>
<polygon fill="#63b8ff" stroke="#63b8ff" points="166.42,-39.6 175.98,-35.04 165.66,-32.64 166.42,-39.6"/>
</a>
</g>
</g>
<!-- Node3 -->
<g id="Node000003" class="node">
<title>Node3</title>
<g id="a_Node000003"><a xlink:href="classttg__madness_1_1_t_t.html#a6ff79e4a17fce6ba8f7ed14732c3d6ef" target="_top" xlink:title="Manual injection of a task with all input arguments specified as a tuple.">
<polygon fill="white" stroke="#666666" points="140,-19 0,-19 0,0 140,0 140,-19"/>
<text text-anchor="middle" x="70" y="-7" font-family="Times,serif" font-size="10.00">ttg_madness::TT::invoke</text>
</a>
</g>
</g>
<!-- Node1&#45;&gt;Node3 -->
<g id="edge2_Node000001_Node000003" class="edge">
<title>Node1&#45;&gt;Node3</title>
<g id="a_edge2_Node000001_Node000003"><a xlink:title=" ">
<path fill="none" stroke="#63b8ff" d="M165.97,-19.32C157.38,-18.44 148.68,-17.54 140.22,-16.66"/>
<polygon fill="#63b8ff" stroke="#63b8ff" points="165.67,-22.81 175.98,-20.36 166.39,-15.85 165.67,-22.81"/>
</a>
</g>
</g>
</g>
</svg>
