<?xml version="1.0" encoding="UTF-8" standalone="no"?>
<!DOCTYPE svg PUBLIC "-//W3C//DTD SVG 1.1//EN"
 "http://www.w3.org/Graphics/SVG/1.1/DTD/svg11.dtd">
<!-- Generated by graphviz version 2.43.0 (0)
 -->
<!-- Title: ttg::Out::prepare_send Pages: 1 -->
<svg width="450pt" height="51pt"
 viewBox="0.00 0.00 450.00 50.50" xmlns="http://www.w3.org/2000/svg" xmlns:xlink="http://www.w3.org/1999/xlink">
<g id="graph0" class="graph" transform="scale(1 1) rotate(0) translate(4 46.5)">
<title>ttg::Out::prepare_send</title>
<!-- Node1 -->
<g id="Node000001" class="node">
<title>Node1</title>
<g id="a_Node000001"><a xlink:title=" ">
<polygon fill="#999999" stroke="#666666" points="132,-24.5 0,-24.5 0,-5.5 132,-5.5 132,-24.5"/>
<text text-anchor="middle" x="66" y="-12.5" font-family="Times,serif" font-size="10.00">ttg::Out::prepare_send</text>
</a>
</g>
</g>
<!-- Node1&#45;&gt;Node1 -->
<g id="edge1_Node000001_Node000001" class="edge">
<title>Node1&#45;&gt;Node1</title>
<g id="a_edge1_Node000001_Node000001"><a xlink:title=" ">
<path fill="none" stroke="#63b8ff" d="M40.72,-24.58C28.43,-33.23 36.85,-42.5 66,-42.5 85.13,-42.5 95.33,-38.51 96.61,-33.32"/>
<polygon fill="#63b8ff" stroke="#63b8ff" points="99.48,-31.29 91.28,-24.58 93.5,-34.94 99.48,-31.29"/>
</a>
</g>
</g>
<!-- Node2 -->
<g id="Node000002" class="node">
<title>Node2</title>
<g id="a_Node000002"><a xlink:href="classttg_1_1_out_terminal_base.html#aa0341fd67b25363d5c45d77646294cf9" target="_top" xlink:title=" ">
<polygon fill="white" stroke="#666666" points="293,-30 168,-30 168,0 293,0 293,-30"/>
<text text-anchor="start" x="176" y="-18" font-family="Times,serif" font-size="10.00">ttg::OutTerminalBase</text>
<text text-anchor="middle" x="230.5" y="-7" font-family="Times,serif" font-size="10.00">::successors</text>
</a>
</g>
</g>
<!-- Node1&#45;&gt;Node2 -->
<g id="edge2_Node000001_Node000002" class="edge">
<title>Node1&#45;&gt;Node2</title>
<g id="a_edge2_Node000001_Node000002"><a xlink:title=" ">
<path fill="none" stroke="#63b8ff" d="M132.16,-15C140.51,-15 149.09,-15 157.54,-15"/>
<polygon fill="#63b8ff" stroke="#63b8ff" points="157.76,-18.5 167.76,-15 157.76,-11.5 157.76,-18.5"/>
</a>
</g>
</g>
<!-- Node3 -->
<g id="Node000003" class="node">
<title>Node3</title>
<g id="a_Node000003"><a xlink:href="classttg_1_1_terminal_base.html#ab21d3f0050249488606592cfe99c3409" target="_top" xlink:title="Get connections to successors.">
<polygon fill="white" stroke="#666666" points="442,-30 329,-30 329,0 442,0 442,-30"/>
<text text-anchor="start" x="337" y="-18" font-family="Times,serif" font-size="10.00">ttg::TerminalBase::</text>
<text text-anchor="middle" x="385.5" y="-7" font-family="Times,serif" font-size="10.00">get_connections</text>
</a>
</g>
</g>
<!-- Node2&#45;&gt;Node3 -->
<g id="edge3_Node000002_Node000003" class="edge">
<title>Node2&#45;&gt;Node3</title>
<g id="a_edge3_Node000002_Node000003"><a xlink:title=" ">
<path fill="none" stroke="#63b8ff" d="M293.29,-15C301.66,-15 310.28,-15 318.72,-15"/>
<polygon fill="#63b8ff" stroke="#63b8ff" points="318.9,-18.5 328.9,-15 318.9,-11.5 318.9,-18.5"/>
</a>
</g>
</g>
</g>
</svg>
