<?xml version="1.0" encoding="UTF-8" standalone="no"?>
<!DOCTYPE svg PUBLIC "-//W3C//DTD SVG 1.1//EN"
 "http://www.w3.org/Graphics/SVG/1.1/DTD/svg11.dtd">
<!-- Generated by graphviz version 2.43.0 (0)
 -->
<!-- Title: ttg_madness::TT::set_static_argstream_size Pages: 1 -->
<svg width="579pt" height="245pt"
 viewBox="0.00 0.00 579.00 244.50" xmlns="http://www.w3.org/2000/svg" xmlns:xlink="http://www.w3.org/1999/xlink">
<g id="graph0" class="graph" transform="scale(1 1) rotate(0) translate(4 240.5)">
<title>ttg_madness::TT::set_static_argstream_size</title>
<!-- Node1 -->
<g id="Node000001" class="node">
<title>Node1</title>
<g id="a_Node000001"><a xlink:title=" ">
<polygon fill="#999999" stroke="#666666" points="131,-168 0,-168 0,-138 131,-138 131,-168"/>
<text text-anchor="start" x="8" y="-156" font-family="Times,serif" font-size="10.00">ttg_madness::TT::set</text>
<text text-anchor="middle" x="65.5" y="-145" font-family="Times,serif" font-size="10.00">_static_argstream_size</text>
</a>
</g>
</g>
<!-- Node2 -->
<g id="Node000002" class="node">
<title>Node2</title>
<g id="a_Node000002"><a xlink:href="classttg__madness_1_1_t_t.html#a3fb0ab18d00c27fae64e1bd1b78d3d0d" target="_top" xlink:title=" ">
<polygon fill="white" stroke="#666666" points="294,-218.5 171,-218.5 171,-199.5 294,-199.5 294,-218.5"/>
<text text-anchor="middle" x="232.5" y="-206.5" font-family="Times,serif" font-size="10.00">ttg_madness::TT::get</text>
</a>
</g>
</g>
<!-- Node1&#45;&gt;Node2 -->
<g id="edge1_Node000001_Node000002" class="edge">
<title>Node1&#45;&gt;Node2</title>
<g id="a_edge1_Node000001_Node000002"><a xlink:title=" ">
<path fill="none" stroke="#63b8ff" d="M103.92,-168.06C122.71,-175.39 145.91,-184.08 167,-191 172.94,-192.95 179.24,-194.87 185.48,-196.7"/>
<polygon fill="#63b8ff" stroke="#63b8ff" points="184.59,-200.09 195.17,-199.47 186.52,-193.36 184.59,-200.09"/>
</a>
</g>
</g>
<!-- Node3 -->
<g id="Node000003" class="node">
<title>Node3</title>
<g id="a_Node000003"><a xlink:href="classttg_1_1_t_t_base.html#ade3b1e6b149fe1124f7192aeca5f715c" target="_top" xlink:title="Gets the name of this operation.">
<polygon fill="white" stroke="#666666" points="298,-181.5 167,-181.5 167,-162.5 298,-162.5 298,-181.5"/>
<text text-anchor="middle" x="232.5" y="-169.5" font-family="Times,serif" font-size="10.00">ttg::TTBase::get_name</text>
</a>
</g>
</g>
<!-- Node1&#45;&gt;Node3 -->
<g id="edge3_Node000001_Node000003" class="edge">
<title>Node1&#45;&gt;Node3</title>
<g id="a_edge3_Node000001_Node000003"><a xlink:title=" ">
<path fill="none" stroke="#63b8ff" d="M131.24,-160.45C139.67,-161.43 148.37,-162.43 156.95,-163.42"/>
<polygon fill="#63b8ff" stroke="#63b8ff" points="156.61,-166.9 166.95,-164.57 157.41,-159.95 156.61,-166.9"/>
</a>
</g>
</g>
<!-- Node4 -->
<g id="Node000004" class="node">
<title>Node4</title>
<g id="a_Node000004"><a xlink:href="namespacettg.html#aacafa23974f833f3ac9c42ab4fbd7e68" target="_top" xlink:title="atomically prints to std::cerr a sequence of items (separated by ttg::print_separator) followed by st...">
<polygon fill="white" stroke="#666666" points="426,-162.5 334,-162.5 334,-143.5 426,-143.5 426,-162.5"/>
<text text-anchor="middle" x="380" y="-150.5" font-family="Times,serif" font-size="10.00">ttg::print_error</text>
</a>
</g>
</g>
<!-- Node1&#45;&gt;Node4 -->
<g id="edge4_Node000001_Node000004" class="edge">
<title>Node1&#45;&gt;Node4</title>
<g id="a_edge4_Node000001_Node000004"><a xlink:title=" ">
<path fill="none" stroke="#63b8ff" d="M131.25,-153C188.02,-153 269.66,-153 323.5,-153"/>
<polygon fill="#63b8ff" stroke="#63b8ff" points="323.54,-156.5 333.54,-153 323.54,-149.5 323.54,-156.5"/>
</a>
</g>
</g>
<!-- Node6 -->
<g id="Node000006" class="node">
<title>Node6</title>
<g id="a_Node000006"><a xlink:href="namespacettg.html#af5e470229c1ddef41b83b6398a5dc583" target="_top" xlink:title=" ">
<polygon fill="white" stroke="#666666" points="263.5,-87.5 201.5,-87.5 201.5,-68.5 263.5,-68.5 263.5,-87.5"/>
<text text-anchor="middle" x="232.5" y="-75.5" font-family="Times,serif" font-size="10.00">ttg::trace</text>
</a>
</g>
</g>
<!-- Node1&#45;&gt;Node6 -->
<g id="edge6_Node000001_Node000006" class="edge">
<title>Node1&#45;&gt;Node6</title>
<g id="a_edge6_Node000001_Node000006"><a xlink:title=" ">
<path fill="none" stroke="#63b8ff" d="M99.89,-137.82C129.5,-124.36 172.38,-104.87 201.07,-91.83"/>
<polygon fill="#63b8ff" stroke="#63b8ff" points="202.55,-95 210.21,-87.68 199.66,-88.63 202.55,-95"/>
</a>
</g>
</g>
<!-- Node2&#45;&gt;Node2 -->
<g id="edge2_Node000002_Node000002" class="edge">
<title>Node2&#45;&gt;Node2</title>
<g id="a_edge2_Node000002_Node000002"><a xlink:title=" ">
<path fill="none" stroke="#63b8ff" d="M210,-218.58C199.05,-227.23 206.55,-236.5 232.5,-236.5 249.12,-236.5 258.18,-232.7 259.66,-227.69"/>
<polygon fill="#63b8ff" stroke="#63b8ff" points="262.67,-225.89 255,-218.58 256.44,-229.08 262.67,-225.89"/>
</a>
</g>
</g>
<!-- Node5 -->
<g id="Node000005" class="node">
<title>Node5</title>
<g id="a_Node000005"><a xlink:href="namespacettg_1_1detail.html#a26e07486d5ef8eb5735a8975991a7693" target="_top" xlink:title=" ">
<polygon fill="white" stroke="#666666" points="564.5,-137 468.5,-137 468.5,-107 564.5,-107 564.5,-137"/>
<text text-anchor="start" x="476.5" y="-125" font-family="Times,serif" font-size="10.00">ttg::detail::print</text>
<text text-anchor="middle" x="516.5" y="-114" font-family="Times,serif" font-size="10.00">_helper</text>
</a>
</g>
</g>
<!-- Node4&#45;&gt;Node5 -->
<g id="edge5_Node000004_Node000005" class="edge">
<title>Node4&#45;&gt;Node5</title>
<g id="a_edge5_Node000004_Node000005"><a xlink:title=" ">
<path fill="none" stroke="#63b8ff" d="M422.45,-143.45C433.79,-140.83 446.28,-137.95 458.33,-135.18"/>
<polygon fill="#63b8ff" stroke="#63b8ff" points="459.35,-138.53 468.31,-132.88 457.78,-131.71 459.35,-138.53"/>
</a>
</g>
</g>
<!-- Node7 -->
<g id="Node000007" class="node">
<title>Node7</title>
<g id="a_Node000007"><a xlink:href="namespacettg.html#aacacfe8bc9582308a405c4370650a9d4" target="_top" xlink:title="atomically prints to std::clog a sequence of items (separated by ttg::print_separator) followed by st...">
<polygon fill="white" stroke="#666666" points="406.5,-125.5 353.5,-125.5 353.5,-106.5 406.5,-106.5 406.5,-125.5"/>
<text text-anchor="middle" x="380" y="-113.5" font-family="Times,serif" font-size="10.00">ttg::log</text>
</a>
</g>
</g>
<!-- Node6&#45;&gt;Node7 -->
<g id="edge7_Node000006_Node000007" class="edge">
<title>Node6&#45;&gt;Node7</title>
<g id="a_edge7_Node000006_Node000007"><a xlink:title=" ">
<path fill="none" stroke="#63b8ff" d="M263.65,-85.87C286.81,-91.92 318.86,-100.29 343.31,-106.68"/>
<polygon fill="#63b8ff" stroke="#63b8ff" points="342.71,-110.14 353.27,-109.28 344.48,-103.37 342.71,-110.14"/>
</a>
</g>
</g>
<!-- Node8 -->
<g id="Node000008" class="node">
<title>Node8</title>
<g id="a_Node000008"><a xlink:href="namespacettg.html#afbdd9c742be395e0746fdbc26c7d55cc" target="_top" xlink:title="returns whether tracing was enabled at configure time">
<polygon fill="white" stroke="#666666" points="571,-81.5 462,-81.5 462,-62.5 571,-62.5 571,-81.5"/>
<text text-anchor="middle" x="516.5" y="-69.5" font-family="Times,serif" font-size="10.00">ttg::trace_enabled</text>
</a>
</g>
</g>
<!-- Node6&#45;&gt;Node8 -->
<g id="edge9_Node000006_Node000008" class="edge">
<title>Node6&#45;&gt;Node8</title>
<g id="a_edge9_Node000006_Node000008"><a xlink:title=" ">
<path fill="none" stroke="#63b8ff" d="M263.68,-77.36C308.25,-76.41 392.72,-74.61 451.48,-73.36"/>
<polygon fill="#63b8ff" stroke="#63b8ff" points="451.84,-76.86 461.77,-73.14 451.7,-69.86 451.84,-76.86"/>
</a>
</g>
</g>
<!-- Node9 -->
<g id="Node000009" class="node">
<title>Node9</title>
<g id="a_Node000009"><a xlink:href="namespacettg.html#abfb8501d408a1ed918cc2a540865a2d8" target="_top" xlink:title="returns whether tracing is enabled">
<polygon fill="white" stroke="#666666" points="416.5,-49.5 343.5,-49.5 343.5,-30.5 416.5,-30.5 416.5,-49.5"/>
<text text-anchor="middle" x="380" y="-37.5" font-family="Times,serif" font-size="10.00">ttg::tracing</text>
</a>
</g>
</g>
<!-- Node6&#45;&gt;Node9 -->
<g id="edge10_Node000006_Node000009" class="edge">
<title>Node6&#45;&gt;Node9</title>
<g id="a_edge10_Node000006_Node000009"><a xlink:title=" ">
<path fill="none" stroke="#63b8ff" d="M263.65,-70.13C283.8,-64.86 310.7,-57.84 333.45,-51.9"/>
<polygon fill="#63b8ff" stroke="#63b8ff" points="334.45,-55.25 343.24,-49.34 332.68,-48.48 334.45,-55.25"/>
</a>
</g>
</g>
<!-- Node7&#45;&gt;Node5 -->
<g id="edge8_Node000007_Node000005" class="edge">
<title>Node7&#45;&gt;Node5</title>
<g id="a_edge8_Node000007_Node000005"><a xlink:title=" ">
<path fill="none" stroke="#63b8ff" d="M406.62,-117.14C421.27,-117.8 440.28,-118.64 458.31,-119.45"/>
<polygon fill="#63b8ff" stroke="#63b8ff" points="458.33,-122.95 468.47,-119.9 458.64,-115.96 458.33,-122.95"/>
</a>
</g>
</g>
<!-- Node9&#45;&gt;Node8 -->
<g id="edge13_Node000009_Node000008" class="edge">
<title>Node9&#45;&gt;Node8</title>
<g id="a_edge13_Node000009_Node000008"><a xlink:title=" ">
<path fill="none" stroke="#63b8ff" d="M416.69,-48.49C431.64,-52.05 449.29,-56.25 465.5,-60.1"/>
<polygon fill="#63b8ff" stroke="#63b8ff" points="464.83,-63.54 475.37,-62.45 466.45,-56.73 464.83,-63.54"/>
</a>
</g>
</g>
<!-- Node10 -->
<g id="Node000010" class="node">
<title>Node10</title>
<g id="a_Node000010"><a xlink:href="namespacettg_1_1detail.html#a95356c3874e7ec9268a40feb4fc1519f" target="_top" xlink:title=" ">
<polygon fill="white" stroke="#666666" points="565,-30 468,-30 468,0 565,0 565,-30"/>
<text text-anchor="start" x="476" y="-18" font-family="Times,serif" font-size="10.00">ttg::detail::trace</text>
<text text-anchor="middle" x="516.5" y="-7" font-family="Times,serif" font-size="10.00">_accessor</text>
</a>
</g>
</g>
<!-- Node9&#45;&gt;Node10 -->
<g id="edge11_Node000009_Node000010" class="edge">
<title>Node9&#45;&gt;Node10</title>
<g id="a_edge11_Node000009_Node000010"><a xlink:title=" ">
<path fill="none" stroke="#63b8ff" d="M416.69,-33.37C429.34,-31.01 443.92,-28.31 457.92,-25.7"/>
<polygon fill="#63b8ff" stroke="#63b8ff" points="458.79,-29.1 467.98,-23.83 457.51,-22.22 458.79,-29.1"/>
</a>
</g>
</g>
<!-- Node10&#45;&gt;Node6 -->
<g id="edge12_Node000010_Node000006" class="edge">
<title>Node10&#45;&gt;Node6</title>
<g id="a_edge12_Node000010_Node000006"><a xlink:title=" ">
<path fill="none" stroke="#63b8ff" d="M467.93,-10.44C430.75,-8.33 378.16,-8.57 334,-21 304,-29.45 273.39,-48.64 253.96,-62.42"/>
<polygon fill="#63b8ff" stroke="#63b8ff" points="251.65,-59.78 245.62,-68.5 255.77,-65.44 251.65,-59.78"/>
</a>
</g>
</g>
</g>
</svg>
