<?xml version="1.0" encoding="UTF-8" standalone="no"?>
<!DOCTYPE svg PUBLIC "-//W3C//DTD SVG 1.1//EN"
 "http://www.w3.org/Graphics/SVG/1.1/DTD/svg11.dtd">
<!-- Generated by graphviz version 2.43.0 (0)
 -->
<!-- Title: ttg_parsec::WorldImpl::profile_on Pages: 1 -->
<svg width="467pt" height="60pt"
 viewBox="0.00 0.00 467.00 60.00" xmlns="http://www.w3.org/2000/svg" xmlns:xlink="http://www.w3.org/1999/xlink">

<svg id="main" version="1.1" xmlns="http://www.w3.org/2000/svg" xmlns:xlink="http://www.w3.org/1999/xlink" xml:space="preserve" onload="init(evt)">
<style type="text/css"><![CDATA[
.node, .edge {opacity: 0.7;}
.node.selected, .edge.selected {opacity: 1;}
.edge:hover path { stroke: red; }
.edge:hover polygon { stroke: red; fill: red; }
]]></style>
<script type="application/ecmascript" xlink:href="svg.min.js"/>
<svg id="graph" class="graph">
<g id="graph0" class="graph" transform="scale(1 1) rotate(0) translate(4 56)">
<title>ttg_parsec::WorldImpl::profile_on</title>
<!-- Node1 -->
<g id="Node000001" class="node">
<title>Node1</title>
<g id="a_Node000001"><a xlink:title=" ">
<polygon fill="#999999" stroke="#666666" points="459,-30 330,-30 330,0 459,0 459,-30"/>
<text text-anchor="start" x="338" y="-18" font-family="Times,serif" font-size="10.00">ttg_parsec::WorldImpl</text>
<text text-anchor="middle" x="394.5" y="-7" font-family="Times,serif" font-size="10.00">::profile_on</text>
</a>
</g>
</g>
<!-- Node2 -->
<g id="Node000002" class="node">
<title>Node2</title>
<g id="a_Node000002"><a xlink:href="classttg__parsec_1_1_world_impl.html#a8486bd3e8dc829175f7ad0538e0dce4b" target="_top" xlink:title=" ">
<polygon fill="white" stroke="#666666" points="294,-52 165,-52 165,-22 294,-22 294,-52"/>
<text text-anchor="start" x="173" y="-40" font-family="Times,serif" font-size="10.00">ttg_parsec::WorldImpl</text>
<text text-anchor="middle" x="229.5" y="-29" font-family="Times,serif" font-size="10.00">::dag_on</text>
</a>
</g>
</g>
<!-- Node1&#45;&gt;Node2 -->
<g id="edge1_Node000001_Node000002" class="edge">
<title>Node1&#45;&gt;Node2</title>
<g id="a_edge1_Node000001_Node000002"><a xlink:title=" ">
<path fill="none" stroke="#63b8ff" d="M319.59,-24.98C311.05,-26.13 302.39,-27.3 294,-28.43"/>
<polygon fill="#63b8ff" stroke="#63b8ff" points="320.1,-28.44 329.55,-23.63 319.17,-21.5 320.1,-28.44"/>
</a>
</g>
</g>
<!-- Node3 -->
<g id="Node000003" class="node">
<title>Node3</title>
<g id="a_Node000003"><a xlink:href="classttg__parsec_1_1_world_impl.html#a5dbc8b40e4d489a0d913efccfb7d0ae0" target="_top" xlink:title=" ">
<polygon fill="white" stroke="#666666" points="129,-30 0,-30 0,0 129,0 129,-30"/>
<text text-anchor="start" x="8" y="-18" font-family="Times,serif" font-size="10.00">ttg_parsec::WorldImpl</text>
<text text-anchor="middle" x="64.5" y="-7" font-family="Times,serif" font-size="10.00">::WorldImpl</text>
</a>
</g>
</g>
<!-- Node1&#45;&gt;Node3 -->
<g id="edge3_Node000001_Node000003" class="edge">
<title>Node1&#45;&gt;Node3</title>
<g id="a_edge3_Node000001_Node000003"><a xlink:title=" ">
<path fill="none" stroke="#63b8ff" d="M319.69,-13.35C311.03,-13.21 302.32,-13.08 294,-13 236.67,-12.42 222.33,-12.42 165,-13 153.42,-13.12 141.09,-13.31 129.19,-13.53"/>
<polygon fill="#63b8ff" stroke="#63b8ff" points="319.75,-16.85 329.81,-13.53 319.87,-9.85 319.75,-16.85"/>
</a>
</g>
</g>
<!-- Node2&#45;&gt;Node3 -->
<g id="edge2_Node000002_Node000003" class="edge">
<title>Node2&#45;&gt;Node3</title>
<g id="a_edge2_Node000002_Node000003"><a xlink:title=" ">
<path fill="none" stroke="#63b8ff" d="M154.59,-27.02C146.05,-25.87 137.39,-24.7 129,-23.57"/>
<polygon fill="#63b8ff" stroke="#63b8ff" points="154.17,-30.5 164.55,-28.37 155.1,-23.56 154.17,-30.5"/>
</a>
</g>
</g>
</g>
</svg>
</svg>

<style type='text/css'>
<![CDATA[
[data-mouse-over-selected='false'] { opacity: 0.7; }
[data-mouse-over-selected='true']  { opacity: 1.0; }
]]>
</style>
<script type="application/ecmascript"><![CDATA[
document.addEventListener('DOMContentLoaded', (event) => {
  highlightEdges();
  highlightAdjacentNodes();
});
]]></script>
</svg>
