<?xml version="1.0" encoding="UTF-8" standalone="no"?>
<!DOCTYPE svg PUBLIC "-//W3C//DTD SVG 1.1//EN"
 "http://www.w3.org/Graphics/SVG/1.1/DTD/svg11.dtd">
<!-- Generated by graphviz version 2.43.0 (0)
 -->
<!-- Title: ttg_parsec::TT::create_new_task Pages: 1 -->
<svg width="280pt" height="182pt"
 viewBox="0.00 0.00 280.00 182.00" xmlns="http://www.w3.org/2000/svg" xmlns:xlink="http://www.w3.org/1999/xlink">
<g id="graph0" class="graph" transform="scale(1 1) rotate(0) translate(4 178)">
<title>ttg_parsec::TT::create_new_task</title>
<!-- Node1 -->
<g id="Node000001" class="node">
<title>Node1</title>
<g id="a_Node000001"><a xlink:title=" ">
<polygon fill="#999999" stroke="#666666" points="272,-102 146,-102 146,-72 272,-72 272,-102"/>
<text text-anchor="start" x="154" y="-90" font-family="Times,serif" font-size="10.00">ttg_parsec::TT::create</text>
<text text-anchor="middle" x="209" y="-79" font-family="Times,serif" font-size="10.00">_new_task</text>
</a>
</g>
</g>
<!-- Node2 -->
<g id="Node000002" class="node">
<title>Node2</title>
<g id="a_Node000002"><a xlink:href="classttg__parsec_1_1_t_t.html#af647004ce89dc81d1202dd68070f0bde" target="_top" xlink:title=" ">
<polygon fill="white" stroke="#666666" points="110,-174 0,-174 0,-144 110,-144 110,-174"/>
<text text-anchor="start" x="8" y="-162" font-family="Times,serif" font-size="10.00">ttg_parsec::TT::set</text>
<text text-anchor="middle" x="55" y="-151" font-family="Times,serif" font-size="10.00">_arg_impl</text>
</a>
</g>
</g>
<!-- Node1&#45;&gt;Node2 -->
<g id="edge1_Node000001_Node000002" class="edge">
<title>Node1&#45;&gt;Node2</title>
<g id="a_edge1_Node000001_Node000002"><a xlink:title=" ">
<path fill="none" stroke="#63b8ff" d="M168.71,-106.66C150.86,-115.48 129.44,-125.92 110,-135 103.68,-137.95 96.91,-141.03 90.37,-143.96"/>
<polygon fill="#63b8ff" stroke="#63b8ff" points="170.28,-109.79 177.68,-102.21 167.17,-103.52 170.28,-109.79"/>
</a>
</g>
</g>
<!-- Node3 -->
<g id="Node000003" class="node">
<title>Node3</title>
<g id="a_Node000003"><a xlink:href="classttg__parsec_1_1_t_t.html#adc3a5e538d9a4c192168317cb0db9814" target="_top" xlink:title=" ">
<polygon fill="white" stroke="#666666" points="110,-126 0,-126 0,-96 110,-96 110,-126"/>
<text text-anchor="start" x="8" y="-114" font-family="Times,serif" font-size="10.00">ttg_parsec::TT::set</text>
<text text-anchor="middle" x="55" y="-103" font-family="Times,serif" font-size="10.00">_arg_local_impl</text>
</a>
</g>
</g>
<!-- Node1&#45;&gt;Node3 -->
<g id="edge2_Node000001_Node000003" class="edge">
<title>Node1&#45;&gt;Node3</title>
<g id="a_edge2_Node000001_Node000003"><a xlink:title=" ">
<path fill="none" stroke="#63b8ff" d="M135.69,-98.42C127.09,-99.78 118.42,-101.14 110.14,-102.45"/>
<polygon fill="#63b8ff" stroke="#63b8ff" points="136.41,-101.85 145.74,-96.83 135.31,-94.93 136.41,-101.85"/>
</a>
</g>
</g>
<!-- Node4 -->
<g id="Node000004" class="node">
<title>Node4</title>
<g id="a_Node000004"><a xlink:href="classttg__parsec_1_1_t_t.html#af31b0b9c87c00dc31edfe4e6fa040442" target="_top" xlink:title=" ">
<polygon fill="white" stroke="#666666" points="110,-78 0,-78 0,-48 110,-48 110,-78"/>
<text text-anchor="start" x="8" y="-66" font-family="Times,serif" font-size="10.00">ttg_parsec::TT::set</text>
<text text-anchor="middle" x="55" y="-55" font-family="Times,serif" font-size="10.00">_argstream_size</text>
</a>
</g>
</g>
<!-- Node1&#45;&gt;Node4 -->
<g id="edge3_Node000001_Node000004" class="edge">
<title>Node1&#45;&gt;Node4</title>
<g id="a_edge3_Node000001_Node000004"><a xlink:title=" ">
<path fill="none" stroke="#63b8ff" d="M135.69,-75.58C127.09,-74.22 118.42,-72.86 110.14,-71.55"/>
<polygon fill="#63b8ff" stroke="#63b8ff" points="135.31,-79.07 145.74,-77.17 136.41,-72.15 135.31,-79.07"/>
</a>
</g>
</g>
<!-- Node5 -->
<g id="Node000005" class="node">
<title>Node5</title>
<g id="a_Node000005"><a xlink:href="classttg__parsec_1_1_t_t.html#a5fba67769a0b313eb4548d311e0e632d" target="_top" xlink:title=" ">
<polygon fill="white" stroke="#666666" points="110,-30 0,-30 0,0 110,0 110,-30"/>
<text text-anchor="start" x="8" y="-18" font-family="Times,serif" font-size="10.00">ttg_parsec::TT::set</text>
<text text-anchor="middle" x="55" y="-7" font-family="Times,serif" font-size="10.00">_argstream_size</text>
</a>
</g>
</g>
<!-- Node1&#45;&gt;Node5 -->
<g id="edge4_Node000001_Node000005" class="edge">
<title>Node1&#45;&gt;Node5</title>
<g id="a_edge4_Node000001_Node000005"><a xlink:title=" ">
<path fill="none" stroke="#63b8ff" d="M168.71,-67.34C150.86,-58.52 129.44,-48.08 110,-39 103.68,-36.05 96.91,-32.97 90.37,-30.04"/>
<polygon fill="#63b8ff" stroke="#63b8ff" points="167.17,-70.48 177.68,-71.79 170.28,-64.21 167.17,-70.48"/>
</a>
</g>
</g>
</g>
</svg>
