<?xml version="1.0" encoding="UTF-8" standalone="no"?>
<!DOCTYPE svg PUBLIC "-//W3C//DTD SVG 1.1//EN"
 "http://www.w3.org/Graphics/SVG/1.1/DTD/svg11.dtd">
<!-- Generated by graphviz version 2.43.0 (0)
 -->
<!-- Title: ttg::Out::sendk Pages: 1 -->
<svg width="410pt" height="51pt"
 viewBox="0.00 0.00 410.00 50.50" xmlns="http://www.w3.org/2000/svg" xmlns:xlink="http://www.w3.org/1999/xlink">
<g id="graph0" class="graph" transform="scale(1 1) rotate(0) translate(4 46.5)">
<title>ttg::Out::sendk</title>
<!-- Node1 -->
<g id="Node000001" class="node">
<title>Node1</title>
<g id="a_Node000001"><a xlink:title=" ">
<polygon fill="#999999" stroke="#666666" points="92,-24.5 0,-24.5 0,-5.5 92,-5.5 92,-24.5"/>
<text text-anchor="middle" x="46" y="-12.5" font-family="Times,serif" font-size="10.00">ttg::Out::sendk</text>
</a>
</g>
</g>
<!-- Node1&#45;&gt;Node1 -->
<g id="edge1_Node000001_Node000001" class="edge">
<title>Node1&#45;&gt;Node1</title>
<g id="a_edge1_Node000001_Node000001"><a xlink:title=" ">
<path fill="none" stroke="#63b8ff" d="M23.81,-24.58C13.01,-33.23 20.41,-42.5 46,-42.5 62.4,-42.5 71.32,-38.7 72.79,-33.69"/>
<polygon fill="#63b8ff" stroke="#63b8ff" points="75.82,-31.94 68.19,-24.58 69.57,-35.09 75.82,-31.94"/>
</a>
</g>
</g>
<!-- Node2 -->
<g id="Node000002" class="node">
<title>Node2</title>
<g id="a_Node000002"><a xlink:href="classttg_1_1_out_terminal_base.html#aa0341fd67b25363d5c45d77646294cf9" target="_top" xlink:title=" ">
<polygon fill="white" stroke="#666666" points="253,-30 128,-30 128,0 253,0 253,-30"/>
<text text-anchor="start" x="136" y="-18" font-family="Times,serif" font-size="10.00">ttg::OutTerminalBase</text>
<text text-anchor="middle" x="190.5" y="-7" font-family="Times,serif" font-size="10.00">::successors</text>
</a>
</g>
</g>
<!-- Node1&#45;&gt;Node2 -->
<g id="edge2_Node000001_Node000002" class="edge">
<title>Node1&#45;&gt;Node2</title>
<g id="a_edge2_Node000001_Node000002"><a xlink:title=" ">
<path fill="none" stroke="#63b8ff" d="M92.09,-15C100.23,-15 108.91,-15 117.6,-15"/>
<polygon fill="#63b8ff" stroke="#63b8ff" points="117.77,-18.5 127.77,-15 117.77,-11.5 117.77,-18.5"/>
</a>
</g>
</g>
<!-- Node3 -->
<g id="Node000003" class="node">
<title>Node3</title>
<g id="a_Node000003"><a xlink:href="classttg_1_1_terminal_base.html#ab21d3f0050249488606592cfe99c3409" target="_top" xlink:title="Get connections to successors.">
<polygon fill="white" stroke="#666666" points="402,-30 289,-30 289,0 402,0 402,-30"/>
<text text-anchor="start" x="297" y="-18" font-family="Times,serif" font-size="10.00">ttg::TerminalBase::</text>
<text text-anchor="middle" x="345.5" y="-7" font-family="Times,serif" font-size="10.00">get_connections</text>
</a>
</g>
</g>
<!-- Node2&#45;&gt;Node3 -->
<g id="edge3_Node000002_Node000003" class="edge">
<title>Node2&#45;&gt;Node3</title>
<g id="a_edge3_Node000002_Node000003"><a xlink:title=" ">
<path fill="none" stroke="#63b8ff" d="M253.29,-15C261.66,-15 270.28,-15 278.72,-15"/>
<polygon fill="#63b8ff" stroke="#63b8ff" points="278.9,-18.5 288.9,-15 278.9,-11.5 278.9,-18.5"/>
</a>
</g>
</g>
</g>
</svg>
