<?xml version="1.0" encoding="UTF-8" standalone="no"?>
<!DOCTYPE svg PUBLIC "-//W3C//DTD SVG 1.1//EN"
 "http://www.w3.org/Graphics/SVG/1.1/DTD/svg11.dtd">
<!-- Generated by graphviz version 2.43.0 (0)
 -->
<!-- Title: ttg_parsec::TT::unpack Pages: 1 -->
<svg width="323pt" height="182pt"
 viewBox="0.00 0.00 323.00 182.00" xmlns="http://www.w3.org/2000/svg" xmlns:xlink="http://www.w3.org/1999/xlink">

<svg id="main" version="1.1" xmlns="http://www.w3.org/2000/svg" xmlns:xlink="http://www.w3.org/1999/xlink" xml:space="preserve" onload="init(evt)">
<style type="text/css"><![CDATA[
.node, .edge {opacity: 0.7;}
.node.selected, .edge.selected {opacity: 1;}
.edge:hover path { stroke: red; }
.edge:hover polygon { stroke: red; fill: red; }
]]></style>
<script type="application/ecmascript" xlink:href="svg.min.js"/>
<svg id="graph" class="graph">
<g id="graph0" class="graph" transform="scale(1 1) rotate(0) translate(4 178)">
<title>ttg_parsec::TT::unpack</title>
<!-- Node1 -->
<g id="Node000001" class="node">
<title>Node1</title>
<g id="a_Node000001"><a xlink:title=" ">
<polygon fill="#999999" stroke="#666666" points="315,-96.5 183,-96.5 183,-77.5 315,-77.5 315,-96.5"/>
<text text-anchor="middle" x="249" y="-84.5" font-family="Times,serif" font-size="10.00">ttg_parsec::TT::unpack</text>
</a>
</g>
</g>
<!-- Node2 -->
<g id="Node000002" class="node">
<title>Node2</title>
<g id="a_Node000002"><a xlink:href="classttg__parsec_1_1_t_t.html#ab7f39cb8e73201ffec3a938192c5cb88" target="_top" xlink:title=" ">
<polygon fill="white" stroke="#666666" points="147,-174 0,-174 0,-144 147,-144 147,-174"/>
<text text-anchor="start" x="8" y="-162" font-family="Times,serif" font-size="10.00">ttg_parsec::TT::argstream</text>
<text text-anchor="middle" x="73.5" y="-151" font-family="Times,serif" font-size="10.00">_set_size_from_msg</text>
</a>
</g>
</g>
<!-- Node1&#45;&gt;Node2 -->
<g id="edge1_Node000001_Node000002" class="edge">
<title>Node1&#45;&gt;Node2</title>
<g id="a_edge1_Node000001_Node000002"><a xlink:title=" ">
<path fill="none" stroke="#63b8ff" d="M220.52,-101.2C200.44,-111.29 172.39,-124.81 147,-135 139.25,-138.11 130.92,-141.14 122.77,-143.95"/>
<polygon fill="#63b8ff" stroke="#63b8ff" points="222.36,-104.19 229.69,-96.55 219.19,-97.95 222.36,-104.19"/>
</a>
</g>
</g>
<!-- Node3 -->
<g id="Node000003" class="node">
<title>Node3</title>
<g id="a_Node000003"><a xlink:href="classttg__parsec_1_1_t_t.html#a28e3150f0962f785165e50b8e4252a33" target="_top" xlink:title=" ">
<polygon fill="white" stroke="#666666" points="139,-126 8,-126 8,-96 139,-96 139,-126"/>
<text text-anchor="start" x="16" y="-114" font-family="Times,serif" font-size="10.00">ttg_parsec::TT::finalize</text>
<text text-anchor="middle" x="73.5" y="-103" font-family="Times,serif" font-size="10.00">_argstream_from_msg</text>
</a>
</g>
</g>
<!-- Node1&#45;&gt;Node3 -->
<g id="edge2_Node000001_Node000003" class="edge">
<title>Node1&#45;&gt;Node3</title>
<g id="a_edge2_Node000001_Node000003"><a xlink:title=" ">
<path fill="none" stroke="#63b8ff" d="M172.71,-97.41C161.51,-98.96 150.05,-100.55 139.1,-102.06"/>
<polygon fill="#63b8ff" stroke="#63b8ff" points="173.48,-100.84 182.9,-96 172.52,-93.91 173.48,-100.84"/>
</a>
</g>
</g>
<!-- Node4 -->
<g id="Node000004" class="node">
<title>Node4</title>
<g id="a_Node000004"><a xlink:href="classttg__parsec_1_1_t_t.html#af1071e7cbf7eb7ae80014f0016e0d0f8" target="_top" xlink:title=" ">
<polygon fill="white" stroke="#666666" points="129,-78 18,-78 18,-48 129,-48 129,-78"/>
<text text-anchor="start" x="26" y="-66" font-family="Times,serif" font-size="10.00">ttg_parsec::TT::get</text>
<text text-anchor="middle" x="73.5" y="-55" font-family="Times,serif" font-size="10.00">_from_pull_msg</text>
</a>
</g>
</g>
<!-- Node1&#45;&gt;Node4 -->
<g id="edge3_Node000001_Node000004" class="edge">
<title>Node1&#45;&gt;Node4</title>
<g id="a_edge3_Node000001_Node000004"><a xlink:title=" ">
<path fill="none" stroke="#63b8ff" d="M172.84,-76.6C158.16,-74.57 143.04,-72.48 129.18,-70.56"/>
<polygon fill="#63b8ff" stroke="#63b8ff" points="172.52,-80.09 182.9,-78 173.48,-73.16 172.52,-80.09"/>
</a>
</g>
</g>
<!-- Node5 -->
<g id="Node000005" class="node">
<title>Node5</title>
<g id="a_Node000005"><a xlink:href="classttg__parsec_1_1_t_t.html#ab9cbb6fbff64a26d98e2905560422e8c" target="_top" xlink:title=" ">
<polygon fill="white" stroke="#666666" points="128.5,-30 18.5,-30 18.5,0 128.5,0 128.5,-30"/>
<text text-anchor="start" x="26.5" y="-18" font-family="Times,serif" font-size="10.00">ttg_parsec::TT::set</text>
<text text-anchor="middle" x="73.5" y="-7" font-family="Times,serif" font-size="10.00">_arg_from_msg</text>
</a>
</g>
</g>
<!-- Node1&#45;&gt;Node5 -->
<g id="edge4_Node000001_Node000005" class="edge">
<title>Node1&#45;&gt;Node5</title>
<g id="a_edge4_Node000001_Node000005"><a xlink:title=" ">
<path fill="none" stroke="#63b8ff" d="M220.52,-72.8C200.44,-62.71 172.39,-49.19 147,-39 139.25,-35.89 130.92,-32.86 122.77,-30.05"/>
<polygon fill="#63b8ff" stroke="#63b8ff" points="219.19,-76.05 229.69,-77.45 222.36,-69.81 219.19,-76.05"/>
</a>
</g>
</g>
</g>
</svg>
</svg>

<style type='text/css'>
<![CDATA[
[data-mouse-over-selected='false'] { opacity: 0.7; }
[data-mouse-over-selected='true']  { opacity: 1.0; }
]]>
</style>
<script type="application/ecmascript"><![CDATA[
document.addEventListener('DOMContentLoaded', (event) => {
  highlightEdges();
  highlightAdjacentNodes();
});
]]></script>
</svg>
