<?xml version="1.0" encoding="UTF-8" standalone="no"?>
<!DOCTYPE svg PUBLIC "-//W3C//DTD SVG 1.1//EN"
 "http://www.w3.org/Graphics/SVG/1.1/DTD/svg11.dtd">
<!-- Generated by graphviz version 2.43.0 (0)
 -->
<!-- Title: ttg_parsec::TT::TT Pages: 1 -->
<svg width="484pt" height="418pt"
 viewBox="0.00 0.00 484.00 417.50" xmlns="http://www.w3.org/2000/svg" xmlns:xlink="http://www.w3.org/1999/xlink">
<g id="graph0" class="graph" transform="scale(1 1) rotate(0) translate(4 413.5)">
<title>ttg_parsec::TT::TT</title>
<!-- Node1 -->
<g id="Node000001" class="node">
<title>Node1</title>
<g id="a_Node000001"><a xlink:title=" ">
<polygon fill="#999999" stroke="#666666" points="108,-208 0,-208 0,-189 108,-189 108,-208"/>
<text text-anchor="middle" x="54" y="-196" font-family="Times,serif" font-size="10.00">ttg_parsec::TT::TT</text>
</a>
</g>
</g>
<!-- Node2 -->
<g id="Node000002" class="node">
<title>Node2</title>
<g id="a_Node000002"><a xlink:href="classttg__parsec_1_1_t_t.html#aad517897417ee547ece0a21e47ec260e" target="_top" xlink:title=" ">
<polygon fill="white" stroke="#666666" points="291.5,-409.5 157.5,-409.5 157.5,-379.5 291.5,-379.5 291.5,-409.5"/>
<text text-anchor="start" x="165.5" y="-397.5" font-family="Times,serif" font-size="10.00">ttg_parsec::TT::derived</text>
<text text-anchor="middle" x="224.5" y="-386.5" font-family="Times,serif" font-size="10.00">_has_cuda_op</text>
</a>
</g>
</g>
<!-- Node1&#45;&gt;Node2 -->
<g id="edge1_Node000001_Node000002" class="edge">
<title>Node1&#45;&gt;Node2</title>
<g id="a_edge1_Node000001_Node000002"><a xlink:title=" ">
<path fill="none" stroke="#63b8ff" d="M57.54,-208.35C65.4,-236.86 91.93,-320.24 144,-365.5 147.92,-368.91 152.27,-371.92 156.86,-374.6"/>
<polygon fill="#63b8ff" stroke="#63b8ff" points="155.45,-377.81 165.94,-379.32 158.68,-371.6 155.45,-377.81"/>
</a>
</g>
</g>
<!-- Node3 -->
<g id="Node000003" class="node">
<title>Node3</title>
<g id="a_Node000003"><a xlink:href="classttg__parsec_1_1_t_t.html#aab59a1bf0fcc4f771457b5f05cb42741" target="_top" xlink:title=" ">
<polygon fill="white" stroke="#666666" points="464,-339 353,-339 353,-320 464,-320 464,-339"/>
<text text-anchor="middle" x="408.5" y="-327" font-family="Times,serif" font-size="10.00">ttg_parsec::TT::get</text>
</a>
</g>
</g>
<!-- Node1&#45;&gt;Node3 -->
<g id="edge8_Node000001_Node000003" class="edge">
<title>Node1&#45;&gt;Node3</title>
<g id="a_edge8_Node000001_Node000003"><a xlink:title=" ">
<path fill="none" stroke="#63b8ff" d="M57.93,-208.35C66.31,-234.43 93.05,-305.18 144,-332.5 214.45,-370.28 311.49,-355.09 366,-341.64"/>
<polygon fill="#63b8ff" stroke="#63b8ff" points="367.18,-344.95 375.99,-339.07 365.43,-338.17 367.18,-344.95"/>
</a>
</g>
</g>
<!-- Node4 -->
<g id="Node000004" class="node">
<title>Node4</title>
<g id="a_Node000004"><a xlink:href="classttg__parsec_1_1_t_t.html#aee3384a0a2b85cd5e233e95a4ce63893" target="_top" xlink:title=" ">
<polygon fill="white" stroke="#666666" points="291.5,-323.5 157.5,-323.5 157.5,-293.5 291.5,-293.5 291.5,-323.5"/>
<text text-anchor="start" x="165.5" y="-311.5" font-family="Times,serif" font-size="10.00">ttg_parsec::TT::derived</text>
<text text-anchor="middle" x="224.5" y="-300.5" font-family="Times,serif" font-size="10.00">_has_hip_op</text>
</a>
</g>
</g>
<!-- Node1&#45;&gt;Node4 -->
<g id="edge4_Node000001_Node000004" class="edge">
<title>Node1&#45;&gt;Node4</title>
<g id="a_edge4_Node000001_Node000004"><a xlink:title=" ">
<path fill="none" stroke="#63b8ff" d="M62.24,-208.02C76.15,-225.68 108.42,-263.62 144,-284.5 147.01,-286.27 150.17,-287.92 153.41,-289.45"/>
<polygon fill="#63b8ff" stroke="#63b8ff" points="152.17,-292.73 162.74,-293.49 154.95,-286.31 152.17,-292.73"/>
</a>
</g>
</g>
<!-- Node5 -->
<g id="Node000005" class="node">
<title>Node5</title>
<g id="a_Node000005"><a xlink:href="classttg__parsec_1_1_t_t.html#af743a555626ae306b7678cde523b47a0" target="_top" xlink:title=" ">
<polygon fill="white" stroke="#666666" points="291.5,-275.5 157.5,-275.5 157.5,-245.5 291.5,-245.5 291.5,-275.5"/>
<text text-anchor="start" x="165.5" y="-263.5" font-family="Times,serif" font-size="10.00">ttg_parsec::TT::derived</text>
<text text-anchor="middle" x="224.5" y="-252.5" font-family="Times,serif" font-size="10.00">_has_level_zero_op</text>
</a>
</g>
</g>
<!-- Node1&#45;&gt;Node5 -->
<g id="edge6_Node000001_Node000005" class="edge">
<title>Node1&#45;&gt;Node5</title>
<g id="a_edge6_Node000001_Node000005"><a xlink:title=" ">
<path fill="none" stroke="#63b8ff" d="M75.6,-208.06C93.47,-216.18 120.15,-227.84 144,-236.5 149.47,-238.49 155.19,-240.44 160.95,-242.33"/>
<polygon fill="#63b8ff" stroke="#63b8ff" points="160.04,-245.71 170.63,-245.43 162.18,-239.05 160.04,-245.71"/>
</a>
</g>
</g>
<!-- Node6 -->
<g id="Node000006" class="node">
<title>Node6</title>
<g id="a_Node000006"><a xlink:href="classttg_1_1_t_t_base.html#a48f582b0eab8579283383f8d4937db09" target="_top" xlink:title=" ">
<polygon fill="white" stroke="#666666" points="305,-227 144,-227 144,-208 305,-208 305,-227"/>
<text text-anchor="middle" x="224.5" y="-215" font-family="Times,serif" font-size="10.00">ttg::TTBase::get_instance_id</text>
</a>
</g>
</g>
<!-- Node1&#45;&gt;Node6 -->
<g id="edge9_Node000001_Node000006" class="edge">
<title>Node1&#45;&gt;Node6</title>
<g id="a_edge9_Node000001_Node000006"><a xlink:title=" ">
<path fill="none" stroke="#63b8ff" d="M108.31,-204.51C116.42,-205.43 124.97,-206.39 133.61,-207.36"/>
<polygon fill="#63b8ff" stroke="#63b8ff" points="133.42,-210.87 143.75,-208.51 134.21,-203.91 133.42,-210.87"/>
</a>
</g>
</g>
<!-- Node7 -->
<g id="Node000007" class="node">
<title>Node7</title>
<g id="a_Node000007"><a xlink:href="classttg_1_1_t_t_base.html#ade3b1e6b149fe1124f7192aeca5f715c" target="_top" xlink:title="Gets the name of this operation.">
<polygon fill="white" stroke="#666666" points="290,-190 159,-190 159,-171 290,-171 290,-190"/>
<text text-anchor="middle" x="224.5" y="-178" font-family="Times,serif" font-size="10.00">ttg::TTBase::get_name</text>
</a>
</g>
</g>
<!-- Node1&#45;&gt;Node7 -->
<g id="edge10_Node000001_Node000007" class="edge">
<title>Node1&#45;&gt;Node7</title>
<g id="a_edge10_Node000001_Node000007"><a xlink:title=" ">
<path fill="none" stroke="#63b8ff" d="M108.31,-192.8C121.07,-191.44 134.92,-189.96 148.45,-188.52"/>
<polygon fill="#63b8ff" stroke="#63b8ff" points="149.14,-191.96 158.71,-187.42 148.4,-185 149.14,-191.96"/>
</a>
</g>
</g>
<!-- Node8 -->
<g id="Node000008" class="node">
<title>Node8</title>
<g id="a_Node000008"><a xlink:href="classttg_1_1base_1_1_world.html#aabab7c9df8f16919ab41a864c8b1adc4" target="_top" xlink:title=" ">
<polygon fill="white" stroke="#666666" points="287,-153 162,-153 162,-134 287,-134 287,-153"/>
<text text-anchor="middle" x="224.5" y="-141" font-family="Times,serif" font-size="10.00">ttg::base::World::impl</text>
</a>
</g>
</g>
<!-- Node1&#45;&gt;Node8 -->
<g id="edge11_Node000001_Node000008" class="edge">
<title>Node1&#45;&gt;Node8</title>
<g id="a_edge11_Node000001_Node000008"><a xlink:title=" ">
<path fill="none" stroke="#63b8ff" d="M76.25,-188.85C94.08,-181.02 120.35,-170.06 144,-162.5 151.78,-160.01 160.09,-157.68 168.29,-155.56"/>
<polygon fill="#63b8ff" stroke="#63b8ff" points="169.34,-158.91 178.19,-153.09 167.64,-152.12 169.34,-158.91"/>
</a>
</g>
</g>
<!-- Node10 -->
<g id="Node000010" class="node">
<title>Node10</title>
<g id="a_Node000010"><a xlink:href="classttg_1_1_t_t_base.html#ad27fa3b380e1ccec338e7ce022a58150" target="_top" xlink:title=" ">
<polygon fill="white" stroke="#666666" points="285,-115.5 164,-115.5 164,-85.5 285,-85.5 285,-115.5"/>
<text text-anchor="start" x="172" y="-103.5" font-family="Times,serif" font-size="10.00">ttg::TTBase::register</text>
<text text-anchor="middle" x="224.5" y="-92.5" font-family="Times,serif" font-size="10.00">_input_terminals</text>
</a>
</g>
</g>
<!-- Node1&#45;&gt;Node10 -->
<g id="edge13_Node000001_Node000010" class="edge">
<title>Node1&#45;&gt;Node10</title>
<g id="a_edge13_Node000001_Node000010"><a xlink:title=" ">
<path fill="none" stroke="#63b8ff" d="M64.48,-188.58C79.83,-173.05 111.66,-142.99 144,-125.5 148.16,-123.25 152.55,-121.17 157.04,-119.25"/>
<polygon fill="#63b8ff" stroke="#63b8ff" points="158.38,-122.48 166.38,-115.53 155.79,-115.98 158.38,-122.48"/>
</a>
</g>
</g>
<!-- Node12 -->
<g id="Node000012" class="node">
<title>Node12</title>
<g id="a_Node000012"><a xlink:href="classttg_1_1_t_t_base.html#afe6845510fba3a5fc90126c9a0257306" target="_top" xlink:title=" ">
<polygon fill="white" stroke="#666666" points="285,-67.5 164,-67.5 164,-37.5 285,-37.5 285,-67.5"/>
<text text-anchor="start" x="172" y="-55.5" font-family="Times,serif" font-size="10.00">ttg::TTBase::register</text>
<text text-anchor="middle" x="224.5" y="-44.5" font-family="Times,serif" font-size="10.00">_output_terminals</text>
</a>
</g>
</g>
<!-- Node1&#45;&gt;Node12 -->
<g id="edge15_Node000001_Node000012" class="edge">
<title>Node1&#45;&gt;Node12</title>
<g id="a_edge15_Node000001_Node000012"><a xlink:title=" ">
<path fill="none" stroke="#63b8ff" d="M59.28,-188.94C70.06,-165.96 100.59,-107.29 144,-76.5 147.28,-74.17 150.79,-72.07 154.44,-70.17"/>
<polygon fill="#63b8ff" stroke="#63b8ff" points="156.15,-73.23 163.75,-65.84 153.2,-66.88 156.15,-73.23"/>
</a>
</g>
</g>
<!-- Node14 -->
<g id="Node000014" class="node">
<title>Node14</title>
<g id="a_Node000014"><a xlink:href="classttg_1_1_t_t_base.html#ab73a493ce89e68de0defc825f4747044" target="_top" xlink:title=" ">
<polygon fill="white" stroke="#666666" points="284,-19 165,-19 165,0 284,0 284,-19"/>
<text text-anchor="middle" x="224.5" y="-7" font-family="Times,serif" font-size="10.00">ttg::TTBase::TTBase</text>
</a>
</g>
</g>
<!-- Node1&#45;&gt;Node14 -->
<g id="edge17_Node000001_Node000014" class="edge">
<title>Node1&#45;&gt;Node14</title>
<g id="a_edge17_Node000001_Node000014"><a xlink:title=" ">
<path fill="none" stroke="#63b8ff" d="M57.14,-188.59C64.04,-159.17 88.54,-71.68 144,-28.5 147.56,-25.73 151.46,-23.35 155.57,-21.31"/>
<polygon fill="#63b8ff" stroke="#63b8ff" points="156.99,-24.51 164.82,-17.38 154.25,-18.07 156.99,-24.51"/>
</a>
</g>
</g>
<!-- Node2&#45;&gt;Node3 -->
<g id="edge2_Node000002_Node000003" class="edge">
<title>Node2&#45;&gt;Node3</title>
<g id="a_edge2_Node000002_Node000003"><a xlink:title=" ">
<path fill="none" stroke="#63b8ff" d="M267.71,-379.42C299.03,-368.24 341.31,-353.14 371.14,-342.49"/>
<polygon fill="#63b8ff" stroke="#63b8ff" points="372.5,-345.72 380.74,-339.06 370.15,-339.12 372.5,-345.72"/>
</a>
</g>
</g>
<!-- Node3&#45;&gt;Node3 -->
<g id="edge3_Node000003_Node000003" class="edge">
<title>Node3&#45;&gt;Node3</title>
<g id="a_edge3_Node000003_Node000003"><a xlink:title=" ">
<path fill="none" stroke="#63b8ff" d="M380.14,-339.08C366.34,-347.73 375.8,-357 408.5,-357 430.98,-357 442.48,-352.62 442.98,-347.07"/>
<polygon fill="#63b8ff" stroke="#63b8ff" points="445.72,-344.89 436.86,-339.08 440.16,-349.15 445.72,-344.89"/>
</a>
</g>
</g>
<!-- Node4&#45;&gt;Node3 -->
<g id="edge5_Node000004_Node000003" class="edge">
<title>Node4&#45;&gt;Node3</title>
<g id="a_edge5_Node000004_Node000003"><a xlink:title=" ">
<path fill="none" stroke="#63b8ff" d="M291.72,-316.14C308.39,-318.06 326.25,-320.13 342.84,-322.04"/>
<polygon fill="#63b8ff" stroke="#63b8ff" points="342.65,-325.54 352.98,-323.21 343.45,-318.59 342.65,-325.54"/>
</a>
</g>
</g>
<!-- Node5&#45;&gt;Node3 -->
<g id="edge7_Node000005_Node000003" class="edge">
<title>Node5&#45;&gt;Node3</title>
<g id="a_edge7_Node000005_Node000003"><a xlink:title=" ">
<path fill="none" stroke="#63b8ff" d="M278.82,-275.63C287.63,-278.4 296.61,-281.41 305,-284.5 330.23,-293.81 358.13,-306.2 378.44,-315.62"/>
<polygon fill="#63b8ff" stroke="#63b8ff" points="377.22,-318.91 387.76,-319.98 380.18,-312.57 377.22,-318.91"/>
</a>
</g>
</g>
<!-- Node9 -->
<g id="Node000009" class="node">
<title>Node9</title>
<g id="a_Node000009"><a xlink:href="classttg_1_1base_1_1_world.html#af39ca1832f455a94134515f94aaa8533" target="_top" xlink:title=" ">
<polygon fill="white" stroke="#666666" points="464,-158.5 353,-158.5 353,-128.5 464,-128.5 464,-158.5"/>
<text text-anchor="start" x="361" y="-146.5" font-family="Times,serif" font-size="10.00">ttg::base::World::is</text>
<text text-anchor="middle" x="408.5" y="-135.5" font-family="Times,serif" font-size="10.00">_valid</text>
</a>
</g>
</g>
<!-- Node8&#45;&gt;Node9 -->
<g id="edge12_Node000008_Node000009" class="edge">
<title>Node8&#45;&gt;Node9</title>
<g id="a_edge12_Node000008_Node000009"><a xlink:title=" ">
<path fill="none" stroke="#63b8ff" d="M287.12,-143.5C305.04,-143.5 324.68,-143.5 342.79,-143.5"/>
<polygon fill="#63b8ff" stroke="#63b8ff" points="342.96,-147 352.96,-143.5 342.96,-140 342.96,-147"/>
</a>
</g>
</g>
<!-- Node11 -->
<g id="Node000011" class="node">
<title>Node11</title>
<g id="a_Node000011"><a xlink:href="classttg_1_1_t_t_base.html#afddc3ce47d7d57b4d68f378d699e85d6" target="_top" xlink:title=" ">
<polygon fill="white" stroke="#666666" points="472.5,-110 344.5,-110 344.5,-91 472.5,-91 472.5,-110"/>
<text text-anchor="middle" x="408.5" y="-98" font-family="Times,serif" font-size="10.00">ttg::TTBase::set_input</text>
</a>
</g>
</g>
<!-- Node10&#45;&gt;Node11 -->
<g id="edge14_Node000010_Node000011" class="edge">
<title>Node10&#45;&gt;Node11</title>
<g id="a_edge14_Node000010_Node000011"><a xlink:title=" ">
<path fill="none" stroke="#63b8ff" d="M285.09,-100.5C300.8,-100.5 317.94,-100.5 334.28,-100.5"/>
<polygon fill="#63b8ff" stroke="#63b8ff" points="334.33,-104 344.33,-100.5 334.33,-97 334.33,-104"/>
</a>
</g>
</g>
<!-- Node13 -->
<g id="Node000013" class="node">
<title>Node13</title>
<g id="a_Node000013"><a xlink:href="classttg_1_1_t_t_base.html#a8df5f854fcc708a526c7d616be00d1a6" target="_top" xlink:title=" ">
<polygon fill="white" stroke="#666666" points="476,-62 341,-62 341,-43 476,-43 476,-62"/>
<text text-anchor="middle" x="408.5" y="-50" font-family="Times,serif" font-size="10.00">ttg::TTBase::set_output</text>
</a>
</g>
</g>
<!-- Node12&#45;&gt;Node13 -->
<g id="edge16_Node000012_Node000013" class="edge">
<title>Node12&#45;&gt;Node13</title>
<g id="a_edge16_Node000012_Node000013"><a xlink:title=" ">
<path fill="none" stroke="#63b8ff" d="M285.09,-52.5C299.58,-52.5 315.28,-52.5 330.45,-52.5"/>
<polygon fill="#63b8ff" stroke="#63b8ff" points="330.84,-56 340.84,-52.5 330.84,-49 330.84,-56"/>
</a>
</g>
</g>
</g>
</svg>
