<?xml version="1.0" encoding="UTF-8" standalone="no"?>
<!DOCTYPE svg PUBLIC "-//W3C//DTD SVG 1.1//EN"
 "http://www.w3.org/Graphics/SVG/1.1/DTD/svg11.dtd">
<!-- Generated by graphviz version 2.43.0 (0)
 -->
<!-- Title: ttg_madness::TT::set_input_reducer Pages: 1 -->
<svg width="589pt" height="253pt"
 viewBox="0.00 0.00 589.00 252.50" xmlns="http://www.w3.org/2000/svg" xmlns:xlink="http://www.w3.org/1999/xlink">
<g id="graph0" class="graph" transform="scale(1 1) rotate(0) translate(4 248.5)">
<title>ttg_madness::TT::set_input_reducer</title>
<!-- Node1 -->
<g id="Node000001" class="node">
<title>Node1</title>
<g id="a_Node000001"><a xlink:title=" ">
<polygon fill="#999999" stroke="#666666" points="122,-176 0,-176 0,-146 122,-146 122,-176"/>
<text text-anchor="start" x="8" y="-164" font-family="Times,serif" font-size="10.00">ttg_madness::TT::set</text>
<text text-anchor="middle" x="61" y="-153" font-family="Times,serif" font-size="10.00">_input_reducer</text>
</a>
</g>
</g>
<!-- Node2 -->
<g id="Node000002" class="node">
<title>Node2</title>
<g id="a_Node000002"><a xlink:href="classttg__madness_1_1_t_t.html#a3fb0ab18d00c27fae64e1bd1b78d3d0d" target="_top" xlink:title=" ">
<polygon fill="white" stroke="#666666" points="285,-226.5 162,-226.5 162,-207.5 285,-207.5 285,-226.5"/>
<text text-anchor="middle" x="223.5" y="-214.5" font-family="Times,serif" font-size="10.00">ttg_madness::TT::get</text>
</a>
</g>
</g>
<!-- Node1&#45;&gt;Node2 -->
<g id="edge1_Node000001_Node000002" class="edge">
<title>Node1&#45;&gt;Node2</title>
<g id="a_edge1_Node000001_Node000002"><a xlink:title=" ">
<path fill="none" stroke="#63b8ff" d="M97.68,-176.16C115.62,-183.51 137.78,-192.2 158,-199 163.72,-200.92 169.77,-202.81 175.78,-204.59"/>
<polygon fill="#63b8ff" stroke="#63b8ff" points="175.22,-208.07 185.8,-207.48 177.16,-201.34 175.22,-208.07"/>
</a>
</g>
</g>
<!-- Node3 -->
<g id="Node000003" class="node">
<title>Node3</title>
<g id="a_Node000003"><a xlink:href="classttg_1_1_t_t_base.html#ade3b1e6b149fe1124f7192aeca5f715c" target="_top" xlink:title="Gets the name of this operation.">
<polygon fill="white" stroke="#666666" points="289,-189.5 158,-189.5 158,-170.5 289,-170.5 289,-189.5"/>
<text text-anchor="middle" x="223.5" y="-177.5" font-family="Times,serif" font-size="10.00">ttg::TTBase::get_name</text>
</a>
</g>
</g>
<!-- Node1&#45;&gt;Node3 -->
<g id="edge3_Node000001_Node000003" class="edge">
<title>Node1&#45;&gt;Node3</title>
<g id="a_edge3_Node000001_Node000003"><a xlink:title=" ">
<path fill="none" stroke="#63b8ff" d="M122.22,-168.13C130.6,-169.12 139.28,-170.15 147.88,-171.17"/>
<polygon fill="#63b8ff" stroke="#63b8ff" points="147.57,-174.65 157.91,-172.35 148.39,-167.7 147.57,-174.65"/>
</a>
</g>
</g>
<!-- Node4 -->
<g id="Node000004" class="node">
<title>Node4</title>
<g id="a_Node000004"><a xlink:href="classttg_1_1base_1_1_world.html#a7c354d1e43268884cb3b947f44ce0f5e" target="_top" xlink:title=" ">
<polygon fill="white" stroke="#666666" points="286.5,-152.5 160.5,-152.5 160.5,-133.5 286.5,-133.5 286.5,-152.5"/>
<text text-anchor="middle" x="223.5" y="-140.5" font-family="Times,serif" font-size="10.00">ttg::base::World::rank</text>
</a>
</g>
</g>
<!-- Node1&#45;&gt;Node4 -->
<g id="edge4_Node000001_Node000004" class="edge">
<title>Node1&#45;&gt;Node4</title>
<g id="a_edge4_Node000001_Node000004"><a xlink:title=" ">
<path fill="none" stroke="#63b8ff" d="M122.22,-154.25C131.37,-153.22 140.88,-152.15 150.25,-151.1"/>
<polygon fill="#63b8ff" stroke="#63b8ff" points="150.79,-154.56 160.34,-149.97 150.01,-147.61 150.79,-154.56"/>
</a>
</g>
</g>
<!-- Node6 -->
<g id="Node000006" class="node">
<title>Node6</title>
<g id="a_Node000006"><a xlink:href="namespacettg.html#af5e470229c1ddef41b83b6398a5dc583" target="_top" xlink:title=" ">
<polygon fill="white" stroke="#666666" points="254.5,-93.5 192.5,-93.5 192.5,-74.5 254.5,-74.5 254.5,-93.5"/>
<text text-anchor="middle" x="223.5" y="-81.5" font-family="Times,serif" font-size="10.00">ttg::trace</text>
</a>
</g>
</g>
<!-- Node1&#45;&gt;Node6 -->
<g id="edge6_Node000001_Node000006" class="edge">
<title>Node1&#45;&gt;Node6</title>
<g id="a_edge6_Node000001_Node000006"><a xlink:title=" ">
<path fill="none" stroke="#63b8ff" d="M93.33,-145.97C122.22,-132.11 164.78,-111.69 193.06,-98.13"/>
<polygon fill="#63b8ff" stroke="#63b8ff" points="194.91,-101.12 202.41,-93.64 191.88,-94.81 194.91,-101.12"/>
</a>
</g>
</g>
<!-- Node2&#45;&gt;Node2 -->
<g id="edge2_Node000002_Node000002" class="edge">
<title>Node2&#45;&gt;Node2</title>
<g id="a_edge2_Node000002_Node000002"><a xlink:title=" ">
<path fill="none" stroke="#63b8ff" d="M199.46,-226.58C187.76,-235.23 195.77,-244.5 223.5,-244.5 241.7,-244.5 251.4,-240.51 252.62,-235.32"/>
<polygon fill="#63b8ff" stroke="#63b8ff" points="255.59,-233.47 247.54,-226.58 249.54,-236.99 255.59,-233.47"/>
</a>
</g>
</g>
<!-- Node5 -->
<g id="Node000005" class="node">
<title>Node5</title>
<g id="a_Node000005"><a xlink:href="classttg_1_1base_1_1_world.html#af39ca1832f455a94134515f94aaa8533" target="_top" xlink:title=" ">
<polygon fill="white" stroke="#666666" points="436,-180 325,-180 325,-150 436,-150 436,-180"/>
<text text-anchor="start" x="333" y="-168" font-family="Times,serif" font-size="10.00">ttg::base::World::is</text>
<text text-anchor="middle" x="380.5" y="-157" font-family="Times,serif" font-size="10.00">_valid</text>
</a>
</g>
</g>
<!-- Node4&#45;&gt;Node5 -->
<g id="edge5_Node000004_Node000005" class="edge">
<title>Node4&#45;&gt;Node5</title>
<g id="a_edge5_Node000004_Node000005"><a xlink:title=" ">
<path fill="none" stroke="#63b8ff" d="M286.65,-151.82C295.93,-153.14 305.51,-154.5 314.84,-155.82"/>
<polygon fill="#63b8ff" stroke="#63b8ff" points="314.44,-159.3 324.84,-157.24 315.43,-152.37 314.44,-159.3"/>
</a>
</g>
</g>
<!-- Node7 -->
<g id="Node000007" class="node">
<title>Node7</title>
<g id="a_Node000007"><a xlink:href="namespacettg.html#aacacfe8bc9582308a405c4370650a9d4" target="_top" xlink:title="atomically prints to std::clog a sequence of items (separated by ttg::print_separator) followed by st...">
<polygon fill="white" stroke="#666666" points="407,-131.5 354,-131.5 354,-112.5 407,-112.5 407,-131.5"/>
<text text-anchor="middle" x="380.5" y="-119.5" font-family="Times,serif" font-size="10.00">ttg::log</text>
</a>
</g>
</g>
<!-- Node6&#45;&gt;Node7 -->
<g id="edge7_Node000006_Node000007" class="edge">
<title>Node6&#45;&gt;Node7</title>
<g id="a_edge7_Node000006_Node000007"><a xlink:title=" ">
<path fill="none" stroke="#63b8ff" d="M254.75,-91.42C280.38,-97.7 317.14,-106.71 344.12,-113.33"/>
<polygon fill="#63b8ff" stroke="#63b8ff" points="343.4,-116.75 353.94,-115.73 345.06,-109.95 343.4,-116.75"/>
</a>
</g>
</g>
<!-- Node9 -->
<g id="Node000009" class="node">
<title>Node9</title>
<g id="a_Node000009"><a xlink:href="namespacettg.html#afbdd9c742be395e0746fdbc26c7d55cc" target="_top" xlink:title="returns whether tracing was enabled at configure time">
<polygon fill="white" stroke="#666666" points="581,-81.5 472,-81.5 472,-62.5 581,-62.5 581,-81.5"/>
<text text-anchor="middle" x="526.5" y="-69.5" font-family="Times,serif" font-size="10.00">ttg::trace_enabled</text>
</a>
</g>
</g>
<!-- Node6&#45;&gt;Node9 -->
<g id="edge9_Node000006_Node000009" class="edge">
<title>Node6&#45;&gt;Node9</title>
<g id="a_edge9_Node000006_Node000009"><a xlink:title=" ">
<path fill="none" stroke="#63b8ff" d="M254.74,-82.79C302.82,-80.88 397.78,-77.09 461.47,-74.55"/>
<polygon fill="#63b8ff" stroke="#63b8ff" points="461.95,-78.04 471.8,-74.14 461.67,-71.04 461.95,-78.04"/>
</a>
</g>
</g>
<!-- Node10 -->
<g id="Node000010" class="node">
<title>Node10</title>
<g id="a_Node000010"><a xlink:href="namespacettg.html#abfb8501d408a1ed918cc2a540865a2d8" target="_top" xlink:title="returns whether tracing is enabled">
<polygon fill="white" stroke="#666666" points="417,-55.5 344,-55.5 344,-36.5 417,-36.5 417,-55.5"/>
<text text-anchor="middle" x="380.5" y="-43.5" font-family="Times,serif" font-size="10.00">ttg::tracing</text>
</a>
</g>
</g>
<!-- Node6&#45;&gt;Node10 -->
<g id="edge10_Node000006_Node000010" class="edge">
<title>Node6&#45;&gt;Node10</title>
<g id="a_edge10_Node000006_Node000010"><a xlink:title=" ">
<path fill="none" stroke="#63b8ff" d="M254.75,-76.58C277.31,-71.05 308.5,-63.41 334.05,-57.14"/>
<polygon fill="#63b8ff" stroke="#63b8ff" points="335.01,-60.51 343.89,-54.73 333.34,-53.71 335.01,-60.51"/>
</a>
</g>
</g>
<!-- Node8 -->
<g id="Node000008" class="node">
<title>Node8</title>
<g id="a_Node000008"><a xlink:href="namespacettg_1_1detail.html#a26e07486d5ef8eb5735a8975991a7693" target="_top" xlink:title=" ">
<polygon fill="white" stroke="#666666" points="574.5,-137 478.5,-137 478.5,-107 574.5,-107 574.5,-137"/>
<text text-anchor="start" x="486.5" y="-125" font-family="Times,serif" font-size="10.00">ttg::detail::print</text>
<text text-anchor="middle" x="526.5" y="-114" font-family="Times,serif" font-size="10.00">_helper</text>
</a>
</g>
</g>
<!-- Node7&#45;&gt;Node8 -->
<g id="edge8_Node000007_Node000008" class="edge">
<title>Node7&#45;&gt;Node8</title>
<g id="a_edge8_Node000007_Node000008"><a xlink:title=" ">
<path fill="none" stroke="#63b8ff" d="M407.24,-122C424.21,-122 447.11,-122 468.24,-122"/>
<polygon fill="#63b8ff" stroke="#63b8ff" points="468.44,-125.5 478.44,-122 468.44,-118.5 468.44,-125.5"/>
</a>
</g>
</g>
<!-- Node10&#45;&gt;Node9 -->
<g id="edge13_Node000010_Node000009" class="edge">
<title>Node10&#45;&gt;Node9</title>
<g id="a_edge13_Node000010_Node000009"><a xlink:title=" ">
<path fill="none" stroke="#63b8ff" d="M417.1,-52.43C430.83,-54.91 446.96,-57.82 462.52,-60.63"/>
<polygon fill="#63b8ff" stroke="#63b8ff" points="462.17,-64.12 472.63,-62.45 463.41,-57.23 462.17,-64.12"/>
</a>
</g>
</g>
<!-- Node11 -->
<g id="Node000011" class="node">
<title>Node11</title>
<g id="a_Node000011"><a xlink:href="namespacettg_1_1detail.html#a95356c3874e7ec9268a40feb4fc1519f" target="_top" xlink:title=" ">
<polygon fill="white" stroke="#666666" points="575,-30 478,-30 478,0 575,0 575,-30"/>
<text text-anchor="start" x="486" y="-18" font-family="Times,serif" font-size="10.00">ttg::detail::trace</text>
<text text-anchor="middle" x="526.5" y="-7" font-family="Times,serif" font-size="10.00">_accessor</text>
</a>
</g>
</g>
<!-- Node10&#45;&gt;Node11 -->
<g id="edge11_Node000010_Node000011" class="edge">
<title>Node10&#45;&gt;Node11</title>
<g id="a_edge11_Node000010_Node000011"><a xlink:title=" ">
<path fill="none" stroke="#63b8ff" d="M417.1,-38.34C432.41,-35.04 450.71,-31.1 467.88,-27.41"/>
<polygon fill="#63b8ff" stroke="#63b8ff" points="468.78,-30.79 477.82,-25.26 467.31,-23.95 468.78,-30.79"/>
</a>
</g>
</g>
<!-- Node11&#45;&gt;Node6 -->
<g id="edge12_Node000011_Node000006" class="edge">
<title>Node11&#45;&gt;Node6</title>
<g id="a_edge12_Node000011_Node000006"><a xlink:title=" ">
<path fill="none" stroke="#63b8ff" d="M477.87,-11.87C436.58,-10.55 375.66,-12 325,-27 295.28,-35.8 264.82,-54.74 245.34,-68.38"/>
<polygon fill="#63b8ff" stroke="#63b8ff" points="243.04,-65.72 236.96,-74.4 247.13,-71.41 243.04,-65.72"/>
</a>
</g>
</g>
</g>
</svg>
