<?xml version="1.0" encoding="UTF-8" standalone="no"?>
<!DOCTYPE svg PUBLIC "-//W3C//DTD SVG 1.1//EN"
 "http://www.w3.org/Graphics/SVG/1.1/DTD/svg11.dtd">
<!-- Generated by graphviz version 2.43.0 (0)
 -->
<!-- Title: ttg_parsec::TT::invoke Pages: 1 -->
<svg width="620pt" height="148pt"
 viewBox="0.00 0.00 620.00 148.11" xmlns="http://www.w3.org/2000/svg" xmlns:xlink="http://www.w3.org/1999/xlink">
<g id="graph0" class="graph" transform="scale(1 1) rotate(0) translate(4 144.11)">
<title>ttg_parsec::TT::invoke</title>
<!-- Node1 -->
<g id="Node000001" class="node">
<title>Node1</title>
<g id="a_Node000001"><a xlink:title=" ">
<polygon fill="#999999" stroke="#666666" points="128,-76 0,-76 0,-57 128,-57 128,-76"/>
<text text-anchor="middle" x="64" y="-64" font-family="Times,serif" font-size="10.00">ttg_parsec::TT::invoke</text>
</a>
</g>
</g>
<!-- Node2 -->
<g id="Node000002" class="node">
<title>Node2</title>
<g id="a_Node000002"><a xlink:href="classttg__parsec_1_1_t_t.html#aab59a1bf0fcc4f771457b5f05cb42741" target="_top" xlink:title=" ">
<polygon fill="white" stroke="#666666" points="612,-57 501,-57 501,-38 612,-38 612,-57"/>
<text text-anchor="middle" x="556.5" y="-45" font-family="Times,serif" font-size="10.00">ttg_parsec::TT::get</text>
</a>
</g>
</g>
<!-- Node1&#45;&gt;Node2 -->
<g id="edge1_Node000001_Node000002" class="edge">
<title>Node1&#45;&gt;Node2</title>
<g id="a_edge1_Node000001_Node000002"><a xlink:title=" ">
<path fill="none" stroke="#63b8ff" d="M85.69,-76.11C146.05,-102.76 326.47,-172.44 465,-122.5 496.63,-111.1 525.03,-83.3 541.26,-64.94"/>
<polygon fill="#63b8ff" stroke="#63b8ff" points="543.99,-67.14 547.83,-57.26 538.67,-62.59 543.99,-67.14"/>
</a>
</g>
</g>
<!-- Node3 -->
<g id="Node000003" class="node">
<title>Node3</title>
<g id="a_Node000003"><a xlink:href="namespacettg_1_1meta.html#affd90f350d054c6a5b4859644d834172" target="_top" xlink:title=" ">
<polygon fill="white" stroke="#666666" points="439,-95 354,-95 354,-76 439,-76 439,-95"/>
<text text-anchor="middle" x="396.5" y="-83" font-family="Times,serif" font-size="10.00">ttg::meta::get</text>
</a>
</g>
</g>
<!-- Node1&#45;&gt;Node3 -->
<g id="edge3_Node000001_Node000003" class="edge">
<title>Node1&#45;&gt;Node3</title>
<g id="a_edge3_Node000001_Node000003"><a xlink:title=" ">
<path fill="none" stroke="#63b8ff" d="M128.33,-70.14C190.93,-73.74 285.53,-79.18 343.75,-82.53"/>
<polygon fill="#63b8ff" stroke="#63b8ff" points="343.65,-86.02 353.83,-83.1 344.05,-79.04 343.65,-86.02"/>
</a>
</g>
</g>
<!-- Node4 -->
<g id="Node000004" class="node">
<title>Node4</title>
<g id="a_Node000004"><a xlink:href="classttg__parsec_1_1_t_t.html#a5ea389d7d61418b2bef42db57b3ac927" target="_top" xlink:title=" ">
<polygon fill="white" stroke="#666666" points="292,-57 164,-57 164,-38 292,-38 292,-57"/>
<text text-anchor="middle" x="228" y="-45" font-family="Times,serif" font-size="10.00">ttg_parsec::TT::invoke</text>
</a>
</g>
</g>
<!-- Node1&#45;&gt;Node4 -->
<g id="edge5_Node000001_Node000004" class="edge">
<title>Node1&#45;&gt;Node4</title>
<g id="a_edge5_Node000001_Node000004"><a xlink:title=" ">
<path fill="none" stroke="#63b8ff" d="M128.1,-59.1C136.53,-58.11 145.23,-57.09 153.81,-56.08"/>
<polygon fill="#63b8ff" stroke="#63b8ff" points="154.28,-59.55 163.81,-54.91 153.47,-52.6 154.28,-59.55"/>
</a>
</g>
</g>
<!-- Node5 -->
<g id="Node000005" class="node">
<title>Node5</title>
<g id="a_Node000005"><a xlink:href="classttg__parsec_1_1_t_t.html#a55afaaaabd276251b531942c1ff5abe4" target="_top" xlink:title=" ">
<polygon fill="white" stroke="#666666" points="465,-19 328,-19 328,0 465,0 465,-19"/>
<text text-anchor="middle" x="396.5" y="-7" font-family="Times,serif" font-size="10.00">ttg_parsec::TT::set_args</text>
</a>
</g>
</g>
<!-- Node1&#45;&gt;Node5 -->
<g id="edge10_Node000001_Node000005" class="edge">
<title>Node1&#45;&gt;Node5</title>
<g id="a_edge10_Node000001_Node000005"><a xlink:title=" ">
<path fill="none" stroke="#63b8ff" d="M84.95,-56.9C104.58,-47.93 135.64,-34.97 164,-28.5 214.44,-17 272.47,-12.25 317.81,-10.38"/>
<polygon fill="#63b8ff" stroke="#63b8ff" points="318.01,-13.88 327.87,-10 317.75,-6.88 318.01,-13.88"/>
</a>
</g>
</g>
<!-- Node2&#45;&gt;Node2 -->
<g id="edge2_Node000002_Node000002" class="edge">
<title>Node2&#45;&gt;Node2</title>
<g id="a_edge2_Node000002_Node000002"><a xlink:title=" ">
<path fill="none" stroke="#63b8ff" d="M531.84,-57.08C519.84,-65.73 528.06,-75 556.5,-75 575.16,-75 585.12,-71.01 586.37,-65.82"/>
<polygon fill="#63b8ff" stroke="#63b8ff" points="589.29,-63.88 581.16,-57.08 583.27,-67.47 589.29,-63.88"/>
</a>
</g>
</g>
<!-- Node3&#45;&gt;Node3 -->
<g id="edge4_Node000003_Node000003" class="edge">
<title>Node3&#45;&gt;Node3</title>
<g id="a_edge4_Node000003_Node000003"><a xlink:title=" ">
<path fill="none" stroke="#63b8ff" d="M371.84,-95.08C359.84,-103.73 368.06,-113 396.5,-113 415.16,-113 425.12,-109.01 426.37,-103.82"/>
<polygon fill="#63b8ff" stroke="#63b8ff" points="429.29,-101.88 421.16,-95.08 423.27,-105.47 429.29,-101.88"/>
</a>
</g>
</g>
<!-- Node4&#45;&gt;Node2 -->
<g id="edge6_Node000004_Node000002" class="edge">
<title>Node4&#45;&gt;Node2</title>
<g id="a_edge6_Node000004_Node000002"><a xlink:title=" ">
<path fill="none" stroke="#63b8ff" d="M292.34,-47.5C349.46,-47.5 433.09,-47.5 490.67,-47.5"/>
<polygon fill="#63b8ff" stroke="#63b8ff" points="490.74,-51 500.74,-47.5 490.74,-44 490.74,-51"/>
</a>
</g>
</g>
<!-- Node4&#45;&gt;Node3 -->
<g id="edge7_Node000004_Node000003" class="edge">
<title>Node4&#45;&gt;Node3</title>
<g id="a_edge7_Node000004_Node000003"><a xlink:title=" ">
<path fill="none" stroke="#63b8ff" d="M271.01,-57.09C293.18,-62.15 320.57,-68.4 344.01,-73.75"/>
<polygon fill="#63b8ff" stroke="#63b8ff" points="343.26,-77.17 353.79,-75.98 344.82,-70.34 343.26,-77.17"/>
</a>
</g>
</g>
<!-- Node4&#45;&gt;Node5 -->
<g id="edge8_Node000004_Node000005" class="edge">
<title>Node4&#45;&gt;Node5</title>
<g id="a_edge8_Node000004_Node000005"><a xlink:title=" ">
<path fill="none" stroke="#63b8ff" d="M271.01,-37.91C293.18,-32.85 320.57,-26.6 344.01,-21.25"/>
<polygon fill="#63b8ff" stroke="#63b8ff" points="344.82,-24.66 353.79,-19.02 343.26,-17.83 344.82,-24.66"/>
</a>
</g>
</g>
<!-- Node5&#45;&gt;Node2 -->
<g id="edge9_Node000005_Node000002" class="edge">
<title>Node5&#45;&gt;Node2</title>
<g id="a_edge9_Node000005_Node000002"><a xlink:title=" ">
<path fill="none" stroke="#63b8ff" d="M437.37,-19.09C458.22,-24.1 483.93,-30.29 506.04,-35.61"/>
<polygon fill="#63b8ff" stroke="#63b8ff" points="505.38,-39.04 515.92,-37.98 507.01,-32.24 505.38,-39.04"/>
</a>
</g>
</g>
</g>
</svg>
