<?xml version="1.0" encoding="UTF-8" standalone="no"?>
<!DOCTYPE svg PUBLIC "-//W3C//DTD SVG 1.1//EN"
 "http://www.w3.org/Graphics/SVG/1.1/DTD/svg11.dtd">
<!-- Generated by graphviz version 2.43.0 (0)
 -->
<!-- Title: ttg_madness::WorldImpl::~WorldImpl Pages: 1 -->
<!--zoomable 182 -->

<svg id="main" version="1.1" xmlns="http://www.w3.org/2000/svg" xmlns:xlink="http://www.w3.org/1999/xlink" xml:space="preserve" onload="init(evt)">
<style type="text/css"><![CDATA[
.node, .edge {opacity: 0.7;}
.node.selected, .edge.selected {opacity: 1;}
.edge:hover path { stroke: red; }
.edge:hover polygon { stroke: red; fill: red; }
]]></style>

<defs>
  <circle id="rim" cx="0" cy="0" r="7"/>
  <circle id="rim2" cx="0" cy="0" r="3.5"/>
  <g id="zoomPlus">
    <use xlink:href="#rim" fill="#404040"><set attributeName="fill" to="#808080" begin="zoomplus.mouseover" end="zoomplus.mouseout"/></use>
    <path d="M-4,0h8M0,-4v8" fill="none" stroke="white" stroke-width="1.5" pointer-events="none"/>
  </g>
  <g id="zoomMin">
    <use xlink:href="#rim" fill="#404040"><set attributeName="fill" to="#808080" begin="zoomminus.mouseover" end="zoomminus.mouseout"/></use>
    <path d="M-4,0h8" fill="none" stroke="white" stroke-width="1.5" pointer-events="none"/>
  </g>
  <g id="arrowUp" transform="translate(30 24)">
    <use xlink:href="#rim"/>
    <path pointer-events="none" fill="none" stroke="white" stroke-width="1.5" d="M0,-3.0v7 M-2.5,-0.5L0,-3.0L2.5,-0.5"/>
  </g>
  <g id="arrowRight" transform="rotate(90) translate(36 -43)">
    <use xlink:href="#rim"/>
    <path pointer-events="none" fill="none" stroke="white" stroke-width="1.5" d="M0,-3.0v7 M-2.5,-0.5L0,-3.0L2.5,-0.5"/>
  </g>
  <g id="arrowDown" transform="rotate(180) translate(-30 -48)">
    <use xlink:href="#rim"/>
    <path pointer-events="none" fill="none" stroke="white" stroke-width="1.5" d="M0,-3.0v7 M-2.5,-0.5L0,-3.0L2.5,-0.5"/>
  </g>
  <g id="arrowLeft" transform="rotate(270) translate(-36 17)">
    <use xlink:href="#rim"/>
    <path pointer-events="none" fill="none" stroke="white" stroke-width="1.5" d="M0,-3.0v7 M-2.5,-0.5L0,-3.0L2.5,-0.5"/>
  </g>
  <g id="resetDef">
    <use xlink:href="#rim2" fill="#404040"><set attributeName="fill" to="#808080" begin="reset.mouseover" end="reset.mouseout"/></use>
  </g>
</defs>
<script type="application/ecmascript">
var viewWidth = 507;
var viewHeight = 182;
var sectionId = 'dynsection-2';
</script>
<script type="application/ecmascript" xlink:href="svg.min.js"/>
<svg id="graph" class="graph">
<g id="viewport">
<title>ttg_madness::WorldImpl::~WorldImpl</title>
<!-- Node1 -->
<g id="Node000001" class="node">
<title>Node1</title>
<g id="a_Node000001"><a xlink:title=" ">
<polygon fill="#999999" stroke="#666666" points="141,-102 0,-102 0,-72 141,-72 141,-102"/>
<text text-anchor="start" x="8" y="-90" font-family="Times,serif" font-size="10.00">ttg_madness::WorldImpl</text>
<text text-anchor="middle" x="70.5" y="-79" font-family="Times,serif" font-size="10.00">::~WorldImpl</text>
</a>
</g>
</g>
<!-- Node2 -->
<g id="Node000002" class="node">
<title>Node2</title>
<g id="a_Node000002"><a xlink:href="classttg__madness_1_1_world_impl.html#acaed2630a3cc07893cff1f92032d56ce" target="_top" xlink:title=" ">
<polygon fill="white" stroke="#666666" points="318,-102 177,-102 177,-72 318,-72 318,-102"/>
<text text-anchor="start" x="185" y="-90" font-family="Times,serif" font-size="10.00">ttg_madness::WorldImpl</text>
<text text-anchor="middle" x="247.5" y="-79" font-family="Times,serif" font-size="10.00">::destroy</text>
</a>
</g>
</g>
<!-- Node1&#45;&gt;Node2 -->
<g id="edge1_Node000001_Node000002" class="edge">
<title>Node1&#45;&gt;Node2</title>
<g id="a_edge1_Node000001_Node000002"><a xlink:title=" ">
<path fill="none" stroke="#63b8ff" d="M141.17,-87C149.5,-87 158.06,-87 166.53,-87"/>
<polygon fill="#63b8ff" stroke="#63b8ff" points="166.79,-90.5 176.79,-87 166.79,-83.5 166.79,-90.5"/>
</a>
</g>
</g>
<!-- Node3 -->
<g id="Node000003" class="node">
<title>Node3</title>
<g id="a_Node000003"><a xlink:href="namespacettg_1_1detail.html#a0737a159633e6fbe20a71c7297ba3645" target="_top" xlink:title=" ">
<polygon fill="white" stroke="#666666" points="488.5,-174 364.5,-174 364.5,-144 488.5,-144 488.5,-174"/>
<text text-anchor="start" x="372.5" y="-162" font-family="Times,serif" font-size="10.00">ttg::detail::deregister</text>
<text text-anchor="middle" x="426.5" y="-151" font-family="Times,serif" font-size="10.00">_world</text>
</a>
</g>
</g>
<!-- Node2&#45;&gt;Node3 -->
<g id="edge2_Node000002_Node000003" class="edge">
<title>Node2&#45;&gt;Node3</title>
<g id="a_edge2_Node000002_Node000003"><a xlink:title=" ">
<path fill="none" stroke="#63b8ff" d="M279.53,-102.14C300.36,-112.05 328.54,-124.97 354,-135 358.75,-136.87 363.71,-138.73 368.71,-140.54"/>
<polygon fill="#63b8ff" stroke="#63b8ff" points="367.73,-143.9 378.33,-143.94 370.07,-137.3 367.73,-143.9"/>
</a>
</g>
</g>
<!-- Node4 -->
<g id="Node000004" class="node">
<title>Node4</title>
<g id="a_Node000004"><a xlink:href="classttg_1_1base_1_1_world_impl_base.html#ae8af1cf2a5cccc4d5066492a5d041630" target="_top" xlink:title=" ">
<polygon fill="white" stroke="#666666" points="499,-126 354,-126 354,-96 499,-96 499,-126"/>
<text text-anchor="start" x="362" y="-114" font-family="Times,serif" font-size="10.00">ttg::base::WorldImplBase</text>
<text text-anchor="middle" x="426.5" y="-103" font-family="Times,serif" font-size="10.00">::is_valid</text>
</a>
</g>
</g>
<!-- Node2&#45;&gt;Node4 -->
<g id="edge3_Node000002_Node000004" class="edge">
<title>Node2&#45;&gt;Node4</title>
<g id="a_edge3_Node000002_Node000004"><a xlink:title=" ">
<path fill="none" stroke="#63b8ff" d="M318.2,-96.45C326.61,-97.59 335.27,-98.76 343.83,-99.93"/>
<polygon fill="#63b8ff" stroke="#63b8ff" points="343.45,-103.41 353.83,-101.28 344.39,-96.47 343.45,-103.41"/>
</a>
</g>
</g>
<!-- Node5 -->
<g id="Node000005" class="node">
<title>Node5</title>
<g id="a_Node000005"><a xlink:href="classttg_1_1base_1_1_world_impl_base.html#ad1471b7fb4deb6279b873a58b2d3af5d" target="_top" xlink:title=" ">
<polygon fill="white" stroke="#666666" points="499,-78 354,-78 354,-48 499,-48 499,-78"/>
<text text-anchor="start" x="362" y="-66" font-family="Times,serif" font-size="10.00">ttg::base::WorldImplBase</text>
<text text-anchor="middle" x="426.5" y="-55" font-family="Times,serif" font-size="10.00">::mark_invalid</text>
</a>
</g>
</g>
<!-- Node2&#45;&gt;Node5 -->
<g id="edge4_Node000002_Node000005" class="edge">
<title>Node2&#45;&gt;Node5</title>
<g id="a_edge4_Node000002_Node000005"><a xlink:title=" ">
<path fill="none" stroke="#63b8ff" d="M318.2,-77.55C326.61,-76.41 335.27,-75.24 343.83,-74.07"/>
<polygon fill="#63b8ff" stroke="#63b8ff" points="344.39,-77.53 353.83,-72.72 343.45,-70.59 344.39,-77.53"/>
</a>
</g>
</g>
<!-- Node6 -->
<g id="Node000006" class="node">
<title>Node6</title>
<g id="a_Node000006"><a xlink:href="classttg_1_1base_1_1_world_impl_base.html#a4cf5efcd1c577c54c6634708a141230b" target="_top" xlink:title=" ">
<polygon fill="white" stroke="#666666" points="499,-30 354,-30 354,0 499,0 499,-30"/>
<text text-anchor="start" x="362" y="-18" font-family="Times,serif" font-size="10.00">ttg::base::WorldImplBase</text>
<text text-anchor="middle" x="426.5" y="-7" font-family="Times,serif" font-size="10.00">::release_ops</text>
</a>
</g>
</g>
<!-- Node2&#45;&gt;Node6 -->
<g id="edge5_Node000002_Node000006" class="edge">
<title>Node2&#45;&gt;Node6</title>
<g id="a_edge5_Node000002_Node000006"><a xlink:title=" ">
<path fill="none" stroke="#63b8ff" d="M279.53,-71.86C300.36,-61.95 328.54,-49.03 354,-39 358.75,-37.13 363.71,-35.27 368.71,-33.46"/>
<polygon fill="#63b8ff" stroke="#63b8ff" points="370.07,-36.7 378.33,-30.06 367.73,-30.1 370.07,-36.7"/>
</a>
</g>
</g>
</g>
</svg>

<g id="navigator" transform="translate(0 0)" fill="#404254">
  <rect fill="#f2f5e9" fill-opacity="0.5" stroke="#606060" stroke-width=".5" x="0" y="0" width="60" height="60"/>
  <use id="zoomplus" xlink:href="#zoomPlus" x="17" y="9" onmousedown="handleZoom(evt,'in')"/>
  <use id="zoomminus" xlink:href="#zoomMin" x="42" y="9" onmousedown="handleZoom(evt,'out')"/>
  <use id="reset" xlink:href="#resetDef" x="30" y="36" onmousedown="handleReset()"/>
   <use id="arrowup" xlink:href="#arrowUp" x="0" y="0" onmousedown="handlePan(0,-1)"/>
  <use id="arrowright" xlink:href="#arrowRight" x="0" y="0" onmousedown="handlePan(1,0)"/>
  <use id="arrowdown" xlink:href="#arrowDown" x="0" y="0" onmousedown="handlePan(0,1)"/>
  <use id="arrowleft" xlink:href="#arrowLeft" x="0" y="0" onmousedown="handlePan(-1,0)"/>
</g>
<svg viewBox="0 0 15 15" width="100%" height="30px" preserveAspectRatio="xMaxYMin meet">
 <g id="arrow_out" transform="scale(0.3 0.3)">
  <a xlink:href="classttg__madness_1_1_world_impl_aa5cb0ba86aed7a4e5a986d30c24d467f_cgraph_org.svg" target="_base">
   <rect id="button" ry="5" rx="5" y="6" x="6" height="38" width="38"
        fill="#f2f5e9" fill-opacity="0.5" stroke="#606060" stroke-width="1.0"/>
   <path id="arrow"
     d="M 11.500037,31.436501 C 11.940474,20.09759 22.043105,11.32322 32.158766,21.979434 L 37.068811,17.246167 C 37.068811,17.246167 37.088388,32 37.088388,32 L 22.160133,31.978069 C 22.160133,31.978069 26.997745,27.140456 26.997745,27.140456 C 18.528582,18.264221 13.291696,25.230495 11.500037,31.436501 z"
     style="fill:#404040;"/>
  </a>
 </g>
</svg>

<style type='text/css'>
<![CDATA[
[data-mouse-over-selected='false'] { opacity: 0.7; }
[data-mouse-over-selected='true']  { opacity: 1.0; }
]]>
</style>
<script type="application/ecmascript"><![CDATA[
document.addEventListener('DOMContentLoaded', (event) => {
  highlightEdges();
  highlightAdjacentNodes();
});
]]></script>
</svg>
