<?xml version="1.0" encoding="UTF-8" standalone="no"?>
<!DOCTYPE svg PUBLIC "-//W3C//DTD SVG 1.1//EN"
 "http://www.w3.org/Graphics/SVG/1.1/DTD/svg11.dtd">
<!-- Generated by graphviz version 2.43.0 (0)
 -->
<!-- Title: ttg::base::World::impl Pages: 1 -->
<svg width="1000pt" height="1080pt"
 viewBox="0.00 0.00 1000.00 1079.50" xmlns="http://www.w3.org/2000/svg" xmlns:xlink="http://www.w3.org/1999/xlink">
<g id="graph0" class="graph" transform="scale(1 1) rotate(0) translate(4 1075.5)">
<title>ttg::base::World::impl</title>
<!-- Node1 -->
<g id="Node000001" class="node">
<title>Node1</title>
<g id="a_Node000001"><a xlink:title=" ">
<polygon fill="#999999" stroke="#666666" points="992,-490 867,-490 867,-471 992,-471 992,-490"/>
<text text-anchor="middle" x="929.5" y="-478" font-family="Times,serif" font-size="10.00">ttg::base::World::impl</text>
</a>
</g>
</g>
<!-- Node2 -->
<g id="Node000002" class="node">
<title>Node2</title>
<g id="a_Node000002"><a xlink:href="classttg__parsec_1_1_t_t.html#a7f42b8147186ddf49a3c1f2a5d49255f" target="_top" xlink:title=" ">
<polygon fill="white" stroke="#666666" points="787.5,-951.5 680.5,-951.5 680.5,-921.5 787.5,-921.5 787.5,-951.5"/>
<text text-anchor="start" x="688.5" y="-939.5" font-family="Times,serif" font-size="10.00">ttg_parsec::TT::do</text>
<text text-anchor="middle" x="734" y="-928.5" font-family="Times,serif" font-size="10.00">_release</text>
</a>
</g>
</g>
<!-- Node1&#45;&gt;Node2 -->
<g id="edge1_Node000001_Node000002" class="edge">
<title>Node1&#45;&gt;Node2</title>
<g id="a_edge1_Node000001_Node000002"><a xlink:title=" ">
<path fill="none" stroke="#63b8ff" d="M926.61,-500.12C918.98,-575.64 888,-846.43 831,-907.5 819.71,-919.59 803.58,-926.7 787.76,-930.86"/>
<polygon fill="#63b8ff" stroke="#63b8ff" points="930.11,-500.38 927.61,-490.08 923.14,-499.69 930.11,-500.38"/>
</a>
</g>
</g>
<!-- Node12 -->
<g id="Node000012" class="node">
<title>Node12</title>
<g id="a_Node000012"><a xlink:href="classttg__parsec_1_1_t_t.html#ac36a15986a5a4182b0cadb188014192a" target="_top" xlink:title="Marks this executable.">
<polygon fill="white" stroke="#666666" points="595,-867.5 473,-867.5 473,-837.5 595,-837.5 595,-867.5"/>
<text text-anchor="start" x="481" y="-855.5" font-family="Times,serif" font-size="10.00">ttg_parsec::TT::make</text>
<text text-anchor="middle" x="534" y="-844.5" font-family="Times,serif" font-size="10.00">_executable</text>
</a>
</g>
</g>
<!-- Node1&#45;&gt;Node12 -->
<g id="edge11_Node000001_Node000012" class="edge">
<title>Node1&#45;&gt;Node12</title>
<g id="a_edge11_Node000001_Node000012"><a xlink:title=" ">
<path fill="none" stroke="#63b8ff" d="M926.72,-500.51C919.74,-573.99 891.57,-827.09 831,-874.5 753.29,-935.32 626.21,-892.84 567.1,-867.57"/>
<polygon fill="#63b8ff" stroke="#63b8ff" points="930.23,-500.6 927.66,-490.32 923.26,-499.96 930.23,-500.6"/>
</a>
</g>
</g>
<!-- Node13 -->
<g id="Node000013" class="node">
<title>Node13</title>
<g id="a_Node000013"><a xlink:href="namespacettg__parsec.html#ab0a8e1ea240f4196cacccdeb8f15681e" target="_top" xlink:title=" ">
<polygon fill="white" stroke="#666666" points="831,-865 637,-865 637,-846 831,-846 831,-865"/>
<text text-anchor="middle" x="734" y="-853" font-family="Times,serif" font-size="10.00">ttg_parsec::make_executable_hook</text>
</a>
</g>
</g>
<!-- Node1&#45;&gt;Node13 -->
<g id="edge12_Node000001_Node000013" class="edge">
<title>Node1&#45;&gt;Node13</title>
<g id="a_edge12_Node000001_Node000013"><a xlink:title=" ">
<path fill="none" stroke="#63b8ff" d="M925.81,-500.4C916.25,-568.32 881.67,-789.35 831,-836.5 827.02,-840.2 822.53,-843.28 817.73,-845.82"/>
<polygon fill="#63b8ff" stroke="#63b8ff" points="929.32,-500.6 927.22,-490.21 922.39,-499.64 929.32,-500.6"/>
</a>
</g>
</g>
<!-- Node14 -->
<g id="Node000014" class="node">
<title>Node14</title>
<g id="a_Node000014"><a xlink:href="classttg__parsec_1_1_t_t.html#ab0bde8f642c472a5cf19274f7251268f" target="_top" xlink:title=" ">
<polygon fill="white" stroke="#666666" points="801,-827.5 667,-827.5 667,-797.5 801,-797.5 801,-827.5"/>
<text text-anchor="start" x="675" y="-815.5" font-family="Times,serif" font-size="10.00">ttg_parsec::TT::register</text>
<text text-anchor="middle" x="734" y="-804.5" font-family="Times,serif" font-size="10.00">_static_op_function</text>
</a>
</g>
</g>
<!-- Node1&#45;&gt;Node14 -->
<g id="edge13_Node000001_Node000014" class="edge">
<title>Node1&#45;&gt;Node14</title>
<g id="a_edge13_Node000001_Node000014"><a xlink:title=" ">
<path fill="none" stroke="#63b8ff" d="M928.47,-500.34C927.26,-554.92 916.07,-708.51 831,-788.5 822.61,-796.38 812.04,-801.79 801,-805.46"/>
<polygon fill="#63b8ff" stroke="#63b8ff" points="931.97,-500.31 928.6,-490.26 924.97,-500.22 931.97,-500.31"/>
</a>
</g>
</g>
<!-- Node15 -->
<g id="Node000015" class="node">
<title>Node15</title>
<g id="a_Node000015"><a xlink:href="classttg__parsec_1_1_t_t.html#a135452f67e8da6713f06a5f286654854" target="_top" xlink:title=" ">
<polygon fill="white" stroke="#666666" points="789,-779.5 679,-779.5 679,-749.5 789,-749.5 789,-779.5"/>
<text text-anchor="start" x="687" y="-767.5" font-family="Times,serif" font-size="10.00">ttg_parsec::TT::set</text>
<text text-anchor="middle" x="734" y="-756.5" font-family="Times,serif" font-size="10.00">_input_reducer</text>
</a>
</g>
</g>
<!-- Node1&#45;&gt;Node15 -->
<g id="edge15_Node000001_Node000015" class="edge">
<title>Node1&#45;&gt;Node15</title>
<g id="a_edge15_Node000001_Node000015"><a xlink:title=" ">
<path fill="none" stroke="#63b8ff" d="M927.16,-500.12C922.75,-548.63 904.43,-674.98 831,-740.5 819.46,-750.79 804.17,-756.82 789.19,-760.3"/>
<polygon fill="#63b8ff" stroke="#63b8ff" points="930.66,-500.28 927.97,-490.03 923.68,-499.72 930.66,-500.28"/>
</a>
</g>
</g>
<!-- Node16 -->
<g id="Node000016" class="node">
<title>Node16</title>
<g id="a_Node000016"><a xlink:href="classttg__parsec_1_1_t_t.html#a91ff2c4ba25da30a955c5f5a19ec5c89" target="_top" xlink:title=" ">
<polygon fill="white" stroke="#666666" points="788,-731 680,-731 680,-712 788,-712 788,-731"/>
<text text-anchor="middle" x="734" y="-719" font-family="Times,serif" font-size="10.00">ttg_parsec::TT::TT</text>
</a>
</g>
</g>
<!-- Node1&#45;&gt;Node16 -->
<g id="edge16_Node000001_Node000016" class="edge">
<title>Node1&#45;&gt;Node16</title>
<g id="a_edge16_Node000001_Node000016"><a xlink:title=" ">
<path fill="none" stroke="#63b8ff" d="M926,-500.54C919.36,-544.78 897.01,-650.99 831,-703.5 818.92,-713.11 803.3,-718.16 788.18,-720.68"/>
<polygon fill="#63b8ff" stroke="#63b8ff" points="929.49,-500.86 927.4,-490.48 922.56,-499.9 929.49,-500.86"/>
</a>
</g>
</g>
<!-- Node17 -->
<g id="Node000017" class="node">
<title>Node17</title>
<g id="a_Node000017"><a xlink:href="namespacettg__parsec.html#aa0dde9bdbe8109520fbd094fa980cf06" target="_top" xlink:title=" ">
<polygon fill="white" stroke="#666666" points="807,-694 661,-694 661,-675 807,-675 807,-694"/>
<text text-anchor="middle" x="734" y="-682" font-family="Times,serif" font-size="10.00">ttg_parsec::ttg_broadcast</text>
</a>
</g>
</g>
<!-- Node1&#45;&gt;Node17 -->
<g id="edge17_Node000001_Node000017" class="edge">
<title>Node1&#45;&gt;Node17</title>
<g id="a_edge17_Node000001_Node000017"><a xlink:title=" ">
<path fill="none" stroke="#63b8ff" d="M924.24,-500.08C914.75,-538.64 888.1,-624.28 831,-666.5 823.91,-671.74 815.74,-675.6 807.22,-678.41"/>
<polygon fill="#63b8ff" stroke="#63b8ff" points="927.69,-500.66 926.55,-490.13 920.88,-499.08 927.69,-500.66"/>
</a>
</g>
</g>
<!-- Node18 -->
<g id="Node000018" class="node">
<title>Node18</title>
<g id="a_Node000018"><a xlink:href="namespacettg__madness.html#ad760338470631d741f596b570dac59b0" target="_top" xlink:title=" ">
<polygon fill="white" stroke="#666666" points="813,-657 655,-657 655,-638 813,-638 813,-657"/>
<text text-anchor="middle" x="734" y="-645" font-family="Times,serif" font-size="10.00">ttg_madness::ttg_broadcast</text>
</a>
</g>
</g>
<!-- Node1&#45;&gt;Node18 -->
<g id="edge18_Node000001_Node000018" class="edge">
<title>Node1&#45;&gt;Node18</title>
<g id="a_edge18_Node000001_Node000018"><a xlink:title=" ">
<path fill="none" stroke="#63b8ff" d="M921.71,-499.74C909.19,-532.16 879.29,-597.28 831,-629.5 825.5,-633.17 819.45,-636.14 813.14,-638.54"/>
<polygon fill="#63b8ff" stroke="#63b8ff" points="925.09,-500.69 925.28,-490.1 918.52,-498.26 925.09,-500.69"/>
</a>
</g>
</g>
<!-- Node19 -->
<g id="Node000019" class="node">
<title>Node19</title>
<g id="a_Node000019"><a xlink:href="namespacettg__madness.html#a3e4eecf0b46347ed8c0334ae84c3eb19" target="_top" xlink:title=" ">
<polygon fill="white" stroke="#666666" points="809,-620 659,-620 659,-601 809,-601 809,-620"/>
<text text-anchor="middle" x="734" y="-608" font-family="Times,serif" font-size="10.00">ttg_madness::ttg_ctl_edge</text>
</a>
</g>
</g>
<!-- Node1&#45;&gt;Node19 -->
<g id="edge19_Node000001_Node000019" class="edge">
<title>Node1&#45;&gt;Node19</title>
<g id="a_edge19_Node000001_Node000019"><a xlink:title=" ">
<path fill="none" stroke="#63b8ff" d="M918.01,-498.91C902.49,-524.34 870.88,-569.67 831,-592.5 824.23,-596.38 816.79,-599.44 809.15,-601.86"/>
<polygon fill="#63b8ff" stroke="#63b8ff" points="921.07,-500.61 923.16,-490.22 915.05,-497.04 921.07,-500.61"/>
</a>
</g>
</g>
<!-- Node20 -->
<g id="Node000020" class="node">
<title>Node20</title>
<g id="a_Node000020"><a xlink:href="namespacettg__parsec.html#aa4b5a7f255eee32c46ca8bde5e87ac62" target="_top" xlink:title=" ">
<polygon fill="white" stroke="#666666" points="803,-583 665,-583 665,-564 803,-564 803,-583"/>
<text text-anchor="middle" x="734" y="-571" font-family="Times,serif" font-size="10.00">ttg_parsec::ttg_ctl_edge</text>
</a>
</g>
</g>
<!-- Node1&#45;&gt;Node20 -->
<g id="edge20_Node000001_Node000020" class="edge">
<title>Node1&#45;&gt;Node20</title>
<g id="a_edge20_Node000001_Node000020"><a xlink:title=" ">
<path fill="none" stroke="#63b8ff" d="M911.84,-497.37C893.63,-514.76 862.78,-541.29 831,-555.5 822.25,-559.41 812.69,-562.47 803.1,-564.87"/>
<polygon fill="#63b8ff" stroke="#63b8ff" points="914.57,-499.59 919.27,-490.09 909.68,-494.58 914.57,-499.59"/>
</a>
</g>
</g>
<!-- Node21 -->
<g id="Node000021" class="node">
<title>Node21</title>
<g id="a_Node000021"><a xlink:href="namespacettg__parsec.html#af487c13be90fbfe91c6789946e14e8fa" target="_top" xlink:title=" ">
<polygon fill="white" stroke="#666666" points="801.5,-546 666.5,-546 666.5,-527 801.5,-527 801.5,-546"/>
<text text-anchor="middle" x="734" y="-534" font-family="Times,serif" font-size="10.00">ttg_parsec::ttg_execute</text>
</a>
</g>
</g>
<!-- Node1&#45;&gt;Node21 -->
<g id="edge21_Node000001_Node000021" class="edge">
<title>Node1&#45;&gt;Node21</title>
<g id="a_edge21_Node000001_Node000021"><a xlink:title=" ">
<path fill="none" stroke="#63b8ff" d="M897.09,-493.96C878.2,-501.66 853.53,-511.05 831,-517.5 818.34,-521.13 804.55,-524.3 791.47,-526.96"/>
<polygon fill="#63b8ff" stroke="#63b8ff" points="898.5,-497.16 906.4,-490.1 895.82,-490.69 898.5,-497.16"/>
</a>
</g>
</g>
<!-- Node22 -->
<g id="Node000022" class="node">
<title>Node22</title>
<g id="a_Node000022"><a xlink:href="namespacettg__madness.html#a7170a1b75839c894aaeddebecb8d1eb7" target="_top" xlink:title=" ">
<polygon fill="white" stroke="#666666" points="801.5,-509 666.5,-509 666.5,-490 801.5,-490 801.5,-509"/>
<text text-anchor="middle" x="734" y="-497" font-family="Times,serif" font-size="10.00">ttg_madness::ttg_fence</text>
</a>
</g>
</g>
<!-- Node1&#45;&gt;Node22 -->
<g id="edge22_Node000001_Node000022" class="edge">
<title>Node1&#45;&gt;Node22</title>
<g id="a_edge22_Node000001_Node000022"><a xlink:title=" ">
<path fill="none" stroke="#63b8ff" d="M856.58,-487.56C838.55,-489.33 819.28,-491.22 801.52,-492.97"/>
<polygon fill="#63b8ff" stroke="#63b8ff" points="857.13,-491.02 866.74,-486.56 856.45,-484.06 857.13,-491.02"/>
</a>
</g>
</g>
<!-- Node24 -->
<g id="Node000024" class="node">
<title>Node24</title>
<g id="a_Node000024"><a xlink:href="namespacettg__parsec.html#a00dccbf920472bed9cb0850eff7f4120" target="_top" xlink:title=" ">
<polygon fill="white" stroke="#666666" points="795.5,-472 672.5,-472 672.5,-453 795.5,-453 795.5,-472"/>
<text text-anchor="middle" x="734" y="-460" font-family="Times,serif" font-size="10.00">ttg_parsec::ttg_fence</text>
</a>
</g>
</g>
<!-- Node1&#45;&gt;Node24 -->
<g id="edge24_Node000001_Node000024" class="edge">
<title>Node1&#45;&gt;Node24</title>
<g id="a_edge24_Node000001_Node000024"><a xlink:title=" ">
<path fill="none" stroke="#63b8ff" d="M856.7,-473.82C836.57,-471.95 814.91,-469.93 795.51,-468.13"/>
<polygon fill="#63b8ff" stroke="#63b8ff" points="856.46,-477.31 866.74,-474.76 857.11,-470.34 856.46,-477.31"/>
</a>
</g>
</g>
<!-- Node25 -->
<g id="Node000025" class="node">
<title>Node25</title>
<g id="a_Node000025"><a xlink:href="namespacettg__parsec.html#a5008389f3116aff76f4dc8d04e3fab3b" target="_top" xlink:title=" ">
<polygon fill="white" stroke="#666666" points="800,-435 668,-435 668,-416 800,-416 800,-435"/>
<text text-anchor="middle" x="734" y="-423" font-family="Times,serif" font-size="10.00">ttg_parsec::ttg_finalize</text>
</a>
</g>
</g>
<!-- Node1&#45;&gt;Node25 -->
<g id="edge25_Node000001_Node000025" class="edge">
<title>Node1&#45;&gt;Node25</title>
<g id="a_edge25_Node000001_Node000025"><a xlink:title=" ">
<path fill="none" stroke="#63b8ff" d="M897.49,-467.11C878.56,-459.35 853.71,-449.88 831,-443.5 819.41,-440.24 806.86,-437.41 794.78,-435.01"/>
<polygon fill="#63b8ff" stroke="#63b8ff" points="896.22,-470.38 906.8,-470.99 898.91,-463.92 896.22,-470.38"/>
</a>
</g>
</g>
<!-- Node26 -->
<g id="Node000026" class="node">
<title>Node26</title>
<g id="a_Node000026"><a xlink:href="namespacettg__madness.html#ac204e7982638f6d23f22365a73fc2795" target="_top" xlink:title=" ">
<polygon fill="white" stroke="#666666" points="807.5,-397.5 660.5,-397.5 660.5,-367.5 807.5,-367.5 807.5,-397.5"/>
<text text-anchor="start" x="668.5" y="-385.5" font-family="Times,serif" font-size="10.00">ttg_madness::ttg_register</text>
<text text-anchor="middle" x="734" y="-374.5" font-family="Times,serif" font-size="10.00">_callback</text>
</a>
</g>
</g>
<!-- Node1&#45;&gt;Node26 -->
<g id="edge26_Node000001_Node000026" class="edge">
<title>Node1&#45;&gt;Node26</title>
<g id="a_edge26_Node000001_Node000026"><a xlink:title=" ">
<path fill="none" stroke="#63b8ff" d="M911.28,-463.92C892.85,-447.07 862.05,-421.39 831,-406.5 823.64,-402.97 815.71,-399.93 807.67,-397.31"/>
<polygon fill="#63b8ff" stroke="#63b8ff" points="908.91,-466.5 918.61,-470.76 913.69,-461.38 908.91,-466.5"/>
</a>
</g>
</g>
<!-- Node27 -->
<g id="Node000027" class="node">
<title>Node27</title>
<g id="a_Node000027"><a xlink:href="namespacettg__parsec.html#a9adea5fc9a753510bb1aaa1a207036ec" target="_top" xlink:title=" ">
<polygon fill="white" stroke="#666666" points="801.5,-349.5 666.5,-349.5 666.5,-319.5 801.5,-319.5 801.5,-349.5"/>
<text text-anchor="start" x="674.5" y="-337.5" font-family="Times,serif" font-size="10.00">ttg_parsec::ttg_register</text>
<text text-anchor="middle" x="734" y="-326.5" font-family="Times,serif" font-size="10.00">_callback</text>
</a>
</g>
</g>
<!-- Node1&#45;&gt;Node27 -->
<g id="edge27_Node000001_Node000027" class="edge">
<title>Node1&#45;&gt;Node27</title>
<g id="a_edge27_Node000001_Node000027"><a xlink:title=" ">
<path fill="none" stroke="#63b8ff" d="M918.88,-461.96C903.87,-434.91 872.25,-384.98 831,-358.5 822.11,-352.79 811.95,-348.44 801.64,-345.12"/>
<polygon fill="#63b8ff" stroke="#63b8ff" points="915.82,-463.66 923.65,-470.8 921.98,-460.34 915.82,-463.66"/>
</a>
</g>
</g>
<!-- Node28 -->
<g id="Node000028" class="node">
<title>Node28</title>
<g id="a_Node000028"><a xlink:href="namespacettg__madness.html#a08d62ebfdece9271a130890dceb5cf62" target="_top" xlink:title=" ">
<polygon fill="white" stroke="#666666" points="817.5,-301 650.5,-301 650.5,-282 817.5,-282 817.5,-301"/>
<text text-anchor="middle" x="734" y="-289" font-family="Times,serif" font-size="10.00">ttg_madness::ttg_register_ptr</text>
</a>
</g>
</g>
<!-- Node1&#45;&gt;Node28 -->
<g id="edge28_Node000001_Node000028" class="edge">
<title>Node1&#45;&gt;Node28</title>
<g id="a_edge28_Node000001_Node000028"><a xlink:title=" ">
<path fill="none" stroke="#63b8ff" d="M923.24,-461.15C912.41,-425.28 884.1,-348.63 831,-310.5 825.76,-306.73 819.95,-303.67 813.87,-301.18"/>
<polygon fill="#63b8ff" stroke="#63b8ff" points="919.91,-462.25 926.04,-470.89 926.64,-460.31 919.91,-462.25"/>
</a>
</g>
</g>
<!-- Node29 -->
<g id="Node000029" class="node">
<title>Node29</title>
<g id="a_Node000029"><a xlink:href="namespacettg__parsec.html#a58b02ce5076ebca5916db77288563ed8" target="_top" xlink:title=" ">
<polygon fill="white" stroke="#666666" points="811.5,-264 656.5,-264 656.5,-245 811.5,-245 811.5,-264"/>
<text text-anchor="middle" x="734" y="-252" font-family="Times,serif" font-size="10.00">ttg_parsec::ttg_register_ptr</text>
</a>
</g>
</g>
<!-- Node1&#45;&gt;Node29 -->
<g id="edge29_Node000001_Node000029" class="edge">
<title>Node1&#45;&gt;Node29</title>
<g id="a_edge29_Node000001_Node000029"><a xlink:title=" ">
<path fill="none" stroke="#63b8ff" d="M925.35,-460.66C917.58,-418.69 893.39,-320.81 831,-272.5 825.23,-268.04 818.7,-264.56 811.81,-261.88"/>
<polygon fill="#63b8ff" stroke="#63b8ff" points="921.94,-461.46 927.09,-470.72 928.83,-460.27 921.94,-461.46"/>
</a>
</g>
</g>
<!-- Node30 -->
<g id="Node000030" class="node">
<title>Node30</title>
<g id="a_Node000030"><a xlink:href="namespacettg__madness.html#ada271902b7d62b26d1f981cb9090ad38" target="_top" xlink:title=" ">
<polygon fill="white" stroke="#666666" points="817.5,-227 650.5,-227 650.5,-208 817.5,-208 817.5,-227"/>
<text text-anchor="middle" x="734" y="-215" font-family="Times,serif" font-size="10.00">ttg_madness::ttg_register_ptr</text>
</a>
</g>
</g>
<!-- Node1&#45;&gt;Node30 -->
<g id="edge30_Node000001_Node000030" class="edge">
<title>Node1&#45;&gt;Node30</title>
<g id="a_edge30_Node000001_Node000030"><a xlink:title=" ">
<path fill="none" stroke="#63b8ff" d="M926.9,-460.79C921.98,-413.75 902.67,-294.5 831,-235.5 826.94,-232.16 822.46,-229.36 817.71,-227.03"/>
<polygon fill="#63b8ff" stroke="#63b8ff" points="923.43,-461.24 927.85,-470.87 930.4,-460.59 923.43,-461.24"/>
</a>
</g>
</g>
<!-- Node31 -->
<g id="Node000031" class="node">
<title>Node31</title>
<g id="a_Node000031"><a xlink:href="namespacettg__parsec.html#a72c14794c9a6d19714037fb75d3b0bf3" target="_top" xlink:title=" ">
<polygon fill="white" stroke="#666666" points="811.5,-190 656.5,-190 656.5,-171 811.5,-171 811.5,-190"/>
<text text-anchor="middle" x="734" y="-178" font-family="Times,serif" font-size="10.00">ttg_parsec::ttg_register_ptr</text>
</a>
</g>
</g>
<!-- Node1&#45;&gt;Node31 -->
<g id="edge31_Node000001_Node000031" class="edge">
<title>Node1&#45;&gt;Node31</title>
<g id="a_edge31_Node000001_Node000031"><a xlink:title=" ">
<path fill="none" stroke="#63b8ff" d="M928.06,-460.7C925.75,-408.86 911.97,-268.32 831,-198.5 825.35,-193.63 818.81,-189.9 811.84,-187.06"/>
<polygon fill="#63b8ff" stroke="#63b8ff" points="924.56,-461 928.41,-470.87 931.56,-460.76 924.56,-461"/>
</a>
</g>
</g>
<!-- Node32 -->
<g id="Node000032" class="node">
<title>Node32</title>
<g id="a_Node000032"><a xlink:href="namespacettg__madness.html#a4da27b0c7cae846efe3cea1854e5bd85" target="_top" xlink:title=" ">
<polygon fill="white" stroke="#666666" points="807.5,-152.5 660.5,-152.5 660.5,-122.5 807.5,-122.5 807.5,-152.5"/>
<text text-anchor="start" x="668.5" y="-140.5" font-family="Times,serif" font-size="10.00">ttg_madness::ttg_register</text>
<text text-anchor="middle" x="734" y="-129.5" font-family="Times,serif" font-size="10.00">_status</text>
</a>
</g>
</g>
<!-- Node1&#45;&gt;Node32 -->
<g id="edge32_Node000001_Node000032" class="edge">
<title>Node1&#45;&gt;Node32</title>
<g id="a_edge32_Node000001_Node000032"><a xlink:title=" ">
<path fill="none" stroke="#63b8ff" d="M928.72,-460.72C928.22,-404.91 918.82,-244.9 831,-161.5 824.4,-155.23 816.41,-150.53 807.9,-147.01"/>
<polygon fill="#63b8ff" stroke="#63b8ff" points="925.22,-460.98 928.72,-470.98 932.22,-460.98 925.22,-460.98"/>
</a>
</g>
</g>
<!-- Node33 -->
<g id="Node000033" class="node">
<title>Node33</title>
<g id="a_Node000033"><a xlink:href="namespacettg__parsec.html#afea16e36cb06d854595a8764265cc833" target="_top" xlink:title=" ">
<polygon fill="white" stroke="#666666" points="801.5,-104.5 666.5,-104.5 666.5,-74.5 801.5,-74.5 801.5,-104.5"/>
<text text-anchor="start" x="674.5" y="-92.5" font-family="Times,serif" font-size="10.00">ttg_parsec::ttg_register</text>
<text text-anchor="middle" x="734" y="-81.5" font-family="Times,serif" font-size="10.00">_status</text>
</a>
</g>
</g>
<!-- Node1&#45;&gt;Node33 -->
<g id="edge33_Node000001_Node000033" class="edge">
<title>Node1&#45;&gt;Node33</title>
<g id="a_edge33_Node000001_Node000033"><a xlink:title=" ">
<path fill="none" stroke="#63b8ff" d="M925.94,-460.97C916.55,-392.33 881.93,-163.69 831,-113.5 822.92,-105.54 812.63,-100.09 801.8,-96.39"/>
<polygon fill="#63b8ff" stroke="#63b8ff" points="922.47,-461.44 927.27,-470.88 929.41,-460.51 922.47,-461.44"/>
</a>
</g>
</g>
<!-- Node34 -->
<g id="Node000034" class="node">
<title>Node34</title>
<g id="a_Node000034"><a xlink:href="namespacettg__parsec.html#afcb43c3d2d3c066d2c8c589914a27676" target="_top" xlink:title=" ">
<polygon fill="white" stroke="#666666" points="792.5,-56 675.5,-56 675.5,-37 792.5,-37 792.5,-56"/>
<text text-anchor="middle" x="734" y="-44" font-family="Times,serif" font-size="10.00">ttg_parsec::ttg_sum</text>
</a>
</g>
</g>
<!-- Node1&#45;&gt;Node34 -->
<g id="edge34_Node000001_Node000034" class="edge">
<title>Node1&#45;&gt;Node34</title>
<g id="a_edge34_Node000001_Node000034"><a xlink:title=" ">
<path fill="none" stroke="#63b8ff" d="M926.61,-460.31C919.15,-384.98 889.25,-121.73 831,-65.5 820.67,-55.53 806.7,-50.07 792.62,-47.23"/>
<polygon fill="#63b8ff" stroke="#63b8ff" points="923.17,-461.11 927.62,-470.73 930.14,-460.44 923.17,-461.11"/>
</a>
</g>
</g>
<!-- Node35 -->
<g id="Node000035" class="node">
<title>Node35</title>
<g id="a_Node000035"><a xlink:href="namespacettg__madness.html#a6d7ccf702d68f5173ac51b116a9a66ed" target="_top" xlink:title=" ">
<polygon fill="white" stroke="#666666" points="798.5,-19 669.5,-19 669.5,0 798.5,0 798.5,-19"/>
<text text-anchor="middle" x="734" y="-7" font-family="Times,serif" font-size="10.00">ttg_madness::ttg_sum</text>
</a>
</g>
</g>
<!-- Node1&#45;&gt;Node35 -->
<g id="edge35_Node000001_Node000035" class="edge">
<title>Node1&#45;&gt;Node35</title>
<g id="a_edge35_Node000001_Node000035"><a xlink:title=" ">
<path fill="none" stroke="#63b8ff" d="M927.07,-460.51C920.99,-381.13 894.59,-89.42 831,-27.5 822.25,-18.98 810.83,-13.83 798.93,-10.83"/>
<polygon fill="#63b8ff" stroke="#63b8ff" points="923.59,-460.92 927.83,-470.63 930.57,-460.4 923.59,-460.92"/>
</a>
</g>
</g>
<!-- Node3 -->
<g id="Node000003" class="node">
<title>Node3</title>
<g id="a_Node000003"><a xlink:href="classttg__parsec_1_1_t_t.html#a64de0f4a0e71bd0dab69161ce619794d" target="_top" xlink:title=" ">
<polygon fill="white" stroke="#666666" points="599.5,-946 468.5,-946 468.5,-927 599.5,-927 599.5,-946"/>
<text text-anchor="middle" x="534" y="-934" font-family="Times,serif" font-size="10.00">ttg_parsec::TT::release</text>
</a>
</g>
</g>
<!-- Node2&#45;&gt;Node3 -->
<g id="edge2_Node000002_Node000003" class="edge">
<title>Node2&#45;&gt;Node3</title>
<g id="a_edge2_Node000002_Node000003"><a xlink:title=" ">
<path fill="none" stroke="#63b8ff" d="M670.35,-936.5C647.87,-936.5 622.49,-936.5 599.82,-936.5"/>
<polygon fill="#63b8ff" stroke="#63b8ff" points="670.46,-940 680.46,-936.5 670.46,-933 670.46,-940"/>
</a>
</g>
</g>
<!-- Node4 -->
<g id="Node000004" class="node">
<title>Node4</title>
<g id="a_Node000004"><a xlink:href="classttg__parsec_1_1_t_t.html#a765cc9ec66725e266e1fb7708cc5791d" target="_top" xlink:title=" ">
<polygon fill="white" stroke="#666666" points="431,-1023.5 300,-1023.5 300,-993.5 431,-993.5 431,-1023.5"/>
<text text-anchor="start" x="308" y="-1011.5" font-family="Times,serif" font-size="10.00">ttg_parsec::TT::release</text>
<text text-anchor="middle" x="365.5" y="-1000.5" font-family="Times,serif" font-size="10.00">_constraint</text>
</a>
</g>
</g>
<!-- Node3&#45;&gt;Node4 -->
<g id="edge3_Node000003_Node000004" class="edge">
<title>Node3&#45;&gt;Node4</title>
<g id="a_edge3_Node000003_Node000004"><a xlink:title=" ">
<path fill="none" stroke="#63b8ff" d="M505.02,-950.44C484.68,-960.38 456.39,-973.83 431,-984.5 423.84,-987.51 416.16,-990.54 408.68,-993.38"/>
<polygon fill="#63b8ff" stroke="#63b8ff" points="506.61,-953.56 514.04,-946.01 503.52,-947.28 506.61,-953.56"/>
</a>
</g>
</g>
<!-- Node9 -->
<g id="Node000009" class="node">
<title>Node9</title>
<g id="a_Node000009"><a xlink:href="classttg__parsec_1_1_t_t.html#a00177662d76d11b5717ebc4f1affbb0d" target="_top" xlink:title=" ">
<polygon fill="white" stroke="#666666" points="431,-975.5 300,-975.5 300,-945.5 431,-945.5 431,-975.5"/>
<text text-anchor="start" x="308" y="-963.5" font-family="Times,serif" font-size="10.00">ttg_parsec::TT::release</text>
<text text-anchor="middle" x="365.5" y="-952.5" font-family="Times,serif" font-size="10.00">_constraint</text>
</a>
</g>
</g>
<!-- Node3&#45;&gt;Node9 -->
<g id="edge8_Node000003_Node000009" class="edge">
<title>Node3&#45;&gt;Node9</title>
<g id="a_edge8_Node000003_Node000009"><a xlink:title=" ">
<path fill="none" stroke="#63b8ff" d="M458.09,-947.3C449.11,-948.59 439.99,-949.91 431.17,-951.18"/>
<polygon fill="#63b8ff" stroke="#63b8ff" points="458.75,-950.74 468.15,-945.85 457.75,-943.81 458.75,-950.74"/>
</a>
</g>
</g>
<!-- Node10 -->
<g id="Node000010" class="node">
<title>Node10</title>
<g id="a_Node000010"><a xlink:href="classttg__parsec_1_1_t_t.html#adc3a5e538d9a4c192168317cb0db9814" target="_top" xlink:title=" ">
<polygon fill="white" stroke="#666666" points="420.5,-927.5 310.5,-927.5 310.5,-897.5 420.5,-897.5 420.5,-927.5"/>
<text text-anchor="start" x="318.5" y="-915.5" font-family="Times,serif" font-size="10.00">ttg_parsec::TT::set</text>
<text text-anchor="middle" x="365.5" y="-904.5" font-family="Times,serif" font-size="10.00">_arg_local_impl</text>
</a>
</g>
</g>
<!-- Node3&#45;&gt;Node10 -->
<g id="edge9_Node000003_Node000010" class="edge">
<title>Node3&#45;&gt;Node10</title>
<g id="a_edge9_Node000003_Node000010"><a xlink:title=" ">
<path fill="none" stroke="#63b8ff" d="M458.11,-925.71C445.5,-923.89 432.62,-922.03 420.67,-920.31"/>
<polygon fill="#63b8ff" stroke="#63b8ff" points="457.75,-929.19 468.15,-927.15 458.75,-922.26 457.75,-929.19"/>
</a>
</g>
</g>
<!-- Node11 -->
<g id="Node000011" class="node">
<title>Node11</title>
<g id="a_Node000011"><a xlink:href="classttg__parsec_1_1_t_t.html#a47eb6b88e566c5bd85a92e21ab471889" target="_top" xlink:title=" ">
<polygon fill="white" stroke="#666666" points="423.5,-879 307.5,-879 307.5,-860 423.5,-860 423.5,-879"/>
<text text-anchor="middle" x="365.5" y="-867" font-family="Times,serif" font-size="10.00">ttg_parsec::TT::~TT</text>
</a>
</g>
</g>
<!-- Node3&#45;&gt;Node11 -->
<g id="edge10_Node000003_Node000011" class="edge">
<title>Node3&#45;&gt;Node11</title>
<g id="a_edge10_Node000003_Node000011"><a xlink:title=" ">
<path fill="none" stroke="#63b8ff" d="M505.98,-922.39C485.7,-912.15 457.06,-898.4 431,-888.5 421.94,-885.06 411.98,-881.85 402.65,-879.09"/>
<polygon fill="#63b8ff" stroke="#63b8ff" points="504.44,-925.54 514.94,-926.96 507.62,-919.3 504.44,-925.54"/>
</a>
</g>
</g>
<!-- Node5 -->
<g id="Node000005" class="node">
<title>Node5</title>
<g id="a_Node000005"><a xlink:href="classttg__parsec_1_1_t_t.html#a24ea8b57fe2846efcab06e6fc80190d2" target="_top" xlink:title=" ">
<polygon fill="white" stroke="#666666" points="264,-1047.5 150,-1047.5 150,-1017.5 264,-1017.5 264,-1047.5"/>
<text text-anchor="start" x="158" y="-1035.5" font-family="Times,serif" font-size="10.00">ttg_parsec::TT::add</text>
<text text-anchor="middle" x="207" y="-1024.5" font-family="Times,serif" font-size="10.00">_constraint</text>
</a>
</g>
</g>
<!-- Node4&#45;&gt;Node5 -->
<g id="edge4_Node000004_Node000005" class="edge">
<title>Node4&#45;&gt;Node5</title>
<g id="a_edge4_Node000004_Node000005"><a xlink:title=" ">
<path fill="none" stroke="#63b8ff" d="M289.92,-1019.94C281.34,-1021.25 272.7,-1022.58 264.41,-1023.85"/>
<polygon fill="#63b8ff" stroke="#63b8ff" points="290.59,-1023.38 299.94,-1018.4 289.53,-1016.46 290.59,-1023.38"/>
</a>
</g>
</g>
<!-- Node8 -->
<g id="Node000008" class="node">
<title>Node8</title>
<g id="a_Node000008"><a xlink:href="classttg__parsec_1_1_t_t.html#a4d8ac0fb1bdaaaa57ff186fef88e24af" target="_top" xlink:title=" ">
<polygon fill="white" stroke="#666666" points="264,-999.5 150,-999.5 150,-969.5 264,-969.5 264,-999.5"/>
<text text-anchor="start" x="158" y="-987.5" font-family="Times,serif" font-size="10.00">ttg_parsec::TT::add</text>
<text text-anchor="middle" x="207" y="-976.5" font-family="Times,serif" font-size="10.00">_constraint</text>
</a>
</g>
</g>
<!-- Node4&#45;&gt;Node8 -->
<g id="edge7_Node000004_Node000008" class="edge">
<title>Node4&#45;&gt;Node8</title>
<g id="a_edge7_Node000004_Node000008"><a xlink:title=" ">
<path fill="none" stroke="#63b8ff" d="M289.92,-997.06C281.34,-995.75 272.7,-994.42 264.41,-993.15"/>
<polygon fill="#63b8ff" stroke="#63b8ff" points="289.53,-1000.54 299.94,-998.6 290.59,-993.62 289.53,-1000.54"/>
</a>
</g>
</g>
<!-- Node6 -->
<g id="Node000006" class="node">
<title>Node6</title>
<g id="a_Node000006"><a xlink:href="classttg__parsec_1_1_t_t.html#ab2809ed93f5b416ca4bee4c8fc7c90ee" target="_top" xlink:title=" ">
<polygon fill="white" stroke="#666666" points="114,-1071.5 0,-1071.5 0,-1041.5 114,-1041.5 114,-1071.5"/>
<text text-anchor="start" x="8" y="-1059.5" font-family="Times,serif" font-size="10.00">ttg_parsec::TT::add</text>
<text text-anchor="middle" x="57" y="-1048.5" font-family="Times,serif" font-size="10.00">_constraint</text>
</a>
</g>
</g>
<!-- Node5&#45;&gt;Node6 -->
<g id="edge5_Node000005_Node000006" class="edge">
<title>Node5&#45;&gt;Node6</title>
<g id="a_edge5_Node000005_Node000006"><a xlink:title=" ">
<path fill="none" stroke="#63b8ff" d="M139.72,-1043.25C131.2,-1044.63 122.55,-1046.03 114.22,-1047.38"/>
<polygon fill="#63b8ff" stroke="#63b8ff" points="140.31,-1046.7 149.63,-1041.64 139.19,-1039.79 140.31,-1046.7"/>
</a>
</g>
</g>
<!-- Node7 -->
<g id="Node000007" class="node">
<title>Node7</title>
<g id="a_Node000007"><a xlink:href="classttg__parsec_1_1_t_t.html#a090da9fb01ff9bca0f0d419a3a054ce0" target="_top" xlink:title=" ">
<polygon fill="white" stroke="#666666" points="114,-1023.5 0,-1023.5 0,-993.5 114,-993.5 114,-1023.5"/>
<text text-anchor="start" x="8" y="-1011.5" font-family="Times,serif" font-size="10.00">ttg_parsec::TT::add</text>
<text text-anchor="middle" x="57" y="-1000.5" font-family="Times,serif" font-size="10.00">_constraint</text>
</a>
</g>
</g>
<!-- Node5&#45;&gt;Node7 -->
<g id="edge6_Node000005_Node000007" class="edge">
<title>Node5&#45;&gt;Node7</title>
<g id="a_edge6_Node000005_Node000007"><a xlink:title=" ">
<path fill="none" stroke="#63b8ff" d="M139.72,-1021.75C131.2,-1020.37 122.55,-1018.97 114.22,-1017.62"/>
<polygon fill="#63b8ff" stroke="#63b8ff" points="139.19,-1025.21 149.63,-1023.36 140.31,-1018.3 139.19,-1025.21"/>
</a>
</g>
</g>
<!-- Node14&#45;&gt;Node12 -->
<g id="edge14_Node000014_Node000012" class="edge">
<title>Node14&#45;&gt;Node12</title>
<g id="a_edge14_Node000014_Node000012"><a xlink:title=" ">
<path fill="none" stroke="#63b8ff" d="M656.88,-827.88C636.43,-832.01 614.59,-836.42 595.14,-840.35"/>
<polygon fill="#63b8ff" stroke="#63b8ff" points="657.68,-831.29 666.79,-825.88 656.3,-824.42 657.68,-831.29"/>
</a>
</g>
</g>
<!-- Node23 -->
<g id="Node000023" class="node">
<title>Node23</title>
<g id="a_Node000023"><a xlink:href="classttg__madness_1_1_t_t.html#a2b9b2c34c03421e054a496e8ea618df1" target="_top" xlink:title="Waits for the entire TTG associated with this TT to be completed (collective)">
<polygon fill="white" stroke="#666666" points="601,-509 467,-509 467,-490 601,-490 601,-509"/>
<text text-anchor="middle" x="534" y="-497" font-family="Times,serif" font-size="10.00">ttg_madness::TT::fence</text>
</a>
</g>
</g>
<!-- Node22&#45;&gt;Node23 -->
<g id="edge23_Node000022_Node000023" class="edge">
<title>Node22&#45;&gt;Node23</title>
<g id="a_edge23_Node000022_Node000023"><a xlink:title=" ">
<path fill="none" stroke="#63b8ff" d="M656.01,-499.5C637.88,-499.5 618.73,-499.5 601.13,-499.5"/>
<polygon fill="#63b8ff" stroke="#63b8ff" points="656.24,-503 666.24,-499.5 656.24,-496 656.24,-503"/>
</a>
</g>
</g>
</g>
</svg>
