<?xml version="1.0" encoding="UTF-8" standalone="no"?>
<!DOCTYPE svg PUBLIC "-//W3C//DTD SVG 1.1//EN"
 "http://www.w3.org/Graphics/SVG/1.1/DTD/svg11.dtd">
<!-- Generated by graphviz version 2.43.0 (0)
 -->
<!-- Title: ttg_parsec::TT::set_arg_local_impl Pages: 1 -->
<svg width="1361pt" height="907pt"
 viewBox="0.00 0.00 1361.00 907.00" xmlns="http://www.w3.org/2000/svg" xmlns:xlink="http://www.w3.org/1999/xlink">
<g id="graph0" class="graph" transform="scale(1 1) rotate(0) translate(4 903)">
<title>ttg_parsec::TT::set_arg_local_impl</title>
<!-- Node1 -->
<g id="Node000001" class="node">
<title>Node1</title>
<g id="a_Node000001"><a xlink:title=" ">
<polygon fill="#999999" stroke="#666666" points="110,-427 0,-427 0,-397 110,-397 110,-427"/>
<text text-anchor="start" x="8" y="-415" font-family="Times,serif" font-size="10.00">ttg_parsec::TT::set</text>
<text text-anchor="middle" x="55" y="-404" font-family="Times,serif" font-size="10.00">_arg_local_impl</text>
</a>
</g>
</g>
<!-- Node2 -->
<g id="Node000002" class="node">
<title>Node2</title>
<g id="a_Node000002"><a xlink:href="namespacettg__parsec_1_1detail.html#abb5f8a2eb005a7dc66279a6decd9e8c5" target="_top" xlink:title=" ">
<polygon fill="white" stroke="#666666" points="282,-899 150,-899 150,-869 282,-869 282,-899"/>
<text text-anchor="start" x="158" y="-887" font-family="Times,serif" font-size="10.00">ttg_parsec::detail</text>
<text text-anchor="middle" x="216" y="-876" font-family="Times,serif" font-size="10.00">::create_new_datacopy</text>
</a>
</g>
</g>
<!-- Node1&#45;&gt;Node2 -->
<g id="edge1_Node000001_Node000002" class="edge">
<title>Node1&#45;&gt;Node2</title>
<g id="a_edge1_Node000001_Node000002"><a xlink:title=" ">
<path fill="none" stroke="#63b8ff" d="M57.22,-427.38C63.04,-497.55 90.15,-786.87 146,-855 148.52,-858.08 151.43,-860.83 154.59,-863.3"/>
<polygon fill="#63b8ff" stroke="#63b8ff" points="152.65,-866.21 162.91,-868.86 156.54,-860.39 152.65,-866.21"/>
</a>
</g>
</g>
<!-- Node4 -->
<g id="Node000004" class="node">
<title>Node4</title>
<g id="a_Node000004"><a xlink:href="classttg__parsec_1_1_t_t.html#aa119b2a05f23cc3827bb1914b64c33f1" target="_top" xlink:title=" ">
<polygon fill="white" stroke="#666666" points="628,-465 502,-465 502,-435 628,-435 628,-465"/>
<text text-anchor="start" x="510" y="-453" font-family="Times,serif" font-size="10.00">ttg_parsec::TT::create</text>
<text text-anchor="middle" x="565" y="-442" font-family="Times,serif" font-size="10.00">_new_task</text>
</a>
</g>
</g>
<!-- Node1&#45;&gt;Node4 -->
<g id="edge3_Node000001_Node000004" class="edge">
<title>Node1&#45;&gt;Node4</title>
<g id="a_edge3_Node000001_Node000004"><a xlink:title=" ">
<path fill="none" stroke="#63b8ff" d="M110.36,-416.07C202.39,-422.95 388.86,-436.9 491.75,-444.6"/>
<polygon fill="#63b8ff" stroke="#63b8ff" points="491.52,-448.09 501.75,-445.34 492.04,-441.11 491.52,-448.09"/>
</a>
</g>
</g>
<!-- Node5 -->
<g id="Node000005" class="node">
<title>Node5</title>
<g id="a_Node000005"><a xlink:href="classttg__parsec_1_1_t_t.html#aab59a1bf0fcc4f771457b5f05cb42741" target="_top" xlink:title=" ">
<polygon fill="white" stroke="#666666" points="961,-628.5 850,-628.5 850,-609.5 961,-609.5 961,-628.5"/>
<text text-anchor="middle" x="905.5" y="-616.5" font-family="Times,serif" font-size="10.00">ttg_parsec::TT::get</text>
</a>
</g>
</g>
<!-- Node1&#45;&gt;Node5 -->
<g id="edge19_Node000001_Node000005" class="edge">
<title>Node1&#45;&gt;Node5</title>
<g id="a_edge19_Node000001_Node000005"><a xlink:title=" ">
<path fill="none" stroke="#63b8ff" d="M59.08,-427.17C67.41,-465.25 93.41,-566.58 146,-633 226.91,-735.2 254.65,-803 385,-803 385,-803 385,-803 566,-803 672.46,-803 713.65,-832.29 804,-776 856.3,-743.42 886.39,-672.46 898.39,-638.23"/>
<polygon fill="#63b8ff" stroke="#63b8ff" points="901.79,-639.09 901.65,-628.5 895.15,-636.87 901.79,-639.09"/>
</a>
</g>
</g>
<!-- Node6 -->
<g id="Node000006" class="node">
<title>Node6</title>
<g id="a_Node000006"><a xlink:href="namespacettg_1_1meta.html#affd90f350d054c6a5b4859644d834172" target="_top" xlink:title=" ">
<polygon fill="white" stroke="#666666" points="948,-321.5 863,-321.5 863,-302.5 948,-302.5 948,-321.5"/>
<text text-anchor="middle" x="905.5" y="-309.5" font-family="Times,serif" font-size="10.00">ttg::meta::get</text>
</a>
</g>
</g>
<!-- Node1&#45;&gt;Node6 -->
<g id="edge20_Node000001_Node000006" class="edge">
<title>Node1&#45;&gt;Node6</title>
<g id="a_edge20_Node000001_Node000006"><a xlink:title=" ">
<path fill="none" stroke="#63b8ff" d="M64.01,-396.94C77.78,-372.35 108.13,-323.36 146,-294 237.13,-223.34 269.68,-193 385,-193 385,-193 385,-193 566,-193 673.91,-193 704.91,-198.28 804,-241 835.61,-254.63 867.25,-279.23 886.35,-295.6"/>
<polygon fill="#63b8ff" stroke="#63b8ff" points="884.14,-298.31 893.97,-302.26 888.75,-293.04 884.14,-298.31"/>
</a>
</g>
</g>
<!-- Node7 -->
<g id="Node000007" class="node">
<title>Node7</title>
<g id="a_Node000007"><a xlink:href="classttg_1_1_t_t_base.html#ade3b1e6b149fe1124f7192aeca5f715c" target="_top" xlink:title="Gets the name of this operation.">
<polygon fill="white" stroke="#666666" points="971,-408.5 840,-408.5 840,-389.5 971,-389.5 971,-408.5"/>
<text text-anchor="middle" x="905.5" y="-396.5" font-family="Times,serif" font-size="10.00">ttg::TTBase::get_name</text>
</a>
</g>
</g>
<!-- Node1&#45;&gt;Node7 -->
<g id="edge21_Node000001_Node000007" class="edge">
<title>Node1&#45;&gt;Node7</title>
<g id="a_edge21_Node000001_Node000007"><a xlink:title=" ">
<path fill="none" stroke="#63b8ff" d="M109.36,-396.95C174.04,-380.06 286.6,-355 385,-355 385,-355 385,-355 566,-355 666.9,-355 783.31,-374.46 849.98,-387.5"/>
<polygon fill="#63b8ff" stroke="#63b8ff" points="849.35,-390.94 859.84,-389.45 850.71,-384.08 849.35,-390.94"/>
</a>
</g>
</g>
<!-- Node9 -->
<g id="Node000009" class="node">
<title>Node9</title>
<g id="a_Node000009"><a xlink:href="namespacettg.html#af5e470229c1ddef41b83b6398a5dc583" target="_top" xlink:title=" ">
<polygon fill="white" stroke="#666666" points="1084,-188.5 1022,-188.5 1022,-169.5 1084,-169.5 1084,-188.5"/>
<text text-anchor="middle" x="1053" y="-176.5" font-family="Times,serif" font-size="10.00">ttg::trace</text>
</a>
</g>
</g>
<!-- Node1&#45;&gt;Node9 -->
<g id="edge49_Node000001_Node000009" class="edge">
<title>Node1&#45;&gt;Node9</title>
<g id="a_edge49_Node000001_Node000009"><a xlink:title=" ">
<path fill="none" stroke="#63b8ff" d="M56.4,-427.03C58.43,-475.18 70.8,-627.85 146,-720 221.28,-812.24 265.94,-841 385,-841 385,-841 385,-841 743,-841 1034.24,-841 1051.62,-308.39 1052.11,-198.63"/>
<polygon fill="#63b8ff" stroke="#63b8ff" points="1055.61,-198.61 1052.11,-188.61 1048.61,-198.61 1055.61,-198.61"/>
</a>
</g>
</g>
<!-- Node15 -->
<g id="Node000015" class="node">
<title>Node15</title>
<g id="a_Node000015"><a xlink:href="classttg_1_1_t_t_base.html#adee30b248cb0d4db4213c417451be953" target="_top" xlink:title=" ">
<polygon fill="white" stroke="#666666" points="286,-27.5 146,-27.5 146,-8.5 286,-8.5 286,-27.5"/>
<text text-anchor="middle" x="216" y="-15.5" font-family="Times,serif" font-size="10.00">ttg::TTBase::is_lazy_pull</text>
</a>
</g>
</g>
<!-- Node1&#45;&gt;Node15 -->
<g id="edge22_Node000001_Node000015" class="edge">
<title>Node1&#45;&gt;Node15</title>
<g id="a_edge22_Node000001_Node000015"><a xlink:title=" ">
<path fill="none" stroke="#63b8ff" d="M57.83,-396.72C65.6,-334.19 97.69,-98.52 146,-44 150.29,-39.16 155.58,-35.22 161.3,-32.01"/>
<polygon fill="#63b8ff" stroke="#63b8ff" points="163.07,-35.03 170.56,-27.54 160.03,-28.73 163.07,-35.03"/>
</a>
</g>
</g>
<!-- Node17 -->
<g id="Node000017" class="node">
<title>Node17</title>
<g id="a_Node000017"><a xlink:href="namespacettg.html#aacafa23974f833f3ac9c42ab4fbd7e68" target="_top" xlink:title="atomically prints to std::cerr a sequence of items (separated by ttg::print_separator) followed by st...">
<polygon fill="white" stroke="#666666" points="1099,-48.5 1007,-48.5 1007,-29.5 1099,-29.5 1099,-48.5"/>
<text text-anchor="middle" x="1053" y="-36.5" font-family="Times,serif" font-size="10.00">ttg::print_error</text>
</a>
</g>
</g>
<!-- Node1&#45;&gt;Node17 -->
<g id="edge24_Node000001_Node000017" class="edge">
<title>Node1&#45;&gt;Node17</title>
<g id="a_edge24_Node000001_Node000017"><a xlink:title=" ">
<path fill="none" stroke="#63b8ff" d="M59.14,-396.89C67.48,-359.94 93.23,-263.65 146,-203 227.55,-109.27 260.76,-58 385,-58 385,-58 385,-58 743,-58 831.79,-58 934.65,-50.09 996.46,-44.48"/>
<polygon fill="#63b8ff" stroke="#63b8ff" points="997.13,-47.93 1006.76,-43.53 996.48,-40.96 997.13,-47.93"/>
</a>
</g>
</g>
<!-- Node18 -->
<g id="Node000018" class="node">
<title>Node18</title>
<g id="a_Node000018"><a xlink:href="classttg__parsec_1_1_t_t.html#a64de0f4a0e71bd0dab69161ce619794d" target="_top" xlink:title=" ">
<polygon fill="white" stroke="#666666" points="281.5,-623.5 150.5,-623.5 150.5,-604.5 281.5,-604.5 281.5,-623.5"/>
<text text-anchor="middle" x="216" y="-611.5" font-family="Times,serif" font-size="10.00">ttg_parsec::TT::release</text>
</a>
</g>
</g>
<!-- Node1&#45;&gt;Node18 -->
<g id="edge26_Node000001_Node000018" class="edge">
<title>Node1&#45;&gt;Node18</title>
<g id="a_edge26_Node000001_Node000018"><a xlink:title=" ">
<path fill="none" stroke="#63b8ff" d="M67.95,-427.18C96.82,-463.86 170.26,-557.15 201.06,-596.29"/>
<polygon fill="#63b8ff" stroke="#63b8ff" points="198.35,-598.5 207.28,-604.2 203.85,-594.17 198.35,-598.5"/>
</a>
</g>
</g>
<!-- Node24 -->
<g id="Node000024" class="node">
<title>Node24</title>
<g id="a_Node000024"><a xlink:href="classttg__parsec_1_1_t_t.html#a80885f0e54f741d7c70ae64179578414" target="_top" xlink:title=" ">
<polygon fill="white" stroke="#666666" points="644,-278.5 486,-278.5 486,-259.5 644,-259.5 644,-278.5"/>
<text text-anchor="middle" x="565" y="-266.5" font-family="Times,serif" font-size="10.00">ttg_parsec::TT::release_task</text>
</a>
</g>
</g>
<!-- Node1&#45;&gt;Node24 -->
<g id="edge37_Node000001_Node000024" class="edge">
<title>Node1&#45;&gt;Node24</title>
<g id="a_edge37_Node000001_Node000024"><a xlink:title=" ">
<path fill="none" stroke="#63b8ff" d="M70.36,-396.83C86.94,-380.31 115.82,-354.45 146,-341 253.08,-293.28 388.63,-277.07 475.83,-271.63"/>
<polygon fill="#63b8ff" stroke="#63b8ff" points="476.18,-275.11 485.95,-271.03 475.76,-268.13 476.18,-275.11"/>
</a>
</g>
</g>
<!-- Node3 -->
<g id="Node000003" class="node">
<title>Node3</title>
<g id="a_Node000003"><a xlink:href="namespacettg.html#a78c09561304884c05c8a8f25006b0ee6" target="_top" xlink:title="Accesses the default backend&#39;s default execution context.">
<polygon fill="white" stroke="#666666" points="450,-899 322,-899 322,-869 450,-869 450,-899"/>
<text text-anchor="start" x="330" y="-887" font-family="Times,serif" font-size="10.00">ttg::default_execution</text>
<text text-anchor="middle" x="386" y="-876" font-family="Times,serif" font-size="10.00">_context</text>
</a>
</g>
</g>
<!-- Node2&#45;&gt;Node3 -->
<g id="edge2_Node000002_Node000003" class="edge">
<title>Node2&#45;&gt;Node3</title>
<g id="a_edge2_Node000002_Node000003"><a xlink:title=" ">
<path fill="none" stroke="#63b8ff" d="M282.43,-884C292.08,-884 302.06,-884 311.85,-884"/>
<polygon fill="#63b8ff" stroke="#63b8ff" points="311.95,-887.5 321.95,-884 311.95,-880.5 311.95,-887.5"/>
</a>
</g>
</g>
<!-- Node4&#45;&gt;Node5 -->
<g id="edge4_Node000004_Node000005" class="edge">
<title>Node4&#45;&gt;Node5</title>
<g id="a_edge4_Node000004_Node000005"><a xlink:title=" ">
<path fill="none" stroke="#63b8ff" d="M570.57,-465.16C582.12,-500.47 616.24,-587.77 680,-622 737.43,-652.84 815.63,-642.1 862.95,-630.96"/>
<polygon fill="#63b8ff" stroke="#63b8ff" points="863.98,-634.31 872.85,-628.51 862.31,-627.51 863.98,-634.31"/>
</a>
</g>
</g>
<!-- Node4&#45;&gt;Node6 -->
<g id="edge6_Node000004_Node000006" class="edge">
<title>Node4&#45;&gt;Node6</title>
<g id="a_edge6_Node000004_Node000006"><a xlink:title=" ">
<path fill="none" stroke="#63b8ff" d="M602.87,-434.97C669.23,-407.91 807.78,-351.43 871.34,-325.52"/>
<polygon fill="#63b8ff" stroke="#63b8ff" points="872.94,-328.65 880.87,-321.63 870.29,-322.17 872.94,-328.65"/>
</a>
</g>
</g>
<!-- Node4&#45;&gt;Node7 -->
<g id="edge8_Node000004_Node000007" class="edge">
<title>Node4&#45;&gt;Node7</title>
<g id="a_edge8_Node000004_Node000007"><a xlink:title=" ">
<path fill="none" stroke="#63b8ff" d="M628.09,-440.65C685.49,-432 770.83,-419.14 831.48,-410"/>
<polygon fill="#63b8ff" stroke="#63b8ff" points="832.01,-413.46 841.37,-408.51 830.96,-406.54 832.01,-413.46"/>
</a>
</g>
</g>
<!-- Node8 -->
<g id="Node000008" class="node">
<title>Node8</title>
<g id="a_Node000008"><a xlink:href="classttg__parsec_1_1_t_t.html#af277074081de727ff816c84638b7d038" target="_top" xlink:title=" ">
<polygon fill="white" stroke="#666666" points="797.5,-613 686.5,-613 686.5,-583 797.5,-583 797.5,-613"/>
<text text-anchor="start" x="694.5" y="-601" font-family="Times,serif" font-size="10.00">ttg_parsec::TT::get</text>
<text text-anchor="middle" x="742" y="-590" font-family="Times,serif" font-size="10.00">_task_mempool</text>
</a>
</g>
</g>
<!-- Node4&#45;&gt;Node8 -->
<g id="edge9_Node000004_Node000008" class="edge">
<title>Node4&#45;&gt;Node8</title>
<g id="a_edge9_Node000004_Node000008"><a xlink:title=" ">
<path fill="none" stroke="#63b8ff" d="M577.54,-465.23C596.66,-489.67 637.09,-538.02 680,-569 684.52,-572.26 689.46,-575.31 694.51,-578.11"/>
<polygon fill="#63b8ff" stroke="#63b8ff" points="693.17,-581.36 703.65,-582.89 696.41,-575.16 693.17,-581.36"/>
</a>
</g>
</g>
<!-- Node4&#45;&gt;Node9 -->
<g id="edge11_Node000004_Node000009" class="edge">
<title>Node4&#45;&gt;Node9</title>
<g id="a_edge11_Node000004_Node000009"><a xlink:title=" ">
<path fill="none" stroke="#63b8ff" d="M628.3,-464.78C715.2,-481.45 873.14,-496.92 971,-418 1040.01,-362.35 1050.53,-245.35 1051.91,-198.76"/>
<polygon fill="#63b8ff" stroke="#63b8ff" points="1055.41,-198.57 1052.09,-188.51 1048.42,-198.44 1055.41,-198.57"/>
</a>
</g>
</g>
<!-- Node5&#45;&gt;Node5 -->
<g id="edge5_Node000005_Node000005" class="edge">
<title>Node5&#45;&gt;Node5</title>
<g id="a_edge5_Node000005_Node000005"><a xlink:title=" ">
<path fill="none" stroke="#63b8ff" d="M883,-628.58C872.05,-637.23 879.55,-646.5 905.5,-646.5 922.12,-646.5 931.18,-642.7 932.66,-637.69"/>
<polygon fill="#63b8ff" stroke="#63b8ff" points="935.67,-635.89 928,-628.58 929.44,-639.08 935.67,-635.89"/>
</a>
</g>
</g>
<!-- Node6&#45;&gt;Node6 -->
<g id="edge7_Node000006_Node000006" class="edge">
<title>Node6&#45;&gt;Node6</title>
<g id="a_edge7_Node000006_Node000006"><a xlink:title=" ">
<path fill="none" stroke="#63b8ff" d="M883,-321.58C872.05,-330.23 879.55,-339.5 905.5,-339.5 922.12,-339.5 931.18,-335.7 932.66,-330.69"/>
<polygon fill="#63b8ff" stroke="#63b8ff" points="935.67,-328.89 928,-321.58 929.44,-332.08 935.67,-328.89"/>
</a>
</g>
</g>
<!-- Node8&#45;&gt;Node5 -->
<g id="edge10_Node000008_Node000005" class="edge">
<title>Node8&#45;&gt;Node5</title>
<g id="a_edge10_Node000008_Node000005"><a xlink:title=" ">
<path fill="none" stroke="#63b8ff" d="M797.68,-605.11C811.23,-606.87 825.87,-608.78 839.85,-610.59"/>
<polygon fill="#63b8ff" stroke="#63b8ff" points="839.51,-614.08 849.88,-611.9 840.41,-607.14 839.51,-614.08"/>
</a>
</g>
</g>
<!-- Node10 -->
<g id="Node000010" class="node">
<title>Node10</title>
<g id="a_Node000010"><a xlink:href="namespacettg.html#aacacfe8bc9582308a405c4370650a9d4" target="_top" xlink:title="atomically prints to std::clog a sequence of items (separated by ttg::print_separator) followed by st...">
<polygon fill="white" stroke="#666666" points="1198,-67.5 1145,-67.5 1145,-48.5 1198,-48.5 1198,-67.5"/>
<text text-anchor="middle" x="1171.5" y="-55.5" font-family="Times,serif" font-size="10.00">ttg::log</text>
</a>
</g>
</g>
<!-- Node9&#45;&gt;Node10 -->
<g id="edge12_Node000009_Node000010" class="edge">
<title>Node9&#45;&gt;Node10</title>
<g id="a_edge12_Node000009_Node000010"><a xlink:title=" ">
<path fill="none" stroke="#63b8ff" d="M1063.53,-169.1C1083.34,-148.52 1129.17,-100.93 1153.92,-75.22"/>
<polygon fill="#63b8ff" stroke="#63b8ff" points="1156.75,-77.33 1161.16,-67.7 1151.7,-72.48 1156.75,-77.33"/>
</a>
</g>
</g>
<!-- Node12 -->
<g id="Node000012" class="node">
<title>Node12</title>
<g id="a_Node000012"><a xlink:href="namespacettg.html#afbdd9c742be395e0746fdbc26c7d55cc" target="_top" xlink:title="returns whether tracing was enabled at configure time">
<polygon fill="white" stroke="#666666" points="1353,-148.5 1244,-148.5 1244,-129.5 1353,-129.5 1353,-148.5"/>
<text text-anchor="middle" x="1298.5" y="-136.5" font-family="Times,serif" font-size="10.00">ttg::trace_enabled</text>
</a>
</g>
</g>
<!-- Node9&#45;&gt;Node12 -->
<g id="edge14_Node000009_Node000012" class="edge">
<title>Node9&#45;&gt;Node12</title>
<g id="a_edge14_Node000009_Node000012"><a xlink:title=" ">
<path fill="none" stroke="#63b8ff" d="M1084.16,-170.13C1099.31,-165.94 1118.01,-161.18 1135,-158 1167.36,-151.94 1203.72,-147.48 1233.84,-144.4"/>
<polygon fill="#63b8ff" stroke="#63b8ff" points="1234.19,-147.88 1243.79,-143.41 1233.5,-140.92 1234.19,-147.88"/>
</a>
</g>
</g>
<!-- Node13 -->
<g id="Node000013" class="node">
<title>Node13</title>
<g id="a_Node000013"><a xlink:href="namespacettg.html#abfb8501d408a1ed918cc2a540865a2d8" target="_top" xlink:title="returns whether tracing is enabled">
<polygon fill="white" stroke="#666666" points="1208,-186.5 1135,-186.5 1135,-167.5 1208,-167.5 1208,-186.5"/>
<text text-anchor="middle" x="1171.5" y="-174.5" font-family="Times,serif" font-size="10.00">ttg::tracing</text>
</a>
</g>
</g>
<!-- Node9&#45;&gt;Node13 -->
<g id="edge15_Node000009_Node000013" class="edge">
<title>Node9&#45;&gt;Node13</title>
<g id="a_edge15_Node000009_Node000013"><a xlink:title=" ">
<path fill="none" stroke="#63b8ff" d="M1084,-178.48C1096.36,-178.27 1110.95,-178.02 1124.6,-177.79"/>
<polygon fill="#63b8ff" stroke="#63b8ff" points="1124.86,-181.28 1134.8,-177.61 1124.74,-174.29 1124.86,-181.28"/>
</a>
</g>
</g>
<!-- Node11 -->
<g id="Node000011" class="node">
<title>Node11</title>
<g id="a_Node000011"><a xlink:href="namespacettg_1_1detail.html#a26e07486d5ef8eb5735a8975991a7693" target="_top" xlink:title=" ">
<polygon fill="white" stroke="#666666" points="1346.5,-54 1250.5,-54 1250.5,-24 1346.5,-24 1346.5,-54"/>
<text text-anchor="start" x="1258.5" y="-42" font-family="Times,serif" font-size="10.00">ttg::detail::print</text>
<text text-anchor="middle" x="1298.5" y="-31" font-family="Times,serif" font-size="10.00">_helper</text>
</a>
</g>
</g>
<!-- Node10&#45;&gt;Node11 -->
<g id="edge13_Node000010_Node000011" class="edge">
<title>Node10&#45;&gt;Node11</title>
<g id="a_edge13_Node000010_Node000011"><a xlink:title=" ">
<path fill="none" stroke="#63b8ff" d="M1198.1,-54.11C1210.34,-52.25 1225.53,-49.94 1240.32,-47.69"/>
<polygon fill="#63b8ff" stroke="#63b8ff" points="1241.09,-51.11 1250.46,-46.15 1240.04,-44.19 1241.09,-51.11"/>
</a>
</g>
</g>
<!-- Node13&#45;&gt;Node12 -->
<g id="edge18_Node000013_Node000012" class="edge">
<title>Node13&#45;&gt;Node12</title>
<g id="a_edge18_Node000013_Node000012"><a xlink:title=" ">
<path fill="none" stroke="#63b8ff" d="M1204.04,-167.41C1219.88,-162.6 1239.27,-156.7 1256.28,-151.53"/>
<polygon fill="#63b8ff" stroke="#63b8ff" points="1257.42,-154.84 1265.97,-148.59 1255.38,-148.15 1257.42,-154.84"/>
</a>
</g>
</g>
<!-- Node14 -->
<g id="Node000014" class="node">
<title>Node14</title>
<g id="a_Node000014"><a xlink:href="namespacettg_1_1detail.html#a95356c3874e7ec9268a40feb4fc1519f" target="_top" xlink:title=" ">
<polygon fill="white" stroke="#666666" points="1347,-213 1250,-213 1250,-183 1347,-183 1347,-213"/>
<text text-anchor="start" x="1258" y="-201" font-family="Times,serif" font-size="10.00">ttg::detail::trace</text>
<text text-anchor="middle" x="1298.5" y="-190" font-family="Times,serif" font-size="10.00">_accessor</text>
</a>
</g>
</g>
<!-- Node13&#45;&gt;Node14 -->
<g id="edge16_Node000013_Node000014" class="edge">
<title>Node13&#45;&gt;Node14</title>
<g id="a_edge16_Node000013_Node000014"><a xlink:title=" ">
<path fill="none" stroke="#63b8ff" d="M1208.32,-183.02C1218.05,-184.65 1228.85,-186.47 1239.47,-188.25"/>
<polygon fill="#63b8ff" stroke="#63b8ff" points="1239.11,-191.74 1249.56,-189.95 1240.27,-184.84 1239.11,-191.74"/>
</a>
</g>
</g>
<!-- Node14&#45;&gt;Node9 -->
<g id="edge17_Node000014_Node000009" class="edge">
<title>Node14&#45;&gt;Node9</title>
<g id="a_edge17_Node000014_Node000009"><a xlink:title=" ">
<path fill="none" stroke="#63b8ff" d="M1249.72,-199.33C1217.27,-199.69 1173.44,-199.12 1135,-195 1121.62,-193.57 1107.15,-191.03 1094.2,-188.4"/>
<polygon fill="#63b8ff" stroke="#63b8ff" points="1094.7,-184.92 1084.19,-186.28 1093.25,-191.77 1094.7,-184.92"/>
</a>
</g>
</g>
<!-- Node16 -->
<g id="Node000016" class="node">
<title>Node16</title>
<g id="a_Node000016"><a xlink:href="namespacettg_1_1detail.html#aaaff04aaf9d3b614d5b2cde243fcee33" target="_top" xlink:title=" ">
<polygon fill="white" stroke="#666666" points="444,-30 328,-30 328,0 444,0 444,-30"/>
<text text-anchor="start" x="336" y="-18" font-family="Times,serif" font-size="10.00">ttg::detail::op_base</text>
<text text-anchor="middle" x="386" y="-7" font-family="Times,serif" font-size="10.00">_lazy_pull_accessor</text>
</a>
</g>
</g>
<!-- Node15&#45;&gt;Node16 -->
<g id="edge23_Node000015_Node000016" class="edge">
<title>Node15&#45;&gt;Node16</title>
<g id="a_edge23_Node000015_Node000016"><a xlink:title=" ">
<path fill="none" stroke="#63b8ff" d="M286.3,-16.76C296.67,-16.58 307.35,-16.39 317.68,-16.2"/>
<polygon fill="#63b8ff" stroke="#63b8ff" points="317.94,-19.7 327.87,-16.02 317.81,-12.7 317.94,-19.7"/>
</a>
</g>
</g>
<!-- Node17&#45;&gt;Node11 -->
<g id="edge25_Node000017_Node000011" class="edge">
<title>Node17&#45;&gt;Node11</title>
<g id="a_edge25_Node000017_Node000011"><a xlink:title=" ">
<path fill="none" stroke="#63b8ff" d="M1099.23,-39C1139.08,-39 1197.33,-39 1240.39,-39"/>
<polygon fill="#63b8ff" stroke="#63b8ff" points="1240.44,-42.5 1250.44,-39 1240.44,-35.5 1240.44,-42.5"/>
</a>
</g>
</g>
<!-- Node19 -->
<g id="Node000019" class="node">
<title>Node19</title>
<g id="a_Node000019"><a xlink:href="classttg__parsec_1_1_t_t.html#a7f42b8147186ddf49a3c1f2a5d49255f" target="_top" xlink:title=" ">
<polygon fill="white" stroke="#666666" points="439.5,-715 332.5,-715 332.5,-685 439.5,-685 439.5,-715"/>
<text text-anchor="start" x="340.5" y="-703" font-family="Times,serif" font-size="10.00">ttg_parsec::TT::do</text>
<text text-anchor="middle" x="386" y="-692" font-family="Times,serif" font-size="10.00">_release</text>
</a>
</g>
</g>
<!-- Node18&#45;&gt;Node19 -->
<g id="edge27_Node000018_Node000019" class="edge">
<title>Node18&#45;&gt;Node19</title>
<g id="a_edge27_Node000018_Node000019"><a xlink:title=" ">
<path fill="none" stroke="#63b8ff" d="M235.62,-623.53C262.28,-637.18 311.95,-662.61 346.67,-680.38"/>
<polygon fill="#63b8ff" stroke="#63b8ff" points="345.09,-683.5 355.59,-684.94 348.28,-677.27 345.09,-683.5"/>
</a>
</g>
</g>
<!-- Node19&#45;&gt;Node5 -->
<g id="edge28_Node000019_Node000005" class="edge">
<title>Node19&#45;&gt;Node5</title>
<g id="a_edge28_Node000019_Node000005"><a xlink:title=" ">
<path fill="none" stroke="#63b8ff" d="M415.55,-715.12C434.86,-724.5 461.25,-735.75 486,-741 624.27,-770.36 676.76,-807.57 804,-746 850.64,-723.43 882.21,-667.55 896.24,-638.01"/>
<polygon fill="#63b8ff" stroke="#63b8ff" points="899.49,-639.3 900.46,-628.75 893.12,-636.4 899.49,-639.3"/>
</a>
</g>
</g>
<!-- Node20 -->
<g id="Node000020" class="node">
<title>Node20</title>
<g id="a_Node000020"><a xlink:href="classttg_1_1base_1_1_world.html#aabab7c9df8f16919ab41a864c8b1adc4" target="_top" xlink:title=" ">
<polygon fill="white" stroke="#666666" points="627.5,-731.5 502.5,-731.5 502.5,-712.5 627.5,-712.5 627.5,-731.5"/>
<text text-anchor="middle" x="565" y="-719.5" font-family="Times,serif" font-size="10.00">ttg::base::World::impl</text>
</a>
</g>
</g>
<!-- Node19&#45;&gt;Node20 -->
<g id="edge29_Node000019_Node000020" class="edge">
<title>Node19&#45;&gt;Node20</title>
<g id="a_edge29_Node000019_Node000020"><a xlink:title=" ">
<path fill="none" stroke="#63b8ff" d="M439.63,-706.54C456.07,-708.58 474.5,-710.88 492.03,-713.05"/>
<polygon fill="#63b8ff" stroke="#63b8ff" points="491.87,-716.56 502.23,-714.32 492.73,-709.61 491.87,-716.56"/>
</a>
</g>
</g>
<!-- Node22 -->
<g id="Node000022" class="node">
<title>Node22</title>
<g id="a_Node000022"><a xlink:href="classttg__parsec_1_1_t_t.html#acec939399109ea862fb2e5d011aa9706" target="_top" xlink:title=" ">
<polygon fill="white" stroke="#666666" points="624.5,-694 505.5,-694 505.5,-664 624.5,-664 624.5,-694"/>
<text text-anchor="start" x="513.5" y="-682" font-family="Times,serif" font-size="10.00">ttg_parsec::TT::print</text>
<text text-anchor="middle" x="565" y="-671" font-family="Times,serif" font-size="10.00">_incomplete_tasks</text>
</a>
</g>
</g>
<!-- Node19&#45;&gt;Node22 -->
<g id="edge31_Node000019_Node000022" class="edge">
<title>Node19&#45;&gt;Node22</title>
<g id="a_edge31_Node000019_Node000022"><a xlink:title=" ">
<path fill="none" stroke="#63b8ff" d="M439.63,-693.76C457.08,-691.69 476.78,-689.35 495.26,-687.16"/>
<polygon fill="#63b8ff" stroke="#63b8ff" points="495.86,-690.61 505.38,-685.95 495.04,-683.66 495.86,-690.61"/>
</a>
</g>
</g>
<!-- Node21 -->
<g id="Node000021" class="node">
<title>Node21</title>
<g id="a_Node000021"><a xlink:href="classttg_1_1base_1_1_world.html#af39ca1832f455a94134515f94aaa8533" target="_top" xlink:title=" ">
<polygon fill="white" stroke="#666666" points="797.5,-737 686.5,-737 686.5,-707 797.5,-707 797.5,-737"/>
<text text-anchor="start" x="694.5" y="-725" font-family="Times,serif" font-size="10.00">ttg::base::World::is</text>
<text text-anchor="middle" x="742" y="-714" font-family="Times,serif" font-size="10.00">_valid</text>
</a>
</g>
</g>
<!-- Node20&#45;&gt;Node21 -->
<g id="edge30_Node000020_Node000021" class="edge">
<title>Node20&#45;&gt;Node21</title>
<g id="a_edge30_Node000020_Node000021"><a xlink:title=" ">
<path fill="none" stroke="#63b8ff" d="M627.7,-722C643.36,-722 660.23,-722 676.05,-722"/>
<polygon fill="#63b8ff" stroke="#63b8ff" points="676.26,-725.5 686.26,-722 676.26,-718.5 676.26,-725.5"/>
</a>
</g>
</g>
<!-- Node22&#45;&gt;Node5 -->
<g id="edge32_Node000022_Node000005" class="edge">
<title>Node22&#45;&gt;Node5</title>
<g id="a_edge32_Node000022_Node000005"><a xlink:title=" ">
<path fill="none" stroke="#63b8ff" d="M624.83,-677.05C673.4,-674.49 743.85,-668.59 804,-655 827.82,-649.62 853.74,-640.24 873.29,-632.41"/>
<polygon fill="#63b8ff" stroke="#63b8ff" points="874.68,-635.62 882.61,-628.59 872.03,-629.14 874.68,-635.62"/>
</a>
</g>
</g>
<!-- Node23 -->
<g id="Node000023" class="node">
<title>Node23</title>
<g id="a_Node000023"><a xlink:href="classttg__parsec_1_1_t_t.html#a68814131fd8aa487afce9a89a5ee7f2b" target="_top" xlink:title=" ">
<polygon fill="white" stroke="#666666" points="794.5,-527 689.5,-527 689.5,-497 794.5,-497 794.5,-527"/>
<text text-anchor="start" x="697.5" y="-515" font-family="Times,serif" font-size="10.00">ttg_parsec::TT::ht</text>
<text text-anchor="middle" x="742" y="-504" font-family="Times,serif" font-size="10.00">_iter_cb</text>
</a>
</g>
</g>
<!-- Node22&#45;&gt;Node23 -->
<g id="edge33_Node000022_Node000023" class="edge">
<title>Node22&#45;&gt;Node23</title>
<g id="a_edge33_Node000022_Node000023"><a xlink:title=" ">
<path fill="none" stroke="#63b8ff" d="M581.84,-663.89C612.74,-634.4 681.19,-569.08 717.43,-534.49"/>
<polygon fill="#63b8ff" stroke="#63b8ff" points="720.25,-536.64 725.07,-527.2 715.42,-531.57 720.25,-536.64"/>
</a>
</g>
</g>
<!-- Node23&#45;&gt;Node5 -->
<g id="edge34_Node000023_Node000005" class="edge">
<title>Node23&#45;&gt;Node5</title>
<g id="a_edge34_Node000023_Node000005"><a xlink:title=" ">
<path fill="none" stroke="#63b8ff" d="M778.21,-527.15C786.84,-531.29 795.91,-536.02 804,-541 834.31,-559.66 866.28,-585.74 885.82,-602.5"/>
<polygon fill="#63b8ff" stroke="#63b8ff" points="883.78,-605.36 893.63,-609.27 888.37,-600.08 883.78,-605.36"/>
</a>
</g>
</g>
<!-- Node23&#45;&gt;Node6 -->
<g id="edge35_Node000023_Node000006" class="edge">
<title>Node23&#45;&gt;Node6</title>
<g id="a_edge35_Node000023_Node000006"><a xlink:title=" ">
<path fill="none" stroke="#63b8ff" d="M753.51,-496.64C770.76,-471.73 806.49,-421.23 840,-381 855.44,-362.46 874.44,-342.44 887.8,-328.77"/>
<polygon fill="#63b8ff" stroke="#63b8ff" points="890.43,-331.09 894.95,-321.51 885.44,-326.18 890.43,-331.09"/>
</a>
</g>
</g>
<!-- Node23&#45;&gt;Node7 -->
<g id="edge36_Node000023_Node000007" class="edge">
<title>Node23&#45;&gt;Node7</title>
<g id="a_edge36_Node000023_Node000007"><a xlink:title=" ">
<path fill="none" stroke="#63b8ff" d="M764.45,-496.99C795.06,-475.57 851.02,-436.42 882.13,-414.65"/>
<polygon fill="#63b8ff" stroke="#63b8ff" points="884.38,-417.35 890.57,-408.75 880.37,-411.61 884.38,-417.35"/>
</a>
</g>
</g>
<!-- Node24&#45;&gt;Node5 -->
<g id="edge41_Node000024_Node000005" class="edge">
<title>Node24&#45;&gt;Node5</title>
<g id="a_edge41_Node000024_Node000005"><a xlink:title=" ">
<path fill="none" stroke="#63b8ff" d="M571.43,-278.69C584.91,-302.96 620.47,-368.54 644,-426 663.49,-473.6 643.28,-499.97 680,-536 721.14,-576.37 750.04,-553.74 804,-574 828.76,-583.3 856.11,-595.69 876.02,-605.12"/>
<polygon fill="#63b8ff" stroke="#63b8ff" points="874.62,-608.33 885.16,-609.48 877.64,-602.01 874.62,-608.33"/>
</a>
</g>
</g>
<!-- Node24&#45;&gt;Node6 -->
<g id="edge42_Node000024_Node000006" class="edge">
<title>Node24&#45;&gt;Node6</title>
<g id="a_edge42_Node000024_Node000006"><a xlink:title=" ">
<path fill="none" stroke="#63b8ff" d="M604.66,-259.42C652.36,-249.26 735.56,-236.94 804,-255 834.27,-262.99 864.99,-282.43 884.36,-296.38"/>
<polygon fill="#63b8ff" stroke="#63b8ff" points="882.3,-299.21 892.42,-302.35 886.46,-293.58 882.3,-299.21"/>
</a>
</g>
</g>
<!-- Node24&#45;&gt;Node7 -->
<g id="edge43_Node000024_Node000007" class="edge">
<title>Node24&#45;&gt;Node7</title>
<g id="a_edge43_Node000024_Node000007"><a xlink:title=" ">
<path fill="none" stroke="#63b8ff" d="M623.96,-259.48C675.23,-254.16 750.05,-254.27 804,-288 830.69,-304.69 819.19,-325.38 840,-349 851.8,-362.39 867.6,-374.7 880.6,-383.76"/>
<polygon fill="#63b8ff" stroke="#63b8ff" points="878.84,-386.79 889.08,-389.49 882.75,-380.99 878.84,-386.79"/>
</a>
</g>
</g>
<!-- Node24&#45;&gt;Node9 -->
<g id="edge44_Node000024_Node000009" class="edge">
<title>Node24&#45;&gt;Node9</title>
<g id="a_edge44_Node000024_Node000009"><a xlink:title=" ">
<path fill="none" stroke="#63b8ff" d="M601.78,-259.47C624.17,-253.7 653.65,-246.42 680,-241 800.17,-216.27 943.72,-194.52 1012.05,-184.64"/>
<polygon fill="#63b8ff" stroke="#63b8ff" points="1012.56,-188.11 1021.96,-183.22 1011.57,-181.18 1012.56,-188.11"/>
</a>
</g>
</g>
<!-- Node25 -->
<g id="Node000025" class="node">
<title>Node25</title>
<g id="a_Node000025"><a xlink:href="classttg__parsec_1_1_t_t.html#a30d03bedfc5658375d0cc6bf2116ee12" target="_top" xlink:title=" ">
<polygon fill="white" stroke="#666666" points="804,-327 680,-327 680,-297 804,-297 804,-327"/>
<text text-anchor="start" x="688" y="-315" font-family="Times,serif" font-size="10.00">ttg_parsec::TT::check</text>
<text text-anchor="middle" x="742" y="-304" font-family="Times,serif" font-size="10.00">_constraints</text>
</a>
</g>
</g>
<!-- Node24&#45;&gt;Node25 -->
<g id="edge38_Node000024_Node000025" class="edge">
<title>Node24&#45;&gt;Node25</title>
<g id="a_edge38_Node000024_Node000025"><a xlink:title=" ">
<path fill="none" stroke="#63b8ff" d="M604.84,-278.54C624.05,-283.26 647.85,-289.11 670.15,-294.59"/>
<polygon fill="#63b8ff" stroke="#63b8ff" points="669.38,-298.01 679.93,-296.99 671.05,-291.21 669.38,-298.01"/>
</a>
</g>
</g>
<!-- Node26 -->
<g id="Node000026" class="node">
<title>Node26</title>
<g id="a_Node000026"><a xlink:href="classttg_1_1_t_t_base.html#a6e857d69adab89ba8841e4af29e0fc73" target="_top" xlink:title=" ">
<polygon fill="white" stroke="#666666" points="800.5,-126.5 683.5,-126.5 683.5,-107.5 800.5,-107.5 800.5,-126.5"/>
<text text-anchor="middle" x="742" y="-114.5" font-family="Times,serif" font-size="10.00">ttg::TTBase::tracing</text>
</a>
</g>
</g>
<!-- Node24&#45;&gt;Node26 -->
<g id="edge45_Node000024_Node000026" class="edge">
<title>Node24&#45;&gt;Node26</title>
<g id="a_edge45_Node000024_Node000026"><a xlink:title=" ">
<path fill="none" stroke="#63b8ff" d="M572.26,-259.26C587.8,-235.8 630.45,-175.56 680,-141 685.77,-136.98 692.31,-133.5 698.91,-130.53"/>
<polygon fill="#63b8ff" stroke="#63b8ff" points="700.64,-133.61 708.55,-126.55 697.97,-127.14 700.64,-133.61"/>
</a>
</g>
</g>
<!-- Node25&#45;&gt;Node5 -->
<g id="edge39_Node000025_Node000005" class="edge">
<title>Node25&#45;&gt;Node5</title>
<g id="a_edge39_Node000025_Node000005"><a xlink:title=" ">
<path fill="none" stroke="#63b8ff" d="M751.01,-327.22C777.91,-378.37 865.01,-543.93 894.57,-600.13"/>
<polygon fill="#63b8ff" stroke="#63b8ff" points="891.64,-602.08 899.4,-609.3 897.84,-598.82 891.64,-602.08"/>
</a>
</g>
</g>
<!-- Node25&#45;&gt;Node6 -->
<g id="edge40_Node000025_Node000006" class="edge">
<title>Node25&#45;&gt;Node6</title>
<g id="a_edge40_Node000025_Node000006"><a xlink:title=" ">
<path fill="none" stroke="#63b8ff" d="M804.06,-312C820.02,-312 837.08,-312 852.53,-312"/>
<polygon fill="#63b8ff" stroke="#63b8ff" points="852.93,-315.5 862.93,-312 852.93,-308.5 852.93,-315.5"/>
</a>
</g>
</g>
<!-- Node26&#45;&gt;Node12 -->
<g id="edge46_Node000026_Node000012" class="edge">
<title>Node26&#45;&gt;Node12</title>
<g id="a_edge46_Node000026_Node000012"><a xlink:title=" ">
<path fill="none" stroke="#63b8ff" d="M800.7,-115.61C813.63,-115.36 827.28,-115.13 840,-115 898.22,-114.4 912.82,-112.86 971,-115 1062.38,-118.35 1167.87,-126.97 1233.63,-132.91"/>
<polygon fill="#63b8ff" stroke="#63b8ff" points="1233.56,-136.42 1243.84,-133.84 1234.19,-129.45 1233.56,-136.42"/>
</a>
</g>
</g>
<!-- Node27 -->
<g id="Node000027" class="node">
<title>Node27</title>
<g id="a_Node000027"><a xlink:href="namespacettg_1_1detail.html#a07090477ad763f0b0e3089df7cf8e1eb" target="_top" xlink:title=" ">
<polygon fill="white" stroke="#666666" points="959.5,-154 851.5,-154 851.5,-124 959.5,-124 959.5,-154"/>
<text text-anchor="start" x="859.5" y="-142" font-family="Times,serif" font-size="10.00">ttg::detail::tt_base</text>
<text text-anchor="middle" x="905.5" y="-131" font-family="Times,serif" font-size="10.00">_trace_accessor</text>
</a>
</g>
</g>
<!-- Node26&#45;&gt;Node27 -->
<g id="edge47_Node000026_Node000027" class="edge">
<title>Node26&#45;&gt;Node27</title>
<g id="a_edge47_Node000026_Node000027"><a xlink:title=" ">
<path fill="none" stroke="#63b8ff" d="M800.85,-124.88C813.98,-126.67 827.98,-128.58 841.32,-130.39"/>
<polygon fill="#63b8ff" stroke="#63b8ff" points="840.98,-133.88 851.36,-131.76 841.92,-126.94 840.98,-133.88"/>
</a>
</g>
</g>
<!-- Node27&#45;&gt;Node9 -->
<g id="edge48_Node000027_Node000009" class="edge">
<title>Node27&#45;&gt;Node9</title>
<g id="a_edge48_Node000027_Node000009"><a xlink:title=" ">
<path fill="none" stroke="#63b8ff" d="M959.85,-153.67C977.18,-158.43 996.09,-163.63 1012.25,-168.07"/>
<polygon fill="#63b8ff" stroke="#63b8ff" points="1011.35,-171.45 1021.92,-170.73 1013.2,-164.7 1011.35,-171.45"/>
</a>
</g>
</g>
</g>
</svg>
