<?xml version="1.0" encoding="UTF-8" standalone="no"?>
<!DOCTYPE svg PUBLIC "-//W3C//DTD SVG 1.1//EN"
 "http://www.w3.org/Graphics/SVG/1.1/DTD/svg11.dtd">
<!-- Generated by graphviz version 2.43.0 (0)
 -->
<!-- Title: ttg::base::World::rank Pages: 1 -->
<svg width="316pt" height="272pt"
 viewBox="0.00 0.00 316.00 272.00" xmlns="http://www.w3.org/2000/svg" xmlns:xlink="http://www.w3.org/1999/xlink">
<g id="graph0" class="graph" transform="scale(1 1) rotate(0) translate(4 268)">
<title>ttg::base::World::rank</title>
<!-- Node1 -->
<g id="Node000001" class="node">
<title>Node1</title>
<g id="a_Node000001"><a xlink:title=" ">
<polygon fill="#999999" stroke="#666666" points="308,-130 182,-130 182,-111 308,-111 308,-130"/>
<text text-anchor="middle" x="245" y="-118" font-family="Times,serif" font-size="10.00">ttg::base::World::rank</text>
</a>
</g>
</g>
<!-- Node2 -->
<g id="Node000002" class="node">
<title>Node2</title>
<g id="a_Node000002"><a xlink:href="namespacettg.html#a0db3006a84c1ea69ab2401d3ed53df52" target="_top" xlink:title=" ">
<polygon fill="white" stroke="#666666" points="123,-264 23,-264 23,-245 123,-245 123,-264"/>
<text text-anchor="middle" x="73" y="-252" font-family="Times,serif" font-size="10.00">ttg::invoke_once</text>
</a>
</g>
</g>
<!-- Node1&#45;&gt;Node2 -->
<g id="edge1_Node000001_Node000002" class="edge">
<title>Node1&#45;&gt;Node2</title>
<g id="a_edge1_Node000001_Node000002"><a xlink:title=" ">
<path fill="none" stroke="#63b8ff" d="M233.32,-139C217.55,-164.63 185.57,-210.61 146,-235.5 139.11,-239.84 131.24,-243.19 123.31,-245.78"/>
<polygon fill="#63b8ff" stroke="#63b8ff" points="236.42,-140.63 238.55,-130.26 230.41,-137.04 236.42,-140.63"/>
</a>
</g>
</g>
<!-- Node3 -->
<g id="Node000003" class="node">
<title>Node3</title>
<g id="a_Node000003"><a xlink:href="classttg__madness_1_1_t_t.html#a6ccad7e7bea21e526167e5b79adba1a2" target="_top" xlink:title=" ">
<polygon fill="white" stroke="#666666" points="134,-226.5 12,-226.5 12,-196.5 134,-196.5 134,-226.5"/>
<text text-anchor="start" x="20" y="-214.5" font-family="Times,serif" font-size="10.00">ttg_madness::TT::set</text>
<text text-anchor="middle" x="73" y="-203.5" font-family="Times,serif" font-size="10.00">_input_reducer</text>
</a>
</g>
</g>
<!-- Node1&#45;&gt;Node3 -->
<g id="edge2_Node000001_Node000003" class="edge">
<title>Node1&#45;&gt;Node3</title>
<g id="a_edge2_Node000001_Node000003"><a xlink:title=" ">
<path fill="none" stroke="#63b8ff" d="M224.36,-136.37C205.26,-151.18 174.98,-173.12 146,-187.5 139.39,-190.78 132.23,-193.77 125.07,-196.45"/>
<polygon fill="#63b8ff" stroke="#63b8ff" points="226.61,-139.05 232.3,-130.11 222.28,-133.55 226.61,-139.05"/>
</a>
</g>
</g>
<!-- Node4 -->
<g id="Node000004" class="node">
<title>Node4</title>
<g id="a_Node000004"><a xlink:href="classttg__parsec_1_1_t_t.html#a135452f67e8da6713f06a5f286654854" target="_top" xlink:title=" ">
<polygon fill="white" stroke="#666666" points="128,-178.5 18,-178.5 18,-148.5 128,-148.5 128,-178.5"/>
<text text-anchor="start" x="26" y="-166.5" font-family="Times,serif" font-size="10.00">ttg_parsec::TT::set</text>
<text text-anchor="middle" x="73" y="-155.5" font-family="Times,serif" font-size="10.00">_input_reducer</text>
</a>
</g>
</g>
<!-- Node1&#45;&gt;Node4 -->
<g id="edge3_Node000001_Node000004" class="edge">
<title>Node1&#45;&gt;Node4</title>
<g id="a_edge3_Node000001_Node000004"><a xlink:title=" ">
<path fill="none" stroke="#63b8ff" d="M196.49,-132.52C175.23,-137.89 150.05,-144.26 128.07,-149.82"/>
<polygon fill="#63b8ff" stroke="#63b8ff" points="197.44,-135.89 206.27,-130.04 195.72,-129.1 197.44,-135.89"/>
</a>
</g>
</g>
<!-- Node5 -->
<g id="Node000005" class="node">
<title>Node5</title>
<g id="a_Node000005"><a xlink:href="classttg__madness_1_1_t_t.html#a5aea2d05192a06d6b6165fcd406b1eba" target="_top" xlink:title=" ">
<polygon fill="white" stroke="#666666" points="133,-130 13,-130 13,-111 133,-111 133,-130"/>
<text text-anchor="middle" x="73" y="-118" font-family="Times,serif" font-size="10.00">ttg_madness::TT::TT</text>
</a>
</g>
</g>
<!-- Node1&#45;&gt;Node5 -->
<g id="edge4_Node000001_Node000005" class="edge">
<title>Node1&#45;&gt;Node5</title>
<g id="a_edge4_Node000001_Node000005"><a xlink:title=" ">
<path fill="none" stroke="#63b8ff" d="M171.52,-120.5C158.74,-120.5 145.58,-120.5 133.22,-120.5"/>
<polygon fill="#63b8ff" stroke="#63b8ff" points="171.66,-124 181.66,-120.5 171.66,-117 171.66,-124"/>
</a>
</g>
</g>
<!-- Node6 -->
<g id="Node000006" class="node">
<title>Node6</title>
<g id="a_Node000006"><a xlink:href="classttg__madness_1_1_t_t.html#a3b9de627838456d8c208bb3cc4da7c20" target="_top" xlink:title=" ">
<polygon fill="white" stroke="#666666" points="133,-93 13,-93 13,-74 133,-74 133,-93"/>
<text text-anchor="middle" x="73" y="-81" font-family="Times,serif" font-size="10.00">ttg_madness::TT::TT</text>
</a>
</g>
</g>
<!-- Node1&#45;&gt;Node6 -->
<g id="edge5_Node000001_Node000006" class="edge">
<title>Node1&#45;&gt;Node6</title>
<g id="a_edge5_Node000001_Node000006"><a xlink:title=" ">
<path fill="none" stroke="#63b8ff" d="M190.15,-108.78C166.87,-103.71 139.97,-97.86 117.93,-93.06"/>
<polygon fill="#63b8ff" stroke="#63b8ff" points="189.71,-112.26 200.22,-110.97 191.19,-105.42 189.71,-112.26"/>
</a>
</g>
</g>
<!-- Node7 -->
<g id="Node000007" class="node">
<title>Node7</title>
<g id="a_Node000007"><a xlink:href="namespacettg__parsec.html#aa0dde9bdbe8109520fbd094fa980cf06" target="_top" xlink:title=" ">
<polygon fill="white" stroke="#666666" points="146,-56 0,-56 0,-37 146,-37 146,-56"/>
<text text-anchor="middle" x="73" y="-44" font-family="Times,serif" font-size="10.00">ttg_parsec::ttg_broadcast</text>
</a>
</g>
</g>
<!-- Node1&#45;&gt;Node7 -->
<g id="edge6_Node000001_Node000007" class="edge">
<title>Node1&#45;&gt;Node7</title>
<g id="a_edge6_Node000001_Node000007"><a xlink:title=" ">
<path fill="none" stroke="#63b8ff" d="M221.21,-105.51C201.86,-93.33 173.01,-76.44 146,-65.5 136.89,-61.81 126.85,-58.64 117.22,-56"/>
<polygon fill="#63b8ff" stroke="#63b8ff" points="219.33,-108.46 229.64,-110.9 223.1,-102.57 219.33,-108.46"/>
</a>
</g>
</g>
<!-- Node8 -->
<g id="Node000008" class="node">
<title>Node8</title>
<g id="a_Node000008"><a xlink:href="classttg__madness_1_1_t_t.html#a7a61ba733971b13989500f3be274e5cf" target="_top" xlink:title=" ">
<polygon fill="white" stroke="#666666" points="137,-19 9,-19 9,0 137,0 137,-19"/>
<text text-anchor="middle" x="73" y="-7" font-family="Times,serif" font-size="10.00">ttg_madness::TT::~TT</text>
</a>
</g>
</g>
<!-- Node1&#45;&gt;Node8 -->
<g id="edge7_Node000001_Node000008" class="edge">
<title>Node1&#45;&gt;Node8</title>
<g id="a_edge7_Node000001_Node000008"><a xlink:title=" ">
<path fill="none" stroke="#63b8ff" d="M230.16,-103.02C212.72,-82.19 180.81,-47.78 146,-28.5 138.99,-24.62 131.15,-21.5 123.3,-19"/>
<polygon fill="#63b8ff" stroke="#63b8ff" points="227.47,-105.26 236.51,-110.79 232.88,-100.83 227.47,-105.26"/>
</a>
</g>
</g>
</g>
</svg>
