<?xml version="1.0" encoding="UTF-8" standalone="no"?>
<!DOCTYPE svg PUBLIC "-//W3C//DTD SVG 1.1//EN"
 "http://www.w3.org/Graphics/SVG/1.1/DTD/svg11.dtd">
<!-- Generated by graphviz version 2.43.0 (0)
 -->
<!-- Title: ttg::OutTerminalBase::successors Pages: 1 -->
<!--zoomable 590 -->

<svg id="main" version="1.1" xmlns="http://www.w3.org/2000/svg" xmlns:xlink="http://www.w3.org/1999/xlink" xml:space="preserve" onload="init(evt)">
<style type="text/css"><![CDATA[
.node, .edge {opacity: 0.7;}
.node.selected, .edge.selected {opacity: 1;}
.edge:hover path { stroke: red; }
.edge:hover polygon { stroke: red; fill: red; }
]]></style>

<defs>
  <circle id="rim" cx="0" cy="0" r="7"/>
  <circle id="rim2" cx="0" cy="0" r="3.5"/>
  <g id="zoomPlus">
    <use xlink:href="#rim" fill="#404040"><set attributeName="fill" to="#808080" begin="zoomplus.mouseover" end="zoomplus.mouseout"/></use>
    <path d="M-4,0h8M0,-4v8" fill="none" stroke="white" stroke-width="1.5" pointer-events="none"/>
  </g>
  <g id="zoomMin">
    <use xlink:href="#rim" fill="#404040"><set attributeName="fill" to="#808080" begin="zoomminus.mouseover" end="zoomminus.mouseout"/></use>
    <path d="M-4,0h8" fill="none" stroke="white" stroke-width="1.5" pointer-events="none"/>
  </g>
  <g id="arrowUp" transform="translate(30 24)">
    <use xlink:href="#rim"/>
    <path pointer-events="none" fill="none" stroke="white" stroke-width="1.5" d="M0,-3.0v7 M-2.5,-0.5L0,-3.0L2.5,-0.5"/>
  </g>
  <g id="arrowRight" transform="rotate(90) translate(36 -43)">
    <use xlink:href="#rim"/>
    <path pointer-events="none" fill="none" stroke="white" stroke-width="1.5" d="M0,-3.0v7 M-2.5,-0.5L0,-3.0L2.5,-0.5"/>
  </g>
  <g id="arrowDown" transform="rotate(180) translate(-30 -48)">
    <use xlink:href="#rim"/>
    <path pointer-events="none" fill="none" stroke="white" stroke-width="1.5" d="M0,-3.0v7 M-2.5,-0.5L0,-3.0L2.5,-0.5"/>
  </g>
  <g id="arrowLeft" transform="rotate(270) translate(-36 17)">
    <use xlink:href="#rim"/>
    <path pointer-events="none" fill="none" stroke="white" stroke-width="1.5" d="M0,-3.0v7 M-2.5,-0.5L0,-3.0L2.5,-0.5"/>
  </g>
  <g id="resetDef">
    <use xlink:href="#rim2" fill="#404040"><set attributeName="fill" to="#808080" begin="reset.mouseover" end="reset.mouseout"/></use>
  </g>
</defs>
<script type="application/ecmascript">
var viewWidth = 582;
var viewHeight = 590;
var sectionId = 'dynsection-12';
</script>
<script type="application/ecmascript" xlink:href="svg.min.js"/>
<svg id="graph" class="graph">
<g id="viewport">
<title>ttg::OutTerminalBase::successors</title>
<!-- Node1 -->
<g id="Node000001" class="node">
<title>Node1</title>
<g id="a_Node000001"><a xlink:title=" ">
<polygon fill="#999999" stroke="#666666" points="574,-319.21 449,-319.21 449,-289.21 574,-289.21 574,-319.21"/>
<text text-anchor="start" x="457" y="-307.21" font-family="Times,serif" font-size="10.00">ttg::OutTerminalBase</text>
<text text-anchor="middle" x="511.5" y="-296.21" font-family="Times,serif" font-size="10.00">::successors</text>
</a>
</g>
</g>
<!-- Node2 -->
<g id="Node000002" class="node">
<title>Node2</title>
<g id="a_Node000002"><a xlink:href="classttg_1_1_out.html#a5e3565d4f06d2476f4537882072c1225" target="_top" xlink:title=" ">
<polygon fill="white" stroke="#666666" points="235,-558.71 123,-558.71 123,-539.71 235,-539.71 235,-558.71"/>
<text text-anchor="middle" x="179" y="-546.71" font-family="Times,serif" font-size="10.00">ttg::Out::broadcast</text>
</a>
</g>
</g>
<!-- Node1&#45;&gt;Node2 -->
<g id="edge1_Node000001_Node000002" class="edge">
<title>Node1&#45;&gt;Node2</title>
<g id="a_edge1_Node000001_Node000002"><a xlink:title=" ">
<path fill="none" stroke="#63b8ff" d="M509.59,-329.7C506.16,-382.94 489.86,-505.38 413,-558.21 348.78,-602.35 249.39,-575.02 204.04,-558.74"/>
<polygon fill="#63b8ff" stroke="#63b8ff" points="513.1,-329.61 510.15,-319.44 506.11,-329.23 513.1,-329.61"/>
</a>
</g>
</g>
<!-- Node3 -->
<g id="Node000003" class="node">
<title>Node3</title>
<g id="a_Node000003"><a xlink:href="classttg_1_1_out.html#a61dbd5c1f8d8cc7f5370f2b8b400b900" target="_top" xlink:title=" ">
<polygon fill="white" stroke="#666666" points="403,-530.71 291,-530.71 291,-511.71 403,-511.71 403,-530.71"/>
<text text-anchor="middle" x="347" y="-518.71" font-family="Times,serif" font-size="10.00">ttg::Out::broadcast</text>
</a>
</g>
</g>
<!-- Node1&#45;&gt;Node3 -->
<g id="edge2_Node000001_Node000003" class="edge">
<title>Node1&#45;&gt;Node3</title>
<g id="a_edge2_Node000001_Node000003"><a xlink:title=" ">
<path fill="none" stroke="#63b8ff" d="M505.06,-329.42C494.65,-371.53 467.92,-456.07 413,-502.21 408.41,-506.07 403.07,-509.14 397.46,-511.59"/>
<polygon fill="#63b8ff" stroke="#63b8ff" points="508.52,-329.98 507.41,-319.45 501.71,-328.38 508.52,-329.98"/>
</a>
</g>
</g>
<!-- Node4 -->
<g id="Node000004" class="node">
<title>Node4</title>
<g id="a_Node000004"><a xlink:href="classttg_1_1_out_terminal_base.html#a17d34c774c64c9aed0cd9424cafba0e2" target="_top" xlink:title=" ">
<polygon fill="white" stroke="#666666" points="409.5,-475.21 284.5,-475.21 284.5,-445.21 409.5,-445.21 409.5,-475.21"/>
<text text-anchor="start" x="292.5" y="-463.21" font-family="Times,serif" font-size="10.00">ttg::OutTerminalBase</text>
<text text-anchor="middle" x="347" y="-452.21" font-family="Times,serif" font-size="10.00">::finalize</text>
</a>
</g>
</g>
<!-- Node1&#45;&gt;Node4 -->
<g id="edge5_Node000001_Node000004" class="edge">
<title>Node1&#45;&gt;Node4</title>
<g id="a_edge5_Node000001_Node000004"><a xlink:title=" ">
<path fill="none" stroke="#63b8ff" d="M497.12,-328.21C480.53,-356.14 449.86,-402.13 413,-431.21 406.11,-436.64 398.04,-441.29 389.98,-445.18"/>
<polygon fill="#63b8ff" stroke="#63b8ff" points="500.2,-329.88 502.2,-319.48 494.15,-326.36 500.2,-329.88"/>
</a>
</g>
</g>
<!-- Node5 -->
<g id="Node000005" class="node">
<title>Node5</title>
<g id="a_Node000005"><a xlink:href="classttg_1_1_out_terminal_base.html#af7831a958cf8a5774153bf0c3c0cfaa6" target="_top" xlink:title=" ">
<polygon fill="white" stroke="#666666" points="241.5,-453.21 116.5,-453.21 116.5,-423.21 241.5,-423.21 241.5,-453.21"/>
<text text-anchor="start" x="124.5" y="-441.21" font-family="Times,serif" font-size="10.00">ttg::OutTerminalBase</text>
<text text-anchor="middle" x="179" y="-430.21" font-family="Times,serif" font-size="10.00">::finalize</text>
</a>
</g>
</g>
<!-- Node1&#45;&gt;Node5 -->
<g id="edge10_Node000001_Node000005" class="edge">
<title>Node1&#45;&gt;Node5</title>
<g id="a_edge10_Node000001_Node000005"><a xlink:title=" ">
<path fill="none" stroke="#63b8ff" d="M493.15,-327.6C475.53,-349.55 446.15,-381.43 413,-398.21 359.35,-425.36 290.8,-434.54 241.97,-437.42"/>
<polygon fill="#63b8ff" stroke="#63b8ff" points="496.13,-329.48 499.54,-319.45 490.62,-325.17 496.13,-329.48"/>
</a>
</g>
</g>
<!-- Node8 -->
<g id="Node000008" class="node">
<title>Node8</title>
<g id="a_Node000008"><a xlink:href="classttg_1_1_out.html#a57b889eeff9324054e816caed0561ae1" target="_top" xlink:title=" ">
<polygon fill="white" stroke="#666666" points="413,-370.71 281,-370.71 281,-351.71 413,-351.71 413,-370.71"/>
<text text-anchor="middle" x="347" y="-358.71" font-family="Times,serif" font-size="10.00">ttg::Out::prepare_send</text>
</a>
</g>
</g>
<!-- Node1&#45;&gt;Node8 -->
<g id="edge11_Node000001_Node000008" class="edge">
<title>Node1&#45;&gt;Node8</title>
<g id="a_edge11_Node000001_Node000008"><a xlink:title=" ">
<path fill="none" stroke="#63b8ff" d="M457.9,-322.66C430.44,-332.29 397.96,-343.68 375.47,-351.57"/>
<polygon fill="#63b8ff" stroke="#63b8ff" points="459.1,-325.95 467.38,-319.34 456.78,-319.34 459.1,-325.95"/>
</a>
</g>
</g>
<!-- Node9 -->
<g id="Node000009" class="node">
<title>Node9</title>
<g id="a_Node000009"><a xlink:href="classttg_1_1_out.html#a5ac82dc10b43caa7723a6b20d2ef85b2" target="_top" xlink:title=" ">
<polygon fill="white" stroke="#666666" points="245,-351.71 113,-351.71 113,-332.71 245,-332.71 245,-351.71"/>
<text text-anchor="middle" x="179" y="-339.71" font-family="Times,serif" font-size="10.00">ttg::Out::prepare_send</text>
</a>
</g>
</g>
<!-- Node1&#45;&gt;Node9 -->
<g id="edge14_Node000001_Node000009" class="edge">
<title>Node1&#45;&gt;Node9</title>
<g id="a_edge14_Node000001_Node000009"><a xlink:title=" ">
<path fill="none" stroke="#63b8ff" d="M438.6,-312.48C381,-319.1 300.89,-328.31 245.15,-334.72"/>
<polygon fill="#63b8ff" stroke="#63b8ff" points="439.19,-315.93 448.72,-311.31 438.39,-308.98 439.19,-315.93"/>
</a>
</g>
</g>
<!-- Node10 -->
<g id="Node000010" class="node">
<title>Node10</title>
<g id="a_Node000010"><a xlink:href="classttg_1_1_out.html#af3902b047294f85bdfaeb42dcd4488a4" target="_top" xlink:title=" ">
<polygon fill="white" stroke="#666666" points="390,-238.71 304,-238.71 304,-219.71 390,-219.71 390,-238.71"/>
<text text-anchor="middle" x="347" y="-226.71" font-family="Times,serif" font-size="10.00">ttg::Out::send</text>
</a>
</g>
</g>
<!-- Node1&#45;&gt;Node10 -->
<g id="edge15_Node000001_Node000010" class="edge">
<title>Node1&#45;&gt;Node10</title>
<g id="a_edge15_Node000001_Node000010"><a xlink:title=" ">
<path fill="none" stroke="#63b8ff" d="M468.5,-284.83C436.59,-270.1 394.03,-250.46 368.97,-238.89"/>
<polygon fill="#63b8ff" stroke="#63b8ff" points="467.07,-288.02 477.62,-289.03 470,-281.66 467.07,-288.02"/>
</a>
</g>
</g>
<!-- Node11 -->
<g id="Node000011" class="node">
<title>Node11</title>
<g id="a_Node000011"><a xlink:href="classttg_1_1_out.html#ad2a015783a18cb7e66096c95a9ae77d0" target="_top" xlink:title=" ">
<polygon fill="white" stroke="#666666" points="222,-294.71 136,-294.71 136,-275.71 222,-275.71 222,-294.71"/>
<text text-anchor="middle" x="179" y="-282.71" font-family="Times,serif" font-size="10.00">ttg::Out::send</text>
</a>
</g>
</g>
<!-- Node1&#45;&gt;Node11 -->
<g id="edge20_Node000001_Node000011" class="edge">
<title>Node1&#45;&gt;Node11</title>
<g id="a_edge20_Node000001_Node000011"><a xlink:title=" ">
<path fill="none" stroke="#63b8ff" d="M438.37,-300.06C372.23,-296.26 276.53,-290.76 222.08,-287.63"/>
<polygon fill="#63b8ff" stroke="#63b8ff" points="438.54,-303.58 448.72,-300.66 438.94,-296.59 438.54,-303.58"/>
</a>
</g>
</g>
<!-- Node14 -->
<g id="Node000014" class="node">
<title>Node14</title>
<g id="a_Node000014"><a xlink:href="classttg_1_1_out.html#a63a75f52fff6b34ec5287e7daefe5bfa" target="_top" xlink:title=" ">
<polygon fill="white" stroke="#666666" points="393,-183.71 301,-183.71 301,-164.71 393,-164.71 393,-183.71"/>
<text text-anchor="middle" x="347" y="-171.71" font-family="Times,serif" font-size="10.00">ttg::Out::sendk</text>
</a>
</g>
</g>
<!-- Node1&#45;&gt;Node14 -->
<g id="edge21_Node000001_Node000014" class="edge">
<title>Node1&#45;&gt;Node14</title>
<g id="a_edge21_Node000001_Node000014"><a xlink:title=" ">
<path fill="none" stroke="#63b8ff" d="M490.02,-281.77C471.17,-261.85 441.83,-232.66 413,-211.21 398.62,-200.51 380.86,-190.6 367.54,-183.73"/>
<polygon fill="#63b8ff" stroke="#63b8ff" points="487.56,-284.27 496.95,-289.18 492.67,-279.48 487.56,-284.27"/>
</a>
</g>
</g>
<!-- Node17 -->
<g id="Node000017" class="node">
<title>Node17</title>
<g id="a_Node000017"><a xlink:href="classttg_1_1_out.html#a19596b1bdc19006bfe9771b3ece65223" target="_top" xlink:title=" ">
<polygon fill="white" stroke="#666666" points="393,-128.71 301,-128.71 301,-109.71 393,-109.71 393,-128.71"/>
<text text-anchor="middle" x="347" y="-116.71" font-family="Times,serif" font-size="10.00">ttg::Out::sendv</text>
</a>
</g>
</g>
<!-- Node1&#45;&gt;Node17 -->
<g id="edge25_Node000001_Node000017" class="edge">
<title>Node1&#45;&gt;Node17</title>
<g id="a_edge25_Node000001_Node000017"><a xlink:title=" ">
<path fill="none" stroke="#63b8ff" d="M498.96,-279.73C483.12,-248.13 452.1,-192.85 413,-156.21 400.59,-144.58 383.86,-135.16 370.48,-128.74"/>
<polygon fill="#63b8ff" stroke="#63b8ff" points="496.02,-281.67 503.57,-289.11 502.3,-278.59 496.02,-281.67"/>
</a>
</g>
</g>
<!-- Node20 -->
<g id="Node000020" class="node">
<title>Node20</title>
<g id="a_Node000020"><a xlink:href="classttg_1_1_out_terminal_base.html#ae49bef4469c9abd4dd1f10b0429984b4" target="_top" xlink:title=" ">
<polygon fill="white" stroke="#666666" points="409.5,-73.21 284.5,-73.21 284.5,-43.21 409.5,-43.21 409.5,-73.21"/>
<text text-anchor="start" x="292.5" y="-61.21" font-family="Times,serif" font-size="10.00">ttg::OutTerminalBase</text>
<text text-anchor="middle" x="347" y="-50.21" font-family="Times,serif" font-size="10.00">::set_size</text>
</a>
</g>
</g>
<!-- Node1&#45;&gt;Node20 -->
<g id="edge29_Node000001_Node000020" class="edge">
<title>Node1&#45;&gt;Node20</title>
<g id="a_edge29_Node000001_Node000020"><a xlink:title=" ">
<path fill="none" stroke="#63b8ff" d="M503.39,-279.46C490.7,-238.6 460.86,-156.11 413,-101.21 403.22,-89.99 389.84,-80.47 377.77,-73.27"/>
<polygon fill="#63b8ff" stroke="#63b8ff" points="500.08,-280.58 506.32,-289.14 506.78,-278.55 500.08,-280.58"/>
</a>
</g>
</g>
<!-- Node25 -->
<g id="Node000025" class="node">
<title>Node25</title>
<g id="a_Node000025"><a xlink:href="classttg_1_1_out_terminal_base.html#a5ce0ce0c4247e276201644e30314ba70" target="_top" xlink:title=" ">
<polygon fill="white" stroke="#666666" points="241.5,-30.21 116.5,-30.21 116.5,-0.21 241.5,-0.21 241.5,-30.21"/>
<text text-anchor="start" x="124.5" y="-18.21" font-family="Times,serif" font-size="10.00">ttg::OutTerminalBase</text>
<text text-anchor="middle" x="179" y="-7.21" font-family="Times,serif" font-size="10.00">::set_size</text>
</a>
</g>
</g>
<!-- Node1&#45;&gt;Node25 -->
<g id="edge36_Node000001_Node000025" class="edge">
<title>Node1&#45;&gt;Node25</title>
<g id="a_edge36_Node000001_Node000025"><a xlink:title=" ">
<path fill="none" stroke="#63b8ff" d="M509.86,-278.81C506.97,-223.93 491.71,-94.39 413,-34.21 364.56,2.83 292.72,2.94 241.63,-3.3"/>
<polygon fill="#63b8ff" stroke="#63b8ff" points="506.37,-279.2 510.3,-289.04 513.37,-278.9 506.37,-279.2"/>
</a>
</g>
</g>
<!-- Node3&#45;&gt;Node2 -->
<g id="edge3_Node000003_Node000002" class="edge">
<title>Node3&#45;&gt;Node2</title>
<g id="a_edge3_Node000003_Node000002"><a xlink:title=" ">
<path fill="none" stroke="#63b8ff" d="M280.46,-532.26C265.42,-534.8 249.58,-537.47 235.03,-539.93"/>
<polygon fill="#63b8ff" stroke="#63b8ff" points="281.45,-535.65 290.72,-530.53 280.28,-528.75 281.45,-535.65"/>
</a>
</g>
</g>
<!-- Node3&#45;&gt;Node3 -->
<g id="edge4_Node000003_Node000003" class="edge">
<title>Node3&#45;&gt;Node3</title>
<g id="a_edge4_Node000003_Node000003"><a xlink:title=" ">
<path fill="none" stroke="#63b8ff" d="M377.61,-539.53C376.33,-544.72 366.13,-548.71 347,-548.71 317.85,-548.71 309.43,-539.44 321.72,-530.79"/>
<polygon fill="#63b8ff" stroke="#63b8ff" points="380.48,-537.5 372.28,-530.79 374.5,-541.15 380.48,-537.5"/>
</a>
</g>
</g>
<!-- Node4&#45;&gt;Node4 -->
<g id="edge6_Node000004_Node000004" class="edge">
<title>Node4&#45;&gt;Node4</title>
<g id="a_edge6_Node000004_Node000004"><a xlink:title=" ">
<path fill="none" stroke="#63b8ff" d="M375.71,-485.81C371.78,-490.18 362.21,-493.21 347,-493.21 321.38,-493.21 311.77,-484.62 318.17,-475.49"/>
<polygon fill="#63b8ff" stroke="#63b8ff" points="379.21,-485.53 375.83,-475.49 372.21,-485.44 379.21,-485.53"/>
</a>
</g>
</g>
<!-- Node4&#45;&gt;Node5 -->
<g id="edge7_Node000004_Node000005" class="edge">
<title>Node4&#45;&gt;Node5</title>
<g id="a_edge7_Node000004_Node000005"><a xlink:title=" ">
<path fill="none" stroke="#63b8ff" d="M273.95,-450.66C263.16,-449.23 252.13,-447.77 241.59,-446.37"/>
<polygon fill="#63b8ff" stroke="#63b8ff" points="273.81,-454.17 284.19,-452.02 274.73,-447.23 273.81,-454.17"/>
</a>
</g>
</g>
<!-- Node6 -->
<g id="Node000006" class="node">
<title>Node6</title>
<g id="a_Node000006"><a xlink:href="namespacettg.html#a7075f199efa0ec86240a4b8c0fc621da" target="_top" xlink:title="Finalize streaming input terminals connecting to the given output terminal for tasks identified by ke...">
<polygon fill="white" stroke="#666666" points="75.5,-465.71 1.5,-465.71 1.5,-446.71 75.5,-446.71 75.5,-465.71"/>
<text text-anchor="middle" x="38.5" y="-453.71" font-family="Times,serif" font-size="10.00">ttg::finalize</text>
</a>
</g>
</g>
<!-- Node5&#45;&gt;Node6 -->
<g id="edge8_Node000005_Node000006" class="edge">
<title>Node5&#45;&gt;Node6</title>
<g id="a_edge8_Node000005_Node000006"><a xlink:title=" ">
<path fill="none" stroke="#63b8ff" d="M106.33,-447.52C95.76,-448.9 85.27,-450.26 75.84,-451.49"/>
<polygon fill="#63b8ff" stroke="#63b8ff" points="106.98,-450.97 116.45,-446.21 106.08,-444.03 106.98,-450.97"/>
</a>
</g>
</g>
<!-- Node7 -->
<g id="Node000007" class="node">
<title>Node7</title>
<g id="a_Node000007"><a xlink:href="namespacettg.html#ac12ebacc01669eddae361b592e94188e" target="_top" xlink:title="Finalize streaming input terminals connected to the given output terminal; use this to finalize termi...">
<polygon fill="white" stroke="#666666" points="75.5,-428.71 1.5,-428.71 1.5,-409.71 75.5,-409.71 75.5,-428.71"/>
<text text-anchor="middle" x="38.5" y="-416.71" font-family="Times,serif" font-size="10.00">ttg::finalize</text>
</a>
</g>
</g>
<!-- Node5&#45;&gt;Node7 -->
<g id="edge9_Node000005_Node000007" class="edge">
<title>Node5&#45;&gt;Node7</title>
<g id="a_edge9_Node000005_Node000007"><a xlink:title=" ">
<path fill="none" stroke="#63b8ff" d="M106.33,-428.38C95.76,-426.93 85.27,-425.49 75.84,-424.2"/>
<polygon fill="#63b8ff" stroke="#63b8ff" points="106.06,-431.87 116.45,-429.77 107.01,-424.94 106.06,-431.87"/>
</a>
</g>
</g>
<!-- Node8&#45;&gt;Node8 -->
<g id="edge12_Node000008_Node000008" class="edge">
<title>Node8&#45;&gt;Node8</title>
<g id="a_edge12_Node000008_Node000008"><a xlink:title=" ">
<path fill="none" stroke="#63b8ff" d="M377.61,-379.53C376.33,-384.72 366.13,-388.71 347,-388.71 317.85,-388.71 309.43,-379.44 321.72,-370.79"/>
<polygon fill="#63b8ff" stroke="#63b8ff" points="380.48,-377.5 372.28,-370.79 374.5,-381.15 380.48,-377.5"/>
</a>
</g>
</g>
<!-- Node8&#45;&gt;Node9 -->
<g id="edge13_Node000008_Node000009" class="edge">
<title>Node8&#45;&gt;Node9</title>
<g id="a_edge13_Node000008_Node000009"><a xlink:title=" ">
<path fill="none" stroke="#63b8ff" d="M270.89,-352.61C262.32,-351.63 253.64,-350.64 245.22,-349.67"/>
<polygon fill="#63b8ff" stroke="#63b8ff" points="270.54,-356.09 280.87,-353.75 271.33,-349.14 270.54,-356.09"/>
</a>
</g>
</g>
<!-- Node10&#45;&gt;Node10 -->
<g id="edge16_Node000010_Node000010" class="edge">
<title>Node10&#45;&gt;Node10</title>
<g id="a_edge16_Node000010_Node000010"><a xlink:title=" ">
<path fill="none" stroke="#63b8ff" d="M377.61,-247.53C376.33,-252.72 366.13,-256.71 347,-256.71 317.85,-256.71 309.43,-247.44 321.72,-238.79"/>
<polygon fill="#63b8ff" stroke="#63b8ff" points="380.48,-245.5 372.28,-238.79 374.5,-249.15 380.48,-245.5"/>
</a>
</g>
</g>
<!-- Node10&#45;&gt;Node11 -->
<g id="edge17_Node000010_Node000011" class="edge">
<title>Node10&#45;&gt;Node11</title>
<g id="a_edge17_Node000010_Node000011"><a xlink:title=" ">
<path fill="none" stroke="#63b8ff" d="M313.14,-242.43C293.51,-250.11 268.01,-259.71 245,-267.21 235.87,-270.18 225.92,-273.1 216.61,-275.69"/>
<polygon fill="#63b8ff" stroke="#63b8ff" points="314.52,-245.64 322.54,-238.72 311.95,-239.13 314.52,-245.64"/>
</a>
</g>
</g>
<!-- Node12 -->
<g id="Node000012" class="node">
<title>Node12</title>
<g id="a_Node000012"><a xlink:href="namespacettg.html#a195eb3c0d9b0118dd7c94c0463840734" target="_top" xlink:title="Sends a task id and a value to the given output terminal.">
<polygon fill="white" stroke="#666666" points="210,-257.71 148,-257.71 148,-238.71 210,-238.71 210,-257.71"/>
<text text-anchor="middle" x="179" y="-245.71" font-family="Times,serif" font-size="10.00">ttg::send</text>
</a>
</g>
</g>
<!-- Node10&#45;&gt;Node12 -->
<g id="edge18_Node000010_Node000012" class="edge">
<title>Node10&#45;&gt;Node12</title>
<g id="a_edge18_Node000010_Node000012"><a xlink:title=" ">
<path fill="none" stroke="#63b8ff" d="M293.44,-235.23C266,-238.37 233.39,-242.1 210.19,-244.75"/>
<polygon fill="#63b8ff" stroke="#63b8ff" points="294.14,-238.67 303.68,-234.05 293.35,-231.71 294.14,-238.67"/>
</a>
</g>
</g>
<!-- Node13 -->
<g id="Node000013" class="node">
<title>Node13</title>
<g id="a_Node000013"><a xlink:href="namespacettg.html#a64fbfb8618ef226f6b3d49a7a46db0cb" target="_top" xlink:title="Sends a control message (message without an accompanying task id or a value) to the given output term...">
<polygon fill="white" stroke="#666666" points="210,-220.71 148,-220.71 148,-201.71 210,-201.71 210,-220.71"/>
<text text-anchor="middle" x="179" y="-208.71" font-family="Times,serif" font-size="10.00">ttg::send</text>
</a>
</g>
</g>
<!-- Node10&#45;&gt;Node13 -->
<g id="edge19_Node000010_Node000013" class="edge">
<title>Node10&#45;&gt;Node13</title>
<g id="a_edge19_Node000010_Node000013"><a xlink:title=" ">
<path fill="none" stroke="#63b8ff" d="M293.44,-223.51C266,-220.53 233.39,-217 210.19,-214.48"/>
<polygon fill="#63b8ff" stroke="#63b8ff" points="293.36,-227.02 303.68,-224.62 294.12,-220.06 293.36,-227.02"/>
</a>
</g>
</g>
<!-- Node14&#45;&gt;Node14 -->
<g id="edge22_Node000014_Node000014" class="edge">
<title>Node14&#45;&gt;Node14</title>
<g id="a_edge22_Node000014_Node000014"><a xlink:title=" ">
<path fill="none" stroke="#63b8ff" d="M377.61,-192.53C376.33,-197.72 366.13,-201.71 347,-201.71 317.85,-201.71 309.43,-192.44 321.72,-183.79"/>
<polygon fill="#63b8ff" stroke="#63b8ff" points="380.48,-190.5 372.28,-183.79 374.5,-194.15 380.48,-190.5"/>
</a>
</g>
</g>
<!-- Node15 -->
<g id="Node000015" class="node">
<title>Node15</title>
<g id="a_Node000015"><a xlink:href="namespacettg.html#a83562836ce105890c0e32d75cad1e421" target="_top" xlink:title="Sends a task id (without an accompanying value) to the given output terminal.">
<polygon fill="white" stroke="#666666" points="213,-183.71 145,-183.71 145,-164.71 213,-164.71 213,-183.71"/>
<text text-anchor="middle" x="179" y="-171.71" font-family="Times,serif" font-size="10.00">ttg::sendk</text>
</a>
</g>
</g>
<!-- Node14&#45;&gt;Node15 -->
<g id="edge23_Node000014_Node000015" class="edge">
<title>Node14&#45;&gt;Node15</title>
<g id="a_edge23_Node000014_Node000015"><a xlink:title=" ">
<path fill="none" stroke="#63b8ff" d="M290.31,-174.21C264.73,-174.21 235.24,-174.21 213.19,-174.21"/>
<polygon fill="#63b8ff" stroke="#63b8ff" points="290.64,-177.71 300.64,-174.21 290.64,-170.71 290.64,-177.71"/>
</a>
</g>
</g>
<!-- Node16 -->
<g id="Node000016" class="node">
<title>Node16</title>
<g id="a_Node000016"><a xlink:href="namespacettg.html#aef6947191f40b85e515f63ef87a250ff" target="_top" xlink:title="Sends a task id (without an accompanying value) to the template tasks attached to the output terminal...">
<polygon fill="white" stroke="#666666" points="72.5,-183.71 4.5,-183.71 4.5,-164.71 72.5,-164.71 72.5,-183.71"/>
<text text-anchor="middle" x="38.5" y="-171.71" font-family="Times,serif" font-size="10.00">ttg::sendk</text>
</a>
</g>
</g>
<!-- Node15&#45;&gt;Node16 -->
<g id="edge24_Node000015_Node000016" class="edge">
<title>Node15&#45;&gt;Node16</title>
<g id="a_edge24_Node000015_Node000016"><a xlink:title=" ">
<path fill="none" stroke="#63b8ff" d="M134.74,-174.21C114.78,-174.21 91.46,-174.21 72.88,-174.21"/>
<polygon fill="#63b8ff" stroke="#63b8ff" points="134.83,-177.71 144.83,-174.21 134.83,-170.71 134.83,-177.71"/>
</a>
</g>
</g>
<!-- Node17&#45;&gt;Node17 -->
<g id="edge26_Node000017_Node000017" class="edge">
<title>Node17&#45;&gt;Node17</title>
<g id="a_edge26_Node000017_Node000017"><a xlink:title=" ">
<path fill="none" stroke="#63b8ff" d="M377.61,-137.53C376.33,-142.72 366.13,-146.71 347,-146.71 317.85,-146.71 309.43,-137.44 321.72,-128.79"/>
<polygon fill="#63b8ff" stroke="#63b8ff" points="380.48,-135.5 372.28,-128.79 374.5,-139.15 380.48,-135.5"/>
</a>
</g>
</g>
<!-- Node18 -->
<g id="Node000018" class="node">
<title>Node18</title>
<g id="a_Node000018"><a xlink:href="namespacettg.html#a8f6699133cf34d99b17a41af9834a272" target="_top" xlink:title="Sends a value (without an accompanying task id) to the given output terminal.">
<polygon fill="white" stroke="#666666" points="213,-141.71 145,-141.71 145,-122.71 213,-122.71 213,-141.71"/>
<text text-anchor="middle" x="179" y="-129.71" font-family="Times,serif" font-size="10.00">ttg::sendv</text>
</a>
</g>
</g>
<!-- Node17&#45;&gt;Node18 -->
<g id="edge27_Node000017_Node000018" class="edge">
<title>Node17&#45;&gt;Node18</title>
<g id="a_edge27_Node000017_Node000018"><a xlink:title=" ">
<path fill="none" stroke="#63b8ff" d="M290.66,-123.54C264.99,-125.55 235.34,-127.88 213.19,-129.61"/>
<polygon fill="#63b8ff" stroke="#63b8ff" points="290.94,-127.03 300.64,-122.76 290.4,-120.05 290.94,-127.03"/>
</a>
</g>
</g>
<!-- Node19 -->
<g id="Node000019" class="node">
<title>Node19</title>
<g id="a_Node000019"><a xlink:href="namespacettg.html#aec6fd6a228d0400a690001fd5171b468" target="_top" xlink:title="Sends a value (without an accompanying task id) to the template tasks attached to the output terminal...">
<polygon fill="white" stroke="#666666" points="72.5,-141.71 4.5,-141.71 4.5,-122.71 72.5,-122.71 72.5,-141.71"/>
<text text-anchor="middle" x="38.5" y="-129.71" font-family="Times,serif" font-size="10.00">ttg::sendv</text>
</a>
</g>
</g>
<!-- Node18&#45;&gt;Node19 -->
<g id="edge28_Node000018_Node000019" class="edge">
<title>Node18&#45;&gt;Node19</title>
<g id="a_edge28_Node000018_Node000019"><a xlink:title=" ">
<path fill="none" stroke="#63b8ff" d="M134.74,-132.21C114.78,-132.21 91.46,-132.21 72.88,-132.21"/>
<polygon fill="#63b8ff" stroke="#63b8ff" points="134.83,-135.71 144.83,-132.21 134.83,-128.71 134.83,-135.71"/>
</a>
</g>
</g>
<!-- Node20&#45;&gt;Node20 -->
<g id="edge30_Node000020_Node000020" class="edge">
<title>Node20&#45;&gt;Node20</title>
<g id="a_edge30_Node000020_Node000020"><a xlink:title=" ">
<path fill="none" stroke="#63b8ff" d="M375.71,-83.81C371.78,-88.18 362.21,-91.21 347,-91.21 321.38,-91.21 311.77,-82.62 318.17,-73.49"/>
<polygon fill="#63b8ff" stroke="#63b8ff" points="379.21,-83.53 375.83,-73.49 372.21,-83.44 379.21,-83.53"/>
</a>
</g>
</g>
<!-- Node21 -->
<g id="Node000021" class="node">
<title>Node21</title>
<g id="a_Node000021"><a xlink:href="namespacettg.html#a647ab7e77f26372e8ed5519e373caf3b" target="_top" xlink:title=" ">
<polygon fill="white" stroke="#666666" points="217.5,-104.71 140.5,-104.71 140.5,-85.71 217.5,-85.71 217.5,-104.71"/>
<text text-anchor="middle" x="179" y="-92.71" font-family="Times,serif" font-size="10.00">ttg::set_size</text>
</a>
</g>
</g>
<!-- Node20&#45;&gt;Node21 -->
<g id="edge31_Node000020_Node000021" class="edge">
<title>Node20&#45;&gt;Node21</title>
<g id="a_edge31_Node000020_Node000021"><a xlink:title=" ">
<path fill="none" stroke="#63b8ff" d="M274.4,-74.17C254.9,-78.51 234.55,-83.05 217.75,-86.8"/>
<polygon fill="#63b8ff" stroke="#63b8ff" points="275.19,-77.58 284.19,-71.99 273.67,-70.75 275.19,-77.58"/>
</a>
</g>
</g>
<!-- Node24 -->
<g id="Node000024" class="node">
<title>Node24</title>
<g id="a_Node000024"><a xlink:href="namespacettg.html#af31d31d8a37261b9f89f1852e9e3c10f" target="_top" xlink:title="Set the size of all streaming input terminals connected to an output terminal with void key.">
<polygon fill="white" stroke="#666666" points="217.5,-67.71 140.5,-67.71 140.5,-48.71 217.5,-48.71 217.5,-67.71"/>
<text text-anchor="middle" x="179" y="-55.71" font-family="Times,serif" font-size="10.00">ttg::set_size</text>
</a>
</g>
</g>
<!-- Node20&#45;&gt;Node24 -->
<g id="edge34_Node000020_Node000024" class="edge">
<title>Node20&#45;&gt;Node24</title>
<g id="a_edge34_Node000020_Node000024"><a xlink:title=" ">
<path fill="none" stroke="#63b8ff" d="M274.13,-58.21C254.72,-58.21 234.47,-58.21 217.75,-58.21"/>
<polygon fill="#63b8ff" stroke="#63b8ff" points="274.19,-61.71 284.19,-58.21 274.19,-54.71 274.19,-61.71"/>
</a>
</g>
</g>
<!-- Node20&#45;&gt;Node25 -->
<g id="edge35_Node000020_Node000025" class="edge">
<title>Node20&#45;&gt;Node25</title>
<g id="a_edge35_Node000020_Node000025"><a xlink:title=" ">
<path fill="none" stroke="#63b8ff" d="M277.94,-40.58C264.69,-37.15 250.91,-33.58 238.03,-30.24"/>
<polygon fill="#63b8ff" stroke="#63b8ff" points="277.38,-44.05 287.94,-43.17 279.14,-37.27 277.38,-44.05"/>
</a>
</g>
</g>
<!-- Node22 -->
<g id="Node000022" class="node">
<title>Node22</title>
<g id="a_Node000022"><a xlink:href="namespacettg.html#aeb9f920fc147bba8f435b2ca39cdd414" target="_top" xlink:title=" ">
<polygon fill="white" stroke="#666666" points="77,-104.71 0,-104.71 0,-85.71 77,-85.71 77,-104.71"/>
<text text-anchor="middle" x="38.5" y="-92.71" font-family="Times,serif" font-size="10.00">ttg::set_size</text>
</a>
</g>
</g>
<!-- Node21&#45;&gt;Node22 -->
<g id="edge32_Node000021_Node000022" class="edge">
<title>Node21&#45;&gt;Node22</title>
<g id="a_edge32_Node000021_Node000022"><a xlink:title=" ">
<path fill="none" stroke="#63b8ff" d="M129.75,-95.21C112.56,-95.21 93.48,-95.21 77.3,-95.21"/>
<polygon fill="#63b8ff" stroke="#63b8ff" points="130.15,-98.71 140.15,-95.21 130.15,-91.71 130.15,-98.71"/>
</a>
</g>
</g>
<!-- Node23 -->
<g id="Node000023" class="node">
<title>Node23</title>
<g id="a_Node000023"><a xlink:href="namespacettg.html#ae96ab8dfc75550533beda7e2644dc00f" target="_top" xlink:title=" ">
<polygon fill="white" stroke="#666666" points="77,-67.71 0,-67.71 0,-48.71 77,-48.71 77,-67.71"/>
<text text-anchor="middle" x="38.5" y="-55.71" font-family="Times,serif" font-size="10.00">ttg::set_size</text>
</a>
</g>
</g>
<!-- Node21&#45;&gt;Node23 -->
<g id="edge33_Node000021_Node000023" class="edge">
<title>Node21&#45;&gt;Node23</title>
<g id="a_edge33_Node000021_Node000023"><a xlink:title=" ">
<path fill="none" stroke="#63b8ff" d="M132.63,-83.09C114.1,-78.14 92.97,-72.49 75.53,-67.83"/>
<polygon fill="#63b8ff" stroke="#63b8ff" points="131.77,-86.48 142.33,-85.68 133.57,-79.72 131.77,-86.48"/>
</a>
</g>
</g>
</g>
</svg>

<g id="navigator" transform="translate(0 0)" fill="#404254">
  <rect fill="#f2f5e9" fill-opacity="0.5" stroke="#606060" stroke-width=".5" x="0" y="0" width="60" height="60"/>
  <use id="zoomplus" xlink:href="#zoomPlus" x="17" y="9" onmousedown="handleZoom(evt,'in')"/>
  <use id="zoomminus" xlink:href="#zoomMin" x="42" y="9" onmousedown="handleZoom(evt,'out')"/>
  <use id="reset" xlink:href="#resetDef" x="30" y="36" onmousedown="handleReset()"/>
   <use id="arrowup" xlink:href="#arrowUp" x="0" y="0" onmousedown="handlePan(0,-1)"/>
  <use id="arrowright" xlink:href="#arrowRight" x="0" y="0" onmousedown="handlePan(1,0)"/>
  <use id="arrowdown" xlink:href="#arrowDown" x="0" y="0" onmousedown="handlePan(0,1)"/>
  <use id="arrowleft" xlink:href="#arrowLeft" x="0" y="0" onmousedown="handlePan(-1,0)"/>
</g>
<svg viewBox="0 0 15 15" width="100%" height="30px" preserveAspectRatio="xMaxYMin meet">
 <g id="arrow_out" transform="scale(0.3 0.3)">
  <a xlink:href="classttg_1_1_out_terminal_base_aa0341fd67b25363d5c45d77646294cf9_icgraph_org.svg" target="_base">
   <rect id="button" ry="5" rx="5" y="6" x="6" height="38" width="38"
        fill="#f2f5e9" fill-opacity="0.5" stroke="#606060" stroke-width="1.0"/>
   <path id="arrow"
     d="M 11.500037,31.436501 C 11.940474,20.09759 22.043105,11.32322 32.158766,21.979434 L 37.068811,17.246167 C 37.068811,17.246167 37.088388,32 37.088388,32 L 22.160133,31.978069 C 22.160133,31.978069 26.997745,27.140456 26.997745,27.140456 C 18.528582,18.264221 13.291696,25.230495 11.500037,31.436501 z"
     style="fill:#404040;"/>
  </a>
 </g>
</svg>

<style type='text/css'>
<![CDATA[
[data-mouse-over-selected='false'] { opacity: 0.7; }
[data-mouse-over-selected='true']  { opacity: 1.0; }
]]>
</style>
<script type="application/ecmascript"><![CDATA[
document.addEventListener('DOMContentLoaded', (event) => {
  highlightEdges();
  highlightAdjacentNodes();
});
]]></script>
</svg>
