<?xml version="1.0" encoding="UTF-8" standalone="no"?>
<!DOCTYPE svg PUBLIC "-//W3C//DTD SVG 1.1//EN"
 "http://www.w3.org/Graphics/SVG/1.1/DTD/svg11.dtd">
<!-- Generated by graphviz version 2.43.0 (0)
 -->
<!-- Title: ttg_madness::TT::finalize_argstream Pages: 1 -->
<svg width="598pt" height="282pt"
 viewBox="0.00 0.00 598.00 281.50" xmlns="http://www.w3.org/2000/svg" xmlns:xlink="http://www.w3.org/1999/xlink">
<g id="graph0" class="graph" transform="scale(1 1) rotate(0) translate(4 277.5)">
<title>ttg_madness::TT::finalize_argstream</title>
<!-- Node1 -->
<g id="Node000001" class="node">
<title>Node1</title>
<g id="a_Node000001"><a xlink:title="finalizes stream for input i">
<polygon fill="#999999" stroke="#666666" points="143,-187 0,-187 0,-157 143,-157 143,-187"/>
<text text-anchor="start" x="8" y="-175" font-family="Times,serif" font-size="10.00">ttg_madness::TT::finalize</text>
<text text-anchor="middle" x="71.5" y="-164" font-family="Times,serif" font-size="10.00">_argstream</text>
</a>
</g>
</g>
<!-- Node2 -->
<g id="Node000002" class="node">
<title>Node2</title>
<g id="a_Node000002"><a xlink:href="classttg__madness_1_1_t_t.html#a3fb0ab18d00c27fae64e1bd1b78d3d0d" target="_top" xlink:title=" ">
<polygon fill="white" stroke="#666666" points="309.5,-255.5 186.5,-255.5 186.5,-236.5 309.5,-236.5 309.5,-255.5"/>
<text text-anchor="middle" x="248" y="-243.5" font-family="Times,serif" font-size="10.00">ttg_madness::TT::get</text>
</a>
</g>
</g>
<!-- Node1&#45;&gt;Node2 -->
<g id="edge1_Node000001_Node000002" class="edge">
<title>Node1&#45;&gt;Node2</title>
<g id="a_edge1_Node000001_Node000002"><a xlink:title=" ">
<path fill="none" stroke="#63b8ff" d="M97.14,-187C118.26,-199.36 149.8,-216.63 179,-228 184.12,-229.99 189.54,-231.84 195,-233.54"/>
<polygon fill="#63b8ff" stroke="#63b8ff" points="194.23,-236.96 204.81,-236.42 196.2,-230.24 194.23,-236.96"/>
</a>
</g>
</g>
<!-- Node3 -->
<g id="Node000003" class="node">
<title>Node3</title>
<g id="a_Node000003"><a xlink:href="classttg_1_1_t_t_base.html#ade3b1e6b149fe1124f7192aeca5f715c" target="_top" xlink:title="Gets the name of this operation.">
<polygon fill="white" stroke="#666666" points="313.5,-218.5 182.5,-218.5 182.5,-199.5 313.5,-199.5 313.5,-218.5"/>
<text text-anchor="middle" x="248" y="-206.5" font-family="Times,serif" font-size="10.00">ttg::TTBase::get_name</text>
</a>
</g>
</g>
<!-- Node1&#45;&gt;Node3 -->
<g id="edge3_Node000001_Node000003" class="edge">
<title>Node1&#45;&gt;Node3</title>
<g id="a_edge3_Node000001_Node000003"><a xlink:title=" ">
<path fill="none" stroke="#63b8ff" d="M143.22,-187C159.5,-190.45 176.57,-194.07 192.06,-197.35"/>
<polygon fill="#63b8ff" stroke="#63b8ff" points="191.48,-200.8 201.98,-199.46 192.93,-193.96 191.48,-200.8"/>
</a>
</g>
</g>
<!-- Node4 -->
<g id="Node000004" class="node">
<title>Node4</title>
<g id="a_Node000004"><a xlink:href="classttg__madness_1_1_t_t.html#a9c167a878e2685d22e00ce7aa33f75a0" target="_top" xlink:title=" ">
<polygon fill="white" stroke="#666666" points="317,-181.5 179,-181.5 179,-162.5 317,-162.5 317,-181.5"/>
<text text-anchor="middle" x="248" y="-169.5" font-family="Times,serif" font-size="10.00">ttg_madness::TT::owner</text>
</a>
</g>
</g>
<!-- Node1&#45;&gt;Node4 -->
<g id="edge4_Node000001_Node000004" class="edge">
<title>Node1&#45;&gt;Node4</title>
<g id="a_edge4_Node000001_Node000004"><a xlink:title=" ">
<path fill="none" stroke="#63b8ff" d="M143.22,-172C151.55,-172 160.09,-172 168.52,-172"/>
<polygon fill="#63b8ff" stroke="#63b8ff" points="168.72,-175.5 178.72,-172 168.72,-168.5 168.72,-175.5"/>
</a>
</g>
</g>
<!-- Node5 -->
<g id="Node000005" class="node">
<title>Node5</title>
<g id="a_Node000005"><a xlink:href="namespacettg.html#aacafa23974f833f3ac9c42ab4fbd7e68" target="_top" xlink:title="atomically prints to std::cerr a sequence of items (separated by ttg::print_separator) followed by st...">
<polygon fill="white" stroke="#666666" points="445,-162.5 353,-162.5 353,-143.5 445,-143.5 445,-162.5"/>
<text text-anchor="middle" x="399" y="-150.5" font-family="Times,serif" font-size="10.00">ttg::print_error</text>
</a>
</g>
</g>
<!-- Node1&#45;&gt;Node5 -->
<g id="edge5_Node000001_Node000005" class="edge">
<title>Node1&#45;&gt;Node5</title>
<g id="a_edge5_Node000001_Node000005"><a xlink:title=" ">
<path fill="none" stroke="#63b8ff" d="M143.04,-158.42C155,-156.59 167.32,-155.01 179,-154 234.53,-149.21 298.27,-149.58 342.61,-150.77"/>
<polygon fill="#63b8ff" stroke="#63b8ff" points="342.51,-154.27 352.6,-151.06 342.71,-147.27 342.51,-154.27"/>
</a>
</g>
</g>
<!-- Node7 -->
<g id="Node000007" class="node">
<title>Node7</title>
<g id="a_Node000007"><a xlink:href="namespacettg.html#af5e470229c1ddef41b83b6398a5dc583" target="_top" xlink:title=" ">
<polygon fill="white" stroke="#666666" points="279,-87.5 217,-87.5 217,-68.5 279,-68.5 279,-87.5"/>
<text text-anchor="middle" x="248" y="-75.5" font-family="Times,serif" font-size="10.00">ttg::trace</text>
</a>
</g>
</g>
<!-- Node1&#45;&gt;Node7 -->
<g id="edge7_Node000001_Node000007" class="edge">
<title>Node1&#45;&gt;Node7</title>
<g id="a_edge7_Node000001_Node000007"><a xlink:title=" ">
<path fill="none" stroke="#63b8ff" d="M100.54,-156.9C133.51,-139.14 187.84,-109.87 220.24,-92.41"/>
<polygon fill="#63b8ff" stroke="#63b8ff" points="222.01,-95.44 229.16,-87.61 218.69,-89.27 222.01,-95.44"/>
</a>
</g>
</g>
<!-- Node2&#45;&gt;Node2 -->
<g id="edge2_Node000002_Node000002" class="edge">
<title>Node2&#45;&gt;Node2</title>
<g id="a_edge2_Node000002_Node000002"><a xlink:title=" ">
<path fill="none" stroke="#63b8ff" d="M224.88,-255.58C213.63,-264.23 221.34,-273.5 248,-273.5 265.5,-273.5 274.83,-269.51 276,-264.32"/>
<polygon fill="#63b8ff" stroke="#63b8ff" points="279.05,-262.61 271.12,-255.58 272.94,-266.02 279.05,-262.61"/>
</a>
</g>
</g>
<!-- Node6 -->
<g id="Node000006" class="node">
<title>Node6</title>
<g id="a_Node000006"><a xlink:href="namespacettg_1_1detail.html#a26e07486d5ef8eb5735a8975991a7693" target="_top" xlink:title=" ">
<polygon fill="white" stroke="#666666" points="583.5,-137 487.5,-137 487.5,-107 583.5,-107 583.5,-137"/>
<text text-anchor="start" x="495.5" y="-125" font-family="Times,serif" font-size="10.00">ttg::detail::print</text>
<text text-anchor="middle" x="535.5" y="-114" font-family="Times,serif" font-size="10.00">_helper</text>
</a>
</g>
</g>
<!-- Node5&#45;&gt;Node6 -->
<g id="edge6_Node000005_Node000006" class="edge">
<title>Node5&#45;&gt;Node6</title>
<g id="a_edge6_Node000005_Node000006"><a xlink:title=" ">
<path fill="none" stroke="#63b8ff" d="M441.45,-143.45C452.79,-140.83 465.28,-137.95 477.33,-135.18"/>
<polygon fill="#63b8ff" stroke="#63b8ff" points="478.35,-138.53 487.31,-132.88 476.78,-131.71 478.35,-138.53"/>
</a>
</g>
</g>
<!-- Node8 -->
<g id="Node000008" class="node">
<title>Node8</title>
<g id="a_Node000008"><a xlink:href="namespacettg.html#aacacfe8bc9582308a405c4370650a9d4" target="_top" xlink:title="atomically prints to std::clog a sequence of items (separated by ttg::print_separator) followed by st...">
<polygon fill="white" stroke="#666666" points="425.5,-125.5 372.5,-125.5 372.5,-106.5 425.5,-106.5 425.5,-125.5"/>
<text text-anchor="middle" x="399" y="-113.5" font-family="Times,serif" font-size="10.00">ttg::log</text>
</a>
</g>
</g>
<!-- Node7&#45;&gt;Node8 -->
<g id="edge8_Node000007_Node000008" class="edge">
<title>Node7&#45;&gt;Node8</title>
<g id="a_edge8_Node000007_Node000008"><a xlink:title=" ">
<path fill="none" stroke="#63b8ff" d="M279.15,-85.69C303.22,-91.83 336.99,-100.44 362.39,-106.92"/>
<polygon fill="#63b8ff" stroke="#63b8ff" points="361.8,-110.38 372.36,-109.46 363.53,-103.6 361.8,-110.38"/>
</a>
</g>
</g>
<!-- Node9 -->
<g id="Node000009" class="node">
<title>Node9</title>
<g id="a_Node000009"><a xlink:href="namespacettg.html#afbdd9c742be395e0746fdbc26c7d55cc" target="_top" xlink:title="returns whether tracing was enabled at configure time">
<polygon fill="white" stroke="#666666" points="590,-81.5 481,-81.5 481,-62.5 590,-62.5 590,-81.5"/>
<text text-anchor="middle" x="535.5" y="-69.5" font-family="Times,serif" font-size="10.00">ttg::trace_enabled</text>
</a>
</g>
</g>
<!-- Node7&#45;&gt;Node9 -->
<g id="edge10_Node000007_Node000009" class="edge">
<title>Node7&#45;&gt;Node9</title>
<g id="a_edge10_Node000007_Node000009"><a xlink:title=" ">
<path fill="none" stroke="#63b8ff" d="M279.01,-77.37C324.28,-76.42 411.08,-74.59 470.85,-73.34"/>
<polygon fill="#63b8ff" stroke="#63b8ff" points="471.01,-76.84 480.94,-73.13 470.87,-69.84 471.01,-76.84"/>
</a>
</g>
</g>
<!-- Node10 -->
<g id="Node000010" class="node">
<title>Node10</title>
<g id="a_Node000010"><a xlink:href="namespacettg.html#abfb8501d408a1ed918cc2a540865a2d8" target="_top" xlink:title="returns whether tracing is enabled">
<polygon fill="white" stroke="#666666" points="435.5,-49.5 362.5,-49.5 362.5,-30.5 435.5,-30.5 435.5,-49.5"/>
<text text-anchor="middle" x="399" y="-37.5" font-family="Times,serif" font-size="10.00">ttg::tracing</text>
</a>
</g>
</g>
<!-- Node7&#45;&gt;Node10 -->
<g id="edge11_Node000007_Node000010" class="edge">
<title>Node7&#45;&gt;Node10</title>
<g id="a_edge11_Node000007_Node000010"><a xlink:title=" ">
<path fill="none" stroke="#63b8ff" d="M279.15,-70.31C300.21,-64.94 328.7,-57.67 352.5,-51.6"/>
<polygon fill="#63b8ff" stroke="#63b8ff" points="353.56,-54.95 362.38,-49.08 351.83,-48.16 353.56,-54.95"/>
</a>
</g>
</g>
<!-- Node8&#45;&gt;Node6 -->
<g id="edge9_Node000008_Node000006" class="edge">
<title>Node8&#45;&gt;Node6</title>
<g id="a_edge9_Node000008_Node000006"><a xlink:title=" ">
<path fill="none" stroke="#63b8ff" d="M425.62,-117.14C440.27,-117.8 459.28,-118.64 477.31,-119.45"/>
<polygon fill="#63b8ff" stroke="#63b8ff" points="477.33,-122.95 487.47,-119.9 477.64,-115.96 477.33,-122.95"/>
</a>
</g>
</g>
<!-- Node10&#45;&gt;Node9 -->
<g id="edge14_Node000010_Node000009" class="edge">
<title>Node10&#45;&gt;Node9</title>
<g id="a_edge14_Node000010_Node000009"><a xlink:title=" ">
<path fill="none" stroke="#63b8ff" d="M435.69,-48.49C450.64,-52.05 468.29,-56.25 484.5,-60.1"/>
<polygon fill="#63b8ff" stroke="#63b8ff" points="483.83,-63.54 494.37,-62.45 485.45,-56.73 483.83,-63.54"/>
</a>
</g>
</g>
<!-- Node11 -->
<g id="Node000011" class="node">
<title>Node11</title>
<g id="a_Node000011"><a xlink:href="namespacettg_1_1detail.html#a95356c3874e7ec9268a40feb4fc1519f" target="_top" xlink:title=" ">
<polygon fill="white" stroke="#666666" points="584,-30 487,-30 487,0 584,0 584,-30"/>
<text text-anchor="start" x="495" y="-18" font-family="Times,serif" font-size="10.00">ttg::detail::trace</text>
<text text-anchor="middle" x="535.5" y="-7" font-family="Times,serif" font-size="10.00">_accessor</text>
</a>
</g>
</g>
<!-- Node10&#45;&gt;Node11 -->
<g id="edge12_Node000010_Node000011" class="edge">
<title>Node10&#45;&gt;Node11</title>
<g id="a_edge12_Node000010_Node000011"><a xlink:title=" ">
<path fill="none" stroke="#63b8ff" d="M435.69,-33.37C448.34,-31.01 462.92,-28.31 476.92,-25.7"/>
<polygon fill="#63b8ff" stroke="#63b8ff" points="477.79,-29.1 486.98,-23.83 476.51,-22.22 477.79,-29.1"/>
</a>
</g>
</g>
<!-- Node11&#45;&gt;Node7 -->
<g id="edge13_Node000011_Node000007" class="edge">
<title>Node11&#45;&gt;Node7</title>
<g id="a_edge13_Node000011_Node000007"><a xlink:title=" ">
<path fill="none" stroke="#63b8ff" d="M486.98,-10.62C449.83,-8.61 397.24,-8.89 353,-21 322,-29.49 290.14,-48.82 269.99,-62.61"/>
<polygon fill="#63b8ff" stroke="#63b8ff" points="267.78,-59.89 261.6,-68.5 271.8,-65.62 267.78,-59.89"/>
</a>
</g>
</g>
</g>
</svg>
