<?xml version="1.0" encoding="UTF-8" standalone="no"?>
<!DOCTYPE svg PUBLIC "-//W3C//DTD SVG 1.1//EN"
 "http://www.w3.org/Graphics/SVG/1.1/DTD/svg11.dtd">
<!-- Generated by graphviz version 2.43.0 (0)
 -->
<!-- Title: ttg::Out::sendv Pages: 1 -->
<svg width="410pt" height="172pt"
 viewBox="0.00 0.00 410.00 171.50" xmlns="http://www.w3.org/2000/svg" xmlns:xlink="http://www.w3.org/1999/xlink">
<g id="graph0" class="graph" transform="scale(1 1) rotate(0) translate(4 167.5)">
<title>ttg::Out::sendv</title>
<!-- Node1 -->
<g id="Node000001" class="node">
<title>Node1</title>
<g id="a_Node000001"><a xlink:title=" ">
<polygon fill="#999999" stroke="#666666" points="92,-86 0,-86 0,-67 92,-67 92,-86"/>
<text text-anchor="middle" x="46" y="-74" font-family="Times,serif" font-size="10.00">ttg::Out::sendv</text>
</a>
</g>
</g>
<!-- Node1&#45;&gt;Node1 -->
<g id="edge7_Node000001_Node000001" class="edge">
<title>Node1&#45;&gt;Node1</title>
<g id="a_edge7_Node000001_Node000001"><a xlink:title=" ">
<path fill="none" stroke="#63b8ff" d="M23.81,-86.08C13.01,-94.73 20.41,-104 46,-104 62.4,-104 71.32,-100.2 72.79,-95.19"/>
<polygon fill="#63b8ff" stroke="#63b8ff" points="75.82,-93.44 68.19,-86.08 69.57,-96.59 75.82,-93.44"/>
</a>
</g>
</g>
<!-- Node2 -->
<g id="Node000002" class="node">
<title>Node2</title>
<g id="a_Node000002"><a xlink:href="classttg_1_1_terminal_base.html#a57202041203e7ed427c3f2fe28d39e7b" target="_top" xlink:title="Returns the terminal type.">
<polygon fill="white" stroke="#666666" points="247,-163.5 134,-163.5 134,-133.5 247,-133.5 247,-163.5"/>
<text text-anchor="start" x="142" y="-151.5" font-family="Times,serif" font-size="10.00">ttg::TerminalBase::</text>
<text text-anchor="middle" x="190.5" y="-140.5" font-family="Times,serif" font-size="10.00">get_type</text>
</a>
</g>
</g>
<!-- Node1&#45;&gt;Node2 -->
<g id="edge1_Node000001_Node000002" class="edge">
<title>Node1&#45;&gt;Node2</title>
<g id="a_edge1_Node000001_Node000002"><a xlink:title=" ">
<path fill="none" stroke="#63b8ff" d="M61.53,-86.09C77.44,-96.36 103.9,-112.75 128,-124.5 131.49,-126.2 135.14,-127.88 138.84,-129.5"/>
<polygon fill="#63b8ff" stroke="#63b8ff" points="137.51,-132.73 148.08,-133.41 140.23,-126.29 137.51,-132.73"/>
</a>
</g>
</g>
<!-- Node3 -->
<g id="Node000003" class="node">
<title>Node3</title>
<g id="a_Node000003"><a xlink:href="classttg_1_1_out_terminal_base.html#a19283a6990d4c46f7c74fbaab4fddce5" target="_top" xlink:title=" ">
<polygon fill="white" stroke="#666666" points="253,-115.5 128,-115.5 128,-85.5 253,-85.5 253,-115.5"/>
<text text-anchor="start" x="136" y="-103.5" font-family="Times,serif" font-size="10.00">ttg::OutTerminalBase</text>
<text text-anchor="middle" x="190.5" y="-92.5" font-family="Times,serif" font-size="10.00">::nsuccessors</text>
</a>
</g>
</g>
<!-- Node1&#45;&gt;Node3 -->
<g id="edge2_Node000001_Node000003" class="edge">
<title>Node1&#45;&gt;Node3</title>
<g id="a_edge2_Node000001_Node000003"><a xlink:title=" ">
<path fill="none" stroke="#63b8ff" d="M92.09,-84.09C100.32,-85.48 109.1,-86.96 117.88,-88.44"/>
<polygon fill="#63b8ff" stroke="#63b8ff" points="117.33,-91.89 127.77,-90.1 118.49,-84.99 117.33,-91.89"/>
</a>
</g>
</g>
<!-- Node5 -->
<g id="Node000005" class="node">
<title>Node5</title>
<g id="a_Node000005"><a xlink:href="classttg_1_1_in.html#a7c9662d2c659f82f611354178d3776af" target="_top" xlink:title=" ">
<polygon fill="white" stroke="#666666" points="232.5,-19 148.5,-19 148.5,0 232.5,0 232.5,-19"/>
<text text-anchor="middle" x="190.5" y="-7" font-family="Times,serif" font-size="10.00">ttg::In::sendv</text>
</a>
</g>
</g>
<!-- Node1&#45;&gt;Node5 -->
<g id="edge4_Node000001_Node000005" class="edge">
<title>Node1&#45;&gt;Node5</title>
<g id="a_edge4_Node000001_Node000005"><a xlink:title=" ">
<path fill="none" stroke="#63b8ff" d="M60.8,-66.95C76.5,-56.42 103.19,-39.5 128,-28.5 133.04,-26.26 138.43,-24.18 143.84,-22.28"/>
<polygon fill="#63b8ff" stroke="#63b8ff" points="145.15,-25.54 153.53,-19.06 142.94,-18.89 145.15,-25.54"/>
</a>
</g>
</g>
<!-- Node7 -->
<g id="Node000007" class="node">
<title>Node7</title>
<g id="a_Node000007"><a xlink:href="classttg_1_1_out_terminal_base.html#aa0341fd67b25363d5c45d77646294cf9" target="_top" xlink:title=" ">
<polygon fill="white" stroke="#666666" points="253,-67.5 128,-67.5 128,-37.5 253,-37.5 253,-67.5"/>
<text text-anchor="start" x="136" y="-55.5" font-family="Times,serif" font-size="10.00">ttg::OutTerminalBase</text>
<text text-anchor="middle" x="190.5" y="-44.5" font-family="Times,serif" font-size="10.00">::successors</text>
</a>
</g>
</g>
<!-- Node1&#45;&gt;Node7 -->
<g id="edge8_Node000001_Node000007" class="edge">
<title>Node1&#45;&gt;Node7</title>
<g id="a_edge8_Node000001_Node000007"><a xlink:title=" ">
<path fill="none" stroke="#63b8ff" d="M92.09,-68.91C100.32,-67.52 109.1,-66.04 117.88,-64.56"/>
<polygon fill="#63b8ff" stroke="#63b8ff" points="118.49,-68.01 127.77,-62.9 117.33,-61.11 118.49,-68.01"/>
</a>
</g>
</g>
<!-- Node4 -->
<g id="Node000004" class="node">
<title>Node4</title>
<g id="a_Node000004"><a xlink:href="classttg_1_1_terminal_base.html#ab21d3f0050249488606592cfe99c3409" target="_top" xlink:title="Get connections to successors.">
<polygon fill="white" stroke="#666666" points="402,-100.5 289,-100.5 289,-70.5 402,-70.5 402,-100.5"/>
<text text-anchor="start" x="297" y="-88.5" font-family="Times,serif" font-size="10.00">ttg::TerminalBase::</text>
<text text-anchor="middle" x="345.5" y="-77.5" font-family="Times,serif" font-size="10.00">get_connections</text>
</a>
</g>
</g>
<!-- Node3&#45;&gt;Node4 -->
<g id="edge3_Node000003_Node000004" class="edge">
<title>Node3&#45;&gt;Node4</title>
<g id="a_edge3_Node000003_Node000004"><a xlink:title=" ">
<path fill="none" stroke="#63b8ff" d="M253.29,-94.44C261.66,-93.62 270.28,-92.78 278.72,-91.95"/>
<polygon fill="#63b8ff" stroke="#63b8ff" points="279.29,-95.41 288.9,-90.95 278.6,-88.44 279.29,-95.41"/>
</a>
</g>
</g>
<!-- Node6 -->
<g id="Node000006" class="node">
<title>Node6</title>
<g id="a_Node000006"><a xlink:href="namespacettg_1_1meta.html#affd90f350d054c6a5b4859644d834172" target="_top" xlink:title=" ">
<polygon fill="white" stroke="#666666" points="388,-19 303,-19 303,0 388,0 388,-19"/>
<text text-anchor="middle" x="345.5" y="-7" font-family="Times,serif" font-size="10.00">ttg::meta::get</text>
</a>
</g>
</g>
<!-- Node5&#45;&gt;Node6 -->
<g id="edge5_Node000005_Node000006" class="edge">
<title>Node5&#45;&gt;Node6</title>
<g id="a_edge5_Node000005_Node000006"><a xlink:title=" ">
<path fill="none" stroke="#63b8ff" d="M232.5,-9.5C251.04,-9.5 273.16,-9.5 292.83,-9.5"/>
<polygon fill="#63b8ff" stroke="#63b8ff" points="292.85,-13 302.85,-9.5 292.85,-6 292.85,-13"/>
</a>
</g>
</g>
<!-- Node6&#45;&gt;Node6 -->
<g id="edge6_Node000006_Node000006" class="edge">
<title>Node6&#45;&gt;Node6</title>
<g id="a_edge6_Node000006_Node000006"><a xlink:title=" ">
<path fill="none" stroke="#63b8ff" d="M321.76,-19.08C310.22,-27.73 318.13,-37 345.5,-37 363.46,-37 373.04,-33.01 374.25,-27.82"/>
<polygon fill="#63b8ff" stroke="#63b8ff" points="377.25,-26.02 369.24,-19.08 371.17,-29.5 377.25,-26.02"/>
</a>
</g>
</g>
<!-- Node7&#45;&gt;Node4 -->
<g id="edge9_Node000007_Node000004" class="edge">
<title>Node7&#45;&gt;Node4</title>
<g id="a_edge9_Node000007_Node000004"><a xlink:title=" ">
<path fill="none" stroke="#63b8ff" d="M253.29,-65.83C261.75,-67.65 270.47,-69.53 279,-71.37"/>
<polygon fill="#63b8ff" stroke="#63b8ff" points="278.38,-74.82 288.9,-73.51 279.86,-67.98 278.38,-74.82"/>
</a>
</g>
</g>
</g>
</svg>
