<?xml version="1.0" encoding="UTF-8" standalone="no"?>
<!DOCTYPE svg PUBLIC "-//W3C//DTD SVG 1.1//EN"
 "http://www.w3.org/Graphics/SVG/1.1/DTD/svg11.dtd">
<!-- Generated by graphviz version 2.43.0 (0)
 -->
<!-- Title: ttg::TTBase::is_ttg Pages: 1 -->
<svg width="415pt" height="82pt"
 viewBox="0.00 0.00 415.00 82.00" xmlns="http://www.w3.org/2000/svg" xmlns:xlink="http://www.w3.org/1999/xlink">

<svg id="main" version="1.1" xmlns="http://www.w3.org/2000/svg" xmlns:xlink="http://www.w3.org/1999/xlink" xml:space="preserve" onload="init(evt)">
<style type="text/css"><![CDATA[
.node, .edge {opacity: 0.7;}
.node.selected, .edge.selected {opacity: 1;}
.edge:hover path { stroke: red; }
.edge:hover polygon { stroke: red; fill: red; }
]]></style>
<script type="application/ecmascript" xlink:href="svg.min.js"/>
<svg id="graph" class="graph">
<g id="graph0" class="graph" transform="scale(1 1) rotate(0) translate(4 78)">
<title>ttg::TTBase::is_ttg</title>
<!-- Node1 -->
<g id="Node000001" class="node">
<title>Node1</title>
<g id="a_Node000001"><a xlink:title=" ">
<polygon fill="#999999" stroke="#666666" points="407,-37 298,-37 298,-18 407,-18 407,-37"/>
<text text-anchor="middle" x="352.5" y="-25" font-family="Times,serif" font-size="10.00">ttg::TTBase::is_ttg</text>
</a>
</g>
</g>
<!-- Node2 -->
<g id="Node000002" class="node">
<title>Node2</title>
<g id="a_Node000002"><a xlink:href="classttg_1_1_dot.html#a6e2c9e3186444ee3f28d18a28f0c65ea" target="_top" xlink:title=" ">
<polygon fill="white" stroke="#666666" points="262,-56 148,-56 148,-37 262,-37 262,-56"/>
<text text-anchor="middle" x="205" y="-44" font-family="Times,serif" font-size="10.00">ttg::Dot::tree_down</text>
</a>
</g>
</g>
<!-- Node1&#45;&gt;Node2 -->
<g id="edge1_Node000001_Node000002" class="edge">
<title>Node1&#45;&gt;Node2</title>
<g id="a_edge1_Node000001_Node000002"><a xlink:title=" ">
<path fill="none" stroke="#63b8ff" d="M287.63,-35.84C279.25,-36.93 270.71,-38.05 262.47,-39.13"/>
<polygon fill="#63b8ff" stroke="#63b8ff" points="288.27,-39.29 297.73,-34.52 287.37,-32.35 288.27,-39.29"/>
</a>
</g>
</g>
<!-- Node4 -->
<g id="Node000004" class="node">
<title>Node4</title>
<g id="a_Node000004"><a xlink:href="classttg_1_1_dot.html#a168203fd05265000a5fe12be79738a94" target="_top" xlink:title=" ">
<polygon fill="white" stroke="#666666" points="250.5,-19 159.5,-19 159.5,0 250.5,0 250.5,-19"/>
<text text-anchor="middle" x="205" y="-7" font-family="Times,serif" font-size="10.00">ttg::Dot::ttfunc</text>
</a>
</g>
</g>
<!-- Node1&#45;&gt;Node4 -->
<g id="edge4_Node000001_Node000004" class="edge">
<title>Node1&#45;&gt;Node4</title>
<g id="a_edge4_Node000001_Node000004"><a xlink:title=" ">
<path fill="none" stroke="#63b8ff" d="M287.5,-19.58C275.18,-18.06 262.52,-16.49 250.96,-15.06"/>
<polygon fill="#63b8ff" stroke="#63b8ff" points="287.38,-23.09 297.73,-20.85 288.24,-16.15 287.38,-23.09"/>
</a>
</g>
</g>
<!-- Node2&#45;&gt;Node2 -->
<g id="edge3_Node000002_Node000002" class="edge">
<title>Node2&#45;&gt;Node2</title>
<g id="a_edge3_Node000002_Node000002"><a xlink:title=" ">
<path fill="none" stroke="#63b8ff" d="M232.16,-65.19C230.68,-70.2 221.62,-74 205,-74 179.05,-74 171.55,-64.73 182.5,-56.08"/>
<polygon fill="#63b8ff" stroke="#63b8ff" points="235.17,-63.39 227.5,-56.08 228.94,-66.58 235.17,-63.39"/>
</a>
</g>
</g>
<!-- Node3 -->
<g id="Node000003" class="node">
<title>Node3</title>
<g id="a_Node000003"><a xlink:href="classttg_1_1_dot.html#a1f31206ebc9d5867a70b1af197c26942" target="_top" xlink:title=" ">
<polygon fill="white" stroke="#666666" points="112,-56 0,-56 0,-37 112,-37 112,-56"/>
<text text-anchor="middle" x="56" y="-44" font-family="Times,serif" font-size="10.00">ttg::Dot::operator()</text>
</a>
</g>
</g>
<!-- Node2&#45;&gt;Node3 -->
<g id="edge2_Node000002_Node000003" class="edge">
<title>Node2&#45;&gt;Node3</title>
<g id="a_edge2_Node000002_Node000003"><a xlink:title=" ">
<path fill="none" stroke="#63b8ff" d="M137.35,-46.5C128.89,-46.5 120.3,-46.5 112.05,-46.5"/>
<polygon fill="#63b8ff" stroke="#63b8ff" points="137.59,-50 147.59,-46.5 137.59,-43 137.59,-50"/>
</a>
</g>
</g>
</g>
</svg>
</svg>

<style type='text/css'>
<![CDATA[
[data-mouse-over-selected='false'] { opacity: 0.7; }
[data-mouse-over-selected='true']  { opacity: 1.0; }
]]>
</style>
<script type="application/ecmascript"><![CDATA[
document.addEventListener('DOMContentLoaded', (event) => {
  highlightEdges();
  highlightAdjacentNodes();
});
]]></script>
</svg>
