<?xml version="1.0" encoding="UTF-8" standalone="no"?>
<!DOCTYPE svg PUBLIC "-//W3C//DTD SVG 1.1//EN"
 "http://www.w3.org/Graphics/SVG/1.1/DTD/svg11.dtd">
<!-- Generated by graphviz version 2.43.0 (0)
 -->
<!-- Title: ttg_parsec::WorldImpl::~WorldImpl Pages: 1 -->
<svg width="737pt" height="371pt"
 viewBox="0.00 0.00 737.00 371.00" xmlns="http://www.w3.org/2000/svg" xmlns:xlink="http://www.w3.org/1999/xlink">
<g id="graph0" class="graph" transform="scale(1 1) rotate(0) translate(4 367)">
<title>ttg_parsec::WorldImpl::~WorldImpl</title>
<!-- Node1 -->
<g id="Node000001" class="node">
<title>Node1</title>
<g id="a_Node000001"><a xlink:title=" ">
<polygon fill="#999999" stroke="#666666" points="129,-219 0,-219 0,-189 129,-189 129,-219"/>
<text text-anchor="start" x="8" y="-207" font-family="Times,serif" font-size="10.00">ttg_parsec::WorldImpl</text>
<text text-anchor="middle" x="64.5" y="-196" font-family="Times,serif" font-size="10.00">::~WorldImpl</text>
</a>
</g>
</g>
<!-- Node2 -->
<g id="Node000002" class="node">
<title>Node2</title>
<g id="a_Node000002"><a xlink:href="classttg__parsec_1_1_world_impl.html#acdf3cf5cfb64ebfda9ab9fffd4b3e32d" target="_top" xlink:title=" ">
<polygon fill="white" stroke="#666666" points="294,-219 165,-219 165,-189 294,-189 294,-219"/>
<text text-anchor="start" x="173" y="-207" font-family="Times,serif" font-size="10.00">ttg_parsec::WorldImpl</text>
<text text-anchor="middle" x="229.5" y="-196" font-family="Times,serif" font-size="10.00">::destroy</text>
</a>
</g>
</g>
<!-- Node1&#45;&gt;Node2 -->
<g id="edge1_Node000001_Node000002" class="edge">
<title>Node1&#45;&gt;Node2</title>
<g id="a_edge1_Node000001_Node000002"><a xlink:title=" ">
<path fill="none" stroke="#63b8ff" d="M129.45,-204C137.76,-204 146.32,-204 154.77,-204"/>
<polygon fill="#63b8ff" stroke="#63b8ff" points="155,-207.5 165,-204 155,-200.5 155,-207.5"/>
</a>
</g>
</g>
<!-- Node3 -->
<g id="Node000003" class="node">
<title>Node3</title>
<g id="a_Node000003"><a xlink:href="namespacettg_1_1detail.html#a0737a159633e6fbe20a71c7297ba3645" target="_top" xlink:title=" ">
<polygon fill="white" stroke="#666666" points="464.5,-363 340.5,-363 340.5,-333 464.5,-333 464.5,-363"/>
<text text-anchor="start" x="348.5" y="-351" font-family="Times,serif" font-size="10.00">ttg::detail::deregister</text>
<text text-anchor="middle" x="402.5" y="-340" font-family="Times,serif" font-size="10.00">_world</text>
</a>
</g>
</g>
<!-- Node2&#45;&gt;Node3 -->
<g id="edge2_Node000002_Node000003" class="edge">
<title>Node2&#45;&gt;Node3</title>
<g id="a_edge2_Node000002_Node000003"><a xlink:title=" ">
<path fill="none" stroke="#63b8ff" d="M239.19,-219.21C254.41,-244.54 288.26,-295.37 330,-324 332.25,-325.54 334.61,-327 337.04,-328.36"/>
<polygon fill="#63b8ff" stroke="#63b8ff" points="335.62,-331.56 346.12,-332.92 338.76,-325.31 335.62,-331.56"/>
</a>
</g>
</g>
<!-- Node4 -->
<g id="Node000004" class="node">
<title>Node4</title>
<g id="a_Node000004"><a xlink:href="classttg__parsec_1_1_world_impl.html#a30ad1ec1811c1dd7538448add28af497" target="_top" xlink:title=" ">
<polygon fill="white" stroke="#666666" points="467,-315 338,-315 338,-285 467,-285 467,-315"/>
<text text-anchor="start" x="346" y="-303" font-family="Times,serif" font-size="10.00">ttg_parsec::WorldImpl</text>
<text text-anchor="middle" x="402.5" y="-292" font-family="Times,serif" font-size="10.00">::destroy_tpool</text>
</a>
</g>
</g>
<!-- Node2&#45;&gt;Node4 -->
<g id="edge3_Node000002_Node000004" class="edge">
<title>Node2&#45;&gt;Node4</title>
<g id="a_edge3_Node000002_Node000004"><a xlink:title=" ">
<path fill="none" stroke="#63b8ff" d="M247.77,-219.02C266.82,-234.95 298.9,-260 330,-276 333.5,-277.8 337.17,-279.51 340.91,-281.13"/>
<polygon fill="#63b8ff" stroke="#63b8ff" points="339.74,-284.43 350.33,-284.94 342.37,-277.94 339.74,-284.43"/>
</a>
</g>
</g>
<!-- Node5 -->
<g id="Node000005" class="node">
<title>Node5</title>
<g id="a_Node000005"><a xlink:href="classttg_1_1base_1_1_world_impl_base.html#ae8af1cf2a5cccc4d5066492a5d041630" target="_top" xlink:title=" ">
<polygon fill="white" stroke="#666666" points="475,-267 330,-267 330,-237 475,-237 475,-267"/>
<text text-anchor="start" x="338" y="-255" font-family="Times,serif" font-size="10.00">ttg::base::WorldImplBase</text>
<text text-anchor="middle" x="402.5" y="-244" font-family="Times,serif" font-size="10.00">::is_valid</text>
</a>
</g>
</g>
<!-- Node2&#45;&gt;Node5 -->
<g id="edge4_Node000002_Node000005" class="edge">
<title>Node2&#45;&gt;Node5</title>
<g id="a_edge4_Node000002_Node000005"><a xlink:title=" ">
<path fill="none" stroke="#63b8ff" d="M284.14,-219.06C301.33,-223.88 320.52,-229.27 338.33,-234.27"/>
<polygon fill="#63b8ff" stroke="#63b8ff" points="337.48,-237.66 348.05,-237 339.37,-230.93 337.48,-237.66"/>
</a>
</g>
</g>
<!-- Node6 -->
<g id="Node000006" class="node">
<title>Node6</title>
<g id="a_Node000006"><a xlink:href="classttg_1_1base_1_1_world_impl_base.html#ad1471b7fb4deb6279b873a58b2d3af5d" target="_top" xlink:title=" ">
<polygon fill="white" stroke="#666666" points="475,-219 330,-219 330,-189 475,-189 475,-219"/>
<text text-anchor="start" x="338" y="-207" font-family="Times,serif" font-size="10.00">ttg::base::WorldImplBase</text>
<text text-anchor="middle" x="402.5" y="-196" font-family="Times,serif" font-size="10.00">::mark_invalid</text>
</a>
</g>
</g>
<!-- Node2&#45;&gt;Node6 -->
<g id="edge5_Node000002_Node000006" class="edge">
<title>Node2&#45;&gt;Node6</title>
<g id="a_edge5_Node000002_Node000006"><a xlink:title=" ">
<path fill="none" stroke="#63b8ff" d="M294.17,-204C302.5,-204 311.12,-204 319.7,-204"/>
<polygon fill="#63b8ff" stroke="#63b8ff" points="319.72,-207.5 329.72,-204 319.72,-200.5 319.72,-207.5"/>
</a>
</g>
</g>
<!-- Node7 -->
<g id="Node000007" class="node">
<title>Node7</title>
<g id="a_Node000007"><a xlink:href="classttg_1_1base_1_1_world_impl_base.html#a950c5b477177504efe894584a00e6056" target="_top" xlink:title=" ">
<polygon fill="white" stroke="#666666" points="475,-171 330,-171 330,-141 475,-141 475,-171"/>
<text text-anchor="start" x="338" y="-159" font-family="Times,serif" font-size="10.00">ttg::base::WorldImplBase</text>
<text text-anchor="middle" x="402.5" y="-148" font-family="Times,serif" font-size="10.00">::rank</text>
</a>
</g>
</g>
<!-- Node2&#45;&gt;Node7 -->
<g id="edge6_Node000002_Node000007" class="edge">
<title>Node2&#45;&gt;Node7</title>
<g id="a_edge6_Node000002_Node000007"><a xlink:title=" ">
<path fill="none" stroke="#63b8ff" d="M284.14,-188.94C301.33,-184.12 320.52,-178.73 338.33,-173.73"/>
<polygon fill="#63b8ff" stroke="#63b8ff" points="339.37,-177.07 348.05,-171 337.48,-170.34 339.37,-177.07"/>
</a>
</g>
</g>
<!-- Node8 -->
<g id="Node000008" class="node">
<title>Node8</title>
<g id="a_Node000008"><a xlink:href="classttg_1_1base_1_1_world_impl_base.html#a4cf5efcd1c577c54c6634708a141230b" target="_top" xlink:title=" ">
<polygon fill="white" stroke="#666666" points="475,-123 330,-123 330,-93 475,-93 475,-123"/>
<text text-anchor="start" x="338" y="-111" font-family="Times,serif" font-size="10.00">ttg::base::WorldImplBase</text>
<text text-anchor="middle" x="402.5" y="-100" font-family="Times,serif" font-size="10.00">::release_ops</text>
</a>
</g>
</g>
<!-- Node2&#45;&gt;Node8 -->
<g id="edge7_Node000002_Node000008" class="edge">
<title>Node2&#45;&gt;Node8</title>
<g id="a_edge7_Node000002_Node000008"><a xlink:title=" ">
<path fill="none" stroke="#63b8ff" d="M247.77,-188.98C266.82,-173.05 298.9,-148 330,-132 333.5,-130.2 337.17,-128.49 340.91,-126.87"/>
<polygon fill="#63b8ff" stroke="#63b8ff" points="342.37,-130.06 350.33,-123.06 339.74,-123.57 342.37,-130.06"/>
</a>
</g>
</g>
<!-- Node9 -->
<g id="Node000009" class="node">
<title>Node9</title>
<g id="a_Node000009"><a xlink:href="namespacettg.html#af5e470229c1ddef41b83b6398a5dc583" target="_top" xlink:title=" ">
<polygon fill="white" stroke="#666666" points="433.5,-74.5 371.5,-74.5 371.5,-55.5 433.5,-55.5 433.5,-74.5"/>
<text text-anchor="middle" x="402.5" y="-62.5" font-family="Times,serif" font-size="10.00">ttg::trace</text>
</a>
</g>
</g>
<!-- Node2&#45;&gt;Node9 -->
<g id="edge8_Node000002_Node000009" class="edge">
<title>Node2&#45;&gt;Node9</title>
<g id="a_edge8_Node000002_Node000009"><a xlink:title=" ">
<path fill="none" stroke="#63b8ff" d="M238.76,-188.9C253.57,-163.28 287.14,-111.42 330,-84 339.35,-78.02 350.53,-73.91 361.24,-71.09"/>
<polygon fill="#63b8ff" stroke="#63b8ff" points="362.34,-74.43 371.29,-68.77 360.76,-67.61 362.34,-74.43"/>
</a>
</g>
</g>
<!-- Node10 -->
<g id="Node000010" class="node">
<title>Node10</title>
<g id="a_Node000010"><a xlink:href="namespacettg.html#aacacfe8bc9582308a405c4370650a9d4" target="_top" xlink:title="atomically prints to std::clog a sequence of items (separated by ttg::print_separator) followed by st...">
<polygon fill="white" stroke="#666666" points="574,-131.5 521,-131.5 521,-112.5 574,-112.5 574,-131.5"/>
<text text-anchor="middle" x="547.5" y="-119.5" font-family="Times,serif" font-size="10.00">ttg::log</text>
</a>
</g>
</g>
<!-- Node9&#45;&gt;Node10 -->
<g id="edge9_Node000009_Node000010" class="edge">
<title>Node9&#45;&gt;Node10</title>
<g id="a_edge9_Node000009_Node000010"><a xlink:title=" ">
<path fill="none" stroke="#63b8ff" d="M433.56,-71.37C446.52,-74.53 461.73,-78.79 475,-84 491.37,-90.43 508.82,-99.65 522.38,-107.4"/>
<polygon fill="#63b8ff" stroke="#63b8ff" points="520.69,-110.46 531.09,-112.48 524.21,-104.42 520.69,-110.46"/>
</a>
</g>
</g>
<!-- Node12 -->
<g id="Node000012" class="node">
<title>Node12</title>
<g id="a_Node000012"><a xlink:href="namespacettg.html#afbdd9c742be395e0746fdbc26c7d55cc" target="_top" xlink:title="returns whether tracing was enabled at configure time">
<polygon fill="white" stroke="#666666" points="729,-81.5 620,-81.5 620,-62.5 729,-62.5 729,-81.5"/>
<text text-anchor="middle" x="674.5" y="-69.5" font-family="Times,serif" font-size="10.00">ttg::trace_enabled</text>
</a>
</g>
</g>
<!-- Node9&#45;&gt;Node12 -->
<g id="edge11_Node000009_Node000012" class="edge">
<title>Node9&#45;&gt;Node12</title>
<g id="a_edge11_Node000009_Node000012"><a xlink:title=" ">
<path fill="none" stroke="#63b8ff" d="M433.69,-65.78C476.05,-66.88 554.16,-68.91 609.72,-70.35"/>
<polygon fill="#63b8ff" stroke="#63b8ff" points="609.73,-73.85 619.82,-70.61 609.92,-66.85 609.73,-73.85"/>
</a>
</g>
</g>
<!-- Node13 -->
<g id="Node000013" class="node">
<title>Node13</title>
<g id="a_Node000013"><a xlink:href="namespacettg.html#abfb8501d408a1ed918cc2a540865a2d8" target="_top" xlink:title="returns whether tracing is enabled">
<polygon fill="white" stroke="#666666" points="584,-55.5 511,-55.5 511,-36.5 584,-36.5 584,-55.5"/>
<text text-anchor="middle" x="547.5" y="-43.5" font-family="Times,serif" font-size="10.00">ttg::tracing</text>
</a>
</g>
</g>
<!-- Node9&#45;&gt;Node13 -->
<g id="edge12_Node000009_Node000013" class="edge">
<title>Node9&#45;&gt;Node13</title>
<g id="a_edge12_Node000009_Node000013"><a xlink:title=" ">
<path fill="none" stroke="#63b8ff" d="M433.83,-60.97C453.29,-58.38 478.93,-54.98 500.83,-52.07"/>
<polygon fill="#63b8ff" stroke="#63b8ff" points="501.46,-55.51 510.92,-50.73 500.54,-48.58 501.46,-55.51"/>
</a>
</g>
</g>
<!-- Node11 -->
<g id="Node000011" class="node">
<title>Node11</title>
<g id="a_Node000011"><a xlink:href="namespacettg_1_1detail.html#a26e07486d5ef8eb5735a8975991a7693" target="_top" xlink:title=" ">
<polygon fill="white" stroke="#666666" points="722.5,-137 626.5,-137 626.5,-107 722.5,-107 722.5,-137"/>
<text text-anchor="start" x="634.5" y="-125" font-family="Times,serif" font-size="10.00">ttg::detail::print</text>
<text text-anchor="middle" x="674.5" y="-114" font-family="Times,serif" font-size="10.00">_helper</text>
</a>
</g>
</g>
<!-- Node10&#45;&gt;Node11 -->
<g id="edge10_Node000010_Node000011" class="edge">
<title>Node10&#45;&gt;Node11</title>
<g id="a_edge10_Node000010_Node000011"><a xlink:title=" ">
<path fill="none" stroke="#63b8ff" d="M574.1,-122C586.34,-122 601.53,-122 616.32,-122"/>
<polygon fill="#63b8ff" stroke="#63b8ff" points="616.46,-125.5 626.46,-122 616.46,-118.5 616.46,-125.5"/>
</a>
</g>
</g>
<!-- Node13&#45;&gt;Node12 -->
<g id="edge15_Node000013_Node000012" class="edge">
<title>Node13&#45;&gt;Node12</title>
<g id="a_edge15_Node000013_Node000012"><a xlink:title=" ">
<path fill="none" stroke="#63b8ff" d="M584.32,-53.45C594.7,-55.61 606.29,-58.02 617.58,-60.37"/>
<polygon fill="#63b8ff" stroke="#63b8ff" points="616.89,-63.8 627.4,-62.41 618.32,-56.95 616.89,-63.8"/>
</a>
</g>
</g>
<!-- Node14 -->
<g id="Node000014" class="node">
<title>Node14</title>
<g id="a_Node000014"><a xlink:href="namespacettg_1_1detail.html#a95356c3874e7ec9268a40feb4fc1519f" target="_top" xlink:title=" ">
<polygon fill="white" stroke="#666666" points="723,-30 626,-30 626,0 723,0 723,-30"/>
<text text-anchor="start" x="634" y="-18" font-family="Times,serif" font-size="10.00">ttg::detail::trace</text>
<text text-anchor="middle" x="674.5" y="-7" font-family="Times,serif" font-size="10.00">_accessor</text>
</a>
</g>
</g>
<!-- Node13&#45;&gt;Node14 -->
<g id="edge13_Node000013_Node000014" class="edge">
<title>Node13&#45;&gt;Node14</title>
<g id="a_edge13_Node000013_Node000014"><a xlink:title=" ">
<path fill="none" stroke="#63b8ff" d="M584.32,-37.12C594.15,-34.68 605.07,-31.97 615.79,-29.31"/>
<polygon fill="#63b8ff" stroke="#63b8ff" points="616.69,-32.69 625.56,-26.89 615.01,-25.9 616.69,-32.69"/>
</a>
</g>
</g>
<!-- Node14&#45;&gt;Node9 -->
<g id="edge14_Node000014_Node000009" class="edge">
<title>Node14&#45;&gt;Node9</title>
<g id="a_edge14_Node000014_Node000009"><a xlink:title=" ">
<path fill="none" stroke="#63b8ff" d="M625.75,-15.2C593.12,-16.15 549.07,-19.02 511,-27 484.58,-32.54 455.79,-42.97 434.66,-51.5"/>
<polygon fill="#63b8ff" stroke="#63b8ff" points="433.15,-48.33 425.24,-55.38 435.82,-54.81 433.15,-48.33"/>
</a>
</g>
</g>
</g>
</svg>
