<?xml version="1.0" encoding="UTF-8" standalone="no"?>
<!DOCTYPE svg PUBLIC "-//W3C//DTD SVG 1.1//EN"
 "http://www.w3.org/Graphics/SVG/1.1/DTD/svg11.dtd">
<!-- Generated by graphviz version 2.43.0 (0)
 -->
<!-- Title: ttg::TTBase::outputs_tls_ptr_accessor Pages: 1 -->
<svg width="452pt" height="158pt"
 viewBox="0.00 0.00 452.00 158.00" xmlns="http://www.w3.org/2000/svg" xmlns:xlink="http://www.w3.org/1999/xlink">

<svg id="main" version="1.1" xmlns="http://www.w3.org/2000/svg" xmlns:xlink="http://www.w3.org/1999/xlink" xml:space="preserve" onload="init(evt)">
<style type="text/css"><![CDATA[
.node, .edge {opacity: 0.7;}
.node.selected, .edge.selected {opacity: 1;}
.edge:hover path { stroke: red; }
.edge:hover polygon { stroke: red; fill: red; }
]]></style>
<script type="application/ecmascript" xlink:href="svg.min.js"/>
<svg id="graph" class="graph">
<g id="graph0" class="graph" transform="scale(1 1) rotate(0) translate(4 154)">
<title>ttg::TTBase::outputs_tls_ptr_accessor</title>
<!-- Node1 -->
<g id="Node000001" class="node">
<title>Node1</title>
<g id="a_Node000001"><a xlink:title=" ">
<polygon fill="#999999" stroke="#666666" points="444,-78 324,-78 324,-48 444,-48 444,-78"/>
<text text-anchor="start" x="332" y="-66" font-family="Times,serif" font-size="10.00">ttg::TTBase::outputs</text>
<text text-anchor="middle" x="384" y="-55" font-family="Times,serif" font-size="10.00">_tls_ptr_accessor</text>
</a>
</g>
</g>
<!-- Node2 -->
<g id="Node000002" class="node">
<title>Node2</title>
<g id="a_Node000002"><a xlink:href="classttg_1_1_t_t_base.html#abce09fc450a24adfa427e23bc09da1fc" target="_top" xlink:title="Returns this thread&#39;s pointer to the vector of output terminals.">
<polygon fill="white" stroke="#666666" points="288,-126 146,-126 146,-96 288,-96 288,-126"/>
<text text-anchor="start" x="154" y="-114" font-family="Times,serif" font-size="10.00">ttg::TTBase::get_outputs</text>
<text text-anchor="middle" x="217" y="-103" font-family="Times,serif" font-size="10.00">_tls_ptr</text>
</a>
</g>
</g>
<!-- Node1&#45;&gt;Node2 -->
<g id="edge1_Node000001_Node000002" class="edge">
<title>Node1&#45;&gt;Node2</title>
<g id="a_edge1_Node000001_Node000002"><a xlink:title=" ">
<path fill="none" stroke="#63b8ff" d="M321.37,-80.93C304.32,-85.89 285.99,-91.22 269.57,-96"/>
<polygon fill="#63b8ff" stroke="#63b8ff" points="322.62,-84.21 331.25,-78.06 320.67,-77.49 322.62,-84.21"/>
</a>
</g>
</g>
<!-- Node5 -->
<g id="Node000005" class="node">
<title>Node5</title>
<g id="a_Node000005"><a xlink:href="classttg_1_1_t_t_base.html#afe69f18e0c427bdb7fe86b1d9fde283e" target="_top" xlink:title=" ">
<polygon fill="white" stroke="#666666" points="287,-78 147,-78 147,-48 287,-48 287,-78"/>
<text text-anchor="start" x="155" y="-66" font-family="Times,serif" font-size="10.00">ttg::TTBase::set_outputs</text>
<text text-anchor="middle" x="217" y="-55" font-family="Times,serif" font-size="10.00">_tls_ptr</text>
</a>
</g>
</g>
<!-- Node1&#45;&gt;Node5 -->
<g id="edge4_Node000001_Node000005" class="edge">
<title>Node1&#45;&gt;Node5</title>
<g id="a_edge4_Node000001_Node000005"><a xlink:title=" ">
<path fill="none" stroke="#63b8ff" d="M313.69,-63C304.89,-63 295.89,-63 287.09,-63"/>
<polygon fill="#63b8ff" stroke="#63b8ff" points="313.9,-66.5 323.9,-63 313.9,-59.5 313.9,-66.5"/>
</a>
</g>
</g>
<!-- Node6 -->
<g id="Node000006" class="node">
<title>Node6</title>
<g id="a_Node000006"><a xlink:href="classttg_1_1_t_t_base.html#a1edef76017de6943b185341e88b3c535" target="_top" xlink:title=" ">
<polygon fill="white" stroke="#666666" points="287,-30 147,-30 147,0 287,0 287,-30"/>
<text text-anchor="start" x="155" y="-18" font-family="Times,serif" font-size="10.00">ttg::TTBase::set_outputs</text>
<text text-anchor="middle" x="217" y="-7" font-family="Times,serif" font-size="10.00">_tls_ptr</text>
</a>
</g>
</g>
<!-- Node1&#45;&gt;Node6 -->
<g id="edge5_Node000001_Node000006" class="edge">
<title>Node1&#45;&gt;Node6</title>
<g id="a_edge5_Node000001_Node000006"><a xlink:title=" ">
<path fill="none" stroke="#63b8ff" d="M321.37,-45.07C304.32,-40.11 285.99,-34.78 269.57,-30"/>
<polygon fill="#63b8ff" stroke="#63b8ff" points="320.67,-48.51 331.25,-47.94 322.62,-41.79 320.67,-48.51"/>
</a>
</g>
</g>
<!-- Node3 -->
<g id="Node000003" class="node">
<title>Node3</title>
<g id="a_Node000003"><a xlink:href="namespacettg_1_1detail.html#ab74de3de588f49984ad9db137518478b" target="_top" xlink:title=" ">
<polygon fill="white" stroke="#666666" points="110,-150 0,-150 0,-120 110,-120 110,-150"/>
<text text-anchor="start" x="8" y="-138" font-family="Times,serif" font-size="10.00">ttg::detail::get_out</text>
<text text-anchor="middle" x="55" y="-127" font-family="Times,serif" font-size="10.00">_base_terminal</text>
</a>
</g>
</g>
<!-- Node2&#45;&gt;Node3 -->
<g id="edge2_Node000002_Node000003" class="edge">
<title>Node2&#45;&gt;Node3</title>
<g id="a_edge2_Node000002_Node000003"><a xlink:title=" ">
<path fill="none" stroke="#63b8ff" d="M135.72,-123.04C127.09,-124.34 118.46,-125.63 110.25,-126.86"/>
<polygon fill="#63b8ff" stroke="#63b8ff" points="136.45,-126.47 145.82,-121.53 135.41,-119.55 136.45,-126.47"/>
</a>
</g>
</g>
<!-- Node4 -->
<g id="Node000004" class="node">
<title>Node4</title>
<g id="a_Node000004"><a xlink:href="namespacettg_1_1detail.html#a34fe30520697b631fc025a97b54f88b9" target="_top" xlink:title=" ">
<polygon fill="white" stroke="#666666" points="110,-102 0,-102 0,-72 110,-72 110,-102"/>
<text text-anchor="start" x="8" y="-90" font-family="Times,serif" font-size="10.00">ttg::detail::get_out</text>
<text text-anchor="middle" x="55" y="-79" font-family="Times,serif" font-size="10.00">_terminal</text>
</a>
</g>
</g>
<!-- Node2&#45;&gt;Node4 -->
<g id="edge3_Node000002_Node000004" class="edge">
<title>Node2&#45;&gt;Node4</title>
<g id="a_edge3_Node000002_Node000004"><a xlink:title=" ">
<path fill="none" stroke="#63b8ff" d="M135.72,-98.96C127.09,-97.66 118.46,-96.37 110.25,-95.14"/>
<polygon fill="#63b8ff" stroke="#63b8ff" points="135.41,-102.45 145.82,-100.47 136.45,-95.53 135.41,-102.45"/>
</a>
</g>
</g>
</g>
</svg>
</svg>

<style type='text/css'>
<![CDATA[
[data-mouse-over-selected='false'] { opacity: 0.7; }
[data-mouse-over-selected='true']  { opacity: 1.0; }
]]>
</style>
<script type="application/ecmascript"><![CDATA[
document.addEventListener('DOMContentLoaded', (event) => {
  highlightEdges();
  highlightAdjacentNodes();
});
]]></script>
</svg>
