<?xml version="1.0" encoding="UTF-8" standalone="no"?>
<!DOCTYPE svg PUBLIC "-//W3C//DTD SVG 1.1//EN"
 "http://www.w3.org/Graphics/SVG/1.1/DTD/svg11.dtd">
<!-- Generated by graphviz version 2.43.0 (0)
 -->
<!-- Title: ttg_parsec::TT::do_prepare_send Pages: 1 -->
<svg width="712pt" height="170pt"
 viewBox="0.00 0.00 712.00 169.50" xmlns="http://www.w3.org/2000/svg" xmlns:xlink="http://www.w3.org/1999/xlink">
<g id="graph0" class="graph" transform="scale(1 1) rotate(0) translate(4 165.5)">
<title>ttg_parsec::TT::do_prepare_send</title>
<!-- Node1 -->
<g id="Node000001" class="node">
<title>Node1</title>
<g id="a_Node000001"><a xlink:title=" ">
<polygon fill="#999999" stroke="#666666" points="107,-73 0,-73 0,-43 107,-43 107,-73"/>
<text text-anchor="start" x="8" y="-61" font-family="Times,serif" font-size="10.00">ttg_parsec::TT::do</text>
<text text-anchor="middle" x="53.5" y="-50" font-family="Times,serif" font-size="10.00">_prepare_send</text>
</a>
</g>
</g>
<!-- Node2 -->
<g id="Node000002" class="node">
<title>Node2</title>
<g id="a_Node000002"><a xlink:href="classttg__parsec_1_1_t_t.html#af0ad3fe4092ed50f7d73ed92f568b209" target="_top" xlink:title=" ">
<polygon fill="white" stroke="#666666" points="269.5,-116 150.5,-116 150.5,-86 269.5,-86 269.5,-116"/>
<text text-anchor="start" x="158.5" y="-104" font-family="Times,serif" font-size="10.00">ttg_parsec::TT::copy</text>
<text text-anchor="middle" x="210" y="-93" font-family="Times,serif" font-size="10.00">_mark_pushout</text>
</a>
</g>
</g>
<!-- Node1&#45;&gt;Node2 -->
<g id="edge1_Node000001_Node000002" class="edge">
<title>Node1&#45;&gt;Node2</title>
<g id="a_edge1_Node000001_Node000002"><a xlink:title=" ">
<path fill="none" stroke="#63b8ff" d="M107.24,-72.68C119.38,-76.06 132.42,-79.69 144.98,-83.18"/>
<polygon fill="#63b8ff" stroke="#63b8ff" points="144.35,-86.64 154.92,-85.95 146.23,-79.9 144.35,-86.64"/>
</a>
</g>
</g>
<!-- Node7 -->
<g id="Node000007" class="node">
<title>Node7</title>
<g id="a_Node000007"><a xlink:href="classttg__parsec_1_1_t_t.html#aab59a1bf0fcc4f771457b5f05cb42741" target="_top" xlink:title=" ">
<polygon fill="white" stroke="#666666" points="432.5,-58.5 321.5,-58.5 321.5,-39.5 432.5,-39.5 432.5,-58.5"/>
<text text-anchor="middle" x="377" y="-46.5" font-family="Times,serif" font-size="10.00">ttg_parsec::TT::get</text>
</a>
</g>
</g>
<!-- Node1&#45;&gt;Node7 -->
<g id="edge11_Node000001_Node000007" class="edge">
<title>Node1&#45;&gt;Node7</title>
<g id="a_edge11_Node000001_Node000007"><a xlink:title=" ">
<path fill="none" stroke="#63b8ff" d="M107.23,-56.52C163.05,-54.96 251.23,-52.49 311.24,-50.81"/>
<polygon fill="#63b8ff" stroke="#63b8ff" points="311.46,-54.31 321.36,-50.53 311.27,-47.31 311.46,-54.31"/>
</a>
</g>
</g>
<!-- Node8 -->
<g id="Node000008" class="node">
<title>Node8</title>
<g id="a_Node000008"><a xlink:href="classttg__parsec_1_1_t_t.html#a89c25faa20dde0b3d613c87d1970cde2" target="_top" xlink:title=" ">
<polygon fill="white" stroke="#666666" points="277,-30 143,-30 143,0 277,0 277,-30"/>
<text text-anchor="start" x="151" y="-18" font-family="Times,serif" font-size="10.00">ttg_parsec::TT::derived</text>
<text text-anchor="middle" x="210" y="-7" font-family="Times,serif" font-size="10.00">_has_device_op</text>
</a>
</g>
</g>
<!-- Node1&#45;&gt;Node8 -->
<g id="edge9_Node000001_Node000008" class="edge">
<title>Node1&#45;&gt;Node8</title>
<g id="a_edge9_Node000001_Node000008"><a xlink:title=" ">
<path fill="none" stroke="#63b8ff" d="M107.24,-43.32C119.38,-39.94 132.42,-36.31 144.98,-32.82"/>
<polygon fill="#63b8ff" stroke="#63b8ff" points="146.23,-36.1 154.92,-30.05 144.35,-29.36 146.23,-36.1"/>
</a>
</g>
</g>
<!-- Node3 -->
<g id="Node000003" class="node">
<title>Node3</title>
<g id="a_Node000003"><a xlink:href="namespacettg__parsec_1_1detail.html#a4daca8ffc2e91c825340381688737ff0" target="_top" xlink:title=" ">
<polygon fill="white" stroke="#666666" points="441,-125 313,-125 313,-95 441,-95 441,-125"/>
<text text-anchor="start" x="321" y="-113" font-family="Times,serif" font-size="10.00">ttg_parsec::detail</text>
<text text-anchor="middle" x="377" y="-102" font-family="Times,serif" font-size="10.00">::foreach_parsec_data</text>
</a>
</g>
</g>
<!-- Node2&#45;&gt;Node3 -->
<g id="edge2_Node000002_Node000003" class="edge">
<title>Node2&#45;&gt;Node3</title>
<g id="a_edge2_Node000002_Node000003"><a xlink:title=" ">
<path fill="none" stroke="#63b8ff" d="M269.64,-104.2C280.35,-104.78 291.64,-105.4 302.71,-106"/>
<polygon fill="#63b8ff" stroke="#63b8ff" points="302.62,-109.5 312.79,-106.55 303,-102.51 302.62,-109.5"/>
</a>
</g>
</g>
<!-- Node2&#45;&gt;Node7 -->
<g id="edge7_Node000002_Node000007" class="edge">
<title>Node2&#45;&gt;Node7</title>
<g id="a_edge7_Node000002_Node000007"><a xlink:title=" ">
<path fill="none" stroke="#63b8ff" d="M258.72,-85.96C283.21,-78.24 312.7,-68.95 335.98,-61.61"/>
<polygon fill="#63b8ff" stroke="#63b8ff" points="337.06,-64.94 345.54,-58.6 334.95,-58.27 337.06,-64.94"/>
</a>
</g>
</g>
<!-- Node4 -->
<g id="Node000004" class="node">
<title>Node4</title>
<g id="a_Node000004"><a xlink:href="namespacettg_1_1detail.html#ad277a8a8c9831a5cbdc938a5a1504f62" target="_top" xlink:title=" ">
<polygon fill="white" stroke="#666666" points="581,-149 479,-149 479,-119 581,-119 581,-149"/>
<text text-anchor="start" x="487" y="-137" font-family="Times,serif" font-size="10.00">ttg::detail::buffer</text>
<text text-anchor="middle" x="530" y="-126" font-family="Times,serif" font-size="10.00">_apply</text>
</a>
</g>
</g>
<!-- Node3&#45;&gt;Node4 -->
<g id="edge3_Node000003_Node000004" class="edge">
<title>Node3&#45;&gt;Node4</title>
<g id="a_edge3_Node000003_Node000004"><a xlink:title=" ">
<path fill="none" stroke="#63b8ff" d="M441.16,-120.04C450.32,-121.49 459.73,-122.99 468.83,-124.44"/>
<polygon fill="#63b8ff" stroke="#63b8ff" points="468.52,-127.93 478.94,-126.04 469.62,-121.02 468.52,-127.93"/>
</a>
</g>
</g>
<!-- Node6 -->
<g id="Node000006" class="node">
<title>Node6</title>
<g id="a_Node000006"><a xlink:href="namespacettg__parsec_1_1detail.html#ad37e220fbc05d0a62b08a94964480f0a" target="_top" xlink:title=" ">
<polygon fill="white" stroke="#666666" points="583,-101 477,-101 477,-71 583,-71 583,-101"/>
<text text-anchor="start" x="485" y="-89" font-family="Times,serif" font-size="10.00">ttg_parsec::detail</text>
<text text-anchor="middle" x="530" y="-78" font-family="Times,serif" font-size="10.00">::get_parsec_data</text>
</a>
</g>
</g>
<!-- Node3&#45;&gt;Node6 -->
<g id="edge6_Node000003_Node000006" class="edge">
<title>Node3&#45;&gt;Node6</title>
<g id="a_edge6_Node000003_Node000006"><a xlink:title=" ">
<path fill="none" stroke="#63b8ff" d="M441.16,-99.96C449.55,-98.63 458.15,-97.26 466.53,-95.93"/>
<polygon fill="#63b8ff" stroke="#63b8ff" points="467.28,-99.35 476.6,-94.33 466.18,-92.44 467.28,-99.35"/>
</a>
</g>
</g>
<!-- Node5 -->
<g id="Node000005" class="node">
<title>Node5</title>
<g id="a_Node000005"><a xlink:href="namespacettg_1_1meta.html#affd90f350d054c6a5b4859644d834172" target="_top" xlink:title=" ">
<polygon fill="white" stroke="#666666" points="704,-143.5 619,-143.5 619,-124.5 704,-124.5 704,-143.5"/>
<text text-anchor="middle" x="661.5" y="-131.5" font-family="Times,serif" font-size="10.00">ttg::meta::get</text>
</a>
</g>
</g>
<!-- Node4&#45;&gt;Node5 -->
<g id="edge4_Node000004_Node000005" class="edge">
<title>Node4&#45;&gt;Node5</title>
<g id="a_edge4_Node000004_Node000005"><a xlink:title=" ">
<path fill="none" stroke="#63b8ff" d="M581.07,-134C590.17,-134 599.68,-134 608.83,-134"/>
<polygon fill="#63b8ff" stroke="#63b8ff" points="608.96,-137.5 618.96,-134 608.96,-130.5 608.96,-137.5"/>
</a>
</g>
</g>
<!-- Node5&#45;&gt;Node5 -->
<g id="edge5_Node000005_Node000005" class="edge">
<title>Node5&#45;&gt;Node5</title>
<g id="a_edge5_Node000005_Node000005"><a xlink:title=" ">
<path fill="none" stroke="#63b8ff" d="M641.46,-143.58C631.72,-152.23 638.39,-161.5 661.5,-161.5 676.3,-161.5 684.36,-157.7 685.68,-152.69"/>
<polygon fill="#63b8ff" stroke="#63b8ff" points="688.86,-151.23 681.54,-143.58 682.49,-154.13 688.86,-151.23"/>
</a>
</g>
</g>
<!-- Node7&#45;&gt;Node7 -->
<g id="edge8_Node000007_Node000007" class="edge">
<title>Node7&#45;&gt;Node7</title>
<g id="a_edge8_Node000007_Node000007"><a xlink:title=" ">
<path fill="none" stroke="#63b8ff" d="M353.57,-58.58C342.18,-67.23 349.98,-76.5 377,-76.5 394.73,-76.5 404.19,-72.51 405.37,-67.32"/>
<polygon fill="#63b8ff" stroke="#63b8ff" points="408.4,-65.56 400.43,-58.58 402.31,-69.01 408.4,-65.56"/>
</a>
</g>
</g>
<!-- Node8&#45;&gt;Node7 -->
<g id="edge10_Node000008_Node000007" class="edge">
<title>Node8&#45;&gt;Node7</title>
<g id="a_edge10_Node000008_Node000007"><a xlink:title=" ">
<path fill="none" stroke="#63b8ff" d="M277.16,-28.63C291.16,-31.52 305.82,-34.54 319.43,-37.34"/>
<polygon fill="#63b8ff" stroke="#63b8ff" points="319.11,-40.85 329.61,-39.44 320.52,-33.99 319.11,-40.85"/>
</a>
</g>
</g>
</g>
</svg>
