<?xml version="1.0" encoding="UTF-8" standalone="no"?>
<!DOCTYPE svg PUBLIC "-//W3C//DTD SVG 1.1//EN"
 "http://www.w3.org/Graphics/SVG/1.1/DTD/svg11.dtd">
<!-- Generated by graphviz version 2.43.0 (0)
 -->
<!-- Title: ttg_parsec::TT::check_constraints Pages: 1 -->
<svg width="279pt" height="100pt"
 viewBox="0.00 0.00 279.00 100.00" xmlns="http://www.w3.org/2000/svg" xmlns:xlink="http://www.w3.org/1999/xlink">
<g id="graph0" class="graph" transform="scale(1 1) rotate(0) translate(4 96)">
<title>ttg_parsec::TT::check_constraints</title>
<!-- Node1 -->
<g id="Node000001" class="node">
<title>Node1</title>
<g id="a_Node000001"><a xlink:title=" ">
<polygon fill="#999999" stroke="#666666" points="124,-51.5 0,-51.5 0,-21.5 124,-21.5 124,-51.5"/>
<text text-anchor="start" x="8" y="-39.5" font-family="Times,serif" font-size="10.00">ttg_parsec::TT::check</text>
<text text-anchor="middle" x="62" y="-28.5" font-family="Times,serif" font-size="10.00">_constraints</text>
</a>
</g>
</g>
<!-- Node2 -->
<g id="Node000002" class="node">
<title>Node2</title>
<g id="a_Node000002"><a xlink:href="classttg__parsec_1_1_t_t.html#aab59a1bf0fcc4f771457b5f05cb42741" target="_top" xlink:title=" ">
<polygon fill="white" stroke="#666666" points="271,-74 160,-74 160,-55 271,-55 271,-74"/>
<text text-anchor="middle" x="215.5" y="-62" font-family="Times,serif" font-size="10.00">ttg_parsec::TT::get</text>
</a>
</g>
</g>
<!-- Node1&#45;&gt;Node2 -->
<g id="edge1_Node000001_Node000002" class="edge">
<title>Node1&#45;&gt;Node2</title>
<g id="a_edge1_Node000001_Node000002"><a xlink:title=" ">
<path fill="none" stroke="#63b8ff" d="M124.18,-47.81C133.59,-49.55 143.31,-51.34 152.73,-53.08"/>
<polygon fill="#63b8ff" stroke="#63b8ff" points="152.34,-56.57 162.81,-54.95 153.61,-49.69 152.34,-56.57"/>
</a>
</g>
</g>
<!-- Node3 -->
<g id="Node000003" class="node">
<title>Node3</title>
<g id="a_Node000003"><a xlink:href="namespacettg_1_1meta.html#affd90f350d054c6a5b4859644d834172" target="_top" xlink:title=" ">
<polygon fill="white" stroke="#666666" points="258,-19 173,-19 173,0 258,0 258,-19"/>
<text text-anchor="middle" x="215.5" y="-7" font-family="Times,serif" font-size="10.00">ttg::meta::get</text>
</a>
</g>
</g>
<!-- Node1&#45;&gt;Node3 -->
<g id="edge3_Node000001_Node000003" class="edge">
<title>Node1&#45;&gt;Node3</title>
<g id="a_edge3_Node000001_Node000003"><a xlink:title=" ">
<path fill="none" stroke="#63b8ff" d="M124.18,-25.6C136.89,-23.33 150.16,-20.97 162.5,-18.77"/>
<polygon fill="#63b8ff" stroke="#63b8ff" points="163.37,-22.17 172.61,-16.97 162.15,-15.28 163.37,-22.17"/>
</a>
</g>
</g>
<!-- Node2&#45;&gt;Node2 -->
<g id="edge2_Node000002_Node000002" class="edge">
<title>Node2&#45;&gt;Node2</title>
<g id="a_edge2_Node000002_Node000002"><a xlink:title=" ">
<path fill="none" stroke="#63b8ff" d="M192.07,-74.08C180.68,-82.73 188.48,-92 215.5,-92 233.23,-92 242.69,-88.01 243.87,-82.82"/>
<polygon fill="#63b8ff" stroke="#63b8ff" points="246.9,-81.06 238.93,-74.08 240.81,-84.51 246.9,-81.06"/>
</a>
</g>
</g>
<!-- Node3&#45;&gt;Node3 -->
<g id="edge4_Node000003_Node000003" class="edge">
<title>Node3&#45;&gt;Node3</title>
<g id="a_edge4_Node000003_Node000003"><a xlink:title=" ">
<path fill="none" stroke="#63b8ff" d="M192.07,-19.08C180.68,-27.73 188.48,-37 215.5,-37 233.23,-37 242.69,-33.01 243.87,-27.82"/>
<polygon fill="#63b8ff" stroke="#63b8ff" points="246.9,-26.06 238.93,-19.08 240.81,-29.51 246.9,-26.06"/>
</a>
</g>
</g>
</g>
</svg>
