<?xml version="1.0" encoding="UTF-8" standalone="no"?>
<!DOCTYPE svg PUBLIC "-//W3C//DTD SVG 1.1//EN"
 "http://www.w3.org/Graphics/SVG/1.1/DTD/svg11.dtd">
<!-- Generated by graphviz version 2.43.0 (0)
 -->
<!-- Title: ttg::OutTerminalBase&lt; keyT &gt; Pages: 1 -->
<svg width="150pt" height="148pt"
 viewBox="0.00 0.00 150.00 148.00" xmlns="http://www.w3.org/2000/svg" xmlns:xlink="http://www.w3.org/1999/xlink">
<g id="graph0" class="graph" transform="scale(1 1) rotate(0) translate(4 144)">
<title>ttg::OutTerminalBase&lt; keyT &gt;</title>
<!-- Node1 -->
<g id="Node000001" class="node">
<title>Node1</title>
<g id="a_Node000001"><a xlink:title=" ">
<polygon fill="#999999" stroke="#666666" points="133.5,-85 8.5,-85 8.5,-55 133.5,-55 133.5,-85"/>
<text text-anchor="start" x="16.5" y="-73" font-family="Times,serif" font-size="10.00">ttg::OutTerminalBase</text>
<text text-anchor="middle" x="71" y="-62" font-family="Times,serif" font-size="10.00">&lt; keyT &gt;</text>
</a>
</g>
</g>
<!-- Node3 -->
<g id="Node000003" class="node">
<title>Node3</title>
<g id="a_Node000003"><a xlink:href="classttg_1_1_out.html" target="_top" xlink:title=" ">
<polygon fill="white" stroke="#666666" points="142,-19 0,-19 0,0 142,0 142,-19"/>
<text text-anchor="middle" x="71" y="-7" font-family="Times,serif" font-size="10.00">ttg::Out&lt; keyT, valueT &gt;</text>
</a>
</g>
</g>
<!-- Node1&#45;&gt;Node3 -->
<g id="edge2_Node000001_Node000003" class="edge">
<title>Node1&#45;&gt;Node3</title>
<g id="a_edge2_Node000001_Node000003"><a xlink:title=" ">
<path fill="none" stroke="#63b8ff" d="M71,-44.75C71,-35.72 71,-26.03 71,-19.27"/>
<polygon fill="#63b8ff" stroke="#63b8ff" points="67.5,-44.84 71,-54.84 74.5,-44.84 67.5,-44.84"/>
</a>
</g>
</g>
<!-- Node2 -->
<g id="Node000002" class="node">
<title>Node2</title>
<g id="a_Node000002"><a xlink:href="classttg_1_1_terminal_base.html" target="_top" xlink:title=" ">
<polygon fill="white" stroke="#666666" points="124.5,-140 17.5,-140 17.5,-121 124.5,-121 124.5,-140"/>
<text text-anchor="middle" x="71" y="-128" font-family="Times,serif" font-size="10.00">ttg::TerminalBase</text>
</a>
</g>
</g>
<!-- Node2&#45;&gt;Node1 -->
<g id="edge1_Node000001_Node000002" class="edge">
<title>Node2&#45;&gt;Node1</title>
<g id="a_edge1_Node000001_Node000002"><a xlink:title=" ">
<path fill="none" stroke="#63b8ff" d="M71,-110.65C71,-102.36 71,-92.78 71,-85.11"/>
<polygon fill="#63b8ff" stroke="#63b8ff" points="67.5,-110.87 71,-120.87 74.5,-110.87 67.5,-110.87"/>
</a>
</g>
</g>
</g>
</svg>
