<?xml version="1.0" encoding="UTF-8" standalone="no"?>
<!DOCTYPE svg PUBLIC "-//W3C//DTD SVG 1.1//EN"
 "http://www.w3.org/Graphics/SVG/1.1/DTD/svg11.dtd">
<!-- Generated by graphviz version 2.43.0 (0)
 -->
<!-- Title: ttg::BinaryTreeBroadcast::op Pages: 1 -->
<svg width="530pt" height="246pt"
 viewBox="0.00 0.00 530.00 246.00" xmlns="http://www.w3.org/2000/svg" xmlns:xlink="http://www.w3.org/1999/xlink">
<g id="graph0" class="graph" transform="scale(1 1) rotate(0) translate(4 242)">
<title>ttg::BinaryTreeBroadcast::op</title>
<!-- Node1 -->
<g id="Node000001" class="node">
<title>Node1</title>
<g id="a_Node000001"><a xlink:title=" ">
<polygon fill="#999999" stroke="#666666" points="164,-110.5 0,-110.5 0,-91.5 164,-91.5 164,-110.5"/>
<text text-anchor="middle" x="82" y="-98.5" font-family="Times,serif" font-size="10.00">ttg::BinaryTreeBroadcast::op</text>
</a>
</g>
</g>
<!-- Node2 -->
<g id="Node000002" class="node">
<title>Node2</title>
<g id="a_Node000002"><a xlink:href="classttg_1_1_binary_spanning_tree.html#a622b8d511132839777fabfb8d71c8c12" target="_top" xlink:title=" ">
<polygon fill="white" stroke="#666666" points="343,-220 200,-220 200,-190 343,-190 343,-220"/>
<text text-anchor="start" x="208" y="-208" font-family="Times,serif" font-size="10.00">ttg::BinarySpanningTree</text>
<text text-anchor="middle" x="271.5" y="-197" font-family="Times,serif" font-size="10.00">::child_keys</text>
</a>
</g>
</g>
<!-- Node1&#45;&gt;Node2 -->
<g id="edge1_Node000001_Node000002" class="edge">
<title>Node1&#45;&gt;Node2</title>
<g id="a_edge1_Node000001_Node000002"><a xlink:title=" ">
<path fill="none" stroke="#63b8ff" d="M94.62,-110.55C114.92,-126.86 158.63,-160.3 200,-181 203.54,-182.77 207.24,-184.46 211.02,-186.07"/>
<polygon fill="#63b8ff" stroke="#63b8ff" points="209.92,-189.4 220.5,-189.88 212.53,-182.9 209.92,-189.4"/>
</a>
</g>
</g>
<!-- Node4 -->
<g id="Node000004" class="node">
<title>Node4</title>
<g id="a_Node000004"><a xlink:href="classttg__parsec_1_1_t_t.html#aab59a1bf0fcc4f771457b5f05cb42741" target="_top" xlink:title=" ">
<polygon fill="white" stroke="#666666" points="327,-153.5 216,-153.5 216,-134.5 327,-134.5 327,-153.5"/>
<text text-anchor="middle" x="271.5" y="-141.5" font-family="Times,serif" font-size="10.00">ttg_parsec::TT::get</text>
</a>
</g>
</g>
<!-- Node1&#45;&gt;Node4 -->
<g id="edge4_Node000001_Node000004" class="edge">
<title>Node1&#45;&gt;Node4</title>
<g id="a_edge4_Node000001_Node000004"><a xlink:title=" ">
<path fill="none" stroke="#63b8ff" d="M124.61,-110.54C152.53,-116.95 189.49,-125.42 219.22,-132.24"/>
<polygon fill="#63b8ff" stroke="#63b8ff" points="218.47,-135.66 229,-134.48 220.04,-128.84 218.47,-135.66"/>
</a>
</g>
</g>
<!-- Node5 -->
<g id="Node000005" class="node">
<title>Node5</title>
<g id="a_Node000005"><a xlink:href="classttg__parsec_1_1_t_t.html#a0b6df5b0372c3a8819ecf15f2f3bc0b0" target="_top" xlink:title=" ">
<polygon fill="white" stroke="#666666" points="327,-116 216,-116 216,-86 327,-86 327,-116"/>
<text text-anchor="start" x="224" y="-104" font-family="Times,serif" font-size="10.00">ttg_parsec::TT::get</text>
<text text-anchor="middle" x="271.5" y="-93" font-family="Times,serif" font-size="10.00">_world</text>
</a>
</g>
</g>
<!-- Node1&#45;&gt;Node5 -->
<g id="edge6_Node000001_Node000005" class="edge">
<title>Node1&#45;&gt;Node5</title>
<g id="a_edge6_Node000001_Node000005"><a xlink:title=" ">
<path fill="none" stroke="#63b8ff" d="M164.15,-101C178.11,-101 192.45,-101 205.9,-101"/>
<polygon fill="#63b8ff" stroke="#63b8ff" points="205.99,-104.5 215.99,-101 205.99,-97.5 205.99,-104.5"/>
</a>
</g>
</g>
<!-- Node6 -->
<g id="Node000006" class="node">
<title>Node6</title>
<g id="a_Node000006"><a xlink:href="namespacettg.html#ac0ad1dd3b87329e4acf9774df6dc8473" target="_top" xlink:title=" ">
<polygon fill="white" stroke="#666666" points="301.5,-67.5 241.5,-67.5 241.5,-48.5 301.5,-48.5 301.5,-67.5"/>
<text text-anchor="middle" x="271.5" y="-55.5" font-family="Times,serif" font-size="10.00">ttg::rank</text>
</a>
</g>
</g>
<!-- Node1&#45;&gt;Node6 -->
<g id="edge7_Node000001_Node000006" class="edge">
<title>Node1&#45;&gt;Node6</title>
<g id="a_edge7_Node000001_Node000006"><a xlink:title=" ">
<path fill="none" stroke="#63b8ff" d="M124.61,-91.46C156.41,-84.17 199.93,-74.18 231.15,-67.02"/>
<polygon fill="#63b8ff" stroke="#63b8ff" points="232.26,-70.36 241.23,-64.71 230.7,-63.54 232.26,-70.36"/>
</a>
</g>
</g>
<!-- Node7 -->
<g id="Node000007" class="node">
<title>Node7</title>
<g id="a_Node000007"><a xlink:href="classttg_1_1_binary_spanning_tree.html#a50317fa104da9be95076c49adba9e842" target="_top" xlink:title=" ">
<polygon fill="white" stroke="#666666" points="343,-30 200,-30 200,0 343,0 343,-30"/>
<text text-anchor="start" x="208" y="-18" font-family="Times,serif" font-size="10.00">ttg::BinarySpanningTree</text>
<text text-anchor="middle" x="271.5" y="-7" font-family="Times,serif" font-size="10.00">::size</text>
</a>
</g>
</g>
<!-- Node1&#45;&gt;Node7 -->
<g id="edge8_Node000001_Node000007" class="edge">
<title>Node1&#45;&gt;Node7</title>
<g id="a_edge8_Node000001_Node000007"><a xlink:title=" ">
<path fill="none" stroke="#63b8ff" d="M99.69,-91.35C122.07,-78.63 163.25,-56 200,-40 204.99,-37.83 210.23,-35.7 215.51,-33.66"/>
<polygon fill="#63b8ff" stroke="#63b8ff" points="216.88,-36.88 225,-30.08 214.41,-30.33 216.88,-36.88"/>
</a>
</g>
</g>
<!-- Node3 -->
<g id="Node000003" class="node">
<title>Node3</title>
<g id="a_Node000003"><a xlink:href="classttg_1_1_binary_spanning_tree.html#a31c570498d5fa0e40944ef57ccfc8ef1" target="_top" xlink:title=" ">
<polygon fill="white" stroke="#666666" points="522,-220 379,-220 379,-190 522,-190 522,-220"/>
<text text-anchor="start" x="387" y="-208" font-family="Times,serif" font-size="10.00">ttg::BinarySpanningTree</text>
<text text-anchor="middle" x="450.5" y="-197" font-family="Times,serif" font-size="10.00">::parent_key</text>
</a>
</g>
</g>
<!-- Node2&#45;&gt;Node3 -->
<g id="edge2_Node000002_Node000003" class="edge">
<title>Node2&#45;&gt;Node3</title>
<g id="a_edge2_Node000002_Node000003"><a xlink:title=" ">
<path fill="none" stroke="#63b8ff" d="M343.22,-205C351.57,-205 360.14,-205 368.62,-205"/>
<polygon fill="#63b8ff" stroke="#63b8ff" points="368.89,-208.5 378.89,-205 368.89,-201.5 368.89,-208.5"/>
</a>
</g>
</g>
<!-- Node3&#45;&gt;Node3 -->
<g id="edge3_Node000003_Node000003" class="edge">
<title>Node3&#45;&gt;Node3</title>
<g id="a_edge3_Node000003_Node000003"><a xlink:title=" ">
<path fill="none" stroke="#63b8ff" d="M419.21,-220.28C412.26,-229.41 422.69,-238 450.5,-238 467.01,-238 477.4,-234.97 481.66,-230.6"/>
<polygon fill="#63b8ff" stroke="#63b8ff" points="485.16,-230.32 481.79,-220.28 478.16,-230.23 485.16,-230.32"/>
</a>
</g>
</g>
<!-- Node4&#45;&gt;Node4 -->
<g id="edge5_Node000004_Node000004" class="edge">
<title>Node4&#45;&gt;Node4</title>
<g id="a_edge5_Node000004_Node000004"><a xlink:title=" ">
<path fill="none" stroke="#63b8ff" d="M244.07,-153.58C230.72,-162.23 239.86,-171.5 271.5,-171.5 292.76,-171.5 303.86,-167.32 304.81,-161.95"/>
<polygon fill="#63b8ff" stroke="#63b8ff" points="307.55,-159.76 298.93,-153.58 301.82,-163.78 307.55,-159.76"/>
</a>
</g>
</g>
</g>
</svg>
