<?xml version="1.0" encoding="UTF-8" standalone="no"?>
<!DOCTYPE svg PUBLIC "-//W3C//DTD SVG 1.1//EN"
 "http://www.w3.org/Graphics/SVG/1.1/DTD/svg11.dtd">
<!-- Generated by graphviz version 2.43.0 (0)
 -->
<!-- Title: ttg_madness::TT::invoke Pages: 1 -->
<svg width="668pt" height="149pt"
 viewBox="0.00 0.00 668.00 148.78" xmlns="http://www.w3.org/2000/svg" xmlns:xlink="http://www.w3.org/1999/xlink">
<g id="graph0" class="graph" transform="scale(1 1) rotate(0) translate(4 144.78)">
<title>ttg_madness::TT::invoke</title>
<!-- Node1 -->
<g id="Node000001" class="node">
<title>Node1</title>
<g id="a_Node000001"><a xlink:title="Manual injection of a task with all input arguments specified as a tuple.">
<polygon fill="#999999" stroke="#666666" points="140,-76 0,-76 0,-57 140,-57 140,-76"/>
<text text-anchor="middle" x="70" y="-64" font-family="Times,serif" font-size="10.00">ttg_madness::TT::invoke</text>
</a>
</g>
</g>
<!-- Node2 -->
<g id="Node000002" class="node">
<title>Node2</title>
<g id="a_Node000002"><a xlink:href="classttg__madness_1_1_t_t.html#a3fb0ab18d00c27fae64e1bd1b78d3d0d" target="_top" xlink:title=" ">
<polygon fill="white" stroke="#666666" points="660,-57 537,-57 537,-38 660,-38 660,-57"/>
<text text-anchor="middle" x="598.5" y="-45" font-family="Times,serif" font-size="10.00">ttg_madness::TT::get</text>
</a>
</g>
</g>
<!-- Node1&#45;&gt;Node2 -->
<g id="edge1_Node000001_Node000002" class="edge">
<title>Node1&#45;&gt;Node2</title>
<g id="a_edge1_Node000001_Node000002"><a xlink:title=" ">
<path fill="none" stroke="#63b8ff" d="M92.72,-76.05C156.98,-102.91 351.1,-173.9 501,-122.5 534.24,-111.1 564.87,-83.06 582.34,-64.68"/>
<polygon fill="#63b8ff" stroke="#63b8ff" points="585.21,-66.73 589.41,-57.01 580.06,-61.99 585.21,-66.73"/>
</a>
</g>
</g>
<!-- Node3 -->
<g id="Node000003" class="node">
<title>Node3</title>
<g id="a_Node000003"><a xlink:href="namespacettg_1_1meta.html#affd90f350d054c6a5b4859644d834172" target="_top" xlink:title=" ">
<polygon fill="white" stroke="#666666" points="469,-95 384,-95 384,-76 469,-76 469,-95"/>
<text text-anchor="middle" x="426.5" y="-83" font-family="Times,serif" font-size="10.00">ttg::meta::get</text>
</a>
</g>
</g>
<!-- Node1&#45;&gt;Node3 -->
<g id="edge3_Node000001_Node000003" class="edge">
<title>Node1&#45;&gt;Node3</title>
<g id="a_edge3_Node000001_Node000003"><a xlink:title=" ">
<path fill="none" stroke="#63b8ff" d="M140.19,-70.21C208.67,-73.88 311.94,-79.41 373.65,-82.72"/>
<polygon fill="#63b8ff" stroke="#63b8ff" points="373.75,-86.23 383.92,-83.27 374.13,-79.24 373.75,-86.23"/>
</a>
</g>
</g>
<!-- Node4 -->
<g id="Node000004" class="node">
<title>Node4</title>
<g id="a_Node000004"><a xlink:href="classttg__madness_1_1_t_t.html#a59514d2ebb826c9b78b96d89f3067c51" target="_top" xlink:title="Manual injection of a task that has no key or arguments.">
<polygon fill="white" stroke="#666666" points="316,-57 176,-57 176,-38 316,-38 316,-57"/>
<text text-anchor="middle" x="246" y="-45" font-family="Times,serif" font-size="10.00">ttg_madness::TT::invoke</text>
</a>
</g>
</g>
<!-- Node1&#45;&gt;Node4 -->
<g id="edge5_Node000001_Node000004" class="edge">
<title>Node1&#45;&gt;Node4</title>
<g id="a_edge5_Node000001_Node000004"><a xlink:title=" ">
<path fill="none" stroke="#63b8ff" d="M140.02,-58.96C148.48,-58.04 157.17,-57.09 165.76,-56.15"/>
<polygon fill="#63b8ff" stroke="#63b8ff" points="166.22,-59.62 175.78,-55.06 165.46,-52.66 166.22,-59.62"/>
</a>
</g>
</g>
<!-- Node5 -->
<g id="Node000005" class="node">
<title>Node5</title>
<g id="a_Node000005"><a xlink:href="classttg__madness_1_1_t_t.html#af4e8733dca2905582a1cbaeb3a090322" target="_top" xlink:title=" ">
<polygon fill="white" stroke="#666666" points="501,-19 352,-19 352,0 501,0 501,-19"/>
<text text-anchor="middle" x="426.5" y="-7" font-family="Times,serif" font-size="10.00">ttg_madness::TT::set_args</text>
</a>
</g>
</g>
<!-- Node1&#45;&gt;Node5 -->
<g id="edge10_Node000001_Node000005" class="edge">
<title>Node1&#45;&gt;Node5</title>
<g id="a_edge10_Node000001_Node000005"><a xlink:title=" ">
<path fill="none" stroke="#63b8ff" d="M92.22,-56.89C113.08,-47.9 146.05,-34.93 176,-28.5 230.42,-16.81 292.87,-12.06 341.68,-10.23"/>
<polygon fill="#63b8ff" stroke="#63b8ff" points="342,-13.73 351.88,-9.89 341.77,-6.73 342,-13.73"/>
</a>
</g>
</g>
<!-- Node2&#45;&gt;Node2 -->
<g id="edge2_Node000002_Node000002" class="edge">
<title>Node2&#45;&gt;Node2</title>
<g id="a_edge2_Node000002_Node000002"><a xlink:title=" ">
<path fill="none" stroke="#63b8ff" d="M571.99,-57.08C559.09,-65.73 567.93,-75 598.5,-75 619.04,-75 629.77,-70.82 630.69,-65.45"/>
<polygon fill="#63b8ff" stroke="#63b8ff" points="633.52,-63.39 625.01,-57.08 627.73,-67.32 633.52,-63.39"/>
</a>
</g>
</g>
<!-- Node3&#45;&gt;Node3 -->
<g id="edge4_Node000003_Node000003" class="edge">
<title>Node3&#45;&gt;Node3</title>
<g id="a_edge4_Node000003_Node000003"><a xlink:title=" ">
<path fill="none" stroke="#63b8ff" d="M399.99,-95.08C387.09,-103.73 395.93,-113 426.5,-113 447.04,-113 457.77,-108.82 458.69,-103.45"/>
<polygon fill="#63b8ff" stroke="#63b8ff" points="461.52,-101.39 453.01,-95.08 455.73,-105.32 461.52,-101.39"/>
</a>
</g>
</g>
<!-- Node4&#45;&gt;Node2 -->
<g id="edge6_Node000004_Node000002" class="edge">
<title>Node4&#45;&gt;Node2</title>
<g id="a_edge6_Node000004_Node000002"><a xlink:title=" ">
<path fill="none" stroke="#63b8ff" d="M316.25,-47.5C377.07,-47.5 465.18,-47.5 526.51,-47.5"/>
<polygon fill="#63b8ff" stroke="#63b8ff" points="526.88,-51 536.88,-47.5 526.88,-44 526.88,-51"/>
</a>
</g>
</g>
<!-- Node4&#45;&gt;Node3 -->
<g id="edge7_Node000004_Node000003" class="edge">
<title>Node4&#45;&gt;Node3</title>
<g id="a_edge7_Node000004_Node000003"><a xlink:title=" ">
<path fill="none" stroke="#63b8ff" d="M292.04,-57.09C316.93,-62.39 347.96,-68.99 373.84,-74.5"/>
<polygon fill="#63b8ff" stroke="#63b8ff" points="373.33,-77.97 383.84,-76.63 374.79,-71.13 373.33,-77.97"/>
</a>
</g>
</g>
<!-- Node4&#45;&gt;Node5 -->
<g id="edge8_Node000004_Node000005" class="edge">
<title>Node4&#45;&gt;Node5</title>
<g id="a_edge8_Node000004_Node000005"><a xlink:title=" ">
<path fill="none" stroke="#63b8ff" d="M292.04,-37.91C316.02,-32.81 345.7,-26.49 370.97,-21.11"/>
<polygon fill="#63b8ff" stroke="#63b8ff" points="371.73,-24.53 380.78,-19.02 370.27,-17.68 371.73,-24.53"/>
</a>
</g>
</g>
<!-- Node5&#45;&gt;Node2 -->
<g id="edge9_Node000005_Node000002" class="edge">
<title>Node5&#45;&gt;Node2</title>
<g id="a_edge9_Node000005_Node000002"><a xlink:title=" ">
<path fill="none" stroke="#63b8ff" d="M470.4,-19.09C493.03,-24.15 521,-30.4 544.93,-35.75"/>
<polygon fill="#63b8ff" stroke="#63b8ff" points="544.39,-39.21 554.91,-37.98 545.91,-32.38 544.39,-39.21"/>
</a>
</g>
</g>
</g>
</svg>
