<?xml version="1.0" encoding="UTF-8" standalone="no"?>
<!DOCTYPE svg PUBLIC "-//W3C//DTD SVG 1.1//EN"
 "http://www.w3.org/Graphics/SVG/1.1/DTD/svg11.dtd">
<!-- Generated by graphviz version 2.43.0 (0)
 -->
<!-- Title: ttg::OutTerminalBase::set_size Pages: 1 -->
<svg width="407pt" height="131pt"
 viewBox="0.00 0.00 407.00 130.50" xmlns="http://www.w3.org/2000/svg" xmlns:xlink="http://www.w3.org/1999/xlink">

<svg id="main" version="1.1" xmlns="http://www.w3.org/2000/svg" xmlns:xlink="http://www.w3.org/1999/xlink" xml:space="preserve" onload="init(evt)">
<style type="text/css"><![CDATA[
.node, .edge {opacity: 0.7;}
.node.selected, .edge.selected {opacity: 1;}
.edge:hover path { stroke: red; }
.edge:hover polygon { stroke: red; fill: red; }
]]></style>
<script type="application/ecmascript" xlink:href="svg.min.js"/>
<svg id="graph" class="graph">
<g id="graph0" class="graph" transform="scale(1 1) rotate(0) translate(4 126.5)">
<title>ttg::OutTerminalBase::set_size</title>
<!-- Node1 -->
<g id="Node000001" class="node">
<title>Node1</title>
<g id="a_Node000001"><a xlink:title=" ">
<polygon fill="#999999" stroke="#666666" points="399,-73 274,-73 274,-43 399,-43 399,-73"/>
<text text-anchor="start" x="282" y="-61" font-family="Times,serif" font-size="10.00">ttg::OutTerminalBase</text>
<text text-anchor="middle" x="336.5" y="-50" font-family="Times,serif" font-size="10.00">::set_size</text>
</a>
</g>
</g>
<!-- Node1&#45;&gt;Node1 -->
<g id="edge1_Node000001_Node000001" class="edge">
<title>Node1&#45;&gt;Node1</title>
<g id="a_edge1_Node000001_Node000001"><a xlink:title=" ">
<path fill="none" stroke="#63b8ff" d="M364.51,-83.6C360.68,-87.97 351.34,-91 336.5,-91 311.5,-91 302.12,-82.41 308.38,-73.28"/>
<polygon fill="#63b8ff" stroke="#63b8ff" points="368.01,-83.32 364.62,-73.28 361.01,-83.23 368.01,-83.32"/>
</a>
</g>
</g>
<!-- Node2 -->
<g id="Node000002" class="node">
<title>Node2</title>
<g id="a_Node000002"><a xlink:href="namespacettg.html#a647ab7e77f26372e8ed5519e373caf3b" target="_top" xlink:title=" ">
<polygon fill="white" stroke="#666666" points="214,-104.5 137,-104.5 137,-85.5 214,-85.5 214,-104.5"/>
<text text-anchor="middle" x="175.5" y="-92.5" font-family="Times,serif" font-size="10.00">ttg::set_size</text>
</a>
</g>
</g>
<!-- Node1&#45;&gt;Node2 -->
<g id="edge2_Node000001_Node000002" class="edge">
<title>Node1&#45;&gt;Node2</title>
<g id="a_edge2_Node000001_Node000002"><a xlink:title=" ">
<path fill="none" stroke="#63b8ff" d="M263.6,-74.73C246.52,-78.7 228.98,-82.79 214.15,-86.24"/>
<polygon fill="#63b8ff" stroke="#63b8ff" points="264.62,-78.09 273.57,-72.41 263.04,-71.27 264.62,-78.09"/>
</a>
</g>
</g>
<!-- Node5 -->
<g id="Node000005" class="node">
<title>Node5</title>
<g id="a_Node000005"><a xlink:href="namespacettg.html#af31d31d8a37261b9f89f1852e9e3c10f" target="_top" xlink:title="Set the size of all streaming input terminals connected to an output terminal with void key.">
<polygon fill="white" stroke="#666666" points="214,-67.5 137,-67.5 137,-48.5 214,-48.5 214,-67.5"/>
<text text-anchor="middle" x="175.5" y="-55.5" font-family="Times,serif" font-size="10.00">ttg::set_size</text>
</a>
</g>
</g>
<!-- Node1&#45;&gt;Node5 -->
<g id="edge5_Node000001_Node000005" class="edge">
<title>Node1&#45;&gt;Node5</title>
<g id="a_edge5_Node000001_Node000005"><a xlink:title=" ">
<path fill="none" stroke="#63b8ff" d="M263.12,-58C246.2,-58 228.84,-58 214.15,-58"/>
<polygon fill="#63b8ff" stroke="#63b8ff" points="263.57,-61.5 273.57,-58 263.57,-54.5 263.57,-61.5"/>
</a>
</g>
</g>
<!-- Node6 -->
<g id="Node000006" class="node">
<title>Node6</title>
<g id="a_Node000006"><a xlink:href="classttg_1_1_out_terminal_base.html#a5ce0ce0c4247e276201644e30314ba70" target="_top" xlink:title=" ">
<polygon fill="white" stroke="#666666" points="238,-30 113,-30 113,0 238,0 238,-30"/>
<text text-anchor="start" x="121" y="-18" font-family="Times,serif" font-size="10.00">ttg::OutTerminalBase</text>
<text text-anchor="middle" x="175.5" y="-7" font-family="Times,serif" font-size="10.00">::set_size</text>
</a>
</g>
</g>
<!-- Node1&#45;&gt;Node6 -->
<g id="edge6_Node000001_Node000006" class="edge">
<title>Node1&#45;&gt;Node6</title>
<g id="a_edge6_Node000001_Node000006"><a xlink:title=" ">
<path fill="none" stroke="#63b8ff" d="M269.93,-40.27C257.36,-36.87 244.3,-33.34 232.08,-30.03"/>
<polygon fill="#63b8ff" stroke="#63b8ff" points="269.32,-43.73 279.89,-42.96 271.15,-36.97 269.32,-43.73"/>
</a>
</g>
</g>
<!-- Node3 -->
<g id="Node000003" class="node">
<title>Node3</title>
<g id="a_Node000003"><a xlink:href="namespacettg.html#aeb9f920fc147bba8f435b2ca39cdd414" target="_top" xlink:title=" ">
<polygon fill="white" stroke="#666666" points="77,-122.5 0,-122.5 0,-103.5 77,-103.5 77,-122.5"/>
<text text-anchor="middle" x="38.5" y="-110.5" font-family="Times,serif" font-size="10.00">ttg::set_size</text>
</a>
</g>
</g>
<!-- Node2&#45;&gt;Node3 -->
<g id="edge3_Node000002_Node000003" class="edge">
<title>Node2&#45;&gt;Node3</title>
<g id="a_edge3_Node000002_Node000003"><a xlink:title=" ">
<path fill="none" stroke="#63b8ff" d="M126.56,-101.39C110.42,-103.54 92.63,-105.92 77.37,-107.95"/>
<polygon fill="#63b8ff" stroke="#63b8ff" points="127.45,-104.81 136.89,-100.01 126.52,-97.87 127.45,-104.81"/>
</a>
</g>
</g>
<!-- Node4 -->
<g id="Node000004" class="node">
<title>Node4</title>
<g id="a_Node000004"><a xlink:href="namespacettg.html#ae96ab8dfc75550533beda7e2644dc00f" target="_top" xlink:title=" ">
<polygon fill="white" stroke="#666666" points="77,-85.5 0,-85.5 0,-66.5 77,-66.5 77,-85.5"/>
<text text-anchor="middle" x="38.5" y="-73.5" font-family="Times,serif" font-size="10.00">ttg::set_size</text>
</a>
</g>
</g>
<!-- Node2&#45;&gt;Node4 -->
<g id="edge4_Node000002_Node000004" class="edge">
<title>Node2&#45;&gt;Node4</title>
<g id="a_edge4_Node000002_Node000004"><a xlink:title=" ">
<path fill="none" stroke="#63b8ff" d="M126.56,-88.25C110.42,-85.98 92.63,-83.48 77.37,-81.33"/>
<polygon fill="#63b8ff" stroke="#63b8ff" points="126.5,-91.78 136.89,-89.71 127.48,-84.85 126.5,-91.78"/>
</a>
</g>
</g>
</g>
</svg>
</svg>

<style type='text/css'>
<![CDATA[
[data-mouse-over-selected='false'] { opacity: 0.7; }
[data-mouse-over-selected='true']  { opacity: 1.0; }
]]>
</style>
<script type="application/ecmascript"><![CDATA[
document.addEventListener('DOMContentLoaded', (event) => {
  highlightEdges();
  highlightAdjacentNodes();
});
]]></script>
</svg>
