<?xml version="1.0" encoding="UTF-8" standalone="no"?>
<!DOCTYPE svg PUBLIC "-//W3C//DTD SVG 1.1//EN"
 "http://www.w3.org/Graphics/SVG/1.1/DTD/svg11.dtd">
<!-- Generated by graphviz version 2.43.0 (0)
 -->
<!-- Title: ttg::Debugger::Debugger Pages: 1 -->
<svg width="521pt" height="150pt"
 viewBox="0.00 0.00 521.00 150.00" xmlns="http://www.w3.org/2000/svg" xmlns:xlink="http://www.w3.org/1999/xlink">
<g id="graph0" class="graph" transform="scale(1 1) rotate(0) translate(4 146)">
<title>ttg::Debugger::Debugger</title>
<!-- Node1 -->
<g id="Node000001" class="node">
<title>Node1</title>
<g id="a_Node000001"><a xlink:title="Programmatic construction of Debugger.">
<polygon fill="#999999" stroke="#666666" points="146,-77 0,-77 0,-58 146,-58 146,-77"/>
<text text-anchor="middle" x="73" y="-65" font-family="Times,serif" font-size="10.00">ttg::Debugger::Debugger</text>
</a>
</g>
</g>
<!-- Node2 -->
<g id="Node000002" class="node">
<title>Node2</title>
<g id="a_Node000002"><a xlink:href="classttg_1_1_debugger.html#a9d300701a1afd231052bc95bb9f7f027" target="_top" xlink:title="Calls set_cmd with a hopefully suitable default.">
<polygon fill="white" stroke="#666666" points="340,-142 182,-142 182,-123 340,-123 340,-142"/>
<text text-anchor="middle" x="261" y="-130" font-family="Times,serif" font-size="10.00">ttg::Debugger::default_cmd</text>
</a>
</g>
</g>
<!-- Node1&#45;&gt;Node2 -->
<g id="edge1_Node000001_Node000002" class="edge">
<title>Node1&#45;&gt;Node2</title>
<g id="a_edge1_Node000001_Node000002"><a xlink:title=" ">
<path fill="none" stroke="#63b8ff" d="M93.92,-77.15C115.31,-87.24 150.48,-103.03 182,-113.5 189.62,-116.03 197.75,-118.38 205.79,-120.51"/>
<polygon fill="#63b8ff" stroke="#63b8ff" points="204.95,-123.91 215.5,-122.99 206.68,-117.13 204.95,-123.91"/>
</a>
</g>
</g>
<!-- Node4 -->
<g id="Node000004" class="node">
<title>Node4</title>
<g id="a_Node000004"><a xlink:href="classttg_1_1_debugger.html#a4498530be3e81d7355ab5e1a3b2d5e74" target="_top" xlink:title="This calls handle(int) with all of the major signals.">
<polygon fill="white" stroke="#666666" points="326,-104.5 196,-104.5 196,-74.5 326,-74.5 326,-104.5"/>
<text text-anchor="start" x="204" y="-92.5" font-family="Times,serif" font-size="10.00">ttg::Debugger::handle</text>
<text text-anchor="middle" x="261" y="-81.5" font-family="Times,serif" font-size="10.00">_defaults</text>
</a>
</g>
</g>
<!-- Node1&#45;&gt;Node4 -->
<g id="edge3_Node000001_Node000004" class="edge">
<title>Node1&#45;&gt;Node4</title>
<g id="a_edge3_Node000001_Node000004"><a xlink:title=" ">
<path fill="none" stroke="#63b8ff" d="M146.18,-76.04C159.07,-77.56 172.53,-79.15 185.48,-80.69"/>
<polygon fill="#63b8ff" stroke="#63b8ff" points="185.4,-84.2 195.75,-81.9 186.23,-77.25 185.4,-84.2"/>
</a>
</g>
</g>
<!-- Node6 -->
<g id="Node000006" class="node">
<title>Node6</title>
<g id="a_Node000006"><a xlink:href="classttg_1_1_debugger.html#ab0b4815698da0db89c33d315392a5c10" target="_top" xlink:title=" ">
<polygon fill="white" stroke="#666666" points="316.5,-56 205.5,-56 205.5,-37 316.5,-37 316.5,-56"/>
<text text-anchor="middle" x="261" y="-44" font-family="Times,serif" font-size="10.00">ttg::Debugger::init</text>
</a>
</g>
</g>
<!-- Node1&#45;&gt;Node6 -->
<g id="edge5_Node000001_Node000006" class="edge">
<title>Node1&#45;&gt;Node6</title>
<g id="a_edge5_Node000001_Node000006"><a xlink:title=" ">
<path fill="none" stroke="#63b8ff" d="M146.18,-59.35C162.35,-57.53 179.4,-55.6 195.24,-53.81"/>
<polygon fill="#63b8ff" stroke="#63b8ff" points="195.91,-57.26 205.46,-52.66 195.13,-50.3 195.91,-57.26"/>
</a>
</g>
</g>
<!-- Node7 -->
<g id="Node000007" class="node">
<title>Node7</title>
<g id="a_Node000007"><a xlink:href="classttg_1_1_debugger.html#afc1422f751270f66c54fd067c5195a64" target="_top" xlink:title=" ">
<polygon fill="white" stroke="#666666" points="330,-19 192,-19 192,0 330,0 330,-19"/>
<text text-anchor="middle" x="261" y="-7" font-family="Times,serif" font-size="10.00">ttg::Debugger::set_exec</text>
</a>
</g>
</g>
<!-- Node1&#45;&gt;Node7 -->
<g id="edge6_Node000001_Node000007" class="edge">
<title>Node1&#45;&gt;Node7</title>
<g id="a_edge6_Node000001_Node000007"><a xlink:title=" ">
<path fill="none" stroke="#63b8ff" d="M97.3,-57.88C118.98,-49.17 152.31,-36.38 182,-27.5 189.13,-25.37 196.69,-23.34 204.18,-21.47"/>
<polygon fill="#63b8ff" stroke="#63b8ff" points="205.07,-24.85 213.96,-19.09 203.42,-18.05 205.07,-24.85"/>
</a>
</g>
</g>
<!-- Node3 -->
<g id="Node000003" class="node">
<title>Node3</title>
<g id="a_Node000003"><a xlink:href="classttg_1_1_debugger.html#a0348965e839512d046e097894042aa6e" target="_top" xlink:title=" ">
<polygon fill="white" stroke="#666666" points="513,-142 376,-142 376,-123 513,-123 513,-142"/>
<text text-anchor="middle" x="444.5" y="-130" font-family="Times,serif" font-size="10.00">ttg::Debugger::set_cmd</text>
</a>
</g>
</g>
<!-- Node2&#45;&gt;Node3 -->
<g id="edge2_Node000002_Node000003" class="edge">
<title>Node2&#45;&gt;Node3</title>
<g id="a_edge2_Node000002_Node000003"><a xlink:title=" ">
<path fill="none" stroke="#63b8ff" d="M340.03,-132.5C348.5,-132.5 357.12,-132.5 365.59,-132.5"/>
<polygon fill="#63b8ff" stroke="#63b8ff" points="365.82,-136 375.82,-132.5 365.82,-129 365.82,-136"/>
</a>
</g>
</g>
<!-- Node5 -->
<g id="Node000005" class="node">
<title>Node5</title>
<g id="a_Node000005"><a xlink:href="classttg_1_1_debugger.html#ad0d04b2f2ce3e296bd25478b0704bb4c" target="_top" xlink:title="The Debugger will be activated when sig is caught.">
<polygon fill="white" stroke="#666666" points="509.5,-99 379.5,-99 379.5,-80 509.5,-80 509.5,-99"/>
<text text-anchor="middle" x="444.5" y="-87" font-family="Times,serif" font-size="10.00">ttg::Debugger::handle</text>
</a>
</g>
</g>
<!-- Node4&#45;&gt;Node5 -->
<g id="edge4_Node000004_Node000005" class="edge">
<title>Node4&#45;&gt;Node5</title>
<g id="a_edge4_Node000004_Node000005"><a xlink:title=" ">
<path fill="none" stroke="#63b8ff" d="M326.25,-89.5C340.11,-89.5 354.89,-89.5 369.11,-89.5"/>
<polygon fill="#63b8ff" stroke="#63b8ff" points="369.34,-93 379.34,-89.5 369.34,-86 369.34,-93"/>
</a>
</g>
</g>
</g>
</svg>
