<?xml version="1.0" encoding="UTF-8" standalone="no"?>
<!DOCTYPE svg PUBLIC "-//W3C//DTD SVG 1.1//EN"
 "http://www.w3.org/Graphics/SVG/1.1/DTD/svg11.dtd">
<!-- Generated by graphviz version 2.43.0 (0)
 -->
<!-- Title: ttg_parsec::TT::static_set_arg Pages: 1 -->
<svg width="277pt" height="82pt"
 viewBox="0.00 0.00 277.00 82.00" xmlns="http://www.w3.org/2000/svg" xmlns:xlink="http://www.w3.org/1999/xlink">
<g id="graph0" class="graph" transform="scale(1 1) rotate(0) translate(4 78)">
<title>ttg_parsec::TT::static_set_arg</title>
<!-- Node1 -->
<g id="Node000001" class="node">
<title>Node1</title>
<g id="a_Node000001"><a xlink:title=" ">
<polygon fill="#999999" stroke="#666666" points="122,-51.5 0,-51.5 0,-21.5 122,-21.5 122,-51.5"/>
<text text-anchor="start" x="8" y="-39.5" font-family="Times,serif" font-size="10.00">ttg_parsec::TT::static</text>
<text text-anchor="middle" x="61" y="-28.5" font-family="Times,serif" font-size="10.00">_set_arg</text>
</a>
</g>
</g>
<!-- Node2 -->
<g id="Node000002" class="node">
<title>Node2</title>
<g id="a_Node000002"><a xlink:href="namespacettg.html#a408d84f3b0f9b79a3278a3eac949b207" target="_top" xlink:title="Aborts the TTG program using the default backend&#39;s ttg_abort method.">
<polygon fill="white" stroke="#666666" points="245.5,-74 181.5,-74 181.5,-55 245.5,-55 245.5,-74"/>
<text text-anchor="middle" x="213.5" y="-62" font-family="Times,serif" font-size="10.00">ttg::abort</text>
</a>
</g>
</g>
<!-- Node1&#45;&gt;Node2 -->
<g id="edge1_Node000001_Node000002" class="edge">
<title>Node1&#45;&gt;Node2</title>
<g id="a_edge1_Node000001_Node000002"><a xlink:title=" ">
<path fill="none" stroke="#63b8ff" d="M122.35,-47.73C138.83,-50.79 156.3,-54.04 171.43,-56.86"/>
<polygon fill="#63b8ff" stroke="#63b8ff" points="171.02,-60.34 181.49,-58.73 172.3,-53.46 171.02,-60.34"/>
</a>
</g>
</g>
<!-- Node3 -->
<g id="Node000003" class="node">
<title>Node3</title>
<g id="a_Node000003"><a xlink:href="classttg__parsec_1_1_t_t.html#aab59a1bf0fcc4f771457b5f05cb42741" target="_top" xlink:title=" ">
<polygon fill="white" stroke="#666666" points="269,-19 158,-19 158,0 269,0 269,-19"/>
<text text-anchor="middle" x="213.5" y="-7" font-family="Times,serif" font-size="10.00">ttg_parsec::TT::get</text>
</a>
</g>
</g>
<!-- Node1&#45;&gt;Node3 -->
<g id="edge2_Node000001_Node000003" class="edge">
<title>Node1&#45;&gt;Node3</title>
<g id="a_edge2_Node000001_Node000003"><a xlink:title=" ">
<path fill="none" stroke="#63b8ff" d="M122.35,-25.67C131.26,-24.07 140.46,-22.42 149.43,-20.82"/>
<polygon fill="#63b8ff" stroke="#63b8ff" points="150.2,-24.23 159.42,-19.02 148.96,-17.34 150.2,-24.23"/>
</a>
</g>
</g>
<!-- Node3&#45;&gt;Node3 -->
<g id="edge3_Node000003_Node000003" class="edge">
<title>Node3&#45;&gt;Node3</title>
<g id="a_edge3_Node000003_Node000003"><a xlink:title=" ">
<path fill="none" stroke="#63b8ff" d="M190.07,-19.08C178.68,-27.73 186.48,-37 213.5,-37 231.23,-37 240.69,-33.01 241.87,-27.82"/>
<polygon fill="#63b8ff" stroke="#63b8ff" points="244.9,-26.06 236.93,-19.08 238.81,-29.51 244.9,-26.06"/>
</a>
</g>
</g>
</g>
</svg>
