<?xml version="1.0" encoding="UTF-8" standalone="no"?>
<!DOCTYPE svg PUBLIC "-//W3C//DTD SVG 1.1//EN"
 "http://www.w3.org/Graphics/SVG/1.1/DTD/svg11.dtd">
<!-- Generated by graphviz version 2.43.0 (0)
 -->
<!-- Title: ttg_parsec::TT::finalize_argstream Pages: 1 -->
<!--zoomable 429 -->

<svg id="main" version="1.1" xmlns="http://www.w3.org/2000/svg" xmlns:xlink="http://www.w3.org/1999/xlink" xml:space="preserve" onload="init(evt)">
<style type="text/css"><![CDATA[
.node, .edge {opacity: 0.7;}
.node.selected, .edge.selected {opacity: 1;}
.edge:hover path { stroke: red; }
.edge:hover polygon { stroke: red; fill: red; }
]]></style>

<defs>
  <circle id="rim" cx="0" cy="0" r="7"/>
  <circle id="rim2" cx="0" cy="0" r="3.5"/>
  <g id="zoomPlus">
    <use xlink:href="#rim" fill="#404040"><set attributeName="fill" to="#808080" begin="zoomplus.mouseover" end="zoomplus.mouseout"/></use>
    <path d="M-4,0h8M0,-4v8" fill="none" stroke="white" stroke-width="1.5" pointer-events="none"/>
  </g>
  <g id="zoomMin">
    <use xlink:href="#rim" fill="#404040"><set attributeName="fill" to="#808080" begin="zoomminus.mouseover" end="zoomminus.mouseout"/></use>
    <path d="M-4,0h8" fill="none" stroke="white" stroke-width="1.5" pointer-events="none"/>
  </g>
  <g id="arrowUp" transform="translate(30 24)">
    <use xlink:href="#rim"/>
    <path pointer-events="none" fill="none" stroke="white" stroke-width="1.5" d="M0,-3.0v7 M-2.5,-0.5L0,-3.0L2.5,-0.5"/>
  </g>
  <g id="arrowRight" transform="rotate(90) translate(36 -43)">
    <use xlink:href="#rim"/>
    <path pointer-events="none" fill="none" stroke="white" stroke-width="1.5" d="M0,-3.0v7 M-2.5,-0.5L0,-3.0L2.5,-0.5"/>
  </g>
  <g id="arrowDown" transform="rotate(180) translate(-30 -48)">
    <use xlink:href="#rim"/>
    <path pointer-events="none" fill="none" stroke="white" stroke-width="1.5" d="M0,-3.0v7 M-2.5,-0.5L0,-3.0L2.5,-0.5"/>
  </g>
  <g id="arrowLeft" transform="rotate(270) translate(-36 17)">
    <use xlink:href="#rim"/>
    <path pointer-events="none" fill="none" stroke="white" stroke-width="1.5" d="M0,-3.0v7 M-2.5,-0.5L0,-3.0L2.5,-0.5"/>
  </g>
  <g id="resetDef">
    <use xlink:href="#rim2" fill="#404040"><set attributeName="fill" to="#808080" begin="reset.mouseover" end="reset.mouseout"/></use>
  </g>
</defs>
<script type="application/ecmascript">
var viewWidth = 1032;
var viewHeight = 429;
var sectionId = 'dynsection-34';
</script>
<script type="application/ecmascript" xlink:href="svg.min.js"/>
<svg id="graph" class="graph">
<g id="viewport">
<title>ttg_parsec::TT::finalize_argstream</title>
<!-- Node1 -->
<g id="Node000001" class="node">
<title>Node1</title>
<g id="a_Node000001"><a xlink:title="finalizes stream for input i">
<polygon fill="#999999" stroke="#666666" points="131,-306.42 0,-306.42 0,-276.42 131,-276.42 131,-306.42"/>
<text text-anchor="start" x="8" y="-294.42" font-family="Times,serif" font-size="10.00">ttg_parsec::TT::finalize</text>
<text text-anchor="middle" x="65.5" y="-283.42" font-family="Times,serif" font-size="10.00">_argstream</text>
</a>
</g>
</g>
<!-- Node2 -->
<g id="Node000002" class="node">
<title>Node2</title>
<g id="a_Node000002"><a xlink:href="classttg__parsec_1_1_t_t.html#aab59a1bf0fcc4f771457b5f05cb42741" target="_top" xlink:title=" ">
<polygon fill="white" stroke="#666666" points="642,-269.92 531,-269.92 531,-250.92 642,-250.92 642,-269.92"/>
<text text-anchor="middle" x="586.5" y="-257.92" font-family="Times,serif" font-size="10.00">ttg_parsec::TT::get</text>
</a>
</g>
</g>
<!-- Node1&#45;&gt;Node2 -->
<g id="edge1_Node000001_Node000002" class="edge">
<title>Node1&#45;&gt;Node2</title>
<g id="a_edge1_Node000001_Node000002"><a xlink:title=" ">
<path fill="none" stroke="#63b8ff" d="M131.24,-305.91C216.23,-322.31 369.35,-342.82 495,-310.42 520.75,-303.78 547.01,-288.08 564.57,-276.03"/>
<polygon fill="#63b8ff" stroke="#63b8ff" points="566.76,-278.76 572.9,-270.13 562.72,-273.05 566.76,-278.76"/>
</a>
</g>
</g>
<!-- Node3 -->
<g id="Node000003" class="node">
<title>Node3</title>
<g id="a_Node000003"><a xlink:href="classttg_1_1_t_t_base.html#a48f582b0eab8579283383f8d4937db09" target="_top" xlink:title=" ">
<polygon fill="white" stroke="#666666" points="328,-376.92 167,-376.92 167,-357.92 328,-357.92 328,-376.92"/>
<text text-anchor="middle" x="247.5" y="-364.92" font-family="Times,serif" font-size="10.00">ttg::TTBase::get_instance_id</text>
</a>
</g>
</g>
<!-- Node1&#45;&gt;Node3 -->
<g id="edge3_Node000001_Node000003" class="edge">
<title>Node1&#45;&gt;Node3</title>
<g id="a_edge3_Node000001_Node000003"><a xlink:title=" ">
<path fill="none" stroke="#63b8ff" d="M92.32,-306.47C112.26,-317.67 140.79,-332.79 167,-343.42 177.43,-347.66 188.9,-351.54 199.8,-354.89"/>
<polygon fill="#63b8ff" stroke="#63b8ff" points="199.02,-358.31 209.6,-357.82 201.02,-351.6 199.02,-358.31"/>
</a>
</g>
</g>
<!-- Node4 -->
<g id="Node000004" class="node">
<title>Node4</title>
<g id="a_Node000004"><a xlink:href="classttg_1_1_t_t_base.html#ade3b1e6b149fe1124f7192aeca5f715c" target="_top" xlink:title="Gets the name of this operation.">
<polygon fill="white" stroke="#666666" points="495,-263.92 364,-263.92 364,-244.92 495,-244.92 495,-263.92"/>
<text text-anchor="middle" x="429.5" y="-251.92" font-family="Times,serif" font-size="10.00">ttg::TTBase::get_name</text>
</a>
</g>
</g>
<!-- Node1&#45;&gt;Node4 -->
<g id="edge4_Node000001_Node000004" class="edge">
<title>Node1&#45;&gt;Node4</title>
<g id="a_edge4_Node000001_Node000004"><a xlink:title=" ">
<path fill="none" stroke="#63b8ff" d="M131.22,-284.81C193.57,-278.44 287.85,-268.8 353.46,-262.09"/>
<polygon fill="#63b8ff" stroke="#63b8ff" points="354.14,-265.54 363.73,-261.04 353.43,-258.58 354.14,-265.54"/>
</a>
</g>
</g>
<!-- Node5 -->
<g id="Node000005" class="node">
<title>Node5</title>
<g id="a_Node000005"><a xlink:href="classttg__parsec_1_1_t_t.html#a0cf122dbfbf60d1092c6beed7bd89597" target="_top" xlink:title=" ">
<polygon fill="white" stroke="#666666" points="489,-300.92 370,-300.92 370,-281.92 489,-281.92 489,-300.92"/>
<text text-anchor="middle" x="429.5" y="-288.92" font-family="Times,serif" font-size="10.00">ttg_parsec::TT::pack</text>
</a>
</g>
</g>
<!-- Node1&#45;&gt;Node5 -->
<g id="edge5_Node000001_Node000005" class="edge">
<title>Node1&#45;&gt;Node5</title>
<g id="a_edge5_Node000001_Node000005"><a xlink:title=" ">
<path fill="none" stroke="#63b8ff" d="M131.22,-291.42C195.5,-291.42 293.72,-291.42 359.47,-291.42"/>
<polygon fill="#63b8ff" stroke="#63b8ff" points="359.73,-294.92 369.73,-291.42 359.73,-287.92 359.73,-294.92"/>
</a>
</g>
</g>
<!-- Node6 -->
<g id="Node000006" class="node">
<title>Node6</title>
<g id="a_Node000006"><a xlink:href="namespacettg.html#aacafa23974f833f3ac9c42ab4fbd7e68" target="_top" xlink:title="atomically prints to std::cerr a sequence of items (separated by ttg::print_separator) followed by st...">
<polygon fill="white" stroke="#666666" points="770,-364.92 678,-364.92 678,-345.92 770,-345.92 770,-364.92"/>
<text text-anchor="middle" x="724" y="-352.92" font-family="Times,serif" font-size="10.00">ttg::print_error</text>
</a>
</g>
</g>
<!-- Node1&#45;&gt;Node6 -->
<g id="edge7_Node000001_Node000006" class="edge">
<title>Node1&#45;&gt;Node6</title>
<g id="a_edge7_Node000001_Node000006"><a xlink:title=" ">
<path fill="none" stroke="#63b8ff" d="M76.66,-306.6C92.73,-329.07 126.4,-370.27 167,-386.42 349.69,-459.1 593.02,-396.74 685.34,-368.03"/>
<polygon fill="#63b8ff" stroke="#63b8ff" points="686.59,-371.3 695.07,-364.95 684.48,-364.63 686.59,-371.3"/>
</a>
</g>
</g>
<!-- Node8 -->
<g id="Node000008" class="node">
<title>Node8</title>
<g id="a_Node000008"><a xlink:href="classttg__parsec_1_1_t_t.html#a80885f0e54f741d7c70ae64179578414" target="_top" xlink:title=" ">
<polygon fill="white" stroke="#666666" points="326.5,-182.92 168.5,-182.92 168.5,-163.92 326.5,-163.92 326.5,-182.92"/>
<text text-anchor="middle" x="247.5" y="-170.92" font-family="Times,serif" font-size="10.00">ttg_parsec::TT::release_task</text>
</a>
</g>
</g>
<!-- Node1&#45;&gt;Node8 -->
<g id="edge9_Node000001_Node000008" class="edge">
<title>Node1&#45;&gt;Node8</title>
<g id="a_edge9_Node000001_Node000008"><a xlink:title=" ">
<path fill="none" stroke="#63b8ff" d="M89.66,-276.24C124.18,-253.61 188.74,-211.29 223.29,-188.64"/>
<polygon fill="#63b8ff" stroke="#63b8ff" points="225.34,-191.48 231.79,-183.07 221.5,-185.62 225.34,-191.48"/>
</a>
</g>
</g>
<!-- Node11 -->
<g id="Node000011" class="node">
<title>Node11</title>
<g id="a_Node000011"><a xlink:href="namespacettg.html#af5e470229c1ddef41b83b6398a5dc583" target="_top" xlink:title=" ">
<polygon fill="white" stroke="#666666" points="755,-91.92 693,-91.92 693,-72.92 755,-72.92 755,-91.92"/>
<text text-anchor="middle" x="724" y="-79.92" font-family="Times,serif" font-size="10.00">ttg::trace</text>
</a>
</g>
</g>
<!-- Node1&#45;&gt;Node11 -->
<g id="edge29_Node000001_Node000011" class="edge">
<title>Node1&#45;&gt;Node11</title>
<g id="a_edge29_Node000001_Node000011"><a xlink:title=" ">
<path fill="none" stroke="#63b8ff" d="M75.2,-276.12C90.97,-249.35 126.4,-193.24 167,-155.42 242.88,-84.75 264.87,-60.84 364,-30.42 482.14,5.82 524.19,11.87 642,-25.42 666.9,-33.31 690.76,-51.9 706.06,-65.72"/>
<polygon fill="#63b8ff" stroke="#63b8ff" points="703.93,-68.52 713.62,-72.81 708.72,-63.41 703.93,-68.52"/>
</a>
</g>
</g>
<!-- Node2&#45;&gt;Node2 -->
<g id="edge2_Node000002_Node000002" class="edge">
<title>Node2&#45;&gt;Node2</title>
<g id="a_edge2_Node000002_Node000002"><a xlink:title=" ">
<path fill="none" stroke="#63b8ff" d="M565.54,-270.01C555.34,-278.66 562.33,-287.92 586.5,-287.92 601.99,-287.92 610.42,-284.12 611.8,-279.11"/>
<polygon fill="#63b8ff" stroke="#63b8ff" points="614.92,-277.53 607.46,-270.01 608.6,-280.54 614.92,-277.53"/>
</a>
</g>
</g>
<!-- Node5&#45;&gt;Node2 -->
<g id="edge6_Node000005_Node000002" class="edge">
<title>Node5&#45;&gt;Node2</title>
<g id="a_edge6_Node000005_Node000002"><a xlink:title=" ">
<path fill="none" stroke="#63b8ff" d="M478.27,-281.87C493.96,-278.73 511.57,-275.21 527.91,-271.94"/>
<polygon fill="#63b8ff" stroke="#63b8ff" points="528.77,-275.34 537.89,-269.95 527.4,-268.48 528.77,-275.34"/>
</a>
</g>
</g>
<!-- Node7 -->
<g id="Node000007" class="node">
<title>Node7</title>
<g id="a_Node000007"><a xlink:href="namespacettg_1_1detail.html#a26e07486d5ef8eb5735a8975991a7693" target="_top" xlink:title=" ">
<polygon fill="white" stroke="#666666" points="1017.5,-188.42 921.5,-188.42 921.5,-158.42 1017.5,-158.42 1017.5,-188.42"/>
<text text-anchor="start" x="929.5" y="-176.42" font-family="Times,serif" font-size="10.00">ttg::detail::print</text>
<text text-anchor="middle" x="969.5" y="-165.42" font-family="Times,serif" font-size="10.00">_helper</text>
</a>
</g>
</g>
<!-- Node6&#45;&gt;Node7 -->
<g id="edge8_Node000006_Node000007" class="edge">
<title>Node6&#45;&gt;Node7</title>
<g id="a_edge8_Node000006_Node000007"><a xlink:title=" ">
<path fill="none" stroke="#63b8ff" d="M737.75,-345.89C775.48,-317.7 887.22,-234.17 940.13,-194.63"/>
<polygon fill="#63b8ff" stroke="#63b8ff" points="942.48,-197.24 948.39,-188.45 938.29,-191.64 942.48,-197.24"/>
</a>
</g>
</g>
<!-- Node8&#45;&gt;Node2 -->
<g id="edge14_Node000008_Node000002" class="edge">
<title>Node8&#45;&gt;Node2</title>
<g id="a_edge14_Node000008_Node000002"><a xlink:title=" ">
<path fill="none" stroke="#63b8ff" d="M286.11,-182.92C334.48,-195.17 421.05,-217.17 495,-236.42 509.7,-240.25 525.72,-244.48 540.15,-248.31"/>
<polygon fill="#63b8ff" stroke="#63b8ff" points="539.28,-251.7 549.84,-250.89 541.08,-244.94 539.28,-251.7"/>
</a>
</g>
</g>
<!-- Node8&#45;&gt;Node4 -->
<g id="edge16_Node000008_Node000004" class="edge">
<title>Node8&#45;&gt;Node4</title>
<g id="a_edge16_Node000008_Node000004"><a xlink:title=" ">
<path fill="none" stroke="#63b8ff" d="M266.63,-183.09C289.15,-194.93 328.89,-215.28 364,-230.42 372.78,-234.21 382.38,-237.98 391.42,-241.37"/>
<polygon fill="#63b8ff" stroke="#63b8ff" points="390.36,-244.7 400.95,-244.87 392.78,-238.13 390.36,-244.7"/>
</a>
</g>
</g>
<!-- Node9 -->
<g id="Node000009" class="node">
<title>Node9</title>
<g id="a_Node000009"><a xlink:href="classttg__parsec_1_1_t_t.html#a30d03bedfc5658375d0cc6bf2116ee12" target="_top" xlink:title=" ">
<polygon fill="white" stroke="#666666" points="491.5,-188.42 367.5,-188.42 367.5,-158.42 491.5,-158.42 491.5,-188.42"/>
<text text-anchor="start" x="375.5" y="-176.42" font-family="Times,serif" font-size="10.00">ttg_parsec::TT::check</text>
<text text-anchor="middle" x="429.5" y="-165.42" font-family="Times,serif" font-size="10.00">_constraints</text>
</a>
</g>
</g>
<!-- Node8&#45;&gt;Node9 -->
<g id="edge10_Node000008_Node000009" class="edge">
<title>Node8&#45;&gt;Node9</title>
<g id="a_edge10_Node000008_Node000009"><a xlink:title=" ">
<path fill="none" stroke="#63b8ff" d="M326.67,-173.42C336.81,-173.42 347.15,-173.42 357.17,-173.42"/>
<polygon fill="#63b8ff" stroke="#63b8ff" points="357.47,-176.92 367.47,-173.42 357.47,-169.92 357.47,-176.92"/>
</a>
</g>
</g>
<!-- Node10 -->
<g id="Node000010" class="node">
<title>Node10</title>
<g id="a_Node000010"><a xlink:href="namespacettg_1_1meta.html#affd90f350d054c6a5b4859644d834172" target="_top" xlink:title=" ">
<polygon fill="white" stroke="#666666" points="629,-161.92 544,-161.92 544,-142.92 629,-142.92 629,-161.92"/>
<text text-anchor="middle" x="586.5" y="-149.92" font-family="Times,serif" font-size="10.00">ttg::meta::get</text>
</a>
</g>
</g>
<!-- Node8&#45;&gt;Node10 -->
<g id="edge15_Node000008_Node000010" class="edge">
<title>Node8&#45;&gt;Node10</title>
<g id="a_edge15_Node000008_Node000010"><a xlink:title=" ">
<path fill="none" stroke="#63b8ff" d="M284.87,-163.87C307.47,-158.44 337.21,-152.18 364,-149.42 421.92,-143.47 436.79,-148.46 495,-149.42 507.4,-149.63 520.76,-149.99 533.3,-150.4"/>
<polygon fill="#63b8ff" stroke="#63b8ff" points="533.49,-153.91 543.6,-150.75 533.73,-146.91 533.49,-153.91"/>
</a>
</g>
</g>
<!-- Node8&#45;&gt;Node11 -->
<g id="edge17_Node000008_Node000011" class="edge">
<title>Node8&#45;&gt;Node11</title>
<g id="a_edge17_Node000008_Node000011"><a xlink:title=" ">
<path fill="none" stroke="#63b8ff" d="M280.66,-163.9C303.72,-157.29 335.6,-148.59 364,-142.42 478.59,-117.53 615.69,-97.2 682.46,-87.9"/>
<polygon fill="#63b8ff" stroke="#63b8ff" points="683.13,-91.34 692.55,-86.5 682.17,-84.4 683.13,-91.34"/>
</a>
</g>
</g>
<!-- Node16 -->
<g id="Node000016" class="node">
<title>Node16</title>
<g id="a_Node000016"><a xlink:href="classttg_1_1_t_t_base.html#a6e857d69adab89ba8841e4af29e0fc73" target="_top" xlink:title=" ">
<polygon fill="white" stroke="#666666" points="488,-58.92 371,-58.92 371,-39.92 488,-39.92 488,-58.92"/>
<text text-anchor="middle" x="429.5" y="-46.92" font-family="Times,serif" font-size="10.00">ttg::TTBase::tracing</text>
</a>
</g>
</g>
<!-- Node8&#45;&gt;Node16 -->
<g id="edge25_Node000008_Node000016" class="edge">
<title>Node8&#45;&gt;Node16</title>
<g id="a_edge25_Node000008_Node000016"><a xlink:title=" ">
<path fill="none" stroke="#63b8ff" d="M258.31,-163.8C277.4,-145.42 321.42,-104.85 364,-78.42 373.33,-72.63 384.01,-67.35 393.96,-62.93"/>
<polygon fill="#63b8ff" stroke="#63b8ff" points="395.4,-66.12 403.21,-58.96 392.64,-59.69 395.4,-66.12"/>
</a>
</g>
</g>
<!-- Node9&#45;&gt;Node2 -->
<g id="edge11_Node000009_Node000002" class="edge">
<title>Node9&#45;&gt;Node2</title>
<g id="a_edge11_Node000009_Node000002"><a xlink:title=" ">
<path fill="none" stroke="#63b8ff" d="M466.44,-188.46C475.87,-192.7 485.93,-197.51 495,-202.42 519.04,-215.44 545.19,-232.55 563.18,-244.8"/>
<polygon fill="#63b8ff" stroke="#63b8ff" points="561.56,-247.94 571.78,-250.72 565.53,-242.17 561.56,-247.94"/>
</a>
</g>
</g>
<!-- Node9&#45;&gt;Node10 -->
<g id="edge12_Node000009_Node000010" class="edge">
<title>Node9&#45;&gt;Node10</title>
<g id="a_edge12_Node000009_Node000010"><a xlink:title=" ">
<path fill="none" stroke="#63b8ff" d="M491.76,-165.12C505.65,-163.24 520.27,-161.26 533.72,-159.44"/>
<polygon fill="#63b8ff" stroke="#63b8ff" points="534.31,-162.89 543.75,-158.08 533.37,-155.95 534.31,-162.89"/>
</a>
</g>
</g>
<!-- Node10&#45;&gt;Node10 -->
<g id="edge13_Node000010_Node000010" class="edge">
<title>Node10&#45;&gt;Node10</title>
<g id="a_edge13_Node000010_Node000010"><a xlink:title=" ">
<path fill="none" stroke="#63b8ff" d="M565.54,-162.01C555.34,-170.66 562.33,-179.92 586.5,-179.92 601.99,-179.92 610.42,-176.12 611.8,-171.11"/>
<polygon fill="#63b8ff" stroke="#63b8ff" points="614.92,-169.53 607.46,-162.01 608.6,-172.54 614.92,-169.53"/>
</a>
</g>
</g>
<!-- Node12 -->
<g id="Node000012" class="node">
<title>Node12</title>
<g id="a_Node000012"><a xlink:href="namespacettg.html#aacacfe8bc9582308a405c4370650a9d4" target="_top" xlink:title="atomically prints to std::clog a sequence of items (separated by ttg::print_separator) followed by st...">
<polygon fill="white" stroke="#666666" points="869,-177.92 816,-177.92 816,-158.92 869,-158.92 869,-177.92"/>
<text text-anchor="middle" x="842.5" y="-165.92" font-family="Times,serif" font-size="10.00">ttg::log</text>
</a>
</g>
</g>
<!-- Node11&#45;&gt;Node12 -->
<g id="edge18_Node000011_Node000012" class="edge">
<title>Node11&#45;&gt;Node12</title>
<g id="a_edge18_Node000011_Node000012"><a xlink:title=" ">
<path fill="none" stroke="#63b8ff" d="M737.91,-91.96C757.86,-106.68 796.36,-135.1 820.39,-152.84"/>
<polygon fill="#63b8ff" stroke="#63b8ff" points="818.41,-155.73 828.53,-158.85 822.56,-150.09 818.41,-155.73"/>
</a>
</g>
</g>
<!-- Node13 -->
<g id="Node000013" class="node">
<title>Node13</title>
<g id="a_Node000013"><a xlink:href="namespacettg.html#afbdd9c742be395e0746fdbc26c7d55cc" target="_top" xlink:title="returns whether tracing was enabled at configure time">
<polygon fill="white" stroke="#666666" points="1024,-53.92 915,-53.92 915,-34.92 1024,-34.92 1024,-53.92"/>
<text text-anchor="middle" x="969.5" y="-41.92" font-family="Times,serif" font-size="10.00">ttg::trace_enabled</text>
</a>
</g>
</g>
<!-- Node11&#45;&gt;Node13 -->
<g id="edge20_Node000011_Node000013" class="edge">
<title>Node11&#45;&gt;Node13</title>
<g id="a_edge20_Node000011_Node000013"><a xlink:title=" ">
<path fill="none" stroke="#63b8ff" d="M755.25,-74.98C770.42,-71.43 789.11,-67.33 806,-64.42 838.47,-58.83 874.84,-54.2 904.93,-50.81"/>
<polygon fill="#63b8ff" stroke="#63b8ff" points="905.33,-54.29 914.88,-49.71 904.56,-47.33 905.33,-54.29"/>
</a>
</g>
</g>
<!-- Node14 -->
<g id="Node000014" class="node">
<title>Node14</title>
<g id="a_Node000014"><a xlink:href="namespacettg.html#abfb8501d408a1ed918cc2a540865a2d8" target="_top" xlink:title="returns whether tracing is enabled">
<polygon fill="white" stroke="#666666" points="879,-91.92 806,-91.92 806,-72.92 879,-72.92 879,-91.92"/>
<text text-anchor="middle" x="842.5" y="-79.92" font-family="Times,serif" font-size="10.00">ttg::tracing</text>
</a>
</g>
</g>
<!-- Node11&#45;&gt;Node14 -->
<g id="edge21_Node000011_Node000014" class="edge">
<title>Node11&#45;&gt;Node14</title>
<g id="a_edge21_Node000011_Node000014"><a xlink:title=" ">
<path fill="none" stroke="#63b8ff" d="M755,-82.42C767.36,-82.42 781.95,-82.42 795.6,-82.42"/>
<polygon fill="#63b8ff" stroke="#63b8ff" points="795.8,-85.92 805.8,-82.42 795.8,-78.92 795.8,-85.92"/>
</a>
</g>
</g>
<!-- Node12&#45;&gt;Node7 -->
<g id="edge19_Node000012_Node000007" class="edge">
<title>Node12&#45;&gt;Node7</title>
<g id="a_edge19_Node000012_Node000007"><a xlink:title=" ">
<path fill="none" stroke="#63b8ff" d="M869.1,-169.45C881.34,-169.94 896.53,-170.54 911.32,-171.14"/>
<polygon fill="#63b8ff" stroke="#63b8ff" points="911.32,-174.64 921.46,-171.54 911.6,-167.64 911.32,-174.64"/>
</a>
</g>
</g>
<!-- Node14&#45;&gt;Node13 -->
<g id="edge24_Node000014_Node000013" class="edge">
<title>Node14&#45;&gt;Node13</title>
<g id="a_edge24_Node000014_Node000013"><a xlink:title=" ">
<path fill="none" stroke="#63b8ff" d="M875.04,-72.83C890.88,-68.02 910.27,-62.12 927.28,-56.96"/>
<polygon fill="#63b8ff" stroke="#63b8ff" points="928.42,-60.27 936.97,-54.01 926.38,-53.57 928.42,-60.27"/>
</a>
</g>
</g>
<!-- Node15 -->
<g id="Node000015" class="node">
<title>Node15</title>
<g id="a_Node000015"><a xlink:href="namespacettg_1_1detail.html#a95356c3874e7ec9268a40feb4fc1519f" target="_top" xlink:title=" ">
<polygon fill="white" stroke="#666666" points="1018,-129.42 921,-129.42 921,-99.42 1018,-99.42 1018,-129.42"/>
<text text-anchor="start" x="929" y="-117.42" font-family="Times,serif" font-size="10.00">ttg::detail::trace</text>
<text text-anchor="middle" x="969.5" y="-106.42" font-family="Times,serif" font-size="10.00">_accessor</text>
</a>
</g>
</g>
<!-- Node14&#45;&gt;Node15 -->
<g id="edge22_Node000014_Node000015" class="edge">
<title>Node14&#45;&gt;Node15</title>
<g id="a_edge22_Node000014_Node000015"><a xlink:title=" ">
<path fill="none" stroke="#63b8ff" d="M879.32,-91.59C889.15,-94.11 900.07,-96.91 910.79,-99.65"/>
<polygon fill="#63b8ff" stroke="#63b8ff" points="910,-103.06 920.56,-102.15 911.74,-96.28 910,-103.06"/>
</a>
</g>
</g>
<!-- Node15&#45;&gt;Node11 -->
<g id="edge23_Node000015_Node000011" class="edge">
<title>Node15&#45;&gt;Node11</title>
<g id="a_edge23_Node000015_Node000011"><a xlink:title=" ">
<path fill="none" stroke="#63b8ff" d="M920.99,-112.51C888.47,-110.74 844.45,-107.44 806,-101.42 792.6,-99.33 778.13,-96.21 765.18,-93.11"/>
<polygon fill="#63b8ff" stroke="#63b8ff" points="765.72,-89.64 755.17,-90.64 764.05,-96.43 765.72,-89.64"/>
</a>
</g>
</g>
<!-- Node16&#45;&gt;Node13 -->
<g id="edge26_Node000016_Node000013" class="edge">
<title>Node16&#45;&gt;Node13</title>
<g id="a_edge26_Node000016_Node000013"><a xlink:title=" ">
<path fill="none" stroke="#63b8ff" d="M462.29,-39.81C481.89,-34.39 507.66,-28.17 531,-25.42 663.23,-9.85 819.29,-24.48 904.69,-35.27"/>
<polygon fill="#63b8ff" stroke="#63b8ff" points="904.39,-38.76 914.75,-36.57 905.28,-31.82 904.39,-38.76"/>
</a>
</g>
</g>
<!-- Node17 -->
<g id="Node000017" class="node">
<title>Node17</title>
<g id="a_Node000017"><a xlink:href="namespacettg_1_1detail.html#a07090477ad763f0b0e3089df7cf8e1eb" target="_top" xlink:title=" ">
<polygon fill="white" stroke="#666666" points="640.5,-64.42 532.5,-64.42 532.5,-34.42 640.5,-34.42 640.5,-64.42"/>
<text text-anchor="start" x="540.5" y="-52.42" font-family="Times,serif" font-size="10.00">ttg::detail::tt_base</text>
<text text-anchor="middle" x="586.5" y="-41.42" font-family="Times,serif" font-size="10.00">_trace_accessor</text>
</a>
</g>
</g>
<!-- Node16&#45;&gt;Node17 -->
<g id="edge27_Node000016_Node000017" class="edge">
<title>Node16&#45;&gt;Node17</title>
<g id="a_edge27_Node000016_Node000017"><a xlink:title=" ">
<path fill="none" stroke="#63b8ff" d="M488.22,-49.42C499.29,-49.42 510.94,-49.42 522.17,-49.42"/>
<polygon fill="#63b8ff" stroke="#63b8ff" points="522.35,-52.92 532.35,-49.42 522.35,-45.92 522.35,-52.92"/>
</a>
</g>
</g>
<!-- Node17&#45;&gt;Node11 -->
<g id="edge28_Node000017_Node000011" class="edge">
<title>Node17&#45;&gt;Node11</title>
<g id="a_edge28_Node000017_Node000011"><a xlink:title=" ">
<path fill="none" stroke="#63b8ff" d="M640.66,-62.37C654.73,-65.8 669.67,-69.44 682.91,-72.66"/>
<polygon fill="#63b8ff" stroke="#63b8ff" points="682.11,-76.07 692.66,-75.03 683.77,-69.27 682.11,-76.07"/>
</a>
</g>
</g>
</g>
</svg>

<g id="navigator" transform="translate(0 0)" fill="#404254">
  <rect fill="#f2f5e9" fill-opacity="0.5" stroke="#606060" stroke-width=".5" x="0" y="0" width="60" height="60"/>
  <use id="zoomplus" xlink:href="#zoomPlus" x="17" y="9" onmousedown="handleZoom(evt,'in')"/>
  <use id="zoomminus" xlink:href="#zoomMin" x="42" y="9" onmousedown="handleZoom(evt,'out')"/>
  <use id="reset" xlink:href="#resetDef" x="30" y="36" onmousedown="handleReset()"/>
   <use id="arrowup" xlink:href="#arrowUp" x="0" y="0" onmousedown="handlePan(0,-1)"/>
  <use id="arrowright" xlink:href="#arrowRight" x="0" y="0" onmousedown="handlePan(1,0)"/>
  <use id="arrowdown" xlink:href="#arrowDown" x="0" y="0" onmousedown="handlePan(0,1)"/>
  <use id="arrowleft" xlink:href="#arrowLeft" x="0" y="0" onmousedown="handlePan(-1,0)"/>
</g>
<svg viewBox="0 0 15 15" width="100%" height="30px" preserveAspectRatio="xMaxYMin meet">
 <g id="arrow_out" transform="scale(0.3 0.3)">
  <a xlink:href="classttg__parsec_1_1_t_t_affca736b8369f0dd02c251dcbdb3974f_cgraph_org.svg" target="_base">
   <rect id="button" ry="5" rx="5" y="6" x="6" height="38" width="38"
        fill="#f2f5e9" fill-opacity="0.5" stroke="#606060" stroke-width="1.0"/>
   <path id="arrow"
     d="M 11.500037,31.436501 C 11.940474,20.09759 22.043105,11.32322 32.158766,21.979434 L 37.068811,17.246167 C 37.068811,17.246167 37.088388,32 37.088388,32 L 22.160133,31.978069 C 22.160133,31.978069 26.997745,27.140456 26.997745,27.140456 C 18.528582,18.264221 13.291696,25.230495 11.500037,31.436501 z"
     style="fill:#404040;"/>
  </a>
 </g>
</svg>

<style type='text/css'>
<![CDATA[
[data-mouse-over-selected='false'] { opacity: 0.7; }
[data-mouse-over-selected='true']  { opacity: 1.0; }
]]>
</style>
<script type="application/ecmascript"><![CDATA[
document.addEventListener('DOMContentLoaded', (event) => {
  highlightEdges();
  highlightAdjacentNodes();
});
]]></script>
</svg>
