<?xml version="1.0" encoding="UTF-8" standalone="no"?>
<!DOCTYPE svg PUBLIC "-//W3C//DTD SVG 1.1//EN"
 "http://www.w3.org/Graphics/SVG/1.1/DTD/svg11.dtd">
<!-- Generated by graphviz version 2.43.0 (0)
 -->
<!-- Title: ttg_parsec::TT::set_arg_impl Pages: 1 -->
<svg width="777pt" height="594pt"
 viewBox="0.00 0.00 777.00 593.50" xmlns="http://www.w3.org/2000/svg" xmlns:xlink="http://www.w3.org/1999/xlink">
<g id="graph0" class="graph" transform="scale(1 1) rotate(0) translate(4 589.5)">
<title>ttg_parsec::TT::set_arg_impl</title>
<!-- Node1 -->
<g id="Node000001" class="node">
<title>Node1</title>
<g id="a_Node000001"><a xlink:title=" ">
<polygon fill="#999999" stroke="#666666" points="110,-391.5 0,-391.5 0,-361.5 110,-361.5 110,-391.5"/>
<text text-anchor="start" x="8" y="-379.5" font-family="Times,serif" font-size="10.00">ttg_parsec::TT::set</text>
<text text-anchor="middle" x="55" y="-368.5" font-family="Times,serif" font-size="10.00">_arg_impl</text>
</a>
</g>
</g>
<!-- Node2 -->
<g id="Node000002" class="node">
<title>Node2</title>
<g id="a_Node000002"><a xlink:href="classttg__parsec_1_1_t_t.html#a620e641c7024e14437f199e475f92db6" target="_top" xlink:title=" ">
<polygon fill="white" stroke="#666666" points="283,-518.5 170,-518.5 170,-488.5 283,-488.5 283,-518.5"/>
<text text-anchor="start" x="178" y="-506.5" font-family="Times,serif" font-size="10.00">ttg_parsec::TT::can</text>
<text text-anchor="middle" x="226.5" y="-495.5" font-family="Times,serif" font-size="10.00">_inline_data</text>
</a>
</g>
</g>
<!-- Node1&#45;&gt;Node2 -->
<g id="edge1_Node000001_Node000002" class="edge">
<title>Node1&#45;&gt;Node2</title>
<g id="a_edge1_Node000001_Node000002"><a xlink:title=" ">
<path fill="none" stroke="#63b8ff" d="M71.54,-391.67C88.93,-408.28 118.32,-435.24 146,-455.5 159.55,-465.42 175.24,-475.22 189.08,-483.34"/>
<polygon fill="#63b8ff" stroke="#63b8ff" points="187.46,-486.45 197.87,-488.43 190.97,-480.39 187.46,-486.45"/>
</a>
</g>
</g>
<!-- Node4 -->
<g id="Node000004" class="node">
<title>Node4</title>
<g id="a_Node000004"><a xlink:href="classttg__parsec_1_1_t_t.html#aab59a1bf0fcc4f771457b5f05cb42741" target="_top" xlink:title=" ">
<polygon fill="white" stroke="#666666" points="624,-391 513,-391 513,-372 624,-372 624,-391"/>
<text text-anchor="middle" x="568.5" y="-379" font-family="Times,serif" font-size="10.00">ttg_parsec::TT::get</text>
</a>
</g>
</g>
<!-- Node1&#45;&gt;Node4 -->
<g id="edge28_Node000001_Node000004" class="edge">
<title>Node1&#45;&gt;Node4</title>
<g id="a_edge28_Node000001_Node000004"><a xlink:title=" ">
<path fill="none" stroke="#63b8ff" d="M78.14,-391.59C95.67,-402.58 121.26,-416.54 146,-422.5 289.02,-456.93 333.2,-453.55 477,-422.5 500.47,-417.43 525.18,-405.75 542.84,-396.15"/>
<polygon fill="#63b8ff" stroke="#63b8ff" points="544.86,-399.03 551.87,-391.08 541.44,-392.92 544.86,-399.03"/>
</a>
</g>
</g>
<!-- Node5 -->
<g id="Node000005" class="node">
<title>Node5</title>
<g id="a_Node000005"><a xlink:href="namespacettg__parsec_1_1detail.html#a4daca8ffc2e91c825340381688737ff0" target="_top" xlink:title=" ">
<polygon fill="white" stroke="#666666" points="474,-585.5 346,-585.5 346,-555.5 474,-555.5 474,-585.5"/>
<text text-anchor="start" x="354" y="-573.5" font-family="Times,serif" font-size="10.00">ttg_parsec::detail</text>
<text text-anchor="middle" x="410" y="-562.5" font-family="Times,serif" font-size="10.00">::foreach_parsec_data</text>
</a>
</g>
</g>
<!-- Node1&#45;&gt;Node5 -->
<g id="edge27_Node000001_Node000005" class="edge">
<title>Node1&#45;&gt;Node5</title>
<g id="a_edge27_Node000001_Node000005"><a xlink:title=" ">
<path fill="none" stroke="#63b8ff" d="M60.37,-391.95C70.07,-423.21 96.55,-493.84 146,-527.5 201.72,-565.43 279.19,-574.11 335.62,-574.56"/>
<polygon fill="#63b8ff" stroke="#63b8ff" points="335.9,-578.06 345.9,-574.55 335.89,-571.06 335.9,-578.06"/>
</a>
</g>
</g>
<!-- Node7 -->
<g id="Node000007" class="node">
<title>Node7</title>
<g id="a_Node000007"><a xlink:href="namespacettg_1_1meta.html#affd90f350d054c6a5b4859644d834172" target="_top" xlink:title=" ">
<polygon fill="white" stroke="#666666" points="757,-241 672,-241 672,-222 757,-222 757,-241"/>
<text text-anchor="middle" x="714.5" y="-229" font-family="Times,serif" font-size="10.00">ttg::meta::get</text>
</a>
</g>
</g>
<!-- Node1&#45;&gt;Node7 -->
<g id="edge29_Node000001_Node000007" class="edge">
<title>Node1&#45;&gt;Node7</title>
<g id="a_edge29_Node000001_Node000007"><a xlink:title=" ">
<path fill="none" stroke="#63b8ff" d="M59.29,-361.35C67.46,-327.64 92.03,-246.33 146,-207.5 314.56,-86.22 589.79,-180.7 682.16,-218.05"/>
<polygon fill="#63b8ff" stroke="#63b8ff" points="680.94,-221.33 691.52,-221.89 683.59,-214.85 680.94,-221.33"/>
</a>
</g>
</g>
<!-- Node9 -->
<g id="Node000009" class="node">
<title>Node9</title>
<g id="a_Node000009"><a xlink:href="namespacettg__parsec_1_1detail.html#abb5f8a2eb005a7dc66279a6decd9e8c5" target="_top" xlink:title=" ">
<polygon fill="white" stroke="#666666" points="292.5,-413.5 160.5,-413.5 160.5,-383.5 292.5,-383.5 292.5,-413.5"/>
<text text-anchor="start" x="168.5" y="-401.5" font-family="Times,serif" font-size="10.00">ttg_parsec::detail</text>
<text text-anchor="middle" x="226.5" y="-390.5" font-family="Times,serif" font-size="10.00">::create_new_datacopy</text>
</a>
</g>
</g>
<!-- Node1&#45;&gt;Node9 -->
<g id="edge11_Node000001_Node000009" class="edge">
<title>Node1&#45;&gt;Node9</title>
<g id="a_edge11_Node000001_Node000009"><a xlink:title=" ">
<path fill="none" stroke="#63b8ff" d="M110.1,-383.52C122.84,-385.17 136.64,-386.97 150.13,-388.72"/>
<polygon fill="#63b8ff" stroke="#63b8ff" points="149.99,-392.23 160.36,-390.04 150.89,-385.29 149.99,-392.23"/>
</a>
</g>
</g>
<!-- Node11 -->
<g id="Node000011" class="node">
<title>Node11</title>
<g id="a_Node000011"><a xlink:href="classttg__parsec_1_1_t_t.html#aa119b2a05f23cc3827bb1914b64c33f1" target="_top" xlink:title=" ">
<polygon fill="white" stroke="#666666" points="289.5,-284.5 163.5,-284.5 163.5,-254.5 289.5,-254.5 289.5,-284.5"/>
<text text-anchor="start" x="171.5" y="-272.5" font-family="Times,serif" font-size="10.00">ttg_parsec::TT::create</text>
<text text-anchor="middle" x="226.5" y="-261.5" font-family="Times,serif" font-size="10.00">_new_task</text>
</a>
</g>
</g>
<!-- Node1&#45;&gt;Node11 -->
<g id="edge13_Node000001_Node000011" class="edge">
<title>Node1&#45;&gt;Node11</title>
<g id="a_edge13_Node000001_Node000011"><a xlink:title=" ">
<path fill="none" stroke="#63b8ff" d="M79.93,-361.4C109.45,-342.76 159.8,-310.97 192.86,-290.1"/>
<polygon fill="#63b8ff" stroke="#63b8ff" points="195.11,-292.82 201.7,-284.53 191.37,-286.91 195.11,-292.82"/>
</a>
</g>
</g>
<!-- Node20 -->
<g id="Node000020" class="node">
<title>Node20</title>
<g id="a_Node000020"><a xlink:href="classttg_1_1_t_t_base.html#a48f582b0eab8579283383f8d4937db09" target="_top" xlink:title=" ">
<polygon fill="white" stroke="#666666" points="307,-236 146,-236 146,-217 307,-217 307,-236"/>
<text text-anchor="middle" x="226.5" y="-224" font-family="Times,serif" font-size="10.00">ttg::TTBase::get_instance_id</text>
</a>
</g>
</g>
<!-- Node1&#45;&gt;Node20 -->
<g id="edge30_Node000001_Node000020" class="edge">
<title>Node1&#45;&gt;Node20</title>
<g id="a_edge30_Node000001_Node000020"><a xlink:title=" ">
<path fill="none" stroke="#63b8ff" d="M62.06,-361.22C73.84,-333.57 102.55,-275.33 146,-245.5 148.9,-243.51 151.97,-241.73 155.17,-240.13"/>
<polygon fill="#63b8ff" stroke="#63b8ff" points="156.67,-243.3 164.46,-236.11 153.89,-236.88 156.67,-243.3"/>
</a>
</g>
</g>
<!-- Node21 -->
<g id="Node000021" class="node">
<title>Node21</title>
<g id="a_Node000021"><a xlink:href="classttg__parsec_1_1_t_t.html#a0cf122dbfbf60d1092c6beed7bd89597" target="_top" xlink:title=" ">
<polygon fill="white" stroke="#666666" points="286,-365 167,-365 167,-346 286,-346 286,-365"/>
<text text-anchor="middle" x="226.5" y="-353" font-family="Times,serif" font-size="10.00">ttg_parsec::TT::pack</text>
</a>
</g>
</g>
<!-- Node1&#45;&gt;Node21 -->
<g id="edge31_Node000001_Node000021" class="edge">
<title>Node1&#45;&gt;Node21</title>
<g id="a_edge31_Node000001_Node000021"><a xlink:title=" ">
<path fill="none" stroke="#63b8ff" d="M110.1,-369.8C124.96,-367.96 141.27,-365.94 156.84,-364.01"/>
<polygon fill="#63b8ff" stroke="#63b8ff" points="157.44,-367.46 166.94,-362.76 156.58,-360.51 157.44,-367.46"/>
</a>
</g>
</g>
<!-- Node3 -->
<g id="Node000003" class="node">
<title>Node3</title>
<g id="a_Node000003"><a xlink:href="classttg__parsec_1_1_t_t.html#a89c25faa20dde0b3d613c87d1970cde2" target="_top" xlink:title=" ">
<polygon fill="white" stroke="#666666" points="477,-537.5 343,-537.5 343,-507.5 477,-507.5 477,-537.5"/>
<text text-anchor="start" x="351" y="-525.5" font-family="Times,serif" font-size="10.00">ttg_parsec::TT::derived</text>
<text text-anchor="middle" x="410" y="-514.5" font-family="Times,serif" font-size="10.00">_has_device_op</text>
</a>
</g>
</g>
<!-- Node2&#45;&gt;Node3 -->
<g id="edge2_Node000002_Node000003" class="edge">
<title>Node2&#45;&gt;Node3</title>
<g id="a_edge2_Node000002_Node000003"><a xlink:title=" ">
<path fill="none" stroke="#63b8ff" d="M283.44,-509.36C298.96,-510.98 316.09,-512.77 332.57,-514.5"/>
<polygon fill="#63b8ff" stroke="#63b8ff" points="332.42,-518 342.73,-515.56 333.15,-511.04 332.42,-518"/>
</a>
</g>
</g>
<!-- Node2&#45;&gt;Node4 -->
<g id="edge10_Node000002_Node000004" class="edge">
<title>Node2&#45;&gt;Node4</title>
<g id="a_edge10_Node000002_Node000004"><a xlink:title=" ">
<path fill="none" stroke="#63b8ff" d="M283.44,-500.6C335.66,-496.11 414.68,-484.67 477,-455.5 506.54,-441.67 534.66,-416.05 551.49,-398.88"/>
<polygon fill="#63b8ff" stroke="#63b8ff" points="554.43,-400.87 558.81,-391.22 549.37,-396.04 554.43,-400.87"/>
</a>
</g>
</g>
<!-- Node2&#45;&gt;Node5 -->
<g id="edge5_Node000002_Node000005" class="edge">
<title>Node2&#45;&gt;Node5</title>
<g id="a_edge5_Node000002_Node000005"><a xlink:title=" ">
<path fill="none" stroke="#63b8ff" d="M267.56,-518.5C289.77,-526.8 317.9,-537.26 343,-546.5 347.81,-548.27 352.82,-550.11 357.84,-551.94"/>
<polygon fill="#63b8ff" stroke="#63b8ff" points="356.84,-555.3 367.44,-555.44 359.24,-548.73 356.84,-555.3"/>
</a>
</g>
</g>
<!-- Node3&#45;&gt;Node4 -->
<g id="edge3_Node000003_Node000004" class="edge">
<title>Node3&#45;&gt;Node4</title>
<g id="a_edge3_Node000003_Node000004"><a xlink:title=" ">
<path fill="none" stroke="#63b8ff" d="M454.02,-507.44C462.09,-503.58 470.14,-498.94 477,-493.5 497.89,-476.93 496.35,-466.33 513,-445.5 525.86,-429.42 541.1,-411.62 552.19,-398.89"/>
<polygon fill="#63b8ff" stroke="#63b8ff" points="554.86,-401.15 558.81,-391.32 549.59,-396.54 554.86,-401.15"/>
</a>
</g>
</g>
<!-- Node4&#45;&gt;Node4 -->
<g id="edge4_Node000004_Node000004" class="edge">
<title>Node4&#45;&gt;Node4</title>
<g id="a_edge4_Node000004_Node000004"><a xlink:title=" ">
<path fill="none" stroke="#63b8ff" d="M546,-391.08C535.05,-399.73 542.55,-409 568.5,-409 585.12,-409 594.18,-405.2 595.66,-400.19"/>
<polygon fill="#63b8ff" stroke="#63b8ff" points="598.67,-398.39 591,-391.08 592.44,-401.58 598.67,-398.39"/>
</a>
</g>
</g>
<!-- Node6 -->
<g id="Node000006" class="node">
<title>Node6</title>
<g id="a_Node000006"><a xlink:href="namespacettg_1_1detail.html#ad277a8a8c9831a5cbdc938a5a1504f62" target="_top" xlink:title=" ">
<polygon fill="white" stroke="#666666" points="619.5,-484.5 517.5,-484.5 517.5,-454.5 619.5,-454.5 619.5,-484.5"/>
<text text-anchor="start" x="525.5" y="-472.5" font-family="Times,serif" font-size="10.00">ttg::detail::buffer</text>
<text text-anchor="middle" x="568.5" y="-461.5" font-family="Times,serif" font-size="10.00">_apply</text>
</a>
</g>
</g>
<!-- Node5&#45;&gt;Node6 -->
<g id="edge6_Node000005_Node000006" class="edge">
<title>Node5&#45;&gt;Node6</title>
<g id="a_edge6_Node000005_Node000006"><a xlink:title=" ">
<path fill="none" stroke="#63b8ff" d="M458.8,-555.44C465.08,-552.79 471.31,-549.81 477,-546.5 502.82,-531.48 528.39,-508.81 545.73,-491.95"/>
<polygon fill="#63b8ff" stroke="#63b8ff" points="548.45,-494.19 553.09,-484.67 543.52,-489.22 548.45,-494.19"/>
</a>
</g>
</g>
<!-- Node8 -->
<g id="Node000008" class="node">
<title>Node8</title>
<g id="a_Node000008"><a xlink:href="namespacettg__parsec_1_1detail.html#ad37e220fbc05d0a62b08a94964480f0a" target="_top" xlink:title=" ">
<polygon fill="white" stroke="#666666" points="621.5,-585.5 515.5,-585.5 515.5,-555.5 621.5,-555.5 621.5,-585.5"/>
<text text-anchor="start" x="523.5" y="-573.5" font-family="Times,serif" font-size="10.00">ttg_parsec::detail</text>
<text text-anchor="middle" x="568.5" y="-562.5" font-family="Times,serif" font-size="10.00">::get_parsec_data</text>
</a>
</g>
</g>
<!-- Node5&#45;&gt;Node8 -->
<g id="edge9_Node000005_Node000008" class="edge">
<title>Node5&#45;&gt;Node8</title>
<g id="a_edge9_Node000005_Node000008"><a xlink:title=" ">
<path fill="none" stroke="#63b8ff" d="M474.2,-570.5C484.38,-570.5 494.92,-570.5 505.08,-570.5"/>
<polygon fill="#63b8ff" stroke="#63b8ff" points="505.09,-574 515.09,-570.5 505.09,-567 505.09,-574"/>
</a>
</g>
</g>
<!-- Node6&#45;&gt;Node7 -->
<g id="edge7_Node000006_Node000007" class="edge">
<title>Node6&#45;&gt;Node7</title>
<g id="a_edge7_Node000006_Node000007"><a xlink:title=" ">
<path fill="none" stroke="#63b8ff" d="M588.87,-454.47C600.14,-445.03 614.04,-432.09 624,-418.5 664.68,-362.99 694.53,-286.07 707.02,-250.7"/>
<polygon fill="#63b8ff" stroke="#63b8ff" points="710.37,-251.72 710.34,-241.12 703.76,-249.43 710.37,-251.72"/>
</a>
</g>
</g>
<!-- Node7&#45;&gt;Node7 -->
<g id="edge8_Node000007_Node000007" class="edge">
<title>Node7&#45;&gt;Node7</title>
<g id="a_edge8_Node000007_Node000007"><a xlink:title=" ">
<path fill="none" stroke="#63b8ff" d="M692,-241.08C681.05,-249.73 688.55,-259 714.5,-259 731.12,-259 740.18,-255.2 741.66,-250.19"/>
<polygon fill="#63b8ff" stroke="#63b8ff" points="744.67,-248.39 737,-241.08 738.44,-251.58 744.67,-248.39"/>
</a>
</g>
</g>
<!-- Node10 -->
<g id="Node000010" class="node">
<title>Node10</title>
<g id="a_Node000010"><a xlink:href="namespacettg.html#a78c09561304884c05c8a8f25006b0ee6" target="_top" xlink:title="Accesses the default backend&#39;s default execution context.">
<polygon fill="white" stroke="#666666" points="474,-413.5 346,-413.5 346,-383.5 474,-383.5 474,-413.5"/>
<text text-anchor="start" x="354" y="-401.5" font-family="Times,serif" font-size="10.00">ttg::default_execution</text>
<text text-anchor="middle" x="410" y="-390.5" font-family="Times,serif" font-size="10.00">_context</text>
</a>
</g>
</g>
<!-- Node9&#45;&gt;Node10 -->
<g id="edge12_Node000009_Node000010" class="edge">
<title>Node9&#45;&gt;Node10</title>
<g id="a_edge12_Node000009_Node000010"><a xlink:title=" ">
<path fill="none" stroke="#63b8ff" d="M292.51,-398.5C306.51,-398.5 321.4,-398.5 335.68,-398.5"/>
<polygon fill="#63b8ff" stroke="#63b8ff" points="335.96,-402 345.96,-398.5 335.96,-395 335.96,-402"/>
</a>
</g>
</g>
<!-- Node11&#45;&gt;Node4 -->
<g id="edge14_Node000011_Node000004" class="edge">
<title>Node11&#45;&gt;Node4</title>
<g id="a_edge14_Node000011_Node000004"><a xlink:title=" ">
<path fill="none" stroke="#63b8ff" d="M289.52,-262.41C341.96,-259.1 417.78,-260.8 477,-288.5 512.18,-304.95 541.01,-341.41 556.1,-363.48"/>
<polygon fill="#63b8ff" stroke="#63b8ff" points="553.27,-365.54 561.7,-371.95 559.11,-361.68 553.27,-365.54"/>
</a>
</g>
</g>
<!-- Node11&#45;&gt;Node7 -->
<g id="edge15_Node000011_Node000007" class="edge">
<title>Node11&#45;&gt;Node7</title>
<g id="a_edge15_Node000011_Node000007"><a xlink:title=" ">
<path fill="none" stroke="#63b8ff" d="M289.5,-262.67C306.81,-260.87 325.63,-259.01 343,-257.5 456.58,-247.62 590,-238.98 661.67,-234.59"/>
<polygon fill="#63b8ff" stroke="#63b8ff" points="662.02,-238.07 671.79,-233.97 661.6,-231.09 662.02,-238.07"/>
</a>
</g>
</g>
<!-- Node12 -->
<g id="Node000012" class="node">
<title>Node12</title>
<g id="a_Node000012"><a xlink:href="classttg_1_1_t_t_base.html#ade3b1e6b149fe1124f7192aeca5f715c" target="_top" xlink:title="Gets the name of this operation.">
<polygon fill="white" stroke="#666666" points="475.5,-203 344.5,-203 344.5,-184 475.5,-184 475.5,-203"/>
<text text-anchor="middle" x="410" y="-191" font-family="Times,serif" font-size="10.00">ttg::TTBase::get_name</text>
</a>
</g>
</g>
<!-- Node11&#45;&gt;Node12 -->
<g id="edge16_Node000011_Node000012" class="edge">
<title>Node11&#45;&gt;Node12</title>
<g id="a_edge16_Node000011_Node000012"><a xlink:title=" ">
<path fill="none" stroke="#63b8ff" d="M283.63,-254.49C291.65,-251.59 299.66,-248.26 307,-244.5 324.79,-235.37 325.41,-227.02 343,-217.5 350.63,-213.37 359.12,-209.68 367.4,-206.51"/>
<polygon fill="#63b8ff" stroke="#63b8ff" points="368.76,-209.74 376.95,-203.02 366.36,-203.16 368.76,-209.74"/>
</a>
</g>
</g>
<!-- Node13 -->
<g id="Node000013" class="node">
<title>Node13</title>
<g id="a_Node000013"><a xlink:href="classttg__parsec_1_1_t_t.html#af277074081de727ff816c84638b7d038" target="_top" xlink:title=" ">
<polygon fill="white" stroke="#666666" points="465.5,-327.5 354.5,-327.5 354.5,-297.5 465.5,-297.5 465.5,-327.5"/>
<text text-anchor="start" x="362.5" y="-315.5" font-family="Times,serif" font-size="10.00">ttg_parsec::TT::get</text>
<text text-anchor="middle" x="410" y="-304.5" font-family="Times,serif" font-size="10.00">_task_mempool</text>
</a>
</g>
</g>
<!-- Node11&#45;&gt;Node13 -->
<g id="edge17_Node000011_Node000013" class="edge">
<title>Node11&#45;&gt;Node13</title>
<g id="a_edge17_Node000011_Node000013"><a xlink:title=" ">
<path fill="none" stroke="#63b8ff" d="M289.71,-284.24C307.46,-288.44 326.83,-293.03 344.7,-297.27"/>
<polygon fill="#63b8ff" stroke="#63b8ff" points="343.92,-300.68 354.46,-299.58 345.53,-293.87 343.92,-300.68"/>
</a>
</g>
</g>
<!-- Node14 -->
<g id="Node000014" class="node">
<title>Node14</title>
<g id="a_Node000014"><a xlink:href="namespacettg.html#af5e470229c1ddef41b83b6398a5dc583" target="_top" xlink:title=" ">
<polygon fill="white" stroke="#666666" points="441,-89 379,-89 379,-70 441,-70 441,-89"/>
<text text-anchor="middle" x="410" y="-77" font-family="Times,serif" font-size="10.00">ttg::trace</text>
</a>
</g>
</g>
<!-- Node11&#45;&gt;Node14 -->
<g id="edge19_Node000011_Node000014" class="edge">
<title>Node11&#45;&gt;Node14</title>
<g id="a_edge19_Node000011_Node000014"><a xlink:title=" ">
<path fill="none" stroke="#63b8ff" d="M289.55,-255.48C295.83,-252.5 301.8,-248.88 307,-244.5 333.75,-221.96 324.98,-204.49 343,-174.5 359.71,-146.69 381.62,-116.14 395.5,-97.39"/>
<polygon fill="#63b8ff" stroke="#63b8ff" points="398.44,-99.31 401.62,-89.2 392.83,-95.12 398.44,-99.31"/>
</a>
</g>
</g>
<!-- Node13&#45;&gt;Node4 -->
<g id="edge18_Node000013_Node000004" class="edge">
<title>Node13&#45;&gt;Node4</title>
<g id="a_edge18_Node000013_Node000004"><a xlink:title=" ">
<path fill="none" stroke="#63b8ff" d="M445.26,-327.54C455.48,-332.02 466.69,-336.96 477,-341.5 496.89,-350.27 519.24,-360.14 536.75,-367.89"/>
<polygon fill="#63b8ff" stroke="#63b8ff" points="535.37,-371.1 545.93,-371.95 538.2,-364.7 535.37,-371.1"/>
</a>
</g>
</g>
<!-- Node15 -->
<g id="Node000015" class="node">
<title>Node15</title>
<g id="a_Node000015"><a xlink:href="namespacettg.html#aacacfe8bc9582308a405c4370650a9d4" target="_top" xlink:title="atomically prints to std::clog a sequence of items (separated by ttg::print_separator) followed by st...">
<polygon fill="white" stroke="#666666" points="595,-127 542,-127 542,-108 595,-108 595,-127"/>
<text text-anchor="middle" x="568.5" y="-115" font-family="Times,serif" font-size="10.00">ttg::log</text>
</a>
</g>
</g>
<!-- Node14&#45;&gt;Node15 -->
<g id="edge20_Node000014_Node000015" class="edge">
<title>Node14&#45;&gt;Node15</title>
<g id="a_edge20_Node000014_Node000015"><a xlink:title=" ">
<path fill="none" stroke="#63b8ff" d="M441.17,-86.83C467.01,-93.1 504.26,-102.14 531.61,-108.79"/>
<polygon fill="#63b8ff" stroke="#63b8ff" points="531.03,-112.25 541.57,-111.2 532.68,-105.44 531.03,-112.25"/>
</a>
</g>
</g>
<!-- Node17 -->
<g id="Node000017" class="node">
<title>Node17</title>
<g id="a_Node000017"><a xlink:href="namespacettg.html#afbdd9c742be395e0746fdbc26c7d55cc" target="_top" xlink:title="returns whether tracing was enabled at configure time">
<polygon fill="white" stroke="#666666" points="769,-19 660,-19 660,0 769,0 769,-19"/>
<text text-anchor="middle" x="714.5" y="-7" font-family="Times,serif" font-size="10.00">ttg::trace_enabled</text>
</a>
</g>
</g>
<!-- Node14&#45;&gt;Node17 -->
<g id="edge22_Node000014_Node000017" class="edge">
<title>Node14&#45;&gt;Node17</title>
<g id="a_edge22_Node000014_Node000017"><a xlink:title=" ">
<path fill="none" stroke="#63b8ff" d="M423.68,-69.92C442.18,-56.55 478.18,-32.78 513,-22.5 557.32,-9.41 609.45,-6.39 649.45,-6.52"/>
<polygon fill="#63b8ff" stroke="#63b8ff" points="649.58,-10.02 659.61,-6.62 649.65,-3.02 649.58,-10.02"/>
</a>
</g>
</g>
<!-- Node18 -->
<g id="Node000018" class="node">
<title>Node18</title>
<g id="a_Node000018"><a xlink:href="namespacettg.html#abfb8501d408a1ed918cc2a540865a2d8" target="_top" xlink:title="returns whether tracing is enabled">
<polygon fill="white" stroke="#666666" points="605,-51 532,-51 532,-32 605,-32 605,-51"/>
<text text-anchor="middle" x="568.5" y="-39" font-family="Times,serif" font-size="10.00">ttg::tracing</text>
</a>
</g>
</g>
<!-- Node14&#45;&gt;Node18 -->
<g id="edge23_Node000014_Node000018" class="edge">
<title>Node14&#45;&gt;Node18</title>
<g id="a_edge23_Node000014_Node000018"><a xlink:title=" ">
<path fill="none" stroke="#63b8ff" d="M441.17,-72.17C464.07,-66.61 495.93,-58.88 521.93,-52.56"/>
<polygon fill="#63b8ff" stroke="#63b8ff" points="523.05,-55.9 531.94,-50.13 521.4,-49.09 523.05,-55.9"/>
</a>
</g>
</g>
<!-- Node16 -->
<g id="Node000016" class="node">
<title>Node16</title>
<g id="a_Node000016"><a xlink:href="namespacettg_1_1detail.html#a26e07486d5ef8eb5735a8975991a7693" target="_top" xlink:title=" ">
<polygon fill="white" stroke="#666666" points="762.5,-132.5 666.5,-132.5 666.5,-102.5 762.5,-102.5 762.5,-132.5"/>
<text text-anchor="start" x="674.5" y="-120.5" font-family="Times,serif" font-size="10.00">ttg::detail::print</text>
<text text-anchor="middle" x="714.5" y="-109.5" font-family="Times,serif" font-size="10.00">_helper</text>
</a>
</g>
</g>
<!-- Node15&#45;&gt;Node16 -->
<g id="edge21_Node000015_Node000016" class="edge">
<title>Node15&#45;&gt;Node16</title>
<g id="a_edge21_Node000015_Node000016"><a xlink:title=" ">
<path fill="none" stroke="#63b8ff" d="M595.24,-117.5C612.21,-117.5 635.11,-117.5 656.24,-117.5"/>
<polygon fill="#63b8ff" stroke="#63b8ff" points="656.44,-121 666.44,-117.5 656.44,-114 656.44,-121"/>
</a>
</g>
</g>
<!-- Node18&#45;&gt;Node17 -->
<g id="edge26_Node000018_Node000017" class="edge">
<title>Node18&#45;&gt;Node17</title>
<g id="a_edge26_Node000018_Node000017"><a xlink:title=" ">
<path fill="none" stroke="#63b8ff" d="M605.1,-33.59C621.9,-29.86 642.29,-25.32 660.83,-21.2"/>
<polygon fill="#63b8ff" stroke="#63b8ff" points="661.62,-24.61 670.62,-19.03 660.1,-17.78 661.62,-24.61"/>
</a>
</g>
</g>
<!-- Node19 -->
<g id="Node000019" class="node">
<title>Node19</title>
<g id="a_Node000019"><a xlink:href="namespacettg_1_1detail.html#a95356c3874e7ec9268a40feb4fc1519f" target="_top" xlink:title=" ">
<polygon fill="white" stroke="#666666" points="763,-78.5 666,-78.5 666,-48.5 763,-48.5 763,-78.5"/>
<text text-anchor="start" x="674" y="-66.5" font-family="Times,serif" font-size="10.00">ttg::detail::trace</text>
<text text-anchor="middle" x="714.5" y="-55.5" font-family="Times,serif" font-size="10.00">_accessor</text>
</a>
</g>
</g>
<!-- Node18&#45;&gt;Node19 -->
<g id="edge24_Node000018_Node000019" class="edge">
<title>Node18&#45;&gt;Node19</title>
<g id="a_edge24_Node000018_Node000019"><a xlink:title=" ">
<path fill="none" stroke="#63b8ff" d="M605.1,-46.94C620.41,-49.28 638.71,-52.07 655.88,-54.7"/>
<polygon fill="#63b8ff" stroke="#63b8ff" points="655.4,-58.16 665.82,-56.22 656.46,-51.25 655.4,-58.16"/>
</a>
</g>
</g>
<!-- Node19&#45;&gt;Node14 -->
<g id="edge25_Node000019_Node000014" class="edge">
<title>Node19&#45;&gt;Node14</title>
<g id="a_edge25_Node000019_Node000014"><a xlink:title=" ">
<path fill="none" stroke="#63b8ff" d="M665.73,-66.03C606.55,-69.16 506.75,-74.44 451.26,-77.37"/>
<polygon fill="#63b8ff" stroke="#63b8ff" points="450.91,-73.88 441.11,-77.91 451.28,-80.87 450.91,-73.88"/>
</a>
</g>
</g>
<!-- Node21&#45;&gt;Node4 -->
<g id="edge32_Node000021_Node000004" class="edge">
<title>Node21&#45;&gt;Node4</title>
<g id="a_edge32_Node000021_Node000004"><a xlink:title=" ">
<path fill="none" stroke="#63b8ff" d="M286.23,-359.95C336.79,-363.79 411.7,-369.49 477,-374.5 485.36,-375.14 494.15,-375.82 502.83,-376.49"/>
<polygon fill="#63b8ff" stroke="#63b8ff" points="502.7,-379.99 512.94,-377.27 503.24,-373.01 502.7,-379.99"/>
</a>
</g>
</g>
</g>
</svg>
