<?xml version="1.0" encoding="UTF-8" standalone="no"?>
<!DOCTYPE svg PUBLIC "-//W3C//DTD SVG 1.1//EN"
 "http://www.w3.org/Graphics/SVG/1.1/DTD/svg11.dtd">
<!-- Generated by graphviz version 2.43.0 (0)
 -->
<!-- Title: ttg::Dot::operator() Pages: 1 -->
<svg width="450pt" height="283pt"
 viewBox="0.00 0.00 450.00 283.00" xmlns="http://www.w3.org/2000/svg" xmlns:xlink="http://www.w3.org/1999/xlink">
<g id="graph0" class="graph" transform="scale(1 1) rotate(0) translate(4 279)">
<title>ttg::Dot::operator()</title>
<!-- Node1 -->
<g id="Node000001" class="node">
<title>Node1</title>
<g id="a_Node000001"><a xlink:title=" ">
<polygon fill="#999999" stroke="#666666" points="112,-147 0,-147 0,-128 112,-128 112,-147"/>
<text text-anchor="middle" x="56" y="-135" font-family="Times,serif" font-size="10.00">ttg::Dot::operator()</text>
</a>
</g>
</g>
<!-- Node2 -->
<g id="Node000002" class="node">
<title>Node2</title>
<g id="a_Node000002"><a xlink:href="classttg_1_1detail_1_1_traverse.html#a22d05df03933ab48f7fd671213b8b9c1" target="_top" xlink:title=" ">
<polygon fill="white" stroke="#666666" points="264,-218.5 148,-218.5 148,-188.5 264,-188.5 264,-218.5"/>
<text text-anchor="start" x="156" y="-206.5" font-family="Times,serif" font-size="10.00">ttg::detail::Traverse</text>
<text text-anchor="middle" x="206" y="-195.5" font-family="Times,serif" font-size="10.00">::reset</text>
</a>
</g>
</g>
<!-- Node1&#45;&gt;Node2 -->
<g id="edge1_Node000001_Node000002" class="edge">
<title>Node1&#45;&gt;Node2</title>
<g id="a_edge1_Node000001_Node000002"><a xlink:title=" ">
<path fill="none" stroke="#63b8ff" d="M77.15,-147.04C95.53,-155.68 123.48,-168.68 148,-179.5 151.65,-181.11 155.45,-182.76 159.27,-184.4"/>
<polygon fill="#63b8ff" stroke="#63b8ff" points="158.17,-187.74 168.74,-188.45 160.91,-181.3 158.17,-187.74"/>
</a>
</g>
</g>
<!-- Node3 -->
<g id="Node000003" class="node">
<title>Node3</title>
<g id="a_Node000003"><a xlink:href="classttg_1_1detail_1_1_traverse.html#a8f22396f983cd2b43113903985294410" target="_top" xlink:title=" ">
<polygon fill="white" stroke="#666666" points="264,-152.5 148,-152.5 148,-122.5 264,-122.5 264,-152.5"/>
<text text-anchor="start" x="156" y="-140.5" font-family="Times,serif" font-size="10.00">ttg::detail::Traverse</text>
<text text-anchor="middle" x="206" y="-129.5" font-family="Times,serif" font-size="10.00">::traverse</text>
</a>
</g>
</g>
<!-- Node1&#45;&gt;Node3 -->
<g id="edge2_Node000001_Node000003" class="edge">
<title>Node1&#45;&gt;Node3</title>
<g id="a_edge2_Node000001_Node000003"><a xlink:title=" ">
<path fill="none" stroke="#63b8ff" d="M112.11,-137.5C120.5,-137.5 129.23,-137.5 137.84,-137.5"/>
<polygon fill="#63b8ff" stroke="#63b8ff" points="137.87,-141 147.87,-137.5 137.87,-134 137.87,-141"/>
</a>
</g>
</g>
<!-- Node10 -->
<g id="Node000010" class="node">
<title>Node10</title>
<g id="a_Node000010"><a xlink:href="classttg_1_1_dot.html#a6e2c9e3186444ee3f28d18a28f0c65ea" target="_top" xlink:title=" ">
<polygon fill="white" stroke="#666666" points="263,-56 149,-56 149,-37 263,-37 263,-56"/>
<text text-anchor="middle" x="206" y="-44" font-family="Times,serif" font-size="10.00">ttg::Dot::tree_down</text>
</a>
</g>
</g>
<!-- Node1&#45;&gt;Node10 -->
<g id="edge10_Node000001_Node000010" class="edge">
<title>Node1&#45;&gt;Node10</title>
<g id="a_edge10_Node000001_Node000010"><a xlink:title=" ">
<path fill="none" stroke="#63b8ff" d="M72.56,-127.93C98.25,-112.14 149.75,-80.47 180.41,-61.62"/>
<polygon fill="#63b8ff" stroke="#63b8ff" points="182.52,-64.43 189.2,-56.21 178.85,-58.47 182.52,-64.43"/>
</a>
</g>
</g>
<!-- Node3&#45;&gt;Node3 -->
<g id="edge8_Node000003_Node000003" class="edge">
<title>Node3&#45;&gt;Node3</title>
<g id="a_edge8_Node000003_Node000003"><a xlink:title=" ">
<path fill="none" stroke="#63b8ff" d="M179.63,-152.78C173.77,-161.91 182.56,-170.5 206,-170.5 219.92,-170.5 228.67,-167.47 232.26,-163.1"/>
<polygon fill="#63b8ff" stroke="#63b8ff" points="235.76,-162.81 232.37,-152.78 228.76,-162.74 235.76,-162.81"/>
</a>
</g>
</g>
<!-- Node4 -->
<g id="Node000004" class="node">
<title>Node4</title>
<g id="a_Node000004"><a xlink:href="classttg_1_1_t_t_base.html#ac290f7b019ed37ec5f89777e853d3f27" target="_top" xlink:title="Returns the vector of input terminals.">
<polygon fill="white" stroke="#666666" points="438.5,-275 303.5,-275 303.5,-256 438.5,-256 438.5,-275"/>
<text text-anchor="middle" x="371" y="-263" font-family="Times,serif" font-size="10.00">ttg::TTBase::get_inputs</text>
</a>
</g>
</g>
<!-- Node3&#45;&gt;Node4 -->
<g id="edge3_Node000003_Node000004" class="edge">
<title>Node3&#45;&gt;Node4</title>
<g id="a_edge3_Node000003_Node000004"><a xlink:title=" ">
<path fill="none" stroke="#63b8ff" d="M232.28,-152.52C242.98,-159.73 255.01,-169.07 264,-179.5 286.32,-205.4 273.15,-226.32 300,-247.5 301.63,-248.78 303.33,-249.97 305.1,-251.08"/>
<polygon fill="#63b8ff" stroke="#63b8ff" points="303.93,-254.42 314.41,-255.95 307.17,-248.21 303.93,-254.42"/>
</a>
</g>
</g>
<!-- Node5 -->
<g id="Node000005" class="node">
<title>Node5</title>
<g id="a_Node000005"><a xlink:href="classttg_1_1_t_t_base.html#ade3b1e6b149fe1124f7192aeca5f715c" target="_top" xlink:title="Gets the name of this operation.">
<polygon fill="white" stroke="#666666" points="436.5,-56 305.5,-56 305.5,-37 436.5,-37 436.5,-56"/>
<text text-anchor="middle" x="371" y="-44" font-family="Times,serif" font-size="10.00">ttg::TTBase::get_name</text>
</a>
</g>
</g>
<!-- Node3&#45;&gt;Node5 -->
<g id="edge4_Node000003_Node000005" class="edge">
<title>Node3&#45;&gt;Node5</title>
<g id="a_edge4_Node000003_Node000005"><a xlink:title=" ">
<path fill="none" stroke="#63b8ff" d="M222.47,-122.37C239.92,-106.09 269.84,-80.52 300,-65.5 304.67,-63.17 309.66,-61.1 314.75,-59.27"/>
<polygon fill="#63b8ff" stroke="#63b8ff" points="316.2,-62.48 324.6,-56.02 314,-55.83 316.2,-62.48"/>
</a>
</g>
</g>
<!-- Node6 -->
<g id="Node000006" class="node">
<title>Node6</title>
<g id="a_Node000006"><a xlink:href="classttg_1_1_t_t_base.html#a5158da66b2aa6b7af14998e7aac0fe29" target="_top" xlink:title="Returns the vector of output terminals.">
<polygon fill="white" stroke="#666666" points="442,-238 300,-238 300,-219 442,-219 442,-238"/>
<text text-anchor="middle" x="371" y="-226" font-family="Times,serif" font-size="10.00">ttg::TTBase::get_outputs</text>
</a>
</g>
</g>
<!-- Node3&#45;&gt;Node6 -->
<g id="edge5_Node000003_Node000006" class="edge">
<title>Node3&#45;&gt;Node6</title>
<g id="a_edge5_Node000003_Node000006"><a xlink:title=" ">
<path fill="none" stroke="#63b8ff" d="M228.07,-152.57C238.92,-160.44 252.29,-170.32 264,-179.5 280.39,-192.35 281.53,-199.88 300,-209.5 304.49,-211.84 309.3,-213.91 314.22,-215.74"/>
<polygon fill="#63b8ff" stroke="#63b8ff" points="313.15,-219.08 323.74,-218.98 315.4,-212.45 313.15,-219.08"/>
</a>
</g>
</g>
<!-- Node7 -->
<g id="Node000007" class="node">
<title>Node7</title>
<g id="a_Node000007"><a xlink:href="classttg_1_1detail_1_1_traverse.html#a6aa44d45713f8fecf27bd4c91f1be475" target="_top" xlink:title=" ">
<polygon fill="white" stroke="#666666" points="429,-200.5 313,-200.5 313,-170.5 429,-170.5 429,-200.5"/>
<text text-anchor="start" x="321" y="-188.5" font-family="Times,serif" font-size="10.00">ttg::detail::Traverse</text>
<text text-anchor="middle" x="371" y="-177.5" font-family="Times,serif" font-size="10.00">::infunc</text>
</a>
</g>
</g>
<!-- Node3&#45;&gt;Node7 -->
<g id="edge6_Node000003_Node000007" class="edge">
<title>Node3&#45;&gt;Node7</title>
<g id="a_edge6_Node000003_Node000007"><a xlink:title=" ">
<path fill="none" stroke="#63b8ff" d="M258.13,-152.56C274.36,-157.34 292.47,-162.67 309.31,-167.63"/>
<polygon fill="#63b8ff" stroke="#63b8ff" points="308.47,-171.03 319.05,-170.5 310.45,-164.32 308.47,-171.03"/>
</a>
</g>
</g>
<!-- Node8 -->
<g id="Node000008" class="node">
<title>Node8</title>
<g id="a_Node000008"><a xlink:href="classttg_1_1detail_1_1_traverse.html#a9c047df6c224aa7c87d9b72d15efc4c6" target="_top" xlink:title=" ">
<polygon fill="white" stroke="#666666" points="429,-152.5 313,-152.5 313,-122.5 429,-122.5 429,-152.5"/>
<text text-anchor="start" x="321" y="-140.5" font-family="Times,serif" font-size="10.00">ttg::detail::Traverse</text>
<text text-anchor="middle" x="371" y="-129.5" font-family="Times,serif" font-size="10.00">::outfunc</text>
</a>
</g>
</g>
<!-- Node3&#45;&gt;Node8 -->
<g id="edge7_Node000003_Node000008" class="edge">
<title>Node3&#45;&gt;Node8</title>
<g id="a_edge7_Node000003_Node000008"><a xlink:title=" ">
<path fill="none" stroke="#63b8ff" d="M264.01,-137.5C276.47,-137.5 289.77,-137.5 302.59,-137.5"/>
<polygon fill="#63b8ff" stroke="#63b8ff" points="302.75,-141 312.75,-137.5 302.75,-134 302.75,-141"/>
</a>
</g>
</g>
<!-- Node9 -->
<g id="Node000009" class="node">
<title>Node9</title>
<g id="a_Node000009"><a xlink:href="classttg_1_1detail_1_1_traverse.html#a5da2d82d0eb6f9216c6e23ef48c76ff0" target="_top" xlink:title=" ">
<polygon fill="white" stroke="#666666" points="429,-104.5 313,-104.5 313,-74.5 429,-74.5 429,-104.5"/>
<text text-anchor="start" x="321" y="-92.5" font-family="Times,serif" font-size="10.00">ttg::detail::Traverse</text>
<text text-anchor="middle" x="371" y="-81.5" font-family="Times,serif" font-size="10.00">::ttfunc</text>
</a>
</g>
</g>
<!-- Node3&#45;&gt;Node9 -->
<g id="edge9_Node000003_Node000009" class="edge">
<title>Node3&#45;&gt;Node9</title>
<g id="a_edge9_Node000003_Node000009"><a xlink:title=" ">
<path fill="none" stroke="#63b8ff" d="M258.13,-122.44C274.36,-117.66 292.47,-112.33 309.31,-107.37"/>
<polygon fill="#63b8ff" stroke="#63b8ff" points="310.45,-110.68 319.05,-104.5 308.47,-103.97 310.45,-110.68"/>
</a>
</g>
</g>
<!-- Node10&#45;&gt;Node5 -->
<g id="edge11_Node000010_Node000005" class="edge">
<title>Node10&#45;&gt;Node5</title>
<g id="a_edge11_Node000010_Node000005"><a xlink:title=" ">
<path fill="none" stroke="#63b8ff" d="M263.1,-46.5C273.42,-46.5 284.36,-46.5 295.13,-46.5"/>
<polygon fill="#63b8ff" stroke="#63b8ff" points="295.4,-50 305.4,-46.5 295.4,-43 295.4,-50"/>
</a>
</g>
</g>
<!-- Node10&#45;&gt;Node10 -->
<g id="edge13_Node000010_Node000010" class="edge">
<title>Node10&#45;&gt;Node10</title>
<g id="a_edge13_Node000010_Node000010"><a xlink:title=" ">
<path fill="none" stroke="#63b8ff" d="M182.88,-56.08C171.63,-64.73 179.34,-74 206,-74 223.5,-74 232.83,-70.01 234,-64.82"/>
<polygon fill="#63b8ff" stroke="#63b8ff" points="237.05,-63.11 229.12,-56.08 230.94,-66.52 237.05,-63.11"/>
</a>
</g>
</g>
<!-- Node11 -->
<g id="Node000011" class="node">
<title>Node11</title>
<g id="a_Node000011"><a xlink:href="classttg_1_1_t_t_base.html#aa5e66ccbaacb885f49c041b9d999ef30" target="_top" xlink:title=" ">
<polygon fill="white" stroke="#666666" points="425.5,-19 316.5,-19 316.5,0 425.5,0 425.5,-19"/>
<text text-anchor="middle" x="371" y="-7" font-family="Times,serif" font-size="10.00">ttg::TTBase::is_ttg</text>
</a>
</g>
</g>
<!-- Node10&#45;&gt;Node11 -->
<g id="edge12_Node000010_Node000011" class="edge">
<title>Node10&#45;&gt;Node11</title>
<g id="a_edge12_Node000010_Node000011"><a xlink:title=" ">
<path fill="none" stroke="#63b8ff" d="M248.98,-36.97C270,-32.2 295.65,-26.38 317.92,-21.32"/>
<polygon fill="#63b8ff" stroke="#63b8ff" points="318.91,-24.69 327.88,-19.06 317.36,-17.86 318.91,-24.69"/>
</a>
</g>
</g>
</g>
</svg>
