<?xml version="1.0" encoding="UTF-8" standalone="no"?>
<!DOCTYPE svg PUBLIC "-//W3C//DTD SVG 1.1//EN"
 "http://www.w3.org/Graphics/SVG/1.1/DTD/svg11.dtd">
<!-- Generated by graphviz version 2.43.0 (0)
 -->
<!-- Title: ttg::Out::connect Pages: 1 -->
<svg width="512pt" height="312pt"
 viewBox="0.00 0.00 512.00 312.00" xmlns="http://www.w3.org/2000/svg" xmlns:xlink="http://www.w3.org/1999/xlink">
<g id="graph0" class="graph" transform="scale(1 1) rotate(0) translate(4 308)">
<title>ttg::Out::connect</title>
<!-- Node1 -->
<g id="Node000001" class="node">
<title>Node1</title>
<g id="a_Node000001"><a xlink:title=" ">
<polygon fill="#999999" stroke="#666666" points="101,-178.5 0,-178.5 0,-159.5 101,-159.5 101,-178.5"/>
<text text-anchor="middle" x="50.5" y="-166.5" font-family="Times,serif" font-size="10.00">ttg::Out::connect</text>
</a>
</g>
</g>
<!-- Node2 -->
<g id="Node000002" class="node">
<title>Node2</title>
<g id="a_Node000002"><a xlink:href="classttg_1_1_terminal_base.html#a40df40809acfc616d60c9377bf6cfa61" target="_top" xlink:title=" ">
<polygon fill="white" stroke="#666666" points="250,-304 137,-304 137,-274 250,-274 250,-304"/>
<text text-anchor="start" x="145" y="-292" font-family="Times,serif" font-size="10.00">ttg::TerminalBase::</text>
<text text-anchor="middle" x="193.5" y="-281" font-family="Times,serif" font-size="10.00">connect_base</text>
</a>
</g>
</g>
<!-- Node1&#45;&gt;Node2 -->
<g id="edge1_Node000001_Node000002" class="edge">
<title>Node1&#45;&gt;Node2</title>
<g id="a_edge1_Node000001_Node000002"><a xlink:title=" ">
<path fill="none" stroke="#63b8ff" d="M57.94,-178.7C70.9,-197.59 101.9,-239.64 137,-265 138.87,-266.35 140.82,-267.64 142.83,-268.88"/>
<polygon fill="#63b8ff" stroke="#63b8ff" points="141.51,-272.15 151.95,-273.95 144.91,-266.03 141.51,-272.15"/>
</a>
</g>
</g>
<!-- Node3 -->
<g id="Node000003" class="node">
<title>Node3</title>
<g id="a_Node000003"><a xlink:href="classttg_1_1_terminal_base.html#ab19aac249a137dbb8199e5d87dfefd5c" target="_top" xlink:title=" ">
<polygon fill="white" stroke="#666666" points="250,-256 137,-256 137,-226 250,-226 250,-256"/>
<text text-anchor="start" x="145" y="-244" font-family="Times,serif" font-size="10.00">ttg::TerminalBase::</text>
<text text-anchor="middle" x="193.5" y="-233" font-family="Times,serif" font-size="10.00">connect_pull</text>
</a>
</g>
</g>
<!-- Node1&#45;&gt;Node3 -->
<g id="edge2_Node000001_Node000003" class="edge">
<title>Node1&#45;&gt;Node3</title>
<g id="a_edge2_Node000001_Node000003"><a xlink:title=" ">
<path fill="none" stroke="#63b8ff" d="M67.31,-178.53C84.27,-188.59 112.14,-204.69 137,-217 140.15,-218.56 143.43,-220.13 146.75,-221.66"/>
<polygon fill="#63b8ff" stroke="#63b8ff" points="145.58,-224.98 156.13,-225.91 148.46,-218.6 145.58,-224.98"/>
</a>
</g>
</g>
<!-- Node4 -->
<g id="Node000004" class="node">
<title>Node4</title>
<g id="a_Node000004"><a xlink:href="classttg_1_1_terminal_base.html#afb14b11c29459fc8aa5a2cb4297b5c2e" target="_top" xlink:title="Returns name of terminal.">
<polygon fill="white" stroke="#666666" points="250,-208 137,-208 137,-178 250,-178 250,-208"/>
<text text-anchor="start" x="145" y="-196" font-family="Times,serif" font-size="10.00">ttg::TerminalBase::</text>
<text text-anchor="middle" x="193.5" y="-185" font-family="Times,serif" font-size="10.00">get_name</text>
</a>
</g>
</g>
<!-- Node1&#45;&gt;Node4 -->
<g id="edge3_Node000001_Node000004" class="edge">
<title>Node1&#45;&gt;Node4</title>
<g id="a_edge3_Node000001_Node000004"><a xlink:title=" ">
<path fill="none" stroke="#63b8ff" d="M101.21,-177.46C109.53,-178.88 118.28,-180.37 126.92,-181.84"/>
<polygon fill="#63b8ff" stroke="#63b8ff" points="126.55,-185.32 136.99,-183.55 127.72,-178.42 126.55,-185.32"/>
</a>
</g>
</g>
<!-- Node5 -->
<g id="Node000005" class="node">
<title>Node5</title>
<g id="a_Node000005"><a xlink:href="classttg_1_1_terminal_base.html#a57202041203e7ed427c3f2fe28d39e7b" target="_top" xlink:title="Returns the terminal type.">
<polygon fill="white" stroke="#666666" points="250,-160 137,-160 137,-130 250,-130 250,-160"/>
<text text-anchor="start" x="145" y="-148" font-family="Times,serif" font-size="10.00">ttg::TerminalBase::</text>
<text text-anchor="middle" x="193.5" y="-137" font-family="Times,serif" font-size="10.00">get_type</text>
</a>
</g>
</g>
<!-- Node1&#45;&gt;Node5 -->
<g id="edge4_Node000001_Node000005" class="edge">
<title>Node1&#45;&gt;Node5</title>
<g id="a_edge4_Node000001_Node000005"><a xlink:title=" ">
<path fill="none" stroke="#63b8ff" d="M101.21,-160.54C109.53,-159.12 118.28,-157.63 126.92,-156.16"/>
<polygon fill="#63b8ff" stroke="#63b8ff" points="127.72,-159.58 136.99,-154.45 126.55,-152.68 127.72,-159.58"/>
</a>
</g>
</g>
<!-- Node6 -->
<g id="Node000006" class="node">
<title>Node6</title>
<g id="a_Node000006"><a xlink:href="namespacettg.html#ac0ad1dd3b87329e4acf9774df6dc8473" target="_top" xlink:title=" ">
<polygon fill="white" stroke="#666666" points="223.5,-111.5 163.5,-111.5 163.5,-92.5 223.5,-92.5 223.5,-111.5"/>
<text text-anchor="middle" x="193.5" y="-99.5" font-family="Times,serif" font-size="10.00">ttg::rank</text>
</a>
</g>
</g>
<!-- Node1&#45;&gt;Node6 -->
<g id="edge5_Node000001_Node000006" class="edge">
<title>Node1&#45;&gt;Node6</title>
<g id="a_edge5_Node000001_Node000006"><a xlink:title=" ">
<path fill="none" stroke="#63b8ff" d="M66.51,-159.46C83.25,-149.1 111.36,-132.47 137,-121 142.36,-118.6 148.12,-116.32 153.83,-114.22"/>
<polygon fill="#63b8ff" stroke="#63b8ff" points="155.04,-117.51 163.31,-110.88 152.71,-110.91 155.04,-117.51"/>
</a>
</g>
</g>
<!-- Node7 -->
<g id="Node000007" class="node">
<title>Node7</title>
<g id="a_Node000007"><a xlink:href="namespacettg.html#af5e470229c1ddef41b83b6398a5dc583" target="_top" xlink:title=" ">
<polygon fill="white" stroke="#666666" points="224.5,-74.5 162.5,-74.5 162.5,-55.5 224.5,-55.5 224.5,-74.5"/>
<text text-anchor="middle" x="193.5" y="-62.5" font-family="Times,serif" font-size="10.00">ttg::trace</text>
</a>
</g>
</g>
<!-- Node1&#45;&gt;Node7 -->
<g id="edge6_Node000001_Node000007" class="edge">
<title>Node1&#45;&gt;Node7</title>
<g id="a_edge6_Node000001_Node000007"><a xlink:title=" ">
<path fill="none" stroke="#63b8ff" d="M58.67,-159.43C72.16,-142.03 103.05,-105.11 137,-84 141.81,-81.01 147.15,-78.42 152.57,-76.2"/>
<polygon fill="#63b8ff" stroke="#63b8ff" points="154.13,-79.36 162.29,-72.6 151.69,-72.79 154.13,-79.36"/>
</a>
</g>
</g>
<!-- Node8 -->
<g id="Node000008" class="node">
<title>Node8</title>
<g id="a_Node000008"><a xlink:href="namespacettg.html#aacacfe8bc9582308a405c4370650a9d4" target="_top" xlink:title="atomically prints to std::clog a sequence of items (separated by ttg::print_separator) followed by st...">
<polygon fill="white" stroke="#666666" points="349,-131.5 296,-131.5 296,-112.5 349,-112.5 349,-131.5"/>
<text text-anchor="middle" x="322.5" y="-119.5" font-family="Times,serif" font-size="10.00">ttg::log</text>
</a>
</g>
</g>
<!-- Node7&#45;&gt;Node8 -->
<g id="edge7_Node000007_Node000008" class="edge">
<title>Node7&#45;&gt;Node8</title>
<g id="a_edge7_Node000007_Node000008"><a xlink:title=" ">
<path fill="none" stroke="#63b8ff" d="M224.79,-74.4C233.06,-77.23 241.96,-80.52 250,-84 265.93,-90.91 283.13,-99.99 296.67,-107.55"/>
<polygon fill="#63b8ff" stroke="#63b8ff" points="294.97,-110.61 305.39,-112.49 298.42,-104.52 294.97,-110.61"/>
</a>
</g>
</g>
<!-- Node10 -->
<g id="Node000010" class="node">
<title>Node10</title>
<g id="a_Node000010"><a xlink:href="namespacettg.html#afbdd9c742be395e0746fdbc26c7d55cc" target="_top" xlink:title="returns whether tracing was enabled at configure time">
<polygon fill="white" stroke="#666666" points="504,-81.5 395,-81.5 395,-62.5 504,-62.5 504,-81.5"/>
<text text-anchor="middle" x="449.5" y="-69.5" font-family="Times,serif" font-size="10.00">ttg::trace_enabled</text>
</a>
</g>
</g>
<!-- Node7&#45;&gt;Node10 -->
<g id="edge9_Node000007_Node000010" class="edge">
<title>Node7&#45;&gt;Node10</title>
<g id="a_edge9_Node000007_Node000010"><a xlink:title=" ">
<path fill="none" stroke="#63b8ff" d="M224.63,-65.83C263.85,-66.91 333.41,-68.83 384.62,-70.24"/>
<polygon fill="#63b8ff" stroke="#63b8ff" points="384.83,-73.75 394.92,-70.52 385.02,-66.75 384.83,-73.75"/>
</a>
</g>
</g>
<!-- Node11 -->
<g id="Node000011" class="node">
<title>Node11</title>
<g id="a_Node000011"><a xlink:href="namespacettg.html#abfb8501d408a1ed918cc2a540865a2d8" target="_top" xlink:title="returns whether tracing is enabled">
<polygon fill="white" stroke="#666666" points="359,-55.5 286,-55.5 286,-36.5 359,-36.5 359,-55.5"/>
<text text-anchor="middle" x="322.5" y="-43.5" font-family="Times,serif" font-size="10.00">ttg::tracing</text>
</a>
</g>
</g>
<!-- Node7&#45;&gt;Node11 -->
<g id="edge10_Node000007_Node000011" class="edge">
<title>Node7&#45;&gt;Node11</title>
<g id="a_edge10_Node000007_Node000011"><a xlink:title=" ">
<path fill="none" stroke="#63b8ff" d="M224.6,-60.5C239.78,-58.23 258.53,-55.42 275.48,-52.88"/>
<polygon fill="#63b8ff" stroke="#63b8ff" points="276.38,-56.29 285.75,-51.35 275.34,-49.37 276.38,-56.29"/>
</a>
</g>
</g>
<!-- Node9 -->
<g id="Node000009" class="node">
<title>Node9</title>
<g id="a_Node000009"><a xlink:href="namespacettg_1_1detail.html#a26e07486d5ef8eb5735a8975991a7693" target="_top" xlink:title=" ">
<polygon fill="white" stroke="#666666" points="497.5,-137 401.5,-137 401.5,-107 497.5,-107 497.5,-137"/>
<text text-anchor="start" x="409.5" y="-125" font-family="Times,serif" font-size="10.00">ttg::detail::print</text>
<text text-anchor="middle" x="449.5" y="-114" font-family="Times,serif" font-size="10.00">_helper</text>
</a>
</g>
</g>
<!-- Node8&#45;&gt;Node9 -->
<g id="edge8_Node000008_Node000009" class="edge">
<title>Node8&#45;&gt;Node9</title>
<g id="a_edge8_Node000008_Node000009"><a xlink:title=" ">
<path fill="none" stroke="#63b8ff" d="M349.1,-122C361.34,-122 376.53,-122 391.32,-122"/>
<polygon fill="#63b8ff" stroke="#63b8ff" points="391.46,-125.5 401.46,-122 391.46,-118.5 391.46,-125.5"/>
</a>
</g>
</g>
<!-- Node11&#45;&gt;Node10 -->
<g id="edge13_Node000011_Node000010" class="edge">
<title>Node11&#45;&gt;Node10</title>
<g id="a_edge13_Node000011_Node000010"><a xlink:title=" ">
<path fill="none" stroke="#63b8ff" d="M359.32,-53.45C369.7,-55.61 381.29,-58.02 392.58,-60.37"/>
<polygon fill="#63b8ff" stroke="#63b8ff" points="391.89,-63.8 402.4,-62.41 393.32,-56.95 391.89,-63.8"/>
</a>
</g>
</g>
<!-- Node12 -->
<g id="Node000012" class="node">
<title>Node12</title>
<g id="a_Node000012"><a xlink:href="namespacettg_1_1detail.html#a95356c3874e7ec9268a40feb4fc1519f" target="_top" xlink:title=" ">
<polygon fill="white" stroke="#666666" points="498,-30 401,-30 401,0 498,0 498,-30"/>
<text text-anchor="start" x="409" y="-18" font-family="Times,serif" font-size="10.00">ttg::detail::trace</text>
<text text-anchor="middle" x="449.5" y="-7" font-family="Times,serif" font-size="10.00">_accessor</text>
</a>
</g>
</g>
<!-- Node11&#45;&gt;Node12 -->
<g id="edge11_Node000011_Node000012" class="edge">
<title>Node11&#45;&gt;Node12</title>
<g id="a_edge11_Node000011_Node000012"><a xlink:title=" ">
<path fill="none" stroke="#63b8ff" d="M359.32,-37.12C369.15,-34.68 380.07,-31.97 390.79,-29.31"/>
<polygon fill="#63b8ff" stroke="#63b8ff" points="391.69,-32.69 400.56,-26.89 390.01,-25.9 391.69,-32.69"/>
</a>
</g>
</g>
<!-- Node12&#45;&gt;Node7 -->
<g id="edge12_Node000012_Node000007" class="edge">
<title>Node12&#45;&gt;Node7</title>
<g id="a_edge12_Node000012_Node000007"><a xlink:title=" ">
<path fill="none" stroke="#63b8ff" d="M400.96,-14.54C368.23,-15.18 323.98,-17.96 286,-27 263.55,-32.34 239.5,-42.52 221.7,-51"/>
<polygon fill="#63b8ff" stroke="#63b8ff" points="219.94,-47.96 212.5,-55.49 223.02,-54.25 219.94,-47.96"/>
</a>
</g>
</g>
</g>
</svg>
