<?xml version="1.0" encoding="UTF-8" standalone="no"?>
<!DOCTYPE svg PUBLIC "-//W3C//DTD SVG 1.1//EN"
 "http://www.w3.org/Graphics/SVG/1.1/DTD/svg11.dtd">
<!-- Generated by graphviz version 2.43.0 (0)
 -->
<!-- Title: ttg::TerminalBase Pages: 1 -->
<svg width="454pt" height="230pt"
 viewBox="0.00 0.00 454.00 230.00" xmlns="http://www.w3.org/2000/svg" xmlns:xlink="http://www.w3.org/1999/xlink">

<svg id="main" version="1.1" xmlns="http://www.w3.org/2000/svg" xmlns:xlink="http://www.w3.org/1999/xlink" xml:space="preserve" onload="init(evt)">
<style type="text/css"><![CDATA[
.node, .edge {opacity: 0.7;}
.node.selected, .edge.selected {opacity: 1;}
.edge:hover path { stroke: red; }
.edge:hover polygon { stroke: red; fill: red; }
]]></style>
<script type="application/ecmascript" xlink:href="svg.min.js"/>
<svg id="graph" class="graph">
<g id="graph0" class="graph" transform="scale(1 1) rotate(0) translate(4 226)">
<title>ttg::TerminalBase</title>
<!-- Node1 -->
<g id="Node000001" class="node">
<title>Node1</title>
<g id="a_Node000001"><a xlink:title=" ">
<polygon fill="#999999" stroke="#666666" points="107,-120.5 0,-120.5 0,-101.5 107,-101.5 107,-120.5"/>
<text text-anchor="middle" x="53.5" y="-108.5" font-family="Times,serif" font-size="10.00">ttg::TerminalBase</text>
</a>
</g>
</g>
<!-- Node2 -->
<g id="Node000002" class="node">
<title>Node2</title>
<g id="a_Node000002"><a xlink:href="classttg_1_1_in_terminal_base.html" target="_top" xlink:title=" ">
<polygon fill="white" stroke="#666666" points="264,-222 147,-222 147,-192 264,-192 264,-222"/>
<text text-anchor="start" x="155" y="-210" font-family="Times,serif" font-size="10.00">ttg::InTerminalBase</text>
<text text-anchor="middle" x="205.5" y="-199" font-family="Times,serif" font-size="10.00">&lt; void &gt;</text>
</a>
</g>
</g>
<!-- Node1&#45;&gt;Node2 -->
<g id="edge1_Node000001_Node000002" class="edge">
<title>Node1&#45;&gt;Node2</title>
<g id="a_edge1_Node000001_Node000002"><a xlink:title=" ">
<path fill="none" stroke="#63b8ff" d="M71.55,-127.61C88.54,-143.47 115.94,-167.23 143,-183 148.55,-186.23 154.61,-189.2 160.7,-191.86"/>
<polygon fill="#63b8ff" stroke="#63b8ff" points="73.75,-124.88 64.09,-120.53 68.93,-129.95 73.75,-124.88"/>
</a>
</g>
</g>
<!-- Node3 -->
<g id="Node000003" class="node">
<title>Node3</title>
<g id="a_Node000003"><a xlink:href="classttg_1_1_out_terminal_base.html" target="_top" xlink:title=" ">
<polygon fill="white" stroke="#666666" points="268,-174 143,-174 143,-144 268,-144 268,-174"/>
<text text-anchor="start" x="151" y="-162" font-family="Times,serif" font-size="10.00">ttg::OutTerminalBase</text>
<text text-anchor="middle" x="205.5" y="-151" font-family="Times,serif" font-size="10.00">&lt; void &gt;</text>
</a>
</g>
</g>
<!-- Node1&#45;&gt;Node3 -->
<g id="edge2_Node000001_Node000003" class="edge">
<title>Node1&#45;&gt;Node3</title>
<g id="a_edge2_Node000001_Node000003"><a xlink:title=" ">
<path fill="none" stroke="#63b8ff" d="M94.23,-123.71C113.64,-129.92 137.13,-137.44 157.43,-143.94"/>
<polygon fill="#63b8ff" stroke="#63b8ff" points="95.09,-120.31 84.49,-120.6 92.95,-126.98 95.09,-120.31"/>
</a>
</g>
</g>
<!-- Node4 -->
<g id="Node000004" class="node">
<title>Node4</title>
<g id="a_Node000004"><a xlink:href="classttg_1_1_out_terminal_base.html" target="_top" xlink:title=" ">
<polygon fill="white" stroke="#666666" points="268,-126 143,-126 143,-96 268,-96 268,-126"/>
<text text-anchor="start" x="151" y="-114" font-family="Times,serif" font-size="10.00">ttg::OutTerminalBase</text>
<text text-anchor="middle" x="205.5" y="-103" font-family="Times,serif" font-size="10.00">&lt; keyT &gt;</text>
</a>
</g>
</g>
<!-- Node1&#45;&gt;Node4 -->
<g id="edge3_Node000001_Node000004" class="edge">
<title>Node1&#45;&gt;Node4</title>
<g id="a_edge3_Node000001_Node000004"><a xlink:title=" ">
<path fill="none" stroke="#63b8ff" d="M117.49,-111C125.89,-111 134.49,-111 142.86,-111"/>
<polygon fill="#63b8ff" stroke="#63b8ff" points="117.38,-107.5 107.38,-111 117.38,-114.5 117.38,-107.5"/>
</a>
</g>
</g>
<!-- Node6 -->
<g id="Node000006" class="node">
<title>Node6</title>
<g id="a_Node000006"><a xlink:href="classttg_1_1_in_terminal_base.html" target="_top" xlink:title="Base type for input terminals receiving messages annotated by task IDs of type keyT">
<polygon fill="white" stroke="#666666" points="264,-78 147,-78 147,-48 264,-48 264,-78"/>
<text text-anchor="start" x="155" y="-66" font-family="Times,serif" font-size="10.00">ttg::InTerminalBase</text>
<text text-anchor="middle" x="205.5" y="-55" font-family="Times,serif" font-size="10.00">&lt; keyT &gt;</text>
</a>
</g>
</g>
<!-- Node1&#45;&gt;Node6 -->
<g id="edge5_Node000001_Node000006" class="edge">
<title>Node1&#45;&gt;Node6</title>
<g id="a_edge5_Node000001_Node000006"><a xlink:title=" ">
<path fill="none" stroke="#63b8ff" d="M94.23,-98.29C113.64,-92.08 137.13,-84.56 157.43,-78.06"/>
<polygon fill="#63b8ff" stroke="#63b8ff" points="92.95,-95.02 84.49,-101.4 95.09,-101.69 92.95,-95.02"/>
</a>
</g>
</g>
<!-- Node8 -->
<g id="Node000008" class="node">
<title>Node8</title>
<g id="a_Node000008"><a xlink:href="classttg_1_1_out_terminal_base.html" target="_top" xlink:title=" ">
<polygon fill="white" stroke="#666666" points="268,-30 143,-30 143,0 268,0 268,-30"/>
<text text-anchor="start" x="151" y="-18" font-family="Times,serif" font-size="10.00">ttg::OutTerminalBase</text>
<text text-anchor="middle" x="205.5" y="-7" font-family="Times,serif" font-size="10.00">&lt; keyT &gt;</text>
</a>
</g>
</g>
<!-- Node1&#45;&gt;Node8 -->
<g id="edge7_Node000001_Node000008" class="edge">
<title>Node1&#45;&gt;Node8</title>
<g id="a_edge7_Node000001_Node000008"><a xlink:title=" ">
<path fill="none" stroke="#63b8ff" d="M71.55,-94.39C88.54,-78.53 115.94,-54.77 143,-39 148.55,-35.77 154.61,-32.8 160.7,-30.14"/>
<polygon fill="#63b8ff" stroke="#63b8ff" points="68.93,-92.05 64.09,-101.47 73.75,-97.12 68.93,-92.05"/>
</a>
</g>
</g>
<!-- Node5 -->
<g id="Node000005" class="node">
<title>Node5</title>
<g id="a_Node000005"><a xlink:href="classttg_1_1_out.html" target="_top" xlink:title=" ">
<polygon fill="white" stroke="#666666" points="446,-120.5 304,-120.5 304,-101.5 446,-101.5 446,-120.5"/>
<text text-anchor="middle" x="375" y="-108.5" font-family="Times,serif" font-size="10.00">ttg::Out&lt; keyT, valueT &gt;</text>
</a>
</g>
</g>
<!-- Node4&#45;&gt;Node5 -->
<g id="edge4_Node000004_Node000005" class="edge">
<title>Node4&#45;&gt;Node5</title>
<g id="a_edge4_Node000004_Node000005"><a xlink:title=" ">
<path fill="none" stroke="#63b8ff" d="M278.54,-111C286.95,-111 295.51,-111 303.89,-111"/>
<polygon fill="#63b8ff" stroke="#63b8ff" points="278.39,-107.5 268.39,-111 278.39,-114.5 278.39,-107.5"/>
</a>
</g>
</g>
<!-- Node7 -->
<g id="Node000007" class="node">
<title>Node7</title>
<g id="a_Node000007"><a xlink:href="classttg_1_1_in.html" target="_top" xlink:title=" ">
<polygon fill="white" stroke="#666666" points="442,-72.5 308,-72.5 308,-53.5 442,-53.5 442,-72.5"/>
<text text-anchor="middle" x="375" y="-60.5" font-family="Times,serif" font-size="10.00">ttg::In&lt; keyT, valueT &gt;</text>
</a>
</g>
</g>
<!-- Node6&#45;&gt;Node7 -->
<g id="edge6_Node000006_Node000007" class="edge">
<title>Node6&#45;&gt;Node7</title>
<g id="a_edge6_Node000006_Node000007"><a xlink:title=" ">
<path fill="none" stroke="#63b8ff" d="M274.22,-63C285.33,-63 296.83,-63 307.9,-63"/>
<polygon fill="#63b8ff" stroke="#63b8ff" points="274.14,-59.5 264.14,-63 274.14,-66.5 274.14,-59.5"/>
</a>
</g>
</g>
<!-- Node9 -->
<g id="Node000009" class="node">
<title>Node9</title>
<g id="a_Node000009"><a xlink:href="classttg_1_1_out.html" target="_top" xlink:title=" ">
<polygon fill="white" stroke="#666666" points="446,-24.5 304,-24.5 304,-5.5 446,-5.5 446,-24.5"/>
<text text-anchor="middle" x="375" y="-12.5" font-family="Times,serif" font-size="10.00">ttg::Out&lt; keyT, valueT &gt;</text>
</a>
</g>
</g>
<!-- Node8&#45;&gt;Node9 -->
<g id="edge8_Node000008_Node000009" class="edge">
<title>Node8&#45;&gt;Node9</title>
<g id="a_edge8_Node000008_Node000009"><a xlink:title=" ">
<path fill="none" stroke="#63b8ff" d="M278.54,-15C286.95,-15 295.51,-15 303.89,-15"/>
<polygon fill="#63b8ff" stroke="#63b8ff" points="278.39,-11.5 268.39,-15 278.39,-18.5 278.39,-11.5"/>
</a>
</g>
</g>
</g>
</svg>
</svg>

<style type='text/css'>
<![CDATA[
[data-mouse-over-selected='false'] { opacity: 0.7; }
[data-mouse-over-selected='true']  { opacity: 1.0; }
]]>
</style>
<script type="application/ecmascript"><![CDATA[
document.addEventListener('DOMContentLoaded', (event) => {
  highlightEdges();
  highlightAdjacentNodes();
});
]]></script>
</svg>
