<?xml version="1.0" encoding="UTF-8" standalone="no"?>
<!DOCTYPE svg PUBLIC "-//W3C//DTD SVG 1.1//EN"
 "http://www.w3.org/Graphics/SVG/1.1/DTD/svg11.dtd">
<!-- Generated by graphviz version 2.43.0 (0)
 -->
<!-- Title: ttg_parsec::WorldImpl::create_tpool Pages: 1 -->
<svg width="351pt" height="220pt"
 viewBox="0.00 0.00 351.00 220.00" xmlns="http://www.w3.org/2000/svg" xmlns:xlink="http://www.w3.org/1999/xlink">

<svg id="main" version="1.1" xmlns="http://www.w3.org/2000/svg" xmlns:xlink="http://www.w3.org/1999/xlink" xml:space="preserve" onload="init(evt)">
<style type="text/css"><![CDATA[
.node, .edge {opacity: 0.7;}
.node.selected, .edge.selected {opacity: 1;}
.edge:hover path { stroke: red; }
.edge:hover polygon { stroke: red; fill: red; }
]]></style>
<script type="application/ecmascript" xlink:href="svg.min.js"/>
<svg id="graph" class="graph">
<g id="graph0" class="graph" transform="scale(1 1) rotate(0) translate(4 216)">
<title>ttg_parsec::WorldImpl::create_tpool</title>
<!-- Node1 -->
<g id="Node000001" class="node">
<title>Node1</title>
<g id="a_Node000001"><a xlink:title=" ">
<polygon fill="#999999" stroke="#666666" points="129,-121 0,-121 0,-91 129,-91 129,-121"/>
<text text-anchor="start" x="8" y="-109" font-family="Times,serif" font-size="10.00">ttg_parsec::WorldImpl</text>
<text text-anchor="middle" x="64.5" y="-98" font-family="Times,serif" font-size="10.00">::create_tpool</text>
</a>
</g>
</g>
<!-- Node2 -->
<g id="Node000002" class="node">
<title>Node2</title>
<g id="a_Node000002"><a xlink:href="classttg__parsec_1_1_world_impl.html#a672bd6f962d95538fca23d808336920d" target="_top" xlink:title=" ">
<polygon fill="white" stroke="#666666" points="318.5,-212 189.5,-212 189.5,-182 318.5,-182 318.5,-212"/>
<text text-anchor="start" x="197.5" y="-200" font-family="Times,serif" font-size="10.00">ttg_parsec::WorldImpl</text>
<text text-anchor="middle" x="254" y="-189" font-family="Times,serif" font-size="10.00">::comm</text>
</a>
</g>
</g>
<!-- Node1&#45;&gt;Node2 -->
<g id="edge1_Node000001_Node000002" class="edge">
<title>Node1&#45;&gt;Node2</title>
<g id="a_edge1_Node000001_Node000002"><a xlink:title=" ">
<path fill="none" stroke="#63b8ff" d="M83.84,-121.06C103.02,-136.14 134.52,-159.04 165,-173 169.65,-175.13 174.53,-177.1 179.5,-178.93"/>
<polygon fill="#63b8ff" stroke="#63b8ff" points="178.55,-182.3 189.15,-182.25 180.83,-175.69 178.55,-182.3"/>
</a>
</g>
</g>
<!-- Node3 -->
<g id="Node000003" class="node">
<title>Node3</title>
<g id="a_Node000003"><a xlink:href="classttg__parsec_1_1_world_impl.html#a1029a562c3a0bd57f4ae5ffc23371f18" target="_top" xlink:title=" ">
<polygon fill="white" stroke="#666666" points="318.5,-164 189.5,-164 189.5,-134 318.5,-134 318.5,-164"/>
<text text-anchor="start" x="197.5" y="-152" font-family="Times,serif" font-size="10.00">ttg_parsec::WorldImpl</text>
<text text-anchor="middle" x="254" y="-141" font-family="Times,serif" font-size="10.00">::execution_stream</text>
</a>
</g>
</g>
<!-- Node1&#45;&gt;Node3 -->
<g id="edge2_Node000001_Node000003" class="edge">
<title>Node1&#45;&gt;Node3</title>
<g id="a_edge2_Node000001_Node000003"><a xlink:title=" ">
<path fill="none" stroke="#63b8ff" d="M129.24,-120.62C145.33,-124.31 162.74,-128.3 179.27,-132.09"/>
<polygon fill="#63b8ff" stroke="#63b8ff" points="178.91,-135.6 189.44,-134.42 180.47,-128.78 178.91,-135.6"/>
</a>
</g>
</g>
<!-- Node4 -->
<g id="Node000004" class="node">
<title>Node4</title>
<g id="a_Node000004"><a xlink:href="ttg_2parsec_2ttg_8h.html#a1c710959a10d207205de788ae298f081" target="_top" xlink:title=" ">
<polygon fill="white" stroke="#666666" points="343,-115.5 165,-115.5 165,-96.5 343,-96.5 343,-115.5"/>
<text text-anchor="middle" x="254" y="-103.5" font-family="Times,serif" font-size="10.00">parsec_add_fetch_runtime_task</text>
</a>
</g>
</g>
<!-- Node1&#45;&gt;Node4 -->
<g id="edge3_Node000001_Node000004" class="edge">
<title>Node1&#45;&gt;Node4</title>
<g id="a_edge3_Node000001_Node000004"><a xlink:title=" ">
<path fill="none" stroke="#63b8ff" d="M129.24,-106C137.48,-106 146.07,-106 154.71,-106"/>
<polygon fill="#63b8ff" stroke="#63b8ff" points="154.85,-109.5 164.85,-106 154.85,-102.5 154.85,-109.5"/>
</a>
</g>
</g>
<!-- Node5 -->
<g id="Node000005" class="node">
<title>Node5</title>
<g id="a_Node000005"><a xlink:href="ttg_2parsec_2ttg_8h.html#a545323e30c662cc79a6781fc00bbaaa6" target="_top" xlink:title=" ">
<polygon fill="white" stroke="#666666" points="335.5,-78 172.5,-78 172.5,-48 335.5,-48 335.5,-78"/>
<text text-anchor="start" x="180.5" y="-66" font-family="Times,serif" font-size="10.00">parsec_taskpool_termination</text>
<text text-anchor="middle" x="254" y="-55" font-family="Times,serif" font-size="10.00">_detected</text>
</a>
</g>
</g>
<!-- Node1&#45;&gt;Node5 -->
<g id="edge4_Node000001_Node000005" class="edge">
<title>Node1&#45;&gt;Node5</title>
<g id="a_edge4_Node000001_Node000005"><a xlink:title=" ">
<path fill="none" stroke="#63b8ff" d="M129.24,-91.38C144.8,-87.81 161.6,-83.96 177.64,-80.28"/>
<polygon fill="#63b8ff" stroke="#63b8ff" points="178.56,-83.66 187.52,-78.02 176.99,-76.84 178.56,-83.66"/>
</a>
</g>
</g>
<!-- Node6 -->
<g id="Node000006" class="node">
<title>Node6</title>
<g id="a_Node000006"><a xlink:href="classttg_1_1base_1_1_world_impl_base.html#afd134bac63c8ce9e2c570570a1b8a0a2" target="_top" xlink:title=" ">
<polygon fill="white" stroke="#666666" points="326.5,-30 181.5,-30 181.5,0 326.5,0 326.5,-30"/>
<text text-anchor="start" x="189.5" y="-18" font-family="Times,serif" font-size="10.00">ttg::base::WorldImplBase</text>
<text text-anchor="middle" x="254" y="-7" font-family="Times,serif" font-size="10.00">::size</text>
</a>
</g>
</g>
<!-- Node1&#45;&gt;Node6 -->
<g id="edge5_Node000001_Node000006" class="edge">
<title>Node1&#45;&gt;Node6</title>
<g id="a_edge5_Node000001_Node000006"><a xlink:title=" ">
<path fill="none" stroke="#63b8ff" d="M83.84,-90.94C103.02,-75.86 134.52,-52.96 165,-39 169.36,-37 173.92,-35.14 178.57,-33.42"/>
<polygon fill="#63b8ff" stroke="#63b8ff" points="179.92,-36.65 188.21,-30.05 177.62,-30.04 179.92,-36.65"/>
</a>
</g>
</g>
</g>
</svg>
</svg>

<style type='text/css'>
<![CDATA[
[data-mouse-over-selected='false'] { opacity: 0.7; }
[data-mouse-over-selected='true']  { opacity: 1.0; }
]]>
</style>
<script type="application/ecmascript"><![CDATA[
document.addEventListener('DOMContentLoaded', (event) => {
  highlightEdges();
  highlightAdjacentNodes();
});
]]></script>
</svg>
