<?xml version="1.0" encoding="UTF-8" standalone="no"?>
<!DOCTYPE svg PUBLIC "-//W3C//DTD SVG 1.1//EN"
 "http://www.w3.org/Graphics/SVG/1.1/DTD/svg11.dtd">
<!-- Generated by graphviz version 2.43.0 (0)
 -->
<!-- Title: ttg::TTBase::trace Pages: 1 -->
<svg width="732pt" height="136pt"
 viewBox="0.00 0.00 732.00 135.50" xmlns="http://www.w3.org/2000/svg" xmlns:xlink="http://www.w3.org/1999/xlink">
<g id="graph0" class="graph" transform="scale(1 1) rotate(0) translate(4 131.5)">
<title>ttg::TTBase::trace</title>
<!-- Node1 -->
<g id="Node000001" class="node">
<title>Node1</title>
<g id="a_Node000001"><a xlink:title="Like ttg::trace(), but only produces tracing output if this&#45;&gt;tracing()==true">
<polygon fill="#999999" stroke="#666666" points="107,-62 0,-62 0,-43 107,-43 107,-62"/>
<text text-anchor="middle" x="53.5" y="-50" font-family="Times,serif" font-size="10.00">ttg::TTBase::trace</text>
</a>
</g>
</g>
<!-- Node2 -->
<g id="Node000002" class="node">
<title>Node2</title>
<g id="a_Node000002"><a xlink:href="namespacettg.html#aacacfe8bc9582308a405c4370650a9d4" target="_top" xlink:title="atomically prints to std::clog a sequence of items (separated by ttg::print_separator) followed by st...">
<polygon fill="white" stroke="#666666" points="564,-122 511,-122 511,-103 564,-103 564,-122"/>
<text text-anchor="middle" x="537.5" y="-110" font-family="Times,serif" font-size="10.00">ttg::log</text>
</a>
</g>
</g>
<!-- Node1&#45;&gt;Node2 -->
<g id="edge1_Node000001_Node000002" class="edge">
<title>Node1&#45;&gt;Node2</title>
<g id="a_edge1_Node000001_Node000002"><a xlink:title=" ">
<path fill="none" stroke="#63b8ff" d="M101.35,-62.04C114.79,-64.78 129.48,-67.76 143,-70.5 191.44,-80.31 203.03,-85.86 252,-92.5 341.01,-104.56 446.73,-109.57 500.78,-111.47"/>
<polygon fill="#63b8ff" stroke="#63b8ff" points="500.77,-114.97 510.88,-111.81 501.01,-107.97 500.77,-114.97"/>
</a>
</g>
</g>
<!-- Node4 -->
<g id="Node000004" class="node">
<title>Node4</title>
<g id="a_Node000004"><a xlink:href="namespacettg.html#afbdd9c742be395e0746fdbc26c7d55cc" target="_top" xlink:title="returns whether tracing was enabled at configure time">
<polygon fill="white" stroke="#666666" points="592,-19 483,-19 483,0 592,0 592,-19"/>
<text text-anchor="middle" x="537.5" y="-7" font-family="Times,serif" font-size="10.00">ttg::trace_enabled</text>
</a>
</g>
</g>
<!-- Node1&#45;&gt;Node4 -->
<g id="edge3_Node000001_Node000004" class="edge">
<title>Node1&#45;&gt;Node4</title>
<g id="a_edge3_Node000001_Node000004"><a xlink:title=" ">
<path fill="none" stroke="#63b8ff" d="M98.59,-42.92C112.76,-39.87 128.54,-36.51 143,-33.5 191.38,-23.42 202.92,-17.34 252,-11.5 310.74,-4.51 325.86,-7.61 385,-6.5 412.55,-5.98 419.45,-6.04 447,-6.5 455.27,-6.64 463.96,-6.85 472.55,-7.1"/>
<polygon fill="#63b8ff" stroke="#63b8ff" points="472.45,-10.59 482.55,-7.4 472.66,-3.6 472.45,-10.59"/>
</a>
</g>
</g>
<!-- Node5 -->
<g id="Node000005" class="node">
<title>Node5</title>
<g id="a_Node000005"><a xlink:href="namespacettg.html#abfb8501d408a1ed918cc2a540865a2d8" target="_top" xlink:title="returns whether tracing is enabled">
<polygon fill="white" stroke="#666666" points="216,-62 143,-62 143,-43 216,-43 216,-62"/>
<text text-anchor="middle" x="179.5" y="-50" font-family="Times,serif" font-size="10.00">ttg::tracing</text>
</a>
</g>
</g>
<!-- Node1&#45;&gt;Node5 -->
<g id="edge4_Node000001_Node000005" class="edge">
<title>Node1&#45;&gt;Node5</title>
<g id="a_edge4_Node000001_Node000005"><a xlink:title=" ">
<path fill="none" stroke="#63b8ff" d="M107.09,-52.5C115.53,-52.5 124.22,-52.5 132.5,-52.5"/>
<polygon fill="#63b8ff" stroke="#63b8ff" points="132.71,-56 142.71,-52.5 132.71,-49 132.71,-56"/>
</a>
</g>
</g>
<!-- Node3 -->
<g id="Node000003" class="node">
<title>Node3</title>
<g id="a_Node000003"><a xlink:href="namespacettg_1_1detail.html#a26e07486d5ef8eb5735a8975991a7693" target="_top" xlink:title=" ">
<polygon fill="white" stroke="#666666" points="724,-127.5 628,-127.5 628,-97.5 724,-97.5 724,-127.5"/>
<text text-anchor="start" x="636" y="-115.5" font-family="Times,serif" font-size="10.00">ttg::detail::print</text>
<text text-anchor="middle" x="676" y="-104.5" font-family="Times,serif" font-size="10.00">_helper</text>
</a>
</g>
</g>
<!-- Node2&#45;&gt;Node3 -->
<g id="edge2_Node000002_Node000003" class="edge">
<title>Node2&#45;&gt;Node3</title>
<g id="a_edge2_Node000002_Node000003"><a xlink:title=" ">
<path fill="none" stroke="#63b8ff" d="M564.17,-112.5C579.29,-112.5 599.05,-112.5 617.69,-112.5"/>
<polygon fill="#63b8ff" stroke="#63b8ff" points="617.89,-116 627.89,-112.5 617.89,-109 617.89,-116"/>
</a>
</g>
</g>
<!-- Node5&#45;&gt;Node4 -->
<g id="edge10_Node000005_Node000004" class="edge">
<title>Node5&#45;&gt;Node4</title>
<g id="a_edge10_Node000005_Node000004"><a xlink:title=" ">
<path fill="none" stroke="#63b8ff" d="M203.92,-42.94C217.68,-37.75 235.56,-31.75 252,-28.5 326.79,-13.71 414.55,-9.84 472.62,-9.1"/>
<polygon fill="#63b8ff" stroke="#63b8ff" points="472.78,-12.6 482.74,-9 472.71,-5.6 472.78,-12.6"/>
</a>
</g>
</g>
<!-- Node6 -->
<g id="Node000006" class="node">
<title>Node6</title>
<g id="a_Node000006"><a xlink:href="namespacettg_1_1detail.html#a95356c3874e7ec9268a40feb4fc1519f" target="_top" xlink:title=" ">
<polygon fill="white" stroke="#666666" points="349,-67.5 252,-67.5 252,-37.5 349,-37.5 349,-67.5"/>
<text text-anchor="start" x="260" y="-55.5" font-family="Times,serif" font-size="10.00">ttg::detail::trace</text>
<text text-anchor="middle" x="300.5" y="-44.5" font-family="Times,serif" font-size="10.00">_accessor</text>
</a>
</g>
</g>
<!-- Node5&#45;&gt;Node6 -->
<g id="edge5_Node000005_Node000006" class="edge">
<title>Node5&#45;&gt;Node6</title>
<g id="a_edge5_Node000005_Node000006"><a xlink:title=" ">
<path fill="none" stroke="#63b8ff" d="M216.2,-52.5C224.27,-52.5 233.04,-52.5 241.76,-52.5"/>
<polygon fill="#63b8ff" stroke="#63b8ff" points="241.93,-56 251.93,-52.5 241.93,-49 241.93,-56"/>
</a>
</g>
</g>
<!-- Node7 -->
<g id="Node000007" class="node">
<title>Node7</title>
<g id="a_Node000007"><a xlink:href="namespacettg.html#af5e470229c1ddef41b83b6398a5dc583" target="_top" xlink:title=" ">
<polygon fill="white" stroke="#666666" points="447,-82 385,-82 385,-63 447,-63 447,-82"/>
<text text-anchor="middle" x="416" y="-70" font-family="Times,serif" font-size="10.00">ttg::trace</text>
</a>
</g>
</g>
<!-- Node6&#45;&gt;Node7 -->
<g id="edge6_Node000006_Node000007" class="edge">
<title>Node6&#45;&gt;Node7</title>
<g id="a_edge6_Node000006_Node000007"><a xlink:title=" ">
<path fill="none" stroke="#63b8ff" d="M349.31,-60.92C357.74,-62.41 366.44,-63.94 374.65,-65.39"/>
<polygon fill="#63b8ff" stroke="#63b8ff" points="374.26,-68.87 384.72,-67.16 375.47,-61.98 374.26,-68.87"/>
</a>
</g>
</g>
<!-- Node7&#45;&gt;Node2 -->
<g id="edge7_Node000007_Node000002" class="edge">
<title>Node7&#45;&gt;Node2</title>
<g id="a_edge7_Node000007_Node000002"><a xlink:title=" ">
<path fill="none" stroke="#63b8ff" d="M445.62,-82.08C462.25,-87.65 483.33,-94.7 501,-100.62"/>
<polygon fill="#63b8ff" stroke="#63b8ff" points="500.36,-104.09 510.96,-103.95 502.58,-97.46 500.36,-104.09"/>
</a>
</g>
</g>
<!-- Node7&#45;&gt;Node4 -->
<g id="edge8_Node000007_Node000004" class="edge">
<title>Node7&#45;&gt;Node4</title>
<g id="a_edge8_Node000007_Node000004"><a xlink:title=" ">
<path fill="none" stroke="#63b8ff" d="M435.15,-62.93C454.8,-52.57 486.38,-35.93 509.06,-23.97"/>
<polygon fill="#63b8ff" stroke="#63b8ff" points="510.97,-26.92 518.18,-19.16 507.7,-20.73 510.97,-26.92"/>
</a>
</g>
</g>
<!-- Node7&#45;&gt;Node5 -->
<g id="edge9_Node000007_Node000005" class="edge">
<title>Node7&#45;&gt;Node5</title>
<g id="a_edge9_Node000007_Node000005"><a xlink:title=" ">
<path fill="none" stroke="#63b8ff" d="M384.73,-76.58C351.83,-80.24 297.82,-83.98 252,-76.5 238.77,-74.34 224.7,-70.07 212.56,-65.72"/>
<polygon fill="#63b8ff" stroke="#63b8ff" points="213.48,-62.33 202.89,-62.1 211.02,-68.89 213.48,-62.33"/>
</a>
</g>
</g>
</g>
</svg>
