<?xml version="1.0" encoding="UTF-8" standalone="no"?>
<!DOCTYPE svg PUBLIC "-//W3C//DTD SVG 1.1//EN"
 "http://www.w3.org/Graphics/SVG/1.1/DTD/svg11.dtd">
<!-- Generated by graphviz version 2.43.0 (0)
 -->
<!-- Title: ttg::base::World::is_valid Pages: 1 -->
<!--zoomable 1218 -->

<svg id="main" version="1.1" xmlns="http://www.w3.org/2000/svg" xmlns:xlink="http://www.w3.org/1999/xlink" xml:space="preserve" onload="init(evt)">
<style type="text/css"><![CDATA[
.node, .edge {opacity: 0.7;}
.node.selected, .edge.selected {opacity: 1;}
.edge:hover path { stroke: red; }
.edge:hover polygon { stroke: red; fill: red; }
]]></style>

<defs>
  <circle id="rim" cx="0" cy="0" r="7"/>
  <circle id="rim2" cx="0" cy="0" r="3.5"/>
  <g id="zoomPlus">
    <use xlink:href="#rim" fill="#404040"><set attributeName="fill" to="#808080" begin="zoomplus.mouseover" end="zoomplus.mouseout"/></use>
    <path d="M-4,0h8M0,-4v8" fill="none" stroke="white" stroke-width="1.5" pointer-events="none"/>
  </g>
  <g id="zoomMin">
    <use xlink:href="#rim" fill="#404040"><set attributeName="fill" to="#808080" begin="zoomminus.mouseover" end="zoomminus.mouseout"/></use>
    <path d="M-4,0h8" fill="none" stroke="white" stroke-width="1.5" pointer-events="none"/>
  </g>
  <g id="arrowUp" transform="translate(30 24)">
    <use xlink:href="#rim"/>
    <path pointer-events="none" fill="none" stroke="white" stroke-width="1.5" d="M0,-3.0v7 M-2.5,-0.5L0,-3.0L2.5,-0.5"/>
  </g>
  <g id="arrowRight" transform="rotate(90) translate(36 -43)">
    <use xlink:href="#rim"/>
    <path pointer-events="none" fill="none" stroke="white" stroke-width="1.5" d="M0,-3.0v7 M-2.5,-0.5L0,-3.0L2.5,-0.5"/>
  </g>
  <g id="arrowDown" transform="rotate(180) translate(-30 -48)">
    <use xlink:href="#rim"/>
    <path pointer-events="none" fill="none" stroke="white" stroke-width="1.5" d="M0,-3.0v7 M-2.5,-0.5L0,-3.0L2.5,-0.5"/>
  </g>
  <g id="arrowLeft" transform="rotate(270) translate(-36 17)">
    <use xlink:href="#rim"/>
    <path pointer-events="none" fill="none" stroke="white" stroke-width="1.5" d="M0,-3.0v7 M-2.5,-0.5L0,-3.0L2.5,-0.5"/>
  </g>
  <g id="resetDef">
    <use xlink:href="#rim2" fill="#404040"><set attributeName="fill" to="#808080" begin="reset.mouseover" end="reset.mouseout"/></use>
  </g>
</defs>
<script type="application/ecmascript">
var viewWidth = 1148;
var viewHeight = 1218;
var sectionId = 'dynsection-3';
</script>
<script type="application/ecmascript" xlink:href="svg.min.js"/>
<svg id="graph" class="graph">
<g id="viewport">
<title>ttg::base::World::is_valid</title>
<!-- Node1 -->
<g id="Node000001" class="node">
<title>Node1</title>
<g id="a_Node000001"><a xlink:title=" ">
<polygon fill="#999999" stroke="#666666" points="1140,-568.5 1029,-568.5 1029,-538.5 1140,-538.5 1140,-568.5"/>
<text text-anchor="start" x="1037" y="-556.5" font-family="Times,serif" font-size="10.00">ttg::base::World::is</text>
<text text-anchor="middle" x="1084.5" y="-545.5" font-family="Times,serif" font-size="10.00">_valid</text>
</a>
</g>
</g>
<!-- Node2 -->
<g id="Node000002" class="node">
<title>Node2</title>
<g id="a_Node000002"><a xlink:href="classttg_1_1base_1_1_world.html#aabab7c9df8f16919ab41a864c8b1adc4" target="_top" xlink:title=" ">
<polygon fill="white" stroke="#666666" points="992.5,-582 867.5,-582 867.5,-563 992.5,-563 992.5,-582"/>
<text text-anchor="middle" x="930" y="-570" font-family="Times,serif" font-size="10.00">ttg::base::World::impl</text>
</a>
</g>
</g>
<!-- Node1&#45;&gt;Node2 -->
<g id="edge1_Node000001_Node000002" class="edge">
<title>Node1&#45;&gt;Node2</title>
<g id="a_edge1_Node000001_Node000002"><a xlink:title=" ">
<path fill="none" stroke="#63b8ff" d="M1018.85,-561.56C1010.2,-562.63 1001.35,-563.73 992.76,-564.81"/>
<polygon fill="#63b8ff" stroke="#63b8ff" points="1019.38,-565.02 1028.87,-560.31 1018.52,-558.07 1019.38,-565.02"/>
</a>
</g>
</g>
<!-- Node37 -->
<g id="Node000037" class="node">
<title>Node37</title>
<g id="a_Node000037"><a xlink:href="classttg_1_1base_1_1_world.html#a9b8d7dee472e4c79b48d2a2461038111" target="_top" xlink:title=" ">
<polygon fill="white" stroke="#666666" points="992.5,-545 867.5,-545 867.5,-526 992.5,-526 992.5,-545"/>
<text text-anchor="middle" x="930" y="-533" font-family="Times,serif" font-size="10.00">ttg::base::World::impl</text>
</a>
</g>
</g>
<!-- Node1&#45;&gt;Node37 -->
<g id="edge37_Node000001_Node000037" class="edge">
<title>Node1&#45;&gt;Node37</title>
<g id="a_edge37_Node000001_Node000037"><a xlink:title=" ">
<path fill="none" stroke="#63b8ff" d="M1018.85,-545.87C1010.2,-544.85 1001.35,-543.8 992.76,-542.79"/>
<polygon fill="#63b8ff" stroke="#63b8ff" points="1018.53,-549.36 1028.87,-547.05 1019.35,-542.4 1018.53,-549.36"/>
</a>
</g>
</g>
<!-- Node38 -->
<g id="Node000038" class="node">
<title>Node38</title>
<g id="a_Node000038"><a xlink:href="classttg_1_1base_1_1_world.html#a7c354d1e43268884cb3b947f44ce0f5e" target="_top" xlink:title=" ">
<polygon fill="white" stroke="#666666" points="993,-1071 867,-1071 867,-1052 993,-1052 993,-1071"/>
<text text-anchor="middle" x="930" y="-1059" font-family="Times,serif" font-size="10.00">ttg::base::World::rank</text>
</a>
</g>
</g>
<!-- Node1&#45;&gt;Node38 -->
<g id="edge38_Node000001_Node000038" class="edge">
<title>Node1&#45;&gt;Node38</title>
<g id="a_edge38_Node000001_Node000038"><a xlink:title=" ">
<path fill="none" stroke="#63b8ff" d="M1076.05,-578.32C1048.35,-670.6 951.99,-991.59 933.93,-1051.75"/>
<polygon fill="#63b8ff" stroke="#63b8ff" points="1079.41,-579.29 1078.94,-568.7 1072.71,-577.27 1079.41,-579.29"/>
</a>
</g>
</g>
<!-- Node44 -->
<g id="Node000044" class="node">
<title>Node44</title>
<g id="a_Node000044"><a xlink:href="classttg_1_1base_1_1_world.html#a70fde546a245480a3aae93b33bce813e" target="_top" xlink:title=" ">
<polygon fill="white" stroke="#666666" points="991,-508 869,-508 869,-489 991,-489 991,-508"/>
<text text-anchor="middle" x="930" y="-496" font-family="Times,serif" font-size="10.00">ttg::base::World::size</text>
</a>
</g>
</g>
<!-- Node1&#45;&gt;Node44 -->
<g id="edge46_Node000001_Node000044" class="edge">
<title>Node1&#45;&gt;Node44</title>
<g id="a_edge46_Node000001_Node000044"><a xlink:title=" ">
<path fill="none" stroke="#63b8ff" d="M1039.66,-534.49C1024.95,-528.4 1008.38,-521.86 993,-516.5 984.43,-513.51 975.07,-510.61 966.29,-508.05"/>
<polygon fill="#63b8ff" stroke="#63b8ff" points="1038.44,-537.77 1049.02,-538.4 1041.14,-531.31 1038.44,-537.77"/>
</a>
</g>
</g>
<!-- Node3 -->
<g id="Node000003" class="node">
<title>Node3</title>
<g id="a_Node000003"><a xlink:href="classttg__parsec_1_1_t_t.html#a7f42b8147186ddf49a3c1f2a5d49255f" target="_top" xlink:title=" ">
<polygon fill="white" stroke="#666666" points="787.5,-91.5 680.5,-91.5 680.5,-61.5 787.5,-61.5 787.5,-91.5"/>
<text text-anchor="start" x="688.5" y="-79.5" font-family="Times,serif" font-size="10.00">ttg_parsec::TT::do</text>
<text text-anchor="middle" x="734" y="-68.5" font-family="Times,serif" font-size="10.00">_release</text>
</a>
</g>
</g>
<!-- Node2&#45;&gt;Node3 -->
<g id="edge2_Node000002_Node000003" class="edge">
<title>Node2&#45;&gt;Node3</title>
<g id="a_edge2_Node000002_Node000003"><a xlink:title=" ">
<path fill="none" stroke="#63b8ff" d="M870.12,-556.9C869.01,-555.84 867.97,-554.71 867,-553.5 803.79,-474.75 896.25,-177.57 831,-100.5 820.23,-87.78 803.84,-81.26 787.64,-78.06"/>
<polygon fill="#63b8ff" stroke="#63b8ff" points="868.13,-559.78 878.24,-562.94 872.31,-554.16 868.13,-559.78"/>
</a>
</g>
</g>
<!-- Node13 -->
<g id="Node000013" class="node">
<title>Node13</title>
<g id="a_Node000013"><a xlink:href="classttg__parsec_1_1_t_t.html#ac36a15986a5a4182b0cadb188014192a" target="_top" xlink:title="Marks this executable.">
<polygon fill="white" stroke="#666666" points="595,-905.5 473,-905.5 473,-875.5 595,-875.5 595,-905.5"/>
<text text-anchor="start" x="481" y="-893.5" font-family="Times,serif" font-size="10.00">ttg_parsec::TT::make</text>
<text text-anchor="middle" x="534" y="-882.5" font-family="Times,serif" font-size="10.00">_executable</text>
</a>
</g>
</g>
<!-- Node2&#45;&gt;Node13 -->
<g id="edge12_Node000002_Node000013" class="edge">
<title>Node2&#45;&gt;Node13</title>
<g id="a_edge12_Node000002_Node000013"><a xlink:title=" ">
<path fill="none" stroke="#63b8ff" d="M928.61,-592.26C926.45,-643.97 912.92,-783.83 831,-850.5 795.91,-879.06 671.12,-887.27 595.23,-889.6"/>
<polygon fill="#63b8ff" stroke="#63b8ff" points="932.12,-592.22 928.94,-582.11 925.12,-592 932.12,-592.22"/>
</a>
</g>
</g>
<!-- Node14 -->
<g id="Node000014" class="node">
<title>Node14</title>
<g id="a_Node000014"><a xlink:href="namespacettg__parsec.html#ab0a8e1ea240f4196cacccdeb8f15681e" target="_top" xlink:title=" ">
<polygon fill="white" stroke="#666666" points="831,-841 637,-841 637,-822 831,-822 831,-841"/>
<text text-anchor="middle" x="734" y="-829" font-family="Times,serif" font-size="10.00">ttg_parsec::make_executable_hook</text>
</a>
</g>
</g>
<!-- Node2&#45;&gt;Node14 -->
<g id="edge13_Node000002_Node000014" class="edge">
<title>Node2&#45;&gt;Node14</title>
<g id="a_edge13_Node000002_Node000014"><a xlink:title=" ">
<path fill="none" stroke="#63b8ff" d="M927.22,-592.22C921.89,-638.73 901.77,-755.69 831,-813.5 826.93,-816.83 822.44,-819.61 817.68,-821.93"/>
<polygon fill="#63b8ff" stroke="#63b8ff" points="930.7,-592.53 928.25,-582.23 923.74,-591.81 930.7,-592.53"/>
</a>
</g>
</g>
<!-- Node15 -->
<g id="Node000015" class="node">
<title>Node15</title>
<g id="a_Node000015"><a xlink:href="classttg__parsec_1_1_t_t.html#ab0bde8f642c472a5cf19274f7251268f" target="_top" xlink:title=" ">
<polygon fill="white" stroke="#666666" points="801,-927.5 667,-927.5 667,-897.5 801,-897.5 801,-927.5"/>
<text text-anchor="start" x="675" y="-915.5" font-family="Times,serif" font-size="10.00">ttg_parsec::TT::register</text>
<text text-anchor="middle" x="734" y="-904.5" font-family="Times,serif" font-size="10.00">_static_op_function</text>
</a>
</g>
</g>
<!-- Node2&#45;&gt;Node15 -->
<g id="edge14_Node000002_Node000015" class="edge">
<title>Node2&#45;&gt;Node15</title>
<g id="a_edge14_Node000002_Node000015"><a xlink:title=" ">
<path fill="none" stroke="#63b8ff" d="M928.79,-592.32C927.13,-646.87 914.83,-800.66 831,-883.5 822.7,-891.7 812.17,-897.59 801.15,-901.83"/>
<polygon fill="#63b8ff" stroke="#63b8ff" points="932.29,-592.32 929.01,-582.25 925.3,-592.17 932.29,-592.32"/>
</a>
</g>
</g>
<!-- Node16 -->
<g id="Node000016" class="node">
<title>Node16</title>
<g id="a_Node000016"><a xlink:href="classttg__parsec_1_1_t_t.html#a135452f67e8da6713f06a5f286654854" target="_top" xlink:title=" ">
<polygon fill="white" stroke="#666666" points="789,-975.5 679,-975.5 679,-945.5 789,-945.5 789,-975.5"/>
<text text-anchor="start" x="687" y="-963.5" font-family="Times,serif" font-size="10.00">ttg_parsec::TT::set</text>
<text text-anchor="middle" x="734" y="-952.5" font-family="Times,serif" font-size="10.00">_input_reducer</text>
</a>
</g>
</g>
<!-- Node2&#45;&gt;Node16 -->
<g id="edge16_Node000002_Node000016" class="edge">
<title>Node2&#45;&gt;Node16</title>
<g id="a_edge16_Node000002_Node000016"><a xlink:title=" ">
<path fill="none" stroke="#63b8ff" d="M926.33,-592.3C916.68,-660.89 881.54,-886.86 831,-936.5 819.85,-947.45 804.49,-953.65 789.33,-957.09"/>
<polygon fill="#63b8ff" stroke="#63b8ff" points="929.84,-592.43 927.74,-582.04 922.91,-591.47 929.84,-592.43"/>
</a>
</g>
</g>
<!-- Node17 -->
<g id="Node000017" class="node">
<title>Node17</title>
<g id="a_Node000017"><a xlink:href="classttg__parsec_1_1_t_t.html#a91ff2c4ba25da30a955c5f5a19ec5c89" target="_top" xlink:title=" ">
<polygon fill="white" stroke="#666666" points="788,-804 680,-804 680,-785 788,-785 788,-804"/>
<text text-anchor="middle" x="734" y="-792" font-family="Times,serif" font-size="10.00">ttg_parsec::TT::TT</text>
</a>
</g>
</g>
<!-- Node2&#45;&gt;Node17 -->
<g id="edge17_Node000002_Node000017" class="edge">
<title>Node2&#45;&gt;Node17</title>
<g id="a_edge17_Node000002_Node000017"><a xlink:title=" ">
<path fill="none" stroke="#63b8ff" d="M925.68,-591.97C917.56,-633.15 892.69,-729.2 831,-776.5 818.89,-785.79 803.43,-790.77 788.47,-793.32"/>
<polygon fill="#63b8ff" stroke="#63b8ff" points="929.13,-592.57 927.5,-582.1 922.24,-591.3 929.13,-592.57"/>
</a>
</g>
</g>
<!-- Node18 -->
<g id="Node000018" class="node">
<title>Node18</title>
<g id="a_Node000018"><a xlink:href="namespacettg__parsec.html#aa0dde9bdbe8109520fbd094fa980cf06" target="_top" xlink:title=" ">
<polygon fill="white" stroke="#666666" points="807,-1013 661,-1013 661,-994 807,-994 807,-1013"/>
<text text-anchor="middle" x="734" y="-1001" font-family="Times,serif" font-size="10.00">ttg_parsec::ttg_broadcast</text>
</a>
</g>
</g>
<!-- Node2&#45;&gt;Node18 -->
<g id="edge18_Node000002_Node000018" class="edge">
<title>Node2&#45;&gt;Node18</title>
<g id="a_edge18_Node000002_Node000018"><a xlink:title=" ">
<path fill="none" stroke="#63b8ff" d="M927.06,-592.54C919.43,-667.34 888.95,-928.72 831,-984.5 824.27,-990.98 816,-995.55 807.16,-998.74"/>
<polygon fill="#63b8ff" stroke="#63b8ff" points="930.59,-592.5 928.09,-582.2 923.62,-591.8 930.59,-592.5"/>
</a>
</g>
</g>
<!-- Node19 -->
<g id="Node000019" class="node">
<title>Node19</title>
<g id="a_Node000019"><a xlink:href="namespacettg__madness.html#ad760338470631d741f596b570dac59b0" target="_top" xlink:title=" ">
<polygon fill="white" stroke="#666666" points="813,-767 655,-767 655,-748 813,-748 813,-767"/>
<text text-anchor="middle" x="734" y="-755" font-family="Times,serif" font-size="10.00">ttg_madness::ttg_broadcast</text>
</a>
</g>
</g>
<!-- Node2&#45;&gt;Node19 -->
<g id="edge19_Node000002_Node000019" class="edge">
<title>Node2&#45;&gt;Node19</title>
<g id="a_edge19_Node000002_Node000019"><a xlink:title=" ">
<path fill="none" stroke="#63b8ff" d="M923.45,-592.07C912.29,-627.62 883.59,-702.53 831,-739.5 825.59,-743.3 819.6,-746.37 813.33,-748.82"/>
<polygon fill="#63b8ff" stroke="#63b8ff" points="926.84,-592.97 926.36,-582.38 920.13,-590.96 926.84,-592.97"/>
</a>
</g>
</g>
<!-- Node20 -->
<g id="Node000020" class="node">
<title>Node20</title>
<g id="a_Node000020"><a xlink:href="namespacettg__madness.html#a3e4eecf0b46347ed8c0334ae84c3eb19" target="_top" xlink:title=" ">
<polygon fill="white" stroke="#666666" points="809,-730 659,-730 659,-711 809,-711 809,-730"/>
<text text-anchor="middle" x="734" y="-718" font-family="Times,serif" font-size="10.00">ttg_madness::ttg_ctl_edge</text>
</a>
</g>
</g>
<!-- Node2&#45;&gt;Node20 -->
<g id="edge20_Node000002_Node000020" class="edge">
<title>Node2&#45;&gt;Node20</title>
<g id="a_edge20_Node000002_Node000020"><a xlink:title=" ">
<path fill="none" stroke="#63b8ff" d="M920.45,-591.35C906.28,-620.3 875.05,-675.18 831,-702.5 824.37,-706.61 817.02,-709.83 809.43,-712.33"/>
<polygon fill="#63b8ff" stroke="#63b8ff" points="923.63,-592.82 924.74,-582.29 917.3,-589.83 923.63,-592.82"/>
</a>
</g>
</g>
<!-- Node21 -->
<g id="Node000021" class="node">
<title>Node21</title>
<g id="a_Node000021"><a xlink:href="namespacettg__parsec.html#aa4b5a7f255eee32c46ca8bde5e87ac62" target="_top" xlink:title=" ">
<polygon fill="white" stroke="#666666" points="803,-693 665,-693 665,-674 803,-674 803,-693"/>
<text text-anchor="middle" x="734" y="-681" font-family="Times,serif" font-size="10.00">ttg_parsec::ttg_ctl_edge</text>
</a>
</g>
</g>
<!-- Node2&#45;&gt;Node21 -->
<g id="edge21_Node000002_Node000021" class="edge">
<title>Node2&#45;&gt;Node21</title>
<g id="a_edge21_Node000002_Node000021"><a xlink:title=" ">
<path fill="none" stroke="#63b8ff" d="M915.69,-590.27C898.59,-611.73 866.8,-647.21 831,-665.5 822.39,-669.9 812.86,-673.23 803.24,-675.75"/>
<polygon fill="#63b8ff" stroke="#63b8ff" points="918.53,-592.33 921.9,-582.28 913,-588.03 918.53,-592.33"/>
</a>
</g>
</g>
<!-- Node22 -->
<g id="Node000022" class="node">
<title>Node22</title>
<g id="a_Node000022"><a xlink:href="namespacettg__parsec.html#af487c13be90fbfe91c6789946e14e8fa" target="_top" xlink:title=" ">
<polygon fill="white" stroke="#666666" points="801.5,-656 666.5,-656 666.5,-637 801.5,-637 801.5,-656"/>
<text text-anchor="middle" x="734" y="-644" font-family="Times,serif" font-size="10.00">ttg_parsec::ttg_execute</text>
</a>
</g>
</g>
<!-- Node2&#45;&gt;Node22 -->
<g id="edge22_Node000002_Node000022" class="edge">
<title>Node2&#45;&gt;Node22</title>
<g id="a_edge22_Node000002_Node000022"><a xlink:title=" ">
<path fill="none" stroke="#63b8ff" d="M907.44,-587.65C888.24,-600.42 858.95,-618.23 831,-628.5 821.69,-631.92 811.62,-634.72 801.63,-637"/>
<polygon fill="#63b8ff" stroke="#63b8ff" points="909.44,-590.51 915.75,-582 905.51,-584.72 909.44,-590.51"/>
</a>
</g>
</g>
<!-- Node23 -->
<g id="Node000023" class="node">
<title>Node23</title>
<g id="a_Node000023"><a xlink:href="namespacettg__madness.html#a7170a1b75839c894aaeddebecb8d1eb7" target="_top" xlink:title=" ">
<polygon fill="white" stroke="#666666" points="801.5,-619 666.5,-619 666.5,-600 801.5,-600 801.5,-619"/>
<text text-anchor="middle" x="734" y="-607" font-family="Times,serif" font-size="10.00">ttg_madness::ttg_fence</text>
</a>
</g>
</g>
<!-- Node2&#45;&gt;Node23 -->
<g id="edge23_Node000002_Node000023" class="edge">
<title>Node2&#45;&gt;Node23</title>
<g id="a_edge23_Node000002_Node000023"><a xlink:title=" ">
<path fill="none" stroke="#63b8ff" d="M868.97,-583.95C842.08,-589.08 810.74,-595.06 785.13,-599.94"/>
<polygon fill="#63b8ff" stroke="#63b8ff" points="869.87,-587.34 879.04,-582.03 868.56,-580.46 869.87,-587.34"/>
</a>
</g>
</g>
<!-- Node25 -->
<g id="Node000025" class="node">
<title>Node25</title>
<g id="a_Node000025"><a xlink:href="namespacettg__parsec.html#a00dccbf920472bed9cb0850eff7f4120" target="_top" xlink:title=" ">
<polygon fill="white" stroke="#666666" points="795.5,-582 672.5,-582 672.5,-563 795.5,-563 795.5,-582"/>
<text text-anchor="middle" x="734" y="-570" font-family="Times,serif" font-size="10.00">ttg_parsec::ttg_fence</text>
</a>
</g>
</g>
<!-- Node2&#45;&gt;Node25 -->
<g id="edge25_Node000002_Node000025" class="edge">
<title>Node2&#45;&gt;Node25</title>
<g id="a_edge25_Node000002_Node000025"><a xlink:title=" ">
<path fill="none" stroke="#63b8ff" d="M857.27,-572.5C837.08,-572.5 815.31,-572.5 795.82,-572.5"/>
<polygon fill="#63b8ff" stroke="#63b8ff" points="857.35,-576 867.35,-572.5 857.35,-569 857.35,-576"/>
</a>
</g>
</g>
<!-- Node26 -->
<g id="Node000026" class="node">
<title>Node26</title>
<g id="a_Node000026"><a xlink:href="namespacettg__parsec.html#a5008389f3116aff76f4dc8d04e3fab3b" target="_top" xlink:title=" ">
<polygon fill="white" stroke="#666666" points="800,-545 668,-545 668,-526 800,-526 800,-545"/>
<text text-anchor="middle" x="734" y="-533" font-family="Times,serif" font-size="10.00">ttg_parsec::ttg_finalize</text>
</a>
</g>
</g>
<!-- Node2&#45;&gt;Node26 -->
<g id="edge26_Node000002_Node000026" class="edge">
<title>Node2&#45;&gt;Node26</title>
<g id="a_edge26_Node000002_Node000026"><a xlink:title=" ">
<path fill="none" stroke="#63b8ff" d="M870.02,-561C857.16,-558.52 843.63,-555.91 831,-553.5 816.51,-550.74 800.78,-547.77 786.33,-545.06"/>
<polygon fill="#63b8ff" stroke="#63b8ff" points="869.68,-564.5 880.16,-562.97 871.01,-557.63 869.68,-564.5"/>
</a>
</g>
</g>
<!-- Node27 -->
<g id="Node000027" class="node">
<title>Node27</title>
<g id="a_Node000027"><a xlink:href="namespacettg__madness.html#ac204e7982638f6d23f22365a73fc2795" target="_top" xlink:title=" ">
<polygon fill="white" stroke="#666666" points="807.5,-507.5 660.5,-507.5 660.5,-477.5 807.5,-477.5 807.5,-507.5"/>
<text text-anchor="start" x="668.5" y="-495.5" font-family="Times,serif" font-size="10.00">ttg_madness::ttg_register</text>
<text text-anchor="middle" x="734" y="-484.5" font-family="Times,serif" font-size="10.00">_callback</text>
</a>
</g>
</g>
<!-- Node2&#45;&gt;Node27 -->
<g id="edge27_Node000002_Node000027" class="edge">
<title>Node2&#45;&gt;Node27</title>
<g id="a_edge27_Node000002_Node000027"><a xlink:title=" ">
<path fill="none" stroke="#63b8ff" d="M877.85,-559.14C874.08,-557.46 870.42,-555.59 867,-553.5 847.42,-541.54 850.89,-527.94 831,-516.5 823.78,-512.35 815.85,-508.9 807.73,-506.05"/>
<polygon fill="#63b8ff" stroke="#63b8ff" points="876.8,-562.49 887.39,-562.92 879.39,-555.98 876.8,-562.49"/>
</a>
</g>
</g>
<!-- Node28 -->
<g id="Node000028" class="node">
<title>Node28</title>
<g id="a_Node000028"><a xlink:href="namespacettg__parsec.html#a9adea5fc9a753510bb1aaa1a207036ec" target="_top" xlink:title=" ">
<polygon fill="white" stroke="#666666" points="801.5,-459.5 666.5,-459.5 666.5,-429.5 801.5,-429.5 801.5,-459.5"/>
<text text-anchor="start" x="674.5" y="-447.5" font-family="Times,serif" font-size="10.00">ttg_parsec::ttg_register</text>
<text text-anchor="middle" x="734" y="-436.5" font-family="Times,serif" font-size="10.00">_callback</text>
</a>
</g>
</g>
<!-- Node2&#45;&gt;Node28 -->
<g id="edge28_Node000002_Node000028" class="edge">
<title>Node2&#45;&gt;Node28</title>
<g id="a_edge28_Node000002_Node000028"><a xlink:title=" ">
<path fill="none" stroke="#63b8ff" d="M872.54,-557.81C870.59,-556.5 868.73,-555.06 867,-553.5 836.53,-526.03 862.18,-495.17 831,-468.5 822.64,-461.35 812.47,-456.28 801.9,-452.69"/>
<polygon fill="#63b8ff" stroke="#63b8ff" points="871.17,-561.05 881.6,-562.86 874.57,-554.94 871.17,-561.05"/>
</a>
</g>
</g>
<!-- Node29 -->
<g id="Node000029" class="node">
<title>Node29</title>
<g id="a_Node000029"><a xlink:href="namespacettg__madness.html#a08d62ebfdece9271a130890dceb5cf62" target="_top" xlink:title=" ">
<polygon fill="white" stroke="#666666" points="817.5,-411 650.5,-411 650.5,-392 817.5,-392 817.5,-411"/>
<text text-anchor="middle" x="734" y="-399" font-family="Times,serif" font-size="10.00">ttg_madness::ttg_register_ptr</text>
</a>
</g>
</g>
<!-- Node2&#45;&gt;Node29 -->
<g id="edge29_Node000002_Node000029" class="edge">
<title>Node2&#45;&gt;Node29</title>
<g id="a_edge29_Node000002_Node000029"><a xlink:title=" ">
<path fill="none" stroke="#63b8ff" d="M871.53,-557.54C869.93,-556.3 868.41,-554.96 867,-553.5 824.42,-509.49 875.77,-462.28 831,-420.5 827.03,-416.79 822.54,-413.71 817.75,-411.16"/>
<polygon fill="#63b8ff" stroke="#63b8ff" points="869.83,-560.61 880.16,-562.94 873.54,-554.67 869.83,-560.61"/>
</a>
</g>
</g>
<!-- Node30 -->
<g id="Node000030" class="node">
<title>Node30</title>
<g id="a_Node000030"><a xlink:href="namespacettg__parsec.html#a58b02ce5076ebca5916db77288563ed8" target="_top" xlink:title=" ">
<polygon fill="white" stroke="#666666" points="811.5,-374 656.5,-374 656.5,-355 811.5,-355 811.5,-374"/>
<text text-anchor="middle" x="734" y="-362" font-family="Times,serif" font-size="10.00">ttg_parsec::ttg_register_ptr</text>
</a>
</g>
</g>
<!-- Node2&#45;&gt;Node30 -->
<g id="edge30_Node000002_Node000030" class="edge">
<title>Node2&#45;&gt;Node30</title>
<g id="a_edge30_Node000002_Node000030"><a xlink:title=" ">
<path fill="none" stroke="#63b8ff" d="M870.94,-557.25C869.55,-556.09 868.23,-554.84 867,-553.5 814.6,-496.17 886.52,-436.81 831,-382.5 825.42,-377.05 818.75,-372.97 811.56,-369.95"/>
<polygon fill="#63b8ff" stroke="#63b8ff" points="869.37,-560.41 879.64,-563 873.22,-554.57 869.37,-560.41"/>
</a>
</g>
</g>
<!-- Node31 -->
<g id="Node000031" class="node">
<title>Node31</title>
<g id="a_Node000031"><a xlink:href="namespacettg__madness.html#ada271902b7d62b26d1f981cb9090ad38" target="_top" xlink:title=" ">
<polygon fill="white" stroke="#666666" points="817.5,-337 650.5,-337 650.5,-318 817.5,-318 817.5,-337"/>
<text text-anchor="middle" x="734" y="-325" font-family="Times,serif" font-size="10.00">ttg_madness::ttg_register_ptr</text>
</a>
</g>
</g>
<!-- Node2&#45;&gt;Node31 -->
<g id="edge31_Node000002_Node000031" class="edge">
<title>Node2&#45;&gt;Node31</title>
<g id="a_edge31_Node000002_Node000031"><a xlink:title=" ">
<path fill="none" stroke="#63b8ff" d="M870.79,-557.24C869.45,-556.08 868.18,-554.84 867,-553.5 804.97,-483.12 896.87,-412.3 831,-345.5 827.07,-341.52 822.56,-338.26 817.68,-335.61"/>
<polygon fill="#63b8ff" stroke="#63b8ff" points="868.96,-560.23 879.2,-562.96 872.9,-554.44 868.96,-560.23"/>
</a>
</g>
</g>
<!-- Node32 -->
<g id="Node000032" class="node">
<title>Node32</title>
<g id="a_Node000032"><a xlink:href="namespacettg__parsec.html#a72c14794c9a6d19714037fb75d3b0bf3" target="_top" xlink:title=" ">
<polygon fill="white" stroke="#666666" points="811.5,-300 656.5,-300 656.5,-281 811.5,-281 811.5,-300"/>
<text text-anchor="middle" x="734" y="-288" font-family="Times,serif" font-size="10.00">ttg_parsec::ttg_register_ptr</text>
</a>
</g>
</g>
<!-- Node2&#45;&gt;Node32 -->
<g id="edge32_Node000002_Node000032" class="edge">
<title>Node2&#45;&gt;Node32</title>
<g id="a_edge32_Node000002_Node000032"><a xlink:title=" ">
<path fill="none" stroke="#63b8ff" d="M870.3,-556.88C869.14,-555.83 868.03,-554.7 867,-553.5 795.29,-470.01 907.27,-387.84 831,-308.5 825.59,-302.88 819.03,-298.69 811.9,-295.61"/>
<polygon fill="#63b8ff" stroke="#63b8ff" points="868.61,-559.97 878.8,-562.89 872.65,-554.26 868.61,-559.97"/>
</a>
</g>
</g>
<!-- Node33 -->
<g id="Node000033" class="node">
<title>Node33</title>
<g id="a_Node000033"><a xlink:href="namespacettg__madness.html#a4da27b0c7cae846efe3cea1854e5bd85" target="_top" xlink:title=" ">
<polygon fill="white" stroke="#666666" points="807.5,-262.5 660.5,-262.5 660.5,-232.5 807.5,-232.5 807.5,-262.5"/>
<text text-anchor="start" x="668.5" y="-250.5" font-family="Times,serif" font-size="10.00">ttg_madness::ttg_register</text>
<text text-anchor="middle" x="734" y="-239.5" font-family="Times,serif" font-size="10.00">_status</text>
</a>
</g>
</g>
<!-- Node2&#45;&gt;Node33 -->
<g id="edge33_Node000002_Node000033" class="edge">
<title>Node2&#45;&gt;Node33</title>
<g id="a_edge33_Node000002_Node000033"><a xlink:title=" ">
<path fill="none" stroke="#63b8ff" d="M870.27,-556.91C869.12,-555.85 868.02,-554.71 867,-553.5 785.58,-456.88 914.92,-365.96 831,-271.5 824.61,-264.31 816.42,-259.11 807.53,-255.39"/>
<polygon fill="#63b8ff" stroke="#63b8ff" points="868.56,-559.98 878.73,-562.95 872.63,-554.29 868.56,-559.98"/>
</a>
</g>
</g>
<!-- Node34 -->
<g id="Node000034" class="node">
<title>Node34</title>
<g id="a_Node000034"><a xlink:href="namespacettg__parsec.html#afea16e36cb06d854595a8764265cc833" target="_top" xlink:title=" ">
<polygon fill="white" stroke="#666666" points="801.5,-214.5 666.5,-214.5 666.5,-184.5 801.5,-184.5 801.5,-214.5"/>
<text text-anchor="start" x="674.5" y="-202.5" font-family="Times,serif" font-size="10.00">ttg_parsec::ttg_register</text>
<text text-anchor="middle" x="734" y="-191.5" font-family="Times,serif" font-size="10.00">_status</text>
</a>
</g>
</g>
<!-- Node2&#45;&gt;Node34 -->
<g id="edge34_Node000002_Node000034" class="edge">
<title>Node2&#45;&gt;Node34</title>
<g id="a_edge34_Node000002_Node000034"><a xlink:title=" ">
<path fill="none" stroke="#63b8ff" d="M870.17,-556.86C869.05,-555.81 867.99,-554.69 867,-553.5 772.97,-439.81 927.98,-334.69 831,-223.5 823.32,-214.7 812.95,-208.88 801.85,-205.08"/>
<polygon fill="#63b8ff" stroke="#63b8ff" points="868.22,-559.77 878.36,-562.84 872.35,-554.12 868.22,-559.77"/>
</a>
</g>
</g>
<!-- Node35 -->
<g id="Node000035" class="node">
<title>Node35</title>
<g id="a_Node000035"><a xlink:href="namespacettg__parsec.html#afcb43c3d2d3c066d2c8c589914a27676" target="_top" xlink:title=" ">
<polygon fill="white" stroke="#666666" points="792.5,-166 675.5,-166 675.5,-147 792.5,-147 792.5,-166"/>
<text text-anchor="middle" x="734" y="-154" font-family="Times,serif" font-size="10.00">ttg_parsec::ttg_sum</text>
</a>
</g>
</g>
<!-- Node2&#45;&gt;Node35 -->
<g id="edge35_Node000002_Node000035" class="edge">
<title>Node2&#45;&gt;Node35</title>
<g id="a_edge35_Node000002_Node000035"><a xlink:title=" ">
<path fill="none" stroke="#63b8ff" d="M870.15,-556.88C869.03,-555.83 867.98,-554.7 867,-553.5 813.67,-488.11 887.6,-238.09 831,-175.5 821.14,-164.6 806.99,-158.9 792.56,-156.12"/>
<polygon fill="#63b8ff" stroke="#63b8ff" points="868.18,-559.78 878.31,-562.89 872.33,-554.14 868.18,-559.78"/>
</a>
</g>
</g>
<!-- Node36 -->
<g id="Node000036" class="node">
<title>Node36</title>
<g id="a_Node000036"><a xlink:href="namespacettg__madness.html#a6d7ccf702d68f5173ac51b116a9a66ed" target="_top" xlink:title=" ">
<polygon fill="white" stroke="#666666" points="798.5,-129 669.5,-129 669.5,-110 798.5,-110 798.5,-129"/>
<text text-anchor="middle" x="734" y="-117" font-family="Times,serif" font-size="10.00">ttg_madness::ttg_sum</text>
</a>
</g>
</g>
<!-- Node2&#45;&gt;Node36 -->
<g id="edge36_Node000002_Node000036" class="edge">
<title>Node2&#45;&gt;Node36</title>
<g id="a_edge36_Node000002_Node000036"><a xlink:title=" ">
<path fill="none" stroke="#63b8ff" d="M870.13,-556.89C869.02,-555.83 867.97,-554.7 867,-553.5 808.66,-481.34 893.28,-206.28 831,-137.5 822.58,-128.2 811,-122.77 798.8,-119.75"/>
<polygon fill="#63b8ff" stroke="#63b8ff" points="868.15,-559.78 878.27,-562.92 872.32,-554.15 868.15,-559.78"/>
</a>
</g>
</g>
<!-- Node4 -->
<g id="Node000004" class="node">
<title>Node4</title>
<g id="a_Node000004"><a xlink:href="classttg__parsec_1_1_t_t.html#a64de0f4a0e71bd0dab69161ce619794d" target="_top" xlink:title=" ">
<polygon fill="white" stroke="#666666" points="599.5,-86 468.5,-86 468.5,-67 599.5,-67 599.5,-86"/>
<text text-anchor="middle" x="534" y="-74" font-family="Times,serif" font-size="10.00">ttg_parsec::TT::release</text>
</a>
</g>
</g>
<!-- Node3&#45;&gt;Node4 -->
<g id="edge3_Node000003_Node000004" class="edge">
<title>Node3&#45;&gt;Node4</title>
<g id="a_edge3_Node000003_Node000004"><a xlink:title=" ">
<path fill="none" stroke="#63b8ff" d="M670.35,-76.5C647.87,-76.5 622.49,-76.5 599.82,-76.5"/>
<polygon fill="#63b8ff" stroke="#63b8ff" points="670.46,-80 680.46,-76.5 670.46,-73 670.46,-80"/>
</a>
</g>
</g>
<!-- Node5 -->
<g id="Node000005" class="node">
<title>Node5</title>
<g id="a_Node000005"><a xlink:href="classttg__parsec_1_1_t_t.html#a765cc9ec66725e266e1fb7708cc5791d" target="_top" xlink:title=" ">
<polygon fill="white" stroke="#666666" points="431,-163.5 300,-163.5 300,-133.5 431,-133.5 431,-163.5"/>
<text text-anchor="start" x="308" y="-151.5" font-family="Times,serif" font-size="10.00">ttg_parsec::TT::release</text>
<text text-anchor="middle" x="365.5" y="-140.5" font-family="Times,serif" font-size="10.00">_constraint</text>
</a>
</g>
</g>
<!-- Node4&#45;&gt;Node5 -->
<g id="edge4_Node000004_Node000005" class="edge">
<title>Node4&#45;&gt;Node5</title>
<g id="a_edge4_Node000004_Node000005"><a xlink:title=" ">
<path fill="none" stroke="#63b8ff" d="M505.02,-90.44C484.68,-100.38 456.39,-113.83 431,-124.5 423.84,-127.51 416.16,-130.54 408.68,-133.38"/>
<polygon fill="#63b8ff" stroke="#63b8ff" points="506.61,-93.56 514.04,-86.01 503.52,-87.28 506.61,-93.56"/>
</a>
</g>
</g>
<!-- Node10 -->
<g id="Node000010" class="node">
<title>Node10</title>
<g id="a_Node000010"><a xlink:href="classttg__parsec_1_1_t_t.html#a00177662d76d11b5717ebc4f1affbb0d" target="_top" xlink:title=" ">
<polygon fill="white" stroke="#666666" points="431,-115.5 300,-115.5 300,-85.5 431,-85.5 431,-115.5"/>
<text text-anchor="start" x="308" y="-103.5" font-family="Times,serif" font-size="10.00">ttg_parsec::TT::release</text>
<text text-anchor="middle" x="365.5" y="-92.5" font-family="Times,serif" font-size="10.00">_constraint</text>
</a>
</g>
</g>
<!-- Node4&#45;&gt;Node10 -->
<g id="edge9_Node000004_Node000010" class="edge">
<title>Node4&#45;&gt;Node10</title>
<g id="a_edge9_Node000004_Node000010"><a xlink:title=" ">
<path fill="none" stroke="#63b8ff" d="M458.09,-87.3C449.11,-88.59 439.99,-89.91 431.17,-91.18"/>
<polygon fill="#63b8ff" stroke="#63b8ff" points="458.75,-90.74 468.15,-85.85 457.75,-83.81 458.75,-90.74"/>
</a>
</g>
</g>
<!-- Node11 -->
<g id="Node000011" class="node">
<title>Node11</title>
<g id="a_Node000011"><a xlink:href="classttg__parsec_1_1_t_t.html#adc3a5e538d9a4c192168317cb0db9814" target="_top" xlink:title=" ">
<polygon fill="white" stroke="#666666" points="420.5,-67.5 310.5,-67.5 310.5,-37.5 420.5,-37.5 420.5,-67.5"/>
<text text-anchor="start" x="318.5" y="-55.5" font-family="Times,serif" font-size="10.00">ttg_parsec::TT::set</text>
<text text-anchor="middle" x="365.5" y="-44.5" font-family="Times,serif" font-size="10.00">_arg_local_impl</text>
</a>
</g>
</g>
<!-- Node4&#45;&gt;Node11 -->
<g id="edge10_Node000004_Node000011" class="edge">
<title>Node4&#45;&gt;Node11</title>
<g id="a_edge10_Node000004_Node000011"><a xlink:title=" ">
<path fill="none" stroke="#63b8ff" d="M458.11,-65.71C445.5,-63.89 432.62,-62.03 420.67,-60.31"/>
<polygon fill="#63b8ff" stroke="#63b8ff" points="457.75,-69.19 468.15,-67.15 458.75,-62.26 457.75,-69.19"/>
</a>
</g>
</g>
<!-- Node12 -->
<g id="Node000012" class="node">
<title>Node12</title>
<g id="a_Node000012"><a xlink:href="classttg__parsec_1_1_t_t.html#a47eb6b88e566c5bd85a92e21ab471889" target="_top" xlink:title=" ">
<polygon fill="white" stroke="#666666" points="423.5,-19 307.5,-19 307.5,0 423.5,0 423.5,-19"/>
<text text-anchor="middle" x="365.5" y="-7" font-family="Times,serif" font-size="10.00">ttg_parsec::TT::~TT</text>
</a>
</g>
</g>
<!-- Node4&#45;&gt;Node12 -->
<g id="edge11_Node000004_Node000012" class="edge">
<title>Node4&#45;&gt;Node12</title>
<g id="a_edge11_Node000004_Node000012"><a xlink:title=" ">
<path fill="none" stroke="#63b8ff" d="M505.98,-62.39C485.7,-52.15 457.06,-38.4 431,-28.5 421.94,-25.06 411.98,-21.85 402.65,-19.09"/>
<polygon fill="#63b8ff" stroke="#63b8ff" points="504.44,-65.54 514.94,-66.96 507.62,-59.3 504.44,-65.54"/>
</a>
</g>
</g>
<!-- Node6 -->
<g id="Node000006" class="node">
<title>Node6</title>
<g id="a_Node000006"><a xlink:href="classttg__parsec_1_1_t_t.html#a24ea8b57fe2846efcab06e6fc80190d2" target="_top" xlink:title=" ">
<polygon fill="white" stroke="#666666" points="264,-187.5 150,-187.5 150,-157.5 264,-157.5 264,-187.5"/>
<text text-anchor="start" x="158" y="-175.5" font-family="Times,serif" font-size="10.00">ttg_parsec::TT::add</text>
<text text-anchor="middle" x="207" y="-164.5" font-family="Times,serif" font-size="10.00">_constraint</text>
</a>
</g>
</g>
<!-- Node5&#45;&gt;Node6 -->
<g id="edge5_Node000005_Node000006" class="edge">
<title>Node5&#45;&gt;Node6</title>
<g id="a_edge5_Node000005_Node000006"><a xlink:title=" ">
<path fill="none" stroke="#63b8ff" d="M289.92,-159.94C281.34,-161.25 272.7,-162.58 264.41,-163.85"/>
<polygon fill="#63b8ff" stroke="#63b8ff" points="290.59,-163.38 299.94,-158.4 289.53,-156.46 290.59,-163.38"/>
</a>
</g>
</g>
<!-- Node9 -->
<g id="Node000009" class="node">
<title>Node9</title>
<g id="a_Node000009"><a xlink:href="classttg__parsec_1_1_t_t.html#a4d8ac0fb1bdaaaa57ff186fef88e24af" target="_top" xlink:title=" ">
<polygon fill="white" stroke="#666666" points="264,-139.5 150,-139.5 150,-109.5 264,-109.5 264,-139.5"/>
<text text-anchor="start" x="158" y="-127.5" font-family="Times,serif" font-size="10.00">ttg_parsec::TT::add</text>
<text text-anchor="middle" x="207" y="-116.5" font-family="Times,serif" font-size="10.00">_constraint</text>
</a>
</g>
</g>
<!-- Node5&#45;&gt;Node9 -->
<g id="edge8_Node000005_Node000009" class="edge">
<title>Node5&#45;&gt;Node9</title>
<g id="a_edge8_Node000005_Node000009"><a xlink:title=" ">
<path fill="none" stroke="#63b8ff" d="M289.92,-137.06C281.34,-135.75 272.7,-134.42 264.41,-133.15"/>
<polygon fill="#63b8ff" stroke="#63b8ff" points="289.53,-140.54 299.94,-138.6 290.59,-133.62 289.53,-140.54"/>
</a>
</g>
</g>
<!-- Node7 -->
<g id="Node000007" class="node">
<title>Node7</title>
<g id="a_Node000007"><a xlink:href="classttg__parsec_1_1_t_t.html#ab2809ed93f5b416ca4bee4c8fc7c90ee" target="_top" xlink:title=" ">
<polygon fill="white" stroke="#666666" points="114,-211.5 0,-211.5 0,-181.5 114,-181.5 114,-211.5"/>
<text text-anchor="start" x="8" y="-199.5" font-family="Times,serif" font-size="10.00">ttg_parsec::TT::add</text>
<text text-anchor="middle" x="57" y="-188.5" font-family="Times,serif" font-size="10.00">_constraint</text>
</a>
</g>
</g>
<!-- Node6&#45;&gt;Node7 -->
<g id="edge6_Node000006_Node000007" class="edge">
<title>Node6&#45;&gt;Node7</title>
<g id="a_edge6_Node000006_Node000007"><a xlink:title=" ">
<path fill="none" stroke="#63b8ff" d="M139.72,-183.25C131.2,-184.63 122.55,-186.03 114.22,-187.38"/>
<polygon fill="#63b8ff" stroke="#63b8ff" points="140.31,-186.7 149.63,-181.64 139.19,-179.79 140.31,-186.7"/>
</a>
</g>
</g>
<!-- Node8 -->
<g id="Node000008" class="node">
<title>Node8</title>
<g id="a_Node000008"><a xlink:href="classttg__parsec_1_1_t_t.html#a090da9fb01ff9bca0f0d419a3a054ce0" target="_top" xlink:title=" ">
<polygon fill="white" stroke="#666666" points="114,-163.5 0,-163.5 0,-133.5 114,-133.5 114,-163.5"/>
<text text-anchor="start" x="8" y="-151.5" font-family="Times,serif" font-size="10.00">ttg_parsec::TT::add</text>
<text text-anchor="middle" x="57" y="-140.5" font-family="Times,serif" font-size="10.00">_constraint</text>
</a>
</g>
</g>
<!-- Node6&#45;&gt;Node8 -->
<g id="edge7_Node000006_Node000008" class="edge">
<title>Node6&#45;&gt;Node8</title>
<g id="a_edge7_Node000006_Node000008"><a xlink:title=" ">
<path fill="none" stroke="#63b8ff" d="M139.72,-161.75C131.2,-160.37 122.55,-158.97 114.22,-157.62"/>
<polygon fill="#63b8ff" stroke="#63b8ff" points="139.19,-165.21 149.63,-163.36 140.31,-158.3 139.19,-165.21"/>
</a>
</g>
</g>
<!-- Node15&#45;&gt;Node13 -->
<g id="edge15_Node000015_Node000013" class="edge">
<title>Node15&#45;&gt;Node13</title>
<g id="a_edge15_Node000015_Node000013"><a xlink:title=" ">
<path fill="none" stroke="#63b8ff" d="M656.6,-904.01C636.23,-901.75 614.5,-899.33 595.14,-897.18"/>
<polygon fill="#63b8ff" stroke="#63b8ff" points="656.47,-907.52 666.79,-905.14 657.24,-900.56 656.47,-907.52"/>
</a>
</g>
</g>
<!-- Node24 -->
<g id="Node000024" class="node">
<title>Node24</title>
<g id="a_Node000024"><a xlink:href="classttg__madness_1_1_t_t.html#a2b9b2c34c03421e054a496e8ea618df1" target="_top" xlink:title="Waits for the entire TTG associated with this TT to be completed (collective)">
<polygon fill="white" stroke="#666666" points="601,-619 467,-619 467,-600 601,-600 601,-619"/>
<text text-anchor="middle" x="534" y="-607" font-family="Times,serif" font-size="10.00">ttg_madness::TT::fence</text>
</a>
</g>
</g>
<!-- Node23&#45;&gt;Node24 -->
<g id="edge24_Node000023_Node000024" class="edge">
<title>Node23&#45;&gt;Node24</title>
<g id="a_edge24_Node000023_Node000024"><a xlink:title=" ">
<path fill="none" stroke="#63b8ff" d="M656.01,-609.5C637.88,-609.5 618.73,-609.5 601.13,-609.5"/>
<polygon fill="#63b8ff" stroke="#63b8ff" points="656.24,-613 666.24,-609.5 656.24,-606 656.24,-613"/>
</a>
</g>
</g>
<!-- Node38&#45;&gt;Node16 -->
<g id="edge41_Node000038_Node000016" class="edge">
<title>Node38&#45;&gt;Node16</title>
<g id="a_edge41_Node000038_Node000016"><a xlink:title=" ">
<path fill="none" stroke="#63b8ff" d="M912.03,-1044.8C893.57,-1027.53 862.47,-1000.98 831,-985.5 818.02,-979.11 803.22,-974.23 789.2,-970.54"/>
<polygon fill="#63b8ff" stroke="#63b8ff" points="909.7,-1047.42 919.35,-1051.79 914.53,-1042.35 909.7,-1047.42"/>
</a>
</g>
</g>
<!-- Node38&#45;&gt;Node18 -->
<g id="edge44_Node000038_Node000018" class="edge">
<title>Node38&#45;&gt;Node18</title>
<g id="a_edge44_Node000038_Node000018"><a xlink:title=" ">
<path fill="none" stroke="#63b8ff" d="M898.98,-1047.89C879.84,-1039.63 854.33,-1029.39 831,-1022.5 818.62,-1018.84 805.12,-1015.68 792.27,-1013.05"/>
<polygon fill="#63b8ff" stroke="#63b8ff" points="897.8,-1051.19 908.36,-1052 900.61,-1044.78 897.8,-1051.19"/>
</a>
</g>
</g>
<!-- Node39 -->
<g id="Node000039" class="node">
<title>Node39</title>
<g id="a_Node000039"><a xlink:href="namespacettg.html#a0db3006a84c1ea69ab2401d3ed53df52" target="_top" xlink:title=" ">
<polygon fill="white" stroke="#666666" points="784,-1136 684,-1136 684,-1117 784,-1117 784,-1136"/>
<text text-anchor="middle" x="734" y="-1124" font-family="Times,serif" font-size="10.00">ttg::invoke_once</text>
</a>
</g>
</g>
<!-- Node38&#45;&gt;Node39 -->
<g id="edge39_Node000038_Node000039" class="edge">
<title>Node38&#45;&gt;Node39</title>
<g id="a_edge39_Node000038_Node000039"><a xlink:title=" ">
<path fill="none" stroke="#63b8ff" d="M902.75,-1075.97C883.41,-1086.09 856.21,-1099.23 831,-1107.5 816.15,-1112.37 799.57,-1116.2 784.43,-1119.1"/>
<polygon fill="#63b8ff" stroke="#63b8ff" points="904.64,-1078.93 911.82,-1071.14 901.35,-1072.75 904.64,-1078.93"/>
</a>
</g>
</g>
<!-- Node40 -->
<g id="Node000040" class="node">
<title>Node40</title>
<g id="a_Node000040"><a xlink:href="classttg__madness_1_1_t_t.html#a6ccad7e7bea21e526167e5b79adba1a2" target="_top" xlink:title=" ">
<polygon fill="white" stroke="#666666" points="795,-1098.5 673,-1098.5 673,-1068.5 795,-1068.5 795,-1098.5"/>
<text text-anchor="start" x="681" y="-1086.5" font-family="Times,serif" font-size="10.00">ttg_madness::TT::set</text>
<text text-anchor="middle" x="734" y="-1075.5" font-family="Times,serif" font-size="10.00">_input_reducer</text>
</a>
</g>
</g>
<!-- Node38&#45;&gt;Node40 -->
<g id="edge40_Node000038_Node000040" class="edge">
<title>Node38&#45;&gt;Node40</title>
<g id="a_edge40_Node000038_Node000040"><a xlink:title=" ">
<path fill="none" stroke="#63b8ff" d="M856.7,-1069.7C836.44,-1072 814.65,-1074.47 795.18,-1076.68"/>
<polygon fill="#63b8ff" stroke="#63b8ff" points="857.27,-1073.16 866.82,-1068.55 856.49,-1066.2 857.27,-1073.16"/>
</a>
</g>
</g>
<!-- Node41 -->
<g id="Node000041" class="node">
<title>Node41</title>
<g id="a_Node000041"><a xlink:href="classttg__madness_1_1_t_t.html#a5aea2d05192a06d6b6165fcd406b1eba" target="_top" xlink:title=" ">
<polygon fill="white" stroke="#666666" points="794,-1050 674,-1050 674,-1031 794,-1031 794,-1050"/>
<text text-anchor="middle" x="734" y="-1038" font-family="Times,serif" font-size="10.00">ttg_madness::TT::TT</text>
</a>
</g>
</g>
<!-- Node38&#45;&gt;Node41 -->
<g id="edge42_Node000038_Node000041" class="edge">
<title>Node38&#45;&gt;Node41</title>
<g id="a_edge42_Node000038_Node000041"><a xlink:title=" ">
<path fill="none" stroke="#63b8ff" d="M856.83,-1053.69C836.2,-1051.45 813.95,-1049.05 794.19,-1046.91"/>
<polygon fill="#63b8ff" stroke="#63b8ff" points="856.5,-1057.17 866.82,-1054.77 857.25,-1050.21 856.5,-1057.17"/>
</a>
</g>
</g>
<!-- Node42 -->
<g id="Node000042" class="node">
<title>Node42</title>
<g id="a_Node000042"><a xlink:href="classttg__madness_1_1_t_t.html#a3b9de627838456d8c208bb3cc4da7c20" target="_top" xlink:title=" ">
<polygon fill="white" stroke="#666666" points="794,-1210 674,-1210 674,-1191 794,-1191 794,-1210"/>
<text text-anchor="middle" x="734" y="-1198" font-family="Times,serif" font-size="10.00">ttg_madness::TT::TT</text>
</a>
</g>
</g>
<!-- Node38&#45;&gt;Node42 -->
<g id="edge43_Node000038_Node000042" class="edge">
<title>Node38&#45;&gt;Node42</title>
<g id="a_edge43_Node000038_Node000042"><a xlink:title=" ">
<path fill="none" stroke="#63b8ff" d="M919.47,-1080.21C904.54,-1107.44 872.98,-1157.47 831,-1182.5 819.93,-1189.1 806.97,-1193.37 794.22,-1196.11"/>
<polygon fill="#63b8ff" stroke="#63b8ff" points="922.6,-1081.77 924.2,-1071.3 916.42,-1078.49 922.6,-1081.77"/>
</a>
</g>
</g>
<!-- Node43 -->
<g id="Node000043" class="node">
<title>Node43</title>
<g id="a_Node000043"><a xlink:href="classttg__madness_1_1_t_t.html#a7a61ba733971b13989500f3be274e5cf" target="_top" xlink:title=" ">
<polygon fill="white" stroke="#666666" points="798,-1173 670,-1173 670,-1154 798,-1154 798,-1173"/>
<text text-anchor="middle" x="734" y="-1161" font-family="Times,serif" font-size="10.00">ttg_madness::TT::~TT</text>
</a>
</g>
</g>
<!-- Node38&#45;&gt;Node43 -->
<g id="edge45_Node000038_Node000043" class="edge">
<title>Node38&#45;&gt;Node43</title>
<g id="a_edge45_Node000038_Node000043"><a xlink:title=" ">
<path fill="none" stroke="#63b8ff" d="M914.26,-1078.68C896.54,-1098.14 864.95,-1129.23 831,-1145.5 820.83,-1150.37 809.47,-1153.93 798.22,-1156.53"/>
<polygon fill="#63b8ff" stroke="#63b8ff" points="916.94,-1080.94 920.96,-1071.14 911.7,-1076.29 916.94,-1080.94"/>
</a>
</g>
</g>
</g>
</svg>

<g id="navigator" transform="translate(0 0)" fill="#404254">
  <rect fill="#f2f5e9" fill-opacity="0.5" stroke="#606060" stroke-width=".5" x="0" y="0" width="60" height="60"/>
  <use id="zoomplus" xlink:href="#zoomPlus" x="17" y="9" onmousedown="handleZoom(evt,'in')"/>
  <use id="zoomminus" xlink:href="#zoomMin" x="42" y="9" onmousedown="handleZoom(evt,'out')"/>
  <use id="reset" xlink:href="#resetDef" x="30" y="36" onmousedown="handleReset()"/>
   <use id="arrowup" xlink:href="#arrowUp" x="0" y="0" onmousedown="handlePan(0,-1)"/>
  <use id="arrowright" xlink:href="#arrowRight" x="0" y="0" onmousedown="handlePan(1,0)"/>
  <use id="arrowdown" xlink:href="#arrowDown" x="0" y="0" onmousedown="handlePan(0,1)"/>
  <use id="arrowleft" xlink:href="#arrowLeft" x="0" y="0" onmousedown="handlePan(-1,0)"/>
</g>
<svg viewBox="0 0 15 15" width="100%" height="30px" preserveAspectRatio="xMaxYMin meet">
 <g id="arrow_out" transform="scale(0.3 0.3)">
  <a xlink:href="classttg_1_1base_1_1_world_af39ca1832f455a94134515f94aaa8533_icgraph_org.svg" target="_base">
   <rect id="button" ry="5" rx="5" y="6" x="6" height="38" width="38"
        fill="#f2f5e9" fill-opacity="0.5" stroke="#606060" stroke-width="1.0"/>
   <path id="arrow"
     d="M 11.500037,31.436501 C 11.940474,20.09759 22.043105,11.32322 32.158766,21.979434 L 37.068811,17.246167 C 37.068811,17.246167 37.088388,32 37.088388,32 L 22.160133,31.978069 C 22.160133,31.978069 26.997745,27.140456 26.997745,27.140456 C 18.528582,18.264221 13.291696,25.230495 11.500037,31.436501 z"
     style="fill:#404040;"/>
  </a>
 </g>
</svg>

<style type='text/css'>
<![CDATA[
[data-mouse-over-selected='false'] { opacity: 0.7; }
[data-mouse-over-selected='true']  { opacity: 1.0; }
]]>
</style>
<script type="application/ecmascript"><![CDATA[
document.addEventListener('DOMContentLoaded', (event) => {
  highlightEdges();
  highlightAdjacentNodes();
});
]]></script>
</svg>
