<?xml version="1.0" encoding="UTF-8" standalone="no"?>
<!DOCTYPE svg PUBLIC "-//W3C//DTD SVG 1.1//EN"
 "http://www.w3.org/Graphics/SVG/1.1/DTD/svg11.dtd">
<!-- Generated by graphviz version 2.43.0 (0)
 -->
<!-- Title: ttg_parsec::TT::release Pages: 1 -->
<!--zoomable 178 -->

<svg id="main" version="1.1" xmlns="http://www.w3.org/2000/svg" xmlns:xlink="http://www.w3.org/1999/xlink" xml:space="preserve" onload="init(evt)">
<style type="text/css"><![CDATA[
.node, .edge {opacity: 0.7;}
.node.selected, .edge.selected {opacity: 1;}
.edge:hover path { stroke: red; }
.edge:hover polygon { stroke: red; fill: red; }
]]></style>

<defs>
  <circle id="rim" cx="0" cy="0" r="7"/>
  <circle id="rim2" cx="0" cy="0" r="3.5"/>
  <g id="zoomPlus">
    <use xlink:href="#rim" fill="#404040"><set attributeName="fill" to="#808080" begin="zoomplus.mouseover" end="zoomplus.mouseout"/></use>
    <path d="M-4,0h8M0,-4v8" fill="none" stroke="white" stroke-width="1.5" pointer-events="none"/>
  </g>
  <g id="zoomMin">
    <use xlink:href="#rim" fill="#404040"><set attributeName="fill" to="#808080" begin="zoomminus.mouseover" end="zoomminus.mouseout"/></use>
    <path d="M-4,0h8" fill="none" stroke="white" stroke-width="1.5" pointer-events="none"/>
  </g>
  <g id="arrowUp" transform="translate(30 24)">
    <use xlink:href="#rim"/>
    <path pointer-events="none" fill="none" stroke="white" stroke-width="1.5" d="M0,-3.0v7 M-2.5,-0.5L0,-3.0L2.5,-0.5"/>
  </g>
  <g id="arrowRight" transform="rotate(90) translate(36 -43)">
    <use xlink:href="#rim"/>
    <path pointer-events="none" fill="none" stroke="white" stroke-width="1.5" d="M0,-3.0v7 M-2.5,-0.5L0,-3.0L2.5,-0.5"/>
  </g>
  <g id="arrowDown" transform="rotate(180) translate(-30 -48)">
    <use xlink:href="#rim"/>
    <path pointer-events="none" fill="none" stroke="white" stroke-width="1.5" d="M0,-3.0v7 M-2.5,-0.5L0,-3.0L2.5,-0.5"/>
  </g>
  <g id="arrowLeft" transform="rotate(270) translate(-36 17)">
    <use xlink:href="#rim"/>
    <path pointer-events="none" fill="none" stroke="white" stroke-width="1.5" d="M0,-3.0v7 M-2.5,-0.5L0,-3.0L2.5,-0.5"/>
  </g>
  <g id="resetDef">
    <use xlink:href="#rim2" fill="#404040"><set attributeName="fill" to="#808080" begin="reset.mouseover" end="reset.mouseout"/></use>
  </g>
</defs>
<script type="application/ecmascript">
var viewWidth = 757;
var viewHeight = 178;
var sectionId = 'dynsection-62';
</script>
<script type="application/ecmascript" xlink:href="svg.min.js"/>
<svg id="graph" class="graph">
<g id="viewport">
<title>ttg_parsec::TT::release</title>
<!-- Node1 -->
<g id="Node000001" class="node">
<title>Node1</title>
<g id="a_Node000001"><a xlink:title=" ">
<polygon fill="#999999" stroke="#666666" points="131,-142 0,-142 0,-123 131,-123 131,-142"/>
<text text-anchor="middle" x="65.5" y="-130" font-family="Times,serif" font-size="10.00">ttg_parsec::TT::release</text>
</a>
</g>
</g>
<!-- Node2 -->
<g id="Node000002" class="node">
<title>Node2</title>
<g id="a_Node000002"><a xlink:href="classttg__parsec_1_1_t_t.html#a7f42b8147186ddf49a3c1f2a5d49255f" target="_top" xlink:title=" ">
<polygon fill="white" stroke="#666666" points="274,-147.5 167,-147.5 167,-117.5 274,-117.5 274,-147.5"/>
<text text-anchor="start" x="175" y="-135.5" font-family="Times,serif" font-size="10.00">ttg_parsec::TT::do</text>
<text text-anchor="middle" x="220.5" y="-124.5" font-family="Times,serif" font-size="10.00">_release</text>
</a>
</g>
</g>
<!-- Node1&#45;&gt;Node2 -->
<g id="edge1_Node000001_Node000002" class="edge">
<title>Node1&#45;&gt;Node2</title>
<g id="a_edge1_Node000001_Node000002"><a xlink:title=" ">
<path fill="none" stroke="#63b8ff" d="M131.39,-132.5C139.63,-132.5 148.06,-132.5 156.28,-132.5"/>
<polygon fill="#63b8ff" stroke="#63b8ff" points="156.55,-136 166.55,-132.5 156.55,-129 156.55,-136"/>
</a>
</g>
</g>
<!-- Node3 -->
<g id="Node000003" class="node">
<title>Node3</title>
<g id="a_Node000003"><a xlink:href="classttg__parsec_1_1_t_t.html#aab59a1bf0fcc4f771457b5f05cb42741" target="_top" xlink:title=" ">
<polygon fill="white" stroke="#666666" points="739,-111 628,-111 628,-92 739,-92 739,-111"/>
<text text-anchor="middle" x="683.5" y="-99" font-family="Times,serif" font-size="10.00">ttg_parsec::TT::get</text>
</a>
</g>
</g>
<!-- Node2&#45;&gt;Node3 -->
<g id="edge2_Node000002_Node000003" class="edge">
<title>Node2&#45;&gt;Node3</title>
<g id="a_edge2_Node000002_Node000003"><a xlink:title=" ">
<path fill="none" stroke="#63b8ff" d="M274.08,-146.15C345.13,-162.31 475.2,-183.81 582,-156.5 611.78,-148.88 642.22,-130.42 661.68,-116.98"/>
<polygon fill="#63b8ff" stroke="#63b8ff" points="663.93,-119.68 670.05,-111.04 659.87,-113.98 663.93,-119.68"/>
</a>
</g>
</g>
<!-- Node4 -->
<g id="Node000004" class="node">
<title>Node4</title>
<g id="a_Node000004"><a xlink:href="classttg_1_1base_1_1_world.html#aabab7c9df8f16919ab41a864c8b1adc4" target="_top" xlink:title=" ">
<polygon fill="white" stroke="#666666" points="435,-142 310,-142 310,-123 435,-123 435,-142"/>
<text text-anchor="middle" x="372.5" y="-130" font-family="Times,serif" font-size="10.00">ttg::base::World::impl</text>
</a>
</g>
</g>
<!-- Node2&#45;&gt;Node4 -->
<g id="edge4_Node000002_Node000004" class="edge">
<title>Node2&#45;&gt;Node4</title>
<g id="a_edge4_Node000002_Node000004"><a xlink:title=" ">
<path fill="none" stroke="#63b8ff" d="M274.38,-132.5C282.63,-132.5 291.27,-132.5 299.84,-132.5"/>
<polygon fill="#63b8ff" stroke="#63b8ff" points="299.86,-136 309.86,-132.5 299.86,-129 299.86,-136"/>
</a>
</g>
</g>
<!-- Node6 -->
<g id="Node000006" class="node">
<title>Node6</title>
<g id="a_Node000006"><a xlink:href="classttg__parsec_1_1_t_t.html#acec939399109ea862fb2e5d011aa9706" target="_top" xlink:title=" ">
<polygon fill="white" stroke="#666666" points="432,-104.5 313,-104.5 313,-74.5 432,-74.5 432,-104.5"/>
<text text-anchor="start" x="321" y="-92.5" font-family="Times,serif" font-size="10.00">ttg_parsec::TT::print</text>
<text text-anchor="middle" x="372.5" y="-81.5" font-family="Times,serif" font-size="10.00">_incomplete_tasks</text>
</a>
</g>
</g>
<!-- Node2&#45;&gt;Node6 -->
<g id="edge6_Node000002_Node000006" class="edge">
<title>Node2&#45;&gt;Node6</title>
<g id="a_edge6_Node000002_Node000006"><a xlink:title=" ">
<path fill="none" stroke="#63b8ff" d="M273.96,-117.46C285.38,-114.19 297.57,-110.69 309.32,-107.32"/>
<polygon fill="#63b8ff" stroke="#63b8ff" points="310.42,-110.65 319.07,-104.53 308.49,-103.92 310.42,-110.65"/>
</a>
</g>
</g>
<!-- Node3&#45;&gt;Node3 -->
<g id="edge3_Node000003_Node000003" class="edge">
<title>Node3&#45;&gt;Node3</title>
<g id="a_edge3_Node000003_Node000003"><a xlink:title=" ">
<path fill="none" stroke="#63b8ff" d="M659.46,-111.08C647.76,-119.73 655.77,-129 683.5,-129 701.7,-129 711.4,-125.01 712.62,-119.82"/>
<polygon fill="#63b8ff" stroke="#63b8ff" points="715.59,-117.97 707.54,-111.08 709.54,-121.49 715.59,-117.97"/>
</a>
</g>
</g>
<!-- Node5 -->
<g id="Node000005" class="node">
<title>Node5</title>
<g id="a_Node000005"><a xlink:href="classttg_1_1base_1_1_world.html#af39ca1832f455a94134515f94aaa8533" target="_top" xlink:title=" ">
<polygon fill="white" stroke="#666666" points="582,-147.5 471,-147.5 471,-117.5 582,-117.5 582,-147.5"/>
<text text-anchor="start" x="479" y="-135.5" font-family="Times,serif" font-size="10.00">ttg::base::World::is</text>
<text text-anchor="middle" x="526.5" y="-124.5" font-family="Times,serif" font-size="10.00">_valid</text>
</a>
</g>
</g>
<!-- Node4&#45;&gt;Node5 -->
<g id="edge5_Node000004_Node000005" class="edge">
<title>Node4&#45;&gt;Node5</title>
<g id="a_edge5_Node000004_Node000005"><a xlink:title=" ">
<path fill="none" stroke="#63b8ff" d="M435.32,-132.5C443.62,-132.5 452.15,-132.5 460.5,-132.5"/>
<polygon fill="#63b8ff" stroke="#63b8ff" points="460.57,-136 470.57,-132.5 460.57,-129 460.57,-136"/>
</a>
</g>
</g>
<!-- Node6&#45;&gt;Node3 -->
<g id="edge7_Node000006_Node000003" class="edge">
<title>Node6&#45;&gt;Node3</title>
<g id="a_edge7_Node000006_Node000003"><a xlink:title=" ">
<path fill="none" stroke="#63b8ff" d="M432.35,-91.79C485.24,-93.84 562.78,-96.85 617.48,-98.97"/>
<polygon fill="#63b8ff" stroke="#63b8ff" points="617.63,-102.48 627.76,-99.37 617.9,-95.49 617.63,-102.48"/>
</a>
</g>
</g>
<!-- Node7 -->
<g id="Node000007" class="node">
<title>Node7</title>
<g id="a_Node000007"><a xlink:href="classttg__parsec_1_1_t_t.html#a68814131fd8aa487afce9a89a5ee7f2b" target="_top" xlink:title=" ">
<polygon fill="white" stroke="#666666" points="579,-61.5 474,-61.5 474,-31.5 579,-31.5 579,-61.5"/>
<text text-anchor="start" x="482" y="-49.5" font-family="Times,serif" font-size="10.00">ttg_parsec::TT::ht</text>
<text text-anchor="middle" x="526.5" y="-38.5" font-family="Times,serif" font-size="10.00">_iter_cb</text>
</a>
</g>
</g>
<!-- Node6&#45;&gt;Node7 -->
<g id="edge8_Node000006_Node000007" class="edge">
<title>Node6&#45;&gt;Node7</title>
<g id="a_edge8_Node000006_Node000007"><a xlink:title=" ">
<path fill="none" stroke="#63b8ff" d="M426.66,-74.46C438.75,-71.04 451.7,-67.38 464.1,-63.87"/>
<polygon fill="#63b8ff" stroke="#63b8ff" points="465.23,-67.19 473.9,-61.1 463.33,-60.45 465.23,-67.19"/>
</a>
</g>
</g>
<!-- Node7&#45;&gt;Node3 -->
<g id="edge9_Node000007_Node000003" class="edge">
<title>Node7&#45;&gt;Node3</title>
<g id="a_edge9_Node000007_Node000003"><a xlink:title=" ">
<path fill="none" stroke="#63b8ff" d="M563.33,-61.63C579.84,-68.38 599.78,-76.21 618,-82.5 624.45,-84.73 631.32,-86.93 638.07,-89"/>
<polygon fill="#63b8ff" stroke="#63b8ff" points="637.25,-92.41 647.84,-91.93 639.26,-85.7 637.25,-92.41"/>
</a>
</g>
</g>
<!-- Node8 -->
<g id="Node000008" class="node">
<title>Node8</title>
<g id="a_Node000008"><a xlink:href="namespacettg_1_1meta.html#affd90f350d054c6a5b4859644d834172" target="_top" xlink:title=" ">
<polygon fill="white" stroke="#666666" points="726,-56 641,-56 641,-37 726,-37 726,-56"/>
<text text-anchor="middle" x="683.5" y="-44" font-family="Times,serif" font-size="10.00">ttg::meta::get</text>
</a>
</g>
</g>
<!-- Node7&#45;&gt;Node8 -->
<g id="edge10_Node000007_Node000008" class="edge">
<title>Node7&#45;&gt;Node8</title>
<g id="a_edge10_Node000007_Node000008"><a xlink:title=" ">
<path fill="none" stroke="#63b8ff" d="M579.11,-46.5C595.74,-46.5 614.16,-46.5 630.8,-46.5"/>
<polygon fill="#63b8ff" stroke="#63b8ff" points="630.89,-50 640.89,-46.5 630.89,-43 630.89,-50"/>
</a>
</g>
</g>
<!-- Node9 -->
<g id="Node000009" class="node">
<title>Node9</title>
<g id="a_Node000009"><a xlink:href="classttg_1_1_t_t_base.html#ade3b1e6b149fe1124f7192aeca5f715c" target="_top" xlink:title="Gets the name of this operation.">
<polygon fill="white" stroke="#666666" points="749,-19 618,-19 618,0 749,0 749,-19"/>
<text text-anchor="middle" x="683.5" y="-7" font-family="Times,serif" font-size="10.00">ttg::TTBase::get_name</text>
</a>
</g>
</g>
<!-- Node7&#45;&gt;Node9 -->
<g id="edge12_Node000007_Node000009" class="edge">
<title>Node7&#45;&gt;Node9</title>
<g id="a_edge12_Node000007_Node000009"><a xlink:title=" ">
<path fill="none" stroke="#63b8ff" d="M579.11,-34.18C596.34,-30.07 615.49,-25.5 632.59,-21.41"/>
<polygon fill="#63b8ff" stroke="#63b8ff" points="633.47,-24.8 642.39,-19.08 631.85,-17.99 633.47,-24.8"/>
</a>
</g>
</g>
<!-- Node8&#45;&gt;Node8 -->
<g id="edge11_Node000008_Node000008" class="edge">
<title>Node8&#45;&gt;Node8</title>
<g id="a_edge11_Node000008_Node000008"><a xlink:title=" ">
<path fill="none" stroke="#63b8ff" d="M659.46,-56.08C647.76,-64.73 655.77,-74 683.5,-74 701.7,-74 711.4,-70.01 712.62,-64.82"/>
<polygon fill="#63b8ff" stroke="#63b8ff" points="715.59,-62.97 707.54,-56.08 709.54,-66.49 715.59,-62.97"/>
</a>
</g>
</g>
</g>
</svg>

<g id="navigator" transform="translate(0 0)" fill="#404254">
  <rect fill="#f2f5e9" fill-opacity="0.5" stroke="#606060" stroke-width=".5" x="0" y="0" width="60" height="60"/>
  <use id="zoomplus" xlink:href="#zoomPlus" x="17" y="9" onmousedown="handleZoom(evt,'in')"/>
  <use id="zoomminus" xlink:href="#zoomMin" x="42" y="9" onmousedown="handleZoom(evt,'out')"/>
  <use id="reset" xlink:href="#resetDef" x="30" y="36" onmousedown="handleReset()"/>
   <use id="arrowup" xlink:href="#arrowUp" x="0" y="0" onmousedown="handlePan(0,-1)"/>
  <use id="arrowright" xlink:href="#arrowRight" x="0" y="0" onmousedown="handlePan(1,0)"/>
  <use id="arrowdown" xlink:href="#arrowDown" x="0" y="0" onmousedown="handlePan(0,1)"/>
  <use id="arrowleft" xlink:href="#arrowLeft" x="0" y="0" onmousedown="handlePan(-1,0)"/>
</g>
<svg viewBox="0 0 15 15" width="100%" height="30px" preserveAspectRatio="xMaxYMin meet">
 <g id="arrow_out" transform="scale(0.3 0.3)">
  <a xlink:href="classttg__parsec_1_1_t_t_a64de0f4a0e71bd0dab69161ce619794d_cgraph_org.svg" target="_base">
   <rect id="button" ry="5" rx="5" y="6" x="6" height="38" width="38"
        fill="#f2f5e9" fill-opacity="0.5" stroke="#606060" stroke-width="1.0"/>
   <path id="arrow"
     d="M 11.500037,31.436501 C 11.940474,20.09759 22.043105,11.32322 32.158766,21.979434 L 37.068811,17.246167 C 37.068811,17.246167 37.088388,32 37.088388,32 L 22.160133,31.978069 C 22.160133,31.978069 26.997745,27.140456 26.997745,27.140456 C 18.528582,18.264221 13.291696,25.230495 11.500037,31.436501 z"
     style="fill:#404040;"/>
  </a>
 </g>
</svg>

<style type='text/css'>
<![CDATA[
[data-mouse-over-selected='false'] { opacity: 0.7; }
[data-mouse-over-selected='true']  { opacity: 1.0; }
]]>
</style>
<script type="application/ecmascript"><![CDATA[
document.addEventListener('DOMContentLoaded', (event) => {
  highlightEdges();
  highlightAdjacentNodes();
});
]]></script>
</svg>
