<?xml version="1.0" encoding="UTF-8" standalone="no"?>
<!DOCTYPE svg PUBLIC "-//W3C//DTD SVG 1.1//EN"
 "http://www.w3.org/Graphics/SVG/1.1/DTD/svg11.dtd">
<!-- Generated by graphviz version 2.43.0 (0)
 -->
<!-- Title: ttg_madness::TT::invoke_pull_terminal Pages: 1 -->
<svg width="454pt" height="254pt"
 viewBox="0.00 0.00 454.00 253.50" xmlns="http://www.w3.org/2000/svg" xmlns:xlink="http://www.w3.org/1999/xlink">

<svg id="main" version="1.1" xmlns="http://www.w3.org/2000/svg" xmlns:xlink="http://www.w3.org/1999/xlink" xml:space="preserve" onload="init(evt)">
<style type="text/css"><![CDATA[
.node, .edge {opacity: 0.7;}
.node.selected, .edge.selected {opacity: 1;}
.edge:hover path { stroke: red; }
.edge:hover polygon { stroke: red; fill: red; }
]]></style>
<script type="application/ecmascript" xlink:href="svg.min.js"/>
<svg id="graph" class="graph">
<g id="graph0" class="graph" transform="scale(1 1) rotate(0) translate(4 249.5)">
<title>ttg_madness::TT::invoke_pull_terminal</title>
<!-- Node1 -->
<g id="Node000001" class="node">
<title>Node1</title>
<g id="a_Node000001"><a xlink:title=" ">
<polygon fill="#999999" stroke="#666666" points="140,-122 0,-122 0,-92 140,-92 140,-122"/>
<text text-anchor="start" x="8" y="-110" font-family="Times,serif" font-size="10.00">ttg_madness::TT::invoke</text>
<text text-anchor="middle" x="70" y="-99" font-family="Times,serif" font-size="10.00">_pull_terminal</text>
</a>
</g>
</g>
<!-- Node2 -->
<g id="Node000002" class="node">
<title>Node2</title>
<g id="a_Node000002"><a xlink:href="classttg__madness_1_1_t_t.html#a3fb0ab18d00c27fae64e1bd1b78d3d0d" target="_top" xlink:title=" ">
<polygon fill="white" stroke="#666666" points="306.5,-227.5 183.5,-227.5 183.5,-208.5 306.5,-208.5 306.5,-227.5"/>
<text text-anchor="middle" x="245" y="-215.5" font-family="Times,serif" font-size="10.00">ttg_madness::TT::get</text>
</a>
</g>
</g>
<!-- Node1&#45;&gt;Node2 -->
<g id="edge1_Node000001_Node000002" class="edge">
<title>Node1&#45;&gt;Node2</title>
<g id="a_edge1_Node000001_Node000002"><a xlink:title=" ">
<path fill="none" stroke="#63b8ff" d="M83.97,-122.29C102.36,-142.98 138.01,-179.65 176,-200 179.47,-201.86 183.15,-203.54 186.93,-205.05"/>
<polygon fill="#63b8ff" stroke="#63b8ff" points="185.86,-208.38 196.45,-208.47 188.23,-201.8 185.86,-208.38"/>
</a>
</g>
</g>
<!-- Node3 -->
<g id="Node000003" class="node">
<title>Node3</title>
<g id="a_Node000003"><a xlink:href="namespacettg_1_1meta.html#affd90f350d054c6a5b4859644d834172" target="_top" xlink:title=" ">
<polygon fill="white" stroke="#666666" points="287.5,-172.5 202.5,-172.5 202.5,-153.5 287.5,-153.5 287.5,-172.5"/>
<text text-anchor="middle" x="245" y="-160.5" font-family="Times,serif" font-size="10.00">ttg::meta::get</text>
</a>
</g>
</g>
<!-- Node1&#45;&gt;Node3 -->
<g id="edge3_Node000001_Node000003" class="edge">
<title>Node1&#45;&gt;Node3</title>
<g id="a_edge3_Node000001_Node000003"><a xlink:title=" ">
<path fill="none" stroke="#63b8ff" d="M110.11,-122.09C129.74,-129.42 153.98,-138.12 176,-145 182.42,-147.01 189.23,-148.98 195.96,-150.85"/>
<polygon fill="#63b8ff" stroke="#63b8ff" points="195.14,-154.26 205.71,-153.5 196.97,-147.5 195.14,-154.26"/>
</a>
</g>
</g>
<!-- Node4 -->
<g id="Node000004" class="node">
<title>Node4</title>
<g id="a_Node000004"><a xlink:href="classttg_1_1_t_t_base.html#ade3b1e6b149fe1124f7192aeca5f715c" target="_top" xlink:title="Gets the name of this operation.">
<polygon fill="white" stroke="#666666" points="310.5,-135.5 179.5,-135.5 179.5,-116.5 310.5,-116.5 310.5,-135.5"/>
<text text-anchor="middle" x="245" y="-123.5" font-family="Times,serif" font-size="10.00">ttg::TTBase::get_name</text>
</a>
</g>
</g>
<!-- Node1&#45;&gt;Node4 -->
<g id="edge5_Node000001_Node000004" class="edge">
<title>Node1&#45;&gt;Node4</title>
<g id="a_edge5_Node000001_Node000004"><a xlink:title=" ">
<path fill="none" stroke="#63b8ff" d="M140.37,-114.62C149.93,-115.67 159.78,-116.75 169.42,-117.81"/>
<polygon fill="#63b8ff" stroke="#63b8ff" points="169.06,-121.29 179.38,-118.9 169.83,-114.33 169.06,-121.29"/>
</a>
</g>
</g>
<!-- Node5 -->
<g id="Node000005" class="node">
<title>Node5</title>
<g id="a_Node000005"><a xlink:href="classttg__madness_1_1_t_t.html#a5710a1c0eb7368d752a26d7fb4baaee0" target="_top" xlink:title="Returns pointer to input terminal i to facilitate connection — terminal cannot be copied,...">
<polygon fill="white" stroke="#666666" points="303,-98.5 187,-98.5 187,-79.5 303,-79.5 303,-98.5"/>
<text text-anchor="middle" x="245" y="-86.5" font-family="Times,serif" font-size="10.00">ttg_madness::TT::in</text>
</a>
</g>
</g>
<!-- Node1&#45;&gt;Node5 -->
<g id="edge6_Node000001_Node000005" class="edge">
<title>Node1&#45;&gt;Node5</title>
<g id="a_edge6_Node000001_Node000005"><a xlink:title=" ">
<path fill="none" stroke="#63b8ff" d="M140.37,-99.78C152.29,-98.54 164.67,-97.25 176.54,-96.02"/>
<polygon fill="#63b8ff" stroke="#63b8ff" points="177.24,-99.47 186.82,-94.95 176.51,-92.5 177.24,-99.47"/>
</a>
</g>
</g>
<!-- Node6 -->
<g id="Node000006" class="node">
<title>Node6</title>
<g id="a_Node000006"><a xlink:href="classttg__madness_1_1_t_t.html#a9c167a878e2685d22e00ce7aa33f75a0" target="_top" xlink:title=" ">
<polygon fill="white" stroke="#666666" points="314,-61.5 176,-61.5 176,-42.5 314,-42.5 314,-61.5"/>
<text text-anchor="middle" x="245" y="-49.5" font-family="Times,serif" font-size="10.00">ttg_madness::TT::owner</text>
</a>
</g>
</g>
<!-- Node1&#45;&gt;Node6 -->
<g id="edge7_Node000001_Node000006" class="edge">
<title>Node1&#45;&gt;Node6</title>
<g id="a_edge7_Node000001_Node000006"><a xlink:title=" ">
<path fill="none" stroke="#63b8ff" d="M112.97,-91.99C132.11,-85.3 155.11,-77.49 176,-71 183.24,-68.75 190.96,-66.48 198.49,-64.32"/>
<polygon fill="#63b8ff" stroke="#63b8ff" points="199.57,-67.66 208.24,-61.57 197.67,-60.92 199.57,-67.66"/>
</a>
</g>
</g>
<!-- Node7 -->
<g id="Node000007" class="node">
<title>Node7</title>
<g id="a_Node000007"><a xlink:href="namespacettg.html#aacafa23974f833f3ac9c42ab4fbd7e68" target="_top" xlink:title="atomically prints to std::cerr a sequence of items (separated by ttg::print_separator) followed by st...">
<polygon fill="white" stroke="#666666" points="291,-24.5 199,-24.5 199,-5.5 291,-5.5 291,-24.5"/>
<text text-anchor="middle" x="245" y="-12.5" font-family="Times,serif" font-size="10.00">ttg::print_error</text>
</a>
</g>
</g>
<!-- Node1&#45;&gt;Node7 -->
<g id="edge8_Node000001_Node000007" class="edge">
<title>Node1&#45;&gt;Node7</title>
<g id="a_edge8_Node000001_Node000007"><a xlink:title=" ">
<path fill="none" stroke="#63b8ff" d="M88.81,-91.8C108.82,-75.42 142.86,-49.6 176,-34 180.99,-31.65 186.33,-29.54 191.74,-27.66"/>
<polygon fill="#63b8ff" stroke="#63b8ff" points="193.04,-30.91 201.49,-24.51 190.89,-24.25 193.04,-30.91"/>
</a>
</g>
</g>
<!-- Node2&#45;&gt;Node2 -->
<g id="edge2_Node000002_Node000002" class="edge">
<title>Node2&#45;&gt;Node2</title>
<g id="a_edge2_Node000002_Node000002"><a xlink:title=" ">
<path fill="none" stroke="#63b8ff" d="M221.57,-227.58C210.18,-236.23 217.98,-245.5 245,-245.5 262.73,-245.5 272.19,-241.51 273.37,-236.32"/>
<polygon fill="#63b8ff" stroke="#63b8ff" points="276.4,-234.56 268.43,-227.58 270.31,-238.01 276.4,-234.56"/>
</a>
</g>
</g>
<!-- Node3&#45;&gt;Node3 -->
<g id="edge4_Node000003_Node000003" class="edge">
<title>Node3&#45;&gt;Node3</title>
<g id="a_edge4_Node000003_Node000003"><a xlink:title=" ">
<path fill="none" stroke="#63b8ff" d="M221.57,-172.58C210.18,-181.23 217.98,-190.5 245,-190.5 262.73,-190.5 272.19,-186.51 273.37,-181.32"/>
<polygon fill="#63b8ff" stroke="#63b8ff" points="276.4,-179.56 268.43,-172.58 270.31,-183.01 276.4,-179.56"/>
</a>
</g>
</g>
<!-- Node8 -->
<g id="Node000008" class="node">
<title>Node8</title>
<g id="a_Node000008"><a xlink:href="namespacettg_1_1detail.html#a26e07486d5ef8eb5735a8975991a7693" target="_top" xlink:title=" ">
<polygon fill="white" stroke="#666666" points="446,-30 350,-30 350,0 446,0 446,-30"/>
<text text-anchor="start" x="358" y="-18" font-family="Times,serif" font-size="10.00">ttg::detail::print</text>
<text text-anchor="middle" x="398" y="-7" font-family="Times,serif" font-size="10.00">_helper</text>
</a>
</g>
</g>
<!-- Node7&#45;&gt;Node8 -->
<g id="edge9_Node000007_Node000008" class="edge">
<title>Node7&#45;&gt;Node8</title>
<g id="a_edge9_Node000007_Node000008"><a xlink:title=" ">
<path fill="none" stroke="#63b8ff" d="M291.3,-15C306.48,-15 323.61,-15 339.59,-15"/>
<polygon fill="#63b8ff" stroke="#63b8ff" points="339.89,-18.5 349.89,-15 339.89,-11.5 339.89,-18.5"/>
</a>
</g>
</g>
</g>
</svg>
</svg>

<style type='text/css'>
<![CDATA[
[data-mouse-over-selected='false'] { opacity: 0.7; }
[data-mouse-over-selected='true']  { opacity: 1.0; }
]]>
</style>
<script type="application/ecmascript"><![CDATA[
document.addEventListener('DOMContentLoaded', (event) => {
  highlightEdges();
  highlightAdjacentNodes();
});
]]></script>
</svg>
