<?xml version="1.0" encoding="UTF-8" standalone="no"?>
<!DOCTYPE svg PUBLIC "-//W3C//DTD SVG 1.1//EN"
 "http://www.w3.org/Graphics/SVG/1.1/DTD/svg11.dtd">
<!-- Generated by graphviz version 2.43.0 (0)
 -->
<!-- Title: TCB_SPAN_NAMESPACE_NAME::span::size Pages: 1 -->
<!--zoomable 612 -->

<svg id="main" version="1.1" xmlns="http://www.w3.org/2000/svg" xmlns:xlink="http://www.w3.org/1999/xlink" xml:space="preserve" onload="init(evt)">
<style type="text/css"><![CDATA[
.node, .edge {opacity: 0.7;}
.node.selected, .edge.selected {opacity: 1;}
.edge:hover path { stroke: red; }
.edge:hover polygon { stroke: red; fill: red; }
]]></style>

<defs>
  <circle id="rim" cx="0" cy="0" r="7"/>
  <circle id="rim2" cx="0" cy="0" r="3.5"/>
  <g id="zoomPlus">
    <use xlink:href="#rim" fill="#404040"><set attributeName="fill" to="#808080" begin="zoomplus.mouseover" end="zoomplus.mouseout"/></use>
    <path d="M-4,0h8M0,-4v8" fill="none" stroke="white" stroke-width="1.5" pointer-events="none"/>
  </g>
  <g id="zoomMin">
    <use xlink:href="#rim" fill="#404040"><set attributeName="fill" to="#808080" begin="zoomminus.mouseover" end="zoomminus.mouseout"/></use>
    <path d="M-4,0h8" fill="none" stroke="white" stroke-width="1.5" pointer-events="none"/>
  </g>
  <g id="arrowUp" transform="translate(30 24)">
    <use xlink:href="#rim"/>
    <path pointer-events="none" fill="none" stroke="white" stroke-width="1.5" d="M0,-3.0v7 M-2.5,-0.5L0,-3.0L2.5,-0.5"/>
  </g>
  <g id="arrowRight" transform="rotate(90) translate(36 -43)">
    <use xlink:href="#rim"/>
    <path pointer-events="none" fill="none" stroke="white" stroke-width="1.5" d="M0,-3.0v7 M-2.5,-0.5L0,-3.0L2.5,-0.5"/>
  </g>
  <g id="arrowDown" transform="rotate(180) translate(-30 -48)">
    <use xlink:href="#rim"/>
    <path pointer-events="none" fill="none" stroke="white" stroke-width="1.5" d="M0,-3.0v7 M-2.5,-0.5L0,-3.0L2.5,-0.5"/>
  </g>
  <g id="arrowLeft" transform="rotate(270) translate(-36 17)">
    <use xlink:href="#rim"/>
    <path pointer-events="none" fill="none" stroke="white" stroke-width="1.5" d="M0,-3.0v7 M-2.5,-0.5L0,-3.0L2.5,-0.5"/>
  </g>
  <g id="resetDef">
    <use xlink:href="#rim2" fill="#404040"><set attributeName="fill" to="#808080" begin="reset.mouseover" end="reset.mouseout"/></use>
  </g>
</defs>
<script type="application/ecmascript">
var viewWidth = 524;
var viewHeight = 612;
var sectionId = 'dynsection-18';
</script>
<script type="application/ecmascript" xlink:href="svg.min.js"/>
<svg id="graph" class="graph">
<g id="viewport">
<title>TCB_SPAN_NAMESPACE_NAME::span::size</title>
<!-- Node1 -->
<g id="Node000001" class="node">
<title>Node1</title>
<g id="a_Node000001"><a xlink:title=" ">
<polygon fill="#999999" stroke="#666666" points="516,-318 368,-318 368,-288 516,-288 516,-318"/>
<text text-anchor="start" x="376" y="-306" font-family="Times,serif" font-size="10.00">TCB_SPAN_NAMESPACE</text>
<text text-anchor="middle" x="442" y="-295" font-family="Times,serif" font-size="10.00">_NAME::span::size</text>
</a>
</g>
</g>
<!-- Node2 -->
<g id="Node000002" class="node">
<title>Node2</title>
<g id="a_Node000002"><a xlink:href="class_t_c_b___s_p_a_n___n_a_m_e_s_p_a_c_e___n_a_m_e_1_1span.html#a94fa974191d3bfffb8bec306b19c08f7" target="_top" xlink:title=" ">
<polygon fill="white" stroke="#666666" points="148,-604 0,-604 0,-574 148,-574 148,-604"/>
<text text-anchor="start" x="8" y="-592" font-family="Times,serif" font-size="10.00">TCB_SPAN_NAMESPACE</text>
<text text-anchor="middle" x="74" y="-581" font-family="Times,serif" font-size="10.00">_NAME::span::back</text>
</a>
</g>
</g>
<!-- Node1&#45;&gt;Node2 -->
<g id="edge1_Node000001_Node000002" class="edge">
<title>Node1&#45;&gt;Node2</title>
<g id="a_edge1_Node000001_Node000002"><a xlink:title=" ">
<path fill="none" stroke="#63b8ff" d="M438.98,-328.3C433.17,-382.35 411.33,-508.88 332,-567 279.53,-605.44 203.87,-607.34 148.22,-601.79"/>
<polygon fill="#63b8ff" stroke="#63b8ff" points="442.47,-328.5 439.96,-318.21 435.51,-327.82 442.47,-328.5"/>
</a>
</g>
</g>
<!-- Node3 -->
<g id="Node000003" class="node">
<title>Node3</title>
<g id="a_Node000003"><a xlink:href="class_t_c_b___s_p_a_n___n_a_m_e_s_p_a_c_e___n_a_m_e_1_1span.html#af91e788dc5024e5128c5fc777586f448" target="_top" xlink:title=" ">
<polygon fill="white" stroke="#666666" points="332,-558 184,-558 184,-528 332,-528 332,-558"/>
<text text-anchor="start" x="192" y="-546" font-family="Times,serif" font-size="10.00">TCB_SPAN_NAMESPACE</text>
<text text-anchor="middle" x="258" y="-535" font-family="Times,serif" font-size="10.00">_NAME::span::empty</text>
</a>
</g>
</g>
<!-- Node1&#45;&gt;Node3 -->
<g id="edge2_Node000001_Node000003" class="edge">
<title>Node1&#45;&gt;Node3</title>
<g id="a_edge2_Node000001_Node000003"><a xlink:title=" ">
<path fill="none" stroke="#63b8ff" d="M435.2,-327.79C423.46,-372.48 392.72,-466.75 332,-519 328.06,-522.39 323.62,-525.31 318.93,-527.82"/>
<polygon fill="#63b8ff" stroke="#63b8ff" points="438.6,-328.59 437.66,-318.04 431.81,-326.88 438.6,-328.59"/>
</a>
</g>
</g>
<!-- Node5 -->
<g id="Node000005" class="node">
<title>Node5</title>
<g id="a_Node000005"><a xlink:href="class_t_c_b___s_p_a_n___n_a_m_e_s_p_a_c_e___n_a_m_e_1_1span.html#a489018b5bee32947d4997c51cae6010b" target="_top" xlink:title=" ">
<polygon fill="white" stroke="#666666" points="332,-510 184,-510 184,-480 332,-480 332,-510"/>
<text text-anchor="start" x="192" y="-498" font-family="Times,serif" font-size="10.00">TCB_SPAN_NAMESPACE</text>
<text text-anchor="middle" x="258" y="-487" font-family="Times,serif" font-size="10.00">_NAME::span::end</text>
</a>
</g>
</g>
<!-- Node1&#45;&gt;Node5 -->
<g id="edge5_Node000001_Node000005" class="edge">
<title>Node1&#45;&gt;Node5</title>
<g id="a_edge5_Node000001_Node000005"><a xlink:title=" ">
<path fill="none" stroke="#63b8ff" d="M431.25,-327.93C415.69,-364.53 381.85,-432.6 332,-471 327.56,-474.42 322.61,-477.36 317.44,-479.89"/>
<polygon fill="#63b8ff" stroke="#63b8ff" points="434.56,-329.07 435.15,-318.49 428.09,-326.4 434.56,-329.07"/>
</a>
</g>
</g>
<!-- Node7 -->
<g id="Node000007" class="node">
<title>Node7</title>
<g id="a_Node000007"><a xlink:href="class_t_c_b___s_p_a_n___n_a_m_e_s_p_a_c_e___n_a_m_e_1_1span.html#a32bee5255e30caf73c90ad5dd073b206" target="_top" xlink:title=" ">
<polygon fill="white" stroke="#666666" points="332,-462 184,-462 184,-432 332,-432 332,-462"/>
<text text-anchor="start" x="192" y="-450" font-family="Times,serif" font-size="10.00">TCB_SPAN_NAMESPACE</text>
<text text-anchor="middle" x="258" y="-439" font-family="Times,serif" font-size="10.00">_NAME::span::first</text>
</a>
</g>
</g>
<!-- Node1&#45;&gt;Node7 -->
<g id="edge7_Node000001_Node000007" class="edge">
<title>Node1&#45;&gt;Node7</title>
<g id="a_edge7_Node000001_Node000007"><a xlink:title=" ">
<path fill="none" stroke="#63b8ff" d="M425.28,-326.66C406.22,-353.62 371.67,-397.26 332,-423 326.74,-426.41 320.95,-429.38 315,-431.95"/>
<polygon fill="#63b8ff" stroke="#63b8ff" points="428.32,-328.42 431.14,-318.21 422.56,-324.44 428.32,-328.42"/>
</a>
</g>
</g>
<!-- Node8 -->
<g id="Node000008" class="node">
<title>Node8</title>
<g id="a_Node000008"><a xlink:href="class_t_c_b___s_p_a_n___n_a_m_e_s_p_a_c_e___n_a_m_e_1_1span.html#a856e9a1d91b1e24288f2136e72977d56" target="_top" xlink:title=" ">
<polygon fill="white" stroke="#666666" points="332,-414 184,-414 184,-384 332,-384 332,-414"/>
<text text-anchor="start" x="192" y="-402" font-family="Times,serif" font-size="10.00">TCB_SPAN_NAMESPACE</text>
<text text-anchor="middle" x="258" y="-391" font-family="Times,serif" font-size="10.00">_NAME::span::first</text>
</a>
</g>
</g>
<!-- Node1&#45;&gt;Node8 -->
<g id="edge8_Node000001_Node000008" class="edge">
<title>Node1&#45;&gt;Node8</title>
<g id="a_edge8_Node000001_Node000008"><a xlink:title=" ">
<path fill="none" stroke="#63b8ff" d="M413.22,-324.36C391.89,-339.99 361.25,-360.85 332,-375 325.28,-378.25 318,-381.23 310.74,-383.9"/>
<polygon fill="#63b8ff" stroke="#63b8ff" points="415.53,-327 421.47,-318.23 411.36,-321.38 415.53,-327"/>
</a>
</g>
</g>
<!-- Node9 -->
<g id="Node000009" class="node">
<title>Node9</title>
<g id="a_Node000009"><a xlink:href="class_t_c_b___s_p_a_n___n_a_m_e_s_p_a_c_e___n_a_m_e_1_1span.html#a1ab14dbfb7cb87b7ba7ed49ed1efce59" target="_top" xlink:title=" ">
<polygon fill="white" stroke="#666666" points="332,-366 184,-366 184,-336 332,-336 332,-366"/>
<text text-anchor="start" x="192" y="-354" font-family="Times,serif" font-size="10.00">TCB_SPAN_NAMESPACE</text>
<text text-anchor="middle" x="258" y="-343" font-family="Times,serif" font-size="10.00">_NAME::span::last</text>
</a>
</g>
</g>
<!-- Node1&#45;&gt;Node9 -->
<g id="edge9_Node000001_Node000009" class="edge">
<title>Node1&#45;&gt;Node9</title>
<g id="a_edge9_Node000001_Node000009"><a xlink:title=" ">
<path fill="none" stroke="#63b8ff" d="M374.08,-320.65C354.97,-325.69 334.33,-331.13 315.88,-336"/>
<polygon fill="#63b8ff" stroke="#63b8ff" points="375.14,-323.99 383.91,-318.06 373.35,-317.22 375.14,-323.99"/>
</a>
</g>
</g>
<!-- Node10 -->
<g id="Node000010" class="node">
<title>Node10</title>
<g id="a_Node000010"><a xlink:href="class_t_c_b___s_p_a_n___n_a_m_e_s_p_a_c_e___n_a_m_e_1_1span.html#ac5e9b517b32f778f44060340e5234186" target="_top" xlink:title=" ">
<polygon fill="white" stroke="#666666" points="332,-318 184,-318 184,-288 332,-288 332,-318"/>
<text text-anchor="start" x="192" y="-306" font-family="Times,serif" font-size="10.00">TCB_SPAN_NAMESPACE</text>
<text text-anchor="middle" x="258" y="-295" font-family="Times,serif" font-size="10.00">_NAME::span::last</text>
</a>
</g>
</g>
<!-- Node1&#45;&gt;Node10 -->
<g id="edge10_Node000001_Node000010" class="edge">
<title>Node1&#45;&gt;Node10</title>
<g id="a_edge10_Node000001_Node000010"><a xlink:title=" ">
<path fill="none" stroke="#63b8ff" d="M357.48,-303C349.01,-303 340.44,-303 332.09,-303"/>
<polygon fill="#63b8ff" stroke="#63b8ff" points="357.76,-306.5 367.76,-303 357.76,-299.5 357.76,-306.5"/>
</a>
</g>
</g>
<!-- Node11 -->
<g id="Node000011" class="node">
<title>Node11</title>
<g id="a_Node000011"><a xlink:href="class_t_c_b___s_p_a_n___n_a_m_e_s_p_a_c_e___n_a_m_e_1_1span.html#a9df7935a7948c3e1da8dde3f104ebafe" target="_top" xlink:title=" ">
<polygon fill="white" stroke="#666666" points="332,-270 184,-270 184,-240 332,-240 332,-270"/>
<text text-anchor="start" x="192" y="-258" font-family="Times,serif" font-size="10.00">TCB_SPAN_NAMESPACE</text>
<text text-anchor="middle" x="258" y="-247" font-family="Times,serif" font-size="10.00">_NAME::span::operator[]</text>
</a>
</g>
</g>
<!-- Node1&#45;&gt;Node11 -->
<g id="edge11_Node000001_Node000011" class="edge">
<title>Node1&#45;&gt;Node11</title>
<g id="a_edge11_Node000001_Node000011"><a xlink:title=" ">
<path fill="none" stroke="#63b8ff" d="M374.08,-285.35C354.97,-280.31 334.33,-274.87 315.88,-270"/>
<polygon fill="#63b8ff" stroke="#63b8ff" points="373.35,-288.78 383.91,-287.94 375.14,-282.01 373.35,-288.78"/>
</a>
</g>
</g>
<!-- Node12 -->
<g id="Node000012" class="node">
<title>Node12</title>
<g id="a_Node000012"><a xlink:href="class_t_c_b___s_p_a_n___n_a_m_e_s_p_a_c_e___n_a_m_e_1_1span.html#a9d1f1c8befff85fac9c73ac5ea83019f" target="_top" xlink:title=" ">
<polygon fill="white" stroke="#666666" points="332,-222 184,-222 184,-192 332,-192 332,-222"/>
<text text-anchor="start" x="192" y="-210" font-family="Times,serif" font-size="10.00">TCB_SPAN_NAMESPACE</text>
<text text-anchor="middle" x="258" y="-199" font-family="Times,serif" font-size="10.00">_NAME::span::size_bytes</text>
</a>
</g>
</g>
<!-- Node1&#45;&gt;Node12 -->
<g id="edge12_Node000001_Node000012" class="edge">
<title>Node1&#45;&gt;Node12</title>
<g id="a_edge12_Node000001_Node000012"><a xlink:title=" ">
<path fill="none" stroke="#63b8ff" d="M413.22,-281.64C391.89,-266.01 361.25,-245.15 332,-231 325.28,-227.75 318,-224.77 310.74,-222.1"/>
<polygon fill="#63b8ff" stroke="#63b8ff" points="411.36,-284.62 421.47,-287.77 415.53,-279 411.36,-284.62"/>
</a>
</g>
</g>
<!-- Node13 -->
<g id="Node000013" class="node">
<title>Node13</title>
<g id="a_Node000013"><a xlink:href="class_t_c_b___s_p_a_n___n_a_m_e_s_p_a_c_e___n_a_m_e_1_1span.html#a4c69c0137a4d3fb694e46c79c44de77a" target="_top" xlink:title=" ">
<polygon fill="white" stroke="#666666" points="332,-174 184,-174 184,-144 332,-144 332,-174"/>
<text text-anchor="start" x="192" y="-162" font-family="Times,serif" font-size="10.00">TCB_SPAN_NAMESPACE</text>
<text text-anchor="middle" x="258" y="-151" font-family="Times,serif" font-size="10.00">_NAME::span::span</text>
</a>
</g>
</g>
<!-- Node1&#45;&gt;Node13 -->
<g id="edge13_Node000001_Node000013" class="edge">
<title>Node1&#45;&gt;Node13</title>
<g id="a_edge13_Node000001_Node000013"><a xlink:title=" ">
<path fill="none" stroke="#63b8ff" d="M425.28,-279.34C406.22,-252.38 371.67,-208.74 332,-183 326.74,-179.59 320.95,-176.62 315,-174.05"/>
<polygon fill="#63b8ff" stroke="#63b8ff" points="422.56,-281.56 431.14,-287.79 428.32,-277.58 422.56,-281.56"/>
</a>
</g>
</g>
<!-- Node14 -->
<g id="Node000014" class="node">
<title>Node14</title>
<g id="a_Node000014"><a xlink:href="class_t_c_b___s_p_a_n___n_a_m_e_s_p_a_c_e___n_a_m_e_1_1span.html#a174b0d1054824a3be51552bbc252d344" target="_top" xlink:title=" ">
<polygon fill="white" stroke="#666666" points="332,-126 184,-126 184,-96 332,-96 332,-126"/>
<text text-anchor="start" x="192" y="-114" font-family="Times,serif" font-size="10.00">TCB_SPAN_NAMESPACE</text>
<text text-anchor="middle" x="258" y="-103" font-family="Times,serif" font-size="10.00">_NAME::span::span</text>
</a>
</g>
</g>
<!-- Node1&#45;&gt;Node14 -->
<g id="edge14_Node000001_Node000014" class="edge">
<title>Node1&#45;&gt;Node14</title>
<g id="a_edge14_Node000001_Node000014"><a xlink:title=" ">
<path fill="none" stroke="#63b8ff" d="M431.25,-278.07C415.69,-241.47 381.85,-173.4 332,-135 327.56,-131.58 322.61,-128.64 317.44,-126.11"/>
<polygon fill="#63b8ff" stroke="#63b8ff" points="428.09,-279.6 435.15,-287.51 434.56,-276.93 428.09,-279.6"/>
</a>
</g>
</g>
<!-- Node15 -->
<g id="Node000015" class="node">
<title>Node15</title>
<g id="a_Node000015"><a xlink:href="class_t_c_b___s_p_a_n___n_a_m_e_s_p_a_c_e___n_a_m_e_1_1span.html#a9f5e8a50990bc6323d3374291ee6e1c3" target="_top" xlink:title=" ">
<polygon fill="white" stroke="#666666" points="332,-78 184,-78 184,-48 332,-48 332,-78"/>
<text text-anchor="start" x="192" y="-66" font-family="Times,serif" font-size="10.00">TCB_SPAN_NAMESPACE</text>
<text text-anchor="middle" x="258" y="-55" font-family="Times,serif" font-size="10.00">_NAME::span::subspan</text>
</a>
</g>
</g>
<!-- Node1&#45;&gt;Node15 -->
<g id="edge15_Node000001_Node000015" class="edge">
<title>Node1&#45;&gt;Node15</title>
<g id="a_edge15_Node000001_Node000015"><a xlink:title=" ">
<path fill="none" stroke="#63b8ff" d="M435.2,-278.21C423.46,-233.52 392.72,-139.25 332,-87 328.06,-83.61 323.62,-80.69 318.93,-78.18"/>
<polygon fill="#63b8ff" stroke="#63b8ff" points="431.81,-279.12 437.66,-287.96 438.6,-277.41 431.81,-279.12"/>
</a>
</g>
</g>
<!-- Node16 -->
<g id="Node000016" class="node">
<title>Node16</title>
<g id="a_Node000016"><a xlink:href="class_t_c_b___s_p_a_n___n_a_m_e_s_p_a_c_e___n_a_m_e_1_1span.html#aba9e6195ce1aaf6e9b4db69d52dd71f8" target="_top" xlink:title=" ">
<polygon fill="white" stroke="#666666" points="332,-30 184,-30 184,0 332,0 332,-30"/>
<text text-anchor="start" x="192" y="-18" font-family="Times,serif" font-size="10.00">TCB_SPAN_NAMESPACE</text>
<text text-anchor="middle" x="258" y="-7" font-family="Times,serif" font-size="10.00">_NAME::span::subspan</text>
</a>
</g>
</g>
<!-- Node1&#45;&gt;Node16 -->
<g id="edge16_Node000001_Node000016" class="edge">
<title>Node1&#45;&gt;Node16</title>
<g id="a_edge16_Node000001_Node000016"><a xlink:title=" ">
<path fill="none" stroke="#63b8ff" d="M437.7,-277.98C429.54,-225.96 403.57,-105.47 332,-39 328.29,-35.55 324.06,-32.6 319.57,-30.07"/>
<polygon fill="#63b8ff" stroke="#63b8ff" points="434.26,-278.62 439.19,-288 441.18,-277.59 434.26,-278.62"/>
</a>
</g>
</g>
<!-- Node3&#45;&gt;Node2 -->
<g id="edge3_Node000003_Node000002" class="edge">
<title>Node3&#45;&gt;Node2</title>
<g id="a_edge3_Node000003_Node000002"><a xlink:title=" ">
<path fill="none" stroke="#63b8ff" d="M187.29,-560.62C169.85,-565.03 151.3,-569.71 134.42,-573.98"/>
<polygon fill="#63b8ff" stroke="#63b8ff" points="188.57,-563.91 197.41,-558.06 186.85,-557.12 188.57,-563.91"/>
</a>
</g>
</g>
<!-- Node4 -->
<g id="Node000004" class="node">
<title>Node4</title>
<g id="a_Node000004"><a xlink:href="class_t_c_b___s_p_a_n___n_a_m_e_s_p_a_c_e___n_a_m_e_1_1span.html#a9ae7e805172bcde33a6d11557aa10ac8" target="_top" xlink:title=" ">
<polygon fill="white" stroke="#666666" points="148,-556 0,-556 0,-526 148,-526 148,-556"/>
<text text-anchor="start" x="8" y="-544" font-family="Times,serif" font-size="10.00">TCB_SPAN_NAMESPACE</text>
<text text-anchor="middle" x="74" y="-533" font-family="Times,serif" font-size="10.00">_NAME::span::front</text>
</a>
</g>
</g>
<!-- Node3&#45;&gt;Node4 -->
<g id="edge4_Node000003_Node000004" class="edge">
<title>Node3&#45;&gt;Node4</title>
<g id="a_edge4_Node000003_Node000004"><a xlink:title=" ">
<path fill="none" stroke="#63b8ff" d="M173.48,-542.08C165.01,-541.99 156.44,-541.89 148.09,-541.8"/>
<polygon fill="#63b8ff" stroke="#63b8ff" points="173.72,-545.58 183.76,-542.2 173.8,-538.59 173.72,-545.58"/>
</a>
</g>
</g>
<!-- Node6 -->
<g id="Node000006" class="node">
<title>Node6</title>
<g id="a_Node000006"><a xlink:href="class_t_c_b___s_p_a_n___n_a_m_e_s_p_a_c_e___n_a_m_e_1_1span.html#a8006cedeefa1990a48aa7f5be347b917" target="_top" xlink:title=" ">
<polygon fill="white" stroke="#666666" points="148,-508 0,-508 0,-478 148,-478 148,-508"/>
<text text-anchor="start" x="8" y="-496" font-family="Times,serif" font-size="10.00">TCB_SPAN_NAMESPACE</text>
<text text-anchor="middle" x="74" y="-485" font-family="Times,serif" font-size="10.00">_NAME::span::rbegin</text>
</a>
</g>
</g>
<!-- Node5&#45;&gt;Node6 -->
<g id="edge6_Node000005_Node000006" class="edge">
<title>Node5&#45;&gt;Node6</title>
<g id="a_edge6_Node000005_Node000006"><a xlink:title=" ">
<path fill="none" stroke="#63b8ff" d="M173.48,-494.08C165.01,-493.99 156.44,-493.89 148.09,-493.8"/>
<polygon fill="#63b8ff" stroke="#63b8ff" points="173.72,-497.58 183.76,-494.2 173.8,-490.59 173.72,-497.58"/>
</a>
</g>
</g>
</g>
</svg>

<g id="navigator" transform="translate(0 0)" fill="#404254">
  <rect fill="#f2f5e9" fill-opacity="0.5" stroke="#606060" stroke-width=".5" x="0" y="0" width="60" height="60"/>
  <use id="zoomplus" xlink:href="#zoomPlus" x="17" y="9" onmousedown="handleZoom(evt,'in')"/>
  <use id="zoomminus" xlink:href="#zoomMin" x="42" y="9" onmousedown="handleZoom(evt,'out')"/>
  <use id="reset" xlink:href="#resetDef" x="30" y="36" onmousedown="handleReset()"/>
   <use id="arrowup" xlink:href="#arrowUp" x="0" y="0" onmousedown="handlePan(0,-1)"/>
  <use id="arrowright" xlink:href="#arrowRight" x="0" y="0" onmousedown="handlePan(1,0)"/>
  <use id="arrowdown" xlink:href="#arrowDown" x="0" y="0" onmousedown="handlePan(0,1)"/>
  <use id="arrowleft" xlink:href="#arrowLeft" x="0" y="0" onmousedown="handlePan(-1,0)"/>
</g>
<svg viewBox="0 0 15 15" width="100%" height="30px" preserveAspectRatio="xMaxYMin meet">
 <g id="arrow_out" transform="scale(0.3 0.3)">
  <a xlink:href="class_t_c_b___s_p_a_n___n_a_m_e_s_p_a_c_e___n_a_m_e_1_1span_a971d93a9b8c610c0aa3eba556976dcea_icgraph_org.svg" target="_base">
   <rect id="button" ry="5" rx="5" y="6" x="6" height="38" width="38"
        fill="#f2f5e9" fill-opacity="0.5" stroke="#606060" stroke-width="1.0"/>
   <path id="arrow"
     d="M 11.500037,31.436501 C 11.940474,20.09759 22.043105,11.32322 32.158766,21.979434 L 37.068811,17.246167 C 37.068811,17.246167 37.088388,32 37.088388,32 L 22.160133,31.978069 C 22.160133,31.978069 26.997745,27.140456 26.997745,27.140456 C 18.528582,18.264221 13.291696,25.230495 11.500037,31.436501 z"
     style="fill:#404040;"/>
  </a>
 </g>
</svg>

<style type='text/css'>
<![CDATA[
[data-mouse-over-selected='false'] { opacity: 0.7; }
[data-mouse-over-selected='true']  { opacity: 1.0; }
]]>
</style>
<script type="application/ecmascript"><![CDATA[
document.addEventListener('DOMContentLoaded', (event) => {
  highlightEdges();
  highlightAdjacentNodes();
});
]]></script>
</svg>
