<?xml version="1.0" encoding="UTF-8" standalone="no"?>
<!DOCTYPE svg PUBLIC "-//W3C//DTD SVG 1.1//EN"
 "http://www.w3.org/Graphics/SVG/1.1/DTD/svg11.dtd">
<!-- Generated by graphviz version 2.43.0 (0)
 -->
<!-- Title: ttg_parsec::TT::release_constraint Pages: 1 -->
<svg width="439pt" height="110pt"
 viewBox="0.00 0.00 439.00 110.00" xmlns="http://www.w3.org/2000/svg" xmlns:xlink="http://www.w3.org/1999/xlink">
<g id="graph0" class="graph" transform="scale(1 1) rotate(0) translate(4 106)">
<title>ttg_parsec::TT::release_constraint</title>
<!-- Node1 -->
<g id="Node000001" class="node">
<title>Node1</title>
<g id="a_Node000001"><a xlink:title=" ">
<polygon fill="#999999" stroke="#666666" points="431,-54 300,-54 300,-24 431,-24 431,-54"/>
<text text-anchor="start" x="308" y="-42" font-family="Times,serif" font-size="10.00">ttg_parsec::TT::release</text>
<text text-anchor="middle" x="365.5" y="-31" font-family="Times,serif" font-size="10.00">_constraint</text>
</a>
</g>
</g>
<!-- Node2 -->
<g id="Node000002" class="node">
<title>Node2</title>
<g id="a_Node000002"><a xlink:href="classttg__parsec_1_1_t_t.html#a24ea8b57fe2846efcab06e6fc80190d2" target="_top" xlink:title=" ">
<polygon fill="white" stroke="#666666" points="264,-78 150,-78 150,-48 264,-48 264,-78"/>
<text text-anchor="start" x="158" y="-66" font-family="Times,serif" font-size="10.00">ttg_parsec::TT::add</text>
<text text-anchor="middle" x="207" y="-55" font-family="Times,serif" font-size="10.00">_constraint</text>
</a>
</g>
</g>
<!-- Node1&#45;&gt;Node2 -->
<g id="edge1_Node000001_Node000002" class="edge">
<title>Node1&#45;&gt;Node2</title>
<g id="a_edge1_Node000001_Node000002"><a xlink:title=" ">
<path fill="none" stroke="#63b8ff" d="M289.92,-50.44C281.34,-51.75 272.7,-53.08 264.41,-54.35"/>
<polygon fill="#63b8ff" stroke="#63b8ff" points="290.59,-53.88 299.94,-48.9 289.53,-46.96 290.59,-53.88"/>
</a>
</g>
</g>
<!-- Node5 -->
<g id="Node000005" class="node">
<title>Node5</title>
<g id="a_Node000005"><a xlink:href="classttg__parsec_1_1_t_t.html#a4d8ac0fb1bdaaaa57ff186fef88e24af" target="_top" xlink:title=" ">
<polygon fill="white" stroke="#666666" points="264,-30 150,-30 150,0 264,0 264,-30"/>
<text text-anchor="start" x="158" y="-18" font-family="Times,serif" font-size="10.00">ttg_parsec::TT::add</text>
<text text-anchor="middle" x="207" y="-7" font-family="Times,serif" font-size="10.00">_constraint</text>
</a>
</g>
</g>
<!-- Node1&#45;&gt;Node5 -->
<g id="edge4_Node000001_Node000005" class="edge">
<title>Node1&#45;&gt;Node5</title>
<g id="a_edge4_Node000001_Node000005"><a xlink:title=" ">
<path fill="none" stroke="#63b8ff" d="M289.92,-27.56C281.34,-26.25 272.7,-24.92 264.41,-23.65"/>
<polygon fill="#63b8ff" stroke="#63b8ff" points="289.53,-31.04 299.94,-29.1 290.59,-24.12 289.53,-31.04"/>
</a>
</g>
</g>
<!-- Node3 -->
<g id="Node000003" class="node">
<title>Node3</title>
<g id="a_Node000003"><a xlink:href="classttg__parsec_1_1_t_t.html#ab2809ed93f5b416ca4bee4c8fc7c90ee" target="_top" xlink:title=" ">
<polygon fill="white" stroke="#666666" points="114,-102 0,-102 0,-72 114,-72 114,-102"/>
<text text-anchor="start" x="8" y="-90" font-family="Times,serif" font-size="10.00">ttg_parsec::TT::add</text>
<text text-anchor="middle" x="57" y="-79" font-family="Times,serif" font-size="10.00">_constraint</text>
</a>
</g>
</g>
<!-- Node2&#45;&gt;Node3 -->
<g id="edge2_Node000002_Node000003" class="edge">
<title>Node2&#45;&gt;Node3</title>
<g id="a_edge2_Node000002_Node000003"><a xlink:title=" ">
<path fill="none" stroke="#63b8ff" d="M139.72,-73.75C131.2,-75.13 122.55,-76.53 114.22,-77.88"/>
<polygon fill="#63b8ff" stroke="#63b8ff" points="140.31,-77.2 149.63,-72.14 139.19,-70.29 140.31,-77.2"/>
</a>
</g>
</g>
<!-- Node4 -->
<g id="Node000004" class="node">
<title>Node4</title>
<g id="a_Node000004"><a xlink:href="classttg__parsec_1_1_t_t.html#a090da9fb01ff9bca0f0d419a3a054ce0" target="_top" xlink:title=" ">
<polygon fill="white" stroke="#666666" points="114,-54 0,-54 0,-24 114,-24 114,-54"/>
<text text-anchor="start" x="8" y="-42" font-family="Times,serif" font-size="10.00">ttg_parsec::TT::add</text>
<text text-anchor="middle" x="57" y="-31" font-family="Times,serif" font-size="10.00">_constraint</text>
</a>
</g>
</g>
<!-- Node2&#45;&gt;Node4 -->
<g id="edge3_Node000002_Node000004" class="edge">
<title>Node2&#45;&gt;Node4</title>
<g id="a_edge3_Node000002_Node000004"><a xlink:title=" ">
<path fill="none" stroke="#63b8ff" d="M139.72,-52.25C131.2,-50.87 122.55,-49.47 114.22,-48.12"/>
<polygon fill="#63b8ff" stroke="#63b8ff" points="139.19,-55.71 149.63,-53.86 140.31,-48.8 139.19,-55.71"/>
</a>
</g>
</g>
</g>
</svg>
