<?xml version="1.0" encoding="UTF-8" standalone="no"?>
<!DOCTYPE svg PUBLIC "-//W3C//DTD SVG 1.1//EN"
 "http://www.w3.org/Graphics/SVG/1.1/DTD/svg11.dtd">
<!-- Generated by graphviz version 2.43.0 (0)
 -->
<!-- Title: ttg_madness::TT::get Pages: 1 -->
<!--zoomable 1208 -->

<svg id="main" version="1.1" xmlns="http://www.w3.org/2000/svg" xmlns:xlink="http://www.w3.org/1999/xlink" xml:space="preserve" onload="init(evt)">
<style type="text/css"><![CDATA[
.node, .edge {opacity: 0.7;}
.node.selected, .edge.selected {opacity: 1;}
.edge:hover path { stroke: red; }
.edge:hover polygon { stroke: red; fill: red; }
]]></style>

<defs>
  <circle id="rim" cx="0" cy="0" r="7"/>
  <circle id="rim2" cx="0" cy="0" r="3.5"/>
  <g id="zoomPlus">
    <use xlink:href="#rim" fill="#404040"><set attributeName="fill" to="#808080" begin="zoomplus.mouseover" end="zoomplus.mouseout"/></use>
    <path d="M-4,0h8M0,-4v8" fill="none" stroke="white" stroke-width="1.5" pointer-events="none"/>
  </g>
  <g id="zoomMin">
    <use xlink:href="#rim" fill="#404040"><set attributeName="fill" to="#808080" begin="zoomminus.mouseover" end="zoomminus.mouseout"/></use>
    <path d="M-4,0h8" fill="none" stroke="white" stroke-width="1.5" pointer-events="none"/>
  </g>
  <g id="arrowUp" transform="translate(30 24)">
    <use xlink:href="#rim"/>
    <path pointer-events="none" fill="none" stroke="white" stroke-width="1.5" d="M0,-3.0v7 M-2.5,-0.5L0,-3.0L2.5,-0.5"/>
  </g>
  <g id="arrowRight" transform="rotate(90) translate(36 -43)">
    <use xlink:href="#rim"/>
    <path pointer-events="none" fill="none" stroke="white" stroke-width="1.5" d="M0,-3.0v7 M-2.5,-0.5L0,-3.0L2.5,-0.5"/>
  </g>
  <g id="arrowDown" transform="rotate(180) translate(-30 -48)">
    <use xlink:href="#rim"/>
    <path pointer-events="none" fill="none" stroke="white" stroke-width="1.5" d="M0,-3.0v7 M-2.5,-0.5L0,-3.0L2.5,-0.5"/>
  </g>
  <g id="arrowLeft" transform="rotate(270) translate(-36 17)">
    <use xlink:href="#rim"/>
    <path pointer-events="none" fill="none" stroke="white" stroke-width="1.5" d="M0,-3.0v7 M-2.5,-0.5L0,-3.0L2.5,-0.5"/>
  </g>
  <g id="resetDef">
    <use xlink:href="#rim2" fill="#404040"><set attributeName="fill" to="#808080" begin="reset.mouseover" end="reset.mouseout"/></use>
  </g>
</defs>
<script type="application/ecmascript">
var viewWidth = 677;
var viewHeight = 1208;
var sectionId = 'dynsection-9';
</script>
<script type="application/ecmascript" xlink:href="svg.min.js"/>
<svg id="graph" class="graph">
<g id="viewport">
<title>ttg_madness::TT::get</title>
<!-- Node1 -->
<g id="Node000001" class="node">
<title>Node1</title>
<g id="a_Node000001"><a xlink:title=" ">
<polygon fill="#999999" stroke="#666666" points="669,-619 546,-619 546,-600 669,-600 669,-619"/>
<text text-anchor="middle" x="607.5" y="-607" font-family="Times,serif" font-size="10.00">ttg_madness::TT::get</text>
</a>
</g>
</g>
<!-- Node1&#45;&gt;Node1 -->
<g id="edge3_Node000001_Node000001" class="edge">
<title>Node1&#45;&gt;Node1</title>
<g id="a_edge3_Node000001_Node000001"><a xlink:title=" ">
<path fill="none" stroke="#63b8ff" d="M639.69,-627.45C638.77,-632.82 628.04,-637 607.5,-637 576.93,-637 568.09,-627.73 580.99,-619.08"/>
<polygon fill="#63b8ff" stroke="#63b8ff" points="642.52,-625.39 634.01,-619.08 636.73,-629.32 642.52,-625.39"/>
</a>
</g>
</g>
<!-- Node2 -->
<g id="Node000002" class="node">
<title>Node2</title>
<g id="a_Node000002"><a xlink:href="classttg__madness_1_1_t_t.html#a8f53db95a62dfdbe427f57163a2751b4" target="_top" xlink:title="finalizes stream for input i">
<polygon fill="white" stroke="#666666" points="507,-1199.5 364,-1199.5 364,-1169.5 507,-1169.5 507,-1199.5"/>
<text text-anchor="start" x="372" y="-1187.5" font-family="Times,serif" font-size="10.00">ttg_madness::TT::finalize</text>
<text text-anchor="middle" x="435.5" y="-1176.5" font-family="Times,serif" font-size="10.00">_argstream</text>
</a>
</g>
</g>
<!-- Node1&#45;&gt;Node2 -->
<g id="edge1_Node000001_Node000002" class="edge">
<title>Node1&#45;&gt;Node2</title>
<g id="a_edge1_Node000001_Node000002"><a xlink:title=" ">
<path fill="none" stroke="#63b8ff" d="M605.7,-629.12C601.73,-717.54 581.31,-1078.25 510,-1160.5 507.01,-1163.95 503.52,-1166.9 499.71,-1169.44"/>
<polygon fill="#63b8ff" stroke="#63b8ff" points="609.2,-629.25 606.13,-619.11 602.21,-628.95 609.2,-629.25"/>
</a>
</g>
</g>
<!-- Node3 -->
<g id="Node000003" class="node">
<title>Node3</title>
<g id="a_Node000003"><a xlink:href="classttg__madness_1_1_t_t.html#ad3281e576a13d510353fea6ef49caac8" target="_top" xlink:title="finalizes stream for input i">
<polygon fill="white" stroke="#666666" points="507,-1151.5 364,-1151.5 364,-1121.5 507,-1121.5 507,-1151.5"/>
<text text-anchor="start" x="372" y="-1139.5" font-family="Times,serif" font-size="10.00">ttg_madness::TT::finalize</text>
<text text-anchor="middle" x="435.5" y="-1128.5" font-family="Times,serif" font-size="10.00">_argstream</text>
</a>
</g>
</g>
<!-- Node1&#45;&gt;Node3 -->
<g id="edge2_Node000001_Node000003" class="edge">
<title>Node1&#45;&gt;Node3</title>
<g id="a_edge2_Node000001_Node000003"><a xlink:title=" ">
<path fill="none" stroke="#63b8ff" d="M605.16,-629.48C599.17,-712.86 572.48,-1032.29 510,-1107.5 505.27,-1113.2 499.26,-1117.78 492.73,-1121.47"/>
<polygon fill="#63b8ff" stroke="#63b8ff" points="608.66,-629.55 605.86,-619.33 601.68,-629.06 608.66,-629.55"/>
</a>
</g>
</g>
<!-- Node4 -->
<g id="Node000004" class="node">
<title>Node4</title>
<g id="a_Node000004"><a xlink:href="classttg__madness_1_1_t_t.html#a6a568ae1ed88e1a922f6f8191351a0dd" target="_top" xlink:title=" ">
<polygon fill="white" stroke="#666666" points="312,-1049.5 189,-1049.5 189,-1019.5 312,-1019.5 312,-1049.5"/>
<text text-anchor="start" x="197" y="-1037.5" font-family="Times,serif" font-size="10.00">ttg_madness::TT::get</text>
<text text-anchor="middle" x="250.5" y="-1026.5" font-family="Times,serif" font-size="10.00">_terminal_data</text>
</a>
</g>
</g>
<!-- Node1&#45;&gt;Node4 -->
<g id="edge4_Node000001_Node000004" class="edge">
<title>Node1&#45;&gt;Node4</title>
<g id="a_edge4_Node000001_Node000004"><a xlink:title=" ">
<path fill="none" stroke="#63b8ff" d="M605.16,-629.66C599.57,-707.18 575.22,-984.37 510,-1036.5 448.47,-1085.67 349.82,-1066.49 293.86,-1049.56"/>
<polygon fill="#63b8ff" stroke="#63b8ff" points="608.68,-629.57 605.88,-619.35 601.7,-629.09 608.68,-629.57"/>
</a>
</g>
</g>
<!-- Node5 -->
<g id="Node000005" class="node">
<title>Node5</title>
<g id="a_Node000005"><a xlink:href="classttg__madness_1_1_t_t.html#a59514d2ebb826c9b78b96d89f3067c51" target="_top" xlink:title="Manual injection of a task that has no key or arguments.">
<polygon fill="white" stroke="#666666" points="320.5,-743 180.5,-743 180.5,-724 320.5,-724 320.5,-743"/>
<text text-anchor="middle" x="250.5" y="-731" font-family="Times,serif" font-size="10.00">ttg_madness::TT::invoke</text>
</a>
</g>
</g>
<!-- Node1&#45;&gt;Node5 -->
<g id="edge5_Node000001_Node000005" class="edge">
<title>Node1&#45;&gt;Node5</title>
<g id="a_edge5_Node000001_Node000005"><a xlink:title=" ">
<path fill="none" stroke="#63b8ff" d="M600.09,-628.67C588.18,-660.79 559.27,-724.52 510,-750.5 432.62,-791.31 323.61,-760.29 275.69,-743.04"/>
<polygon fill="#63b8ff" stroke="#63b8ff" points="603.44,-629.68 603.48,-619.09 596.84,-627.35 603.44,-629.68"/>
</a>
</g>
</g>
<!-- Node6 -->
<g id="Node000006" class="node">
<title>Node6</title>
<g id="a_Node000006"><a xlink:href="classttg__madness_1_1_t_t.html#ab8d0229e3251029b0efa3019fea5bade" target="_top" xlink:title="Manual injection of a task that has no arguments.">
<polygon fill="white" stroke="#666666" points="140,-743 0,-743 0,-724 140,-724 140,-743"/>
<text text-anchor="middle" x="70" y="-731" font-family="Times,serif" font-size="10.00">ttg_madness::TT::invoke</text>
</a>
</g>
</g>
<!-- Node1&#45;&gt;Node6 -->
<g id="edge10_Node000001_Node000006" class="edge">
<title>Node1&#45;&gt;Node6</title>
<g id="a_edge10_Node000001_Node000006"><a xlink:title=" ">
<path fill="none" stroke="#63b8ff" d="M605.48,-629.45C600.94,-709.93 579.5,-1009.17 510,-1065.5 489.84,-1081.84 187.18,-1066.97 176,-1058.5 69.63,-977.97 69.13,-787.94 70.57,-743.1"/>
<polygon fill="#63b8ff" stroke="#63b8ff" points="608.99,-629.39 606.04,-619.21 602,-629.01 608.99,-629.39"/>
</a>
</g>
</g>
<!-- Node7 -->
<g id="Node000007" class="node">
<title>Node7</title>
<g id="a_Node000007"><a xlink:href="classttg__madness_1_1_t_t.html#a6ff79e4a17fce6ba8f7ed14732c3d6ef" target="_top" xlink:title="Manual injection of a task with all input arguments specified as a tuple.">
<polygon fill="white" stroke="#666666" points="140,-667 0,-667 0,-648 140,-648 140,-667"/>
<text text-anchor="middle" x="70" y="-655" font-family="Times,serif" font-size="10.00">ttg_madness::TT::invoke</text>
</a>
</g>
</g>
<!-- Node1&#45;&gt;Node7 -->
<g id="edge11_Node000001_Node000007" class="edge">
<title>Node1&#45;&gt;Node7</title>
<g id="a_edge11_Node000001_Node000007"><a xlink:title=" ">
<path fill="none" stroke="#63b8ff" d="M582.64,-594.73C563.67,-583.71 536.08,-569.28 510,-561.5 367.44,-518.96 311.73,-478.59 176,-539.5 124.96,-562.4 88.59,-623.74 75.92,-647.71"/>
<polygon fill="#63b8ff" stroke="#63b8ff" points="581.08,-597.87 591.47,-599.97 584.65,-591.85 581.08,-597.87"/>
</a>
</g>
</g>
<!-- Node8 -->
<g id="Node000008" class="node">
<title>Node8</title>
<g id="a_Node000008"><a xlink:href="classttg__madness_1_1_t_t.html#aab4a2bc2f80d80f000616442bdfcf5d4" target="_top" xlink:title=" ">
<polygon fill="white" stroke="#666666" points="505.5,-941 365.5,-941 365.5,-922 505.5,-922 505.5,-941"/>
<text text-anchor="middle" x="435.5" y="-929" font-family="Times,serif" font-size="10.00">ttg_madness::TT::invoke</text>
</a>
</g>
</g>
<!-- Node1&#45;&gt;Node8 -->
<g id="edge8_Node000001_Node000008" class="edge">
<title>Node1&#45;&gt;Node8</title>
<g id="a_edge8_Node000001_Node000008"><a xlink:title=" ">
<path fill="none" stroke="#63b8ff" d="M606,-629.09C603.57,-681.74 589.61,-827.69 510,-907.5 503.65,-913.87 495.59,-918.55 487.15,-921.98"/>
<polygon fill="#63b8ff" stroke="#63b8ff" points="609.49,-629.2 606.37,-619.07 602.5,-628.94 609.49,-629.2"/>
</a>
</g>
</g>
<!-- Node9 -->
<g id="Node000009" class="node">
<title>Node9</title>
<g id="a_Node000009"><a xlink:href="classttg__madness_1_1_t_t.html#a76a8349bdad334b8f59b7c3adee7fa62" target="_top" xlink:title="Manual injection of a key&#45;free task with all input arguments specified as a tuple.">
<polygon fill="white" stroke="#666666" points="320.5,-793 180.5,-793 180.5,-774 320.5,-774 320.5,-793"/>
<text text-anchor="middle" x="250.5" y="-781" font-family="Times,serif" font-size="10.00">ttg_madness::TT::invoke</text>
</a>
</g>
</g>
<!-- Node1&#45;&gt;Node9 -->
<g id="edge9_Node000001_Node000009" class="edge">
<title>Node1&#45;&gt;Node9</title>
<g id="a_edge9_Node000001_Node000009"><a xlink:title=" ">
<path fill="none" stroke="#63b8ff" d="M601.7,-629.09C591.67,-665.26 564.74,-741.82 510,-774.5 441.56,-815.36 343.75,-803.88 290.21,-793.01"/>
<polygon fill="#63b8ff" stroke="#63b8ff" points="605.13,-629.81 604.28,-619.25 598.36,-628.03 605.13,-629.81"/>
</a>
</g>
</g>
<!-- Node10 -->
<g id="Node000010" class="node">
<title>Node10</title>
<g id="a_Node000010"><a xlink:href="classttg__madness_1_1_t_t.html#aea5a9c17b765ac16c034cafb686c9bf2" target="_top" xlink:title=" ">
<polygon fill="white" stroke="#666666" points="505.5,-865.5 365.5,-865.5 365.5,-835.5 505.5,-835.5 505.5,-865.5"/>
<text text-anchor="start" x="373.5" y="-853.5" font-family="Times,serif" font-size="10.00">ttg_madness::TT::invoke</text>
<text text-anchor="middle" x="435.5" y="-842.5" font-family="Times,serif" font-size="10.00">_pull_terminal</text>
</a>
</g>
</g>
<!-- Node1&#45;&gt;Node10 -->
<g id="edge12_Node000001_Node000010" class="edge">
<title>Node1&#45;&gt;Node10</title>
<g id="a_edge12_Node000001_Node000010"><a xlink:title=" ">
<path fill="none" stroke="#63b8ff" d="M602.81,-628.81C594,-669.83 568.01,-766.39 510,-821.5 504.13,-827.07 497.06,-831.62 489.66,-835.31"/>
<polygon fill="#63b8ff" stroke="#63b8ff" points="606.24,-629.5 604.81,-619 599.38,-628.1 606.24,-629.5"/>
</a>
</g>
</g>
<!-- Node11 -->
<g id="Node000011" class="node">
<title>Node11</title>
<g id="a_Node000011"><a xlink:href="classttg__madness_1_1_t_t.html#aa42854f1e4fb50c442ce24a7a8c9ca62" target="_top" xlink:title=" ">
<polygon fill="white" stroke="#666666" points="505.5,-989.5 365.5,-989.5 365.5,-959.5 505.5,-959.5 505.5,-989.5"/>
<text text-anchor="start" x="373.5" y="-977.5" font-family="Times,serif" font-size="10.00">ttg_madness::TT::invoke</text>
<text text-anchor="middle" x="435.5" y="-966.5" font-family="Times,serif" font-size="10.00">_pull_terminals</text>
</a>
</g>
</g>
<!-- Node1&#45;&gt;Node11 -->
<g id="edge13_Node000001_Node000011" class="edge">
<title>Node1&#45;&gt;Node11</title>
<g id="a_edge13_Node000001_Node000011"><a xlink:title=" ">
<path fill="none" stroke="#63b8ff" d="M606.94,-629.52C607.11,-687.51 599.54,-857.32 510,-950.5 506.74,-953.89 503.01,-956.8 498.98,-959.3"/>
<polygon fill="#63b8ff" stroke="#63b8ff" points="610.44,-629.15 606.82,-619.19 603.44,-629.23 610.44,-629.15"/>
</a>
</g>
</g>
<!-- Node12 -->
<g id="Node000012" class="node">
<title>Node12</title>
<g id="a_Node000012"><a xlink:href="classttg__madness_1_1_t_t.html#a2810f6594315e404871457fd05f06099" target="_top" xlink:title=" ">
<polygon fill="white" stroke="#666666" points="322.5,-984 178.5,-984 178.5,-965 322.5,-965 322.5,-984"/>
<text text-anchor="middle" x="250.5" y="-972" font-family="Times,serif" font-size="10.00">ttg_madness::TT::set_arg</text>
</a>
</g>
</g>
<!-- Node1&#45;&gt;Node12 -->
<g id="edge20_Node000001_Node000012" class="edge">
<title>Node1&#45;&gt;Node12</title>
<g id="a_edge20_Node000001_Node000012"><a xlink:title=" ">
<path fill="none" stroke="#63b8ff" d="M605.32,-629.44C601.3,-678.73 583.89,-807.2 510,-874.5 459.39,-920.6 424.52,-887.97 361,-913.5 325.06,-927.94 286.16,-951.79 265.79,-964.98"/>
<polygon fill="#63b8ff" stroke="#63b8ff" points="608.83,-629.4 606.05,-619.18 601.85,-628.91 608.83,-629.4"/>
</a>
</g>
</g>
<!-- Node13 -->
<g id="Node000013" class="node">
<title>Node13</title>
<g id="a_Node000013"><a xlink:href="classttg__madness_1_1_t_t.html#ab7490a9d0927ee4c5ba6e589199cddd2" target="_top" xlink:title="implementation of TTBase::make_executable()">
<polygon fill="white" stroke="#666666" points="502.5,-741.5 368.5,-741.5 368.5,-711.5 502.5,-711.5 502.5,-741.5"/>
<text text-anchor="start" x="376.5" y="-729.5" font-family="Times,serif" font-size="10.00">ttg_madness::TT::make</text>
<text text-anchor="middle" x="435.5" y="-718.5" font-family="Times,serif" font-size="10.00">_executable</text>
</a>
</g>
</g>
<!-- Node1&#45;&gt;Node13 -->
<g id="edge15_Node000001_Node000013" class="edge">
<title>Node1&#45;&gt;Node13</title>
<g id="a_edge15_Node000001_Node000013"><a xlink:title=" ">
<path fill="none" stroke="#63b8ff" d="M592.55,-627.13C575.24,-647.9 543.85,-682.15 510,-702.5 504.36,-705.89 498.19,-708.86 491.9,-711.45"/>
<polygon fill="#63b8ff" stroke="#63b8ff" points="595.46,-629.09 599.07,-619.13 590.04,-624.67 595.46,-629.09"/>
</a>
</g>
</g>
<!-- Node14 -->
<g id="Node000014" class="node">
<title>Node14</title>
<g id="a_Node000014"><a xlink:href="classttg__madness_1_1_t_t.html#a1af5d243a8ad194662a1d79df4f58d0d" target="_top" xlink:title=" ">
<polygon fill="white" stroke="#666666" points="507.5,-1027 363.5,-1027 363.5,-1008 507.5,-1008 507.5,-1027"/>
<text text-anchor="middle" x="435.5" y="-1015" font-family="Times,serif" font-size="10.00">ttg_madness::TT::set_arg</text>
</a>
</g>
</g>
<!-- Node1&#45;&gt;Node14 -->
<g id="edge16_Node000001_Node000014" class="edge">
<title>Node1&#45;&gt;Node14</title>
<g id="a_edge16_Node000001_Node000014"><a xlink:title=" ">
<path fill="none" stroke="#63b8ff" d="M604.26,-629.26C595.78,-700.76 563.33,-944.65 510,-998.5 506.2,-1002.34 501.73,-1005.44 496.9,-1007.93"/>
<polygon fill="#63b8ff" stroke="#63b8ff" points="607.74,-629.66 605.42,-619.32 600.79,-628.85 607.74,-629.66"/>
</a>
</g>
</g>
<!-- Node15 -->
<g id="Node000015" class="node">
<title>Node15</title>
<g id="a_Node000015"><a xlink:href="classttg__madness_1_1_t_t.html#a569e2e1c728fa06dfd1c9c7e0a1943c0" target="_top" xlink:title=" ">
<polygon fill="white" stroke="#666666" points="507.5,-656 363.5,-656 363.5,-637 507.5,-637 507.5,-656"/>
<text text-anchor="middle" x="435.5" y="-644" font-family="Times,serif" font-size="10.00">ttg_madness::TT::set_arg</text>
</a>
</g>
</g>
<!-- Node1&#45;&gt;Node15 -->
<g id="edge19_Node000001_Node000015" class="edge">
<title>Node1&#45;&gt;Node15</title>
<g id="a_edge19_Node000001_Node000015"><a xlink:title=" ">
<path fill="none" stroke="#63b8ff" d="M552.65,-621.22C529.37,-626.29 502.47,-632.14 480.43,-636.94"/>
<polygon fill="#63b8ff" stroke="#63b8ff" points="553.69,-624.58 562.72,-619.03 552.21,-617.74 553.69,-624.58"/>
</a>
</g>
</g>
<!-- Node16 -->
<g id="Node000016" class="node">
<title>Node16</title>
<g id="a_Node000016"><a xlink:href="classttg__madness_1_1_t_t.html#a33a568874c8a4b541be7143946a0e91e" target="_top" xlink:title=" ">
<polygon fill="white" stroke="#666666" points="507.5,-619 363.5,-619 363.5,-600 507.5,-600 507.5,-619"/>
<text text-anchor="middle" x="435.5" y="-607" font-family="Times,serif" font-size="10.00">ttg_madness::TT::set_arg</text>
</a>
</g>
</g>
<!-- Node1&#45;&gt;Node16 -->
<g id="edge21_Node000001_Node000016" class="edge">
<title>Node1&#45;&gt;Node16</title>
<g id="a_edge21_Node000001_Node000016"><a xlink:title=" ">
<path fill="none" stroke="#63b8ff" d="M535.38,-609.5C526.23,-609.5 516.85,-609.5 507.69,-609.5"/>
<polygon fill="#63b8ff" stroke="#63b8ff" points="535.61,-613 545.61,-609.5 535.61,-606 535.61,-613"/>
</a>
</g>
</g>
<!-- Node17 -->
<g id="Node000017" class="node">
<title>Node17</title>
<g id="a_Node000017"><a xlink:href="classttg__madness_1_1_t_t.html#a8214117e937ee0b508057681986ac135" target="_top" xlink:title=" ">
<polygon fill="white" stroke="#666666" points="325,-605 176,-605 176,-586 325,-586 325,-605"/>
<text text-anchor="middle" x="250.5" y="-593" font-family="Times,serif" font-size="10.00">ttg_madness::TT::set_args</text>
</a>
</g>
</g>
<!-- Node1&#45;&gt;Node17 -->
<g id="edge22_Node000001_Node000017" class="edge">
<title>Node1&#45;&gt;Node17</title>
<g id="a_edge22_Node000001_Node000017"><a xlink:title=" ">
<path fill="none" stroke="#63b8ff" d="M554.31,-597.95C540.02,-595.28 524.47,-592.84 510,-591.5 447.88,-585.76 377.01,-587.43 325.2,-590.16"/>
<polygon fill="#63b8ff" stroke="#63b8ff" points="553.98,-601.45 564.46,-599.92 555.31,-594.58 553.98,-601.45"/>
</a>
</g>
</g>
<!-- Node18 -->
<g id="Node000018" class="node">
<title>Node18</title>
<g id="a_Node000018"><a xlink:href="classttg__madness_1_1_t_t.html#abb7480104b7c038fc698d998b2453bf1" target="_top" xlink:title=" ">
<polygon fill="white" stroke="#666666" points="325,-568 176,-568 176,-549 325,-549 325,-568"/>
<text text-anchor="middle" x="250.5" y="-556" font-family="Times,serif" font-size="10.00">ttg_madness::TT::set_args</text>
</a>
</g>
</g>
<!-- Node1&#45;&gt;Node18 -->
<g id="edge23_Node000001_Node000018" class="edge">
<title>Node1&#45;&gt;Node18</title>
<g id="a_edge23_Node000001_Node000018"><a xlink:title=" ">
<path fill="none" stroke="#63b8ff" d="M566.62,-597.15C549.36,-592.23 528.84,-586.92 510,-583.5 448.23,-572.27 377.17,-565.86 325.21,-562.35"/>
<polygon fill="#63b8ff" stroke="#63b8ff" points="565.79,-600.56 576.37,-599.99 567.75,-593.83 565.79,-600.56"/>
</a>
</g>
</g>
<!-- Node19 -->
<g id="Node000019" class="node">
<title>Node19</title>
<g id="a_Node000019"><a xlink:href="classttg__madness_1_1_t_t.html#af4e8733dca2905582a1cbaeb3a090322" target="_top" xlink:title=" ">
<polygon fill="white" stroke="#666666" points="510,-693 361,-693 361,-674 510,-674 510,-693"/>
<text text-anchor="middle" x="435.5" y="-681" font-family="Times,serif" font-size="10.00">ttg_madness::TT::set_args</text>
</a>
</g>
</g>
<!-- Node1&#45;&gt;Node19 -->
<g id="edge24_Node000001_Node000019" class="edge">
<title>Node1&#45;&gt;Node19</title>
<g id="a_edge24_Node000001_Node000019"><a xlink:title=" ">
<path fill="none" stroke="#63b8ff" d="M584.25,-624.89C565.27,-637.39 536.87,-654.68 510,-665.5 501.84,-668.79 492.91,-671.59 484.18,-673.93"/>
<polygon fill="#63b8ff" stroke="#63b8ff" points="586.4,-627.65 592.76,-619.18 582.51,-621.84 586.4,-627.65"/>
</a>
</g>
</g>
<!-- Node20 -->
<g id="Node000020" class="node">
<title>Node20</title>
<g id="a_Node000020"><a xlink:href="classttg__madness_1_1_t_t.html#a8c56497472193956fe135a73e67f80f9" target="_top" xlink:title=" ">
<polygon fill="white" stroke="#666666" points="510,-467 361,-467 361,-448 510,-448 510,-467"/>
<text text-anchor="middle" x="435.5" y="-455" font-family="Times,serif" font-size="10.00">ttg_madness::TT::set_args</text>
</a>
</g>
</g>
<!-- Node1&#45;&gt;Node20 -->
<g id="edge31_Node000001_Node000020" class="edge">
<title>Node1&#45;&gt;Node20</title>
<g id="a_edge31_Node000001_Node000020"><a xlink:title=" ">
<path fill="none" stroke="#63b8ff" d="M597.23,-590.83C582.5,-563.03 551.15,-510.89 510,-481.5 501.26,-475.26 490.81,-470.57 480.56,-467.08"/>
<polygon fill="#63b8ff" stroke="#63b8ff" points="594.2,-592.6 601.89,-599.89 600.42,-589.39 594.2,-592.6"/>
</a>
</g>
</g>
<!-- Node21 -->
<g id="Node000021" class="node">
<title>Node21</title>
<g id="a_Node000021"><a xlink:href="classttg__madness_1_1_t_t.html#af1f8926792b406a906e1276eb1031eed" target="_top" xlink:title=" ">
<polygon fill="white" stroke="#666666" points="496.5,-429.5 374.5,-429.5 374.5,-399.5 496.5,-399.5 496.5,-429.5"/>
<text text-anchor="start" x="382.5" y="-417.5" font-family="Times,serif" font-size="10.00">ttg_madness::TT::set</text>
<text text-anchor="middle" x="435.5" y="-406.5" font-family="Times,serif" font-size="10.00">_argstream_size</text>
</a>
</g>
</g>
<!-- Node1&#45;&gt;Node21 -->
<g id="edge32_Node000001_Node000021" class="edge">
<title>Node1&#45;&gt;Node21</title>
<g id="a_edge32_Node000001_Node000021"><a xlink:title=" ">
<path fill="none" stroke="#63b8ff" d="M600.78,-590.13C589.36,-554.81 560.43,-479.81 510,-438.5 505.85,-435.1 501.2,-432.17 496.31,-429.66"/>
<polygon fill="#63b8ff" stroke="#63b8ff" points="597.45,-591.22 603.76,-599.73 604.14,-589.14 597.45,-591.22"/>
</a>
</g>
</g>
<!-- Node22 -->
<g id="Node000022" class="node">
<title>Node22</title>
<g id="a_Node000022"><a xlink:href="classttg__madness_1_1_t_t.html#a9f0418a0dd9ec6ace5cfacf430a3461f" target="_top" xlink:title=" ">
<polygon fill="white" stroke="#666666" points="496.5,-381.5 374.5,-381.5 374.5,-351.5 496.5,-351.5 496.5,-381.5"/>
<text text-anchor="start" x="382.5" y="-369.5" font-family="Times,serif" font-size="10.00">ttg_madness::TT::set</text>
<text text-anchor="middle" x="435.5" y="-358.5" font-family="Times,serif" font-size="10.00">_argstream_size</text>
</a>
</g>
</g>
<!-- Node1&#45;&gt;Node22 -->
<g id="edge33_Node000001_Node000022" class="edge">
<title>Node1&#45;&gt;Node22</title>
<g id="a_edge33_Node000001_Node000022"><a xlink:title=" ">
<path fill="none" stroke="#63b8ff" d="M603.31,-589.55C595.43,-546.81 571.08,-445.79 510,-390.5 506.02,-386.9 501.49,-383.83 496.68,-381.23"/>
<polygon fill="#63b8ff" stroke="#63b8ff" points="599.88,-590.29 605.04,-599.54 606.78,-589.09 599.88,-590.29"/>
</a>
</g>
</g>
<!-- Node23 -->
<g id="Node000023" class="node">
<title>Node23</title>
<g id="a_Node000023"><a xlink:href="classttg__madness_1_1_t_t.html#a6ccad7e7bea21e526167e5b79adba1a2" target="_top" xlink:title=" ">
<polygon fill="white" stroke="#666666" points="496.5,-333.5 374.5,-333.5 374.5,-303.5 496.5,-303.5 496.5,-333.5"/>
<text text-anchor="start" x="382.5" y="-321.5" font-family="Times,serif" font-size="10.00">ttg_madness::TT::set</text>
<text text-anchor="middle" x="435.5" y="-310.5" font-family="Times,serif" font-size="10.00">_input_reducer</text>
</a>
</g>
</g>
<!-- Node1&#45;&gt;Node23 -->
<g id="edge34_Node000001_Node000023" class="edge">
<title>Node1&#45;&gt;Node23</title>
<g id="a_edge34_Node000001_Node000023"><a xlink:title=" ">
<path fill="none" stroke="#63b8ff" d="M605.12,-589.69C600.63,-540.65 582.25,-412.53 510,-342.5 506.05,-338.67 501.48,-335.45 496.59,-332.75"/>
<polygon fill="#63b8ff" stroke="#63b8ff" points="601.65,-590.2 605.95,-599.88 608.63,-589.63 601.65,-590.2"/>
</a>
</g>
</g>
<!-- Node24 -->
<g id="Node000024" class="node">
<title>Node24</title>
<g id="a_Node000024"><a xlink:href="classttg__madness_1_1_t_t.html#a2c7a3b3264943514ff9d25b508aaf7da" target="_top" xlink:title=" ">
<polygon fill="white" stroke="#666666" points="496.5,-285.5 374.5,-285.5 374.5,-255.5 496.5,-255.5 496.5,-285.5"/>
<text text-anchor="start" x="382.5" y="-273.5" font-family="Times,serif" font-size="10.00">ttg_madness::TT::set</text>
<text text-anchor="middle" x="435.5" y="-262.5" font-family="Times,serif" font-size="10.00">_input_reducer</text>
</a>
</g>
</g>
<!-- Node1&#45;&gt;Node24 -->
<g id="edge35_Node000001_Node000024" class="edge">
<title>Node1&#45;&gt;Node24</title>
<g id="a_edge35_Node000001_Node000024"><a xlink:title=" ">
<path fill="none" stroke="#63b8ff" d="M606.4,-589.9C605.03,-535.26 593.61,-379.66 510,-294.5 506.14,-290.57 501.64,-287.29 496.79,-284.54"/>
<polygon fill="#63b8ff" stroke="#63b8ff" points="602.9,-590.03 606.56,-599.97 609.9,-589.91 602.9,-590.03"/>
</a>
</g>
</g>
<!-- Node25 -->
<g id="Node000025" class="node">
<title>Node25</title>
<g id="a_Node000025"><a xlink:href="classttg__madness_1_1_t_t.html#a019a86085e5fb2fa2b615ed0107c6a86" target="_top" xlink:title=" ">
<polygon fill="white" stroke="#666666" points="496.5,-237.5 374.5,-237.5 374.5,-207.5 496.5,-207.5 496.5,-237.5"/>
<text text-anchor="start" x="382.5" y="-225.5" font-family="Times,serif" font-size="10.00">ttg_madness::TT::set</text>
<text text-anchor="middle" x="435.5" y="-214.5" font-family="Times,serif" font-size="10.00">_keymap</text>
</a>
</g>
</g>
<!-- Node1&#45;&gt;Node25 -->
<g id="edge36_Node000001_Node000025" class="edge">
<title>Node1&#45;&gt;Node25</title>
<g id="a_edge36_Node000001_Node000025"><a xlink:title=" ">
<path fill="none" stroke="#63b8ff" d="M603.71,-589.43C593.82,-520.92 558.39,-297.67 510,-246.5 506.13,-242.4 501.55,-239.01 496.59,-236.19"/>
<polygon fill="#63b8ff" stroke="#63b8ff" points="600.3,-590.3 605.17,-599.71 607.23,-589.31 600.3,-590.3"/>
</a>
</g>
</g>
<!-- Node26 -->
<g id="Node000026" class="node">
<title>Node26</title>
<g id="a_Node000026"><a xlink:href="classttg__madness_1_1_t_t.html#a1ed036ceab1df80073e9df308322313e" target="_top" xlink:title=" ">
<polygon fill="white" stroke="#666666" points="496.5,-189.5 374.5,-189.5 374.5,-159.5 496.5,-159.5 496.5,-189.5"/>
<text text-anchor="start" x="382.5" y="-177.5" font-family="Times,serif" font-size="10.00">ttg_madness::TT::set</text>
<text text-anchor="middle" x="435.5" y="-166.5" font-family="Times,serif" font-size="10.00">_priomap</text>
</a>
</g>
</g>
<!-- Node1&#45;&gt;Node26 -->
<g id="edge37_Node000001_Node000026" class="edge">
<title>Node1&#45;&gt;Node26</title>
<g id="a_edge37_Node000001_Node000026"><a xlink:title=" ">
<path fill="none" stroke="#63b8ff" d="M604.41,-589.72C596.25,-515.88 564.24,-257.56 510,-198.5 506.19,-194.35 501.65,-190.91 496.72,-188.07"/>
<polygon fill="#63b8ff" stroke="#63b8ff" points="600.96,-590.37 605.52,-599.93 607.92,-589.61 600.96,-590.37"/>
</a>
</g>
</g>
<!-- Node27 -->
<g id="Node000027" class="node">
<title>Node27</title>
<g id="a_Node000027"><a xlink:href="classttg__madness_1_1_t_t.html#ab6c8b768c80a14b079bb9e70f53a1cc7" target="_top" xlink:title=" ">
<polygon fill="white" stroke="#666666" points="501,-141.5 370,-141.5 370,-111.5 501,-111.5 501,-141.5"/>
<text text-anchor="start" x="378" y="-129.5" font-family="Times,serif" font-size="10.00">ttg_madness::TT::set</text>
<text text-anchor="middle" x="435.5" y="-118.5" font-family="Times,serif" font-size="10.00">_static_argstream_size</text>
</a>
</g>
</g>
<!-- Node1&#45;&gt;Node27 -->
<g id="edge38_Node000001_Node000027" class="edge">
<title>Node1&#45;&gt;Node27</title>
<g id="a_edge38_Node000001_Node000027"><a xlink:title=" ">
<path fill="none" stroke="#63b8ff" d="M604.92,-589.48C598.26,-509.95 569.99,-217.37 510,-150.5 506.95,-147.1 503.42,-144.18 499.58,-141.68"/>
<polygon fill="#63b8ff" stroke="#63b8ff" points="601.44,-589.94 605.75,-599.62 608.42,-589.37 601.44,-589.94"/>
</a>
</g>
</g>
<!-- Node28 -->
<g id="Node000028" class="node">
<title>Node28</title>
<g id="a_Node000028"><a xlink:href="classttg__madness_1_1_t_t.html#a5aea2d05192a06d6b6165fcd406b1eba" target="_top" xlink:title=" ">
<polygon fill="white" stroke="#666666" points="495.5,-93 375.5,-93 375.5,-74 495.5,-74 495.5,-93"/>
<text text-anchor="middle" x="435.5" y="-81" font-family="Times,serif" font-size="10.00">ttg_madness::TT::TT</text>
</a>
</g>
</g>
<!-- Node1&#45;&gt;Node28 -->
<g id="edge39_Node000001_Node000028" class="edge">
<title>Node1&#45;&gt;Node28</title>
<g id="a_edge39_Node000001_Node000028"><a xlink:title=" ">
<path fill="none" stroke="#63b8ff" d="M605.49,-589.76C600.79,-505.3 578.24,-175.32 510,-102.5 505.94,-98.17 501.04,-94.78 495.72,-92.13"/>
<polygon fill="#63b8ff" stroke="#63b8ff" points="602,-590 606.03,-599.8 608.99,-589.63 602,-590"/>
</a>
</g>
</g>
<!-- Node29 -->
<g id="Node000029" class="node">
<title>Node29</title>
<g id="a_Node000029"><a xlink:href="classttg__madness_1_1_t_t.html#a3b9de627838456d8c208bb3cc4da7c20" target="_top" xlink:title=" ">
<polygon fill="white" stroke="#666666" points="495.5,-56 375.5,-56 375.5,-37 495.5,-37 495.5,-56"/>
<text text-anchor="middle" x="435.5" y="-44" font-family="Times,serif" font-size="10.00">ttg_madness::TT::TT</text>
</a>
</g>
</g>
<!-- Node1&#45;&gt;Node29 -->
<g id="edge40_Node000001_Node000029" class="edge">
<title>Node1&#45;&gt;Node29</title>
<g id="a_edge40_Node000001_Node000029"><a xlink:title=" ">
<path fill="none" stroke="#63b8ff" d="M605.8,-589.7C602.27,-501.22 583.57,-143.01 510,-64.5 505.96,-60.19 501.07,-56.83 495.75,-54.24"/>
<polygon fill="#63b8ff" stroke="#63b8ff" points="602.31,-590.07 606.19,-599.93 609.31,-589.81 602.31,-590.07"/>
</a>
</g>
</g>
<!-- Node30 -->
<g id="Node000030" class="node">
<title>Node30</title>
<g id="a_Node000030"><a xlink:href="classttg__madness_1_1_t_t.html#a7a61ba733971b13989500f3be274e5cf" target="_top" xlink:title=" ">
<polygon fill="white" stroke="#666666" points="499.5,-19 371.5,-19 371.5,0 499.5,0 499.5,-19"/>
<text text-anchor="middle" x="435.5" y="-7" font-family="Times,serif" font-size="10.00">ttg_madness::TT::~TT</text>
</a>
</g>
</g>
<!-- Node1&#45;&gt;Node30 -->
<g id="edge41_Node000001_Node000030" class="edge">
<title>Node1&#45;&gt;Node30</title>
<g id="a_edge41_Node000001_Node000030"><a xlink:title=" ">
<path fill="none" stroke="#63b8ff" d="M606.04,-589.54C603.5,-497.14 588.29,-111.96 510,-27.5 506.87,-24.13 503.23,-21.34 499.27,-19.04"/>
<polygon fill="#63b8ff" stroke="#63b8ff" points="602.55,-589.83 606.3,-599.74 609.54,-589.65 602.55,-589.83"/>
</a>
</g>
</g>
<!-- Node5&#45;&gt;Node6 -->
<g id="edge6_Node000005_Node000006" class="edge">
<title>Node5&#45;&gt;Node6</title>
<g id="a_edge6_Node000005_Node000006"><a xlink:title=" ">
<path fill="none" stroke="#63b8ff" d="M170.46,-733.5C160.35,-733.5 150.06,-733.5 140.12,-733.5"/>
<polygon fill="#63b8ff" stroke="#63b8ff" points="170.49,-737 180.49,-733.5 170.49,-730 170.49,-737"/>
</a>
</g>
</g>
<!-- Node5&#45;&gt;Node7 -->
<g id="edge7_Node000005_Node000007" class="edge">
<title>Node5&#45;&gt;Node7</title>
<g id="a_edge7_Node000005_Node000007"><a xlink:title=" ">
<path fill="none" stroke="#63b8ff" d="M217.4,-719.83C181.63,-704.6 124.71,-680.37 93.42,-667.05"/>
<polygon fill="#63b8ff" stroke="#63b8ff" points="216.32,-723.18 226.89,-723.87 219.06,-716.74 216.32,-723.18"/>
</a>
</g>
</g>
<!-- Node11&#45;&gt;Node12 -->
<g id="edge14_Node000011_Node000012" class="edge">
<title>Node11&#45;&gt;Node12</title>
<g id="a_edge14_Node000011_Node000012"><a xlink:title=" ">
<path fill="none" stroke="#63b8ff" d="M355.06,-974.5C344.26,-974.5 333.24,-974.5 322.61,-974.5"/>
<polygon fill="#63b8ff" stroke="#63b8ff" points="355.32,-978 365.32,-974.5 355.32,-971 355.32,-978"/>
</a>
</g>
</g>
<!-- Node14&#45;&gt;Node4 -->
<g id="edge17_Node000014_Node000004" class="edge">
<title>Node14&#45;&gt;Node4</title>
<g id="a_edge17_Node000014_Node000004"><a xlink:title=" ">
<path fill="none" stroke="#63b8ff" d="M353.44,-1025.03C339.54,-1026.32 325.32,-1027.64 312.08,-1028.87"/>
<polygon fill="#63b8ff" stroke="#63b8ff" points="353.85,-1028.51 363.49,-1024.1 353.2,-1021.54 353.85,-1028.51"/>
</a>
</g>
</g>
<!-- Node14&#45;&gt;Node12 -->
<g id="edge18_Node000014_Node000012" class="edge">
<title>Node14&#45;&gt;Node12</title>
<g id="a_edge18_Node000014_Node000012"><a xlink:title=" ">
<path fill="none" stroke="#63b8ff" d="M383.95,-1005.62C354.98,-998.81 319.1,-990.38 292,-984.02"/>
<polygon fill="#63b8ff" stroke="#63b8ff" points="383.35,-1009.08 393.89,-1007.96 384.95,-1002.26 383.35,-1009.08"/>
</a>
</g>
</g>
<!-- Node19&#45;&gt;Node5 -->
<g id="edge25_Node000019_Node000005" class="edge">
<title>Node19&#45;&gt;Node5</title>
<g id="a_edge25_Node000019_Node000005"><a xlink:title=" ">
<path fill="none" stroke="#63b8ff" d="M387.34,-695.52C378.58,-697.8 369.5,-700.2 361,-702.5 335.25,-709.47 306.21,-717.71 284.51,-723.94"/>
<polygon fill="#63b8ff" stroke="#63b8ff" points="388.26,-698.9 397.06,-693 386.51,-692.12 388.26,-698.9"/>
</a>
</g>
</g>
<!-- Node19&#45;&gt;Node6 -->
<g id="edge27_Node000019_Node000006" class="edge">
<title>Node19&#45;&gt;Node6</title>
<g id="a_edge27_Node000019_Node000006"><a xlink:title=" ">
<path fill="none" stroke="#63b8ff" d="M350.59,-692.88C299.95,-698.8 234.18,-706.92 176,-715.5 158.98,-718.01 140.47,-721.07 123.8,-723.95"/>
<polygon fill="#63b8ff" stroke="#63b8ff" points="351.31,-696.32 360.84,-691.69 350.5,-689.37 351.31,-696.32"/>
</a>
</g>
</g>
<!-- Node19&#45;&gt;Node7 -->
<g id="edge28_Node000019_Node000007" class="edge">
<title>Node19&#45;&gt;Node7</title>
<g id="a_edge28_Node000019_Node000007"><a xlink:title=" ">
<path fill="none" stroke="#63b8ff" d="M350.9,-677.52C287.04,-672.95 200.1,-666.73 140.14,-662.45"/>
<polygon fill="#63b8ff" stroke="#63b8ff" points="350.72,-681.02 360.94,-678.24 351.22,-674.03 350.72,-681.02"/>
</a>
</g>
</g>
<!-- Node19&#45;&gt;Node9 -->
<g id="edge26_Node000019_Node000009" class="edge">
<title>Node19&#45;&gt;Node9</title>
<g id="a_edge26_Node000019_Node000009"><a xlink:title=" ">
<path fill="none" stroke="#63b8ff" d="M370.26,-697.12C367.03,-698.72 363.92,-700.51 361,-702.5 338.4,-717.96 346.41,-735.43 325,-752.5 313.2,-761.91 298.12,-768.93 284.7,-773.88"/>
<polygon fill="#63b8ff" stroke="#63b8ff" points="371.83,-700.26 379.64,-693.1 369.07,-693.82 371.83,-700.26"/>
</a>
</g>
</g>
<!-- Node19&#45;&gt;Node17 -->
<g id="edge29_Node000019_Node000017" class="edge">
<title>Node19&#45;&gt;Node17</title>
<g id="a_edge29_Node000019_Node000017"><a xlink:title=" ">
<path fill="none" stroke="#63b8ff" d="M375.75,-670.97C370.69,-669.34 365.71,-667.52 361,-665.5 355.94,-663.34 295.06,-623.85 266.33,-605.16"/>
<polygon fill="#63b8ff" stroke="#63b8ff" points="374.94,-674.38 385.53,-673.9 376.95,-667.68 374.94,-674.38"/>
</a>
</g>
</g>
<!-- Node19&#45;&gt;Node18 -->
<g id="edge30_Node000019_Node000018" class="edge">
<title>Node19&#45;&gt;Node18</title>
<g id="a_edge30_Node000019_Node000018"><a xlink:title=" ">
<path fill="none" stroke="#63b8ff" d="M365.18,-668.74C363.73,-667.73 362.33,-666.65 361,-665.5 328.99,-637.91 356.83,-605.29 325,-577.5 320.63,-573.69 315.59,-570.62 310.24,-568.16"/>
<polygon fill="#63b8ff" stroke="#63b8ff" points="363.56,-671.85 373.96,-673.84 367.07,-665.79 363.56,-671.85"/>
</a>
</g>
</g>
</g>
</svg>

<g id="navigator" transform="translate(0 0)" fill="#404254">
  <rect fill="#f2f5e9" fill-opacity="0.5" stroke="#606060" stroke-width=".5" x="0" y="0" width="60" height="60"/>
  <use id="zoomplus" xlink:href="#zoomPlus" x="17" y="9" onmousedown="handleZoom(evt,'in')"/>
  <use id="zoomminus" xlink:href="#zoomMin" x="42" y="9" onmousedown="handleZoom(evt,'out')"/>
  <use id="reset" xlink:href="#resetDef" x="30" y="36" onmousedown="handleReset()"/>
   <use id="arrowup" xlink:href="#arrowUp" x="0" y="0" onmousedown="handlePan(0,-1)"/>
  <use id="arrowright" xlink:href="#arrowRight" x="0" y="0" onmousedown="handlePan(1,0)"/>
  <use id="arrowdown" xlink:href="#arrowDown" x="0" y="0" onmousedown="handlePan(0,1)"/>
  <use id="arrowleft" xlink:href="#arrowLeft" x="0" y="0" onmousedown="handlePan(-1,0)"/>
</g>
<svg viewBox="0 0 15 15" width="100%" height="30px" preserveAspectRatio="xMaxYMin meet">
 <g id="arrow_out" transform="scale(0.3 0.3)">
  <a xlink:href="classttg__madness_1_1_t_t_a3fb0ab18d00c27fae64e1bd1b78d3d0d_icgraph_org.svg" target="_base">
   <rect id="button" ry="5" rx="5" y="6" x="6" height="38" width="38"
        fill="#f2f5e9" fill-opacity="0.5" stroke="#606060" stroke-width="1.0"/>
   <path id="arrow"
     d="M 11.500037,31.436501 C 11.940474,20.09759 22.043105,11.32322 32.158766,21.979434 L 37.068811,17.246167 C 37.068811,17.246167 37.088388,32 37.088388,32 L 22.160133,31.978069 C 22.160133,31.978069 26.997745,27.140456 26.997745,27.140456 C 18.528582,18.264221 13.291696,25.230495 11.500037,31.436501 z"
     style="fill:#404040;"/>
  </a>
 </g>
</svg>

<style type='text/css'>
<![CDATA[
[data-mouse-over-selected='false'] { opacity: 0.7; }
[data-mouse-over-selected='true']  { opacity: 1.0; }
]]>
</style>
<script type="application/ecmascript"><![CDATA[
document.addEventListener('DOMContentLoaded', (event) => {
  highlightEdges();
  highlightAdjacentNodes();
});
]]></script>
</svg>
