<?xml version="1.0" encoding="UTF-8" standalone="no"?>
<!DOCTYPE svg PUBLIC "-//W3C//DTD SVG 1.1//EN"
 "http://www.w3.org/Graphics/SVG/1.1/DTD/svg11.dtd">
<!-- Generated by graphviz version 2.43.0 (0)
 -->
<!-- Title: ttg::Debugger::got_signal Pages: 1 -->
<svg width="667pt" height="85pt"
 viewBox="0.00 0.00 667.00 85.00" xmlns="http://www.w3.org/2000/svg" xmlns:xlink="http://www.w3.org/1999/xlink">
<g id="graph0" class="graph" transform="scale(1 1) rotate(0) translate(4 81)">
<title>ttg::Debugger::got_signal</title>
<!-- Node1 -->
<g id="Node000001" class="node">
<title>Node1</title>
<g id="a_Node000001"><a xlink:title="Called when signal sig is received. This is mainly for internal use.">
<polygon fill="#999999" stroke="#666666" points="111,-63.5 0,-63.5 0,-33.5 111,-33.5 111,-63.5"/>
<text text-anchor="start" x="8" y="-51.5" font-family="Times,serif" font-size="10.00">ttg::Debugger::got</text>
<text text-anchor="middle" x="55.5" y="-40.5" font-family="Times,serif" font-size="10.00">_signal</text>
</a>
</g>
</g>
<!-- Node2 -->
<g id="Node000002" class="node">
<title>Node2</title>
<g id="a_Node000002"><a xlink:href="classttg_1_1_debugger.html#af08e9080a2ff5de53bd54b9258dbcd7d" target="_top" xlink:title=" ">
<polygon fill="white" stroke="#666666" points="283,-77 155,-77 155,-58 283,-58 283,-77"/>
<text text-anchor="middle" x="219" y="-65" font-family="Times,serif" font-size="10.00">ttg::Debugger::debug</text>
</a>
</g>
</g>
<!-- Node1&#45;&gt;Node2 -->
<g id="edge1_Node000001_Node000002" class="edge">
<title>Node1&#45;&gt;Node2</title>
<g id="a_edge1_Node000001_Node000002"><a xlink:title=" ">
<path fill="none" stroke="#63b8ff" d="M111.18,-54.93C121.9,-56.19 133.3,-57.54 144.52,-58.86"/>
<polygon fill="#63b8ff" stroke="#63b8ff" points="144.4,-62.37 154.74,-60.06 145.22,-55.41 144.4,-62.37"/>
</a>
</g>
</g>
<!-- Node4 -->
<g id="Node000004" class="node">
<title>Node4</title>
<g id="a_Node000004"><a xlink:href="classttg_1_1_debugger.html#a7081cd8a132843fdfb522704abec79af" target="_top" xlink:title=" ">
<polygon fill="white" stroke="#666666" points="291,-40 147,-40 147,-21 291,-21 291,-40"/>
<text text-anchor="middle" x="219" y="-28" font-family="Times,serif" font-size="10.00">ttg::Debugger::traceback</text>
</a>
</g>
</g>
<!-- Node1&#45;&gt;Node4 -->
<g id="edge3_Node000001_Node000004" class="edge">
<title>Node1&#45;&gt;Node4</title>
<g id="a_edge3_Node000001_Node000004"><a xlink:title=" ">
<path fill="none" stroke="#63b8ff" d="M111.18,-42.41C119.4,-41.49 128.02,-40.53 136.66,-39.57"/>
<polygon fill="#63b8ff" stroke="#63b8ff" points="137.22,-43.02 146.77,-38.44 136.45,-36.07 137.22,-43.02"/>
</a>
</g>
</g>
<!-- Node3 -->
<g id="Node000003" class="node">
<title>Node3</title>
<g id="a_Node000003"><a xlink:href="classttg_1_1_debugger.html#af18b7e16e97d1ce30cc2aa226a247a1b" target="_top" xlink:title="Reverts the effect of handle(sig) , i.e. the Debugger will not be activated when sig is caught.">
<polygon fill="white" stroke="#666666" points="470,-77 339,-77 339,-58 470,-58 470,-77"/>
<text text-anchor="middle" x="404.5" y="-65" font-family="Times,serif" font-size="10.00">ttg::Debugger::release</text>
</a>
</g>
</g>
<!-- Node2&#45;&gt;Node3 -->
<g id="edge2_Node000002_Node000003" class="edge">
<title>Node2&#45;&gt;Node3</title>
<g id="a_edge2_Node000002_Node000003"><a xlink:title=" ">
<path fill="none" stroke="#63b8ff" d="M283.15,-67.5C297.81,-67.5 313.55,-67.5 328.65,-67.5"/>
<polygon fill="#63b8ff" stroke="#63b8ff" points="328.99,-71 338.99,-67.5 328.99,-64 328.99,-71"/>
</a>
</g>
</g>
<!-- Node5 -->
<g id="Node000005" class="node">
<title>Node5</title>
<g id="a_Node000005"><a xlink:href="classttg_1_1_debugger.html#a3bded73e46b0fb03ec108818b1ef4b88" target="_top" xlink:title=" ">
<polygon fill="white" stroke="#666666" points="482,-40 327,-40 327,-21 482,-21 482,-40"/>
<text text-anchor="middle" x="404.5" y="-28" font-family="Times,serif" font-size="10.00">ttg::Debugger::__traceback</text>
</a>
</g>
</g>
<!-- Node4&#45;&gt;Node5 -->
<g id="edge4_Node000004_Node000005" class="edge">
<title>Node4&#45;&gt;Node5</title>
<g id="a_edge4_Node000004_Node000005"><a xlink:title=" ">
<path fill="none" stroke="#63b8ff" d="M291.21,-30.5C299.61,-30.5 308.25,-30.5 316.83,-30.5"/>
<polygon fill="#63b8ff" stroke="#63b8ff" points="316.86,-34 326.86,-30.5 316.86,-27 316.86,-34"/>
</a>
</g>
</g>
<!-- Node6 -->
<g id="Node000006" class="node">
<title>Node6</title>
<g id="a_Node000006"><a xlink:href="classttg_1_1detail_1_1_backtrace.html#aaab9437247fb8d0f7ecd701cb6c95ecd" target="_top" xlink:title=" ">
<polygon fill="white" stroke="#666666" points="649.5,-67.5 527.5,-67.5 527.5,-37.5 649.5,-37.5 649.5,-67.5"/>
<text text-anchor="start" x="535.5" y="-55.5" font-family="Times,serif" font-size="10.00">ttg::detail::Backtrace</text>
<text text-anchor="middle" x="588.5" y="-44.5" font-family="Times,serif" font-size="10.00">::empty</text>
</a>
</g>
</g>
<!-- Node5&#45;&gt;Node6 -->
<g id="edge5_Node000005_Node000006" class="edge">
<title>Node5&#45;&gt;Node6</title>
<g id="a_edge5_Node000005_Node000006"><a xlink:title=" ">
<path fill="none" stroke="#63b8ff" d="M482.16,-39.77C493.8,-41.17 505.77,-42.62 517.27,-44.01"/>
<polygon fill="#63b8ff" stroke="#63b8ff" points="516.89,-47.49 527.24,-45.22 517.73,-40.54 516.89,-47.49"/>
</a>
</g>
</g>
<!-- Node7 -->
<g id="Node000007" class="node">
<title>Node7</title>
<g id="a_Node000007"><a xlink:href="classttg_1_1detail_1_1_backtrace.html#adb582a944775b8221ac0502217f80e5f" target="_top" xlink:title=" ">
<polygon fill="white" stroke="#666666" points="659,-19 518,-19 518,0 659,0 659,-19"/>
<text text-anchor="middle" x="588.5" y="-7" font-family="Times,serif" font-size="10.00">ttg::detail::Backtrace::str</text>
</a>
</g>
</g>
<!-- Node5&#45;&gt;Node7 -->
<g id="edge6_Node000005_Node000007" class="edge">
<title>Node5&#45;&gt;Node7</title>
<g id="a_edge6_Node000005_Node000007"><a xlink:title=" ">
<path fill="none" stroke="#63b8ff" d="M482.16,-21.65C490.68,-20.67 499.37,-19.67 507.92,-18.68"/>
<polygon fill="#63b8ff" stroke="#63b8ff" points="508.35,-22.16 517.88,-17.53 507.54,-15.2 508.35,-22.16"/>
</a>
</g>
</g>
</g>
</svg>
