<?xml version="1.0" encoding="UTF-8" standalone="no"?>
<!DOCTYPE svg PUBLIC "-//W3C//DTD SVG 1.1//EN"
 "http://www.w3.org/Graphics/SVG/1.1/DTD/svg11.dtd">
<!-- Generated by graphviz version 2.43.0 (0)
 -->
<!-- Title: ttg_madness::TT::~TT Pages: 1 -->
<svg width="480pt" height="199pt"
 viewBox="0.00 0.00 480.00 198.50" xmlns="http://www.w3.org/2000/svg" xmlns:xlink="http://www.w3.org/1999/xlink">
<g id="graph0" class="graph" transform="scale(1 1) rotate(0) translate(4 194.5)">
<title>ttg_madness::TT::~TT</title>
<!-- Node1 -->
<g id="Node000001" class="node">
<title>Node1</title>
<g id="a_Node000001"><a xlink:title=" ">
<polygon fill="#999999" stroke="#666666" points="128,-98.5 0,-98.5 0,-79.5 128,-79.5 128,-98.5"/>
<text text-anchor="middle" x="64" y="-86.5" font-family="Times,serif" font-size="10.00">ttg_madness::TT::~TT</text>
</a>
</g>
</g>
<!-- Node2 -->
<g id="Node000002" class="node">
<title>Node2</title>
<g id="a_Node000002"><a xlink:href="namespacettg.html#a408d84f3b0f9b79a3278a3eac949b207" target="_top" xlink:title="Aborts the TTG program using the default backend&#39;s ttg_abort method.">
<polygon fill="white" stroke="#666666" points="276.5,-190.5 212.5,-190.5 212.5,-171.5 276.5,-171.5 276.5,-190.5"/>
<text text-anchor="middle" x="244.5" y="-178.5" font-family="Times,serif" font-size="10.00">ttg::abort</text>
</a>
</g>
</g>
<!-- Node1&#45;&gt;Node2 -->
<g id="edge1_Node000001_Node000002" class="edge">
<title>Node1&#45;&gt;Node2</title>
<g id="a_edge1_Node000001_Node000002"><a xlink:title=" ">
<path fill="none" stroke="#63b8ff" d="M74.76,-98.57C91.53,-114.45 127.56,-146.19 164,-163 175.96,-168.52 189.74,-172.41 202.43,-175.12"/>
<polygon fill="#63b8ff" stroke="#63b8ff" points="201.83,-178.57 212.32,-177.05 203.18,-171.69 201.83,-178.57"/>
</a>
</g>
</g>
<!-- Node3 -->
<g id="Node000003" class="node">
<title>Node3</title>
<g id="a_Node000003"><a xlink:href="classttg__madness_1_1_t_t.html#a3fb0ab18d00c27fae64e1bd1b78d3d0d" target="_top" xlink:title=" ">
<polygon fill="white" stroke="#666666" points="306,-135.5 183,-135.5 183,-116.5 306,-116.5 306,-135.5"/>
<text text-anchor="middle" x="244.5" y="-123.5" font-family="Times,serif" font-size="10.00">ttg_madness::TT::get</text>
</a>
</g>
</g>
<!-- Node1&#45;&gt;Node3 -->
<g id="edge2_Node000001_Node000003" class="edge">
<title>Node1&#45;&gt;Node3</title>
<g id="a_edge2_Node000001_Node000003"><a xlink:title=" ">
<path fill="none" stroke="#63b8ff" d="M110.97,-98.53C134.3,-103.36 162.84,-109.28 187.45,-114.38"/>
<polygon fill="#63b8ff" stroke="#63b8ff" points="186.88,-117.84 197.38,-116.44 188.3,-110.98 186.88,-117.84"/>
</a>
</g>
</g>
<!-- Node4 -->
<g id="Node000004" class="node">
<title>Node4</title>
<g id="a_Node000004"><a xlink:href="classttg_1_1_t_t_base.html#a7eda400c622206320177ca781efecdfd" target="_top" xlink:title="Gets the demangled class name (uses RTTI)">
<polygon fill="white" stroke="#666666" points="325,-98.5 164,-98.5 164,-79.5 325,-79.5 325,-98.5"/>
<text text-anchor="middle" x="244.5" y="-86.5" font-family="Times,serif" font-size="10.00">ttg::TTBase::get_class_name</text>
</a>
</g>
</g>
<!-- Node1&#45;&gt;Node4 -->
<g id="edge4_Node000001_Node000004" class="edge">
<title>Node1&#45;&gt;Node4</title>
<g id="a_edge4_Node000001_Node000004"><a xlink:title=" ">
<path fill="none" stroke="#63b8ff" d="M128.18,-89C136.47,-89 145.09,-89 153.72,-89"/>
<polygon fill="#63b8ff" stroke="#63b8ff" points="153.83,-92.5 163.83,-89 153.83,-85.5 153.83,-92.5"/>
</a>
</g>
</g>
<!-- Node5 -->
<g id="Node000005" class="node">
<title>Node5</title>
<g id="a_Node000005"><a xlink:href="classttg_1_1_t_t_base.html#ade3b1e6b149fe1124f7192aeca5f715c" target="_top" xlink:title="Gets the name of this operation.">
<polygon fill="white" stroke="#666666" points="310,-61.5 179,-61.5 179,-42.5 310,-42.5 310,-61.5"/>
<text text-anchor="middle" x="244.5" y="-49.5" font-family="Times,serif" font-size="10.00">ttg::TTBase::get_name</text>
</a>
</g>
</g>
<!-- Node1&#45;&gt;Node5 -->
<g id="edge5_Node000001_Node000005" class="edge">
<title>Node1&#45;&gt;Node5</title>
<g id="a_edge5_Node000001_Node000005"><a xlink:title=" ">
<path fill="none" stroke="#63b8ff" d="M110.97,-79.47C134.3,-74.64 162.84,-68.72 187.45,-63.62"/>
<polygon fill="#63b8ff" stroke="#63b8ff" points="188.3,-67.02 197.38,-61.56 186.88,-60.16 188.3,-67.02"/>
</a>
</g>
</g>
<!-- Node6 -->
<g id="Node000006" class="node">
<title>Node6</title>
<g id="a_Node000006"><a xlink:href="classttg_1_1base_1_1_world.html#a7c354d1e43268884cb3b947f44ce0f5e" target="_top" xlink:title=" ">
<polygon fill="white" stroke="#666666" points="307.5,-24.5 181.5,-24.5 181.5,-5.5 307.5,-5.5 307.5,-24.5"/>
<text text-anchor="middle" x="244.5" y="-12.5" font-family="Times,serif" font-size="10.00">ttg::base::World::rank</text>
</a>
</g>
</g>
<!-- Node1&#45;&gt;Node6 -->
<g id="edge6_Node000001_Node000006" class="edge">
<title>Node1&#45;&gt;Node6</title>
<g id="a_edge6_Node000001_Node000006"><a xlink:title=" ">
<path fill="none" stroke="#63b8ff" d="M79.47,-79.29C98.23,-67.11 132.3,-46.33 164,-34 170.4,-31.51 177.22,-29.29 184.07,-27.31"/>
<polygon fill="#63b8ff" stroke="#63b8ff" points="185.35,-30.59 194.09,-24.6 183.52,-23.83 185.35,-30.59"/>
</a>
</g>
</g>
<!-- Node3&#45;&gt;Node3 -->
<g id="edge3_Node000003_Node000003" class="edge">
<title>Node3&#45;&gt;Node3</title>
<g id="a_edge3_Node000003_Node000003"><a xlink:title=" ">
<path fill="none" stroke="#63b8ff" d="M217.99,-135.58C205.09,-144.23 213.93,-153.5 244.5,-153.5 265.04,-153.5 275.77,-149.32 276.69,-143.95"/>
<polygon fill="#63b8ff" stroke="#63b8ff" points="279.52,-141.89 271.01,-135.58 273.73,-145.82 279.52,-141.89"/>
</a>
</g>
</g>
<!-- Node7 -->
<g id="Node000007" class="node">
<title>Node7</title>
<g id="a_Node000007"><a xlink:href="classttg_1_1base_1_1_world.html#af39ca1832f455a94134515f94aaa8533" target="_top" xlink:title=" ">
<polygon fill="white" stroke="#666666" points="472,-30 361,-30 361,0 472,0 472,-30"/>
<text text-anchor="start" x="369" y="-18" font-family="Times,serif" font-size="10.00">ttg::base::World::is</text>
<text text-anchor="middle" x="416.5" y="-7" font-family="Times,serif" font-size="10.00">_valid</text>
</a>
</g>
</g>
<!-- Node6&#45;&gt;Node7 -->
<g id="edge7_Node000006_Node000007" class="edge">
<title>Node6&#45;&gt;Node7</title>
<g id="a_edge7_Node000006_Node000007"><a xlink:title=" ">
<path fill="none" stroke="#63b8ff" d="M307.84,-15C321.79,-15 336.62,-15 350.68,-15"/>
<polygon fill="#63b8ff" stroke="#63b8ff" points="350.75,-18.5 360.75,-15 350.75,-11.5 350.75,-18.5"/>
</a>
</g>
</g>
</g>
</svg>
