<?xml version="1.0" encoding="UTF-8" standalone="no"?>
<!DOCTYPE svg PUBLIC "-//W3C//DTD SVG 1.1//EN"
 "http://www.w3.org/Graphics/SVG/1.1/DTD/svg11.dtd">
<!-- Generated by graphviz version 2.43.0 (0)
 -->
<!-- Title: ttg::TTBase::set_input Pages: 1 -->
<svg width="449pt" height="175pt"
 viewBox="0.00 0.00 449.00 175.00" xmlns="http://www.w3.org/2000/svg" xmlns:xlink="http://www.w3.org/1999/xlink">

<svg id="main" version="1.1" xmlns="http://www.w3.org/2000/svg" xmlns:xlink="http://www.w3.org/1999/xlink" xml:space="preserve" onload="init(evt)">
<style type="text/css"><![CDATA[
.node, .edge {opacity: 0.7;}
.node.selected, .edge.selected {opacity: 1;}
.edge:hover path { stroke: red; }
.edge:hover polygon { stroke: red; fill: red; }
]]></style>
<script type="application/ecmascript" xlink:href="svg.min.js"/>
<svg id="graph" class="graph">
<g id="graph0" class="graph" transform="scale(1 1) rotate(0) translate(4 171)">
<title>ttg::TTBase::set_input</title>
<!-- Node1 -->
<g id="Node000001" class="node">
<title>Node1</title>
<g id="a_Node000001"><a xlink:title=" ">
<polygon fill="#999999" stroke="#666666" points="441,-93 313,-93 313,-74 441,-74 441,-93"/>
<text text-anchor="middle" x="377" y="-81" font-family="Times,serif" font-size="10.00">ttg::TTBase::set_input</text>
</a>
</g>
</g>
<!-- Node2 -->
<g id="Node000002" class="node">
<title>Node2</title>
<g id="a_Node000002"><a xlink:href="classttg_1_1_t_t_base.html#ad27fa3b380e1ccec338e7ce022a58150" target="_top" xlink:title=" ">
<polygon fill="white" stroke="#666666" points="277,-98.5 156,-98.5 156,-68.5 277,-68.5 277,-98.5"/>
<text text-anchor="start" x="164" y="-86.5" font-family="Times,serif" font-size="10.00">ttg::TTBase::register</text>
<text text-anchor="middle" x="216.5" y="-75.5" font-family="Times,serif" font-size="10.00">_input_terminals</text>
</a>
</g>
</g>
<!-- Node1&#45;&gt;Node2 -->
<g id="edge1_Node000001_Node000002" class="edge">
<title>Node1&#45;&gt;Node2</title>
<g id="a_edge1_Node000001_Node000002"><a xlink:title=" ">
<path fill="none" stroke="#63b8ff" d="M302.83,-83.5C294.19,-83.5 285.45,-83.5 277.03,-83.5"/>
<polygon fill="#63b8ff" stroke="#63b8ff" points="302.9,-87 312.9,-83.5 302.9,-80 302.9,-87"/>
</a>
</g>
</g>
<!-- Node3 -->
<g id="Node000003" class="node">
<title>Node3</title>
<g id="a_Node000003"><a xlink:href="classttg_1_1_sink_t_t.html#ac77b4fb1c7c674a85220f862397ff797" target="_top" xlink:title=" ">
<polygon fill="white" stroke="#666666" points="117,-167 3,-167 3,-148 117,-148 117,-167"/>
<text text-anchor="middle" x="60" y="-155" font-family="Times,serif" font-size="10.00">ttg::SinkTT::SinkTT</text>
</a>
</g>
</g>
<!-- Node2&#45;&gt;Node3 -->
<g id="edge2_Node000002_Node000003" class="edge">
<title>Node2&#45;&gt;Node3</title>
<g id="a_edge2_Node000002_Node000003"><a xlink:title=" ">
<path fill="none" stroke="#63b8ff" d="M184.67,-104.08C166.42,-115.61 142.54,-129.62 120,-139.5 112.74,-142.68 104.75,-145.53 97.06,-147.97"/>
<polygon fill="#63b8ff" stroke="#63b8ff" points="186.61,-106.99 193.14,-98.64 182.83,-101.1 186.61,-106.99"/>
</a>
</g>
</g>
<!-- Node4 -->
<g id="Node000004" class="node">
<title>Node4</title>
<g id="a_Node000004"><a xlink:href="classttg_1_1_sink_t_t.html#a0a361b75c6d7edc3645fc3784a5f6543" target="_top" xlink:title=" ">
<polygon fill="white" stroke="#666666" points="117,-130 3,-130 3,-111 117,-111 117,-130"/>
<text text-anchor="middle" x="60" y="-118" font-family="Times,serif" font-size="10.00">ttg::SinkTT::SinkTT</text>
</a>
</g>
</g>
<!-- Node2&#45;&gt;Node4 -->
<g id="edge3_Node000002_Node000004" class="edge">
<title>Node2&#45;&gt;Node4</title>
<g id="a_edge3_Node000002_Node000004"><a xlink:title=" ">
<path fill="none" stroke="#63b8ff" d="M145.77,-100.2C130.43,-103.87 114.69,-107.64 101.01,-110.92"/>
<polygon fill="#63b8ff" stroke="#63b8ff" points="146.86,-103.54 155.77,-97.81 145.23,-96.73 146.86,-103.54"/>
</a>
</g>
</g>
<!-- Node5 -->
<g id="Node000005" class="node">
<title>Node5</title>
<g id="a_Node000005"><a xlink:href="classttg__madness_1_1_t_t.html#a5aea2d05192a06d6b6165fcd406b1eba" target="_top" xlink:title=" ">
<polygon fill="white" stroke="#666666" points="120,-93 0,-93 0,-74 120,-74 120,-93"/>
<text text-anchor="middle" x="60" y="-81" font-family="Times,serif" font-size="10.00">ttg_madness::TT::TT</text>
</a>
</g>
</g>
<!-- Node2&#45;&gt;Node5 -->
<g id="edge4_Node000002_Node000005" class="edge">
<title>Node2&#45;&gt;Node5</title>
<g id="a_edge4_Node000002_Node000005"><a xlink:title=" ">
<path fill="none" stroke="#63b8ff" d="M145.49,-83.5C136.99,-83.5 128.38,-83.5 120.07,-83.5"/>
<polygon fill="#63b8ff" stroke="#63b8ff" points="145.77,-87 155.77,-83.5 145.77,-80 145.77,-87"/>
</a>
</g>
</g>
<!-- Node6 -->
<g id="Node000006" class="node">
<title>Node6</title>
<g id="a_Node000006"><a xlink:href="classttg__madness_1_1_t_t.html#a3b9de627838456d8c208bb3cc4da7c20" target="_top" xlink:title=" ">
<polygon fill="white" stroke="#666666" points="120,-56 0,-56 0,-37 120,-37 120,-56"/>
<text text-anchor="middle" x="60" y="-44" font-family="Times,serif" font-size="10.00">ttg_madness::TT::TT</text>
</a>
</g>
</g>
<!-- Node2&#45;&gt;Node6 -->
<g id="edge5_Node000002_Node000006" class="edge">
<title>Node2&#45;&gt;Node6</title>
<g id="a_edge5_Node000002_Node000006"><a xlink:title=" ">
<path fill="none" stroke="#63b8ff" d="M145.77,-66.8C130.43,-63.13 114.69,-59.36 101.01,-56.08"/>
<polygon fill="#63b8ff" stroke="#63b8ff" points="145.23,-70.27 155.77,-69.19 146.86,-63.46 145.23,-70.27"/>
</a>
</g>
</g>
<!-- Node7 -->
<g id="Node000007" class="node">
<title>Node7</title>
<g id="a_Node000007"><a xlink:href="classttg__parsec_1_1_t_t.html#a91ff2c4ba25da30a955c5f5a19ec5c89" target="_top" xlink:title=" ">
<polygon fill="white" stroke="#666666" points="114,-19 6,-19 6,0 114,0 114,-19"/>
<text text-anchor="middle" x="60" y="-7" font-family="Times,serif" font-size="10.00">ttg_parsec::TT::TT</text>
</a>
</g>
</g>
<!-- Node2&#45;&gt;Node7 -->
<g id="edge6_Node000002_Node000007" class="edge">
<title>Node2&#45;&gt;Node7</title>
<g id="a_edge6_Node000002_Node000007"><a xlink:title=" ">
<path fill="none" stroke="#63b8ff" d="M183.33,-62.69C165.21,-51.57 141.9,-38.2 120,-28.5 112.03,-24.97 103.2,-21.77 94.85,-19.05"/>
<polygon fill="#63b8ff" stroke="#63b8ff" points="181.95,-65.96 192.29,-68.27 185.65,-60.02 181.95,-65.96"/>
</a>
</g>
</g>
</g>
</svg>
</svg>

<style type='text/css'>
<![CDATA[
[data-mouse-over-selected='false'] { opacity: 0.7; }
[data-mouse-over-selected='true']  { opacity: 1.0; }
]]>
</style>
<script type="application/ecmascript"><![CDATA[
document.addEventListener('DOMContentLoaded', (event) => {
  highlightEdges();
  highlightAdjacentNodes();
});
]]></script>
</svg>
