<?xml version="1.0" encoding="UTF-8" standalone="no"?>
<!DOCTYPE svg PUBLIC "-//W3C//DTD SVG 1.1//EN"
 "http://www.w3.org/Graphics/SVG/1.1/DTD/svg11.dtd">
<!-- Generated by graphviz version 2.43.0 (0)
 -->
<!-- Title: ttg::Debugger::release Pages: 1 -->
<svg width="450pt" height="38pt"
 viewBox="0.00 0.00 450.00 38.00" xmlns="http://www.w3.org/2000/svg" xmlns:xlink="http://www.w3.org/1999/xlink">
<g id="graph0" class="graph" transform="scale(1 1) rotate(0) translate(4 34)">
<title>ttg::Debugger::release</title>
<!-- Node1 -->
<g id="Node000001" class="node">
<title>Node1</title>
<g id="a_Node000001"><a xlink:title="Reverts the effect of handle(sig) , i.e. the Debugger will not be activated when sig is caught.">
<polygon fill="#999999" stroke="#666666" points="442,-24.5 311,-24.5 311,-5.5 442,-5.5 442,-24.5"/>
<text text-anchor="middle" x="376.5" y="-12.5" font-family="Times,serif" font-size="10.00">ttg::Debugger::release</text>
</a>
</g>
</g>
<!-- Node2 -->
<g id="Node000002" class="node">
<title>Node2</title>
<g id="a_Node000002"><a xlink:href="classttg_1_1_debugger.html#af08e9080a2ff5de53bd54b9258dbcd7d" target="_top" xlink:title=" ">
<polygon fill="white" stroke="#666666" points="275,-24.5 147,-24.5 147,-5.5 275,-5.5 275,-24.5"/>
<text text-anchor="middle" x="211" y="-12.5" font-family="Times,serif" font-size="10.00">ttg::Debugger::debug</text>
</a>
</g>
</g>
<!-- Node1&#45;&gt;Node2 -->
<g id="edge1_Node000001_Node000002" class="edge">
<title>Node1&#45;&gt;Node2</title>
<g id="a_edge1_Node000001_Node000002"><a xlink:title=" ">
<path fill="none" stroke="#63b8ff" d="M300.84,-15C292.23,-15 283.52,-15 275.08,-15"/>
<polygon fill="#63b8ff" stroke="#63b8ff" points="300.88,-18.5 310.88,-15 300.88,-11.5 300.88,-18.5"/>
</a>
</g>
</g>
<!-- Node3 -->
<g id="Node000003" class="node">
<title>Node3</title>
<g id="a_Node000003"><a xlink:href="classttg_1_1_debugger.html#a14e7cc5aa0e16747eebf152e8f3abb25" target="_top" xlink:title="Called when signal sig is received. This is mainly for internal use.">
<polygon fill="white" stroke="#666666" points="111,-30 0,-30 0,0 111,0 111,-30"/>
<text text-anchor="start" x="8" y="-18" font-family="Times,serif" font-size="10.00">ttg::Debugger::got</text>
<text text-anchor="middle" x="55.5" y="-7" font-family="Times,serif" font-size="10.00">_signal</text>
</a>
</g>
</g>
<!-- Node2&#45;&gt;Node3 -->
<g id="edge2_Node000002_Node000003" class="edge">
<title>Node2&#45;&gt;Node3</title>
<g id="a_edge2_Node000002_Node000003"><a xlink:title=" ">
<path fill="none" stroke="#63b8ff" d="M136.43,-15C127.98,-15 119.48,-15 111.34,-15"/>
<polygon fill="#63b8ff" stroke="#63b8ff" points="136.68,-18.5 146.68,-15 136.68,-11.5 136.68,-18.5"/>
</a>
</g>
</g>
</g>
</svg>
