<?xml version="1.0" encoding="UTF-8" standalone="no"?>
<!DOCTYPE svg PUBLIC "-//W3C//DTD SVG 1.1//EN"
 "http://www.w3.org/Graphics/SVG/1.1/DTD/svg11.dtd">
<!-- Generated by graphviz version 2.43.0 (0)
 -->
<!-- Title: ttg_parsec::TT::derived_has_device_op Pages: 1 -->
<svg width="494pt" height="102pt"
 viewBox="0.00 0.00 494.00 101.50" xmlns="http://www.w3.org/2000/svg" xmlns:xlink="http://www.w3.org/1999/xlink">

<svg id="main" version="1.1" xmlns="http://www.w3.org/2000/svg" xmlns:xlink="http://www.w3.org/1999/xlink" xml:space="preserve" onload="init(evt)">
<style type="text/css"><![CDATA[
.node, .edge {opacity: 0.7;}
.node.selected, .edge.selected {opacity: 1;}
.edge:hover path { stroke: red; }
.edge:hover polygon { stroke: red; fill: red; }
]]></style>
<script type="application/ecmascript" xlink:href="svg.min.js"/>
<svg id="graph" class="graph">
<g id="graph0" class="graph" transform="scale(1 1) rotate(0) translate(4 97.5)">
<title>ttg_parsec::TT::derived_has_device_op</title>
<!-- Node1 -->
<g id="Node000001" class="node">
<title>Node1</title>
<g id="a_Node000001"><a xlink:title=" ">
<polygon fill="#999999" stroke="#666666" points="486,-54 352,-54 352,-24 486,-24 486,-54"/>
<text text-anchor="start" x="360" y="-42" font-family="Times,serif" font-size="10.00">ttg_parsec::TT::derived</text>
<text text-anchor="middle" x="419" y="-31" font-family="Times,serif" font-size="10.00">_has_device_op</text>
</a>
</g>
</g>
<!-- Node2 -->
<g id="Node000002" class="node">
<title>Node2</title>
<g id="a_Node000002"><a xlink:href="classttg__parsec_1_1_t_t.html#a620e641c7024e14437f199e475f92db6" target="_top" xlink:title=" ">
<polygon fill="white" stroke="#666666" points="316,-78 203,-78 203,-48 316,-48 316,-78"/>
<text text-anchor="start" x="211" y="-66" font-family="Times,serif" font-size="10.00">ttg_parsec::TT::can</text>
<text text-anchor="middle" x="259.5" y="-55" font-family="Times,serif" font-size="10.00">_inline_data</text>
</a>
</g>
</g>
<!-- Node1&#45;&gt;Node2 -->
<g id="edge1_Node000001_Node000002" class="edge">
<title>Node1&#45;&gt;Node2</title>
<g id="a_edge1_Node000001_Node000002"><a xlink:title=" ">
<path fill="none" stroke="#63b8ff" d="M341.67,-50.63C333.11,-51.93 324.53,-53.24 316.3,-54.5"/>
<polygon fill="#63b8ff" stroke="#63b8ff" points="342.3,-54.08 351.66,-49.11 341.25,-47.16 342.3,-54.08"/>
</a>
</g>
</g>
<!-- Node5 -->
<g id="Node000005" class="node">
<title>Node5</title>
<g id="a_Node000005"><a xlink:href="classttg__parsec_1_1_t_t.html#a2e11524aaacb5beebc988786e1f6a92c" target="_top" xlink:title=" ">
<polygon fill="white" stroke="#666666" points="313,-30 206,-30 206,0 313,0 313,-30"/>
<text text-anchor="start" x="214" y="-18" font-family="Times,serif" font-size="10.00">ttg_parsec::TT::do</text>
<text text-anchor="middle" x="259.5" y="-7" font-family="Times,serif" font-size="10.00">_prepare_send</text>
</a>
</g>
</g>
<!-- Node1&#45;&gt;Node5 -->
<g id="edge4_Node000001_Node000005" class="edge">
<title>Node1&#45;&gt;Node5</title>
<g id="a_edge4_Node000001_Node000005"><a xlink:title=" ">
<path fill="none" stroke="#63b8ff" d="M341.71,-27.38C332.13,-25.91 322.49,-24.45 313.38,-23.06"/>
<polygon fill="#63b8ff" stroke="#63b8ff" points="341.25,-30.84 351.66,-28.89 342.3,-23.92 341.25,-30.84"/>
</a>
</g>
</g>
<!-- Node3 -->
<g id="Node000003" class="node">
<title>Node3</title>
<g id="a_Node000003"><a xlink:href="classttg__parsec_1_1_t_t.html#ab267d50d29a8a845a5578f67d6c75f2a" target="_top" xlink:title=" ">
<polygon fill="white" stroke="#666666" points="167,-93.5 0,-93.5 0,-74.5 167,-74.5 167,-93.5"/>
<text text-anchor="middle" x="83.5" y="-81.5" font-family="Times,serif" font-size="10.00">ttg_parsec::TT::broadcast_arg</text>
</a>
</g>
</g>
<!-- Node2&#45;&gt;Node3 -->
<g id="edge2_Node000002_Node000003" class="edge">
<title>Node2&#45;&gt;Node3</title>
<g id="a_edge2_Node000002_Node000003"><a xlink:title=" ">
<path fill="none" stroke="#63b8ff" d="M193.02,-70.9C183.31,-72.07 173.23,-73.29 163.29,-74.49"/>
<polygon fill="#63b8ff" stroke="#63b8ff" points="193.46,-74.38 202.97,-69.7 192.62,-67.43 193.46,-74.38"/>
</a>
</g>
</g>
<!-- Node4 -->
<g id="Node000004" class="node">
<title>Node4</title>
<g id="a_Node000004"><a xlink:href="classttg__parsec_1_1_t_t.html#af647004ce89dc81d1202dd68070f0bde" target="_top" xlink:title=" ">
<polygon fill="white" stroke="#666666" points="138.5,-56 28.5,-56 28.5,-26 138.5,-26 138.5,-56"/>
<text text-anchor="start" x="36.5" y="-44" font-family="Times,serif" font-size="10.00">ttg_parsec::TT::set</text>
<text text-anchor="middle" x="83.5" y="-33" font-family="Times,serif" font-size="10.00">_arg_impl</text>
</a>
</g>
</g>
<!-- Node2&#45;&gt;Node4 -->
<g id="edge3_Node000002_Node000004" class="edge">
<title>Node2&#45;&gt;Node4</title>
<g id="a_edge3_Node000002_Node000004"><a xlink:title=" ">
<path fill="none" stroke="#63b8ff" d="M192.89,-54.7C174.99,-52.44 155.8,-50.01 138.61,-47.84"/>
<polygon fill="#63b8ff" stroke="#63b8ff" points="192.61,-58.2 202.97,-55.98 193.48,-51.25 192.61,-58.2"/>
</a>
</g>
</g>
</g>
</svg>
</svg>

<style type='text/css'>
<![CDATA[
[data-mouse-over-selected='false'] { opacity: 0.7; }
[data-mouse-over-selected='true']  { opacity: 1.0; }
]]>
</style>
<script type="application/ecmascript"><![CDATA[
document.addEventListener('DOMContentLoaded', (event) => {
  highlightEdges();
  highlightAdjacentNodes();
});
]]></script>
</svg>
