<?xml version="1.0" encoding="UTF-8" standalone="no"?>
<!DOCTYPE svg PUBLIC "-//W3C//DTD SVG 1.1//EN"
 "http://www.w3.org/Graphics/SVG/1.1/DTD/svg11.dtd">
<!-- Generated by graphviz version 2.43.0 (0)
 -->
<!-- Title: ttg_parsec::TT::set_args Pages: 1 -->
<svg width="618pt" height="240pt"
 viewBox="0.00 0.00 618.00 240.21" xmlns="http://www.w3.org/2000/svg" xmlns:xlink="http://www.w3.org/1999/xlink">
<g id="graph0" class="graph" transform="scale(1 1) rotate(0) translate(4 236.21)">
<title>ttg_parsec::TT::set_args</title>
<!-- Node1 -->
<g id="Node000001" class="node">
<title>Node1</title>
<g id="a_Node000001"><a xlink:title=" ">
<polygon fill="#999999" stroke="#666666" points="610,-130 473,-130 473,-111 610,-111 610,-130"/>
<text text-anchor="middle" x="541.5" y="-118" font-family="Times,serif" font-size="10.00">ttg_parsec::TT::set_args</text>
</a>
</g>
</g>
<!-- Node2 -->
<g id="Node000002" class="node">
<title>Node2</title>
<g id="a_Node000002"><a xlink:href="classttg__parsec_1_1_t_t.html#a5ea389d7d61418b2bef42db57b3ac927" target="_top" xlink:title=" ">
<polygon fill="white" stroke="#666666" points="432.5,-206 304.5,-206 304.5,-187 432.5,-187 432.5,-206"/>
<text text-anchor="middle" x="368.5" y="-194" font-family="Times,serif" font-size="10.00">ttg_parsec::TT::invoke</text>
</a>
</g>
</g>
<!-- Node1&#45;&gt;Node2 -->
<g id="edge1_Node000001_Node000002" class="edge">
<title>Node1&#45;&gt;Node2</title>
<g id="a_edge1_Node000001_Node000002"><a xlink:title=" ">
<path fill="none" stroke="#63b8ff" d="M514.42,-134.74C493.74,-145.74 463.94,-160.99 437,-172.5 424.65,-177.78 410.7,-182.87 398.71,-187"/>
<polygon fill="#63b8ff" stroke="#63b8ff" points="516.08,-137.82 523.23,-130.01 512.77,-131.65 516.08,-137.82"/>
</a>
</g>
</g>
<!-- Node3 -->
<g id="Node000003" class="node">
<title>Node3</title>
<g id="a_Node000003"><a xlink:href="classttg__parsec_1_1_t_t.html#adfbea0365e254f04789d64263af19703" target="_top" xlink:title=" ">
<polygon fill="white" stroke="#666666" points="264,-224 136,-224 136,-205 264,-205 264,-224"/>
<text text-anchor="middle" x="200" y="-212" font-family="Times,serif" font-size="10.00">ttg_parsec::TT::invoke</text>
</a>
</g>
</g>
<!-- Node1&#45;&gt;Node3 -->
<g id="edge6_Node000001_Node000003" class="edge">
<title>Node1&#45;&gt;Node3</title>
<g id="a_edge6_Node000001_Node000003"><a xlink:title=" ">
<path fill="none" stroke="#63b8ff" d="M527.86,-138.44C510.46,-161.4 476.73,-200.03 437,-215.5 373.81,-240.1 293.69,-232.48 244.94,-224.01"/>
<polygon fill="#63b8ff" stroke="#63b8ff" points="530.8,-140.35 533.9,-130.22 525.16,-136.21 530.8,-140.35"/>
</a>
</g>
</g>
<!-- Node4 -->
<g id="Node000004" class="node">
<title>Node4</title>
<g id="a_Node000004"><a xlink:href="classttg__parsec_1_1_t_t.html#a4d282fbdfbcd425d02419d599a3893d3" target="_top" xlink:title=" ">
<polygon fill="white" stroke="#666666" points="264,-187 136,-187 136,-168 264,-168 264,-187"/>
<text text-anchor="middle" x="200" y="-175" font-family="Times,serif" font-size="10.00">ttg_parsec::TT::invoke</text>
</a>
</g>
</g>
<!-- Node1&#45;&gt;Node4 -->
<g id="edge8_Node000001_Node000004" class="edge">
<title>Node1&#45;&gt;Node4</title>
<g id="a_edge8_Node000001_Node000004"><a xlink:title=" ">
<path fill="none" stroke="#63b8ff" d="M476.04,-131.8C463.12,-134.04 449.63,-136.36 437,-138.5 376.61,-148.74 307.46,-160.13 259.7,-167.94"/>
<polygon fill="#63b8ff" stroke="#63b8ff" points="477.01,-135.18 486.26,-130.02 475.81,-128.28 477.01,-135.18"/>
</a>
</g>
</g>
<!-- Node6 -->
<g id="Node000006" class="node">
<title>Node6</title>
<g id="a_Node000006"><a xlink:href="classttg__parsec_1_1_t_t.html#ad14f65deea2ce9ff3cce5fe4f35898ba" target="_top" xlink:title=" ">
<polygon fill="white" stroke="#666666" points="432.5,-130 304.5,-130 304.5,-111 432.5,-111 432.5,-130"/>
<text text-anchor="middle" x="368.5" y="-118" font-family="Times,serif" font-size="10.00">ttg_parsec::TT::invoke</text>
</a>
</g>
</g>
<!-- Node1&#45;&gt;Node6 -->
<g id="edge5_Node000001_Node000006" class="edge">
<title>Node1&#45;&gt;Node6</title>
<g id="a_edge5_Node000001_Node000006"><a xlink:title=" ">
<path fill="none" stroke="#63b8ff" d="M462.88,-120.5C452.78,-120.5 442.53,-120.5 432.7,-120.5"/>
<polygon fill="#63b8ff" stroke="#63b8ff" points="462.92,-124 472.92,-120.5 462.92,-117 462.92,-124"/>
</a>
</g>
</g>
<!-- Node7 -->
<g id="Node000007" class="node">
<title>Node7</title>
<g id="a_Node000007"><a xlink:href="classttg__parsec_1_1_t_t.html#acb91435e963e1b47fb76c626814c5917" target="_top" xlink:title=" ">
<polygon fill="white" stroke="#666666" points="432.5,-93 304.5,-93 304.5,-74 432.5,-74 432.5,-93"/>
<text text-anchor="middle" x="368.5" y="-81" font-family="Times,serif" font-size="10.00">ttg_parsec::TT::invoke</text>
</a>
</g>
</g>
<!-- Node1&#45;&gt;Node7 -->
<g id="edge7_Node000001_Node000007" class="edge">
<title>Node1&#45;&gt;Node7</title>
<g id="a_edge7_Node000001_Node000007"><a xlink:title=" ">
<path fill="none" stroke="#63b8ff" d="M486.65,-108.85C463.16,-103.77 435.96,-97.88 413.68,-93.06"/>
<polygon fill="#63b8ff" stroke="#63b8ff" points="485.95,-112.28 496.46,-110.97 487.43,-105.44 485.95,-112.28"/>
</a>
</g>
</g>
<!-- Node8 -->
<g id="Node000008" class="node">
<title>Node8</title>
<g id="a_Node000008"><a xlink:href="classttg__parsec_1_1_t_t.html#a78eb0b30159a0efd07506afa0f56b94f" target="_top" xlink:title=" ">
<polygon fill="white" stroke="#666666" points="437,-56 300,-56 300,-37 437,-37 437,-56"/>
<text text-anchor="middle" x="368.5" y="-44" font-family="Times,serif" font-size="10.00">ttg_parsec::TT::set_args</text>
</a>
</g>
</g>
<!-- Node1&#45;&gt;Node8 -->
<g id="edge9_Node000001_Node000008" class="edge">
<title>Node1&#45;&gt;Node8</title>
<g id="a_edge9_Node000001_Node000008"><a xlink:title=" ">
<path fill="none" stroke="#63b8ff" d="M516.97,-105.69C496.48,-93.3 465.65,-75.89 437,-64.5 428.89,-61.27 420,-58.44 411.41,-56.03"/>
<polygon fill="#63b8ff" stroke="#63b8ff" points="515.26,-108.74 525.61,-110.99 518.92,-102.78 515.26,-108.74"/>
</a>
</g>
</g>
<!-- Node9 -->
<g id="Node000009" class="node">
<title>Node9</title>
<g id="a_Node000009"><a xlink:href="classttg__parsec_1_1_t_t.html#aab11cbd8bc0dcd91556ce7de724bd85b" target="_top" xlink:title=" ">
<polygon fill="white" stroke="#666666" points="437,-19 300,-19 300,0 437,0 437,-19"/>
<text text-anchor="middle" x="368.5" y="-7" font-family="Times,serif" font-size="10.00">ttg_parsec::TT::set_args</text>
</a>
</g>
</g>
<!-- Node1&#45;&gt;Node9 -->
<g id="edge10_Node000001_Node000009" class="edge">
<title>Node1&#45;&gt;Node9</title>
<g id="a_edge10_Node000001_Node000009"><a xlink:title=" ">
<path fill="none" stroke="#63b8ff" d="M525.99,-103.2C507.46,-82.22 473.41,-47.21 437,-27.5 430.71,-24.09 423.73,-21.3 416.72,-19.02"/>
<polygon fill="#63b8ff" stroke="#63b8ff" points="523.54,-105.72 532.73,-111 528.83,-101.14 523.54,-105.72"/>
</a>
</g>
</g>
<!-- Node2&#45;&gt;Node3 -->
<g id="edge2_Node000002_Node000003" class="edge">
<title>Node2&#45;&gt;Node3</title>
<g id="a_edge2_Node000002_Node000003"><a xlink:title=" ">
<path fill="none" stroke="#63b8ff" d="M293.87,-204.46C283.99,-205.53 273.93,-206.62 264.25,-207.66"/>
<polygon fill="#63b8ff" stroke="#63b8ff" points="294.51,-207.91 304.08,-203.36 293.76,-200.95 294.51,-207.91"/>
</a>
</g>
</g>
<!-- Node2&#45;&gt;Node4 -->
<g id="edge3_Node000002_Node000004" class="edge">
<title>Node2&#45;&gt;Node4</title>
<g id="a_edge3_Node000002_Node000004"><a xlink:title=" ">
<path fill="none" stroke="#63b8ff" d="M293.87,-188.1C283.99,-186.97 273.93,-185.82 264.25,-184.72"/>
<polygon fill="#63b8ff" stroke="#63b8ff" points="293.75,-191.61 304.08,-189.26 294.54,-184.65 293.75,-191.61"/>
</a>
</g>
</g>
<!-- Node5 -->
<g id="Node000005" class="node">
<title>Node5</title>
<g id="a_Node000005"><a xlink:href="namespacettg.html#a0db3006a84c1ea69ab2401d3ed53df52" target="_top" xlink:title=" ">
<polygon fill="white" stroke="#666666" points="100,-187 0,-187 0,-168 100,-168 100,-187"/>
<text text-anchor="middle" x="50" y="-175" font-family="Times,serif" font-size="10.00">ttg::invoke_once</text>
</a>
</g>
</g>
<!-- Node4&#45;&gt;Node5 -->
<g id="edge4_Node000004_Node000005" class="edge">
<title>Node4&#45;&gt;Node5</title>
<g id="a_edge4_Node000004_Node000005"><a xlink:title=" ">
<path fill="none" stroke="#63b8ff" d="M125.67,-177.5C117,-177.5 108.32,-177.5 100.11,-177.5"/>
<polygon fill="#63b8ff" stroke="#63b8ff" points="125.81,-181 135.81,-177.5 125.81,-174 125.81,-181"/>
</a>
</g>
</g>
</g>
</svg>
