<?xml version="1.0" encoding="UTF-8" standalone="no"?>
<!DOCTYPE svg PUBLIC "-//W3C//DTD SVG 1.1//EN"
 "http://www.w3.org/Graphics/SVG/1.1/DTD/svg11.dtd">
<!-- Generated by graphviz version 2.43.0 (0)
 -->
<!-- Title: ttg::OutTerminalBase::finalize Pages: 1 -->
<svg width="243pt" height="64pt"
 viewBox="0.00 0.00 243.00 64.00" xmlns="http://www.w3.org/2000/svg" xmlns:xlink="http://www.w3.org/1999/xlink">
<g id="graph0" class="graph" transform="scale(1 1) rotate(0) translate(4 60)">
<title>ttg::OutTerminalBase::finalize</title>
<!-- Node1 -->
<g id="Node000001" class="node">
<title>Node1</title>
<g id="a_Node000001"><a xlink:title=" ">
<polygon fill="#999999" stroke="#666666" points="235,-42.5 110,-42.5 110,-12.5 235,-12.5 235,-42.5"/>
<text text-anchor="start" x="118" y="-30.5" font-family="Times,serif" font-size="10.00">ttg::OutTerminalBase</text>
<text text-anchor="middle" x="172.5" y="-19.5" font-family="Times,serif" font-size="10.00">::finalize</text>
</a>
</g>
</g>
<!-- Node2 -->
<g id="Node000002" class="node">
<title>Node2</title>
<g id="a_Node000002"><a xlink:href="namespacettg.html#a7075f199efa0ec86240a4b8c0fc621da" target="_top" xlink:title="Finalize streaming input terminals connecting to the given output terminal for tasks identified by ke...">
<polygon fill="white" stroke="#666666" points="74,-56 0,-56 0,-37 74,-37 74,-56"/>
<text text-anchor="middle" x="37" y="-44" font-family="Times,serif" font-size="10.00">ttg::finalize</text>
</a>
</g>
</g>
<!-- Node1&#45;&gt;Node2 -->
<g id="edge1_Node000001_Node000002" class="edge">
<title>Node1&#45;&gt;Node2</title>
<g id="a_edge1_Node000001_Node000002"><a xlink:title=" ">
<path fill="none" stroke="#63b8ff" d="M99.84,-37.7C91,-38.96 82.28,-40.2 74.3,-41.33"/>
<polygon fill="#63b8ff" stroke="#63b8ff" points="100.42,-41.15 109.83,-36.28 99.44,-34.22 100.42,-41.15"/>
</a>
</g>
</g>
<!-- Node3 -->
<g id="Node000003" class="node">
<title>Node3</title>
<g id="a_Node000003"><a xlink:href="namespacettg.html#ac12ebacc01669eddae361b592e94188e" target="_top" xlink:title="Finalize streaming input terminals connected to the given output terminal; use this to finalize termi...">
<polygon fill="white" stroke="#666666" points="74,-19 0,-19 0,0 74,0 74,-19"/>
<text text-anchor="middle" x="37" y="-7" font-family="Times,serif" font-size="10.00">ttg::finalize</text>
</a>
</g>
</g>
<!-- Node1&#45;&gt;Node3 -->
<g id="edge2_Node000001_Node000003" class="edge">
<title>Node1&#45;&gt;Node3</title>
<g id="a_edge2_Node000001_Node000003"><a xlink:title=" ">
<path fill="none" stroke="#63b8ff" d="M99.84,-17.84C91,-16.65 82.28,-15.47 74.3,-14.39"/>
<polygon fill="#63b8ff" stroke="#63b8ff" points="99.45,-21.32 109.83,-19.18 100.39,-14.38 99.45,-21.32"/>
</a>
</g>
</g>
</g>
</svg>
