<?xml version="1.0" encoding="UTF-8" standalone="no"?>
<!DOCTYPE svg PUBLIC "-//W3C//DTD SVG 1.1//EN"
 "http://www.w3.org/Graphics/SVG/1.1/DTD/svg11.dtd">
<!-- Generated by graphviz version 2.43.0 (0)
 -->
<!-- Title: ttg_parsec::TT::invoke Pages: 1 -->
<svg width="456pt" height="99pt"
 viewBox="0.00 0.00 456.00 99.08" xmlns="http://www.w3.org/2000/svg" xmlns:xlink="http://www.w3.org/1999/xlink">

<svg id="main" version="1.1" xmlns="http://www.w3.org/2000/svg" xmlns:xlink="http://www.w3.org/1999/xlink" xml:space="preserve" onload="init(evt)">
<style type="text/css"><![CDATA[
.node, .edge {opacity: 0.7;}
.node.selected, .edge.selected {opacity: 1;}
.edge:hover path { stroke: red; }
.edge:hover polygon { stroke: red; fill: red; }
]]></style>
<script type="application/ecmascript" xlink:href="svg.min.js"/>
<svg id="graph" class="graph">
<g id="graph0" class="graph" transform="scale(1 1) rotate(0) translate(4 95.08)">
<title>ttg_parsec::TT::invoke</title>
<!-- Node1 -->
<g id="Node000001" class="node">
<title>Node1</title>
<g id="a_Node000001"><a xlink:title=" ">
<polygon fill="#999999" stroke="#666666" points="128,-56 0,-56 0,-37 128,-37 128,-56"/>
<text text-anchor="middle" x="64" y="-44" font-family="Times,serif" font-size="10.00">ttg_parsec::TT::invoke</text>
</a>
</g>
</g>
<!-- Node2 -->
<g id="Node000002" class="node">
<title>Node2</title>
<g id="a_Node000002"><a xlink:href="classttg__parsec_1_1_t_t.html#aab59a1bf0fcc4f771457b5f05cb42741" target="_top" xlink:title=" ">
<polygon fill="white" stroke="#666666" points="448,-65 337,-65 337,-46 448,-46 448,-65"/>
<text text-anchor="middle" x="392.5" y="-53" font-family="Times,serif" font-size="10.00">ttg_parsec::TT::get</text>
</a>
</g>
</g>
<!-- Node1&#45;&gt;Node2 -->
<g id="edge1_Node000001_Node000002" class="edge">
<title>Node1&#45;&gt;Node2</title>
<g id="a_edge1_Node000001_Node000002"><a xlink:title=" ">
<path fill="none" stroke="#63b8ff" d="M84.14,-56C103.66,-65.13 135.11,-78.28 164,-83.5 223.92,-94.33 240.8,-92.6 301,-83.5 320.12,-80.61 340.77,-74.47 357.51,-68.67"/>
<polygon fill="#63b8ff" stroke="#63b8ff" points="359.15,-71.8 367.38,-65.14 356.79,-65.21 359.15,-71.8"/>
</a>
</g>
</g>
<!-- Node3 -->
<g id="Node000003" class="node">
<title>Node3</title>
<g id="a_Node000003"><a xlink:href="namespacettg_1_1meta.html#affd90f350d054c6a5b4859644d834172" target="_top" xlink:title=" ">
<polygon fill="white" stroke="#666666" points="275,-56 190,-56 190,-37 275,-37 275,-56"/>
<text text-anchor="middle" x="232.5" y="-44" font-family="Times,serif" font-size="10.00">ttg::meta::get</text>
</a>
</g>
</g>
<!-- Node1&#45;&gt;Node3 -->
<g id="edge3_Node000001_Node000003" class="edge">
<title>Node1&#45;&gt;Node3</title>
<g id="a_edge3_Node000001_Node000003"><a xlink:title=" ">
<path fill="none" stroke="#63b8ff" d="M128.42,-46.5C145.31,-46.5 163.35,-46.5 179.54,-46.5"/>
<polygon fill="#63b8ff" stroke="#63b8ff" points="179.89,-50 189.89,-46.5 179.89,-43 179.89,-50"/>
</a>
</g>
</g>
<!-- Node4 -->
<g id="Node000004" class="node">
<title>Node4</title>
<g id="a_Node000004"><a xlink:href="classttg__parsec_1_1_t_t.html#a55afaaaabd276251b531942c1ff5abe4" target="_top" xlink:title=" ">
<polygon fill="white" stroke="#666666" points="301,-19 164,-19 164,0 301,0 301,-19"/>
<text text-anchor="middle" x="232.5" y="-7" font-family="Times,serif" font-size="10.00">ttg_parsec::TT::set_args</text>
</a>
</g>
</g>
<!-- Node1&#45;&gt;Node4 -->
<g id="edge5_Node000001_Node000004" class="edge">
<title>Node1&#45;&gt;Node4</title>
<g id="a_edge5_Node000001_Node000004"><a xlink:title=" ">
<path fill="none" stroke="#63b8ff" d="M107.88,-36.97C129.45,-32.18 155.79,-26.32 178.61,-21.25"/>
<polygon fill="#63b8ff" stroke="#63b8ff" points="179.48,-24.65 188.48,-19.06 177.96,-17.81 179.48,-24.65"/>
</a>
</g>
</g>
<!-- Node2&#45;&gt;Node2 -->
<g id="edge2_Node000002_Node000002" class="edge">
<title>Node2&#45;&gt;Node2</title>
<g id="a_edge2_Node000002_Node000002"><a xlink:title=" ">
<path fill="none" stroke="#63b8ff" d="M367.84,-65.08C355.84,-73.73 364.06,-83 392.5,-83 411.16,-83 421.12,-79.01 422.37,-73.82"/>
<polygon fill="#63b8ff" stroke="#63b8ff" points="425.29,-71.88 417.16,-65.08 419.27,-75.47 425.29,-71.88"/>
</a>
</g>
</g>
<!-- Node3&#45;&gt;Node3 -->
<g id="edge4_Node000003_Node000003" class="edge">
<title>Node3&#45;&gt;Node3</title>
<g id="a_edge4_Node000003_Node000003"><a xlink:title=" ">
<path fill="none" stroke="#63b8ff" d="M207.84,-56.08C195.84,-64.73 204.06,-74 232.5,-74 251.16,-74 261.12,-70.01 262.37,-64.82"/>
<polygon fill="#63b8ff" stroke="#63b8ff" points="265.29,-62.88 257.16,-56.08 259.27,-66.47 265.29,-62.88"/>
</a>
</g>
</g>
<!-- Node4&#45;&gt;Node2 -->
<g id="edge6_Node000004_Node000002" class="edge">
<title>Node4&#45;&gt;Node2</title>
<g id="a_edge6_Node000004_Node000002"><a xlink:title=" ">
<path fill="none" stroke="#63b8ff" d="M267.87,-19.06C278.5,-22.05 290.24,-25.38 301,-28.5 317.02,-33.14 334.6,-38.36 349.96,-42.96"/>
<polygon fill="#63b8ff" stroke="#63b8ff" points="349.12,-46.36 359.7,-45.88 351.13,-39.66 349.12,-46.36"/>
</a>
</g>
</g>
</g>
</svg>
</svg>

<style type='text/css'>
<![CDATA[
[data-mouse-over-selected='false'] { opacity: 0.7; }
[data-mouse-over-selected='true']  { opacity: 1.0; }
]]>
</style>
<script type="application/ecmascript"><![CDATA[
document.addEventListener('DOMContentLoaded', (event) => {
  highlightEdges();
  highlightAdjacentNodes();
});
]]></script>
</svg>
