<?xml version="1.0" encoding="UTF-8" standalone="no"?>
<!DOCTYPE svg PUBLIC "-//W3C//DTD SVG 1.1//EN"
 "http://www.w3.org/Graphics/SVG/1.1/DTD/svg11.dtd">
<!-- Generated by graphviz version 2.43.0 (0)
 -->
<!-- Title: ttg_parsec::TT::set_static_argstream_size Pages: 1 -->
<svg width="942pt" height="187pt"
 viewBox="0.00 0.00 942.00 187.00" xmlns="http://www.w3.org/2000/svg" xmlns:xlink="http://www.w3.org/1999/xlink">
<g id="graph0" class="graph" transform="scale(1 1) rotate(0) translate(4 183)">
<title>ttg_parsec::TT::set_static_argstream_size</title>
<!-- Node1 -->
<g id="Node000001" class="node">
<title>Node1</title>
<g id="a_Node000001"><a xlink:title=" ">
<polygon fill="#999999" stroke="#666666" points="131,-110.5 0,-110.5 0,-80.5 131,-80.5 131,-110.5"/>
<text text-anchor="start" x="8" y="-98.5" font-family="Times,serif" font-size="10.00">ttg_parsec::TT::set</text>
<text text-anchor="middle" x="65.5" y="-87.5" font-family="Times,serif" font-size="10.00">_static_argstream_size</text>
</a>
</g>
</g>
<!-- Node2 -->
<g id="Node000002" class="node">
<title>Node2</title>
<g id="a_Node000002"><a xlink:href="classttg__parsec_1_1_t_t.html#aab59a1bf0fcc4f771457b5f05cb42741" target="_top" xlink:title=" ">
<polygon fill="white" stroke="#666666" points="288,-161 177,-161 177,-142 288,-142 288,-161"/>
<text text-anchor="middle" x="232.5" y="-149" font-family="Times,serif" font-size="10.00">ttg_parsec::TT::get</text>
</a>
</g>
</g>
<!-- Node1&#45;&gt;Node2 -->
<g id="edge1_Node000001_Node000002" class="edge">
<title>Node1&#45;&gt;Node2</title>
<g id="a_edge1_Node000001_Node000002"><a xlink:title=" ">
<path fill="none" stroke="#63b8ff" d="M103.92,-110.56C122.71,-117.89 145.91,-126.58 167,-133.5 172.94,-135.45 179.24,-137.37 185.48,-139.2"/>
<polygon fill="#63b8ff" stroke="#63b8ff" points="184.59,-142.59 195.17,-141.97 186.52,-135.86 184.59,-142.59"/>
</a>
</g>
</g>
<!-- Node3 -->
<g id="Node000003" class="node">
<title>Node3</title>
<g id="a_Node000003"><a xlink:href="classttg_1_1_t_t_base.html#ade3b1e6b149fe1124f7192aeca5f715c" target="_top" xlink:title="Gets the name of this operation.">
<polygon fill="white" stroke="#666666" points="298,-124 167,-124 167,-105 298,-105 298,-124"/>
<text text-anchor="middle" x="232.5" y="-112" font-family="Times,serif" font-size="10.00">ttg::TTBase::get_name</text>
</a>
</g>
</g>
<!-- Node1&#45;&gt;Node3 -->
<g id="edge3_Node000001_Node000003" class="edge">
<title>Node1&#45;&gt;Node3</title>
<g id="a_edge3_Node000001_Node000003"><a xlink:title=" ">
<path fill="none" stroke="#63b8ff" d="M131.24,-102.95C139.67,-103.93 148.37,-104.93 156.95,-105.92"/>
<polygon fill="#63b8ff" stroke="#63b8ff" points="156.61,-109.4 166.95,-107.07 157.41,-102.45 156.61,-109.4"/>
</a>
</g>
</g>
<!-- Node4 -->
<g id="Node000004" class="node">
<title>Node4</title>
<g id="a_Node000004"><a xlink:href="namespacettg.html#aacafa23974f833f3ac9c42ab4fbd7e68" target="_top" xlink:title="atomically prints to std::cerr a sequence of items (separated by ttg::print_separator) followed by st...">
<polygon fill="white" stroke="#666666" points="426,-19 334,-19 334,0 426,0 426,-19"/>
<text text-anchor="middle" x="380" y="-7" font-family="Times,serif" font-size="10.00">ttg::print_error</text>
</a>
</g>
</g>
<!-- Node1&#45;&gt;Node4 -->
<g id="edge4_Node000001_Node000004" class="edge">
<title>Node1&#45;&gt;Node4</title>
<g id="a_edge4_Node000001_Node000004"><a xlink:title=" ">
<path fill="none" stroke="#63b8ff" d="M105.3,-80.45C123.82,-73.57 146.39,-65.6 167,-59.5 219.7,-43.9 280.9,-29.9 323.96,-20.7"/>
<polygon fill="#63b8ff" stroke="#63b8ff" points="324.89,-24.08 333.95,-18.59 323.44,-17.24 324.89,-24.08"/>
</a>
</g>
</g>
<!-- Node6 -->
<g id="Node000006" class="node">
<title>Node6</title>
<g id="a_Node000006"><a xlink:href="classttg_1_1_t_t_base.html#a30ce875b418c76f1d9cf54b3bf1fe52a" target="_top" xlink:title="Like ttg::trace(), but only produces tracing output if this&#45;&gt;tracing()==true">
<polygon fill="white" stroke="#666666" points="286,-87 179,-87 179,-68 286,-68 286,-87"/>
<text text-anchor="middle" x="232.5" y="-75" font-family="Times,serif" font-size="10.00">ttg::TTBase::trace</text>
</a>
</g>
</g>
<!-- Node1&#45;&gt;Node6 -->
<g id="edge6_Node000001_Node000006" class="edge">
<title>Node1&#45;&gt;Node6</title>
<g id="a_edge6_Node000001_Node000006"><a xlink:title=" ">
<path fill="none" stroke="#63b8ff" d="M131.24,-88.44C143.58,-87.09 156.48,-85.68 168.76,-84.34"/>
<polygon fill="#63b8ff" stroke="#63b8ff" points="169.34,-87.8 178.91,-83.24 168.59,-80.84 169.34,-87.8"/>
</a>
</g>
</g>
<!-- Node2&#45;&gt;Node2 -->
<g id="edge2_Node000002_Node000002" class="edge">
<title>Node2&#45;&gt;Node2</title>
<g id="a_edge2_Node000002_Node000002"><a xlink:title=" ">
<path fill="none" stroke="#63b8ff" d="M210,-161.08C199.05,-169.73 206.55,-179 232.5,-179 249.12,-179 258.18,-175.2 259.66,-170.19"/>
<polygon fill="#63b8ff" stroke="#63b8ff" points="262.67,-168.39 255,-161.08 256.44,-171.58 262.67,-168.39"/>
</a>
</g>
</g>
<!-- Node5 -->
<g id="Node000005" class="node">
<title>Node5</title>
<g id="a_Node000005"><a xlink:href="namespacettg_1_1detail.html#a26e07486d5ef8eb5735a8975991a7693" target="_top" xlink:title=" ">
<polygon fill="white" stroke="#666666" points="934,-83.5 838,-83.5 838,-53.5 934,-53.5 934,-83.5"/>
<text text-anchor="start" x="846" y="-71.5" font-family="Times,serif" font-size="10.00">ttg::detail::print</text>
<text text-anchor="middle" x="886" y="-60.5" font-family="Times,serif" font-size="10.00">_helper</text>
</a>
</g>
</g>
<!-- Node4&#45;&gt;Node5 -->
<g id="edge5_Node000004_Node000005" class="edge">
<title>Node4&#45;&gt;Node5</title>
<g id="a_edge5_Node000004_Node000005"><a xlink:title=" ">
<path fill="none" stroke="#63b8ff" d="M426.17,-14.79C518.09,-25.55 726.73,-49.97 827.89,-61.81"/>
<polygon fill="#63b8ff" stroke="#63b8ff" points="827.58,-65.3 837.92,-62.99 828.4,-58.35 827.58,-65.3"/>
</a>
</g>
</g>
<!-- Node7 -->
<g id="Node000007" class="node">
<title>Node7</title>
<g id="a_Node000007"><a xlink:href="namespacettg.html#aacacfe8bc9582308a405c4370650a9d4" target="_top" xlink:title="atomically prints to std::clog a sequence of items (separated by ttg::print_separator) followed by st...">
<polygon fill="white" stroke="#666666" points="774,-138 721,-138 721,-119 774,-119 774,-138"/>
<text text-anchor="middle" x="747.5" y="-126" font-family="Times,serif" font-size="10.00">ttg::log</text>
</a>
</g>
</g>
<!-- Node6&#45;&gt;Node7 -->
<g id="edge7_Node000006_Node000007" class="edge">
<title>Node6&#45;&gt;Node7</title>
<g id="a_edge7_Node000006_Node000007"><a xlink:title=" ">
<path fill="none" stroke="#63b8ff" d="M275.1,-87.03C282.93,-89.58 290.9,-92.7 298,-96.5 316.37,-106.31 315.82,-116.34 334,-126.5 386.39,-155.77 402.77,-159.82 462,-169.5 551.53,-184.14 657.36,-157.31 711.2,-140.53"/>
<polygon fill="#63b8ff" stroke="#63b8ff" points="712.48,-143.8 720.95,-137.42 710.36,-137.13 712.48,-143.8"/>
</a>
</g>
</g>
<!-- Node8 -->
<g id="Node000008" class="node">
<title>Node8</title>
<g id="a_Node000008"><a xlink:href="namespacettg.html#afbdd9c742be395e0746fdbc26c7d55cc" target="_top" xlink:title="returns whether tracing was enabled at configure time">
<polygon fill="white" stroke="#666666" points="802,-95 693,-95 693,-76 802,-76 802,-95"/>
<text text-anchor="middle" x="747.5" y="-83" font-family="Times,serif" font-size="10.00">ttg::trace_enabled</text>
</a>
</g>
</g>
<!-- Node6&#45;&gt;Node8 -->
<g id="edge9_Node000006_Node000008" class="edge">
<title>Node6&#45;&gt;Node8</title>
<g id="a_edge9_Node000006_Node000008"><a xlink:title=" ">
<path fill="none" stroke="#63b8ff" d="M286.47,-78.33C381.38,-79.81 580.07,-82.9 682.47,-84.5"/>
<polygon fill="#63b8ff" stroke="#63b8ff" points="682.61,-88 692.67,-84.66 682.72,-81 682.61,-88"/>
</a>
</g>
</g>
<!-- Node9 -->
<g id="Node000009" class="node">
<title>Node9</title>
<g id="a_Node000009"><a xlink:href="namespacettg.html#abfb8501d408a1ed918cc2a540865a2d8" target="_top" xlink:title="returns whether tracing is enabled">
<polygon fill="white" stroke="#666666" points="416.5,-117 343.5,-117 343.5,-98 416.5,-98 416.5,-117"/>
<text text-anchor="middle" x="380" y="-105" font-family="Times,serif" font-size="10.00">ttg::tracing</text>
</a>
</g>
</g>
<!-- Node6&#45;&gt;Node9 -->
<g id="edge10_Node000006_Node000009" class="edge">
<title>Node6&#45;&gt;Node9</title>
<g id="a_edge10_Node000006_Node000009"><a xlink:title=" ">
<path fill="none" stroke="#63b8ff" d="M279.94,-87.07C296.88,-90.57 316.02,-94.52 332.93,-98"/>
<polygon fill="#63b8ff" stroke="#63b8ff" points="332.63,-101.51 343.13,-100.11 334.05,-94.66 332.63,-101.51"/>
</a>
</g>
</g>
<!-- Node7&#45;&gt;Node5 -->
<g id="edge8_Node000007_Node000005" class="edge">
<title>Node7&#45;&gt;Node5</title>
<g id="a_edge8_Node000007_Node000005"><a xlink:title=" ">
<path fill="none" stroke="#63b8ff" d="M770.13,-118.99C789.24,-110.59 817.7,-98.08 841.51,-87.62"/>
<polygon fill="#63b8ff" stroke="#63b8ff" points="842.96,-90.8 850.71,-83.57 840.15,-84.39 842.96,-90.8"/>
</a>
</g>
</g>
<!-- Node9&#45;&gt;Node8 -->
<g id="edge16_Node000009_Node000008" class="edge">
<title>Node9&#45;&gt;Node8</title>
<g id="a_edge16_Node000009_Node000008"><a xlink:title=" ">
<path fill="none" stroke="#63b8ff" d="M416.71,-105.35C478.34,-101.64 605.46,-93.99 682.63,-89.34"/>
<polygon fill="#63b8ff" stroke="#63b8ff" points="682.94,-92.83 692.71,-88.74 682.52,-85.84 682.94,-92.83"/>
</a>
</g>
</g>
<!-- Node10 -->
<g id="Node000010" class="node">
<title>Node10</title>
<g id="a_Node000010"><a xlink:href="namespacettg_1_1detail.html#a95356c3874e7ec9268a40feb4fc1519f" target="_top" xlink:title=" ">
<polygon fill="white" stroke="#666666" points="559,-143.5 462,-143.5 462,-113.5 559,-113.5 559,-143.5"/>
<text text-anchor="start" x="470" y="-131.5" font-family="Times,serif" font-size="10.00">ttg::detail::trace</text>
<text text-anchor="middle" x="510.5" y="-120.5" font-family="Times,serif" font-size="10.00">_accessor</text>
</a>
</g>
</g>
<!-- Node9&#45;&gt;Node10 -->
<g id="edge11_Node000009_Node000010" class="edge">
<title>Node9&#45;&gt;Node10</title>
<g id="a_edge11_Node000009_Node000010"><a xlink:title=" ">
<path fill="none" stroke="#63b8ff" d="M416.79,-113.35C427.7,-115.13 439.98,-117.14 451.95,-119.09"/>
<polygon fill="#63b8ff" stroke="#63b8ff" points="451.45,-122.56 461.89,-120.72 452.58,-115.65 451.45,-122.56"/>
</a>
</g>
</g>
<!-- Node11 -->
<g id="Node000011" class="node">
<title>Node11</title>
<g id="a_Node000011"><a xlink:href="namespacettg.html#af5e470229c1ddef41b83b6398a5dc583" target="_top" xlink:title=" ">
<polygon fill="white" stroke="#666666" points="657,-138 595,-138 595,-119 657,-119 657,-138"/>
<text text-anchor="middle" x="626" y="-126" font-family="Times,serif" font-size="10.00">ttg::trace</text>
</a>
</g>
</g>
<!-- Node10&#45;&gt;Node11 -->
<g id="edge12_Node000010_Node000011" class="edge">
<title>Node10&#45;&gt;Node11</title>
<g id="a_edge12_Node000010_Node000011"><a xlink:title=" ">
<path fill="none" stroke="#63b8ff" d="M559.31,-128.5C567.74,-128.5 576.44,-128.5 584.65,-128.5"/>
<polygon fill="#63b8ff" stroke="#63b8ff" points="584.72,-132 594.72,-128.5 584.72,-125 584.72,-132"/>
</a>
</g>
</g>
<!-- Node11&#45;&gt;Node7 -->
<g id="edge13_Node000011_Node000007" class="edge">
<title>Node11&#45;&gt;Node7</title>
<g id="a_edge13_Node000011_Node000007"><a xlink:title=" ">
<path fill="none" stroke="#63b8ff" d="M657.15,-128.5C673.42,-128.5 693.59,-128.5 710.65,-128.5"/>
<polygon fill="#63b8ff" stroke="#63b8ff" points="710.81,-132 720.81,-128.5 710.81,-125 710.81,-132"/>
</a>
</g>
</g>
<!-- Node11&#45;&gt;Node8 -->
<g id="edge14_Node000011_Node000008" class="edge">
<title>Node11&#45;&gt;Node8</title>
<g id="a_edge14_Node000011_Node000008"><a xlink:title=" ">
<path fill="none" stroke="#63b8ff" d="M653.52,-118.96C670.31,-112.92 692.22,-105.03 710.56,-98.43"/>
<polygon fill="#63b8ff" stroke="#63b8ff" points="711.83,-101.7 720.05,-95.02 709.46,-95.11 711.83,-101.7"/>
</a>
</g>
</g>
<!-- Node11&#45;&gt;Node9 -->
<g id="edge15_Node000011_Node000009" class="edge">
<title>Node11&#45;&gt;Node9</title>
<g id="a_edge15_Node000011_Node000009"><a xlink:title=" ">
<path fill="none" stroke="#63b8ff" d="M604.41,-138.1C591.64,-143.51 574.73,-149.73 559,-152.5 516.54,-159.98 503.73,-163.31 462,-152.5 439.87,-146.77 417.35,-133.53 401.69,-122.89"/>
<polygon fill="#63b8ff" stroke="#63b8ff" points="403.51,-119.89 393.32,-117 399.48,-125.62 403.51,-119.89"/>
</a>
</g>
</g>
</g>
</svg>
