<?xml version="1.0" encoding="UTF-8" standalone="no"?>
<!DOCTYPE svg PUBLIC "-//W3C//DTD SVG 1.1//EN"
 "http://www.w3.org/Graphics/SVG/1.1/DTD/svg11.dtd">
<!-- Generated by graphviz version 2.43.0 (0)
 -->
<!-- Title: ttg::device::Device::id Pages: 1 -->
<svg width="597pt" height="446pt"
 viewBox="0.00 0.00 597.00 445.91" xmlns="http://www.w3.org/2000/svg" xmlns:xlink="http://www.w3.org/1999/xlink">
<g id="graph0" class="graph" transform="scale(1 1) rotate(0) translate(4 441.91)">
<title>ttg::device::Device::id</title>
<!-- Node1 -->
<g id="Node000001" class="node">
<title>Node1</title>
<g id="a_Node000001"><a xlink:title=" ">
<polygon fill="#999999" stroke="#666666" points="589,-278.5 463,-278.5 463,-259.5 589,-259.5 589,-278.5"/>
<text text-anchor="middle" x="526" y="-266.5" font-family="Times,serif" font-size="10.00">ttg::device::Device::id</text>
</a>
</g>
</g>
<!-- Node2 -->
<g id="Node000002" class="node">
<title>Node2</title>
<g id="a_Node000002"><a xlink:href="classttg_1_1device_1_1_device.html#a5338c49397786a569fe0324b29f48af4" target="_top" xlink:title=" ">
<polygon fill="white" stroke="#666666" points="417.5,-327 307.5,-327 307.5,-297 417.5,-297 417.5,-327"/>
<text text-anchor="start" x="315.5" y="-315" font-family="Times,serif" font-size="10.00">ttg::device::Device</text>
<text text-anchor="middle" x="362.5" y="-304" font-family="Times,serif" font-size="10.00">::operator int</text>
</a>
</g>
</g>
<!-- Node1&#45;&gt;Node2 -->
<g id="edge1_Node000001_Node000002" class="edge">
<title>Node1&#45;&gt;Node2</title>
<g id="a_edge1_Node000001_Node000002"><a xlink:title=" ">
<path fill="none" stroke="#63b8ff" d="M479.44,-281.13C460.23,-286.24 437.72,-292.24 417.66,-297.58"/>
<polygon fill="#63b8ff" stroke="#63b8ff" points="480.4,-284.5 489.16,-278.54 478.59,-277.73 480.4,-284.5"/>
</a>
</g>
</g>
<!-- Node3 -->
<g id="Node000003" class="node">
<title>Node3</title>
<g id="a_Node000003"><a xlink:href="namespacestd.html#a23678c41a80c407b186771df978f2a24" target="_top" xlink:title=" ">
<polygon fill="white" stroke="#666666" points="411.5,-278.5 313.5,-278.5 313.5,-259.5 411.5,-259.5 411.5,-278.5"/>
<text text-anchor="middle" x="362.5" y="-266.5" font-family="Times,serif" font-size="10.00">std::operator&lt;&lt;</text>
</a>
</g>
</g>
<!-- Node1&#45;&gt;Node3 -->
<g id="edge2_Node000001_Node000003" class="edge">
<title>Node1&#45;&gt;Node3</title>
<g id="a_edge2_Node000001_Node000003"><a xlink:title=" ">
<path fill="none" stroke="#63b8ff" d="M452.17,-269C438.47,-269 424.46,-269 411.75,-269"/>
<polygon fill="#63b8ff" stroke="#63b8ff" points="452.56,-272.5 462.56,-269 452.56,-265.5 452.56,-272.5"/>
</a>
</g>
</g>
<!-- Node4 -->
<g id="Node000004" class="node">
<title>Node4</title>
<g id="a_Node000004"><a xlink:href="namespacettg__parsec_1_1detail.html#a4e193da802fd145fa18041dd40ad7df9" target="_top" xlink:title=" ">
<polygon fill="white" stroke="#666666" points="427,-241.5 298,-241.5 298,-200.5 427,-200.5 427,-241.5"/>
<text text-anchor="start" x="306" y="-229.5" font-family="Times,serif" font-size="10.00">ttg_parsec::detail</text>
<text text-anchor="start" x="306" y="-218.5" font-family="Times,serif" font-size="10.00">::ttg_device_to_parsec</text>
<text text-anchor="middle" x="362.5" y="-207.5" font-family="Times,serif" font-size="10.00">_device</text>
</a>
</g>
</g>
<!-- Node1&#45;&gt;Node4 -->
<g id="edge3_Node000001_Node000004" class="edge">
<title>Node1&#45;&gt;Node4</title>
<g id="a_edge3_Node000001_Node000004"><a xlink:title=" ">
<path fill="none" stroke="#63b8ff" d="M483.05,-256.53C466,-251.46 445.91,-245.49 427.13,-239.91"/>
<polygon fill="#63b8ff" stroke="#63b8ff" points="482.12,-259.91 492.71,-259.4 484.12,-253.2 482.12,-259.91"/>
</a>
</g>
</g>
<!-- Node5 -->
<g id="Node000005" class="node">
<title>Node5</title>
<g id="a_Node000005"><a xlink:href="structttg__parsec_1_1_buffer.html#aa172f84d2b71ad72b065bf2973b47ca4" target="_top" xlink:title=" ">
<polygon fill="white" stroke="#666666" points="107,-425 0,-425 0,-395 107,-395 107,-425"/>
<text text-anchor="start" x="8" y="-413" font-family="Times,serif" font-size="10.00">ttg_parsec::Buffer</text>
<text text-anchor="middle" x="53.5" y="-402" font-family="Times,serif" font-size="10.00">::add_device</text>
</a>
</g>
</g>
<!-- Node4&#45;&gt;Node5 -->
<g id="edge4_Node000004_Node000005" class="edge">
<title>Node4&#45;&gt;Node5</title>
<g id="a_edge4_Node000004_Node000005"><a xlink:title=" ">
<path fill="none" stroke="#63b8ff" d="M300.2,-248.43C299.44,-249.26 298.7,-250.12 298,-251 251.96,-308.63 319.53,-366.85 262,-413 215.77,-450.08 143.27,-438.27 97.36,-425.09"/>
<polygon fill="#63b8ff" stroke="#63b8ff" points="302.72,-250.87 307.78,-241.56 298.02,-245.69 302.72,-250.87"/>
</a>
</g>
</g>
<!-- Node6 -->
<g id="Node000006" class="node">
<title>Node6</title>
<g id="a_Node000006"><a xlink:href="structttg__parsec_1_1_buffer.html#ac03d171f76a9ebf145bdcc2b991cbf5e" target="_top" xlink:title=" ">
<polygon fill="white" stroke="#666666" points="107,-260 0,-260 0,-230 107,-230 107,-260"/>
<text text-anchor="start" x="8" y="-248" font-family="Times,serif" font-size="10.00">ttg_parsec::Buffer</text>
<text text-anchor="middle" x="53.5" y="-237" font-family="Times,serif" font-size="10.00">::allocate_on</text>
</a>
</g>
</g>
<!-- Node4&#45;&gt;Node6 -->
<g id="edge5_Node000004_Node000006" class="edge">
<title>Node4&#45;&gt;Node6</title>
<g id="a_edge5_Node000004_Node000006"><a xlink:title=" ">
<path fill="none" stroke="#63b8ff" d="M341.49,-192.01C323.67,-168.97 295.3,-138.45 262,-125 212.96,-105.2 190.21,-101.16 143,-125 99.1,-147.17 71.61,-202.53 60.36,-229.61"/>
<polygon fill="#63b8ff" stroke="#63b8ff" points="338.77,-194.22 347.57,-200.12 344.37,-190.02 338.77,-194.22"/>
</a>
</g>
</g>
<!-- Node7 -->
<g id="Node000007" class="node">
<title>Node7</title>
<g id="a_Node000007"><a xlink:href="structttg__parsec_1_1_buffer.html#ad7c9683797b26ee8911ae7cfe4712d50" target="_top" xlink:title=" ">
<polygon fill="white" stroke="#666666" points="262,-356 143,-356 143,-326 262,-326 262,-356"/>
<text text-anchor="start" x="151" y="-344" font-family="Times,serif" font-size="10.00">ttg_parsec::Buffer</text>
<text text-anchor="middle" x="202.5" y="-333" font-family="Times,serif" font-size="10.00">::current_device_ptr</text>
</a>
</g>
</g>
<!-- Node4&#45;&gt;Node7 -->
<g id="edge6_Node000004_Node000007" class="edge">
<title>Node4&#45;&gt;Node7</title>
<g id="a_edge6_Node000004_Node000007"><a xlink:title=" ">
<path fill="none" stroke="#63b8ff" d="M301.9,-247.58C300.55,-248.68 299.25,-249.82 298,-251 273.7,-273.93 286.89,-294.71 262,-317 258.24,-320.37 253.94,-323.3 249.42,-325.85"/>
<polygon fill="#63b8ff" stroke="#63b8ff" points="304.01,-250.38 310.06,-241.68 299.9,-244.7 304.01,-250.38"/>
</a>
</g>
</g>
<!-- Node8 -->
<g id="Node000008" class="node">
<title>Node8</title>
<g id="a_Node000008"><a xlink:href="structttg__parsec_1_1_buffer.html#a87cfa2924a1165608d8180337682cdce" target="_top" xlink:title=" ">
<polygon fill="white" stroke="#666666" points="262,-308 143,-308 143,-278 262,-278 262,-308"/>
<text text-anchor="start" x="151" y="-296" font-family="Times,serif" font-size="10.00">ttg_parsec::Buffer</text>
<text text-anchor="middle" x="202.5" y="-285" font-family="Times,serif" font-size="10.00">::current_device_ptr</text>
</a>
</g>
</g>
<!-- Node4&#45;&gt;Node8 -->
<g id="edge7_Node000004_Node000008" class="edge">
<title>Node4&#45;&gt;Node8</title>
<g id="a_edge7_Node000004_Node000008"><a xlink:title=" ">
<path fill="none" stroke="#63b8ff" d="M308.38,-245.99C304.86,-247.68 301.38,-249.36 298,-251 281.91,-258.82 278.29,-261.6 262,-269 255.4,-272 248.32,-275.04 241.44,-277.92"/>
<polygon fill="#63b8ff" stroke="#63b8ff" points="310.2,-249 317.72,-241.53 307.18,-242.68 310.2,-249"/>
</a>
</g>
</g>
<!-- Node9 -->
<g id="Node000009" class="node">
<title>Node9</title>
<g id="a_Node000009"><a xlink:href="structttg__parsec_1_1_buffer.html#a75237a0fe188810d1741db8091603c01" target="_top" xlink:title=" ">
<polygon fill="white" stroke="#666666" points="256,-260 149,-260 149,-230 256,-230 256,-260"/>
<text text-anchor="start" x="157" y="-248" font-family="Times,serif" font-size="10.00">ttg_parsec::Buffer</text>
<text text-anchor="middle" x="202.5" y="-237" font-family="Times,serif" font-size="10.00">::device_ptr_on</text>
</a>
</g>
</g>
<!-- Node4&#45;&gt;Node9 -->
<g id="edge8_Node000004_Node000009" class="edge">
<title>Node4&#45;&gt;Node9</title>
<g id="a_edge8_Node000004_Node000009"><a xlink:title=" ">
<path fill="none" stroke="#63b8ff" d="M287.65,-232.22C277.11,-233.82 266.44,-235.44 256.41,-236.96"/>
<polygon fill="#63b8ff" stroke="#63b8ff" points="288.33,-235.65 297.69,-230.69 287.28,-228.73 288.33,-235.65"/>
</a>
</g>
</g>
<!-- Node10 -->
<g id="Node000010" class="node">
<title>Node10</title>
<g id="a_Node000010"><a xlink:href="structttg__parsec_1_1_buffer.html#a14b779203a13f74eb18077dd76aa2462" target="_top" xlink:title=" ">
<polygon fill="white" stroke="#666666" points="256,-212 149,-212 149,-182 256,-182 256,-212"/>
<text text-anchor="start" x="157" y="-200" font-family="Times,serif" font-size="10.00">ttg_parsec::Buffer</text>
<text text-anchor="middle" x="202.5" y="-189" font-family="Times,serif" font-size="10.00">::device_ptr_on</text>
</a>
</g>
</g>
<!-- Node4&#45;&gt;Node10 -->
<g id="edge9_Node000004_Node000010" class="edge">
<title>Node4&#45;&gt;Node10</title>
<g id="a_edge9_Node000004_Node000010"><a xlink:title=" ">
<path fill="none" stroke="#63b8ff" d="M287.65,-209.78C277.11,-208.18 266.44,-206.56 256.41,-205.04"/>
<polygon fill="#63b8ff" stroke="#63b8ff" points="287.28,-213.27 297.69,-211.31 288.33,-206.35 287.28,-213.27"/>
</a>
</g>
</g>
<!-- Node11 -->
<g id="Node000011" class="node">
<title>Node11</title>
<g id="a_Node000011"><a xlink:href="structttg__parsec_1_1_buffer.html#ab9c2dbfb2165d1beebdf4c2d3a18d937" target="_top" xlink:title=" ">
<polygon fill="white" stroke="#666666" points="256,-164 149,-164 149,-134 256,-134 256,-164"/>
<text text-anchor="start" x="157" y="-152" font-family="Times,serif" font-size="10.00">ttg_parsec::Buffer</text>
<text text-anchor="middle" x="202.5" y="-141" font-family="Times,serif" font-size="10.00">::is_current_on</text>
</a>
</g>
</g>
<!-- Node4&#45;&gt;Node11 -->
<g id="edge10_Node000004_Node000011" class="edge">
<title>Node4&#45;&gt;Node11</title>
<g id="a_edge10_Node000004_Node000011"><a xlink:title=" ">
<path fill="none" stroke="#63b8ff" d="M311.13,-195.98C295.48,-188.4 278.11,-180.18 262,-173 255.28,-170 248.07,-166.93 241.09,-164.03"/>
<polygon fill="#63b8ff" stroke="#63b8ff" points="309.6,-199.12 320.13,-200.35 312.67,-192.83 309.6,-199.12"/>
</a>
</g>
</g>
<!-- Node12 -->
<g id="Node000012" class="node">
<title>Node12</title>
<g id="a_Node000012"><a xlink:href="structttg__parsec_1_1_buffer.html#a57dc7b47c838715a12d2a59fb3d82b76" target="_top" xlink:title=" ">
<polygon fill="white" stroke="#666666" points="256,-404 149,-404 149,-374 256,-374 256,-404"/>
<text text-anchor="start" x="157" y="-392" font-family="Times,serif" font-size="10.00">ttg_parsec::Buffer</text>
<text text-anchor="middle" x="202.5" y="-381" font-family="Times,serif" font-size="10.00">::is_valid_on</text>
</a>
</g>
</g>
<!-- Node4&#45;&gt;Node12 -->
<g id="edge11_Node000004_Node000012" class="edge">
<title>Node4&#45;&gt;Node12</title>
<g id="a_edge11_Node000004_Node000012"><a xlink:title=" ">
<path fill="none" stroke="#63b8ff" d="M300.68,-248.14C299.75,-249.07 298.86,-250.02 298,-251 263.06,-291.03 297.97,-325.9 262,-365 258.88,-368.39 255.21,-371.32 251.25,-373.84"/>
<polygon fill="#63b8ff" stroke="#63b8ff" points="303.03,-250.75 308.41,-241.62 298.51,-245.4 303.03,-250.75"/>
</a>
</g>
</g>
<!-- Node13 -->
<g id="Node000013" class="node">
<title>Node13</title>
<g id="a_Node000013"><a xlink:href="structttg__parsec_1_1_buffer.html#a17ee629839b81f7e11adf24164f3116b" target="_top" xlink:title=" ">
<polygon fill="white" stroke="#666666" points="256,-78 149,-78 149,-48 256,-48 256,-78"/>
<text text-anchor="start" x="157" y="-66" font-family="Times,serif" font-size="10.00">ttg_parsec::Buffer</text>
<text text-anchor="middle" x="202.5" y="-55" font-family="Times,serif" font-size="10.00">::prefer_device</text>
</a>
</g>
</g>
<!-- Node4&#45;&gt;Node13 -->
<g id="edge14_Node000004_Node000013" class="edge">
<title>Node4&#45;&gt;Node13</title>
<g id="a_edge14_Node000004_Node000013"><a xlink:title=" ">
<path fill="none" stroke="#63b8ff" d="M344.38,-191.66C326.66,-163.28 296.73,-120.49 262,-92 255.51,-86.68 247.89,-82.01 240.33,-78.06"/>
<polygon fill="#63b8ff" stroke="#63b8ff" points="341.49,-193.63 349.7,-200.33 347.46,-189.98 341.49,-193.63"/>
</a>
</g>
</g>
<!-- Node14 -->
<g id="Node000014" class="node">
<title>Node14</title>
<g id="a_Node000014"><a xlink:href="structttg__parsec_1_1_buffer.html#ace745d5a5d55e60bde6b8a09b138192d" target="_top" xlink:title=" ">
<polygon fill="white" stroke="#666666" points="259,-30 146,-30 146,0 259,0 259,-30"/>
<text text-anchor="start" x="154" y="-18" font-family="Times,serif" font-size="10.00">ttg_parsec::Buffer</text>
<text text-anchor="middle" x="202.5" y="-7" font-family="Times,serif" font-size="10.00">::set_owner_device</text>
</a>
</g>
</g>
<!-- Node4&#45;&gt;Node14 -->
<g id="edge15_Node000004_Node000014" class="edge">
<title>Node4&#45;&gt;Node14</title>
<g id="a_edge15_Node000004_Node000014"><a xlink:title=" ">
<path fill="none" stroke="#63b8ff" d="M352.08,-190.66C338.3,-150.84 309.03,-81.08 262,-39 258.24,-35.63 253.94,-32.7 249.42,-30.16"/>
<polygon fill="#63b8ff" stroke="#63b8ff" points="348.83,-191.97 355.33,-200.34 355.47,-189.74 348.83,-191.97"/>
</a>
</g>
</g>
<!-- Node12&#45;&gt;Node5 -->
<g id="edge12_Node000012_Node000005" class="edge">
<title>Node12&#45;&gt;Node5</title>
<g id="a_edge12_Node000012_Node000005"><a xlink:title=" ">
<path fill="none" stroke="#63b8ff" d="M138.88,-397.95C128.35,-399.45 117.53,-401 107.28,-402.46"/>
<polygon fill="#63b8ff" stroke="#63b8ff" points="139.44,-401.4 148.84,-396.52 138.45,-394.47 139.44,-401.4"/>
</a>
</g>
</g>
<!-- Node12&#45;&gt;Node6 -->
<g id="edge13_Node000012_Node000006" class="edge">
<title>Node12&#45;&gt;Node6</title>
<g id="a_edge13_Node000012_Node000006"><a xlink:title=" ">
<path fill="none" stroke="#63b8ff" d="M148.52,-368.92C146.61,-367.68 144.76,-366.37 143,-365 105.03,-335.39 75.52,-285.46 62.22,-260.37"/>
<polygon fill="#63b8ff" stroke="#63b8ff" points="146.82,-371.98 157.23,-373.95 150.32,-365.92 146.82,-371.98"/>
</a>
</g>
</g>
</g>
</svg>
