<?xml version="1.0" encoding="UTF-8" standalone="no"?>
<!DOCTYPE svg PUBLIC "-//W3C//DTD SVG 1.1//EN"
 "http://www.w3.org/Graphics/SVG/1.1/DTD/svg11.dtd">
<!-- Generated by graphviz version 2.43.0 (0)
 -->
<!-- Title: ttg::TerminalBase::get_type Pages: 1 -->
<svg width="484pt" height="156pt"
 viewBox="0.00 0.00 484.00 156.00" xmlns="http://www.w3.org/2000/svg" xmlns:xlink="http://www.w3.org/1999/xlink">
<g id="graph0" class="graph" transform="scale(1 1) rotate(0) translate(4 152)">
<title>ttg::TerminalBase::get_type</title>
<!-- Node1 -->
<g id="Node000001" class="node">
<title>Node1</title>
<g id="a_Node000001"><a xlink:title="Returns the terminal type.">
<polygon fill="#999999" stroke="#666666" points="476,-79.5 363,-79.5 363,-49.5 476,-49.5 476,-79.5"/>
<text text-anchor="start" x="371" y="-67.5" font-family="Times,serif" font-size="10.00">ttg::TerminalBase::</text>
<text text-anchor="middle" x="419.5" y="-56.5" font-family="Times,serif" font-size="10.00">get_type</text>
</a>
</g>
</g>
<!-- Node2 -->
<g id="Node000002" class="node">
<title>Node2</title>
<g id="a_Node000002"><a xlink:href="classttg_1_1_out.html#a0dd09ce5a40514317b0677a68e08a4a8" target="_top" xlink:title=" ">
<polygon fill="white" stroke="#666666" points="327,-111 226,-111 226,-92 327,-92 327,-111"/>
<text text-anchor="middle" x="276.5" y="-99" font-family="Times,serif" font-size="10.00">ttg::Out::connect</text>
</a>
</g>
</g>
<!-- Node1&#45;&gt;Node2 -->
<g id="edge1_Node000001_Node000002" class="edge">
<title>Node1&#45;&gt;Node2</title>
<g id="a_edge1_Node000001_Node000002"><a xlink:title=" ">
<path fill="none" stroke="#63b8ff" d="M353.02,-81.68C339.53,-85.22 325.79,-88.83 313.79,-91.98"/>
<polygon fill="#63b8ff" stroke="#63b8ff" points="353.99,-85.05 362.77,-79.12 352.21,-78.28 353.99,-85.05"/>
</a>
</g>
</g>
<!-- Node7 -->
<g id="Node000007" class="node">
<title>Node7</title>
<g id="a_Node000007"><a xlink:href="classttg_1_1_out.html#ad2a015783a18cb7e66096c95a9ae77d0" target="_top" xlink:title=" ">
<polygon fill="white" stroke="#666666" points="319.5,-74 233.5,-74 233.5,-55 319.5,-55 319.5,-74"/>
<text text-anchor="middle" x="276.5" y="-62" font-family="Times,serif" font-size="10.00">ttg::Out::send</text>
</a>
</g>
</g>
<!-- Node1&#45;&gt;Node7 -->
<g id="edge6_Node000001_Node000007" class="edge">
<title>Node1&#45;&gt;Node7</title>
<g id="a_edge6_Node000001_Node000007"><a xlink:title=" ">
<path fill="none" stroke="#63b8ff" d="M352.6,-64.5C341.44,-64.5 330.12,-64.5 319.77,-64.5"/>
<polygon fill="#63b8ff" stroke="#63b8ff" points="352.77,-68 362.77,-64.5 352.77,-61 352.77,-68"/>
</a>
</g>
</g>
<!-- Node8 -->
<g id="Node000008" class="node">
<title>Node8</title>
<g id="a_Node000008"><a xlink:href="classttg_1_1_out.html#a19596b1bdc19006bfe9771b3ece65223" target="_top" xlink:title=" ">
<polygon fill="white" stroke="#666666" points="322.5,-19 230.5,-19 230.5,0 322.5,0 322.5,-19"/>
<text text-anchor="middle" x="276.5" y="-7" font-family="Times,serif" font-size="10.00">ttg::Out::sendv</text>
</a>
</g>
</g>
<!-- Node1&#45;&gt;Node8 -->
<g id="edge7_Node000001_Node000008" class="edge">
<title>Node1&#45;&gt;Node8</title>
<g id="a_edge7_Node000001_Node000008"><a xlink:title=" ">
<path fill="none" stroke="#63b8ff" d="M370.39,-45.74C347.47,-36.79 321.02,-26.48 302.22,-19.14"/>
<polygon fill="#63b8ff" stroke="#63b8ff" points="369.38,-49.1 379.97,-49.47 371.93,-42.58 369.38,-49.1"/>
</a>
</g>
</g>
<!-- Node3 -->
<g id="Node000003" class="node">
<title>Node3</title>
<g id="a_Node000003"><a xlink:href="namespacettg.html#ac31d3ffe687039e52a8179b0ffca7153" target="_top" xlink:title="Connect output terminal to successor input terminal.">
<polygon fill="white" stroke="#666666" points="190,-111 113,-111 113,-92 190,-92 190,-111"/>
<text text-anchor="middle" x="151.5" y="-99" font-family="Times,serif" font-size="10.00">ttg::connect</text>
</a>
</g>
</g>
<!-- Node2&#45;&gt;Node3 -->
<g id="edge2_Node000002_Node000003" class="edge">
<title>Node2&#45;&gt;Node3</title>
<g id="a_edge2_Node000002_Node000003"><a xlink:title=" ">
<path fill="none" stroke="#63b8ff" d="M215.71,-101.5C207.04,-101.5 198.32,-101.5 190.25,-101.5"/>
<polygon fill="#63b8ff" stroke="#63b8ff" points="215.83,-105 225.83,-101.5 215.83,-98 215.83,-105"/>
</a>
</g>
</g>
<!-- Node4 -->
<g id="Node000004" class="node">
<title>Node4</title>
<g id="a_Node000004"><a xlink:href="namespacettg.html#a5f5c90f59ffa4fddb4a2aa1afe4d3db3" target="_top" xlink:title="Connect producer output terminal outindex to consumer input terminal inindex (via unique or otherwise...">
<polygon fill="white" stroke="#666666" points="77,-148 0,-148 0,-129 77,-129 77,-148"/>
<text text-anchor="middle" x="38.5" y="-136" font-family="Times,serif" font-size="10.00">ttg::connect</text>
</a>
</g>
</g>
<!-- Node3&#45;&gt;Node4 -->
<g id="edge3_Node000003_Node000004" class="edge">
<title>Node3&#45;&gt;Node4</title>
<g id="a_edge3_Node000003_Node000004"><a xlink:title=" ">
<path fill="none" stroke="#63b8ff" d="M112.28,-114.24C97.89,-119.04 81.77,-124.41 68.37,-128.88"/>
<polygon fill="#63b8ff" stroke="#63b8ff" points="113.53,-117.51 121.91,-111.03 111.32,-110.87 113.53,-117.51"/>
</a>
</g>
</g>
<!-- Node5 -->
<g id="Node000005" class="node">
<title>Node5</title>
<g id="a_Node000005"><a xlink:href="namespacettg.html#aa1ae512e6c225e04ab2f19977d4dd310" target="_top" xlink:title="Connect producer output terminal outindex to consumer input terminal inindex (via bare pointers to TT...">
<polygon fill="white" stroke="#666666" points="77,-111 0,-111 0,-92 77,-92 77,-111"/>
<text text-anchor="middle" x="38.5" y="-99" font-family="Times,serif" font-size="10.00">ttg::connect</text>
</a>
</g>
</g>
<!-- Node3&#45;&gt;Node5 -->
<g id="edge4_Node000003_Node000005" class="edge">
<title>Node3&#45;&gt;Node5</title>
<g id="a_edge4_Node000003_Node000005"><a xlink:title=" ">
<path fill="none" stroke="#63b8ff" d="M102.65,-101.5C94.08,-101.5 85.27,-101.5 77.04,-101.5"/>
<polygon fill="#63b8ff" stroke="#63b8ff" points="102.92,-105 112.92,-101.5 102.92,-98 102.92,-105"/>
</a>
</g>
</g>
<!-- Node6 -->
<g id="Node000006" class="node">
<title>Node6</title>
<g id="a_Node000006"><a xlink:href="namespacettg.html#addc70370fc2c1bc2a58db5592cc6ec44" target="_top" xlink:title="Connect producer output terminal outindex to consumer input terminal inindex (via TTBase pointers)">
<polygon fill="white" stroke="#666666" points="77,-74 0,-74 0,-55 77,-55 77,-74"/>
<text text-anchor="middle" x="38.5" y="-62" font-family="Times,serif" font-size="10.00">ttg::connect</text>
</a>
</g>
</g>
<!-- Node3&#45;&gt;Node6 -->
<g id="edge5_Node000003_Node000006" class="edge">
<title>Node3&#45;&gt;Node6</title>
<g id="a_edge5_Node000003_Node000006"><a xlink:title=" ">
<path fill="none" stroke="#63b8ff" d="M112.28,-88.76C97.89,-83.96 81.77,-78.59 68.37,-74.12"/>
<polygon fill="#63b8ff" stroke="#63b8ff" points="111.32,-92.13 121.91,-91.97 113.53,-85.49 111.32,-92.13"/>
</a>
</g>
</g>
<!-- Node8&#45;&gt;Node8 -->
<g id="edge8_Node000008_Node000008" class="edge">
<title>Node8&#45;&gt;Node8</title>
<g id="a_edge8_Node000008_Node000008"><a xlink:title=" ">
<path fill="none" stroke="#63b8ff" d="M299.46,-28.55C297.93,-33.38 290.27,-37 276.5,-37 254.46,-37 248.09,-27.73 257.39,-19.08"/>
<polygon fill="#63b8ff" stroke="#63b8ff" points="302.62,-27.03 295.61,-19.08 296.14,-29.66 302.62,-27.03"/>
</a>
</g>
</g>
<!-- Node9 -->
<g id="Node000009" class="node">
<title>Node9</title>
<g id="a_Node000009"><a xlink:href="namespacettg.html#a8f6699133cf34d99b17a41af9834a272" target="_top" xlink:title="Sends a value (without an accompanying task id) to the given output terminal.">
<polygon fill="white" stroke="#666666" points="185.5,-19 117.5,-19 117.5,0 185.5,0 185.5,-19"/>
<text text-anchor="middle" x="151.5" y="-7" font-family="Times,serif" font-size="10.00">ttg::sendv</text>
</a>
</g>
</g>
<!-- Node8&#45;&gt;Node9 -->
<g id="edge9_Node000008_Node000009" class="edge">
<title>Node8&#45;&gt;Node9</title>
<g id="a_edge9_Node000008_Node000009"><a xlink:title=" ">
<path fill="none" stroke="#63b8ff" d="M220.17,-9.5C208.38,-9.5 196.29,-9.5 185.65,-9.5"/>
<polygon fill="#63b8ff" stroke="#63b8ff" points="220.4,-13 230.4,-9.5 220.4,-6 220.4,-13"/>
</a>
</g>
</g>
<!-- Node10 -->
<g id="Node000010" class="node">
<title>Node10</title>
<g id="a_Node000010"><a xlink:href="namespacettg.html#aec6fd6a228d0400a690001fd5171b468" target="_top" xlink:title="Sends a value (without an accompanying task id) to the template tasks attached to the output terminal...">
<polygon fill="white" stroke="#666666" points="72.5,-19 4.5,-19 4.5,0 72.5,0 72.5,-19"/>
<text text-anchor="middle" x="38.5" y="-7" font-family="Times,serif" font-size="10.00">ttg::sendv</text>
</a>
</g>
</g>
<!-- Node9&#45;&gt;Node10 -->
<g id="edge10_Node000009_Node000010" class="edge">
<title>Node9&#45;&gt;Node10</title>
<g id="a_edge10_Node000009_Node000010"><a xlink:title=" ">
<path fill="none" stroke="#63b8ff" d="M107.19,-9.5C95.68,-9.5 83.44,-9.5 72.57,-9.5"/>
<polygon fill="#63b8ff" stroke="#63b8ff" points="107.5,-13 117.5,-9.5 107.5,-6 107.5,-13"/>
</a>
</g>
</g>
</g>
</svg>
