<?xml version="1.0" encoding="UTF-8" standalone="no"?>
<!DOCTYPE svg PUBLIC "-//W3C//DTD SVG 1.1//EN"
 "http://www.w3.org/Graphics/SVG/1.1/DTD/svg11.dtd">
<!-- Generated by graphviz version 2.43.0 (0)
 -->
<!-- Title: ttg::Out::send Pages: 1 -->
<svg width="549pt" height="292pt"
 viewBox="0.00 0.00 549.00 292.00" xmlns="http://www.w3.org/2000/svg" xmlns:xlink="http://www.w3.org/1999/xlink">
<g id="graph0" class="graph" transform="scale(1 1) rotate(0) translate(4 288)">
<title>ttg::Out::send</title>
<!-- Node1 -->
<g id="Node000001" class="node">
<title>Node1</title>
<g id="a_Node000001"><a xlink:title=" ">
<polygon fill="#999999" stroke="#666666" points="86,-198.5 0,-198.5 0,-179.5 86,-179.5 86,-198.5"/>
<text text-anchor="middle" x="43" y="-186.5" font-family="Times,serif" font-size="10.00">ttg::Out::send</text>
</a>
</g>
</g>
<!-- Node1&#45;&gt;Node1 -->
<g id="edge3_Node000001_Node000001" class="edge">
<title>Node1&#45;&gt;Node1</title>
<g id="a_edge3_Node000001_Node000001"><a xlink:title=" ">
<path fill="none" stroke="#63b8ff" d="M21.42,-198.58C10.92,-207.23 18.12,-216.5 43,-216.5 58.94,-216.5 67.62,-212.7 69.04,-207.69"/>
<polygon fill="#63b8ff" stroke="#63b8ff" points="72.12,-206.02 64.58,-198.58 65.84,-209.1 72.12,-206.02"/>
</a>
</g>
</g>
<!-- Node2 -->
<g id="Node000002" class="node">
<title>Node2</title>
<g id="a_Node000002"><a xlink:href="classttg_1_1_terminal_base.html#afb14b11c29459fc8aa5a2cb4297b5c2e" target="_top" xlink:title="Returns name of terminal.">
<polygon fill="white" stroke="#666666" points="241,-284 128,-284 128,-254 241,-254 241,-284"/>
<text text-anchor="start" x="136" y="-272" font-family="Times,serif" font-size="10.00">ttg::TerminalBase::</text>
<text text-anchor="middle" x="184.5" y="-261" font-family="Times,serif" font-size="10.00">get_name</text>
</a>
</g>
</g>
<!-- Node1&#45;&gt;Node2 -->
<g id="edge1_Node000001_Node000002" class="edge">
<title>Node1&#45;&gt;Node2</title>
<g id="a_edge1_Node000001_Node000002"><a xlink:title=" ">
<path fill="none" stroke="#63b8ff" d="M55.29,-198.5C69.94,-210.5 96.65,-231.24 122,-245 125.06,-246.66 128.27,-248.27 131.54,-249.81"/>
<polygon fill="#63b8ff" stroke="#63b8ff" points="130.29,-253.09 140.85,-253.97 133.15,-246.7 130.29,-253.09"/>
</a>
</g>
</g>
<!-- Node3 -->
<g id="Node000003" class="node">
<title>Node3</title>
<g id="a_Node000003"><a xlink:href="namespacettg.html#ac0ad1dd3b87329e4acf9774df6dc8473" target="_top" xlink:title=" ">
<polygon fill="white" stroke="#666666" points="214.5,-235.5 154.5,-235.5 154.5,-216.5 214.5,-216.5 214.5,-235.5"/>
<text text-anchor="middle" x="184.5" y="-223.5" font-family="Times,serif" font-size="10.00">ttg::rank</text>
</a>
</g>
</g>
<!-- Node1&#45;&gt;Node3 -->
<g id="edge2_Node000001_Node000003" class="edge">
<title>Node1&#45;&gt;Node3</title>
<g id="a_edge2_Node000001_Node000003"><a xlink:title=" ">
<path fill="none" stroke="#63b8ff" d="M79.92,-198.53C99.68,-203.77 124.2,-210.27 144.43,-215.64"/>
<polygon fill="#63b8ff" stroke="#63b8ff" points="143.71,-219.07 154.27,-218.25 145.5,-212.3 143.71,-219.07"/>
</a>
</g>
</g>
<!-- Node4 -->
<g id="Node000004" class="node">
<title>Node4</title>
<g id="a_Node000004"><a xlink:href="namespacettg.html#a293bb7226707f202e735a9b3e4c76fab" target="_top" xlink:title=" ">
<polygon fill="white" stroke="#666666" points="212.5,-198.5 156.5,-198.5 156.5,-179.5 212.5,-179.5 212.5,-198.5"/>
<text text-anchor="middle" x="184.5" y="-186.5" font-family="Times,serif" font-size="10.00">ttg::size</text>
</a>
</g>
</g>
<!-- Node1&#45;&gt;Node4 -->
<g id="edge4_Node000001_Node000004" class="edge">
<title>Node1&#45;&gt;Node4</title>
<g id="a_edge4_Node000001_Node000004"><a xlink:title=" ">
<path fill="none" stroke="#63b8ff" d="M86.23,-189C105.36,-189 127.78,-189 146.26,-189"/>
<polygon fill="#63b8ff" stroke="#63b8ff" points="146.36,-192.5 156.36,-189 146.36,-185.5 146.36,-192.5"/>
</a>
</g>
</g>
<!-- Node5 -->
<g id="Node000005" class="node">
<title>Node5</title>
<g id="a_Node000005"><a xlink:href="classttg_1_1_out_terminal_base.html#aa0341fd67b25363d5c45d77646294cf9" target="_top" xlink:title=" ">
<polygon fill="white" stroke="#666666" points="247,-161 122,-161 122,-131 247,-131 247,-161"/>
<text text-anchor="start" x="130" y="-149" font-family="Times,serif" font-size="10.00">ttg::OutTerminalBase</text>
<text text-anchor="middle" x="184.5" y="-138" font-family="Times,serif" font-size="10.00">::successors</text>
</a>
</g>
</g>
<!-- Node1&#45;&gt;Node5 -->
<g id="edge5_Node000001_Node000005" class="edge">
<title>Node1&#45;&gt;Node5</title>
<g id="a_edge5_Node000001_Node000005"><a xlink:title=" ">
<path fill="none" stroke="#63b8ff" d="M74.96,-179.46C89.65,-174.93 107.72,-169.36 124.86,-164.07"/>
<polygon fill="#63b8ff" stroke="#63b8ff" points="126.29,-167.3 134.82,-161.01 124.23,-160.61 126.29,-167.3"/>
</a>
</g>
</g>
<!-- Node7 -->
<g id="Node000007" class="node">
<title>Node7</title>
<g id="a_Node000007"><a xlink:href="namespacettg.html#af5e470229c1ddef41b83b6398a5dc583" target="_top" xlink:title=" ">
<polygon fill="white" stroke="#666666" points="215.5,-93.5 153.5,-93.5 153.5,-74.5 215.5,-74.5 215.5,-93.5"/>
<text text-anchor="middle" x="184.5" y="-81.5" font-family="Times,serif" font-size="10.00">ttg::trace</text>
</a>
</g>
</g>
<!-- Node1&#45;&gt;Node7 -->
<g id="edge7_Node000001_Node000007" class="edge">
<title>Node1&#45;&gt;Node7</title>
<g id="a_edge7_Node000001_Node000007"><a xlink:title=" ">
<path fill="none" stroke="#63b8ff" d="M54.17,-179.36C68.66,-165.82 96.35,-140.76 122,-122 133.24,-113.78 146.28,-105.55 157.46,-98.86"/>
<polygon fill="#63b8ff" stroke="#63b8ff" points="159.49,-101.73 166.33,-93.64 155.94,-95.69 159.49,-101.73"/>
</a>
</g>
</g>
<!-- Node6 -->
<g id="Node000006" class="node">
<title>Node6</title>
<g id="a_Node000006"><a xlink:href="classttg_1_1_terminal_base.html#ab21d3f0050249488606592cfe99c3409" target="_top" xlink:title="Get connections to successors.">
<polygon fill="white" stroke="#666666" points="396,-180 283,-180 283,-150 396,-150 396,-180"/>
<text text-anchor="start" x="291" y="-168" font-family="Times,serif" font-size="10.00">ttg::TerminalBase::</text>
<text text-anchor="middle" x="339.5" y="-157" font-family="Times,serif" font-size="10.00">get_connections</text>
</a>
</g>
</g>
<!-- Node5&#45;&gt;Node6 -->
<g id="edge6_Node000005_Node000006" class="edge">
<title>Node5&#45;&gt;Node6</title>
<g id="a_edge6_Node000005_Node000006"><a xlink:title=" ">
<path fill="none" stroke="#63b8ff" d="M247.29,-153.67C255.66,-154.71 264.28,-155.78 272.72,-156.83"/>
<polygon fill="#63b8ff" stroke="#63b8ff" points="272.54,-160.34 282.9,-158.1 273.4,-153.39 272.54,-160.34"/>
</a>
</g>
</g>
<!-- Node8 -->
<g id="Node000008" class="node">
<title>Node8</title>
<g id="a_Node000008"><a xlink:href="namespacettg.html#aacacfe8bc9582308a405c4370650a9d4" target="_top" xlink:title="atomically prints to std::clog a sequence of items (separated by ttg::print_separator) followed by st...">
<polygon fill="white" stroke="#666666" points="366,-131.5 313,-131.5 313,-112.5 366,-112.5 366,-131.5"/>
<text text-anchor="middle" x="339.5" y="-119.5" font-family="Times,serif" font-size="10.00">ttg::log</text>
</a>
</g>
</g>
<!-- Node7&#45;&gt;Node8 -->
<g id="edge8_Node000007_Node000008" class="edge">
<title>Node7&#45;&gt;Node8</title>
<g id="a_edge8_Node000007_Node000008"><a xlink:title=" ">
<path fill="none" stroke="#63b8ff" d="M215.73,-91.51C240.79,-97.73 276.47,-106.59 302.91,-113.16"/>
<polygon fill="#63b8ff" stroke="#63b8ff" points="302.36,-116.63 312.9,-115.64 304.04,-109.84 302.36,-116.63"/>
</a>
</g>
</g>
<!-- Node10 -->
<g id="Node000010" class="node">
<title>Node10</title>
<g id="a_Node000010"><a xlink:href="namespacettg.html#afbdd9c742be395e0746fdbc26c7d55cc" target="_top" xlink:title="returns whether tracing was enabled at configure time">
<polygon fill="white" stroke="#666666" points="541,-81.5 432,-81.5 432,-62.5 541,-62.5 541,-81.5"/>
<text text-anchor="middle" x="486.5" y="-69.5" font-family="Times,serif" font-size="10.00">ttg::trace_enabled</text>
</a>
</g>
</g>
<!-- Node7&#45;&gt;Node10 -->
<g id="edge10_Node000007_Node000010" class="edge">
<title>Node7&#45;&gt;Node10</title>
<g id="a_edge10_Node000007_Node000010"><a xlink:title=" ">
<path fill="none" stroke="#63b8ff" d="M215.64,-82.79C263.56,-80.88 358.2,-77.09 421.68,-74.55"/>
<polygon fill="#63b8ff" stroke="#63b8ff" points="422.13,-78.04 431.98,-74.14 421.85,-71.04 422.13,-78.04"/>
</a>
</g>
</g>
<!-- Node11 -->
<g id="Node000011" class="node">
<title>Node11</title>
<g id="a_Node000011"><a xlink:href="namespacettg.html#abfb8501d408a1ed918cc2a540865a2d8" target="_top" xlink:title="returns whether tracing is enabled">
<polygon fill="white" stroke="#666666" points="376,-55.5 303,-55.5 303,-36.5 376,-36.5 376,-55.5"/>
<text text-anchor="middle" x="339.5" y="-43.5" font-family="Times,serif" font-size="10.00">ttg::tracing</text>
</a>
</g>
</g>
<!-- Node7&#45;&gt;Node11 -->
<g id="edge11_Node000007_Node000011" class="edge">
<title>Node7&#45;&gt;Node11</title>
<g id="a_edge11_Node000007_Node000011"><a xlink:title=" ">
<path fill="none" stroke="#63b8ff" d="M215.73,-76.49C237.77,-71.02 268.03,-63.5 292.99,-57.3"/>
<polygon fill="#63b8ff" stroke="#63b8ff" points="294.1,-60.63 302.97,-54.83 292.42,-53.84 294.1,-60.63"/>
</a>
</g>
</g>
<!-- Node9 -->
<g id="Node000009" class="node">
<title>Node9</title>
<g id="a_Node000009"><a xlink:href="namespacettg_1_1detail.html#a26e07486d5ef8eb5735a8975991a7693" target="_top" xlink:title=" ">
<polygon fill="white" stroke="#666666" points="534.5,-137 438.5,-137 438.5,-107 534.5,-107 534.5,-137"/>
<text text-anchor="start" x="446.5" y="-125" font-family="Times,serif" font-size="10.00">ttg::detail::print</text>
<text text-anchor="middle" x="486.5" y="-114" font-family="Times,serif" font-size="10.00">_helper</text>
</a>
</g>
</g>
<!-- Node8&#45;&gt;Node9 -->
<g id="edge9_Node000008_Node000009" class="edge">
<title>Node8&#45;&gt;Node9</title>
<g id="a_edge9_Node000008_Node000009"><a xlink:title=" ">
<path fill="none" stroke="#63b8ff" d="M366.09,-122C383.36,-122 406.84,-122 428.42,-122"/>
<polygon fill="#63b8ff" stroke="#63b8ff" points="428.49,-125.5 438.49,-122 428.49,-118.5 428.49,-125.5"/>
</a>
</g>
</g>
<!-- Node11&#45;&gt;Node10 -->
<g id="edge14_Node000011_Node000010" class="edge">
<title>Node11&#45;&gt;Node10</title>
<g id="a_edge14_Node000011_Node000010"><a xlink:title=" ">
<path fill="none" stroke="#63b8ff" d="M376.34,-52.43C390.17,-54.91 406.41,-57.82 422.08,-60.63"/>
<polygon fill="#63b8ff" stroke="#63b8ff" points="421.8,-64.13 432.26,-62.45 423.04,-57.24 421.8,-64.13"/>
</a>
</g>
</g>
<!-- Node12 -->
<g id="Node000012" class="node">
<title>Node12</title>
<g id="a_Node000012"><a xlink:href="namespacettg_1_1detail.html#a95356c3874e7ec9268a40feb4fc1519f" target="_top" xlink:title=" ">
<polygon fill="white" stroke="#666666" points="535,-30 438,-30 438,0 535,0 535,-30"/>
<text text-anchor="start" x="446" y="-18" font-family="Times,serif" font-size="10.00">ttg::detail::trace</text>
<text text-anchor="middle" x="486.5" y="-7" font-family="Times,serif" font-size="10.00">_accessor</text>
</a>
</g>
</g>
<!-- Node11&#45;&gt;Node12 -->
<g id="edge12_Node000011_Node000012" class="edge">
<title>Node11&#45;&gt;Node12</title>
<g id="a_edge12_Node000011_Node000012"><a xlink:title=" ">
<path fill="none" stroke="#63b8ff" d="M376.34,-38.34C391.84,-35.02 410.36,-31.06 427.71,-27.35"/>
<polygon fill="#63b8ff" stroke="#63b8ff" points="428.71,-30.72 437.76,-25.21 427.25,-23.87 428.71,-30.72"/>
</a>
</g>
</g>
<!-- Node12&#45;&gt;Node7 -->
<g id="edge13_Node000012_Node000007" class="edge">
<title>Node12&#45;&gt;Node7</title>
<g id="a_edge13_Node000012_Node000007"><a xlink:title=" ">
<path fill="none" stroke="#63b8ff" d="M437.76,-11.65C396.02,-10.16 334.23,-11.48 283,-27 254,-35.78 224.49,-54.73 205.64,-68.37"/>
<polygon fill="#63b8ff" stroke="#63b8ff" points="203.48,-65.62 197.54,-74.39 207.65,-71.24 203.48,-65.62"/>
</a>
</g>
</g>
</g>
</svg>
