<?xml version="1.0" encoding="UTF-8" standalone="no"?>
<!DOCTYPE svg PUBLIC "-//W3C//DTD SVG 1.1//EN"
 "http://www.w3.org/Graphics/SVG/1.1/DTD/svg11.dtd">
<!-- Generated by graphviz version 2.43.0 (0)
 -->
<!-- Title: ttg_parsec::TT::set_devicemap Pages: 1 -->
<svg width="435pt" height="172pt"
 viewBox="0.00 0.00 435.00 172.00" xmlns="http://www.w3.org/2000/svg" xmlns:xlink="http://www.w3.org/1999/xlink">
<g id="graph0" class="graph" transform="scale(1 1) rotate(0) translate(4 168)">
<title>ttg_parsec::TT::set_devicemap</title>
<!-- Node1 -->
<g id="Node000001" class="node">
<title>Node1</title>
<g id="a_Node000001"><a xlink:title=" ">
<polygon fill="#999999" stroke="#666666" points="110,-99 0,-99 0,-69 110,-69 110,-99"/>
<text text-anchor="start" x="8" y="-87" font-family="Times,serif" font-size="10.00">ttg_parsec::TT::set</text>
<text text-anchor="middle" x="55" y="-76" font-family="Times,serif" font-size="10.00">_devicemap</text>
</a>
</g>
</g>
<!-- Node2 -->
<g id="Node000002" class="node">
<title>Node2</title>
<g id="a_Node000002"><a xlink:href="classttg__parsec_1_1_t_t.html#aad517897417ee547ece0a21e47ec260e" target="_top" xlink:title=" ">
<polygon fill="white" stroke="#666666" points="280,-164 146,-164 146,-134 280,-134 280,-164"/>
<text text-anchor="start" x="154" y="-152" font-family="Times,serif" font-size="10.00">ttg_parsec::TT::derived</text>
<text text-anchor="middle" x="213" y="-141" font-family="Times,serif" font-size="10.00">_has_cuda_op</text>
</a>
</g>
</g>
<!-- Node1&#45;&gt;Node2 -->
<g id="edge1_Node000001_Node000002" class="edge">
<title>Node1&#45;&gt;Node2</title>
<g id="a_edge1_Node000001_Node000002"><a xlink:title=" ">
<path fill="none" stroke="#63b8ff" d="M92.18,-99.08C114.25,-108.27 142.67,-120.11 166.28,-129.95"/>
<polygon fill="#63b8ff" stroke="#63b8ff" points="165.17,-133.28 175.74,-133.89 167.86,-126.82 165.17,-133.28"/>
</a>
</g>
</g>
<!-- Node3 -->
<g id="Node000003" class="node">
<title>Node3</title>
<g id="a_Node000003"><a xlink:href="classttg__parsec_1_1_t_t.html#aab59a1bf0fcc4f771457b5f05cb42741" target="_top" xlink:title=" ">
<polygon fill="white" stroke="#666666" points="427,-93.5 316,-93.5 316,-74.5 427,-74.5 427,-93.5"/>
<text text-anchor="middle" x="371.5" y="-81.5" font-family="Times,serif" font-size="10.00">ttg_parsec::TT::get</text>
</a>
</g>
</g>
<!-- Node1&#45;&gt;Node3 -->
<g id="edge8_Node000001_Node000003" class="edge">
<title>Node1&#45;&gt;Node3</title>
<g id="a_edge8_Node000001_Node000003"><a xlink:title=" ">
<path fill="none" stroke="#63b8ff" d="M110.25,-86.1C122.03,-86.48 134.43,-86.81 146,-87 205.55,-87.99 220.45,-87.99 280,-87 288.36,-86.86 297.15,-86.65 305.84,-86.4"/>
<polygon fill="#63b8ff" stroke="#63b8ff" points="306.06,-89.9 315.95,-86.1 305.85,-82.9 306.06,-89.9"/>
</a>
</g>
</g>
<!-- Node4 -->
<g id="Node000004" class="node">
<title>Node4</title>
<g id="a_Node000004"><a xlink:href="classttg__parsec_1_1_t_t.html#aee3384a0a2b85cd5e233e95a4ce63893" target="_top" xlink:title=" ">
<polygon fill="white" stroke="#666666" points="280,-78 146,-78 146,-48 280,-48 280,-78"/>
<text text-anchor="start" x="154" y="-66" font-family="Times,serif" font-size="10.00">ttg_parsec::TT::derived</text>
<text text-anchor="middle" x="213" y="-55" font-family="Times,serif" font-size="10.00">_has_hip_op</text>
</a>
</g>
</g>
<!-- Node1&#45;&gt;Node4 -->
<g id="edge4_Node000001_Node000004" class="edge">
<title>Node1&#45;&gt;Node4</title>
<g id="a_edge4_Node000001_Node000004"><a xlink:title=" ">
<path fill="none" stroke="#63b8ff" d="M110.12,-76.71C118.41,-75.6 127.09,-74.43 135.75,-73.26"/>
<polygon fill="#63b8ff" stroke="#63b8ff" points="136.43,-76.71 145.87,-71.9 135.49,-69.77 136.43,-76.71"/>
</a>
</g>
</g>
<!-- Node5 -->
<g id="Node000005" class="node">
<title>Node5</title>
<g id="a_Node000005"><a xlink:href="classttg__parsec_1_1_t_t.html#af743a555626ae306b7678cde523b47a0" target="_top" xlink:title=" ">
<polygon fill="white" stroke="#666666" points="280,-30 146,-30 146,0 280,0 280,-30"/>
<text text-anchor="start" x="154" y="-18" font-family="Times,serif" font-size="10.00">ttg_parsec::TT::derived</text>
<text text-anchor="middle" x="213" y="-7" font-family="Times,serif" font-size="10.00">_has_level_zero_op</text>
</a>
</g>
</g>
<!-- Node1&#45;&gt;Node5 -->
<g id="edge6_Node000001_Node000005" class="edge">
<title>Node1&#45;&gt;Node5</title>
<g id="a_edge6_Node000001_Node000005"><a xlink:title=" ">
<path fill="none" stroke="#63b8ff" d="M83.98,-68.97C101.55,-59.79 124.82,-48.11 146,-39 150.14,-37.22 154.47,-35.45 158.84,-33.73"/>
<polygon fill="#63b8ff" stroke="#63b8ff" points="160.33,-36.9 168.41,-30.05 157.82,-30.37 160.33,-36.9"/>
</a>
</g>
</g>
<!-- Node2&#45;&gt;Node3 -->
<g id="edge2_Node000002_Node000003" class="edge">
<title>Node2&#45;&gt;Node3</title>
<g id="a_edge2_Node000002_Node000003"><a xlink:title=" ">
<path fill="none" stroke="#63b8ff" d="M250.3,-133.92C276.88,-122.88 312.63,-108.03 338.22,-97.41"/>
<polygon fill="#63b8ff" stroke="#63b8ff" points="339.6,-100.62 347.49,-93.56 336.91,-94.16 339.6,-100.62"/>
</a>
</g>
</g>
<!-- Node3&#45;&gt;Node3 -->
<g id="edge3_Node000003_Node000003" class="edge">
<title>Node3&#45;&gt;Node3</title>
<g id="a_edge3_Node000003_Node000003"><a xlink:title=" ">
<path fill="none" stroke="#63b8ff" d="M347.15,-93.58C335.3,-102.23 343.42,-111.5 371.5,-111.5 389.93,-111.5 399.76,-107.51 400.99,-102.32"/>
<polygon fill="#63b8ff" stroke="#63b8ff" points="403.94,-100.43 395.85,-93.58 397.91,-103.98 403.94,-100.43"/>
</a>
</g>
</g>
<!-- Node4&#45;&gt;Node3 -->
<g id="edge5_Node000004_Node000003" class="edge">
<title>Node4&#45;&gt;Node3</title>
<g id="a_edge5_Node000004_Node000003"><a xlink:title=" ">
<path fill="none" stroke="#63b8ff" d="M280.37,-71.91C288.78,-73.03 297.38,-74.19 305.76,-75.31"/>
<polygon fill="#63b8ff" stroke="#63b8ff" points="305.48,-78.81 315.86,-76.67 306.41,-71.87 305.48,-78.81"/>
</a>
</g>
</g>
<!-- Node5&#45;&gt;Node3 -->
<g id="edge7_Node000005_Node000003" class="edge">
<title>Node5&#45;&gt;Node3</title>
<g id="a_edge7_Node000005_Node000003"><a xlink:title=" ">
<path fill="none" stroke="#63b8ff" d="M257.59,-30.06C265.12,-32.89 272.83,-35.92 280,-39 301.77,-48.34 325.75,-60.34 343.55,-69.6"/>
<polygon fill="#63b8ff" stroke="#63b8ff" points="342.27,-72.88 352.75,-74.43 345.52,-66.68 342.27,-72.88"/>
</a>
</g>
</g>
</g>
</svg>
