<?xml version="1.0" encoding="UTF-8" standalone="no"?>
<!DOCTYPE svg PUBLIC "-//W3C//DTD SVG 1.1//EN"
 "http://www.w3.org/Graphics/SVG/1.1/DTD/svg11.dtd">
<!-- Generated by graphviz version 2.43.0 (0)
 -->
<!-- Title: ttg::detail::Traverse::traverse Pages: 1 -->
<svg width="454pt" height="246pt"
 viewBox="0.00 0.00 454.00 245.50" xmlns="http://www.w3.org/2000/svg" xmlns:xlink="http://www.w3.org/1999/xlink">
<g id="graph0" class="graph" transform="scale(1 1) rotate(0) translate(4 241.5)">
<title>ttg::detail::Traverse::traverse</title>
<!-- Node1 -->
<g id="Node000001" class="node">
<title>Node1</title>
<g id="a_Node000001"><a xlink:title=" ">
<polygon fill="#999999" stroke="#666666" points="116,-147 0,-147 0,-117 116,-117 116,-147"/>
<text text-anchor="start" x="8" y="-135" font-family="Times,serif" font-size="10.00">ttg::detail::Traverse</text>
<text text-anchor="middle" x="58" y="-124" font-family="Times,serif" font-size="10.00">::traverse</text>
</a>
</g>
</g>
<!-- Node2 -->
<g id="Node000002" class="node">
<title>Node2</title>
<g id="a_Node000002"><a xlink:href="classttg_1_1detail_1_1_traverse.html#a8f22396f983cd2b43113903985294410" target="_top" xlink:title=" ">
<polygon fill="white" stroke="#666666" points="268,-147 152,-147 152,-117 268,-117 268,-147"/>
<text text-anchor="start" x="160" y="-135" font-family="Times,serif" font-size="10.00">ttg::detail::Traverse</text>
<text text-anchor="middle" x="210" y="-124" font-family="Times,serif" font-size="10.00">::traverse</text>
</a>
</g>
</g>
<!-- Node1&#45;&gt;Node2 -->
<g id="edge1_Node000001_Node000002" class="edge">
<title>Node1&#45;&gt;Node2</title>
<g id="a_edge1_Node000001_Node000002"><a xlink:title=" ">
<path fill="none" stroke="#63b8ff" d="M116.14,-132C124.38,-132 132.92,-132 141.34,-132"/>
<polygon fill="#63b8ff" stroke="#63b8ff" points="141.53,-135.5 151.53,-132 141.53,-128.5 141.53,-135.5"/>
</a>
</g>
</g>
<!-- Node2&#45;&gt;Node2 -->
<g id="edge7_Node000002_Node000002" class="edge">
<title>Node2&#45;&gt;Node2</title>
<g id="a_edge7_Node000002_Node000002"><a xlink:title=" ">
<path fill="none" stroke="#63b8ff" d="M183.28,-147.28C177.34,-156.41 186.25,-165 210,-165 224.1,-165 232.97,-161.97 236.61,-157.6"/>
<polygon fill="#63b8ff" stroke="#63b8ff" points="240.11,-157.31 236.72,-147.28 233.11,-157.24 240.11,-157.31"/>
</a>
</g>
</g>
<!-- Node3 -->
<g id="Node000003" class="node">
<title>Node3</title>
<g id="a_Node000003"><a xlink:href="classttg_1_1_t_t_base.html#ac290f7b019ed37ec5f89777e853d3f27" target="_top" xlink:title="Returns the vector of input terminals.">
<polygon fill="white" stroke="#666666" points="442.5,-237.5 307.5,-237.5 307.5,-218.5 442.5,-218.5 442.5,-237.5"/>
<text text-anchor="middle" x="375" y="-225.5" font-family="Times,serif" font-size="10.00">ttg::TTBase::get_inputs</text>
</a>
</g>
</g>
<!-- Node2&#45;&gt;Node3 -->
<g id="edge2_Node000002_Node000003" class="edge">
<title>Node2&#45;&gt;Node3</title>
<g id="a_edge2_Node000002_Node000003"><a xlink:title=" ">
<path fill="none" stroke="#63b8ff" d="M224.95,-147.26C241.94,-164.94 272.33,-193.72 304,-210 307.7,-211.9 311.62,-213.62 315.64,-215.16"/>
<polygon fill="#63b8ff" stroke="#63b8ff" points="314.54,-218.48 325.14,-218.44 316.83,-211.86 314.54,-218.48"/>
</a>
</g>
</g>
<!-- Node4 -->
<g id="Node000004" class="node">
<title>Node4</title>
<g id="a_Node000004"><a xlink:href="classttg_1_1_t_t_base.html#ade3b1e6b149fe1124f7192aeca5f715c" target="_top" xlink:title="Gets the name of this operation.">
<polygon fill="white" stroke="#666666" points="440.5,-200.5 309.5,-200.5 309.5,-181.5 440.5,-181.5 440.5,-200.5"/>
<text text-anchor="middle" x="375" y="-188.5" font-family="Times,serif" font-size="10.00">ttg::TTBase::get_name</text>
</a>
</g>
</g>
<!-- Node2&#45;&gt;Node4 -->
<g id="edge3_Node000002_Node000004" class="edge">
<title>Node2&#45;&gt;Node4</title>
<g id="a_edge3_Node000002_Node000004"><a xlink:title=" ">
<path fill="none" stroke="#63b8ff" d="M241.91,-147.15C259.77,-155.52 282.82,-165.67 304,-173 309.91,-175.05 316.18,-176.98 322.44,-178.77"/>
<polygon fill="#63b8ff" stroke="#63b8ff" points="321.64,-182.18 332.21,-181.45 323.49,-175.43 321.64,-182.18"/>
</a>
</g>
</g>
<!-- Node5 -->
<g id="Node000005" class="node">
<title>Node5</title>
<g id="a_Node000005"><a xlink:href="classttg_1_1_t_t_base.html#a5158da66b2aa6b7af14998e7aac0fe29" target="_top" xlink:title="Returns the vector of output terminals.">
<polygon fill="white" stroke="#666666" points="446,-163.5 304,-163.5 304,-144.5 446,-144.5 446,-163.5"/>
<text text-anchor="middle" x="375" y="-151.5" font-family="Times,serif" font-size="10.00">ttg::TTBase::get_outputs</text>
</a>
</g>
</g>
<!-- Node2&#45;&gt;Node5 -->
<g id="edge4_Node000002_Node000005" class="edge">
<title>Node2&#45;&gt;Node5</title>
<g id="a_edge4_Node000002_Node000005"><a xlink:title=" ">
<path fill="none" stroke="#63b8ff" d="M268.01,-139.69C276.32,-140.82 285.01,-141.99 293.68,-143.16"/>
<polygon fill="#63b8ff" stroke="#63b8ff" points="293.45,-146.66 303.83,-144.53 294.39,-139.72 293.45,-146.66"/>
</a>
</g>
</g>
<!-- Node6 -->
<g id="Node000006" class="node">
<title>Node6</title>
<g id="a_Node000006"><a xlink:href="classttg_1_1detail_1_1_traverse.html#a6aa44d45713f8fecf27bd4c91f1be475" target="_top" xlink:title=" ">
<polygon fill="white" stroke="#666666" points="433,-126 317,-126 317,-96 433,-96 433,-126"/>
<text text-anchor="start" x="325" y="-114" font-family="Times,serif" font-size="10.00">ttg::detail::Traverse</text>
<text text-anchor="middle" x="375" y="-103" font-family="Times,serif" font-size="10.00">::infunc</text>
</a>
</g>
</g>
<!-- Node2&#45;&gt;Node6 -->
<g id="edge5_Node000002_Node000006" class="edge">
<title>Node2&#45;&gt;Node6</title>
<g id="a_edge5_Node000002_Node000006"><a xlink:title=" ">
<path fill="none" stroke="#63b8ff" d="M268.01,-124.66C280.47,-123.05 293.77,-121.34 306.59,-119.68"/>
<polygon fill="#63b8ff" stroke="#63b8ff" points="307.28,-123.13 316.75,-118.38 306.38,-116.18 307.28,-123.13"/>
</a>
</g>
</g>
<!-- Node7 -->
<g id="Node000007" class="node">
<title>Node7</title>
<g id="a_Node000007"><a xlink:href="classttg_1_1detail_1_1_traverse.html#a9c047df6c224aa7c87d9b72d15efc4c6" target="_top" xlink:title=" ">
<polygon fill="white" stroke="#666666" points="433,-78 317,-78 317,-48 433,-48 433,-78"/>
<text text-anchor="start" x="325" y="-66" font-family="Times,serif" font-size="10.00">ttg::detail::Traverse</text>
<text text-anchor="middle" x="375" y="-55" font-family="Times,serif" font-size="10.00">::outfunc</text>
</a>
</g>
</g>
<!-- Node2&#45;&gt;Node7 -->
<g id="edge6_Node000002_Node000007" class="edge">
<title>Node2&#45;&gt;Node7</title>
<g id="a_edge6_Node000002_Node000007"><a xlink:title=" ">
<path fill="none" stroke="#63b8ff" d="M239.91,-116.9C258.06,-107.69 282.11,-96.01 304,-87 308.44,-85.17 313.08,-83.36 317.77,-81.61"/>
<polygon fill="#63b8ff" stroke="#63b8ff" points="319.2,-84.82 327.39,-78.1 316.8,-78.24 319.2,-84.82"/>
</a>
</g>
</g>
<!-- Node8 -->
<g id="Node000008" class="node">
<title>Node8</title>
<g id="a_Node000008"><a xlink:href="classttg_1_1detail_1_1_traverse.html#a5da2d82d0eb6f9216c6e23ef48c76ff0" target="_top" xlink:title=" ">
<polygon fill="white" stroke="#666666" points="433,-30 317,-30 317,0 433,0 433,-30"/>
<text text-anchor="start" x="325" y="-18" font-family="Times,serif" font-size="10.00">ttg::detail::Traverse</text>
<text text-anchor="middle" x="375" y="-7" font-family="Times,serif" font-size="10.00">::ttfunc</text>
</a>
</g>
</g>
<!-- Node2&#45;&gt;Node8 -->
<g id="edge8_Node000002_Node000008" class="edge">
<title>Node2&#45;&gt;Node8</title>
<g id="a_edge8_Node000002_Node000008"><a xlink:title=" ">
<path fill="none" stroke="#63b8ff" d="M222.58,-116.66C238.73,-96.25 269.91,-60.27 304,-39 306.64,-37.35 309.41,-35.8 312.25,-34.35"/>
<polygon fill="#63b8ff" stroke="#63b8ff" points="313.97,-37.41 321.55,-30.01 311.01,-31.06 313.97,-37.41"/>
</a>
</g>
</g>
</g>
</svg>
