<?xml version="1.0" encoding="UTF-8" standalone="no"?>
<!DOCTYPE svg PUBLIC "-//W3C//DTD SVG 1.1//EN"
 "http://www.w3.org/Graphics/SVG/1.1/DTD/svg11.dtd">
<!-- Generated by graphviz version 2.43.0 (0)
 -->
<!-- Title: ttg_parsec::TT::invoke Pages: 1 -->
<svg width="283pt" height="100pt"
 viewBox="0.00 0.00 283.00 100.00" xmlns="http://www.w3.org/2000/svg" xmlns:xlink="http://www.w3.org/1999/xlink">
<g id="graph0" class="graph" transform="scale(1 1) rotate(0) translate(4 96)">
<title>ttg_parsec::TT::invoke</title>
<!-- Node1 -->
<g id="Node000001" class="node">
<title>Node1</title>
<g id="a_Node000001"><a xlink:title=" ">
<polygon fill="#999999" stroke="#666666" points="128,-46 0,-46 0,-27 128,-27 128,-46"/>
<text text-anchor="middle" x="64" y="-34" font-family="Times,serif" font-size="10.00">ttg_parsec::TT::invoke</text>
</a>
</g>
</g>
<!-- Node2 -->
<g id="Node000002" class="node">
<title>Node2</title>
<g id="a_Node000002"><a xlink:href="classttg__parsec_1_1_t_t.html#aab59a1bf0fcc4f771457b5f05cb42741" target="_top" xlink:title=" ">
<polygon fill="white" stroke="#666666" points="275,-74 164,-74 164,-55 275,-55 275,-74"/>
<text text-anchor="middle" x="219.5" y="-62" font-family="Times,serif" font-size="10.00">ttg_parsec::TT::get</text>
</a>
</g>
</g>
<!-- Node1&#45;&gt;Node2 -->
<g id="edge1_Node000001_Node000002" class="edge">
<title>Node1&#45;&gt;Node2</title>
<g id="a_edge1_Node000001_Node000002"><a xlink:title=" ">
<path fill="none" stroke="#63b8ff" d="M117.4,-46.06C129.87,-48.33 143.3,-50.78 156.17,-53.13"/>
<polygon fill="#63b8ff" stroke="#63b8ff" points="155.87,-56.63 166.34,-54.99 157.13,-49.75 155.87,-56.63"/>
</a>
</g>
</g>
<!-- Node3 -->
<g id="Node000003" class="node">
<title>Node3</title>
<g id="a_Node000003"><a xlink:href="namespacettg_1_1meta.html#affd90f350d054c6a5b4859644d834172" target="_top" xlink:title=" ">
<polygon fill="white" stroke="#666666" points="262,-19 177,-19 177,0 262,0 262,-19"/>
<text text-anchor="middle" x="219.5" y="-7" font-family="Times,serif" font-size="10.00">ttg::meta::get</text>
</a>
</g>
</g>
<!-- Node1&#45;&gt;Node3 -->
<g id="edge3_Node000001_Node000003" class="edge">
<title>Node1&#45;&gt;Node3</title>
<g id="a_edge3_Node000001_Node000003"><a xlink:title=" ">
<path fill="none" stroke="#63b8ff" d="M119.12,-26.98C134.7,-24.24 151.64,-21.26 167.05,-18.55"/>
<polygon fill="#63b8ff" stroke="#63b8ff" points="167.68,-21.99 176.93,-16.81 166.47,-15.1 167.68,-21.99"/>
</a>
</g>
</g>
<!-- Node2&#45;&gt;Node2 -->
<g id="edge2_Node000002_Node000002" class="edge">
<title>Node2&#45;&gt;Node2</title>
<g id="a_edge2_Node000002_Node000002"><a xlink:title=" ">
<path fill="none" stroke="#63b8ff" d="M195.76,-74.08C184.22,-82.73 192.13,-92 219.5,-92 237.46,-92 247.04,-88.01 248.25,-82.82"/>
<polygon fill="#63b8ff" stroke="#63b8ff" points="251.25,-81.02 243.24,-74.08 245.17,-84.5 251.25,-81.02"/>
</a>
</g>
</g>
<!-- Node3&#45;&gt;Node3 -->
<g id="edge4_Node000003_Node000003" class="edge">
<title>Node3&#45;&gt;Node3</title>
<g id="a_edge4_Node000003_Node000003"><a xlink:title=" ">
<path fill="none" stroke="#63b8ff" d="M195.76,-19.08C184.22,-27.73 192.13,-37 219.5,-37 237.46,-37 247.04,-33.01 248.25,-27.82"/>
<polygon fill="#63b8ff" stroke="#63b8ff" points="251.25,-26.02 243.24,-19.08 245.17,-29.5 251.25,-26.02"/>
</a>
</g>
</g>
</g>
</svg>
