<?xml version="1.0" encoding="UTF-8" standalone="no"?>
<!DOCTYPE svg PUBLIC "-//W3C//DTD SVG 1.1//EN"
 "http://www.w3.org/Graphics/SVG/1.1/DTD/svg11.dtd">
<!-- Generated by graphviz version 2.43.0 (0)
 -->
<!-- Title: ttg::TTBase::register_terminal Pages: 1 -->
<svg width="263pt" height="51pt"
 viewBox="0.00 0.00 263.00 50.50" xmlns="http://www.w3.org/2000/svg" xmlns:xlink="http://www.w3.org/1999/xlink">
<g id="graph0" class="graph" transform="scale(1 1) rotate(0) translate(4 46.5)">
<title>ttg::TTBase::register_terminal</title>
<!-- Node1 -->
<g id="Node000001" class="node">
<title>Node1</title>
<g id="a_Node000001"><a xlink:title=" ">
<polygon fill="#999999" stroke="#666666" points="121,-30 0,-30 0,0 121,0 121,-30"/>
<text text-anchor="start" x="8" y="-18" font-family="Times,serif" font-size="10.00">ttg::TTBase::register</text>
<text text-anchor="middle" x="60.5" y="-7" font-family="Times,serif" font-size="10.00">_terminal</text>
</a>
</g>
</g>
<!-- Node2 -->
<g id="Node000002" class="node">
<title>Node2</title>
<g id="a_Node000002"><a xlink:href="classttg_1_1_t_t_base.html#a75f76765d30d0f996bc1aad23ea65b68" target="_top" xlink:title="Returns a pointer to the i&#39;th output terminal ... to make API consistent with TT.">
<polygon fill="white" stroke="#666666" points="255,-24.5 157,-24.5 157,-5.5 255,-5.5 255,-24.5"/>
<text text-anchor="middle" x="206" y="-12.5" font-family="Times,serif" font-size="10.00">ttg::TTBase::out</text>
</a>
</g>
</g>
<!-- Node1&#45;&gt;Node2 -->
<g id="edge1_Node000001_Node000002" class="edge">
<title>Node1&#45;&gt;Node2</title>
<g id="a_edge1_Node000001_Node000002"><a xlink:title=" ">
<path fill="none" stroke="#63b8ff" d="M121.11,-15C129.54,-15 138.2,-15 146.61,-15"/>
<polygon fill="#63b8ff" stroke="#63b8ff" points="146.71,-18.5 156.71,-15 146.71,-11.5 146.71,-18.5"/>
</a>
</g>
</g>
<!-- Node2&#45;&gt;Node2 -->
<g id="edge2_Node000002_Node000002" class="edge">
<title>Node2&#45;&gt;Node2</title>
<g id="a_edge2_Node000002_Node000002"><a xlink:title=" ">
<path fill="none" stroke="#63b8ff" d="M183.81,-24.58C173.01,-33.23 180.41,-42.5 206,-42.5 222.4,-42.5 231.32,-38.7 232.79,-33.69"/>
<polygon fill="#63b8ff" stroke="#63b8ff" points="235.82,-31.94 228.19,-24.58 229.57,-35.09 235.82,-31.94"/>
</a>
</g>
</g>
</g>
</svg>
