<?xml version="1.0" encoding="UTF-8" standalone="no"?>
<!DOCTYPE svg PUBLIC "-//W3C//DTD SVG 1.1//EN"
 "http://www.w3.org/Graphics/SVG/1.1/DTD/svg11.dtd">
<!-- Generated by graphviz version 2.43.0 (0)
 -->
<!-- Title: ttg::Debugger::traceback Pages: 1 -->
<svg width="520pt" height="76pt"
 viewBox="0.00 0.00 520.00 75.50" xmlns="http://www.w3.org/2000/svg" xmlns:xlink="http://www.w3.org/1999/xlink">
<g id="graph0" class="graph" transform="scale(1 1) rotate(0) translate(4 71.5)">
<title>ttg::Debugger::traceback</title>
<!-- Node1 -->
<g id="Node000001" class="node">
<title>Node1</title>
<g id="a_Node000001"><a xlink:title=" ">
<polygon fill="#999999" stroke="#666666" points="144,-40 0,-40 0,-21 144,-21 144,-40"/>
<text text-anchor="middle" x="72" y="-28" font-family="Times,serif" font-size="10.00">ttg::Debugger::traceback</text>
</a>
</g>
</g>
<!-- Node2 -->
<g id="Node000002" class="node">
<title>Node2</title>
<g id="a_Node000002"><a xlink:href="classttg_1_1_debugger.html#a3bded73e46b0fb03ec108818b1ef4b88" target="_top" xlink:title=" ">
<polygon fill="white" stroke="#666666" points="335,-40 180,-40 180,-21 335,-21 335,-40"/>
<text text-anchor="middle" x="257.5" y="-28" font-family="Times,serif" font-size="10.00">ttg::Debugger::__traceback</text>
</a>
</g>
</g>
<!-- Node1&#45;&gt;Node2 -->
<g id="edge1_Node000001_Node000002" class="edge">
<title>Node1&#45;&gt;Node2</title>
<g id="a_edge1_Node000001_Node000002"><a xlink:title=" ">
<path fill="none" stroke="#63b8ff" d="M144.21,-30.5C152.61,-30.5 161.25,-30.5 169.83,-30.5"/>
<polygon fill="#63b8ff" stroke="#63b8ff" points="169.86,-34 179.86,-30.5 169.86,-27 169.86,-34"/>
</a>
</g>
</g>
<!-- Node3 -->
<g id="Node000003" class="node">
<title>Node3</title>
<g id="a_Node000003"><a xlink:href="classttg_1_1detail_1_1_backtrace.html#aaab9437247fb8d0f7ecd701cb6c95ecd" target="_top" xlink:title=" ">
<polygon fill="white" stroke="#666666" points="502.5,-67.5 380.5,-67.5 380.5,-37.5 502.5,-37.5 502.5,-67.5"/>
<text text-anchor="start" x="388.5" y="-55.5" font-family="Times,serif" font-size="10.00">ttg::detail::Backtrace</text>
<text text-anchor="middle" x="441.5" y="-44.5" font-family="Times,serif" font-size="10.00">::empty</text>
</a>
</g>
</g>
<!-- Node2&#45;&gt;Node3 -->
<g id="edge2_Node000002_Node000003" class="edge">
<title>Node2&#45;&gt;Node3</title>
<g id="a_edge2_Node000002_Node000003"><a xlink:title=" ">
<path fill="none" stroke="#63b8ff" d="M335.16,-39.77C346.8,-41.17 358.77,-42.62 370.27,-44.01"/>
<polygon fill="#63b8ff" stroke="#63b8ff" points="369.89,-47.49 380.24,-45.22 370.73,-40.54 369.89,-47.49"/>
</a>
</g>
</g>
<!-- Node4 -->
<g id="Node000004" class="node">
<title>Node4</title>
<g id="a_Node000004"><a xlink:href="classttg_1_1detail_1_1_backtrace.html#adb582a944775b8221ac0502217f80e5f" target="_top" xlink:title=" ">
<polygon fill="white" stroke="#666666" points="512,-19 371,-19 371,0 512,0 512,-19"/>
<text text-anchor="middle" x="441.5" y="-7" font-family="Times,serif" font-size="10.00">ttg::detail::Backtrace::str</text>
</a>
</g>
</g>
<!-- Node2&#45;&gt;Node4 -->
<g id="edge3_Node000002_Node000004" class="edge">
<title>Node2&#45;&gt;Node4</title>
<g id="a_edge3_Node000002_Node000004"><a xlink:title=" ">
<path fill="none" stroke="#63b8ff" d="M335.16,-21.65C343.68,-20.67 352.37,-19.67 360.92,-18.68"/>
<polygon fill="#63b8ff" stroke="#63b8ff" points="361.35,-22.16 370.88,-17.53 360.54,-15.2 361.35,-22.16"/>
</a>
</g>
</g>
</g>
</svg>
