<?xml version="1.0" encoding="UTF-8" standalone="no"?>
<!DOCTYPE svg PUBLIC "-//W3C//DTD SVG 1.1//EN"
 "http://www.w3.org/Graphics/SVG/1.1/DTD/svg11.dtd">
<!-- Generated by graphviz version 2.43.0 (0)
 -->
<!-- Title: ttg::Debugger::set_default_debugger Pages: 1 -->
<svg width="417pt" height="82pt"
 viewBox="0.00 0.00 417.00 82.00" xmlns="http://www.w3.org/2000/svg" xmlns:xlink="http://www.w3.org/1999/xlink">
<g id="graph0" class="graph" transform="scale(1 1) rotate(0) translate(4 78)">
<title>ttg::Debugger::set_default_debugger</title>
<!-- Node1 -->
<g id="Node000001" class="node">
<title>Node1</title>
<g id="a_Node000001"><a xlink:title="Set the global default debugger. The initial value is null.">
<polygon fill="#999999" stroke="#666666" points="409,-60.5 296,-60.5 296,-30.5 409,-30.5 409,-60.5"/>
<text text-anchor="start" x="304" y="-48.5" font-family="Times,serif" font-size="10.00">ttg::Debugger::set</text>
<text text-anchor="middle" x="352.5" y="-37.5" font-family="Times,serif" font-size="10.00">_default_debugger</text>
</a>
</g>
</g>
<!-- Node2 -->
<g id="Node000002" class="node">
<title>Node2</title>
<g id="a_Node000002"><a xlink:href="namespacettg.html#a557cbca5e1f34dcc87a43afd0d03c6e4" target="_top" xlink:title="Initializes the TTG runtime with the default backend.">
<polygon fill="white" stroke="#666666" points="236.5,-74 156.5,-74 156.5,-55 236.5,-55 236.5,-74"/>
<text text-anchor="middle" x="196.5" y="-62" font-family="Times,serif" font-size="10.00">ttg::initialize</text>
</a>
</g>
</g>
<!-- Node1&#45;&gt;Node2 -->
<g id="edge1_Node000001_Node000002" class="edge">
<title>Node1&#45;&gt;Node2</title>
<g id="a_edge1_Node000001_Node000002"><a xlink:title=" ">
<path fill="none" stroke="#63b8ff" d="M285.62,-53.63C268.92,-55.69 251.51,-57.84 236.61,-59.67"/>
<polygon fill="#63b8ff" stroke="#63b8ff" points="286.41,-57.06 295.9,-52.36 285.55,-50.11 286.41,-57.06"/>
</a>
</g>
</g>
<!-- Node3 -->
<g id="Node000003" class="node">
<title>Node3</title>
<g id="a_Node000003"><a xlink:href="namespacettg.html#a908edd0939096bd053fcbe6a5fee9609" target="_top" xlink:title=" ">
<polygon fill="white" stroke="#666666" points="260,-37 133,-37 133,-18 260,-18 260,-37"/>
<text text-anchor="middle" x="196.5" y="-25" font-family="Times,serif" font-size="10.00">ttg::launch_debugger</text>
</a>
</g>
</g>
<!-- Node1&#45;&gt;Node3 -->
<g id="edge2_Node000001_Node000003" class="edge">
<title>Node1&#45;&gt;Node3</title>
<g id="a_edge2_Node000001_Node000003"><a xlink:title=" ">
<path fill="none" stroke="#63b8ff" d="M285.95,-37.84C277.37,-36.84 268.6,-35.81 260.07,-34.81"/>
<polygon fill="#63b8ff" stroke="#63b8ff" points="285.56,-41.32 295.9,-39 286.38,-34.36 285.56,-41.32"/>
</a>
</g>
</g>
<!-- Node4 -->
<g id="Node000004" class="node">
<title>Node4</title>
<g id="a_Node000004"><a xlink:href="namespacettg.html#aed99f96dd2d42761584592b7adcf0908" target="_top" xlink:title=" ">
<polygon fill="white" stroke="#666666" points="97,-56 0,-56 0,-37 97,-37 97,-56"/>
<text text-anchor="middle" x="48.5" y="-44" font-family="Times,serif" font-size="10.00">ttg::launch_gdb</text>
</a>
</g>
</g>
<!-- Node3&#45;&gt;Node4 -->
<g id="edge3_Node000003_Node000004" class="edge">
<title>Node3&#45;&gt;Node4</title>
<g id="a_edge3_Node000003_Node000004"><a xlink:title=" ">
<path fill="none" stroke="#63b8ff" d="M122.63,-36.98C114,-38.11 105.37,-39.23 97.22,-40.29"/>
<polygon fill="#63b8ff" stroke="#63b8ff" points="123.27,-40.43 132.74,-35.67 122.37,-33.49 123.27,-40.43"/>
</a>
</g>
</g>
<!-- Node5 -->
<g id="Node000005" class="node">
<title>Node5</title>
<g id="a_Node000005"><a xlink:href="namespacettg.html#a852bfa03ac9a163a87014e93c59165f0" target="_top" xlink:title=" ">
<polygon fill="white" stroke="#666666" points="96.5,-19 0.5,-19 0.5,0 96.5,0 96.5,-19"/>
<text text-anchor="middle" x="48.5" y="-7" font-family="Times,serif" font-size="10.00">ttg::launch_lldb</text>
</a>
</g>
</g>
<!-- Node3&#45;&gt;Node5 -->
<g id="edge4_Node000003_Node000005" class="edge">
<title>Node3&#45;&gt;Node5</title>
<g id="a_edge4_Node000003_Node000005"><a xlink:title=" ">
<path fill="none" stroke="#63b8ff" d="M122.79,-18.54C113.95,-17.45 105.11,-16.36 96.78,-15.33"/>
<polygon fill="#63b8ff" stroke="#63b8ff" points="122.38,-22.01 132.74,-19.76 123.24,-15.06 122.38,-22.01"/>
</a>
</g>
</g>
</g>
</svg>
