<?xml version="1.0" encoding="UTF-8" standalone="no"?>
<!DOCTYPE svg PUBLIC "-//W3C//DTD SVG 1.1//EN"
 "http://www.w3.org/Graphics/SVG/1.1/DTD/svg11.dtd">
<!-- Generated by graphviz version 2.43.0 (0)
 -->
<!-- Title: ttg_parsec::TT::~TT Pages: 1 -->
<!--zoomable 203 -->

<svg id="main" version="1.1" xmlns="http://www.w3.org/2000/svg" xmlns:xlink="http://www.w3.org/1999/xlink" xml:space="preserve" onload="init(evt)">
<style type="text/css"><![CDATA[
.node, .edge {opacity: 0.7;}
.node.selected, .edge.selected {opacity: 1;}
.edge:hover path { stroke: red; }
.edge:hover polygon { stroke: red; fill: red; }
]]></style>

<defs>
  <circle id="rim" cx="0" cy="0" r="7"/>
  <circle id="rim2" cx="0" cy="0" r="3.5"/>
  <g id="zoomPlus">
    <use xlink:href="#rim" fill="#404040"><set attributeName="fill" to="#808080" begin="zoomplus.mouseover" end="zoomplus.mouseout"/></use>
    <path d="M-4,0h8M0,-4v8" fill="none" stroke="white" stroke-width="1.5" pointer-events="none"/>
  </g>
  <g id="zoomMin">
    <use xlink:href="#rim" fill="#404040"><set attributeName="fill" to="#808080" begin="zoomminus.mouseover" end="zoomminus.mouseout"/></use>
    <path d="M-4,0h8" fill="none" stroke="white" stroke-width="1.5" pointer-events="none"/>
  </g>
  <g id="arrowUp" transform="translate(30 24)">
    <use xlink:href="#rim"/>
    <path pointer-events="none" fill="none" stroke="white" stroke-width="1.5" d="M0,-3.0v7 M-2.5,-0.5L0,-3.0L2.5,-0.5"/>
  </g>
  <g id="arrowRight" transform="rotate(90) translate(36 -43)">
    <use xlink:href="#rim"/>
    <path pointer-events="none" fill="none" stroke="white" stroke-width="1.5" d="M0,-3.0v7 M-2.5,-0.5L0,-3.0L2.5,-0.5"/>
  </g>
  <g id="arrowDown" transform="rotate(180) translate(-30 -48)">
    <use xlink:href="#rim"/>
    <path pointer-events="none" fill="none" stroke="white" stroke-width="1.5" d="M0,-3.0v7 M-2.5,-0.5L0,-3.0L2.5,-0.5"/>
  </g>
  <g id="arrowLeft" transform="rotate(270) translate(-36 17)">
    <use xlink:href="#rim"/>
    <path pointer-events="none" fill="none" stroke="white" stroke-width="1.5" d="M0,-3.0v7 M-2.5,-0.5L0,-3.0L2.5,-0.5"/>
  </g>
  <g id="resetDef">
    <use xlink:href="#rim2" fill="#404040"><set attributeName="fill" to="#808080" begin="reset.mouseover" end="reset.mouseout"/></use>
  </g>
</defs>
<script type="application/ecmascript">
var viewWidth = 909;
var viewHeight = 203;
var sectionId = 'dynsection-4';
</script>
<script type="application/ecmascript" xlink:href="svg.min.js"/>
<svg id="graph" class="graph">
<g id="viewport">
<title>ttg_parsec::TT::~TT</title>
<!-- Node1 -->
<g id="Node000001" class="node">
<title>Node1</title>
<g id="a_Node000001"><a xlink:title=" ">
<polygon fill="#999999" stroke="#666666" points="116,-183 0,-183 0,-164 116,-164 116,-183"/>
<text text-anchor="middle" x="58" y="-171" font-family="Times,serif" font-size="10.00">ttg_parsec::TT::~TT</text>
</a>
</g>
</g>
<!-- Node2 -->
<g id="Node000002" class="node">
<title>Node2</title>
<g id="a_Node000002"><a xlink:href="classttg__parsec_1_1_t_t.html#aab59a1bf0fcc4f771457b5f05cb42741" target="_top" xlink:title=" ">
<polygon fill="white" stroke="#666666" points="891,-138 780,-138 780,-119 891,-119 891,-138"/>
<text text-anchor="middle" x="835.5" y="-126" font-family="Times,serif" font-size="10.00">ttg_parsec::TT::get</text>
</a>
</g>
</g>
<!-- Node1&#45;&gt;Node2 -->
<g id="edge1_Node000001_Node000002" class="edge">
<title>Node1&#45;&gt;Node2</title>
<g id="a_edge1_Node000001_Node000002"><a xlink:title=" ">
<path fill="none" stroke="#63b8ff" d="M116.23,-179.66C178.84,-185.86 282.19,-194.5 371.5,-194.5 371.5,-194.5 371.5,-194.5 525.5,-194.5 626.15,-194.5 741.26,-160.6 798.39,-141.39"/>
<polygon fill="#63b8ff" stroke="#63b8ff" points="799.71,-144.64 808.04,-138.1 797.45,-138.01 799.71,-144.64"/>
</a>
</g>
</g>
<!-- Node3 -->
<g id="Node000003" class="node">
<title>Node3</title>
<g id="a_Node000003"><a xlink:href="classttg__parsec_1_1_t_t.html#a64de0f4a0e71bd0dab69161ce619794d" target="_top" xlink:title=" ">
<polygon fill="white" stroke="#666666" points="283,-164 152,-164 152,-145 283,-145 283,-164"/>
<text text-anchor="middle" x="217.5" y="-152" font-family="Times,serif" font-size="10.00">ttg_parsec::TT::release</text>
</a>
</g>
</g>
<!-- Node1&#45;&gt;Node3 -->
<g id="edge3_Node000001_Node000003" class="edge">
<title>Node1&#45;&gt;Node3</title>
<g id="a_edge3_Node000001_Node000003"><a xlink:title=" ">
<path fill="none" stroke="#63b8ff" d="M116.31,-166.59C124.59,-165.59 133.21,-164.55 141.77,-163.51"/>
<polygon fill="#63b8ff" stroke="#63b8ff" points="142.26,-166.98 151.77,-162.31 141.42,-160.03 142.26,-166.98"/>
</a>
</g>
</g>
<!-- Node2&#45;&gt;Node2 -->
<g id="edge2_Node000002_Node000002" class="edge">
<title>Node2&#45;&gt;Node2</title>
<g id="a_edge2_Node000002_Node000002"><a xlink:title=" ">
<path fill="none" stroke="#63b8ff" d="M811.46,-138.08C799.76,-146.73 807.77,-156 835.5,-156 853.7,-156 863.4,-152.01 864.62,-146.82"/>
<polygon fill="#63b8ff" stroke="#63b8ff" points="867.59,-144.97 859.54,-138.08 861.54,-148.49 867.59,-144.97"/>
</a>
</g>
</g>
<!-- Node4 -->
<g id="Node000004" class="node">
<title>Node4</title>
<g id="a_Node000004"><a xlink:href="classttg__parsec_1_1_t_t.html#a7f42b8147186ddf49a3c1f2a5d49255f" target="_top" xlink:title=" ">
<polygon fill="white" stroke="#666666" points="426,-149.5 319,-149.5 319,-119.5 426,-119.5 426,-149.5"/>
<text text-anchor="start" x="327" y="-137.5" font-family="Times,serif" font-size="10.00">ttg_parsec::TT::do</text>
<text text-anchor="middle" x="372.5" y="-126.5" font-family="Times,serif" font-size="10.00">_release</text>
</a>
</g>
</g>
<!-- Node3&#45;&gt;Node4 -->
<g id="edge4_Node000003_Node000004" class="edge">
<title>Node3&#45;&gt;Node4</title>
<g id="a_edge4_Node000003_Node000004"><a xlink:title=" ">
<path fill="none" stroke="#63b8ff" d="M283.39,-146.02C291.72,-144.93 300.25,-143.81 308.56,-142.73"/>
<polygon fill="#63b8ff" stroke="#63b8ff" points="309.09,-146.19 318.55,-141.42 308.18,-139.25 309.09,-146.19"/>
</a>
</g>
</g>
<!-- Node4&#45;&gt;Node2 -->
<g id="edge5_Node000004_Node000002" class="edge">
<title>Node4&#45;&gt;Node2</title>
<g id="a_edge5_Node000004_Node000002"><a xlink:title=" ">
<path fill="none" stroke="#63b8ff" d="M426.07,-136.68C496.29,-139.19 624.58,-142.39 734,-137.5 745.51,-136.99 757.73,-136.14 769.54,-135.17"/>
<polygon fill="#63b8ff" stroke="#63b8ff" points="770.13,-138.64 779.79,-134.29 769.53,-131.66 770.13,-138.64"/>
</a>
</g>
</g>
<!-- Node5 -->
<g id="Node000005" class="node">
<title>Node5</title>
<g id="a_Node000005"><a xlink:href="classttg_1_1base_1_1_world.html#aabab7c9df8f16919ab41a864c8b1adc4" target="_top" xlink:title=" ">
<polygon fill="white" stroke="#666666" points="587,-126 462,-126 462,-107 587,-107 587,-126"/>
<text text-anchor="middle" x="524.5" y="-114" font-family="Times,serif" font-size="10.00">ttg::base::World::impl</text>
</a>
</g>
</g>
<!-- Node4&#45;&gt;Node5 -->
<g id="edge6_Node000004_Node000005" class="edge">
<title>Node4&#45;&gt;Node5</title>
<g id="a_edge6_Node000004_Node000005"><a xlink:title=" ">
<path fill="none" stroke="#63b8ff" d="M426.38,-128.15C434.63,-127.16 443.27,-126.13 451.84,-125.1"/>
<polygon fill="#63b8ff" stroke="#63b8ff" points="452.35,-128.56 461.86,-123.9 451.51,-121.61 452.35,-128.56"/>
</a>
</g>
</g>
<!-- Node7 -->
<g id="Node000007" class="node">
<title>Node7</title>
<g id="a_Node000007"><a xlink:href="classttg__parsec_1_1_t_t.html#acec939399109ea862fb2e5d011aa9706" target="_top" xlink:title=" ">
<polygon fill="white" stroke="#666666" points="584,-85.5 465,-85.5 465,-55.5 584,-55.5 584,-85.5"/>
<text text-anchor="start" x="473" y="-73.5" font-family="Times,serif" font-size="10.00">ttg_parsec::TT::print</text>
<text text-anchor="middle" x="524.5" y="-62.5" font-family="Times,serif" font-size="10.00">_incomplete_tasks</text>
</a>
</g>
</g>
<!-- Node4&#45;&gt;Node7 -->
<g id="edge8_Node000004_Node000007" class="edge">
<title>Node4&#45;&gt;Node7</title>
<g id="a_edge8_Node000004_Node000007"><a xlink:title=" ">
<path fill="none" stroke="#63b8ff" d="M408.67,-119.49C429.66,-110.54 456.51,-99.08 478.97,-89.5"/>
<polygon fill="#63b8ff" stroke="#63b8ff" points="480.47,-92.67 488.29,-85.52 477.72,-86.23 480.47,-92.67"/>
</a>
</g>
</g>
<!-- Node6 -->
<g id="Node000006" class="node">
<title>Node6</title>
<g id="a_Node000006"><a xlink:href="classttg_1_1base_1_1_world.html#af39ca1832f455a94134515f94aaa8533" target="_top" xlink:title=" ">
<polygon fill="white" stroke="#666666" points="734,-128.5 623,-128.5 623,-98.5 734,-98.5 734,-128.5"/>
<text text-anchor="start" x="631" y="-116.5" font-family="Times,serif" font-size="10.00">ttg::base::World::is</text>
<text text-anchor="middle" x="678.5" y="-105.5" font-family="Times,serif" font-size="10.00">_valid</text>
</a>
</g>
</g>
<!-- Node5&#45;&gt;Node6 -->
<g id="edge7_Node000005_Node000006" class="edge">
<title>Node5&#45;&gt;Node6</title>
<g id="a_edge7_Node000005_Node000006"><a xlink:title=" ">
<path fill="none" stroke="#63b8ff" d="M587.32,-115.28C595.62,-115.12 604.15,-114.95 612.5,-114.78"/>
<polygon fill="#63b8ff" stroke="#63b8ff" points="612.64,-118.28 622.57,-114.58 612.5,-111.28 612.64,-118.28"/>
</a>
</g>
</g>
<!-- Node7&#45;&gt;Node2 -->
<g id="edge9_Node000007_Node000002" class="edge">
<title>Node7&#45;&gt;Node2</title>
<g id="a_edge9_Node000007_Node000002"><a xlink:title=" ">
<path fill="none" stroke="#63b8ff" d="M584.17,-71.49C626.33,-73.25 684.28,-77.83 734,-89.5 758.78,-95.32 785.6,-105.96 805.3,-114.66"/>
<polygon fill="#63b8ff" stroke="#63b8ff" points="804.07,-117.95 814.63,-118.87 806.95,-111.57 804.07,-117.95"/>
</a>
</g>
</g>
<!-- Node8 -->
<g id="Node000008" class="node">
<title>Node8</title>
<g id="a_Node000008"><a xlink:href="classttg__parsec_1_1_t_t.html#a68814131fd8aa487afce9a89a5ee7f2b" target="_top" xlink:title=" ">
<polygon fill="white" stroke="#666666" points="731,-42.5 626,-42.5 626,-12.5 731,-12.5 731,-42.5"/>
<text text-anchor="start" x="634" y="-30.5" font-family="Times,serif" font-size="10.00">ttg_parsec::TT::ht</text>
<text text-anchor="middle" x="678.5" y="-19.5" font-family="Times,serif" font-size="10.00">_iter_cb</text>
</a>
</g>
</g>
<!-- Node7&#45;&gt;Node8 -->
<g id="edge10_Node000007_Node000008" class="edge">
<title>Node7&#45;&gt;Node8</title>
<g id="a_edge10_Node000007_Node000008"><a xlink:title=" ">
<path fill="none" stroke="#63b8ff" d="M578.66,-55.46C590.75,-52.04 603.7,-48.38 616.1,-44.87"/>
<polygon fill="#63b8ff" stroke="#63b8ff" points="617.23,-48.19 625.9,-42.1 615.33,-41.45 617.23,-48.19"/>
</a>
</g>
</g>
<!-- Node8&#45;&gt;Node2 -->
<g id="edge11_Node000008_Node000002" class="edge">
<title>Node8&#45;&gt;Node2</title>
<g id="a_edge11_Node000008_Node000002"><a xlink:title=" ">
<path fill="none" stroke="#63b8ff" d="M709.62,-42.58C717.66,-46.87 726.27,-51.68 734,-56.5 750.75,-66.94 753.97,-70.99 770,-82.5 784.03,-92.57 799.81,-103.82 812.25,-112.68"/>
<polygon fill="#63b8ff" stroke="#63b8ff" points="810.47,-115.71 820.64,-118.65 814.52,-110 810.47,-115.71"/>
</a>
</g>
</g>
<!-- Node9 -->
<g id="Node000009" class="node">
<title>Node9</title>
<g id="a_Node000009"><a xlink:href="namespacettg_1_1meta.html#affd90f350d054c6a5b4859644d834172" target="_top" xlink:title=" ">
<polygon fill="white" stroke="#666666" points="878,-56 793,-56 793,-37 878,-37 878,-56"/>
<text text-anchor="middle" x="835.5" y="-44" font-family="Times,serif" font-size="10.00">ttg::meta::get</text>
</a>
</g>
</g>
<!-- Node8&#45;&gt;Node9 -->
<g id="edge12_Node000008_Node000009" class="edge">
<title>Node8&#45;&gt;Node9</title>
<g id="a_edge12_Node000008_Node000009"><a xlink:title=" ">
<path fill="none" stroke="#63b8ff" d="M731.11,-33.83C747.74,-35.86 766.16,-38.12 782.8,-40.16"/>
<polygon fill="#63b8ff" stroke="#63b8ff" points="782.54,-43.66 792.89,-41.4 783.39,-36.71 782.54,-43.66"/>
</a>
</g>
</g>
<!-- Node10 -->
<g id="Node000010" class="node">
<title>Node10</title>
<g id="a_Node000010"><a xlink:href="classttg_1_1_t_t_base.html#ade3b1e6b149fe1124f7192aeca5f715c" target="_top" xlink:title="Gets the name of this operation.">
<polygon fill="white" stroke="#666666" points="901,-19 770,-19 770,0 901,0 901,-19"/>
<text text-anchor="middle" x="835.5" y="-7" font-family="Times,serif" font-size="10.00">ttg::TTBase::get_name</text>
</a>
</g>
</g>
<!-- Node8&#45;&gt;Node10 -->
<g id="edge14_Node000008_Node000010" class="edge">
<title>Node8&#45;&gt;Node10</title>
<g id="a_edge14_Node000008_Node000010"><a xlink:title=" ">
<path fill="none" stroke="#63b8ff" d="M731.11,-21.51C740.33,-20.44 750.1,-19.3 759.81,-18.17"/>
<polygon fill="#63b8ff" stroke="#63b8ff" points="760.35,-21.63 769.88,-17 759.54,-14.68 760.35,-21.63"/>
</a>
</g>
</g>
<!-- Node9&#45;&gt;Node9 -->
<g id="edge13_Node000009_Node000009" class="edge">
<title>Node9&#45;&gt;Node9</title>
<g id="a_edge13_Node000009_Node000009"><a xlink:title=" ">
<path fill="none" stroke="#63b8ff" d="M811.46,-56.08C799.76,-64.73 807.77,-74 835.5,-74 853.7,-74 863.4,-70.01 864.62,-64.82"/>
<polygon fill="#63b8ff" stroke="#63b8ff" points="867.59,-62.97 859.54,-56.08 861.54,-66.49 867.59,-62.97"/>
</a>
</g>
</g>
</g>
</svg>

<g id="navigator" transform="translate(0 0)" fill="#404254">
  <rect fill="#f2f5e9" fill-opacity="0.5" stroke="#606060" stroke-width=".5" x="0" y="0" width="60" height="60"/>
  <use id="zoomplus" xlink:href="#zoomPlus" x="17" y="9" onmousedown="handleZoom(evt,'in')"/>
  <use id="zoomminus" xlink:href="#zoomMin" x="42" y="9" onmousedown="handleZoom(evt,'out')"/>
  <use id="reset" xlink:href="#resetDef" x="30" y="36" onmousedown="handleReset()"/>
   <use id="arrowup" xlink:href="#arrowUp" x="0" y="0" onmousedown="handlePan(0,-1)"/>
  <use id="arrowright" xlink:href="#arrowRight" x="0" y="0" onmousedown="handlePan(1,0)"/>
  <use id="arrowdown" xlink:href="#arrowDown" x="0" y="0" onmousedown="handlePan(0,1)"/>
  <use id="arrowleft" xlink:href="#arrowLeft" x="0" y="0" onmousedown="handlePan(-1,0)"/>
</g>
<svg viewBox="0 0 15 15" width="100%" height="30px" preserveAspectRatio="xMaxYMin meet">
 <g id="arrow_out" transform="scale(0.3 0.3)">
  <a xlink:href="classttg__parsec_1_1_t_t_a47eb6b88e566c5bd85a92e21ab471889_cgraph_org.svg" target="_base">
   <rect id="button" ry="5" rx="5" y="6" x="6" height="38" width="38"
        fill="#f2f5e9" fill-opacity="0.5" stroke="#606060" stroke-width="1.0"/>
   <path id="arrow"
     d="M 11.500037,31.436501 C 11.940474,20.09759 22.043105,11.32322 32.158766,21.979434 L 37.068811,17.246167 C 37.068811,17.246167 37.088388,32 37.088388,32 L 22.160133,31.978069 C 22.160133,31.978069 26.997745,27.140456 26.997745,27.140456 C 18.528582,18.264221 13.291696,25.230495 11.500037,31.436501 z"
     style="fill:#404040;"/>
  </a>
 </g>
</svg>

<style type='text/css'>
<![CDATA[
[data-mouse-over-selected='false'] { opacity: 0.7; }
[data-mouse-over-selected='true']  { opacity: 1.0; }
]]>
</style>
<script type="application/ecmascript"><![CDATA[
document.addEventListener('DOMContentLoaded', (event) => {
  highlightEdges();
  highlightAdjacentNodes();
});
]]></script>
</svg>
