<?xml version="1.0" encoding="UTF-8" standalone="no"?>
<!DOCTYPE svg PUBLIC "-//W3C//DTD SVG 1.1//EN"
 "http://www.w3.org/Graphics/SVG/1.1/DTD/svg11.dtd">
<!-- Generated by graphviz version 2.43.0 (0)
 -->
<!-- Title: ttg_parsec::TT::create_new_task Pages: 1 -->
<svg width="593pt" height="243pt"
 viewBox="0.00 0.00 593.00 243.23" xmlns="http://www.w3.org/2000/svg" xmlns:xlink="http://www.w3.org/1999/xlink">
<g id="graph0" class="graph" transform="scale(1 1) rotate(0) translate(4 239.23)">
<title>ttg_parsec::TT::create_new_task</title>
<!-- Node1 -->
<g id="Node000001" class="node">
<title>Node1</title>
<g id="a_Node000001"><a xlink:title=" ">
<polygon fill="#999999" stroke="#666666" points="126,-166 0,-166 0,-136 126,-136 126,-166"/>
<text text-anchor="start" x="8" y="-154" font-family="Times,serif" font-size="10.00">ttg_parsec::TT::create</text>
<text text-anchor="middle" x="63" y="-143" font-family="Times,serif" font-size="10.00">_new_task</text>
</a>
</g>
</g>
<!-- Node2 -->
<g id="Node000002" class="node">
<title>Node2</title>
<g id="a_Node000002"><a xlink:href="classttg__parsec_1_1_t_t.html#aab59a1bf0fcc4f771457b5f05cb42741" target="_top" xlink:title=" ">
<polygon fill="white" stroke="#666666" points="440,-210.5 329,-210.5 329,-191.5 440,-191.5 440,-210.5"/>
<text text-anchor="middle" x="384.5" y="-198.5" font-family="Times,serif" font-size="10.00">ttg_parsec::TT::get</text>
</a>
</g>
</g>
<!-- Node1&#45;&gt;Node2 -->
<g id="edge1_Node000001_Node000002" class="edge">
<title>Node1&#45;&gt;Node2</title>
<g id="a_edge1_Node000001_Node000002"><a xlink:title=" ">
<path fill="none" stroke="#63b8ff" d="M77.81,-166.23C95.32,-184.29 127.43,-213.42 162,-225 225.29,-246.21 303.89,-227.92 348.41,-213.75"/>
<polygon fill="#63b8ff" stroke="#63b8ff" points="349.77,-216.98 358.17,-210.53 347.58,-210.34 349.77,-216.98"/>
</a>
</g>
</g>
<!-- Node3 -->
<g id="Node000003" class="node">
<title>Node3</title>
<g id="a_Node000003"><a xlink:href="namespacettg_1_1meta.html#affd90f350d054c6a5b4859644d834172" target="_top" xlink:title=" ">
<polygon fill="white" stroke="#666666" points="270,-197.5 185,-197.5 185,-178.5 270,-178.5 270,-197.5"/>
<text text-anchor="middle" x="227.5" y="-185.5" font-family="Times,serif" font-size="10.00">ttg::meta::get</text>
</a>
</g>
</g>
<!-- Node1&#45;&gt;Node3 -->
<g id="edge3_Node000001_Node000003" class="edge">
<title>Node1&#45;&gt;Node3</title>
<g id="a_edge3_Node000001_Node000003"><a xlink:title=" ">
<path fill="none" stroke="#63b8ff" d="M126.36,-165.2C142.37,-168.84 159.41,-172.72 174.81,-176.23"/>
<polygon fill="#63b8ff" stroke="#63b8ff" points="174.14,-179.67 184.67,-178.47 175.69,-172.84 174.14,-179.67"/>
</a>
</g>
</g>
<!-- Node4 -->
<g id="Node000004" class="node">
<title>Node4</title>
<g id="a_Node000004"><a xlink:href="classttg_1_1_t_t_base.html#ade3b1e6b149fe1124f7192aeca5f715c" target="_top" xlink:title="Gets the name of this operation.">
<polygon fill="white" stroke="#666666" points="293,-160.5 162,-160.5 162,-141.5 293,-141.5 293,-160.5"/>
<text text-anchor="middle" x="227.5" y="-148.5" font-family="Times,serif" font-size="10.00">ttg::TTBase::get_name</text>
</a>
</g>
</g>
<!-- Node1&#45;&gt;Node4 -->
<g id="edge5_Node000001_Node000004" class="edge">
<title>Node1&#45;&gt;Node4</title>
<g id="a_edge5_Node000001_Node000004"><a xlink:title=" ">
<path fill="none" stroke="#63b8ff" d="M126.36,-151C134.63,-151 143.18,-151 151.64,-151"/>
<polygon fill="#63b8ff" stroke="#63b8ff" points="151.88,-154.5 161.88,-151 151.88,-147.5 151.88,-154.5"/>
</a>
</g>
</g>
<!-- Node5 -->
<g id="Node000005" class="node">
<title>Node5</title>
<g id="a_Node000005"><a xlink:href="classttg__parsec_1_1_t_t.html#af277074081de727ff816c84638b7d038" target="_top" xlink:title=" ">
<polygon fill="white" stroke="#666666" points="283,-123 172,-123 172,-93 283,-93 283,-123"/>
<text text-anchor="start" x="180" y="-111" font-family="Times,serif" font-size="10.00">ttg_parsec::TT::get</text>
<text text-anchor="middle" x="227.5" y="-100" font-family="Times,serif" font-size="10.00">_task_mempool</text>
</a>
</g>
</g>
<!-- Node1&#45;&gt;Node5 -->
<g id="edge6_Node000001_Node000005" class="edge">
<title>Node1&#45;&gt;Node5</title>
<g id="a_edge6_Node000001_Node000005"><a xlink:title=" ">
<path fill="none" stroke="#63b8ff" d="M120.83,-135.96C134.16,-132.43 148.46,-128.65 162.1,-125.04"/>
<polygon fill="#63b8ff" stroke="#63b8ff" points="163.11,-128.39 171.88,-122.45 161.32,-121.63 163.11,-128.39"/>
</a>
</g>
</g>
<!-- Node6 -->
<g id="Node000006" class="node">
<title>Node6</title>
<g id="a_Node000006"><a xlink:href="namespacettg.html#af5e470229c1ddef41b83b6398a5dc583" target="_top" xlink:title=" ">
<polygon fill="white" stroke="#666666" points="258.5,-74.5 196.5,-74.5 196.5,-55.5 258.5,-55.5 258.5,-74.5"/>
<text text-anchor="middle" x="227.5" y="-62.5" font-family="Times,serif" font-size="10.00">ttg::trace</text>
</a>
</g>
</g>
<!-- Node1&#45;&gt;Node6 -->
<g id="edge8_Node000001_Node000006" class="edge">
<title>Node1&#45;&gt;Node6</title>
<g id="a_edge8_Node000001_Node000006"><a xlink:title=" ">
<path fill="none" stroke="#63b8ff" d="M82.44,-135.77C101.37,-120.78 132.21,-98.14 162,-84 169.65,-80.37 178.14,-77.27 186.38,-74.7"/>
<polygon fill="#63b8ff" stroke="#63b8ff" points="187.62,-77.98 196.24,-71.81 185.66,-71.26 187.62,-77.98"/>
</a>
</g>
</g>
<!-- Node2&#45;&gt;Node2 -->
<g id="edge2_Node000002_Node000002" class="edge">
<title>Node2&#45;&gt;Node2</title>
<g id="a_edge2_Node000002_Node000002"><a xlink:title=" ">
<path fill="none" stroke="#63b8ff" d="M362,-210.58C351.05,-219.23 358.55,-228.5 384.5,-228.5 401.12,-228.5 410.18,-224.7 411.66,-219.69"/>
<polygon fill="#63b8ff" stroke="#63b8ff" points="414.67,-217.89 407,-210.58 408.44,-221.08 414.67,-217.89"/>
</a>
</g>
</g>
<!-- Node3&#45;&gt;Node3 -->
<g id="edge4_Node000003_Node000003" class="edge">
<title>Node3&#45;&gt;Node3</title>
<g id="a_edge4_Node000003_Node000003"><a xlink:title=" ">
<path fill="none" stroke="#63b8ff" d="M203.46,-197.58C191.76,-206.23 199.77,-215.5 227.5,-215.5 245.7,-215.5 255.4,-211.51 256.62,-206.32"/>
<polygon fill="#63b8ff" stroke="#63b8ff" points="259.59,-204.47 251.54,-197.58 253.54,-207.99 259.59,-204.47"/>
</a>
</g>
</g>
<!-- Node5&#45;&gt;Node2 -->
<g id="edge7_Node000005_Node000002" class="edge">
<title>Node5&#45;&gt;Node2</title>
<g id="a_edge7_Node000005_Node000002"><a xlink:title=" ">
<path fill="none" stroke="#63b8ff" d="M272.27,-123.08C279.35,-126.05 286.49,-129.38 293,-133 319.72,-147.85 347.38,-169.75 364.98,-184.66"/>
<polygon fill="#63b8ff" stroke="#63b8ff" points="362.89,-187.49 372.76,-191.36 367.46,-182.18 362.89,-187.49"/>
</a>
</g>
</g>
<!-- Node7 -->
<g id="Node000007" class="node">
<title>Node7</title>
<g id="a_Node000007"><a xlink:href="namespacettg.html#aacacfe8bc9582308a405c4370650a9d4" target="_top" xlink:title="atomically prints to std::clog a sequence of items (separated by ttg::print_separator) followed by st...">
<polygon fill="white" stroke="#666666" points="411,-131.5 358,-131.5 358,-112.5 411,-112.5 411,-131.5"/>
<text text-anchor="middle" x="384.5" y="-119.5" font-family="Times,serif" font-size="10.00">ttg::log</text>
</a>
</g>
</g>
<!-- Node6&#45;&gt;Node7 -->
<g id="edge9_Node000006_Node000007" class="edge">
<title>Node6&#45;&gt;Node7</title>
<g id="a_edge9_Node000006_Node000007"><a xlink:title=" ">
<path fill="none" stroke="#63b8ff" d="M258.59,-73.11C269.51,-76.25 281.89,-80.05 293,-84 304.35,-88.04 330.75,-99.2 352.13,-108.39"/>
<polygon fill="#63b8ff" stroke="#63b8ff" points="350.96,-111.7 361.53,-112.44 353.73,-105.27 350.96,-111.7"/>
</a>
</g>
</g>
<!-- Node9 -->
<g id="Node000009" class="node">
<title>Node9</title>
<g id="a_Node000009"><a xlink:href="namespacettg.html#afbdd9c742be395e0746fdbc26c7d55cc" target="_top" xlink:title="returns whether tracing was enabled at configure time">
<polygon fill="white" stroke="#666666" points="585,-81.5 476,-81.5 476,-62.5 585,-62.5 585,-81.5"/>
<text text-anchor="middle" x="530.5" y="-69.5" font-family="Times,serif" font-size="10.00">ttg::trace_enabled</text>
</a>
</g>
</g>
<!-- Node6&#45;&gt;Node9 -->
<g id="edge11_Node000006_Node000009" class="edge">
<title>Node6&#45;&gt;Node9</title>
<g id="a_edge11_Node000006_Node000009"><a xlink:title=" ">
<path fill="none" stroke="#63b8ff" d="M258.74,-65.7C306.82,-66.82 401.78,-69.03 465.47,-70.51"/>
<polygon fill="#63b8ff" stroke="#63b8ff" points="465.72,-74.02 475.8,-70.75 465.88,-67.02 465.72,-74.02"/>
</a>
</g>
</g>
<!-- Node10 -->
<g id="Node000010" class="node">
<title>Node10</title>
<g id="a_Node000010"><a xlink:href="namespacettg.html#abfb8501d408a1ed918cc2a540865a2d8" target="_top" xlink:title="returns whether tracing is enabled">
<polygon fill="white" stroke="#666666" points="421,-55.5 348,-55.5 348,-36.5 421,-36.5 421,-55.5"/>
<text text-anchor="middle" x="384.5" y="-43.5" font-family="Times,serif" font-size="10.00">ttg::tracing</text>
</a>
</g>
</g>
<!-- Node6&#45;&gt;Node10 -->
<g id="edge12_Node000006_Node000010" class="edge">
<title>Node6&#45;&gt;Node10</title>
<g id="a_edge12_Node000006_Node000010"><a xlink:title=" ">
<path fill="none" stroke="#63b8ff" d="M258.75,-61.29C281.21,-58.54 312.22,-54.74 337.71,-51.61"/>
<polygon fill="#63b8ff" stroke="#63b8ff" points="338.39,-55.06 347.89,-50.37 337.54,-48.11 338.39,-55.06"/>
</a>
</g>
</g>
<!-- Node8 -->
<g id="Node000008" class="node">
<title>Node8</title>
<g id="a_Node000008"><a xlink:href="namespacettg_1_1detail.html#a26e07486d5ef8eb5735a8975991a7693" target="_top" xlink:title=" ">
<polygon fill="white" stroke="#666666" points="578.5,-137 482.5,-137 482.5,-107 578.5,-107 578.5,-137"/>
<text text-anchor="start" x="490.5" y="-125" font-family="Times,serif" font-size="10.00">ttg::detail::print</text>
<text text-anchor="middle" x="530.5" y="-114" font-family="Times,serif" font-size="10.00">_helper</text>
</a>
</g>
</g>
<!-- Node7&#45;&gt;Node8 -->
<g id="edge10_Node000007_Node000008" class="edge">
<title>Node7&#45;&gt;Node8</title>
<g id="a_edge10_Node000007_Node000008"><a xlink:title=" ">
<path fill="none" stroke="#63b8ff" d="M411.24,-122C428.21,-122 451.11,-122 472.24,-122"/>
<polygon fill="#63b8ff" stroke="#63b8ff" points="472.44,-125.5 482.44,-122 472.44,-118.5 472.44,-125.5"/>
</a>
</g>
</g>
<!-- Node10&#45;&gt;Node9 -->
<g id="edge15_Node000010_Node000009" class="edge">
<title>Node10&#45;&gt;Node9</title>
<g id="a_edge15_Node000010_Node000009"><a xlink:title=" ">
<path fill="none" stroke="#63b8ff" d="M421.1,-52.43C434.83,-54.91 450.96,-57.82 466.52,-60.63"/>
<polygon fill="#63b8ff" stroke="#63b8ff" points="466.17,-64.12 476.63,-62.45 467.41,-57.23 466.17,-64.12"/>
</a>
</g>
</g>
<!-- Node11 -->
<g id="Node000011" class="node">
<title>Node11</title>
<g id="a_Node000011"><a xlink:href="namespacettg_1_1detail.html#a95356c3874e7ec9268a40feb4fc1519f" target="_top" xlink:title=" ">
<polygon fill="white" stroke="#666666" points="579,-30 482,-30 482,0 579,0 579,-30"/>
<text text-anchor="start" x="490" y="-18" font-family="Times,serif" font-size="10.00">ttg::detail::trace</text>
<text text-anchor="middle" x="530.5" y="-7" font-family="Times,serif" font-size="10.00">_accessor</text>
</a>
</g>
</g>
<!-- Node10&#45;&gt;Node11 -->
<g id="edge13_Node000010_Node000011" class="edge">
<title>Node10&#45;&gt;Node11</title>
<g id="a_edge13_Node000010_Node000011"><a xlink:title=" ">
<path fill="none" stroke="#63b8ff" d="M421.1,-38.34C436.41,-35.04 454.71,-31.1 471.88,-27.41"/>
<polygon fill="#63b8ff" stroke="#63b8ff" points="472.78,-30.79 481.82,-25.26 471.31,-23.95 472.78,-30.79"/>
</a>
</g>
</g>
<!-- Node11&#45;&gt;Node6 -->
<g id="edge14_Node000011_Node000006" class="edge">
<title>Node11&#45;&gt;Node6</title>
<g id="a_edge14_Node000011_Node000006"><a xlink:title=" ">
<path fill="none" stroke="#63b8ff" d="M481.97,-13.84C441,-13.79 380.49,-15.99 329,-27 304.19,-32.3 277.37,-42.7 257.68,-51.28"/>
<polygon fill="#63b8ff" stroke="#63b8ff" points="256.07,-48.17 248.36,-55.44 258.92,-54.56 256.07,-48.17"/>
</a>
</g>
</g>
</g>
</svg>
