<?xml version="1.0" encoding="UTF-8" standalone="no"?>
<!DOCTYPE svg PUBLIC "-//W3C//DTD SVG 1.1//EN"
 "http://www.w3.org/Graphics/SVG/1.1/DTD/svg11.dtd">
<!-- Generated by graphviz version 2.43.0 (0)
 -->
<!-- Title: ttg::TTBase::get_name Pages: 1 -->
<svg width="1293pt" height="1198pt"
 viewBox="0.00 0.00 1293.00 1197.50" xmlns="http://www.w3.org/2000/svg" xmlns:xlink="http://www.w3.org/1999/xlink">
<g id="graph0" class="graph" transform="scale(1 1) rotate(0) translate(4 1193.5)">
<title>ttg::TTBase::get_name</title>
<!-- Node1 -->
<g id="Node000001" class="node">
<title>Node1</title>
<g id="a_Node000001"><a xlink:title="Gets the name of this operation.">
<polygon fill="#999999" stroke="#666666" points="1285,-615 1154,-615 1154,-596 1285,-596 1285,-615"/>
<text text-anchor="middle" x="1219.5" y="-603" font-family="Times,serif" font-size="10.00">ttg::TTBase::get_name</text>
</a>
</g>
</g>
<!-- Node2 -->
<g id="Node000002" class="node">
<title>Node2</title>
<g id="a_Node000002"><a xlink:href="classttg__parsec_1_1_t_t.html#a82f6409bdfbc9ef0f83988045c7be20e" target="_top" xlink:title=" ">
<polygon fill="white" stroke="#666666" points="1102,-1179.5 976,-1179.5 976,-1149.5 1102,-1149.5 1102,-1179.5"/>
<text text-anchor="start" x="984" y="-1167.5" font-family="Times,serif" font-size="10.00">ttg_parsec::TT::create</text>
<text text-anchor="middle" x="1039" y="-1156.5" font-family="Times,serif" font-size="10.00">_new_reducer_task</text>
</a>
</g>
</g>
<!-- Node1&#45;&gt;Node2 -->
<g id="edge1_Node000001_Node000002" class="edge">
<title>Node1&#45;&gt;Node2</title>
<g id="a_edge1_Node000001_Node000002"><a xlink:title=" ">
<path fill="none" stroke="#63b8ff" d="M1217.45,-625.41C1212.46,-712.82 1188.34,-1061.74 1118,-1140.5 1113.56,-1145.47 1108.13,-1149.42 1102.21,-1152.56"/>
<polygon fill="#63b8ff" stroke="#63b8ff" points="1220.95,-625.44 1218.01,-615.26 1213.97,-625.06 1220.95,-625.44"/>
</a>
</g>
</g>
<!-- Node3 -->
<g id="Node000003" class="node">
<title>Node3</title>
<g id="a_Node000003"><a xlink:href="classttg__parsec_1_1_t_t.html#aa119b2a05f23cc3827bb1914b64c33f1" target="_top" xlink:title=" ">
<polygon fill="white" stroke="#666666" points="1102,-1131.5 976,-1131.5 976,-1101.5 1102,-1101.5 1102,-1131.5"/>
<text text-anchor="start" x="984" y="-1119.5" font-family="Times,serif" font-size="10.00">ttg_parsec::TT::create</text>
<text text-anchor="middle" x="1039" y="-1108.5" font-family="Times,serif" font-size="10.00">_new_task</text>
</a>
</g>
</g>
<!-- Node1&#45;&gt;Node3 -->
<g id="edge2_Node000001_Node000003" class="edge">
<title>Node1&#45;&gt;Node3</title>
<g id="a_edge2_Node000001_Node000003"><a xlink:title=" ">
<path fill="none" stroke="#63b8ff" d="M1216.89,-625.38C1209.9,-707.03 1179.75,-1015.69 1118,-1087.5 1113.1,-1093.2 1106.98,-1097.78 1100.32,-1101.46"/>
<polygon fill="#63b8ff" stroke="#63b8ff" points="1220.41,-625.29 1217.75,-615.03 1213.43,-624.71 1220.41,-625.29"/>
</a>
</g>
</g>
<!-- Node5 -->
<g id="Node000005" class="node">
<title>Node5</title>
<g id="a_Node000005"><a xlink:href="classttg__parsec_1_1_t_t.html#adc3a5e538d9a4c192168317cb0db9814" target="_top" xlink:title=" ">
<polygon fill="white" stroke="#666666" points="420.5,-993.5 310.5,-993.5 310.5,-963.5 420.5,-963.5 420.5,-993.5"/>
<text text-anchor="start" x="318.5" y="-981.5" font-family="Times,serif" font-size="10.00">ttg_parsec::TT::set</text>
<text text-anchor="middle" x="365.5" y="-970.5" font-family="Times,serif" font-size="10.00">_arg_local_impl</text>
</a>
</g>
</g>
<!-- Node1&#45;&gt;Node5 -->
<g id="edge34_Node000001_Node000005" class="edge">
<title>Node1&#45;&gt;Node5</title>
<g id="a_edge34_Node000001_Node000005"><a xlink:title=" ">
<path fill="none" stroke="#63b8ff" d="M1216.17,-625.22C1207.44,-695.52 1174.25,-932.13 1118,-978.5 1072.19,-1016.26 910.87,-997.5 851.5,-997.5 851.5,-997.5 851.5,-997.5 686.5,-997.5 592.86,-997.5 484.08,-989.29 420.51,-983.67"/>
<polygon fill="#63b8ff" stroke="#63b8ff" points="1219.67,-625.44 1217.4,-615.09 1212.72,-624.59 1219.67,-625.44"/>
</a>
</g>
</g>
<!-- Node6 -->
<g id="Node000006" class="node">
<title>Node6</title>
<g id="a_Node000006"><a xlink:href="classttg__parsec_1_1_t_t.html#af31b0b9c87c00dc31edfe4e6fa040442" target="_top" xlink:title=" ">
<polygon fill="white" stroke="#666666" points="905.5,-1103.5 795.5,-1103.5 795.5,-1073.5 905.5,-1073.5 905.5,-1103.5"/>
<text text-anchor="start" x="803.5" y="-1091.5" font-family="Times,serif" font-size="10.00">ttg_parsec::TT::set</text>
<text text-anchor="middle" x="850.5" y="-1080.5" font-family="Times,serif" font-size="10.00">_argstream_size</text>
</a>
</g>
</g>
<!-- Node1&#45;&gt;Node6 -->
<g id="edge36_Node000001_Node000006" class="edge">
<title>Node1&#45;&gt;Node6</title>
<g id="a_edge36_Node000001_Node000006"><a xlink:title=" ">
<path fill="none" stroke="#63b8ff" d="M1216.87,-625.55C1210.09,-703.97 1181.4,-988.45 1118,-1047.5 1088.03,-1075.42 974.5,-1084.33 905.66,-1087.17"/>
<polygon fill="#63b8ff" stroke="#63b8ff" points="1220.4,-625.42 1217.75,-615.16 1213.42,-624.84 1220.4,-625.42"/>
</a>
</g>
</g>
<!-- Node7 -->
<g id="Node000007" class="node">
<title>Node7</title>
<g id="a_Node000007"><a xlink:href="classttg__parsec_1_1_t_t.html#a5fba67769a0b313eb4548d311e0e632d" target="_top" xlink:title=" ">
<polygon fill="white" stroke="#666666" points="905.5,-1055.5 795.5,-1055.5 795.5,-1025.5 905.5,-1025.5 905.5,-1055.5"/>
<text text-anchor="start" x="803.5" y="-1043.5" font-family="Times,serif" font-size="10.00">ttg_parsec::TT::set</text>
<text text-anchor="middle" x="850.5" y="-1032.5" font-family="Times,serif" font-size="10.00">_argstream_size</text>
</a>
</g>
</g>
<!-- Node1&#45;&gt;Node7 -->
<g id="edge38_Node000001_Node000007" class="edge">
<title>Node1&#45;&gt;Node7</title>
<g id="a_edge38_Node000001_Node000007"><a xlink:title=" ">
<path fill="none" stroke="#63b8ff" d="M1216.54,-625.42C1208.8,-699.74 1177.81,-959.22 1118,-1011.5 1059.83,-1062.34 965.04,-1059.44 905.59,-1051.12"/>
<polygon fill="#63b8ff" stroke="#63b8ff" points="1220.05,-625.45 1217.58,-615.14 1213.09,-624.74 1220.05,-625.45"/>
</a>
</g>
</g>
<!-- Node8 -->
<g id="Node000008" class="node">
<title>Node8</title>
<g id="a_Node000008"><a xlink:href="classttg__madness_1_1_t_t.html#a8f53db95a62dfdbe427f57163a2751b4" target="_top" xlink:title="finalizes stream for input i">
<polygon fill="white" stroke="#666666" points="1110.5,-969.5 967.5,-969.5 967.5,-939.5 1110.5,-939.5 1110.5,-969.5"/>
<text text-anchor="start" x="975.5" y="-957.5" font-family="Times,serif" font-size="10.00">ttg_madness::TT::finalize</text>
<text text-anchor="middle" x="1039" y="-946.5" font-family="Times,serif" font-size="10.00">_argstream</text>
</a>
</g>
</g>
<!-- Node1&#45;&gt;Node8 -->
<g id="edge7_Node000001_Node000008" class="edge">
<title>Node1&#45;&gt;Node8</title>
<g id="a_edge7_Node000001_Node000008"><a xlink:title=" ">
<path fill="none" stroke="#63b8ff" d="M1218.42,-625.42C1217.07,-681.66 1205.4,-843.23 1118,-930.5 1114.59,-933.9 1110.71,-936.83 1106.55,-939.34"/>
<polygon fill="#63b8ff" stroke="#63b8ff" points="1221.92,-625.13 1218.57,-615.08 1214.92,-625.03 1221.92,-625.13"/>
</a>
</g>
</g>
<!-- Node9 -->
<g id="Node000009" class="node">
<title>Node9</title>
<g id="a_Node000009"><a xlink:href="classttg__parsec_1_1_t_t.html#a22e5aac5bf2827bfcfb01d6ea47f382a" target="_top" xlink:title="finalizes stream for input i">
<polygon fill="white" stroke="#666666" points="916,-812.5 785,-812.5 785,-782.5 916,-782.5 916,-812.5"/>
<text text-anchor="start" x="793" y="-800.5" font-family="Times,serif" font-size="10.00">ttg_parsec::TT::finalize</text>
<text text-anchor="middle" x="850.5" y="-789.5" font-family="Times,serif" font-size="10.00">_argstream</text>
</a>
</g>
</g>
<!-- Node1&#45;&gt;Node9 -->
<g id="edge8_Node000001_Node000009" class="edge">
<title>Node1&#45;&gt;Node9</title>
<g id="a_edge8_Node000001_Node000009"><a xlink:title=" ">
<path fill="none" stroke="#63b8ff" d="M1214.23,-625.3C1204.68,-664.15 1177.59,-749.75 1118,-786.5 1057.4,-823.87 973.46,-820.32 916.08,-811.52"/>
<polygon fill="#63b8ff" stroke="#63b8ff" points="1217.71,-625.79 1216.56,-615.26 1210.89,-624.21 1217.71,-625.79"/>
</a>
</g>
</g>
<!-- Node10 -->
<g id="Node000010" class="node">
<title>Node10</title>
<g id="a_Node000010"><a xlink:href="classttg__madness_1_1_t_t.html#ad3281e576a13d510353fea6ef49caac8" target="_top" xlink:title="finalizes stream for input i">
<polygon fill="white" stroke="#666666" points="1110.5,-883.5 967.5,-883.5 967.5,-853.5 1110.5,-853.5 1110.5,-883.5"/>
<text text-anchor="start" x="975.5" y="-871.5" font-family="Times,serif" font-size="10.00">ttg_madness::TT::finalize</text>
<text text-anchor="middle" x="1039" y="-860.5" font-family="Times,serif" font-size="10.00">_argstream</text>
</a>
</g>
</g>
<!-- Node1&#45;&gt;Node10 -->
<g id="edge9_Node000001_Node000010" class="edge">
<title>Node1&#45;&gt;Node10</title>
<g id="a_edge9_Node000001_Node000010"><a xlink:title=" ">
<path fill="none" stroke="#63b8ff" d="M1215.44,-625.08C1207.5,-669.42 1182.24,-778.38 1118,-839.5 1112.03,-845.18 1104.86,-849.76 1097.31,-853.46"/>
<polygon fill="#63b8ff" stroke="#63b8ff" points="1218.92,-625.49 1217.13,-615.05 1212.02,-624.32 1218.92,-625.49"/>
</a>
</g>
</g>
<!-- Node11 -->
<g id="Node000011" class="node">
<title>Node11</title>
<g id="a_Node000011"><a xlink:href="classttg__parsec_1_1_t_t.html#affca736b8369f0dd02c251dcbdb3974f" target="_top" xlink:title="finalizes stream for input i">
<polygon fill="white" stroke="#666666" points="916,-764.5 785,-764.5 785,-734.5 916,-734.5 916,-764.5"/>
<text text-anchor="start" x="793" y="-752.5" font-family="Times,serif" font-size="10.00">ttg_parsec::TT::finalize</text>
<text text-anchor="middle" x="850.5" y="-741.5" font-family="Times,serif" font-size="10.00">_argstream</text>
</a>
</g>
</g>
<!-- Node1&#45;&gt;Node11 -->
<g id="edge10_Node000001_Node000011" class="edge">
<title>Node1&#45;&gt;Node11</title>
<g id="a_edge10_Node000001_Node000011"><a xlink:title=" ">
<path fill="none" stroke="#63b8ff" d="M1213.27,-625.06C1202.44,-661.16 1173.77,-737.37 1118,-768.5 1084.64,-787.12 983.84,-773.91 916.22,-762.12"/>
<polygon fill="#63b8ff" stroke="#63b8ff" points="1216.69,-625.82 1216.07,-615.25 1209.96,-623.9 1216.69,-625.82"/>
</a>
</g>
</g>
<!-- Node12 -->
<g id="Node000012" class="node">
<title>Node12</title>
<g id="a_Node000012"><a xlink:href="classttg__parsec_1_1_t_t.html#a68814131fd8aa487afce9a89a5ee7f2b" target="_top" xlink:title=" ">
<polygon fill="white" stroke="#666666" points="1091.5,-663.5 986.5,-663.5 986.5,-633.5 1091.5,-633.5 1091.5,-663.5"/>
<text text-anchor="start" x="994.5" y="-651.5" font-family="Times,serif" font-size="10.00">ttg_parsec::TT::ht</text>
<text text-anchor="middle" x="1039" y="-640.5" font-family="Times,serif" font-size="10.00">_iter_cb</text>
</a>
</g>
</g>
<!-- Node1&#45;&gt;Node12 -->
<g id="edge11_Node000001_Node000012" class="edge">
<title>Node1&#45;&gt;Node12</title>
<g id="a_edge11_Node000001_Node000012"><a xlink:title=" ">
<path fill="none" stroke="#63b8ff" d="M1168.91,-617.45C1144.87,-623.24 1116.02,-630.19 1091.71,-636.04"/>
<polygon fill="#63b8ff" stroke="#63b8ff" points="1169.98,-620.79 1178.89,-615.04 1168.34,-613.98 1169.98,-620.79"/>
</a>
</g>
</g>
<!-- Node23 -->
<g id="Node000023" class="node">
<title>Node23</title>
<g id="a_Node000023"><a xlink:href="classttg__madness_1_1_t_t.html#aea5a9c17b765ac16c034cafb686c9bf2" target="_top" xlink:title=" ">
<polygon fill="white" stroke="#666666" points="1109,-759.5 969,-759.5 969,-729.5 1109,-729.5 1109,-759.5"/>
<text text-anchor="start" x="977" y="-747.5" font-family="Times,serif" font-size="10.00">ttg_madness::TT::invoke</text>
<text text-anchor="middle" x="1039" y="-736.5" font-family="Times,serif" font-size="10.00">_pull_terminal</text>
</a>
</g>
</g>
<!-- Node1&#45;&gt;Node23 -->
<g id="edge23_Node000001_Node000023" class="edge">
<title>Node1&#45;&gt;Node23</title>
<g id="a_edge23_Node000001_Node000023"><a xlink:title=" ">
<path fill="none" stroke="#63b8ff" d="M1207.29,-623.77C1190.8,-649.13 1157.64,-694.78 1118,-720.5 1112.77,-723.89 1107.03,-726.83 1101.12,-729.36"/>
<polygon fill="#63b8ff" stroke="#63b8ff" points="1210.37,-625.45 1212.77,-615.13 1204.46,-621.7 1210.37,-625.45"/>
</a>
</g>
</g>
<!-- Node24 -->
<g id="Node000024" class="node">
<title>Node24</title>
<g id="a_Node000024"><a xlink:href="classttg__parsec_1_1_world_impl.html#a796b7f345885e9bb7a4df1933bc6e4a3" target="_top" xlink:title=" ">
<polygon fill="white" stroke="#666666" points="1103.5,-711.5 974.5,-711.5 974.5,-681.5 1103.5,-681.5 1103.5,-711.5"/>
<text text-anchor="start" x="982.5" y="-699.5" font-family="Times,serif" font-size="10.00">ttg_parsec::WorldImpl</text>
<text text-anchor="middle" x="1039" y="-688.5" font-family="Times,serif" font-size="10.00">::register_tt_profiling</text>
</a>
</g>
</g>
<!-- Node1&#45;&gt;Node24 -->
<g id="edge24_Node000001_Node000024" class="edge">
<title>Node1&#45;&gt;Node24</title>
<g id="a_edge24_Node000001_Node000024"><a xlink:title=" ">
<path fill="none" stroke="#63b8ff" d="M1198.36,-621.49C1178.79,-636.39 1147.73,-658.38 1118,-672.5 1111.09,-675.78 1103.62,-678.75 1096.14,-681.38"/>
<polygon fill="#63b8ff" stroke="#63b8ff" points="1200.74,-624.08 1206.51,-615.19 1196.45,-618.54 1200.74,-624.08"/>
</a>
</g>
</g>
<!-- Node25 -->
<g id="Node000025" class="node">
<title>Node25</title>
<g id="a_Node000025"><a xlink:href="classttg__parsec_1_1_t_t.html#a80885f0e54f741d7c70ae64179578414" target="_top" xlink:title=" ">
<polygon fill="white" stroke="#666666" points="1118,-921 960,-921 960,-902 1118,-902 1118,-921"/>
<text text-anchor="middle" x="1039" y="-909" font-family="Times,serif" font-size="10.00">ttg_parsec::TT::release_task</text>
</a>
</g>
</g>
<!-- Node1&#45;&gt;Node25 -->
<g id="edge25_Node000001_Node000025" class="edge">
<title>Node1&#45;&gt;Node25</title>
<g id="a_edge25_Node000001_Node000025"><a xlink:title=" ">
<path fill="none" stroke="#63b8ff" d="M1217.73,-625.41C1214.61,-677.59 1198.72,-819.32 1118,-892.5 1113.77,-896.34 1108.89,-899.43 1103.68,-901.93"/>
<polygon fill="#63b8ff" stroke="#63b8ff" points="1221.24,-625.34 1218.25,-615.18 1214.25,-624.99 1221.24,-625.34"/>
</a>
</g>
</g>
<!-- Node28 -->
<g id="Node000028" class="node">
<title>Node28</title>
<g id="a_Node000028"><a xlink:href="classttg__madness_1_1_t_t.html#a2810f6594315e404871457fd05f06099" target="_top" xlink:title=" ">
<polygon fill="white" stroke="#666666" points="1111,-615 967,-615 967,-596 1111,-596 1111,-615"/>
<text text-anchor="middle" x="1039" y="-603" font-family="Times,serif" font-size="10.00">ttg_madness::TT::set_arg</text>
</a>
</g>
</g>
<!-- Node1&#45;&gt;Node28 -->
<g id="edge33_Node000001_Node000028" class="edge">
<title>Node1&#45;&gt;Node28</title>
<g id="a_edge33_Node000001_Node000028"><a xlink:title=" ">
<path fill="none" stroke="#63b8ff" d="M1143.6,-605.5C1132.84,-605.5 1121.8,-605.5 1111.11,-605.5"/>
<polygon fill="#63b8ff" stroke="#63b8ff" points="1143.81,-609 1153.81,-605.5 1143.8,-602 1143.81,-609"/>
</a>
</g>
</g>
<!-- Node29 -->
<g id="Node000029" class="node">
<title>Node29</title>
<g id="a_Node000029"><a xlink:href="classttg__madness_1_1_t_t.html#af1f8926792b406a906e1276eb1031eed" target="_top" xlink:title=" ">
<polygon fill="white" stroke="#666666" points="1100,-577.5 978,-577.5 978,-547.5 1100,-547.5 1100,-577.5"/>
<text text-anchor="start" x="986" y="-565.5" font-family="Times,serif" font-size="10.00">ttg_madness::TT::set</text>
<text text-anchor="middle" x="1039" y="-554.5" font-family="Times,serif" font-size="10.00">_argstream_size</text>
</a>
</g>
</g>
<!-- Node1&#45;&gt;Node29 -->
<g id="edge35_Node000001_Node000029" class="edge">
<title>Node1&#45;&gt;Node29</title>
<g id="a_edge35_Node000001_Node000029"><a xlink:title=" ">
<path fill="none" stroke="#63b8ff" d="M1169.07,-593.59C1147.74,-588.46 1122.61,-582.4 1100.21,-577"/>
<polygon fill="#63b8ff" stroke="#63b8ff" points="1168.34,-597.02 1178.89,-595.96 1169.98,-590.21 1168.34,-597.02"/>
</a>
</g>
</g>
<!-- Node30 -->
<g id="Node000030" class="node">
<title>Node30</title>
<g id="a_Node000030"><a xlink:href="classttg__madness_1_1_t_t.html#a9f0418a0dd9ec6ace5cfacf430a3461f" target="_top" xlink:title=" ">
<polygon fill="white" stroke="#666666" points="1100,-529.5 978,-529.5 978,-499.5 1100,-499.5 1100,-529.5"/>
<text text-anchor="start" x="986" y="-517.5" font-family="Times,serif" font-size="10.00">ttg_madness::TT::set</text>
<text text-anchor="middle" x="1039" y="-506.5" font-family="Times,serif" font-size="10.00">_argstream_size</text>
</a>
</g>
</g>
<!-- Node1&#45;&gt;Node30 -->
<g id="edge37_Node000001_Node000030" class="edge">
<title>Node1&#45;&gt;Node30</title>
<g id="a_edge37_Node000001_Node000030"><a xlink:title=" ">
<path fill="none" stroke="#63b8ff" d="M1198.36,-589.51C1178.79,-574.61 1147.73,-552.62 1118,-538.5 1111.09,-535.22 1103.62,-532.25 1096.14,-529.62"/>
<polygon fill="#63b8ff" stroke="#63b8ff" points="1196.45,-592.46 1206.51,-595.81 1200.74,-586.92 1196.45,-592.46"/>
</a>
</g>
</g>
<!-- Node31 -->
<g id="Node000031" class="node">
<title>Node31</title>
<g id="a_Node000031"><a xlink:href="classttg__madness_1_1_t_t.html#a6ccad7e7bea21e526167e5b79adba1a2" target="_top" xlink:title=" ">
<polygon fill="white" stroke="#666666" points="1100,-481.5 978,-481.5 978,-451.5 1100,-451.5 1100,-481.5"/>
<text text-anchor="start" x="986" y="-469.5" font-family="Times,serif" font-size="10.00">ttg_madness::TT::set</text>
<text text-anchor="middle" x="1039" y="-458.5" font-family="Times,serif" font-size="10.00">_input_reducer</text>
</a>
</g>
</g>
<!-- Node1&#45;&gt;Node31 -->
<g id="edge39_Node000001_Node000031" class="edge">
<title>Node1&#45;&gt;Node31</title>
<g id="a_edge39_Node000001_Node000031"><a xlink:title=" ">
<path fill="none" stroke="#63b8ff" d="M1207.29,-587.23C1190.8,-561.87 1157.64,-516.22 1118,-490.5 1112.53,-486.95 1106.51,-483.91 1100.31,-481.29"/>
<polygon fill="#63b8ff" stroke="#63b8ff" points="1204.46,-589.3 1212.77,-595.87 1210.37,-585.55 1204.46,-589.3"/>
</a>
</g>
</g>
<!-- Node32 -->
<g id="Node000032" class="node">
<title>Node32</title>
<g id="a_Node000032"><a xlink:href="classttg__parsec_1_1_t_t.html#a135452f67e8da6713f06a5f286654854" target="_top" xlink:title=" ">
<polygon fill="white" stroke="#666666" points="1094,-433.5 984,-433.5 984,-403.5 1094,-403.5 1094,-433.5"/>
<text text-anchor="start" x="992" y="-421.5" font-family="Times,serif" font-size="10.00">ttg_parsec::TT::set</text>
<text text-anchor="middle" x="1039" y="-410.5" font-family="Times,serif" font-size="10.00">_input_reducer</text>
</a>
</g>
</g>
<!-- Node1&#45;&gt;Node32 -->
<g id="edge40_Node000001_Node000032" class="edge">
<title>Node1&#45;&gt;Node32</title>
<g id="a_edge40_Node000001_Node000032"><a xlink:title=" ">
<path fill="none" stroke="#63b8ff" d="M1211.76,-586.02C1198.95,-551.84 1167.83,-481.04 1118,-442.5 1110.94,-437.04 1102.63,-432.81 1094.11,-429.54"/>
<polygon fill="#63b8ff" stroke="#63b8ff" points="1208.59,-587.53 1215.28,-595.74 1215.17,-585.15 1208.59,-587.53"/>
</a>
</g>
</g>
<!-- Node33 -->
<g id="Node000033" class="node">
<title>Node33</title>
<g id="a_Node000033"><a xlink:href="classttg__madness_1_1_t_t.html#ab6c8b768c80a14b079bb9e70f53a1cc7" target="_top" xlink:title=" ">
<polygon fill="white" stroke="#666666" points="1104.5,-385.5 973.5,-385.5 973.5,-355.5 1104.5,-355.5 1104.5,-385.5"/>
<text text-anchor="start" x="981.5" y="-373.5" font-family="Times,serif" font-size="10.00">ttg_madness::TT::set</text>
<text text-anchor="middle" x="1039" y="-362.5" font-family="Times,serif" font-size="10.00">_static_argstream_size</text>
</a>
</g>
</g>
<!-- Node1&#45;&gt;Node33 -->
<g id="edge41_Node000001_Node000033" class="edge">
<title>Node1&#45;&gt;Node33</title>
<g id="a_edge41_Node000001_Node000033"><a xlink:title=" ">
<path fill="none" stroke="#63b8ff" d="M1214.7,-585.91C1205.63,-544.38 1178.76,-446.98 1118,-394.5 1114.03,-391.07 1109.58,-388.14 1104.87,-385.62"/>
<polygon fill="#63b8ff" stroke="#63b8ff" points="1211.31,-586.77 1216.76,-595.85 1218.16,-585.35 1211.31,-586.77"/>
</a>
</g>
</g>
<!-- Node34 -->
<g id="Node000034" class="node">
<title>Node34</title>
<g id="a_Node000034"><a xlink:href="classttg__parsec_1_1_t_t.html#aa50ec2908d3cecdf17c962e05760bec7" target="_top" xlink:title=" ">
<polygon fill="white" stroke="#666666" points="1104.5,-337.5 973.5,-337.5 973.5,-307.5 1104.5,-307.5 1104.5,-337.5"/>
<text text-anchor="start" x="981.5" y="-325.5" font-family="Times,serif" font-size="10.00">ttg_parsec::TT::set</text>
<text text-anchor="middle" x="1039" y="-314.5" font-family="Times,serif" font-size="10.00">_static_argstream_size</text>
</a>
</g>
</g>
<!-- Node1&#45;&gt;Node34 -->
<g id="edge42_Node000001_Node000034" class="edge">
<title>Node1&#45;&gt;Node34</title>
<g id="a_edge42_Node000001_Node000034"><a xlink:title=" ">
<path fill="none" stroke="#63b8ff" d="M1216.63,-585.85C1211.01,-537.8 1189.91,-413.43 1118,-346.5 1114.06,-342.83 1109.57,-339.72 1104.78,-337.09"/>
<polygon fill="#63b8ff" stroke="#63b8ff" points="1213.16,-586.29 1217.7,-595.86 1220.12,-585.55 1213.16,-586.29"/>
</a>
</g>
</g>
<!-- Node35 -->
<g id="Node000035" class="node">
<title>Node35</title>
<g id="a_Node000035"><a xlink:href="classttg_1_1detail_1_1_traverse.html#a8f22396f983cd2b43113903985294410" target="_top" xlink:title=" ">
<polygon fill="white" stroke="#666666" points="1097,-215.5 981,-215.5 981,-185.5 1097,-185.5 1097,-215.5"/>
<text text-anchor="start" x="989" y="-203.5" font-family="Times,serif" font-size="10.00">ttg::detail::Traverse</text>
<text text-anchor="middle" x="1039" y="-192.5" font-family="Times,serif" font-size="10.00">::traverse</text>
</a>
</g>
</g>
<!-- Node1&#45;&gt;Node35 -->
<g id="edge43_Node000001_Node000035" class="edge">
<title>Node1&#45;&gt;Node35</title>
<g id="a_edge43_Node000001_Node000035"><a xlink:title=" ">
<path fill="none" stroke="#63b8ff" d="M1218.18,-585.83C1216.27,-527.27 1203.32,-351.44 1118,-243.5 1108.51,-231.49 1094.69,-222.34 1081.32,-215.63"/>
<polygon fill="#63b8ff" stroke="#63b8ff" points="1214.69,-586.02 1218.44,-595.93 1221.69,-585.84 1214.69,-586.02"/>
</a>
</g>
</g>
<!-- Node40 -->
<g id="Node000040" class="node">
<title>Node40</title>
<g id="a_Node000040"><a xlink:href="classttg_1_1_dot.html#a6e2c9e3186444ee3f28d18a28f0c65ea" target="_top" xlink:title=" ">
<polygon fill="white" stroke="#666666" points="1096,-271 982,-271 982,-252 1096,-252 1096,-271"/>
<text text-anchor="middle" x="1039" y="-259" font-family="Times,serif" font-size="10.00">ttg::Dot::tree_down</text>
</a>
</g>
</g>
<!-- Node1&#45;&gt;Node40 -->
<g id="edge49_Node000001_Node000040" class="edge">
<title>Node1&#45;&gt;Node40</title>
<g id="a_edge49_Node000001_Node000040"><a xlink:title=" ">
<path fill="none" stroke="#63b8ff" d="M1217.31,-585.86C1213.13,-532.98 1194.84,-385.74 1118,-298.5 1106.61,-285.57 1089.71,-276.79 1074.55,-271.04"/>
<polygon fill="#63b8ff" stroke="#63b8ff" points="1213.83,-586.19 1218.02,-595.91 1220.81,-585.69 1213.83,-586.19"/>
</a>
</g>
</g>
<!-- Node41 -->
<g id="Node000041" class="node">
<title>Node41</title>
<g id="a_Node000041"><a xlink:href="classttg__madness_1_1_t_t.html#a5aea2d05192a06d6b6165fcd406b1eba" target="_top" xlink:title=" ">
<polygon fill="white" stroke="#666666" points="1099,-167 979,-167 979,-148 1099,-148 1099,-167"/>
<text text-anchor="middle" x="1039" y="-155" font-family="Times,serif" font-size="10.00">ttg_madness::TT::TT</text>
</a>
</g>
</g>
<!-- Node1&#45;&gt;Node41 -->
<g id="edge52_Node000001_Node000041" class="edge">
<title>Node1&#45;&gt;Node41</title>
<g id="a_edge52_Node000001_Node000041"><a xlink:title=" ">
<path fill="none" stroke="#63b8ff" d="M1216.58,-585.69C1208.8,-509.44 1177.16,-236.19 1118,-176.5 1112.7,-171.15 1106.17,-167.22 1099.16,-164.34"/>
<polygon fill="#63b8ff" stroke="#63b8ff" points="1213.12,-586.22 1217.59,-595.82 1220.08,-585.52 1213.12,-586.22"/>
</a>
</g>
</g>
<!-- Node42 -->
<g id="Node000042" class="node">
<title>Node42</title>
<g id="a_Node000042"><a xlink:href="classttg__madness_1_1_t_t.html#a3b9de627838456d8c208bb3cc4da7c20" target="_top" xlink:title=" ">
<polygon fill="white" stroke="#666666" points="1099,-130 979,-130 979,-111 1099,-111 1099,-130"/>
<text text-anchor="middle" x="1039" y="-118" font-family="Times,serif" font-size="10.00">ttg_madness::TT::TT</text>
</a>
</g>
</g>
<!-- Node1&#45;&gt;Node42 -->
<g id="edge53_Node000001_Node000042" class="edge">
<title>Node1&#45;&gt;Node42</title>
<g id="a_edge53_Node000001_Node000042"><a xlink:title=" ">
<path fill="none" stroke="#63b8ff" d="M1216.97,-585.56C1210.38,-505.04 1181.84,-205.06 1118,-139.5 1112.75,-134.11 1106.24,-130.15 1099.24,-127.25"/>
<polygon fill="#63b8ff" stroke="#63b8ff" points="1213.5,-586.1 1217.78,-595.79 1220.48,-585.55 1213.5,-586.1"/>
</a>
</g>
</g>
<!-- Node43 -->
<g id="Node000043" class="node">
<title>Node43</title>
<g id="a_Node000043"><a xlink:href="classttg__parsec_1_1_t_t.html#a91ff2c4ba25da30a955c5f5a19ec5c89" target="_top" xlink:title=" ">
<polygon fill="white" stroke="#666666" points="1093,-93 985,-93 985,-74 1093,-74 1093,-93"/>
<text text-anchor="middle" x="1039" y="-81" font-family="Times,serif" font-size="10.00">ttg_parsec::TT::TT</text>
</a>
</g>
</g>
<!-- Node1&#45;&gt;Node43 -->
<g id="edge54_Node000001_Node000043" class="edge">
<title>Node1&#45;&gt;Node43</title>
<g id="a_edge54_Node000001_Node000043"><a xlink:title=" ">
<path fill="none" stroke="#63b8ff" d="M1217.36,-585.82C1212.07,-501.64 1187.21,-172.82 1118,-101.5 1111.32,-94.62 1102.58,-90.14 1093.36,-87.27"/>
<polygon fill="#63b8ff" stroke="#63b8ff" points="1213.87,-586.06 1217.97,-595.83 1220.85,-585.64 1213.87,-586.06"/>
</a>
</g>
</g>
<!-- Node44 -->
<g id="Node000044" class="node">
<title>Node44</title>
<g id="a_Node000044"><a xlink:href="classttg_1_1_dot.html#a168203fd05265000a5fe12be79738a94" target="_top" xlink:title=" ">
<polygon fill="white" stroke="#666666" points="1084.5,-56 993.5,-56 993.5,-37 1084.5,-37 1084.5,-56"/>
<text text-anchor="middle" x="1039" y="-44" font-family="Times,serif" font-size="10.00">ttg::Dot::ttfunc</text>
</a>
</g>
</g>
<!-- Node1&#45;&gt;Node44 -->
<g id="edge55_Node000001_Node000044" class="edge">
<title>Node1&#45;&gt;Node44</title>
<g id="a_edge55_Node000001_Node000044"><a xlink:title=" ">
<path fill="none" stroke="#63b8ff" d="M1217.65,-585.81C1213.44,-497.85 1191.99,-141.75 1118,-64.5 1109.25,-55.37 1096.87,-50.45 1084.54,-47.91"/>
<polygon fill="#63b8ff" stroke="#63b8ff" points="1214.16,-586.16 1218.11,-595.99 1221.15,-585.84 1214.16,-586.16"/>
</a>
</g>
</g>
<!-- Node45 -->
<g id="Node000045" class="node">
<title>Node45</title>
<g id="a_Node000045"><a xlink:href="classttg__madness_1_1_t_t.html#a7a61ba733971b13989500f3be274e5cf" target="_top" xlink:title=" ">
<polygon fill="white" stroke="#666666" points="1103,-19 975,-19 975,0 1103,0 1103,-19"/>
<text text-anchor="middle" x="1039" y="-7" font-family="Times,serif" font-size="10.00">ttg_madness::TT::~TT</text>
</a>
</g>
</g>
<!-- Node1&#45;&gt;Node45 -->
<g id="edge56_Node000001_Node000045" class="edge">
<title>Node1&#45;&gt;Node45</title>
<g id="a_edge56_Node000001_Node000045"><a xlink:title=" ">
<path fill="none" stroke="#63b8ff" d="M1217.9,-585.64C1214.69,-493.74 1196.74,-110.66 1118,-27.5 1113.8,-23.06 1108.73,-19.61 1103.23,-16.95"/>
<polygon fill="#63b8ff" stroke="#63b8ff" points="1214.4,-585.91 1218.23,-595.79 1221.4,-585.68 1214.4,-585.91"/>
</a>
</g>
</g>
<!-- Node4 -->
<g id="Node000004" class="node">
<title>Node4</title>
<g id="a_Node000004"><a xlink:href="classttg__parsec_1_1_t_t.html#af647004ce89dc81d1202dd68070f0bde" target="_top" xlink:title=" ">
<polygon fill="white" stroke="#666666" points="905.5,-1189.5 795.5,-1189.5 795.5,-1159.5 905.5,-1159.5 905.5,-1189.5"/>
<text text-anchor="start" x="803.5" y="-1177.5" font-family="Times,serif" font-size="10.00">ttg_parsec::TT::set</text>
<text text-anchor="middle" x="850.5" y="-1166.5" font-family="Times,serif" font-size="10.00">_arg_impl</text>
</a>
</g>
</g>
<!-- Node3&#45;&gt;Node4 -->
<g id="edge3_Node000003_Node000004" class="edge">
<title>Node3&#45;&gt;Node4</title>
<g id="a_edge3_Node000003_Node000004"><a xlink:title=" ">
<path fill="none" stroke="#63b8ff" d="M978.91,-1134.65C972.53,-1136.62 966.13,-1138.6 960,-1140.5 940.11,-1146.68 918.19,-1153.54 899.29,-1159.47"/>
<polygon fill="#63b8ff" stroke="#63b8ff" points="980.37,-1137.86 988.89,-1131.57 978.3,-1131.17 980.37,-1137.86"/>
</a>
</g>
</g>
<!-- Node3&#45;&gt;Node5 -->
<g id="edge4_Node000003_Node000005" class="edge">
<title>Node3&#45;&gt;Node5</title>
<g id="a_edge4_Node000003_Node000005"><a xlink:title=" ">
<path fill="none" stroke="#63b8ff" d="M965.57,-1121.16C912.9,-1123.15 840.07,-1123.01 777,-1112.5 634.07,-1088.68 604.73,-1056.55 467,-1011.5 449.11,-1005.65 429.43,-999.19 412.27,-993.55"/>
<polygon fill="#63b8ff" stroke="#63b8ff" points="965.99,-1124.65 975.83,-1120.73 965.7,-1117.65 965.99,-1124.65"/>
</a>
</g>
</g>
<!-- Node3&#45;&gt;Node6 -->
<g id="edge5_Node000003_Node000006" class="edge">
<title>Node3&#45;&gt;Node6</title>
<g id="a_edge5_Node000003_Node000006"><a xlink:title=" ">
<path fill="none" stroke="#63b8ff" d="M965.86,-1105.67C945.8,-1102.66 924.35,-1099.44 905.52,-1096.61"/>
<polygon fill="#63b8ff" stroke="#63b8ff" points="965.49,-1109.15 975.9,-1107.18 966.53,-1102.23 965.49,-1109.15"/>
</a>
</g>
</g>
<!-- Node3&#45;&gt;Node7 -->
<g id="edge6_Node000003_Node000007" class="edge">
<title>Node3&#45;&gt;Node7</title>
<g id="a_edge6_Node000003_Node000007"><a xlink:title=" ">
<path fill="none" stroke="#63b8ff" d="M998.2,-1097.06C976.51,-1086.8 949.05,-1074.33 924,-1064.5 916.1,-1061.4 907.62,-1058.35 899.34,-1055.52"/>
<polygon fill="#63b8ff" stroke="#63b8ff" points="996.89,-1100.32 1007.42,-1101.46 999.9,-1094 996.89,-1100.32"/>
</a>
</g>
</g>
<!-- Node13 -->
<g id="Node000013" class="node">
<title>Node13</title>
<g id="a_Node000013"><a xlink:href="classttg__parsec_1_1_t_t.html#acec939399109ea862fb2e5d011aa9706" target="_top" xlink:title=" ">
<polygon fill="white" stroke="#666666" points="910,-690.5 791,-690.5 791,-660.5 910,-660.5 910,-690.5"/>
<text text-anchor="start" x="799" y="-678.5" font-family="Times,serif" font-size="10.00">ttg_parsec::TT::print</text>
<text text-anchor="middle" x="850.5" y="-667.5" font-family="Times,serif" font-size="10.00">_incomplete_tasks</text>
</a>
</g>
</g>
<!-- Node12&#45;&gt;Node13 -->
<g id="edge12_Node000012_Node000013" class="edge">
<title>Node12&#45;&gt;Node13</title>
<g id="a_edge12_Node000012_Node000013"><a xlink:title=" ">
<path fill="none" stroke="#63b8ff" d="M976.14,-657.46C954.85,-660.54 931.09,-663.98 910.07,-667.02"/>
<polygon fill="#63b8ff" stroke="#63b8ff" points="976.65,-660.92 986.05,-656.02 975.65,-653.99 976.65,-660.92"/>
</a>
</g>
</g>
<!-- Node14 -->
<g id="Node000014" class="node">
<title>Node14</title>
<g id="a_Node000014"><a xlink:href="classttg__parsec_1_1_t_t.html#a7f42b8147186ddf49a3c1f2a5d49255f" target="_top" xlink:title=" ">
<polygon fill="white" stroke="#666666" points="741,-728.5 634,-728.5 634,-698.5 741,-698.5 741,-728.5"/>
<text text-anchor="start" x="642" y="-716.5" font-family="Times,serif" font-size="10.00">ttg_parsec::TT::do</text>
<text text-anchor="middle" x="687.5" y="-705.5" font-family="Times,serif" font-size="10.00">_release</text>
</a>
</g>
</g>
<!-- Node13&#45;&gt;Node14 -->
<g id="edge13_Node000013_Node000014" class="edge">
<title>Node13&#45;&gt;Node14</title>
<g id="a_edge13_Node000013_Node000014"><a xlink:title=" ">
<path fill="none" stroke="#63b8ff" d="M780.87,-691.7C767.58,-694.84 753.85,-698.08 741.17,-701.07"/>
<polygon fill="#63b8ff" stroke="#63b8ff" points="781.99,-695.03 790.92,-689.33 780.38,-688.22 781.99,-695.03"/>
</a>
</g>
</g>
<!-- Node15 -->
<g id="Node000015" class="node">
<title>Node15</title>
<g id="a_Node000015"><a xlink:href="classttg__parsec_1_1_t_t.html#a64de0f4a0e71bd0dab69161ce619794d" target="_top" xlink:title=" ">
<polygon fill="white" stroke="#666666" points="598,-836 467,-836 467,-817 598,-817 598,-836"/>
<text text-anchor="middle" x="532.5" y="-824" font-family="Times,serif" font-size="10.00">ttg_parsec::TT::release</text>
</a>
</g>
</g>
<!-- Node14&#45;&gt;Node15 -->
<g id="edge14_Node000014_Node000015" class="edge">
<title>Node14&#45;&gt;Node15</title>
<g id="a_edge14_Node000014_Node000015"><a xlink:title=" ">
<path fill="none" stroke="#63b8ff" d="M657.79,-734.7C624.56,-759.24 571.27,-798.6 546.7,-816.75"/>
<polygon fill="#63b8ff" stroke="#63b8ff" points="660.22,-737.26 666.18,-728.51 656.06,-731.63 660.22,-737.26"/>
</a>
</g>
</g>
<!-- Node15&#45;&gt;Node5 -->
<g id="edge21_Node000015_Node000005" class="edge">
<title>Node15&#45;&gt;Node5</title>
<g id="a_edge21_Node000015_Node000005"><a xlink:title=" ">
<path fill="none" stroke="#63b8ff" d="M513.81,-842.79C481.67,-872.4 414.12,-934.63 382.93,-963.36"/>
<polygon fill="#63b8ff" stroke="#63b8ff" points="516.2,-845.36 521.18,-836.01 511.45,-840.21 516.2,-845.36"/>
</a>
</g>
</g>
<!-- Node16 -->
<g id="Node000016" class="node">
<title>Node16</title>
<g id="a_Node000016"><a xlink:href="classttg__parsec_1_1_t_t.html#a765cc9ec66725e266e1fb7708cc5791d" target="_top" xlink:title=" ">
<polygon fill="white" stroke="#666666" points="431,-889.5 300,-889.5 300,-859.5 431,-859.5 431,-889.5"/>
<text text-anchor="start" x="308" y="-877.5" font-family="Times,serif" font-size="10.00">ttg_parsec::TT::release</text>
<text text-anchor="middle" x="365.5" y="-866.5" font-family="Times,serif" font-size="10.00">_constraint</text>
</a>
</g>
</g>
<!-- Node15&#45;&gt;Node16 -->
<g id="edge15_Node000015_Node000016" class="edge">
<title>Node15&#45;&gt;Node16</title>
<g id="a_edge15_Node000015_Node000016"><a xlink:title=" ">
<path fill="none" stroke="#63b8ff" d="M488.67,-838.96C467.16,-845.22 440.92,-852.85 418.28,-859.44"/>
<polygon fill="#63b8ff" stroke="#63b8ff" points="489.88,-842.25 498.51,-836.1 487.93,-835.53 489.88,-842.25"/>
</a>
</g>
</g>
<!-- Node21 -->
<g id="Node000021" class="node">
<title>Node21</title>
<g id="a_Node000021"><a xlink:href="classttg__parsec_1_1_t_t.html#a00177662d76d11b5717ebc4f1affbb0d" target="_top" xlink:title=" ">
<polygon fill="white" stroke="#666666" points="431,-841.5 300,-841.5 300,-811.5 431,-811.5 431,-841.5"/>
<text text-anchor="start" x="308" y="-829.5" font-family="Times,serif" font-size="10.00">ttg_parsec::TT::release</text>
<text text-anchor="middle" x="365.5" y="-818.5" font-family="Times,serif" font-size="10.00">_constraint</text>
</a>
</g>
</g>
<!-- Node15&#45;&gt;Node21 -->
<g id="edge20_Node000015_Node000021" class="edge">
<title>Node15&#45;&gt;Node21</title>
<g id="a_edge20_Node000015_Node000021"><a xlink:title=" ">
<path fill="none" stroke="#63b8ff" d="M456.76,-826.5C448.18,-826.5 439.48,-826.5 431.05,-826.5"/>
<polygon fill="#63b8ff" stroke="#63b8ff" points="456.76,-830 466.76,-826.5 456.76,-823 456.76,-830"/>
</a>
</g>
</g>
<!-- Node22 -->
<g id="Node000022" class="node">
<title>Node22</title>
<g id="a_Node000022"><a xlink:href="classttg__parsec_1_1_t_t.html#a47eb6b88e566c5bd85a92e21ab471889" target="_top" xlink:title=" ">
<polygon fill="white" stroke="#666666" points="423.5,-793 307.5,-793 307.5,-774 423.5,-774 423.5,-793"/>
<text text-anchor="middle" x="365.5" y="-781" font-family="Times,serif" font-size="10.00">ttg_parsec::TT::~TT</text>
</a>
</g>
</g>
<!-- Node15&#45;&gt;Node22 -->
<g id="edge22_Node000015_Node000022" class="edge">
<title>Node15&#45;&gt;Node22</title>
<g id="a_edge22_Node000015_Node000022"><a xlink:title=" ">
<path fill="none" stroke="#63b8ff" d="M484.89,-814.35C458.95,-807.59 427.13,-799.3 403.02,-793.02"/>
<polygon fill="#63b8ff" stroke="#63b8ff" points="484.32,-817.82 494.88,-816.96 486.09,-811.05 484.32,-817.82"/>
</a>
</g>
</g>
<!-- Node17 -->
<g id="Node000017" class="node">
<title>Node17</title>
<g id="a_Node000017"><a xlink:href="classttg__parsec_1_1_t_t.html#a24ea8b57fe2846efcab06e6fc80190d2" target="_top" xlink:title=" ">
<polygon fill="white" stroke="#666666" points="264,-913.5 150,-913.5 150,-883.5 264,-883.5 264,-913.5"/>
<text text-anchor="start" x="158" y="-901.5" font-family="Times,serif" font-size="10.00">ttg_parsec::TT::add</text>
<text text-anchor="middle" x="207" y="-890.5" font-family="Times,serif" font-size="10.00">_constraint</text>
</a>
</g>
</g>
<!-- Node16&#45;&gt;Node17 -->
<g id="edge16_Node000016_Node000017" class="edge">
<title>Node16&#45;&gt;Node17</title>
<g id="a_edge16_Node000016_Node000017"><a xlink:title=" ">
<path fill="none" stroke="#63b8ff" d="M289.92,-885.94C281.34,-887.25 272.7,-888.58 264.41,-889.85"/>
<polygon fill="#63b8ff" stroke="#63b8ff" points="290.59,-889.38 299.94,-884.4 289.53,-882.46 290.59,-889.38"/>
</a>
</g>
</g>
<!-- Node20 -->
<g id="Node000020" class="node">
<title>Node20</title>
<g id="a_Node000020"><a xlink:href="classttg__parsec_1_1_t_t.html#a4d8ac0fb1bdaaaa57ff186fef88e24af" target="_top" xlink:title=" ">
<polygon fill="white" stroke="#666666" points="264,-865.5 150,-865.5 150,-835.5 264,-835.5 264,-865.5"/>
<text text-anchor="start" x="158" y="-853.5" font-family="Times,serif" font-size="10.00">ttg_parsec::TT::add</text>
<text text-anchor="middle" x="207" y="-842.5" font-family="Times,serif" font-size="10.00">_constraint</text>
</a>
</g>
</g>
<!-- Node16&#45;&gt;Node20 -->
<g id="edge19_Node000016_Node000020" class="edge">
<title>Node16&#45;&gt;Node20</title>
<g id="a_edge19_Node000016_Node000020"><a xlink:title=" ">
<path fill="none" stroke="#63b8ff" d="M289.92,-863.06C281.34,-861.75 272.7,-860.42 264.41,-859.15"/>
<polygon fill="#63b8ff" stroke="#63b8ff" points="289.53,-866.54 299.94,-864.6 290.59,-859.62 289.53,-866.54"/>
</a>
</g>
</g>
<!-- Node18 -->
<g id="Node000018" class="node">
<title>Node18</title>
<g id="a_Node000018"><a xlink:href="classttg__parsec_1_1_t_t.html#ab2809ed93f5b416ca4bee4c8fc7c90ee" target="_top" xlink:title=" ">
<polygon fill="white" stroke="#666666" points="114,-937.5 0,-937.5 0,-907.5 114,-907.5 114,-937.5"/>
<text text-anchor="start" x="8" y="-925.5" font-family="Times,serif" font-size="10.00">ttg_parsec::TT::add</text>
<text text-anchor="middle" x="57" y="-914.5" font-family="Times,serif" font-size="10.00">_constraint</text>
</a>
</g>
</g>
<!-- Node17&#45;&gt;Node18 -->
<g id="edge17_Node000017_Node000018" class="edge">
<title>Node17&#45;&gt;Node18</title>
<g id="a_edge17_Node000017_Node000018"><a xlink:title=" ">
<path fill="none" stroke="#63b8ff" d="M139.72,-909.25C131.2,-910.63 122.55,-912.03 114.22,-913.38"/>
<polygon fill="#63b8ff" stroke="#63b8ff" points="140.31,-912.7 149.63,-907.64 139.19,-905.79 140.31,-912.7"/>
</a>
</g>
</g>
<!-- Node19 -->
<g id="Node000019" class="node">
<title>Node19</title>
<g id="a_Node000019"><a xlink:href="classttg__parsec_1_1_t_t.html#a090da9fb01ff9bca0f0d419a3a054ce0" target="_top" xlink:title=" ">
<polygon fill="white" stroke="#666666" points="114,-889.5 0,-889.5 0,-859.5 114,-859.5 114,-889.5"/>
<text text-anchor="start" x="8" y="-877.5" font-family="Times,serif" font-size="10.00">ttg_parsec::TT::add</text>
<text text-anchor="middle" x="57" y="-866.5" font-family="Times,serif" font-size="10.00">_constraint</text>
</a>
</g>
</g>
<!-- Node17&#45;&gt;Node19 -->
<g id="edge18_Node000017_Node000019" class="edge">
<title>Node17&#45;&gt;Node19</title>
<g id="a_edge18_Node000017_Node000019"><a xlink:title=" ">
<path fill="none" stroke="#63b8ff" d="M139.72,-887.75C131.2,-886.37 122.55,-884.97 114.22,-883.62"/>
<polygon fill="#63b8ff" stroke="#63b8ff" points="139.19,-891.21 149.63,-889.36 140.31,-884.3 139.19,-891.21"/>
</a>
</g>
</g>
<!-- Node25&#45;&gt;Node5 -->
<g id="edge30_Node000025_Node000005" class="edge">
<title>Node25&#45;&gt;Node5</title>
<g id="a_edge30_Node000025_Node000005"><a xlink:title=" ">
<path fill="none" stroke="#63b8ff" d="M987.94,-923.44C978.64,-925.73 969.01,-928.15 960,-930.5 943.93,-934.69 940.37,-937.7 924,-940.5 741.36,-971.76 520.92,-977.53 420.75,-978.44"/>
<polygon fill="#63b8ff" stroke="#63b8ff" points="988.97,-926.79 997.86,-921.02 987.31,-919.99 988.97,-926.79"/>
</a>
</g>
</g>
<!-- Node25&#45;&gt;Node6 -->
<g id="edge31_Node000025_Node000006" class="edge">
<title>Node25&#45;&gt;Node6</title>
<g id="a_edge31_Node000025_Node000006"><a xlink:title=" ">
<path fill="none" stroke="#63b8ff" d="M964.62,-926.52C963,-927.75 961.46,-929.08 960,-930.5 915.88,-973.59 966.34,-1019.67 924,-1064.5 918.9,-1069.9 912.57,-1074.08 905.78,-1077.33"/>
<polygon fill="#63b8ff" stroke="#63b8ff" points="966.64,-929.39 973.26,-921.12 962.93,-923.46 966.64,-929.39"/>
</a>
</g>
</g>
<!-- Node25&#45;&gt;Node7 -->
<g id="edge32_Node000025_Node000007" class="edge">
<title>Node25&#45;&gt;Node7</title>
<g id="a_edge32_Node000025_Node000007"><a xlink:title=" ">
<path fill="none" stroke="#63b8ff" d="M970.87,-924.79C967.08,-926.47 963.43,-928.37 960,-930.5 938.83,-943.66 941.19,-955.45 924,-973.5 906.15,-992.24 884.14,-1012.18 869.08,-1025.39"/>
<polygon fill="#63b8ff" stroke="#63b8ff" points="972.44,-927.93 980.48,-921.04 969.89,-921.42 972.44,-927.93"/>
</a>
</g>
</g>
<!-- Node25&#45;&gt;Node9 -->
<g id="edge26_Node000025_Node000009" class="edge">
<title>Node25&#45;&gt;Node9</title>
<g id="a_edge26_Node000025_Node000009"><a xlink:title=" ">
<path fill="none" stroke="#63b8ff" d="M967.33,-897.46C964.77,-895.97 962.31,-894.32 960,-892.5 932.52,-870.85 950.44,-845.41 924,-822.5 919.57,-818.66 914.53,-815.41 909.2,-812.65"/>
<polygon fill="#63b8ff" stroke="#63b8ff" points="965.91,-900.66 976.42,-901.97 969.02,-894.39 965.91,-900.66"/>
</a>
</g>
</g>
<!-- Node25&#45;&gt;Node11 -->
<g id="edge27_Node000025_Node000011" class="edge">
<title>Node25&#45;&gt;Node11</title>
<g id="a_edge27_Node000025_Node000011"><a xlink:title=" ">
<path fill="none" stroke="#63b8ff" d="M964.81,-896.51C963.13,-895.27 961.52,-893.94 960,-892.5 919.87,-854.51 962.56,-813.07 924,-773.5 920.67,-770.08 916.84,-767.15 912.72,-764.64"/>
<polygon fill="#63b8ff" stroke="#63b8ff" points="963.4,-899.75 973.76,-901.93 967.02,-893.76 963.4,-899.75"/>
</a>
</g>
</g>
<!-- Node26 -->
<g id="Node000026" class="node">
<title>Node26</title>
<g id="a_Node000026"><a xlink:href="structttg__parsec_1_1detail_1_1parsec__ttg__task__t.html#ad5cb0f91ede170fec5354d78f9b14797" target="_top" xlink:title=" ">
<polygon fill="white" stroke="#666666" points="906,-931 795,-931 795,-890 906,-890 906,-931"/>
<text text-anchor="start" x="803" y="-919" font-family="Times,serif" font-size="10.00">ttg_parsec::detail</text>
<text text-anchor="start" x="803" y="-908" font-family="Times,serif" font-size="10.00">::parsec_ttg_task_t</text>
<text text-anchor="middle" x="850.5" y="-897" font-family="Times,serif" font-size="10.00">::release_task</text>
</a>
</g>
</g>
<!-- Node25&#45;&gt;Node26 -->
<g id="edge28_Node000025_Node000026" class="edge">
<title>Node25&#45;&gt;Node26</title>
<g id="a_edge28_Node000025_Node000026"><a xlink:title=" ">
<path fill="none" stroke="#63b8ff" d="M949.76,-911.03C934.92,-910.95 919.92,-910.87 906.25,-910.79"/>
<polygon fill="#63b8ff" stroke="#63b8ff" points="949.97,-914.53 959.99,-911.08 950.01,-907.53 949.97,-914.53"/>
</a>
</g>
</g>
<!-- Node27 -->
<g id="Node000027" class="node">
<title>Node27</title>
<g id="a_Node000027"><a xlink:href="structttg__parsec_1_1detail_1_1parsec__ttg__task__t_3_01_t_t_00_01true_01_4.html#af9246483d815a6eed3c3f5d108219fe7" target="_top" xlink:title=" ">
<polygon fill="white" stroke="#666666" points="924,-872 777,-872 777,-831 924,-831 924,-872"/>
<text text-anchor="start" x="785" y="-860" font-family="Times,serif" font-size="10.00">ttg_parsec::detail</text>
<text text-anchor="start" x="785" y="-849" font-family="Times,serif" font-size="10.00">::parsec_ttg_task_t</text>
<text text-anchor="middle" x="850.5" y="-838" font-family="Times,serif" font-size="10.00">&lt; TT, true &gt;::release_task</text>
</a>
</g>
</g>
<!-- Node25&#45;&gt;Node27 -->
<g id="edge29_Node000025_Node000027" class="edge">
<title>Node25&#45;&gt;Node27</title>
<g id="a_edge29_Node000025_Node000027"><a xlink:title=" ">
<path fill="none" stroke="#63b8ff" d="M985.05,-899.53C976.62,-897.36 968.04,-894.99 960,-892.5 940.86,-886.58 920.21,-879.06 902.11,-872.09"/>
<polygon fill="#63b8ff" stroke="#63b8ff" points="984.28,-902.94 994.83,-901.98 985.98,-896.15 984.28,-902.94"/>
</a>
</g>
</g>
<!-- Node35&#45;&gt;Node35 -->
<g id="edge48_Node000035_Node000035" class="edge">
<title>Node35&#45;&gt;Node35</title>
<g id="a_edge48_Node000035_Node000035"><a xlink:title=" ">
<path fill="none" stroke="#63b8ff" d="M1070.51,-226.1C1066.2,-230.47 1055.7,-233.5 1039,-233.5 1010.88,-233.5 1000.33,-224.91 1007.36,-215.78"/>
<polygon fill="#63b8ff" stroke="#63b8ff" points="1074.01,-225.82 1070.64,-215.78 1067.01,-225.73 1074.01,-225.82"/>
</a>
</g>
</g>
<!-- Node36 -->
<g id="Node000036" class="node">
<title>Node36</title>
<g id="a_Node000036"><a xlink:href="classttg_1_1_dot.html#a1f31206ebc9d5867a70b1af197c26942" target="_top" xlink:title=" ">
<polygon fill="white" stroke="#666666" points="906.5,-271 794.5,-271 794.5,-252 906.5,-252 906.5,-271"/>
<text text-anchor="middle" x="850.5" y="-259" font-family="Times,serif" font-size="10.00">ttg::Dot::operator()</text>
</a>
</g>
</g>
<!-- Node35&#45;&gt;Node36 -->
<g id="edge44_Node000035_Node000036" class="edge">
<title>Node35&#45;&gt;Node36</title>
<g id="a_edge44_Node000035_Node000036"><a xlink:title=" ">
<path fill="none" stroke="#63b8ff" d="M990.69,-219.1C970.32,-226.8 946.15,-235.54 924,-242.5 913.33,-245.86 901.64,-249.1 890.83,-251.93"/>
<polygon fill="#63b8ff" stroke="#63b8ff" points="991.96,-222.36 1000.06,-215.53 989.47,-215.82 991.96,-222.36"/>
</a>
</g>
</g>
<!-- Node37 -->
<g id="Node000037" class="node">
<title>Node37</title>
<g id="a_Node000037"><a xlink:href="classttg_1_1detail_1_1_traverse.html#a1dbddfefb481679df98f5111f207fedc" target="_top" xlink:title=" ">
<polygon fill="white" stroke="#666666" points="908.5,-233.5 792.5,-233.5 792.5,-203.5 908.5,-203.5 908.5,-233.5"/>
<text text-anchor="start" x="800.5" y="-221.5" font-family="Times,serif" font-size="10.00">ttg::detail::Traverse</text>
<text text-anchor="middle" x="850.5" y="-210.5" font-family="Times,serif" font-size="10.00">::traverse</text>
</a>
</g>
</g>
<!-- Node35&#45;&gt;Node37 -->
<g id="edge45_Node000035_Node000037" class="edge">
<title>Node35&#45;&gt;Node37</title>
<g id="a_edge45_Node000035_Node000037"><a xlink:title=" ">
<path fill="none" stroke="#63b8ff" d="M970.65,-207C950.32,-208.96 928.21,-211.1 908.62,-212.99"/>
<polygon fill="#63b8ff" stroke="#63b8ff" points="971.16,-210.47 980.78,-206.02 970.49,-203.5 971.16,-210.47"/>
</a>
</g>
</g>
<!-- Node38 -->
<g id="Node000038" class="node">
<title>Node38</title>
<g id="a_Node000038"><a xlink:href="classttg_1_1detail_1_1_traverse.html#a743edef184d75931f2ede4f0da73a903" target="_top" xlink:title=" ">
<polygon fill="white" stroke="#666666" points="908.5,-185.5 792.5,-185.5 792.5,-155.5 908.5,-155.5 908.5,-185.5"/>
<text text-anchor="start" x="800.5" y="-173.5" font-family="Times,serif" font-size="10.00">ttg::detail::Traverse</text>
<text text-anchor="middle" x="850.5" y="-162.5" font-family="Times,serif" font-size="10.00">::traverse</text>
</a>
</g>
</g>
<!-- Node35&#45;&gt;Node38 -->
<g id="edge46_Node000035_Node000038" class="edge">
<title>Node35&#45;&gt;Node38</title>
<g id="a_edge46_Node000035_Node000038"><a xlink:title=" ">
<path fill="none" stroke="#63b8ff" d="M970.65,-189.67C950.32,-186.4 928.21,-182.84 908.62,-179.69"/>
<polygon fill="#63b8ff" stroke="#63b8ff" points="970.35,-193.16 980.78,-191.3 971.46,-186.25 970.35,-193.16"/>
</a>
</g>
</g>
<!-- Node39 -->
<g id="Node000039" class="node">
<title>Node39</title>
<g id="a_Node000039"><a xlink:href="classttg_1_1detail_1_1_traverse.html#ab3fb7118abf7106720853936cfb5308c" target="_top" xlink:title=" ">
<polygon fill="white" stroke="#666666" points="908.5,-137.5 792.5,-137.5 792.5,-107.5 908.5,-107.5 908.5,-137.5"/>
<text text-anchor="start" x="800.5" y="-125.5" font-family="Times,serif" font-size="10.00">ttg::detail::Traverse</text>
<text text-anchor="middle" x="850.5" y="-114.5" font-family="Times,serif" font-size="10.00">::traverse</text>
</a>
</g>
</g>
<!-- Node35&#45;&gt;Node39 -->
<g id="edge47_Node000035_Node000039" class="edge">
<title>Node35&#45;&gt;Node39</title>
<g id="a_edge47_Node000035_Node000039"><a xlink:title=" ">
<path fill="none" stroke="#63b8ff" d="M971.4,-182.02C967.47,-180.31 963.64,-178.47 960,-176.5 941.69,-166.58 942.21,-156.62 924,-146.5 917.97,-143.15 911.4,-140.17 904.76,-137.55"/>
<polygon fill="#63b8ff" stroke="#63b8ff" points="970.1,-185.27 980.69,-185.76 972.72,-178.77 970.1,-185.27"/>
</a>
</g>
</g>
<!-- Node40&#45;&gt;Node36 -->
<g id="edge50_Node000040_Node000036" class="edge">
<title>Node40&#45;&gt;Node36</title>
<g id="a_edge50_Node000040_Node000036"><a xlink:title=" ">
<path fill="none" stroke="#63b8ff" d="M971.54,-261.5C950.28,-261.5 926.99,-261.5 906.63,-261.5"/>
<polygon fill="#63b8ff" stroke="#63b8ff" points="971.79,-265 981.79,-261.5 971.79,-258 971.79,-265"/>
</a>
</g>
</g>
<!-- Node40&#45;&gt;Node40 -->
<g id="edge51_Node000040_Node000040" class="edge">
<title>Node40&#45;&gt;Node40</title>
<g id="a_edge51_Node000040_Node000040"><a xlink:title=" ">
<path fill="none" stroke="#63b8ff" d="M1072.68,-279.45C1071.72,-284.82 1060.49,-289 1039,-289 1007.01,-289 997.76,-279.73 1011.26,-271.08"/>
<polygon fill="#63b8ff" stroke="#63b8ff" points="1075.39,-277.21 1066.74,-271.08 1069.68,-281.26 1075.39,-277.21"/>
</a>
</g>
</g>
</g>
</svg>
