<?xml version="1.0" encoding="UTF-8" standalone="no"?>
<!DOCTYPE svg PUBLIC "-//W3C//DTD SVG 1.1//EN"
 "http://www.w3.org/Graphics/SVG/1.1/DTD/svg11.dtd">
<!-- Generated by graphviz version 2.43.0 (0)
 -->
<!-- Title: CallableWrapTT::call_func Pages: 1 -->
<svg width="436pt" height="38pt"
 viewBox="0.00 0.00 436.00 38.00" xmlns="http://www.w3.org/2000/svg" xmlns:xlink="http://www.w3.org/1999/xlink">
<g id="graph0" class="graph" transform="scale(1 1) rotate(0) translate(4 34)">
<title>CallableWrapTT::call_func</title>
<!-- Node1 -->
<g id="Node000001" class="node">
<title>Node1</title>
<g id="a_Node000001"><a xlink:title=" ">
<polygon fill="#999999" stroke="#666666" points="149,-24.5 0,-24.5 0,-5.5 149,-5.5 149,-24.5"/>
<text text-anchor="middle" x="74.5" y="-12.5" font-family="Times,serif" font-size="10.00">CallableWrapTT::call_func</text>
</a>
</g>
</g>
<!-- Node2 -->
<g id="Node000002" class="node">
<title>Node2</title>
<g id="a_Node000002"><a xlink:href="class_callable_wrap_t_t.html#ad874ff7fd3e00b44371755c1e1c1d486" target="_top" xlink:title=" ">
<polygon fill="white" stroke="#666666" points="328,-30 185,-30 185,0 328,0 328,-30"/>
<text text-anchor="start" x="193" y="-18" font-family="Times,serif" font-size="10.00">CallableWrapTT::process</text>
<text text-anchor="middle" x="256.5" y="-7" font-family="Times,serif" font-size="10.00">_return</text>
</a>
</g>
</g>
<!-- Node1&#45;&gt;Node2 -->
<g id="edge1_Node000001_Node000002" class="edge">
<title>Node1&#45;&gt;Node2</title>
<g id="a_edge1_Node000001_Node000002"><a xlink:title=" ">
<path fill="none" stroke="#63b8ff" d="M149.23,-15C157.58,-15 166.13,-15 174.57,-15"/>
<polygon fill="#63b8ff" stroke="#63b8ff" points="174.79,-18.5 184.79,-15 174.79,-11.5 174.79,-18.5"/>
</a>
</g>
</g>
<!-- Node3 -->
<g id="Node000003" class="node">
<title>Node3</title>
<g id="a_Node000003"><a xlink:href="namespacettg.html#a408d84f3b0f9b79a3278a3eac949b207" target="_top" xlink:title="Aborts the TTG program using the default backend&#39;s ttg_abort method.">
<polygon fill="white" stroke="#666666" points="428,-24.5 364,-24.5 364,-5.5 428,-5.5 428,-24.5"/>
<text text-anchor="middle" x="396" y="-12.5" font-family="Times,serif" font-size="10.00">ttg::abort</text>
</a>
</g>
</g>
<!-- Node2&#45;&gt;Node3 -->
<g id="edge2_Node000002_Node000003" class="edge">
<title>Node2&#45;&gt;Node3</title>
<g id="a_edge2_Node000002_Node000003"><a xlink:title=" ">
<path fill="none" stroke="#63b8ff" d="M328.26,-15C336.96,-15 345.61,-15 353.66,-15"/>
<polygon fill="#63b8ff" stroke="#63b8ff" points="353.85,-18.5 363.85,-15 353.85,-11.5 353.85,-18.5"/>
</a>
</g>
</g>
</g>
</svg>
