<?xml version="1.0" encoding="UTF-8" standalone="no"?>
<!DOCTYPE svg PUBLIC "-//W3C//DTD SVG 1.1//EN"
 "http://www.w3.org/Graphics/SVG/1.1/DTD/svg11.dtd">
<!-- Generated by graphviz version 2.43.0 (0)
 -->
<!-- Title: ttg::TTBase::set_output Pages: 1 -->
<svg width="456pt" height="101pt"
 viewBox="0.00 0.00 456.00 101.00" xmlns="http://www.w3.org/2000/svg" xmlns:xlink="http://www.w3.org/1999/xlink">
<g id="graph0" class="graph" transform="scale(1 1) rotate(0) translate(4 97)">
<title>ttg::TTBase::set_output</title>
<!-- Node1 -->
<g id="Node000001" class="node">
<title>Node1</title>
<g id="a_Node000001"><a xlink:title=" ">
<polygon fill="#999999" stroke="#666666" points="448,-56 313,-56 313,-37 448,-37 448,-56"/>
<text text-anchor="middle" x="380.5" y="-44" font-family="Times,serif" font-size="10.00">ttg::TTBase::set_output</text>
</a>
</g>
</g>
<!-- Node2 -->
<g id="Node000002" class="node">
<title>Node2</title>
<g id="a_Node000002"><a xlink:href="classttg_1_1_t_t_base.html#afe6845510fba3a5fc90126c9a0257306" target="_top" xlink:title=" ">
<polygon fill="white" stroke="#666666" points="277,-61.5 156,-61.5 156,-31.5 277,-31.5 277,-61.5"/>
<text text-anchor="start" x="164" y="-49.5" font-family="Times,serif" font-size="10.00">ttg::TTBase::register</text>
<text text-anchor="middle" x="216.5" y="-38.5" font-family="Times,serif" font-size="10.00">_output_terminals</text>
</a>
</g>
</g>
<!-- Node1&#45;&gt;Node2 -->
<g id="edge1_Node000001_Node000002" class="edge">
<title>Node1&#45;&gt;Node2</title>
<g id="a_edge1_Node000001_Node000002"><a xlink:title=" ">
<path fill="none" stroke="#63b8ff" d="M302.67,-46.5C294.11,-46.5 285.48,-46.5 277.17,-46.5"/>
<polygon fill="#63b8ff" stroke="#63b8ff" points="302.67,-50 312.67,-46.5 302.67,-43 302.67,-50"/>
</a>
</g>
</g>
<!-- Node3 -->
<g id="Node000003" class="node">
<title>Node3</title>
<g id="a_Node000003"><a xlink:href="classttg__madness_1_1_t_t.html#a5aea2d05192a06d6b6165fcd406b1eba" target="_top" xlink:title=" ">
<polygon fill="white" stroke="#666666" points="120,-93 0,-93 0,-74 120,-74 120,-93"/>
<text text-anchor="middle" x="60" y="-81" font-family="Times,serif" font-size="10.00">ttg_madness::TT::TT</text>
</a>
</g>
</g>
<!-- Node2&#45;&gt;Node3 -->
<g id="edge2_Node000002_Node000003" class="edge">
<title>Node2&#45;&gt;Node3</title>
<g id="a_edge2_Node000002_Node000003"><a xlink:title=" ">
<path fill="none" stroke="#63b8ff" d="M145.77,-63.2C130.43,-66.87 114.69,-70.64 101.01,-73.92"/>
<polygon fill="#63b8ff" stroke="#63b8ff" points="146.86,-66.54 155.77,-60.81 145.23,-59.73 146.86,-66.54"/>
</a>
</g>
</g>
<!-- Node4 -->
<g id="Node000004" class="node">
<title>Node4</title>
<g id="a_Node000004"><a xlink:href="classttg__madness_1_1_t_t.html#a3b9de627838456d8c208bb3cc4da7c20" target="_top" xlink:title=" ">
<polygon fill="white" stroke="#666666" points="120,-56 0,-56 0,-37 120,-37 120,-56"/>
<text text-anchor="middle" x="60" y="-44" font-family="Times,serif" font-size="10.00">ttg_madness::TT::TT</text>
</a>
</g>
</g>
<!-- Node2&#45;&gt;Node4 -->
<g id="edge3_Node000002_Node000004" class="edge">
<title>Node2&#45;&gt;Node4</title>
<g id="a_edge3_Node000002_Node000004"><a xlink:title=" ">
<path fill="none" stroke="#63b8ff" d="M145.49,-46.5C136.99,-46.5 128.38,-46.5 120.07,-46.5"/>
<polygon fill="#63b8ff" stroke="#63b8ff" points="145.77,-50 155.77,-46.5 145.77,-43 145.77,-50"/>
</a>
</g>
</g>
<!-- Node5 -->
<g id="Node000005" class="node">
<title>Node5</title>
<g id="a_Node000005"><a xlink:href="classttg__parsec_1_1_t_t.html#a91ff2c4ba25da30a955c5f5a19ec5c89" target="_top" xlink:title=" ">
<polygon fill="white" stroke="#666666" points="114,-19 6,-19 6,0 114,0 114,-19"/>
<text text-anchor="middle" x="60" y="-7" font-family="Times,serif" font-size="10.00">ttg_parsec::TT::TT</text>
</a>
</g>
</g>
<!-- Node2&#45;&gt;Node5 -->
<g id="edge4_Node000002_Node000005" class="edge">
<title>Node2&#45;&gt;Node5</title>
<g id="a_edge4_Node000002_Node000005"><a xlink:title=" ">
<path fill="none" stroke="#63b8ff" d="M145.77,-29.8C130.43,-26.13 114.69,-22.36 101.01,-19.08"/>
<polygon fill="#63b8ff" stroke="#63b8ff" points="145.23,-33.27 155.77,-32.19 146.86,-26.46 145.23,-33.27"/>
</a>
</g>
</g>
</g>
</svg>
