<?xml version="1.0" encoding="UTF-8" standalone="no"?>
<!DOCTYPE svg PUBLIC "-//W3C//DTD SVG 1.1//EN"
 "http://www.w3.org/Graphics/SVG/1.1/DTD/svg11.dtd">
<!-- Generated by graphviz version 2.43.0 (0)
 -->
<!-- Title: ttg::device::Device::is_host Pages: 1 -->
<svg width="743pt" height="584pt"
 viewBox="0.00 0.00 743.00 584.00" xmlns="http://www.w3.org/2000/svg" xmlns:xlink="http://www.w3.org/1999/xlink">
<g id="graph0" class="graph" transform="scale(1 1) rotate(0) translate(4 580)">
<title>ttg::device::Device::is_host</title>
<!-- Node1 -->
<g id="Node000001" class="node">
<title>Node1</title>
<g id="a_Node000001"><a xlink:title=" ">
<polygon fill="#999999" stroke="#666666" points="735,-225 625,-225 625,-195 735,-195 735,-225"/>
<text text-anchor="start" x="633" y="-213" font-family="Times,serif" font-size="10.00">ttg::device::Device</text>
<text text-anchor="middle" x="680" y="-202" font-family="Times,serif" font-size="10.00">::is_host</text>
</a>
</g>
</g>
<!-- Node2 -->
<g id="Node000002" class="node">
<title>Node2</title>
<g id="a_Node000002"><a xlink:href="classttg_1_1device_1_1_device.html#acf0992ecbfbc2c91de0452122b06fe81" target="_top" xlink:title=" ">
<polygon fill="white" stroke="#666666" points="589,-256.5 463,-256.5 463,-237.5 589,-237.5 589,-256.5"/>
<text text-anchor="middle" x="526" y="-244.5" font-family="Times,serif" font-size="10.00">ttg::device::Device::id</text>
</a>
</g>
</g>
<!-- Node1&#45;&gt;Node2 -->
<g id="edge1_Node000001_Node000002" class="edge">
<title>Node1&#45;&gt;Node2</title>
<g id="a_edge1_Node000001_Node000002"><a xlink:title=" ">
<path fill="none" stroke="#63b8ff" d="M615.26,-225.52C598.55,-229.58 581.03,-233.85 566.04,-237.5"/>
<polygon fill="#63b8ff" stroke="#63b8ff" points="616.09,-228.91 624.98,-223.15 614.44,-222.11 616.09,-228.91"/>
</a>
</g>
</g>
<!-- Node5 -->
<g id="Node000005" class="node">
<title>Node5</title>
<g id="a_Node000005"><a xlink:href="namespacettg__parsec_1_1detail.html#a4e193da802fd145fa18041dd40ad7df9" target="_top" xlink:title=" ">
<polygon fill="white" stroke="#666666" points="427,-350.5 298,-350.5 298,-309.5 427,-309.5 427,-350.5"/>
<text text-anchor="start" x="306" y="-338.5" font-family="Times,serif" font-size="10.00">ttg_parsec::detail</text>
<text text-anchor="start" x="306" y="-327.5" font-family="Times,serif" font-size="10.00">::ttg_device_to_parsec</text>
<text text-anchor="middle" x="362.5" y="-316.5" font-family="Times,serif" font-size="10.00">_device</text>
</a>
</g>
</g>
<!-- Node1&#45;&gt;Node5 -->
<g id="edge25_Node000001_Node000005" class="edge">
<title>Node1&#45;&gt;Node5</title>
<g id="a_edge25_Node000001_Node000005"><a xlink:title=" ">
<path fill="none" stroke="#63b8ff" d="M649.64,-230.72C632.56,-242.05 610.27,-255.64 589,-265 536.42,-288.14 473.35,-305.51 427.3,-316.44"/>
<polygon fill="#63b8ff" stroke="#63b8ff" points="651.73,-233.53 658.06,-225.03 647.82,-227.73 651.73,-233.53"/>
</a>
</g>
</g>
<!-- Node16 -->
<g id="Node000016" class="node">
<title>Node16</title>
<g id="a_Node000016"><a xlink:href="classttg_1_1device_1_1_device.html#a40e2fd28be27282a6695d102f7c5fc1a" target="_top" xlink:title=" ">
<polygon fill="white" stroke="#666666" points="581,-182 471,-182 471,-152 581,-152 581,-182"/>
<text text-anchor="start" x="479" y="-170" font-family="Times,serif" font-size="10.00">ttg::device::Device</text>
<text text-anchor="middle" x="526" y="-159" font-family="Times,serif" font-size="10.00">::is_device</text>
</a>
</g>
</g>
<!-- Node1&#45;&gt;Node16 -->
<g id="edge17_Node000001_Node000016" class="edge">
<title>Node1&#45;&gt;Node16</title>
<g id="a_edge17_Node000001_Node000016"><a xlink:title=" ">
<path fill="none" stroke="#63b8ff" d="M615.96,-192.17C604.05,-188.8 591.7,-185.3 580.13,-182.03"/>
<polygon fill="#63b8ff" stroke="#63b8ff" points="615.26,-195.61 625.84,-194.96 617.17,-188.87 615.26,-195.61"/>
</a>
</g>
</g>
<!-- Node20 -->
<g id="Node000020" class="node">
<title>Node20</title>
<g id="a_Node000020"><a xlink:href="structttg__madness_1_1_buffer.html#af4997ff30c86321022cd5b89b4a7cd53" target="_top" xlink:title=" ">
<polygon fill="white" stroke="#666666" points="585.5,-134 466.5,-134 466.5,-104 585.5,-104 585.5,-134"/>
<text text-anchor="start" x="474.5" y="-122" font-family="Times,serif" font-size="10.00">ttg_madness::Buffer</text>
<text text-anchor="middle" x="526" y="-111" font-family="Times,serif" font-size="10.00">::set_current_device</text>
</a>
</g>
</g>
<!-- Node1&#45;&gt;Node20 -->
<g id="edge24_Node000001_Node000020" class="edge">
<title>Node1&#45;&gt;Node20</title>
<g id="a_edge24_Node000001_Node000020"><a xlink:title=" ">
<path fill="none" stroke="#63b8ff" d="M653.74,-188.28C636.37,-174.09 612.3,-155.87 589,-143 583.14,-139.76 576.75,-136.76 570.38,-134.05"/>
<polygon fill="#63b8ff" stroke="#63b8ff" points="651.77,-191.19 661.71,-194.88 656.24,-185.8 651.77,-191.19"/>
</a>
</g>
</g>
<!-- Node3 -->
<g id="Node000003" class="node">
<title>Node3</title>
<g id="a_Node000003"><a xlink:href="classttg_1_1device_1_1_device.html#a5338c49397786a569fe0324b29f48af4" target="_top" xlink:title=" ">
<polygon fill="white" stroke="#666666" points="417.5,-290 307.5,-290 307.5,-260 417.5,-260 417.5,-290"/>
<text text-anchor="start" x="315.5" y="-278" font-family="Times,serif" font-size="10.00">ttg::device::Device</text>
<text text-anchor="middle" x="362.5" y="-267" font-family="Times,serif" font-size="10.00">::operator int</text>
</a>
</g>
</g>
<!-- Node2&#45;&gt;Node3 -->
<g id="edge2_Node000002_Node000003" class="edge">
<title>Node2&#45;&gt;Node3</title>
<g id="a_edge2_Node000002_Node000003"><a xlink:title=" ">
<path fill="none" stroke="#63b8ff" d="M459.8,-258.3C445.78,-260.74 431.1,-263.28 417.56,-265.63"/>
<polygon fill="#63b8ff" stroke="#63b8ff" points="460.62,-261.71 469.87,-256.56 459.42,-254.82 460.62,-261.71"/>
</a>
</g>
</g>
<!-- Node4 -->
<g id="Node000004" class="node">
<title>Node4</title>
<g id="a_Node000004"><a xlink:href="namespacestd.html#a23678c41a80c407b186771df978f2a24" target="_top" xlink:title=" ">
<polygon fill="white" stroke="#666666" points="411.5,-241.5 313.5,-241.5 313.5,-222.5 411.5,-222.5 411.5,-241.5"/>
<text text-anchor="middle" x="362.5" y="-229.5" font-family="Times,serif" font-size="10.00">std::operator&lt;&lt;</text>
</a>
</g>
</g>
<!-- Node2&#45;&gt;Node4 -->
<g id="edge3_Node000002_Node000004" class="edge">
<title>Node2&#45;&gt;Node4</title>
<g id="a_edge3_Node000002_Node000004"><a xlink:title=" ">
<path fill="none" stroke="#63b8ff" d="M452.57,-240.27C438.75,-238.99 424.59,-237.67 411.75,-236.48"/>
<polygon fill="#63b8ff" stroke="#63b8ff" points="452.28,-243.76 462.56,-241.2 452.93,-236.79 452.28,-243.76"/>
</a>
</g>
</g>
<!-- Node2&#45;&gt;Node5 -->
<g id="edge4_Node000002_Node000005" class="edge">
<title>Node2&#45;&gt;Node5</title>
<g id="a_edge4_Node000002_Node000005"><a xlink:title=" ">
<path fill="none" stroke="#63b8ff" d="M498.42,-261.41C478.78,-271.99 451.34,-286.61 427,-299 420.33,-302.4 413.24,-305.93 406.29,-309.35"/>
<polygon fill="#63b8ff" stroke="#63b8ff" points="500.25,-264.4 507.39,-256.57 496.93,-258.24 500.25,-264.4"/>
</a>
</g>
</g>
<!-- Node6 -->
<g id="Node000006" class="node">
<title>Node6</title>
<g id="a_Node000006"><a xlink:href="structttg__parsec_1_1_buffer.html#aa172f84d2b71ad72b065bf2973b47ca4" target="_top" xlink:title=" ">
<polygon fill="white" stroke="#666666" points="107,-439 0,-439 0,-409 107,-409 107,-439"/>
<text text-anchor="start" x="8" y="-427" font-family="Times,serif" font-size="10.00">ttg_parsec::Buffer</text>
<text text-anchor="middle" x="53.5" y="-416" font-family="Times,serif" font-size="10.00">::add_device</text>
</a>
</g>
</g>
<!-- Node5&#45;&gt;Node6 -->
<g id="edge5_Node000005_Node000006" class="edge">
<title>Node5&#45;&gt;Node6</title>
<g id="a_edge5_Node000005_Node000006"><a xlink:title=" ">
<path fill="none" stroke="#63b8ff" d="M347.08,-359.61C330.93,-388.98 301.72,-432.24 262,-451 205.17,-477.84 130.39,-456.08 87.87,-439.14"/>
<polygon fill="#63b8ff" stroke="#63b8ff" points="350.26,-361.08 351.86,-350.61 344.07,-357.8 350.26,-361.08"/>
</a>
</g>
</g>
<!-- Node7 -->
<g id="Node000007" class="node">
<title>Node7</title>
<g id="a_Node000007"><a xlink:href="structttg__parsec_1_1_buffer.html#ac03d171f76a9ebf145bdcc2b991cbf5e" target="_top" xlink:title=" ">
<polygon fill="white" stroke="#666666" points="107,-207 0,-207 0,-177 107,-177 107,-207"/>
<text text-anchor="start" x="8" y="-195" font-family="Times,serif" font-size="10.00">ttg_parsec::Buffer</text>
<text text-anchor="middle" x="53.5" y="-184" font-family="Times,serif" font-size="10.00">::allocate_on</text>
</a>
</g>
</g>
<!-- Node5&#45;&gt;Node7 -->
<g id="edge6_Node000005_Node000007" class="edge">
<title>Node5&#45;&gt;Node7</title>
<g id="a_edge6_Node000005_Node000007"><a xlink:title=" ">
<path fill="none" stroke="#63b8ff" d="M302.29,-303.16C300.79,-301.83 299.35,-300.44 298,-299 269.12,-268.15 295.97,-236.13 262,-211 217.65,-178.19 152.5,-177.73 107.08,-182.72"/>
<polygon fill="#63b8ff" stroke="#63b8ff" points="300.21,-305.98 310.26,-309.33 304.49,-300.44 300.21,-305.98"/>
</a>
</g>
</g>
<!-- Node8 -->
<g id="Node000008" class="node">
<title>Node8</title>
<g id="a_Node000008"><a xlink:href="structttg__parsec_1_1_buffer.html#ad7c9683797b26ee8911ae7cfe4712d50" target="_top" xlink:title=" ">
<polygon fill="white" stroke="#666666" points="262,-346 143,-346 143,-316 262,-316 262,-346"/>
<text text-anchor="start" x="151" y="-334" font-family="Times,serif" font-size="10.00">ttg_parsec::Buffer</text>
<text text-anchor="middle" x="202.5" y="-323" font-family="Times,serif" font-size="10.00">::current_device_ptr</text>
</a>
</g>
</g>
<!-- Node5&#45;&gt;Node8 -->
<g id="edge7_Node000005_Node000008" class="edge">
<title>Node5&#45;&gt;Node8</title>
<g id="a_edge7_Node000005_Node000008"><a xlink:title=" ">
<path fill="none" stroke="#63b8ff" d="M287.43,-330.47C278.96,-330.52 270.41,-330.58 262.19,-330.63"/>
<polygon fill="#63b8ff" stroke="#63b8ff" points="287.71,-333.97 297.69,-330.4 287.67,-326.97 287.71,-333.97"/>
</a>
</g>
</g>
<!-- Node9 -->
<g id="Node000009" class="node">
<title>Node9</title>
<g id="a_Node000009"><a xlink:href="structttg__parsec_1_1_buffer.html#a87cfa2924a1165608d8180337682cdce" target="_top" xlink:title=" ">
<polygon fill="white" stroke="#666666" points="262,-298 143,-298 143,-268 262,-268 262,-298"/>
<text text-anchor="start" x="151" y="-286" font-family="Times,serif" font-size="10.00">ttg_parsec::Buffer</text>
<text text-anchor="middle" x="202.5" y="-275" font-family="Times,serif" font-size="10.00">::current_device_ptr</text>
</a>
</g>
</g>
<!-- Node5&#45;&gt;Node9 -->
<g id="edge8_Node000005_Node000009" class="edge">
<title>Node5&#45;&gt;Node9</title>
<g id="a_edge8_Node000005_Node000009"><a xlink:title=" ">
<path fill="none" stroke="#63b8ff" d="M288.05,-308.15C276.51,-304.72 264.81,-301.24 253.95,-298.01"/>
<polygon fill="#63b8ff" stroke="#63b8ff" points="287.11,-311.52 297.69,-311.02 289.1,-304.81 287.11,-311.52"/>
</a>
</g>
</g>
<!-- Node10 -->
<g id="Node000010" class="node">
<title>Node10</title>
<g id="a_Node000010"><a xlink:href="structttg__parsec_1_1_buffer.html#a75237a0fe188810d1741db8091603c01" target="_top" xlink:title=" ">
<polygon fill="white" stroke="#666666" points="256,-250 149,-250 149,-220 256,-220 256,-250"/>
<text text-anchor="start" x="157" y="-238" font-family="Times,serif" font-size="10.00">ttg_parsec::Buffer</text>
<text text-anchor="middle" x="202.5" y="-227" font-family="Times,serif" font-size="10.00">::device_ptr_on</text>
</a>
</g>
</g>
<!-- Node5&#45;&gt;Node10 -->
<g id="edge9_Node000005_Node000010" class="edge">
<title>Node5&#45;&gt;Node10</title>
<g id="a_edge9_Node000005_Node000010"><a xlink:title=" ">
<path fill="none" stroke="#63b8ff" d="M305.59,-304.28C302.96,-302.59 300.42,-300.82 298,-299 278.9,-284.6 281.55,-272.77 262,-259 257.24,-255.65 251.95,-252.66 246.54,-250.02"/>
<polygon fill="#63b8ff" stroke="#63b8ff" points="303.79,-307.29 314.17,-309.45 307.41,-301.29 303.79,-307.29"/>
</a>
</g>
</g>
<!-- Node11 -->
<g id="Node000011" class="node">
<title>Node11</title>
<g id="a_Node000011"><a xlink:href="structttg__parsec_1_1_buffer.html#a14b779203a13f74eb18077dd76aa2462" target="_top" xlink:title=" ">
<polygon fill="white" stroke="#666666" points="256,-576 149,-576 149,-546 256,-546 256,-576"/>
<text text-anchor="start" x="157" y="-564" font-family="Times,serif" font-size="10.00">ttg_parsec::Buffer</text>
<text text-anchor="middle" x="202.5" y="-553" font-family="Times,serif" font-size="10.00">::device_ptr_on</text>
</a>
</g>
</g>
<!-- Node5&#45;&gt;Node11 -->
<g id="edge10_Node000005_Node000011" class="edge">
<title>Node5&#45;&gt;Node11</title>
<g id="a_edge10_Node000005_Node000011"><a xlink:title=" ">
<path fill="none" stroke="#63b8ff" d="M354.31,-360.49C342.36,-404.94 314.37,-487.62 262,-537 258.41,-540.39 254.27,-543.33 249.89,-545.87"/>
<polygon fill="#63b8ff" stroke="#63b8ff" points="357.76,-361.13 356.88,-350.57 350.98,-359.37 357.76,-361.13"/>
</a>
</g>
</g>
<!-- Node12 -->
<g id="Node000012" class="node">
<title>Node12</title>
<g id="a_Node000012"><a xlink:href="structttg__parsec_1_1_buffer.html#ab9c2dbfb2165d1beebdf4c2d3a18d937" target="_top" xlink:title=" ">
<polygon fill="white" stroke="#666666" points="256,-528 149,-528 149,-498 256,-498 256,-528"/>
<text text-anchor="start" x="157" y="-516" font-family="Times,serif" font-size="10.00">ttg_parsec::Buffer</text>
<text text-anchor="middle" x="202.5" y="-505" font-family="Times,serif" font-size="10.00">::is_current_on</text>
</a>
</g>
</g>
<!-- Node5&#45;&gt;Node12 -->
<g id="edge11_Node000005_Node000012" class="edge">
<title>Node5&#45;&gt;Node12</title>
<g id="a_edge11_Node000005_Node000012"><a xlink:title=" ">
<path fill="none" stroke="#63b8ff" d="M348.17,-360.05C331.92,-393.84 301.66,-448.6 262,-484 256,-489.36 248.82,-493.98 241.59,-497.85"/>
<polygon fill="#63b8ff" stroke="#63b8ff" points="351.48,-361.24 352.56,-350.7 345.14,-358.26 351.48,-361.24"/>
</a>
</g>
</g>
<!-- Node13 -->
<g id="Node000013" class="node">
<title>Node13</title>
<g id="a_Node000013"><a xlink:href="structttg__parsec_1_1_buffer.html#a57dc7b47c838715a12d2a59fb3d82b76" target="_top" xlink:title=" ">
<polygon fill="white" stroke="#666666" points="256,-394 149,-394 149,-364 256,-364 256,-394"/>
<text text-anchor="start" x="157" y="-382" font-family="Times,serif" font-size="10.00">ttg_parsec::Buffer</text>
<text text-anchor="middle" x="202.5" y="-371" font-family="Times,serif" font-size="10.00">::is_valid_on</text>
</a>
</g>
</g>
<!-- Node5&#45;&gt;Node13 -->
<g id="edge12_Node000005_Node000013" class="edge">
<title>Node5&#45;&gt;Node13</title>
<g id="a_edge12_Node000005_Node000013"><a xlink:title=" ">
<path fill="none" stroke="#63b8ff" d="M287.96,-352.81C275.75,-356.59 263.37,-360.43 251.99,-363.96"/>
<polygon fill="#63b8ff" stroke="#63b8ff" points="289.18,-356.09 297.69,-349.79 287.1,-349.41 289.18,-356.09"/>
</a>
</g>
</g>
<!-- Node14 -->
<g id="Node000014" class="node">
<title>Node14</title>
<g id="a_Node000014"><a xlink:href="structttg__parsec_1_1_buffer.html#a17ee629839b81f7e11adf24164f3116b" target="_top" xlink:title=" ">
<polygon fill="white" stroke="#666666" points="256,-164 149,-164 149,-134 256,-134 256,-164"/>
<text text-anchor="start" x="157" y="-152" font-family="Times,serif" font-size="10.00">ttg_parsec::Buffer</text>
<text text-anchor="middle" x="202.5" y="-141" font-family="Times,serif" font-size="10.00">::prefer_device</text>
</a>
</g>
</g>
<!-- Node5&#45;&gt;Node14 -->
<g id="edge15_Node000005_Node000014" class="edge">
<title>Node5&#45;&gt;Node14</title>
<g id="a_edge15_Node000005_Node000014"><a xlink:title=" ">
<path fill="none" stroke="#63b8ff" d="M301.64,-302.89C300.36,-301.65 299.14,-300.35 298,-299 261.73,-256.19 298.14,-220.92 262,-178 257.33,-172.45 251.33,-167.86 244.97,-164.1"/>
<polygon fill="#63b8ff" stroke="#63b8ff" points="299.62,-305.77 309.55,-309.47 304.1,-300.39 299.62,-305.77"/>
</a>
</g>
</g>
<!-- Node15 -->
<g id="Node000015" class="node">
<title>Node15</title>
<g id="a_Node000015"><a xlink:href="structttg__parsec_1_1_buffer.html#ace745d5a5d55e60bde6b8a09b138192d" target="_top" xlink:title=" ">
<polygon fill="white" stroke="#666666" points="259,-442 146,-442 146,-412 259,-412 259,-442"/>
<text text-anchor="start" x="154" y="-430" font-family="Times,serif" font-size="10.00">ttg_parsec::Buffer</text>
<text text-anchor="middle" x="202.5" y="-419" font-family="Times,serif" font-size="10.00">::set_owner_device</text>
</a>
</g>
</g>
<!-- Node5&#45;&gt;Node15 -->
<g id="edge16_Node000005_Node000015" class="edge">
<title>Node5&#45;&gt;Node15</title>
<g id="a_edge16_Node000005_Node000015"><a xlink:title=" ">
<path fill="none" stroke="#63b8ff" d="M328.94,-357.03C310.14,-371.82 285.6,-389.76 262,-403 256.35,-406.17 250.2,-409.15 244.07,-411.87"/>
<polygon fill="#63b8ff" stroke="#63b8ff" points="331.24,-359.67 336.88,-350.7 326.88,-354.19 331.24,-359.67"/>
</a>
</g>
</g>
<!-- Node13&#45;&gt;Node6 -->
<g id="edge13_Node000013_Node000006" class="edge">
<title>Node13&#45;&gt;Node6</title>
<g id="a_edge13_Node000013_Node000006"><a xlink:title=" ">
<path fill="none" stroke="#63b8ff" d="M142.46,-397.07C129.61,-401.01 116.15,-405.13 103.73,-408.93"/>
<polygon fill="#63b8ff" stroke="#63b8ff" points="143.6,-400.38 152.14,-394.11 141.56,-393.69 143.6,-400.38"/>
</a>
</g>
</g>
<!-- Node13&#45;&gt;Node7 -->
<g id="edge14_Node000013_Node000007" class="edge">
<title>Node13&#45;&gt;Node7</title>
<g id="a_edge14_Node000013_Node000007"><a xlink:title=" ">
<path fill="none" stroke="#63b8ff" d="M147.05,-358.33C145.65,-357.27 144.29,-356.16 143,-355 95.79,-312.63 68.83,-238.95 58.91,-207.23"/>
<polygon fill="#63b8ff" stroke="#63b8ff" points="145.28,-361.35 155.57,-363.85 149.09,-355.47 145.28,-361.35"/>
</a>
</g>
</g>
<!-- Node16&#45;&gt;Node4 -->
<g id="edge22_Node000016_Node000004" class="edge">
<title>Node16&#45;&gt;Node4</title>
<g id="a_edge22_Node000016_Node000004"><a xlink:title=" ">
<path fill="none" stroke="#63b8ff" d="M486.92,-186.48C469,-195.23 447.19,-205.29 427,-213 417.97,-216.45 408.03,-219.68 398.75,-222.46"/>
<polygon fill="#63b8ff" stroke="#63b8ff" points="488.48,-189.61 495.9,-182.05 485.39,-183.34 488.48,-189.61"/>
</a>
</g>
</g>
<!-- Node16&#45;&gt;Node7 -->
<g id="edge18_Node000016_Node000007" class="edge">
<title>Node16&#45;&gt;Node7</title>
<g id="a_edge18_Node000016_Node000007"><a xlink:title=" ">
<path fill="none" stroke="#63b8ff" d="M476.06,-148.64C401.98,-123.71 257.86,-86.43 143,-125 112.67,-135.18 84.47,-160.33 68.38,-176.76"/>
<polygon fill="#63b8ff" stroke="#63b8ff" points="475.01,-151.98 485.6,-151.92 477.28,-145.36 475.01,-151.98"/>
</a>
</g>
</g>
<!-- Node16&#45;&gt;Node14 -->
<g id="edge23_Node000016_Node000014" class="edge">
<title>Node16&#45;&gt;Node14</title>
<g id="a_edge23_Node000016_Node000014"><a xlink:title=" ">
<path fill="none" stroke="#63b8ff" d="M460.69,-163.4C400.6,-160.04 311.98,-155.07 256.03,-151.94"/>
<polygon fill="#63b8ff" stroke="#63b8ff" points="460.65,-166.9 470.83,-163.97 461.04,-159.91 460.65,-166.9"/>
</a>
</g>
</g>
<!-- Node17 -->
<g id="Node000017" class="node">
<title>Node17</title>
<g id="a_Node000017"><a xlink:href="structttg__madness_1_1_buffer.html#a9c3e638035902bf7709eb0515132f1cb" target="_top" xlink:title=" ">
<polygon fill="white" stroke="#666666" points="422,-78 303,-78 303,-48 422,-48 422,-78"/>
<text text-anchor="start" x="311" y="-66" font-family="Times,serif" font-size="10.00">ttg_madness::Buffer</text>
<text text-anchor="middle" x="362.5" y="-55" font-family="Times,serif" font-size="10.00">::device_ptr_on</text>
</a>
</g>
</g>
<!-- Node16&#45;&gt;Node17 -->
<g id="edge19_Node000016_Node000017" class="edge">
<title>Node16&#45;&gt;Node17</title>
<g id="a_edge19_Node000016_Node000017"><a xlink:title=" ">
<path fill="none" stroke="#63b8ff" d="M468.57,-146.94C466.64,-145.7 464.77,-144.38 463,-143 441.13,-125.93 448.36,-109.71 427,-92 420.47,-86.58 412.76,-81.96 405.01,-78.11"/>
<polygon fill="#63b8ff" stroke="#63b8ff" points="466.95,-150.05 477.37,-151.97 470.42,-143.97 466.95,-150.05"/>
</a>
</g>
</g>
<!-- Node18 -->
<g id="Node000018" class="node">
<title>Node18</title>
<g id="a_Node000018"><a xlink:href="structttg__madness_1_1_buffer.html#a96481342b1b51b6bb9a0227d0010685c" target="_top" xlink:title=" ">
<polygon fill="white" stroke="#666666" points="422,-30 303,-30 303,0 422,0 422,-30"/>
<text text-anchor="start" x="311" y="-18" font-family="Times,serif" font-size="10.00">ttg_madness::Buffer</text>
<text text-anchor="middle" x="362.5" y="-7" font-family="Times,serif" font-size="10.00">::device_ptr_on</text>
</a>
</g>
</g>
<!-- Node16&#45;&gt;Node18 -->
<g id="edge20_Node000016_Node000018" class="edge">
<title>Node16&#45;&gt;Node18</title>
<g id="a_edge20_Node000016_Node000018"><a xlink:title=" ">
<path fill="none" stroke="#63b8ff" d="M465.89,-145.76C464.89,-144.88 463.92,-143.96 463,-143 429.04,-107.79 461.1,-74.07 427,-39 423.63,-35.54 419.71,-32.57 415.51,-30.02"/>
<polygon fill="#63b8ff" stroke="#63b8ff" points="464.08,-148.77 474.21,-151.86 468.21,-143.12 464.08,-148.77"/>
</a>
</g>
</g>
<!-- Node19 -->
<g id="Node000019" class="node">
<title>Node19</title>
<g id="a_Node000019"><a xlink:href="structttg__madness_1_1_buffer.html#ab856ca462a43f94b61ca8bc4d345383b" target="_top" xlink:title=" ">
<polygon fill="white" stroke="#666666" points="422,-204 303,-204 303,-174 422,-174 422,-204"/>
<text text-anchor="start" x="311" y="-192" font-family="Times,serif" font-size="10.00">ttg_madness::Buffer</text>
<text text-anchor="middle" x="362.5" y="-181" font-family="Times,serif" font-size="10.00">::is_valid_on</text>
</a>
</g>
</g>
<!-- Node16&#45;&gt;Node19 -->
<g id="edge21_Node000016_Node000019" class="edge">
<title>Node16&#45;&gt;Node19</title>
<g id="a_edge21_Node000016_Node000019"><a xlink:title=" ">
<path fill="none" stroke="#63b8ff" d="M460.68,-175.76C447.92,-177.5 434.58,-179.32 422.02,-181.03"/>
<polygon fill="#63b8ff" stroke="#63b8ff" points="461.34,-179.2 470.77,-174.39 460.39,-172.27 461.34,-179.2"/>
</a>
</g>
</g>
</g>
</svg>
