<?xml version="1.0" encoding="UTF-8" standalone="no"?>
<!DOCTYPE svg PUBLIC "-//W3C//DTD SVG 1.1//EN"
 "http://www.w3.org/Graphics/SVG/1.1/DTD/svg11.dtd">
<!-- Generated by graphviz version 2.43.0 (0)
 -->
<!-- Title: ttg_parsec::TT::broadcast_arg Pages: 1 -->
<!--zoomable 237 -->

<svg id="main" version="1.1" xmlns="http://www.w3.org/2000/svg" xmlns:xlink="http://www.w3.org/1999/xlink" xml:space="preserve" onload="init(evt)">
<style type="text/css"><![CDATA[
.node, .edge {opacity: 0.7;}
.node.selected, .edge.selected {opacity: 1;}
.edge:hover path { stroke: red; }
.edge:hover polygon { stroke: red; fill: red; }
]]></style>

<defs>
  <circle id="rim" cx="0" cy="0" r="7"/>
  <circle id="rim2" cx="0" cy="0" r="3.5"/>
  <g id="zoomPlus">
    <use xlink:href="#rim" fill="#404040"><set attributeName="fill" to="#808080" begin="zoomplus.mouseover" end="zoomplus.mouseout"/></use>
    <path d="M-4,0h8M0,-4v8" fill="none" stroke="white" stroke-width="1.5" pointer-events="none"/>
  </g>
  <g id="zoomMin">
    <use xlink:href="#rim" fill="#404040"><set attributeName="fill" to="#808080" begin="zoomminus.mouseover" end="zoomminus.mouseout"/></use>
    <path d="M-4,0h8" fill="none" stroke="white" stroke-width="1.5" pointer-events="none"/>
  </g>
  <g id="arrowUp" transform="translate(30 24)">
    <use xlink:href="#rim"/>
    <path pointer-events="none" fill="none" stroke="white" stroke-width="1.5" d="M0,-3.0v7 M-2.5,-0.5L0,-3.0L2.5,-0.5"/>
  </g>
  <g id="arrowRight" transform="rotate(90) translate(36 -43)">
    <use xlink:href="#rim"/>
    <path pointer-events="none" fill="none" stroke="white" stroke-width="1.5" d="M0,-3.0v7 M-2.5,-0.5L0,-3.0L2.5,-0.5"/>
  </g>
  <g id="arrowDown" transform="rotate(180) translate(-30 -48)">
    <use xlink:href="#rim"/>
    <path pointer-events="none" fill="none" stroke="white" stroke-width="1.5" d="M0,-3.0v7 M-2.5,-0.5L0,-3.0L2.5,-0.5"/>
  </g>
  <g id="arrowLeft" transform="rotate(270) translate(-36 17)">
    <use xlink:href="#rim"/>
    <path pointer-events="none" fill="none" stroke="white" stroke-width="1.5" d="M0,-3.0v7 M-2.5,-0.5L0,-3.0L2.5,-0.5"/>
  </g>
  <g id="resetDef">
    <use xlink:href="#rim2" fill="#404040"><set attributeName="fill" to="#808080" begin="reset.mouseover" end="reset.mouseout"/></use>
  </g>
</defs>
<script type="application/ecmascript">
var viewWidth = 810;
var viewHeight = 237;
var sectionId = 'dynsection-11';
</script>
<script type="application/ecmascript" xlink:href="svg.min.js"/>
<svg id="graph" class="graph">
<g id="viewport">
<title>ttg_parsec::TT::broadcast_arg</title>
<!-- Node1 -->
<g id="Node000001" class="node">
<title>Node1</title>
<g id="a_Node000001"><a xlink:title=" ">
<polygon fill="#999999" stroke="#666666" points="167,-126.5 0,-126.5 0,-107.5 167,-107.5 167,-126.5"/>
<text text-anchor="middle" x="83.5" y="-114.5" font-family="Times,serif" font-size="10.00">ttg_parsec::TT::broadcast_arg</text>
</a>
</g>
</g>
<!-- Node2 -->
<g id="Node000002" class="node">
<title>Node2</title>
<g id="a_Node000002"><a xlink:href="classttg__parsec_1_1_t_t.html#a620e641c7024e14437f199e475f92db6" target="_top" xlink:title=" ">
<polygon fill="white" stroke="#666666" points="340,-154 227,-154 227,-124 340,-124 340,-154"/>
<text text-anchor="start" x="235" y="-142" font-family="Times,serif" font-size="10.00">ttg_parsec::TT::can</text>
<text text-anchor="middle" x="283.5" y="-131" font-family="Times,serif" font-size="10.00">_inline_data</text>
</a>
</g>
</g>
<!-- Node1&#45;&gt;Node2 -->
<g id="edge1_Node000001_Node000002" class="edge">
<title>Node1&#45;&gt;Node2</title>
<g id="a_edge1_Node000001_Node000002"><a xlink:title=" ">
<path fill="none" stroke="#63b8ff" d="M167.04,-126.17C183.57,-128.01 200.74,-129.92 216.63,-131.68"/>
<polygon fill="#63b8ff" stroke="#63b8ff" points="216.53,-135.19 226.86,-132.82 217.31,-128.23 216.53,-135.19"/>
</a>
</g>
</g>
<!-- Node4 -->
<g id="Node000004" class="node">
<title>Node4</title>
<g id="a_Node000004"><a xlink:href="classttg__parsec_1_1_t_t.html#aab59a1bf0fcc4f771457b5f05cb42741" target="_top" xlink:title=" ">
<polygon fill="white" stroke="#666666" points="681,-165.5 570,-165.5 570,-146.5 681,-146.5 681,-165.5"/>
<text text-anchor="middle" x="625.5" y="-153.5" font-family="Times,serif" font-size="10.00">ttg_parsec::TT::get</text>
</a>
</g>
</g>
<!-- Node1&#45;&gt;Node4 -->
<g id="edge12_Node000001_Node000004" class="edge">
<title>Node1&#45;&gt;Node4</title>
<g id="a_edge12_Node000001_Node000004"><a xlink:title=" ">
<path fill="none" stroke="#63b8ff" d="M96.76,-126.75C117.33,-142.52 160.74,-173.24 203,-187 343.11,-232.63 391.31,-242.79 534,-206 559.75,-199.36 586.01,-183.65 603.57,-171.6"/>
<polygon fill="#63b8ff" stroke="#63b8ff" points="605.76,-174.34 611.9,-165.7 601.72,-168.62 605.76,-174.34"/>
</a>
</g>
</g>
<!-- Node5 -->
<g id="Node000005" class="node">
<title>Node5</title>
<g id="a_Node000005"><a xlink:href="namespacettg__parsec_1_1detail.html#a4daca8ffc2e91c825340381688737ff0" target="_top" xlink:title=" ">
<polygon fill="white" stroke="#666666" points="531,-73 403,-73 403,-43 531,-43 531,-73"/>
<text text-anchor="start" x="411" y="-61" font-family="Times,serif" font-size="10.00">ttg_parsec::detail</text>
<text text-anchor="middle" x="467" y="-50" font-family="Times,serif" font-size="10.00">::foreach_parsec_data</text>
</a>
</g>
</g>
<!-- Node1&#45;&gt;Node5 -->
<g id="edge11_Node000001_Node000005" class="edge">
<title>Node1&#45;&gt;Node5</title>
<g id="a_edge11_Node000001_Node000005"><a xlink:title=" ">
<path fill="none" stroke="#63b8ff" d="M108.1,-107.35C131.7,-98.15 169.23,-84.74 203,-78 266.39,-65.35 339.83,-60.57 392.97,-58.83"/>
<polygon fill="#63b8ff" stroke="#63b8ff" points="393.09,-62.33 402.98,-58.53 392.88,-55.33 393.09,-62.33"/>
</a>
</g>
</g>
<!-- Node9 -->
<g id="Node000009" class="node">
<title>Node9</title>
<g id="a_Node000009"><a xlink:href="classttg_1_1_t_t_base.html#a48f582b0eab8579283383f8d4937db09" target="_top" xlink:title=" ">
<polygon fill="white" stroke="#666666" points="364,-105.5 203,-105.5 203,-86.5 364,-86.5 364,-105.5"/>
<text text-anchor="middle" x="283.5" y="-93.5" font-family="Times,serif" font-size="10.00">ttg::TTBase::get_instance_id</text>
</a>
</g>
</g>
<!-- Node1&#45;&gt;Node9 -->
<g id="edge13_Node000001_Node000009" class="edge">
<title>Node1&#45;&gt;Node9</title>
<g id="a_edge13_Node000001_Node000009"><a xlink:title=" ">
<path fill="none" stroke="#63b8ff" d="M167.04,-108.25C175.58,-107.34 184.29,-106.42 192.9,-105.5"/>
<polygon fill="#63b8ff" stroke="#63b8ff" points="193.38,-108.97 202.96,-104.44 192.64,-102.01 193.38,-108.97"/>
</a>
</g>
</g>
<!-- Node10 -->
<g id="Node000010" class="node">
<title>Node10</title>
<g id="a_Node000010"><a xlink:href="classttg__parsec_1_1_t_t.html#a0cf122dbfbf60d1092c6beed7bd89597" target="_top" xlink:title=" ">
<polygon fill="white" stroke="#666666" points="526.5,-196.5 407.5,-196.5 407.5,-177.5 526.5,-177.5 526.5,-196.5"/>
<text text-anchor="middle" x="467" y="-184.5" font-family="Times,serif" font-size="10.00">ttg_parsec::TT::pack</text>
</a>
</g>
</g>
<!-- Node1&#45;&gt;Node10 -->
<g id="edge14_Node000001_Node000010" class="edge">
<title>Node1&#45;&gt;Node10</title>
<g id="a_edge14_Node000001_Node000010"><a xlink:title=" ">
<path fill="none" stroke="#63b8ff" d="M104.09,-126.57C127.15,-137.36 166.91,-154.52 203,-163 267.79,-178.21 343.65,-183.89 397.21,-185.95"/>
<polygon fill="#63b8ff" stroke="#63b8ff" points="397.16,-189.45 407.28,-186.31 397.41,-182.46 397.16,-189.45"/>
</a>
</g>
</g>
<!-- Node11 -->
<g id="Node000011" class="node">
<title>Node11</title>
<g id="a_Node000011"><a xlink:href="namespacettg__parsec.html#ae1b91b1ff1edc3fbc1e7e07d6c659c17" target="_top" xlink:title=" ">
<polygon fill="white" stroke="#666666" points="349,-30 218,-30 218,0 349,0 349,-30"/>
<text text-anchor="start" x="226" y="-18" font-family="Times,serif" font-size="10.00">ttg_parsec::ttg_default</text>
<text text-anchor="middle" x="283.5" y="-7" font-family="Times,serif" font-size="10.00">_execution_context</text>
</a>
</g>
</g>
<!-- Node1&#45;&gt;Node11 -->
<g id="edge16_Node000001_Node000011" class="edge">
<title>Node1&#45;&gt;Node11</title>
<g id="a_edge16_Node000001_Node000011"><a xlink:title=" ">
<path fill="none" stroke="#63b8ff" d="M98.2,-107.28C119.75,-92.29 163.2,-63.27 203,-44 210.6,-40.32 218.8,-36.83 226.94,-33.63"/>
<polygon fill="#63b8ff" stroke="#63b8ff" points="228.34,-36.84 236.44,-30.01 225.85,-30.3 228.34,-36.84"/>
</a>
</g>
</g>
<!-- Node3 -->
<g id="Node000003" class="node">
<title>Node3</title>
<g id="a_Node000003"><a xlink:href="classttg__parsec_1_1_t_t.html#a89c25faa20dde0b3d613c87d1970cde2" target="_top" xlink:title=" ">
<polygon fill="white" stroke="#666666" points="534,-159 400,-159 400,-129 534,-129 534,-159"/>
<text text-anchor="start" x="408" y="-147" font-family="Times,serif" font-size="10.00">ttg_parsec::TT::derived</text>
<text text-anchor="middle" x="467" y="-136" font-family="Times,serif" font-size="10.00">_has_device_op</text>
</a>
</g>
</g>
<!-- Node2&#45;&gt;Node3 -->
<g id="edge2_Node000002_Node000003" class="edge">
<title>Node2&#45;&gt;Node3</title>
<g id="a_edge2_Node000002_Node000003"><a xlink:title=" ">
<path fill="none" stroke="#63b8ff" d="M340.44,-140.54C355.96,-140.97 373.09,-141.44 389.57,-141.89"/>
<polygon fill="#63b8ff" stroke="#63b8ff" points="389.64,-145.4 399.73,-142.17 389.83,-138.4 389.64,-145.4"/>
</a>
</g>
</g>
<!-- Node2&#45;&gt;Node4 -->
<g id="edge10_Node000002_Node000004" class="edge">
<title>Node2&#45;&gt;Node4</title>
<g id="a_edge10_Node000002_Node000004"><a xlink:title=" ">
<path fill="none" stroke="#63b8ff" d="M340.47,-126.36C391.35,-116.84 468.3,-107.41 534,-120 556.14,-124.24 579.76,-133.83 597.32,-142.04"/>
<polygon fill="#63b8ff" stroke="#63b8ff" points="595.88,-145.23 606.4,-146.42 598.92,-138.93 595.88,-145.23"/>
</a>
</g>
</g>
<!-- Node2&#45;&gt;Node5 -->
<g id="edge5_Node000002_Node000005" class="edge">
<title>Node2&#45;&gt;Node5</title>
<g id="a_edge5_Node000002_Node000005"><a xlink:title=" ">
<path fill="none" stroke="#63b8ff" d="M340.28,-125.03C348.43,-122.17 356.57,-118.84 364,-115 382.01,-105.69 382.59,-97.38 400,-87 405.78,-83.56 412.04,-80.28 418.33,-77.25"/>
<polygon fill="#63b8ff" stroke="#63b8ff" points="419.9,-80.38 427.5,-73 416.96,-74.03 419.9,-80.38"/>
</a>
</g>
</g>
<!-- Node3&#45;&gt;Node4 -->
<g id="edge3_Node000003_Node000004" class="edge">
<title>Node3&#45;&gt;Node4</title>
<g id="a_edge3_Node000003_Node000004"><a xlink:title=" ">
<path fill="none" stroke="#63b8ff" d="M534.37,-149.09C542.78,-149.73 551.38,-150.39 559.76,-151.04"/>
<polygon fill="#63b8ff" stroke="#63b8ff" points="559.62,-154.54 569.86,-151.81 560.15,-147.56 559.62,-154.54"/>
</a>
</g>
</g>
<!-- Node4&#45;&gt;Node4 -->
<g id="edge4_Node000004_Node000004" class="edge">
<title>Node4&#45;&gt;Node4</title>
<g id="a_edge4_Node000004_Node000004"><a xlink:title=" ">
<path fill="none" stroke="#63b8ff" d="M604.85,-165.58C594.8,-174.23 601.68,-183.5 625.5,-183.5 640.76,-183.5 649.07,-179.7 650.43,-174.69"/>
<polygon fill="#63b8ff" stroke="#63b8ff" points="653.57,-173.15 646.15,-165.58 647.23,-176.12 653.57,-173.15"/>
</a>
</g>
</g>
<!-- Node6 -->
<g id="Node000006" class="node">
<title>Node6</title>
<g id="a_Node000006"><a xlink:href="namespacettg_1_1detail.html#ad277a8a8c9831a5cbdc938a5a1504f62" target="_top" xlink:title=" ">
<polygon fill="white" stroke="#666666" points="676.5,-109 574.5,-109 574.5,-79 676.5,-79 676.5,-109"/>
<text text-anchor="start" x="582.5" y="-97" font-family="Times,serif" font-size="10.00">ttg::detail::buffer</text>
<text text-anchor="middle" x="625.5" y="-86" font-family="Times,serif" font-size="10.00">_apply</text>
</a>
</g>
</g>
<!-- Node5&#45;&gt;Node6 -->
<g id="edge6_Node000005_Node000006" class="edge">
<title>Node5&#45;&gt;Node6</title>
<g id="a_edge6_Node000005_Node000006"><a xlink:title=" ">
<path fill="none" stroke="#63b8ff" d="M531.2,-72.54C542.12,-75.05 553.43,-77.65 564.26,-80.14"/>
<polygon fill="#63b8ff" stroke="#63b8ff" points="563.52,-83.56 574.05,-82.39 565.09,-76.74 563.52,-83.56"/>
</a>
</g>
</g>
<!-- Node8 -->
<g id="Node000008" class="node">
<title>Node8</title>
<g id="a_Node000008"><a xlink:href="namespacettg__parsec_1_1detail.html#ad37e220fbc05d0a62b08a94964480f0a" target="_top" xlink:title=" ">
<polygon fill="white" stroke="#666666" points="678.5,-61 572.5,-61 572.5,-31 678.5,-31 678.5,-61"/>
<text text-anchor="start" x="580.5" y="-49" font-family="Times,serif" font-size="10.00">ttg_parsec::detail</text>
<text text-anchor="middle" x="625.5" y="-38" font-family="Times,serif" font-size="10.00">::get_parsec_data</text>
</a>
</g>
</g>
<!-- Node5&#45;&gt;Node8 -->
<g id="edge9_Node000005_Node000008" class="edge">
<title>Node5&#45;&gt;Node8</title>
<g id="a_edge9_Node000005_Node000008"><a xlink:title=" ">
<path fill="none" stroke="#63b8ff" d="M531.2,-53.15C541.38,-52.37 551.92,-51.57 562.08,-50.79"/>
<polygon fill="#63b8ff" stroke="#63b8ff" points="562.39,-54.27 572.09,-50.02 561.85,-47.29 562.39,-54.27"/>
</a>
</g>
</g>
<!-- Node7 -->
<g id="Node000007" class="node">
<title>Node7</title>
<g id="a_Node000007"><a xlink:href="namespacettg_1_1meta.html#affd90f350d054c6a5b4859644d834172" target="_top" xlink:title=" ">
<polygon fill="white" stroke="#666666" points="802,-103.5 717,-103.5 717,-84.5 802,-84.5 802,-103.5"/>
<text text-anchor="middle" x="759.5" y="-91.5" font-family="Times,serif" font-size="10.00">ttg::meta::get</text>
</a>
</g>
</g>
<!-- Node6&#45;&gt;Node7 -->
<g id="edge7_Node000006_Node000007" class="edge">
<title>Node6&#45;&gt;Node7</title>
<g id="a_edge7_Node000006_Node000007"><a xlink:title=" ">
<path fill="none" stroke="#63b8ff" d="M676.78,-94C686.62,-94 696.96,-94 706.84,-94"/>
<polygon fill="#63b8ff" stroke="#63b8ff" points="706.94,-97.5 716.94,-94 706.94,-90.5 706.94,-97.5"/>
</a>
</g>
</g>
<!-- Node7&#45;&gt;Node7 -->
<g id="edge8_Node000007_Node000007" class="edge">
<title>Node7&#45;&gt;Node7</title>
<g id="a_edge8_Node000007_Node000007"><a xlink:title=" ">
<path fill="none" stroke="#63b8ff" d="M738.85,-103.58C728.8,-112.23 735.68,-121.5 759.5,-121.5 774.76,-121.5 783.07,-117.7 784.43,-112.69"/>
<polygon fill="#63b8ff" stroke="#63b8ff" points="787.57,-111.15 780.15,-103.58 781.23,-114.12 787.57,-111.15"/>
</a>
</g>
</g>
<!-- Node10&#45;&gt;Node4 -->
<g id="edge15_Node000010_Node000004" class="edge">
<title>Node10&#45;&gt;Node4</title>
<g id="a_edge15_Node000010_Node000004"><a xlink:title=" ">
<path fill="none" stroke="#63b8ff" d="M516.23,-177.45C532.07,-174.31 549.85,-170.79 566.35,-167.52"/>
<polygon fill="#63b8ff" stroke="#63b8ff" points="567.3,-170.9 576.43,-165.52 565.94,-164.03 567.3,-170.9"/>
</a>
</g>
</g>
<!-- Node12 -->
<g id="Node000012" class="node">
<title>Node12</title>
<g id="a_Node000012"><a xlink:href="namespacettg.html#a5829b255a41f2e47fa0e27bb5c791824" target="_top" xlink:title=" ">
<polygon fill="white" stroke="#666666" points="531,-24.5 403,-24.5 403,-5.5 531,-5.5 531,-24.5"/>
<text text-anchor="middle" x="467" y="-12.5" font-family="Times,serif" font-size="10.00">ttg::get_default_world</text>
</a>
</g>
</g>
<!-- Node11&#45;&gt;Node12 -->
<g id="edge17_Node000011_Node000012" class="edge">
<title>Node11&#45;&gt;Node12</title>
<g id="a_edge17_Node000011_Node000012"><a xlink:title=" ">
<path fill="none" stroke="#63b8ff" d="M349,-15C363.1,-15 378.13,-15 392.55,-15"/>
<polygon fill="#63b8ff" stroke="#63b8ff" points="392.93,-18.5 402.93,-15 392.93,-11.5 392.93,-18.5"/>
</a>
</g>
</g>
</g>
</svg>

<g id="navigator" transform="translate(0 0)" fill="#404254">
  <rect fill="#f2f5e9" fill-opacity="0.5" stroke="#606060" stroke-width=".5" x="0" y="0" width="60" height="60"/>
  <use id="zoomplus" xlink:href="#zoomPlus" x="17" y="9" onmousedown="handleZoom(evt,'in')"/>
  <use id="zoomminus" xlink:href="#zoomMin" x="42" y="9" onmousedown="handleZoom(evt,'out')"/>
  <use id="reset" xlink:href="#resetDef" x="30" y="36" onmousedown="handleReset()"/>
   <use id="arrowup" xlink:href="#arrowUp" x="0" y="0" onmousedown="handlePan(0,-1)"/>
  <use id="arrowright" xlink:href="#arrowRight" x="0" y="0" onmousedown="handlePan(1,0)"/>
  <use id="arrowdown" xlink:href="#arrowDown" x="0" y="0" onmousedown="handlePan(0,1)"/>
  <use id="arrowleft" xlink:href="#arrowLeft" x="0" y="0" onmousedown="handlePan(-1,0)"/>
</g>
<svg viewBox="0 0 15 15" width="100%" height="30px" preserveAspectRatio="xMaxYMin meet">
 <g id="arrow_out" transform="scale(0.3 0.3)">
  <a xlink:href="classttg__parsec_1_1_t_t_ab267d50d29a8a845a5578f67d6c75f2a_cgraph_org.svg" target="_base">
   <rect id="button" ry="5" rx="5" y="6" x="6" height="38" width="38"
        fill="#f2f5e9" fill-opacity="0.5" stroke="#606060" stroke-width="1.0"/>
   <path id="arrow"
     d="M 11.500037,31.436501 C 11.940474,20.09759 22.043105,11.32322 32.158766,21.979434 L 37.068811,17.246167 C 37.068811,17.246167 37.088388,32 37.088388,32 L 22.160133,31.978069 C 22.160133,31.978069 26.997745,27.140456 26.997745,27.140456 C 18.528582,18.264221 13.291696,25.230495 11.500037,31.436501 z"
     style="fill:#404040;"/>
  </a>
 </g>
</svg>

<style type='text/css'>
<![CDATA[
[data-mouse-over-selected='false'] { opacity: 0.7; }
[data-mouse-over-selected='true']  { opacity: 1.0; }
]]>
</style>
<script type="application/ecmascript"><![CDATA[
document.addEventListener('DOMContentLoaded', (event) => {
  highlightEdges();
  highlightAdjacentNodes();
});
]]></script>
</svg>
