<?xml version="1.0" encoding="UTF-8" standalone="no"?>
<!DOCTYPE svg PUBLIC "-//W3C//DTD SVG 1.1//EN"
 "http://www.w3.org/Graphics/SVG/1.1/DTD/svg11.dtd">
<!-- Generated by graphviz version 2.43.0 (0)
 -->
<!-- Title: CallableWrapTT::process_return Pages: 1 -->
<svg width="488pt" height="156pt"
 viewBox="0.00 0.00 488.00 156.00" xmlns="http://www.w3.org/2000/svg" xmlns:xlink="http://www.w3.org/1999/xlink">
<g id="graph0" class="graph" transform="scale(1 1) rotate(0) translate(4 152)">
<title>CallableWrapTT::process_return</title>
<!-- Node1 -->
<g id="Node000001" class="node">
<title>Node1</title>
<g id="a_Node000001"><a xlink:title=" ">
<polygon fill="#999999" stroke="#666666" points="480,-79.5 337,-79.5 337,-49.5 480,-49.5 480,-79.5"/>
<text text-anchor="start" x="345" y="-67.5" font-family="Times,serif" font-size="10.00">CallableWrapTT::process</text>
<text text-anchor="middle" x="408.5" y="-56.5" font-family="Times,serif" font-size="10.00">_return</text>
</a>
</g>
</g>
<!-- Node2 -->
<g id="Node000002" class="node">
<title>Node2</title>
<g id="a_Node000002"><a xlink:href="class_callable_wrap_t_t.html#a1da0b139815741fd2daf8057970874c2" target="_top" xlink:title=" ">
<polygon fill="white" stroke="#666666" points="301,-130 152,-130 152,-111 301,-111 301,-130"/>
<text text-anchor="middle" x="226.5" y="-118" font-family="Times,serif" font-size="10.00">CallableWrapTT::call_func</text>
</a>
</g>
</g>
<!-- Node1&#45;&gt;Node2 -->
<g id="edge1_Node000001_Node000002" class="edge">
<title>Node1&#45;&gt;Node2</title>
<g id="a_edge1_Node000001_Node000002"><a xlink:title=" ">
<path fill="none" stroke="#63b8ff" d="M358.67,-83.11C340.68,-89.65 320.04,-96.79 301,-102.5 290.93,-105.52 279.98,-108.41 269.68,-110.96"/>
<polygon fill="#63b8ff" stroke="#63b8ff" points="360.19,-86.28 368.37,-79.55 357.78,-79.71 360.19,-86.28"/>
</a>
</g>
</g>
<!-- Node3 -->
<g id="Node000003" class="node">
<title>Node3</title>
<g id="a_Node000003"><a xlink:href="class_callable_wrap_t_t.html#a1277393882fc4f4d0e46a161fc43c475" target="_top" xlink:title=" ">
<polygon fill="white" stroke="#666666" points="301,-93 152,-93 152,-74 301,-74 301,-93"/>
<text text-anchor="middle" x="226.5" y="-81" font-family="Times,serif" font-size="10.00">CallableWrapTT::call_func</text>
</a>
</g>
</g>
<!-- Node1&#45;&gt;Node3 -->
<g id="edge2_Node000001_Node000003" class="edge">
<title>Node1&#45;&gt;Node3</title>
<g id="a_edge2_Node000001_Node000003"><a xlink:title=" ">
<path fill="none" stroke="#63b8ff" d="M326.9,-73.01C318.33,-73.91 309.66,-74.83 301.18,-75.72"/>
<polygon fill="#63b8ff" stroke="#63b8ff" points="327.3,-76.49 336.88,-71.95 326.56,-69.52 327.3,-76.49"/>
</a>
</g>
</g>
<!-- Node8 -->
<g id="Node000008" class="node">
<title>Node8</title>
<g id="a_Node000008"><a xlink:href="class_callable_wrap_t_t.html#a53c0324a1010ab3a9fd5cc0fdfc480e7" target="_top" xlink:title=" ">
<polygon fill="white" stroke="#666666" points="301,-56 152,-56 152,-37 301,-37 301,-56"/>
<text text-anchor="middle" x="226.5" y="-44" font-family="Times,serif" font-size="10.00">CallableWrapTT::call_func</text>
</a>
</g>
</g>
<!-- Node1&#45;&gt;Node8 -->
<g id="edge7_Node000001_Node000008" class="edge">
<title>Node1&#45;&gt;Node8</title>
<g id="a_edge7_Node000001_Node000008"><a xlink:title=" ">
<path fill="none" stroke="#63b8ff" d="M326.9,-56.44C318.33,-55.58 309.66,-54.72 301.18,-53.87"/>
<polygon fill="#63b8ff" stroke="#63b8ff" points="326.58,-59.93 336.88,-57.44 327.27,-52.96 326.58,-59.93"/>
</a>
</g>
</g>
<!-- Node9 -->
<g id="Node000009" class="node">
<title>Node9</title>
<g id="a_Node000009"><a xlink:href="class_callable_wrap_t_t.html#a1c350ebcbea11eced6a0ad39fd038d84" target="_top" xlink:title=" ">
<polygon fill="white" stroke="#666666" points="301,-19 152,-19 152,0 301,0 301,-19"/>
<text text-anchor="middle" x="226.5" y="-7" font-family="Times,serif" font-size="10.00">CallableWrapTT::call_func</text>
</a>
</g>
</g>
<!-- Node1&#45;&gt;Node9 -->
<g id="edge8_Node000001_Node000009" class="edge">
<title>Node1&#45;&gt;Node9</title>
<g id="a_edge8_Node000001_Node000009"><a xlink:title=" ">
<path fill="none" stroke="#63b8ff" d="M355.36,-46.03C338.14,-40.15 318.83,-33.81 301,-28.5 289.88,-25.19 277.73,-21.91 266.55,-19.03"/>
<polygon fill="#63b8ff" stroke="#63b8ff" points="354.64,-49.48 365.23,-49.42 356.91,-42.86 354.64,-49.48"/>
</a>
</g>
</g>
<!-- Node4 -->
<g id="Node000004" class="node">
<title>Node4</title>
<g id="a_Node000004"><a xlink:href="class_callable_wrap_t_t.html#aecd18b162c424a0bb6796539c8df3136" target="_top" xlink:title=" ">
<polygon fill="white" stroke="#666666" points="116,-148 0,-148 0,-129 116,-129 116,-148"/>
<text text-anchor="middle" x="58" y="-136" font-family="Times,serif" font-size="10.00">CallableWrapTT::op</text>
</a>
</g>
</g>
<!-- Node3&#45;&gt;Node4 -->
<g id="edge3_Node000003_Node000004" class="edge">
<title>Node3&#45;&gt;Node4</title>
<g id="a_edge3_Node000003_Node000004"><a xlink:title=" ">
<path fill="none" stroke="#63b8ff" d="M172.25,-95.84C165.37,-97.85 158.47,-100.08 152,-102.5 135.25,-108.77 132.58,-113.79 116,-120.5 108.4,-123.58 100.06,-126.47 92.17,-129"/>
<polygon fill="#63b8ff" stroke="#63b8ff" points="173.58,-99.11 182.28,-93.05 171.7,-92.36 173.58,-99.11"/>
</a>
</g>
</g>
<!-- Node5 -->
<g id="Node000005" class="node">
<title>Node5</title>
<g id="a_Node000005"><a xlink:href="class_callable_wrap_t_t.html#a48bbe4143464130f417276d7fef340db" target="_top" xlink:title=" ">
<polygon fill="white" stroke="#666666" points="116,-111 0,-111 0,-92 116,-92 116,-111"/>
<text text-anchor="middle" x="58" y="-99" font-family="Times,serif" font-size="10.00">CallableWrapTT::op</text>
</a>
</g>
</g>
<!-- Node3&#45;&gt;Node5 -->
<g id="edge4_Node000003_Node000005" class="edge">
<title>Node3&#45;&gt;Node5</title>
<g id="a_edge4_Node000003_Node000005"><a xlink:title=" ">
<path fill="none" stroke="#63b8ff" d="M141.8,-92.55C133.11,-93.49 124.42,-94.43 116.12,-95.33"/>
<polygon fill="#63b8ff" stroke="#63b8ff" points="142.42,-96 151.99,-91.45 141.67,-89.04 142.42,-96"/>
</a>
</g>
</g>
<!-- Node6 -->
<g id="Node000006" class="node">
<title>Node6</title>
<g id="a_Node000006"><a xlink:href="class_callable_wrap_t_t.html#a829af784a7d1094a83014fa6bd3adcef" target="_top" xlink:title=" ">
<polygon fill="white" stroke="#666666" points="116,-74 0,-74 0,-55 116,-55 116,-74"/>
<text text-anchor="middle" x="58" y="-62" font-family="Times,serif" font-size="10.00">CallableWrapTT::op</text>
</a>
</g>
</g>
<!-- Node3&#45;&gt;Node6 -->
<g id="edge5_Node000003_Node000006" class="edge">
<title>Node3&#45;&gt;Node6</title>
<g id="a_edge5_Node000003_Node000006"><a xlink:title=" ">
<path fill="none" stroke="#63b8ff" d="M141.8,-73.95C133.11,-72.96 124.42,-71.97 116.12,-71.02"/>
<polygon fill="#63b8ff" stroke="#63b8ff" points="141.65,-77.45 151.99,-75.11 142.45,-70.5 141.65,-77.45"/>
</a>
</g>
</g>
<!-- Node7 -->
<g id="Node000007" class="node">
<title>Node7</title>
<g id="a_Node000007"><a xlink:href="class_callable_wrap_t_t.html#a6a5fa97bbba922623cb618f1f83675f4" target="_top" xlink:title=" ">
<polygon fill="white" stroke="#666666" points="116,-37 0,-37 0,-18 116,-18 116,-37"/>
<text text-anchor="middle" x="58" y="-25" font-family="Times,serif" font-size="10.00">CallableWrapTT::op</text>
</a>
</g>
</g>
<!-- Node3&#45;&gt;Node7 -->
<g id="edge6_Node000003_Node000007" class="edge">
<title>Node3&#45;&gt;Node7</title>
<g id="a_edge6_Node000003_Node000007"><a xlink:title=" ">
<path fill="none" stroke="#63b8ff" d="M169.22,-71.23C163.34,-69.5 157.51,-67.59 152,-65.5 135.09,-59.08 132.64,-53.61 116,-46.5 107.94,-43.06 99.04,-39.83 90.7,-37.04"/>
<polygon fill="#63b8ff" stroke="#63b8ff" points="168.52,-74.67 179.1,-73.97 170.4,-67.93 168.52,-74.67"/>
</a>
</g>
</g>
</g>
</svg>
