<?xml version="1.0" encoding="UTF-8" standalone="no"?>
<!DOCTYPE svg PUBLIC "-//W3C//DTD SVG 1.1//EN"
 "http://www.w3.org/Graphics/SVG/1.1/DTD/svg11.dtd">
<!-- Generated by graphviz version 2.43.0 (0)
 -->
<!-- Title: ttg_madness::TT::invoke_pull_terminals Pages: 1 -->
<svg width="307pt" height="51pt"
 viewBox="0.00 0.00 307.00 50.50" xmlns="http://www.w3.org/2000/svg" xmlns:xlink="http://www.w3.org/1999/xlink">
<g id="graph0" class="graph" transform="scale(1 1) rotate(0) translate(4 46.5)">
<title>ttg_madness::TT::invoke_pull_terminals</title>
<!-- Node1 -->
<g id="Node000001" class="node">
<title>Node1</title>
<g id="a_Node000001"><a xlink:title=" ">
<polygon fill="#999999" stroke="#666666" points="140,-30 0,-30 0,0 140,0 140,-30"/>
<text text-anchor="start" x="8" y="-18" font-family="Times,serif" font-size="10.00">ttg_madness::TT::invoke</text>
<text text-anchor="middle" x="70" y="-7" font-family="Times,serif" font-size="10.00">_pull_terminals</text>
</a>
</g>
</g>
<!-- Node2 -->
<g id="Node000002" class="node">
<title>Node2</title>
<g id="a_Node000002"><a xlink:href="classttg__madness_1_1_t_t.html#a3fb0ab18d00c27fae64e1bd1b78d3d0d" target="_top" xlink:title=" ">
<polygon fill="white" stroke="#666666" points="299,-24.5 176,-24.5 176,-5.5 299,-5.5 299,-24.5"/>
<text text-anchor="middle" x="237.5" y="-12.5" font-family="Times,serif" font-size="10.00">ttg_madness::TT::get</text>
</a>
</g>
</g>
<!-- Node1&#45;&gt;Node2 -->
<g id="edge1_Node000001_Node000002" class="edge">
<title>Node1&#45;&gt;Node2</title>
<g id="a_edge1_Node000001_Node000002"><a xlink:title=" ">
<path fill="none" stroke="#63b8ff" d="M140.23,-15C148.67,-15 157.3,-15 165.76,-15"/>
<polygon fill="#63b8ff" stroke="#63b8ff" points="165.97,-18.5 175.97,-15 165.97,-11.5 165.97,-18.5"/>
</a>
</g>
</g>
<!-- Node2&#45;&gt;Node2 -->
<g id="edge2_Node000002_Node000002" class="edge">
<title>Node2&#45;&gt;Node2</title>
<g id="a_edge2_Node000002_Node000002"><a xlink:title=" ">
<path fill="none" stroke="#63b8ff" d="M211.91,-24.58C199.47,-33.23 208,-42.5 237.5,-42.5 256.86,-42.5 267.19,-38.51 268.49,-33.32"/>
<polygon fill="#63b8ff" stroke="#63b8ff" points="271.32,-31.25 263.09,-24.58 265.37,-34.93 271.32,-31.25"/>
</a>
</g>
</g>
</g>
</svg>
