<?xml version="1.0" encoding="UTF-8" standalone="no"?>
<!DOCTYPE svg PUBLIC "-//W3C//DTD SVG 1.1//EN"
 "http://www.w3.org/Graphics/SVG/1.1/DTD/svg11.dtd">
<!-- Generated by graphviz version 2.43.0 (0)
 -->
<!-- Title: ttg_parsec::TT::add_constraint Pages: 1 -->
<!--zoomable 256 -->

<svg id="main" version="1.1" xmlns="http://www.w3.org/2000/svg" xmlns:xlink="http://www.w3.org/1999/xlink" xml:space="preserve" onload="init(evt)">
<style type="text/css"><![CDATA[
.node, .edge {opacity: 0.7;}
.node.selected, .edge.selected {opacity: 1;}
.edge:hover path { stroke: red; }
.edge:hover polygon { stroke: red; fill: red; }
]]></style>

<defs>
  <circle id="rim" cx="0" cy="0" r="7"/>
  <circle id="rim2" cx="0" cy="0" r="3.5"/>
  <g id="zoomPlus">
    <use xlink:href="#rim" fill="#404040"><set attributeName="fill" to="#808080" begin="zoomplus.mouseover" end="zoomplus.mouseout"/></use>
    <path d="M-4,0h8M0,-4v8" fill="none" stroke="white" stroke-width="1.5" pointer-events="none"/>
  </g>
  <g id="zoomMin">
    <use xlink:href="#rim" fill="#404040"><set attributeName="fill" to="#808080" begin="zoomminus.mouseover" end="zoomminus.mouseout"/></use>
    <path d="M-4,0h8" fill="none" stroke="white" stroke-width="1.5" pointer-events="none"/>
  </g>
  <g id="arrowUp" transform="translate(30 24)">
    <use xlink:href="#rim"/>
    <path pointer-events="none" fill="none" stroke="white" stroke-width="1.5" d="M0,-3.0v7 M-2.5,-0.5L0,-3.0L2.5,-0.5"/>
  </g>
  <g id="arrowRight" transform="rotate(90) translate(36 -43)">
    <use xlink:href="#rim"/>
    <path pointer-events="none" fill="none" stroke="white" stroke-width="1.5" d="M0,-3.0v7 M-2.5,-0.5L0,-3.0L2.5,-0.5"/>
  </g>
  <g id="arrowDown" transform="rotate(180) translate(-30 -48)">
    <use xlink:href="#rim"/>
    <path pointer-events="none" fill="none" stroke="white" stroke-width="1.5" d="M0,-3.0v7 M-2.5,-0.5L0,-3.0L2.5,-0.5"/>
  </g>
  <g id="arrowLeft" transform="rotate(270) translate(-36 17)">
    <use xlink:href="#rim"/>
    <path pointer-events="none" fill="none" stroke="white" stroke-width="1.5" d="M0,-3.0v7 M-2.5,-0.5L0,-3.0L2.5,-0.5"/>
  </g>
  <g id="resetDef">
    <use xlink:href="#rim2" fill="#404040"><set attributeName="fill" to="#808080" begin="reset.mouseover" end="reset.mouseout"/></use>
  </g>
</defs>
<script type="application/ecmascript">
var viewWidth = 1224;
var viewHeight = 256;
var sectionId = 'dynsection-5';
</script>
<script type="application/ecmascript" xlink:href="svg.min.js"/>
<svg id="graph" class="graph">
<g id="viewport">
<title>ttg_parsec::TT::add_constraint</title>
<!-- Node1 -->
<g id="Node000001" class="node">
<title>Node1</title>
<g id="a_Node000001"><a xlink:title=" ">
<polygon fill="#999999" stroke="#666666" points="114,-210 0,-210 0,-180 114,-180 114,-210"/>
<text text-anchor="start" x="8" y="-198" font-family="Times,serif" font-size="10.00">ttg_parsec::TT::add</text>
<text text-anchor="middle" x="57" y="-187" font-family="Times,serif" font-size="10.00">_constraint</text>
</a>
</g>
</g>
<!-- Node2 -->
<g id="Node000002" class="node">
<title>Node2</title>
<g id="a_Node000002"><a xlink:href="classttg__parsec_1_1_t_t.html#a24ea8b57fe2846efcab06e6fc80190d2" target="_top" xlink:title=" ">
<polygon fill="white" stroke="#666666" points="264,-210 150,-210 150,-180 264,-180 264,-210"/>
<text text-anchor="start" x="158" y="-198" font-family="Times,serif" font-size="10.00">ttg_parsec::TT::add</text>
<text text-anchor="middle" x="207" y="-187" font-family="Times,serif" font-size="10.00">_constraint</text>
</a>
</g>
</g>
<!-- Node1&#45;&gt;Node2 -->
<g id="edge1_Node000001_Node000002" class="edge">
<title>Node1&#45;&gt;Node2</title>
<g id="a_edge1_Node000001_Node000002"><a xlink:title=" ">
<path fill="none" stroke="#63b8ff" d="M114.37,-195C122.62,-195 131.18,-195 139.6,-195"/>
<polygon fill="#63b8ff" stroke="#63b8ff" points="139.78,-198.5 149.78,-195 139.78,-191.5 139.78,-198.5"/>
</a>
</g>
</g>
<!-- Node3 -->
<g id="Node000003" class="node">
<title>Node3</title>
<g id="a_Node000003"><a xlink:href="classttg__parsec_1_1_t_t.html#aab59a1bf0fcc4f771457b5f05cb42741" target="_top" xlink:title=" ">
<polygon fill="white" stroke="#666666" points="1206,-181.5 1095,-181.5 1095,-162.5 1206,-162.5 1206,-181.5"/>
<text text-anchor="middle" x="1150.5" y="-169.5" font-family="Times,serif" font-size="10.00">ttg_parsec::TT::get</text>
</a>
</g>
</g>
<!-- Node2&#45;&gt;Node3 -->
<g id="edge2_Node000002_Node000003" class="edge">
<title>Node2&#45;&gt;Node3</title>
<g id="a_edge2_Node000002_Node000003"><a xlink:title=" ">
<path fill="none" stroke="#63b8ff" d="M260.76,-210.02C273.53,-213.31 287.19,-216.54 300,-219 401.83,-238.57 427.81,-248 531.5,-248 531.5,-248 531.5,-248 840.5,-248 934.61,-248 958.37,-236.37 1049,-211 1073.05,-204.27 1099.34,-193.96 1118.99,-185.63"/>
<polygon fill="#63b8ff" stroke="#63b8ff" points="1120.54,-188.77 1128.35,-181.6 1117.78,-182.34 1120.54,-188.77"/>
</a>
</g>
</g>
<!-- Node4 -->
<g id="Node000004" class="node">
<title>Node4</title>
<g id="a_Node000004"><a xlink:href="namespacettg_1_1meta.html#affd90f350d054c6a5b4859644d834172" target="_top" xlink:title=" ">
<polygon fill="white" stroke="#666666" points="1193,-27.5 1108,-27.5 1108,-8.5 1193,-8.5 1193,-27.5"/>
<text text-anchor="middle" x="1150.5" y="-15.5" font-family="Times,serif" font-size="10.00">ttg::meta::get</text>
</a>
</g>
</g>
<!-- Node2&#45;&gt;Node4 -->
<g id="edge4_Node000002_Node000004" class="edge">
<title>Node2&#45;&gt;Node4</title>
<g id="a_edge4_Node000002_Node000004"><a xlink:title=" ">
<path fill="none" stroke="#63b8ff" d="M221.06,-179.7C261.86,-133.73 392.48,0 531.5,0 531.5,0 531.5,0 840.5,0 930.92,0 1035.97,-7.78 1097.36,-13.11"/>
<polygon fill="#63b8ff" stroke="#63b8ff" points="1097.29,-16.61 1107.56,-14.01 1097.91,-9.64 1097.29,-16.61"/>
</a>
</g>
</g>
<!-- Node5 -->
<g id="Node000005" class="node">
<title>Node5</title>
<g id="a_Node000005"><a xlink:href="classttg__parsec_1_1_t_t.html#a765cc9ec66725e266e1fb7708cc5791d" target="_top" xlink:title=" ">
<polygon fill="white" stroke="#666666" points="431,-210 300,-210 300,-180 431,-180 431,-210"/>
<text text-anchor="start" x="308" y="-198" font-family="Times,serif" font-size="10.00">ttg_parsec::TT::release</text>
<text text-anchor="middle" x="365.5" y="-187" font-family="Times,serif" font-size="10.00">_constraint</text>
</a>
</g>
</g>
<!-- Node2&#45;&gt;Node5 -->
<g id="edge6_Node000002_Node000005" class="edge">
<title>Node2&#45;&gt;Node5</title>
<g id="a_edge6_Node000002_Node000005"><a xlink:title=" ">
<path fill="none" stroke="#63b8ff" d="M264.06,-195C272.38,-195 281.07,-195 289.7,-195"/>
<polygon fill="#63b8ff" stroke="#63b8ff" points="289.78,-198.5 299.78,-195 289.78,-191.5 289.78,-198.5"/>
</a>
</g>
</g>
<!-- Node3&#45;&gt;Node3 -->
<g id="edge3_Node000003_Node000003" class="edge">
<title>Node3&#45;&gt;Node3</title>
<g id="a_edge3_Node000003_Node000003"><a xlink:title=" ">
<path fill="none" stroke="#63b8ff" d="M1126.46,-181.58C1114.76,-190.23 1122.77,-199.5 1150.5,-199.5 1168.7,-199.5 1178.4,-195.51 1179.62,-190.32"/>
<polygon fill="#63b8ff" stroke="#63b8ff" points="1182.59,-188.47 1174.54,-181.58 1176.54,-191.99 1182.59,-188.47"/>
</a>
</g>
</g>
<!-- Node4&#45;&gt;Node4 -->
<g id="edge5_Node000004_Node000004" class="edge">
<title>Node4&#45;&gt;Node4</title>
<g id="a_edge5_Node000004_Node000004"><a xlink:title=" ">
<path fill="none" stroke="#63b8ff" d="M1126.46,-27.58C1114.76,-36.23 1122.77,-45.5 1150.5,-45.5 1168.7,-45.5 1178.4,-41.51 1179.62,-36.32"/>
<polygon fill="#63b8ff" stroke="#63b8ff" points="1182.59,-34.47 1174.54,-27.58 1176.54,-37.99 1182.59,-34.47"/>
</a>
</g>
</g>
<!-- Node5&#45;&gt;Node3 -->
<g id="edge7_Node000005_Node000003" class="edge">
<title>Node5&#45;&gt;Node3</title>
<g id="a_edge7_Node000005_Node000003"><a xlink:title=" ">
<path fill="none" stroke="#63b8ff" d="M431.12,-199.81C495.72,-204.2 597.93,-210 686.5,-210 686.5,-210 686.5,-210 840.5,-210 928.69,-210 1029.99,-194.56 1091.86,-183.37"/>
<polygon fill="#63b8ff" stroke="#63b8ff" points="1092.61,-186.79 1101.82,-181.54 1091.35,-179.9 1092.61,-186.79"/>
</a>
</g>
</g>
<!-- Node6 -->
<g id="Node000006" class="node">
<title>Node6</title>
<g id="a_Node000006"><a xlink:href="classttg__parsec_1_1_t_t.html#a64de0f4a0e71bd0dab69161ce619794d" target="_top" xlink:title=" ">
<polygon fill="white" stroke="#666666" points="598,-166.5 467,-166.5 467,-147.5 598,-147.5 598,-166.5"/>
<text text-anchor="middle" x="532.5" y="-154.5" font-family="Times,serif" font-size="10.00">ttg_parsec::TT::release</text>
</a>
</g>
</g>
<!-- Node5&#45;&gt;Node6 -->
<g id="edge8_Node000005_Node000006" class="edge">
<title>Node5&#45;&gt;Node6</title>
<g id="a_edge8_Node000005_Node000006"><a xlink:title=" ">
<path fill="none" stroke="#63b8ff" d="M431.24,-180.09C447.53,-176.34 464.8,-172.36 480.32,-168.79"/>
<polygon fill="#63b8ff" stroke="#63b8ff" points="481.29,-172.16 490.25,-166.5 479.72,-165.33 481.29,-172.16"/>
</a>
</g>
</g>
<!-- Node7 -->
<g id="Node000007" class="node">
<title>Node7</title>
<g id="a_Node000007"><a xlink:href="classttg__parsec_1_1_t_t.html#a7f42b8147186ddf49a3c1f2a5d49255f" target="_top" xlink:title=" ">
<polygon fill="white" stroke="#666666" points="741,-153 634,-153 634,-123 741,-123 741,-153"/>
<text text-anchor="start" x="642" y="-141" font-family="Times,serif" font-size="10.00">ttg_parsec::TT::do</text>
<text text-anchor="middle" x="687.5" y="-130" font-family="Times,serif" font-size="10.00">_release</text>
</a>
</g>
</g>
<!-- Node6&#45;&gt;Node7 -->
<g id="edge9_Node000006_Node000007" class="edge">
<title>Node6&#45;&gt;Node7</title>
<g id="a_edge9_Node000006_Node000007"><a xlink:title=" ">
<path fill="none" stroke="#63b8ff" d="M598.39,-148.94C606.72,-147.91 615.25,-146.85 623.56,-145.82"/>
<polygon fill="#63b8ff" stroke="#63b8ff" points="624.06,-149.28 633.55,-144.58 623.2,-142.33 624.06,-149.28"/>
</a>
</g>
</g>
<!-- Node7&#45;&gt;Node3 -->
<g id="edge10_Node000007_Node000003" class="edge">
<title>Node7&#45;&gt;Node3</title>
<g id="a_edge10_Node000007_Node000003"><a xlink:title=" ">
<path fill="none" stroke="#63b8ff" d="M741.24,-147.98C752.98,-149.91 765.38,-151.72 777,-153 884.43,-164.8 1010.11,-169.29 1084.58,-170.99"/>
<polygon fill="#63b8ff" stroke="#63b8ff" points="1084.67,-174.49 1094.74,-171.21 1084.82,-167.49 1084.67,-174.49"/>
</a>
</g>
</g>
<!-- Node8 -->
<g id="Node000008" class="node">
<title>Node8</title>
<g id="a_Node000008"><a xlink:href="classttg_1_1base_1_1_world.html#aabab7c9df8f16919ab41a864c8b1adc4" target="_top" xlink:title=" ">
<polygon fill="white" stroke="#666666" points="902,-74.5 777,-74.5 777,-55.5 902,-55.5 902,-74.5"/>
<text text-anchor="middle" x="839.5" y="-62.5" font-family="Times,serif" font-size="10.00">ttg::base::World::impl</text>
</a>
</g>
</g>
<!-- Node7&#45;&gt;Node8 -->
<g id="edge11_Node000007_Node000008" class="edge">
<title>Node7&#45;&gt;Node8</title>
<g id="a_edge11_Node000007_Node000008"><a xlink:title=" ">
<path fill="none" stroke="#63b8ff" d="M719.58,-122.87C746.06,-109.99 783.82,-91.61 809.64,-79.04"/>
<polygon fill="#63b8ff" stroke="#63b8ff" points="811.44,-82.06 818.9,-74.54 808.38,-75.77 811.44,-82.06"/>
</a>
</g>
</g>
<!-- Node10 -->
<g id="Node000010" class="node">
<title>Node10</title>
<g id="a_Node000010"><a xlink:href="classttg__parsec_1_1_t_t.html#acec939399109ea862fb2e5d011aa9706" target="_top" xlink:title=" ">
<polygon fill="white" stroke="#666666" points="899,-144 780,-144 780,-114 899,-114 899,-144"/>
<text text-anchor="start" x="788" y="-132" font-family="Times,serif" font-size="10.00">ttg_parsec::TT::print</text>
<text text-anchor="middle" x="839.5" y="-121" font-family="Times,serif" font-size="10.00">_incomplete_tasks</text>
</a>
</g>
</g>
<!-- Node7&#45;&gt;Node10 -->
<g id="edge13_Node000007_Node000010" class="edge">
<title>Node7&#45;&gt;Node10</title>
<g id="a_edge13_Node000007_Node000010"><a xlink:title=" ">
<path fill="none" stroke="#63b8ff" d="M741.38,-134.83C750.55,-134.28 760.2,-133.7 769.72,-133.13"/>
<polygon fill="#63b8ff" stroke="#63b8ff" points="770.19,-136.6 779.97,-132.51 769.77,-129.62 770.19,-136.6"/>
</a>
</g>
</g>
<!-- Node9 -->
<g id="Node000009" class="node">
<title>Node9</title>
<g id="a_Node000009"><a xlink:href="classttg_1_1base_1_1_world.html#af39ca1832f455a94134515f94aaa8533" target="_top" xlink:title=" ">
<polygon fill="white" stroke="#666666" points="1049,-58 938,-58 938,-28 1049,-28 1049,-58"/>
<text text-anchor="start" x="946" y="-46" font-family="Times,serif" font-size="10.00">ttg::base::World::is</text>
<text text-anchor="middle" x="993.5" y="-35" font-family="Times,serif" font-size="10.00">_valid</text>
</a>
</g>
</g>
<!-- Node8&#45;&gt;Node9 -->
<g id="edge12_Node000008_Node000009" class="edge">
<title>Node8&#45;&gt;Node9</title>
<g id="a_edge12_Node000008_Node000009"><a xlink:title=" ">
<path fill="none" stroke="#63b8ff" d="M902.32,-56.05C910.62,-54.85 919.15,-53.62 927.5,-52.41"/>
<polygon fill="#63b8ff" stroke="#63b8ff" points="928.18,-55.85 937.57,-50.95 927.17,-48.92 928.18,-55.85"/>
</a>
</g>
</g>
<!-- Node10&#45;&gt;Node3 -->
<g id="edge14_Node000010_Node000003" class="edge">
<title>Node10&#45;&gt;Node3</title>
<g id="a_edge14_Node000010_Node000003"><a xlink:title=" ">
<path fill="none" stroke="#63b8ff" d="M899.37,-137.18C941.13,-142.99 998.5,-150.97 1049,-158 1060.65,-159.62 1073.07,-161.35 1085.05,-163.02"/>
<polygon fill="#63b8ff" stroke="#63b8ff" points="1084.61,-166.49 1094.99,-164.41 1085.57,-159.56 1084.61,-166.49"/>
</a>
</g>
</g>
<!-- Node11 -->
<g id="Node000011" class="node">
<title>Node11</title>
<g id="a_Node000011"><a xlink:href="classttg__parsec_1_1_t_t.html#a68814131fd8aa487afce9a89a5ee7f2b" target="_top" xlink:title=" ">
<polygon fill="white" stroke="#666666" points="1046,-106 941,-106 941,-76 1046,-76 1046,-106"/>
<text text-anchor="start" x="949" y="-94" font-family="Times,serif" font-size="10.00">ttg_parsec::TT::ht</text>
<text text-anchor="middle" x="993.5" y="-83" font-family="Times,serif" font-size="10.00">_iter_cb</text>
</a>
</g>
</g>
<!-- Node10&#45;&gt;Node11 -->
<g id="edge15_Node000010_Node000011" class="edge">
<title>Node10&#45;&gt;Node11</title>
<g id="a_edge15_Node000010_Node000011"><a xlink:title=" ">
<path fill="none" stroke="#63b8ff" d="M899.27,-114.31C909.65,-111.71 920.49,-109 930.94,-106.39"/>
<polygon fill="#63b8ff" stroke="#63b8ff" points="931.97,-109.74 940.82,-103.92 930.27,-102.95 931.97,-109.74"/>
</a>
</g>
</g>
<!-- Node11&#45;&gt;Node3 -->
<g id="edge16_Node000011_Node000003" class="edge">
<title>Node11&#45;&gt;Node3</title>
<g id="a_edge16_Node000011_Node000003"><a xlink:title=" ">
<path fill="none" stroke="#63b8ff" d="M1023.29,-106.05C1051.48,-120.78 1094.14,-143.07 1121.91,-157.58"/>
<polygon fill="#63b8ff" stroke="#63b8ff" points="1120.58,-160.84 1131.07,-162.37 1123.83,-154.63 1120.58,-160.84"/>
</a>
</g>
</g>
<!-- Node11&#45;&gt;Node4 -->
<g id="edge17_Node000011_Node000004" class="edge">
<title>Node11&#45;&gt;Node4</title>
<g id="a_edge17_Node000011_Node000004"><a xlink:title=" ">
<path fill="none" stroke="#63b8ff" d="M1029.19,-75.97C1035.79,-73.04 1042.62,-69.96 1049,-67 1073.52,-55.63 1101.09,-42.14 1121.14,-32.19"/>
<polygon fill="#63b8ff" stroke="#63b8ff" points="1122.94,-35.2 1130.34,-27.62 1119.83,-28.94 1122.94,-35.2"/>
</a>
</g>
</g>
<!-- Node12 -->
<g id="Node000012" class="node">
<title>Node12</title>
<g id="a_Node000012"><a xlink:href="classttg_1_1_t_t_base.html#ade3b1e6b149fe1124f7192aeca5f715c" target="_top" xlink:title="Gets the name of this operation.">
<polygon fill="white" stroke="#666666" points="1216,-100.5 1085,-100.5 1085,-81.5 1216,-81.5 1216,-100.5"/>
<text text-anchor="middle" x="1150.5" y="-88.5" font-family="Times,serif" font-size="10.00">ttg::TTBase::get_name</text>
</a>
</g>
</g>
<!-- Node11&#45;&gt;Node12 -->
<g id="edge18_Node000011_Node000012" class="edge">
<title>Node11&#45;&gt;Node12</title>
<g id="a_edge18_Node000011_Node000012"><a xlink:title=" ">
<path fill="none" stroke="#63b8ff" d="M1046.11,-91C1055.33,-91 1065.1,-91 1074.81,-91"/>
<polygon fill="#63b8ff" stroke="#63b8ff" points="1074.88,-94.5 1084.88,-91 1074.88,-87.5 1074.88,-94.5"/>
</a>
</g>
</g>
</g>
</svg>

<g id="navigator" transform="translate(0 0)" fill="#404254">
  <rect fill="#f2f5e9" fill-opacity="0.5" stroke="#606060" stroke-width=".5" x="0" y="0" width="60" height="60"/>
  <use id="zoomplus" xlink:href="#zoomPlus" x="17" y="9" onmousedown="handleZoom(evt,'in')"/>
  <use id="zoomminus" xlink:href="#zoomMin" x="42" y="9" onmousedown="handleZoom(evt,'out')"/>
  <use id="reset" xlink:href="#resetDef" x="30" y="36" onmousedown="handleReset()"/>
   <use id="arrowup" xlink:href="#arrowUp" x="0" y="0" onmousedown="handlePan(0,-1)"/>
  <use id="arrowright" xlink:href="#arrowRight" x="0" y="0" onmousedown="handlePan(1,0)"/>
  <use id="arrowdown" xlink:href="#arrowDown" x="0" y="0" onmousedown="handlePan(0,1)"/>
  <use id="arrowleft" xlink:href="#arrowLeft" x="0" y="0" onmousedown="handlePan(-1,0)"/>
</g>
<svg viewBox="0 0 15 15" width="100%" height="30px" preserveAspectRatio="xMaxYMin meet">
 <g id="arrow_out" transform="scale(0.3 0.3)">
  <a xlink:href="classttg__parsec_1_1_t_t_ab2809ed93f5b416ca4bee4c8fc7c90ee_cgraph_org.svg" target="_base">
   <rect id="button" ry="5" rx="5" y="6" x="6" height="38" width="38"
        fill="#f2f5e9" fill-opacity="0.5" stroke="#606060" stroke-width="1.0"/>
   <path id="arrow"
     d="M 11.500037,31.436501 C 11.940474,20.09759 22.043105,11.32322 32.158766,21.979434 L 37.068811,17.246167 C 37.068811,17.246167 37.088388,32 37.088388,32 L 22.160133,31.978069 C 22.160133,31.978069 26.997745,27.140456 26.997745,27.140456 C 18.528582,18.264221 13.291696,25.230495 11.500037,31.436501 z"
     style="fill:#404040;"/>
  </a>
 </g>
</svg>

<style type='text/css'>
<![CDATA[
[data-mouse-over-selected='false'] { opacity: 0.7; }
[data-mouse-over-selected='true']  { opacity: 1.0; }
]]>
</style>
<script type="application/ecmascript"><![CDATA[
document.addEventListener('DOMContentLoaded', (event) => {
  highlightEdges();
  highlightAdjacentNodes();
});
]]></script>
</svg>
