<?xml version="1.0" encoding="UTF-8" standalone="no"?>
<!DOCTYPE svg PUBLIC "-//W3C//DTD SVG 1.1//EN"
 "http://www.w3.org/Graphics/SVG/1.1/DTD/svg11.dtd">
<!-- Generated by graphviz version 2.43.0 (0)
 -->
<!-- Title: ttg::base::WorldImplBase::rank Pages: 1 -->
<svg width="483pt" height="134pt"
 viewBox="0.00 0.00 483.00 134.00" xmlns="http://www.w3.org/2000/svg" xmlns:xlink="http://www.w3.org/1999/xlink">

<svg id="main" version="1.1" xmlns="http://www.w3.org/2000/svg" xmlns:xlink="http://www.w3.org/1999/xlink" xml:space="preserve" onload="init(evt)">
<style type="text/css"><![CDATA[
.node, .edge {opacity: 0.7;}
.node.selected, .edge.selected {opacity: 1;}
.edge:hover path { stroke: red; }
.edge:hover polygon { stroke: red; fill: red; }
]]></style>
<script type="application/ecmascript" xlink:href="svg.min.js"/>
<svg id="graph" class="graph">
<g id="graph0" class="graph" transform="scale(1 1) rotate(0) translate(4 130)">
<title>ttg::base::WorldImplBase::rank</title>
<!-- Node1 -->
<g id="Node000001" class="node">
<title>Node1</title>
<g id="a_Node000001"><a xlink:title=" ">
<polygon fill="#999999" stroke="#666666" points="475,-78 330,-78 330,-48 475,-48 475,-78"/>
<text text-anchor="start" x="338" y="-66" font-family="Times,serif" font-size="10.00">ttg::base::WorldImplBase</text>
<text text-anchor="middle" x="402.5" y="-55" font-family="Times,serif" font-size="10.00">::rank</text>
</a>
</g>
</g>
<!-- Node2 -->
<g id="Node000002" class="node">
<title>Node2</title>
<g id="a_Node000002"><a xlink:href="classttg__parsec_1_1_world_impl.html#a8486bd3e8dc829175f7ad0538e0dce4b" target="_top" xlink:title=" ">
<polygon fill="white" stroke="#666666" points="294,-126 165,-126 165,-96 294,-96 294,-126"/>
<text text-anchor="start" x="173" y="-114" font-family="Times,serif" font-size="10.00">ttg_parsec::WorldImpl</text>
<text text-anchor="middle" x="229.5" y="-103" font-family="Times,serif" font-size="10.00">::dag_on</text>
</a>
</g>
</g>
<!-- Node1&#45;&gt;Node2 -->
<g id="edge1_Node000001_Node000002" class="edge">
<title>Node1&#45;&gt;Node2</title>
<g id="a_edge1_Node000001_Node000002"><a xlink:title=" ">
<path fill="none" stroke="#63b8ff" d="M338.13,-80.79C320.31,-85.79 301.12,-91.18 283.95,-96"/>
<polygon fill="#63b8ff" stroke="#63b8ff" points="339.18,-84.13 347.86,-78.06 337.29,-77.39 339.18,-84.13"/>
</a>
</g>
</g>
<!-- Node4 -->
<g id="Node000004" class="node">
<title>Node4</title>
<g id="a_Node000004"><a xlink:href="classttg__parsec_1_1_world_impl.html#acdf3cf5cfb64ebfda9ab9fffd4b3e32d" target="_top" xlink:title=" ">
<polygon fill="white" stroke="#666666" points="294,-78 165,-78 165,-48 294,-48 294,-78"/>
<text text-anchor="start" x="173" y="-66" font-family="Times,serif" font-size="10.00">ttg_parsec::WorldImpl</text>
<text text-anchor="middle" x="229.5" y="-55" font-family="Times,serif" font-size="10.00">::destroy</text>
</a>
</g>
</g>
<!-- Node1&#45;&gt;Node4 -->
<g id="edge3_Node000001_Node000004" class="edge">
<title>Node1&#45;&gt;Node4</title>
<g id="a_edge3_Node000001_Node000004"><a xlink:title=" ">
<path fill="none" stroke="#63b8ff" d="M319.87,-63C311.22,-63 302.52,-63 294.12,-63"/>
<polygon fill="#63b8ff" stroke="#63b8ff" points="319.97,-66.5 329.97,-63 319.97,-59.5 319.97,-66.5"/>
</a>
</g>
</g>
<!-- Node6 -->
<g id="Node000006" class="node">
<title>Node6</title>
<g id="a_Node000006"><a xlink:href="classttg__parsec_1_1_world_impl.html#a8342e0deb558e48f715a305581447062" target="_top" xlink:title=" ">
<polygon fill="white" stroke="#666666" points="294,-30 165,-30 165,0 294,0 294,-30"/>
<text text-anchor="start" x="173" y="-18" font-family="Times,serif" font-size="10.00">ttg_parsec::WorldImpl</text>
<text text-anchor="middle" x="229.5" y="-7" font-family="Times,serif" font-size="10.00">::fence_impl</text>
</a>
</g>
</g>
<!-- Node1&#45;&gt;Node6 -->
<g id="edge5_Node000001_Node000006" class="edge">
<title>Node1&#45;&gt;Node6</title>
<g id="a_edge5_Node000001_Node000006"><a xlink:title=" ">
<path fill="none" stroke="#63b8ff" d="M338.13,-45.21C320.31,-40.21 301.12,-34.82 283.95,-30"/>
<polygon fill="#63b8ff" stroke="#63b8ff" points="337.29,-48.61 347.86,-47.94 339.18,-41.87 337.29,-48.61"/>
</a>
</g>
</g>
<!-- Node3 -->
<g id="Node000003" class="node">
<title>Node3</title>
<g id="a_Node000003"><a xlink:href="classttg__parsec_1_1_world_impl.html#a5dbc8b40e4d489a0d913efccfb7d0ae0" target="_top" xlink:title=" ">
<polygon fill="white" stroke="#666666" points="129,-126 0,-126 0,-96 129,-96 129,-126"/>
<text text-anchor="start" x="8" y="-114" font-family="Times,serif" font-size="10.00">ttg_parsec::WorldImpl</text>
<text text-anchor="middle" x="64.5" y="-103" font-family="Times,serif" font-size="10.00">::WorldImpl</text>
</a>
</g>
</g>
<!-- Node2&#45;&gt;Node3 -->
<g id="edge2_Node000002_Node000003" class="edge">
<title>Node2&#45;&gt;Node3</title>
<g id="a_edge2_Node000002_Node000003"><a xlink:title=" ">
<path fill="none" stroke="#63b8ff" d="M154.31,-111C145.86,-111 137.3,-111 129,-111"/>
<polygon fill="#63b8ff" stroke="#63b8ff" points="154.55,-114.5 164.55,-111 154.55,-107.5 154.55,-114.5"/>
</a>
</g>
</g>
<!-- Node5 -->
<g id="Node000005" class="node">
<title>Node5</title>
<g id="a_Node000005"><a xlink:href="classttg__parsec_1_1_world_impl.html#a723d8ec0a2fdb24329edb5b3996f59e1" target="_top" xlink:title=" ">
<polygon fill="white" stroke="#666666" points="129,-78 0,-78 0,-48 129,-48 129,-78"/>
<text text-anchor="start" x="8" y="-66" font-family="Times,serif" font-size="10.00">ttg_parsec::WorldImpl</text>
<text text-anchor="middle" x="64.5" y="-55" font-family="Times,serif" font-size="10.00">::~WorldImpl</text>
</a>
</g>
</g>
<!-- Node4&#45;&gt;Node5 -->
<g id="edge4_Node000004_Node000005" class="edge">
<title>Node4&#45;&gt;Node5</title>
<g id="a_edge4_Node000004_Node000005"><a xlink:title=" ">
<path fill="none" stroke="#63b8ff" d="M154.31,-63C145.86,-63 137.3,-63 129,-63"/>
<polygon fill="#63b8ff" stroke="#63b8ff" points="154.55,-66.5 164.55,-63 154.55,-59.5 154.55,-66.5"/>
</a>
</g>
</g>
</g>
</svg>
</svg>

<style type='text/css'>
<![CDATA[
[data-mouse-over-selected='false'] { opacity: 0.7; }
[data-mouse-over-selected='true']  { opacity: 1.0; }
]]>
</style>
<script type="application/ecmascript"><![CDATA[
document.addEventListener('DOMContentLoaded', (event) => {
  highlightEdges();
  highlightAdjacentNodes();
});
]]></script>
</svg>
