<?xml version="1.0" encoding="UTF-8" standalone="no"?>
<!DOCTYPE svg PUBLIC "-//W3C//DTD SVG 1.1//EN"
 "http://www.w3.org/Graphics/SVG/1.1/DTD/svg11.dtd">
<!-- Generated by graphviz version 2.43.0 (0)
 -->
<!-- Title: ttg_parsec::TT::check_constraints Pages: 1 -->
<svg width="509pt" height="349pt"
 viewBox="0.00 0.00 509.00 349.00" xmlns="http://www.w3.org/2000/svg" xmlns:xlink="http://www.w3.org/1999/xlink">
<g id="graph0" class="graph" transform="scale(1 1) rotate(0) translate(4 345)">
<title>ttg_parsec::TT::check_constraints</title>
<!-- Node1 -->
<g id="Node000001" class="node">
<title>Node1</title>
<g id="a_Node000001"><a xlink:title=" ">
<polygon fill="#999999" stroke="#666666" points="501,-180 377,-180 377,-150 501,-150 501,-180"/>
<text text-anchor="start" x="385" y="-168" font-family="Times,serif" font-size="10.00">ttg_parsec::TT::check</text>
<text text-anchor="middle" x="439" y="-157" font-family="Times,serif" font-size="10.00">_constraints</text>
</a>
</g>
</g>
<!-- Node2 -->
<g id="Node000002" class="node">
<title>Node2</title>
<g id="a_Node000002"><a xlink:href="classttg__parsec_1_1_t_t.html#a80885f0e54f741d7c70ae64179578414" target="_top" xlink:title=" ">
<polygon fill="white" stroke="#666666" points="341,-174.5 183,-174.5 183,-155.5 341,-155.5 341,-174.5"/>
<text text-anchor="middle" x="262" y="-162.5" font-family="Times,serif" font-size="10.00">ttg_parsec::TT::release_task</text>
</a>
</g>
</g>
<!-- Node1&#45;&gt;Node2 -->
<g id="edge1_Node000001_Node000002" class="edge">
<title>Node1&#45;&gt;Node2</title>
<g id="a_edge1_Node000001_Node000002"><a xlink:title=" ">
<path fill="none" stroke="#63b8ff" d="M366.65,-165C358.23,-165 349.6,-165 341.09,-165"/>
<polygon fill="#63b8ff" stroke="#63b8ff" points="366.79,-168.5 376.79,-165 366.79,-161.5 366.79,-168.5"/>
</a>
</g>
</g>
<!-- Node3 -->
<g id="Node000003" class="node">
<title>Node3</title>
<g id="a_Node000003"><a xlink:href="classttg__parsec_1_1_t_t.html#a22e5aac5bf2827bfcfb01d6ea47f382a" target="_top" xlink:title="finalizes stream for input i">
<polygon fill="white" stroke="#666666" points="139,-341 8,-341 8,-311 139,-311 139,-341"/>
<text text-anchor="start" x="16" y="-329" font-family="Times,serif" font-size="10.00">ttg_parsec::TT::finalize</text>
<text text-anchor="middle" x="73.5" y="-318" font-family="Times,serif" font-size="10.00">_argstream</text>
</a>
</g>
</g>
<!-- Node2&#45;&gt;Node3 -->
<g id="edge2_Node000002_Node000003" class="edge">
<title>Node2&#45;&gt;Node3</title>
<g id="a_edge2_Node000002_Node000003"><a xlink:title=" ">
<path fill="none" stroke="#63b8ff" d="M250.5,-183.29C232.8,-212.52 194.32,-269.75 147,-302 141.96,-305.43 136.39,-308.41 130.64,-310.98"/>
<polygon fill="#63b8ff" stroke="#63b8ff" points="253.6,-184.92 255.68,-174.53 247.58,-181.35 253.6,-184.92"/>
</a>
</g>
</g>
<!-- Node4 -->
<g id="Node000004" class="node">
<title>Node4</title>
<g id="a_Node000004"><a xlink:href="classttg__parsec_1_1_t_t.html#affca736b8369f0dd02c251dcbdb3974f" target="_top" xlink:title="finalizes stream for input i">
<polygon fill="white" stroke="#666666" points="139,-293 8,-293 8,-263 139,-263 139,-293"/>
<text text-anchor="start" x="16" y="-281" font-family="Times,serif" font-size="10.00">ttg_parsec::TT::finalize</text>
<text text-anchor="middle" x="73.5" y="-270" font-family="Times,serif" font-size="10.00">_argstream</text>
</a>
</g>
</g>
<!-- Node2&#45;&gt;Node4 -->
<g id="edge3_Node000002_Node000004" class="edge">
<title>Node2&#45;&gt;Node4</title>
<g id="a_edge3_Node000002_Node000004"><a xlink:title=" ">
<path fill="none" stroke="#63b8ff" d="M243.6,-181.74C222.34,-201.42 184.53,-233.92 147,-254 140.8,-257.31 134.07,-260.29 127.28,-262.91"/>
<polygon fill="#63b8ff" stroke="#63b8ff" points="246.27,-184.04 251.16,-174.64 241.47,-178.94 246.27,-184.04"/>
</a>
</g>
</g>
<!-- Node5 -->
<g id="Node000005" class="node">
<title>Node5</title>
<g id="a_Node000005"><a xlink:href="structttg__parsec_1_1detail_1_1parsec__ttg__task__t.html#ad5cb0f91ede170fec5354d78f9b14797" target="_top" xlink:title=" ">
<polygon fill="white" stroke="#666666" points="129,-244.5 18,-244.5 18,-203.5 129,-203.5 129,-244.5"/>
<text text-anchor="start" x="26" y="-232.5" font-family="Times,serif" font-size="10.00">ttg_parsec::detail</text>
<text text-anchor="start" x="26" y="-221.5" font-family="Times,serif" font-size="10.00">::parsec_ttg_task_t</text>
<text text-anchor="middle" x="73.5" y="-210.5" font-family="Times,serif" font-size="10.00">::release_task</text>
</a>
</g>
</g>
<!-- Node2&#45;&gt;Node5 -->
<g id="edge4_Node000002_Node000005" class="edge">
<title>Node2&#45;&gt;Node5</title>
<g id="a_edge4_Node000002_Node000005"><a xlink:title=" ">
<path fill="none" stroke="#63b8ff" d="M220.84,-177.71C194.11,-186.16 158.66,-197.38 129.35,-206.65"/>
<polygon fill="#63b8ff" stroke="#63b8ff" points="222.14,-180.96 230.62,-174.61 220.03,-174.29 222.14,-180.96"/>
</a>
</g>
</g>
<!-- Node6 -->
<g id="Node000006" class="node">
<title>Node6</title>
<g id="a_Node000006"><a xlink:href="structttg__parsec_1_1detail_1_1parsec__ttg__task__t_3_01_t_t_00_01true_01_4.html#af9246483d815a6eed3c3f5d108219fe7" target="_top" xlink:title=" ">
<polygon fill="white" stroke="#666666" points="147,-185.5 0,-185.5 0,-144.5 147,-144.5 147,-185.5"/>
<text text-anchor="start" x="8" y="-173.5" font-family="Times,serif" font-size="10.00">ttg_parsec::detail</text>
<text text-anchor="start" x="8" y="-162.5" font-family="Times,serif" font-size="10.00">::parsec_ttg_task_t</text>
<text text-anchor="middle" x="73.5" y="-151.5" font-family="Times,serif" font-size="10.00">&lt; TT, true &gt;::release_task</text>
</a>
</g>
</g>
<!-- Node2&#45;&gt;Node6 -->
<g id="edge5_Node000002_Node000006" class="edge">
<title>Node2&#45;&gt;Node6</title>
<g id="a_edge5_Node000002_Node000006"><a xlink:title=" ">
<path fill="none" stroke="#63b8ff" d="M172.9,-165C164.27,-165 155.59,-165 147.14,-165"/>
<polygon fill="#63b8ff" stroke="#63b8ff" points="172.99,-168.5 182.99,-165 172.99,-161.5 172.99,-168.5"/>
</a>
</g>
</g>
<!-- Node7 -->
<g id="Node000007" class="node">
<title>Node7</title>
<g id="a_Node000007"><a xlink:href="classttg__parsec_1_1_t_t.html#adc3a5e538d9a4c192168317cb0db9814" target="_top" xlink:title=" ">
<polygon fill="white" stroke="#666666" points="128.5,-126 18.5,-126 18.5,-96 128.5,-96 128.5,-126"/>
<text text-anchor="start" x="26.5" y="-114" font-family="Times,serif" font-size="10.00">ttg_parsec::TT::set</text>
<text text-anchor="middle" x="73.5" y="-103" font-family="Times,serif" font-size="10.00">_arg_local_impl</text>
</a>
</g>
</g>
<!-- Node2&#45;&gt;Node7 -->
<g id="edge6_Node000002_Node000007" class="edge">
<title>Node2&#45;&gt;Node7</title>
<g id="a_edge6_Node000002_Node000007"><a xlink:title=" ">
<path fill="none" stroke="#63b8ff" d="M218.42,-152.67C191.1,-144.76 155.43,-134.43 126.44,-126.04"/>
<polygon fill="#63b8ff" stroke="#63b8ff" points="217.51,-156.05 228.09,-155.47 219.45,-149.33 217.51,-156.05"/>
</a>
</g>
</g>
<!-- Node8 -->
<g id="Node000008" class="node">
<title>Node8</title>
<g id="a_Node000008"><a xlink:href="classttg__parsec_1_1_t_t.html#af31b0b9c87c00dc31edfe4e6fa040442" target="_top" xlink:title=" ">
<polygon fill="white" stroke="#666666" points="128.5,-78 18.5,-78 18.5,-48 128.5,-48 128.5,-78"/>
<text text-anchor="start" x="26.5" y="-66" font-family="Times,serif" font-size="10.00">ttg_parsec::TT::set</text>
<text text-anchor="middle" x="73.5" y="-55" font-family="Times,serif" font-size="10.00">_argstream_size</text>
</a>
</g>
</g>
<!-- Node2&#45;&gt;Node8 -->
<g id="edge7_Node000002_Node000008" class="edge">
<title>Node2&#45;&gt;Node8</title>
<g id="a_edge7_Node000002_Node000008"><a xlink:title=" ">
<path fill="none" stroke="#63b8ff" d="M241.5,-149.12C219.6,-131.92 182.48,-104.57 147,-87 140.35,-83.7 133.13,-80.7 125.93,-78.02"/>
<polygon fill="#63b8ff" stroke="#63b8ff" points="239.37,-151.9 249.38,-155.39 243.73,-146.43 239.37,-151.9"/>
</a>
</g>
</g>
<!-- Node9 -->
<g id="Node000009" class="node">
<title>Node9</title>
<g id="a_Node000009"><a xlink:href="classttg__parsec_1_1_t_t.html#a5fba67769a0b313eb4548d311e0e632d" target="_top" xlink:title=" ">
<polygon fill="white" stroke="#666666" points="128.5,-30 18.5,-30 18.5,0 128.5,0 128.5,-30"/>
<text text-anchor="start" x="26.5" y="-18" font-family="Times,serif" font-size="10.00">ttg_parsec::TT::set</text>
<text text-anchor="middle" x="73.5" y="-7" font-family="Times,serif" font-size="10.00">_argstream_size</text>
</a>
</g>
</g>
<!-- Node2&#45;&gt;Node9 -->
<g id="edge8_Node000002_Node000009" class="edge">
<title>Node2&#45;&gt;Node9</title>
<g id="a_edge8_Node000002_Node000009"><a xlink:title=" ">
<path fill="none" stroke="#63b8ff" d="M249.08,-146.67C230.45,-119.4 191.88,-68.25 147,-39 141.33,-35.31 135.05,-32.14 128.62,-29.42"/>
<polygon fill="#63b8ff" stroke="#63b8ff" points="246.35,-148.87 254.82,-155.24 252.16,-144.98 246.35,-148.87"/>
</a>
</g>
</g>
</g>
</svg>
