<?xml version="1.0" encoding="UTF-8" standalone="no"?>
<!DOCTYPE svg PUBLIC "-//W3C//DTD SVG 1.1//EN"
 "http://www.w3.org/Graphics/SVG/1.1/DTD/svg11.dtd">
<!-- Generated by graphviz version 2.43.0 (0)
 -->
<!-- Title: ttg_madness::TT::invoke Pages: 1 -->
<svg width="492pt" height="99pt"
 viewBox="0.00 0.00 492.00 99.30" xmlns="http://www.w3.org/2000/svg" xmlns:xlink="http://www.w3.org/1999/xlink">
<g id="graph0" class="graph" transform="scale(1 1) rotate(0) translate(4 95.3)">
<title>ttg_madness::TT::invoke</title>
<!-- Node1 -->
<g id="Node000001" class="node">
<title>Node1</title>
<g id="a_Node000001"><a xlink:title="Manual injection of a key&#45;free task with all input arguments specified as a tuple.">
<polygon fill="#999999" stroke="#666666" points="140,-56 0,-56 0,-37 140,-37 140,-56"/>
<text text-anchor="middle" x="70" y="-44" font-family="Times,serif" font-size="10.00">ttg_madness::TT::invoke</text>
</a>
</g>
</g>
<!-- Node2 -->
<g id="Node000002" class="node">
<title>Node2</title>
<g id="a_Node000002"><a xlink:href="classttg__madness_1_1_t_t.html#a3fb0ab18d00c27fae64e1bd1b78d3d0d" target="_top" xlink:title=" ">
<polygon fill="white" stroke="#666666" points="484,-65 361,-65 361,-46 484,-46 484,-65"/>
<text text-anchor="middle" x="422.5" y="-53" font-family="Times,serif" font-size="10.00">ttg_madness::TT::get</text>
</a>
</g>
</g>
<!-- Node1&#45;&gt;Node2 -->
<g id="edge1_Node000001_Node000002" class="edge">
<title>Node1&#45;&gt;Node2</title>
<g id="a_edge1_Node000001_Node000002"><a xlink:title=" ">
<path fill="none" stroke="#63b8ff" d="M91.36,-56.01C112.12,-65.14 145.52,-78.29 176,-83.5 241.27,-94.66 259.44,-92.82 325,-83.5 345.69,-80.56 368.15,-74.24 386.2,-68.34"/>
<polygon fill="#63b8ff" stroke="#63b8ff" points="387.36,-71.64 395.72,-65.14 385.13,-65.01 387.36,-71.64"/>
</a>
</g>
</g>
<!-- Node3 -->
<g id="Node000003" class="node">
<title>Node3</title>
<g id="a_Node000003"><a xlink:href="namespacettg_1_1meta.html#affd90f350d054c6a5b4859644d834172" target="_top" xlink:title=" ">
<polygon fill="white" stroke="#666666" points="293,-56 208,-56 208,-37 293,-37 293,-56"/>
<text text-anchor="middle" x="250.5" y="-44" font-family="Times,serif" font-size="10.00">ttg::meta::get</text>
</a>
</g>
</g>
<!-- Node1&#45;&gt;Node3 -->
<g id="edge3_Node000001_Node000003" class="edge">
<title>Node1&#45;&gt;Node3</title>
<g id="a_edge3_Node000001_Node000003"><a xlink:title=" ">
<path fill="none" stroke="#63b8ff" d="M140.01,-46.5C159.21,-46.5 179.73,-46.5 197.75,-46.5"/>
<polygon fill="#63b8ff" stroke="#63b8ff" points="197.76,-50 207.76,-46.5 197.76,-43 197.76,-50"/>
</a>
</g>
</g>
<!-- Node4 -->
<g id="Node000004" class="node">
<title>Node4</title>
<g id="a_Node000004"><a xlink:href="classttg__madness_1_1_t_t.html#af4e8733dca2905582a1cbaeb3a090322" target="_top" xlink:title=" ">
<polygon fill="white" stroke="#666666" points="325,-19 176,-19 176,0 325,0 325,-19"/>
<text text-anchor="middle" x="250.5" y="-7" font-family="Times,serif" font-size="10.00">ttg_madness::TT::set_args</text>
</a>
</g>
</g>
<!-- Node1&#45;&gt;Node4 -->
<g id="edge5_Node000001_Node000004" class="edge">
<title>Node1&#45;&gt;Node4</title>
<g id="a_edge5_Node000001_Node000004"><a xlink:title=" ">
<path fill="none" stroke="#63b8ff" d="M116.97,-36.97C140.3,-32.14 168.84,-26.22 193.45,-21.12"/>
<polygon fill="#63b8ff" stroke="#63b8ff" points="194.3,-24.52 203.38,-19.06 192.88,-17.66 194.3,-24.52"/>
</a>
</g>
</g>
<!-- Node2&#45;&gt;Node2 -->
<g id="edge2_Node000002_Node000002" class="edge">
<title>Node2&#45;&gt;Node2</title>
<g id="a_edge2_Node000002_Node000002"><a xlink:title=" ">
<path fill="none" stroke="#63b8ff" d="M395.99,-65.08C383.09,-73.73 391.93,-83 422.5,-83 443.04,-83 453.77,-78.82 454.69,-73.45"/>
<polygon fill="#63b8ff" stroke="#63b8ff" points="457.52,-71.39 449.01,-65.08 451.73,-75.32 457.52,-71.39"/>
</a>
</g>
</g>
<!-- Node3&#45;&gt;Node3 -->
<g id="edge4_Node000003_Node000003" class="edge">
<title>Node3&#45;&gt;Node3</title>
<g id="a_edge4_Node000003_Node000003"><a xlink:title=" ">
<path fill="none" stroke="#63b8ff" d="M223.99,-56.08C211.09,-64.73 219.93,-74 250.5,-74 271.04,-74 281.77,-69.82 282.69,-64.45"/>
<polygon fill="#63b8ff" stroke="#63b8ff" points="285.52,-62.39 277.01,-56.08 279.73,-66.32 285.52,-62.39"/>
</a>
</g>
</g>
<!-- Node4&#45;&gt;Node2 -->
<g id="edge6_Node000004_Node000002" class="edge">
<title>Node4&#45;&gt;Node2</title>
<g id="a_edge6_Node000004_Node000002"><a xlink:title=" ">
<path fill="none" stroke="#63b8ff" d="M288.93,-19.02C300.51,-22.01 313.29,-25.35 325,-28.5 342.39,-33.18 361.49,-38.49 378.08,-43.15"/>
<polygon fill="#63b8ff" stroke="#63b8ff" points="377.48,-46.62 388.05,-45.96 379.38,-39.88 377.48,-46.62"/>
</a>
</g>
</g>
</g>
</svg>
