<?xml version="1.0" encoding="UTF-8" standalone="no"?>
<!DOCTYPE svg PUBLIC "-//W3C//DTD SVG 1.1//EN"
 "http://www.w3.org/Graphics/SVG/1.1/DTD/svg11.dtd">
<!-- Generated by graphviz version 2.43.0 (0)
 -->
<!-- Title: ttg::Out::send Pages: 1 -->
<svg width="216pt" height="101pt"
 viewBox="0.00 0.00 216.00 101.00" xmlns="http://www.w3.org/2000/svg" xmlns:xlink="http://www.w3.org/1999/xlink">
<g id="graph0" class="graph" transform="scale(1 1) rotate(0) translate(4 97)">
<title>ttg::Out::send</title>
<!-- Node1 -->
<g id="Node000001" class="node">
<title>Node1</title>
<g id="a_Node000001"><a xlink:title=" ">
<polygon fill="#999999" stroke="#666666" points="208,-56 122,-56 122,-37 208,-37 208,-56"/>
<text text-anchor="middle" x="165" y="-44" font-family="Times,serif" font-size="10.00">ttg::Out::send</text>
</a>
</g>
</g>
<!-- Node1&#45;&gt;Node1 -->
<g id="edge1_Node000001_Node000001" class="edge">
<title>Node1&#45;&gt;Node1</title>
<g id="a_edge1_Node000001_Node000001"><a xlink:title=" ">
<path fill="none" stroke="#63b8ff" d="M187.59,-65.55C186.08,-70.38 178.55,-74 165,-74 143.32,-74 137.05,-64.73 146.2,-56.08"/>
<polygon fill="#63b8ff" stroke="#63b8ff" points="190.77,-64.07 183.8,-56.08 184.27,-66.67 190.77,-64.07"/>
</a>
</g>
</g>
<!-- Node2 -->
<g id="Node000002" class="node">
<title>Node2</title>
<g id="a_Node000002"><a xlink:href="classttg_1_1_out.html#ad2a015783a18cb7e66096c95a9ae77d0" target="_top" xlink:title=" ">
<polygon fill="white" stroke="#666666" points="86,-93 0,-93 0,-74 86,-74 86,-93"/>
<text text-anchor="middle" x="43" y="-81" font-family="Times,serif" font-size="10.00">ttg::Out::send</text>
</a>
</g>
</g>
<!-- Node1&#45;&gt;Node2 -->
<g id="edge2_Node000001_Node000002" class="edge">
<title>Node1&#45;&gt;Node2</title>
<g id="a_edge2_Node000001_Node000002"><a xlink:title=" ">
<path fill="none" stroke="#63b8ff" d="M123.13,-59.1C107.46,-63.93 89.84,-69.37 75.22,-73.88"/>
<polygon fill="#63b8ff" stroke="#63b8ff" points="124.57,-62.32 133.1,-56.03 122.51,-55.63 124.57,-62.32"/>
</a>
</g>
</g>
<!-- Node3 -->
<g id="Node000003" class="node">
<title>Node3</title>
<g id="a_Node000003"><a xlink:href="namespacettg.html#a195eb3c0d9b0118dd7c94c0463840734" target="_top" xlink:title="Sends a task id and a value to the given output terminal.">
<polygon fill="white" stroke="#666666" points="74,-56 12,-56 12,-37 74,-37 74,-56"/>
<text text-anchor="middle" x="43" y="-44" font-family="Times,serif" font-size="10.00">ttg::send</text>
</a>
</g>
</g>
<!-- Node1&#45;&gt;Node3 -->
<g id="edge3_Node000001_Node000003" class="edge">
<title>Node1&#45;&gt;Node3</title>
<g id="a_edge3_Node000001_Node000003"><a xlink:title=" ">
<path fill="none" stroke="#63b8ff" d="M111.6,-46.5C98.82,-46.5 85.59,-46.5 74.25,-46.5"/>
<polygon fill="#63b8ff" stroke="#63b8ff" points="111.69,-50 121.69,-46.5 111.69,-43 111.69,-50"/>
</a>
</g>
</g>
<!-- Node4 -->
<g id="Node000004" class="node">
<title>Node4</title>
<g id="a_Node000004"><a xlink:href="namespacettg.html#a64fbfb8618ef226f6b3d49a7a46db0cb" target="_top" xlink:title="Sends a control message (message without an accompanying task id or a value) to the given output term...">
<polygon fill="white" stroke="#666666" points="74,-19 12,-19 12,0 74,0 74,-19"/>
<text text-anchor="middle" x="43" y="-7" font-family="Times,serif" font-size="10.00">ttg::send</text>
</a>
</g>
</g>
<!-- Node1&#45;&gt;Node4 -->
<g id="edge4_Node000001_Node000004" class="edge">
<title>Node1&#45;&gt;Node4</title>
<g id="a_edge4_Node000001_Node000004"><a xlink:title=" ">
<path fill="none" stroke="#63b8ff" d="M123.42,-33.99C107.38,-29.04 89.26,-23.46 74.38,-18.87"/>
<polygon fill="#63b8ff" stroke="#63b8ff" points="122.51,-37.37 133.1,-36.97 124.57,-30.68 122.51,-37.37"/>
</a>
</g>
</g>
</g>
</svg>
