<?xml version="1.0" encoding="UTF-8" standalone="no"?>
<!DOCTYPE svg PUBLIC "-//W3C//DTD SVG 1.1//EN"
 "http://www.w3.org/Graphics/SVG/1.1/DTD/svg11.dtd">
<!-- Generated by graphviz version 2.43.0 (0)
 -->
<!-- Title: ttg::Dot::ttfunc Pages: 1 -->
<svg width="429pt" height="353pt"
 viewBox="0.00 0.00 429.00 352.50" xmlns="http://www.w3.org/2000/svg" xmlns:xlink="http://www.w3.org/1999/xlink">
<g id="graph0" class="graph" transform="scale(1 1) rotate(0) translate(4 348.5)">
<title>ttg::Dot::ttfunc</title>
<!-- Node1 -->
<g id="Node000001" class="node">
<title>Node1</title>
<g id="a_Node000001"><a xlink:title=" ">
<polygon fill="#999999" stroke="#666666" points="91,-167 0,-167 0,-148 91,-148 91,-167"/>
<text text-anchor="middle" x="45.5" y="-155" font-family="Times,serif" font-size="10.00">ttg::Dot::ttfunc</text>
</a>
</g>
</g>
<!-- Node2 -->
<g id="Node000002" class="node">
<title>Node2</title>
<g id="a_Node000002"><a xlink:href="classttg_1_1_dot.html#acf2006cfe81db46f057e9501d6c1531b" target="_top" xlink:title=" ">
<polygon fill="white" stroke="#666666" points="251.5,-326.5 144.5,-326.5 144.5,-296.5 251.5,-296.5 251.5,-326.5"/>
<text text-anchor="start" x="152.5" y="-314.5" font-family="Times,serif" font-size="10.00">ttg::Dot::build_ttg</text>
<text text-anchor="middle" x="198" y="-303.5" font-family="Times,serif" font-size="10.00">_hierarchy</text>
</a>
</g>
</g>
<!-- Node1&#45;&gt;Node2 -->
<g id="edge1_Node000001_Node000002" class="edge">
<title>Node1&#45;&gt;Node2</title>
<g id="a_edge1_Node000001_Node000002"><a xlink:title=" ">
<path fill="none" stroke="#63b8ff" d="M49.87,-167.23C58.68,-191.23 84.66,-253.73 127,-287.5 129.61,-289.58 132.41,-291.49 135.34,-293.24"/>
<polygon fill="#63b8ff" stroke="#63b8ff" points="133.96,-296.46 144.44,-298 137.21,-290.26 133.96,-296.46"/>
</a>
</g>
</g>
<!-- Node4 -->
<g id="Node000004" class="node">
<title>Node4</title>
<g id="a_Node000004"><a xlink:href="namespacettg.html#afbabcd9802bf1bbdd302e7a612459353" target="_top" xlink:title="Make a tuple of Edges to pass to.">
<polygon fill="white" stroke="#666666" points="232,-278 164,-278 164,-259 232,-259 232,-278"/>
<text text-anchor="middle" x="198" y="-266" font-family="Times,serif" font-size="10.00">ttg::edges</text>
</a>
</g>
</g>
<!-- Node1&#45;&gt;Node4 -->
<g id="edge4_Node000001_Node000004" class="edge">
<title>Node1&#45;&gt;Node4</title>
<g id="a_edge4_Node000001_Node000004"><a xlink:title=" ">
<path fill="none" stroke="#63b8ff" d="M52,-167.09C63.42,-186.09 91.6,-228.58 127,-250.5 135.07,-255.5 144.48,-259.11 153.74,-261.73"/>
<polygon fill="#63b8ff" stroke="#63b8ff" points="153.1,-265.18 163.65,-264.19 154.79,-258.38 153.1,-265.18"/>
</a>
</g>
</g>
<!-- Node5 -->
<g id="Node000005" class="node">
<title>Node5</title>
<g id="a_Node000005"><a xlink:href="classttg_1_1_dot.html#a3b85f343706fbdd92d04b2d1ce656cf0" target="_top" xlink:title=" ">
<polygon fill="white" stroke="#666666" points="246,-241 150,-241 150,-222 246,-222 246,-241"/>
<text text-anchor="middle" x="198" y="-229" font-family="Times,serif" font-size="10.00">ttg::Dot::escape</text>
</a>
</g>
</g>
<!-- Node1&#45;&gt;Node5 -->
<g id="edge5_Node000001_Node000005" class="edge">
<title>Node1&#45;&gt;Node5</title>
<g id="a_edge5_Node000001_Node000005"><a xlink:title=" ">
<path fill="none" stroke="#63b8ff" d="M57.44,-167.04C72.24,-179.48 99.92,-201.09 127,-213.5 131.33,-215.49 135.92,-217.28 140.6,-218.89"/>
<polygon fill="#63b8ff" stroke="#63b8ff" points="139.67,-222.27 150.26,-221.96 141.78,-215.6 139.67,-222.27"/>
</a>
</g>
</g>
<!-- Node6 -->
<g id="Node000006" class="node">
<title>Node6</title>
<g id="a_Node000006"><a xlink:href="classttg_1_1_t_t_base.html#ac290f7b019ed37ec5f89777e853d3f27" target="_top" xlink:title="Returns the vector of input terminals.">
<polygon fill="white" stroke="#666666" points="265.5,-204 130.5,-204 130.5,-185 265.5,-185 265.5,-204"/>
<text text-anchor="middle" x="198" y="-192" font-family="Times,serif" font-size="10.00">ttg::TTBase::get_inputs</text>
</a>
</g>
</g>
<!-- Node1&#45;&gt;Node6 -->
<g id="edge6_Node000001_Node000006" class="edge">
<title>Node1&#45;&gt;Node6</title>
<g id="a_edge6_Node000001_Node000006"><a xlink:title=" ">
<path fill="none" stroke="#63b8ff" d="M85.26,-167.03C104.49,-171.76 127.93,-177.52 148.36,-182.54"/>
<polygon fill="#63b8ff" stroke="#63b8ff" points="147.57,-185.95 158.11,-184.94 149.24,-179.15 147.57,-185.95"/>
</a>
</g>
</g>
<!-- Node7 -->
<g id="Node000007" class="node">
<title>Node7</title>
<g id="a_Node000007"><a xlink:href="classttg_1_1_t_t_base.html#ade3b1e6b149fe1124f7192aeca5f715c" target="_top" xlink:title="Gets the name of this operation.">
<polygon fill="white" stroke="#666666" points="263.5,-167 132.5,-167 132.5,-148 263.5,-148 263.5,-167"/>
<text text-anchor="middle" x="198" y="-155" font-family="Times,serif" font-size="10.00">ttg::TTBase::get_name</text>
</a>
</g>
</g>
<!-- Node1&#45;&gt;Node7 -->
<g id="edge7_Node000001_Node000007" class="edge">
<title>Node1&#45;&gt;Node7</title>
<g id="a_edge7_Node000001_Node000007"><a xlink:title=" ">
<path fill="none" stroke="#63b8ff" d="M91.25,-157.5C101.03,-157.5 111.64,-157.5 122.24,-157.5"/>
<polygon fill="#63b8ff" stroke="#63b8ff" points="122.37,-161 132.37,-157.5 122.37,-154 122.37,-161"/>
</a>
</g>
</g>
<!-- Node8 -->
<g id="Node000008" class="node">
<title>Node8</title>
<g id="a_Node000008"><a xlink:href="classttg_1_1_t_t_base.html#a5158da66b2aa6b7af14998e7aac0fe29" target="_top" xlink:title="Returns the vector of output terminals.">
<polygon fill="white" stroke="#666666" points="269,-130 127,-130 127,-111 269,-111 269,-130"/>
<text text-anchor="middle" x="198" y="-118" font-family="Times,serif" font-size="10.00">ttg::TTBase::get_outputs</text>
</a>
</g>
</g>
<!-- Node1&#45;&gt;Node8 -->
<g id="edge8_Node000001_Node000008" class="edge">
<title>Node1&#45;&gt;Node8</title>
<g id="a_edge8_Node000001_Node000008"><a xlink:title=" ">
<path fill="none" stroke="#63b8ff" d="M85.26,-147.97C104.49,-143.24 127.93,-137.48 148.36,-132.46"/>
<polygon fill="#63b8ff" stroke="#63b8ff" points="149.24,-135.85 158.11,-130.06 147.57,-129.05 149.24,-135.85"/>
</a>
</g>
</g>
<!-- Node9 -->
<g id="Node000009" class="node">
<title>Node9</title>
<g id="a_Node000009"><a xlink:href="classttg_1_1_t_t_base.html#aa5e66ccbaacb885f49c041b9d999ef30" target="_top" xlink:title=" ">
<polygon fill="white" stroke="#666666" points="252.5,-93 143.5,-93 143.5,-74 252.5,-74 252.5,-93"/>
<text text-anchor="middle" x="198" y="-81" font-family="Times,serif" font-size="10.00">ttg::TTBase::is_ttg</text>
</a>
</g>
</g>
<!-- Node1&#45;&gt;Node9 -->
<g id="edge9_Node000001_Node000009" class="edge">
<title>Node1&#45;&gt;Node9</title>
<g id="a_edge9_Node000001_Node000009"><a xlink:title=" ">
<path fill="none" stroke="#63b8ff" d="M57.76,-147.98C72.68,-135.81 100.26,-114.84 127,-102.5 132.07,-100.16 137.49,-98.06 142.98,-96.19"/>
<polygon fill="#63b8ff" stroke="#63b8ff" points="144.4,-99.41 152.89,-93.06 142.3,-92.73 144.4,-99.41"/>
</a>
</g>
</g>
<!-- Node10 -->
<g id="Node000010" class="node">
<title>Node10</title>
<g id="a_Node000010"><a xlink:href="classttg_1_1_dot.html#a2613119aa8fbf04526b29cd7db9e9851" target="_top" xlink:title=" ">
<polygon fill="white" stroke="#666666" points="255.5,-56 140.5,-56 140.5,-37 255.5,-37 255.5,-56"/>
<text text-anchor="middle" x="198" y="-44" font-family="Times,serif" font-size="10.00">ttg::Dot::nodename</text>
</a>
</g>
</g>
<!-- Node1&#45;&gt;Node10 -->
<g id="edge10_Node000001_Node000010" class="edge">
<title>Node1&#45;&gt;Node10</title>
<g id="a_edge10_Node000001_Node000010"><a xlink:title=" ">
<path fill="none" stroke="#63b8ff" d="M52.23,-147.76C63.86,-128.9 92.08,-87.32 127,-65.5 130.39,-63.38 134.01,-61.5 137.76,-59.82"/>
<polygon fill="#63b8ff" stroke="#63b8ff" points="139.25,-63 147.27,-56.07 136.68,-56.49 139.25,-63"/>
</a>
</g>
</g>
<!-- Node11 -->
<g id="Node000011" class="node">
<title>Node11</title>
<g id="a_Node000011"><a xlink:href="namespacettg.html#a293bb7226707f202e735a9b3e4c76fab" target="_top" xlink:title=" ">
<polygon fill="white" stroke="#666666" points="226,-19 170,-19 170,0 226,0 226,-19"/>
<text text-anchor="middle" x="198" y="-7" font-family="Times,serif" font-size="10.00">ttg::size</text>
</a>
</g>
</g>
<!-- Node1&#45;&gt;Node11 -->
<g id="edge11_Node000001_Node000011" class="edge">
<title>Node1&#45;&gt;Node11</title>
<g id="a_edge11_Node000001_Node000011"><a xlink:title=" ">
<path fill="none" stroke="#63b8ff" d="M49.76,-147.67C58.32,-123.46 83.77,-60.62 127,-28.5 136.44,-21.49 148.31,-17.06 159.58,-14.27"/>
<polygon fill="#63b8ff" stroke="#63b8ff" points="160.62,-17.63 169.68,-12.14 159.17,-10.78 160.62,-17.63"/>
</a>
</g>
</g>
<!-- Node2&#45;&gt;Node2 -->
<g id="edge2_Node000002_Node000002" class="edge">
<title>Node2&#45;&gt;Node2</title>
<g id="a_edge2_Node000002_Node000002"><a xlink:title=" ">
<path fill="none" stroke="#63b8ff" d="M171.28,-326.78C165.34,-335.91 174.25,-344.5 198,-344.5 212.1,-344.5 220.97,-341.47 224.61,-337.1"/>
<polygon fill="#63b8ff" stroke="#63b8ff" points="228.11,-336.81 224.72,-326.78 221.11,-336.74 228.11,-336.81"/>
</a>
</g>
</g>
<!-- Node3 -->
<g id="Node000003" class="node">
<title>Node3</title>
<g id="a_Node000003"><a xlink:href="classttg_1_1_t_t_base.html#adcab40e07df652c00c9b2b208412e767" target="_top" xlink:title=" ">
<polygon fill="white" stroke="#666666" points="421,-321 305,-321 305,-302 421,-302 421,-321"/>
<text text-anchor="middle" x="363" y="-309" font-family="Times,serif" font-size="10.00">ttg::TTBase::ttg_ptr</text>
</a>
</g>
</g>
<!-- Node2&#45;&gt;Node3 -->
<g id="edge3_Node000002_Node000003" class="edge">
<title>Node2&#45;&gt;Node3</title>
<g id="a_edge3_Node000002_Node000003"><a xlink:title=" ">
<path fill="none" stroke="#63b8ff" d="M251.92,-311.5C265.54,-311.5 280.37,-311.5 294.61,-311.5"/>
<polygon fill="#63b8ff" stroke="#63b8ff" points="294.85,-315 304.85,-311.5 294.85,-308 294.85,-315"/>
</a>
</g>
</g>
</g>
</svg>
