<?xml version="1.0" encoding="UTF-8" standalone="no"?>
<!DOCTYPE svg PUBLIC "-//W3C//DTD SVG 1.1//EN"
 "http://www.w3.org/Graphics/SVG/1.1/DTD/svg11.dtd">
<!-- Generated by graphviz version 2.43.0 (0)
 -->
<!-- Title: ttg_madness::TT::set_args Pages: 1 -->
<svg width="518pt" height="201pt"
 viewBox="0.00 0.00 518.00 201.40" xmlns="http://www.w3.org/2000/svg" xmlns:xlink="http://www.w3.org/1999/xlink">
<g id="graph0" class="graph" transform="scale(1 1) rotate(0) translate(4 197.4)">
<title>ttg_madness::TT::set_args</title>
<!-- Node1 -->
<g id="Node000001" class="node">
<title>Node1</title>
<g id="a_Node000001"><a xlink:title=" ">
<polygon fill="#999999" stroke="#666666" points="510,-112 361,-112 361,-93 510,-93 510,-112"/>
<text text-anchor="middle" x="435.5" y="-100" font-family="Times,serif" font-size="10.00">ttg_madness::TT::set_args</text>
</a>
</g>
</g>
<!-- Node2 -->
<g id="Node000002" class="node">
<title>Node2</title>
<g id="a_Node000002"><a xlink:href="classttg__madness_1_1_t_t.html#a59514d2ebb826c9b78b96d89f3067c51" target="_top" xlink:title="Manual injection of a task that has no key or arguments.">
<polygon fill="white" stroke="#666666" points="320.5,-169 180.5,-169 180.5,-150 320.5,-150 320.5,-169"/>
<text text-anchor="middle" x="250.5" y="-157" font-family="Times,serif" font-size="10.00">ttg_madness::TT::invoke</text>
</a>
</g>
</g>
<!-- Node1&#45;&gt;Node2 -->
<g id="edge1_Node000001_Node000002" class="edge">
<title>Node1&#45;&gt;Node2</title>
<g id="a_edge1_Node000001_Node000002"><a xlink:title=" ">
<path fill="none" stroke="#63b8ff" d="M394.3,-115.02C360.54,-125.54 313.01,-140.34 282.23,-149.93"/>
<polygon fill="#63b8ff" stroke="#63b8ff" points="395.36,-118.36 403.87,-112.04 393.28,-111.67 395.36,-118.36"/>
</a>
</g>
</g>
<!-- Node3 -->
<g id="Node000003" class="node">
<title>Node3</title>
<g id="a_Node000003"><a xlink:href="classttg__madness_1_1_t_t.html#ab8d0229e3251029b0efa3019fea5bade" target="_top" xlink:title="Manual injection of a task that has no arguments.">
<polygon fill="white" stroke="#666666" points="140,-187 0,-187 0,-168 140,-168 140,-187"/>
<text text-anchor="middle" x="70" y="-175" font-family="Times,serif" font-size="10.00">ttg_madness::TT::invoke</text>
</a>
</g>
</g>
<!-- Node1&#45;&gt;Node3 -->
<g id="edge5_Node000001_Node000003" class="edge">
<title>Node1&#45;&gt;Node3</title>
<g id="a_edge5_Node000001_Node000003"><a xlink:title=" ">
<path fill="none" stroke="#63b8ff" d="M417.68,-119.19C397.61,-137.83 362.07,-166.9 325,-178.5 258.61,-199.28 177.59,-194.07 125.19,-187.01"/>
<polygon fill="#63b8ff" stroke="#63b8ff" points="420.24,-121.59 425.06,-112.16 415.41,-116.52 420.24,-121.59"/>
</a>
</g>
</g>
<!-- Node4 -->
<g id="Node000004" class="node">
<title>Node4</title>
<g id="a_Node000004"><a xlink:href="classttg__madness_1_1_t_t.html#a6ff79e4a17fce6ba8f7ed14732c3d6ef" target="_top" xlink:title="Manual injection of a task with all input arguments specified as a tuple.">
<polygon fill="white" stroke="#666666" points="140,-150 0,-150 0,-131 140,-131 140,-150"/>
<text text-anchor="middle" x="70" y="-138" font-family="Times,serif" font-size="10.00">ttg_madness::TT::invoke</text>
</a>
</g>
</g>
<!-- Node1&#45;&gt;Node4 -->
<g id="edge6_Node000001_Node000004" class="edge">
<title>Node1&#45;&gt;Node4</title>
<g id="a_edge6_Node000001_Node000004"><a xlink:title=" ">
<path fill="none" stroke="#63b8ff" d="M350.9,-111.24C287.04,-117.92 200.1,-127 140.14,-133.27"/>
<polygon fill="#63b8ff" stroke="#63b8ff" points="351.36,-114.71 360.94,-110.19 350.63,-107.75 351.36,-114.71"/>
</a>
</g>
</g>
<!-- Node5 -->
<g id="Node000005" class="node">
<title>Node5</title>
<g id="a_Node000005"><a xlink:href="classttg__madness_1_1_t_t.html#a76a8349bdad334b8f59b7c3adee7fa62" target="_top" xlink:title="Manual injection of a key&#45;free task with all input arguments specified as a tuple.">
<polygon fill="white" stroke="#666666" points="320.5,-93 180.5,-93 180.5,-74 320.5,-74 320.5,-93"/>
<text text-anchor="middle" x="250.5" y="-81" font-family="Times,serif" font-size="10.00">ttg_madness::TT::invoke</text>
</a>
</g>
</g>
<!-- Node1&#45;&gt;Node5 -->
<g id="edge4_Node000001_Node000005" class="edge">
<title>Node1&#45;&gt;Node5</title>
<g id="a_edge4_Node000001_Node000005"><a xlink:title=" ">
<path fill="none" stroke="#63b8ff" d="M350.8,-93.81C340.67,-92.76 330.42,-91.69 320.54,-90.67"/>
<polygon fill="#63b8ff" stroke="#63b8ff" points="350.55,-97.3 360.86,-94.85 351.27,-90.34 350.55,-97.3"/>
</a>
</g>
</g>
<!-- Node6 -->
<g id="Node000006" class="node">
<title>Node6</title>
<g id="a_Node000006"><a xlink:href="classttg__madness_1_1_t_t.html#a8214117e937ee0b508057681986ac135" target="_top" xlink:title=" ">
<polygon fill="white" stroke="#666666" points="325,-56 176,-56 176,-37 325,-37 325,-56"/>
<text text-anchor="middle" x="250.5" y="-44" font-family="Times,serif" font-size="10.00">ttg_madness::TT::set_args</text>
</a>
</g>
</g>
<!-- Node1&#45;&gt;Node6 -->
<g id="edge7_Node000001_Node000006" class="edge">
<title>Node1&#45;&gt;Node6</title>
<g id="a_edge7_Node000001_Node000006"><a xlink:title=" ">
<path fill="none" stroke="#63b8ff" d="M399.44,-89.39C378.09,-81.64 350.16,-71.93 325,-64.5 314.79,-61.49 303.69,-58.58 293.27,-56.01"/>
<polygon fill="#63b8ff" stroke="#63b8ff" points="398.46,-92.76 409.06,-92.91 400.87,-86.19 398.46,-92.76"/>
</a>
</g>
</g>
<!-- Node7 -->
<g id="Node000007" class="node">
<title>Node7</title>
<g id="a_Node000007"><a xlink:href="classttg__madness_1_1_t_t.html#abb7480104b7c038fc698d998b2453bf1" target="_top" xlink:title=" ">
<polygon fill="white" stroke="#666666" points="325,-19 176,-19 176,0 325,0 325,-19"/>
<text text-anchor="middle" x="250.5" y="-7" font-family="Times,serif" font-size="10.00">ttg_madness::TT::set_args</text>
</a>
</g>
</g>
<!-- Node1&#45;&gt;Node7 -->
<g id="edge8_Node000001_Node000007" class="edge">
<title>Node1&#45;&gt;Node7</title>
<g id="a_edge8_Node000001_Node000007"><a xlink:title=" ">
<path fill="none" stroke="#63b8ff" d="M415.74,-86.49C394.89,-69.48 359.57,-42.95 325,-27.5 317.44,-24.12 309.16,-21.32 300.95,-19.01"/>
<polygon fill="#63b8ff" stroke="#63b8ff" points="413.57,-89.23 423.5,-92.92 418.04,-83.84 413.57,-89.23"/>
</a>
</g>
</g>
<!-- Node2&#45;&gt;Node3 -->
<g id="edge2_Node000002_Node000003" class="edge">
<title>Node2&#45;&gt;Node3</title>
<g id="a_edge2_Node000002_Node000003"><a xlink:title=" ">
<path fill="none" stroke="#63b8ff" d="M170.46,-167.47C160.35,-168.49 150.06,-169.53 140.12,-170.53"/>
<polygon fill="#63b8ff" stroke="#63b8ff" points="170.89,-170.95 180.49,-166.46 170.19,-163.98 170.89,-170.95"/>
</a>
</g>
</g>
<!-- Node2&#45;&gt;Node4 -->
<g id="edge3_Node000002_Node000004" class="edge">
<title>Node2&#45;&gt;Node4</title>
<g id="a_edge3_Node000002_Node000004"><a xlink:title=" ">
<path fill="none" stroke="#63b8ff" d="M170.46,-151.09C160.35,-150.01 150.06,-148.92 140.12,-147.86"/>
<polygon fill="#63b8ff" stroke="#63b8ff" points="170.17,-154.58 180.49,-152.15 170.91,-147.62 170.17,-154.58"/>
</a>
</g>
</g>
</g>
</svg>
