<?xml version="1.0" encoding="UTF-8" standalone="no"?>
<!DOCTYPE svg PUBLIC "-//W3C//DTD SVG 1.1//EN"
 "http://www.w3.org/Graphics/SVG/1.1/DTD/svg11.dtd">
<!-- Generated by graphviz version 2.43.0 (0)
 -->
<!-- Title: ttg::Dot::tree_down Pages: 1 -->
<svg width="289pt" height="64pt"
 viewBox="0.00 0.00 289.00 64.00" xmlns="http://www.w3.org/2000/svg" xmlns:xlink="http://www.w3.org/1999/xlink">
<g id="graph0" class="graph" transform="scale(1 1) rotate(0) translate(4 60)">
<title>ttg::Dot::tree_down</title>
<!-- Node1 -->
<g id="Node000001" class="node">
<title>Node1</title>
<g id="a_Node000001"><a xlink:title=" ">
<polygon fill="#999999" stroke="#666666" points="114,-37 0,-37 0,-18 114,-18 114,-37"/>
<text text-anchor="middle" x="57" y="-25" font-family="Times,serif" font-size="10.00">ttg::Dot::tree_down</text>
</a>
</g>
</g>
<!-- Node1&#45;&gt;Node1 -->
<g id="edge3_Node000001_Node000001" class="edge">
<title>Node1&#45;&gt;Node1</title>
<g id="a_edge3_Node000001_Node000001"><a xlink:title=" ">
<path fill="none" stroke="#63b8ff" d="M32.65,-37.08C20.8,-45.73 28.92,-55 57,-55 75.43,-55 85.26,-51.01 86.49,-45.82"/>
<polygon fill="#63b8ff" stroke="#63b8ff" points="89.44,-43.93 81.35,-37.08 83.41,-47.48 89.44,-43.93"/>
</a>
</g>
</g>
<!-- Node2 -->
<g id="Node000002" class="node">
<title>Node2</title>
<g id="a_Node000002"><a xlink:href="classttg_1_1_t_t_base.html#ade3b1e6b149fe1124f7192aeca5f715c" target="_top" xlink:title="Gets the name of this operation.">
<polygon fill="white" stroke="#666666" points="281,-56 150,-56 150,-37 281,-37 281,-56"/>
<text text-anchor="middle" x="215.5" y="-44" font-family="Times,serif" font-size="10.00">ttg::TTBase::get_name</text>
</a>
</g>
</g>
<!-- Node1&#45;&gt;Node2 -->
<g id="edge1_Node000001_Node000002" class="edge">
<title>Node1&#45;&gt;Node2</title>
<g id="a_edge1_Node000001_Node000002"><a xlink:title=" ">
<path fill="none" stroke="#63b8ff" d="M114.06,-34.31C122.38,-35.32 131.07,-36.37 139.7,-37.42"/>
<polygon fill="#63b8ff" stroke="#63b8ff" points="139.43,-40.91 149.78,-38.64 140.27,-33.96 139.43,-40.91"/>
</a>
</g>
</g>
<!-- Node3 -->
<g id="Node000003" class="node">
<title>Node3</title>
<g id="a_Node000003"><a xlink:href="classttg_1_1_t_t_base.html#aa5e66ccbaacb885f49c041b9d999ef30" target="_top" xlink:title=" ">
<polygon fill="white" stroke="#666666" points="270,-19 161,-19 161,0 270,0 270,-19"/>
<text text-anchor="middle" x="215.5" y="-7" font-family="Times,serif" font-size="10.00">ttg::TTBase::is_ttg</text>
</a>
</g>
</g>
<!-- Node1&#45;&gt;Node3 -->
<g id="edge2_Node000001_Node000003" class="edge">
<title>Node1&#45;&gt;Node3</title>
<g id="a_edge2_Node000001_Node000003"><a xlink:title=" ">
<path fill="none" stroke="#63b8ff" d="M114.06,-21.05C125.98,-19.68 138.65,-18.22 150.84,-16.82"/>
<polygon fill="#63b8ff" stroke="#63b8ff" points="151.39,-20.28 160.93,-15.66 150.59,-13.33 151.39,-20.28"/>
</a>
</g>
</g>
</g>
</svg>
