<?xml version="1.0" encoding="UTF-8" standalone="no"?>
<!DOCTYPE svg PUBLIC "-//W3C//DTD SVG 1.1//EN"
 "http://www.w3.org/Graphics/SVG/1.1/DTD/svg11.dtd">
<!-- Generated by graphviz version 2.43.0 (0)
 -->
<!-- Title: ttg::BinaryTreeBroadcast::op Pages: 1 -->
<!--zoomable 246 -->

<svg id="main" version="1.1" xmlns="http://www.w3.org/2000/svg" xmlns:xlink="http://www.w3.org/1999/xlink" xml:space="preserve" onload="init(evt)">
<style type="text/css"><![CDATA[
.node, .edge {opacity: 0.7;}
.node.selected, .edge.selected {opacity: 1;}
.edge:hover path { stroke: red; }
.edge:hover polygon { stroke: red; fill: red; }
]]></style>

<defs>
  <circle id="rim" cx="0" cy="0" r="7"/>
  <circle id="rim2" cx="0" cy="0" r="3.5"/>
  <g id="zoomPlus">
    <use xlink:href="#rim" fill="#404040"><set attributeName="fill" to="#808080" begin="zoomplus.mouseover" end="zoomplus.mouseout"/></use>
    <path d="M-4,0h8M0,-4v8" fill="none" stroke="white" stroke-width="1.5" pointer-events="none"/>
  </g>
  <g id="zoomMin">
    <use xlink:href="#rim" fill="#404040"><set attributeName="fill" to="#808080" begin="zoomminus.mouseover" end="zoomminus.mouseout"/></use>
    <path d="M-4,0h8" fill="none" stroke="white" stroke-width="1.5" pointer-events="none"/>
  </g>
  <g id="arrowUp" transform="translate(30 24)">
    <use xlink:href="#rim"/>
    <path pointer-events="none" fill="none" stroke="white" stroke-width="1.5" d="M0,-3.0v7 M-2.5,-0.5L0,-3.0L2.5,-0.5"/>
  </g>
  <g id="arrowRight" transform="rotate(90) translate(36 -43)">
    <use xlink:href="#rim"/>
    <path pointer-events="none" fill="none" stroke="white" stroke-width="1.5" d="M0,-3.0v7 M-2.5,-0.5L0,-3.0L2.5,-0.5"/>
  </g>
  <g id="arrowDown" transform="rotate(180) translate(-30 -48)">
    <use xlink:href="#rim"/>
    <path pointer-events="none" fill="none" stroke="white" stroke-width="1.5" d="M0,-3.0v7 M-2.5,-0.5L0,-3.0L2.5,-0.5"/>
  </g>
  <g id="arrowLeft" transform="rotate(270) translate(-36 17)">
    <use xlink:href="#rim"/>
    <path pointer-events="none" fill="none" stroke="white" stroke-width="1.5" d="M0,-3.0v7 M-2.5,-0.5L0,-3.0L2.5,-0.5"/>
  </g>
  <g id="resetDef">
    <use xlink:href="#rim2" fill="#404040"><set attributeName="fill" to="#808080" begin="reset.mouseover" end="reset.mouseout"/></use>
  </g>
</defs>
<script type="application/ecmascript">
var viewWidth = 530;
var viewHeight = 246;
var sectionId = 'dynsection-2';
</script>
<script type="application/ecmascript" xlink:href="svg.min.js"/>
<svg id="graph" class="graph">
<g id="viewport">
<title>ttg::BinaryTreeBroadcast::op</title>
<!-- Node1 -->
<g id="Node000001" class="node">
<title>Node1</title>
<g id="a_Node000001"><a xlink:title=" ">
<polygon fill="#999999" stroke="#666666" points="164,-110.5 0,-110.5 0,-91.5 164,-91.5 164,-110.5"/>
<text text-anchor="middle" x="82" y="-98.5" font-family="Times,serif" font-size="10.00">ttg::BinaryTreeBroadcast::op</text>
</a>
</g>
</g>
<!-- Node2 -->
<g id="Node000002" class="node">
<title>Node2</title>
<g id="a_Node000002"><a xlink:href="classttg_1_1_binary_spanning_tree.html#a622b8d511132839777fabfb8d71c8c12" target="_top" xlink:title=" ">
<polygon fill="white" stroke="#666666" points="343,-220 200,-220 200,-190 343,-190 343,-220"/>
<text text-anchor="start" x="208" y="-208" font-family="Times,serif" font-size="10.00">ttg::BinarySpanningTree</text>
<text text-anchor="middle" x="271.5" y="-197" font-family="Times,serif" font-size="10.00">::child_keys</text>
</a>
</g>
</g>
<!-- Node1&#45;&gt;Node2 -->
<g id="edge1_Node000001_Node000002" class="edge">
<title>Node1&#45;&gt;Node2</title>
<g id="a_edge1_Node000001_Node000002"><a xlink:title=" ">
<path fill="none" stroke="#63b8ff" d="M94.62,-110.55C114.92,-126.86 158.63,-160.3 200,-181 203.54,-182.77 207.24,-184.46 211.02,-186.07"/>
<polygon fill="#63b8ff" stroke="#63b8ff" points="209.92,-189.4 220.5,-189.88 212.53,-182.9 209.92,-189.4"/>
</a>
</g>
</g>
<!-- Node4 -->
<g id="Node000004" class="node">
<title>Node4</title>
<g id="a_Node000004"><a xlink:href="classttg__parsec_1_1_t_t.html#aab59a1bf0fcc4f771457b5f05cb42741" target="_top" xlink:title=" ">
<polygon fill="white" stroke="#666666" points="327,-153.5 216,-153.5 216,-134.5 327,-134.5 327,-153.5"/>
<text text-anchor="middle" x="271.5" y="-141.5" font-family="Times,serif" font-size="10.00">ttg_parsec::TT::get</text>
</a>
</g>
</g>
<!-- Node1&#45;&gt;Node4 -->
<g id="edge4_Node000001_Node000004" class="edge">
<title>Node1&#45;&gt;Node4</title>
<g id="a_edge4_Node000001_Node000004"><a xlink:title=" ">
<path fill="none" stroke="#63b8ff" d="M124.61,-110.54C152.53,-116.95 189.49,-125.42 219.22,-132.24"/>
<polygon fill="#63b8ff" stroke="#63b8ff" points="218.47,-135.66 229,-134.48 220.04,-128.84 218.47,-135.66"/>
</a>
</g>
</g>
<!-- Node5 -->
<g id="Node000005" class="node">
<title>Node5</title>
<g id="a_Node000005"><a xlink:href="classttg__parsec_1_1_t_t.html#a0b6df5b0372c3a8819ecf15f2f3bc0b0" target="_top" xlink:title=" ">
<polygon fill="white" stroke="#666666" points="327,-116 216,-116 216,-86 327,-86 327,-116"/>
<text text-anchor="start" x="224" y="-104" font-family="Times,serif" font-size="10.00">ttg_parsec::TT::get</text>
<text text-anchor="middle" x="271.5" y="-93" font-family="Times,serif" font-size="10.00">_world</text>
</a>
</g>
</g>
<!-- Node1&#45;&gt;Node5 -->
<g id="edge6_Node000001_Node000005" class="edge">
<title>Node1&#45;&gt;Node5</title>
<g id="a_edge6_Node000001_Node000005"><a xlink:title=" ">
<path fill="none" stroke="#63b8ff" d="M164.15,-101C178.11,-101 192.45,-101 205.9,-101"/>
<polygon fill="#63b8ff" stroke="#63b8ff" points="205.99,-104.5 215.99,-101 205.99,-97.5 205.99,-104.5"/>
</a>
</g>
</g>
<!-- Node6 -->
<g id="Node000006" class="node">
<title>Node6</title>
<g id="a_Node000006"><a xlink:href="namespacettg.html#ac0ad1dd3b87329e4acf9774df6dc8473" target="_top" xlink:title=" ">
<polygon fill="white" stroke="#666666" points="301.5,-67.5 241.5,-67.5 241.5,-48.5 301.5,-48.5 301.5,-67.5"/>
<text text-anchor="middle" x="271.5" y="-55.5" font-family="Times,serif" font-size="10.00">ttg::rank</text>
</a>
</g>
</g>
<!-- Node1&#45;&gt;Node6 -->
<g id="edge7_Node000001_Node000006" class="edge">
<title>Node1&#45;&gt;Node6</title>
<g id="a_edge7_Node000001_Node000006"><a xlink:title=" ">
<path fill="none" stroke="#63b8ff" d="M124.61,-91.46C156.41,-84.17 199.93,-74.18 231.15,-67.02"/>
<polygon fill="#63b8ff" stroke="#63b8ff" points="232.26,-70.36 241.23,-64.71 230.7,-63.54 232.26,-70.36"/>
</a>
</g>
</g>
<!-- Node7 -->
<g id="Node000007" class="node">
<title>Node7</title>
<g id="a_Node000007"><a xlink:href="classttg_1_1_binary_spanning_tree.html#a50317fa104da9be95076c49adba9e842" target="_top" xlink:title=" ">
<polygon fill="white" stroke="#666666" points="343,-30 200,-30 200,0 343,0 343,-30"/>
<text text-anchor="start" x="208" y="-18" font-family="Times,serif" font-size="10.00">ttg::BinarySpanningTree</text>
<text text-anchor="middle" x="271.5" y="-7" font-family="Times,serif" font-size="10.00">::size</text>
</a>
</g>
</g>
<!-- Node1&#45;&gt;Node7 -->
<g id="edge8_Node000001_Node000007" class="edge">
<title>Node1&#45;&gt;Node7</title>
<g id="a_edge8_Node000001_Node000007"><a xlink:title=" ">
<path fill="none" stroke="#63b8ff" d="M99.69,-91.35C122.07,-78.63 163.25,-56 200,-40 204.99,-37.83 210.23,-35.7 215.51,-33.66"/>
<polygon fill="#63b8ff" stroke="#63b8ff" points="216.88,-36.88 225,-30.08 214.41,-30.33 216.88,-36.88"/>
</a>
</g>
</g>
<!-- Node3 -->
<g id="Node000003" class="node">
<title>Node3</title>
<g id="a_Node000003"><a xlink:href="classttg_1_1_binary_spanning_tree.html#a31c570498d5fa0e40944ef57ccfc8ef1" target="_top" xlink:title=" ">
<polygon fill="white" stroke="#666666" points="522,-220 379,-220 379,-190 522,-190 522,-220"/>
<text text-anchor="start" x="387" y="-208" font-family="Times,serif" font-size="10.00">ttg::BinarySpanningTree</text>
<text text-anchor="middle" x="450.5" y="-197" font-family="Times,serif" font-size="10.00">::parent_key</text>
</a>
</g>
</g>
<!-- Node2&#45;&gt;Node3 -->
<g id="edge2_Node000002_Node000003" class="edge">
<title>Node2&#45;&gt;Node3</title>
<g id="a_edge2_Node000002_Node000003"><a xlink:title=" ">
<path fill="none" stroke="#63b8ff" d="M343.22,-205C351.57,-205 360.14,-205 368.62,-205"/>
<polygon fill="#63b8ff" stroke="#63b8ff" points="368.89,-208.5 378.89,-205 368.89,-201.5 368.89,-208.5"/>
</a>
</g>
</g>
<!-- Node3&#45;&gt;Node3 -->
<g id="edge3_Node000003_Node000003" class="edge">
<title>Node3&#45;&gt;Node3</title>
<g id="a_edge3_Node000003_Node000003"><a xlink:title=" ">
<path fill="none" stroke="#63b8ff" d="M419.21,-220.28C412.26,-229.41 422.69,-238 450.5,-238 467.01,-238 477.4,-234.97 481.66,-230.6"/>
<polygon fill="#63b8ff" stroke="#63b8ff" points="485.16,-230.32 481.79,-220.28 478.16,-230.23 485.16,-230.32"/>
</a>
</g>
</g>
<!-- Node4&#45;&gt;Node4 -->
<g id="edge5_Node000004_Node000004" class="edge">
<title>Node4&#45;&gt;Node4</title>
<g id="a_edge5_Node000004_Node000004"><a xlink:title=" ">
<path fill="none" stroke="#63b8ff" d="M244.07,-153.58C230.72,-162.23 239.86,-171.5 271.5,-171.5 292.76,-171.5 303.86,-167.32 304.81,-161.95"/>
<polygon fill="#63b8ff" stroke="#63b8ff" points="307.55,-159.76 298.93,-153.58 301.82,-163.78 307.55,-159.76"/>
</a>
</g>
</g>
</g>
</svg>

<g id="navigator" transform="translate(0 0)" fill="#404254">
  <rect fill="#f2f5e9" fill-opacity="0.5" stroke="#606060" stroke-width=".5" x="0" y="0" width="60" height="60"/>
  <use id="zoomplus" xlink:href="#zoomPlus" x="17" y="9" onmousedown="handleZoom(evt,'in')"/>
  <use id="zoomminus" xlink:href="#zoomMin" x="42" y="9" onmousedown="handleZoom(evt,'out')"/>
  <use id="reset" xlink:href="#resetDef" x="30" y="36" onmousedown="handleReset()"/>
   <use id="arrowup" xlink:href="#arrowUp" x="0" y="0" onmousedown="handlePan(0,-1)"/>
  <use id="arrowright" xlink:href="#arrowRight" x="0" y="0" onmousedown="handlePan(1,0)"/>
  <use id="arrowdown" xlink:href="#arrowDown" x="0" y="0" onmousedown="handlePan(0,1)"/>
  <use id="arrowleft" xlink:href="#arrowLeft" x="0" y="0" onmousedown="handlePan(-1,0)"/>
</g>
<svg viewBox="0 0 15 15" width="100%" height="30px" preserveAspectRatio="xMaxYMin meet">
 <g id="arrow_out" transform="scale(0.3 0.3)">
  <a xlink:href="classttg_1_1_binary_tree_broadcast_aa839d772aa8ece8897255cd8f87a9456_cgraph_org.svg" target="_base">
   <rect id="button" ry="5" rx="5" y="6" x="6" height="38" width="38"
        fill="#f2f5e9" fill-opacity="0.5" stroke="#606060" stroke-width="1.0"/>
   <path id="arrow"
     d="M 11.500037,31.436501 C 11.940474,20.09759 22.043105,11.32322 32.158766,21.979434 L 37.068811,17.246167 C 37.068811,17.246167 37.088388,32 37.088388,32 L 22.160133,31.978069 C 22.160133,31.978069 26.997745,27.140456 26.997745,27.140456 C 18.528582,18.264221 13.291696,25.230495 11.500037,31.436501 z"
     style="fill:#404040;"/>
  </a>
 </g>
</svg>

<style type='text/css'>
<![CDATA[
[data-mouse-over-selected='false'] { opacity: 0.7; }
[data-mouse-over-selected='true']  { opacity: 1.0; }
]]>
</style>
<script type="application/ecmascript"><![CDATA[
document.addEventListener('DOMContentLoaded', (event) => {
  highlightEdges();
  highlightAdjacentNodes();
});
]]></script>
</svg>
