<?xml version="1.0" encoding="UTF-8" standalone="no"?>
<!DOCTYPE svg PUBLIC "-//W3C//DTD SVG 1.1//EN"
 "http://www.w3.org/Graphics/SVG/1.1/DTD/svg11.dtd">
<!-- Generated by graphviz version 2.43.0 (0)
 -->
<!-- Title: ttg::BinarySpanningTree::parent_key Pages: 1 -->
<svg width="530pt" height="73pt"
 viewBox="0.00 0.00 530.00 72.50" xmlns="http://www.w3.org/2000/svg" xmlns:xlink="http://www.w3.org/1999/xlink">
<g id="graph0" class="graph" transform="scale(1 1) rotate(0) translate(4 68.5)">
<title>ttg::BinarySpanningTree::parent_key</title>
<!-- Node1 -->
<g id="Node000001" class="node">
<title>Node1</title>
<g id="a_Node000001"><a xlink:title=" ">
<polygon fill="#999999" stroke="#666666" points="522,-42.5 379,-42.5 379,-12.5 522,-12.5 522,-42.5"/>
<text text-anchor="start" x="387" y="-30.5" font-family="Times,serif" font-size="10.00">ttg::BinarySpanningTree</text>
<text text-anchor="middle" x="450.5" y="-19.5" font-family="Times,serif" font-size="10.00">::parent_key</text>
</a>
</g>
</g>
<!-- Node1&#45;&gt;Node1 -->
<g id="edge5_Node000001_Node000001" class="edge">
<title>Node1&#45;&gt;Node1</title>
<g id="a_edge5_Node000001_Node000001"><a xlink:title=" ">
<path fill="none" stroke="#63b8ff" d="M481.66,-53.1C477.4,-57.47 467.01,-60.5 450.5,-60.5 422.69,-60.5 412.26,-51.91 419.21,-42.78"/>
<polygon fill="#63b8ff" stroke="#63b8ff" points="485.16,-52.82 481.79,-42.78 478.16,-52.73 485.16,-52.82"/>
</a>
</g>
</g>
<!-- Node2 -->
<g id="Node000002" class="node">
<title>Node2</title>
<g id="a_Node000002"><a xlink:href="classttg_1_1_binary_spanning_tree.html#a622b8d511132839777fabfb8d71c8c12" target="_top" xlink:title=" ">
<polygon fill="white" stroke="#666666" points="343,-64.5 200,-64.5 200,-34.5 343,-34.5 343,-64.5"/>
<text text-anchor="start" x="208" y="-52.5" font-family="Times,serif" font-size="10.00">ttg::BinarySpanningTree</text>
<text text-anchor="middle" x="271.5" y="-41.5" font-family="Times,serif" font-size="10.00">::child_keys</text>
</a>
</g>
</g>
<!-- Node1&#45;&gt;Node2 -->
<g id="edge1_Node000001_Node000002" class="edge">
<title>Node1&#45;&gt;Node2</title>
<g id="a_edge1_Node000001_Node000002"><a xlink:title=" ">
<path fill="none" stroke="#63b8ff" d="M368.79,-37.53C360.22,-38.6 351.55,-39.67 343.11,-40.72"/>
<polygon fill="#63b8ff" stroke="#63b8ff" points="369.29,-41 378.78,-36.29 368.43,-34.05 369.29,-41"/>
</a>
</g>
</g>
<!-- Node4 -->
<g id="Node000004" class="node">
<title>Node4</title>
<g id="a_Node000004"><a xlink:href="classttg_1_1_binary_tree_reduce.html#adec52e1e033aef60a708faf752768360" target="_top" xlink:title=" ">
<polygon fill="white" stroke="#666666" points="157.5,-19 6.5,-19 6.5,0 157.5,0 157.5,-19"/>
<text text-anchor="middle" x="82" y="-7" font-family="Times,serif" font-size="10.00">ttg::BinaryTreeReduce::op</text>
</a>
</g>
</g>
<!-- Node1&#45;&gt;Node4 -->
<g id="edge4_Node000001_Node000004" class="edge">
<title>Node1&#45;&gt;Node4</title>
<g id="a_edge4_Node000001_Node000004"><a xlink:title=" ">
<path fill="none" stroke="#63b8ff" d="M368.54,-23.52C305.55,-20.43 218.84,-16.17 157.54,-13.16"/>
<polygon fill="#63b8ff" stroke="#63b8ff" points="368.68,-27.03 378.84,-24.03 369.02,-20.04 368.68,-27.03"/>
</a>
</g>
</g>
<!-- Node3 -->
<g id="Node000003" class="node">
<title>Node3</title>
<g id="a_Node000003"><a xlink:href="classttg_1_1_binary_tree_broadcast.html#aa839d772aa8ece8897255cd8f87a9456" target="_top" xlink:title=" ">
<polygon fill="white" stroke="#666666" points="164,-59 0,-59 0,-40 164,-40 164,-59"/>
<text text-anchor="middle" x="82" y="-47" font-family="Times,serif" font-size="10.00">ttg::BinaryTreeBroadcast::op</text>
</a>
</g>
</g>
<!-- Node2&#45;&gt;Node3 -->
<g id="edge2_Node000002_Node000003" class="edge">
<title>Node2&#45;&gt;Node3</title>
<g id="a_edge2_Node000002_Node000003"><a xlink:title=" ">
<path fill="none" stroke="#63b8ff" d="M189.69,-49.5C181.26,-49.5 172.69,-49.5 164.26,-49.5"/>
<polygon fill="#63b8ff" stroke="#63b8ff" points="189.88,-53 199.88,-49.5 189.88,-46 189.88,-53"/>
</a>
</g>
</g>
<!-- Node2&#45;&gt;Node4 -->
<g id="edge3_Node000002_Node000004" class="edge">
<title>Node2&#45;&gt;Node4</title>
<g id="a_edge3_Node000002_Node000004"><a xlink:title=" ">
<path fill="none" stroke="#63b8ff" d="M190.36,-32.4C168.86,-27.82 146.39,-23.02 127.6,-19.01"/>
<polygon fill="#63b8ff" stroke="#63b8ff" points="189.64,-35.83 200.15,-34.49 191.1,-28.98 189.64,-35.83"/>
</a>
</g>
</g>
</g>
</svg>
