<?xml version="1.0" encoding="UTF-8" standalone="no"?>
<!DOCTYPE svg PUBLIC "-//W3C//DTD SVG 1.1//EN"
 "http://www.w3.org/Graphics/SVG/1.1/DTD/svg11.dtd">
<!-- Generated by graphviz version 2.43.0 (0)
 -->
<!-- Title: ttg_madness::WorldImpl::~WorldImpl Pages: 1 -->
<svg width="507pt" height="182pt"
 viewBox="0.00 0.00 507.00 182.00" xmlns="http://www.w3.org/2000/svg" xmlns:xlink="http://www.w3.org/1999/xlink">
<g id="graph0" class="graph" transform="scale(1 1) rotate(0) translate(4 178)">
<title>ttg_madness::WorldImpl::~WorldImpl</title>
<!-- Node1 -->
<g id="Node000001" class="node">
<title>Node1</title>
<g id="a_Node000001"><a xlink:title=" ">
<polygon fill="#999999" stroke="#666666" points="141,-102 0,-102 0,-72 141,-72 141,-102"/>
<text text-anchor="start" x="8" y="-90" font-family="Times,serif" font-size="10.00">ttg_madness::WorldImpl</text>
<text text-anchor="middle" x="70.5" y="-79" font-family="Times,serif" font-size="10.00">::~WorldImpl</text>
</a>
</g>
</g>
<!-- Node2 -->
<g id="Node000002" class="node">
<title>Node2</title>
<g id="a_Node000002"><a xlink:href="classttg__madness_1_1_world_impl.html#acaed2630a3cc07893cff1f92032d56ce" target="_top" xlink:title=" ">
<polygon fill="white" stroke="#666666" points="318,-102 177,-102 177,-72 318,-72 318,-102"/>
<text text-anchor="start" x="185" y="-90" font-family="Times,serif" font-size="10.00">ttg_madness::WorldImpl</text>
<text text-anchor="middle" x="247.5" y="-79" font-family="Times,serif" font-size="10.00">::destroy</text>
</a>
</g>
</g>
<!-- Node1&#45;&gt;Node2 -->
<g id="edge1_Node000001_Node000002" class="edge">
<title>Node1&#45;&gt;Node2</title>
<g id="a_edge1_Node000001_Node000002"><a xlink:title=" ">
<path fill="none" stroke="#63b8ff" d="M141.17,-87C149.5,-87 158.06,-87 166.53,-87"/>
<polygon fill="#63b8ff" stroke="#63b8ff" points="166.79,-90.5 176.79,-87 166.79,-83.5 166.79,-90.5"/>
</a>
</g>
</g>
<!-- Node3 -->
<g id="Node000003" class="node">
<title>Node3</title>
<g id="a_Node000003"><a xlink:href="namespacettg_1_1detail.html#a0737a159633e6fbe20a71c7297ba3645" target="_top" xlink:title=" ">
<polygon fill="white" stroke="#666666" points="488.5,-174 364.5,-174 364.5,-144 488.5,-144 488.5,-174"/>
<text text-anchor="start" x="372.5" y="-162" font-family="Times,serif" font-size="10.00">ttg::detail::deregister</text>
<text text-anchor="middle" x="426.5" y="-151" font-family="Times,serif" font-size="10.00">_world</text>
</a>
</g>
</g>
<!-- Node2&#45;&gt;Node3 -->
<g id="edge2_Node000002_Node000003" class="edge">
<title>Node2&#45;&gt;Node3</title>
<g id="a_edge2_Node000002_Node000003"><a xlink:title=" ">
<path fill="none" stroke="#63b8ff" d="M279.53,-102.14C300.36,-112.05 328.54,-124.97 354,-135 358.75,-136.87 363.71,-138.73 368.71,-140.54"/>
<polygon fill="#63b8ff" stroke="#63b8ff" points="367.73,-143.9 378.33,-143.94 370.07,-137.3 367.73,-143.9"/>
</a>
</g>
</g>
<!-- Node4 -->
<g id="Node000004" class="node">
<title>Node4</title>
<g id="a_Node000004"><a xlink:href="classttg_1_1base_1_1_world_impl_base.html#ae8af1cf2a5cccc4d5066492a5d041630" target="_top" xlink:title=" ">
<polygon fill="white" stroke="#666666" points="499,-126 354,-126 354,-96 499,-96 499,-126"/>
<text text-anchor="start" x="362" y="-114" font-family="Times,serif" font-size="10.00">ttg::base::WorldImplBase</text>
<text text-anchor="middle" x="426.5" y="-103" font-family="Times,serif" font-size="10.00">::is_valid</text>
</a>
</g>
</g>
<!-- Node2&#45;&gt;Node4 -->
<g id="edge3_Node000002_Node000004" class="edge">
<title>Node2&#45;&gt;Node4</title>
<g id="a_edge3_Node000002_Node000004"><a xlink:title=" ">
<path fill="none" stroke="#63b8ff" d="M318.2,-96.45C326.61,-97.59 335.27,-98.76 343.83,-99.93"/>
<polygon fill="#63b8ff" stroke="#63b8ff" points="343.45,-103.41 353.83,-101.28 344.39,-96.47 343.45,-103.41"/>
</a>
</g>
</g>
<!-- Node5 -->
<g id="Node000005" class="node">
<title>Node5</title>
<g id="a_Node000005"><a xlink:href="classttg_1_1base_1_1_world_impl_base.html#ad1471b7fb4deb6279b873a58b2d3af5d" target="_top" xlink:title=" ">
<polygon fill="white" stroke="#666666" points="499,-78 354,-78 354,-48 499,-48 499,-78"/>
<text text-anchor="start" x="362" y="-66" font-family="Times,serif" font-size="10.00">ttg::base::WorldImplBase</text>
<text text-anchor="middle" x="426.5" y="-55" font-family="Times,serif" font-size="10.00">::mark_invalid</text>
</a>
</g>
</g>
<!-- Node2&#45;&gt;Node5 -->
<g id="edge4_Node000002_Node000005" class="edge">
<title>Node2&#45;&gt;Node5</title>
<g id="a_edge4_Node000002_Node000005"><a xlink:title=" ">
<path fill="none" stroke="#63b8ff" d="M318.2,-77.55C326.61,-76.41 335.27,-75.24 343.83,-74.07"/>
<polygon fill="#63b8ff" stroke="#63b8ff" points="344.39,-77.53 353.83,-72.72 343.45,-70.59 344.39,-77.53"/>
</a>
</g>
</g>
<!-- Node6 -->
<g id="Node000006" class="node">
<title>Node6</title>
<g id="a_Node000006"><a xlink:href="classttg_1_1base_1_1_world_impl_base.html#a4cf5efcd1c577c54c6634708a141230b" target="_top" xlink:title=" ">
<polygon fill="white" stroke="#666666" points="499,-30 354,-30 354,0 499,0 499,-30"/>
<text text-anchor="start" x="362" y="-18" font-family="Times,serif" font-size="10.00">ttg::base::WorldImplBase</text>
<text text-anchor="middle" x="426.5" y="-7" font-family="Times,serif" font-size="10.00">::release_ops</text>
</a>
</g>
</g>
<!-- Node2&#45;&gt;Node6 -->
<g id="edge5_Node000002_Node000006" class="edge">
<title>Node2&#45;&gt;Node6</title>
<g id="a_edge5_Node000002_Node000006"><a xlink:title=" ">
<path fill="none" stroke="#63b8ff" d="M279.53,-71.86C300.36,-61.95 328.54,-49.03 354,-39 358.75,-37.13 363.71,-35.27 368.71,-33.46"/>
<polygon fill="#63b8ff" stroke="#63b8ff" points="370.07,-36.7 378.33,-30.06 367.73,-30.1 370.07,-36.7"/>
</a>
</g>
</g>
</g>
</svg>
