<?xml version="1.0" encoding="UTF-8" standalone="no"?>
<!DOCTYPE svg PUBLIC "-//W3C//DTD SVG 1.1//EN"
 "http://www.w3.org/Graphics/SVG/1.1/DTD/svg11.dtd">
<!-- Generated by graphviz version 2.43.0 (0)
 -->
<!-- Title: ttg_madness::TT::TT Pages: 1 -->
<svg width="466pt" height="290pt"
 viewBox="0.00 0.00 466.00 290.00" xmlns="http://www.w3.org/2000/svg" xmlns:xlink="http://www.w3.org/1999/xlink">

<svg id="main" version="1.1" xmlns="http://www.w3.org/2000/svg" xmlns:xlink="http://www.w3.org/1999/xlink" xml:space="preserve" onload="init(evt)">
<style type="text/css"><![CDATA[
.node, .edge {opacity: 0.7;}
.node.selected, .edge.selected {opacity: 1;}
.edge:hover path { stroke: red; }
.edge:hover polygon { stroke: red; fill: red; }
]]></style>
<script type="application/ecmascript" xlink:href="svg.min.js"/>
<svg id="graph" class="graph">
<g id="graph0" class="graph" transform="scale(1 1) rotate(0) translate(4 286)">
<title>ttg_madness::TT::TT</title>
<!-- Node1 -->
<g id="Node000001" class="node">
<title>Node1</title>
<g id="a_Node000001"><a xlink:title=" ">
<polygon fill="#999999" stroke="#666666" points="120,-153 0,-153 0,-134 120,-134 120,-153"/>
<text text-anchor="middle" x="60" y="-141" font-family="Times,serif" font-size="10.00">ttg_madness::TT::TT</text>
</a>
</g>
</g>
<!-- Node2 -->
<g id="Node000002" class="node">
<title>Node2</title>
<g id="a_Node000002"><a xlink:href="classttg__madness_1_1_t_t.html#a3fb0ab18d00c27fae64e1bd1b78d3d0d" target="_top" xlink:title=" ">
<polygon fill="white" stroke="#666666" points="283,-264 160,-264 160,-245 283,-245 283,-264"/>
<text text-anchor="middle" x="221.5" y="-252" font-family="Times,serif" font-size="10.00">ttg_madness::TT::get</text>
</a>
</g>
</g>
<!-- Node1&#45;&gt;Node2 -->
<g id="edge1_Node000001_Node000002" class="edge">
<title>Node1&#45;&gt;Node2</title>
<g id="a_edge1_Node000001_Node000002"><a xlink:title=" ">
<path fill="none" stroke="#63b8ff" d="M68.19,-153.28C82.66,-172.25 117.22,-214.12 156,-236.5 159.01,-238.24 162.2,-239.82 165.48,-241.25"/>
<polygon fill="#63b8ff" stroke="#63b8ff" points="164.32,-244.55 174.91,-244.9 166.85,-238.02 164.32,-244.55"/>
</a>
</g>
</g>
<!-- Node3 -->
<g id="Node000003" class="node">
<title>Node3</title>
<g id="a_Node000003"><a xlink:href="classttg_1_1_t_t_base.html#ade3b1e6b149fe1124f7192aeca5f715c" target="_top" xlink:title="Gets the name of this operation.">
<polygon fill="white" stroke="#666666" points="287,-227 156,-227 156,-208 287,-208 287,-227"/>
<text text-anchor="middle" x="221.5" y="-215" font-family="Times,serif" font-size="10.00">ttg::TTBase::get_name</text>
</a>
</g>
</g>
<!-- Node1&#45;&gt;Node3 -->
<g id="edge3_Node000001_Node000003" class="edge">
<title>Node1&#45;&gt;Node3</title>
<g id="a_edge3_Node000001_Node000003"><a xlink:title=" ">
<path fill="none" stroke="#63b8ff" d="M74.56,-153.04C92.48,-165.27 125.35,-186.45 156,-199.5 160.51,-201.42 165.28,-203.19 170.11,-204.82"/>
<polygon fill="#63b8ff" stroke="#63b8ff" points="169.44,-208.28 180.03,-207.95 171.55,-201.6 169.44,-208.28"/>
</a>
</g>
</g>
<!-- Node4 -->
<g id="Node000004" class="node">
<title>Node4</title>
<g id="a_Node000004"><a xlink:href="namespacettg.html#aacafa23974f833f3ac9c42ab4fbd7e68" target="_top" xlink:title="atomically prints to std::cerr a sequence of items (separated by ttg::print_separator) followed by st...">
<polygon fill="white" stroke="#666666" points="267.5,-190 175.5,-190 175.5,-171 267.5,-171 267.5,-190"/>
<text text-anchor="middle" x="221.5" y="-178" font-family="Times,serif" font-size="10.00">ttg::print_error</text>
</a>
</g>
</g>
<!-- Node1&#45;&gt;Node4 -->
<g id="edge4_Node000001_Node000004" class="edge">
<title>Node1&#45;&gt;Node4</title>
<g id="a_edge4_Node000001_Node000004"><a xlink:title=" ">
<path fill="none" stroke="#63b8ff" d="M102.08,-153.03C122.65,-157.8 147.75,-163.62 169.54,-168.68"/>
<polygon fill="#63b8ff" stroke="#63b8ff" points="168.75,-172.09 179.29,-170.94 170.34,-165.27 168.75,-172.09"/>
</a>
</g>
</g>
<!-- Node6 -->
<g id="Node000006" class="node">
<title>Node6</title>
<g id="a_Node000006"><a xlink:href="classttg_1_1base_1_1_world.html#a7c354d1e43268884cb3b947f44ce0f5e" target="_top" xlink:title=" ">
<polygon fill="white" stroke="#666666" points="284.5,-153 158.5,-153 158.5,-134 284.5,-134 284.5,-153"/>
<text text-anchor="middle" x="221.5" y="-141" font-family="Times,serif" font-size="10.00">ttg::base::World::rank</text>
</a>
</g>
</g>
<!-- Node1&#45;&gt;Node6 -->
<g id="edge6_Node000001_Node000006" class="edge">
<title>Node1&#45;&gt;Node6</title>
<g id="a_edge6_Node000001_Node000006"><a xlink:title=" ">
<path fill="none" stroke="#63b8ff" d="M120.39,-143.5C129.5,-143.5 138.98,-143.5 148.33,-143.5"/>
<polygon fill="#63b8ff" stroke="#63b8ff" points="148.39,-147 158.39,-143.5 148.39,-140 148.39,-147"/>
</a>
</g>
</g>
<!-- Node8 -->
<g id="Node000008" class="node">
<title>Node8</title>
<g id="a_Node000008"><a xlink:href="classttg_1_1_t_t_base.html#ad27fa3b380e1ccec338e7ce022a58150" target="_top" xlink:title=" ">
<polygon fill="white" stroke="#666666" points="282,-115.5 161,-115.5 161,-85.5 282,-85.5 282,-115.5"/>
<text text-anchor="start" x="169" y="-103.5" font-family="Times,serif" font-size="10.00">ttg::TTBase::register</text>
<text text-anchor="middle" x="221.5" y="-92.5" font-family="Times,serif" font-size="10.00">_input_terminals</text>
</a>
</g>
</g>
<!-- Node1&#45;&gt;Node8 -->
<g id="edge8_Node000001_Node000008" class="edge">
<title>Node1&#45;&gt;Node8</title>
<g id="a_edge8_Node000001_Node000008"><a xlink:title=" ">
<path fill="none" stroke="#63b8ff" d="M96.4,-133.96C113.67,-129.3 135.01,-123.55 155.1,-118.13"/>
<polygon fill="#63b8ff" stroke="#63b8ff" points="156.09,-121.49 164.84,-115.51 154.27,-114.73 156.09,-121.49"/>
</a>
</g>
</g>
<!-- Node10 -->
<g id="Node000010" class="node">
<title>Node10</title>
<g id="a_Node000010"><a xlink:href="classttg_1_1_t_t_base.html#afe6845510fba3a5fc90126c9a0257306" target="_top" xlink:title=" ">
<polygon fill="white" stroke="#666666" points="282,-67.5 161,-67.5 161,-37.5 282,-37.5 282,-67.5"/>
<text text-anchor="start" x="169" y="-55.5" font-family="Times,serif" font-size="10.00">ttg::TTBase::register</text>
<text text-anchor="middle" x="221.5" y="-44.5" font-family="Times,serif" font-size="10.00">_output_terminals</text>
</a>
</g>
</g>
<!-- Node1&#45;&gt;Node10 -->
<g id="edge10_Node000001_Node000010" class="edge">
<title>Node1&#45;&gt;Node10</title>
<g id="a_edge10_Node000001_Node000010"><a xlink:title=" ">
<path fill="none" stroke="#63b8ff" d="M72.65,-133.77C89.95,-119.68 123.87,-93.44 156,-76.5 159.26,-74.78 162.66,-73.13 166.14,-71.55"/>
<polygon fill="#63b8ff" stroke="#63b8ff" points="167.63,-74.72 175.43,-67.56 164.86,-68.29 167.63,-74.72"/>
</a>
</g>
</g>
<!-- Node12 -->
<g id="Node000012" class="node">
<title>Node12</title>
<g id="a_Node000012"><a xlink:href="classttg_1_1_t_t_base.html#ab73a493ce89e68de0defc825f4747044" target="_top" xlink:title=" ">
<polygon fill="white" stroke="#666666" points="281,-19 162,-19 162,0 281,0 281,-19"/>
<text text-anchor="middle" x="221.5" y="-7" font-family="Times,serif" font-size="10.00">ttg::TTBase::TTBase</text>
</a>
</g>
</g>
<!-- Node1&#45;&gt;Node12 -->
<g id="edge12_Node000001_Node000012" class="edge">
<title>Node1&#45;&gt;Node12</title>
<g id="a_edge12_Node000001_Node000012"><a xlink:title=" ">
<path fill="none" stroke="#63b8ff" d="M66.26,-133.83C78.77,-111.72 112.56,-57.17 156,-28.5 159.11,-26.45 162.44,-24.62 165.89,-22.98"/>
<polygon fill="#63b8ff" stroke="#63b8ff" points="167.37,-26.15 175.25,-19.07 164.67,-19.69 167.37,-26.15"/>
</a>
</g>
</g>
<!-- Node2&#45;&gt;Node2 -->
<g id="edge2_Node000002_Node000002" class="edge">
<title>Node2&#45;&gt;Node2</title>
<g id="a_edge2_Node000002_Node000002"><a xlink:title=" ">
<path fill="none" stroke="#63b8ff" d="M196.84,-264.08C184.84,-272.73 193.06,-282 221.5,-282 240.16,-282 250.12,-278.01 251.37,-272.82"/>
<polygon fill="#63b8ff" stroke="#63b8ff" points="254.29,-270.88 246.16,-264.08 248.27,-274.47 254.29,-270.88"/>
</a>
</g>
</g>
<!-- Node5 -->
<g id="Node000005" class="node">
<title>Node5</title>
<g id="a_Node000005"><a xlink:href="namespacettg_1_1detail.html#a26e07486d5ef8eb5735a8975991a7693" target="_top" xlink:title=" ">
<polygon fill="white" stroke="#666666" points="438.5,-206.5 342.5,-206.5 342.5,-176.5 438.5,-176.5 438.5,-206.5"/>
<text text-anchor="start" x="350.5" y="-194.5" font-family="Times,serif" font-size="10.00">ttg::detail::print</text>
<text text-anchor="middle" x="390.5" y="-183.5" font-family="Times,serif" font-size="10.00">_helper</text>
</a>
</g>
</g>
<!-- Node4&#45;&gt;Node5 -->
<g id="edge5_Node000004_Node000005" class="edge">
<title>Node4&#45;&gt;Node5</title>
<g id="a_edge5_Node000004_Node000005"><a xlink:title=" ">
<path fill="none" stroke="#63b8ff" d="M267.69,-183.48C287.53,-184.78 311.06,-186.33 332.12,-187.72"/>
<polygon fill="#63b8ff" stroke="#63b8ff" points="332.02,-191.22 342.23,-188.39 332.48,-184.24 332.02,-191.22"/>
</a>
</g>
</g>
<!-- Node7 -->
<g id="Node000007" class="node">
<title>Node7</title>
<g id="a_Node000007"><a xlink:href="classttg_1_1base_1_1_world.html#af39ca1832f455a94134515f94aaa8533" target="_top" xlink:title=" ">
<polygon fill="white" stroke="#666666" points="446,-158.5 335,-158.5 335,-128.5 446,-128.5 446,-158.5"/>
<text text-anchor="start" x="343" y="-146.5" font-family="Times,serif" font-size="10.00">ttg::base::World::is</text>
<text text-anchor="middle" x="390.5" y="-135.5" font-family="Times,serif" font-size="10.00">_valid</text>
</a>
</g>
</g>
<!-- Node6&#45;&gt;Node7 -->
<g id="edge7_Node000006_Node000007" class="edge">
<title>Node6&#45;&gt;Node7</title>
<g id="a_edge7_Node000006_Node000007"><a xlink:title=" ">
<path fill="none" stroke="#63b8ff" d="M284.68,-143.5C297.71,-143.5 311.48,-143.5 324.6,-143.5"/>
<polygon fill="#63b8ff" stroke="#63b8ff" points="324.96,-147 334.96,-143.5 324.96,-140 324.96,-147"/>
</a>
</g>
</g>
<!-- Node9 -->
<g id="Node000009" class="node">
<title>Node9</title>
<g id="a_Node000009"><a xlink:href="classttg_1_1_t_t_base.html#afddc3ce47d7d57b4d68f378d699e85d6" target="_top" xlink:title=" ">
<polygon fill="white" stroke="#666666" points="454.5,-110 326.5,-110 326.5,-91 454.5,-91 454.5,-110"/>
<text text-anchor="middle" x="390.5" y="-98" font-family="Times,serif" font-size="10.00">ttg::TTBase::set_input</text>
</a>
</g>
</g>
<!-- Node8&#45;&gt;Node9 -->
<g id="edge9_Node000008_Node000009" class="edge">
<title>Node8&#45;&gt;Node9</title>
<g id="a_edge9_Node000008_Node000009"><a xlink:title=" ">
<path fill="none" stroke="#63b8ff" d="M282.32,-100.5C293.28,-100.5 304.84,-100.5 316.14,-100.5"/>
<polygon fill="#63b8ff" stroke="#63b8ff" points="316.43,-104 326.43,-100.5 316.43,-97 316.43,-104"/>
</a>
</g>
</g>
<!-- Node11 -->
<g id="Node000011" class="node">
<title>Node11</title>
<g id="a_Node000011"><a xlink:href="classttg_1_1_t_t_base.html#a8df5f854fcc708a526c7d616be00d1a6" target="_top" xlink:title=" ">
<polygon fill="white" stroke="#666666" points="458,-62 323,-62 323,-43 458,-43 458,-62"/>
<text text-anchor="middle" x="390.5" y="-50" font-family="Times,serif" font-size="10.00">ttg::TTBase::set_output</text>
</a>
</g>
</g>
<!-- Node10&#45;&gt;Node11 -->
<g id="edge11_Node000010_Node000011" class="edge">
<title>Node10&#45;&gt;Node11</title>
<g id="a_edge11_Node000010_Node000011"><a xlink:title=" ">
<path fill="none" stroke="#63b8ff" d="M282.32,-52.5C292.15,-52.5 302.45,-52.5 312.62,-52.5"/>
<polygon fill="#63b8ff" stroke="#63b8ff" points="312.73,-56 322.73,-52.5 312.73,-49 312.73,-56"/>
</a>
</g>
</g>
</g>
</svg>
</svg>

<style type='text/css'>
<![CDATA[
[data-mouse-over-selected='false'] { opacity: 0.7; }
[data-mouse-over-selected='true']  { opacity: 1.0; }
]]>
</style>
<script type="application/ecmascript"><![CDATA[
document.addEventListener('DOMContentLoaded', (event) => {
  highlightEdges();
  highlightAdjacentNodes();
});
]]></script>
</svg>
