<?xml version="1.0" encoding="UTF-8" standalone="no"?>
<!DOCTYPE svg PUBLIC "-//W3C//DTD SVG 1.1//EN"
 "http://www.w3.org/Graphics/SVG/1.1/DTD/svg11.dtd">
<!-- Generated by graphviz version 2.43.0 (0)
 -->
<!-- Title: ttg_parsec::WorldImpl::destroy_tpool Pages: 1 -->
<svg width="467pt" height="86pt"
 viewBox="0.00 0.00 467.00 86.00" xmlns="http://www.w3.org/2000/svg" xmlns:xlink="http://www.w3.org/1999/xlink">
<g id="graph0" class="graph" transform="scale(1 1) rotate(0) translate(4 82)">
<title>ttg_parsec::WorldImpl::destroy_tpool</title>
<!-- Node1 -->
<g id="Node000001" class="node">
<title>Node1</title>
<g id="a_Node000001"><a xlink:title=" ">
<polygon fill="#999999" stroke="#666666" points="459,-54 330,-54 330,-24 459,-24 459,-54"/>
<text text-anchor="start" x="338" y="-42" font-family="Times,serif" font-size="10.00">ttg_parsec::WorldImpl</text>
<text text-anchor="middle" x="394.5" y="-31" font-family="Times,serif" font-size="10.00">::destroy_tpool</text>
</a>
</g>
</g>
<!-- Node2 -->
<g id="Node000002" class="node">
<title>Node2</title>
<g id="a_Node000002"><a xlink:href="classttg__parsec_1_1_world_impl.html#acdf3cf5cfb64ebfda9ab9fffd4b3e32d" target="_top" xlink:title=" ">
<polygon fill="white" stroke="#666666" points="294,-78 165,-78 165,-48 294,-48 294,-78"/>
<text text-anchor="start" x="173" y="-66" font-family="Times,serif" font-size="10.00">ttg_parsec::WorldImpl</text>
<text text-anchor="middle" x="229.5" y="-55" font-family="Times,serif" font-size="10.00">::destroy</text>
</a>
</g>
</g>
<!-- Node1&#45;&gt;Node2 -->
<g id="edge1_Node000001_Node000002" class="edge">
<title>Node1&#45;&gt;Node2</title>
<g id="a_edge1_Node000001_Node000002"><a xlink:title=" ">
<path fill="none" stroke="#63b8ff" d="M319.59,-49.88C311.05,-51.14 302.39,-52.41 294,-53.65"/>
<polygon fill="#63b8ff" stroke="#63b8ff" points="320.16,-53.34 329.55,-48.42 319.14,-46.41 320.16,-53.34"/>
</a>
</g>
</g>
<!-- Node4 -->
<g id="Node000004" class="node">
<title>Node4</title>
<g id="a_Node000004"><a xlink:href="classttg__parsec_1_1_world_impl.html#a8342e0deb558e48f715a305581447062" target="_top" xlink:title=" ">
<polygon fill="white" stroke="#666666" points="294,-30 165,-30 165,0 294,0 294,-30"/>
<text text-anchor="start" x="173" y="-18" font-family="Times,serif" font-size="10.00">ttg_parsec::WorldImpl</text>
<text text-anchor="middle" x="229.5" y="-7" font-family="Times,serif" font-size="10.00">::fence_impl</text>
</a>
</g>
</g>
<!-- Node1&#45;&gt;Node4 -->
<g id="edge3_Node000001_Node000004" class="edge">
<title>Node1&#45;&gt;Node4</title>
<g id="a_edge3_Node000001_Node000004"><a xlink:title=" ">
<path fill="none" stroke="#63b8ff" d="M319.59,-28.12C311.05,-26.86 302.39,-25.59 294,-24.35"/>
<polygon fill="#63b8ff" stroke="#63b8ff" points="319.14,-31.59 329.55,-29.58 320.16,-24.66 319.14,-31.59"/>
</a>
</g>
</g>
<!-- Node3 -->
<g id="Node000003" class="node">
<title>Node3</title>
<g id="a_Node000003"><a xlink:href="classttg__parsec_1_1_world_impl.html#a723d8ec0a2fdb24329edb5b3996f59e1" target="_top" xlink:title=" ">
<polygon fill="white" stroke="#666666" points="129,-78 0,-78 0,-48 129,-48 129,-78"/>
<text text-anchor="start" x="8" y="-66" font-family="Times,serif" font-size="10.00">ttg_parsec::WorldImpl</text>
<text text-anchor="middle" x="64.5" y="-55" font-family="Times,serif" font-size="10.00">::~WorldImpl</text>
</a>
</g>
</g>
<!-- Node2&#45;&gt;Node3 -->
<g id="edge2_Node000002_Node000003" class="edge">
<title>Node2&#45;&gt;Node3</title>
<g id="a_edge2_Node000002_Node000003"><a xlink:title=" ">
<path fill="none" stroke="#63b8ff" d="M154.31,-63C145.86,-63 137.3,-63 129,-63"/>
<polygon fill="#63b8ff" stroke="#63b8ff" points="154.55,-66.5 164.55,-63 154.55,-59.5 154.55,-66.5"/>
</a>
</g>
</g>
</g>
</svg>
