<?xml version="1.0" encoding="UTF-8" standalone="no"?>
<!DOCTYPE svg PUBLIC "-//W3C//DTD SVG 1.1//EN"
 "http://www.w3.org/Graphics/SVG/1.1/DTD/svg11.dtd">
<!-- Generated by graphviz version 2.43.0 (0)
 -->
<!-- Title: ttg_parsec::TT::get_task_mempool Pages: 1 -->
<svg width="435pt" height="182pt"
 viewBox="0.00 0.00 435.00 182.00" xmlns="http://www.w3.org/2000/svg" xmlns:xlink="http://www.w3.org/1999/xlink">

<svg id="main" version="1.1" xmlns="http://www.w3.org/2000/svg" xmlns:xlink="http://www.w3.org/1999/xlink" xml:space="preserve" onload="init(evt)">
<style type="text/css"><![CDATA[
.node, .edge {opacity: 0.7;}
.node.selected, .edge.selected {opacity: 1;}
.edge:hover path { stroke: red; }
.edge:hover polygon { stroke: red; fill: red; }
]]></style>
<script type="application/ecmascript" xlink:href="svg.min.js"/>
<svg id="graph" class="graph">
<g id="graph0" class="graph" transform="scale(1 1) rotate(0) translate(4 178)">
<title>ttg_parsec::TT::get_task_mempool</title>
<!-- Node1 -->
<g id="Node000001" class="node">
<title>Node1</title>
<g id="a_Node000001"><a xlink:title=" ">
<polygon fill="#999999" stroke="#666666" points="427,-102 316,-102 316,-72 427,-72 427,-102"/>
<text text-anchor="start" x="324" y="-90" font-family="Times,serif" font-size="10.00">ttg_parsec::TT::get</text>
<text text-anchor="middle" x="371.5" y="-79" font-family="Times,serif" font-size="10.00">_task_mempool</text>
</a>
</g>
</g>
<!-- Node2 -->
<g id="Node000002" class="node">
<title>Node2</title>
<g id="a_Node000002"><a xlink:href="classttg__parsec_1_1_t_t.html#a82f6409bdfbc9ef0f83988045c7be20e" target="_top" xlink:title=" ">
<polygon fill="white" stroke="#666666" points="276,-150 150,-150 150,-120 276,-120 276,-150"/>
<text text-anchor="start" x="158" y="-138" font-family="Times,serif" font-size="10.00">ttg_parsec::TT::create</text>
<text text-anchor="middle" x="213" y="-127" font-family="Times,serif" font-size="10.00">_new_reducer_task</text>
</a>
</g>
</g>
<!-- Node1&#45;&gt;Node2 -->
<g id="edge1_Node000001_Node000002" class="edge">
<title>Node1&#45;&gt;Node2</title>
<g id="a_edge1_Node000001_Node000002"><a xlink:title=" ">
<path fill="none" stroke="#63b8ff" d="M311.6,-105.07C295.55,-109.99 278.34,-115.27 262.91,-120"/>
<polygon fill="#63b8ff" stroke="#63b8ff" points="312.88,-108.33 321.41,-102.06 310.83,-101.64 312.88,-108.33"/>
</a>
</g>
</g>
<!-- Node3 -->
<g id="Node000003" class="node">
<title>Node3</title>
<g id="a_Node000003"><a xlink:href="classttg__parsec_1_1_t_t.html#aa119b2a05f23cc3827bb1914b64c33f1" target="_top" xlink:title=" ">
<polygon fill="white" stroke="#666666" points="276,-102 150,-102 150,-72 276,-72 276,-102"/>
<text text-anchor="start" x="158" y="-90" font-family="Times,serif" font-size="10.00">ttg_parsec::TT::create</text>
<text text-anchor="middle" x="213" y="-79" font-family="Times,serif" font-size="10.00">_new_task</text>
</a>
</g>
</g>
<!-- Node1&#45;&gt;Node3 -->
<g id="edge2_Node000001_Node000003" class="edge">
<title>Node1&#45;&gt;Node3</title>
<g id="a_edge2_Node000001_Node000003"><a xlink:title=" ">
<path fill="none" stroke="#63b8ff" d="M305.72,-87C295.96,-87 285.91,-87 276.2,-87"/>
<polygon fill="#63b8ff" stroke="#63b8ff" points="305.76,-90.5 315.76,-87 305.76,-83.5 305.76,-90.5"/>
</a>
</g>
</g>
<!-- Node8 -->
<g id="Node000008" class="node">
<title>Node8</title>
<g id="a_Node000008"><a xlink:href="classttg__parsec_1_1_t_t.html#aaae9a48614cc4e3b95db77d31d1acc93" target="_top" xlink:title=" ">
<polygon fill="white" stroke="#666666" points="280,-54 146,-54 146,-24 280,-24 280,-54"/>
<text text-anchor="start" x="154" y="-42" font-family="Times,serif" font-size="10.00">ttg_parsec::TT::set</text>
<text text-anchor="middle" x="213" y="-31" font-family="Times,serif" font-size="10.00">_arg_from_msg_keylist</text>
</a>
</g>
</g>
<!-- Node1&#45;&gt;Node8 -->
<g id="edge7_Node000001_Node000008" class="edge">
<title>Node1&#45;&gt;Node8</title>
<g id="a_edge7_Node000001_Node000008"><a xlink:title=" ">
<path fill="none" stroke="#63b8ff" d="M311.6,-68.93C295.55,-64.01 278.34,-58.73 262.91,-54"/>
<polygon fill="#63b8ff" stroke="#63b8ff" points="310.83,-72.36 321.41,-71.94 312.88,-65.67 310.83,-72.36"/>
</a>
</g>
</g>
<!-- Node4 -->
<g id="Node000004" class="node">
<title>Node4</title>
<g id="a_Node000004"><a xlink:href="classttg__parsec_1_1_t_t.html#af647004ce89dc81d1202dd68070f0bde" target="_top" xlink:title=" ">
<polygon fill="white" stroke="#666666" points="110,-174 0,-174 0,-144 110,-144 110,-174"/>
<text text-anchor="start" x="8" y="-162" font-family="Times,serif" font-size="10.00">ttg_parsec::TT::set</text>
<text text-anchor="middle" x="55" y="-151" font-family="Times,serif" font-size="10.00">_arg_impl</text>
</a>
</g>
</g>
<!-- Node3&#45;&gt;Node4 -->
<g id="edge3_Node000003_Node000004" class="edge">
<title>Node3&#45;&gt;Node4</title>
<g id="a_edge3_Node000003_Node000004"><a xlink:title=" ">
<path fill="none" stroke="#63b8ff" d="M156.42,-106.1C152.85,-107.67 149.35,-109.3 146,-111 128.84,-119.68 126.85,-125.73 110,-135 104.34,-138.12 98.19,-141.15 92.14,-143.96"/>
<polygon fill="#63b8ff" stroke="#63b8ff" points="158.07,-109.21 165.95,-102.13 155.38,-102.75 158.07,-109.21"/>
</a>
</g>
</g>
<!-- Node5 -->
<g id="Node000005" class="node">
<title>Node5</title>
<g id="a_Node000005"><a xlink:href="classttg__parsec_1_1_t_t.html#adc3a5e538d9a4c192168317cb0db9814" target="_top" xlink:title=" ">
<polygon fill="white" stroke="#666666" points="110,-126 0,-126 0,-96 110,-96 110,-126"/>
<text text-anchor="start" x="8" y="-114" font-family="Times,serif" font-size="10.00">ttg_parsec::TT::set</text>
<text text-anchor="middle" x="55" y="-103" font-family="Times,serif" font-size="10.00">_arg_local_impl</text>
</a>
</g>
</g>
<!-- Node3&#45;&gt;Node5 -->
<g id="edge4_Node000003_Node000005" class="edge">
<title>Node3&#45;&gt;Node5</title>
<g id="a_edge4_Node000003_Node000005"><a xlink:title=" ">
<path fill="none" stroke="#63b8ff" d="M139.99,-98.08C130.02,-99.61 119.91,-101.17 110.33,-102.64"/>
<polygon fill="#63b8ff" stroke="#63b8ff" points="140.54,-101.53 149.9,-96.55 139.48,-94.62 140.54,-101.53"/>
</a>
</g>
</g>
<!-- Node6 -->
<g id="Node000006" class="node">
<title>Node6</title>
<g id="a_Node000006"><a xlink:href="classttg__parsec_1_1_t_t.html#af31b0b9c87c00dc31edfe4e6fa040442" target="_top" xlink:title=" ">
<polygon fill="white" stroke="#666666" points="110,-78 0,-78 0,-48 110,-48 110,-78"/>
<text text-anchor="start" x="8" y="-66" font-family="Times,serif" font-size="10.00">ttg_parsec::TT::set</text>
<text text-anchor="middle" x="55" y="-55" font-family="Times,serif" font-size="10.00">_argstream_size</text>
</a>
</g>
</g>
<!-- Node3&#45;&gt;Node6 -->
<g id="edge5_Node000003_Node000006" class="edge">
<title>Node3&#45;&gt;Node6</title>
<g id="a_edge5_Node000003_Node000006"><a xlink:title=" ">
<path fill="none" stroke="#63b8ff" d="M139.99,-75.92C130.02,-74.39 119.91,-72.83 110.33,-71.36"/>
<polygon fill="#63b8ff" stroke="#63b8ff" points="139.48,-79.38 149.9,-77.45 140.54,-72.47 139.48,-79.38"/>
</a>
</g>
</g>
<!-- Node7 -->
<g id="Node000007" class="node">
<title>Node7</title>
<g id="a_Node000007"><a xlink:href="classttg__parsec_1_1_t_t.html#a5fba67769a0b313eb4548d311e0e632d" target="_top" xlink:title=" ">
<polygon fill="white" stroke="#666666" points="110,-30 0,-30 0,0 110,0 110,-30"/>
<text text-anchor="start" x="8" y="-18" font-family="Times,serif" font-size="10.00">ttg_parsec::TT::set</text>
<text text-anchor="middle" x="55" y="-7" font-family="Times,serif" font-size="10.00">_argstream_size</text>
</a>
</g>
</g>
<!-- Node3&#45;&gt;Node7 -->
<g id="edge6_Node000003_Node000007" class="edge">
<title>Node3&#45;&gt;Node7</title>
<g id="a_edge6_Node000003_Node000007"><a xlink:title=" ">
<path fill="none" stroke="#63b8ff" d="M156.42,-67.9C152.85,-66.33 149.35,-64.7 146,-63 128.84,-54.32 126.85,-48.27 110,-39 104.34,-35.88 98.19,-32.85 92.14,-30.04"/>
<polygon fill="#63b8ff" stroke="#63b8ff" points="155.38,-71.25 165.95,-71.87 158.07,-64.79 155.38,-71.25"/>
</a>
</g>
</g>
</g>
</svg>
</svg>

<style type='text/css'>
<![CDATA[
[data-mouse-over-selected='false'] { opacity: 0.7; }
[data-mouse-over-selected='true']  { opacity: 1.0; }
]]>
</style>
<script type="application/ecmascript"><![CDATA[
document.addEventListener('DOMContentLoaded', (event) => {
  highlightEdges();
  highlightAdjacentNodes();
});
]]></script>
</svg>
