<?xml version="1.0" encoding="UTF-8" standalone="no"?>
<!DOCTYPE svg PUBLIC "-//W3C//DTD SVG 1.1//EN"
 "http://www.w3.org/Graphics/SVG/1.1/DTD/svg11.dtd">
<!-- Generated by graphviz version 2.43.0 (0)
 -->
<!-- Title: ttg::base::WorldImplBase::release_ops Pages: 1 -->
<svg width="507pt" height="86pt"
 viewBox="0.00 0.00 507.00 86.00" xmlns="http://www.w3.org/2000/svg" xmlns:xlink="http://www.w3.org/1999/xlink">
<g id="graph0" class="graph" transform="scale(1 1) rotate(0) translate(4 82)">
<title>ttg::base::WorldImplBase::release_ops</title>
<!-- Node1 -->
<g id="Node000001" class="node">
<title>Node1</title>
<g id="a_Node000001"><a xlink:title=" ">
<polygon fill="#999999" stroke="#666666" points="499,-54 354,-54 354,-24 499,-24 499,-54"/>
<text text-anchor="start" x="362" y="-42" font-family="Times,serif" font-size="10.00">ttg::base::WorldImplBase</text>
<text text-anchor="middle" x="426.5" y="-31" font-family="Times,serif" font-size="10.00">::release_ops</text>
</a>
</g>
</g>
<!-- Node2 -->
<g id="Node000002" class="node">
<title>Node2</title>
<g id="a_Node000002"><a xlink:href="classttg__parsec_1_1_world_impl.html#acdf3cf5cfb64ebfda9ab9fffd4b3e32d" target="_top" xlink:title=" ">
<polygon fill="white" stroke="#666666" points="312,-78 183,-78 183,-48 312,-48 312,-78"/>
<text text-anchor="start" x="191" y="-66" font-family="Times,serif" font-size="10.00">ttg_parsec::WorldImpl</text>
<text text-anchor="middle" x="247.5" y="-55" font-family="Times,serif" font-size="10.00">::destroy</text>
</a>
</g>
</g>
<!-- Node1&#45;&gt;Node2 -->
<g id="edge1_Node000001_Node000002" class="edge">
<title>Node1&#45;&gt;Node2</title>
<g id="a_edge1_Node000001_Node000002"><a xlink:title=" ">
<path fill="none" stroke="#63b8ff" d="M343.66,-50.1C333.06,-51.53 322.33,-52.99 312.08,-54.38"/>
<polygon fill="#63b8ff" stroke="#63b8ff" points="344.32,-53.54 353.76,-48.73 343.38,-46.6 344.32,-53.54"/>
</a>
</g>
</g>
<!-- Node4 -->
<g id="Node000004" class="node">
<title>Node4</title>
<g id="a_Node000004"><a xlink:href="classttg__madness_1_1_world_impl.html#acaed2630a3cc07893cff1f92032d56ce" target="_top" xlink:title=" ">
<polygon fill="white" stroke="#666666" points="318,-30 177,-30 177,0 318,0 318,-30"/>
<text text-anchor="start" x="185" y="-18" font-family="Times,serif" font-size="10.00">ttg_madness::WorldImpl</text>
<text text-anchor="middle" x="247.5" y="-7" font-family="Times,serif" font-size="10.00">::destroy</text>
</a>
</g>
</g>
<!-- Node1&#45;&gt;Node4 -->
<g id="edge3_Node000001_Node000004" class="edge">
<title>Node1&#45;&gt;Node4</title>
<g id="a_edge3_Node000001_Node000004"><a xlink:title=" ">
<path fill="none" stroke="#63b8ff" d="M343.74,-27.91C335.15,-26.75 326.48,-25.57 318.04,-24.43"/>
<polygon fill="#63b8ff" stroke="#63b8ff" points="343.38,-31.4 353.76,-29.27 344.32,-24.46 343.38,-31.4"/>
</a>
</g>
</g>
<!-- Node3 -->
<g id="Node000003" class="node">
<title>Node3</title>
<g id="a_Node000003"><a xlink:href="classttg__parsec_1_1_world_impl.html#a723d8ec0a2fdb24329edb5b3996f59e1" target="_top" xlink:title=" ">
<polygon fill="white" stroke="#666666" points="135,-78 6,-78 6,-48 135,-48 135,-78"/>
<text text-anchor="start" x="14" y="-66" font-family="Times,serif" font-size="10.00">ttg_parsec::WorldImpl</text>
<text text-anchor="middle" x="70.5" y="-55" font-family="Times,serif" font-size="10.00">::~WorldImpl</text>
</a>
</g>
</g>
<!-- Node2&#45;&gt;Node3 -->
<g id="edge2_Node000002_Node000003" class="edge">
<title>Node2&#45;&gt;Node3</title>
<g id="a_edge2_Node000002_Node000003"><a xlink:title=" ">
<path fill="none" stroke="#63b8ff" d="M172.5,-63C160.07,-63 147.26,-63 135.13,-63"/>
<polygon fill="#63b8ff" stroke="#63b8ff" points="172.83,-66.5 182.83,-63 172.83,-59.5 172.83,-66.5"/>
</a>
</g>
</g>
<!-- Node5 -->
<g id="Node000005" class="node">
<title>Node5</title>
<g id="a_Node000005"><a xlink:href="classttg__madness_1_1_world_impl.html#aa5cb0ba86aed7a4e5a986d30c24d467f" target="_top" xlink:title=" ">
<polygon fill="white" stroke="#666666" points="141,-30 0,-30 0,0 141,0 141,-30"/>
<text text-anchor="start" x="8" y="-18" font-family="Times,serif" font-size="10.00">ttg_madness::WorldImpl</text>
<text text-anchor="middle" x="70.5" y="-7" font-family="Times,serif" font-size="10.00">::~WorldImpl</text>
</a>
</g>
</g>
<!-- Node4&#45;&gt;Node5 -->
<g id="edge4_Node000004_Node000005" class="edge">
<title>Node4&#45;&gt;Node5</title>
<g id="a_edge4_Node000004_Node000005"><a xlink:title=" ">
<path fill="none" stroke="#63b8ff" d="M166.58,-15C158.11,-15 149.55,-15 141.21,-15"/>
<polygon fill="#63b8ff" stroke="#63b8ff" points="166.83,-18.5 176.83,-15 166.83,-11.5 166.83,-18.5"/>
</a>
</g>
</g>
</g>
</svg>
