<?xml version="1.0" encoding="UTF-8" standalone="no"?>
<!DOCTYPE svg PUBLIC "-//W3C//DTD SVG 1.1//EN"
 "http://www.w3.org/Graphics/SVG/1.1/DTD/svg11.dtd">
<!-- Generated by graphviz version 2.43.0 (0)
 -->
<!-- Title: ttg_parsec::TT::broadcast_arg_local Pages: 1 -->
<svg width="300pt" height="51pt"
 viewBox="0.00 0.00 300.00 50.50" xmlns="http://www.w3.org/2000/svg" xmlns:xlink="http://www.w3.org/1999/xlink">
<g id="graph0" class="graph" transform="scale(1 1) rotate(0) translate(4 46.5)">
<title>ttg_parsec::TT::broadcast_arg_local</title>
<!-- Node1 -->
<g id="Node000001" class="node">
<title>Node1</title>
<g id="a_Node000001"><a xlink:title=" ">
<polygon fill="#999999" stroke="#666666" points="145,-30 0,-30 0,0 145,0 145,-30"/>
<text text-anchor="start" x="8" y="-18" font-family="Times,serif" font-size="10.00">ttg_parsec::TT::broadcast</text>
<text text-anchor="middle" x="72.5" y="-7" font-family="Times,serif" font-size="10.00">_arg_local</text>
</a>
</g>
</g>
<!-- Node2 -->
<g id="Node000002" class="node">
<title>Node2</title>
<g id="a_Node000002"><a xlink:href="classttg__parsec_1_1_t_t.html#aab59a1bf0fcc4f771457b5f05cb42741" target="_top" xlink:title=" ">
<polygon fill="white" stroke="#666666" points="292,-24.5 181,-24.5 181,-5.5 292,-5.5 292,-24.5"/>
<text text-anchor="middle" x="236.5" y="-12.5" font-family="Times,serif" font-size="10.00">ttg_parsec::TT::get</text>
</a>
</g>
</g>
<!-- Node1&#45;&gt;Node2 -->
<g id="edge1_Node000001_Node000002" class="edge">
<title>Node1&#45;&gt;Node2</title>
<g id="a_edge1_Node000001_Node000002"><a xlink:title=" ">
<path fill="none" stroke="#63b8ff" d="M145.03,-15C153.58,-15 162.28,-15 170.74,-15"/>
<polygon fill="#63b8ff" stroke="#63b8ff" points="170.9,-18.5 180.9,-15 170.9,-11.5 170.9,-18.5"/>
</a>
</g>
</g>
<!-- Node2&#45;&gt;Node2 -->
<g id="edge2_Node000002_Node000002" class="edge">
<title>Node2&#45;&gt;Node2</title>
<g id="a_edge2_Node000002_Node000002"><a xlink:title=" ">
<path fill="none" stroke="#63b8ff" d="M211.22,-24.58C198.93,-33.23 207.35,-42.5 236.5,-42.5 255.63,-42.5 265.83,-38.51 267.11,-33.32"/>
<polygon fill="#63b8ff" stroke="#63b8ff" points="269.98,-31.29 261.78,-24.58 264,-34.94 269.98,-31.29"/>
</a>
</g>
</g>
</g>
</svg>
