<?xml version="1.0" encoding="UTF-8" standalone="no"?>
<!DOCTYPE svg PUBLIC "-//W3C//DTD SVG 1.1//EN"
 "http://www.w3.org/Graphics/SVG/1.1/DTD/svg11.dtd">
<!-- Generated by graphviz version 2.43.0 (0)
 -->
<!-- Title: ttg::TTBase::set_trace_all Pages: 1 -->
<svg width="648pt" height="147pt"
 viewBox="0.00 0.00 648.00 146.50" xmlns="http://www.w3.org/2000/svg" xmlns:xlink="http://www.w3.org/1999/xlink">
<g id="graph0" class="graph" transform="scale(1 1) rotate(0) translate(4 142.5)">
<title>ttg::TTBase::set_trace_all</title>
<!-- Node1 -->
<g id="Node000001" class="node">
<title>Node1</title>
<g id="a_Node000001"><a xlink:title=" ">
<polygon fill="#999999" stroke="#666666" points="144,-138.5 0,-138.5 0,-119.5 144,-119.5 144,-138.5"/>
<text text-anchor="middle" x="72" y="-126.5" font-family="Times,serif" font-size="10.00">ttg::TTBase::set_trace_all</text>
</a>
</g>
</g>
<!-- Node2 -->
<g id="Node000002" class="node">
<title>Node2</title>
<g id="a_Node000002"><a xlink:href="namespacettg.html#afbdd9c742be395e0746fdbc26c7d55cc" target="_top" xlink:title="returns whether tracing was enabled at configure time">
<polygon fill="white" stroke="#666666" points="640,-138.5 531,-138.5 531,-119.5 640,-119.5 640,-138.5"/>
<text text-anchor="middle" x="585.5" y="-126.5" font-family="Times,serif" font-size="10.00">ttg::trace_enabled</text>
</a>
</g>
</g>
<!-- Node1&#45;&gt;Node2 -->
<g id="edge1_Node000001_Node000002" class="edge">
<title>Node1&#45;&gt;Node2</title>
<g id="a_edge1_Node000001_Node000002"><a xlink:title=" ">
<path fill="none" stroke="#63b8ff" d="M144.08,-131.27C156.07,-131.58 168.39,-131.84 180,-132 300.29,-133.69 440.73,-131.77 520.48,-130.32"/>
<polygon fill="#63b8ff" stroke="#63b8ff" points="520.91,-133.81 530.84,-130.13 520.78,-126.82 520.91,-133.81"/>
</a>
</g>
</g>
<!-- Node3 -->
<g id="Node000003" class="node">
<title>Node3</title>
<g id="a_Node000003"><a xlink:href="namespacettg_1_1detail.html#a07090477ad763f0b0e3089df7cf8e1eb" target="_top" xlink:title=" ">
<polygon fill="white" stroke="#666666" points="288,-123 180,-123 180,-93 288,-93 288,-123"/>
<text text-anchor="start" x="188" y="-111" font-family="Times,serif" font-size="10.00">ttg::detail::tt_base</text>
<text text-anchor="middle" x="234" y="-100" font-family="Times,serif" font-size="10.00">_trace_accessor</text>
</a>
</g>
</g>
<!-- Node1&#45;&gt;Node3 -->
<g id="edge2_Node000001_Node000003" class="edge">
<title>Node1&#45;&gt;Node3</title>
<g id="a_edge2_Node000001_Node000003"><a xlink:title=" ">
<path fill="none" stroke="#63b8ff" d="M144.11,-119.67C152.65,-118.55 161.34,-117.41 169.76,-116.3"/>
<polygon fill="#63b8ff" stroke="#63b8ff" points="170.42,-119.74 179.88,-114.97 169.5,-112.8 170.42,-119.74"/>
</a>
</g>
</g>
<!-- Node4 -->
<g id="Node000004" class="node">
<title>Node4</title>
<g id="a_Node000004"><a xlink:href="namespacettg.html#af5e470229c1ddef41b83b6398a5dc583" target="_top" xlink:title=" ">
<polygon fill="white" stroke="#666666" points="386,-100.5 324,-100.5 324,-81.5 386,-81.5 386,-100.5"/>
<text text-anchor="middle" x="355" y="-88.5" font-family="Times,serif" font-size="10.00">ttg::trace</text>
</a>
</g>
</g>
<!-- Node3&#45;&gt;Node4 -->
<g id="edge3_Node000003_Node000004" class="edge">
<title>Node3&#45;&gt;Node4</title>
<g id="a_edge3_Node000003_Node000004"><a xlink:title=" ">
<path fill="none" stroke="#63b8ff" d="M288.23,-100.4C296.85,-99.16 305.64,-97.91 313.88,-96.73"/>
<polygon fill="#63b8ff" stroke="#63b8ff" points="314.55,-100.17 323.96,-95.29 313.56,-93.24 314.55,-100.17"/>
</a>
</g>
</g>
<!-- Node4&#45;&gt;Node2 -->
<g id="edge6_Node000004_Node000002" class="edge">
<title>Node4&#45;&gt;Node2</title>
<g id="a_edge6_Node000004_Node000002"><a xlink:title=" ">
<path fill="none" stroke="#63b8ff" d="M386.01,-100.16C397.22,-103.33 410.11,-106.66 422,-109 454.32,-115.36 490.69,-120.06 520.81,-123.3"/>
<polygon fill="#63b8ff" stroke="#63b8ff" points="520.46,-126.79 530.77,-124.35 521.18,-119.82 520.46,-126.79"/>
</a>
</g>
</g>
<!-- Node5 -->
<g id="Node000005" class="node">
<title>Node5</title>
<g id="a_Node000005"><a xlink:href="namespacettg.html#aacacfe8bc9582308a405c4370650a9d4" target="_top" xlink:title="atomically prints to std::clog a sequence of items (separated by ttg::print_separator) followed by st...">
<polygon fill="white" stroke="#666666" points="485,-24.5 432,-24.5 432,-5.5 485,-5.5 485,-24.5"/>
<text text-anchor="middle" x="458.5" y="-12.5" font-family="Times,serif" font-size="10.00">ttg::log</text>
</a>
</g>
</g>
<!-- Node4&#45;&gt;Node5 -->
<g id="edge4_Node000004_Node000005" class="edge">
<title>Node4&#45;&gt;Node5</title>
<g id="a_edge4_Node000004_Node000005"><a xlink:title=" ">
<path fill="none" stroke="#63b8ff" d="M367.96,-81.15C381.03,-70.48 402.68,-53.11 422,-39 425.99,-36.08 430.31,-33.06 434.51,-30.19"/>
<polygon fill="#63b8ff" stroke="#63b8ff" points="436.49,-33.07 442.83,-24.57 432.58,-27.27 436.49,-33.07"/>
</a>
</g>
</g>
<!-- Node7 -->
<g id="Node000007" class="node">
<title>Node7</title>
<g id="a_Node000007"><a xlink:href="namespacettg.html#abfb8501d408a1ed918cc2a540865a2d8" target="_top" xlink:title="returns whether tracing is enabled">
<polygon fill="white" stroke="#666666" points="495,-100.5 422,-100.5 422,-81.5 495,-81.5 495,-100.5"/>
<text text-anchor="middle" x="458.5" y="-88.5" font-family="Times,serif" font-size="10.00">ttg::tracing</text>
</a>
</g>
</g>
<!-- Node4&#45;&gt;Node7 -->
<g id="edge7_Node000004_Node000007" class="edge">
<title>Node4&#45;&gt;Node7</title>
<g id="a_edge7_Node000004_Node000007"><a xlink:title=" ">
<path fill="none" stroke="#63b8ff" d="M386.18,-91C394.24,-91 403.14,-91 411.84,-91"/>
<polygon fill="#63b8ff" stroke="#63b8ff" points="411.89,-94.5 421.89,-91 411.89,-87.5 411.89,-94.5"/>
</a>
</g>
</g>
<!-- Node6 -->
<g id="Node000006" class="node">
<title>Node6</title>
<g id="a_Node000006"><a xlink:href="namespacettg_1_1detail.html#a26e07486d5ef8eb5735a8975991a7693" target="_top" xlink:title=" ">
<polygon fill="white" stroke="#666666" points="633.5,-30 537.5,-30 537.5,0 633.5,0 633.5,-30"/>
<text text-anchor="start" x="545.5" y="-18" font-family="Times,serif" font-size="10.00">ttg::detail::print</text>
<text text-anchor="middle" x="585.5" y="-7" font-family="Times,serif" font-size="10.00">_helper</text>
</a>
</g>
</g>
<!-- Node5&#45;&gt;Node6 -->
<g id="edge5_Node000005_Node000006" class="edge">
<title>Node5&#45;&gt;Node6</title>
<g id="a_edge5_Node000005_Node000006"><a xlink:title=" ">
<path fill="none" stroke="#63b8ff" d="M485.1,-15C497.34,-15 512.53,-15 527.32,-15"/>
<polygon fill="#63b8ff" stroke="#63b8ff" points="527.46,-18.5 537.46,-15 527.46,-11.5 527.46,-18.5"/>
</a>
</g>
</g>
<!-- Node7&#45;&gt;Node2 -->
<g id="edge10_Node000007_Node000002" class="edge">
<title>Node7&#45;&gt;Node2</title>
<g id="a_edge10_Node000007_Node000002"><a xlink:title=" ">
<path fill="none" stroke="#63b8ff" d="M491.04,-100.59C506.88,-105.4 526.27,-111.3 543.28,-116.47"/>
<polygon fill="#63b8ff" stroke="#63b8ff" points="542.38,-119.85 552.97,-119.41 544.42,-113.16 542.38,-119.85"/>
</a>
</g>
</g>
<!-- Node8 -->
<g id="Node000008" class="node">
<title>Node8</title>
<g id="a_Node000008"><a xlink:href="namespacettg_1_1detail.html#a95356c3874e7ec9268a40feb4fc1519f" target="_top" xlink:title=" ">
<polygon fill="white" stroke="#666666" points="634,-90 537,-90 537,-60 634,-60 634,-90"/>
<text text-anchor="start" x="545" y="-78" font-family="Times,serif" font-size="10.00">ttg::detail::trace</text>
<text text-anchor="middle" x="585.5" y="-67" font-family="Times,serif" font-size="10.00">_accessor</text>
</a>
</g>
</g>
<!-- Node7&#45;&gt;Node8 -->
<g id="edge8_Node000007_Node000008" class="edge">
<title>Node7&#45;&gt;Node8</title>
<g id="a_edge8_Node000007_Node000008"><a xlink:title=" ">
<path fill="none" stroke="#63b8ff" d="M495.32,-86.42C505.05,-85.17 515.85,-83.79 526.47,-82.43"/>
<polygon fill="#63b8ff" stroke="#63b8ff" points="527.08,-85.88 536.56,-81.14 526.19,-78.93 527.08,-85.88"/>
</a>
</g>
</g>
<!-- Node8&#45;&gt;Node4 -->
<g id="edge9_Node000008_Node000004" class="edge">
<title>Node8&#45;&gt;Node4</title>
<g id="a_edge9_Node000008_Node000004"><a xlink:title=" ">
<path fill="none" stroke="#63b8ff" d="M536.97,-70.18C504.45,-67.85 460.42,-66.58 422,-72 412.19,-73.38 401.79,-75.87 392.22,-78.6"/>
<polygon fill="#63b8ff" stroke="#63b8ff" points="391.17,-75.26 382.6,-81.5 393.19,-81.97 391.17,-75.26"/>
</a>
</g>
</g>
</g>
</svg>
