<?xml version="1.0" encoding="UTF-8" standalone="no"?>
<!DOCTYPE svg PUBLIC "-//W3C//DTD SVG 1.1//EN"
 "http://www.w3.org/Graphics/SVG/1.1/DTD/svg11.dtd">
<!-- Generated by graphviz version 2.43.0 (0)
 -->
<!-- Title: ttg::TTBase::get_instance_id Pages: 1 -->
<!--zoomable 449 -->

<svg id="main" version="1.1" xmlns="http://www.w3.org/2000/svg" xmlns:xlink="http://www.w3.org/1999/xlink" xml:space="preserve" onload="init(evt)">
<style type="text/css"><![CDATA[
.node, .edge {opacity: 0.7;}
.node.selected, .edge.selected {opacity: 1;}
.edge:hover path { stroke: red; }
.edge:hover polygon { stroke: red; fill: red; }
]]></style>

<defs>
  <circle id="rim" cx="0" cy="0" r="7"/>
  <circle id="rim2" cx="0" cy="0" r="3.5"/>
  <g id="zoomPlus">
    <use xlink:href="#rim" fill="#404040"><set attributeName="fill" to="#808080" begin="zoomplus.mouseover" end="zoomplus.mouseout"/></use>
    <path d="M-4,0h8M0,-4v8" fill="none" stroke="white" stroke-width="1.5" pointer-events="none"/>
  </g>
  <g id="zoomMin">
    <use xlink:href="#rim" fill="#404040"><set attributeName="fill" to="#808080" begin="zoomminus.mouseover" end="zoomminus.mouseout"/></use>
    <path d="M-4,0h8" fill="none" stroke="white" stroke-width="1.5" pointer-events="none"/>
  </g>
  <g id="arrowUp" transform="translate(30 24)">
    <use xlink:href="#rim"/>
    <path pointer-events="none" fill="none" stroke="white" stroke-width="1.5" d="M0,-3.0v7 M-2.5,-0.5L0,-3.0L2.5,-0.5"/>
  </g>
  <g id="arrowRight" transform="rotate(90) translate(36 -43)">
    <use xlink:href="#rim"/>
    <path pointer-events="none" fill="none" stroke="white" stroke-width="1.5" d="M0,-3.0v7 M-2.5,-0.5L0,-3.0L2.5,-0.5"/>
  </g>
  <g id="arrowDown" transform="rotate(180) translate(-30 -48)">
    <use xlink:href="#rim"/>
    <path pointer-events="none" fill="none" stroke="white" stroke-width="1.5" d="M0,-3.0v7 M-2.5,-0.5L0,-3.0L2.5,-0.5"/>
  </g>
  <g id="arrowLeft" transform="rotate(270) translate(-36 17)">
    <use xlink:href="#rim"/>
    <path pointer-events="none" fill="none" stroke="white" stroke-width="1.5" d="M0,-3.0v7 M-2.5,-0.5L0,-3.0L2.5,-0.5"/>
  </g>
  <g id="resetDef">
    <use xlink:href="#rim2" fill="#404040"><set attributeName="fill" to="#808080" begin="reset.mouseover" end="reset.mouseout"/></use>
  </g>
</defs>
<script type="application/ecmascript">
var viewWidth = 530;
var viewHeight = 449;
var sectionId = 'dynsection-4';
</script>
<script type="application/ecmascript" xlink:href="svg.min.js"/>
<svg id="graph" class="graph">
<g id="viewport">
<title>ttg::TTBase::get_instance_id</title>
<!-- Node1 -->
<g id="Node000001" class="node">
<title>Node1</title>
<g id="a_Node000001"><a xlink:title=" ">
<polygon fill="#999999" stroke="#666666" points="522,-230 361,-230 361,-211 522,-211 522,-230"/>
<text text-anchor="middle" x="441.5" y="-218" font-family="Times,serif" font-size="10.00">ttg::TTBase::get_instance_id</text>
</a>
</g>
</g>
<!-- Node2 -->
<g id="Node000002" class="node">
<title>Node2</title>
<g id="a_Node000002"><a xlink:href="classttg__parsec_1_1_t_t.html#ab267d50d29a8a845a5578f67d6c75f2a" target="_top" xlink:title=" ">
<polygon fill="white" stroke="#666666" points="325,-441 158,-441 158,-422 325,-422 325,-441"/>
<text text-anchor="middle" x="241.5" y="-429" font-family="Times,serif" font-size="10.00">ttg_parsec::TT::broadcast_arg</text>
</a>
</g>
</g>
<!-- Node1&#45;&gt;Node2 -->
<g id="edge1_Node000001_Node000002" class="edge">
<title>Node1&#45;&gt;Node2</title>
<g id="a_edge1_Node000001_Node000002"><a xlink:title=" ">
<path fill="none" stroke="#63b8ff" d="M434.53,-240.05C421.49,-279.31 386.58,-367.81 325,-412.5 319.65,-416.38 313.63,-419.49 307.34,-421.97"/>
<polygon fill="#63b8ff" stroke="#63b8ff" points="437.92,-240.95 437.63,-230.36 431.25,-238.82 437.92,-240.95"/>
</a>
</g>
</g>
<!-- Node3 -->
<g id="Node000003" class="node">
<title>Node3</title>
<g id="a_Node000003"><a xlink:href="classttg__parsec_1_1_t_t.html#a22e5aac5bf2827bfcfb01d6ea47f382a" target="_top" xlink:title="finalizes stream for input i">
<polygon fill="white" stroke="#666666" points="307,-403.5 176,-403.5 176,-373.5 307,-373.5 307,-403.5"/>
<text text-anchor="start" x="184" y="-391.5" font-family="Times,serif" font-size="10.00">ttg_parsec::TT::finalize</text>
<text text-anchor="middle" x="241.5" y="-380.5" font-family="Times,serif" font-size="10.00">_argstream</text>
</a>
</g>
</g>
<!-- Node1&#45;&gt;Node3 -->
<g id="edge2_Node000001_Node000003" class="edge">
<title>Node1&#45;&gt;Node3</title>
<g id="a_edge2_Node000001_Node000003"><a xlink:title=" ">
<path fill="none" stroke="#63b8ff" d="M430.65,-239.1C413.4,-269.86 374.78,-331.25 325,-364.5 319.54,-368.15 313.52,-371.25 307.3,-373.88"/>
<polygon fill="#63b8ff" stroke="#63b8ff" points="433.76,-240.71 435.49,-230.26 427.62,-237.35 433.76,-240.71"/>
</a>
</g>
</g>
<!-- Node4 -->
<g id="Node000004" class="node">
<title>Node4</title>
<g id="a_Node000004"><a xlink:href="classttg__parsec_1_1_t_t.html#affca736b8369f0dd02c251dcbdb3974f" target="_top" xlink:title="finalizes stream for input i">
<polygon fill="white" stroke="#666666" points="307,-355.5 176,-355.5 176,-325.5 307,-325.5 307,-355.5"/>
<text text-anchor="start" x="184" y="-343.5" font-family="Times,serif" font-size="10.00">ttg_parsec::TT::finalize</text>
<text text-anchor="middle" x="241.5" y="-332.5" font-family="Times,serif" font-size="10.00">_argstream</text>
</a>
</g>
</g>
<!-- Node1&#45;&gt;Node4 -->
<g id="edge3_Node000001_Node000004" class="edge">
<title>Node1&#45;&gt;Node4</title>
<g id="a_edge3_Node000001_Node000004"><a xlink:title=" ">
<path fill="none" stroke="#63b8ff" d="M424.48,-237.59C403.54,-258.98 364.82,-295.35 325,-316.5 318.68,-319.86 311.82,-322.8 304.86,-325.37"/>
<polygon fill="#63b8ff" stroke="#63b8ff" points="427.19,-239.82 431.6,-230.19 422.14,-234.97 427.19,-239.82"/>
</a>
</g>
</g>
<!-- Node5 -->
<g id="Node000005" class="node">
<title>Node5</title>
<g id="a_Node000005"><a xlink:href="classttg__parsec_1_1_t_t.html#ab0bde8f642c472a5cf19274f7251268f" target="_top" xlink:title=" ">
<polygon fill="white" stroke="#666666" points="308.5,-307.5 174.5,-307.5 174.5,-277.5 308.5,-277.5 308.5,-307.5"/>
<text text-anchor="start" x="182.5" y="-295.5" font-family="Times,serif" font-size="10.00">ttg_parsec::TT::register</text>
<text text-anchor="middle" x="241.5" y="-284.5" font-family="Times,serif" font-size="10.00">_static_op_function</text>
</a>
</g>
</g>
<!-- Node1&#45;&gt;Node5 -->
<g id="edge4_Node000001_Node000005" class="edge">
<title>Node1&#45;&gt;Node5</title>
<g id="a_edge4_Node000001_Node000005"><a xlink:title=" ">
<path fill="none" stroke="#63b8ff" d="M410.22,-234.17C387.12,-244.32 354.39,-258.15 325,-268.5 316.14,-271.62 306.64,-274.66 297.36,-277.47"/>
<polygon fill="#63b8ff" stroke="#63b8ff" points="411.76,-237.31 419.49,-230.06 408.93,-230.91 411.76,-237.31"/>
</a>
</g>
</g>
<!-- Node7 -->
<g id="Node000007" class="node">
<title>Node7</title>
<g id="a_Node000007"><a xlink:href="classttg__parsec_1_1_world_impl.html#a796b7f345885e9bb7a4df1933bc6e4a3" target="_top" xlink:title=" ">
<polygon fill="white" stroke="#666666" points="306,-259.5 177,-259.5 177,-229.5 306,-229.5 306,-259.5"/>
<text text-anchor="start" x="185" y="-247.5" font-family="Times,serif" font-size="10.00">ttg_parsec::WorldImpl</text>
<text text-anchor="middle" x="241.5" y="-236.5" font-family="Times,serif" font-size="10.00">::register_tt_profiling</text>
</a>
</g>
</g>
<!-- Node1&#45;&gt;Node7 -->
<g id="edge6_Node000001_Node000007" class="edge">
<title>Node1&#45;&gt;Node7</title>
<g id="a_edge6_Node000001_Node000007"><a xlink:title=" ">
<path fill="none" stroke="#63b8ff" d="M351.87,-231.24C336.41,-233.12 320.61,-235.03 306.01,-236.8"/>
<polygon fill="#63b8ff" stroke="#63b8ff" points="352.45,-234.7 361.96,-230.02 351.61,-227.75 352.45,-234.7"/>
</a>
</g>
</g>
<!-- Node8 -->
<g id="Node000008" class="node">
<title>Node8</title>
<g id="a_Node000008"><a xlink:href="classttg__parsec_1_1_t_t.html#af647004ce89dc81d1202dd68070f0bde" target="_top" xlink:title=" ">
<polygon fill="white" stroke="#666666" points="296.5,-211.5 186.5,-211.5 186.5,-181.5 296.5,-181.5 296.5,-211.5"/>
<text text-anchor="start" x="194.5" y="-199.5" font-family="Times,serif" font-size="10.00">ttg_parsec::TT::set</text>
<text text-anchor="middle" x="241.5" y="-188.5" font-family="Times,serif" font-size="10.00">_arg_impl</text>
</a>
</g>
</g>
<!-- Node1&#45;&gt;Node8 -->
<g id="edge7_Node000001_Node000008" class="edge">
<title>Node1&#45;&gt;Node8</title>
<g id="a_edge7_Node000001_Node000008"><a xlink:title=" ">
<path fill="none" stroke="#63b8ff" d="M351.86,-209.76C333.01,-207.47 313.65,-205.12 296.57,-203.05"/>
<polygon fill="#63b8ff" stroke="#63b8ff" points="351.61,-213.25 361.96,-210.98 352.45,-206.3 351.61,-213.25"/>
</a>
</g>
</g>
<!-- Node9 -->
<g id="Node000009" class="node">
<title>Node9</title>
<g id="a_Node000009"><a xlink:href="classttg__parsec_1_1_t_t.html#af31b0b9c87c00dc31edfe4e6fa040442" target="_top" xlink:title=" ">
<polygon fill="white" stroke="#666666" points="296.5,-163.5 186.5,-163.5 186.5,-133.5 296.5,-133.5 296.5,-163.5"/>
<text text-anchor="start" x="194.5" y="-151.5" font-family="Times,serif" font-size="10.00">ttg_parsec::TT::set</text>
<text text-anchor="middle" x="241.5" y="-140.5" font-family="Times,serif" font-size="10.00">_argstream_size</text>
</a>
</g>
</g>
<!-- Node1&#45;&gt;Node9 -->
<g id="edge8_Node000001_Node000009" class="edge">
<title>Node1&#45;&gt;Node9</title>
<g id="a_edge8_Node000001_Node000009"><a xlink:title=" ">
<path fill="none" stroke="#63b8ff" d="M410.22,-206.83C387.12,-196.68 354.39,-182.85 325,-172.5 316,-169.33 306.34,-166.24 296.91,-163.4"/>
<polygon fill="#63b8ff" stroke="#63b8ff" points="408.93,-210.09 419.49,-210.94 411.76,-203.69 408.93,-210.09"/>
</a>
</g>
</g>
<!-- Node10 -->
<g id="Node000010" class="node">
<title>Node10</title>
<g id="a_Node000010"><a xlink:href="classttg__parsec_1_1_t_t.html#a5fba67769a0b313eb4548d311e0e632d" target="_top" xlink:title=" ">
<polygon fill="white" stroke="#666666" points="296.5,-115.5 186.5,-115.5 186.5,-85.5 296.5,-85.5 296.5,-115.5"/>
<text text-anchor="start" x="194.5" y="-103.5" font-family="Times,serif" font-size="10.00">ttg_parsec::TT::set</text>
<text text-anchor="middle" x="241.5" y="-92.5" font-family="Times,serif" font-size="10.00">_argstream_size</text>
</a>
</g>
</g>
<!-- Node1&#45;&gt;Node10 -->
<g id="edge9_Node000001_Node000010" class="edge">
<title>Node1&#45;&gt;Node10</title>
<g id="a_edge9_Node000001_Node000010"><a xlink:title=" ">
<path fill="none" stroke="#63b8ff" d="M424.48,-203.41C403.54,-182.02 364.82,-145.65 325,-124.5 316.17,-119.81 306.32,-115.93 296.57,-112.76"/>
<polygon fill="#63b8ff" stroke="#63b8ff" points="422.14,-206.03 431.6,-210.81 427.19,-201.18 422.14,-206.03"/>
</a>
</g>
</g>
<!-- Node11 -->
<g id="Node000011" class="node">
<title>Node11</title>
<g id="a_Node000011"><a xlink:href="classttg__parsec_1_1_t_t.html#a135452f67e8da6713f06a5f286654854" target="_top" xlink:title=" ">
<polygon fill="white" stroke="#666666" points="296.5,-67.5 186.5,-67.5 186.5,-37.5 296.5,-37.5 296.5,-67.5"/>
<text text-anchor="start" x="194.5" y="-55.5" font-family="Times,serif" font-size="10.00">ttg_parsec::TT::set</text>
<text text-anchor="middle" x="241.5" y="-44.5" font-family="Times,serif" font-size="10.00">_input_reducer</text>
</a>
</g>
</g>
<!-- Node1&#45;&gt;Node11 -->
<g id="edge10_Node000001_Node000011" class="edge">
<title>Node1&#45;&gt;Node11</title>
<g id="a_edge10_Node000001_Node000011"><a xlink:title=" ">
<path fill="none" stroke="#63b8ff" d="M430.65,-201.9C413.4,-171.14 374.78,-109.75 325,-76.5 316.44,-70.78 306.5,-66.4 296.55,-63.06"/>
<polygon fill="#63b8ff" stroke="#63b8ff" points="427.62,-203.65 435.49,-210.74 433.76,-200.29 427.62,-203.65"/>
</a>
</g>
</g>
<!-- Node12 -->
<g id="Node000012" class="node">
<title>Node12</title>
<g id="a_Node000012"><a xlink:href="classttg__parsec_1_1_t_t.html#a91ff2c4ba25da30a955c5f5a19ec5c89" target="_top" xlink:title=" ">
<polygon fill="white" stroke="#666666" points="295.5,-19 187.5,-19 187.5,0 295.5,0 295.5,-19"/>
<text text-anchor="middle" x="241.5" y="-7" font-family="Times,serif" font-size="10.00">ttg_parsec::TT::TT</text>
</a>
</g>
</g>
<!-- Node1&#45;&gt;Node12 -->
<g id="edge11_Node000001_Node000012" class="edge">
<title>Node1&#45;&gt;Node12</title>
<g id="a_edge11_Node000001_Node000012"><a xlink:title=" ">
<path fill="none" stroke="#63b8ff" d="M434.53,-200.95C421.49,-161.69 386.58,-73.19 325,-28.5 316.44,-22.28 306.16,-18.06 295.82,-15.2"/>
<polygon fill="#63b8ff" stroke="#63b8ff" points="431.25,-202.18 437.63,-210.64 437.92,-200.05 431.25,-202.18"/>
</a>
</g>
</g>
<!-- Node6 -->
<g id="Node000006" class="node">
<title>Node6</title>
<g id="a_Node000006"><a xlink:href="classttg__parsec_1_1_t_t.html#ac36a15986a5a4182b0cadb188014192a" target="_top" xlink:title="Marks this executable.">
<polygon fill="white" stroke="#666666" points="122,-307.5 0,-307.5 0,-277.5 122,-277.5 122,-307.5"/>
<text text-anchor="start" x="8" y="-295.5" font-family="Times,serif" font-size="10.00">ttg_parsec::TT::make</text>
<text text-anchor="middle" x="61" y="-284.5" font-family="Times,serif" font-size="10.00">_executable</text>
</a>
</g>
</g>
<!-- Node5&#45;&gt;Node6 -->
<g id="edge5_Node000005_Node000006" class="edge">
<title>Node5&#45;&gt;Node6</title>
<g id="a_edge5_Node000005_Node000006"><a xlink:title=" ">
<path fill="none" stroke="#63b8ff" d="M164.17,-292.5C150.14,-292.5 135.68,-292.5 122.21,-292.5"/>
<polygon fill="#63b8ff" stroke="#63b8ff" points="164.29,-296 174.29,-292.5 164.29,-289 164.29,-296"/>
</a>
</g>
</g>
</g>
</svg>

<g id="navigator" transform="translate(0 0)" fill="#404254">
  <rect fill="#f2f5e9" fill-opacity="0.5" stroke="#606060" stroke-width=".5" x="0" y="0" width="60" height="60"/>
  <use id="zoomplus" xlink:href="#zoomPlus" x="17" y="9" onmousedown="handleZoom(evt,'in')"/>
  <use id="zoomminus" xlink:href="#zoomMin" x="42" y="9" onmousedown="handleZoom(evt,'out')"/>
  <use id="reset" xlink:href="#resetDef" x="30" y="36" onmousedown="handleReset()"/>
   <use id="arrowup" xlink:href="#arrowUp" x="0" y="0" onmousedown="handlePan(0,-1)"/>
  <use id="arrowright" xlink:href="#arrowRight" x="0" y="0" onmousedown="handlePan(1,0)"/>
  <use id="arrowdown" xlink:href="#arrowDown" x="0" y="0" onmousedown="handlePan(0,1)"/>
  <use id="arrowleft" xlink:href="#arrowLeft" x="0" y="0" onmousedown="handlePan(-1,0)"/>
</g>
<svg viewBox="0 0 15 15" width="100%" height="30px" preserveAspectRatio="xMaxYMin meet">
 <g id="arrow_out" transform="scale(0.3 0.3)">
  <a xlink:href="classttg_1_1_t_t_base_a48f582b0eab8579283383f8d4937db09_icgraph_org.svg" target="_base">
   <rect id="button" ry="5" rx="5" y="6" x="6" height="38" width="38"
        fill="#f2f5e9" fill-opacity="0.5" stroke="#606060" stroke-width="1.0"/>
   <path id="arrow"
     d="M 11.500037,31.436501 C 11.940474,20.09759 22.043105,11.32322 32.158766,21.979434 L 37.068811,17.246167 C 37.068811,17.246167 37.088388,32 37.088388,32 L 22.160133,31.978069 C 22.160133,31.978069 26.997745,27.140456 26.997745,27.140456 C 18.528582,18.264221 13.291696,25.230495 11.500037,31.436501 z"
     style="fill:#404040;"/>
  </a>
 </g>
</svg>

<style type='text/css'>
<![CDATA[
[data-mouse-over-selected='false'] { opacity: 0.7; }
[data-mouse-over-selected='true']  { opacity: 1.0; }
]]>
</style>
<script type="application/ecmascript"><![CDATA[
document.addEventListener('DOMContentLoaded', (event) => {
  highlightEdges();
  highlightAdjacentNodes();
});
]]></script>
</svg>
