<?xml version="1.0" encoding="UTF-8" standalone="no"?>
<!DOCTYPE svg PUBLIC "-//W3C//DTD SVG 1.1//EN"
 "http://www.w3.org/Graphics/SVG/1.1/DTD/svg11.dtd">
<!-- Generated by graphviz version 2.43.0 (0)
 -->
<!-- Title: ttg::BinaryTreeReduce&lt; Value, BinaryOp, OutKey &gt; Pages: 1 -->
<svg width="572pt" height="93pt"
 viewBox="0.00 0.00 572.00 93.00" xmlns="http://www.w3.org/2000/svg" xmlns:xlink="http://www.w3.org/1999/xlink">
<g id="graph0" class="graph" transform="scale(1 1) rotate(0) translate(4 89)">
<title>ttg::BinaryTreeReduce&lt; Value, BinaryOp, OutKey &gt;</title>
<!-- Node1 -->
<g id="Node000001" class="node">
<title>Node1</title>
<g id="a_Node000001"><a xlink:title="generic binary reduction of a set of key&#45;value pairs.">
<polygon fill="#999999" stroke="#666666" points="564,-57.5 398,-57.5 398,-27.5 564,-27.5 564,-57.5"/>
<text text-anchor="start" x="406" y="-45.5" font-family="Times,serif" font-size="10.00">ttg::BinaryTreeReduce</text>
<text text-anchor="middle" x="481" y="-34.5" font-family="Times,serif" font-size="10.00">&lt; Value, BinaryOp, OutKey &gt;</text>
</a>
</g>
</g>
<!-- Node2 -->
<g id="Node000002" class="node">
<title>Node2</title>
<g id="a_Node000002"><a xlink:href="classttg__parsec_1_1_t_t.html" target="_top" xlink:title=" ">
<polygon fill="white" stroke="#666666" points="362,-85 140,-85 140,0 362,0 362,-85"/>
<text text-anchor="start" x="148" y="-73" font-family="Times,serif" font-size="10.00">ttg_parsec::TT&lt; int,</text>
<text text-anchor="start" x="148" y="-62" font-family="Times,serif" font-size="10.00"> std::tuple&lt; Out&lt; int,</text>
<text text-anchor="start" x="148" y="-51" font-family="Times,serif" font-size="10.00"> Value &gt;, Out&lt; int, Value</text>
<text text-anchor="start" x="148" y="-40" font-family="Times,serif" font-size="10.00"> &gt;, Out&lt; int, Value &gt;, Out</text>
<text text-anchor="start" x="148" y="-29" font-family="Times,serif" font-size="10.00">&lt; OutKey, Value &gt; &gt;, BinaryTreeReduce</text>
<text text-anchor="start" x="148" y="-18" font-family="Times,serif" font-size="10.00">&lt; Value, BinaryOp, OutKey &gt;, ttg</text>
<text text-anchor="middle" x="251" y="-7" font-family="Times,serif" font-size="10.00">::typelist&lt; Value, Value, Value &gt; &gt;</text>
</a>
</g>
</g>
<!-- Node2&#45;&gt;Node1 -->
<g id="edge1_Node000001_Node000002" class="edge">
<title>Node2&#45;&gt;Node1</title>
<g id="a_edge1_Node000001_Node000002"><a xlink:title=" ">
<path fill="none" stroke="#63b8ff" d="M372.4,-42.5C380.97,-42.5 389.49,-42.5 397.77,-42.5"/>
<polygon fill="#63b8ff" stroke="#63b8ff" points="372.33,-39 362.33,-42.5 372.33,-46 372.33,-39"/>
</a>
</g>
</g>
<!-- Node3 -->
<g id="Node000003" class="node">
<title>Node3</title>
<g id="a_Node000003"><a xlink:href="classttg_1_1_t_t_base.html" target="_top" xlink:title="A base class for all template tasks.">
<polygon fill="white" stroke="#666666" points="89.5,-74 14.5,-74 14.5,-55 89.5,-55 89.5,-74"/>
<text text-anchor="middle" x="52" y="-62" font-family="Times,serif" font-size="10.00">ttg::TTBase</text>
</a>
</g>
</g>
<!-- Node3&#45;&gt;Node2 -->
<g id="edge2_Node000002_Node000003" class="edge">
<title>Node3&#45;&gt;Node2</title>
<g id="a_edge2_Node000002_Node000003"><a xlink:title=" ">
<path fill="none" stroke="#63b8ff" d="M99.57,-59.3C111.9,-57.92 125.76,-56.37 139.94,-54.79"/>
<polygon fill="#63b8ff" stroke="#63b8ff" points="99.14,-55.83 89.59,-60.41 99.92,-62.78 99.14,-55.83"/>
</a>
</g>
</g>
<!-- Node4 -->
<g id="Node000004" class="node">
<title>Node4</title>
<g id="a_Node000004"><a xlink:href="structttg__parsec_1_1detail_1_1_parsec_t_t_base.html" target="_top" xlink:title=" ">
<polygon fill="white" stroke="#666666" points="104,-36.5 0,-36.5 0,-6.5 104,-6.5 104,-36.5"/>
<text text-anchor="start" x="8" y="-24.5" font-family="Times,serif" font-size="10.00">ttg_parsec::detail</text>
<text text-anchor="middle" x="52" y="-13.5" font-family="Times,serif" font-size="10.00">::ParsecTTBase</text>
</a>
</g>
</g>
<!-- Node4&#45;&gt;Node2 -->
<g id="edge3_Node000002_Node000004" class="edge">
<title>Node4&#45;&gt;Node2</title>
<g id="a_edge3_Node000002_Node000004"><a xlink:title=" ">
<path fill="none" stroke="#8b1a1a" d="M114.35,-28.04C122.51,-28.91 131.07,-29.82 139.75,-30.75"/>
<polygon fill="#8b1a1a" stroke="#8b1a1a" points="114.56,-24.54 104.25,-26.96 113.82,-31.5 114.56,-24.54"/>
</a>
</g>
</g>
</g>
</svg>
