<?xml version="1.0" encoding="UTF-8" standalone="no"?>
<!DOCTYPE svg PUBLIC "-//W3C//DTD SVG 1.1//EN"
 "http://www.w3.org/Graphics/SVG/1.1/DTD/svg11.dtd">
<!-- Generated by graphviz version 2.43.0 (0)
 -->
<!-- Title: ttg_parsec::TT::TT Pages: 1 -->
<svg width="263pt" height="45pt"
 viewBox="0.00 0.00 263.00 45.00" xmlns="http://www.w3.org/2000/svg" xmlns:xlink="http://www.w3.org/1999/xlink">
<g id="graph0" class="graph" transform="scale(1 1) rotate(0) translate(4 41)">
<title>ttg_parsec::TT::TT</title>
<!-- Node1 -->
<g id="Node000001" class="node">
<title>Node1</title>
<g id="a_Node000001"><a xlink:title=" ">
<polygon fill="#999999" stroke="#666666" points="108,-19 0,-19 0,0 108,0 108,-19"/>
<text text-anchor="middle" x="54" y="-7" font-family="Times,serif" font-size="10.00">ttg_parsec::TT::TT</text>
</a>
</g>
</g>
<!-- Node2 -->
<g id="Node000002" class="node">
<title>Node2</title>
<g id="a_Node000002"><a xlink:href="classttg__parsec_1_1_t_t.html#aab59a1bf0fcc4f771457b5f05cb42741" target="_top" xlink:title=" ">
<polygon fill="white" stroke="#666666" points="255,-19 144,-19 144,0 255,0 255,-19"/>
<text text-anchor="middle" x="199.5" y="-7" font-family="Times,serif" font-size="10.00">ttg_parsec::TT::get</text>
</a>
</g>
</g>
<!-- Node1&#45;&gt;Node2 -->
<g id="edge1_Node000001_Node000002" class="edge">
<title>Node1&#45;&gt;Node2</title>
<g id="a_edge1_Node000001_Node000002"><a xlink:title=" ">
<path fill="none" stroke="#63b8ff" d="M108.03,-9.5C116.4,-9.5 125.15,-9.5 133.76,-9.5"/>
<polygon fill="#63b8ff" stroke="#63b8ff" points="133.77,-13 143.77,-9.5 133.77,-6 133.77,-13"/>
</a>
</g>
</g>
<!-- Node2&#45;&gt;Node2 -->
<g id="edge2_Node000002_Node000002" class="edge">
<title>Node2&#45;&gt;Node2</title>
<g id="a_edge2_Node000002_Node000002"><a xlink:title=" ">
<path fill="none" stroke="#63b8ff" d="M177.31,-19.08C166.51,-27.73 173.91,-37 199.5,-37 215.9,-37 224.82,-33.2 226.29,-28.19"/>
<polygon fill="#63b8ff" stroke="#63b8ff" points="229.32,-26.44 221.69,-19.08 223.07,-29.59 229.32,-26.44"/>
</a>
</g>
</g>
</g>
</svg>
