<?xml version="1.0" encoding="UTF-8" standalone="no"?>
<!DOCTYPE svg PUBLIC "-//W3C//DTD SVG 1.1//EN"
 "http://www.w3.org/Graphics/SVG/1.1/DTD/svg11.dtd">
<!-- Generated by graphviz version 2.43.0 (0)
 -->
<!-- Title: ttg::detail::Backtrace::empty Pages: 1 -->
<svg width="648pt" height="38pt"
 viewBox="0.00 0.00 648.00 38.00" xmlns="http://www.w3.org/2000/svg" xmlns:xlink="http://www.w3.org/1999/xlink">
<g id="graph0" class="graph" transform="scale(1 1) rotate(0) translate(4 34)">
<title>ttg::detail::Backtrace::empty</title>
<!-- Node1 -->
<g id="Node000001" class="node">
<title>Node1</title>
<g id="a_Node000001"><a xlink:title=" ">
<polygon fill="#999999" stroke="#666666" points="640,-30 518,-30 518,0 640,0 640,-30"/>
<text text-anchor="start" x="526" y="-18" font-family="Times,serif" font-size="10.00">ttg::detail::Backtrace</text>
<text text-anchor="middle" x="579" y="-7" font-family="Times,serif" font-size="10.00">::empty</text>
</a>
</g>
</g>
<!-- Node2 -->
<g id="Node000002" class="node">
<title>Node2</title>
<g id="a_Node000002"><a xlink:href="classttg_1_1_debugger.html#a3bded73e46b0fb03ec108818b1ef4b88" target="_top" xlink:title=" ">
<polygon fill="white" stroke="#666666" points="482,-24.5 327,-24.5 327,-5.5 482,-5.5 482,-24.5"/>
<text text-anchor="middle" x="404.5" y="-12.5" font-family="Times,serif" font-size="10.00">ttg::Debugger::__traceback</text>
</a>
</g>
</g>
<!-- Node1&#45;&gt;Node2 -->
<g id="edge1_Node000001_Node000002" class="edge">
<title>Node1&#45;&gt;Node2</title>
<g id="a_edge1_Node000001_Node000002"><a xlink:title=" ">
<path fill="none" stroke="#63b8ff" d="M507.58,-15C499.21,-15 490.63,-15 482.17,-15"/>
<polygon fill="#63b8ff" stroke="#63b8ff" points="507.67,-18.5 517.67,-15 507.67,-11.5 507.67,-18.5"/>
</a>
</g>
</g>
<!-- Node3 -->
<g id="Node000003" class="node">
<title>Node3</title>
<g id="a_Node000003"><a xlink:href="classttg_1_1_debugger.html#a7081cd8a132843fdfb522704abec79af" target="_top" xlink:title=" ">
<polygon fill="white" stroke="#666666" points="291,-24.5 147,-24.5 147,-5.5 291,-5.5 291,-24.5"/>
<text text-anchor="middle" x="219" y="-12.5" font-family="Times,serif" font-size="10.00">ttg::Debugger::traceback</text>
</a>
</g>
</g>
<!-- Node2&#45;&gt;Node3 -->
<g id="edge2_Node000002_Node000003" class="edge">
<title>Node2&#45;&gt;Node3</title>
<g id="a_edge2_Node000002_Node000003"><a xlink:title=" ">
<path fill="none" stroke="#63b8ff" d="M316.74,-15C308.17,-15 299.55,-15 291.18,-15"/>
<polygon fill="#63b8ff" stroke="#63b8ff" points="316.74,-18.5 326.74,-15 316.74,-11.5 316.74,-18.5"/>
</a>
</g>
</g>
<!-- Node4 -->
<g id="Node000004" class="node">
<title>Node4</title>
<g id="a_Node000004"><a xlink:href="classttg_1_1_debugger.html#a14e7cc5aa0e16747eebf152e8f3abb25" target="_top" xlink:title="Called when signal sig is received. This is mainly for internal use.">
<polygon fill="white" stroke="#666666" points="111,-30 0,-30 0,0 111,0 111,-30"/>
<text text-anchor="start" x="8" y="-18" font-family="Times,serif" font-size="10.00">ttg::Debugger::got</text>
<text text-anchor="middle" x="55.5" y="-7" font-family="Times,serif" font-size="10.00">_signal</text>
</a>
</g>
</g>
<!-- Node3&#45;&gt;Node4 -->
<g id="edge3_Node000003_Node000004" class="edge">
<title>Node3&#45;&gt;Node4</title>
<g id="a_edge3_Node000003_Node000004"><a xlink:title=" ">
<path fill="none" stroke="#63b8ff" d="M136.67,-15C128.12,-15 119.57,-15 111.42,-15"/>
<polygon fill="#63b8ff" stroke="#63b8ff" points="136.69,-18.5 146.69,-15 136.69,-11.5 136.69,-18.5"/>
</a>
</g>
</g>
</g>
</svg>
