<?xml version="1.0" encoding="UTF-8" standalone="no"?>
<!DOCTYPE svg PUBLIC "-//W3C//DTD SVG 1.1//EN"
 "http://www.w3.org/Graphics/SVG/1.1/DTD/svg11.dtd">
<!-- Generated by graphviz version 2.43.0 (0)
 -->
<!-- Title: ttg_parsec::TT::set_input_reducer Pages: 1 -->
<svg width="607pt" height="343pt"
 viewBox="0.00 0.00 607.00 343.00" xmlns="http://www.w3.org/2000/svg" xmlns:xlink="http://www.w3.org/1999/xlink">
<g id="graph0" class="graph" transform="scale(1 1) rotate(0) translate(4 339)">
<title>ttg_parsec::TT::set_input_reducer</title>
<!-- Node1 -->
<g id="Node000001" class="node">
<title>Node1</title>
<g id="a_Node000001"><a xlink:title=" ">
<polygon fill="#999999" stroke="#666666" points="110,-217 0,-217 0,-187 110,-187 110,-217"/>
<text text-anchor="start" x="8" y="-205" font-family="Times,serif" font-size="10.00">ttg_parsec::TT::set</text>
<text text-anchor="middle" x="55" y="-194" font-family="Times,serif" font-size="10.00">_input_reducer</text>
</a>
</g>
</g>
<!-- Node2 -->
<g id="Node000002" class="node">
<title>Node2</title>
<g id="a_Node000002"><a xlink:href="classttg__parsec_1_1_t_t.html#aad517897417ee547ece0a21e47ec260e" target="_top" xlink:title=" ">
<polygon fill="white" stroke="#666666" points="293.5,-335 159.5,-335 159.5,-305 293.5,-305 293.5,-335"/>
<text text-anchor="start" x="167.5" y="-323" font-family="Times,serif" font-size="10.00">ttg_parsec::TT::derived</text>
<text text-anchor="middle" x="226.5" y="-312" font-family="Times,serif" font-size="10.00">_has_cuda_op</text>
</a>
</g>
</g>
<!-- Node1&#45;&gt;Node2 -->
<g id="edge1_Node000001_Node000002" class="edge">
<title>Node1&#45;&gt;Node2</title>
<g id="a_edge1_Node000001_Node000002"><a xlink:title=" ">
<path fill="none" stroke="#63b8ff" d="M67.85,-217.25C83.73,-236.77 113.7,-270.53 146,-291 151.75,-294.65 158.03,-297.92 164.45,-300.84"/>
<polygon fill="#63b8ff" stroke="#63b8ff" points="163.35,-304.18 173.92,-304.87 166.09,-297.74 163.35,-304.18"/>
</a>
</g>
</g>
<!-- Node3 -->
<g id="Node000003" class="node">
<title>Node3</title>
<g id="a_Node000003"><a xlink:href="classttg__parsec_1_1_t_t.html#aab59a1bf0fcc4f771457b5f05cb42741" target="_top" xlink:title=" ">
<polygon fill="white" stroke="#666666" points="454,-307.5 343,-307.5 343,-288.5 454,-288.5 454,-307.5"/>
<text text-anchor="middle" x="398.5" y="-295.5" font-family="Times,serif" font-size="10.00">ttg_parsec::TT::get</text>
</a>
</g>
</g>
<!-- Node1&#45;&gt;Node3 -->
<g id="edge4_Node000001_Node000003" class="edge">
<title>Node1&#45;&gt;Node3</title>
<g id="a_edge4_Node000001_Node000003"><a xlink:title=" ">
<path fill="none" stroke="#63b8ff" d="M75.17,-217.12C92.63,-230.08 119.62,-248.16 146,-258 206.97,-280.75 280.97,-290.56 332.86,-294.79"/>
<polygon fill="#63b8ff" stroke="#63b8ff" points="332.69,-298.29 342.93,-295.57 333.23,-291.31 332.69,-298.29"/>
</a>
</g>
</g>
<!-- Node4 -->
<g id="Node000004" class="node">
<title>Node4</title>
<g id="a_Node000004"><a xlink:href="classttg_1_1_t_t_base.html#a48f582b0eab8579283383f8d4937db09" target="_top" xlink:title=" ">
<polygon fill="white" stroke="#666666" points="307,-248.5 146,-248.5 146,-229.5 307,-229.5 307,-248.5"/>
<text text-anchor="middle" x="226.5" y="-236.5" font-family="Times,serif" font-size="10.00">ttg::TTBase::get_instance_id</text>
</a>
</g>
</g>
<!-- Node1&#45;&gt;Node4 -->
<g id="edge5_Node000001_Node000004" class="edge">
<title>Node1&#45;&gt;Node4</title>
<g id="a_edge5_Node000001_Node000004"><a xlink:title=" ">
<path fill="none" stroke="#63b8ff" d="M110.1,-213.81C129.82,-218.11 152.09,-222.98 171.78,-227.27"/>
<polygon fill="#63b8ff" stroke="#63b8ff" points="171.29,-230.75 181.81,-229.46 172.79,-223.91 171.29,-230.75"/>
</a>
</g>
</g>
<!-- Node5 -->
<g id="Node000005" class="node">
<title>Node5</title>
<g id="a_Node000005"><a xlink:href="classttg_1_1_t_t_base.html#ade3b1e6b149fe1124f7192aeca5f715c" target="_top" xlink:title="Gets the name of this operation.">
<polygon fill="white" stroke="#666666" points="292,-211.5 161,-211.5 161,-192.5 292,-192.5 292,-211.5"/>
<text text-anchor="middle" x="226.5" y="-199.5" font-family="Times,serif" font-size="10.00">ttg::TTBase::get_name</text>
</a>
</g>
</g>
<!-- Node1&#45;&gt;Node5 -->
<g id="edge6_Node000001_Node000005" class="edge">
<title>Node1&#45;&gt;Node5</title>
<g id="a_edge6_Node000001_Node000005"><a xlink:title=" ">
<path fill="none" stroke="#63b8ff" d="M110.1,-202C122.99,-202 136.98,-202 150.62,-202"/>
<polygon fill="#63b8ff" stroke="#63b8ff" points="150.96,-205.5 160.96,-202 150.96,-198.5 150.96,-205.5"/>
</a>
</g>
</g>
<!-- Node6 -->
<g id="Node000006" class="node">
<title>Node6</title>
<g id="a_Node000006"><a xlink:href="classttg_1_1base_1_1_world.html#aabab7c9df8f16919ab41a864c8b1adc4" target="_top" xlink:title=" ">
<polygon fill="white" stroke="#666666" points="289,-174.5 164,-174.5 164,-155.5 289,-155.5 289,-174.5"/>
<text text-anchor="middle" x="226.5" y="-162.5" font-family="Times,serif" font-size="10.00">ttg::base::World::impl</text>
</a>
</g>
</g>
<!-- Node1&#45;&gt;Node6 -->
<g id="edge7_Node000001_Node000006" class="edge">
<title>Node1&#45;&gt;Node6</title>
<g id="a_edge7_Node000001_Node000006"><a xlink:title=" ">
<path fill="none" stroke="#63b8ff" d="M110.1,-190.19C129.82,-185.89 152.09,-181.02 171.78,-176.73"/>
<polygon fill="#63b8ff" stroke="#63b8ff" points="172.79,-180.09 181.81,-174.54 171.29,-173.25 172.79,-180.09"/>
</a>
</g>
</g>
<!-- Node8 -->
<g id="Node000008" class="node">
<title>Node8</title>
<g id="a_Node000008"><a xlink:href="classttg_1_1base_1_1_world.html#a7c354d1e43268884cb3b947f44ce0f5e" target="_top" xlink:title=" ">
<polygon fill="white" stroke="#666666" points="289.5,-137.5 163.5,-137.5 163.5,-118.5 289.5,-118.5 289.5,-137.5"/>
<text text-anchor="middle" x="226.5" y="-125.5" font-family="Times,serif" font-size="10.00">ttg::base::World::rank</text>
</a>
</g>
</g>
<!-- Node1&#45;&gt;Node8 -->
<g id="edge9_Node000001_Node000008" class="edge">
<title>Node1&#45;&gt;Node8</title>
<g id="a_edge9_Node000001_Node000008"><a xlink:title=" ">
<path fill="none" stroke="#63b8ff" d="M76.45,-186.91C94.08,-174.56 120.61,-157.48 146,-147 152.17,-144.45 158.75,-142.2 165.4,-140.22"/>
<polygon fill="#63b8ff" stroke="#63b8ff" points="166.43,-143.57 175.12,-137.51 164.55,-136.82 166.43,-143.57"/>
</a>
</g>
</g>
<!-- Node9 -->
<g id="Node000009" class="node">
<title>Node9</title>
<g id="a_Node000009"><a xlink:href="namespacettg.html#af5e470229c1ddef41b83b6398a5dc583" target="_top" xlink:title=" ">
<polygon fill="white" stroke="#666666" points="257.5,-93.5 195.5,-93.5 195.5,-74.5 257.5,-74.5 257.5,-93.5"/>
<text text-anchor="middle" x="226.5" y="-81.5" font-family="Times,serif" font-size="10.00">ttg::trace</text>
</a>
</g>
</g>
<!-- Node1&#45;&gt;Node9 -->
<g id="edge11_Node000001_Node000009" class="edge">
<title>Node1&#45;&gt;Node9</title>
<g id="a_edge11_Node000001_Node000009"><a xlink:title=" ">
<path fill="none" stroke="#63b8ff" d="M67.09,-186.75C82.59,-166.46 112.6,-130.76 146,-110 157.99,-102.55 172.34,-97 185.52,-93"/>
<polygon fill="#63b8ff" stroke="#63b8ff" points="186.65,-96.31 195.32,-90.22 184.75,-89.58 186.65,-96.31"/>
</a>
</g>
</g>
<!-- Node2&#45;&gt;Node3 -->
<g id="edge2_Node000002_Node000003" class="edge">
<title>Node2&#45;&gt;Node3</title>
<g id="a_edge2_Node000002_Node000003"><a xlink:title=" ">
<path fill="none" stroke="#63b8ff" d="M293.71,-311.43C306.51,-309.77 319.91,-308.04 332.67,-306.39"/>
<polygon fill="#63b8ff" stroke="#63b8ff" points="333.27,-309.84 342.73,-305.09 332.37,-302.9 333.27,-309.84"/>
</a>
</g>
</g>
<!-- Node3&#45;&gt;Node3 -->
<g id="edge3_Node000003_Node000003" class="edge">
<title>Node3&#45;&gt;Node3</title>
<g id="a_edge3_Node000003_Node000003"><a xlink:title=" ">
<path fill="none" stroke="#63b8ff" d="M376,-307.58C365.05,-316.23 372.55,-325.5 398.5,-325.5 415.12,-325.5 424.18,-321.7 425.66,-316.69"/>
<polygon fill="#63b8ff" stroke="#63b8ff" points="428.67,-314.89 421,-307.58 422.44,-318.08 428.67,-314.89"/>
</a>
</g>
</g>
<!-- Node7 -->
<g id="Node000007" class="node">
<title>Node7</title>
<g id="a_Node000007"><a xlink:href="classttg_1_1base_1_1_world.html#af39ca1832f455a94134515f94aaa8533" target="_top" xlink:title=" ">
<polygon fill="white" stroke="#666666" points="454,-180 343,-180 343,-150 454,-150 454,-180"/>
<text text-anchor="start" x="351" y="-168" font-family="Times,serif" font-size="10.00">ttg::base::World::is</text>
<text text-anchor="middle" x="398.5" y="-157" font-family="Times,serif" font-size="10.00">_valid</text>
</a>
</g>
</g>
<!-- Node6&#45;&gt;Node7 -->
<g id="edge8_Node000006_Node000007" class="edge">
<title>Node6&#45;&gt;Node7</title>
<g id="a_edge8_Node000006_Node000007"><a xlink:title=" ">
<path fill="none" stroke="#63b8ff" d="M289.35,-165C303.41,-165 318.38,-165 332.56,-165"/>
<polygon fill="#63b8ff" stroke="#63b8ff" points="332.72,-168.5 342.72,-165 332.72,-161.5 332.72,-168.5"/>
</a>
</g>
</g>
<!-- Node8&#45;&gt;Node7 -->
<g id="edge10_Node000008_Node000007" class="edge">
<title>Node8&#45;&gt;Node7</title>
<g id="a_edge10_Node000008_Node000007"><a xlink:title=" ">
<path fill="none" stroke="#63b8ff" d="M271.28,-137.53C290.05,-141.61 312.35,-146.47 332.96,-150.95"/>
<polygon fill="#63b8ff" stroke="#63b8ff" points="332.4,-154.41 342.91,-153.12 333.88,-147.57 332.4,-154.41"/>
</a>
</g>
</g>
<!-- Node10 -->
<g id="Node000010" class="node">
<title>Node10</title>
<g id="a_Node000010"><a xlink:href="namespacettg.html#aacacfe8bc9582308a405c4370650a9d4" target="_top" xlink:title="atomically prints to std::clog a sequence of items (separated by ttg::print_separator) followed by st...">
<polygon fill="white" stroke="#666666" points="425,-131.5 372,-131.5 372,-112.5 425,-112.5 425,-131.5"/>
<text text-anchor="middle" x="398.5" y="-119.5" font-family="Times,serif" font-size="10.00">ttg::log</text>
</a>
</g>
</g>
<!-- Node9&#45;&gt;Node10 -->
<g id="edge12_Node000009_Node000010" class="edge">
<title>Node9&#45;&gt;Node10</title>
<g id="a_edge12_Node000009_Node000010"><a xlink:title=" ">
<path fill="none" stroke="#63b8ff" d="M257.5,-90.71C286.7,-97.23 331.09,-107.15 362.02,-114.07"/>
<polygon fill="#63b8ff" stroke="#63b8ff" points="361.44,-117.53 371.96,-116.29 362.96,-110.69 361.44,-117.53"/>
</a>
</g>
</g>
<!-- Node12 -->
<g id="Node000012" class="node">
<title>Node12</title>
<g id="a_Node000012"><a xlink:href="namespacettg.html#afbdd9c742be395e0746fdbc26c7d55cc" target="_top" xlink:title="returns whether tracing was enabled at configure time">
<polygon fill="white" stroke="#666666" points="599,-81.5 490,-81.5 490,-62.5 599,-62.5 599,-81.5"/>
<text text-anchor="middle" x="544.5" y="-69.5" font-family="Times,serif" font-size="10.00">ttg::trace_enabled</text>
</a>
</g>
</g>
<!-- Node9&#45;&gt;Node12 -->
<g id="edge14_Node000009_Node000012" class="edge">
<title>Node9&#45;&gt;Node12</title>
<g id="a_edge14_Node000009_Node000012"><a xlink:title=" ">
<path fill="none" stroke="#63b8ff" d="M257.51,-82.86C308.29,-80.93 412.2,-76.99 479.8,-74.42"/>
<polygon fill="#63b8ff" stroke="#63b8ff" points="480.05,-77.91 489.91,-74.04 479.78,-70.92 480.05,-77.91"/>
</a>
</g>
</g>
<!-- Node13 -->
<g id="Node000013" class="node">
<title>Node13</title>
<g id="a_Node000013"><a xlink:href="namespacettg.html#abfb8501d408a1ed918cc2a540865a2d8" target="_top" xlink:title="returns whether tracing is enabled">
<polygon fill="white" stroke="#666666" points="435,-55.5 362,-55.5 362,-36.5 435,-36.5 435,-55.5"/>
<text text-anchor="middle" x="398.5" y="-43.5" font-family="Times,serif" font-size="10.00">ttg::tracing</text>
</a>
</g>
</g>
<!-- Node9&#45;&gt;Node13 -->
<g id="edge15_Node000009_Node000013" class="edge">
<title>Node9&#45;&gt;Node13</title>
<g id="a_edge15_Node000009_Node000013"><a xlink:title=" ">
<path fill="none" stroke="#63b8ff" d="M257.5,-77.29C283.71,-71.44 322.13,-62.85 352.1,-56.15"/>
<polygon fill="#63b8ff" stroke="#63b8ff" points="352.92,-59.55 361.91,-53.95 351.39,-52.72 352.92,-59.55"/>
</a>
</g>
</g>
<!-- Node11 -->
<g id="Node000011" class="node">
<title>Node11</title>
<g id="a_Node000011"><a xlink:href="namespacettg_1_1detail.html#a26e07486d5ef8eb5735a8975991a7693" target="_top" xlink:title=" ">
<polygon fill="white" stroke="#666666" points="592.5,-137 496.5,-137 496.5,-107 592.5,-107 592.5,-137"/>
<text text-anchor="start" x="504.5" y="-125" font-family="Times,serif" font-size="10.00">ttg::detail::print</text>
<text text-anchor="middle" x="544.5" y="-114" font-family="Times,serif" font-size="10.00">_helper</text>
</a>
</g>
</g>
<!-- Node10&#45;&gt;Node11 -->
<g id="edge13_Node000010_Node000011" class="edge">
<title>Node10&#45;&gt;Node11</title>
<g id="a_edge13_Node000010_Node000011"><a xlink:title=" ">
<path fill="none" stroke="#63b8ff" d="M425.24,-122C442.21,-122 465.11,-122 486.24,-122"/>
<polygon fill="#63b8ff" stroke="#63b8ff" points="486.44,-125.5 496.44,-122 486.44,-118.5 486.44,-125.5"/>
</a>
</g>
</g>
<!-- Node13&#45;&gt;Node12 -->
<g id="edge18_Node000013_Node000012" class="edge">
<title>Node13&#45;&gt;Node12</title>
<g id="a_edge18_Node000013_Node000012"><a xlink:title=" ">
<path fill="none" stroke="#63b8ff" d="M435.1,-52.43C448.83,-54.91 464.96,-57.82 480.52,-60.63"/>
<polygon fill="#63b8ff" stroke="#63b8ff" points="480.17,-64.12 490.63,-62.45 481.41,-57.23 480.17,-64.12"/>
</a>
</g>
</g>
<!-- Node14 -->
<g id="Node000014" class="node">
<title>Node14</title>
<g id="a_Node000014"><a xlink:href="namespacettg_1_1detail.html#a95356c3874e7ec9268a40feb4fc1519f" target="_top" xlink:title=" ">
<polygon fill="white" stroke="#666666" points="593,-30 496,-30 496,0 593,0 593,-30"/>
<text text-anchor="start" x="504" y="-18" font-family="Times,serif" font-size="10.00">ttg::detail::trace</text>
<text text-anchor="middle" x="544.5" y="-7" font-family="Times,serif" font-size="10.00">_accessor</text>
</a>
</g>
</g>
<!-- Node13&#45;&gt;Node14 -->
<g id="edge16_Node000013_Node000014" class="edge">
<title>Node13&#45;&gt;Node14</title>
<g id="a_edge16_Node000013_Node000014"><a xlink:title=" ">
<path fill="none" stroke="#63b8ff" d="M435.1,-38.34C450.41,-35.04 468.71,-31.1 485.88,-27.41"/>
<polygon fill="#63b8ff" stroke="#63b8ff" points="486.78,-30.79 495.82,-25.26 485.31,-23.95 486.78,-30.79"/>
</a>
</g>
</g>
<!-- Node14&#45;&gt;Node9 -->
<g id="edge17_Node000014_Node000009" class="edge">
<title>Node14&#45;&gt;Node9</title>
<g id="a_edge17_Node000014_Node000009"><a xlink:title=" ">
<path fill="none" stroke="#63b8ff" d="M495.67,-12.59C454.51,-11.76 393.9,-13.51 343,-27 309,-36.01 273.16,-55.48 250.6,-69.14"/>
<polygon fill="#63b8ff" stroke="#63b8ff" points="248.73,-66.18 242.06,-74.42 252.41,-72.13 248.73,-66.18"/>
</a>
</g>
</g>
</g>
</svg>
