<?xml version="1.0" encoding="UTF-8" standalone="no"?>
<!DOCTYPE svg PUBLIC "-//W3C//DTD SVG 1.1//EN"
 "http://www.w3.org/Graphics/SVG/1.1/DTD/svg11.dtd">
<!-- Generated by graphviz version 2.43.0 (0)
 -->
<!-- Title: ttg::TerminalBase::get_name Pages: 1 -->
<svg width="493pt" height="175pt"
 viewBox="0.00 0.00 493.00 175.00" xmlns="http://www.w3.org/2000/svg" xmlns:xlink="http://www.w3.org/1999/xlink">
<g id="graph0" class="graph" transform="scale(1 1) rotate(0) translate(4 171)">
<title>ttg::TerminalBase::get_name</title>
<!-- Node1 -->
<g id="Node000001" class="node">
<title>Node1</title>
<g id="a_Node000001"><a xlink:title="Returns name of terminal.">
<polygon fill="#999999" stroke="#666666" points="485,-97.5 372,-97.5 372,-67.5 485,-67.5 485,-97.5"/>
<text text-anchor="start" x="380" y="-85.5" font-family="Times,serif" font-size="10.00">ttg::TerminalBase::</text>
<text text-anchor="middle" x="428.5" y="-74.5" font-family="Times,serif" font-size="10.00">get_name</text>
</a>
</g>
</g>
<!-- Node2 -->
<g id="Node000002" class="node">
<title>Node2</title>
<g id="a_Node000002"><a xlink:href="classttg_1_1_out.html#a0dd09ce5a40514317b0677a68e08a4a8" target="_top" xlink:title=" ">
<polygon fill="white" stroke="#666666" points="336,-125 235,-125 235,-106 336,-106 336,-125"/>
<text text-anchor="middle" x="285.5" y="-113" font-family="Times,serif" font-size="10.00">ttg::Out::connect</text>
</a>
</g>
</g>
<!-- Node1&#45;&gt;Node2 -->
<g id="edge1_Node000001_Node000002" class="edge">
<title>Node1&#45;&gt;Node2</title>
<g id="a_edge1_Node000001_Node000002"><a xlink:title=" ">
<path fill="none" stroke="#63b8ff" d="M361.97,-97.84C350.22,-100.59 338.28,-103.38 327.47,-105.91"/>
<polygon fill="#63b8ff" stroke="#63b8ff" points="362.83,-101.23 371.77,-95.54 361.24,-94.41 362.83,-101.23"/>
</a>
</g>
</g>
<!-- Node7 -->
<g id="Node000007" class="node">
<title>Node7</title>
<g id="a_Node000007"><a xlink:href="classttg_1_1_out.html#af3902b047294f85bdfaeb42dcd4488a4" target="_top" xlink:title=" ">
<polygon fill="white" stroke="#666666" points="328.5,-65 242.5,-65 242.5,-46 328.5,-46 328.5,-65"/>
<text text-anchor="middle" x="285.5" y="-53" font-family="Times,serif" font-size="10.00">ttg::Out::send</text>
</a>
</g>
</g>
<!-- Node1&#45;&gt;Node7 -->
<g id="edge6_Node000001_Node000007" class="edge">
<title>Node1&#45;&gt;Node7</title>
<g id="a_edge6_Node000001_Node000007"><a xlink:title=" ">
<path fill="none" stroke="#63b8ff" d="M361.94,-69.95C350.67,-67.79 339.23,-65.6 328.77,-63.6"/>
<polygon fill="#63b8ff" stroke="#63b8ff" points="361.29,-73.39 371.77,-71.83 362.61,-66.51 361.29,-73.39"/>
</a>
</g>
</g>
<!-- Node3 -->
<g id="Node000003" class="node">
<title>Node3</title>
<g id="a_Node000003"><a xlink:href="namespacettg.html#ac31d3ffe687039e52a8179b0ffca7153" target="_top" xlink:title="Connect output terminal to successor input terminal.">
<polygon fill="white" stroke="#666666" points="194.5,-130 117.5,-130 117.5,-111 194.5,-111 194.5,-130"/>
<text text-anchor="middle" x="156" y="-118" font-family="Times,serif" font-size="10.00">ttg::connect</text>
</a>
</g>
</g>
<!-- Node2&#45;&gt;Node3 -->
<g id="edge2_Node000002_Node000003" class="edge">
<title>Node2&#45;&gt;Node3</title>
<g id="a_edge2_Node000002_Node000003"><a xlink:title=" ">
<path fill="none" stroke="#63b8ff" d="M224.75,-117.84C214.58,-118.24 204.28,-118.65 194.87,-119.01"/>
<polygon fill="#63b8ff" stroke="#63b8ff" points="224.98,-121.34 234.84,-117.45 224.71,-114.34 224.98,-121.34"/>
</a>
</g>
</g>
<!-- Node4 -->
<g id="Node000004" class="node">
<title>Node4</title>
<g id="a_Node000004"><a xlink:href="namespacettg.html#a5f5c90f59ffa4fddb4a2aa1afe4d3db3" target="_top" xlink:title="Connect producer output terminal outindex to consumer input terminal inindex (via unique or otherwise...">
<polygon fill="white" stroke="#666666" points="77,-167 0,-167 0,-148 77,-148 77,-167"/>
<text text-anchor="middle" x="38.5" y="-155" font-family="Times,serif" font-size="10.00">ttg::connect</text>
</a>
</g>
</g>
<!-- Node3&#45;&gt;Node4 -->
<g id="edge3_Node000003_Node000004" class="edge">
<title>Node3&#45;&gt;Node4</title>
<g id="a_edge3_Node000003_Node000004"><a xlink:title=" ">
<path fill="none" stroke="#63b8ff" d="M115.66,-133.1C100.58,-137.93 83.62,-143.37 69.54,-147.88"/>
<polygon fill="#63b8ff" stroke="#63b8ff" points="116.8,-136.41 125.26,-130.03 114.66,-129.75 116.8,-136.41"/>
</a>
</g>
</g>
<!-- Node5 -->
<g id="Node000005" class="node">
<title>Node5</title>
<g id="a_Node000005"><a xlink:href="namespacettg.html#aa1ae512e6c225e04ab2f19977d4dd310" target="_top" xlink:title="Connect producer output terminal outindex to consumer input terminal inindex (via bare pointers to TT...">
<polygon fill="white" stroke="#666666" points="77,-130 0,-130 0,-111 77,-111 77,-130"/>
<text text-anchor="middle" x="38.5" y="-118" font-family="Times,serif" font-size="10.00">ttg::connect</text>
</a>
</g>
</g>
<!-- Node3&#45;&gt;Node5 -->
<g id="edge4_Node000003_Node000005" class="edge">
<title>Node3&#45;&gt;Node5</title>
<g id="a_edge4_Node000003_Node000005"><a xlink:title=" ">
<path fill="none" stroke="#63b8ff" d="M106.96,-120.5C96.96,-120.5 86.56,-120.5 77.01,-120.5"/>
<polygon fill="#63b8ff" stroke="#63b8ff" points="107.18,-124 117.18,-120.5 107.18,-117 107.18,-124"/>
</a>
</g>
</g>
<!-- Node6 -->
<g id="Node000006" class="node">
<title>Node6</title>
<g id="a_Node000006"><a xlink:href="namespacettg.html#addc70370fc2c1bc2a58db5592cc6ec44" target="_top" xlink:title="Connect producer output terminal outindex to consumer input terminal inindex (via TTBase pointers)">
<polygon fill="white" stroke="#666666" points="77,-93 0,-93 0,-74 77,-74 77,-93"/>
<text text-anchor="middle" x="38.5" y="-81" font-family="Times,serif" font-size="10.00">ttg::connect</text>
</a>
</g>
</g>
<!-- Node3&#45;&gt;Node6 -->
<g id="edge5_Node000003_Node000006" class="edge">
<title>Node3&#45;&gt;Node6</title>
<g id="a_edge5_Node000003_Node000006"><a xlink:title=" ">
<path fill="none" stroke="#63b8ff" d="M115.66,-107.9C100.58,-103.07 83.62,-97.63 69.54,-93.12"/>
<polygon fill="#63b8ff" stroke="#63b8ff" points="114.66,-111.25 125.26,-110.97 116.8,-104.59 114.66,-111.25"/>
</a>
</g>
</g>
<!-- Node7&#45;&gt;Node7 -->
<g id="edge7_Node000007_Node000007" class="edge">
<title>Node7&#45;&gt;Node7</title>
<g id="a_edge7_Node000007_Node000007"><a xlink:title=" ">
<path fill="none" stroke="#63b8ff" d="M309.2,-74.55C307.62,-79.38 299.72,-83 285.5,-83 262.75,-83 256.17,-73.73 265.77,-65.08"/>
<polygon fill="#63b8ff" stroke="#63b8ff" points="312.33,-72.95 305.23,-65.08 305.87,-75.66 312.33,-72.95"/>
</a>
</g>
</g>
<!-- Node8 -->
<g id="Node000008" class="node">
<title>Node8</title>
<g id="a_Node000008"><a xlink:href="classttg_1_1_out.html#ad2a015783a18cb7e66096c95a9ae77d0" target="_top" xlink:title=" ">
<polygon fill="white" stroke="#666666" points="199,-93 113,-93 113,-74 199,-74 199,-93"/>
<text text-anchor="middle" x="156" y="-81" font-family="Times,serif" font-size="10.00">ttg::Out::send</text>
</a>
</g>
</g>
<!-- Node7&#45;&gt;Node8 -->
<g id="edge8_Node000007_Node000008" class="edge">
<title>Node7&#45;&gt;Node8</title>
<g id="a_edge8_Node000007_Node000008"><a xlink:title=" ">
<path fill="none" stroke="#63b8ff" d="M232.39,-66.94C221.3,-69.38 209.72,-71.92 199.06,-74.26"/>
<polygon fill="#63b8ff" stroke="#63b8ff" points="233.38,-70.31 242.4,-64.75 231.88,-63.47 233.38,-70.31"/>
</a>
</g>
</g>
<!-- Node9 -->
<g id="Node000009" class="node">
<title>Node9</title>
<g id="a_Node000009"><a xlink:href="namespacettg.html#a195eb3c0d9b0118dd7c94c0463840734" target="_top" xlink:title="Sends a task id and a value to the given output terminal.">
<polygon fill="white" stroke="#666666" points="187,-56 125,-56 125,-37 187,-37 187,-56"/>
<text text-anchor="middle" x="156" y="-44" font-family="Times,serif" font-size="10.00">ttg::send</text>
</a>
</g>
</g>
<!-- Node7&#45;&gt;Node9 -->
<g id="edge9_Node000007_Node000009" class="edge">
<title>Node7&#45;&gt;Node9</title>
<g id="a_edge9_Node000007_Node000009"><a xlink:title=" ">
<path fill="none" stroke="#63b8ff" d="M232.05,-51.8C216.83,-50.72 200.73,-49.59 187.35,-48.64"/>
<polygon fill="#63b8ff" stroke="#63b8ff" points="232.18,-55.32 242.4,-52.53 232.67,-48.33 232.18,-55.32"/>
</a>
</g>
</g>
<!-- Node10 -->
<g id="Node000010" class="node">
<title>Node10</title>
<g id="a_Node000010"><a xlink:href="namespacettg.html#a64fbfb8618ef226f6b3d49a7a46db0cb" target="_top" xlink:title="Sends a control message (message without an accompanying task id or a value) to the given output term...">
<polygon fill="white" stroke="#666666" points="187,-19 125,-19 125,0 187,0 187,-19"/>
<text text-anchor="middle" x="156" y="-7" font-family="Times,serif" font-size="10.00">ttg::send</text>
</a>
</g>
</g>
<!-- Node7&#45;&gt;Node10 -->
<g id="edge10_Node000007_Node000010" class="edge">
<title>Node7&#45;&gt;Node10</title>
<g id="a_edge10_Node000007_Node000010"><a xlink:title=" ">
<path fill="none" stroke="#63b8ff" d="M248.65,-42.56C227.91,-35.08 202.27,-25.83 183.38,-19.02"/>
<polygon fill="#63b8ff" stroke="#63b8ff" points="247.49,-45.87 258.08,-45.97 249.86,-39.28 247.49,-45.87"/>
</a>
</g>
</g>
</g>
</svg>
