<?xml version="1.0" encoding="UTF-8" standalone="no"?>
<!DOCTYPE svg PUBLIC "-//W3C//DTD SVG 1.1//EN"
 "http://www.w3.org/Graphics/SVG/1.1/DTD/svg11.dtd">
<!-- Generated by graphviz version 2.43.0 (0)
 -->
<!-- Title: ttg::device::Device::operator int Pages: 1 -->
<svg width="572pt" height="60pt"
 viewBox="0.00 0.00 572.00 60.00" xmlns="http://www.w3.org/2000/svg" xmlns:xlink="http://www.w3.org/1999/xlink">
<g id="graph0" class="graph" transform="scale(1 1) rotate(0) translate(4 56)">
<title>ttg::device::Device::operator int</title>
<!-- Node1 -->
<g id="Node000001" class="node">
<title>Node1</title>
<g id="a_Node000001"><a xlink:title=" ">
<polygon fill="#999999" stroke="#666666" points="110,-30 0,-30 0,0 110,0 110,-30"/>
<text text-anchor="start" x="8" y="-18" font-family="Times,serif" font-size="10.00">ttg::device::Device</text>
<text text-anchor="middle" x="55" y="-7" font-family="Times,serif" font-size="10.00">::operator int</text>
</a>
</g>
</g>
<!-- Node2 -->
<g id="Node000002" class="node">
<title>Node2</title>
<g id="a_Node000002"><a xlink:href="classttg_1_1device_1_1_device.html#acf0992ecbfbc2c91de0452122b06fe81" target="_top" xlink:title=" ">
<polygon fill="white" stroke="#666666" points="272,-24.5 146,-24.5 146,-5.5 272,-5.5 272,-24.5"/>
<text text-anchor="middle" x="209" y="-12.5" font-family="Times,serif" font-size="10.00">ttg::device::Device::id</text>
</a>
</g>
</g>
<!-- Node1&#45;&gt;Node2 -->
<g id="edge1_Node000001_Node000002" class="edge">
<title>Node1&#45;&gt;Node2</title>
<g id="a_edge1_Node000001_Node000002"><a xlink:title=" ">
<path fill="none" stroke="#63b8ff" d="M110.02,-15C118.36,-15 127.09,-15 135.75,-15"/>
<polygon fill="#63b8ff" stroke="#63b8ff" points="135.86,-18.5 145.86,-15 135.86,-11.5 135.86,-18.5"/>
</a>
</g>
</g>
<!-- Node3 -->
<g id="Node000003" class="node">
<title>Node3</title>
<g id="a_Node000003"><a xlink:href="classttg_1_1device_1_1_device.html#a16a73248d5e812cf4df7d55458faafb4" target="_top" xlink:title=" ">
<polygon fill="white" stroke="#666666" points="418,-52 308,-52 308,-22 418,-22 418,-52"/>
<text text-anchor="start" x="316" y="-40" font-family="Times,serif" font-size="10.00">ttg::device::Device</text>
<text text-anchor="middle" x="363" y="-29" font-family="Times,serif" font-size="10.00">::is_host</text>
</a>
</g>
</g>
<!-- Node2&#45;&gt;Node3 -->
<g id="edge2_Node000002_Node000003" class="edge">
<title>Node2&#45;&gt;Node3</title>
<g id="a_edge2_Node000002_Node000003"><a xlink:title=" ">
<path fill="none" stroke="#63b8ff" d="M272.26,-24.01C280.66,-25.23 289.28,-26.47 297.71,-27.69"/>
<polygon fill="#63b8ff" stroke="#63b8ff" points="297.46,-31.2 307.86,-29.16 298.47,-24.27 297.46,-31.2"/>
</a>
</g>
</g>
<!-- Node4 -->
<g id="Node000004" class="node">
<title>Node4</title>
<g id="a_Node000004"><a xlink:href="classttg_1_1device_1_1_device.html#a979477b9cde8927f919c75754d4d8329" target="_top" xlink:title=" ">
<polygon fill="white" stroke="#666666" points="564,-30 454,-30 454,0 564,0 564,-30"/>
<text text-anchor="start" x="462" y="-18" font-family="Times,serif" font-size="10.00">ttg::device::Device</text>
<text text-anchor="middle" x="509" y="-7" font-family="Times,serif" font-size="10.00">::is_invalid</text>
</a>
</g>
</g>
<!-- Node2&#45;&gt;Node4 -->
<g id="edge4_Node000002_Node000004" class="edge">
<title>Node2&#45;&gt;Node4</title>
<g id="a_edge4_Node000002_Node000004"><a xlink:title=" ">
<path fill="none" stroke="#63b8ff" d="M272.21,-13.54C284.09,-13.31 296.43,-13.12 308,-13 356.89,-12.5 369.11,-12.46 418,-13 426.31,-13.09 435.06,-13.23 443.69,-13.4"/>
<polygon fill="#63b8ff" stroke="#63b8ff" points="443.68,-16.9 453.75,-13.6 443.82,-9.9 443.68,-16.9"/>
</a>
</g>
</g>
<!-- Node3&#45;&gt;Node4 -->
<g id="edge3_Node000003_Node000004" class="edge">
<title>Node3&#45;&gt;Node4</title>
<g id="a_edge3_Node000003_Node000004"><a xlink:title=" ">
<path fill="none" stroke="#63b8ff" d="M418.03,-28.75C426.4,-27.47 435.13,-26.13 443.7,-24.82"/>
<polygon fill="#63b8ff" stroke="#63b8ff" points="444.31,-28.27 453.67,-23.3 443.25,-21.35 444.31,-28.27"/>
</a>
</g>
</g>
</g>
</svg>
