<?xml version="1.0" encoding="UTF-8" standalone="no"?>
<!DOCTYPE svg PUBLIC "-//W3C//DTD SVG 1.1//EN"
 "http://www.w3.org/Graphics/SVG/1.1/DTD/svg11.dtd">
<!-- Generated by graphviz version 2.43.0 (0)
 -->
<!-- Title: ttg_parsec::WorldImpl::WorldImpl Pages: 1 -->
<svg width="648pt" height="536pt"
 viewBox="0.00 0.00 648.00 536.00" xmlns="http://www.w3.org/2000/svg" xmlns:xlink="http://www.w3.org/1999/xlink">
<g id="graph0" class="graph" transform="scale(1 1) rotate(0) translate(4 532)">
<title>ttg_parsec::WorldImpl::WorldImpl</title>
<!-- Node1 -->
<g id="Node000001" class="node">
<title>Node1</title>
<g id="a_Node000001"><a xlink:title=" ">
<polygon fill="#999999" stroke="#666666" points="129,-174 0,-174 0,-144 129,-144 129,-174"/>
<text text-anchor="start" x="8" y="-162" font-family="Times,serif" font-size="10.00">ttg_parsec::WorldImpl</text>
<text text-anchor="middle" x="64.5" y="-151" font-family="Times,serif" font-size="10.00">::WorldImpl</text>
</a>
</g>
</g>
<!-- Node2 -->
<g id="Node000002" class="node">
<title>Node2</title>
<g id="a_Node000002"><a xlink:href="classttg__parsec_1_1_world_impl.html#a5db7008c862368d9a534848c66ae703e" target="_top" xlink:title=" ">
<polygon fill="white" stroke="#666666" points="294,-415 165,-415 165,-385 294,-385 294,-415"/>
<text text-anchor="start" x="173" y="-403" font-family="Times,serif" font-size="10.00">ttg_parsec::WorldImpl</text>
<text text-anchor="middle" x="229.5" y="-392" font-family="Times,serif" font-size="10.00">::create_tpool</text>
</a>
</g>
</g>
<!-- Node1&#45;&gt;Node2 -->
<g id="edge1_Node000001_Node000002" class="edge">
<title>Node1&#45;&gt;Node2</title>
<g id="a_edge1_Node000001_Node000002"><a xlink:title=" ">
<path fill="none" stroke="#63b8ff" d="M75.7,-174.08C103.25,-214.82 179.38,-327.37 212.62,-376.52"/>
<polygon fill="#63b8ff" stroke="#63b8ff" points="209.81,-378.61 218.31,-384.93 215.6,-374.69 209.81,-378.61"/>
</a>
</g>
</g>
<!-- Node8 -->
<g id="Node000008" class="node">
<title>Node8</title>
<g id="a_Node000008"><a xlink:href="classttg__parsec_1_1_world_impl.html#a8486bd3e8dc829175f7ad0538e0dce4b" target="_top" xlink:title=" ">
<polygon fill="white" stroke="#666666" points="294,-260 165,-260 165,-230 294,-230 294,-260"/>
<text text-anchor="start" x="173" y="-248" font-family="Times,serif" font-size="10.00">ttg_parsec::WorldImpl</text>
<text text-anchor="middle" x="229.5" y="-237" font-family="Times,serif" font-size="10.00">::dag_on</text>
</a>
</g>
</g>
<!-- Node1&#45;&gt;Node8 -->
<g id="edge7_Node000001_Node000008" class="edge">
<title>Node1&#45;&gt;Node8</title>
<g id="a_edge7_Node000001_Node000008"><a xlink:title=" ">
<path fill="none" stroke="#63b8ff" d="M90.5,-174.17C110.42,-186.05 139.14,-202.72 165,-216 171.23,-219.2 177.88,-222.43 184.45,-225.52"/>
<polygon fill="#63b8ff" stroke="#63b8ff" points="183.41,-228.89 193.95,-229.92 186.35,-222.54 183.41,-228.89"/>
</a>
</g>
</g>
<!-- Node11 -->
<g id="Node000011" class="node">
<title>Node11</title>
<g id="a_Node000011"><a xlink:href="classttg__parsec_1_1_world_impl.html#ad4f99fc6c215bdaceb6d1c3fbbadfaf2" target="_top" xlink:title=" ">
<polygon fill="white" stroke="#666666" points="483.5,-212 354.5,-212 354.5,-182 483.5,-182 483.5,-212"/>
<text text-anchor="start" x="362.5" y="-200" font-family="Times,serif" font-size="10.00">ttg_parsec::WorldImpl</text>
<text text-anchor="middle" x="419" y="-189" font-family="Times,serif" font-size="10.00">::profile_on</text>
</a>
</g>
</g>
<!-- Node1&#45;&gt;Node11 -->
<g id="edge15_Node000001_Node000011" class="edge">
<title>Node1&#45;&gt;Node11</title>
<g id="a_edge15_Node000001_Node000011"><a xlink:title=" ">
<path fill="none" stroke="#63b8ff" d="M119.89,-174C134.44,-177.5 150.23,-180.83 165,-183 224.86,-191.8 293.41,-195.19 344.05,-196.43"/>
<polygon fill="#63b8ff" stroke="#63b8ff" points="344.18,-199.94 354.26,-196.66 344.34,-192.94 344.18,-199.94"/>
</a>
</g>
</g>
<!-- Node13 -->
<g id="Node000013" class="node">
<title>Node13</title>
<g id="a_Node000013"><a xlink:href="namespacettg_1_1detail.html#a8e25ccea71cb35fbaa031e9fcd5d34f8" target="_top" xlink:title=" ">
<polygon fill="white" stroke="#666666" points="278,-174 181,-174 181,-144 278,-144 278,-174"/>
<text text-anchor="start" x="189" y="-162" font-family="Times,serif" font-size="10.00">ttg::detail::force</text>
<text text-anchor="middle" x="229.5" y="-151" font-family="Times,serif" font-size="10.00">_device_comm</text>
</a>
</g>
</g>
<!-- Node1&#45;&gt;Node13 -->
<g id="edge12_Node000001_Node000013" class="edge">
<title>Node1&#45;&gt;Node13</title>
<g id="a_edge12_Node000001_Node000013"><a xlink:title=" ">
<path fill="none" stroke="#63b8ff" d="M129.45,-159C143.1,-159 157.44,-159 170.83,-159"/>
<polygon fill="#63b8ff" stroke="#63b8ff" points="170.86,-162.5 180.86,-159 170.86,-155.5 170.86,-162.5"/>
</a>
</g>
</g>
<!-- Node14 -->
<g id="Node000014" class="node">
<title>Node14</title>
<g id="a_Node000014"><a xlink:href="classttg__parsec_1_1_world_impl.html#a1a48b204f4c37b552647f195ffd8fbde" target="_top" xlink:title=" ">
<polygon fill="white" stroke="#666666" points="294,-126 165,-126 165,-96 294,-96 294,-126"/>
<text text-anchor="start" x="173" y="-114" font-family="Times,serif" font-size="10.00">ttg_parsec::WorldImpl</text>
<text text-anchor="middle" x="229.5" y="-103" font-family="Times,serif" font-size="10.00">::parsec_ttg_rma_tag</text>
</a>
</g>
</g>
<!-- Node1&#45;&gt;Node14 -->
<g id="edge13_Node000001_Node000014" class="edge">
<title>Node1&#45;&gt;Node14</title>
<g id="a_edge13_Node000001_Node000014"><a xlink:title=" ">
<path fill="none" stroke="#63b8ff" d="M116.63,-143.94C132.86,-139.16 150.97,-133.83 167.81,-128.87"/>
<polygon fill="#63b8ff" stroke="#63b8ff" points="168.95,-132.18 177.55,-126 166.97,-125.47 168.95,-132.18"/>
</a>
</g>
</g>
<!-- Node15 -->
<g id="Node000015" class="node">
<title>Node15</title>
<g id="a_Node000015"><a xlink:href="classttg__parsec_1_1_world_impl.html#aa444d4b6882eac7542e53560ac2143a2" target="_top" xlink:title=" ">
<polygon fill="white" stroke="#666666" points="294,-78 165,-78 165,-48 294,-48 294,-78"/>
<text text-anchor="start" x="173" y="-66" font-family="Times,serif" font-size="10.00">ttg_parsec::WorldImpl</text>
<text text-anchor="middle" x="229.5" y="-55" font-family="Times,serif" font-size="10.00">::parsec_ttg_tag</text>
</a>
</g>
</g>
<!-- Node1&#45;&gt;Node15 -->
<g id="edge14_Node000001_Node000015" class="edge">
<title>Node1&#45;&gt;Node15</title>
<g id="a_edge14_Node000001_Node000015"><a xlink:title=" ">
<path fill="none" stroke="#63b8ff" d="M83.24,-143.92C102.43,-128.16 134.4,-103.48 165,-87 168.1,-85.33 171.35,-83.72 174.66,-82.18"/>
<polygon fill="#63b8ff" stroke="#63b8ff" points="176.35,-85.27 184.1,-78.05 173.54,-78.85 176.35,-85.27"/>
</a>
</g>
</g>
<!-- Node16 -->
<g id="Node000016" class="node">
<title>Node16</title>
<g id="a_Node000016"><a xlink:href="namespacettg_1_1detail.html#a99c009274b0a628be74a6d87c9255406" target="_top" xlink:title=" ">
<polygon fill="white" stroke="#666666" points="285,-30 174,-30 174,0 285,0 285,-30"/>
<text text-anchor="start" x="182" y="-18" font-family="Times,serif" font-size="10.00">ttg::detail::register</text>
<text text-anchor="middle" x="229.5" y="-7" font-family="Times,serif" font-size="10.00">_world</text>
</a>
</g>
</g>
<!-- Node1&#45;&gt;Node16 -->
<g id="edge16_Node000001_Node000016" class="edge">
<title>Node1&#45;&gt;Node16</title>
<g id="a_edge16_Node000001_Node000016"><a xlink:title=" ">
<path fill="none" stroke="#63b8ff" d="M74.31,-143.95C89.7,-118.88 123.81,-68.4 165,-39 167.06,-37.53 169.21,-36.14 171.44,-34.83"/>
<polygon fill="#63b8ff" stroke="#63b8ff" points="173.12,-37.9 180.31,-30.12 169.83,-31.72 173.12,-37.9"/>
</a>
</g>
</g>
<!-- Node3 -->
<g id="Node000003" class="node">
<title>Node3</title>
<g id="a_Node000003"><a xlink:href="classttg__parsec_1_1_world_impl.html#a672bd6f962d95538fca23d808336920d" target="_top" xlink:title=" ">
<polygon fill="white" stroke="#666666" points="483.5,-528 354.5,-528 354.5,-498 483.5,-498 483.5,-528"/>
<text text-anchor="start" x="362.5" y="-516" font-family="Times,serif" font-size="10.00">ttg_parsec::WorldImpl</text>
<text text-anchor="middle" x="419" y="-505" font-family="Times,serif" font-size="10.00">::comm</text>
</a>
</g>
</g>
<!-- Node2&#45;&gt;Node3 -->
<g id="edge2_Node000002_Node000003" class="edge">
<title>Node2&#45;&gt;Node3</title>
<g id="a_edge2_Node000002_Node000003"><a xlink:title=" ">
<path fill="none" stroke="#63b8ff" d="M243.38,-415.27C260.95,-435.15 294.37,-469.63 330,-489 334.58,-491.49 339.43,-493.73 344.42,-495.76"/>
<polygon fill="#63b8ff" stroke="#63b8ff" points="343.53,-499.16 354.13,-499.38 345.98,-492.61 343.53,-499.16"/>
</a>
</g>
</g>
<!-- Node4 -->
<g id="Node000004" class="node">
<title>Node4</title>
<g id="a_Node000004"><a xlink:href="classttg__parsec_1_1_world_impl.html#a1029a562c3a0bd57f4ae5ffc23371f18" target="_top" xlink:title=" ">
<polygon fill="white" stroke="#666666" points="483.5,-480 354.5,-480 354.5,-450 483.5,-450 483.5,-480"/>
<text text-anchor="start" x="362.5" y="-468" font-family="Times,serif" font-size="10.00">ttg_parsec::WorldImpl</text>
<text text-anchor="middle" x="419" y="-457" font-family="Times,serif" font-size="10.00">::execution_stream</text>
</a>
</g>
</g>
<!-- Node2&#45;&gt;Node4 -->
<g id="edge3_Node000002_Node000004" class="edge">
<title>Node2&#45;&gt;Node4</title>
<g id="a_edge3_Node000002_Node000004"><a xlink:title=" ">
<path fill="none" stroke="#63b8ff" d="M264.18,-415.1C283.27,-423.35 307.72,-433.4 330,-441 336.24,-443.13 342.79,-445.2 349.36,-447.18"/>
<polygon fill="#63b8ff" stroke="#63b8ff" points="348.41,-450.55 359,-450 350.38,-443.83 348.41,-450.55"/>
</a>
</g>
</g>
<!-- Node5 -->
<g id="Node000005" class="node">
<title>Node5</title>
<g id="a_Node000005"><a xlink:href="ttg_2parsec_2ttg_8h.html#a1c710959a10d207205de788ae298f081" target="_top" xlink:title=" ">
<polygon fill="white" stroke="#666666" points="508,-431.5 330,-431.5 330,-412.5 508,-412.5 508,-431.5"/>
<text text-anchor="middle" x="419" y="-419.5" font-family="Times,serif" font-size="10.00">parsec_add_fetch_runtime_task</text>
</a>
</g>
</g>
<!-- Node2&#45;&gt;Node5 -->
<g id="edge4_Node000002_Node000005" class="edge">
<title>Node2&#45;&gt;Node5</title>
<g id="a_edge4_Node000002_Node000005"><a xlink:title=" ">
<path fill="none" stroke="#63b8ff" d="M294.24,-407.48C304.73,-408.71 315.77,-410.01 326.77,-411.3"/>
<polygon fill="#63b8ff" stroke="#63b8ff" points="326.5,-414.79 336.84,-412.48 327.32,-407.84 326.5,-414.79"/>
</a>
</g>
</g>
<!-- Node6 -->
<g id="Node000006" class="node">
<title>Node6</title>
<g id="a_Node000006"><a xlink:href="ttg_2parsec_2ttg_8h.html#a545323e30c662cc79a6781fc00bbaaa6" target="_top" xlink:title=" ">
<polygon fill="white" stroke="#666666" points="500.5,-394 337.5,-394 337.5,-364 500.5,-364 500.5,-394"/>
<text text-anchor="start" x="345.5" y="-382" font-family="Times,serif" font-size="10.00">parsec_taskpool_termination</text>
<text text-anchor="middle" x="419" y="-371" font-family="Times,serif" font-size="10.00">_detected</text>
</a>
</g>
</g>
<!-- Node2&#45;&gt;Node6 -->
<g id="edge5_Node000002_Node000006" class="edge">
<title>Node2&#45;&gt;Node6</title>
<g id="a_edge5_Node000002_Node000006"><a xlink:title=" ">
<path fill="none" stroke="#63b8ff" d="M294.24,-392.86C304.81,-391.68 315.94,-390.43 327.03,-389.19"/>
<polygon fill="#63b8ff" stroke="#63b8ff" points="327.62,-392.64 337.17,-388.05 326.85,-385.69 327.62,-392.64"/>
</a>
</g>
</g>
<!-- Node7 -->
<g id="Node000007" class="node">
<title>Node7</title>
<g id="a_Node000007"><a xlink:href="classttg_1_1base_1_1_world_impl_base.html#afd134bac63c8ce9e2c570570a1b8a0a2" target="_top" xlink:title=" ">
<polygon fill="white" stroke="#666666" points="491.5,-346 346.5,-346 346.5,-316 491.5,-316 491.5,-346"/>
<text text-anchor="start" x="354.5" y="-334" font-family="Times,serif" font-size="10.00">ttg::base::WorldImplBase</text>
<text text-anchor="middle" x="419" y="-323" font-family="Times,serif" font-size="10.00">::size</text>
</a>
</g>
</g>
<!-- Node2&#45;&gt;Node7 -->
<g id="edge6_Node000002_Node000007" class="edge">
<title>Node2&#45;&gt;Node7</title>
<g id="a_edge6_Node000002_Node000007"><a xlink:title=" ">
<path fill="none" stroke="#63b8ff" d="M260.47,-384.94C279.96,-375.53 306.1,-363.6 330,-355 335.87,-352.89 342.01,-350.86 348.21,-348.94"/>
<polygon fill="#63b8ff" stroke="#63b8ff" points="349.39,-352.24 357.96,-346 347.37,-345.53 349.39,-352.24"/>
</a>
</g>
</g>
<!-- Node9 -->
<g id="Node000009" class="node">
<title>Node9</title>
<g id="a_Node000009"><a xlink:href="namespacettg.html#aa3510e128b769afb53720d24fa83fb97" target="_top" xlink:title="atomically prints to std::cout a sequence of items (separated by ttg::print_separator) followed by st...">
<polygon fill="white" stroke="#666666" points="450,-297.5 388,-297.5 388,-278.5 450,-278.5 450,-297.5"/>
<text text-anchor="middle" x="419" y="-285.5" font-family="Times,serif" font-size="10.00">ttg::print</text>
</a>
</g>
</g>
<!-- Node8&#45;&gt;Node9 -->
<g id="edge8_Node000008_Node000009" class="edge">
<title>Node8&#45;&gt;Node9</title>
<g id="a_edge8_Node000008_Node000009"><a xlink:title=" ">
<path fill="none" stroke="#63b8ff" d="M291.75,-260.02C304.39,-263.05 317.61,-266.17 330,-269 345.6,-272.56 362.79,-276.32 377.82,-279.54"/>
<polygon fill="#63b8ff" stroke="#63b8ff" points="377.31,-283.01 387.82,-281.67 378.77,-276.16 377.31,-283.01"/>
</a>
</g>
</g>
<!-- Node8&#45;&gt;Node11 -->
<g id="edge10_Node000008_Node000011" class="edge">
<title>Node8&#45;&gt;Node11</title>
<g id="a_edge10_Node000008_Node000011"><a xlink:title=" ">
<path fill="none" stroke="#63b8ff" d="M289.31,-229.94C308.42,-225.05 329.79,-219.58 349.54,-214.52"/>
<polygon fill="#63b8ff" stroke="#63b8ff" points="350.58,-217.87 359.4,-212 348.84,-211.09 350.58,-217.87"/>
</a>
</g>
</g>
<!-- Node12 -->
<g id="Node000012" class="node">
<title>Node12</title>
<g id="a_Node000012"><a xlink:href="classttg_1_1base_1_1_world_impl_base.html#a950c5b477177504efe894584a00e6056" target="_top" xlink:title=" ">
<polygon fill="white" stroke="#666666" points="491.5,-260 346.5,-260 346.5,-230 491.5,-230 491.5,-260"/>
<text text-anchor="start" x="354.5" y="-248" font-family="Times,serif" font-size="10.00">ttg::base::WorldImplBase</text>
<text text-anchor="middle" x="419" y="-237" font-family="Times,serif" font-size="10.00">::rank</text>
</a>
</g>
</g>
<!-- Node8&#45;&gt;Node12 -->
<g id="edge11_Node000008_Node000012" class="edge">
<title>Node8&#45;&gt;Node12</title>
<g id="a_edge11_Node000008_Node000012"><a xlink:title=" ">
<path fill="none" stroke="#63b8ff" d="M294.24,-245C307.74,-245 322.16,-245 336.22,-245"/>
<polygon fill="#63b8ff" stroke="#63b8ff" points="336.38,-248.5 346.38,-245 336.38,-241.5 336.38,-248.5"/>
</a>
</g>
</g>
<!-- Node10 -->
<g id="Node000010" class="node">
<title>Node10</title>
<g id="a_Node000010"><a xlink:href="namespacettg_1_1detail.html#a26e07486d5ef8eb5735a8975991a7693" target="_top" xlink:title=" ">
<polygon fill="white" stroke="#666666" points="640,-303 544,-303 544,-273 640,-273 640,-303"/>
<text text-anchor="start" x="552" y="-291" font-family="Times,serif" font-size="10.00">ttg::detail::print</text>
<text text-anchor="middle" x="592" y="-280" font-family="Times,serif" font-size="10.00">_helper</text>
</a>
</g>
</g>
<!-- Node9&#45;&gt;Node10 -->
<g id="edge9_Node000009_Node000010" class="edge">
<title>Node9&#45;&gt;Node10</title>
<g id="a_edge9_Node000009_Node000010"><a xlink:title=" ">
<path fill="none" stroke="#63b8ff" d="M450.18,-288C473.23,-288 505.7,-288 533.64,-288"/>
<polygon fill="#63b8ff" stroke="#63b8ff" points="533.71,-291.5 543.71,-288 533.71,-284.5 533.71,-291.5"/>
</a>
</g>
</g>
</g>
</svg>
