<?xml version="1.0" encoding="UTF-8" standalone="no"?>
<!DOCTYPE svg PUBLIC "-//W3C//DTD SVG 1.1//EN"
 "http://www.w3.org/Graphics/SVG/1.1/DTD/svg11.dtd">
<!-- Generated by graphviz version 2.43.0 (0)
 -->
<!-- Title: ttg_parsec::WorldImpl::destroy Pages: 1 -->
<svg width="572pt" height="371pt"
 viewBox="0.00 0.00 572.00 371.00" xmlns="http://www.w3.org/2000/svg" xmlns:xlink="http://www.w3.org/1999/xlink">
<g id="graph0" class="graph" transform="scale(1 1) rotate(0) translate(4 367)">
<title>ttg_parsec::WorldImpl::destroy</title>
<!-- Node1 -->
<g id="Node000001" class="node">
<title>Node1</title>
<g id="a_Node000001"><a xlink:title=" ">
<polygon fill="#999999" stroke="#666666" points="129,-219 0,-219 0,-189 129,-189 129,-219"/>
<text text-anchor="start" x="8" y="-207" font-family="Times,serif" font-size="10.00">ttg_parsec::WorldImpl</text>
<text text-anchor="middle" x="64.5" y="-196" font-family="Times,serif" font-size="10.00">::destroy</text>
</a>
</g>
</g>
<!-- Node2 -->
<g id="Node000002" class="node">
<title>Node2</title>
<g id="a_Node000002"><a xlink:href="namespacettg_1_1detail.html#a0737a159633e6fbe20a71c7297ba3645" target="_top" xlink:title=" ">
<polygon fill="white" stroke="#666666" points="299.5,-363 175.5,-363 175.5,-333 299.5,-333 299.5,-363"/>
<text text-anchor="start" x="183.5" y="-351" font-family="Times,serif" font-size="10.00">ttg::detail::deregister</text>
<text text-anchor="middle" x="237.5" y="-340" font-family="Times,serif" font-size="10.00">_world</text>
</a>
</g>
</g>
<!-- Node1&#45;&gt;Node2 -->
<g id="edge1_Node000001_Node000002" class="edge">
<title>Node1&#45;&gt;Node2</title>
<g id="a_edge1_Node000001_Node000002"><a xlink:title=" ">
<path fill="none" stroke="#63b8ff" d="M74.19,-219.21C89.41,-244.54 123.26,-295.37 165,-324 167.25,-325.54 169.61,-327 172.04,-328.36"/>
<polygon fill="#63b8ff" stroke="#63b8ff" points="170.62,-331.56 181.12,-332.92 173.76,-325.31 170.62,-331.56"/>
</a>
</g>
</g>
<!-- Node3 -->
<g id="Node000003" class="node">
<title>Node3</title>
<g id="a_Node000003"><a xlink:href="classttg__parsec_1_1_world_impl.html#a30ad1ec1811c1dd7538448add28af497" target="_top" xlink:title=" ">
<polygon fill="white" stroke="#666666" points="302,-315 173,-315 173,-285 302,-285 302,-315"/>
<text text-anchor="start" x="181" y="-303" font-family="Times,serif" font-size="10.00">ttg_parsec::WorldImpl</text>
<text text-anchor="middle" x="237.5" y="-292" font-family="Times,serif" font-size="10.00">::destroy_tpool</text>
</a>
</g>
</g>
<!-- Node1&#45;&gt;Node3 -->
<g id="edge2_Node000001_Node000003" class="edge">
<title>Node1&#45;&gt;Node3</title>
<g id="a_edge2_Node000001_Node000003"><a xlink:title=" ">
<path fill="none" stroke="#63b8ff" d="M82.77,-219.02C101.82,-234.95 133.9,-260 165,-276 168.5,-277.8 172.17,-279.51 175.91,-281.13"/>
<polygon fill="#63b8ff" stroke="#63b8ff" points="174.74,-284.43 185.33,-284.94 177.37,-277.94 174.74,-284.43"/>
</a>
</g>
</g>
<!-- Node4 -->
<g id="Node000004" class="node">
<title>Node4</title>
<g id="a_Node000004"><a xlink:href="classttg_1_1base_1_1_world_impl_base.html#ae8af1cf2a5cccc4d5066492a5d041630" target="_top" xlink:title=" ">
<polygon fill="white" stroke="#666666" points="310,-267 165,-267 165,-237 310,-237 310,-267"/>
<text text-anchor="start" x="173" y="-255" font-family="Times,serif" font-size="10.00">ttg::base::WorldImplBase</text>
<text text-anchor="middle" x="237.5" y="-244" font-family="Times,serif" font-size="10.00">::is_valid</text>
</a>
</g>
</g>
<!-- Node1&#45;&gt;Node4 -->
<g id="edge3_Node000001_Node000004" class="edge">
<title>Node1&#45;&gt;Node4</title>
<g id="a_edge3_Node000001_Node000004"><a xlink:title=" ">
<path fill="none" stroke="#63b8ff" d="M119.14,-219.06C136.33,-223.88 155.52,-229.27 173.33,-234.27"/>
<polygon fill="#63b8ff" stroke="#63b8ff" points="172.48,-237.66 183.05,-237 174.37,-230.93 172.48,-237.66"/>
</a>
</g>
</g>
<!-- Node5 -->
<g id="Node000005" class="node">
<title>Node5</title>
<g id="a_Node000005"><a xlink:href="classttg_1_1base_1_1_world_impl_base.html#ad1471b7fb4deb6279b873a58b2d3af5d" target="_top" xlink:title=" ">
<polygon fill="white" stroke="#666666" points="310,-219 165,-219 165,-189 310,-189 310,-219"/>
<text text-anchor="start" x="173" y="-207" font-family="Times,serif" font-size="10.00">ttg::base::WorldImplBase</text>
<text text-anchor="middle" x="237.5" y="-196" font-family="Times,serif" font-size="10.00">::mark_invalid</text>
</a>
</g>
</g>
<!-- Node1&#45;&gt;Node5 -->
<g id="edge4_Node000001_Node000005" class="edge">
<title>Node1&#45;&gt;Node5</title>
<g id="a_edge4_Node000001_Node000005"><a xlink:title=" ">
<path fill="none" stroke="#63b8ff" d="M129.17,-204C137.5,-204 146.12,-204 154.7,-204"/>
<polygon fill="#63b8ff" stroke="#63b8ff" points="154.72,-207.5 164.72,-204 154.72,-200.5 154.72,-207.5"/>
</a>
</g>
</g>
<!-- Node6 -->
<g id="Node000006" class="node">
<title>Node6</title>
<g id="a_Node000006"><a xlink:href="classttg_1_1base_1_1_world_impl_base.html#a950c5b477177504efe894584a00e6056" target="_top" xlink:title=" ">
<polygon fill="white" stroke="#666666" points="310,-171 165,-171 165,-141 310,-141 310,-171"/>
<text text-anchor="start" x="173" y="-159" font-family="Times,serif" font-size="10.00">ttg::base::WorldImplBase</text>
<text text-anchor="middle" x="237.5" y="-148" font-family="Times,serif" font-size="10.00">::rank</text>
</a>
</g>
</g>
<!-- Node1&#45;&gt;Node6 -->
<g id="edge5_Node000001_Node000006" class="edge">
<title>Node1&#45;&gt;Node6</title>
<g id="a_edge5_Node000001_Node000006"><a xlink:title=" ">
<path fill="none" stroke="#63b8ff" d="M119.14,-188.94C136.33,-184.12 155.52,-178.73 173.33,-173.73"/>
<polygon fill="#63b8ff" stroke="#63b8ff" points="174.37,-177.07 183.05,-171 172.48,-170.34 174.37,-177.07"/>
</a>
</g>
</g>
<!-- Node7 -->
<g id="Node000007" class="node">
<title>Node7</title>
<g id="a_Node000007"><a xlink:href="classttg_1_1base_1_1_world_impl_base.html#a4cf5efcd1c577c54c6634708a141230b" target="_top" xlink:title=" ">
<polygon fill="white" stroke="#666666" points="310,-123 165,-123 165,-93 310,-93 310,-123"/>
<text text-anchor="start" x="173" y="-111" font-family="Times,serif" font-size="10.00">ttg::base::WorldImplBase</text>
<text text-anchor="middle" x="237.5" y="-100" font-family="Times,serif" font-size="10.00">::release_ops</text>
</a>
</g>
</g>
<!-- Node1&#45;&gt;Node7 -->
<g id="edge6_Node000001_Node000007" class="edge">
<title>Node1&#45;&gt;Node7</title>
<g id="a_edge6_Node000001_Node000007"><a xlink:title=" ">
<path fill="none" stroke="#63b8ff" d="M82.77,-188.98C101.82,-173.05 133.9,-148 165,-132 168.5,-130.2 172.17,-128.49 175.91,-126.87"/>
<polygon fill="#63b8ff" stroke="#63b8ff" points="177.37,-130.06 185.33,-123.06 174.74,-123.57 177.37,-130.06"/>
</a>
</g>
</g>
<!-- Node8 -->
<g id="Node000008" class="node">
<title>Node8</title>
<g id="a_Node000008"><a xlink:href="namespacettg.html#af5e470229c1ddef41b83b6398a5dc583" target="_top" xlink:title=" ">
<polygon fill="white" stroke="#666666" points="268.5,-74.5 206.5,-74.5 206.5,-55.5 268.5,-55.5 268.5,-74.5"/>
<text text-anchor="middle" x="237.5" y="-62.5" font-family="Times,serif" font-size="10.00">ttg::trace</text>
</a>
</g>
</g>
<!-- Node1&#45;&gt;Node8 -->
<g id="edge7_Node000001_Node000008" class="edge">
<title>Node1&#45;&gt;Node8</title>
<g id="a_edge7_Node000001_Node000008"><a xlink:title=" ">
<path fill="none" stroke="#63b8ff" d="M73.76,-188.9C88.57,-163.28 122.14,-111.42 165,-84 174.35,-78.02 185.53,-73.91 196.24,-71.09"/>
<polygon fill="#63b8ff" stroke="#63b8ff" points="197.34,-74.43 206.29,-68.77 195.76,-67.61 197.34,-74.43"/>
</a>
</g>
</g>
<!-- Node9 -->
<g id="Node000009" class="node">
<title>Node9</title>
<g id="a_Node000009"><a xlink:href="namespacettg.html#aacacfe8bc9582308a405c4370650a9d4" target="_top" xlink:title="atomically prints to std::clog a sequence of items (separated by ttg::print_separator) followed by st...">
<polygon fill="white" stroke="#666666" points="409,-131.5 356,-131.5 356,-112.5 409,-112.5 409,-131.5"/>
<text text-anchor="middle" x="382.5" y="-119.5" font-family="Times,serif" font-size="10.00">ttg::log</text>
</a>
</g>
</g>
<!-- Node8&#45;&gt;Node9 -->
<g id="edge8_Node000008_Node000009" class="edge">
<title>Node8&#45;&gt;Node9</title>
<g id="a_edge8_Node000008_Node000009"><a xlink:title=" ">
<path fill="none" stroke="#63b8ff" d="M268.56,-71.37C281.52,-74.53 296.73,-78.79 310,-84 326.37,-90.43 343.82,-99.65 357.38,-107.4"/>
<polygon fill="#63b8ff" stroke="#63b8ff" points="355.69,-110.46 366.09,-112.48 359.21,-104.42 355.69,-110.46"/>
</a>
</g>
</g>
<!-- Node11 -->
<g id="Node000011" class="node">
<title>Node11</title>
<g id="a_Node000011"><a xlink:href="namespacettg.html#afbdd9c742be395e0746fdbc26c7d55cc" target="_top" xlink:title="returns whether tracing was enabled at configure time">
<polygon fill="white" stroke="#666666" points="564,-81.5 455,-81.5 455,-62.5 564,-62.5 564,-81.5"/>
<text text-anchor="middle" x="509.5" y="-69.5" font-family="Times,serif" font-size="10.00">ttg::trace_enabled</text>
</a>
</g>
</g>
<!-- Node8&#45;&gt;Node11 -->
<g id="edge10_Node000008_Node000011" class="edge">
<title>Node8&#45;&gt;Node11</title>
<g id="a_edge10_Node000008_Node000011"><a xlink:title=" ">
<path fill="none" stroke="#63b8ff" d="M268.69,-65.78C311.05,-66.88 389.16,-68.91 444.72,-70.35"/>
<polygon fill="#63b8ff" stroke="#63b8ff" points="444.73,-73.85 454.82,-70.61 444.92,-66.85 444.73,-73.85"/>
</a>
</g>
</g>
<!-- Node12 -->
<g id="Node000012" class="node">
<title>Node12</title>
<g id="a_Node000012"><a xlink:href="namespacettg.html#abfb8501d408a1ed918cc2a540865a2d8" target="_top" xlink:title="returns whether tracing is enabled">
<polygon fill="white" stroke="#666666" points="419,-55.5 346,-55.5 346,-36.5 419,-36.5 419,-55.5"/>
<text text-anchor="middle" x="382.5" y="-43.5" font-family="Times,serif" font-size="10.00">ttg::tracing</text>
</a>
</g>
</g>
<!-- Node8&#45;&gt;Node12 -->
<g id="edge11_Node000008_Node000012" class="edge">
<title>Node8&#45;&gt;Node12</title>
<g id="a_edge11_Node000008_Node000012"><a xlink:title=" ">
<path fill="none" stroke="#63b8ff" d="M268.83,-60.97C288.29,-58.38 313.93,-54.98 335.83,-52.07"/>
<polygon fill="#63b8ff" stroke="#63b8ff" points="336.46,-55.51 345.92,-50.73 335.54,-48.58 336.46,-55.51"/>
</a>
</g>
</g>
<!-- Node10 -->
<g id="Node000010" class="node">
<title>Node10</title>
<g id="a_Node000010"><a xlink:href="namespacettg_1_1detail.html#a26e07486d5ef8eb5735a8975991a7693" target="_top" xlink:title=" ">
<polygon fill="white" stroke="#666666" points="557.5,-137 461.5,-137 461.5,-107 557.5,-107 557.5,-137"/>
<text text-anchor="start" x="469.5" y="-125" font-family="Times,serif" font-size="10.00">ttg::detail::print</text>
<text text-anchor="middle" x="509.5" y="-114" font-family="Times,serif" font-size="10.00">_helper</text>
</a>
</g>
</g>
<!-- Node9&#45;&gt;Node10 -->
<g id="edge9_Node000009_Node000010" class="edge">
<title>Node9&#45;&gt;Node10</title>
<g id="a_edge9_Node000009_Node000010"><a xlink:title=" ">
<path fill="none" stroke="#63b8ff" d="M409.1,-122C421.34,-122 436.53,-122 451.32,-122"/>
<polygon fill="#63b8ff" stroke="#63b8ff" points="451.46,-125.5 461.46,-122 451.46,-118.5 451.46,-125.5"/>
</a>
</g>
</g>
<!-- Node12&#45;&gt;Node11 -->
<g id="edge14_Node000012_Node000011" class="edge">
<title>Node12&#45;&gt;Node11</title>
<g id="a_edge14_Node000012_Node000011"><a xlink:title=" ">
<path fill="none" stroke="#63b8ff" d="M419.32,-53.45C429.7,-55.61 441.29,-58.02 452.58,-60.37"/>
<polygon fill="#63b8ff" stroke="#63b8ff" points="451.89,-63.8 462.4,-62.41 453.32,-56.95 451.89,-63.8"/>
</a>
</g>
</g>
<!-- Node13 -->
<g id="Node000013" class="node">
<title>Node13</title>
<g id="a_Node000013"><a xlink:href="namespacettg_1_1detail.html#a95356c3874e7ec9268a40feb4fc1519f" target="_top" xlink:title=" ">
<polygon fill="white" stroke="#666666" points="558,-30 461,-30 461,0 558,0 558,-30"/>
<text text-anchor="start" x="469" y="-18" font-family="Times,serif" font-size="10.00">ttg::detail::trace</text>
<text text-anchor="middle" x="509.5" y="-7" font-family="Times,serif" font-size="10.00">_accessor</text>
</a>
</g>
</g>
<!-- Node12&#45;&gt;Node13 -->
<g id="edge12_Node000012_Node000013" class="edge">
<title>Node12&#45;&gt;Node13</title>
<g id="a_edge12_Node000012_Node000013"><a xlink:title=" ">
<path fill="none" stroke="#63b8ff" d="M419.32,-37.12C429.15,-34.68 440.07,-31.97 450.79,-29.31"/>
<polygon fill="#63b8ff" stroke="#63b8ff" points="451.69,-32.69 460.56,-26.89 450.01,-25.9 451.69,-32.69"/>
</a>
</g>
</g>
<!-- Node13&#45;&gt;Node8 -->
<g id="edge13_Node000013_Node000008" class="edge">
<title>Node13&#45;&gt;Node8</title>
<g id="a_edge13_Node000013_Node000008"><a xlink:title=" ">
<path fill="none" stroke="#63b8ff" d="M460.75,-15.2C428.12,-16.15 384.07,-19.02 346,-27 319.58,-32.54 290.79,-42.97 269.66,-51.5"/>
<polygon fill="#63b8ff" stroke="#63b8ff" points="268.15,-48.33 260.24,-55.38 270.82,-54.81 268.15,-48.33"/>
</a>
</g>
</g>
</g>
</svg>
