<?xml version="1.0" encoding="UTF-8" standalone="no"?>
<!DOCTYPE svg PUBLIC "-//W3C//DTD SVG 1.1//EN"
 "http://www.w3.org/Graphics/SVG/1.1/DTD/svg11.dtd">
<!-- Generated by graphviz version 2.43.0 (0)
 -->
<!-- Title: TCB_SPAN_NAMESPACE_NAME::span::front Pages: 1 -->
<svg width="524pt" height="86pt"
 viewBox="0.00 0.00 524.00 86.00" xmlns="http://www.w3.org/2000/svg" xmlns:xlink="http://www.w3.org/1999/xlink">
<g id="graph0" class="graph" transform="scale(1 1) rotate(0) translate(4 82)">
<title>TCB_SPAN_NAMESPACE_NAME::span::front</title>
<!-- Node1 -->
<g id="Node000001" class="node">
<title>Node1</title>
<g id="a_Node000001"><a xlink:title=" ">
<polygon fill="#999999" stroke="#666666" points="148,-54 0,-54 0,-24 148,-24 148,-54"/>
<text text-anchor="start" x="8" y="-42" font-family="Times,serif" font-size="10.00">TCB_SPAN_NAMESPACE</text>
<text text-anchor="middle" x="74" y="-31" font-family="Times,serif" font-size="10.00">_NAME::span::front</text>
</a>
</g>
</g>
<!-- Node2 -->
<g id="Node000002" class="node">
<title>Node2</title>
<g id="a_Node000002"><a xlink:href="class_t_c_b___s_p_a_n___n_a_m_e_s_p_a_c_e___n_a_m_e_1_1span.html#abd99c234b244ec0fc785035ac9053f45" target="_top" xlink:title=" ">
<polygon fill="white" stroke="#666666" points="332,-78 184,-78 184,-48 332,-48 332,-78"/>
<text text-anchor="start" x="192" y="-66" font-family="Times,serif" font-size="10.00">TCB_SPAN_NAMESPACE</text>
<text text-anchor="middle" x="258" y="-55" font-family="Times,serif" font-size="10.00">_NAME::span::data</text>
</a>
</g>
</g>
<!-- Node1&#45;&gt;Node2 -->
<g id="edge1_Node000001_Node000002" class="edge">
<title>Node1&#45;&gt;Node2</title>
<g id="a_edge1_Node000001_Node000002"><a xlink:title=" ">
<path fill="none" stroke="#63b8ff" d="M148.24,-48.66C156.69,-49.77 165.35,-50.91 173.92,-52.04"/>
<polygon fill="#63b8ff" stroke="#63b8ff" points="173.54,-55.52 183.91,-53.36 174.45,-48.58 173.54,-55.52"/>
</a>
</g>
</g>
<!-- Node3 -->
<g id="Node000003" class="node">
<title>Node3</title>
<g id="a_Node000003"><a xlink:href="class_t_c_b___s_p_a_n___n_a_m_e_s_p_a_c_e___n_a_m_e_1_1span.html#af91e788dc5024e5128c5fc777586f448" target="_top" xlink:title=" ">
<polygon fill="white" stroke="#666666" points="332,-30 184,-30 184,0 332,0 332,-30"/>
<text text-anchor="start" x="192" y="-18" font-family="Times,serif" font-size="10.00">TCB_SPAN_NAMESPACE</text>
<text text-anchor="middle" x="258" y="-7" font-family="Times,serif" font-size="10.00">_NAME::span::empty</text>
</a>
</g>
</g>
<!-- Node1&#45;&gt;Node3 -->
<g id="edge2_Node000001_Node000003" class="edge">
<title>Node1&#45;&gt;Node3</title>
<g id="a_edge2_Node000001_Node000003"><a xlink:title=" ">
<path fill="none" stroke="#63b8ff" d="M148.24,-29.34C156.69,-28.23 165.35,-27.09 173.92,-25.96"/>
<polygon fill="#63b8ff" stroke="#63b8ff" points="174.45,-29.42 183.91,-24.64 173.54,-22.48 174.45,-29.42"/>
</a>
</g>
</g>
<!-- Node4 -->
<g id="Node000004" class="node">
<title>Node4</title>
<g id="a_Node000004"><a xlink:href="class_t_c_b___s_p_a_n___n_a_m_e_s_p_a_c_e___n_a_m_e_1_1span.html#a971d93a9b8c610c0aa3eba556976dcea" target="_top" xlink:title=" ">
<polygon fill="white" stroke="#666666" points="516,-30 368,-30 368,0 516,0 516,-30"/>
<text text-anchor="start" x="376" y="-18" font-family="Times,serif" font-size="10.00">TCB_SPAN_NAMESPACE</text>
<text text-anchor="middle" x="442" y="-7" font-family="Times,serif" font-size="10.00">_NAME::span::size</text>
</a>
</g>
</g>
<!-- Node3&#45;&gt;Node4 -->
<g id="edge3_Node000003_Node000004" class="edge">
<title>Node3&#45;&gt;Node4</title>
<g id="a_edge3_Node000003_Node000004"><a xlink:title=" ">
<path fill="none" stroke="#63b8ff" d="M332.24,-15C340.6,-15 349.16,-15 357.64,-15"/>
<polygon fill="#63b8ff" stroke="#63b8ff" points="357.91,-18.5 367.91,-15 357.91,-11.5 357.91,-18.5"/>
</a>
</g>
</g>
</g>
</svg>
