<?xml version="1.0" encoding="UTF-8" standalone="no"?>
<!DOCTYPE svg PUBLIC "-//W3C//DTD SVG 1.1//EN"
 "http://www.w3.org/Graphics/SVG/1.1/DTD/svg11.dtd">
<!-- Generated by graphviz version 2.43.0 (0)
 -->
<!-- Title: ttg::Out::connect Pages: 1 -->
<svg width="335pt" height="101pt"
 viewBox="0.00 0.00 335.00 101.00" xmlns="http://www.w3.org/2000/svg" xmlns:xlink="http://www.w3.org/1999/xlink">

<svg id="main" version="1.1" xmlns="http://www.w3.org/2000/svg" xmlns:xlink="http://www.w3.org/1999/xlink" xml:space="preserve" onload="init(evt)">
<style type="text/css"><![CDATA[
.node, .edge {opacity: 0.7;}
.node.selected, .edge.selected {opacity: 1;}
.edge:hover path { stroke: red; }
.edge:hover polygon { stroke: red; fill: red; }
]]></style>
<script type="application/ecmascript" xlink:href="svg.min.js"/>
<svg id="graph" class="graph">
<g id="graph0" class="graph" transform="scale(1 1) rotate(0) translate(4 97)">
<title>ttg::Out::connect</title>
<!-- Node1 -->
<g id="Node000001" class="node">
<title>Node1</title>
<g id="a_Node000001"><a xlink:title=" ">
<polygon fill="#999999" stroke="#666666" points="327,-56 226,-56 226,-37 327,-37 327,-56"/>
<text text-anchor="middle" x="276.5" y="-44" font-family="Times,serif" font-size="10.00">ttg::Out::connect</text>
</a>
</g>
</g>
<!-- Node2 -->
<g id="Node000002" class="node">
<title>Node2</title>
<g id="a_Node000002"><a xlink:href="namespacettg.html#ac31d3ffe687039e52a8179b0ffca7153" target="_top" xlink:title="Connect output terminal to successor input terminal.">
<polygon fill="white" stroke="#666666" points="190,-56 113,-56 113,-37 190,-37 190,-56"/>
<text text-anchor="middle" x="151.5" y="-44" font-family="Times,serif" font-size="10.00">ttg::connect</text>
</a>
</g>
</g>
<!-- Node1&#45;&gt;Node2 -->
<g id="edge1_Node000001_Node000002" class="edge">
<title>Node1&#45;&gt;Node2</title>
<g id="a_edge1_Node000001_Node000002"><a xlink:title=" ">
<path fill="none" stroke="#63b8ff" d="M215.71,-46.5C207.04,-46.5 198.32,-46.5 190.25,-46.5"/>
<polygon fill="#63b8ff" stroke="#63b8ff" points="215.83,-50 225.83,-46.5 215.83,-43 215.83,-50"/>
</a>
</g>
</g>
<!-- Node3 -->
<g id="Node000003" class="node">
<title>Node3</title>
<g id="a_Node000003"><a xlink:href="namespacettg.html#a5f5c90f59ffa4fddb4a2aa1afe4d3db3" target="_top" xlink:title="Connect producer output terminal outindex to consumer input terminal inindex (via unique or otherwise...">
<polygon fill="white" stroke="#666666" points="77,-93 0,-93 0,-74 77,-74 77,-93"/>
<text text-anchor="middle" x="38.5" y="-81" font-family="Times,serif" font-size="10.00">ttg::connect</text>
</a>
</g>
</g>
<!-- Node2&#45;&gt;Node3 -->
<g id="edge2_Node000002_Node000003" class="edge">
<title>Node2&#45;&gt;Node3</title>
<g id="a_edge2_Node000002_Node000003"><a xlink:title=" ">
<path fill="none" stroke="#63b8ff" d="M112.28,-59.24C97.89,-64.04 81.77,-69.41 68.37,-73.88"/>
<polygon fill="#63b8ff" stroke="#63b8ff" points="113.53,-62.51 121.91,-56.03 111.32,-55.87 113.53,-62.51"/>
</a>
</g>
</g>
<!-- Node4 -->
<g id="Node000004" class="node">
<title>Node4</title>
<g id="a_Node000004"><a xlink:href="namespacettg.html#aa1ae512e6c225e04ab2f19977d4dd310" target="_top" xlink:title="Connect producer output terminal outindex to consumer input terminal inindex (via bare pointers to TT...">
<polygon fill="white" stroke="#666666" points="77,-56 0,-56 0,-37 77,-37 77,-56"/>
<text text-anchor="middle" x="38.5" y="-44" font-family="Times,serif" font-size="10.00">ttg::connect</text>
</a>
</g>
</g>
<!-- Node2&#45;&gt;Node4 -->
<g id="edge3_Node000002_Node000004" class="edge">
<title>Node2&#45;&gt;Node4</title>
<g id="a_edge3_Node000002_Node000004"><a xlink:title=" ">
<path fill="none" stroke="#63b8ff" d="M102.65,-46.5C94.08,-46.5 85.27,-46.5 77.04,-46.5"/>
<polygon fill="#63b8ff" stroke="#63b8ff" points="102.92,-50 112.92,-46.5 102.92,-43 102.92,-50"/>
</a>
</g>
</g>
<!-- Node5 -->
<g id="Node000005" class="node">
<title>Node5</title>
<g id="a_Node000005"><a xlink:href="namespacettg.html#addc70370fc2c1bc2a58db5592cc6ec44" target="_top" xlink:title="Connect producer output terminal outindex to consumer input terminal inindex (via TTBase pointers)">
<polygon fill="white" stroke="#666666" points="77,-19 0,-19 0,0 77,0 77,-19"/>
<text text-anchor="middle" x="38.5" y="-7" font-family="Times,serif" font-size="10.00">ttg::connect</text>
</a>
</g>
</g>
<!-- Node2&#45;&gt;Node5 -->
<g id="edge4_Node000002_Node000005" class="edge">
<title>Node2&#45;&gt;Node5</title>
<g id="a_edge4_Node000002_Node000005"><a xlink:title=" ">
<path fill="none" stroke="#63b8ff" d="M112.28,-33.76C97.89,-28.96 81.77,-23.59 68.37,-19.12"/>
<polygon fill="#63b8ff" stroke="#63b8ff" points="111.32,-37.13 121.91,-36.97 113.53,-30.49 111.32,-37.13"/>
</a>
</g>
</g>
</g>
</svg>
</svg>

<style type='text/css'>
<![CDATA[
[data-mouse-over-selected='false'] { opacity: 0.7; }
[data-mouse-over-selected='true']  { opacity: 1.0; }
]]>
</style>
<script type="application/ecmascript"><![CDATA[
document.addEventListener('DOMContentLoaded', (event) => {
  highlightEdges();
  highlightAdjacentNodes();
});
]]></script>
</svg>
