<?xml version="1.0" encoding="UTF-8" standalone="no"?>
<!DOCTYPE svg PUBLIC "-//W3C//DTD SVG 1.1//EN"
 "http://www.w3.org/Graphics/SVG/1.1/DTD/svg11.dtd">
<!-- Generated by graphviz version 2.43.0 (0)
 -->
<!-- Title: ttg_parsec::TT::release_constraint Pages: 1 -->
<svg width="924pt" height="203pt"
 viewBox="0.00 0.00 924.00 202.50" xmlns="http://www.w3.org/2000/svg" xmlns:xlink="http://www.w3.org/1999/xlink">
<g id="graph0" class="graph" transform="scale(1 1) rotate(0) translate(4 198.5)">
<title>ttg_parsec::TT::release_constraint</title>
<!-- Node1 -->
<g id="Node000001" class="node">
<title>Node1</title>
<g id="a_Node000001"><a xlink:title=" ">
<polygon fill="#999999" stroke="#666666" points="131,-188.5 0,-188.5 0,-158.5 131,-158.5 131,-188.5"/>
<text text-anchor="start" x="8" y="-176.5" font-family="Times,serif" font-size="10.00">ttg_parsec::TT::release</text>
<text text-anchor="middle" x="65.5" y="-165.5" font-family="Times,serif" font-size="10.00">_constraint</text>
</a>
</g>
</g>
<!-- Node2 -->
<g id="Node000002" class="node">
<title>Node2</title>
<g id="a_Node000002"><a xlink:href="classttg__parsec_1_1_t_t.html#aab59a1bf0fcc4f771457b5f05cb42741" target="_top" xlink:title=" ">
<polygon fill="white" stroke="#666666" points="906,-138 795,-138 795,-119 906,-119 906,-138"/>
<text text-anchor="middle" x="850.5" y="-126" font-family="Times,serif" font-size="10.00">ttg_parsec::TT::get</text>
</a>
</g>
</g>
<!-- Node1&#45;&gt;Node2 -->
<g id="edge1_Node000001_Node000002" class="edge">
<title>Node1&#45;&gt;Node2</title>
<g id="a_edge1_Node000001_Node000002"><a xlink:title=" ">
<path fill="none" stroke="#63b8ff" d="M131.08,-180.23C195.65,-186.37 297.84,-194.5 386.5,-194.5 386.5,-194.5 386.5,-194.5 540.5,-194.5 641.15,-194.5 756.26,-160.6 813.39,-141.39"/>
<polygon fill="#63b8ff" stroke="#63b8ff" points="814.71,-144.64 823.04,-138.1 812.45,-138.01 814.71,-144.64"/>
</a>
</g>
</g>
<!-- Node3 -->
<g id="Node000003" class="node">
<title>Node3</title>
<g id="a_Node000003"><a xlink:href="classttg__parsec_1_1_t_t.html#a64de0f4a0e71bd0dab69161ce619794d" target="_top" xlink:title=" ">
<polygon fill="white" stroke="#666666" points="298,-164 167,-164 167,-145 298,-145 298,-164"/>
<text text-anchor="middle" x="232.5" y="-152" font-family="Times,serif" font-size="10.00">ttg_parsec::TT::release</text>
</a>
</g>
</g>
<!-- Node1&#45;&gt;Node3 -->
<g id="edge3_Node000001_Node000003" class="edge">
<title>Node1&#45;&gt;Node3</title>
<g id="a_edge3_Node000001_Node000003"><a xlink:title=" ">
<path fill="none" stroke="#63b8ff" d="M131.24,-166.05C139.67,-165.07 148.37,-164.07 156.95,-163.08"/>
<polygon fill="#63b8ff" stroke="#63b8ff" points="157.41,-166.55 166.95,-161.93 156.61,-159.6 157.41,-166.55"/>
</a>
</g>
</g>
<!-- Node2&#45;&gt;Node2 -->
<g id="edge2_Node000002_Node000002" class="edge">
<title>Node2&#45;&gt;Node2</title>
<g id="a_edge2_Node000002_Node000002"><a xlink:title=" ">
<path fill="none" stroke="#63b8ff" d="M826.46,-138.08C814.76,-146.73 822.77,-156 850.5,-156 868.7,-156 878.4,-152.01 879.62,-146.82"/>
<polygon fill="#63b8ff" stroke="#63b8ff" points="882.59,-144.97 874.54,-138.08 876.54,-148.49 882.59,-144.97"/>
</a>
</g>
</g>
<!-- Node4 -->
<g id="Node000004" class="node">
<title>Node4</title>
<g id="a_Node000004"><a xlink:href="classttg__parsec_1_1_t_t.html#a7f42b8147186ddf49a3c1f2a5d49255f" target="_top" xlink:title=" ">
<polygon fill="white" stroke="#666666" points="441,-149.5 334,-149.5 334,-119.5 441,-119.5 441,-149.5"/>
<text text-anchor="start" x="342" y="-137.5" font-family="Times,serif" font-size="10.00">ttg_parsec::TT::do</text>
<text text-anchor="middle" x="387.5" y="-126.5" font-family="Times,serif" font-size="10.00">_release</text>
</a>
</g>
</g>
<!-- Node3&#45;&gt;Node4 -->
<g id="edge4_Node000003_Node000004" class="edge">
<title>Node3&#45;&gt;Node4</title>
<g id="a_edge4_Node000003_Node000004"><a xlink:title=" ">
<path fill="none" stroke="#63b8ff" d="M298.39,-146.02C306.72,-144.93 315.25,-143.81 323.56,-142.73"/>
<polygon fill="#63b8ff" stroke="#63b8ff" points="324.09,-146.19 333.55,-141.42 323.18,-139.25 324.09,-146.19"/>
</a>
</g>
</g>
<!-- Node4&#45;&gt;Node2 -->
<g id="edge5_Node000004_Node000002" class="edge">
<title>Node4&#45;&gt;Node2</title>
<g id="a_edge5_Node000004_Node000002"><a xlink:title=" ">
<path fill="none" stroke="#63b8ff" d="M441.07,-136.68C511.29,-139.19 639.58,-142.39 749,-137.5 760.51,-136.99 772.73,-136.14 784.54,-135.17"/>
<polygon fill="#63b8ff" stroke="#63b8ff" points="785.13,-138.64 794.79,-134.29 784.53,-131.66 785.13,-138.64"/>
</a>
</g>
</g>
<!-- Node5 -->
<g id="Node000005" class="node">
<title>Node5</title>
<g id="a_Node000005"><a xlink:href="classttg_1_1base_1_1_world.html#aabab7c9df8f16919ab41a864c8b1adc4" target="_top" xlink:title=" ">
<polygon fill="white" stroke="#666666" points="602,-126 477,-126 477,-107 602,-107 602,-126"/>
<text text-anchor="middle" x="539.5" y="-114" font-family="Times,serif" font-size="10.00">ttg::base::World::impl</text>
</a>
</g>
</g>
<!-- Node4&#45;&gt;Node5 -->
<g id="edge6_Node000004_Node000005" class="edge">
<title>Node4&#45;&gt;Node5</title>
<g id="a_edge6_Node000004_Node000005"><a xlink:title=" ">
<path fill="none" stroke="#63b8ff" d="M441.38,-128.15C449.63,-127.16 458.27,-126.13 466.84,-125.1"/>
<polygon fill="#63b8ff" stroke="#63b8ff" points="467.35,-128.56 476.86,-123.9 466.51,-121.61 467.35,-128.56"/>
</a>
</g>
</g>
<!-- Node7 -->
<g id="Node000007" class="node">
<title>Node7</title>
<g id="a_Node000007"><a xlink:href="classttg__parsec_1_1_t_t.html#acec939399109ea862fb2e5d011aa9706" target="_top" xlink:title=" ">
<polygon fill="white" stroke="#666666" points="599,-85.5 480,-85.5 480,-55.5 599,-55.5 599,-85.5"/>
<text text-anchor="start" x="488" y="-73.5" font-family="Times,serif" font-size="10.00">ttg_parsec::TT::print</text>
<text text-anchor="middle" x="539.5" y="-62.5" font-family="Times,serif" font-size="10.00">_incomplete_tasks</text>
</a>
</g>
</g>
<!-- Node4&#45;&gt;Node7 -->
<g id="edge8_Node000004_Node000007" class="edge">
<title>Node4&#45;&gt;Node7</title>
<g id="a_edge8_Node000004_Node000007"><a xlink:title=" ">
<path fill="none" stroke="#63b8ff" d="M423.67,-119.49C444.66,-110.54 471.51,-99.08 493.97,-89.5"/>
<polygon fill="#63b8ff" stroke="#63b8ff" points="495.47,-92.67 503.29,-85.52 492.72,-86.23 495.47,-92.67"/>
</a>
</g>
</g>
<!-- Node6 -->
<g id="Node000006" class="node">
<title>Node6</title>
<g id="a_Node000006"><a xlink:href="classttg_1_1base_1_1_world.html#af39ca1832f455a94134515f94aaa8533" target="_top" xlink:title=" ">
<polygon fill="white" stroke="#666666" points="749,-128.5 638,-128.5 638,-98.5 749,-98.5 749,-128.5"/>
<text text-anchor="start" x="646" y="-116.5" font-family="Times,serif" font-size="10.00">ttg::base::World::is</text>
<text text-anchor="middle" x="693.5" y="-105.5" font-family="Times,serif" font-size="10.00">_valid</text>
</a>
</g>
</g>
<!-- Node5&#45;&gt;Node6 -->
<g id="edge7_Node000005_Node000006" class="edge">
<title>Node5&#45;&gt;Node6</title>
<g id="a_edge7_Node000005_Node000006"><a xlink:title=" ">
<path fill="none" stroke="#63b8ff" d="M602.32,-115.28C610.62,-115.12 619.15,-114.95 627.5,-114.78"/>
<polygon fill="#63b8ff" stroke="#63b8ff" points="627.64,-118.28 637.57,-114.58 627.5,-111.28 627.64,-118.28"/>
</a>
</g>
</g>
<!-- Node7&#45;&gt;Node2 -->
<g id="edge9_Node000007_Node000002" class="edge">
<title>Node7&#45;&gt;Node2</title>
<g id="a_edge9_Node000007_Node000002"><a xlink:title=" ">
<path fill="none" stroke="#63b8ff" d="M599.17,-71.49C641.33,-73.25 699.28,-77.83 749,-89.5 773.78,-95.32 800.6,-105.96 820.3,-114.66"/>
<polygon fill="#63b8ff" stroke="#63b8ff" points="819.07,-117.95 829.63,-118.87 821.95,-111.57 819.07,-117.95"/>
</a>
</g>
</g>
<!-- Node8 -->
<g id="Node000008" class="node">
<title>Node8</title>
<g id="a_Node000008"><a xlink:href="classttg__parsec_1_1_t_t.html#a68814131fd8aa487afce9a89a5ee7f2b" target="_top" xlink:title=" ">
<polygon fill="white" stroke="#666666" points="746,-42.5 641,-42.5 641,-12.5 746,-12.5 746,-42.5"/>
<text text-anchor="start" x="649" y="-30.5" font-family="Times,serif" font-size="10.00">ttg_parsec::TT::ht</text>
<text text-anchor="middle" x="693.5" y="-19.5" font-family="Times,serif" font-size="10.00">_iter_cb</text>
</a>
</g>
</g>
<!-- Node7&#45;&gt;Node8 -->
<g id="edge10_Node000007_Node000008" class="edge">
<title>Node7&#45;&gt;Node8</title>
<g id="a_edge10_Node000007_Node000008"><a xlink:title=" ">
<path fill="none" stroke="#63b8ff" d="M593.66,-55.46C605.75,-52.04 618.7,-48.38 631.1,-44.87"/>
<polygon fill="#63b8ff" stroke="#63b8ff" points="632.23,-48.19 640.9,-42.1 630.33,-41.45 632.23,-48.19"/>
</a>
</g>
</g>
<!-- Node8&#45;&gt;Node2 -->
<g id="edge11_Node000008_Node000002" class="edge">
<title>Node8&#45;&gt;Node2</title>
<g id="a_edge11_Node000008_Node000002"><a xlink:title=" ">
<path fill="none" stroke="#63b8ff" d="M724.62,-42.58C732.66,-46.87 741.27,-51.68 749,-56.5 765.75,-66.94 768.97,-70.99 785,-82.5 799.03,-92.57 814.81,-103.82 827.25,-112.68"/>
<polygon fill="#63b8ff" stroke="#63b8ff" points="825.47,-115.71 835.64,-118.65 829.52,-110 825.47,-115.71"/>
</a>
</g>
</g>
<!-- Node9 -->
<g id="Node000009" class="node">
<title>Node9</title>
<g id="a_Node000009"><a xlink:href="namespacettg_1_1meta.html#affd90f350d054c6a5b4859644d834172" target="_top" xlink:title=" ">
<polygon fill="white" stroke="#666666" points="893,-56 808,-56 808,-37 893,-37 893,-56"/>
<text text-anchor="middle" x="850.5" y="-44" font-family="Times,serif" font-size="10.00">ttg::meta::get</text>
</a>
</g>
</g>
<!-- Node8&#45;&gt;Node9 -->
<g id="edge12_Node000008_Node000009" class="edge">
<title>Node8&#45;&gt;Node9</title>
<g id="a_edge12_Node000008_Node000009"><a xlink:title=" ">
<path fill="none" stroke="#63b8ff" d="M746.11,-33.83C762.74,-35.86 781.16,-38.12 797.8,-40.16"/>
<polygon fill="#63b8ff" stroke="#63b8ff" points="797.54,-43.66 807.89,-41.4 798.39,-36.71 797.54,-43.66"/>
</a>
</g>
</g>
<!-- Node10 -->
<g id="Node000010" class="node">
<title>Node10</title>
<g id="a_Node000010"><a xlink:href="classttg_1_1_t_t_base.html#ade3b1e6b149fe1124f7192aeca5f715c" target="_top" xlink:title="Gets the name of this operation.">
<polygon fill="white" stroke="#666666" points="916,-19 785,-19 785,0 916,0 916,-19"/>
<text text-anchor="middle" x="850.5" y="-7" font-family="Times,serif" font-size="10.00">ttg::TTBase::get_name</text>
</a>
</g>
</g>
<!-- Node8&#45;&gt;Node10 -->
<g id="edge14_Node000008_Node000010" class="edge">
<title>Node8&#45;&gt;Node10</title>
<g id="a_edge14_Node000008_Node000010"><a xlink:title=" ">
<path fill="none" stroke="#63b8ff" d="M746.11,-21.51C755.33,-20.44 765.1,-19.3 774.81,-18.17"/>
<polygon fill="#63b8ff" stroke="#63b8ff" points="775.35,-21.63 784.88,-17 774.54,-14.68 775.35,-21.63"/>
</a>
</g>
</g>
<!-- Node9&#45;&gt;Node9 -->
<g id="edge13_Node000009_Node000009" class="edge">
<title>Node9&#45;&gt;Node9</title>
<g id="a_edge13_Node000009_Node000009"><a xlink:title=" ">
<path fill="none" stroke="#63b8ff" d="M826.46,-56.08C814.76,-64.73 822.77,-74 850.5,-74 868.7,-74 878.4,-70.01 879.62,-64.82"/>
<polygon fill="#63b8ff" stroke="#63b8ff" points="882.59,-62.97 874.54,-56.08 876.54,-66.49 882.59,-62.97"/>
</a>
</g>
</g>
</g>
</svg>
