<?xml version="1.0" encoding="UTF-8" standalone="no"?>
<!DOCTYPE svg PUBLIC "-//W3C//DTD SVG 1.1//EN"
 "http://www.w3.org/Graphics/SVG/1.1/DTD/svg11.dtd">
<!-- Generated by graphviz version 2.43.0 (0)
 -->
<!-- Title: ttg::Dot::build_ttg_hierarchy Pages: 1 -->
<svg width="242pt" height="56pt"
 viewBox="0.00 0.00 242.00 56.00" xmlns="http://www.w3.org/2000/svg" xmlns:xlink="http://www.w3.org/1999/xlink">
<g id="graph0" class="graph" transform="scale(1 1) rotate(0) translate(4 52)">
<title>ttg::Dot::build_ttg_hierarchy</title>
<!-- Node1 -->
<g id="Node000001" class="node">
<title>Node1</title>
<g id="a_Node000001"><a xlink:title=" ">
<polygon fill="#999999" stroke="#666666" points="234,-30 127,-30 127,0 234,0 234,-30"/>
<text text-anchor="start" x="135" y="-18" font-family="Times,serif" font-size="10.00">ttg::Dot::build_ttg</text>
<text text-anchor="middle" x="180.5" y="-7" font-family="Times,serif" font-size="10.00">_hierarchy</text>
</a>
</g>
</g>
<!-- Node1&#45;&gt;Node1 -->
<g id="edge1_Node000001_Node000001" class="edge">
<title>Node1&#45;&gt;Node1</title>
<g id="a_edge1_Node000001_Node000001"><a xlink:title=" ">
<path fill="none" stroke="#63b8ff" d="M203.96,-40.6C200.75,-44.97 192.93,-48 180.5,-48 159.56,-48 151.71,-39.41 156.95,-30.28"/>
<polygon fill="#63b8ff" stroke="#63b8ff" points="207.46,-40.31 204.05,-30.28 200.46,-40.24 207.46,-40.31"/>
</a>
</g>
</g>
<!-- Node2 -->
<g id="Node000002" class="node">
<title>Node2</title>
<g id="a_Node000002"><a xlink:href="classttg_1_1_dot.html#a168203fd05265000a5fe12be79738a94" target="_top" xlink:title=" ">
<polygon fill="white" stroke="#666666" points="91,-24.5 0,-24.5 0,-5.5 91,-5.5 91,-24.5"/>
<text text-anchor="middle" x="45.5" y="-12.5" font-family="Times,serif" font-size="10.00">ttg::Dot::ttfunc</text>
</a>
</g>
</g>
<!-- Node1&#45;&gt;Node2 -->
<g id="edge2_Node000001_Node000002" class="edge">
<title>Node1&#45;&gt;Node2</title>
<g id="a_edge2_Node000001_Node000002"><a xlink:title=" ">
<path fill="none" stroke="#63b8ff" d="M116.9,-15C108.29,-15 99.59,-15 91.38,-15"/>
<polygon fill="#63b8ff" stroke="#63b8ff" points="116.93,-18.5 126.93,-15 116.93,-11.5 116.93,-18.5"/>
</a>
</g>
</g>
</g>
</svg>
