<?xml version="1.0" encoding="UTF-8" standalone="no"?>
<!DOCTYPE svg PUBLIC "-//W3C//DTD SVG 1.1//EN"
 "http://www.w3.org/Graphics/SVG/1.1/DTD/svg11.dtd">
<!-- Generated by graphviz version 2.43.0 (0)
 -->
<!-- Title: ttg_parsec::TT::prepare_send Pages: 1 -->
<svg width="504pt" height="94pt"
 viewBox="0.00 0.00 504.00 93.50" xmlns="http://www.w3.org/2000/svg" xmlns:xlink="http://www.w3.org/1999/xlink">
<g id="graph0" class="graph" transform="scale(1 1) rotate(0) translate(4 89.5)">
<title>ttg_parsec::TT::prepare_send</title>
<!-- Node1 -->
<g id="Node000001" class="node">
<title>Node1</title>
<g id="a_Node000001"><a xlink:title=" ">
<polygon fill="#999999" stroke="#666666" points="165,-45.5 0,-45.5 0,-26.5 165,-26.5 165,-45.5"/>
<text text-anchor="middle" x="82.5" y="-33.5" font-family="Times,serif" font-size="10.00">ttg_parsec::TT::prepare_send</text>
</a>
</g>
</g>
<!-- Node2 -->
<g id="Node000002" class="node">
<title>Node2</title>
<g id="a_Node000002"><a xlink:href="classttg__parsec_1_1_t_t.html#aab59a1bf0fcc4f771457b5f05cb42741" target="_top" xlink:title=" ">
<polygon fill="white" stroke="#666666" points="322,-67.5 211,-67.5 211,-48.5 322,-48.5 322,-67.5"/>
<text text-anchor="middle" x="266.5" y="-55.5" font-family="Times,serif" font-size="10.00">ttg_parsec::TT::get</text>
</a>
</g>
</g>
<!-- Node1&#45;&gt;Node2 -->
<g id="edge1_Node000001_Node000002" class="edge">
<title>Node1&#45;&gt;Node2</title>
<g id="a_edge1_Node000001_Node000002"><a xlink:title=" ">
<path fill="none" stroke="#63b8ff" d="M162.27,-45.52C175.1,-47.07 188.27,-48.66 200.72,-50.17"/>
<polygon fill="#63b8ff" stroke="#63b8ff" points="200.64,-53.68 210.98,-51.41 201.48,-46.74 200.64,-53.68"/>
</a>
</g>
</g>
<!-- Node3 -->
<g id="Node000003" class="node">
<title>Node3</title>
<g id="a_Node000003"><a xlink:href="namespacettg__parsec.html#ae1b91b1ff1edc3fbc1e7e07d6c659c17" target="_top" xlink:title=" ">
<polygon fill="white" stroke="#666666" points="332,-30 201,-30 201,0 332,0 332,-30"/>
<text text-anchor="start" x="209" y="-18" font-family="Times,serif" font-size="10.00">ttg_parsec::ttg_default</text>
<text text-anchor="middle" x="266.5" y="-7" font-family="Times,serif" font-size="10.00">_execution_context</text>
</a>
</g>
</g>
<!-- Node1&#45;&gt;Node3 -->
<g id="edge3_Node000001_Node000003" class="edge">
<title>Node1&#45;&gt;Node3</title>
<g id="a_edge3_Node000001_Node000003"><a xlink:title=" ">
<path fill="none" stroke="#63b8ff" d="M165.18,-26.57C173.72,-25.59 182.36,-24.59 190.81,-23.62"/>
<polygon fill="#63b8ff" stroke="#63b8ff" points="191.46,-27.07 201,-22.44 190.66,-20.11 191.46,-27.07"/>
</a>
</g>
</g>
<!-- Node2&#45;&gt;Node2 -->
<g id="edge2_Node000002_Node000002" class="edge">
<title>Node2&#45;&gt;Node2</title>
<g id="a_edge2_Node000002_Node000002"><a xlink:title=" ">
<path fill="none" stroke="#63b8ff" d="M241.22,-67.58C228.93,-76.23 237.35,-85.5 266.5,-85.5 285.63,-85.5 295.83,-81.51 297.11,-76.32"/>
<polygon fill="#63b8ff" stroke="#63b8ff" points="299.98,-74.29 291.78,-67.58 294,-77.94 299.98,-74.29"/>
</a>
</g>
</g>
<!-- Node4 -->
<g id="Node000004" class="node">
<title>Node4</title>
<g id="a_Node000004"><a xlink:href="namespacettg.html#a5829b255a41f2e47fa0e27bb5c791824" target="_top" xlink:title=" ">
<polygon fill="white" stroke="#666666" points="496,-24.5 368,-24.5 368,-5.5 496,-5.5 496,-24.5"/>
<text text-anchor="middle" x="432" y="-12.5" font-family="Times,serif" font-size="10.00">ttg::get_default_world</text>
</a>
</g>
</g>
<!-- Node3&#45;&gt;Node4 -->
<g id="edge4_Node000003_Node000004" class="edge">
<title>Node3&#45;&gt;Node4</title>
<g id="a_edge4_Node000003_Node000004"><a xlink:title=" ">
<path fill="none" stroke="#63b8ff" d="M332.12,-15C340.59,-15 349.31,-15 357.91,-15"/>
<polygon fill="#63b8ff" stroke="#63b8ff" points="357.92,-18.5 367.92,-15 357.92,-11.5 357.92,-18.5"/>
</a>
</g>
</g>
</g>
</svg>
