<?xml version="1.0" encoding="UTF-8" standalone="no"?>
<!DOCTYPE svg PUBLIC "-//W3C//DTD SVG 1.1//EN"
 "http://www.w3.org/Graphics/SVG/1.1/DTD/svg11.dtd">
<!-- Generated by graphviz version 2.43.0 (0)
 -->
<!-- Title: ttg::Debugger::set_cmd Pages: 1 -->
<svg width="521pt" height="27pt"
 viewBox="0.00 0.00 521.00 27.00" xmlns="http://www.w3.org/2000/svg" xmlns:xlink="http://www.w3.org/1999/xlink">
<g id="graph0" class="graph" transform="scale(1 1) rotate(0) translate(4 23)">
<title>ttg::Debugger::set_cmd</title>
<!-- Node1 -->
<g id="Node000001" class="node">
<title>Node1</title>
<g id="a_Node000001"><a xlink:title=" ">
<polygon fill="#999999" stroke="#666666" points="513,-19 376,-19 376,0 513,0 513,-19"/>
<text text-anchor="middle" x="444.5" y="-7" font-family="Times,serif" font-size="10.00">ttg::Debugger::set_cmd</text>
</a>
</g>
</g>
<!-- Node2 -->
<g id="Node000002" class="node">
<title>Node2</title>
<g id="a_Node000002"><a xlink:href="classttg_1_1_debugger.html#a9d300701a1afd231052bc95bb9f7f027" target="_top" xlink:title="Calls set_cmd with a hopefully suitable default.">
<polygon fill="white" stroke="#666666" points="340,-19 182,-19 182,0 340,0 340,-19"/>
<text text-anchor="middle" x="261" y="-7" font-family="Times,serif" font-size="10.00">ttg::Debugger::default_cmd</text>
</a>
</g>
</g>
<!-- Node1&#45;&gt;Node2 -->
<g id="edge1_Node000001_Node000002" class="edge">
<title>Node1&#45;&gt;Node2</title>
<g id="a_edge1_Node000001_Node000002"><a xlink:title=" ">
<path fill="none" stroke="#63b8ff" d="M365.66,-9.5C357.17,-9.5 348.53,-9.5 340.04,-9.5"/>
<polygon fill="#63b8ff" stroke="#63b8ff" points="365.92,-13 375.92,-9.5 365.92,-6 365.92,-13"/>
</a>
</g>
</g>
<!-- Node3 -->
<g id="Node000003" class="node">
<title>Node3</title>
<g id="a_Node000003"><a xlink:href="classttg_1_1_debugger.html#aefd3fb0dcd8a59ab403fdb4587184e59" target="_top" xlink:title="Programmatic construction of Debugger.">
<polygon fill="white" stroke="#666666" points="146,-19 0,-19 0,0 146,0 146,-19"/>
<text text-anchor="middle" x="73" y="-7" font-family="Times,serif" font-size="10.00">ttg::Debugger::Debugger</text>
</a>
</g>
</g>
<!-- Node2&#45;&gt;Node3 -->
<g id="edge2_Node000002_Node000003" class="edge">
<title>Node2&#45;&gt;Node3</title>
<g id="a_edge2_Node000002_Node000003"><a xlink:title=" ">
<path fill="none" stroke="#63b8ff" d="M171.88,-9.5C163.29,-9.5 154.65,-9.5 146.24,-9.5"/>
<polygon fill="#63b8ff" stroke="#63b8ff" points="171.93,-13 181.93,-9.5 171.93,-6 171.93,-13"/>
</a>
</g>
</g>
</g>
</svg>
