<?xml version="1.0" encoding="UTF-8" standalone="no"?>
<!DOCTYPE svg PUBLIC "-//W3C//DTD SVG 1.1//EN"
 "http://www.w3.org/Graphics/SVG/1.1/DTD/svg11.dtd">
<!-- Generated by graphviz version 2.43.0 (0)
 -->
<!-- Title: ttg::Dot::tree_down Pages: 1 -->
<svg width="270pt" height="45pt"
 viewBox="0.00 0.00 270.00 45.00" xmlns="http://www.w3.org/2000/svg" xmlns:xlink="http://www.w3.org/1999/xlink">
<g id="graph0" class="graph" transform="scale(1 1) rotate(0) translate(4 41)">
<title>ttg::Dot::tree_down</title>
<!-- Node1 -->
<g id="Node000001" class="node">
<title>Node1</title>
<g id="a_Node000001"><a xlink:title=" ">
<polygon fill="#999999" stroke="#666666" points="262,-19 148,-19 148,0 262,0 262,-19"/>
<text text-anchor="middle" x="205" y="-7" font-family="Times,serif" font-size="10.00">ttg::Dot::tree_down</text>
</a>
</g>
</g>
<!-- Node1&#45;&gt;Node1 -->
<g id="edge2_Node000001_Node000001" class="edge">
<title>Node1&#45;&gt;Node1</title>
<g id="a_edge2_Node000001_Node000001"><a xlink:title=" ">
<path fill="none" stroke="#63b8ff" d="M232.53,-28.19C231.03,-33.2 221.85,-37 205,-37 178.7,-37 171.09,-27.73 182.19,-19.08"/>
<polygon fill="#63b8ff" stroke="#63b8ff" points="235.52,-26.35 227.81,-19.08 229.3,-29.57 235.52,-26.35"/>
</a>
</g>
</g>
<!-- Node2 -->
<g id="Node000002" class="node">
<title>Node2</title>
<g id="a_Node000002"><a xlink:href="classttg_1_1_dot.html#a1f31206ebc9d5867a70b1af197c26942" target="_top" xlink:title=" ">
<polygon fill="white" stroke="#666666" points="112,-19 0,-19 0,0 112,0 112,-19"/>
<text text-anchor="middle" x="56" y="-7" font-family="Times,serif" font-size="10.00">ttg::Dot::operator()</text>
</a>
</g>
</g>
<!-- Node1&#45;&gt;Node2 -->
<g id="edge1_Node000001_Node000002" class="edge">
<title>Node1&#45;&gt;Node2</title>
<g id="a_edge1_Node000001_Node000002"><a xlink:title=" ">
<path fill="none" stroke="#63b8ff" d="M137.35,-9.5C128.89,-9.5 120.3,-9.5 112.05,-9.5"/>
<polygon fill="#63b8ff" stroke="#63b8ff" points="137.59,-13 147.59,-9.5 137.59,-6 137.59,-13"/>
</a>
</g>
</g>
</g>
</svg>
