<?xml version="1.0" encoding="UTF-8" standalone="no"?>
<!DOCTYPE svg PUBLIC "-//W3C//DTD SVG 1.1//EN"
 "http://www.w3.org/Graphics/SVG/1.1/DTD/svg11.dtd">
<!-- Generated by graphviz version 2.43.0 (0)
 -->
<!-- Title: ttg_parsec::TT::register_static_op_function Pages: 1 -->
<!--zoomable 338 -->

<svg id="main" version="1.1" xmlns="http://www.w3.org/2000/svg" xmlns:xlink="http://www.w3.org/1999/xlink" xml:space="preserve" onload="init(evt)">
<style type="text/css"><![CDATA[
.node, .edge {opacity: 0.7;}
.node.selected, .edge.selected {opacity: 1;}
.edge:hover path { stroke: red; }
.edge:hover polygon { stroke: red; fill: red; }
]]></style>

<defs>
  <circle id="rim" cx="0" cy="0" r="7"/>
  <circle id="rim2" cx="0" cy="0" r="3.5"/>
  <g id="zoomPlus">
    <use xlink:href="#rim" fill="#404040"><set attributeName="fill" to="#808080" begin="zoomplus.mouseover" end="zoomplus.mouseout"/></use>
    <path d="M-4,0h8M0,-4v8" fill="none" stroke="white" stroke-width="1.5" pointer-events="none"/>
  </g>
  <g id="zoomMin">
    <use xlink:href="#rim" fill="#404040"><set attributeName="fill" to="#808080" begin="zoomminus.mouseover" end="zoomminus.mouseout"/></use>
    <path d="M-4,0h8" fill="none" stroke="white" stroke-width="1.5" pointer-events="none"/>
  </g>
  <g id="arrowUp" transform="translate(30 24)">
    <use xlink:href="#rim"/>
    <path pointer-events="none" fill="none" stroke="white" stroke-width="1.5" d="M0,-3.0v7 M-2.5,-0.5L0,-3.0L2.5,-0.5"/>
  </g>
  <g id="arrowRight" transform="rotate(90) translate(36 -43)">
    <use xlink:href="#rim"/>
    <path pointer-events="none" fill="none" stroke="white" stroke-width="1.5" d="M0,-3.0v7 M-2.5,-0.5L0,-3.0L2.5,-0.5"/>
  </g>
  <g id="arrowDown" transform="rotate(180) translate(-30 -48)">
    <use xlink:href="#rim"/>
    <path pointer-events="none" fill="none" stroke="white" stroke-width="1.5" d="M0,-3.0v7 M-2.5,-0.5L0,-3.0L2.5,-0.5"/>
  </g>
  <g id="arrowLeft" transform="rotate(270) translate(-36 17)">
    <use xlink:href="#rim"/>
    <path pointer-events="none" fill="none" stroke="white" stroke-width="1.5" d="M0,-3.0v7 M-2.5,-0.5L0,-3.0L2.5,-0.5"/>
  </g>
  <g id="resetDef">
    <use xlink:href="#rim2" fill="#404040"><set attributeName="fill" to="#808080" begin="reset.mouseover" end="reset.mouseout"/></use>
  </g>
</defs>
<script type="application/ecmascript">
var viewWidth = 631;
var viewHeight = 338;
var sectionId = 'dynsection-60';
</script>
<script type="application/ecmascript" xlink:href="svg.min.js"/>
<svg id="graph" class="graph">
<g id="viewport">
<title>ttg_parsec::TT::register_static_op_function</title>
<!-- Node1 -->
<g id="Node000001" class="node">
<title>Node1</title>
<g id="a_Node000001"><a xlink:title=" ">
<polygon fill="#999999" stroke="#666666" points="134,-197.5 0,-197.5 0,-167.5 134,-167.5 134,-197.5"/>
<text text-anchor="start" x="8" y="-185.5" font-family="Times,serif" font-size="10.00">ttg_parsec::TT::register</text>
<text text-anchor="middle" x="67" y="-174.5" font-family="Times,serif" font-size="10.00">_static_op_function</text>
</a>
</g>
</g>
<!-- Node2 -->
<g id="Node000002" class="node">
<title>Node2</title>
<g id="a_Node000002"><a xlink:href="classttg__parsec_1_1_t_t.html#aab59a1bf0fcc4f771457b5f05cb42741" target="_top" xlink:title=" ">
<polygon fill="white" stroke="#666666" points="478,-312 367,-312 367,-293 478,-293 478,-312"/>
<text text-anchor="middle" x="422.5" y="-300" font-family="Times,serif" font-size="10.00">ttg_parsec::TT::get</text>
</a>
</g>
</g>
<!-- Node1&#45;&gt;Node2 -->
<g id="edge1_Node000001_Node000002" class="edge">
<title>Node1&#45;&gt;Node2</title>
<g id="a_edge1_Node000001_Node000002"><a xlink:title=" ">
<path fill="none" stroke="#63b8ff" d="M77.37,-197.57C93.14,-221.39 127.46,-267.02 170,-286.5 228.93,-313.48 303.86,-314.59 356.55,-310.74"/>
<polygon fill="#63b8ff" stroke="#63b8ff" points="357.1,-314.21 366.78,-309.91 356.53,-307.23 357.1,-314.21"/>
</a>
</g>
</g>
<!-- Node3 -->
<g id="Node000003" class="node">
<title>Node3</title>
<g id="a_Node000003"><a xlink:href="classttg_1_1_t_t_base.html#a48f582b0eab8579283383f8d4937db09" target="_top" xlink:title=" ">
<polygon fill="white" stroke="#666666" points="331,-229 170,-229 170,-210 331,-210 331,-229"/>
<text text-anchor="middle" x="250.5" y="-217" font-family="Times,serif" font-size="10.00">ttg::TTBase::get_instance_id</text>
</a>
</g>
</g>
<!-- Node1&#45;&gt;Node3 -->
<g id="edge3_Node000001_Node000003" class="edge">
<title>Node1&#45;&gt;Node3</title>
<g id="a_edge3_Node000001_Node000003"><a xlink:title=" ">
<path fill="none" stroke="#63b8ff" d="M134.04,-195.96C153.37,-199.9 174.32,-204.17 193,-207.98"/>
<polygon fill="#63b8ff" stroke="#63b8ff" points="192.33,-211.42 202.83,-209.99 193.73,-204.56 192.33,-211.42"/>
</a>
</g>
</g>
<!-- Node4 -->
<g id="Node000004" class="node">
<title>Node4</title>
<g id="a_Node000004"><a xlink:href="classttg_1_1base_1_1_world.html#aabab7c9df8f16919ab41a864c8b1adc4" target="_top" xlink:title=" ">
<polygon fill="white" stroke="#666666" points="313,-192 188,-192 188,-173 313,-173 313,-192"/>
<text text-anchor="middle" x="250.5" y="-180" font-family="Times,serif" font-size="10.00">ttg::base::World::impl</text>
</a>
</g>
</g>
<!-- Node1&#45;&gt;Node4 -->
<g id="edge4_Node000001_Node000004" class="edge">
<title>Node1&#45;&gt;Node4</title>
<g id="a_edge4_Node000001_Node000004"><a xlink:title=" ">
<path fill="none" stroke="#63b8ff" d="M134.04,-182.5C148.15,-182.5 163.12,-182.5 177.45,-182.5"/>
<polygon fill="#63b8ff" stroke="#63b8ff" points="177.74,-186 187.74,-182.5 177.74,-179 177.74,-186"/>
</a>
</g>
</g>
<!-- Node6 -->
<g id="Node000006" class="node">
<title>Node6</title>
<g id="a_Node000006"><a xlink:href="namespacettg.html#aa3510e128b769afb53720d24fa83fb97" target="_top" xlink:title="atomically prints to std::cout a sequence of items (separated by ttg::print_separator) followed by st...">
<polygon fill="white" stroke="#666666" points="281.5,-155 219.5,-155 219.5,-136 281.5,-136 281.5,-155"/>
<text text-anchor="middle" x="250.5" y="-143" font-family="Times,serif" font-size="10.00">ttg::print</text>
</a>
</g>
</g>
<!-- Node1&#45;&gt;Node6 -->
<g id="edge6_Node000001_Node000006" class="edge">
<title>Node1&#45;&gt;Node6</title>
<g id="a_edge6_Node000001_Node000006"><a xlink:title=" ">
<path fill="none" stroke="#63b8ff" d="M134.04,-169.04C159.24,-163.9 187.19,-158.2 209.28,-153.7"/>
<polygon fill="#63b8ff" stroke="#63b8ff" points="210.2,-157.08 219.3,-151.66 208.8,-150.22 210.2,-157.08"/>
</a>
</g>
</g>
<!-- Node8 -->
<g id="Node000008" class="node">
<title>Node8</title>
<g id="a_Node000008"><a xlink:href="classttg__parsec_1_1_t_t.html#aaa5f1c1f04d2ffba82360ace2708c282" target="_top" xlink:title=" ">
<polygon fill="white" stroke="#666666" points="311.5,-277.5 189.5,-277.5 189.5,-247.5 311.5,-247.5 311.5,-277.5"/>
<text text-anchor="start" x="197.5" y="-265.5" font-family="Times,serif" font-size="10.00">ttg_parsec::TT::static</text>
<text text-anchor="middle" x="250.5" y="-254.5" font-family="Times,serif" font-size="10.00">_set_arg</text>
</a>
</g>
</g>
<!-- Node1&#45;&gt;Node8 -->
<g id="edge8_Node000001_Node000008" class="edge">
<title>Node1&#45;&gt;Node8</title>
<g id="a_edge8_Node000001_Node000008"><a xlink:title=" ">
<path fill="none" stroke="#63b8ff" d="M92.02,-197.56C112.25,-209.79 142.25,-226.84 170,-238.5 174.7,-240.47 179.61,-242.36 184.6,-244.14"/>
<polygon fill="#63b8ff" stroke="#63b8ff" points="183.63,-247.51 194.23,-247.45 185.91,-240.89 183.63,-247.51"/>
</a>
</g>
</g>
<!-- Node10 -->
<g id="Node000010" class="node">
<title>Node10</title>
<g id="a_Node000010"><a xlink:href="namespacettg.html#af5e470229c1ddef41b83b6398a5dc583" target="_top" xlink:title=" ">
<polygon fill="white" stroke="#666666" points="281.5,-95 219.5,-95 219.5,-76 281.5,-76 281.5,-95"/>
<text text-anchor="middle" x="250.5" y="-83" font-family="Times,serif" font-size="10.00">ttg::trace</text>
</a>
</g>
</g>
<!-- Node1&#45;&gt;Node10 -->
<g id="edge11_Node000001_Node000010" class="edge">
<title>Node1&#45;&gt;Node10</title>
<g id="a_edge11_Node000001_Node000010"><a xlink:title=" ">
<path fill="none" stroke="#63b8ff" d="M95.67,-167.5C116.17,-156.4 144.8,-140.95 170,-127.5 187.33,-118.25 206.84,-107.94 222.2,-99.85"/>
<polygon fill="#63b8ff" stroke="#63b8ff" points="223.94,-102.89 231.16,-95.13 220.68,-96.69 223.94,-102.89"/>
</a>
</g>
</g>
<!-- Node13 -->
<g id="Node000013" class="node">
<title>Node13</title>
<g id="a_Node000013"><a xlink:href="namespacettg.html#abfb8501d408a1ed918cc2a540865a2d8" target="_top" xlink:title="returns whether tracing is enabled">
<polygon fill="white" stroke="#666666" points="459,-19 386,-19 386,0 459,0 459,-19"/>
<text text-anchor="middle" x="422.5" y="-7" font-family="Times,serif" font-size="10.00">ttg::tracing</text>
</a>
</g>
</g>
<!-- Node1&#45;&gt;Node13 -->
<g id="edge19_Node000001_Node000013" class="edge">
<title>Node1&#45;&gt;Node13</title>
<g id="a_edge19_Node000001_Node000013"><a xlink:title=" ">
<path fill="none" stroke="#63b8ff" d="M76.88,-167.49C92.44,-142.6 127.09,-92.98 170,-67.5 234.65,-29.1 322.61,-16.12 375.54,-11.74"/>
<polygon fill="#63b8ff" stroke="#63b8ff" points="375.94,-15.22 385.65,-10.97 375.41,-8.24 375.94,-15.22"/>
</a>
</g>
</g>
<!-- Node2&#45;&gt;Node2 -->
<g id="edge2_Node000002_Node000002" class="edge">
<title>Node2&#45;&gt;Node2</title>
<g id="a_edge2_Node000002_Node000002"><a xlink:title=" ">
<path fill="none" stroke="#63b8ff" d="M400,-312.08C389.05,-320.73 396.55,-330 422.5,-330 439.12,-330 448.18,-326.2 449.66,-321.19"/>
<polygon fill="#63b8ff" stroke="#63b8ff" points="452.67,-319.39 445,-312.08 446.44,-322.58 452.67,-319.39"/>
</a>
</g>
</g>
<!-- Node5 -->
<g id="Node000005" class="node">
<title>Node5</title>
<g id="a_Node000005"><a xlink:href="classttg_1_1base_1_1_world.html#af39ca1832f455a94134515f94aaa8533" target="_top" xlink:title=" ">
<polygon fill="white" stroke="#666666" points="478,-219.5 367,-219.5 367,-189.5 478,-189.5 478,-219.5"/>
<text text-anchor="start" x="375" y="-207.5" font-family="Times,serif" font-size="10.00">ttg::base::World::is</text>
<text text-anchor="middle" x="422.5" y="-196.5" font-family="Times,serif" font-size="10.00">_valid</text>
</a>
</g>
</g>
<!-- Node4&#45;&gt;Node5 -->
<g id="edge5_Node000004_Node000005" class="edge">
<title>Node4&#45;&gt;Node5</title>
<g id="a_edge5_Node000004_Node000005"><a xlink:title=" ">
<path fill="none" stroke="#63b8ff" d="M313.35,-190.5C327.41,-192.32 342.38,-194.26 356.56,-196.1"/>
<polygon fill="#63b8ff" stroke="#63b8ff" points="356.36,-199.6 366.72,-197.41 357.26,-192.66 356.36,-199.6"/>
</a>
</g>
</g>
<!-- Node7 -->
<g id="Node000007" class="node">
<title>Node7</title>
<g id="a_Node000007"><a xlink:href="namespacettg_1_1detail.html#a26e07486d5ef8eb5735a8975991a7693" target="_top" xlink:title=" ">
<polygon fill="white" stroke="#666666" points="616.5,-144.5 520.5,-144.5 520.5,-114.5 616.5,-114.5 616.5,-144.5"/>
<text text-anchor="start" x="528.5" y="-132.5" font-family="Times,serif" font-size="10.00">ttg::detail::print</text>
<text text-anchor="middle" x="568.5" y="-121.5" font-family="Times,serif" font-size="10.00">_helper</text>
</a>
</g>
</g>
<!-- Node6&#45;&gt;Node7 -->
<g id="edge7_Node000006_Node000007" class="edge">
<title>Node6&#45;&gt;Node7</title>
<g id="a_edge7_Node000006_Node000007"><a xlink:title=" ">
<path fill="none" stroke="#63b8ff" d="M281.6,-146.35C325.05,-147.3 407.82,-148.04 478,-142.5 488.44,-141.68 499.51,-140.4 510.18,-138.96"/>
<polygon fill="#63b8ff" stroke="#63b8ff" points="510.84,-142.4 520.25,-137.54 509.86,-135.47 510.84,-142.4"/>
</a>
</g>
</g>
<!-- Node8&#45;&gt;Node2 -->
<g id="edge10_Node000008_Node000002" class="edge">
<title>Node8&#45;&gt;Node2</title>
<g id="a_edge10_Node000008_Node000002"><a xlink:title=" ">
<path fill="none" stroke="#63b8ff" d="M311.91,-276.72C331.33,-281.28 352.62,-286.29 371.22,-290.67"/>
<polygon fill="#63b8ff" stroke="#63b8ff" points="370.43,-294.08 380.97,-292.96 372.04,-287.27 370.43,-294.08"/>
</a>
</g>
</g>
<!-- Node9 -->
<g id="Node000009" class="node">
<title>Node9</title>
<g id="a_Node000009"><a xlink:href="namespacettg.html#a408d84f3b0f9b79a3278a3eac949b207" target="_top" xlink:title="Aborts the TTG program using the default backend&#39;s ttg_abort method.">
<polygon fill="white" stroke="#666666" points="454.5,-272 390.5,-272 390.5,-253 454.5,-253 454.5,-272"/>
<text text-anchor="middle" x="422.5" y="-260" font-family="Times,serif" font-size="10.00">ttg::abort</text>
</a>
</g>
</g>
<!-- Node8&#45;&gt;Node9 -->
<g id="edge9_Node000008_Node000009" class="edge">
<title>Node8&#45;&gt;Node9</title>
<g id="a_edge9_Node000008_Node000009"><a xlink:title=" ">
<path fill="none" stroke="#63b8ff" d="M311.91,-262.5C334.51,-262.5 359.64,-262.5 380.12,-262.5"/>
<polygon fill="#63b8ff" stroke="#63b8ff" points="380.38,-266 390.38,-262.5 380.38,-259 380.38,-266"/>
</a>
</g>
</g>
<!-- Node11 -->
<g id="Node000011" class="node">
<title>Node11</title>
<g id="a_Node000011"><a xlink:href="namespacettg.html#aacacfe8bc9582308a405c4370650a9d4" target="_top" xlink:title="atomically prints to std::clog a sequence of items (separated by ttg::print_separator) followed by st...">
<polygon fill="white" stroke="#666666" points="449,-133 396,-133 396,-114 449,-114 449,-133"/>
<text text-anchor="middle" x="422.5" y="-121" font-family="Times,serif" font-size="10.00">ttg::log</text>
</a>
</g>
</g>
<!-- Node10&#45;&gt;Node11 -->
<g id="edge12_Node000010_Node000011" class="edge">
<title>Node10&#45;&gt;Node11</title>
<g id="a_edge12_Node000010_Node000011"><a xlink:title=" ">
<path fill="none" stroke="#63b8ff" d="M281.5,-92.21C310.7,-98.73 355.09,-108.65 386.02,-115.57"/>
<polygon fill="#63b8ff" stroke="#63b8ff" points="385.44,-119.03 395.96,-117.79 386.96,-112.19 385.44,-119.03"/>
</a>
</g>
</g>
<!-- Node12 -->
<g id="Node000012" class="node">
<title>Node12</title>
<g id="a_Node000012"><a xlink:href="namespacettg.html#afbdd9c742be395e0746fdbc26c7d55cc" target="_top" xlink:title="returns whether tracing was enabled at configure time">
<polygon fill="white" stroke="#666666" points="623,-89 514,-89 514,-70 623,-70 623,-89"/>
<text text-anchor="middle" x="568.5" y="-77" font-family="Times,serif" font-size="10.00">ttg::trace_enabled</text>
</a>
</g>
</g>
<!-- Node10&#45;&gt;Node12 -->
<g id="edge14_Node000010_Node000012" class="edge">
<title>Node10&#45;&gt;Node12</title>
<g id="a_edge14_Node000010_Node000012"><a xlink:title=" ">
<path fill="none" stroke="#63b8ff" d="M281.51,-84.93C332.29,-83.97 436.2,-81.99 503.8,-80.71"/>
<polygon fill="#63b8ff" stroke="#63b8ff" points="503.97,-84.21 513.91,-80.52 503.84,-77.21 503.97,-84.21"/>
</a>
</g>
</g>
<!-- Node10&#45;&gt;Node13 -->
<g id="edge15_Node000010_Node000013" class="edge">
<title>Node10&#45;&gt;Node13</title>
<g id="a_edge15_Node000010_Node000013"><a xlink:title=" ">
<path fill="none" stroke="#63b8ff" d="M272.76,-75.86C295.92,-65.39 334.05,-48.17 367,-33.5 374.57,-30.13 382.74,-26.52 390.4,-23.14"/>
<polygon fill="#63b8ff" stroke="#63b8ff" points="391.99,-26.27 399.74,-19.04 389.17,-19.86 391.99,-26.27"/>
</a>
</g>
</g>
<!-- Node11&#45;&gt;Node7 -->
<g id="edge13_Node000011_Node000007" class="edge">
<title>Node11&#45;&gt;Node7</title>
<g id="a_edge13_Node000011_Node000007"><a xlink:title=" ">
<path fill="none" stroke="#63b8ff" d="M449.24,-124.57C466.21,-125.28 489.11,-126.23 510.24,-127.11"/>
<polygon fill="#63b8ff" stroke="#63b8ff" points="510.31,-130.62 520.44,-127.54 510.6,-123.63 510.31,-130.62"/>
</a>
</g>
</g>
<!-- Node13&#45;&gt;Node12 -->
<g id="edge18_Node000013_Node000012" class="edge">
<title>Node13&#45;&gt;Node12</title>
<g id="a_edge18_Node000013_Node000012"><a xlink:title=" ">
<path fill="none" stroke="#63b8ff" d="M443.22,-19.09C467.86,-31.06 510.21,-51.65 538.53,-65.42"/>
<polygon fill="#63b8ff" stroke="#63b8ff" points="537.03,-68.58 547.56,-69.8 540.09,-62.28 537.03,-68.58"/>
</a>
</g>
</g>
<!-- Node14 -->
<g id="Node000014" class="node">
<title>Node14</title>
<g id="a_Node000014"><a xlink:href="namespacettg_1_1detail.html#a95356c3874e7ec9268a40feb4fc1519f" target="_top" xlink:title=" ">
<polygon fill="white" stroke="#666666" points="617,-37.5 520,-37.5 520,-7.5 617,-7.5 617,-37.5"/>
<text text-anchor="start" x="528" y="-25.5" font-family="Times,serif" font-size="10.00">ttg::detail::trace</text>
<text text-anchor="middle" x="568.5" y="-14.5" font-family="Times,serif" font-size="10.00">_accessor</text>
</a>
</g>
</g>
<!-- Node13&#45;&gt;Node14 -->
<g id="edge16_Node000013_Node000014" class="edge">
<title>Node13&#45;&gt;Node14</title>
<g id="a_edge16_Node000013_Node000014"><a xlink:title=" ">
<path fill="none" stroke="#63b8ff" d="M459.1,-12.71C474.27,-14.08 492.37,-15.72 509.39,-17.25"/>
<polygon fill="#63b8ff" stroke="#63b8ff" points="509.54,-20.78 519.82,-18.2 510.17,-13.81 509.54,-20.78"/>
</a>
</g>
</g>
<!-- Node14&#45;&gt;Node10 -->
<g id="edge17_Node000014_Node000010" class="edge">
<title>Node14&#45;&gt;Node10</title>
<g id="a_edge17_Node000014_Node000010"><a xlink:title=" ">
<path fill="none" stroke="#63b8ff" d="M519.86,-32C457.59,-44.41 349.64,-65.93 291.44,-77.54"/>
<polygon fill="#63b8ff" stroke="#63b8ff" points="290.64,-74.13 281.51,-79.52 292,-80.99 290.64,-74.13"/>
</a>
</g>
</g>
</g>
</svg>

<g id="navigator" transform="translate(0 0)" fill="#404254">
  <rect fill="#f2f5e9" fill-opacity="0.5" stroke="#606060" stroke-width=".5" x="0" y="0" width="60" height="60"/>
  <use id="zoomplus" xlink:href="#zoomPlus" x="17" y="9" onmousedown="handleZoom(evt,'in')"/>
  <use id="zoomminus" xlink:href="#zoomMin" x="42" y="9" onmousedown="handleZoom(evt,'out')"/>
  <use id="reset" xlink:href="#resetDef" x="30" y="36" onmousedown="handleReset()"/>
   <use id="arrowup" xlink:href="#arrowUp" x="0" y="0" onmousedown="handlePan(0,-1)"/>
  <use id="arrowright" xlink:href="#arrowRight" x="0" y="0" onmousedown="handlePan(1,0)"/>
  <use id="arrowdown" xlink:href="#arrowDown" x="0" y="0" onmousedown="handlePan(0,1)"/>
  <use id="arrowleft" xlink:href="#arrowLeft" x="0" y="0" onmousedown="handlePan(-1,0)"/>
</g>
<svg viewBox="0 0 15 15" width="100%" height="30px" preserveAspectRatio="xMaxYMin meet">
 <g id="arrow_out" transform="scale(0.3 0.3)">
  <a xlink:href="classttg__parsec_1_1_t_t_ab0bde8f642c472a5cf19274f7251268f_cgraph_org.svg" target="_base">
   <rect id="button" ry="5" rx="5" y="6" x="6" height="38" width="38"
        fill="#f2f5e9" fill-opacity="0.5" stroke="#606060" stroke-width="1.0"/>
   <path id="arrow"
     d="M 11.500037,31.436501 C 11.940474,20.09759 22.043105,11.32322 32.158766,21.979434 L 37.068811,17.246167 C 37.068811,17.246167 37.088388,32 37.088388,32 L 22.160133,31.978069 C 22.160133,31.978069 26.997745,27.140456 26.997745,27.140456 C 18.528582,18.264221 13.291696,25.230495 11.500037,31.436501 z"
     style="fill:#404040;"/>
  </a>
 </g>
</svg>

<style type='text/css'>
<![CDATA[
[data-mouse-over-selected='false'] { opacity: 0.7; }
[data-mouse-over-selected='true']  { opacity: 1.0; }
]]>
</style>
<script type="application/ecmascript"><![CDATA[
document.addEventListener('DOMContentLoaded', (event) => {
  highlightEdges();
  highlightAdjacentNodes();
});
]]></script>
</svg>
