<?xml version="1.0" encoding="UTF-8" standalone="no"?>
<!DOCTYPE svg PUBLIC "-//W3C//DTD SVG 1.1//EN"
 "http://www.w3.org/Graphics/SVG/1.1/DTD/svg11.dtd">
<!-- Generated by graphviz version 2.43.0 (0)
 -->
<!-- Title: ttg::OutTerminalBase::nsuccessors Pages: 1 -->
<svg width="469pt" height="82pt"
 viewBox="0.00 0.00 469.00 82.00" xmlns="http://www.w3.org/2000/svg" xmlns:xlink="http://www.w3.org/1999/xlink">

<svg id="main" version="1.1" xmlns="http://www.w3.org/2000/svg" xmlns:xlink="http://www.w3.org/1999/xlink" xml:space="preserve" onload="init(evt)">
<style type="text/css"><![CDATA[
.node, .edge {opacity: 0.7;}
.node.selected, .edge.selected {opacity: 1;}
.edge:hover path { stroke: red; }
.edge:hover polygon { stroke: red; fill: red; }
]]></style>
<script type="application/ecmascript" xlink:href="svg.min.js"/>
<svg id="graph" class="graph">
<g id="graph0" class="graph" transform="scale(1 1) rotate(0) translate(4 78)">
<title>ttg::OutTerminalBase::nsuccessors</title>
<!-- Node1 -->
<g id="Node000001" class="node">
<title>Node1</title>
<g id="a_Node000001"><a xlink:title=" ">
<polygon fill="#999999" stroke="#666666" points="461,-51.5 336,-51.5 336,-21.5 461,-21.5 461,-51.5"/>
<text text-anchor="start" x="344" y="-39.5" font-family="Times,serif" font-size="10.00">ttg::OutTerminalBase</text>
<text text-anchor="middle" x="398.5" y="-28.5" font-family="Times,serif" font-size="10.00">::nsuccessors</text>
</a>
</g>
</g>
<!-- Node2 -->
<g id="Node000002" class="node">
<title>Node2</title>
<g id="a_Node000002"><a xlink:href="classttg_1_1_out.html#ad2a015783a18cb7e66096c95a9ae77d0" target="_top" xlink:title=" ">
<polygon fill="white" stroke="#666666" points="297,-74 211,-74 211,-55 297,-55 297,-74"/>
<text text-anchor="middle" x="254" y="-62" font-family="Times,serif" font-size="10.00">ttg::Out::send</text>
</a>
</g>
</g>
<!-- Node1&#45;&gt;Node2 -->
<g id="edge1_Node000001_Node000002" class="edge">
<title>Node1&#45;&gt;Node2</title>
<g id="a_edge1_Node000001_Node000002"><a xlink:title=" ">
<path fill="none" stroke="#63b8ff" d="M325.96,-50.56C316.06,-52.5 306.17,-54.45 297.05,-56.24"/>
<polygon fill="#63b8ff" stroke="#63b8ff" points="326.69,-53.98 335.83,-48.62 325.34,-47.11 326.69,-53.98"/>
</a>
</g>
</g>
<!-- Node3 -->
<g id="Node000003" class="node">
<title>Node3</title>
<g id="a_Node000003"><a xlink:href="classttg_1_1_out.html#a19596b1bdc19006bfe9771b3ece65223" target="_top" xlink:title=" ">
<polygon fill="white" stroke="#666666" points="300,-19 208,-19 208,0 300,0 300,-19"/>
<text text-anchor="middle" x="254" y="-7" font-family="Times,serif" font-size="10.00">ttg::Out::sendv</text>
</a>
</g>
</g>
<!-- Node1&#45;&gt;Node3 -->
<g id="edge2_Node000001_Node000003" class="edge">
<title>Node1&#45;&gt;Node3</title>
<g id="a_edge2_Node000001_Node000003"><a xlink:title=" ">
<path fill="none" stroke="#63b8ff" d="M325.9,-22.93C317.08,-21.26 308.28,-19.59 300.01,-18.03"/>
<polygon fill="#63b8ff" stroke="#63b8ff" points="325.35,-26.39 335.83,-24.81 326.65,-19.51 325.35,-26.39"/>
</a>
</g>
</g>
<!-- Node3&#45;&gt;Node3 -->
<g id="edge3_Node000003_Node000003" class="edge">
<title>Node3&#45;&gt;Node3</title>
<g id="a_edge3_Node000003_Node000003"><a xlink:title=" ">
<path fill="none" stroke="#63b8ff" d="M275.48,-28.55C274.05,-33.38 266.89,-37 254,-37 233.38,-37 227.42,-27.73 236.12,-19.08"/>
<polygon fill="#63b8ff" stroke="#63b8ff" points="278.7,-27.19 271.88,-19.08 272.16,-29.67 278.7,-27.19"/>
</a>
</g>
</g>
<!-- Node4 -->
<g id="Node000004" class="node">
<title>Node4</title>
<g id="a_Node000004"><a xlink:href="namespacettg.html#a8f6699133cf34d99b17a41af9834a272" target="_top" xlink:title="Sends a value (without an accompanying task id) to the given output terminal.">
<polygon fill="white" stroke="#666666" points="172,-19 104,-19 104,0 172,0 172,-19"/>
<text text-anchor="middle" x="138" y="-7" font-family="Times,serif" font-size="10.00">ttg::sendv</text>
</a>
</g>
</g>
<!-- Node3&#45;&gt;Node4 -->
<g id="edge4_Node000003_Node000004" class="edge">
<title>Node3&#45;&gt;Node4</title>
<g id="a_edge4_Node000003_Node000004"><a xlink:title=" ">
<path fill="none" stroke="#63b8ff" d="M197.74,-9.5C188.98,-9.5 180.17,-9.5 172.13,-9.5"/>
<polygon fill="#63b8ff" stroke="#63b8ff" points="197.94,-13 207.94,-9.5 197.94,-6 197.94,-13"/>
</a>
</g>
</g>
<!-- Node5 -->
<g id="Node000005" class="node">
<title>Node5</title>
<g id="a_Node000005"><a xlink:href="namespacettg.html#aec6fd6a228d0400a690001fd5171b468" target="_top" xlink:title="Sends a value (without an accompanying task id) to the template tasks attached to the output terminal...">
<polygon fill="white" stroke="#666666" points="68,-19 0,-19 0,0 68,0 68,-19"/>
<text text-anchor="middle" x="34" y="-7" font-family="Times,serif" font-size="10.00">ttg::sendv</text>
</a>
</g>
</g>
<!-- Node4&#45;&gt;Node5 -->
<g id="edge5_Node000004_Node000005" class="edge">
<title>Node4&#45;&gt;Node5</title>
<g id="a_edge5_Node000004_Node000005"><a xlink:title=" ">
<path fill="none" stroke="#63b8ff" d="M93.72,-9.5C85.21,-9.5 76.42,-9.5 68.3,-9.5"/>
<polygon fill="#63b8ff" stroke="#63b8ff" points="93.88,-13 103.88,-9.5 93.88,-6 93.88,-13"/>
</a>
</g>
</g>
</g>
</svg>
</svg>

<style type='text/css'>
<![CDATA[
[data-mouse-over-selected='false'] { opacity: 0.7; }
[data-mouse-over-selected='true']  { opacity: 1.0; }
]]>
</style>
<script type="application/ecmascript"><![CDATA[
document.addEventListener('DOMContentLoaded', (event) => {
  highlightEdges();
  highlightAdjacentNodes();
});
]]></script>
</svg>
