<?xml version="1.0" encoding="UTF-8" standalone="no"?>
<!DOCTYPE svg PUBLIC "-//W3C//DTD SVG 1.1//EN"
 "http://www.w3.org/Graphics/SVG/1.1/DTD/svg11.dtd">
<!-- Generated by graphviz version 2.43.0 (0)
 -->
<!-- Title: ttg::TTBase::get_outputs_tls_ptr Pages: 1 -->
<svg width="296pt" height="86pt"
 viewBox="0.00 0.00 296.00 86.00" xmlns="http://www.w3.org/2000/svg" xmlns:xlink="http://www.w3.org/1999/xlink">
<g id="graph0" class="graph" transform="scale(1 1) rotate(0) translate(4 82)">
<title>ttg::TTBase::get_outputs_tls_ptr</title>
<!-- Node1 -->
<g id="Node000001" class="node">
<title>Node1</title>
<g id="a_Node000001"><a xlink:title="Returns this thread&#39;s pointer to the vector of output terminals.">
<polygon fill="#999999" stroke="#666666" points="288,-54 146,-54 146,-24 288,-24 288,-54"/>
<text text-anchor="start" x="154" y="-42" font-family="Times,serif" font-size="10.00">ttg::TTBase::get_outputs</text>
<text text-anchor="middle" x="217" y="-31" font-family="Times,serif" font-size="10.00">_tls_ptr</text>
</a>
</g>
</g>
<!-- Node2 -->
<g id="Node000002" class="node">
<title>Node2</title>
<g id="a_Node000002"><a xlink:href="namespacettg_1_1detail.html#ab74de3de588f49984ad9db137518478b" target="_top" xlink:title=" ">
<polygon fill="white" stroke="#666666" points="110,-78 0,-78 0,-48 110,-48 110,-78"/>
<text text-anchor="start" x="8" y="-66" font-family="Times,serif" font-size="10.00">ttg::detail::get_out</text>
<text text-anchor="middle" x="55" y="-55" font-family="Times,serif" font-size="10.00">_base_terminal</text>
</a>
</g>
</g>
<!-- Node1&#45;&gt;Node2 -->
<g id="edge1_Node000001_Node000002" class="edge">
<title>Node1&#45;&gt;Node2</title>
<g id="a_edge1_Node000001_Node000002"><a xlink:title=" ">
<path fill="none" stroke="#63b8ff" d="M135.72,-51.04C127.09,-52.34 118.46,-53.63 110.25,-54.86"/>
<polygon fill="#63b8ff" stroke="#63b8ff" points="136.45,-54.47 145.82,-49.53 135.41,-47.55 136.45,-54.47"/>
</a>
</g>
</g>
<!-- Node3 -->
<g id="Node000003" class="node">
<title>Node3</title>
<g id="a_Node000003"><a xlink:href="namespacettg_1_1detail.html#a34fe30520697b631fc025a97b54f88b9" target="_top" xlink:title=" ">
<polygon fill="white" stroke="#666666" points="110,-30 0,-30 0,0 110,0 110,-30"/>
<text text-anchor="start" x="8" y="-18" font-family="Times,serif" font-size="10.00">ttg::detail::get_out</text>
<text text-anchor="middle" x="55" y="-7" font-family="Times,serif" font-size="10.00">_terminal</text>
</a>
</g>
</g>
<!-- Node1&#45;&gt;Node3 -->
<g id="edge2_Node000001_Node000003" class="edge">
<title>Node1&#45;&gt;Node3</title>
<g id="a_edge2_Node000001_Node000003"><a xlink:title=" ">
<path fill="none" stroke="#63b8ff" d="M135.72,-26.96C127.09,-25.66 118.46,-24.37 110.25,-23.14"/>
<polygon fill="#63b8ff" stroke="#63b8ff" points="135.41,-30.45 145.82,-28.47 136.45,-23.53 135.41,-30.45"/>
</a>
</g>
</g>
</g>
</svg>
