<?xml version="1.0" encoding="UTF-8" standalone="no"?>
<!DOCTYPE svg PUBLIC "-//W3C//DTD SVG 1.1//EN"
 "http://www.w3.org/Graphics/SVG/1.1/DTD/svg11.dtd">
<!-- Generated by graphviz version 2.43.0 (0)
 -->
<!-- Title: ttg::device::Device::id Pages: 1 -->
<svg width="426pt" height="60pt"
 viewBox="0.00 0.00 426.00 60.00" xmlns="http://www.w3.org/2000/svg" xmlns:xlink="http://www.w3.org/1999/xlink">

<svg id="main" version="1.1" xmlns="http://www.w3.org/2000/svg" xmlns:xlink="http://www.w3.org/1999/xlink" xml:space="preserve" onload="init(evt)">
<style type="text/css"><![CDATA[
.node, .edge {opacity: 0.7;}
.node.selected, .edge.selected {opacity: 1;}
.edge:hover path { stroke: red; }
.edge:hover polygon { stroke: red; fill: red; }
]]></style>
<script type="application/ecmascript" xlink:href="svg.min.js"/>
<svg id="graph" class="graph">
<g id="graph0" class="graph" transform="scale(1 1) rotate(0) translate(4 56)">
<title>ttg::device::Device::id</title>
<!-- Node1 -->
<g id="Node000001" class="node">
<title>Node1</title>
<g id="a_Node000001"><a xlink:title=" ">
<polygon fill="#999999" stroke="#666666" points="126,-24.5 0,-24.5 0,-5.5 126,-5.5 126,-24.5"/>
<text text-anchor="middle" x="63" y="-12.5" font-family="Times,serif" font-size="10.00">ttg::device::Device::id</text>
</a>
</g>
</g>
<!-- Node2 -->
<g id="Node000002" class="node">
<title>Node2</title>
<g id="a_Node000002"><a xlink:href="classttg_1_1device_1_1_device.html#a16a73248d5e812cf4df7d55458faafb4" target="_top" xlink:title=" ">
<polygon fill="white" stroke="#666666" points="272,-52 162,-52 162,-22 272,-22 272,-52"/>
<text text-anchor="start" x="170" y="-40" font-family="Times,serif" font-size="10.00">ttg::device::Device</text>
<text text-anchor="middle" x="217" y="-29" font-family="Times,serif" font-size="10.00">::is_host</text>
</a>
</g>
</g>
<!-- Node1&#45;&gt;Node2 -->
<g id="edge1_Node000001_Node000002" class="edge">
<title>Node1&#45;&gt;Node2</title>
<g id="a_edge1_Node000001_Node000002"><a xlink:title=" ">
<path fill="none" stroke="#63b8ff" d="M126.26,-24.01C134.66,-25.23 143.28,-26.47 151.71,-27.69"/>
<polygon fill="#63b8ff" stroke="#63b8ff" points="151.46,-31.2 161.86,-29.16 152.47,-24.27 151.46,-31.2"/>
</a>
</g>
</g>
<!-- Node3 -->
<g id="Node000003" class="node">
<title>Node3</title>
<g id="a_Node000003"><a xlink:href="classttg_1_1device_1_1_device.html#a979477b9cde8927f919c75754d4d8329" target="_top" xlink:title=" ">
<polygon fill="white" stroke="#666666" points="418,-30 308,-30 308,0 418,0 418,-30"/>
<text text-anchor="start" x="316" y="-18" font-family="Times,serif" font-size="10.00">ttg::device::Device</text>
<text text-anchor="middle" x="363" y="-7" font-family="Times,serif" font-size="10.00">::is_invalid</text>
</a>
</g>
</g>
<!-- Node1&#45;&gt;Node3 -->
<g id="edge3_Node000001_Node000003" class="edge">
<title>Node1&#45;&gt;Node3</title>
<g id="a_edge3_Node000001_Node000003"><a xlink:title=" ">
<path fill="none" stroke="#63b8ff" d="M126.21,-13.54C138.09,-13.31 150.43,-13.12 162,-13 210.89,-12.5 223.11,-12.46 272,-13 280.31,-13.09 289.06,-13.23 297.69,-13.4"/>
<polygon fill="#63b8ff" stroke="#63b8ff" points="297.68,-16.9 307.75,-13.6 297.82,-9.9 297.68,-16.9"/>
</a>
</g>
</g>
<!-- Node2&#45;&gt;Node3 -->
<g id="edge2_Node000002_Node000003" class="edge">
<title>Node2&#45;&gt;Node3</title>
<g id="a_edge2_Node000002_Node000003"><a xlink:title=" ">
<path fill="none" stroke="#63b8ff" d="M272.03,-28.75C280.4,-27.47 289.13,-26.13 297.7,-24.82"/>
<polygon fill="#63b8ff" stroke="#63b8ff" points="298.31,-28.27 307.67,-23.3 297.25,-21.35 298.31,-28.27"/>
</a>
</g>
</g>
</g>
</svg>
</svg>

<style type='text/css'>
<![CDATA[
[data-mouse-over-selected='false'] { opacity: 0.7; }
[data-mouse-over-selected='true']  { opacity: 1.0; }
]]>
</style>
<script type="application/ecmascript"><![CDATA[
document.addEventListener('DOMContentLoaded', (event) => {
  highlightEdges();
  highlightAdjacentNodes();
});
]]></script>
</svg>
