<?xml version="1.0" encoding="UTF-8" standalone="no"?>
<!DOCTYPE svg PUBLIC "-//W3C//DTD SVG 1.1//EN"
 "http://www.w3.org/Graphics/SVG/1.1/DTD/svg11.dtd">
<!-- Generated by graphviz version 2.43.0 (0)
 -->
<!-- Title: ttg_parsec::TT::get_from_pull_msg Pages: 1 -->
<svg width="434pt" height="140pt"
 viewBox="0.00 0.00 434.00 139.79" xmlns="http://www.w3.org/2000/svg" xmlns:xlink="http://www.w3.org/1999/xlink">
<g id="graph0" class="graph" transform="scale(1 1) rotate(0) translate(4 135.79)">
<title>ttg_parsec::TT::get_from_pull_msg</title>
<!-- Node1 -->
<g id="Node000001" class="node">
<title>Node1</title>
<g id="a_Node000001"><a xlink:title=" ">
<polygon fill="#999999" stroke="#666666" points="111,-79.5 0,-79.5 0,-49.5 111,-49.5 111,-79.5"/>
<text text-anchor="start" x="8" y="-67.5" font-family="Times,serif" font-size="10.00">ttg_parsec::TT::get</text>
<text text-anchor="middle" x="55.5" y="-56.5" font-family="Times,serif" font-size="10.00">_from_pull_msg</text>
</a>
</g>
</g>
<!-- Node2 -->
<g id="Node000002" class="node">
<title>Node2</title>
<g id="a_Node000002"><a xlink:href="classttg__parsec_1_1_t_t.html#aab59a1bf0fcc4f771457b5f05cb42741" target="_top" xlink:title=" ">
<polygon fill="white" stroke="#666666" points="426,-84 315,-84 315,-65 426,-65 426,-84"/>
<text text-anchor="middle" x="370.5" y="-72" font-family="Times,serif" font-size="10.00">ttg_parsec::TT::get</text>
</a>
</g>
</g>
<!-- Node1&#45;&gt;Node2 -->
<g id="edge1_Node000001_Node000002" class="edge">
<title>Node1&#45;&gt;Node2</title>
<g id="a_edge1_Node000001_Node000002"><a xlink:title=" ">
<path fill="none" stroke="#63b8ff" d="M74.12,-79.59C91.38,-93.3 119.1,-112.57 147,-120.5 203.43,-136.55 221.95,-134.17 279,-120.5 303.96,-114.52 329.81,-100.46 347.45,-89.45"/>
<polygon fill="#63b8ff" stroke="#63b8ff" points="349.37,-92.38 355.89,-84.02 345.58,-86.49 349.37,-92.38"/>
</a>
</g>
</g>
<!-- Node3 -->
<g id="Node000003" class="node">
<title>Node3</title>
<g id="a_Node000003"><a xlink:href="namespacettg_1_1meta.html#affd90f350d054c6a5b4859644d834172" target="_top" xlink:title=" ">
<polygon fill="white" stroke="#666666" points="255.5,-93 170.5,-93 170.5,-74 255.5,-74 255.5,-93"/>
<text text-anchor="middle" x="213" y="-81" font-family="Times,serif" font-size="10.00">ttg::meta::get</text>
</a>
</g>
</g>
<!-- Node1&#45;&gt;Node3 -->
<g id="edge3_Node000001_Node000003" class="edge">
<title>Node1&#45;&gt;Node3</title>
<g id="a_edge3_Node000001_Node000003"><a xlink:title=" ">
<path fill="none" stroke="#63b8ff" d="M111.32,-71.2C127.25,-73.14 144.58,-75.26 160.3,-77.18"/>
<polygon fill="#63b8ff" stroke="#63b8ff" points="160.02,-80.68 170.38,-78.41 160.87,-73.73 160.02,-80.68"/>
</a>
</g>
</g>
<!-- Node4 -->
<g id="Node000004" class="node">
<title>Node4</title>
<g id="a_Node000004"><a xlink:href="classttg__parsec_1_1_t_t.html#a29e98aa3ade3fef1b5d64da4ffadea7e" target="_top" xlink:title=" ">
<polygon fill="white" stroke="#666666" points="265,-56 161,-56 161,-37 265,-37 265,-56"/>
<text text-anchor="middle" x="213" y="-44" font-family="Times,serif" font-size="10.00">ttg_parsec::TT::in</text>
</a>
</g>
</g>
<!-- Node1&#45;&gt;Node4 -->
<g id="edge5_Node000001_Node000004" class="edge">
<title>Node1&#45;&gt;Node4</title>
<g id="a_edge5_Node000001_Node000004"><a xlink:title=" ">
<path fill="none" stroke="#63b8ff" d="M111.32,-58.15C124.02,-56.68 137.61,-55.11 150.57,-53.61"/>
<polygon fill="#63b8ff" stroke="#63b8ff" points="151.26,-57.05 160.79,-52.43 150.46,-50.1 151.26,-57.05"/>
</a>
</g>
</g>
<!-- Node5 -->
<g id="Node000005" class="node">
<title>Node5</title>
<g id="a_Node000005"><a xlink:href="classttg__parsec_1_1_t_t.html#aa36be4d28cc80665afc2e2d521e4ab72" target="_top" xlink:title=" ">
<polygon fill="white" stroke="#666666" points="279,-19 147,-19 147,0 279,0 279,-19"/>
<text text-anchor="middle" x="213" y="-7" font-family="Times,serif" font-size="10.00">ttg_parsec::TT::unpack</text>
</a>
</g>
</g>
<!-- Node1&#45;&gt;Node5 -->
<g id="edge6_Node000001_Node000005" class="edge">
<title>Node1&#45;&gt;Node5</title>
<g id="a_edge6_Node000001_Node000005"><a xlink:title=" ">
<path fill="none" stroke="#63b8ff" d="M92.32,-49.35C108.83,-42.6 128.77,-34.77 147,-28.5 153.5,-26.26 160.42,-24.06 167.23,-21.99"/>
<polygon fill="#63b8ff" stroke="#63b8ff" points="168.48,-25.26 177.06,-19.06 166.48,-18.56 168.48,-25.26"/>
</a>
</g>
</g>
<!-- Node2&#45;&gt;Node2 -->
<g id="edge2_Node000002_Node000002" class="edge">
<title>Node2&#45;&gt;Node2</title>
<g id="a_edge2_Node000002_Node000002"><a xlink:title=" ">
<path fill="none" stroke="#63b8ff" d="M346.46,-84.08C334.76,-92.73 342.77,-102 370.5,-102 388.7,-102 398.4,-98.01 399.62,-92.82"/>
<polygon fill="#63b8ff" stroke="#63b8ff" points="402.59,-90.97 394.54,-84.08 396.54,-94.49 402.59,-90.97"/>
</a>
</g>
</g>
<!-- Node3&#45;&gt;Node3 -->
<g id="edge4_Node000003_Node000003" class="edge">
<title>Node3&#45;&gt;Node3</title>
<g id="a_edge4_Node000003_Node000003"><a xlink:title=" ">
<path fill="none" stroke="#63b8ff" d="M188.96,-93.08C177.26,-101.73 185.27,-111 213,-111 231.2,-111 240.9,-107.01 242.12,-101.82"/>
<polygon fill="#63b8ff" stroke="#63b8ff" points="245.09,-99.97 237.04,-93.08 239.04,-103.49 245.09,-99.97"/>
</a>
</g>
</g>
<!-- Node5&#45;&gt;Node2 -->
<g id="edge7_Node000005_Node000002" class="edge">
<title>Node5&#45;&gt;Node2</title>
<g id="a_edge7_Node000005_Node000002"><a xlink:title=" ">
<path fill="none" stroke="#63b8ff" d="M251.18,-19.08C260.39,-21.8 270.15,-24.99 279,-28.5 301.53,-37.43 325.98,-50.04 343.77,-59.8"/>
<polygon fill="#63b8ff" stroke="#63b8ff" points="342.48,-63.09 352.92,-64.89 345.88,-56.97 342.48,-63.09"/>
</a>
</g>
</g>
</g>
</svg>
