<?xml version="1.0" encoding="UTF-8" standalone="no"?>
<!DOCTYPE svg PUBLIC "-//W3C//DTD SVG 1.1//EN"
 "http://www.w3.org/Graphics/SVG/1.1/DTD/svg11.dtd">
<!-- Generated by graphviz version 2.43.0 (0)
 -->
<!-- Title: ttg::BinaryTreeReduce::op Pages: 1 -->
<!--zoomable 380 -->

<svg id="main" version="1.1" xmlns="http://www.w3.org/2000/svg" xmlns:xlink="http://www.w3.org/1999/xlink" xml:space="preserve" onload="init(evt)">
<style type="text/css"><![CDATA[
.node, .edge {opacity: 0.7;}
.node.selected, .edge.selected {opacity: 1;}
.edge:hover path { stroke: red; }
.edge:hover polygon { stroke: red; fill: red; }
]]></style>

<defs>
  <circle id="rim" cx="0" cy="0" r="7"/>
  <circle id="rim2" cx="0" cy="0" r="3.5"/>
  <g id="zoomPlus">
    <use xlink:href="#rim" fill="#404040"><set attributeName="fill" to="#808080" begin="zoomplus.mouseover" end="zoomplus.mouseout"/></use>
    <path d="M-4,0h8M0,-4v8" fill="none" stroke="white" stroke-width="1.5" pointer-events="none"/>
  </g>
  <g id="zoomMin">
    <use xlink:href="#rim" fill="#404040"><set attributeName="fill" to="#808080" begin="zoomminus.mouseover" end="zoomminus.mouseout"/></use>
    <path d="M-4,0h8" fill="none" stroke="white" stroke-width="1.5" pointer-events="none"/>
  </g>
  <g id="arrowUp" transform="translate(30 24)">
    <use xlink:href="#rim"/>
    <path pointer-events="none" fill="none" stroke="white" stroke-width="1.5" d="M0,-3.0v7 M-2.5,-0.5L0,-3.0L2.5,-0.5"/>
  </g>
  <g id="arrowRight" transform="rotate(90) translate(36 -43)">
    <use xlink:href="#rim"/>
    <path pointer-events="none" fill="none" stroke="white" stroke-width="1.5" d="M0,-3.0v7 M-2.5,-0.5L0,-3.0L2.5,-0.5"/>
  </g>
  <g id="arrowDown" transform="rotate(180) translate(-30 -48)">
    <use xlink:href="#rim"/>
    <path pointer-events="none" fill="none" stroke="white" stroke-width="1.5" d="M0,-3.0v7 M-2.5,-0.5L0,-3.0L2.5,-0.5"/>
  </g>
  <g id="arrowLeft" transform="rotate(270) translate(-36 17)">
    <use xlink:href="#rim"/>
    <path pointer-events="none" fill="none" stroke="white" stroke-width="1.5" d="M0,-3.0v7 M-2.5,-0.5L0,-3.0L2.5,-0.5"/>
  </g>
  <g id="resetDef">
    <use xlink:href="#rim2" fill="#404040"><set attributeName="fill" to="#808080" begin="reset.mouseover" end="reset.mouseout"/></use>
  </g>
</defs>
<script type="application/ecmascript">
var viewWidth = 596;
var viewHeight = 380;
var sectionId = 'dynsection-2';
</script>
<script type="application/ecmascript" xlink:href="svg.min.js"/>
<svg id="graph" class="graph">
<g id="viewport">
<title>ttg::BinaryTreeReduce::op</title>
<!-- Node1 -->
<g id="Node000001" class="node">
<title>Node1</title>
<g id="a_Node000001"><a xlink:title=" ">
<polygon fill="#999999" stroke="#666666" points="151,-197.5 0,-197.5 0,-178.5 151,-178.5 151,-197.5"/>
<text text-anchor="middle" x="75.5" y="-185.5" font-family="Times,serif" font-size="10.00">ttg::BinaryTreeReduce::op</text>
</a>
</g>
</g>
<!-- Node2 -->
<g id="Node000002" class="node">
<title>Node2</title>
<g id="a_Node000002"><a xlink:href="classttg_1_1_binary_spanning_tree.html#a622b8d511132839777fabfb8d71c8c12" target="_top" xlink:title=" ">
<polygon fill="white" stroke="#666666" points="369.5,-372 226.5,-372 226.5,-342 369.5,-342 369.5,-372"/>
<text text-anchor="start" x="234.5" y="-360" font-family="Times,serif" font-size="10.00">ttg::BinarySpanningTree</text>
<text text-anchor="middle" x="298" y="-349" font-family="Times,serif" font-size="10.00">::child_keys</text>
</a>
</g>
</g>
<!-- Node1&#45;&gt;Node2 -->
<g id="edge1_Node000001_Node000002" class="edge">
<title>Node1&#45;&gt;Node2</title>
<g id="a_edge1_Node000001_Node000002"><a xlink:title=" ">
<path fill="none" stroke="#63b8ff" d="M81.2,-197.56C94.23,-223.01 133.39,-292.86 187,-328 196.04,-333.93 206.25,-338.64 216.7,-342.4"/>
<polygon fill="#63b8ff" stroke="#63b8ff" points="215.76,-345.77 226.35,-345.59 217.95,-339.13 215.76,-345.77"/>
</a>
</g>
</g>
<!-- Node3 -->
<g id="Node000003" class="node">
<title>Node3</title>
<g id="a_Node000003"><a xlink:href="classttg_1_1_binary_spanning_tree.html#a31c570498d5fa0e40944ef57ccfc8ef1" target="_top" xlink:title=" ">
<polygon fill="white" stroke="#666666" points="588,-350 445,-350 445,-320 588,-320 588,-350"/>
<text text-anchor="start" x="453" y="-338" font-family="Times,serif" font-size="10.00">ttg::BinarySpanningTree</text>
<text text-anchor="middle" x="516.5" y="-327" font-family="Times,serif" font-size="10.00">::parent_key</text>
</a>
</g>
</g>
<!-- Node1&#45;&gt;Node3 -->
<g id="edge6_Node000001_Node000003" class="edge">
<title>Node1&#45;&gt;Node3</title>
<g id="a_edge6_Node000001_Node000003"><a xlink:title=" ">
<path fill="none" stroke="#63b8ff" d="M83.13,-197.82C98.47,-219.63 138.8,-272 187,-295 229.43,-315.25 351.89,-325.96 434.69,-331.05"/>
<polygon fill="#63b8ff" stroke="#63b8ff" points="434.65,-334.55 444.84,-331.65 435.07,-327.56 434.65,-334.55"/>
</a>
</g>
</g>
<!-- Node4 -->
<g id="Node000004" class="node">
<title>Node4</title>
<g id="a_Node000004"><a xlink:href="classttg__parsec_1_1_t_t.html#aab59a1bf0fcc4f771457b5f05cb42741" target="_top" xlink:title=" ">
<polygon fill="white" stroke="#666666" points="409,-285.5 187,-285.5 187,-200.5 409,-200.5 409,-285.5"/>
<text text-anchor="start" x="195" y="-273.5" font-family="Times,serif" font-size="10.00">ttg_parsec::TT&lt; int,</text>
<text text-anchor="start" x="195" y="-262.5" font-family="Times,serif" font-size="10.00"> std::tuple&lt; Out&lt; int,</text>
<text text-anchor="start" x="195" y="-251.5" font-family="Times,serif" font-size="10.00"> Value &gt;, Out&lt; int, Value</text>
<text text-anchor="start" x="195" y="-240.5" font-family="Times,serif" font-size="10.00"> &gt;, Out&lt; int, Value &gt;, Out</text>
<text text-anchor="start" x="195" y="-229.5" font-family="Times,serif" font-size="10.00">&lt; OutKey, Value &gt; &gt;, BinaryTreeReduce</text>
<text text-anchor="start" x="195" y="-218.5" font-family="Times,serif" font-size="10.00">&lt; Value, BinaryOp, OutKey &gt;, ttg</text>
<text text-anchor="middle" x="298" y="-207.5" font-family="Times,serif" font-size="10.00">::typelist&lt; Value, Value, Value &gt; &gt;::get</text>
</a>
</g>
</g>
<!-- Node1&#45;&gt;Node4 -->
<g id="edge4_Node000001_Node000004" class="edge">
<title>Node1&#45;&gt;Node4</title>
<g id="a_edge4_Node000001_Node000004"><a xlink:title=" ">
<path fill="none" stroke="#63b8ff" d="M114.66,-197.52C132.34,-201.93 154.44,-207.44 177.09,-213.09"/>
<polygon fill="#63b8ff" stroke="#63b8ff" points="176.26,-216.49 186.81,-215.52 177.96,-209.7 176.26,-216.49"/>
</a>
</g>
</g>
<!-- Node5 -->
<g id="Node000005" class="node">
<title>Node5</title>
<g id="a_Node000005"><a xlink:href="classttg__parsec_1_1_t_t.html#a0b6df5b0372c3a8819ecf15f2f3bc0b0" target="_top" xlink:title=" ">
<polygon fill="white" stroke="#666666" points="409,-182 187,-182 187,-86 409,-86 409,-182"/>
<text text-anchor="start" x="195" y="-170" font-family="Times,serif" font-size="10.00">ttg_parsec::TT&lt; int,</text>
<text text-anchor="start" x="195" y="-159" font-family="Times,serif" font-size="10.00"> std::tuple&lt; Out&lt; int,</text>
<text text-anchor="start" x="195" y="-148" font-family="Times,serif" font-size="10.00"> Value &gt;, Out&lt; int, Value</text>
<text text-anchor="start" x="195" y="-137" font-family="Times,serif" font-size="10.00"> &gt;, Out&lt; int, Value &gt;, Out</text>
<text text-anchor="start" x="195" y="-126" font-family="Times,serif" font-size="10.00">&lt; OutKey, Value &gt; &gt;, BinaryTreeReduce</text>
<text text-anchor="start" x="195" y="-115" font-family="Times,serif" font-size="10.00">&lt; Value, BinaryOp, OutKey &gt;, ttg</text>
<text text-anchor="start" x="195" y="-104" font-family="Times,serif" font-size="10.00">::typelist&lt; Value, Value, Value &gt;</text>
<text text-anchor="middle" x="298" y="-93" font-family="Times,serif" font-size="10.00"> &gt;::get_world</text>
</a>
</g>
</g>
<!-- Node1&#45;&gt;Node5 -->
<g id="edge5_Node000001_Node000005" class="edge">
<title>Node1&#45;&gt;Node5</title>
<g id="a_edge5_Node000001_Node000005"><a xlink:title=" ">
<path fill="none" stroke="#63b8ff" d="M115.41,-178.47C132.97,-174.17 154.75,-168.84 177.07,-163.37"/>
<polygon fill="#63b8ff" stroke="#63b8ff" points="178.12,-166.72 187,-160.94 176.45,-159.92 178.12,-166.72"/>
</a>
</g>
</g>
<!-- Node6 -->
<g id="Node000006" class="node">
<title>Node6</title>
<g id="a_Node000006"><a xlink:href="namespacettg.html#ac0ad1dd3b87329e4acf9774df6dc8473" target="_top" xlink:title=" ">
<polygon fill="white" stroke="#666666" points="328,-67.5 268,-67.5 268,-48.5 328,-48.5 328,-67.5"/>
<text text-anchor="middle" x="298" y="-55.5" font-family="Times,serif" font-size="10.00">ttg::rank</text>
</a>
</g>
</g>
<!-- Node1&#45;&gt;Node6 -->
<g id="edge7_Node000001_Node000006" class="edge">
<title>Node1&#45;&gt;Node6</title>
<g id="a_edge7_Node000001_Node000006"><a xlink:title=" ">
<path fill="none" stroke="#63b8ff" d="M82.89,-178.32C98.04,-156.26 138.5,-102.21 187,-77 208.72,-65.71 235.79,-60.93 257.64,-58.99"/>
<polygon fill="#63b8ff" stroke="#63b8ff" points="258.18,-62.47 267.9,-58.25 257.68,-55.48 258.18,-62.47"/>
</a>
</g>
</g>
<!-- Node7 -->
<g id="Node000007" class="node">
<title>Node7</title>
<g id="a_Node000007"><a xlink:href="classttg_1_1_binary_spanning_tree.html#a50317fa104da9be95076c49adba9e842" target="_top" xlink:title=" ">
<polygon fill="white" stroke="#666666" points="369.5,-30 226.5,-30 226.5,0 369.5,0 369.5,-30"/>
<text text-anchor="start" x="234.5" y="-18" font-family="Times,serif" font-size="10.00">ttg::BinarySpanningTree</text>
<text text-anchor="middle" x="298" y="-7" font-family="Times,serif" font-size="10.00">::size</text>
</a>
</g>
</g>
<!-- Node1&#45;&gt;Node7 -->
<g id="edge8_Node000001_Node000007" class="edge">
<title>Node1&#45;&gt;Node7</title>
<g id="a_edge8_Node000001_Node000007"><a xlink:title=" ">
<path fill="none" stroke="#63b8ff" d="M80.8,-178.18C93.08,-151.34 131.08,-76.35 187,-40 195.99,-34.16 206.16,-29.67 216.6,-26.22"/>
<polygon fill="#63b8ff" stroke="#63b8ff" points="217.66,-29.56 226.24,-23.35 215.66,-22.85 217.66,-29.56"/>
</a>
</g>
</g>
<!-- Node2&#45;&gt;Node3 -->
<g id="edge2_Node000002_Node000003" class="edge">
<title>Node2&#45;&gt;Node3</title>
<g id="a_edge2_Node000002_Node000003"><a xlink:title=" ">
<path fill="none" stroke="#63b8ff" d="M369.59,-349.83C390.36,-347.72 413.25,-345.39 434.61,-343.22"/>
<polygon fill="#63b8ff" stroke="#63b8ff" points="435.04,-346.69 444.63,-342.2 434.33,-339.73 435.04,-346.69"/>
</a>
</g>
</g>
<!-- Node3&#45;&gt;Node3 -->
<g id="edge3_Node000003_Node000003" class="edge">
<title>Node3&#45;&gt;Node3</title>
<g id="a_edge3_Node000003_Node000003"><a xlink:title=" ">
<path fill="none" stroke="#63b8ff" d="M478.18,-350.28C469.66,-359.41 482.44,-368 516.5,-368 536.72,-368 549.44,-364.97 554.66,-360.6"/>
<polygon fill="#63b8ff" stroke="#63b8ff" points="558.16,-360.33 554.82,-350.28 551.16,-360.22 558.16,-360.33"/>
</a>
</g>
</g>
</g>
</svg>

<g id="navigator" transform="translate(0 0)" fill="#404254">
  <rect fill="#f2f5e9" fill-opacity="0.5" stroke="#606060" stroke-width=".5" x="0" y="0" width="60" height="60"/>
  <use id="zoomplus" xlink:href="#zoomPlus" x="17" y="9" onmousedown="handleZoom(evt,'in')"/>
  <use id="zoomminus" xlink:href="#zoomMin" x="42" y="9" onmousedown="handleZoom(evt,'out')"/>
  <use id="reset" xlink:href="#resetDef" x="30" y="36" onmousedown="handleReset()"/>
   <use id="arrowup" xlink:href="#arrowUp" x="0" y="0" onmousedown="handlePan(0,-1)"/>
  <use id="arrowright" xlink:href="#arrowRight" x="0" y="0" onmousedown="handlePan(1,0)"/>
  <use id="arrowdown" xlink:href="#arrowDown" x="0" y="0" onmousedown="handlePan(0,1)"/>
  <use id="arrowleft" xlink:href="#arrowLeft" x="0" y="0" onmousedown="handlePan(-1,0)"/>
</g>
<svg viewBox="0 0 15 15" width="100%" height="30px" preserveAspectRatio="xMaxYMin meet">
 <g id="arrow_out" transform="scale(0.3 0.3)">
  <a xlink:href="classttg_1_1_binary_tree_reduce_adec52e1e033aef60a708faf752768360_cgraph_org.svg" target="_base">
   <rect id="button" ry="5" rx="5" y="6" x="6" height="38" width="38"
        fill="#f2f5e9" fill-opacity="0.5" stroke="#606060" stroke-width="1.0"/>
   <path id="arrow"
     d="M 11.500037,31.436501 C 11.940474,20.09759 22.043105,11.32322 32.158766,21.979434 L 37.068811,17.246167 C 37.068811,17.246167 37.088388,32 37.088388,32 L 22.160133,31.978069 C 22.160133,31.978069 26.997745,27.140456 26.997745,27.140456 C 18.528582,18.264221 13.291696,25.230495 11.500037,31.436501 z"
     style="fill:#404040;"/>
  </a>
 </g>
</svg>

<style type='text/css'>
<![CDATA[
[data-mouse-over-selected='false'] { opacity: 0.7; }
[data-mouse-over-selected='true']  { opacity: 1.0; }
]]>
</style>
<script type="application/ecmascript"><![CDATA[
document.addEventListener('DOMContentLoaded', (event) => {
  highlightEdges();
  highlightAdjacentNodes();
});
]]></script>
</svg>
