<?xml version="1.0" encoding="UTF-8" standalone="no"?>
<!DOCTYPE svg PUBLIC "-//W3C//DTD SVG 1.1//EN"
 "http://www.w3.org/Graphics/SVG/1.1/DTD/svg11.dtd">
<!-- Generated by graphviz version 2.43.0 (0)
 -->
<!-- Title: ttg_parsec::TT::pack Pages: 1 -->
<svg width="330pt" height="220pt"
 viewBox="0.00 0.00 330.00 219.50" xmlns="http://www.w3.org/2000/svg" xmlns:xlink="http://www.w3.org/1999/xlink">
<g id="graph0" class="graph" transform="scale(1 1) rotate(0) translate(4 215.5)">
<title>ttg_parsec::TT::pack</title>
<!-- Node1 -->
<g id="Node000001" class="node">
<title>Node1</title>
<g id="a_Node000001"><a xlink:title=" ">
<polygon fill="#999999" stroke="#666666" points="322,-120.5 203,-120.5 203,-101.5 322,-101.5 322,-120.5"/>
<text text-anchor="middle" x="262.5" y="-108.5" font-family="Times,serif" font-size="10.00">ttg_parsec::TT::pack</text>
</a>
</g>
</g>
<!-- Node2 -->
<g id="Node000002" class="node">
<title>Node2</title>
<g id="a_Node000002"><a xlink:href="classttg__parsec_1_1_t_t.html#ab267d50d29a8a845a5578f67d6c75f2a" target="_top" xlink:title=" ">
<polygon fill="white" stroke="#666666" points="167,-211.5 0,-211.5 0,-192.5 167,-192.5 167,-211.5"/>
<text text-anchor="middle" x="83.5" y="-199.5" font-family="Times,serif" font-size="10.00">ttg_parsec::TT::broadcast_arg</text>
</a>
</g>
</g>
<!-- Node1&#45;&gt;Node2 -->
<g id="edge1_Node000001_Node000002" class="edge">
<title>Node1&#45;&gt;Node2</title>
<g id="a_edge1_Node000001_Node000002"><a xlink:title=" ">
<path fill="none" stroke="#63b8ff" d="M244.64,-127.47C226.8,-143.96 197.12,-168.87 167,-183 158.75,-186.87 149.66,-189.98 140.61,-192.47"/>
<polygon fill="#63b8ff" stroke="#63b8ff" points="247.09,-129.96 251.96,-120.55 242.28,-124.87 247.09,-129.96"/>
</a>
</g>
</g>
<!-- Node3 -->
<g id="Node000003" class="node">
<title>Node3</title>
<g id="a_Node000003"><a xlink:href="classttg__parsec_1_1_t_t.html#affca736b8369f0dd02c251dcbdb3974f" target="_top" xlink:title="finalizes stream for input i">
<polygon fill="white" stroke="#666666" points="149,-174 18,-174 18,-144 149,-144 149,-174"/>
<text text-anchor="start" x="26" y="-162" font-family="Times,serif" font-size="10.00">ttg_parsec::TT::finalize</text>
<text text-anchor="middle" x="83.5" y="-151" font-family="Times,serif" font-size="10.00">_argstream</text>
</a>
</g>
</g>
<!-- Node1&#45;&gt;Node3 -->
<g id="edge2_Node000001_Node000003" class="edge">
<title>Node1&#45;&gt;Node3</title>
<g id="a_edge2_Node000001_Node000003"><a xlink:title=" ">
<path fill="none" stroke="#63b8ff" d="M216.18,-123.29C192.99,-129.58 164.55,-137.29 140.04,-143.94"/>
<polygon fill="#63b8ff" stroke="#63b8ff" points="217.37,-126.59 226.11,-120.6 215.54,-119.84 217.37,-126.59"/>
</a>
</g>
</g>
<!-- Node4 -->
<g id="Node000004" class="node">
<title>Node4</title>
<g id="a_Node000004"><a xlink:href="classttg__parsec_1_1_t_t.html#af647004ce89dc81d1202dd68070f0bde" target="_top" xlink:title=" ">
<polygon fill="white" stroke="#666666" points="138.5,-126 28.5,-126 28.5,-96 138.5,-96 138.5,-126"/>
<text text-anchor="start" x="36.5" y="-114" font-family="Times,serif" font-size="10.00">ttg_parsec::TT::set</text>
<text text-anchor="middle" x="83.5" y="-103" font-family="Times,serif" font-size="10.00">_arg_impl</text>
</a>
</g>
</g>
<!-- Node1&#45;&gt;Node4 -->
<g id="edge3_Node000001_Node000004" class="edge">
<title>Node1&#45;&gt;Node4</title>
<g id="a_edge3_Node000001_Node000004"><a xlink:title=" ">
<path fill="none" stroke="#63b8ff" d="M192.24,-111C174.46,-111 155.6,-111 138.7,-111"/>
<polygon fill="#63b8ff" stroke="#63b8ff" points="192.56,-114.5 202.56,-111 192.56,-107.5 192.56,-114.5"/>
</a>
</g>
</g>
<!-- Node5 -->
<g id="Node000005" class="node">
<title>Node5</title>
<g id="a_Node000005"><a xlink:href="classttg__parsec_1_1_t_t.html#af31b0b9c87c00dc31edfe4e6fa040442" target="_top" xlink:title=" ">
<polygon fill="white" stroke="#666666" points="138.5,-78 28.5,-78 28.5,-48 138.5,-48 138.5,-78"/>
<text text-anchor="start" x="36.5" y="-66" font-family="Times,serif" font-size="10.00">ttg_parsec::TT::set</text>
<text text-anchor="middle" x="83.5" y="-55" font-family="Times,serif" font-size="10.00">_argstream_size</text>
</a>
</g>
</g>
<!-- Node1&#45;&gt;Node5 -->
<g id="edge4_Node000001_Node000005" class="edge">
<title>Node1&#45;&gt;Node5</title>
<g id="a_edge4_Node000001_Node000005"><a xlink:title=" ">
<path fill="none" stroke="#63b8ff" d="M216.33,-98.75C192.67,-92.34 163.53,-84.43 138.67,-77.69"/>
<polygon fill="#63b8ff" stroke="#63b8ff" points="215.54,-102.16 226.11,-101.4 217.37,-95.41 215.54,-102.16"/>
</a>
</g>
</g>
<!-- Node6 -->
<g id="Node000006" class="node">
<title>Node6</title>
<g id="a_Node000006"><a xlink:href="classttg__parsec_1_1_t_t.html#a5fba67769a0b313eb4548d311e0e632d" target="_top" xlink:title=" ">
<polygon fill="white" stroke="#666666" points="138.5,-30 28.5,-30 28.5,0 138.5,0 138.5,-30"/>
<text text-anchor="start" x="36.5" y="-18" font-family="Times,serif" font-size="10.00">ttg_parsec::TT::set</text>
<text text-anchor="middle" x="83.5" y="-7" font-family="Times,serif" font-size="10.00">_argstream_size</text>
</a>
</g>
</g>
<!-- Node1&#45;&gt;Node6 -->
<g id="edge5_Node000001_Node000006" class="edge">
<title>Node1&#45;&gt;Node6</title>
<g id="a_edge5_Node000001_Node000006"><a xlink:title=" ">
<path fill="none" stroke="#63b8ff" d="M244.18,-94.62C226.17,-78.4 196.55,-53.9 167,-39 158.21,-34.57 148.47,-30.82 138.85,-27.71"/>
<polygon fill="#63b8ff" stroke="#63b8ff" points="241.85,-97.24 251.59,-101.42 246.59,-92.08 241.85,-97.24"/>
</a>
</g>
</g>
</g>
</svg>
