<?xml version="1.0" encoding="UTF-8" standalone="no"?>
<!DOCTYPE svg PUBLIC "-//W3C//DTD SVG 1.1//EN"
 "http://www.w3.org/Graphics/SVG/1.1/DTD/svg11.dtd">
<!-- Generated by graphviz version 2.43.0 (0)
 -->
<!-- Title: ttg::device::Device::is_invalid Pages: 1 -->
<svg width="889pt" height="519pt"
 viewBox="0.00 0.00 889.00 518.93" xmlns="http://www.w3.org/2000/svg" xmlns:xlink="http://www.w3.org/1999/xlink">
<g id="graph0" class="graph" transform="scale(1 1) rotate(0) translate(4 514.93)">
<title>ttg::device::Device::is_invalid</title>
<!-- Node1 -->
<g id="Node000001" class="node">
<title>Node1</title>
<g id="a_Node000001"><a xlink:title=" ">
<polygon fill="#999999" stroke="#666666" points="881,-252.93 771,-252.93 771,-222.93 881,-222.93 881,-252.93"/>
<text text-anchor="start" x="779" y="-240.93" font-family="Times,serif" font-size="10.00">ttg::device::Device</text>
<text text-anchor="middle" x="826" y="-229.93" font-family="Times,serif" font-size="10.00">::is_invalid</text>
</a>
</g>
</g>
<!-- Node2 -->
<g id="Node000002" class="node">
<title>Node2</title>
<g id="a_Node000002"><a xlink:href="classttg_1_1device_1_1_device.html#acf0992ecbfbc2c91de0452122b06fe81" target="_top" xlink:title=" ">
<polygon fill="white" stroke="#666666" points="589,-269.43 463,-269.43 463,-250.43 589,-250.43 589,-269.43"/>
<text text-anchor="middle" x="526" y="-257.43" font-family="Times,serif" font-size="10.00">ttg::device::Device::id</text>
</a>
</g>
</g>
<!-- Node1&#45;&gt;Node2 -->
<g id="edge1_Node000001_Node000002" class="edge">
<title>Node1&#45;&gt;Node2</title>
<g id="a_edge1_Node000001_Node000002"><a xlink:title=" ">
<path fill="none" stroke="#63b8ff" d="M760.48,-242.69C709.7,-246.44 639.35,-251.63 589.18,-255.34"/>
<polygon fill="#63b8ff" stroke="#63b8ff" points="760.97,-246.16 770.69,-241.94 760.46,-239.18 760.97,-246.16"/>
</a>
</g>
</g>
<!-- Node16 -->
<g id="Node000016" class="node">
<title>Node16</title>
<g id="a_Node000016"><a xlink:href="classttg_1_1device_1_1_device.html#a16a73248d5e812cf4df7d55458faafb4" target="_top" xlink:title=" ">
<polygon fill="white" stroke="#666666" points="735,-231.93 625,-231.93 625,-201.93 735,-201.93 735,-231.93"/>
<text text-anchor="start" x="633" y="-219.93" font-family="Times,serif" font-size="10.00">ttg::device::Device</text>
<text text-anchor="middle" x="680" y="-208.93" font-family="Times,serif" font-size="10.00">::is_host</text>
</a>
</g>
</g>
<!-- Node1&#45;&gt;Node16 -->
<g id="edge17_Node000001_Node000016" class="edge">
<title>Node1&#45;&gt;Node16</title>
<g id="a_edge17_Node000001_Node000016"><a xlink:title=" ">
<path fill="none" stroke="#63b8ff" d="M761.01,-228.59C752.44,-227.34 743.72,-226.07 735.33,-224.85"/>
<polygon fill="#63b8ff" stroke="#63b8ff" points="760.57,-232.07 770.97,-230.05 761.58,-225.14 760.57,-232.07"/>
</a>
</g>
</g>
<!-- Node3 -->
<g id="Node000003" class="node">
<title>Node3</title>
<g id="a_Node000003"><a xlink:href="classttg_1_1device_1_1_device.html#a5338c49397786a569fe0324b29f48af4" target="_top" xlink:title=" ">
<polygon fill="white" stroke="#666666" points="417.5,-356.93 307.5,-356.93 307.5,-326.93 417.5,-326.93 417.5,-356.93"/>
<text text-anchor="start" x="315.5" y="-344.93" font-family="Times,serif" font-size="10.00">ttg::device::Device</text>
<text text-anchor="middle" x="362.5" y="-333.93" font-family="Times,serif" font-size="10.00">::operator int</text>
</a>
</g>
</g>
<!-- Node2&#45;&gt;Node3 -->
<g id="edge2_Node000002_Node000003" class="edge">
<title>Node2&#45;&gt;Node3</title>
<g id="a_edge2_Node000002_Node000003"><a xlink:title=" ">
<path fill="none" stroke="#63b8ff" d="M502,-275.08C482.53,-287.53 453.61,-305.14 427,-317.93 420.41,-321.09 413.29,-324.13 406.28,-326.92"/>
<polygon fill="#63b8ff" stroke="#63b8ff" points="504,-277.96 510.5,-269.59 500.2,-272.08 504,-277.96"/>
</a>
</g>
</g>
<!-- Node4 -->
<g id="Node000004" class="node">
<title>Node4</title>
<g id="a_Node000004"><a xlink:href="namespacestd.html#a23678c41a80c407b186771df978f2a24" target="_top" xlink:title=" ">
<polygon fill="white" stroke="#666666" points="411.5,-249.43 313.5,-249.43 313.5,-230.43 411.5,-230.43 411.5,-249.43"/>
<text text-anchor="middle" x="362.5" y="-237.43" font-family="Times,serif" font-size="10.00">std::operator&lt;&lt;</text>
</a>
</g>
</g>
<!-- Node2&#45;&gt;Node4 -->
<g id="edge3_Node000002_Node000004" class="edge">
<title>Node2&#45;&gt;Node4</title>
<g id="a_edge3_Node000002_Node000004"><a xlink:title=" ">
<path fill="none" stroke="#63b8ff" d="M452.57,-250.96C438.75,-249.24 424.59,-247.49 411.75,-245.9"/>
<polygon fill="#63b8ff" stroke="#63b8ff" points="452.21,-254.44 462.56,-252.19 453.07,-247.49 452.21,-254.44"/>
</a>
</g>
</g>
<!-- Node5 -->
<g id="Node000005" class="node">
<title>Node5</title>
<g id="a_Node000005"><a xlink:href="namespacettg__parsec_1_1detail.html#a4e193da802fd145fa18041dd40ad7df9" target="_top" xlink:title=" ">
<polygon fill="white" stroke="#666666" points="427,-308.43 298,-308.43 298,-267.43 427,-267.43 427,-308.43"/>
<text text-anchor="start" x="306" y="-296.43" font-family="Times,serif" font-size="10.00">ttg_parsec::detail</text>
<text text-anchor="start" x="306" y="-285.43" font-family="Times,serif" font-size="10.00">::ttg_device_to_parsec</text>
<text text-anchor="middle" x="362.5" y="-274.43" font-family="Times,serif" font-size="10.00">_device</text>
</a>
</g>
</g>
<!-- Node2&#45;&gt;Node5 -->
<g id="edge4_Node000002_Node000005" class="edge">
<title>Node2&#45;&gt;Node5</title>
<g id="a_edge4_Node000002_Node000005"><a xlink:title=" ">
<path fill="none" stroke="#63b8ff" d="M459.75,-271.24C449.04,-273.1 437.95,-275.02 427.28,-276.87"/>
<polygon fill="#63b8ff" stroke="#63b8ff" points="460.62,-274.64 469.87,-269.48 459.42,-267.74 460.62,-274.64"/>
</a>
</g>
</g>
<!-- Node6 -->
<g id="Node000006" class="node">
<title>Node6</title>
<g id="a_Node000006"><a xlink:href="structttg__parsec_1_1_buffer.html#aa172f84d2b71ad72b065bf2973b47ca4" target="_top" xlink:title=" ">
<polygon fill="white" stroke="#666666" points="107,-397.93 0,-397.93 0,-367.93 107,-367.93 107,-397.93"/>
<text text-anchor="start" x="8" y="-385.93" font-family="Times,serif" font-size="10.00">ttg_parsec::Buffer</text>
<text text-anchor="middle" x="53.5" y="-374.93" font-family="Times,serif" font-size="10.00">::add_device</text>
</a>
</g>
</g>
<!-- Node5&#45;&gt;Node6 -->
<g id="edge5_Node000005_Node000006" class="edge">
<title>Node5&#45;&gt;Node6</title>
<g id="a_edge5_Node000005_Node000006"><a xlink:title=" ">
<path fill="none" stroke="#63b8ff" d="M301.88,-314.48C300.54,-315.59 299.24,-316.74 298,-317.93 273.28,-341.55 291.3,-368.29 262,-385.93 215.08,-414.17 150.73,-407.82 106.18,-397.99"/>
<polygon fill="#63b8ff" stroke="#63b8ff" points="303.99,-317.28 310.01,-308.56 299.87,-311.62 303.99,-317.28"/>
</a>
</g>
</g>
<!-- Node7 -->
<g id="Node000007" class="node">
<title>Node7</title>
<g id="a_Node000007"><a xlink:href="structttg__parsec_1_1_buffer.html#ac03d171f76a9ebf145bdcc2b991cbf5e" target="_top" xlink:title=" ">
<polygon fill="white" stroke="#666666" points="107,-141.93 0,-141.93 0,-111.93 107,-111.93 107,-141.93"/>
<text text-anchor="start" x="8" y="-129.93" font-family="Times,serif" font-size="10.00">ttg_parsec::Buffer</text>
<text text-anchor="middle" x="53.5" y="-118.93" font-family="Times,serif" font-size="10.00">::allocate_on</text>
</a>
</g>
</g>
<!-- Node5&#45;&gt;Node7 -->
<g id="edge6_Node000005_Node000007" class="edge">
<title>Node5&#45;&gt;Node7</title>
<g id="a_edge6_Node000005_Node000007"><a xlink:title=" ">
<path fill="none" stroke="#63b8ff" d="M299.58,-260.63C299.04,-260.07 298.51,-259.5 298,-258.93 263.03,-219.49 303.09,-178.94 262,-145.93 218.85,-111.26 153.16,-111.24 107.29,-116.84"/>
<polygon fill="#63b8ff" stroke="#63b8ff" points="297.39,-263.36 307.23,-267.28 301.98,-258.08 297.39,-263.36"/>
</a>
</g>
</g>
<!-- Node8 -->
<g id="Node000008" class="node">
<title>Node8</title>
<g id="a_Node000008"><a xlink:href="structttg__parsec_1_1_buffer.html#ad7c9683797b26ee8911ae7cfe4712d50" target="_top" xlink:title=" ">
<polygon fill="white" stroke="#666666" points="262,-280.93 143,-280.93 143,-250.93 262,-250.93 262,-280.93"/>
<text text-anchor="start" x="151" y="-268.93" font-family="Times,serif" font-size="10.00">ttg_parsec::Buffer</text>
<text text-anchor="middle" x="202.5" y="-257.93" font-family="Times,serif" font-size="10.00">::current_device_ptr</text>
</a>
</g>
</g>
<!-- Node5&#45;&gt;Node8 -->
<g id="edge7_Node000005_Node000008" class="edge">
<title>Node5&#45;&gt;Node8</title>
<g id="a_edge7_Node000005_Node000008"><a xlink:title=" ">
<path fill="none" stroke="#63b8ff" d="M287.7,-277.65C279.15,-276.46 270.5,-275.26 262.19,-274.1"/>
<polygon fill="#63b8ff" stroke="#63b8ff" points="287.3,-281.13 297.69,-279.04 288.27,-274.2 287.3,-281.13"/>
</a>
</g>
</g>
<!-- Node9 -->
<g id="Node000009" class="node">
<title>Node9</title>
<g id="a_Node000009"><a xlink:href="structttg__parsec_1_1_buffer.html#a87cfa2924a1165608d8180337682cdce" target="_top" xlink:title=" ">
<polygon fill="white" stroke="#666666" points="262,-232.93 143,-232.93 143,-202.93 262,-202.93 262,-232.93"/>
<text text-anchor="start" x="151" y="-220.93" font-family="Times,serif" font-size="10.00">ttg_parsec::Buffer</text>
<text text-anchor="middle" x="202.5" y="-209.93" font-family="Times,serif" font-size="10.00">::current_device_ptr</text>
</a>
</g>
</g>
<!-- Node5&#45;&gt;Node9 -->
<g id="edge8_Node000005_Node000009" class="edge">
<title>Node5&#45;&gt;Node9</title>
<g id="a_edge8_Node000005_Node000009"><a xlink:title=" ">
<path fill="none" stroke="#63b8ff" d="M307.09,-263.13C304.02,-261.71 300.97,-260.3 298,-258.93 281.95,-251.47 278.19,-249.06 262,-241.93 255.27,-238.96 248.06,-235.9 241.07,-233"/>
<polygon fill="#63b8ff" stroke="#63b8ff" points="305.82,-266.4 316.37,-267.4 308.75,-260.04 305.82,-266.4"/>
</a>
</g>
</g>
<!-- Node10 -->
<g id="Node000010" class="node">
<title>Node10</title>
<g id="a_Node000010"><a xlink:href="structttg__parsec_1_1_buffer.html#a75237a0fe188810d1741db8091603c01" target="_top" xlink:title=" ">
<polygon fill="white" stroke="#666666" points="256,-184.93 149,-184.93 149,-154.93 256,-154.93 256,-184.93"/>
<text text-anchor="start" x="157" y="-172.93" font-family="Times,serif" font-size="10.00">ttg_parsec::Buffer</text>
<text text-anchor="middle" x="202.5" y="-161.93" font-family="Times,serif" font-size="10.00">::device_ptr_on</text>
</a>
</g>
</g>
<!-- Node5&#45;&gt;Node10 -->
<g id="edge9_Node000005_Node000010" class="edge">
<title>Node5&#45;&gt;Node10</title>
<g id="a_edge9_Node000005_Node000010"><a xlink:title=" ">
<path fill="none" stroke="#63b8ff" d="M300.54,-261.16C299.67,-260.43 298.82,-259.69 298,-258.93 273.76,-236.5 286.67,-215.88 262,-193.93 258.15,-190.5 253.73,-187.52 249.1,-184.94"/>
<polygon fill="#63b8ff" stroke="#63b8ff" points="298.69,-264.15 308.82,-267.26 302.84,-258.51 298.69,-264.15"/>
</a>
</g>
</g>
<!-- Node11 -->
<g id="Node000011" class="node">
<title>Node11</title>
<g id="a_Node000011"><a xlink:href="structttg__parsec_1_1_buffer.html#a14b779203a13f74eb18077dd76aa2462" target="_top" xlink:title=" ">
<polygon fill="white" stroke="#666666" points="256,-510.93 149,-510.93 149,-480.93 256,-480.93 256,-510.93"/>
<text text-anchor="start" x="157" y="-498.93" font-family="Times,serif" font-size="10.00">ttg_parsec::Buffer</text>
<text text-anchor="middle" x="202.5" y="-487.93" font-family="Times,serif" font-size="10.00">::device_ptr_on</text>
</a>
</g>
</g>
<!-- Node5&#45;&gt;Node11 -->
<g id="edge10_Node000005_Node000011" class="edge">
<title>Node5&#45;&gt;Node11</title>
<g id="a_edge10_Node000005_Node000011"><a xlink:title=" ">
<path fill="none" stroke="#63b8ff" d="M300.22,-315.37C299.45,-316.2 298.71,-317.05 298,-317.93 253.83,-372.6 307.58,-418.42 262,-471.93 259.08,-475.35 255.6,-478.3 251.8,-480.83"/>
<polygon fill="#63b8ff" stroke="#63b8ff" points="302.73,-317.81 307.82,-308.52 298.05,-312.61 302.73,-317.81"/>
</a>
</g>
</g>
<!-- Node12 -->
<g id="Node000012" class="node">
<title>Node12</title>
<g id="a_Node000012"><a xlink:href="structttg__parsec_1_1_buffer.html#ab9c2dbfb2165d1beebdf4c2d3a18d937" target="_top" xlink:title=" ">
<polygon fill="white" stroke="#666666" points="256,-462.93 149,-462.93 149,-432.93 256,-432.93 256,-462.93"/>
<text text-anchor="start" x="157" y="-450.93" font-family="Times,serif" font-size="10.00">ttg_parsec::Buffer</text>
<text text-anchor="middle" x="202.5" y="-439.93" font-family="Times,serif" font-size="10.00">::is_current_on</text>
</a>
</g>
</g>
<!-- Node5&#45;&gt;Node12 -->
<g id="edge11_Node000005_Node000012" class="edge">
<title>Node5&#45;&gt;Node12</title>
<g id="a_edge11_Node000005_Node000012"><a xlink:title=" ">
<path fill="none" stroke="#63b8ff" d="M300.81,-315.04C299.84,-315.97 298.9,-316.94 298,-317.93 266.01,-353.25 293.65,-383.3 262,-418.93 257.11,-424.43 250.93,-429.01 244.43,-432.78"/>
<polygon fill="#63b8ff" stroke="#63b8ff" points="303.33,-317.5 308.85,-308.45 298.9,-312.08 303.33,-317.5"/>
</a>
</g>
</g>
<!-- Node13 -->
<g id="Node000013" class="node">
<title>Node13</title>
<g id="a_Node000013"><a xlink:href="structttg__parsec_1_1_buffer.html#a57dc7b47c838715a12d2a59fb3d82b76" target="_top" xlink:title=" ">
<polygon fill="white" stroke="#666666" points="256,-376.93 149,-376.93 149,-346.93 256,-346.93 256,-376.93"/>
<text text-anchor="start" x="157" y="-364.93" font-family="Times,serif" font-size="10.00">ttg_parsec::Buffer</text>
<text text-anchor="middle" x="202.5" y="-353.93" font-family="Times,serif" font-size="10.00">::is_valid_on</text>
</a>
</g>
</g>
<!-- Node5&#45;&gt;Node13 -->
<g id="edge12_Node000005_Node000013" class="edge">
<title>Node5&#45;&gt;Node13</title>
<g id="a_edge12_Node000005_Node000013"><a xlink:title=" ">
<path fill="none" stroke="#63b8ff" d="M307.64,-313.07C304.37,-314.69 301.13,-316.32 298,-317.93 281.72,-326.28 278.5,-329.99 262,-337.93 255.67,-340.97 248.85,-343.99 242.17,-346.81"/>
<polygon fill="#63b8ff" stroke="#63b8ff" points="309.46,-316.07 316.91,-308.54 306.39,-309.79 309.46,-316.07"/>
</a>
</g>
</g>
<!-- Node14 -->
<g id="Node000014" class="node">
<title>Node14</title>
<g id="a_Node000014"><a xlink:href="structttg__parsec_1_1_buffer.html#a17ee629839b81f7e11adf24164f3116b" target="_top" xlink:title=" ">
<polygon fill="white" stroke="#666666" points="256,-98.93 149,-98.93 149,-68.93 256,-68.93 256,-98.93"/>
<text text-anchor="start" x="157" y="-86.93" font-family="Times,serif" font-size="10.00">ttg_parsec::Buffer</text>
<text text-anchor="middle" x="202.5" y="-75.93" font-family="Times,serif" font-size="10.00">::prefer_device</text>
</a>
</g>
</g>
<!-- Node5&#45;&gt;Node14 -->
<g id="edge15_Node000005_Node000014" class="edge">
<title>Node5&#45;&gt;Node14</title>
<g id="a_edge15_Node000005_Node000014"><a xlink:title=" ">
<path fill="none" stroke="#63b8ff" d="M299.22,-260.35C298.81,-259.88 298.4,-259.41 298,-258.93 255.35,-207.47 303.82,-165.05 262,-112.93 257.53,-107.36 251.72,-102.77 245.49,-99.02"/>
<polygon fill="#63b8ff" stroke="#63b8ff" points="296.98,-263.04 306.7,-267.26 301.73,-257.9 296.98,-263.04"/>
</a>
</g>
</g>
<!-- Node15 -->
<g id="Node000015" class="node">
<title>Node15</title>
<g id="a_Node000015"><a xlink:href="structttg__parsec_1_1_buffer.html#ace745d5a5d55e60bde6b8a09b138192d" target="_top" xlink:title=" ">
<polygon fill="white" stroke="#666666" points="259,-328.93 146,-328.93 146,-298.93 259,-298.93 259,-328.93"/>
<text text-anchor="start" x="154" y="-316.93" font-family="Times,serif" font-size="10.00">ttg_parsec::Buffer</text>
<text text-anchor="middle" x="202.5" y="-305.93" font-family="Times,serif" font-size="10.00">::set_owner_device</text>
</a>
</g>
</g>
<!-- Node5&#45;&gt;Node15 -->
<g id="edge16_Node000005_Node000015" class="edge">
<title>Node5&#45;&gt;Node15</title>
<g id="a_edge16_Node000005_Node000015"><a xlink:title=" ">
<path fill="none" stroke="#63b8ff" d="M287.74,-300.06C278.12,-301.65 268.41,-303.25 259.16,-304.77"/>
<polygon fill="#63b8ff" stroke="#63b8ff" points="288.39,-303.5 297.69,-298.43 287.26,-296.6 288.39,-303.5"/>
</a>
</g>
</g>
<!-- Node13&#45;&gt;Node6 -->
<g id="edge13_Node000013_Node000006" class="edge">
<title>Node13&#45;&gt;Node6</title>
<g id="a_edge13_Node000013_Node000006"><a xlink:title=" ">
<path fill="none" stroke="#63b8ff" d="M138.88,-370.87C128.35,-372.38 117.53,-373.92 107.28,-375.39"/>
<polygon fill="#63b8ff" stroke="#63b8ff" points="139.44,-374.33 148.84,-369.45 138.45,-367.4 139.44,-374.33"/>
</a>
</g>
</g>
<!-- Node13&#45;&gt;Node7 -->
<g id="edge14_Node000013_Node000007" class="edge">
<title>Node13&#45;&gt;Node7</title>
<g id="a_edge14_Node000013_Node000007"><a xlink:title=" ">
<path fill="none" stroke="#63b8ff" d="M146.37,-340.98C145.2,-340.01 144.07,-338.99 143,-337.93 85.33,-280.71 63.32,-180.26 56.8,-142.16"/>
<polygon fill="#63b8ff" stroke="#63b8ff" points="144.45,-343.92 154.64,-346.81 148.48,-338.19 144.45,-343.92"/>
</a>
</g>
</g>
<!-- Node16&#45;&gt;Node2 -->
<g id="edge18_Node000016_Node000002" class="edge">
<title>Node16&#45;&gt;Node2</title>
<g id="a_edge18_Node000016_Node000002"><a xlink:title=" ">
<path fill="none" stroke="#63b8ff" d="M616.08,-234.73C597.17,-240.08 577.15,-245.74 560.89,-250.34"/>
<polygon fill="#63b8ff" stroke="#63b8ff" points="617.17,-238.06 625.84,-231.97 615.26,-231.32 617.17,-238.06"/>
</a>
</g>
</g>
<!-- Node16&#45;&gt;Node5 -->
<g id="edge27_Node000016_Node000005" class="edge">
<title>Node16&#45;&gt;Node5</title>
<g id="a_edge27_Node000016_Node000005"><a xlink:title=" ">
<path fill="none" stroke="#63b8ff" d="M614.62,-218.9C571.11,-221.56 512.74,-227.72 463,-241.93 445.99,-246.79 443.05,-251.47 427,-258.93 421.06,-261.68 414.81,-264.57 408.63,-267.4"/>
<polygon fill="#63b8ff" stroke="#63b8ff" points="615,-222.39 624.79,-218.33 614.61,-215.4 615,-222.39"/>
</a>
</g>
</g>
<!-- Node17 -->
<g id="Node000017" class="node">
<title>Node17</title>
<g id="a_Node000017"><a xlink:href="classttg_1_1device_1_1_device.html#a40e2fd28be27282a6695d102f7c5fc1a" target="_top" xlink:title=" ">
<polygon fill="white" stroke="#666666" points="581,-190.93 471,-190.93 471,-160.93 581,-160.93 581,-190.93"/>
<text text-anchor="start" x="479" y="-178.93" font-family="Times,serif" font-size="10.00">ttg::device::Device</text>
<text text-anchor="middle" x="526" y="-167.93" font-family="Times,serif" font-size="10.00">::is_device</text>
</a>
</g>
</g>
<!-- Node16&#45;&gt;Node17 -->
<g id="edge19_Node000016_Node000017" class="edge">
<title>Node16&#45;&gt;Node17</title>
<g id="a_edge19_Node000016_Node000017"><a xlink:title=" ">
<path fill="none" stroke="#63b8ff" d="M615.15,-199.7C603.82,-196.65 592.12,-193.49 581.1,-190.52"/>
<polygon fill="#63b8ff" stroke="#63b8ff" points="614.42,-203.13 624.98,-202.36 616.24,-196.37 614.42,-203.13"/>
</a>
</g>
</g>
<!-- Node21 -->
<g id="Node000021" class="node">
<title>Node21</title>
<g id="a_Node000021"><a xlink:href="structttg__madness_1_1_buffer.html#af4997ff30c86321022cd5b89b4a7cd53" target="_top" xlink:title=" ">
<polygon fill="white" stroke="#666666" points="585.5,-142.93 466.5,-142.93 466.5,-112.93 585.5,-112.93 585.5,-142.93"/>
<text text-anchor="start" x="474.5" y="-130.93" font-family="Times,serif" font-size="10.00">ttg_madness::Buffer</text>
<text text-anchor="middle" x="526" y="-119.93" font-family="Times,serif" font-size="10.00">::set_current_device</text>
</a>
</g>
</g>
<!-- Node16&#45;&gt;Node21 -->
<g id="edge26_Node000016_Node000021" class="edge">
<title>Node16&#45;&gt;Node21</title>
<g id="a_edge26_Node000016_Node000021"><a xlink:title=" ">
<path fill="none" stroke="#63b8ff" d="M652.98,-195.39C635.62,-181.72 611.85,-164.33 589,-151.93 583.12,-148.73 576.72,-145.75 570.34,-143.06"/>
<polygon fill="#63b8ff" stroke="#63b8ff" points="650.96,-198.25 660.96,-201.76 655.33,-192.78 650.96,-198.25"/>
</a>
</g>
</g>
<!-- Node17&#45;&gt;Node4 -->
<g id="edge24_Node000017_Node000004" class="edge">
<title>Node17&#45;&gt;Node4</title>
<g id="a_edge24_Node000017_Node000004"><a xlink:title=" ">
<path fill="none" stroke="#63b8ff" d="M485.59,-195.55C467.91,-203.95 446.66,-213.51 427,-220.93 417.96,-224.34 408.01,-227.55 398.73,-230.34"/>
<polygon fill="#63b8ff" stroke="#63b8ff" points="487.51,-198.51 495.01,-191.02 484.48,-192.2 487.51,-198.51"/>
</a>
</g>
</g>
<!-- Node17&#45;&gt;Node7 -->
<g id="edge20_Node000017_Node000007" class="edge">
<title>Node17&#45;&gt;Node7</title>
<g id="a_edge20_Node000017_Node000007"><a xlink:title=" ">
<path fill="none" stroke="#63b8ff" d="M465.86,-154.72C464.87,-153.83 463.91,-152.9 463,-151.93 426.88,-113.54 469.55,-70.03 427,-38.93 324.82,35.76 260,-11.65 143,-59.93 113.78,-71.98 85.68,-96.09 69.25,-111.86"/>
<polygon fill="#63b8ff" stroke="#63b8ff" points="464.01,-157.71 474.12,-160.87 468.19,-152.09 464.01,-157.71"/>
</a>
</g>
</g>
<!-- Node17&#45;&gt;Node14 -->
<g id="edge25_Node000017_Node000014" class="edge">
<title>Node17&#45;&gt;Node14</title>
<g id="a_edge25_Node000017_Node000014"><a xlink:title=" ">
<path fill="none" stroke="#63b8ff" d="M460.53,-170.68C414.14,-165.38 350.72,-154.99 298,-134.93 280.47,-128.26 278.42,-121.99 262,-112.93 253.47,-108.22 244.06,-103.4 235.34,-99.07"/>
<polygon fill="#63b8ff" stroke="#63b8ff" points="460.43,-174.19 470.75,-171.8 461.19,-167.23 460.43,-174.19"/>
</a>
</g>
</g>
<!-- Node18 -->
<g id="Node000018" class="node">
<title>Node18</title>
<g id="a_Node000018"><a xlink:href="structttg__madness_1_1_buffer.html#a9c3e638035902bf7709eb0515132f1cb" target="_top" xlink:title=" ">
<polygon fill="white" stroke="#666666" points="422,-211.93 303,-211.93 303,-181.93 422,-181.93 422,-211.93"/>
<text text-anchor="start" x="311" y="-199.93" font-family="Times,serif" font-size="10.00">ttg_madness::Buffer</text>
<text text-anchor="middle" x="362.5" y="-188.93" font-family="Times,serif" font-size="10.00">::device_ptr_on</text>
</a>
</g>
</g>
<!-- Node17&#45;&gt;Node18 -->
<g id="edge21_Node000017_Node000018" class="edge">
<title>Node17&#45;&gt;Node18</title>
<g id="a_edge21_Node000017_Node000018"><a xlink:title=" ">
<path fill="none" stroke="#63b8ff" d="M460.68,-184.29C447.92,-185.95 434.58,-187.68 422.02,-189.32"/>
<polygon fill="#63b8ff" stroke="#63b8ff" points="461.31,-187.74 470.77,-182.98 460.41,-180.8 461.31,-187.74"/>
</a>
</g>
</g>
<!-- Node19 -->
<g id="Node000019" class="node">
<title>Node19</title>
<g id="a_Node000019"><a xlink:href="structttg__madness_1_1_buffer.html#a96481342b1b51b6bb9a0227d0010685c" target="_top" xlink:title=" ">
<polygon fill="white" stroke="#666666" points="422,-125.93 303,-125.93 303,-95.93 422,-95.93 422,-125.93"/>
<text text-anchor="start" x="311" y="-113.93" font-family="Times,serif" font-size="10.00">ttg_madness::Buffer</text>
<text text-anchor="middle" x="362.5" y="-102.93" font-family="Times,serif" font-size="10.00">::device_ptr_on</text>
</a>
</g>
</g>
<!-- Node17&#45;&gt;Node19 -->
<g id="edge22_Node000017_Node000019" class="edge">
<title>Node17&#45;&gt;Node19</title>
<g id="a_edge22_Node000017_Node000019"><a xlink:title=" ">
<path fill="none" stroke="#63b8ff" d="M475.99,-157.07C471.6,-155.34 467.21,-153.61 463,-151.93 442.01,-143.54 418.63,-133.92 399.81,-126.11"/>
<polygon fill="#63b8ff" stroke="#63b8ff" points="475,-160.44 485.59,-160.82 477.55,-153.92 475,-160.44"/>
</a>
</g>
</g>
<!-- Node20 -->
<g id="Node000020" class="node">
<title>Node20</title>
<g id="a_Node000020"><a xlink:href="structttg__madness_1_1_buffer.html#ab856ca462a43f94b61ca8bc4d345383b" target="_top" xlink:title=" ">
<polygon fill="white" stroke="#666666" points="422,-77.93 303,-77.93 303,-47.93 422,-47.93 422,-77.93"/>
<text text-anchor="start" x="311" y="-65.93" font-family="Times,serif" font-size="10.00">ttg_madness::Buffer</text>
<text text-anchor="middle" x="362.5" y="-54.93" font-family="Times,serif" font-size="10.00">::is_valid_on</text>
</a>
</g>
</g>
<!-- Node17&#45;&gt;Node20 -->
<g id="edge23_Node000017_Node000020" class="edge">
<title>Node17&#45;&gt;Node20</title>
<g id="a_edge23_Node000017_Node000020"><a xlink:title=" ">
<path fill="none" stroke="#63b8ff" d="M467.22,-155.29C465.76,-154.22 464.35,-153.1 463,-151.93 438.11,-130.22 451.98,-108.53 427,-86.93 423.08,-83.53 418.63,-80.6 413.95,-78.06"/>
<polygon fill="#63b8ff" stroke="#63b8ff" points="465.72,-158.48 476.05,-160.85 469.45,-152.56 465.72,-158.48"/>
</a>
</g>
</g>
</g>
</svg>
