<?xml version="1.0" encoding="UTF-8" standalone="no"?>
<!DOCTYPE svg PUBLIC "-//W3C//DTD SVG 1.1//EN"
 "http://www.w3.org/Graphics/SVG/1.1/DTD/svg11.dtd">
<!-- Generated by graphviz version 2.43.0 (0)
 -->
<!-- Title: ttg::OutTerminalBase::set_size Pages: 1 -->
<svg width="604pt" height="96pt"
 viewBox="0.00 0.00 604.00 95.68" xmlns="http://www.w3.org/2000/svg" xmlns:xlink="http://www.w3.org/1999/xlink">
<g id="graph0" class="graph" transform="scale(1 1) rotate(0) translate(4 91.68)">
<title>ttg::OutTerminalBase::set_size</title>
<!-- Node1 -->
<g id="Node000001" class="node">
<title>Node1</title>
<g id="a_Node000001"><a xlink:title=" ">
<polygon fill="#999999" stroke="#666666" points="125,-52 0,-52 0,-22 125,-22 125,-52"/>
<text text-anchor="start" x="8" y="-40" font-family="Times,serif" font-size="10.00">ttg::OutTerminalBase</text>
<text text-anchor="middle" x="62.5" y="-29" font-family="Times,serif" font-size="10.00">::set_size</text>
</a>
</g>
</g>
<!-- Node2 -->
<g id="Node000002" class="node">
<title>Node2</title>
<g id="a_Node000002"><a xlink:href="classttg_1_1_out_terminal_base.html#ae49bef4469c9abd4dd1f10b0429984b4" target="_top" xlink:title=" ">
<polygon fill="white" stroke="#666666" points="286,-52 161,-52 161,-22 286,-22 286,-52"/>
<text text-anchor="start" x="169" y="-40" font-family="Times,serif" font-size="10.00">ttg::OutTerminalBase</text>
<text text-anchor="middle" x="223.5" y="-29" font-family="Times,serif" font-size="10.00">::set_size</text>
</a>
</g>
</g>
<!-- Node1&#45;&gt;Node2 -->
<g id="edge1_Node000001_Node000002" class="edge">
<title>Node1&#45;&gt;Node2</title>
<g id="a_edge1_Node000001_Node000002"><a xlink:title=" ">
<path fill="none" stroke="#63b8ff" d="M125.43,-37C133.67,-37 142.18,-37 150.58,-37"/>
<polygon fill="#63b8ff" stroke="#63b8ff" points="150.74,-40.5 160.74,-37 150.74,-33.5 150.74,-40.5"/>
</a>
</g>
</g>
<!-- Node3 -->
<g id="Node000003" class="node">
<title>Node3</title>
<g id="a_Node000003"><a xlink:href="namespacettg.html#a293bb7226707f202e735a9b3e4c76fab" target="_top" xlink:title=" ">
<polygon fill="white" stroke="#666666" points="412.5,-87.5 356.5,-87.5 356.5,-68.5 412.5,-68.5 412.5,-87.5"/>
<text text-anchor="middle" x="384.5" y="-75.5" font-family="Times,serif" font-size="10.00">ttg::size</text>
</a>
</g>
</g>
<!-- Node1&#45;&gt;Node3 -->
<g id="edge6_Node000001_Node000003" class="edge">
<title>Node1&#45;&gt;Node3</title>
<g id="a_edge6_Node000001_Node000003"><a xlink:title=" ">
<path fill="none" stroke="#63b8ff" d="M90.26,-52.06C109.32,-61.89 135.91,-73.83 161,-79 225.1,-92.22 301.8,-87.5 346.36,-82.8"/>
<polygon fill="#63b8ff" stroke="#63b8ff" points="346.88,-86.27 356.43,-81.68 346.1,-79.31 346.88,-86.27"/>
</a>
</g>
</g>
<!-- Node4 -->
<g id="Node000004" class="node">
<title>Node4</title>
<g id="a_Node000004"><a xlink:href="classttg_1_1_out_terminal_base.html#aa0341fd67b25363d5c45d77646294cf9" target="_top" xlink:title=" ">
<polygon fill="white" stroke="#666666" points="447,-30 322,-30 322,0 447,0 447,-30"/>
<text text-anchor="start" x="330" y="-18" font-family="Times,serif" font-size="10.00">ttg::OutTerminalBase</text>
<text text-anchor="middle" x="384.5" y="-7" font-family="Times,serif" font-size="10.00">::successors</text>
</a>
</g>
</g>
<!-- Node1&#45;&gt;Node4 -->
<g id="edge7_Node000001_Node000004" class="edge">
<title>Node1&#45;&gt;Node4</title>
<g id="a_edge7_Node000001_Node000004"><a xlink:title=" ">
<path fill="none" stroke="#63b8ff" d="M114.68,-21.94C129.49,-18.26 145.77,-14.85 161,-13 211.06,-6.93 267.92,-7.57 311.63,-9.66"/>
<polygon fill="#63b8ff" stroke="#63b8ff" points="311.71,-13.16 321.87,-10.18 312.07,-6.17 311.71,-13.16"/>
</a>
</g>
</g>
<!-- Node2&#45;&gt;Node2 -->
<g id="edge2_Node000002_Node000002" class="edge">
<title>Node2&#45;&gt;Node2</title>
<g id="a_edge2_Node000002_Node000002"><a xlink:title=" ">
<path fill="none" stroke="#63b8ff" d="M195.38,-52.28C189.12,-61.41 198.5,-70 223.5,-70 238.34,-70 247.68,-66.97 251.51,-62.6"/>
<polygon fill="#63b8ff" stroke="#63b8ff" points="255.01,-62.32 251.62,-52.28 248.01,-62.23 255.01,-62.32"/>
</a>
</g>
</g>
<!-- Node2&#45;&gt;Node3 -->
<g id="edge3_Node000002_Node000003" class="edge">
<title>Node2&#45;&gt;Node3</title>
<g id="a_edge3_Node000002_Node000003"><a xlink:title=" ">
<path fill="none" stroke="#63b8ff" d="M282.8,-52.03C304.14,-57.54 327.67,-63.6 346.62,-68.49"/>
<polygon fill="#63b8ff" stroke="#63b8ff" points="345.8,-71.89 356.35,-71 347.54,-65.11 345.8,-71.89"/>
</a>
</g>
</g>
<!-- Node2&#45;&gt;Node4 -->
<g id="edge4_Node000002_Node000004" class="edge">
<title>Node2&#45;&gt;Node4</title>
<g id="a_edge4_Node000002_Node000004"><a xlink:title=" ">
<path fill="none" stroke="#63b8ff" d="M286.43,-28.43C294.67,-27.29 303.18,-26.11 311.58,-24.95"/>
<polygon fill="#63b8ff" stroke="#63b8ff" points="312.31,-28.38 321.74,-23.55 311.35,-21.45 312.31,-28.38"/>
</a>
</g>
</g>
<!-- Node5 -->
<g id="Node000005" class="node">
<title>Node5</title>
<g id="a_Node000005"><a xlink:href="classttg_1_1_terminal_base.html#ab21d3f0050249488606592cfe99c3409" target="_top" xlink:title="Get connections to successors.">
<polygon fill="white" stroke="#666666" points="596,-30 483,-30 483,0 596,0 596,-30"/>
<text text-anchor="start" x="491" y="-18" font-family="Times,serif" font-size="10.00">ttg::TerminalBase::</text>
<text text-anchor="middle" x="539.5" y="-7" font-family="Times,serif" font-size="10.00">get_connections</text>
</a>
</g>
</g>
<!-- Node4&#45;&gt;Node5 -->
<g id="edge5_Node000004_Node000005" class="edge">
<title>Node4&#45;&gt;Node5</title>
<g id="a_edge5_Node000004_Node000005"><a xlink:title=" ">
<path fill="none" stroke="#63b8ff" d="M447.29,-15C455.66,-15 464.28,-15 472.72,-15"/>
<polygon fill="#63b8ff" stroke="#63b8ff" points="472.9,-18.5 482.9,-15 472.9,-11.5 472.9,-18.5"/>
</a>
</g>
</g>
</g>
</svg>
