<?xml version="1.0" encoding="UTF-8" standalone="no"?>
<!DOCTYPE svg PUBLIC "-//W3C//DTD SVG 1.1//EN"
 "http://www.w3.org/Graphics/SVG/1.1/DTD/svg11.dtd">
<!-- Generated by graphviz version 2.43.0 (0)
 -->
<!-- Title: ttg_madness::TT::set_argstream_size Pages: 1 -->
<!--zoomable 282 -->

<svg id="main" version="1.1" xmlns="http://www.w3.org/2000/svg" xmlns:xlink="http://www.w3.org/1999/xlink" xml:space="preserve" onload="init(evt)">
<style type="text/css"><![CDATA[
.node, .edge {opacity: 0.7;}
.node.selected, .edge.selected {opacity: 1;}
.edge:hover path { stroke: red; }
.edge:hover polygon { stroke: red; fill: red; }
]]></style>

<defs>
  <circle id="rim" cx="0" cy="0" r="7"/>
  <circle id="rim2" cx="0" cy="0" r="3.5"/>
  <g id="zoomPlus">
    <use xlink:href="#rim" fill="#404040"><set attributeName="fill" to="#808080" begin="zoomplus.mouseover" end="zoomplus.mouseout"/></use>
    <path d="M-4,0h8M0,-4v8" fill="none" stroke="white" stroke-width="1.5" pointer-events="none"/>
  </g>
  <g id="zoomMin">
    <use xlink:href="#rim" fill="#404040"><set attributeName="fill" to="#808080" begin="zoomminus.mouseover" end="zoomminus.mouseout"/></use>
    <path d="M-4,0h8" fill="none" stroke="white" stroke-width="1.5" pointer-events="none"/>
  </g>
  <g id="arrowUp" transform="translate(30 24)">
    <use xlink:href="#rim"/>
    <path pointer-events="none" fill="none" stroke="white" stroke-width="1.5" d="M0,-3.0v7 M-2.5,-0.5L0,-3.0L2.5,-0.5"/>
  </g>
  <g id="arrowRight" transform="rotate(90) translate(36 -43)">
    <use xlink:href="#rim"/>
    <path pointer-events="none" fill="none" stroke="white" stroke-width="1.5" d="M0,-3.0v7 M-2.5,-0.5L0,-3.0L2.5,-0.5"/>
  </g>
  <g id="arrowDown" transform="rotate(180) translate(-30 -48)">
    <use xlink:href="#rim"/>
    <path pointer-events="none" fill="none" stroke="white" stroke-width="1.5" d="M0,-3.0v7 M-2.5,-0.5L0,-3.0L2.5,-0.5"/>
  </g>
  <g id="arrowLeft" transform="rotate(270) translate(-36 17)">
    <use xlink:href="#rim"/>
    <path pointer-events="none" fill="none" stroke="white" stroke-width="1.5" d="M0,-3.0v7 M-2.5,-0.5L0,-3.0L2.5,-0.5"/>
  </g>
  <g id="resetDef">
    <use xlink:href="#rim2" fill="#404040"><set attributeName="fill" to="#808080" begin="reset.mouseover" end="reset.mouseout"/></use>
  </g>
</defs>
<script type="application/ecmascript">
var viewWidth = 577;
var viewHeight = 282;
var sectionId = 'dynsection-35';
</script>
<script type="application/ecmascript" xlink:href="svg.min.js"/>
<svg id="graph" class="graph">
<g id="viewport">
<title>ttg_madness::TT::set_argstream_size</title>
<!-- Node1 -->
<g id="Node000001" class="node">
<title>Node1</title>
<g id="a_Node000001"><a xlink:title=" ">
<polygon fill="#999999" stroke="#666666" points="122,-187 0,-187 0,-157 122,-157 122,-187"/>
<text text-anchor="start" x="8" y="-175" font-family="Times,serif" font-size="10.00">ttg_madness::TT::set</text>
<text text-anchor="middle" x="61" y="-164" font-family="Times,serif" font-size="10.00">_argstream_size</text>
</a>
</g>
</g>
<!-- Node2 -->
<g id="Node000002" class="node">
<title>Node2</title>
<g id="a_Node000002"><a xlink:href="classttg__madness_1_1_t_t.html#a3fb0ab18d00c27fae64e1bd1b78d3d0d" target="_top" xlink:title=" ">
<polygon fill="white" stroke="#666666" points="288.5,-255.5 165.5,-255.5 165.5,-236.5 288.5,-236.5 288.5,-255.5"/>
<text text-anchor="middle" x="227" y="-243.5" font-family="Times,serif" font-size="10.00">ttg_madness::TT::get</text>
</a>
</g>
</g>
<!-- Node1&#45;&gt;Node2 -->
<g id="edge1_Node000001_Node000002" class="edge">
<title>Node1&#45;&gt;Node2</title>
<g id="a_edge1_Node000001_Node000002"><a xlink:title=" ">
<path fill="none" stroke="#63b8ff" d="M84,-187.15C102.9,-199.59 131.27,-216.9 158,-228 162.81,-230 167.91,-231.83 173.06,-233.49"/>
<polygon fill="#63b8ff" stroke="#63b8ff" points="172.39,-236.95 182.98,-236.49 174.42,-230.25 172.39,-236.95"/>
</a>
</g>
</g>
<!-- Node3 -->
<g id="Node000003" class="node">
<title>Node3</title>
<g id="a_Node000003"><a xlink:href="classttg_1_1_t_t_base.html#ade3b1e6b149fe1124f7192aeca5f715c" target="_top" xlink:title="Gets the name of this operation.">
<polygon fill="white" stroke="#666666" points="292.5,-218.5 161.5,-218.5 161.5,-199.5 292.5,-199.5 292.5,-218.5"/>
<text text-anchor="middle" x="227" y="-206.5" font-family="Times,serif" font-size="10.00">ttg::TTBase::get_name</text>
</a>
</g>
</g>
<!-- Node1&#45;&gt;Node3 -->
<g id="edge3_Node000001_Node000003" class="edge">
<title>Node1&#45;&gt;Node3</title>
<g id="a_edge3_Node000001_Node000003"><a xlink:title=" ">
<path fill="none" stroke="#63b8ff" d="M122.14,-185.57C139.09,-189.39 157.4,-193.52 173.85,-197.23"/>
<polygon fill="#63b8ff" stroke="#63b8ff" points="173.29,-200.7 183.82,-199.48 174.83,-193.87 173.29,-200.7"/>
</a>
</g>
</g>
<!-- Node4 -->
<g id="Node000004" class="node">
<title>Node4</title>
<g id="a_Node000004"><a xlink:href="classttg__madness_1_1_t_t.html#a9c167a878e2685d22e00ce7aa33f75a0" target="_top" xlink:title=" ">
<polygon fill="white" stroke="#666666" points="296,-181.5 158,-181.5 158,-162.5 296,-162.5 296,-181.5"/>
<text text-anchor="middle" x="227" y="-169.5" font-family="Times,serif" font-size="10.00">ttg_madness::TT::owner</text>
</a>
</g>
</g>
<!-- Node1&#45;&gt;Node4 -->
<g id="edge4_Node000001_Node000004" class="edge">
<title>Node1&#45;&gt;Node4</title>
<g id="a_edge4_Node000001_Node000004"><a xlink:title=" ">
<path fill="none" stroke="#63b8ff" d="M122.14,-172C130.48,-172 139.15,-172 147.77,-172"/>
<polygon fill="#63b8ff" stroke="#63b8ff" points="147.83,-175.5 157.83,-172 147.83,-168.5 147.83,-175.5"/>
</a>
</g>
</g>
<!-- Node5 -->
<g id="Node000005" class="node">
<title>Node5</title>
<g id="a_Node000005"><a xlink:href="namespacettg.html#aacafa23974f833f3ac9c42ab4fbd7e68" target="_top" xlink:title="atomically prints to std::cerr a sequence of items (separated by ttg::print_separator) followed by st...">
<polygon fill="white" stroke="#666666" points="424,-162.5 332,-162.5 332,-143.5 424,-143.5 424,-162.5"/>
<text text-anchor="middle" x="378" y="-150.5" font-family="Times,serif" font-size="10.00">ttg::print_error</text>
</a>
</g>
</g>
<!-- Node1&#45;&gt;Node5 -->
<g id="edge5_Node000001_Node000005" class="edge">
<title>Node1&#45;&gt;Node5</title>
<g id="a_edge5_Node000001_Node000005"><a xlink:title=" ">
<path fill="none" stroke="#63b8ff" d="M122.19,-158.99C134.01,-156.93 146.35,-155.11 158,-154 213.48,-148.72 277.23,-149.16 321.58,-150.5"/>
<polygon fill="#63b8ff" stroke="#63b8ff" points="321.47,-153.99 331.58,-150.82 321.7,-147 321.47,-153.99"/>
</a>
</g>
</g>
<!-- Node7 -->
<g id="Node000007" class="node">
<title>Node7</title>
<g id="a_Node000007"><a xlink:href="namespacettg.html#af5e470229c1ddef41b83b6398a5dc583" target="_top" xlink:title=" ">
<polygon fill="white" stroke="#666666" points="258,-87.5 196,-87.5 196,-68.5 258,-68.5 258,-87.5"/>
<text text-anchor="middle" x="227" y="-75.5" font-family="Times,serif" font-size="10.00">ttg::trace</text>
</a>
</g>
</g>
<!-- Node1&#45;&gt;Node7 -->
<g id="edge7_Node000001_Node000007" class="edge">
<title>Node1&#45;&gt;Node7</title>
<g id="a_edge7_Node000001_Node000007"><a xlink:title=" ">
<path fill="none" stroke="#63b8ff" d="M88.35,-156.9C119.2,-139.21 169.96,-110.12 200.46,-92.64"/>
<polygon fill="#63b8ff" stroke="#63b8ff" points="202.29,-95.62 209.23,-87.61 198.81,-89.55 202.29,-95.62"/>
</a>
</g>
</g>
<!-- Node2&#45;&gt;Node2 -->
<g id="edge2_Node000002_Node000002" class="edge">
<title>Node2&#45;&gt;Node2</title>
<g id="a_edge2_Node000002_Node000002"><a xlink:title=" ">
<path fill="none" stroke="#63b8ff" d="M203.88,-255.58C192.63,-264.23 200.34,-273.5 227,-273.5 244.5,-273.5 253.83,-269.51 255,-264.32"/>
<polygon fill="#63b8ff" stroke="#63b8ff" points="258.05,-262.61 250.12,-255.58 251.94,-266.02 258.05,-262.61"/>
</a>
</g>
</g>
<!-- Node6 -->
<g id="Node000006" class="node">
<title>Node6</title>
<g id="a_Node000006"><a xlink:href="namespacettg_1_1detail.html#a26e07486d5ef8eb5735a8975991a7693" target="_top" xlink:title=" ">
<polygon fill="white" stroke="#666666" points="562.5,-137 466.5,-137 466.5,-107 562.5,-107 562.5,-137"/>
<text text-anchor="start" x="474.5" y="-125" font-family="Times,serif" font-size="10.00">ttg::detail::print</text>
<text text-anchor="middle" x="514.5" y="-114" font-family="Times,serif" font-size="10.00">_helper</text>
</a>
</g>
</g>
<!-- Node5&#45;&gt;Node6 -->
<g id="edge6_Node000005_Node000006" class="edge">
<title>Node5&#45;&gt;Node6</title>
<g id="a_edge6_Node000005_Node000006"><a xlink:title=" ">
<path fill="none" stroke="#63b8ff" d="M420.45,-143.45C431.79,-140.83 444.28,-137.95 456.33,-135.18"/>
<polygon fill="#63b8ff" stroke="#63b8ff" points="457.35,-138.53 466.31,-132.88 455.78,-131.71 457.35,-138.53"/>
</a>
</g>
</g>
<!-- Node8 -->
<g id="Node000008" class="node">
<title>Node8</title>
<g id="a_Node000008"><a xlink:href="namespacettg.html#aacacfe8bc9582308a405c4370650a9d4" target="_top" xlink:title="atomically prints to std::clog a sequence of items (separated by ttg::print_separator) followed by st...">
<polygon fill="white" stroke="#666666" points="404.5,-125.5 351.5,-125.5 351.5,-106.5 404.5,-106.5 404.5,-125.5"/>
<text text-anchor="middle" x="378" y="-113.5" font-family="Times,serif" font-size="10.00">ttg::log</text>
</a>
</g>
</g>
<!-- Node7&#45;&gt;Node8 -->
<g id="edge8_Node000007_Node000008" class="edge">
<title>Node7&#45;&gt;Node8</title>
<g id="a_edge8_Node000007_Node000008"><a xlink:title=" ">
<path fill="none" stroke="#63b8ff" d="M258.15,-85.69C282.22,-91.83 315.99,-100.44 341.39,-106.92"/>
<polygon fill="#63b8ff" stroke="#63b8ff" points="340.8,-110.38 351.36,-109.46 342.53,-103.6 340.8,-110.38"/>
</a>
</g>
</g>
<!-- Node9 -->
<g id="Node000009" class="node">
<title>Node9</title>
<g id="a_Node000009"><a xlink:href="namespacettg.html#afbdd9c742be395e0746fdbc26c7d55cc" target="_top" xlink:title="returns whether tracing was enabled at configure time">
<polygon fill="white" stroke="#666666" points="569,-81.5 460,-81.5 460,-62.5 569,-62.5 569,-81.5"/>
<text text-anchor="middle" x="514.5" y="-69.5" font-family="Times,serif" font-size="10.00">ttg::trace_enabled</text>
</a>
</g>
</g>
<!-- Node7&#45;&gt;Node9 -->
<g id="edge10_Node000007_Node000009" class="edge">
<title>Node7&#45;&gt;Node9</title>
<g id="a_edge10_Node000007_Node000009"><a xlink:title=" ">
<path fill="none" stroke="#63b8ff" d="M258.01,-77.37C303.28,-76.42 390.08,-74.59 449.85,-73.34"/>
<polygon fill="#63b8ff" stroke="#63b8ff" points="450.01,-76.84 459.94,-73.13 449.87,-69.84 450.01,-76.84"/>
</a>
</g>
</g>
<!-- Node10 -->
<g id="Node000010" class="node">
<title>Node10</title>
<g id="a_Node000010"><a xlink:href="namespacettg.html#abfb8501d408a1ed918cc2a540865a2d8" target="_top" xlink:title="returns whether tracing is enabled">
<polygon fill="white" stroke="#666666" points="414.5,-49.5 341.5,-49.5 341.5,-30.5 414.5,-30.5 414.5,-49.5"/>
<text text-anchor="middle" x="378" y="-37.5" font-family="Times,serif" font-size="10.00">ttg::tracing</text>
</a>
</g>
</g>
<!-- Node7&#45;&gt;Node10 -->
<g id="edge11_Node000007_Node000010" class="edge">
<title>Node7&#45;&gt;Node10</title>
<g id="a_edge11_Node000007_Node000010"><a xlink:title=" ">
<path fill="none" stroke="#63b8ff" d="M258.15,-70.31C279.21,-64.94 307.7,-57.67 331.5,-51.6"/>
<polygon fill="#63b8ff" stroke="#63b8ff" points="332.56,-54.95 341.38,-49.08 330.83,-48.16 332.56,-54.95"/>
</a>
</g>
</g>
<!-- Node8&#45;&gt;Node6 -->
<g id="edge9_Node000008_Node000006" class="edge">
<title>Node8&#45;&gt;Node6</title>
<g id="a_edge9_Node000008_Node000006"><a xlink:title=" ">
<path fill="none" stroke="#63b8ff" d="M404.62,-117.14C419.27,-117.8 438.28,-118.64 456.31,-119.45"/>
<polygon fill="#63b8ff" stroke="#63b8ff" points="456.33,-122.95 466.47,-119.9 456.64,-115.96 456.33,-122.95"/>
</a>
</g>
</g>
<!-- Node10&#45;&gt;Node9 -->
<g id="edge14_Node000010_Node000009" class="edge">
<title>Node10&#45;&gt;Node9</title>
<g id="a_edge14_Node000010_Node000009"><a xlink:title=" ">
<path fill="none" stroke="#63b8ff" d="M414.69,-48.49C429.64,-52.05 447.29,-56.25 463.5,-60.1"/>
<polygon fill="#63b8ff" stroke="#63b8ff" points="462.83,-63.54 473.37,-62.45 464.45,-56.73 462.83,-63.54"/>
</a>
</g>
</g>
<!-- Node11 -->
<g id="Node000011" class="node">
<title>Node11</title>
<g id="a_Node000011"><a xlink:href="namespacettg_1_1detail.html#a95356c3874e7ec9268a40feb4fc1519f" target="_top" xlink:title=" ">
<polygon fill="white" stroke="#666666" points="563,-30 466,-30 466,0 563,0 563,-30"/>
<text text-anchor="start" x="474" y="-18" font-family="Times,serif" font-size="10.00">ttg::detail::trace</text>
<text text-anchor="middle" x="514.5" y="-7" font-family="Times,serif" font-size="10.00">_accessor</text>
</a>
</g>
</g>
<!-- Node10&#45;&gt;Node11 -->
<g id="edge12_Node000010_Node000011" class="edge">
<title>Node10&#45;&gt;Node11</title>
<g id="a_edge12_Node000010_Node000011"><a xlink:title=" ">
<path fill="none" stroke="#63b8ff" d="M414.69,-33.37C427.34,-31.01 441.92,-28.31 455.92,-25.7"/>
<polygon fill="#63b8ff" stroke="#63b8ff" points="456.79,-29.1 465.98,-23.83 455.51,-22.22 456.79,-29.1"/>
</a>
</g>
</g>
<!-- Node11&#45;&gt;Node7 -->
<g id="edge13_Node000011_Node000007" class="edge">
<title>Node11&#45;&gt;Node7</title>
<g id="a_edge13_Node000011_Node000007"><a xlink:title=" ">
<path fill="none" stroke="#63b8ff" d="M465.98,-10.62C428.83,-8.61 376.24,-8.89 332,-21 301,-29.49 269.14,-48.82 248.99,-62.61"/>
<polygon fill="#63b8ff" stroke="#63b8ff" points="246.78,-59.89 240.6,-68.5 250.8,-65.62 246.78,-59.89"/>
</a>
</g>
</g>
</g>
</svg>

<g id="navigator" transform="translate(0 0)" fill="#404254">
  <rect fill="#f2f5e9" fill-opacity="0.5" stroke="#606060" stroke-width=".5" x="0" y="0" width="60" height="60"/>
  <use id="zoomplus" xlink:href="#zoomPlus" x="17" y="9" onmousedown="handleZoom(evt,'in')"/>
  <use id="zoomminus" xlink:href="#zoomMin" x="42" y="9" onmousedown="handleZoom(evt,'out')"/>
  <use id="reset" xlink:href="#resetDef" x="30" y="36" onmousedown="handleReset()"/>
   <use id="arrowup" xlink:href="#arrowUp" x="0" y="0" onmousedown="handlePan(0,-1)"/>
  <use id="arrowright" xlink:href="#arrowRight" x="0" y="0" onmousedown="handlePan(1,0)"/>
  <use id="arrowdown" xlink:href="#arrowDown" x="0" y="0" onmousedown="handlePan(0,1)"/>
  <use id="arrowleft" xlink:href="#arrowLeft" x="0" y="0" onmousedown="handlePan(-1,0)"/>
</g>
<svg viewBox="0 0 15 15" width="100%" height="30px" preserveAspectRatio="xMaxYMin meet">
 <g id="arrow_out" transform="scale(0.3 0.3)">
  <a xlink:href="classttg__madness_1_1_t_t_a9f0418a0dd9ec6ace5cfacf430a3461f_cgraph_org.svg" target="_base">
   <rect id="button" ry="5" rx="5" y="6" x="6" height="38" width="38"
        fill="#f2f5e9" fill-opacity="0.5" stroke="#606060" stroke-width="1.0"/>
   <path id="arrow"
     d="M 11.500037,31.436501 C 11.940474,20.09759 22.043105,11.32322 32.158766,21.979434 L 37.068811,17.246167 C 37.068811,17.246167 37.088388,32 37.088388,32 L 22.160133,31.978069 C 22.160133,31.978069 26.997745,27.140456 26.997745,27.140456 C 18.528582,18.264221 13.291696,25.230495 11.500037,31.436501 z"
     style="fill:#404040;"/>
  </a>
 </g>
</svg>

<style type='text/css'>
<![CDATA[
[data-mouse-over-selected='false'] { opacity: 0.7; }
[data-mouse-over-selected='true']  { opacity: 1.0; }
]]>
</style>
<script type="application/ecmascript"><![CDATA[
document.addEventListener('DOMContentLoaded', (event) => {
  highlightEdges();
  highlightAdjacentNodes();
});
]]></script>
</svg>
