<?xml version="1.0" encoding="UTF-8" standalone="no"?>
<!DOCTYPE svg PUBLIC "-//W3C//DTD SVG 1.1//EN"
 "http://www.w3.org/Graphics/SVG/1.1/DTD/svg11.dtd">
<!-- Generated by graphviz version 2.43.0 (0)
 -->
<!-- Title: ttg_parsec::TT::do_release Pages: 1 -->
<svg width="590pt" height="178pt"
 viewBox="0.00 0.00 590.00 178.25" xmlns="http://www.w3.org/2000/svg" xmlns:xlink="http://www.w3.org/1999/xlink">
<g id="graph0" class="graph" transform="scale(1 1) rotate(0) translate(4 174.25)">
<title>ttg_parsec::TT::do_release</title>
<!-- Node1 -->
<g id="Node000001" class="node">
<title>Node1</title>
<g id="a_Node000001"><a xlink:title=" ">
<polygon fill="#999999" stroke="#666666" points="107,-147.5 0,-147.5 0,-117.5 107,-117.5 107,-147.5"/>
<text text-anchor="start" x="8" y="-135.5" font-family="Times,serif" font-size="10.00">ttg_parsec::TT::do</text>
<text text-anchor="middle" x="53.5" y="-124.5" font-family="Times,serif" font-size="10.00">_release</text>
</a>
</g>
</g>
<!-- Node2 -->
<g id="Node000002" class="node">
<title>Node2</title>
<g id="a_Node000002"><a xlink:href="classttg__parsec_1_1_t_t.html#aab59a1bf0fcc4f771457b5f05cb42741" target="_top" xlink:title=" ">
<polygon fill="white" stroke="#666666" points="572,-111 461,-111 461,-92 572,-92 572,-111"/>
<text text-anchor="middle" x="516.5" y="-99" font-family="Times,serif" font-size="10.00">ttg_parsec::TT::get</text>
</a>
</g>
</g>
<!-- Node1&#45;&gt;Node2 -->
<g id="edge1_Node000001_Node000002" class="edge">
<title>Node1&#45;&gt;Node2</title>
<g id="a_edge1_Node000001_Node000002"><a xlink:title=" ">
<path fill="none" stroke="#63b8ff" d="M107.08,-146.15C178.13,-162.31 308.2,-183.81 415,-156.5 444.78,-148.88 475.22,-130.42 494.68,-116.98"/>
<polygon fill="#63b8ff" stroke="#63b8ff" points="496.93,-119.68 503.05,-111.04 492.87,-113.98 496.93,-119.68"/>
</a>
</g>
</g>
<!-- Node3 -->
<g id="Node000003" class="node">
<title>Node3</title>
<g id="a_Node000003"><a xlink:href="classttg_1_1base_1_1_world.html#aabab7c9df8f16919ab41a864c8b1adc4" target="_top" xlink:title=" ">
<polygon fill="white" stroke="#666666" points="268,-142 143,-142 143,-123 268,-123 268,-142"/>
<text text-anchor="middle" x="205.5" y="-130" font-family="Times,serif" font-size="10.00">ttg::base::World::impl</text>
</a>
</g>
</g>
<!-- Node1&#45;&gt;Node3 -->
<g id="edge3_Node000001_Node000003" class="edge">
<title>Node1&#45;&gt;Node3</title>
<g id="a_edge3_Node000001_Node000003"><a xlink:title=" ">
<path fill="none" stroke="#63b8ff" d="M107.38,-132.5C115.63,-132.5 124.27,-132.5 132.84,-132.5"/>
<polygon fill="#63b8ff" stroke="#63b8ff" points="132.86,-136 142.86,-132.5 132.86,-129 132.86,-136"/>
</a>
</g>
</g>
<!-- Node5 -->
<g id="Node000005" class="node">
<title>Node5</title>
<g id="a_Node000005"><a xlink:href="classttg__parsec_1_1_t_t.html#acec939399109ea862fb2e5d011aa9706" target="_top" xlink:title=" ">
<polygon fill="white" stroke="#666666" points="265,-104.5 146,-104.5 146,-74.5 265,-74.5 265,-104.5"/>
<text text-anchor="start" x="154" y="-92.5" font-family="Times,serif" font-size="10.00">ttg_parsec::TT::print</text>
<text text-anchor="middle" x="205.5" y="-81.5" font-family="Times,serif" font-size="10.00">_incomplete_tasks</text>
</a>
</g>
</g>
<!-- Node1&#45;&gt;Node5 -->
<g id="edge5_Node000001_Node000005" class="edge">
<title>Node1&#45;&gt;Node5</title>
<g id="a_edge5_Node000001_Node000005"><a xlink:title=" ">
<path fill="none" stroke="#63b8ff" d="M106.96,-117.46C118.38,-114.19 130.57,-110.69 142.32,-107.32"/>
<polygon fill="#63b8ff" stroke="#63b8ff" points="143.42,-110.65 152.07,-104.53 141.49,-103.92 143.42,-110.65"/>
</a>
</g>
</g>
<!-- Node2&#45;&gt;Node2 -->
<g id="edge2_Node000002_Node000002" class="edge">
<title>Node2&#45;&gt;Node2</title>
<g id="a_edge2_Node000002_Node000002"><a xlink:title=" ">
<path fill="none" stroke="#63b8ff" d="M492.46,-111.08C480.76,-119.73 488.77,-129 516.5,-129 534.7,-129 544.4,-125.01 545.62,-119.82"/>
<polygon fill="#63b8ff" stroke="#63b8ff" points="548.59,-117.97 540.54,-111.08 542.54,-121.49 548.59,-117.97"/>
</a>
</g>
</g>
<!-- Node4 -->
<g id="Node000004" class="node">
<title>Node4</title>
<g id="a_Node000004"><a xlink:href="classttg_1_1base_1_1_world.html#af39ca1832f455a94134515f94aaa8533" target="_top" xlink:title=" ">
<polygon fill="white" stroke="#666666" points="415,-147.5 304,-147.5 304,-117.5 415,-117.5 415,-147.5"/>
<text text-anchor="start" x="312" y="-135.5" font-family="Times,serif" font-size="10.00">ttg::base::World::is</text>
<text text-anchor="middle" x="359.5" y="-124.5" font-family="Times,serif" font-size="10.00">_valid</text>
</a>
</g>
</g>
<!-- Node3&#45;&gt;Node4 -->
<g id="edge4_Node000003_Node000004" class="edge">
<title>Node3&#45;&gt;Node4</title>
<g id="a_edge4_Node000003_Node000004"><a xlink:title=" ">
<path fill="none" stroke="#63b8ff" d="M268.32,-132.5C276.62,-132.5 285.15,-132.5 293.5,-132.5"/>
<polygon fill="#63b8ff" stroke="#63b8ff" points="293.57,-136 303.57,-132.5 293.57,-129 293.57,-136"/>
</a>
</g>
</g>
<!-- Node5&#45;&gt;Node2 -->
<g id="edge6_Node000005_Node000002" class="edge">
<title>Node5&#45;&gt;Node2</title>
<g id="a_edge6_Node000005_Node000002"><a xlink:title=" ">
<path fill="none" stroke="#63b8ff" d="M265.35,-91.79C318.24,-93.84 395.78,-96.85 450.48,-98.97"/>
<polygon fill="#63b8ff" stroke="#63b8ff" points="450.63,-102.48 460.76,-99.37 450.9,-95.49 450.63,-102.48"/>
</a>
</g>
</g>
<!-- Node6 -->
<g id="Node000006" class="node">
<title>Node6</title>
<g id="a_Node000006"><a xlink:href="classttg__parsec_1_1_t_t.html#a68814131fd8aa487afce9a89a5ee7f2b" target="_top" xlink:title=" ">
<polygon fill="white" stroke="#666666" points="412,-61.5 307,-61.5 307,-31.5 412,-31.5 412,-61.5"/>
<text text-anchor="start" x="315" y="-49.5" font-family="Times,serif" font-size="10.00">ttg_parsec::TT::ht</text>
<text text-anchor="middle" x="359.5" y="-38.5" font-family="Times,serif" font-size="10.00">_iter_cb</text>
</a>
</g>
</g>
<!-- Node5&#45;&gt;Node6 -->
<g id="edge7_Node000005_Node000006" class="edge">
<title>Node5&#45;&gt;Node6</title>
<g id="a_edge7_Node000005_Node000006"><a xlink:title=" ">
<path fill="none" stroke="#63b8ff" d="M259.66,-74.46C271.75,-71.04 284.7,-67.38 297.1,-63.87"/>
<polygon fill="#63b8ff" stroke="#63b8ff" points="298.23,-67.19 306.9,-61.1 296.33,-60.45 298.23,-67.19"/>
</a>
</g>
</g>
<!-- Node6&#45;&gt;Node2 -->
<g id="edge8_Node000006_Node000002" class="edge">
<title>Node6&#45;&gt;Node2</title>
<g id="a_edge8_Node000006_Node000002"><a xlink:title=" ">
<path fill="none" stroke="#63b8ff" d="M396.33,-61.63C412.84,-68.38 432.78,-76.21 451,-82.5 457.45,-84.73 464.32,-86.93 471.07,-89"/>
<polygon fill="#63b8ff" stroke="#63b8ff" points="470.25,-92.41 480.84,-91.93 472.26,-85.7 470.25,-92.41"/>
</a>
</g>
</g>
<!-- Node7 -->
<g id="Node000007" class="node">
<title>Node7</title>
<g id="a_Node000007"><a xlink:href="namespacettg_1_1meta.html#affd90f350d054c6a5b4859644d834172" target="_top" xlink:title=" ">
<polygon fill="white" stroke="#666666" points="559,-56 474,-56 474,-37 559,-37 559,-56"/>
<text text-anchor="middle" x="516.5" y="-44" font-family="Times,serif" font-size="10.00">ttg::meta::get</text>
</a>
</g>
</g>
<!-- Node6&#45;&gt;Node7 -->
<g id="edge9_Node000006_Node000007" class="edge">
<title>Node6&#45;&gt;Node7</title>
<g id="a_edge9_Node000006_Node000007"><a xlink:title=" ">
<path fill="none" stroke="#63b8ff" d="M412.11,-46.5C428.74,-46.5 447.16,-46.5 463.8,-46.5"/>
<polygon fill="#63b8ff" stroke="#63b8ff" points="463.89,-50 473.89,-46.5 463.89,-43 463.89,-50"/>
</a>
</g>
</g>
<!-- Node8 -->
<g id="Node000008" class="node">
<title>Node8</title>
<g id="a_Node000008"><a xlink:href="classttg_1_1_t_t_base.html#ade3b1e6b149fe1124f7192aeca5f715c" target="_top" xlink:title="Gets the name of this operation.">
<polygon fill="white" stroke="#666666" points="582,-19 451,-19 451,0 582,0 582,-19"/>
<text text-anchor="middle" x="516.5" y="-7" font-family="Times,serif" font-size="10.00">ttg::TTBase::get_name</text>
</a>
</g>
</g>
<!-- Node6&#45;&gt;Node8 -->
<g id="edge11_Node000006_Node000008" class="edge">
<title>Node6&#45;&gt;Node8</title>
<g id="a_edge11_Node000006_Node000008"><a xlink:title=" ">
<path fill="none" stroke="#63b8ff" d="M412.11,-34.18C429.34,-30.07 448.49,-25.5 465.59,-21.41"/>
<polygon fill="#63b8ff" stroke="#63b8ff" points="466.47,-24.8 475.39,-19.08 464.85,-17.99 466.47,-24.8"/>
</a>
</g>
</g>
<!-- Node7&#45;&gt;Node7 -->
<g id="edge10_Node000007_Node000007" class="edge">
<title>Node7&#45;&gt;Node7</title>
<g id="a_edge10_Node000007_Node000007"><a xlink:title=" ">
<path fill="none" stroke="#63b8ff" d="M492.46,-56.08C480.76,-64.73 488.77,-74 516.5,-74 534.7,-74 544.4,-70.01 545.62,-64.82"/>
<polygon fill="#63b8ff" stroke="#63b8ff" points="548.59,-62.97 540.54,-56.08 542.54,-66.49 548.59,-62.97"/>
</a>
</g>
</g>
</g>
</svg>
