<?xml version="1.0" encoding="UTF-8" standalone="no"?>
<!DOCTYPE svg PUBLIC "-//W3C//DTD SVG 1.1//EN"
 "http://www.w3.org/Graphics/SVG/1.1/DTD/svg11.dtd">
<!-- Generated by graphviz version 2.43.0 (0)
 -->
<!-- Title: ttg_parsec::TT::get Pages: 1 -->
<svg width="266pt" height="45pt"
 viewBox="0.00 0.00 266.00 45.00" xmlns="http://www.w3.org/2000/svg" xmlns:xlink="http://www.w3.org/1999/xlink">
<g id="graph0" class="graph" transform="scale(1 1) rotate(0) translate(4 41)">
<title>ttg_parsec::TT::get</title>
<!-- Node1 -->
<g id="Node000001" class="node">
<title>Node1</title>
<g id="a_Node000001"><a xlink:title=" ">
<polygon fill="#999999" stroke="#666666" points="111,-19 0,-19 0,0 111,0 111,-19"/>
<text text-anchor="middle" x="55.5" y="-7" font-family="Times,serif" font-size="10.00">ttg_parsec::TT::get</text>
</a>
</g>
</g>
<!-- Node2 -->
<g id="Node000002" class="node">
<title>Node2</title>
<g id="a_Node000002"><a xlink:href="classttg__parsec_1_1_t_t.html#aab59a1bf0fcc4f771457b5f05cb42741" target="_top" xlink:title=" ">
<polygon fill="white" stroke="#666666" points="258,-19 147,-19 147,0 258,0 258,-19"/>
<text text-anchor="middle" x="202.5" y="-7" font-family="Times,serif" font-size="10.00">ttg_parsec::TT::get</text>
</a>
</g>
</g>
<!-- Node1&#45;&gt;Node2 -->
<g id="edge1_Node000001_Node000002" class="edge">
<title>Node1&#45;&gt;Node2</title>
<g id="a_edge1_Node000001_Node000002"><a xlink:title=" ">
<path fill="none" stroke="#63b8ff" d="M111.32,-9.5C119.53,-9.5 128.06,-9.5 136.46,-9.5"/>
<polygon fill="#63b8ff" stroke="#63b8ff" points="136.6,-13 146.6,-9.5 136.6,-6 136.6,-13"/>
</a>
</g>
</g>
<!-- Node2&#45;&gt;Node2 -->
<g id="edge2_Node000002_Node000002" class="edge">
<title>Node2&#45;&gt;Node2</title>
<g id="a_edge2_Node000002_Node000002"><a xlink:title=" ">
<path fill="none" stroke="#63b8ff" d="M180,-19.08C169.05,-27.73 176.55,-37 202.5,-37 219.12,-37 228.18,-33.2 229.66,-28.19"/>
<polygon fill="#63b8ff" stroke="#63b8ff" points="232.67,-26.39 225,-19.08 226.44,-29.58 232.67,-26.39"/>
</a>
</g>
</g>
</g>
</svg>
