<?xml version="1.0" encoding="UTF-8" standalone="no"?>
<!DOCTYPE svg PUBLIC "-//W3C//DTD SVG 1.1//EN"
 "http://www.w3.org/Graphics/SVG/1.1/DTD/svg11.dtd">
<!-- Generated by graphviz version 2.43.0 (0)
 -->
<!-- Title: ttg::In::broadcast Pages: 1 -->
<svg width="347pt" height="64pt"
 viewBox="0.00 0.00 347.00 64.00" xmlns="http://www.w3.org/2000/svg" xmlns:xlink="http://www.w3.org/1999/xlink">

<svg id="main" version="1.1" xmlns="http://www.w3.org/2000/svg" xmlns:xlink="http://www.w3.org/1999/xlink" xml:space="preserve" onload="init(evt)">
<style type="text/css"><![CDATA[
.node, .edge {opacity: 0.7;}
.node.selected, .edge.selected {opacity: 1;}
.edge:hover path { stroke: red; }
.edge:hover polygon { stroke: red; fill: red; }
]]></style>
<script type="application/ecmascript" xlink:href="svg.min.js"/>
<svg id="graph" class="graph">
<g id="graph0" class="graph" transform="scale(1 1) rotate(0) translate(4 60)">
<title>ttg::In::broadcast</title>
<!-- Node1 -->
<g id="Node000001" class="node">
<title>Node1</title>
<g id="a_Node000001"><a xlink:title=" ">
<polygon fill="#999999" stroke="#666666" points="104,-38 0,-38 0,-19 104,-19 104,-38"/>
<text text-anchor="middle" x="52" y="-26" font-family="Times,serif" font-size="10.00">ttg::In::broadcast</text>
</a>
</g>
</g>
<!-- Node2 -->
<g id="Node000002" class="node">
<title>Node2</title>
<g id="a_Node000002"><a xlink:href="namespacettg_1_1meta.html#affd90f350d054c6a5b4859644d834172" target="_top" xlink:title=" ">
<polygon fill="white" stroke="#666666" points="339,-38 254,-38 254,-19 339,-19 339,-38"/>
<text text-anchor="middle" x="296.5" y="-26" font-family="Times,serif" font-size="10.00">ttg::meta::get</text>
</a>
</g>
</g>
<!-- Node1&#45;&gt;Node2 -->
<g id="edge1_Node000001_Node000002" class="edge">
<title>Node1&#45;&gt;Node2</title>
<g id="a_edge1_Node000001_Node000002"><a xlink:title=" ">
<path fill="none" stroke="#63b8ff" d="M104.13,-28.5C145.12,-28.5 202.41,-28.5 243.6,-28.5"/>
<polygon fill="#63b8ff" stroke="#63b8ff" points="243.71,-32 253.71,-28.5 243.71,-25 243.71,-32"/>
</a>
</g>
</g>
<!-- Node3 -->
<g id="Node000003" class="node">
<title>Node3</title>
<g id="a_Node000003"><a xlink:href="classttg_1_1_in.html#a6e510bdea0a0a446210c39fe14d8d7b1" target="_top" xlink:title=" ">
<polygon fill="white" stroke="#666666" points="218,-19 140,-19 140,0 218,0 218,-19"/>
<text text-anchor="middle" x="179" y="-7" font-family="Times,serif" font-size="10.00">ttg::In::send</text>
</a>
</g>
</g>
<!-- Node1&#45;&gt;Node3 -->
<g id="edge3_Node000001_Node000003" class="edge">
<title>Node1&#45;&gt;Node3</title>
<g id="a_edge3_Node000001_Node000003"><a xlink:title=" ">
<path fill="none" stroke="#63b8ff" d="M104.2,-20.72C112.64,-19.43 121.36,-18.11 129.72,-16.84"/>
<polygon fill="#63b8ff" stroke="#63b8ff" points="130.34,-20.28 139.7,-15.32 129.29,-13.36 130.34,-20.28"/>
</a>
</g>
</g>
<!-- Node2&#45;&gt;Node2 -->
<g id="edge2_Node000002_Node000002" class="edge">
<title>Node2&#45;&gt;Node2</title>
<g id="a_edge2_Node000002_Node000002"><a xlink:title=" ">
<path fill="none" stroke="#63b8ff" d="M278.62,-38.08C269.92,-46.73 275.88,-56 296.5,-56 309.39,-56 316.55,-52.38 317.98,-47.55"/>
<polygon fill="#63b8ff" stroke="#63b8ff" points="321.2,-46.19 314.38,-38.08 314.66,-48.67 321.2,-46.19"/>
</a>
</g>
</g>
<!-- Node3&#45;&gt;Node2 -->
<g id="edge4_Node000003_Node000002" class="edge">
<title>Node3&#45;&gt;Node2</title>
<g id="a_edge4_Node000003_Node000002"><a xlink:title=" ">
<path fill="none" stroke="#63b8ff" d="M218.14,-15.77C226.36,-17.13 235.18,-18.58 243.81,-20"/>
<polygon fill="#63b8ff" stroke="#63b8ff" points="243.38,-23.47 253.82,-21.64 244.52,-16.57 243.38,-23.47"/>
</a>
</g>
</g>
</g>
</svg>
</svg>

<style type='text/css'>
<![CDATA[
[data-mouse-over-selected='false'] { opacity: 0.7; }
[data-mouse-over-selected='true']  { opacity: 1.0; }
]]>
</style>
<script type="application/ecmascript"><![CDATA[
document.addEventListener('DOMContentLoaded', (event) => {
  highlightEdges();
  highlightAdjacentNodes();
});
]]></script>
</svg>
