<?xml version="1.0" encoding="UTF-8" standalone="no"?>
<!DOCTYPE svg PUBLIC "-//W3C//DTD SVG 1.1//EN"
 "http://www.w3.org/Graphics/SVG/1.1/DTD/svg11.dtd">
<!-- Generated by graphviz version 2.43.0 (0)
 -->
<!-- Title: ttg::BinarySpanningTree::child_keys Pages: 1 -->
<svg width="330pt" height="56pt"
 viewBox="0.00 0.00 330.00 56.00" xmlns="http://www.w3.org/2000/svg" xmlns:xlink="http://www.w3.org/1999/xlink">
<g id="graph0" class="graph" transform="scale(1 1) rotate(0) translate(4 52)">
<title>ttg::BinarySpanningTree::child_keys</title>
<!-- Node1 -->
<g id="Node000001" class="node">
<title>Node1</title>
<g id="a_Node000001"><a xlink:title=" ">
<polygon fill="#999999" stroke="#666666" points="143,-30 0,-30 0,0 143,0 143,-30"/>
<text text-anchor="start" x="8" y="-18" font-family="Times,serif" font-size="10.00">ttg::BinarySpanningTree</text>
<text text-anchor="middle" x="71.5" y="-7" font-family="Times,serif" font-size="10.00">::child_keys</text>
</a>
</g>
</g>
<!-- Node2 -->
<g id="Node000002" class="node">
<title>Node2</title>
<g id="a_Node000002"><a xlink:href="classttg_1_1_binary_spanning_tree.html#a31c570498d5fa0e40944ef57ccfc8ef1" target="_top" xlink:title=" ">
<polygon fill="white" stroke="#666666" points="322,-30 179,-30 179,0 322,0 322,-30"/>
<text text-anchor="start" x="187" y="-18" font-family="Times,serif" font-size="10.00">ttg::BinarySpanningTree</text>
<text text-anchor="middle" x="250.5" y="-7" font-family="Times,serif" font-size="10.00">::parent_key</text>
</a>
</g>
</g>
<!-- Node1&#45;&gt;Node2 -->
<g id="edge1_Node000001_Node000002" class="edge">
<title>Node1&#45;&gt;Node2</title>
<g id="a_edge1_Node000001_Node000002"><a xlink:title=" ">
<path fill="none" stroke="#63b8ff" d="M143.22,-15C151.57,-15 160.14,-15 168.62,-15"/>
<polygon fill="#63b8ff" stroke="#63b8ff" points="168.89,-18.5 178.89,-15 168.89,-11.5 168.89,-18.5"/>
</a>
</g>
</g>
<!-- Node2&#45;&gt;Node2 -->
<g id="edge2_Node000002_Node000002" class="edge">
<title>Node2&#45;&gt;Node2</title>
<g id="a_edge2_Node000002_Node000002"><a xlink:title=" ">
<path fill="none" stroke="#63b8ff" d="M219.21,-30.28C212.26,-39.41 222.69,-48 250.5,-48 267.01,-48 277.4,-44.97 281.66,-40.6"/>
<polygon fill="#63b8ff" stroke="#63b8ff" points="285.16,-40.32 281.79,-30.28 278.16,-40.23 285.16,-40.32"/>
</a>
</g>
</g>
</g>
</svg>
