<?xml version="1.0" encoding="UTF-8" standalone="no"?>
<!DOCTYPE svg PUBLIC "-//W3C//DTD SVG 1.1//EN"
 "http://www.w3.org/Graphics/SVG/1.1/DTD/svg11.dtd">
<!-- Generated by graphviz version 2.43.0 (0)
 -->
<!-- Title: ttg::TerminalBase::get_connections Pages: 1 -->
<svg width="731pt" height="611pt"
 viewBox="0.00 0.00 731.00 611.45" xmlns="http://www.w3.org/2000/svg" xmlns:xlink="http://www.w3.org/1999/xlink">
<g id="graph0" class="graph" transform="scale(1 1) rotate(0) translate(4 607.45)">
<title>ttg::TerminalBase::get_connections</title>
<!-- Node1 -->
<g id="Node000001" class="node">
<title>Node1</title>
<g id="a_Node000001"><a xlink:title="Get connections to successors.">
<polygon fill="#999999" stroke="#666666" points="723,-442.8 610,-442.8 610,-412.8 723,-412.8 723,-442.8"/>
<text text-anchor="start" x="618" y="-430.8" font-family="Times,serif" font-size="10.00">ttg::TerminalBase::</text>
<text text-anchor="middle" x="666.5" y="-419.8" font-family="Times,serif" font-size="10.00">get_connections</text>
</a>
</g>
</g>
<!-- Node2 -->
<g id="Node000002" class="node">
<title>Node2</title>
<g id="a_Node000002"><a xlink:href="classttg_1_1_out_terminal_base.html#a19283a6990d4c46f7c74fbaab4fddce5" target="_top" xlink:title=" ">
<polygon fill="white" stroke="#666666" points="574,-536.8 449,-536.8 449,-506.8 574,-506.8 574,-536.8"/>
<text text-anchor="start" x="457" y="-524.8" font-family="Times,serif" font-size="10.00">ttg::OutTerminalBase</text>
<text text-anchor="middle" x="511.5" y="-513.8" font-family="Times,serif" font-size="10.00">::nsuccessors</text>
</a>
</g>
</g>
<!-- Node1&#45;&gt;Node2 -->
<g id="edge1_Node000001_Node000002" class="edge">
<title>Node1&#45;&gt;Node2</title>
<g id="a_edge1_Node000001_Node000002"><a xlink:title=" ">
<path fill="none" stroke="#63b8ff" d="M632.06,-448.34C603.4,-465.95 562.76,-490.92 537.02,-506.73"/>
<polygon fill="#63b8ff" stroke="#63b8ff" points="634.23,-451.12 640.92,-442.9 630.57,-445.15 634.23,-451.12"/>
</a>
</g>
</g>
<!-- Node7 -->
<g id="Node000007" class="node">
<title>Node7</title>
<g id="a_Node000007"><a xlink:href="classttg_1_1_out_terminal_base.html#aa0341fd67b25363d5c45d77646294cf9" target="_top" xlink:title=" ">
<polygon fill="white" stroke="#666666" points="574,-349.8 449,-349.8 449,-319.8 574,-319.8 574,-349.8"/>
<text text-anchor="start" x="457" y="-337.8" font-family="Times,serif" font-size="10.00">ttg::OutTerminalBase</text>
<text text-anchor="middle" x="511.5" y="-326.8" font-family="Times,serif" font-size="10.00">::successors</text>
</a>
</g>
</g>
<!-- Node1&#45;&gt;Node7 -->
<g id="edge7_Node000001_Node000007" class="edge">
<title>Node1&#45;&gt;Node7</title>
<g id="a_edge7_Node000001_Node000007"><a xlink:title=" ">
<path fill="none" stroke="#63b8ff" d="M631.77,-407.29C603.26,-389.96 563.08,-365.54 537.41,-349.94"/>
<polygon fill="#63b8ff" stroke="#63b8ff" points="630.21,-410.45 640.58,-412.65 633.85,-404.46 630.21,-410.45"/>
</a>
</g>
</g>
<!-- Node3 -->
<g id="Node000003" class="node">
<title>Node3</title>
<g id="a_Node000003"><a xlink:href="classttg_1_1_out.html#ad2a015783a18cb7e66096c95a9ae77d0" target="_top" xlink:title=" ">
<polygon fill="white" stroke="#666666" points="222,-587.3 136,-587.3 136,-568.3 222,-568.3 222,-587.3"/>
<text text-anchor="middle" x="179" y="-575.3" font-family="Times,serif" font-size="10.00">ttg::Out::send</text>
</a>
</g>
</g>
<!-- Node2&#45;&gt;Node3 -->
<g id="edge2_Node000002_Node000003" class="edge">
<title>Node2&#45;&gt;Node3</title>
<g id="a_edge2_Node000002_Node000003"><a xlink:title=" ">
<path fill="none" stroke="#63b8ff" d="M488.22,-544.11C469.81,-560.86 442.07,-582.44 413,-591.8 344.91,-613.71 259.96,-598.75 213.76,-587.35"/>
<polygon fill="#63b8ff" stroke="#63b8ff" points="491.09,-546.21 495.99,-536.82 486.3,-541.11 491.09,-546.21"/>
</a>
</g>
</g>
<!-- Node4 -->
<g id="Node000004" class="node">
<title>Node4</title>
<g id="a_Node000004"><a xlink:href="classttg_1_1_out.html#a19596b1bdc19006bfe9771b3ece65223" target="_top" xlink:title=" ">
<polygon fill="white" stroke="#666666" points="393,-531.3 301,-531.3 301,-512.3 393,-512.3 393,-531.3"/>
<text text-anchor="middle" x="347" y="-519.3" font-family="Times,serif" font-size="10.00">ttg::Out::sendv</text>
</a>
</g>
</g>
<!-- Node2&#45;&gt;Node4 -->
<g id="edge3_Node000002_Node000004" class="edge">
<title>Node2&#45;&gt;Node4</title>
<g id="a_edge3_Node000002_Node000004"><a xlink:title=" ">
<path fill="none" stroke="#63b8ff" d="M438.53,-521.8C423.06,-521.8 407.14,-521.8 393.05,-521.8"/>
<polygon fill="#63b8ff" stroke="#63b8ff" points="438.6,-525.3 448.6,-521.8 438.6,-518.3 438.6,-525.3"/>
</a>
</g>
</g>
<!-- Node4&#45;&gt;Node4 -->
<g id="edge4_Node000004_Node000004" class="edge">
<title>Node4&#45;&gt;Node4</title>
<g id="a_edge4_Node000004_Node000004"><a xlink:title=" ">
<path fill="none" stroke="#63b8ff" d="M377.61,-540.12C376.33,-545.31 366.13,-549.3 347,-549.3 317.85,-549.3 309.43,-540.03 321.72,-531.38"/>
<polygon fill="#63b8ff" stroke="#63b8ff" points="380.48,-538.09 372.28,-531.38 374.5,-541.74 380.48,-538.09"/>
</a>
</g>
</g>
<!-- Node5 -->
<g id="Node000005" class="node">
<title>Node5</title>
<g id="a_Node000005"><a xlink:href="namespacettg.html#a8f6699133cf34d99b17a41af9834a272" target="_top" xlink:title="Sends a value (without an accompanying task id) to the given output terminal.">
<polygon fill="white" stroke="#666666" points="213,-531.3 145,-531.3 145,-512.3 213,-512.3 213,-531.3"/>
<text text-anchor="middle" x="179" y="-519.3" font-family="Times,serif" font-size="10.00">ttg::sendv</text>
</a>
</g>
</g>
<!-- Node4&#45;&gt;Node5 -->
<g id="edge5_Node000004_Node000005" class="edge">
<title>Node4&#45;&gt;Node5</title>
<g id="a_edge5_Node000004_Node000005"><a xlink:title=" ">
<path fill="none" stroke="#63b8ff" d="M290.31,-521.8C264.73,-521.8 235.24,-521.8 213.19,-521.8"/>
<polygon fill="#63b8ff" stroke="#63b8ff" points="290.64,-525.3 300.64,-521.8 290.64,-518.3 290.64,-525.3"/>
</a>
</g>
</g>
<!-- Node6 -->
<g id="Node000006" class="node">
<title>Node6</title>
<g id="a_Node000006"><a xlink:href="namespacettg.html#aec6fd6a228d0400a690001fd5171b468" target="_top" xlink:title="Sends a value (without an accompanying task id) to the template tasks attached to the output terminal...">
<polygon fill="white" stroke="#666666" points="72.5,-531.3 4.5,-531.3 4.5,-512.3 72.5,-512.3 72.5,-531.3"/>
<text text-anchor="middle" x="38.5" y="-519.3" font-family="Times,serif" font-size="10.00">ttg::sendv</text>
</a>
</g>
</g>
<!-- Node5&#45;&gt;Node6 -->
<g id="edge6_Node000005_Node000006" class="edge">
<title>Node5&#45;&gt;Node6</title>
<g id="a_edge6_Node000005_Node000006"><a xlink:title=" ">
<path fill="none" stroke="#63b8ff" d="M134.74,-521.8C114.78,-521.8 91.46,-521.8 72.88,-521.8"/>
<polygon fill="#63b8ff" stroke="#63b8ff" points="134.83,-525.3 144.83,-521.8 134.83,-518.3 134.83,-525.3"/>
</a>
</g>
</g>
<!-- Node7&#45;&gt;Node3 -->
<g id="edge27_Node000007_Node000003" class="edge">
<title>Node7&#45;&gt;Node3</title>
<g id="a_edge27_Node000007_Node000003"><a xlink:title=" ">
<path fill="none" stroke="#63b8ff" d="M501.48,-359.27C480.79,-414.78 430.38,-546.37 413,-558.8 356.88,-598.93 272.55,-594.14 222.22,-586.39"/>
<polygon fill="#63b8ff" stroke="#63b8ff" points="504.78,-360.43 504.98,-349.84 498.22,-358 504.78,-360.43"/>
</a>
</g>
</g>
<!-- Node7&#45;&gt;Node4 -->
<g id="edge32_Node000007_Node000004" class="edge">
<title>Node7&#45;&gt;Node4</title>
<g id="a_edge32_Node000007_Node000004"><a xlink:title=" ">
<path fill="none" stroke="#63b8ff" d="M502.9,-359.8C490.33,-396.88 461.63,-466.14 413,-503.8 407.17,-508.31 400.27,-511.7 393.18,-514.23"/>
<polygon fill="#63b8ff" stroke="#63b8ff" points="506.38,-360.41 506.16,-349.81 499.73,-358.24 506.38,-360.41"/>
</a>
</g>
</g>
<!-- Node8 -->
<g id="Node000008" class="node">
<title>Node8</title>
<g id="a_Node000008"><a xlink:href="classttg_1_1_out.html#a5e3565d4f06d2476f4537882072c1225" target="_top" xlink:title=" ">
<polygon fill="white" stroke="#666666" points="235,-392.3 123,-392.3 123,-373.3 235,-373.3 235,-392.3"/>
<text text-anchor="middle" x="179" y="-380.3" font-family="Times,serif" font-size="10.00">ttg::Out::broadcast</text>
</a>
</g>
</g>
<!-- Node7&#45;&gt;Node8 -->
<g id="edge8_Node000007_Node000008" class="edge">
<title>Node7&#45;&gt;Node8</title>
<g id="a_edge8_Node000007_Node000008"><a xlink:title=" ">
<path fill="none" stroke="#63b8ff" d="M489.98,-357.24C471.78,-375.35 443.43,-399.45 413,-409.8 339.94,-434.65 247.37,-407.91 204.21,-392.35"/>
<polygon fill="#63b8ff" stroke="#63b8ff" points="492.65,-359.51 497.13,-349.9 487.64,-354.62 492.65,-359.51"/>
</a>
</g>
</g>
<!-- Node9 -->
<g id="Node000009" class="node">
<title>Node9</title>
<g id="a_Node000009"><a xlink:href="classttg_1_1_out.html#a61dbd5c1f8d8cc7f5370f2b8b400b900" target="_top" xlink:title=" ">
<polygon fill="white" stroke="#666666" points="403,-382.3 291,-382.3 291,-363.3 403,-363.3 403,-382.3"/>
<text text-anchor="middle" x="347" y="-370.3" font-family="Times,serif" font-size="10.00">ttg::Out::broadcast</text>
</a>
</g>
</g>
<!-- Node7&#45;&gt;Node9 -->
<g id="edge9_Node000007_Node000009" class="edge">
<title>Node7&#45;&gt;Node9</title>
<g id="a_edge9_Node000007_Node000009"><a xlink:title=" ">
<path fill="none" stroke="#63b8ff" d="M438.69,-351.59C421.71,-355.56 404.17,-359.66 389.1,-363.19"/>
<polygon fill="#63b8ff" stroke="#63b8ff" points="439.66,-354.96 448.6,-349.27 438.07,-348.14 439.66,-354.96"/>
</a>
</g>
</g>
<!-- Node10 -->
<g id="Node000010" class="node">
<title>Node10</title>
<g id="a_Node000010"><a xlink:href="classttg_1_1_out_terminal_base.html#a17d34c774c64c9aed0cd9424cafba0e2" target="_top" xlink:title=" ">
<polygon fill="white" stroke="#666666" points="409.5,-288.8 284.5,-288.8 284.5,-258.8 409.5,-258.8 409.5,-288.8"/>
<text text-anchor="start" x="292.5" y="-276.8" font-family="Times,serif" font-size="10.00">ttg::OutTerminalBase</text>
<text text-anchor="middle" x="347" y="-265.8" font-family="Times,serif" font-size="10.00">::finalize</text>
</a>
</g>
</g>
<!-- Node7&#45;&gt;Node10 -->
<g id="edge12_Node000007_Node000010" class="edge">
<title>Node7&#45;&gt;Node10</title>
<g id="a_edge12_Node000007_Node000010"><a xlink:title=" ">
<path fill="none" stroke="#63b8ff" d="M460.93,-316.19C437.55,-307.41 410.01,-297.08 387.99,-288.81"/>
<polygon fill="#63b8ff" stroke="#63b8ff" points="459.74,-319.48 470.33,-319.72 462.2,-312.93 459.74,-319.48"/>
</a>
</g>
</g>
<!-- Node11 -->
<g id="Node000011" class="node">
<title>Node11</title>
<g id="a_Node000011"><a xlink:href="classttg_1_1_out_terminal_base.html#af7831a958cf8a5774153bf0c3c0cfaa6" target="_top" xlink:title=" ">
<polygon fill="white" stroke="#666666" points="241.5,-302.8 116.5,-302.8 116.5,-272.8 241.5,-272.8 241.5,-302.8"/>
<text text-anchor="start" x="124.5" y="-290.8" font-family="Times,serif" font-size="10.00">ttg::OutTerminalBase</text>
<text text-anchor="middle" x="179" y="-279.8" font-family="Times,serif" font-size="10.00">::finalize</text>
</a>
</g>
</g>
<!-- Node7&#45;&gt;Node11 -->
<g id="edge17_Node000007_Node000011" class="edge">
<title>Node7&#45;&gt;Node11</title>
<g id="a_edge17_Node000007_Node000011"><a xlink:title=" ">
<path fill="none" stroke="#63b8ff" d="M438.67,-332.32C393.2,-329.89 333.33,-325.13 281,-315.8 263.18,-312.62 243.95,-307.68 227.1,-302.83"/>
<polygon fill="#63b8ff" stroke="#63b8ff" points="438.56,-335.82 448.73,-332.83 438.92,-328.83 438.56,-335.82"/>
</a>
</g>
</g>
<!-- Node14 -->
<g id="Node000014" class="node">
<title>Node14</title>
<g id="a_Node000014"><a xlink:href="classttg_1_1_out.html#a57b889eeff9324054e816caed0561ae1" target="_top" xlink:title=" ">
<polygon fill="white" stroke="#666666" points="413,-184.3 281,-184.3 281,-165.3 413,-165.3 413,-184.3"/>
<text text-anchor="middle" x="347" y="-172.3" font-family="Times,serif" font-size="10.00">ttg::Out::prepare_send</text>
</a>
</g>
</g>
<!-- Node7&#45;&gt;Node14 -->
<g id="edge18_Node000007_Node000014" class="edge">
<title>Node7&#45;&gt;Node14</title>
<g id="a_edge18_Node000007_Node000014"><a xlink:title=" ">
<path fill="none" stroke="#63b8ff" d="M494.59,-311.53C476.64,-286.33 445.68,-245.87 413,-216.8 398.44,-203.85 379.52,-192.1 365.85,-184.34"/>
<polygon fill="#63b8ff" stroke="#63b8ff" points="491.76,-313.59 500.37,-319.76 497.48,-309.56 491.76,-313.59"/>
</a>
</g>
</g>
<!-- Node15 -->
<g id="Node000015" class="node">
<title>Node15</title>
<g id="a_Node000015"><a xlink:href="classttg_1_1_out.html#a5ac82dc10b43caa7723a6b20d2ef85b2" target="_top" xlink:title=" ">
<polygon fill="white" stroke="#666666" points="245,-226.3 113,-226.3 113,-207.3 245,-207.3 245,-226.3"/>
<text text-anchor="middle" x="179" y="-214.3" font-family="Times,serif" font-size="10.00">ttg::Out::prepare_send</text>
</a>
</g>
</g>
<!-- Node7&#45;&gt;Node15 -->
<g id="edge21_Node000007_Node000015" class="edge">
<title>Node7&#45;&gt;Node15</title>
<g id="a_edge21_Node000007_Node000015"><a xlink:title=" ">
<path fill="none" stroke="#63b8ff" d="M491.31,-311.84C473.27,-291.95 444.41,-264.16 413,-249.8 359.87,-225.5 293.39,-218.05 245.06,-216.21"/>
<polygon fill="#63b8ff" stroke="#63b8ff" points="488.88,-314.38 498.13,-319.56 494.13,-309.75 488.88,-314.38"/>
</a>
</g>
</g>
<!-- Node16 -->
<g id="Node000016" class="node">
<title>Node16</title>
<g id="a_Node000016"><a xlink:href="classttg_1_1_out.html#af3902b047294f85bdfaeb42dcd4488a4" target="_top" xlink:title=" ">
<polygon fill="white" stroke="#666666" points="390,-476.3 304,-476.3 304,-457.3 390,-457.3 390,-476.3"/>
<text text-anchor="middle" x="347" y="-464.3" font-family="Times,serif" font-size="10.00">ttg::Out::send</text>
</a>
</g>
</g>
<!-- Node7&#45;&gt;Node16 -->
<g id="edge22_Node000007_Node000016" class="edge">
<title>Node7&#45;&gt;Node16</title>
<g id="a_edge22_Node000007_Node000016"><a xlink:title=" ">
<path fill="none" stroke="#63b8ff" d="M494.74,-358.07C477.3,-382.25 447.09,-419.72 413,-442.8 404.03,-448.87 393.34,-453.63 383.24,-457.27"/>
<polygon fill="#63b8ff" stroke="#63b8ff" points="497.66,-360 500.58,-349.81 491.95,-355.96 497.66,-360"/>
</a>
</g>
</g>
<!-- Node19 -->
<g id="Node000019" class="node">
<title>Node19</title>
<g id="a_Node000019"><a xlink:href="classttg_1_1_out.html#a63a75f52fff6b34ec5287e7daefe5bfa" target="_top" xlink:title=" ">
<polygon fill="white" stroke="#666666" points="393,-129.3 301,-129.3 301,-110.3 393,-110.3 393,-129.3"/>
<text text-anchor="middle" x="347" y="-117.3" font-family="Times,serif" font-size="10.00">ttg::Out::sendk</text>
</a>
</g>
</g>
<!-- Node7&#45;&gt;Node19 -->
<g id="edge28_Node000007_Node000019" class="edge">
<title>Node7&#45;&gt;Node19</title>
<g id="a_edge28_Node000007_Node000019"><a xlink:title=" ">
<path fill="none" stroke="#63b8ff" d="M502.02,-310.17C488.25,-273.11 457.95,-202.49 413,-156.8 401.34,-144.95 385.09,-135.7 371.76,-129.41"/>
<polygon fill="#63b8ff" stroke="#63b8ff" points="498.77,-311.48 505.46,-319.69 505.35,-309.09 498.77,-311.48"/>
</a>
</g>
</g>
<!-- Node22 -->
<g id="Node000022" class="node">
<title>Node22</title>
<g id="a_Node000022"><a xlink:href="classttg_1_1_out_terminal_base.html#ae49bef4469c9abd4dd1f10b0429984b4" target="_top" xlink:title=" ">
<polygon fill="white" stroke="#666666" points="409.5,-73.8 284.5,-73.8 284.5,-43.8 409.5,-43.8 409.5,-73.8"/>
<text text-anchor="start" x="292.5" y="-61.8" font-family="Times,serif" font-size="10.00">ttg::OutTerminalBase</text>
<text text-anchor="middle" x="347" y="-50.8" font-family="Times,serif" font-size="10.00">::set_size</text>
</a>
</g>
</g>
<!-- Node7&#45;&gt;Node22 -->
<g id="edge33_Node000007_Node000022" class="edge">
<title>Node7&#45;&gt;Node22</title>
<g id="a_edge33_Node000007_Node000022"><a xlink:title=" ">
<path fill="none" stroke="#63b8ff" d="M505.11,-309.63C494.31,-263.97 466.32,-166.22 413,-101.8 403.6,-90.44 390.42,-80.95 378.38,-73.81"/>
<polygon fill="#63b8ff" stroke="#63b8ff" points="501.74,-310.6 507.39,-319.57 508.57,-309.04 501.74,-310.6"/>
</a>
</g>
</g>
<!-- Node27 -->
<g id="Node000027" class="node">
<title>Node27</title>
<g id="a_Node000027"><a xlink:href="classttg_1_1_out_terminal_base.html#a5ce0ce0c4247e276201644e30314ba70" target="_top" xlink:title=" ">
<polygon fill="white" stroke="#666666" points="241.5,-30.8 116.5,-30.8 116.5,-0.8 241.5,-0.8 241.5,-30.8"/>
<text text-anchor="start" x="124.5" y="-18.8" font-family="Times,serif" font-size="10.00">ttg::OutTerminalBase</text>
<text text-anchor="middle" x="179" y="-7.8" font-family="Times,serif" font-size="10.00">::set_size</text>
</a>
</g>
</g>
<!-- Node7&#45;&gt;Node27 -->
<g id="edge40_Node000007_Node000027" class="edge">
<title>Node7&#45;&gt;Node27</title>
<g id="a_edge40_Node000007_Node000027"><a xlink:title=" ">
<path fill="none" stroke="#63b8ff" d="M510.9,-309.53C510.31,-250.5 499.77,-103.4 413,-34.8 365.08,3.08 292.98,2.99 241.69,-3.52"/>
<polygon fill="#63b8ff" stroke="#63b8ff" points="507.4,-309.8 510.91,-319.8 514.4,-309.79 507.4,-309.8"/>
</a>
</g>
</g>
<!-- Node9&#45;&gt;Node8 -->
<g id="edge10_Node000009_Node000008" class="edge">
<title>Node9&#45;&gt;Node8</title>
<g id="a_edge10_Node000009_Node000008"><a xlink:title=" ">
<path fill="none" stroke="#63b8ff" d="M280.46,-376.75C265.42,-377.65 249.58,-378.61 235.03,-379.48"/>
<polygon fill="#63b8ff" stroke="#63b8ff" points="280.95,-380.22 290.72,-376.13 280.53,-373.24 280.95,-380.22"/>
</a>
</g>
</g>
<!-- Node9&#45;&gt;Node9 -->
<g id="edge11_Node000009_Node000009" class="edge">
<title>Node9&#45;&gt;Node9</title>
<g id="a_edge11_Node000009_Node000009"><a xlink:title=" ">
<path fill="none" stroke="#63b8ff" d="M377.61,-391.12C376.33,-396.31 366.13,-400.3 347,-400.3 317.85,-400.3 309.43,-391.03 321.72,-382.38"/>
<polygon fill="#63b8ff" stroke="#63b8ff" points="380.48,-389.09 372.28,-382.38 374.5,-392.74 380.48,-389.09"/>
</a>
</g>
</g>
<!-- Node10&#45;&gt;Node10 -->
<g id="edge13_Node000010_Node000010" class="edge">
<title>Node10&#45;&gt;Node10</title>
<g id="a_edge13_Node000010_Node000010"><a xlink:title=" ">
<path fill="none" stroke="#63b8ff" d="M375.71,-299.4C371.78,-303.77 362.21,-306.8 347,-306.8 321.38,-306.8 311.77,-298.2 318.17,-289.07"/>
<polygon fill="#63b8ff" stroke="#63b8ff" points="379.21,-299.11 375.83,-289.07 372.21,-299.03 379.21,-299.11"/>
</a>
</g>
</g>
<!-- Node10&#45;&gt;Node11 -->
<g id="edge14_Node000010_Node000011" class="edge">
<title>Node10&#45;&gt;Node11</title>
<g id="a_edge14_Node000010_Node000011"><a xlink:title=" ">
<path fill="none" stroke="#63b8ff" d="M273.95,-279.87C263.16,-280.78 252.13,-281.71 241.59,-282.6"/>
<polygon fill="#63b8ff" stroke="#63b8ff" points="274.52,-283.34 284.19,-279.01 273.93,-276.36 274.52,-283.34"/>
</a>
</g>
</g>
<!-- Node12 -->
<g id="Node000012" class="node">
<title>Node12</title>
<g id="a_Node000012"><a xlink:href="namespacettg.html#a7075f199efa0ec86240a4b8c0fc621da" target="_top" xlink:title="Finalize streaming input terminals connecting to the given output terminal for tasks identified by ke...">
<polygon fill="white" stroke="#666666" points="75.5,-315.3 1.5,-315.3 1.5,-296.3 75.5,-296.3 75.5,-315.3"/>
<text text-anchor="middle" x="38.5" y="-303.3" font-family="Times,serif" font-size="10.00">ttg::finalize</text>
</a>
</g>
</g>
<!-- Node11&#45;&gt;Node12 -->
<g id="edge15_Node000011_Node000012" class="edge">
<title>Node11&#45;&gt;Node12</title>
<g id="a_edge15_Node000011_Node000012"><a xlink:title=" ">
<path fill="none" stroke="#63b8ff" d="M106.33,-297.11C95.76,-298.49 85.27,-299.85 75.84,-301.07"/>
<polygon fill="#63b8ff" stroke="#63b8ff" points="106.98,-300.56 116.45,-295.8 106.08,-293.62 106.98,-300.56"/>
</a>
</g>
</g>
<!-- Node13 -->
<g id="Node000013" class="node">
<title>Node13</title>
<g id="a_Node000013"><a xlink:href="namespacettg.html#ac12ebacc01669eddae361b592e94188e" target="_top" xlink:title="Finalize streaming input terminals connected to the given output terminal; use this to finalize termi...">
<polygon fill="white" stroke="#666666" points="75.5,-278.3 1.5,-278.3 1.5,-259.3 75.5,-259.3 75.5,-278.3"/>
<text text-anchor="middle" x="38.5" y="-266.3" font-family="Times,serif" font-size="10.00">ttg::finalize</text>
</a>
</g>
</g>
<!-- Node11&#45;&gt;Node13 -->
<g id="edge16_Node000011_Node000013" class="edge">
<title>Node11&#45;&gt;Node13</title>
<g id="a_edge16_Node000011_Node000013"><a xlink:title=" ">
<path fill="none" stroke="#63b8ff" d="M106.33,-277.96C95.76,-276.52 85.27,-275.08 75.84,-273.78"/>
<polygon fill="#63b8ff" stroke="#63b8ff" points="106.06,-281.46 116.45,-279.35 107.01,-274.53 106.06,-281.46"/>
</a>
</g>
</g>
<!-- Node14&#45;&gt;Node14 -->
<g id="edge19_Node000014_Node000014" class="edge">
<title>Node14&#45;&gt;Node14</title>
<g id="a_edge19_Node000014_Node000014"><a xlink:title=" ">
<path fill="none" stroke="#63b8ff" d="M377.61,-193.12C376.33,-198.31 366.13,-202.3 347,-202.3 317.85,-202.3 309.43,-193.03 321.72,-184.38"/>
<polygon fill="#63b8ff" stroke="#63b8ff" points="380.48,-191.09 372.28,-184.38 374.5,-194.74 380.48,-191.09"/>
</a>
</g>
</g>
<!-- Node14&#45;&gt;Node15 -->
<g id="edge20_Node000014_Node000015" class="edge">
<title>Node14&#45;&gt;Node15</title>
<g id="a_edge20_Node000014_Node000015"><a xlink:title=" ">
<path fill="none" stroke="#63b8ff" d="M298.46,-186.83C272.87,-193.3 241.73,-201.18 217.81,-207.23"/>
<polygon fill="#63b8ff" stroke="#63b8ff" points="299.5,-190.17 308.33,-184.33 297.78,-183.39 299.5,-190.17"/>
</a>
</g>
</g>
<!-- Node16&#45;&gt;Node3 -->
<g id="edge24_Node000016_Node000003" class="edge">
<title>Node16&#45;&gt;Node3</title>
<g id="a_edge24_Node000016_Node000003"><a xlink:title=" ">
<path fill="none" stroke="#63b8ff" d="M316.84,-481.12C305.23,-487.39 292.02,-495.27 281,-503.8 262.85,-517.83 263.15,-526.76 245,-540.8 231.03,-551.6 213.56,-561.37 200.25,-568.15"/>
<polygon fill="#63b8ff" stroke="#63b8ff" points="318.52,-484.19 325.75,-476.44 315.27,-477.99 318.52,-484.19"/>
</a>
</g>
</g>
<!-- Node16&#45;&gt;Node16 -->
<g id="edge23_Node000016_Node000016" class="edge">
<title>Node16&#45;&gt;Node16</title>
<g id="a_edge23_Node000016_Node000016"><a xlink:title=" ">
<path fill="none" stroke="#63b8ff" d="M377.61,-485.12C376.33,-490.31 366.13,-494.3 347,-494.3 317.85,-494.3 309.43,-485.03 321.72,-476.38"/>
<polygon fill="#63b8ff" stroke="#63b8ff" points="380.48,-483.09 372.28,-476.38 374.5,-486.74 380.48,-483.09"/>
</a>
</g>
</g>
<!-- Node17 -->
<g id="Node000017" class="node">
<title>Node17</title>
<g id="a_Node000017"><a xlink:href="namespacettg.html#a195eb3c0d9b0118dd7c94c0463840734" target="_top" xlink:title="Sends a task id and a value to the given output terminal.">
<polygon fill="white" stroke="#666666" points="210,-485.3 148,-485.3 148,-466.3 210,-466.3 210,-485.3"/>
<text text-anchor="middle" x="179" y="-473.3" font-family="Times,serif" font-size="10.00">ttg::send</text>
</a>
</g>
</g>
<!-- Node16&#45;&gt;Node17 -->
<g id="edge25_Node000016_Node000017" class="edge">
<title>Node16&#45;&gt;Node17</title>
<g id="a_edge25_Node000016_Node000017"><a xlink:title=" ">
<path fill="none" stroke="#63b8ff" d="M293.44,-469.65C266,-471.14 233.39,-472.9 210.19,-474.16"/>
<polygon fill="#63b8ff" stroke="#63b8ff" points="293.89,-473.13 303.68,-469.09 293.51,-466.14 293.89,-473.13"/>
</a>
</g>
</g>
<!-- Node18 -->
<g id="Node000018" class="node">
<title>Node18</title>
<g id="a_Node000018"><a xlink:href="namespacettg.html#a64fbfb8618ef226f6b3d49a7a46db0cb" target="_top" xlink:title="Sends a control message (message without an accompanying task id or a value) to the given output term...">
<polygon fill="white" stroke="#666666" points="210,-448.3 148,-448.3 148,-429.3 210,-429.3 210,-448.3"/>
<text text-anchor="middle" x="179" y="-436.3" font-family="Times,serif" font-size="10.00">ttg::send</text>
</a>
</g>
</g>
<!-- Node16&#45;&gt;Node18 -->
<g id="edge26_Node000016_Node000018" class="edge">
<title>Node16&#45;&gt;Node18</title>
<g id="a_edge26_Node000016_Node000018"><a xlink:title=" ">
<path fill="none" stroke="#63b8ff" d="M293.81,-457.99C266.28,-453.35 233.49,-447.82 210.19,-443.89"/>
<polygon fill="#63b8ff" stroke="#63b8ff" points="293.24,-461.45 303.68,-459.66 294.4,-454.54 293.24,-461.45"/>
</a>
</g>
</g>
<!-- Node19&#45;&gt;Node19 -->
<g id="edge29_Node000019_Node000019" class="edge">
<title>Node19&#45;&gt;Node19</title>
<g id="a_edge29_Node000019_Node000019"><a xlink:title=" ">
<path fill="none" stroke="#63b8ff" d="M377.61,-138.12C376.33,-143.31 366.13,-147.3 347,-147.3 317.85,-147.3 309.43,-138.03 321.72,-129.38"/>
<polygon fill="#63b8ff" stroke="#63b8ff" points="380.48,-136.09 372.28,-129.38 374.5,-139.74 380.48,-136.09"/>
</a>
</g>
</g>
<!-- Node20 -->
<g id="Node000020" class="node">
<title>Node20</title>
<g id="a_Node000020"><a xlink:href="namespacettg.html#a83562836ce105890c0e32d75cad1e421" target="_top" xlink:title="Sends a task id (without an accompanying value) to the given output terminal.">
<polygon fill="white" stroke="#666666" points="213,-142.3 145,-142.3 145,-123.3 213,-123.3 213,-142.3"/>
<text text-anchor="middle" x="179" y="-130.3" font-family="Times,serif" font-size="10.00">ttg::sendk</text>
</a>
</g>
</g>
<!-- Node19&#45;&gt;Node20 -->
<g id="edge30_Node000019_Node000020" class="edge">
<title>Node19&#45;&gt;Node20</title>
<g id="a_edge30_Node000019_Node000020"><a xlink:title=" ">
<path fill="none" stroke="#63b8ff" d="M290.66,-124.13C264.99,-126.14 235.34,-128.46 213.19,-130.2"/>
<polygon fill="#63b8ff" stroke="#63b8ff" points="290.94,-127.62 300.64,-123.35 290.4,-120.64 290.94,-127.62"/>
</a>
</g>
</g>
<!-- Node21 -->
<g id="Node000021" class="node">
<title>Node21</title>
<g id="a_Node000021"><a xlink:href="namespacettg.html#aef6947191f40b85e515f63ef87a250ff" target="_top" xlink:title="Sends a task id (without an accompanying value) to the template tasks attached to the output terminal...">
<polygon fill="white" stroke="#666666" points="72.5,-142.3 4.5,-142.3 4.5,-123.3 72.5,-123.3 72.5,-142.3"/>
<text text-anchor="middle" x="38.5" y="-130.3" font-family="Times,serif" font-size="10.00">ttg::sendk</text>
</a>
</g>
</g>
<!-- Node20&#45;&gt;Node21 -->
<g id="edge31_Node000020_Node000021" class="edge">
<title>Node20&#45;&gt;Node21</title>
<g id="a_edge31_Node000020_Node000021"><a xlink:title=" ">
<path fill="none" stroke="#63b8ff" d="M134.74,-132.8C114.78,-132.8 91.46,-132.8 72.88,-132.8"/>
<polygon fill="#63b8ff" stroke="#63b8ff" points="134.83,-136.3 144.83,-132.8 134.83,-129.3 134.83,-136.3"/>
</a>
</g>
</g>
<!-- Node22&#45;&gt;Node22 -->
<g id="edge34_Node000022_Node000022" class="edge">
<title>Node22&#45;&gt;Node22</title>
<g id="a_edge34_Node000022_Node000022"><a xlink:title=" ">
<path fill="none" stroke="#63b8ff" d="M375.71,-84.4C371.78,-88.77 362.21,-91.8 347,-91.8 321.38,-91.8 311.77,-83.2 318.17,-74.07"/>
<polygon fill="#63b8ff" stroke="#63b8ff" points="379.21,-84.11 375.83,-74.07 372.21,-84.03 379.21,-84.11"/>
</a>
</g>
</g>
<!-- Node23 -->
<g id="Node000023" class="node">
<title>Node23</title>
<g id="a_Node000023"><a xlink:href="namespacettg.html#a647ab7e77f26372e8ed5519e373caf3b" target="_top" xlink:title=" ">
<polygon fill="white" stroke="#666666" points="217.5,-105.3 140.5,-105.3 140.5,-86.3 217.5,-86.3 217.5,-105.3"/>
<text text-anchor="middle" x="179" y="-93.3" font-family="Times,serif" font-size="10.00">ttg::set_size</text>
</a>
</g>
</g>
<!-- Node22&#45;&gt;Node23 -->
<g id="edge35_Node000022_Node000023" class="edge">
<title>Node22&#45;&gt;Node23</title>
<g id="a_edge35_Node000022_Node000023"><a xlink:title=" ">
<path fill="none" stroke="#63b8ff" d="M274.4,-74.76C254.9,-79.1 234.55,-83.64 217.75,-87.38"/>
<polygon fill="#63b8ff" stroke="#63b8ff" points="275.19,-78.17 284.19,-72.57 273.67,-71.33 275.19,-78.17"/>
</a>
</g>
</g>
<!-- Node26 -->
<g id="Node000026" class="node">
<title>Node26</title>
<g id="a_Node000026"><a xlink:href="namespacettg.html#af31d31d8a37261b9f89f1852e9e3c10f" target="_top" xlink:title="Set the size of all streaming input terminals connected to an output terminal with void key.">
<polygon fill="white" stroke="#666666" points="217.5,-68.3 140.5,-68.3 140.5,-49.3 217.5,-49.3 217.5,-68.3"/>
<text text-anchor="middle" x="179" y="-56.3" font-family="Times,serif" font-size="10.00">ttg::set_size</text>
</a>
</g>
</g>
<!-- Node22&#45;&gt;Node26 -->
<g id="edge38_Node000022_Node000026" class="edge">
<title>Node22&#45;&gt;Node26</title>
<g id="a_edge38_Node000022_Node000026"><a xlink:title=" ">
<path fill="none" stroke="#63b8ff" d="M274.13,-58.8C254.72,-58.8 234.47,-58.8 217.75,-58.8"/>
<polygon fill="#63b8ff" stroke="#63b8ff" points="274.19,-62.3 284.19,-58.8 274.19,-55.3 274.19,-62.3"/>
</a>
</g>
</g>
<!-- Node22&#45;&gt;Node27 -->
<g id="edge39_Node000022_Node000027" class="edge">
<title>Node22&#45;&gt;Node27</title>
<g id="a_edge39_Node000022_Node000027"><a xlink:title=" ">
<path fill="none" stroke="#63b8ff" d="M277.94,-41.17C264.69,-37.73 250.91,-34.17 238.03,-30.83"/>
<polygon fill="#63b8ff" stroke="#63b8ff" points="277.38,-44.64 287.94,-43.76 279.14,-37.86 277.38,-44.64"/>
</a>
</g>
</g>
<!-- Node24 -->
<g id="Node000024" class="node">
<title>Node24</title>
<g id="a_Node000024"><a xlink:href="namespacettg.html#aeb9f920fc147bba8f435b2ca39cdd414" target="_top" xlink:title=" ">
<polygon fill="white" stroke="#666666" points="77,-105.3 0,-105.3 0,-86.3 77,-86.3 77,-105.3"/>
<text text-anchor="middle" x="38.5" y="-93.3" font-family="Times,serif" font-size="10.00">ttg::set_size</text>
</a>
</g>
</g>
<!-- Node23&#45;&gt;Node24 -->
<g id="edge36_Node000023_Node000024" class="edge">
<title>Node23&#45;&gt;Node24</title>
<g id="a_edge36_Node000023_Node000024"><a xlink:title=" ">
<path fill="none" stroke="#63b8ff" d="M129.75,-95.8C112.56,-95.8 93.48,-95.8 77.3,-95.8"/>
<polygon fill="#63b8ff" stroke="#63b8ff" points="130.15,-99.3 140.15,-95.8 130.15,-92.3 130.15,-99.3"/>
</a>
</g>
</g>
<!-- Node25 -->
<g id="Node000025" class="node">
<title>Node25</title>
<g id="a_Node000025"><a xlink:href="namespacettg.html#ae96ab8dfc75550533beda7e2644dc00f" target="_top" xlink:title=" ">
<polygon fill="white" stroke="#666666" points="77,-68.3 0,-68.3 0,-49.3 77,-49.3 77,-68.3"/>
<text text-anchor="middle" x="38.5" y="-56.3" font-family="Times,serif" font-size="10.00">ttg::set_size</text>
</a>
</g>
</g>
<!-- Node23&#45;&gt;Node25 -->
<g id="edge37_Node000023_Node000025" class="edge">
<title>Node23&#45;&gt;Node25</title>
<g id="a_edge37_Node000023_Node000025"><a xlink:title=" ">
<path fill="none" stroke="#63b8ff" d="M132.63,-83.68C114.1,-78.73 92.97,-73.08 75.53,-68.42"/>
<polygon fill="#63b8ff" stroke="#63b8ff" points="131.77,-87.07 142.33,-86.27 133.57,-80.31 131.77,-87.07"/>
</a>
</g>
</g>
</g>
</svg>
