<?xml version="1.0" encoding="UTF-8" standalone="no"?>
<!DOCTYPE svg PUBLIC "-//W3C//DTD SVG 1.1//EN"
 "http://www.w3.org/Graphics/SVG/1.1/DTD/svg11.dtd">
<!-- Generated by graphviz version 2.43.0 (0)
 -->
<!-- Title: ttg_parsec::WorldImpl::fence_impl Pages: 1 -->
<!--zoomable 377 -->

<svg id="main" version="1.1" xmlns="http://www.w3.org/2000/svg" xmlns:xlink="http://www.w3.org/1999/xlink" xml:space="preserve" onload="init(evt)">
<style type="text/css"><![CDATA[
.node, .edge {opacity: 0.7;}
.node.selected, .edge.selected {opacity: 1;}
.edge:hover path { stroke: red; }
.edge:hover polygon { stroke: red; fill: red; }
]]></style>

<defs>
  <circle id="rim" cx="0" cy="0" r="7"/>
  <circle id="rim2" cx="0" cy="0" r="3.5"/>
  <g id="zoomPlus">
    <use xlink:href="#rim" fill="#404040"><set attributeName="fill" to="#808080" begin="zoomplus.mouseover" end="zoomplus.mouseout"/></use>
    <path d="M-4,0h8M0,-4v8" fill="none" stroke="white" stroke-width="1.5" pointer-events="none"/>
  </g>
  <g id="zoomMin">
    <use xlink:href="#rim" fill="#404040"><set attributeName="fill" to="#808080" begin="zoomminus.mouseover" end="zoomminus.mouseout"/></use>
    <path d="M-4,0h8" fill="none" stroke="white" stroke-width="1.5" pointer-events="none"/>
  </g>
  <g id="arrowUp" transform="translate(30 24)">
    <use xlink:href="#rim"/>
    <path pointer-events="none" fill="none" stroke="white" stroke-width="1.5" d="M0,-3.0v7 M-2.5,-0.5L0,-3.0L2.5,-0.5"/>
  </g>
  <g id="arrowRight" transform="rotate(90) translate(36 -43)">
    <use xlink:href="#rim"/>
    <path pointer-events="none" fill="none" stroke="white" stroke-width="1.5" d="M0,-3.0v7 M-2.5,-0.5L0,-3.0L2.5,-0.5"/>
  </g>
  <g id="arrowDown" transform="rotate(180) translate(-30 -48)">
    <use xlink:href="#rim"/>
    <path pointer-events="none" fill="none" stroke="white" stroke-width="1.5" d="M0,-3.0v7 M-2.5,-0.5L0,-3.0L2.5,-0.5"/>
  </g>
  <g id="arrowLeft" transform="rotate(270) translate(-36 17)">
    <use xlink:href="#rim"/>
    <path pointer-events="none" fill="none" stroke="white" stroke-width="1.5" d="M0,-3.0v7 M-2.5,-0.5L0,-3.0L2.5,-0.5"/>
  </g>
  <g id="resetDef">
    <use xlink:href="#rim2" fill="#404040"><set attributeName="fill" to="#808080" begin="reset.mouseover" end="reset.mouseout"/></use>
  </g>
</defs>
<script type="application/ecmascript">
var viewWidth = 677;
var viewHeight = 377;
var sectionId = 'dynsection-15';
</script>
<script type="application/ecmascript" xlink:href="svg.min.js"/>
<svg id="graph" class="graph">
<g id="viewport">
<title>ttg_parsec::WorldImpl::fence_impl</title>
<!-- Node1 -->
<g id="Node000001" class="node">
<title>Node1</title>
<g id="a_Node000001"><a xlink:title=" ">
<polygon fill="#999999" stroke="#666666" points="129,-210 0,-210 0,-180 129,-180 129,-210"/>
<text text-anchor="start" x="8" y="-198" font-family="Times,serif" font-size="10.00">ttg_parsec::WorldImpl</text>
<text text-anchor="middle" x="64.5" y="-187" font-family="Times,serif" font-size="10.00">::fence_impl</text>
</a>
</g>
</g>
<!-- Node2 -->
<g id="Node000002" class="node">
<title>Node2</title>
<g id="a_Node000002"><a xlink:href="classttg__parsec_1_1_world_impl.html#a672bd6f962d95538fca23d808336920d" target="_top" xlink:title=" ">
<polygon fill="white" stroke="#666666" points="499.5,-369 370.5,-369 370.5,-339 499.5,-339 499.5,-369"/>
<text text-anchor="start" x="378.5" y="-357" font-family="Times,serif" font-size="10.00">ttg_parsec::WorldImpl</text>
<text text-anchor="middle" x="435" y="-346" font-family="Times,serif" font-size="10.00">::comm</text>
</a>
</g>
</g>
<!-- Node1&#45;&gt;Node2 -->
<g id="edge1_Node000001_Node000002" class="edge">
<title>Node1&#45;&gt;Node2</title>
<g id="a_edge1_Node000001_Node000002"><a xlink:title=" ">
<path fill="none" stroke="#63b8ff" d="M76.85,-210.25C93.66,-231.7 127.27,-270.45 165,-291 225.87,-324.16 303.73,-339.95 360.01,-347.43"/>
<polygon fill="#63b8ff" stroke="#63b8ff" points="359.9,-350.94 370.26,-348.73 360.78,-344 359.9,-350.94"/>
</a>
</g>
</g>
<!-- Node3 -->
<g id="Node000003" class="node">
<title>Node3</title>
<g id="a_Node000003"><a xlink:href="classttg__parsec_1_1_world_impl.html#a5db7008c862368d9a534848c66ae703e" target="_top" xlink:title=" ">
<polygon fill="white" stroke="#666666" points="302,-282 173,-282 173,-252 302,-252 302,-282"/>
<text text-anchor="start" x="181" y="-270" font-family="Times,serif" font-size="10.00">ttg_parsec::WorldImpl</text>
<text text-anchor="middle" x="237.5" y="-259" font-family="Times,serif" font-size="10.00">::create_tpool</text>
</a>
</g>
</g>
<!-- Node1&#45;&gt;Node3 -->
<g id="edge2_Node000001_Node000003" class="edge">
<title>Node1&#45;&gt;Node3</title>
<g id="a_edge2_Node000001_Node000003"><a xlink:title=" ">
<path fill="none" stroke="#63b8ff" d="M94.24,-210.05C113.88,-220.04 140.66,-233.09 165,-243 169.66,-244.9 174.52,-246.76 179.43,-248.57"/>
<polygon fill="#63b8ff" stroke="#63b8ff" points="178.29,-251.88 188.89,-251.95 180.65,-245.28 178.29,-251.88"/>
</a>
</g>
</g>
<!-- Node8 -->
<g id="Node000008" class="node">
<title>Node8</title>
<g id="a_Node000008"><a xlink:href="classttg__parsec_1_1_world_impl.html#a30ad1ec1811c1dd7538448add28af497" target="_top" xlink:title=" ">
<polygon fill="white" stroke="#666666" points="302,-234 173,-234 173,-204 302,-204 302,-234"/>
<text text-anchor="start" x="181" y="-222" font-family="Times,serif" font-size="10.00">ttg_parsec::WorldImpl</text>
<text text-anchor="middle" x="237.5" y="-211" font-family="Times,serif" font-size="10.00">::destroy_tpool</text>
</a>
</g>
</g>
<!-- Node1&#45;&gt;Node8 -->
<g id="edge8_Node000001_Node000008" class="edge">
<title>Node1&#45;&gt;Node8</title>
<g id="a_edge8_Node000001_Node000008"><a xlink:title=" ">
<path fill="none" stroke="#63b8ff" d="M129.17,-203.94C140.08,-205.47 151.49,-207.07 162.64,-208.63"/>
<polygon fill="#63b8ff" stroke="#63b8ff" points="162.38,-212.13 172.77,-210.06 163.36,-205.2 162.38,-212.13"/>
</a>
</g>
</g>
<!-- Node9 -->
<g id="Node000009" class="node">
<title>Node9</title>
<g id="a_Node000009"><a xlink:href="classttg__parsec_1_1_world_impl.html#a19bae6483b9c80918800dd77a7b0b57f" target="_top" xlink:title=" ">
<polygon fill="white" stroke="#666666" points="302,-186 173,-186 173,-156 302,-156 302,-186"/>
<text text-anchor="start" x="181" y="-174" font-family="Times,serif" font-size="10.00">ttg_parsec::WorldImpl</text>
<text text-anchor="middle" x="237.5" y="-163" font-family="Times,serif" font-size="10.00">::execute</text>
</a>
</g>
</g>
<!-- Node1&#45;&gt;Node9 -->
<g id="edge9_Node000001_Node000009" class="edge">
<title>Node1&#45;&gt;Node9</title>
<g id="a_edge9_Node000001_Node000009"><a xlink:title=" ">
<path fill="none" stroke="#63b8ff" d="M129.17,-186.06C140.08,-184.53 151.49,-182.93 162.64,-181.37"/>
<polygon fill="#63b8ff" stroke="#63b8ff" points="163.36,-184.8 172.77,-179.94 162.38,-177.87 163.36,-184.8"/>
</a>
</g>
</g>
<!-- Node10 -->
<g id="Node000010" class="node">
<title>Node10</title>
<g id="a_Node000010"><a xlink:href="classttg_1_1base_1_1_world_impl_base.html#a950c5b477177504efe894584a00e6056" target="_top" xlink:title=" ">
<polygon fill="white" stroke="#666666" points="310,-138 165,-138 165,-108 310,-108 310,-138"/>
<text text-anchor="start" x="173" y="-126" font-family="Times,serif" font-size="10.00">ttg::base::WorldImplBase</text>
<text text-anchor="middle" x="237.5" y="-115" font-family="Times,serif" font-size="10.00">::rank</text>
</a>
</g>
</g>
<!-- Node1&#45;&gt;Node10 -->
<g id="edge10_Node000001_Node000010" class="edge">
<title>Node1&#45;&gt;Node10</title>
<g id="a_edge10_Node000001_Node000010"><a xlink:title=" ">
<path fill="none" stroke="#63b8ff" d="M94.24,-179.95C113.88,-169.96 140.66,-156.91 165,-147 169.66,-145.1 174.52,-143.24 179.43,-141.43"/>
<polygon fill="#63b8ff" stroke="#63b8ff" points="180.65,-144.72 188.89,-138.05 178.29,-138.12 180.65,-144.72"/>
</a>
</g>
</g>
<!-- Node11 -->
<g id="Node000011" class="node">
<title>Node11</title>
<g id="a_Node000011"><a xlink:href="namespacettg.html#af5e470229c1ddef41b83b6398a5dc583" target="_top" xlink:title=" ">
<polygon fill="white" stroke="#666666" points="268.5,-89.5 206.5,-89.5 206.5,-70.5 268.5,-70.5 268.5,-89.5"/>
<text text-anchor="middle" x="237.5" y="-77.5" font-family="Times,serif" font-size="10.00">ttg::trace</text>
</a>
</g>
</g>
<!-- Node1&#45;&gt;Node11 -->
<g id="edge11_Node000001_Node000011" class="edge">
<title>Node1&#45;&gt;Node11</title>
<g id="a_edge11_Node000001_Node000011"><a xlink:title=" ">
<path fill="none" stroke="#63b8ff" d="M76.93,-179.9C93.84,-158.63 127.58,-120.11 165,-99 174.58,-93.6 185.75,-89.68 196.38,-86.86"/>
<polygon fill="#63b8ff" stroke="#63b8ff" points="197.41,-90.21 206.33,-84.49 195.79,-83.41 197.41,-90.21"/>
</a>
</g>
</g>
<!-- Node3&#45;&gt;Node2 -->
<g id="edge3_Node000003_Node000002" class="edge">
<title>Node3&#45;&gt;Node2</title>
<g id="a_edge3_Node000003_Node000002"><a xlink:title=" ">
<path fill="none" stroke="#63b8ff" d="M260.25,-282.07C281.35,-296.12 314.69,-316.83 346,-330 350.8,-332.02 355.83,-333.92 360.93,-335.69"/>
<polygon fill="#63b8ff" stroke="#63b8ff" points="360.22,-339.14 370.82,-338.95 362.41,-332.49 360.22,-339.14"/>
</a>
</g>
</g>
<!-- Node4 -->
<g id="Node000004" class="node">
<title>Node4</title>
<g id="a_Node000004"><a xlink:href="classttg__parsec_1_1_world_impl.html#a1029a562c3a0bd57f4ae5ffc23371f18" target="_top" xlink:title=" ">
<polygon fill="white" stroke="#666666" points="499.5,-321 370.5,-321 370.5,-291 499.5,-291 499.5,-321"/>
<text text-anchor="start" x="378.5" y="-309" font-family="Times,serif" font-size="10.00">ttg_parsec::WorldImpl</text>
<text text-anchor="middle" x="435" y="-298" font-family="Times,serif" font-size="10.00">::execution_stream</text>
</a>
</g>
</g>
<!-- Node3&#45;&gt;Node4 -->
<g id="edge4_Node000003_Node000004" class="edge">
<title>Node3&#45;&gt;Node4</title>
<g id="a_edge4_Node000003_Node000004"><a xlink:title=" ">
<path fill="none" stroke="#63b8ff" d="M302.24,-279.72C320.84,-283.43 341.32,-287.51 360.47,-291.33"/>
<polygon fill="#63b8ff" stroke="#63b8ff" points="359.85,-294.78 370.34,-293.3 361.22,-287.91 359.85,-294.78"/>
</a>
</g>
</g>
<!-- Node5 -->
<g id="Node000005" class="node">
<title>Node5</title>
<g id="a_Node000005"><a xlink:href="ttg_2parsec_2ttg_8h.html#a1c710959a10d207205de788ae298f081" target="_top" xlink:title=" ">
<polygon fill="white" stroke="#666666" points="524,-272.5 346,-272.5 346,-253.5 524,-253.5 524,-272.5"/>
<text text-anchor="middle" x="435" y="-260.5" font-family="Times,serif" font-size="10.00">parsec_add_fetch_runtime_task</text>
</a>
</g>
</g>
<!-- Node3&#45;&gt;Node5 -->
<g id="edge5_Node000003_Node000005" class="edge">
<title>Node3&#45;&gt;Node5</title>
<g id="a_edge5_Node000003_Node000005"><a xlink:title=" ">
<path fill="none" stroke="#63b8ff" d="M302.24,-265.7C313.02,-265.48 324.42,-265.24 335.83,-265.01"/>
<polygon fill="#63b8ff" stroke="#63b8ff" points="335.92,-268.51 345.84,-264.8 335.77,-261.51 335.92,-268.51"/>
</a>
</g>
</g>
<!-- Node6 -->
<g id="Node000006" class="node">
<title>Node6</title>
<g id="a_Node000006"><a xlink:href="ttg_2parsec_2ttg_8h.html#a545323e30c662cc79a6781fc00bbaaa6" target="_top" xlink:title=" ">
<polygon fill="white" stroke="#666666" points="516.5,-235 353.5,-235 353.5,-205 516.5,-205 516.5,-235"/>
<text text-anchor="start" x="361.5" y="-223" font-family="Times,serif" font-size="10.00">parsec_taskpool_termination</text>
<text text-anchor="middle" x="435" y="-212" font-family="Times,serif" font-size="10.00">_detected</text>
</a>
</g>
</g>
<!-- Node3&#45;&gt;Node6 -->
<g id="edge6_Node000003_Node000006" class="edge">
<title>Node3&#45;&gt;Node6</title>
<g id="a_edge6_Node000003_Node000006"><a xlink:title=" ">
<path fill="none" stroke="#63b8ff" d="M300.89,-252C320.21,-247.36 341.64,-242.2 361.57,-237.41"/>
<polygon fill="#63b8ff" stroke="#63b8ff" points="362.62,-240.76 371.53,-235.02 360.99,-233.95 362.62,-240.76"/>
</a>
</g>
</g>
<!-- Node7 -->
<g id="Node000007" class="node">
<title>Node7</title>
<g id="a_Node000007"><a xlink:href="classttg_1_1base_1_1_world_impl_base.html#afd134bac63c8ce9e2c570570a1b8a0a2" target="_top" xlink:title=" ">
<polygon fill="white" stroke="#666666" points="507.5,-187 362.5,-187 362.5,-157 507.5,-157 507.5,-187"/>
<text text-anchor="start" x="370.5" y="-175" font-family="Times,serif" font-size="10.00">ttg::base::WorldImplBase</text>
<text text-anchor="middle" x="435" y="-164" font-family="Times,serif" font-size="10.00">::size</text>
</a>
</g>
</g>
<!-- Node3&#45;&gt;Node7 -->
<g id="edge7_Node000003_Node000007" class="edge">
<title>Node3&#45;&gt;Node7</title>
<g id="a_edge7_Node000003_Node000007"><a xlink:title=" ">
<path fill="none" stroke="#63b8ff" d="M294.38,-251.95C299.89,-249.39 305.21,-246.43 310,-243 331.41,-227.7 324.16,-210.68 346,-196 348.4,-194.39 350.91,-192.88 353.5,-191.47"/>
<polygon fill="#63b8ff" stroke="#63b8ff" points="355.09,-194.59 362.55,-187.07 352.03,-188.3 355.09,-194.59"/>
</a>
</g>
</g>
<!-- Node12 -->
<g id="Node000012" class="node">
<title>Node12</title>
<g id="a_Node000012"><a xlink:href="namespacettg.html#aacacfe8bc9582308a405c4370650a9d4" target="_top" xlink:title="atomically prints to std::clog a sequence of items (separated by ttg::print_separator) followed by st...">
<polygon fill="white" stroke="#666666" points="461.5,-131.5 408.5,-131.5 408.5,-112.5 461.5,-112.5 461.5,-131.5"/>
<text text-anchor="middle" x="435" y="-119.5" font-family="Times,serif" font-size="10.00">ttg::log</text>
</a>
</g>
</g>
<!-- Node11&#45;&gt;Node12 -->
<g id="edge12_Node000011_Node000012" class="edge">
<title>Node11&#45;&gt;Node12</title>
<g id="a_edge12_Node000011_Node000012"><a xlink:title=" ">
<path fill="none" stroke="#63b8ff" d="M268.62,-86.47C303.57,-93.98 361.15,-106.35 398.31,-114.33"/>
<polygon fill="#63b8ff" stroke="#63b8ff" points="397.71,-117.78 408.22,-116.46 399.18,-110.94 397.71,-117.78"/>
</a>
</g>
</g>
<!-- Node14 -->
<g id="Node000014" class="node">
<title>Node14</title>
<g id="a_Node000014"><a xlink:href="namespacettg.html#afbdd9c742be395e0746fdbc26c7d55cc" target="_top" xlink:title="returns whether tracing was enabled at configure time">
<polygon fill="white" stroke="#666666" points="669,-81.5 560,-81.5 560,-62.5 669,-62.5 669,-81.5"/>
<text text-anchor="middle" x="614.5" y="-69.5" font-family="Times,serif" font-size="10.00">ttg::trace_enabled</text>
</a>
</g>
</g>
<!-- Node11&#45;&gt;Node14 -->
<g id="edge14_Node000011_Node000014" class="edge">
<title>Node11&#45;&gt;Node14</title>
<g id="a_edge14_Node000011_Node000014"><a xlink:title=" ">
<path fill="none" stroke="#63b8ff" d="M268.55,-79.36C329.31,-78.06 467.88,-75.11 549.71,-73.36"/>
<polygon fill="#63b8ff" stroke="#63b8ff" points="549.96,-76.86 559.88,-73.14 549.81,-69.86 549.96,-76.86"/>
</a>
</g>
</g>
<!-- Node15 -->
<g id="Node000015" class="node">
<title>Node15</title>
<g id="a_Node000015"><a xlink:href="namespacettg.html#abfb8501d408a1ed918cc2a540865a2d8" target="_top" xlink:title="returns whether tracing is enabled">
<polygon fill="white" stroke="#666666" points="471.5,-55.5 398.5,-55.5 398.5,-36.5 471.5,-36.5 471.5,-55.5"/>
<text text-anchor="middle" x="435" y="-43.5" font-family="Times,serif" font-size="10.00">ttg::tracing</text>
</a>
</g>
</g>
<!-- Node11&#45;&gt;Node15 -->
<g id="edge15_Node000011_Node000015" class="edge">
<title>Node11&#45;&gt;Node15</title>
<g id="a_edge15_Node000011_Node000015"><a xlink:title=" ">
<path fill="none" stroke="#63b8ff" d="M268.62,-74.76C300.53,-69.21 351.32,-60.38 388.2,-53.97"/>
<polygon fill="#63b8ff" stroke="#63b8ff" points="388.95,-57.39 398.2,-52.23 387.75,-50.49 388.95,-57.39"/>
</a>
</g>
</g>
<!-- Node13 -->
<g id="Node000013" class="node">
<title>Node13</title>
<g id="a_Node000013"><a xlink:href="namespacettg_1_1detail.html#a26e07486d5ef8eb5735a8975991a7693" target="_top" xlink:title=" ">
<polygon fill="white" stroke="#666666" points="662.5,-137 566.5,-137 566.5,-107 662.5,-107 662.5,-137"/>
<text text-anchor="start" x="574.5" y="-125" font-family="Times,serif" font-size="10.00">ttg::detail::print</text>
<text text-anchor="middle" x="614.5" y="-114" font-family="Times,serif" font-size="10.00">_helper</text>
</a>
</g>
</g>
<!-- Node12&#45;&gt;Node13 -->
<g id="edge13_Node000012_Node000013" class="edge">
<title>Node12&#45;&gt;Node13</title>
<g id="a_edge13_Node000012_Node000013"><a xlink:title=" ">
<path fill="none" stroke="#63b8ff" d="M461.81,-122C486.45,-122 524.43,-122 556.21,-122"/>
<polygon fill="#63b8ff" stroke="#63b8ff" points="556.29,-125.5 566.29,-122 556.29,-118.5 556.29,-125.5"/>
</a>
</g>
</g>
<!-- Node15&#45;&gt;Node14 -->
<g id="edge18_Node000015_Node000014" class="edge">
<title>Node15&#45;&gt;Node14</title>
<g id="a_edge18_Node000015_Node000014"><a xlink:title=" ">
<path fill="none" stroke="#63b8ff" d="M471.92,-51.26C494.19,-54.52 523.43,-58.81 549.56,-62.63"/>
<polygon fill="#63b8ff" stroke="#63b8ff" points="549.37,-66.14 559.77,-64.13 550.39,-59.22 549.37,-66.14"/>
</a>
</g>
</g>
<!-- Node16 -->
<g id="Node000016" class="node">
<title>Node16</title>
<g id="a_Node000016"><a xlink:href="namespacettg_1_1detail.html#a95356c3874e7ec9268a40feb4fc1519f" target="_top" xlink:title=" ">
<polygon fill="white" stroke="#666666" points="663,-30 566,-30 566,0 663,0 663,-30"/>
<text text-anchor="start" x="574" y="-18" font-family="Times,serif" font-size="10.00">ttg::detail::trace</text>
<text text-anchor="middle" x="614.5" y="-7" font-family="Times,serif" font-size="10.00">_accessor</text>
</a>
</g>
</g>
<!-- Node15&#45;&gt;Node16 -->
<g id="edge16_Node000015_Node000016" class="edge">
<title>Node15&#45;&gt;Node16</title>
<g id="a_edge16_Node000015_Node000016"><a xlink:title=" ">
<path fill="none" stroke="#63b8ff" d="M471.92,-39.73C496.01,-35.52 528.26,-29.89 555.9,-25.06"/>
<polygon fill="#63b8ff" stroke="#63b8ff" points="556.6,-28.49 565.85,-23.32 555.4,-21.59 556.6,-28.49"/>
</a>
</g>
</g>
<!-- Node16&#45;&gt;Node11 -->
<g id="edge17_Node000016_Node000011" class="edge">
<title>Node16&#45;&gt;Node11</title>
<g id="a_edge17_Node000016_Node000011"><a xlink:title=" ">
<path fill="none" stroke="#63b8ff" d="M565.76,-11.31C511.57,-8.46 420.97,-7.74 346,-27 315.1,-34.94 282.66,-52.38 261.6,-65.09"/>
<polygon fill="#63b8ff" stroke="#63b8ff" points="259.71,-62.14 253.04,-70.38 263.39,-68.1 259.71,-62.14"/>
</a>
</g>
</g>
</g>
</svg>

<g id="navigator" transform="translate(0 0)" fill="#404254">
  <rect fill="#f2f5e9" fill-opacity="0.5" stroke="#606060" stroke-width=".5" x="0" y="0" width="60" height="60"/>
  <use id="zoomplus" xlink:href="#zoomPlus" x="17" y="9" onmousedown="handleZoom(evt,'in')"/>
  <use id="zoomminus" xlink:href="#zoomMin" x="42" y="9" onmousedown="handleZoom(evt,'out')"/>
  <use id="reset" xlink:href="#resetDef" x="30" y="36" onmousedown="handleReset()"/>
   <use id="arrowup" xlink:href="#arrowUp" x="0" y="0" onmousedown="handlePan(0,-1)"/>
  <use id="arrowright" xlink:href="#arrowRight" x="0" y="0" onmousedown="handlePan(1,0)"/>
  <use id="arrowdown" xlink:href="#arrowDown" x="0" y="0" onmousedown="handlePan(0,1)"/>
  <use id="arrowleft" xlink:href="#arrowLeft" x="0" y="0" onmousedown="handlePan(-1,0)"/>
</g>
<svg viewBox="0 0 15 15" width="100%" height="30px" preserveAspectRatio="xMaxYMin meet">
 <g id="arrow_out" transform="scale(0.3 0.3)">
  <a xlink:href="classttg__parsec_1_1_world_impl_a8342e0deb558e48f715a305581447062_cgraph_org.svg" target="_base">
   <rect id="button" ry="5" rx="5" y="6" x="6" height="38" width="38"
        fill="#f2f5e9" fill-opacity="0.5" stroke="#606060" stroke-width="1.0"/>
   <path id="arrow"
     d="M 11.500037,31.436501 C 11.940474,20.09759 22.043105,11.32322 32.158766,21.979434 L 37.068811,17.246167 C 37.068811,17.246167 37.088388,32 37.088388,32 L 22.160133,31.978069 C 22.160133,31.978069 26.997745,27.140456 26.997745,27.140456 C 18.528582,18.264221 13.291696,25.230495 11.500037,31.436501 z"
     style="fill:#404040;"/>
  </a>
 </g>
</svg>

<style type='text/css'>
<![CDATA[
[data-mouse-over-selected='false'] { opacity: 0.7; }
[data-mouse-over-selected='true']  { opacity: 1.0; }
]]>
</style>
<script type="application/ecmascript"><![CDATA[
document.addEventListener('DOMContentLoaded', (event) => {
  highlightEdges();
  highlightAdjacentNodes();
});
]]></script>
</svg>
