<?xml version="1.0" encoding="UTF-8" standalone="no"?>
<!DOCTYPE svg PUBLIC "-//W3C//DTD SVG 1.1//EN"
 "http://www.w3.org/Graphics/SVG/1.1/DTD/svg11.dtd">
<!-- Generated by graphviz version 2.43.0 (0)
 -->
<!-- Title: ttg_parsec::TT::set_arg_from_msg Pages: 1 -->
<svg width="586pt" height="363pt"
 viewBox="0.00 0.00 586.00 362.82" xmlns="http://www.w3.org/2000/svg" xmlns:xlink="http://www.w3.org/1999/xlink">
<g id="graph0" class="graph" transform="scale(1 1) rotate(0) translate(4 358.82)">
<title>ttg_parsec::TT::set_arg_from_msg</title>
<!-- Node1 -->
<g id="Node000001" class="node">
<title>Node1</title>
<g id="a_Node000001"><a xlink:title=" ">
<polygon fill="#999999" stroke="#666666" points="110,-193.32 0,-193.32 0,-163.32 110,-163.32 110,-193.32"/>
<text text-anchor="start" x="8" y="-181.32" font-family="Times,serif" font-size="10.00">ttg_parsec::TT::set</text>
<text text-anchor="middle" x="55" y="-170.32" font-family="Times,serif" font-size="10.00">_arg_from_msg</text>
</a>
</g>
</g>
<!-- Node2 -->
<g id="Node000002" class="node">
<title>Node2</title>
<g id="a_Node000002"><a xlink:href="namespacettg.html#a408d84f3b0f9b79a3278a3eac949b207" target="_top" xlink:title="Aborts the TTG program using the default backend&#39;s ttg_abort method.">
<polygon fill="white" stroke="#666666" points="244,-354.82 180,-354.82 180,-335.82 244,-335.82 244,-354.82"/>
<text text-anchor="middle" x="212" y="-342.82" font-family="Times,serif" font-size="10.00">ttg::abort</text>
</a>
</g>
</g>
<!-- Node1&#45;&gt;Node2 -->
<g id="edge1_Node000001_Node000002" class="edge">
<title>Node1&#45;&gt;Node2</title>
<g id="a_edge1_Node000001_Node000002"><a xlink:title=" ">
<path fill="none" stroke="#63b8ff" d="M61.68,-193.56C73.2,-222.49 102.03,-285.66 146,-321.32 153.06,-327.04 161.62,-331.48 170.17,-334.89"/>
<polygon fill="#63b8ff" stroke="#63b8ff" points="169.15,-338.24 179.74,-338.31 171.51,-331.65 169.15,-338.24"/>
</a>
</g>
</g>
<!-- Node3 -->
<g id="Node000003" class="node">
<title>Node3</title>
<g id="a_Node000003"><a xlink:href="namespacettg_1_1detail.html#ad277a8a8c9831a5cbdc938a5a1504f62" target="_top" xlink:title=" ">
<polygon fill="white" stroke="#666666" points="436.5,-231.32 334.5,-231.32 334.5,-201.32 436.5,-201.32 436.5,-231.32"/>
<text text-anchor="start" x="342.5" y="-219.32" font-family="Times,serif" font-size="10.00">ttg::detail::buffer</text>
<text text-anchor="middle" x="385.5" y="-208.32" font-family="Times,serif" font-size="10.00">_apply</text>
</a>
</g>
</g>
<!-- Node1&#45;&gt;Node3 -->
<g id="edge2_Node000001_Node000003" class="edge">
<title>Node1&#45;&gt;Node3</title>
<g id="a_edge2_Node000001_Node000003"><a xlink:title=" ">
<path fill="none" stroke="#63b8ff" d="M105.13,-193.34C118.29,-196.83 132.59,-200.16 146,-202.32 206.21,-212.01 275.94,-215.19 324.39,-216.13"/>
<polygon fill="#63b8ff" stroke="#63b8ff" points="324.33,-219.63 334.39,-216.3 324.45,-212.63 324.33,-219.63"/>
</a>
</g>
</g>
<!-- Node4 -->
<g id="Node000004" class="node">
<title>Node4</title>
<g id="a_Node000004"><a xlink:href="namespacettg_1_1meta.html#affd90f350d054c6a5b4859644d834172" target="_top" xlink:title=" ">
<polygon fill="white" stroke="#666666" points="578,-270.82 493,-270.82 493,-251.82 578,-251.82 578,-270.82"/>
<text text-anchor="middle" x="535.5" y="-258.82" font-family="Times,serif" font-size="10.00">ttg::meta::get</text>
</a>
</g>
</g>
<!-- Node1&#45;&gt;Node4 -->
<g id="edge14_Node000001_Node000004" class="edge">
<title>Node1&#45;&gt;Node4</title>
<g id="a_edge14_Node000001_Node000004"><a xlink:title=" ">
<path fill="none" stroke="#63b8ff" d="M63,-193.67C75.5,-218.97 104.3,-268.56 146,-288.32 270.91,-347.51 320.71,-311.38 457,-288.32 472.83,-285.64 489.73,-280.09 503.7,-274.71"/>
<polygon fill="#63b8ff" stroke="#63b8ff" points="505.31,-277.84 513.3,-270.87 502.71,-271.34 505.31,-277.84"/>
</a>
</g>
</g>
<!-- Node5 -->
<g id="Node000005" class="node">
<title>Node5</title>
<g id="a_Node000005"><a xlink:href="namespacettg__parsec_1_1detail.html#abb5f8a2eb005a7dc66279a6decd9e8c5" target="_top" xlink:title=" ">
<polygon fill="white" stroke="#666666" points="278,-279.32 146,-279.32 146,-249.32 278,-249.32 278,-279.32"/>
<text text-anchor="start" x="154" y="-267.32" font-family="Times,serif" font-size="10.00">ttg_parsec::detail</text>
<text text-anchor="middle" x="212" y="-256.32" font-family="Times,serif" font-size="10.00">::create_new_datacopy</text>
</a>
</g>
</g>
<!-- Node1&#45;&gt;Node5 -->
<g id="edge5_Node000001_Node000005" class="edge">
<title>Node1&#45;&gt;Node5</title>
<g id="a_edge5_Node000001_Node000005"><a xlink:title=" ">
<path fill="none" stroke="#63b8ff" d="M78.02,-193.53C95.92,-205.58 122.04,-222.47 146,-235.32 152.15,-238.61 158.74,-241.86 165.29,-244.93"/>
<polygon fill="#63b8ff" stroke="#63b8ff" points="164.24,-248.3 174.79,-249.28 167.15,-241.93 164.24,-248.3"/>
</a>
</g>
</g>
<!-- Node7 -->
<g id="Node000007" class="node">
<title>Node7</title>
<g id="a_Node000007"><a xlink:href="classttg_1_1device_1_1_device.html#a9b63dc835372de6d23fa7c2cabeb5fb2" target="_top" xlink:title=" ">
<polygon fill="white" stroke="#666666" points="267,-145.32 157,-145.32 157,-115.32 267,-115.32 267,-145.32"/>
<text text-anchor="start" x="165" y="-133.32" font-family="Times,serif" font-size="10.00">ttg::device::Device</text>
<text text-anchor="middle" x="212" y="-122.32" font-family="Times,serif" font-size="10.00">::cycle</text>
</a>
</g>
</g>
<!-- Node1&#45;&gt;Node7 -->
<g id="edge7_Node000001_Node000007" class="edge">
<title>Node1&#45;&gt;Node7</title>
<g id="a_edge7_Node000001_Node000007"><a xlink:title=" ">
<path fill="none" stroke="#63b8ff" d="M104.62,-163.26C119.91,-158.52 136.95,-153.25 152.84,-148.33"/>
<polygon fill="#63b8ff" stroke="#63b8ff" points="154.04,-151.62 162.55,-145.32 151.97,-144.93 154.04,-151.62"/>
</a>
</g>
</g>
<!-- Node9 -->
<g id="Node000009" class="node">
<title>Node9</title>
<g id="a_Node000009"><a xlink:href="namespacettg__parsec_1_1detail.html#a4daca8ffc2e91c825340381688737ff0" target="_top" xlink:title=" ">
<polygon fill="white" stroke="#666666" points="276,-193.32 148,-193.32 148,-163.32 276,-163.32 276,-193.32"/>
<text text-anchor="start" x="156" y="-181.32" font-family="Times,serif" font-size="10.00">ttg_parsec::detail</text>
<text text-anchor="middle" x="212" y="-170.32" font-family="Times,serif" font-size="10.00">::foreach_parsec_data</text>
</a>
</g>
</g>
<!-- Node1&#45;&gt;Node9 -->
<g id="edge9_Node000001_Node000009" class="edge">
<title>Node1&#45;&gt;Node9</title>
<g id="a_edge9_Node000001_Node000009"><a xlink:title=" ">
<path fill="none" stroke="#63b8ff" d="M110.21,-178.32C119.12,-178.32 128.49,-178.32 137.77,-178.32"/>
<polygon fill="#63b8ff" stroke="#63b8ff" points="137.78,-181.82 147.78,-178.32 137.78,-174.82 137.78,-181.82"/>
</a>
</g>
</g>
<!-- Node11 -->
<g id="Node000011" class="node">
<title>Node11</title>
<g id="a_Node000011"><a xlink:href="classttg__parsec_1_1_t_t.html#aab59a1bf0fcc4f771457b5f05cb42741" target="_top" xlink:title=" ">
<polygon fill="white" stroke="#666666" points="441,-45.82 330,-45.82 330,-26.82 441,-26.82 441,-45.82"/>
<text text-anchor="middle" x="385.5" y="-33.82" font-family="Times,serif" font-size="10.00">ttg_parsec::TT::get</text>
</a>
</g>
</g>
<!-- Node1&#45;&gt;Node11 -->
<g id="edge12_Node000001_Node000011" class="edge">
<title>Node1&#45;&gt;Node11</title>
<g id="a_edge12_Node000001_Node000011"><a xlink:title=" ">
<path fill="none" stroke="#63b8ff" d="M59.26,-163.25C67.31,-130.24 91.55,-51.96 146,-20.32 210.82,17.36 302.92,-6.11 351.52,-23.18"/>
<polygon fill="#63b8ff" stroke="#63b8ff" points="350.61,-26.58 361.21,-26.7 353.01,-20 350.61,-26.58"/>
</a>
</g>
</g>
<!-- Node12 -->
<g id="Node000012" class="node">
<title>Node12</title>
<g id="a_Node000012"><a xlink:href="classttg_1_1device_1_1_device.html#ae0bf7843f6d6ffa02b70a4f86810ec64" target="_top" xlink:title=" ">
<polygon fill="white" stroke="#666666" points="267,-59.32 157,-59.32 157,-29.32 267,-29.32 267,-59.32"/>
<text text-anchor="start" x="165" y="-47.32" font-family="Times,serif" font-size="10.00">ttg::device::Device</text>
<text text-anchor="middle" x="212" y="-36.32" font-family="Times,serif" font-size="10.00">::host</text>
</a>
</g>
</g>
<!-- Node1&#45;&gt;Node12 -->
<g id="edge15_Node000001_Node000012" class="edge">
<title>Node1&#45;&gt;Node12</title>
<g id="a_edge15_Node000001_Node000012"><a xlink:title=" ">
<path fill="none" stroke="#63b8ff" d="M64.81,-162.98C79.04,-139.48 109.23,-94.53 146,-68.32 148.06,-66.85 150.21,-65.46 152.44,-64.15"/>
<polygon fill="#63b8ff" stroke="#63b8ff" points="154.1,-67.23 161.31,-59.46 150.83,-61.04 154.1,-67.23"/>
</a>
</g>
</g>
<!-- Node13 -->
<g id="Node000013" class="node">
<title>Node13</title>
<g id="a_Node000013"><a xlink:href="classttg__parsec_1_1_t_t.html#aa36be4d28cc80665afc2e2d521e4ab72" target="_top" xlink:title=" ">
<polygon fill="white" stroke="#666666" points="278,-96.82 146,-96.82 146,-77.82 278,-77.82 278,-96.82"/>
<text text-anchor="middle" x="212" y="-84.82" font-family="Times,serif" font-size="10.00">ttg_parsec::TT::unpack</text>
</a>
</g>
</g>
<!-- Node1&#45;&gt;Node13 -->
<g id="edge16_Node000001_Node000013" class="edge">
<title>Node1&#45;&gt;Node13</title>
<g id="a_edge16_Node000001_Node000013"><a xlink:title=" ">
<path fill="none" stroke="#63b8ff" d="M70.93,-163.26C87.79,-147.06 116.71,-121.55 146,-106.32 150.34,-104.06 154.98,-102.04 159.71,-100.23"/>
<polygon fill="#63b8ff" stroke="#63b8ff" points="161.2,-103.42 169.49,-96.82 158.89,-96.81 161.2,-103.42"/>
</a>
</g>
</g>
<!-- Node3&#45;&gt;Node4 -->
<g id="edge3_Node000003_Node000004" class="edge">
<title>Node3&#45;&gt;Node4</title>
<g id="a_edge3_Node000003_Node000004"><a xlink:title=" ">
<path fill="none" stroke="#63b8ff" d="M436.19,-231.43C454.73,-237.06 475.55,-243.39 493.24,-248.77"/>
<polygon fill="#63b8ff" stroke="#63b8ff" points="492.67,-252.25 503.25,-251.82 494.7,-245.56 492.67,-252.25"/>
</a>
</g>
</g>
<!-- Node4&#45;&gt;Node4 -->
<g id="edge4_Node000004_Node000004" class="edge">
<title>Node4&#45;&gt;Node4</title>
<g id="a_edge4_Node000004_Node000004"><a xlink:title=" ">
<path fill="none" stroke="#63b8ff" d="M512.38,-270.9C501.13,-279.55 508.84,-288.82 535.5,-288.82 553,-288.82 562.33,-284.82 563.5,-279.64"/>
<polygon fill="#63b8ff" stroke="#63b8ff" points="566.55,-277.92 558.62,-270.9 560.44,-281.34 566.55,-277.92"/>
</a>
</g>
</g>
<!-- Node6 -->
<g id="Node000006" class="node">
<title>Node6</title>
<g id="a_Node000006"><a xlink:href="namespacettg.html#a78c09561304884c05c8a8f25006b0ee6" target="_top" xlink:title="Accesses the default backend&#39;s default execution context.">
<polygon fill="white" stroke="#666666" points="449.5,-279.32 321.5,-279.32 321.5,-249.32 449.5,-249.32 449.5,-279.32"/>
<text text-anchor="start" x="329.5" y="-267.32" font-family="Times,serif" font-size="10.00">ttg::default_execution</text>
<text text-anchor="middle" x="385.5" y="-256.32" font-family="Times,serif" font-size="10.00">_context</text>
</a>
</g>
</g>
<!-- Node5&#45;&gt;Node6 -->
<g id="edge6_Node000005_Node000006" class="edge">
<title>Node5&#45;&gt;Node6</title>
<g id="a_edge6_Node000005_Node000006"><a xlink:title=" ">
<path fill="none" stroke="#63b8ff" d="M278.33,-264.32C289.01,-264.32 300.15,-264.32 311.02,-264.32"/>
<polygon fill="#63b8ff" stroke="#63b8ff" points="311.34,-267.82 321.34,-264.32 311.34,-260.82 311.34,-267.82"/>
</a>
</g>
</g>
<!-- Node8 -->
<g id="Node000008" class="node">
<title>Node8</title>
<g id="a_Node000008"><a xlink:href="namespacettg_1_1device.html#adf6007d2894bb18b4d05abb9024a49a7" target="_top" xlink:title=" ">
<polygon fill="white" stroke="#666666" points="457,-134.82 314,-134.82 314,-115.82 457,-115.82 457,-134.82"/>
<text text-anchor="middle" x="385.5" y="-122.82" font-family="Times,serif" font-size="10.00">ttg::device::num_devices</text>
</a>
</g>
</g>
<!-- Node7&#45;&gt;Node8 -->
<g id="edge8_Node000007_Node000008" class="edge">
<title>Node7&#45;&gt;Node8</title>
<g id="a_edge8_Node000007_Node000008"><a xlink:title=" ">
<path fill="none" stroke="#63b8ff" d="M267.26,-128.73C278.84,-128.4 291.31,-128.03 303.64,-127.67"/>
<polygon fill="#63b8ff" stroke="#63b8ff" points="304.05,-131.16 313.94,-127.37 303.84,-124.17 304.05,-131.16"/>
</a>
</g>
</g>
<!-- Node9&#45;&gt;Node3 -->
<g id="edge10_Node000009_Node000003" class="edge">
<title>Node9&#45;&gt;Node3</title>
<g id="a_edge10_Node000009_Node000003"><a xlink:title=" ">
<path fill="none" stroke="#63b8ff" d="M276.37,-192.36C292.03,-195.83 308.75,-199.53 324.25,-202.97"/>
<polygon fill="#63b8ff" stroke="#63b8ff" points="323.72,-206.43 334.24,-205.18 325.23,-199.6 323.72,-206.43"/>
</a>
</g>
</g>
<!-- Node10 -->
<g id="Node000010" class="node">
<title>Node10</title>
<g id="a_Node000010"><a xlink:href="namespacettg__parsec_1_1detail.html#ad37e220fbc05d0a62b08a94964480f0a" target="_top" xlink:title=" ">
<polygon fill="white" stroke="#666666" points="438.5,-183.32 332.5,-183.32 332.5,-153.32 438.5,-153.32 438.5,-183.32"/>
<text text-anchor="start" x="340.5" y="-171.32" font-family="Times,serif" font-size="10.00">ttg_parsec::detail</text>
<text text-anchor="middle" x="385.5" y="-160.32" font-family="Times,serif" font-size="10.00">::get_parsec_data</text>
</a>
</g>
</g>
<!-- Node9&#45;&gt;Node10 -->
<g id="edge11_Node000009_Node000010" class="edge">
<title>Node9&#45;&gt;Node10</title>
<g id="a_edge11_Node000009_Node000010"><a xlink:title=" ">
<path fill="none" stroke="#63b8ff" d="M276.37,-174.62C291.34,-173.75 307.28,-172.82 322.19,-171.95"/>
<polygon fill="#63b8ff" stroke="#63b8ff" points="322.55,-175.43 332.33,-171.36 322.14,-168.45 322.55,-175.43"/>
</a>
</g>
</g>
<!-- Node11&#45;&gt;Node11 -->
<g id="edge13_Node000011_Node000011" class="edge">
<title>Node11&#45;&gt;Node11</title>
<g id="a_edge13_Node000011_Node000011"><a xlink:title=" ">
<path fill="none" stroke="#63b8ff" d="M362.38,-45.9C351.13,-54.55 358.84,-63.82 385.5,-63.82 403,-63.82 412.33,-59.82 413.5,-54.64"/>
<polygon fill="#63b8ff" stroke="#63b8ff" points="416.55,-52.92 408.62,-45.9 410.44,-56.34 416.55,-52.92"/>
</a>
</g>
</g>
<!-- Node13&#45;&gt;Node11 -->
<g id="edge17_Node000013_Node000011" class="edge">
<title>Node13&#45;&gt;Node11</title>
<g id="a_edge17_Node000013_Node000011"><a xlink:title=" ">
<path fill="none" stroke="#63b8ff" d="M245.75,-77.8C256.07,-74.78 267.52,-71.42 278,-68.32 299.54,-61.93 323.49,-54.74 343.22,-48.8"/>
<polygon fill="#63b8ff" stroke="#63b8ff" points="344.27,-52.14 352.83,-45.9 342.25,-45.44 344.27,-52.14"/>
</a>
</g>
</g>
</g>
</svg>
