<?xml version="1.0" encoding="UTF-8" standalone="no"?>
<!DOCTYPE svg PUBLIC "-//W3C//DTD SVG 1.1//EN"
 "http://www.w3.org/Graphics/SVG/1.1/DTD/svg11.dtd">
<!-- Generated by graphviz version 2.43.0 (0)
 -->
<!-- Title: ttg_madness::TT::in Pages: 1 -->
<svg width="300pt" height="86pt"
 viewBox="0.00 0.00 300.00 86.00" xmlns="http://www.w3.org/2000/svg" xmlns:xlink="http://www.w3.org/1999/xlink">
<g id="graph0" class="graph" transform="scale(1 1) rotate(0) translate(4 82)">
<title>ttg_madness::TT::in</title>
<!-- Node1 -->
<g id="Node000001" class="node">
<title>Node1</title>
<g id="a_Node000001"><a xlink:title="Returns pointer to input terminal i to facilitate connection — terminal cannot be copied,...">
<polygon fill="#999999" stroke="#666666" points="292,-48.5 176,-48.5 176,-29.5 292,-29.5 292,-48.5"/>
<text text-anchor="middle" x="234" y="-36.5" font-family="Times,serif" font-size="10.00">ttg_madness::TT::in</text>
</a>
</g>
</g>
<!-- Node2 -->
<g id="Node000002" class="node">
<title>Node2</title>
<g id="a_Node000002"><a xlink:href="classttg__madness_1_1_t_t.html#a6a568ae1ed88e1a922f6f8191351a0dd" target="_top" xlink:title=" ">
<polygon fill="white" stroke="#666666" points="131.5,-78 8.5,-78 8.5,-48 131.5,-48 131.5,-78"/>
<text text-anchor="start" x="16.5" y="-66" font-family="Times,serif" font-size="10.00">ttg_madness::TT::get</text>
<text text-anchor="middle" x="70" y="-55" font-family="Times,serif" font-size="10.00">_terminal_data</text>
</a>
</g>
</g>
<!-- Node1&#45;&gt;Node2 -->
<g id="edge1_Node000001_Node000002" class="edge">
<title>Node1&#45;&gt;Node2</title>
<g id="a_edge1_Node000001_Node000002"><a xlink:title=" ">
<path fill="none" stroke="#63b8ff" d="M165.67,-48.97C154.42,-50.64 142.8,-52.36 131.72,-54"/>
<polygon fill="#63b8ff" stroke="#63b8ff" points="166.51,-52.39 175.88,-47.46 165.48,-45.46 166.51,-52.39"/>
</a>
</g>
</g>
<!-- Node3 -->
<g id="Node000003" class="node">
<title>Node3</title>
<g id="a_Node000003"><a xlink:href="classttg__madness_1_1_t_t.html#aea5a9c17b765ac16c034cafb686c9bf2" target="_top" xlink:title=" ">
<polygon fill="white" stroke="#666666" points="140,-30 0,-30 0,0 140,0 140,-30"/>
<text text-anchor="start" x="8" y="-18" font-family="Times,serif" font-size="10.00">ttg_madness::TT::invoke</text>
<text text-anchor="middle" x="70" y="-7" font-family="Times,serif" font-size="10.00">_pull_terminal</text>
</a>
</g>
</g>
<!-- Node1&#45;&gt;Node3 -->
<g id="edge2_Node000001_Node000003" class="edge">
<title>Node1&#45;&gt;Node3</title>
<g id="a_edge2_Node000001_Node000003"><a xlink:title=" ">
<path fill="none" stroke="#63b8ff" d="M165.98,-29.07C157.43,-27.81 148.68,-26.51 140.1,-25.24"/>
<polygon fill="#63b8ff" stroke="#63b8ff" points="165.48,-32.54 175.88,-30.54 166.51,-25.61 165.48,-32.54"/>
</a>
</g>
</g>
</g>
</svg>
