<?xml version="1.0" encoding="UTF-8" standalone="no"?>
<!DOCTYPE svg PUBLIC "-//W3C//DTD SVG 1.1//EN"
 "http://www.w3.org/Graphics/SVG/1.1/DTD/svg11.dtd">
<!-- Generated by graphviz version 2.43.0 (0)
 -->
<!-- Title: CallableWrapTT::op Pages: 1 -->
<svg width="588pt" height="38pt"
 viewBox="0.00 0.00 588.00 38.00" xmlns="http://www.w3.org/2000/svg" xmlns:xlink="http://www.w3.org/1999/xlink">
<g id="graph0" class="graph" transform="scale(1 1) rotate(0) translate(4 34)">
<title>CallableWrapTT::op</title>
<!-- Node1 -->
<g id="Node000001" class="node">
<title>Node1</title>
<g id="a_Node000001"><a xlink:title=" ">
<polygon fill="#999999" stroke="#666666" points="116,-24.5 0,-24.5 0,-5.5 116,-5.5 116,-24.5"/>
<text text-anchor="middle" x="58" y="-12.5" font-family="Times,serif" font-size="10.00">CallableWrapTT::op</text>
</a>
</g>
</g>
<!-- Node2 -->
<g id="Node000002" class="node">
<title>Node2</title>
<g id="a_Node000002"><a xlink:href="class_callable_wrap_t_t.html#a1277393882fc4f4d0e46a161fc43c475" target="_top" xlink:title=" ">
<polygon fill="white" stroke="#666666" points="301,-24.5 152,-24.5 152,-5.5 301,-5.5 301,-24.5"/>
<text text-anchor="middle" x="226.5" y="-12.5" font-family="Times,serif" font-size="10.00">CallableWrapTT::call_func</text>
</a>
</g>
</g>
<!-- Node1&#45;&gt;Node2 -->
<g id="edge1_Node000001_Node000002" class="edge">
<title>Node1&#45;&gt;Node2</title>
<g id="a_edge1_Node000001_Node000002"><a xlink:title=" ">
<path fill="none" stroke="#63b8ff" d="M116.3,-15C124.55,-15 133.17,-15 141.81,-15"/>
<polygon fill="#63b8ff" stroke="#63b8ff" points="141.92,-18.5 151.92,-15 141.92,-11.5 141.92,-18.5"/>
</a>
</g>
</g>
<!-- Node3 -->
<g id="Node000003" class="node">
<title>Node3</title>
<g id="a_Node000003"><a xlink:href="class_callable_wrap_t_t.html#ad874ff7fd3e00b44371755c1e1c1d486" target="_top" xlink:title=" ">
<polygon fill="white" stroke="#666666" points="480,-30 337,-30 337,0 480,0 480,-30"/>
<text text-anchor="start" x="345" y="-18" font-family="Times,serif" font-size="10.00">CallableWrapTT::process</text>
<text text-anchor="middle" x="408.5" y="-7" font-family="Times,serif" font-size="10.00">_return</text>
</a>
</g>
</g>
<!-- Node2&#45;&gt;Node3 -->
<g id="edge2_Node000002_Node000003" class="edge">
<title>Node2&#45;&gt;Node3</title>
<g id="a_edge2_Node000002_Node000003"><a xlink:title=" ">
<path fill="none" stroke="#63b8ff" d="M301.23,-15C309.58,-15 318.13,-15 326.57,-15"/>
<polygon fill="#63b8ff" stroke="#63b8ff" points="326.79,-18.5 336.79,-15 326.79,-11.5 326.79,-18.5"/>
</a>
</g>
</g>
<!-- Node4 -->
<g id="Node000004" class="node">
<title>Node4</title>
<g id="a_Node000004"><a xlink:href="namespacettg.html#a408d84f3b0f9b79a3278a3eac949b207" target="_top" xlink:title="Aborts the TTG program using the default backend&#39;s ttg_abort method.">
<polygon fill="white" stroke="#666666" points="580,-24.5 516,-24.5 516,-5.5 580,-5.5 580,-24.5"/>
<text text-anchor="middle" x="548" y="-12.5" font-family="Times,serif" font-size="10.00">ttg::abort</text>
</a>
</g>
</g>
<!-- Node3&#45;&gt;Node4 -->
<g id="edge3_Node000003_Node000004" class="edge">
<title>Node3&#45;&gt;Node4</title>
<g id="a_edge3_Node000003_Node000004"><a xlink:title=" ">
<path fill="none" stroke="#63b8ff" d="M480.26,-15C488.96,-15 497.61,-15 505.66,-15"/>
<polygon fill="#63b8ff" stroke="#63b8ff" points="505.85,-18.5 515.85,-15 505.85,-11.5 505.85,-18.5"/>
</a>
</g>
</g>
</g>
</svg>
