<?xml version="1.0" encoding="UTF-8" standalone="no"?>
<!DOCTYPE svg PUBLIC "-//W3C//DTD SVG 1.1//EN"
 "http://www.w3.org/Graphics/SVG/1.1/DTD/svg11.dtd">
<!-- Generated by graphviz version 2.43.0 (0)
 -->
<!-- Title: ttg::detail::Traverse::outfunc Pages: 1 -->
<svg width="428pt" height="172pt"
 viewBox="0.00 0.00 428.00 171.50" xmlns="http://www.w3.org/2000/svg" xmlns:xlink="http://www.w3.org/1999/xlink">
<g id="graph0" class="graph" transform="scale(1 1) rotate(0) translate(4 167.5)">
<title>ttg::detail::Traverse::outfunc</title>
<!-- Node1 -->
<g id="Node000001" class="node">
<title>Node1</title>
<g id="a_Node000001"><a xlink:title=" ">
<polygon fill="#999999" stroke="#666666" points="420,-102 304,-102 304,-72 420,-72 420,-102"/>
<text text-anchor="start" x="312" y="-90" font-family="Times,serif" font-size="10.00">ttg::detail::Traverse</text>
<text text-anchor="middle" x="362" y="-79" font-family="Times,serif" font-size="10.00">::outfunc</text>
</a>
</g>
</g>
<!-- Node2 -->
<g id="Node000002" class="node">
<title>Node2</title>
<g id="a_Node000002"><a xlink:href="classttg_1_1detail_1_1_traverse.html#a8f22396f983cd2b43113903985294410" target="_top" xlink:title=" ">
<polygon fill="white" stroke="#666666" points="268,-102 152,-102 152,-72 268,-72 268,-102"/>
<text text-anchor="start" x="160" y="-90" font-family="Times,serif" font-size="10.00">ttg::detail::Traverse</text>
<text text-anchor="middle" x="210" y="-79" font-family="Times,serif" font-size="10.00">::traverse</text>
</a>
</g>
</g>
<!-- Node1&#45;&gt;Node2 -->
<g id="edge1_Node000001_Node000002" class="edge">
<title>Node1&#45;&gt;Node2</title>
<g id="a_edge1_Node000001_Node000002"><a xlink:title=" ">
<path fill="none" stroke="#63b8ff" d="M293.69,-87C285.27,-87 276.72,-87 268.47,-87"/>
<polygon fill="#63b8ff" stroke="#63b8ff" points="293.86,-90.5 303.86,-87 293.86,-83.5 293.86,-90.5"/>
</a>
</g>
</g>
<!-- Node2&#45;&gt;Node2 -->
<g id="edge6_Node000002_Node000002" class="edge">
<title>Node2&#45;&gt;Node2</title>
<g id="a_edge6_Node000002_Node000002"><a xlink:title=" ">
<path fill="none" stroke="#63b8ff" d="M236.61,-112.6C232.97,-116.97 224.1,-120 210,-120 186.25,-120 177.34,-111.41 183.28,-102.28"/>
<polygon fill="#63b8ff" stroke="#63b8ff" points="240.11,-112.31 236.72,-102.28 233.11,-112.24 240.11,-112.31"/>
</a>
</g>
</g>
<!-- Node3 -->
<g id="Node000003" class="node">
<title>Node3</title>
<g id="a_Node000003"><a xlink:href="classttg_1_1_dot.html#a1f31206ebc9d5867a70b1af197c26942" target="_top" xlink:title=" ">
<polygon fill="white" stroke="#666666" points="114,-163.5 2,-163.5 2,-144.5 114,-144.5 114,-163.5"/>
<text text-anchor="middle" x="58" y="-151.5" font-family="Times,serif" font-size="10.00">ttg::Dot::operator()</text>
</a>
</g>
</g>
<!-- Node2&#45;&gt;Node3 -->
<g id="edge2_Node000002_Node000003" class="edge">
<title>Node2&#45;&gt;Node3</title>
<g id="a_edge2_Node000002_Node000003"><a xlink:title=" ">
<path fill="none" stroke="#63b8ff" d="M173.22,-107.11C156.19,-116.26 135.35,-126.84 116,-135 107.93,-138.4 99.01,-141.62 90.68,-144.41"/>
<polygon fill="#63b8ff" stroke="#63b8ff" points="175.15,-110.05 182.26,-102.2 171.81,-103.9 175.15,-110.05"/>
</a>
</g>
</g>
<!-- Node4 -->
<g id="Node000004" class="node">
<title>Node4</title>
<g id="a_Node000004"><a xlink:href="classttg_1_1detail_1_1_traverse.html#a1dbddfefb481679df98f5111f207fedc" target="_top" xlink:title=" ">
<polygon fill="white" stroke="#666666" points="116,-126 0,-126 0,-96 116,-96 116,-126"/>
<text text-anchor="start" x="8" y="-114" font-family="Times,serif" font-size="10.00">ttg::detail::Traverse</text>
<text text-anchor="middle" x="58" y="-103" font-family="Times,serif" font-size="10.00">::traverse</text>
</a>
</g>
</g>
<!-- Node2&#45;&gt;Node4 -->
<g id="edge3_Node000002_Node000004" class="edge">
<title>Node2&#45;&gt;Node4</title>
<g id="a_edge3_Node000002_Node000004"><a xlink:title=" ">
<path fill="none" stroke="#63b8ff" d="M141.97,-97.73C133.46,-99.09 124.81,-100.47 116.47,-101.8"/>
<polygon fill="#63b8ff" stroke="#63b8ff" points="142.54,-101.18 151.86,-96.14 141.44,-94.27 142.54,-101.18"/>
</a>
</g>
</g>
<!-- Node5 -->
<g id="Node000005" class="node">
<title>Node5</title>
<g id="a_Node000005"><a xlink:href="classttg_1_1detail_1_1_traverse.html#a743edef184d75931f2ede4f0da73a903" target="_top" xlink:title=" ">
<polygon fill="white" stroke="#666666" points="116,-78 0,-78 0,-48 116,-48 116,-78"/>
<text text-anchor="start" x="8" y="-66" font-family="Times,serif" font-size="10.00">ttg::detail::Traverse</text>
<text text-anchor="middle" x="58" y="-55" font-family="Times,serif" font-size="10.00">::traverse</text>
</a>
</g>
</g>
<!-- Node2&#45;&gt;Node5 -->
<g id="edge4_Node000002_Node000005" class="edge">
<title>Node2&#45;&gt;Node5</title>
<g id="a_edge4_Node000002_Node000005"><a xlink:title=" ">
<path fill="none" stroke="#63b8ff" d="M141.97,-76.27C133.46,-74.91 124.81,-73.53 116.47,-72.2"/>
<polygon fill="#63b8ff" stroke="#63b8ff" points="141.44,-79.73 151.86,-77.86 142.54,-72.82 141.44,-79.73"/>
</a>
</g>
</g>
<!-- Node6 -->
<g id="Node000006" class="node">
<title>Node6</title>
<g id="a_Node000006"><a xlink:href="classttg_1_1detail_1_1_traverse.html#ab3fb7118abf7106720853936cfb5308c" target="_top" xlink:title=" ">
<polygon fill="white" stroke="#666666" points="116,-30 0,-30 0,0 116,0 116,-30"/>
<text text-anchor="start" x="8" y="-18" font-family="Times,serif" font-size="10.00">ttg::detail::Traverse</text>
<text text-anchor="middle" x="58" y="-7" font-family="Times,serif" font-size="10.00">::traverse</text>
</a>
</g>
</g>
<!-- Node2&#45;&gt;Node6 -->
<g id="edge5_Node000002_Node000006" class="edge">
<title>Node2&#45;&gt;Node6</title>
<g id="a_edge5_Node000002_Node000006"><a xlink:title=" ">
<path fill="none" stroke="#63b8ff" d="M172.18,-67.16C155.22,-58.24 134.75,-47.77 116,-39 109.58,-36 102.68,-32.95 95.98,-30.08"/>
<polygon fill="#63b8ff" stroke="#63b8ff" points="170.73,-70.35 181.2,-71.93 174,-64.16 170.73,-70.35"/>
</a>
</g>
</g>
</g>
</svg>
