<?xml version="1.0" encoding="UTF-8" standalone="no"?>
<!DOCTYPE svg PUBLIC "-//W3C//DTD SVG 1.1//EN"
 "http://www.w3.org/Graphics/SVG/1.1/DTD/svg11.dtd">
<!-- Generated by graphviz version 2.43.0 (0)
 -->
<!-- Title: ttg_parsec::TT::set_arg_from_msg_keylist Pages: 1 -->
<svg width="456pt" height="131pt"
 viewBox="0.00 0.00 456.00 131.00" xmlns="http://www.w3.org/2000/svg" xmlns:xlink="http://www.w3.org/1999/xlink">

<svg id="main" version="1.1" xmlns="http://www.w3.org/2000/svg" xmlns:xlink="http://www.w3.org/1999/xlink" xml:space="preserve" onload="init(evt)">
<style type="text/css"><![CDATA[
.node, .edge {opacity: 0.7;}
.node.selected, .edge.selected {opacity: 1;}
.edge:hover path { stroke: red; }
.edge:hover polygon { stroke: red; fill: red; }
]]></style>
<script type="application/ecmascript" xlink:href="svg.min.js"/>
<svg id="graph" class="graph">
<g id="graph0" class="graph" transform="scale(1 1) rotate(0) translate(4 127)">
<title>ttg_parsec::TT::set_arg_from_msg_keylist</title>
<!-- Node1 -->
<g id="Node000001" class="node">
<title>Node1</title>
<g id="a_Node000001"><a xlink:title=" ">
<polygon fill="#999999" stroke="#666666" points="134,-89.5 0,-89.5 0,-59.5 134,-59.5 134,-89.5"/>
<text text-anchor="start" x="8" y="-77.5" font-family="Times,serif" font-size="10.00">ttg_parsec::TT::set</text>
<text text-anchor="middle" x="67" y="-66.5" font-family="Times,serif" font-size="10.00">_arg_from_msg_keylist</text>
</a>
</g>
</g>
<!-- Node2 -->
<g id="Node000002" class="node">
<title>Node2</title>
<g id="a_Node000002"><a xlink:href="classttg__parsec_1_1_t_t.html#aab59a1bf0fcc4f771457b5f05cb42741" target="_top" xlink:title=" ">
<polygon fill="white" stroke="#666666" points="448,-105 337,-105 337,-86 448,-86 448,-105"/>
<text text-anchor="middle" x="392.5" y="-93" font-family="Times,serif" font-size="10.00">ttg_parsec::TT::get</text>
</a>
</g>
</g>
<!-- Node1&#45;&gt;Node2 -->
<g id="edge1_Node000001_Node000002" class="edge">
<title>Node1&#45;&gt;Node2</title>
<g id="a_edge1_Node000001_Node000002"><a xlink:title=" ">
<path fill="none" stroke="#63b8ff" d="M121.58,-89.56C137.08,-93.24 154.1,-96.65 170,-98.5 227.83,-105.21 242.79,-99.46 301,-98.5 309.36,-98.36 318.15,-98.15 326.84,-97.9"/>
<polygon fill="#63b8ff" stroke="#63b8ff" points="327.06,-101.4 336.95,-97.6 326.85,-94.4 327.06,-101.4"/>
</a>
</g>
</g>
<!-- Node3 -->
<g id="Node000003" class="node">
<title>Node3</title>
<g id="a_Node000003"><a xlink:href="classttg__parsec_1_1_t_t.html#af277074081de727ff816c84638b7d038" target="_top" xlink:title=" ">
<polygon fill="white" stroke="#666666" points="291,-89.5 180,-89.5 180,-59.5 291,-59.5 291,-89.5"/>
<text text-anchor="start" x="188" y="-77.5" font-family="Times,serif" font-size="10.00">ttg_parsec::TT::get</text>
<text text-anchor="middle" x="235.5" y="-66.5" font-family="Times,serif" font-size="10.00">_task_mempool</text>
</a>
</g>
</g>
<!-- Node1&#45;&gt;Node3 -->
<g id="edge3_Node000001_Node000003" class="edge">
<title>Node1&#45;&gt;Node3</title>
<g id="a_edge3_Node000001_Node000003"><a xlink:title=" ">
<path fill="none" stroke="#63b8ff" d="M134.28,-74.5C146,-74.5 158.18,-74.5 169.85,-74.5"/>
<polygon fill="#63b8ff" stroke="#63b8ff" points="169.94,-78 179.94,-74.5 169.94,-71 169.94,-78"/>
</a>
</g>
</g>
<!-- Node4 -->
<g id="Node000004" class="node">
<title>Node4</title>
<g id="a_Node000004"><a xlink:href="structttg__parsec_1_1detail_1_1parsec__ttg__task__base__t.html#a2b31b3ad07ff4fafc60935e8cf11675c" target="_top" xlink:title=" ">
<polygon fill="white" stroke="#666666" points="301,-41 170,-41 170,0 301,0 301,-41"/>
<text text-anchor="start" x="178" y="-29" font-family="Times,serif" font-size="10.00">ttg_parsec::detail</text>
<text text-anchor="start" x="178" y="-18" font-family="Times,serif" font-size="10.00">::parsec_ttg_task_base</text>
<text text-anchor="middle" x="235.5" y="-7" font-family="Times,serif" font-size="10.00">_t::set_dummy</text>
</a>
</g>
</g>
<!-- Node1&#45;&gt;Node4 -->
<g id="edge5_Node000001_Node000004" class="edge">
<title>Node1&#45;&gt;Node4</title>
<g id="a_edge5_Node000001_Node000004"><a xlink:title=" ">
<path fill="none" stroke="#63b8ff" d="M114.38,-59.46C128.96,-54.73 145.44,-49.39 161.4,-44.21"/>
<polygon fill="#63b8ff" stroke="#63b8ff" points="162.83,-47.43 171.26,-41.01 160.67,-40.77 162.83,-47.43"/>
</a>
</g>
</g>
<!-- Node2&#45;&gt;Node2 -->
<g id="edge2_Node000002_Node000002" class="edge">
<title>Node2&#45;&gt;Node2</title>
<g id="a_edge2_Node000002_Node000002"><a xlink:title=" ">
<path fill="none" stroke="#63b8ff" d="M368.46,-105.08C356.76,-113.73 364.77,-123 392.5,-123 410.7,-123 420.4,-119.01 421.62,-113.82"/>
<polygon fill="#63b8ff" stroke="#63b8ff" points="424.59,-111.97 416.54,-105.08 418.54,-115.49 424.59,-111.97"/>
</a>
</g>
</g>
<!-- Node3&#45;&gt;Node2 -->
<g id="edge4_Node000003_Node000002" class="edge">
<title>Node3&#45;&gt;Node2</title>
<g id="a_edge4_Node000003_Node000002"><a xlink:title=" ">
<path fill="none" stroke="#63b8ff" d="M291.15,-81.9C302.61,-83.46 314.8,-85.11 326.59,-86.71"/>
<polygon fill="#63b8ff" stroke="#63b8ff" points="326.44,-90.22 336.82,-88.09 327.38,-83.28 326.44,-90.22"/>
</a>
</g>
</g>
</g>
</svg>
</svg>

<style type='text/css'>
<![CDATA[
[data-mouse-over-selected='false'] { opacity: 0.7; }
[data-mouse-over-selected='true']  { opacity: 1.0; }
]]>
</style>
<script type="application/ecmascript"><![CDATA[
document.addEventListener('DOMContentLoaded', (event) => {
  highlightEdges();
  highlightAdjacentNodes();
});
]]></script>
</svg>
