<?xml version="1.0" encoding="UTF-8" standalone="no"?>
<!DOCTYPE svg PUBLIC "-//W3C//DTD SVG 1.1//EN"
 "http://www.w3.org/Graphics/SVG/1.1/DTD/svg11.dtd">
<!-- Generated by graphviz version 2.43.0 (0)
 -->
<!-- Title: ttg_madness::TT::fence Pages: 1 -->
<svg width="621pt" height="38pt"
 viewBox="0.00 0.00 621.00 38.00" xmlns="http://www.w3.org/2000/svg" xmlns:xlink="http://www.w3.org/1999/xlink">
<g id="graph0" class="graph" transform="scale(1 1) rotate(0) translate(4 34)">
<title>ttg_madness::TT::fence</title>
<!-- Node1 -->
<g id="Node000001" class="node">
<title>Node1</title>
<g id="a_Node000001"><a xlink:title="Waits for the entire TTG associated with this TT to be completed (collective)">
<polygon fill="#999999" stroke="#666666" points="134,-24.5 0,-24.5 0,-5.5 134,-5.5 134,-24.5"/>
<text text-anchor="middle" x="67" y="-12.5" font-family="Times,serif" font-size="10.00">ttg_madness::TT::fence</text>
</a>
</g>
</g>
<!-- Node2 -->
<g id="Node000002" class="node">
<title>Node2</title>
<g id="a_Node000002"><a xlink:href="namespacettg__madness.html#a7170a1b75839c894aaeddebecb8d1eb7" target="_top" xlink:title=" ">
<polygon fill="white" stroke="#666666" points="305,-24.5 170,-24.5 170,-5.5 305,-5.5 305,-24.5"/>
<text text-anchor="middle" x="237.5" y="-12.5" font-family="Times,serif" font-size="10.00">ttg_madness::ttg_fence</text>
</a>
</g>
</g>
<!-- Node1&#45;&gt;Node2 -->
<g id="edge1_Node000001_Node000002" class="edge">
<title>Node1&#45;&gt;Node2</title>
<g id="a_edge1_Node000001_Node000002"><a xlink:title=" ">
<path fill="none" stroke="#63b8ff" d="M134.11,-15C142.44,-15 151.01,-15 159.48,-15"/>
<polygon fill="#63b8ff" stroke="#63b8ff" points="159.75,-18.5 169.75,-15 159.75,-11.5 159.75,-18.5"/>
</a>
</g>
</g>
<!-- Node3 -->
<g id="Node000003" class="node">
<title>Node3</title>
<g id="a_Node000003"><a xlink:href="classttg_1_1base_1_1_world.html#aabab7c9df8f16919ab41a864c8b1adc4" target="_top" xlink:title=" ">
<polygon fill="white" stroke="#666666" points="466,-24.5 341,-24.5 341,-5.5 466,-5.5 466,-24.5"/>
<text text-anchor="middle" x="403.5" y="-12.5" font-family="Times,serif" font-size="10.00">ttg::base::World::impl</text>
</a>
</g>
</g>
<!-- Node2&#45;&gt;Node3 -->
<g id="edge2_Node000002_Node000003" class="edge">
<title>Node2&#45;&gt;Node3</title>
<g id="a_edge2_Node000002_Node000003"><a xlink:title=" ">
<path fill="none" stroke="#63b8ff" d="M305.21,-15C313.59,-15 322.2,-15 330.66,-15"/>
<polygon fill="#63b8ff" stroke="#63b8ff" points="330.88,-18.5 340.88,-15 330.88,-11.5 330.88,-18.5"/>
</a>
</g>
</g>
<!-- Node4 -->
<g id="Node000004" class="node">
<title>Node4</title>
<g id="a_Node000004"><a xlink:href="classttg_1_1base_1_1_world.html#af39ca1832f455a94134515f94aaa8533" target="_top" xlink:title=" ">
<polygon fill="white" stroke="#666666" points="613,-30 502,-30 502,0 613,0 613,-30"/>
<text text-anchor="start" x="510" y="-18" font-family="Times,serif" font-size="10.00">ttg::base::World::is</text>
<text text-anchor="middle" x="557.5" y="-7" font-family="Times,serif" font-size="10.00">_valid</text>
</a>
</g>
</g>
<!-- Node3&#45;&gt;Node4 -->
<g id="edge3_Node000003_Node000004" class="edge">
<title>Node3&#45;&gt;Node4</title>
<g id="a_edge3_Node000003_Node000004"><a xlink:title=" ">
<path fill="none" stroke="#63b8ff" d="M466.32,-15C474.62,-15 483.15,-15 491.5,-15"/>
<polygon fill="#63b8ff" stroke="#63b8ff" points="491.57,-18.5 501.57,-15 491.57,-11.5 491.57,-18.5"/>
</a>
</g>
</g>
</g>
</svg>
