<?xml version="1.0" encoding="UTF-8" standalone="no"?>
<!DOCTYPE svg PUBLIC "-//W3C//DTD SVG 1.1//EN"
 "http://www.w3.org/Graphics/SVG/1.1/DTD/svg11.dtd">
<!-- Generated by graphviz version 2.43.0 (0)
 -->
<!-- Title: ttg_parsec::TT::finalize_argstream_from_msg Pages: 1 -->
<svg width="454pt" height="99pt"
 viewBox="0.00 0.00 454.00 98.74" xmlns="http://www.w3.org/2000/svg" xmlns:xlink="http://www.w3.org/1999/xlink">

<svg id="main" version="1.1" xmlns="http://www.w3.org/2000/svg" xmlns:xlink="http://www.w3.org/1999/xlink" xml:space="preserve" onload="init(evt)">
<style type="text/css"><![CDATA[
.node, .edge {opacity: 0.7;}
.node.selected, .edge.selected {opacity: 1;}
.edge:hover path { stroke: red; }
.edge:hover polygon { stroke: red; fill: red; }
]]></style>
<script type="application/ecmascript" xlink:href="svg.min.js"/>
<svg id="graph" class="graph">
<g id="graph0" class="graph" transform="scale(1 1) rotate(0) translate(4 94.74)">
<title>ttg_parsec::TT::finalize_argstream_from_msg</title>
<!-- Node1 -->
<g id="Node000001" class="node">
<title>Node1</title>
<g id="a_Node000001"><a xlink:title=" ">
<polygon fill="#999999" stroke="#666666" points="131,-61.5 0,-61.5 0,-31.5 131,-31.5 131,-61.5"/>
<text text-anchor="start" x="8" y="-49.5" font-family="Times,serif" font-size="10.00">ttg_parsec::TT::finalize</text>
<text text-anchor="middle" x="65.5" y="-38.5" font-family="Times,serif" font-size="10.00">_argstream_from_msg</text>
</a>
</g>
</g>
<!-- Node2 -->
<g id="Node000002" class="node">
<title>Node2</title>
<g id="a_Node000002"><a xlink:href="classttg__parsec_1_1_t_t.html#aab59a1bf0fcc4f771457b5f05cb42741" target="_top" xlink:title=" ">
<polygon fill="white" stroke="#666666" points="446,-65 335,-65 335,-46 446,-46 446,-65"/>
<text text-anchor="middle" x="390.5" y="-53" font-family="Times,serif" font-size="10.00">ttg_parsec::TT::get</text>
</a>
</g>
</g>
<!-- Node1&#45;&gt;Node2 -->
<g id="edge1_Node000001_Node000002" class="edge">
<title>Node1&#45;&gt;Node2</title>
<g id="a_edge1_Node000001_Node000002"><a xlink:title=" ">
<path fill="none" stroke="#63b8ff" d="M98.73,-61.68C118.05,-69.93 143.39,-79.29 167,-83.5 224.76,-93.79 240.99,-92.27 299,-83.5 318.12,-80.61 338.77,-74.47 355.51,-68.67"/>
<polygon fill="#63b8ff" stroke="#63b8ff" points="357.15,-71.8 365.38,-65.14 354.79,-65.21 357.15,-71.8"/>
</a>
</g>
</g>
<!-- Node3 -->
<g id="Node000003" class="node">
<title>Node3</title>
<g id="a_Node000003"><a xlink:href="namespacettg_1_1meta.html#affd90f350d054c6a5b4859644d834172" target="_top" xlink:title=" ">
<polygon fill="white" stroke="#666666" points="275.5,-56 190.5,-56 190.5,-37 275.5,-37 275.5,-56"/>
<text text-anchor="middle" x="233" y="-44" font-family="Times,serif" font-size="10.00">ttg::meta::get</text>
</a>
</g>
</g>
<!-- Node1&#45;&gt;Node3 -->
<g id="edge3_Node000001_Node000003" class="edge">
<title>Node1&#45;&gt;Node3</title>
<g id="a_edge3_Node000001_Node000003"><a xlink:title=" ">
<path fill="none" stroke="#63b8ff" d="M131.43,-46.5C147.48,-46.5 164.45,-46.5 179.8,-46.5"/>
<polygon fill="#63b8ff" stroke="#63b8ff" points="180.13,-50 190.13,-46.5 180.13,-43 180.13,-50"/>
</a>
</g>
</g>
<!-- Node4 -->
<g id="Node000004" class="node">
<title>Node4</title>
<g id="a_Node000004"><a xlink:href="classttg__parsec_1_1_t_t.html#aa36be4d28cc80665afc2e2d521e4ab72" target="_top" xlink:title=" ">
<polygon fill="white" stroke="#666666" points="299,-19 167,-19 167,0 299,0 299,-19"/>
<text text-anchor="middle" x="233" y="-7" font-family="Times,serif" font-size="10.00">ttg_parsec::TT::unpack</text>
</a>
</g>
</g>
<!-- Node1&#45;&gt;Node4 -->
<g id="edge5_Node000001_Node000004" class="edge">
<title>Node1&#45;&gt;Node4</title>
<g id="a_edge5_Node000001_Node000004"><a xlink:title=" ">
<path fill="none" stroke="#63b8ff" d="M131.43,-31.98C147.33,-28.43 164.15,-24.67 179.39,-21.26"/>
<polygon fill="#63b8ff" stroke="#63b8ff" points="180.15,-24.68 189.15,-19.08 178.63,-17.85 180.15,-24.68"/>
</a>
</g>
</g>
<!-- Node2&#45;&gt;Node2 -->
<g id="edge2_Node000002_Node000002" class="edge">
<title>Node2&#45;&gt;Node2</title>
<g id="a_edge2_Node000002_Node000002"><a xlink:title=" ">
<path fill="none" stroke="#63b8ff" d="M366.46,-65.08C354.76,-73.73 362.77,-83 390.5,-83 408.7,-83 418.4,-79.01 419.62,-73.82"/>
<polygon fill="#63b8ff" stroke="#63b8ff" points="422.59,-71.97 414.54,-65.08 416.54,-75.49 422.59,-71.97"/>
</a>
</g>
</g>
<!-- Node3&#45;&gt;Node3 -->
<g id="edge4_Node000003_Node000003" class="edge">
<title>Node3&#45;&gt;Node3</title>
<g id="a_edge4_Node000003_Node000003"><a xlink:title=" ">
<path fill="none" stroke="#63b8ff" d="M208.96,-56.08C197.26,-64.73 205.27,-74 233,-74 251.2,-74 260.9,-70.01 262.12,-64.82"/>
<polygon fill="#63b8ff" stroke="#63b8ff" points="265.09,-62.97 257.04,-56.08 259.04,-66.49 265.09,-62.97"/>
</a>
</g>
</g>
<!-- Node4&#45;&gt;Node2 -->
<g id="edge6_Node000004_Node000002" class="edge">
<title>Node4&#45;&gt;Node2</title>
<g id="a_edge6_Node000004_Node000002"><a xlink:title=" ">
<path fill="none" stroke="#63b8ff" d="M266.74,-19.03C277.07,-22.05 288.51,-25.4 299,-28.5 315,-33.22 332.57,-38.46 347.94,-43.05"/>
<polygon fill="#63b8ff" stroke="#63b8ff" points="347.1,-46.45 357.68,-45.96 349.1,-39.74 347.1,-46.45"/>
</a>
</g>
</g>
</g>
</svg>
</svg>

<style type='text/css'>
<![CDATA[
[data-mouse-over-selected='false'] { opacity: 0.7; }
[data-mouse-over-selected='true']  { opacity: 1.0; }
]]>
</style>
<script type="application/ecmascript"><![CDATA[
document.addEventListener('DOMContentLoaded', (event) => {
  highlightEdges();
  highlightAdjacentNodes();
});
]]></script>
</svg>
