<?xml version="1.0" encoding="UTF-8" standalone="no"?>
<!DOCTYPE svg PUBLIC "-//W3C//DTD SVG 1.1//EN"
 "http://www.w3.org/Graphics/SVG/1.1/DTD/svg11.dtd">
<!-- Generated by graphviz version 2.43.0 (0)
 -->
<!-- Title: ttg_parsec::TT::invoke Pages: 1 -->
<svg width="436pt" height="64pt"
 viewBox="0.00 0.00 436.00 64.00" xmlns="http://www.w3.org/2000/svg" xmlns:xlink="http://www.w3.org/1999/xlink">
<g id="graph0" class="graph" transform="scale(1 1) rotate(0) translate(4 60)">
<title>ttg_parsec::TT::invoke</title>
<!-- Node1 -->
<g id="Node000001" class="node">
<title>Node1</title>
<g id="a_Node000001"><a xlink:title=" ">
<polygon fill="#999999" stroke="#666666" points="428,-37 300,-37 300,-18 428,-18 428,-37"/>
<text text-anchor="middle" x="364" y="-25" font-family="Times,serif" font-size="10.00">ttg_parsec::TT::invoke</text>
</a>
</g>
</g>
<!-- Node2 -->
<g id="Node000002" class="node">
<title>Node2</title>
<g id="a_Node000002"><a xlink:href="classttg__parsec_1_1_t_t.html#adfbea0365e254f04789d64263af19703" target="_top" xlink:title=" ">
<polygon fill="white" stroke="#666666" points="264,-56 136,-56 136,-37 264,-37 264,-56"/>
<text text-anchor="middle" x="200" y="-44" font-family="Times,serif" font-size="10.00">ttg_parsec::TT::invoke</text>
</a>
</g>
</g>
<!-- Node1&#45;&gt;Node2 -->
<g id="edge1_Node000001_Node000002" class="edge">
<title>Node1&#45;&gt;Node2</title>
<g id="a_edge1_Node000001_Node000002"><a xlink:title=" ">
<path fill="none" stroke="#63b8ff" d="M289.91,-36.07C281.32,-37.08 272.62,-38.1 264.19,-39.09"/>
<polygon fill="#63b8ff" stroke="#63b8ff" points="290.38,-39.54 299.9,-34.9 289.56,-32.59 290.38,-39.54"/>
</a>
</g>
</g>
<!-- Node3 -->
<g id="Node000003" class="node">
<title>Node3</title>
<g id="a_Node000003"><a xlink:href="classttg__parsec_1_1_t_t.html#a4d282fbdfbcd425d02419d599a3893d3" target="_top" xlink:title=" ">
<polygon fill="white" stroke="#666666" points="264,-19 136,-19 136,0 264,0 264,-19"/>
<text text-anchor="middle" x="200" y="-7" font-family="Times,serif" font-size="10.00">ttg_parsec::TT::invoke</text>
</a>
</g>
</g>
<!-- Node1&#45;&gt;Node3 -->
<g id="edge2_Node000001_Node000003" class="edge">
<title>Node1&#45;&gt;Node3</title>
<g id="a_edge2_Node000001_Node000003"><a xlink:title=" ">
<path fill="none" stroke="#63b8ff" d="M289.91,-19.38C281.32,-18.42 272.62,-17.46 264.19,-16.52"/>
<polygon fill="#63b8ff" stroke="#63b8ff" points="289.58,-22.86 299.9,-20.49 290.35,-15.91 289.58,-22.86"/>
</a>
</g>
</g>
<!-- Node4 -->
<g id="Node000004" class="node">
<title>Node4</title>
<g id="a_Node000004"><a xlink:href="namespacettg.html#a0db3006a84c1ea69ab2401d3ed53df52" target="_top" xlink:title=" ">
<polygon fill="white" stroke="#666666" points="100,-19 0,-19 0,0 100,0 100,-19"/>
<text text-anchor="middle" x="50" y="-7" font-family="Times,serif" font-size="10.00">ttg::invoke_once</text>
</a>
</g>
</g>
<!-- Node3&#45;&gt;Node4 -->
<g id="edge3_Node000003_Node000004" class="edge">
<title>Node3&#45;&gt;Node4</title>
<g id="a_edge3_Node000003_Node000004"><a xlink:title=" ">
<path fill="none" stroke="#63b8ff" d="M125.67,-9.5C117,-9.5 108.32,-9.5 100.11,-9.5"/>
<polygon fill="#63b8ff" stroke="#63b8ff" points="125.81,-13 135.81,-9.5 125.81,-6 125.81,-13"/>
</a>
</g>
</g>
</g>
</svg>
