<?xml version="1.0" encoding="UTF-8" standalone="no"?>
<!DOCTYPE svg PUBLIC "-//W3C//DTD SVG 1.1//EN"
 "http://www.w3.org/Graphics/SVG/1.1/DTD/svg11.dtd">
<!-- Generated by graphviz version 2.43.0 (0)
 -->
<!-- Title: ttg::TTBase::ttg_ptr Pages: 1 -->
<svg width="416pt" height="104pt"
 viewBox="0.00 0.00 416.00 104.00" xmlns="http://www.w3.org/2000/svg" xmlns:xlink="http://www.w3.org/1999/xlink">
<g id="graph0" class="graph" transform="scale(1 1) rotate(0) translate(4 100)">
<title>ttg::TTBase::ttg_ptr</title>
<!-- Node1 -->
<g id="Node000001" class="node">
<title>Node1</title>
<g id="a_Node000001"><a xlink:title=" ">
<polygon fill="#999999" stroke="#666666" points="408,-48.5 292,-48.5 292,-29.5 408,-29.5 408,-48.5"/>
<text text-anchor="middle" x="350" y="-36.5" font-family="Times,serif" font-size="10.00">ttg::TTBase::ttg_ptr</text>
</a>
</g>
</g>
<!-- Node2 -->
<g id="Node000002" class="node">
<title>Node2</title>
<g id="a_Node000002"><a xlink:href="classttg_1_1_dot.html#acf2006cfe81db46f057e9501d6c1531b" target="_top" xlink:title=" ">
<polygon fill="white" stroke="#666666" points="245,-78 138,-78 138,-48 245,-48 245,-78"/>
<text text-anchor="start" x="146" y="-66" font-family="Times,serif" font-size="10.00">ttg::Dot::build_ttg</text>
<text text-anchor="middle" x="191.5" y="-55" font-family="Times,serif" font-size="10.00">_hierarchy</text>
</a>
</g>
</g>
<!-- Node1&#45;&gt;Node2 -->
<g id="edge1_Node000001_Node000002" class="edge">
<title>Node1&#45;&gt;Node2</title>
<g id="a_edge1_Node000001_Node000002"><a xlink:title=" ">
<path fill="none" stroke="#63b8ff" d="M281.52,-49.35C269.37,-51.21 256.86,-53.13 245.21,-54.92"/>
<polygon fill="#63b8ff" stroke="#63b8ff" points="282.26,-52.78 291.61,-47.8 281.2,-45.86 282.26,-52.78"/>
</a>
</g>
</g>
<!-- Node4 -->
<g id="Node000004" class="node">
<title>Node4</title>
<g id="a_Node000004"><a xlink:href="classttg__parsec_1_1_world_impl.html#a796b7f345885e9bb7a4df1933bc6e4a3" target="_top" xlink:title=" ">
<polygon fill="white" stroke="#666666" points="256,-30 127,-30 127,0 256,0 256,-30"/>
<text text-anchor="start" x="135" y="-18" font-family="Times,serif" font-size="10.00">ttg_parsec::WorldImpl</text>
<text text-anchor="middle" x="191.5" y="-7" font-family="Times,serif" font-size="10.00">::register_tt_profiling</text>
</a>
</g>
</g>
<!-- Node1&#45;&gt;Node4 -->
<g id="edge4_Node000001_Node000004" class="edge">
<title>Node1&#45;&gt;Node4</title>
<g id="a_edge4_Node000001_Node000004"><a xlink:title=" ">
<path fill="none" stroke="#63b8ff" d="M281.49,-28.65C273.1,-27.36 264.55,-26.05 256.22,-24.77"/>
<polygon fill="#63b8ff" stroke="#63b8ff" points="281.2,-32.14 291.61,-30.2 282.26,-25.22 281.2,-32.14"/>
</a>
</g>
</g>
<!-- Node2&#45;&gt;Node2 -->
<g id="edge2_Node000002_Node000002" class="edge">
<title>Node2&#45;&gt;Node2</title>
<g id="a_edge2_Node000002_Node000002"><a xlink:title=" ">
<path fill="none" stroke="#63b8ff" d="M217.06,-88.6C213.56,-92.97 205.04,-96 191.5,-96 168.69,-96 160.13,-87.41 165.84,-78.28"/>
<polygon fill="#63b8ff" stroke="#63b8ff" points="220.56,-88.31 217.16,-78.28 213.56,-88.24 220.56,-88.31"/>
</a>
</g>
</g>
<!-- Node3 -->
<g id="Node000003" class="node">
<title>Node3</title>
<g id="a_Node000003"><a xlink:href="classttg_1_1_dot.html#a168203fd05265000a5fe12be79738a94" target="_top" xlink:title=" ">
<polygon fill="white" stroke="#666666" points="91,-72.5 0,-72.5 0,-53.5 91,-53.5 91,-72.5"/>
<text text-anchor="middle" x="45.5" y="-60.5" font-family="Times,serif" font-size="10.00">ttg::Dot::ttfunc</text>
</a>
</g>
</g>
<!-- Node2&#45;&gt;Node3 -->
<g id="edge3_Node000002_Node000003" class="edge">
<title>Node2&#45;&gt;Node3</title>
<g id="a_edge3_Node000002_Node000003"><a xlink:title=" ">
<path fill="none" stroke="#63b8ff" d="M127.54,-63C115.32,-63 102.74,-63 91.25,-63"/>
<polygon fill="#63b8ff" stroke="#63b8ff" points="127.7,-66.5 137.7,-63 127.7,-59.5 127.7,-66.5"/>
</a>
</g>
</g>
</g>
</svg>
