<?xml version="1.0" encoding="UTF-8" standalone="no"?>
<!DOCTYPE svg PUBLIC "-//W3C//DTD SVG 1.1//EN"
 "http://www.w3.org/Graphics/SVG/1.1/DTD/svg11.dtd">
<!-- Generated by graphviz version 2.43.0 (0)
 -->
<!-- Title: ttg_parsec::WorldImpl::dag_on Pages: 1 -->
<svg width="450pt" height="129pt"
 viewBox="0.00 0.00 450.00 129.00" xmlns="http://www.w3.org/2000/svg" xmlns:xlink="http://www.w3.org/1999/xlink">

<svg id="main" version="1.1" xmlns="http://www.w3.org/2000/svg" xmlns:xlink="http://www.w3.org/1999/xlink" xml:space="preserve" onload="init(evt)">
<style type="text/css"><![CDATA[
.node, .edge {opacity: 0.7;}
.node.selected, .edge.selected {opacity: 1;}
.edge:hover path { stroke: red; }
.edge:hover polygon { stroke: red; fill: red; }
]]></style>
<script type="application/ecmascript" xlink:href="svg.min.js"/>
<svg id="graph" class="graph">
<g id="graph0" class="graph" transform="scale(1 1) rotate(0) translate(4 125)">
<title>ttg_parsec::WorldImpl::dag_on</title>
<!-- Node1 -->
<g id="Node000001" class="node">
<title>Node1</title>
<g id="a_Node000001"><a xlink:title=" ">
<polygon fill="#999999" stroke="#666666" points="129,-78 0,-78 0,-48 129,-48 129,-78"/>
<text text-anchor="start" x="8" y="-66" font-family="Times,serif" font-size="10.00">ttg_parsec::WorldImpl</text>
<text text-anchor="middle" x="64.5" y="-55" font-family="Times,serif" font-size="10.00">::dag_on</text>
</a>
</g>
</g>
<!-- Node2 -->
<g id="Node000002" class="node">
<title>Node2</title>
<g id="a_Node000002"><a xlink:href="namespacettg.html#aa3510e128b769afb53720d24fa83fb97" target="_top" xlink:title="atomically prints to std::cout a sequence of items (separated by ttg::print_separator) followed by st...">
<polygon fill="white" stroke="#666666" points="268.5,-115.5 206.5,-115.5 206.5,-96.5 268.5,-96.5 268.5,-115.5"/>
<text text-anchor="middle" x="237.5" y="-103.5" font-family="Times,serif" font-size="10.00">ttg::print</text>
</a>
</g>
</g>
<!-- Node1&#45;&gt;Node2 -->
<g id="edge1_Node000001_Node000002" class="edge">
<title>Node1&#45;&gt;Node2</title>
<g id="a_edge1_Node000001_Node000002"><a xlink:title=" ">
<path fill="none" stroke="#63b8ff" d="M125.31,-78.04C148.81,-83.95 175.18,-90.58 196.33,-95.9"/>
<polygon fill="#63b8ff" stroke="#63b8ff" points="195.71,-99.35 206.26,-98.4 197.42,-92.56 195.71,-99.35"/>
</a>
</g>
</g>
<!-- Node4 -->
<g id="Node000004" class="node">
<title>Node4</title>
<g id="a_Node000004"><a xlink:href="classttg__parsec_1_1_world_impl.html#ad4f99fc6c215bdaceb6d1c3fbbadfaf2" target="_top" xlink:title=" ">
<polygon fill="white" stroke="#666666" points="302,-78 173,-78 173,-48 302,-48 302,-78"/>
<text text-anchor="start" x="181" y="-66" font-family="Times,serif" font-size="10.00">ttg_parsec::WorldImpl</text>
<text text-anchor="middle" x="237.5" y="-55" font-family="Times,serif" font-size="10.00">::profile_on</text>
</a>
</g>
</g>
<!-- Node1&#45;&gt;Node4 -->
<g id="edge3_Node000001_Node000004" class="edge">
<title>Node1&#45;&gt;Node4</title>
<g id="a_edge3_Node000001_Node000004"><a xlink:title=" ">
<path fill="none" stroke="#63b8ff" d="M129.17,-63C140.08,-63 151.49,-63 162.64,-63"/>
<polygon fill="#63b8ff" stroke="#63b8ff" points="162.77,-66.5 172.77,-63 162.77,-59.5 162.77,-66.5"/>
</a>
</g>
</g>
<!-- Node5 -->
<g id="Node000005" class="node">
<title>Node5</title>
<g id="a_Node000005"><a xlink:href="classttg_1_1base_1_1_world_impl_base.html#a950c5b477177504efe894584a00e6056" target="_top" xlink:title=" ">
<polygon fill="white" stroke="#666666" points="310,-30 165,-30 165,0 310,0 310,-30"/>
<text text-anchor="start" x="173" y="-18" font-family="Times,serif" font-size="10.00">ttg::base::WorldImplBase</text>
<text text-anchor="middle" x="237.5" y="-7" font-family="Times,serif" font-size="10.00">::rank</text>
</a>
</g>
</g>
<!-- Node1&#45;&gt;Node5 -->
<g id="edge4_Node000001_Node000005" class="edge">
<title>Node1&#45;&gt;Node5</title>
<g id="a_edge4_Node000001_Node000005"><a xlink:title=" ">
<path fill="none" stroke="#63b8ff" d="M119.14,-47.94C136.33,-43.12 155.52,-37.73 173.33,-32.73"/>
<polygon fill="#63b8ff" stroke="#63b8ff" points="174.37,-36.07 183.05,-30 172.48,-29.34 174.37,-36.07"/>
</a>
</g>
</g>
<!-- Node3 -->
<g id="Node000003" class="node">
<title>Node3</title>
<g id="a_Node000003"><a xlink:href="namespacettg_1_1detail.html#a26e07486d5ef8eb5735a8975991a7693" target="_top" xlink:title=" ">
<polygon fill="white" stroke="#666666" points="442,-121 346,-121 346,-91 442,-91 442,-121"/>
<text text-anchor="start" x="354" y="-109" font-family="Times,serif" font-size="10.00">ttg::detail::print</text>
<text text-anchor="middle" x="394" y="-98" font-family="Times,serif" font-size="10.00">_helper</text>
</a>
</g>
</g>
<!-- Node2&#45;&gt;Node3 -->
<g id="edge2_Node000002_Node000003" class="edge">
<title>Node2&#45;&gt;Node3</title>
<g id="a_edge2_Node000002_Node000003"><a xlink:title=" ">
<path fill="none" stroke="#63b8ff" d="M268.66,-106C287.69,-106 312.9,-106 335.65,-106"/>
<polygon fill="#63b8ff" stroke="#63b8ff" points="335.89,-109.5 345.89,-106 335.89,-102.5 335.89,-109.5"/>
</a>
</g>
</g>
</g>
</svg>
</svg>

<style type='text/css'>
<![CDATA[
[data-mouse-over-selected='false'] { opacity: 0.7; }
[data-mouse-over-selected='true']  { opacity: 1.0; }
]]>
</style>
<script type="application/ecmascript"><![CDATA[
document.addEventListener('DOMContentLoaded', (event) => {
  highlightEdges();
  highlightAdjacentNodes();
});
]]></script>
</svg>
