<?xml version="1.0" encoding="UTF-8" standalone="no"?>
<!DOCTYPE svg PUBLIC "-//W3C//DTD SVG 1.1//EN"
 "http://www.w3.org/Graphics/SVG/1.1/DTD/svg11.dtd">
<!-- Generated by graphviz version 2.43.0 (0)
 -->
<!-- Title: ttg/ttg/external/boost/callable_traits/detail/config.hpp Pages: 1 -->
<svg width="612pt" height="126pt"
 viewBox="0.00 0.00 611.50 126.00" xmlns="http://www.w3.org/2000/svg" xmlns:xlink="http://www.w3.org/1999/xlink">
<g id="graph0" class="graph" transform="scale(1 1) rotate(0) translate(4 122)">
<title>ttg/ttg/external/boost/callable_traits/detail/config.hpp</title>
<!-- Node1 -->
<g id="Node000001" class="node">
<title>Node1</title>
<g id="a_Node000001"><a xlink:title=" ">
<polygon fill="#999999" stroke="#666666" points="268.5,-118 144.5,-118 144.5,-77 268.5,-77 268.5,-118"/>
<text text-anchor="start" x="152.5" y="-106" font-family="Times,serif" font-size="10.00">ttg/ttg/external/boost</text>
<text text-anchor="start" x="152.5" y="-95" font-family="Times,serif" font-size="10.00">/callable_traits/detail</text>
<text text-anchor="middle" x="206.5" y="-84" font-family="Times,serif" font-size="10.00">/config.hpp</text>
</a>
</g>
</g>
<!-- Node2 -->
<g id="Node000002" class="node">
<title>Node2</title>
<g id="a_Node000002"><a xlink:title=" ">
<polygon fill="#e0e0e0" stroke="#999999" points="71,-30 0,-30 0,-11 71,-11 71,-30"/>
<text text-anchor="middle" x="35.5" y="-18" font-family="Times,serif" font-size="10.00">type_traits</text>
</a>
</g>
</g>
<!-- Node1&#45;&gt;Node2 -->
<g id="edge1_Node000001_Node000002" class="edge">
<title>Node1&#45;&gt;Node2</title>
<g id="a_edge1_Node000001_Node000002"><a xlink:title=" ">
<path fill="none" stroke="#63b8ff" d="M161.51,-76.91C137.21,-66.31 106.7,-52.97 79.5,-41 74.56,-38.83 69.31,-36.51 64.23,-34.26"/>
<polygon fill="#63b8ff" stroke="#63b8ff" points="65.33,-30.92 54.77,-30.06 62.49,-37.32 65.33,-30.92"/>
</a>
</g>
</g>
<!-- Node3 -->
<g id="Node000003" class="node">
<title>Node3</title>
<g id="a_Node000003"><a xlink:title=" ">
<polygon fill="#e0e0e0" stroke="#999999" points="132,-30 89,-30 89,-11 132,-11 132,-30"/>
<text text-anchor="middle" x="110.5" y="-18" font-family="Times,serif" font-size="10.00">tuple</text>
</a>
</g>
</g>
<!-- Node1&#45;&gt;Node3 -->
<g id="edge2_Node000001_Node000003" class="edge">
<title>Node1&#45;&gt;Node3</title>
<g id="a_edge2_Node000001_Node000003"><a xlink:title=" ">
<path fill="none" stroke="#63b8ff" d="M181.53,-76.99C165.27,-64.29 144.4,-47.99 129.5,-36.34"/>
<polygon fill="#63b8ff" stroke="#63b8ff" points="131.53,-33.49 121.49,-30.09 127.22,-39 131.53,-33.49"/>
</a>
</g>
</g>
<!-- Node4 -->
<g id="Node000004" class="node">
<title>Node4</title>
<g id="a_Node000004"><a xlink:title=" ">
<polygon fill="#e0e0e0" stroke="#999999" points="196.5,-30 150.5,-30 150.5,-11 196.5,-11 196.5,-30"/>
<text text-anchor="middle" x="173.5" y="-18" font-family="Times,serif" font-size="10.00">utility</text>
</a>
</g>
</g>
<!-- Node1&#45;&gt;Node4 -->
<g id="edge3_Node000001_Node000004" class="edge">
<title>Node1&#45;&gt;Node4</title>
<g id="a_edge3_Node000001_Node000004"><a xlink:title=" ">
<path fill="none" stroke="#63b8ff" d="M197.83,-76.79C192.74,-65.23 186.36,-50.73 181.41,-39.48"/>
<polygon fill="#63b8ff" stroke="#63b8ff" points="184.58,-37.98 177.34,-30.24 178.17,-40.8 184.58,-37.98"/>
</a>
</g>
</g>
<!-- Node5 -->
<g id="Node000005" class="node">
<title>Node5</title>
<g id="a_Node000005"><a xlink:title=" ">
<polygon fill="#e0e0e0" stroke="#999999" points="266,-30 215,-30 215,-11 266,-11 266,-30"/>
<text text-anchor="middle" x="240.5" y="-18" font-family="Times,serif" font-size="10.00">cstdint</text>
</a>
</g>
</g>
<!-- Node1&#45;&gt;Node5 -->
<g id="edge4_Node000001_Node000005" class="edge">
<title>Node1&#45;&gt;Node5</title>
<g id="a_edge4_Node000001_Node000005"><a xlink:title=" ">
<path fill="none" stroke="#63b8ff" d="M215.43,-76.79C220.68,-65.23 227.25,-50.73 232.35,-39.48"/>
<polygon fill="#63b8ff" stroke="#63b8ff" points="235.6,-40.79 236.54,-30.24 229.22,-37.9 235.6,-40.79"/>
</a>
</g>
</g>
<!-- Node6 -->
<g id="Node000006" class="node">
<title>Node6</title>
<g id="a_Node000006"><a xlink:href="disjunction_8hpp.html" target="_top" xlink:title=" ">
<polygon fill="white" stroke="#666666" points="457,-35.5 284,-35.5 284,-5.5 457,-5.5 457,-35.5"/>
<text text-anchor="start" x="292" y="-23.5" font-family="Times,serif" font-size="10.00">boost/callable_traits</text>
<text text-anchor="middle" x="370.5" y="-12.5" font-family="Times,serif" font-size="10.00">/detail/polyfills/disjunction.hpp</text>
</a>
</g>
</g>
<!-- Node1&#45;&gt;Node6 -->
<g id="edge5_Node000001_Node000006" class="edge">
<title>Node1&#45;&gt;Node6</title>
<g id="a_edge5_Node000001_Node000006"><a xlink:title=" ">
<path fill="none" stroke="#63b8ff" d="M249.16,-76.99C274.21,-65.53 305.68,-51.14 330.3,-39.89"/>
<polygon fill="#63b8ff" stroke="#63b8ff" points="332.07,-42.92 339.71,-35.58 329.16,-36.56 332.07,-42.92"/>
</a>
</g>
</g>
<!-- Node7 -->
<g id="Node000007" class="node">
<title>Node7</title>
<g id="a_Node000007"><a xlink:href="make__index__sequence_8hpp.html" target="_top" xlink:title=" ">
<polygon fill="white" stroke="#666666" points="603.5,-41 475.5,-41 475.5,0 603.5,0 603.5,-41"/>
<text text-anchor="start" x="483.5" y="-29" font-family="Times,serif" font-size="10.00">boost/callable_traits</text>
<text text-anchor="start" x="483.5" y="-18" font-family="Times,serif" font-size="10.00">/detail/polyfills/make</text>
<text text-anchor="middle" x="539.5" y="-7" font-family="Times,serif" font-size="10.00">_index_sequence.hpp</text>
</a>
</g>
</g>
<!-- Node1&#45;&gt;Node7 -->
<g id="edge6_Node000001_Node000007" class="edge">
<title>Node1&#45;&gt;Node7</title>
<g id="a_edge6_Node000001_Node000007"><a xlink:title=" ">
<path fill="none" stroke="#63b8ff" d="M268.69,-84.15C319.22,-73.9 392.55,-58.55 465.61,-41.16"/>
<polygon fill="#63b8ff" stroke="#63b8ff" points="466.54,-44.54 475.45,-38.81 464.91,-37.73 466.54,-44.54"/>
</a>
</g>
</g>
</g>
</svg>
