<?xml version="1.0" encoding="UTF-8" standalone="no"?>
<!DOCTYPE svg PUBLIC "-//W3C//DTD SVG 1.1//EN"
 "http://www.w3.org/Graphics/SVG/1.1/DTD/svg11.dtd">
<!-- Generated by graphviz version 2.43.0 (0)
 -->
<!-- Title: ttg/ttg/constraint.h Pages: 1 -->
<svg width="1332pt" height="159pt"
 viewBox="0.00 0.00 1332.00 159.00" xmlns="http://www.w3.org/2000/svg" xmlns:xlink="http://www.w3.org/1999/xlink">
<g id="graph0" class="graph" transform="scale(1 1) rotate(0) translate(4 155)">
<title>ttg/ttg/constraint.h</title>
<!-- Node1 -->
<g id="Node000001" class="node">
<title>Node1</title>
<g id="a_Node000001"><a xlink:title=" ">
<polygon fill="#999999" stroke="#666666" points="841,-151 729,-151 729,-132 841,-132 841,-151"/>
<text text-anchor="middle" x="785" y="-139" font-family="Times,serif" font-size="10.00">ttg/ttg/constraint.h</text>
</a>
</g>
</g>
<!-- Node2 -->
<g id="Node000002" class="node">
<title>Node2</title>
<g id="a_Node000002"><a xlink:href="ttg_8h.html" target="_top" xlink:title=" ">
<polygon fill="white" stroke="#666666" points="786,-96 728,-96 728,-77 786,-77 786,-96"/>
<text text-anchor="middle" x="757" y="-84" font-family="Times,serif" font-size="10.00">ttg/ttg.h</text>
</a>
</g>
</g>
<!-- Node1&#45;&gt;Node2 -->
<g id="edge1_Node000001_Node000002" class="edge">
<title>Node1&#45;&gt;Node2</title>
<g id="a_edge1_Node000001_Node000002"><a xlink:title=" ">
<path fill="none" stroke="#63b8ff" d="M775.66,-122.82C770.91,-113.82 765.34,-103.29 761.54,-96.09"/>
<polygon fill="#63b8ff" stroke="#63b8ff" points="772.61,-124.54 780.38,-131.75 778.8,-121.27 772.61,-124.54"/>
</a>
</g>
</g>
<!-- Node11 -->
<g id="Node000011" class="node">
<title>Node11</title>
<g id="a_Node000011"><a xlink:href="ttg_2parsec_2ttg_8h.html" target="_top" xlink:title=" ">
<polygon fill="white" stroke="#666666" points="1324,-30 1212,-30 1212,-11 1324,-11 1324,-30"/>
<text text-anchor="middle" x="1268" y="-18" font-family="Times,serif" font-size="10.00">ttg/ttg/parsec/ttg.h</text>
</a>
</g>
</g>
<!-- Node1&#45;&gt;Node11 -->
<g id="edge11_Node000001_Node000011" class="edge">
<title>Node1&#45;&gt;Node11</title>
<g id="a_edge11_Node000001_Node000011"><a xlink:title=" ">
<path fill="none" stroke="#63b8ff" d="M834.15,-129.77C912.52,-112.44 1070.45,-76.63 1203,-41 1215.52,-37.64 1229.28,-33.56 1240.9,-30.01"/>
<polygon fill="#63b8ff" stroke="#63b8ff" points="833.1,-126.42 824.09,-131.99 834.61,-133.25 833.1,-126.42"/>
</a>
</g>
</g>
<!-- Node3 -->
<g id="Node000003" class="node">
<title>Node3</title>
<g id="a_Node000003"><a xlink:href="fibonacci_8cc.html" target="_top" xlink:title=" ">
<polygon fill="white" stroke="#666666" points="128,-35.5 0,-35.5 0,-5.5 128,-5.5 128,-35.5"/>
<text text-anchor="start" x="8" y="-23.5" font-family="Times,serif" font-size="10.00">doc/dox/dev/devsamp</text>
<text text-anchor="middle" x="64" y="-12.5" font-family="Times,serif" font-size="10.00">/fibonacci/fibonacci.cc</text>
</a>
</g>
</g>
<!-- Node2&#45;&gt;Node3 -->
<g id="edge2_Node000002_Node000003" class="edge">
<title>Node2&#45;&gt;Node3</title>
<g id="a_edge2_Node000002_Node000003"><a xlink:title=" ">
<path fill="none" stroke="#63b8ff" d="M717.62,-85.25C619.07,-84.07 354.18,-77.46 137,-41 128.59,-39.59 119.75,-37.64 111.23,-35.51"/>
<polygon fill="#63b8ff" stroke="#63b8ff" points="717.68,-88.75 727.72,-85.36 717.75,-81.75 717.68,-88.75"/>
</a>
</g>
</g>
<!-- Node4 -->
<g id="Node000004" class="node">
<title>Node4</title>
<g id="a_Node000004"><a xlink:href="fibonacci__device_8cc.html" target="_top" xlink:title=" ">
<polygon fill="white" stroke="#666666" points="274,-41 146,-41 146,0 274,0 274,-41"/>
<text text-anchor="start" x="154" y="-29" font-family="Times,serif" font-size="10.00">doc/dox/dev/devsamp</text>
<text text-anchor="start" x="154" y="-18" font-family="Times,serif" font-size="10.00">/fibonacci/fibonacci</text>
<text text-anchor="middle" x="210" y="-7" font-family="Times,serif" font-size="10.00">_device.cc</text>
</a>
</g>
</g>
<!-- Node2&#45;&gt;Node4 -->
<g id="edge3_Node000002_Node000004" class="edge">
<title>Node2&#45;&gt;Node4</title>
<g id="a_edge3_Node000002_Node000004"><a xlink:title=" ">
<path fill="none" stroke="#63b8ff" d="M717.61,-84.03C635.97,-80.5 442.62,-69.6 283,-41 280.16,-40.49 277.27,-39.93 274.35,-39.32"/>
<polygon fill="#63b8ff" stroke="#63b8ff" points="717.78,-87.54 727.92,-84.46 718.07,-80.55 717.78,-87.54"/>
</a>
</g>
</g>
<!-- Node5 -->
<g id="Node000005" class="node">
<title>Node5</title>
<g id="a_Node000005"><a xlink:href="helloworld_8cpp.html" target="_top" xlink:title=" ">
<polygon fill="white" stroke="#666666" points="443.5,-35.5 292.5,-35.5 292.5,-5.5 443.5,-5.5 443.5,-35.5"/>
<text text-anchor="start" x="300.5" y="-23.5" font-family="Times,serif" font-size="10.00">doc/dox/dev/devsamp</text>
<text text-anchor="middle" x="368" y="-12.5" font-family="Times,serif" font-size="10.00">/helloworld/helloworld.cpp</text>
</a>
</g>
</g>
<!-- Node2&#45;&gt;Node5 -->
<g id="edge4_Node000002_Node000005" class="edge">
<title>Node2&#45;&gt;Node5</title>
<g id="a_edge4_Node000002_Node000005"><a xlink:title=" ">
<path fill="none" stroke="#63b8ff" d="M717.75,-80.78C659.67,-73.56 547.51,-58.73 453,-41 444.37,-39.38 435.29,-37.49 426.4,-35.55"/>
<polygon fill="#63b8ff" stroke="#63b8ff" points="717.6,-84.28 727.95,-82.04 718.45,-77.34 717.6,-84.28"/>
</a>
</g>
</g>
<!-- Node6 -->
<g id="Node000006" class="node">
<title>Node6</title>
<g id="a_Node000006"><a xlink:href="distributed_8cc.html" target="_top" xlink:title=" ">
<polygon fill="white" stroke="#666666" points="596,-35.5 462,-35.5 462,-5.5 596,-5.5 596,-35.5"/>
<text text-anchor="start" x="470" y="-23.5" font-family="Times,serif" font-size="10.00">doc/dox/user/examples</text>
<text text-anchor="middle" x="529" y="-12.5" font-family="Times,serif" font-size="10.00">/distributed.cc</text>
</a>
</g>
</g>
<!-- Node2&#45;&gt;Node6 -->
<g id="edge5_Node000002_Node000006" class="edge">
<title>Node2&#45;&gt;Node6</title>
<g id="a_edge5_Node000002_Node000006"><a xlink:title=" ">
<path fill="none" stroke="#63b8ff" d="M717.89,-74.52C679.51,-63.75 620.84,-47.28 579.08,-35.56"/>
<polygon fill="#63b8ff" stroke="#63b8ff" points="717.09,-77.93 727.66,-77.26 718.98,-71.19 717.09,-77.93"/>
</a>
</g>
</g>
<!-- Node7 -->
<g id="Node000007" class="node">
<title>Node7</title>
<g id="a_Node000007"><a xlink:href="iterative_8cc.html" target="_top" xlink:title=" ">
<polygon fill="white" stroke="#666666" points="748,-35.5 614,-35.5 614,-5.5 748,-5.5 748,-35.5"/>
<text text-anchor="start" x="622" y="-23.5" font-family="Times,serif" font-size="10.00">doc/dox/user/examples</text>
<text text-anchor="middle" x="681" y="-12.5" font-family="Times,serif" font-size="10.00">/iterative.cc</text>
</a>
</g>
</g>
<!-- Node2&#45;&gt;Node7 -->
<g id="edge6_Node000002_Node000007" class="edge">
<title>Node2&#45;&gt;Node7</title>
<g id="a_edge6_Node000002_Node000007"><a xlink:title=" ">
<path fill="none" stroke="#63b8ff" d="M738.85,-70.21C726.37,-59.71 709.93,-45.86 697.76,-35.62"/>
<polygon fill="#63b8ff" stroke="#63b8ff" points="736.85,-73.1 746.75,-76.87 741.36,-67.75 736.85,-73.1"/>
</a>
</g>
</g>
<!-- Node8 -->
<g id="Node000008" class="node">
<title>Node8</title>
<g id="a_Node000008"><a xlink:href="reducing_8cc.html" target="_top" xlink:title=" ">
<polygon fill="white" stroke="#666666" points="900,-35.5 766,-35.5 766,-5.5 900,-5.5 900,-35.5"/>
<text text-anchor="start" x="774" y="-23.5" font-family="Times,serif" font-size="10.00">doc/dox/user/examples</text>
<text text-anchor="middle" x="833" y="-12.5" font-family="Times,serif" font-size="10.00">/reducing.cc</text>
</a>
</g>
</g>
<!-- Node2&#45;&gt;Node8 -->
<g id="edge7_Node000002_Node000008" class="edge">
<title>Node2&#45;&gt;Node8</title>
<g id="a_edge7_Node000002_Node000008"><a xlink:title=" ">
<path fill="none" stroke="#63b8ff" d="M775.15,-70.21C787.63,-59.71 804.07,-45.86 816.24,-35.62"/>
<polygon fill="#63b8ff" stroke="#63b8ff" points="772.64,-67.75 767.25,-76.87 777.15,-73.1 772.64,-67.75"/>
</a>
</g>
</g>
<!-- Node9 -->
<g id="Node000009" class="node">
<title>Node9</title>
<g id="a_Node000009"><a xlink:href="simple_8cc.html" target="_top" xlink:title=" ">
<polygon fill="white" stroke="#666666" points="1052,-35.5 918,-35.5 918,-5.5 1052,-5.5 1052,-35.5"/>
<text text-anchor="start" x="926" y="-23.5" font-family="Times,serif" font-size="10.00">doc/dox/user/examples</text>
<text text-anchor="middle" x="985" y="-12.5" font-family="Times,serif" font-size="10.00">/simple.cc</text>
</a>
</g>
</g>
<!-- Node2&#45;&gt;Node9 -->
<g id="edge8_Node000002_Node000009" class="edge">
<title>Node2&#45;&gt;Node9</title>
<g id="a_edge8_Node000002_Node000009"><a xlink:title=" ">
<path fill="none" stroke="#63b8ff" d="M796.11,-74.52C834.49,-63.75 893.16,-47.28 934.92,-35.56"/>
<polygon fill="#63b8ff" stroke="#63b8ff" points="795.02,-71.19 786.34,-77.26 796.91,-77.93 795.02,-71.19"/>
</a>
</g>
</g>
<!-- Node10 -->
<g id="Node000010" class="node">
<title>Node10</title>
<g id="a_Node000010"><a xlink:href="ttg_2madness_2ttg_8h.html" target="_top" xlink:title=" ">
<polygon fill="white" stroke="#666666" points="1194,-30 1070,-30 1070,-11 1194,-11 1194,-30"/>
<text text-anchor="middle" x="1132" y="-18" font-family="Times,serif" font-size="10.00">ttg/ttg/madness/ttg.h</text>
</a>
</g>
</g>
<!-- Node2&#45;&gt;Node10 -->
<g id="edge9_Node000002_Node000010" class="edge">
<title>Node2&#45;&gt;Node10</title>
<g id="a_edge9_Node000002_Node000010"><a xlink:title=" ">
<path fill="none" stroke="#63b8ff" d="M796.35,-81.3C854.57,-74.74 966.89,-60.73 1061,-41 1075.26,-38.01 1090.9,-33.82 1103.86,-30.08"/>
<polygon fill="#63b8ff" stroke="#63b8ff" points="795.68,-77.86 786.13,-82.44 796.46,-84.81 795.68,-77.86"/>
</a>
</g>
</g>
<!-- Node2&#45;&gt;Node11 -->
<g id="edge10_Node000002_Node000011" class="edge">
<title>Node2&#45;&gt;Node11</title>
<g id="a_edge10_Node000002_Node000011"><a xlink:title=" ">
<path fill="none" stroke="#63b8ff" d="M796.61,-84.1C874.92,-80.77 1054.82,-70.34 1203,-41 1216.64,-38.3 1231.51,-33.95 1243.59,-30.04"/>
<polygon fill="#63b8ff" stroke="#63b8ff" points="796.09,-80.62 786.24,-84.52 796.38,-87.61 796.09,-80.62"/>
</a>
</g>
</g>
</g>
</svg>
