<?xml version="1.0" encoding="UTF-8" standalone="no"?>
<!DOCTYPE svg PUBLIC "-//W3C//DTD SVG 1.1//EN"
 "http://www.w3.org/Graphics/SVG/1.1/DTD/svg11.dtd">
<!-- Generated by graphviz version 2.43.0 (0)
 -->
<!-- Title: ttg/ttg/coroutine.h Pages: 1 -->
<svg width="1332pt" height="379pt"
 viewBox="0.00 0.00 1332.00 379.00" xmlns="http://www.w3.org/2000/svg" xmlns:xlink="http://www.w3.org/1999/xlink">
<g id="graph0" class="graph" transform="scale(1 1) rotate(0) translate(4 375)">
<title>ttg/ttg/coroutine.h</title>
<!-- Node1 -->
<g id="Node000001" class="node">
<title>Node1</title>
<g id="a_Node000001"><a xlink:title=" ">
<polygon fill="#999999" stroke="#666666" points="1228.5,-371 1119.5,-371 1119.5,-352 1228.5,-352 1228.5,-371"/>
<text text-anchor="middle" x="1174" y="-359" font-family="Times,serif" font-size="10.00">ttg/ttg/coroutine.h</text>
</a>
</g>
</g>
<!-- Node2 -->
<g id="Node000002" class="node">
<title>Node2</title>
<g id="a_Node000002"><a xlink:href="ttg_2madness_2ttg_8h.html" target="_top" xlink:title=" ">
<polygon fill="white" stroke="#666666" points="1324,-30 1200,-30 1200,-11 1324,-11 1324,-30"/>
<text text-anchor="middle" x="1262" y="-18" font-family="Times,serif" font-size="10.00">ttg/ttg/madness/ttg.h</text>
</a>
</g>
</g>
<!-- Node1&#45;&gt;Node2 -->
<g id="edge1_Node000001_Node000002" class="edge">
<title>Node1&#45;&gt;Node2</title>
<g id="a_edge1_Node000001_Node000002"><a xlink:title=" ">
<path fill="none" stroke="#63b8ff" d="M1198.69,-346.67C1226.84,-328.86 1269,-295.09 1269,-252.5 1269,-252.5 1269,-252.5 1269,-140.5 1269,-99.11 1264.73,-49.76 1262.86,-30.15"/>
<polygon fill="#63b8ff" stroke="#63b8ff" points="1196.84,-343.69 1190.12,-351.88 1200.48,-349.68 1196.84,-343.69"/>
</a>
</g>
</g>
<!-- Node3 -->
<g id="Node000003" class="node">
<title>Node3</title>
<g id="a_Node000003"><a xlink:href="tt_8h.html" target="_top" xlink:title=" ">
<polygon fill="white" stroke="#666666" points="1113,-316 1045,-316 1045,-297 1113,-297 1113,-316"/>
<text text-anchor="middle" x="1079" y="-304" font-family="Times,serif" font-size="10.00">ttg/ttg/tt.h</text>
</a>
</g>
</g>
<!-- Node1&#45;&gt;Node3 -->
<g id="edge2_Node000001_Node000003" class="edge">
<title>Node1&#45;&gt;Node3</title>
<g id="a_edge2_Node000001_Node000003"><a xlink:title=" ">
<path fill="none" stroke="#63b8ff" d="M1149.74,-346.97C1132.37,-337.28 1109.51,-324.52 1094.54,-316.17"/>
<polygon fill="#63b8ff" stroke="#63b8ff" points="1148.3,-350.17 1158.74,-351.98 1151.71,-344.06 1148.3,-350.17"/>
</a>
</g>
</g>
<!-- Node3&#45;&gt;Node2 -->
<g id="edge20_Node000003_Node000002" class="edge">
<title>Node3&#45;&gt;Node2</title>
<g id="a_edge20_Node000003_Node000002"><a xlink:title=" ">
<path fill="none" stroke="#63b8ff" d="M1122.95,-294.51C1167.84,-280.35 1231,-250.92 1231,-197.5 1231,-197.5 1231,-197.5 1231,-140.5 1231,-98.02 1249.73,-49.67 1258.07,-30.25"/>
<polygon fill="#63b8ff" stroke="#63b8ff" points="1121.68,-291.24 1113.11,-297.47 1123.7,-297.94 1121.68,-291.24"/>
</a>
</g>
</g>
<!-- Node4 -->
<g id="Node000004" class="node">
<title>Node4</title>
<g id="a_Node000004"><a xlink:href="ttg_8h.html" target="_top" xlink:title=" ">
<polygon fill="white" stroke="#666666" points="839,-96 781,-96 781,-77 839,-77 839,-96"/>
<text text-anchor="middle" x="810" y="-84" font-family="Times,serif" font-size="10.00">ttg/ttg.h</text>
</a>
</g>
</g>
<!-- Node3&#45;&gt;Node4 -->
<g id="edge3_Node000003_Node000004" class="edge">
<title>Node3&#45;&gt;Node4</title>
<g id="a_edge3_Node000003_Node000004"><a xlink:title=" ">
<path fill="none" stroke="#63b8ff" d="M1034.8,-303.2C972,-299.01 861.42,-287.94 833,-261 785.82,-216.26 801.45,-125.08 807.84,-96.36"/>
<polygon fill="#63b8ff" stroke="#63b8ff" points="1034.62,-306.7 1044.82,-303.84 1035.06,-299.71 1034.62,-306.7"/>
</a>
</g>
</g>
<!-- Node12 -->
<g id="Node000012" class="node">
<title>Node12</title>
<g id="a_Node000012"><a xlink:href="ttg_2parsec_2ttg_8h.html" target="_top" xlink:title=" ">
<polygon fill="white" stroke="#666666" points="1182,-30 1070,-30 1070,-11 1182,-11 1182,-30"/>
<text text-anchor="middle" x="1126" y="-18" font-family="Times,serif" font-size="10.00">ttg/ttg/parsec/ttg.h</text>
</a>
</g>
</g>
<!-- Node3&#45;&gt;Node12 -->
<g id="edge21_Node000003_Node000012" class="edge">
<title>Node3&#45;&gt;Node12</title>
<g id="a_edge21_Node000003_Node000012"><a xlink:title=" ">
<path fill="none" stroke="#63b8ff" d="M1109.65,-292.47C1143.42,-275.82 1193,-243.53 1193,-197.5 1193,-197.5 1193,-197.5 1193,-140.5 1193,-93.79 1153.32,-48.5 1135.04,-30.11"/>
<polygon fill="#63b8ff" stroke="#63b8ff" points="1107.72,-289.51 1100.18,-296.95 1110.71,-295.84 1107.72,-289.51"/>
</a>
</g>
</g>
<!-- Node13 -->
<g id="Node000013" class="node">
<title>Node13</title>
<g id="a_Node000013"><a xlink:href="broadcast_8h.html" target="_top" xlink:title=" ">
<polygon fill="white" stroke="#666666" points="1050.5,-151 939.5,-151 939.5,-132 1050.5,-132 1050.5,-151"/>
<text text-anchor="middle" x="995" y="-139" font-family="Times,serif" font-size="10.00">ttg/ttg/broadcast.h</text>
</a>
</g>
</g>
<!-- Node3&#45;&gt;Node13 -->
<g id="edge13_Node000003_Node000013" class="edge">
<title>Node3&#45;&gt;Node13</title>
<g id="a_edge13_Node000003_Node000013"><a xlink:title=" ">
<path fill="none" stroke="#63b8ff" d="M1069.84,-287.73C1051.93,-252.97 1012.84,-177.12 999.54,-151.31"/>
<polygon fill="#63b8ff" stroke="#63b8ff" points="1066.79,-289.45 1074.48,-296.74 1073.01,-286.24 1066.79,-289.45"/>
</a>
</g>
</g>
<!-- Node14 -->
<g id="Node000014" class="node">
<title>Node14</title>
<g id="a_Node000014"><a xlink:href="func_8h.html" target="_top" xlink:title=" ">
<polygon fill="white" stroke="#666666" points="1120.5,-206 1037.5,-206 1037.5,-187 1120.5,-187 1120.5,-206"/>
<text text-anchor="middle" x="1079" y="-194" font-family="Times,serif" font-size="10.00">ttg/ttg/func.h</text>
</a>
</g>
</g>
<!-- Node3&#45;&gt;Node14 -->
<g id="edge15_Node000003_Node000014" class="edge">
<title>Node3&#45;&gt;Node14</title>
<g id="a_edge15_Node000003_Node000014"><a xlink:title=" ">
<path fill="none" stroke="#63b8ff" d="M1079,-286.48C1079,-262.84 1079,-223.5 1079,-206.16"/>
<polygon fill="#63b8ff" stroke="#63b8ff" points="1075.5,-286.66 1079,-296.66 1082.5,-286.66 1075.5,-286.66"/>
</a>
</g>
</g>
<!-- Node15 -->
<g id="Node000015" class="node">
<title>Node15</title>
<g id="a_Node000015"><a xlink:href="traverse_8h.html" target="_top" xlink:title=" ">
<polygon fill="white" stroke="#666666" points="945.5,-261 842.5,-261 842.5,-242 945.5,-242 945.5,-261"/>
<text text-anchor="middle" x="894" y="-249" font-family="Times,serif" font-size="10.00">ttg/ttg/traverse.h</text>
</a>
</g>
</g>
<!-- Node3&#45;&gt;Node15 -->
<g id="edge22_Node000003_Node000015" class="edge">
<title>Node3&#45;&gt;Node15</title>
<g id="a_edge22_Node000003_Node000015"><a xlink:title=" ">
<path fill="none" stroke="#63b8ff" d="M1039.5,-294.18C1004.9,-284.27 955.37,-270.08 923.96,-261.08"/>
<polygon fill="#63b8ff" stroke="#63b8ff" points="1038.7,-297.6 1049.28,-296.98 1040.63,-290.87 1038.7,-297.6"/>
</a>
</g>
</g>
<!-- Node4&#45;&gt;Node2 -->
<g id="edge11_Node000004_Node000002" class="edge">
<title>Node4&#45;&gt;Node2</title>
<g id="a_edge11_Node000004_Node000002"><a xlink:title=" ">
<path fill="none" stroke="#63b8ff" d="M849.46,-82.88C918.97,-77.81 1067.58,-65.01 1191,-41 1205.56,-38.17 1221.5,-33.9 1234.58,-30.08"/>
<polygon fill="#63b8ff" stroke="#63b8ff" points="849.12,-79.39 839.39,-83.59 849.61,-86.37 849.12,-79.39"/>
</a>
</g>
</g>
<!-- Node5 -->
<g id="Node000005" class="node">
<title>Node5</title>
<g id="a_Node000005"><a xlink:href="fibonacci_8cc.html" target="_top" xlink:title=" ">
<polygon fill="white" stroke="#666666" points="736,-35.5 608,-35.5 608,-5.5 736,-5.5 736,-35.5"/>
<text text-anchor="start" x="616" y="-23.5" font-family="Times,serif" font-size="10.00">doc/dox/dev/devsamp</text>
<text text-anchor="middle" x="672" y="-12.5" font-family="Times,serif" font-size="10.00">/fibonacci/fibonacci.cc</text>
</a>
</g>
</g>
<!-- Node4&#45;&gt;Node5 -->
<g id="edge4_Node000004_Node000005" class="edge">
<title>Node4&#45;&gt;Node5</title>
<g id="a_edge4_Node000004_Node000005"><a xlink:title=" ">
<path fill="none" stroke="#63b8ff" d="M782.13,-72.58C759.03,-61.86 726.23,-46.65 702.44,-35.62"/>
<polygon fill="#63b8ff" stroke="#63b8ff" points="780.84,-75.84 791.39,-76.87 783.79,-69.49 780.84,-75.84"/>
</a>
</g>
</g>
<!-- Node6 -->
<g id="Node000006" class="node">
<title>Node6</title>
<g id="a_Node000006"><a xlink:href="fibonacci__device_8cc.html" target="_top" xlink:title=" ">
<polygon fill="white" stroke="#666666" points="882,-41 754,-41 754,0 882,0 882,-41"/>
<text text-anchor="start" x="762" y="-29" font-family="Times,serif" font-size="10.00">doc/dox/dev/devsamp</text>
<text text-anchor="start" x="762" y="-18" font-family="Times,serif" font-size="10.00">/fibonacci/fibonacci</text>
<text text-anchor="middle" x="818" y="-7" font-family="Times,serif" font-size="10.00">_device.cc</text>
</a>
</g>
</g>
<!-- Node4&#45;&gt;Node6 -->
<g id="edge5_Node000004_Node000006" class="edge">
<title>Node4&#45;&gt;Node6</title>
<g id="a_edge5_Node000004_Node000006"><a xlink:title=" ">
<path fill="none" stroke="#63b8ff" d="M812.32,-66.91C813.34,-58.78 814.53,-49.24 815.56,-41.01"/>
<polygon fill="#63b8ff" stroke="#63b8ff" points="808.85,-66.51 811.08,-76.87 815.79,-67.38 808.85,-66.51"/>
</a>
</g>
</g>
<!-- Node7 -->
<g id="Node000007" class="node">
<title>Node7</title>
<g id="a_Node000007"><a xlink:href="helloworld_8cpp.html" target="_top" xlink:title=" ">
<polygon fill="white" stroke="#666666" points="1051.5,-35.5 900.5,-35.5 900.5,-5.5 1051.5,-5.5 1051.5,-35.5"/>
<text text-anchor="start" x="908.5" y="-23.5" font-family="Times,serif" font-size="10.00">doc/dox/dev/devsamp</text>
<text text-anchor="middle" x="976" y="-12.5" font-family="Times,serif" font-size="10.00">/helloworld/helloworld.cpp</text>
</a>
</g>
</g>
<!-- Node4&#45;&gt;Node7 -->
<g id="edge6_Node000004_Node000007" class="edge">
<title>Node4&#45;&gt;Node7</title>
<g id="a_edge6_Node000004_Node000007"><a xlink:title=" ">
<path fill="none" stroke="#63b8ff" d="M842.04,-73.15C869.9,-62.4 910.26,-46.85 939.39,-35.62"/>
<polygon fill="#63b8ff" stroke="#63b8ff" points="840.46,-70.01 832.39,-76.87 842.98,-76.54 840.46,-70.01"/>
</a>
</g>
</g>
<!-- Node8 -->
<g id="Node000008" class="node">
<title>Node8</title>
<g id="a_Node000008"><a xlink:href="distributed_8cc.html" target="_top" xlink:title=" ">
<polygon fill="white" stroke="#666666" points="134,-35.5 0,-35.5 0,-5.5 134,-5.5 134,-35.5"/>
<text text-anchor="start" x="8" y="-23.5" font-family="Times,serif" font-size="10.00">doc/dox/user/examples</text>
<text text-anchor="middle" x="67" y="-12.5" font-family="Times,serif" font-size="10.00">/distributed.cc</text>
</a>
</g>
</g>
<!-- Node4&#45;&gt;Node8 -->
<g id="edge7_Node000004_Node000008" class="edge">
<title>Node4&#45;&gt;Node8</title>
<g id="a_edge7_Node000004_Node000008"><a xlink:title=" ">
<path fill="none" stroke="#63b8ff" d="M770.56,-85.4C667,-84.59 379.02,-78.82 143,-41 134.26,-39.6 125.05,-37.65 116.19,-35.53"/>
<polygon fill="#63b8ff" stroke="#63b8ff" points="770.83,-88.9 780.86,-85.47 770.88,-81.9 770.83,-88.9"/>
</a>
</g>
</g>
<!-- Node9 -->
<g id="Node000009" class="node">
<title>Node9</title>
<g id="a_Node000009"><a xlink:href="iterative_8cc.html" target="_top" xlink:title=" ">
<polygon fill="white" stroke="#666666" points="286,-35.5 152,-35.5 152,-5.5 286,-5.5 286,-35.5"/>
<text text-anchor="start" x="160" y="-23.5" font-family="Times,serif" font-size="10.00">doc/dox/user/examples</text>
<text text-anchor="middle" x="219" y="-12.5" font-family="Times,serif" font-size="10.00">/iterative.cc</text>
</a>
</g>
</g>
<!-- Node4&#45;&gt;Node9 -->
<g id="edge8_Node000004_Node000009" class="edge">
<title>Node4&#45;&gt;Node9</title>
<g id="a_edge8_Node000004_Node000009"><a xlink:title=" ">
<path fill="none" stroke="#63b8ff" d="M770.58,-84.31C683.98,-81.21 470.8,-70.94 295,-41 286.54,-39.56 277.64,-37.65 269.03,-35.58"/>
<polygon fill="#63b8ff" stroke="#63b8ff" points="770.63,-87.81 780.75,-84.66 770.87,-80.82 770.63,-87.81"/>
</a>
</g>
</g>
<!-- Node10 -->
<g id="Node000010" class="node">
<title>Node10</title>
<g id="a_Node000010"><a xlink:href="reducing_8cc.html" target="_top" xlink:title=" ">
<polygon fill="white" stroke="#666666" points="438,-35.5 304,-35.5 304,-5.5 438,-5.5 438,-35.5"/>
<text text-anchor="start" x="312" y="-23.5" font-family="Times,serif" font-size="10.00">doc/dox/user/examples</text>
<text text-anchor="middle" x="371" y="-12.5" font-family="Times,serif" font-size="10.00">/reducing.cc</text>
</a>
</g>
</g>
<!-- Node4&#45;&gt;Node10 -->
<g id="edge9_Node000004_Node000010" class="edge">
<title>Node4&#45;&gt;Node10</title>
<g id="a_edge9_Node000004_Node000010"><a xlink:title=" ">
<path fill="none" stroke="#63b8ff" d="M770.53,-82.34C703.58,-76.62 563.67,-63.02 447,-41 438.83,-39.46 430.25,-37.54 421.9,-35.52"/>
<polygon fill="#63b8ff" stroke="#63b8ff" points="770.37,-85.84 780.63,-83.2 770.96,-78.87 770.37,-85.84"/>
</a>
</g>
</g>
<!-- Node11 -->
<g id="Node000011" class="node">
<title>Node11</title>
<g id="a_Node000011"><a xlink:href="simple_8cc.html" target="_top" xlink:title=" ">
<polygon fill="white" stroke="#666666" points="590,-35.5 456,-35.5 456,-5.5 590,-5.5 590,-35.5"/>
<text text-anchor="start" x="464" y="-23.5" font-family="Times,serif" font-size="10.00">doc/dox/user/examples</text>
<text text-anchor="middle" x="523" y="-12.5" font-family="Times,serif" font-size="10.00">/simple.cc</text>
</a>
</g>
</g>
<!-- Node4&#45;&gt;Node11 -->
<g id="edge10_Node000004_Node000011" class="edge">
<title>Node4&#45;&gt;Node11</title>
<g id="a_edge10_Node000004_Node000011"><a xlink:title=" ">
<path fill="none" stroke="#63b8ff" d="M770.98,-77.8C728.55,-69.3 658.78,-54.97 599,-41 591.7,-39.3 584.04,-37.42 576.49,-35.53"/>
<polygon fill="#63b8ff" stroke="#63b8ff" points="770.41,-81.25 780.9,-79.78 771.78,-74.39 770.41,-81.25"/>
</a>
</g>
</g>
<!-- Node4&#45;&gt;Node12 -->
<g id="edge12_Node000004_Node000012" class="edge">
<title>Node4&#45;&gt;Node12</title>
<g id="a_edge12_Node000004_Node000012"><a xlink:title=" ">
<path fill="none" stroke="#63b8ff" d="M849.2,-79.99C898.84,-72.69 986.84,-58.64 1061,-41 1073.95,-37.92 1088.13,-33.76 1099.94,-30.07"/>
<polygon fill="#63b8ff" stroke="#63b8ff" points="848.6,-76.54 839.21,-81.45 849.61,-83.47 848.6,-76.54"/>
</a>
</g>
</g>
<!-- Node13&#45;&gt;Node4 -->
<g id="edge14_Node000013_Node000004" class="edge">
<title>Node13&#45;&gt;Node4</title>
<g id="a_edge14_Node000013_Node000004"><a xlink:title=" ">
<path fill="none" stroke="#63b8ff" d="M955.41,-129.16C920.48,-119.15 870.38,-104.8 839.04,-95.82"/>
<polygon fill="#63b8ff" stroke="#63b8ff" points="954.7,-132.6 965.28,-131.98 956.63,-125.87 954.7,-132.6"/>
</a>
</g>
</g>
<!-- Node14&#45;&gt;Node2 -->
<g id="edge18_Node000014_Node000002" class="edge">
<title>Node14&#45;&gt;Node2</title>
<g id="a_edge18_Node000014_Node000002"><a xlink:title=" ">
<path fill="none" stroke="#63b8ff" d="M1095.65,-179.66C1133.28,-143.89 1223.83,-57.8 1252.87,-30.18"/>
<polygon fill="#63b8ff" stroke="#63b8ff" points="1092.91,-177.44 1088.07,-186.87 1097.73,-182.52 1092.91,-177.44"/>
</a>
</g>
</g>
<!-- Node14&#45;&gt;Node4 -->
<g id="edge16_Node000014_Node000004" class="edge">
<title>Node14&#45;&gt;Node4</title>
<g id="a_edge16_Node000014_Node000004"><a xlink:title=" ">
<path fill="none" stroke="#63b8ff" d="M1078.41,-176.36C1076.91,-162.05 1072.47,-143.12 1060,-132 1027.75,-103.25 898.34,-92.44 839.45,-88.95"/>
<polygon fill="#63b8ff" stroke="#63b8ff" points="1074.94,-176.85 1079.09,-186.6 1081.92,-176.39 1074.94,-176.85"/>
</a>
</g>
</g>
<!-- Node14&#45;&gt;Node12 -->
<g id="edge19_Node000014_Node000012" class="edge">
<title>Node14&#45;&gt;Node12</title>
<g id="a_edge19_Node000014_Node000012"><a xlink:title=" ">
<path fill="none" stroke="#63b8ff" d="M1084.12,-176.56C1094.23,-139.12 1116.42,-56.95 1123.67,-30.14"/>
<polygon fill="#63b8ff" stroke="#63b8ff" points="1080.62,-176.07 1081.4,-186.63 1087.38,-177.89 1080.62,-176.07"/>
</a>
</g>
</g>
<!-- Node14&#45;&gt;Node13 -->
<g id="edge17_Node000014_Node000013" class="edge">
<title>Node14&#45;&gt;Node13</title>
<g id="a_edge17_Node000014_Node000013"><a xlink:title=" ">
<path fill="none" stroke="#63b8ff" d="M1056.69,-181.42C1041.45,-171.81 1021.73,-159.37 1008.74,-151.17"/>
<polygon fill="#63b8ff" stroke="#63b8ff" points="1055.18,-184.61 1065.5,-186.98 1058.91,-178.69 1055.18,-184.61"/>
</a>
</g>
</g>
<!-- Node15&#45;&gt;Node4 -->
<g id="edge23_Node000015_Node000004" class="edge">
<title>Node15&#45;&gt;Node4</title>
<g id="a_edge23_Node000015_Node000004"><a xlink:title=" ">
<path fill="none" stroke="#63b8ff" d="M876.63,-234.97C857.73,-216.89 828.42,-185.12 815,-151 807.71,-132.48 808.2,-108.61 809.13,-96.07"/>
<polygon fill="#63b8ff" stroke="#63b8ff" points="874.31,-237.59 884.01,-241.85 879.08,-232.47 874.31,-237.59"/>
</a>
</g>
</g>
<!-- Node15&#45;&gt;Node14 -->
<g id="edge24_Node000015_Node000014" class="edge">
<title>Node15&#45;&gt;Node14</title>
<g id="a_edge24_Node000015_Node000014"><a xlink:title=" ">
<path fill="none" stroke="#63b8ff" d="M933.5,-239.18C968.1,-229.27 1017.63,-215.08 1049.04,-206.08"/>
<polygon fill="#63b8ff" stroke="#63b8ff" points="932.37,-235.87 923.72,-241.98 934.3,-242.6 932.37,-235.87"/>
</a>
</g>
</g>
<!-- Node16 -->
<g id="Node000016" class="node">
<title>Node16</title>
<g id="a_Node000016"><a xlink:href="dot_8h.html" target="_top" xlink:title=" ">
<polygon fill="white" stroke="#666666" points="921.5,-151 824.5,-151 824.5,-132 921.5,-132 921.5,-151"/>
<text text-anchor="middle" x="873" y="-139" font-family="Times,serif" font-size="10.00">ttg/ttg/util/dot.h</text>
</a>
</g>
</g>
<!-- Node15&#45;&gt;Node16 -->
<g id="edge25_Node000015_Node000016" class="edge">
<title>Node15&#45;&gt;Node16</title>
<g id="a_edge25_Node000015_Node000016"><a xlink:title=" ">
<path fill="none" stroke="#63b8ff" d="M890.36,-231.8C885.78,-208.2 878.07,-168.58 874.68,-151.16"/>
<polygon fill="#63b8ff" stroke="#63b8ff" points="886.94,-232.51 892.28,-241.66 893.81,-231.18 886.94,-232.51"/>
</a>
</g>
</g>
<!-- Node16&#45;&gt;Node4 -->
<g id="edge26_Node000016_Node000004" class="edge">
<title>Node16&#45;&gt;Node4</title>
<g id="a_edge26_Node000016_Node000004"><a xlink:title=" ">
<path fill="none" stroke="#63b8ff" d="M854.96,-125.32C843.73,-115.87 829.68,-104.06 820.31,-96.17"/>
<polygon fill="#63b8ff" stroke="#63b8ff" points="852.97,-128.23 862.88,-131.98 857.48,-122.87 852.97,-128.23"/>
</a>
</g>
</g>
</g>
</svg>
