<?xml version="1.0" encoding="UTF-8" standalone="no"?>
<!DOCTYPE svg PUBLIC "-//W3C//DTD SVG 1.1//EN"
 "http://www.w3.org/Graphics/SVG/1.1/DTD/svg11.dtd">
<!-- Generated by graphviz version 2.43.0 (0)
 -->
<!-- Title: ttg/ttg/util/demangle.h Pages: 1 -->
<svg width="286pt" height="82pt"
 viewBox="0.00 0.00 286.00 82.00" xmlns="http://www.w3.org/2000/svg" xmlns:xlink="http://www.w3.org/1999/xlink">

<svg id="main" version="1.1" xmlns="http://www.w3.org/2000/svg" xmlns:xlink="http://www.w3.org/1999/xlink" xml:space="preserve" onload="init(evt)">
<style type="text/css"><![CDATA[
.node, .edge {opacity: 0.7;}
.node.selected, .edge.selected {opacity: 1;}
.edge:hover path { stroke: red; }
.edge:hover polygon { stroke: red; fill: red; }
]]></style>
<script type="application/ecmascript" xlink:href="svg.min.js"/>
<svg id="graph" class="graph">
<g id="graph0" class="graph" transform="scale(1 1) rotate(0) translate(4 78)">
<title>ttg/ttg/util/demangle.h</title>
<!-- Node1 -->
<g id="Node000001" class="node">
<title>Node1</title>
<g id="a_Node000001"><a xlink:title=" ">
<polygon fill="#999999" stroke="#666666" points="201,-74 70,-74 70,-55 201,-55 201,-74"/>
<text text-anchor="middle" x="135.5" y="-62" font-family="Times,serif" font-size="10.00">ttg/ttg/util/demangle.h</text>
</a>
</g>
</g>
<!-- Node2 -->
<g id="Node000002" class="node">
<title>Node2</title>
<g id="a_Node000002"><a xlink:title=" ">
<polygon fill="#e0e0e0" stroke="#999999" points="59,-19 0,-19 0,0 59,0 59,-19"/>
<text text-anchor="middle" x="29.5" y="-7" font-family="Times,serif" font-size="10.00">cxxabi.h</text>
</a>
</g>
</g>
<!-- Node1&#45;&gt;Node2 -->
<g id="edge1_Node000001_Node000002" class="edge">
<title>Node1&#45;&gt;Node2</title>
<g id="a_edge1_Node000001_Node000002"><a xlink:title=" ">
<path fill="none" stroke="#63b8ff" d="M118.47,-54.98C101.57,-46.54 75.44,-33.47 55.86,-23.68"/>
<polygon fill="#63b8ff" stroke="#63b8ff" points="57.35,-20.51 46.84,-19.17 54.22,-26.77 57.35,-20.51"/>
</a>
</g>
</g>
<!-- Node3 -->
<g id="Node000003" class="node">
<title>Node3</title>
<g id="a_Node000003"><a xlink:title=" ">
<polygon fill="#e0e0e0" stroke="#999999" points="124,-19 77,-19 77,0 124,0 124,-19"/>
<text text-anchor="middle" x="100.5" y="-7" font-family="Times,serif" font-size="10.00">string</text>
</a>
</g>
</g>
<!-- Node1&#45;&gt;Node3 -->
<g id="edge2_Node000001_Node000003" class="edge">
<title>Node1&#45;&gt;Node3</title>
<g id="a_edge2_Node000001_Node000003"><a xlink:title=" ">
<path fill="none" stroke="#63b8ff" d="M129.72,-54.75C124.88,-47.42 117.82,-36.73 111.86,-27.7"/>
<polygon fill="#63b8ff" stroke="#63b8ff" points="114.6,-25.5 106.17,-19.09 108.76,-29.36 114.6,-25.5"/>
</a>
</g>
</g>
<!-- Node4 -->
<g id="Node000004" class="node">
<title>Node4</title>
<g id="a_Node000004"><a xlink:title=" ">
<polygon fill="#e0e0e0" stroke="#999999" points="201,-19 142,-19 142,0 201,0 201,-19"/>
<text text-anchor="middle" x="171.5" y="-7" font-family="Times,serif" font-size="10.00">typeinfo</text>
</a>
</g>
</g>
<!-- Node1&#45;&gt;Node4 -->
<g id="edge3_Node000001_Node000004" class="edge">
<title>Node1&#45;&gt;Node4</title>
<g id="a_edge3_Node000001_Node000004"><a xlink:title=" ">
<path fill="none" stroke="#63b8ff" d="M141.44,-54.75C146.48,-47.34 153.84,-36.5 160.01,-27.41"/>
<polygon fill="#63b8ff" stroke="#63b8ff" points="162.94,-29.33 165.67,-19.09 157.15,-25.39 162.94,-29.33"/>
</a>
</g>
</g>
<!-- Node5 -->
<g id="Node000005" class="node">
<title>Node5</title>
<g id="a_Node000005"><a xlink:title=" ">
<polygon fill="#e0e0e0" stroke="#999999" points="278,-19 219,-19 219,0 278,0 278,-19"/>
<text text-anchor="middle" x="248.5" y="-7" font-family="Times,serif" font-size="10.00">memory</text>
</a>
</g>
</g>
<!-- Node1&#45;&gt;Node5 -->
<g id="edge4_Node000001_Node000005" class="edge">
<title>Node1&#45;&gt;Node5</title>
<g id="a_edge4_Node000001_Node000005"><a xlink:title=" ">
<path fill="none" stroke="#63b8ff" d="M153.66,-54.98C171.75,-46.5 199.78,-33.35 220.69,-23.54"/>
<polygon fill="#63b8ff" stroke="#63b8ff" points="222.45,-26.59 230.01,-19.17 219.47,-20.25 222.45,-26.59"/>
</a>
</g>
</g>
</g>
</svg>
</svg>

<style type='text/css'>
<![CDATA[
[data-mouse-over-selected='false'] { opacity: 0.7; }
[data-mouse-over-selected='true']  { opacity: 1.0; }
]]>
</style>
<script type="application/ecmascript"><![CDATA[
document.addEventListener('DOMContentLoaded', (event) => {
  highlightEdges();
  highlightAdjacentNodes();
});
]]></script>
</svg>
