<?xml version="1.0" encoding="UTF-8" standalone="no"?>
<!DOCTYPE svg PUBLIC "-//W3C//DTD SVG 1.1//EN"
 "http://www.w3.org/Graphics/SVG/1.1/DTD/svg11.dtd">
<!-- Generated by graphviz version 2.43.0 (0)
 -->
<!-- Title: ttg/ttg/util/demangle.h Pages: 1 -->
<!--zoomable 709 -->

<svg id="main" version="1.1" xmlns="http://www.w3.org/2000/svg" xmlns:xlink="http://www.w3.org/1999/xlink" xml:space="preserve" onload="init(evt)">
<style type="text/css"><![CDATA[
.node, .edge {opacity: 0.7;}
.node.selected, .edge.selected {opacity: 1;}
.edge:hover path { stroke: red; }
.edge:hover polygon { stroke: red; fill: red; }
]]></style>

<defs>
  <circle id="rim" cx="0" cy="0" r="7"/>
  <circle id="rim2" cx="0" cy="0" r="3.5"/>
  <g id="zoomPlus">
    <use xlink:href="#rim" fill="#404040"><set attributeName="fill" to="#808080" begin="zoomplus.mouseover" end="zoomplus.mouseout"/></use>
    <path d="M-4,0h8M0,-4v8" fill="none" stroke="white" stroke-width="1.5" pointer-events="none"/>
  </g>
  <g id="zoomMin">
    <use xlink:href="#rim" fill="#404040"><set attributeName="fill" to="#808080" begin="zoomminus.mouseover" end="zoomminus.mouseout"/></use>
    <path d="M-4,0h8" fill="none" stroke="white" stroke-width="1.5" pointer-events="none"/>
  </g>
  <g id="arrowUp" transform="translate(30 24)">
    <use xlink:href="#rim"/>
    <path pointer-events="none" fill="none" stroke="white" stroke-width="1.5" d="M0,-3.0v7 M-2.5,-0.5L0,-3.0L2.5,-0.5"/>
  </g>
  <g id="arrowRight" transform="rotate(90) translate(36 -43)">
    <use xlink:href="#rim"/>
    <path pointer-events="none" fill="none" stroke="white" stroke-width="1.5" d="M0,-3.0v7 M-2.5,-0.5L0,-3.0L2.5,-0.5"/>
  </g>
  <g id="arrowDown" transform="rotate(180) translate(-30 -48)">
    <use xlink:href="#rim"/>
    <path pointer-events="none" fill="none" stroke="white" stroke-width="1.5" d="M0,-3.0v7 M-2.5,-0.5L0,-3.0L2.5,-0.5"/>
  </g>
  <g id="arrowLeft" transform="rotate(270) translate(-36 17)">
    <use xlink:href="#rim"/>
    <path pointer-events="none" fill="none" stroke="white" stroke-width="1.5" d="M0,-3.0v7 M-2.5,-0.5L0,-3.0L2.5,-0.5"/>
  </g>
  <g id="resetDef">
    <use xlink:href="#rim2" fill="#404040"><set attributeName="fill" to="#808080" begin="reset.mouseover" end="reset.mouseout"/></use>
  </g>
</defs>
<script type="application/ecmascript">
var viewWidth = 1332;
var viewHeight = 709;
var sectionId = 'dynsection-1';
</script>
<script type="application/ecmascript" xlink:href="svg.min.js"/>
<svg id="graph" class="graph">
<g id="viewport">
<title>ttg/ttg/util/demangle.h</title>
<!-- Node1 -->
<g id="Node000001" class="node">
<title>Node1</title>
<g id="a_Node000001"><a xlink:title=" ">
<polygon fill="#999999" stroke="#666666" points="687.5,-701 556.5,-701 556.5,-682 687.5,-682 687.5,-701"/>
<text text-anchor="middle" x="622" y="-689" font-family="Times,serif" font-size="10.00">ttg/ttg/util/demangle.h</text>
</a>
</g>
</g>
<!-- Node2 -->
<g id="Node000002" class="node">
<title>Node2</title>
<g id="a_Node000002"><a xlink:href="ttg_8h.html" target="_top" xlink:title=" ">
<polygon fill="white" stroke="#666666" points="829,-96 771,-96 771,-77 829,-77 829,-96"/>
<text text-anchor="middle" x="800" y="-84" font-family="Times,serif" font-size="10.00">ttg/ttg.h</text>
</a>
</g>
</g>
<!-- Node1&#45;&gt;Node2 -->
<g id="edge1_Node000001_Node000002" class="edge">
<title>Node1&#45;&gt;Node2</title>
<g id="a_edge1_Node000001_Node000002"><a xlink:title=" ">
<path fill="none" stroke="#63b8ff" d="M581.86,-678.87C538.76,-664.55 470.72,-636.39 428,-591 388.58,-549.12 376,-530.01 376,-472.5 376,-472.5 376,-472.5 376,-415.5 376,-341.11 414,-326.89 414,-252.5 414,-252.5 414,-252.5 414,-195.5 414,-121.39 681.22,-95.84 770.99,-89.34"/>
<polygon fill="#63b8ff" stroke="#63b8ff" points="580.86,-682.23 591.45,-681.97 583.01,-675.57 580.86,-682.23"/>
</a>
</g>
</g>
<!-- Node12 -->
<g id="Node000012" class="node">
<title>Node12</title>
<g id="a_Node000012"><a xlink:href="base_2tt_8h.html" target="_top" xlink:title=" ">
<polygon fill="white" stroke="#666666" points="669.5,-646 574.5,-646 574.5,-627 669.5,-627 669.5,-646"/>
<text text-anchor="middle" x="622" y="-634" font-family="Times,serif" font-size="10.00">ttg/ttg/base/tt.h</text>
</a>
</g>
</g>
<!-- Node1&#45;&gt;Node12 -->
<g id="edge11_Node000001_Node000012" class="edge">
<title>Node1&#45;&gt;Node12</title>
<g id="a_edge11_Node000001_Node000012"><a xlink:title=" ">
<path fill="none" stroke="#63b8ff" d="M622,-671.66C622,-662.93 622,-652.99 622,-646.09"/>
<polygon fill="#63b8ff" stroke="#63b8ff" points="618.5,-671.75 622,-681.75 625.5,-671.75 618.5,-671.75"/>
</a>
</g>
</g>
<!-- Node17 -->
<g id="Node000017" class="node">
<title>Node17</title>
<g id="a_Node000017"><a xlink:href="terminal_8h.html" target="_top" xlink:title=" ">
<polygon fill="white" stroke="#666666" points="1039,-426 935,-426 935,-407 1039,-407 1039,-426"/>
<text text-anchor="middle" x="987" y="-414" font-family="Times,serif" font-size="10.00">ttg/ttg/terminal.h</text>
</a>
</g>
</g>
<!-- Node1&#45;&gt;Node17 -->
<g id="edge48_Node000001_Node000017" class="edge">
<title>Node1&#45;&gt;Node17</title>
<g id="a_edge48_Node000001_Node000017"><a xlink:title=" ">
<path fill="none" stroke="#63b8ff" d="M697.92,-684.16C809.76,-673.06 1010.31,-645.89 1054,-591 1096.63,-537.44 1022.71,-453.6 996.04,-426.37"/>
<polygon fill="#63b8ff" stroke="#63b8ff" points="697.33,-680.7 687.71,-685.15 698,-687.67 697.33,-680.7"/>
</a>
</g>
</g>
<!-- Node3 -->
<g id="Node000003" class="node">
<title>Node3</title>
<g id="a_Node000003"><a xlink:href="fibonacci_8cc.html" target="_top" xlink:title=" ">
<polygon fill="white" stroke="#666666" points="1048,-35.5 920,-35.5 920,-5.5 1048,-5.5 1048,-35.5"/>
<text text-anchor="start" x="928" y="-23.5" font-family="Times,serif" font-size="10.00">doc/dox/dev/devsamp</text>
<text text-anchor="middle" x="984" y="-12.5" font-family="Times,serif" font-size="10.00">/fibonacci/fibonacci.cc</text>
</a>
</g>
</g>
<!-- Node2&#45;&gt;Node3 -->
<g id="edge2_Node000002_Node000003" class="edge">
<title>Node2&#45;&gt;Node3</title>
<g id="a_edge2_Node000002_Node000003"><a xlink:title=" ">
<path fill="none" stroke="#63b8ff" d="M834.31,-73.57C865.22,-62.81 910.71,-46.99 943.42,-35.62"/>
<polygon fill="#63b8ff" stroke="#63b8ff" points="833.11,-70.28 824.82,-76.87 835.41,-76.89 833.11,-70.28"/>
</a>
</g>
</g>
<!-- Node4 -->
<g id="Node000004" class="node">
<title>Node4</title>
<g id="a_Node000004"><a xlink:href="fibonacci__device_8cc.html" target="_top" xlink:title=" ">
<polygon fill="white" stroke="#666666" points="1194,-41 1066,-41 1066,0 1194,0 1194,-41"/>
<text text-anchor="start" x="1074" y="-29" font-family="Times,serif" font-size="10.00">doc/dox/dev/devsamp</text>
<text text-anchor="start" x="1074" y="-18" font-family="Times,serif" font-size="10.00">/fibonacci/fibonacci</text>
<text text-anchor="middle" x="1130" y="-7" font-family="Times,serif" font-size="10.00">_device.cc</text>
</a>
</g>
</g>
<!-- Node2&#45;&gt;Node4 -->
<g id="edge3_Node000002_Node000004" class="edge">
<title>Node2&#45;&gt;Node4</title>
<g id="a_edge3_Node000002_Node000004"><a xlink:title=" ">
<path fill="none" stroke="#63b8ff" d="M839.24,-79.82C889.83,-72.25 980.41,-57.83 1057,-41 1059.95,-40.35 1062.95,-39.66 1065.99,-38.95"/>
<polygon fill="#63b8ff" stroke="#63b8ff" points="838.45,-76.4 829.07,-81.33 839.48,-83.33 838.45,-76.4"/>
</a>
</g>
</g>
<!-- Node5 -->
<g id="Node000005" class="node">
<title>Node5</title>
<g id="a_Node000005"><a xlink:href="helloworld_8cpp.html" target="_top" xlink:title=" ">
<polygon fill="white" stroke="#666666" points="293.5,-35.5 142.5,-35.5 142.5,-5.5 293.5,-5.5 293.5,-35.5"/>
<text text-anchor="start" x="150.5" y="-23.5" font-family="Times,serif" font-size="10.00">doc/dox/dev/devsamp</text>
<text text-anchor="middle" x="218" y="-12.5" font-family="Times,serif" font-size="10.00">/helloworld/helloworld.cpp</text>
</a>
</g>
</g>
<!-- Node2&#45;&gt;Node5 -->
<g id="edge4_Node000002_Node000005" class="edge">
<title>Node2&#45;&gt;Node5</title>
<g id="a_edge4_Node000002_Node000005"><a xlink:title=" ">
<path fill="none" stroke="#63b8ff" d="M760.87,-77.57C759.56,-77.36 758.27,-77.18 757,-77 556.49,-49.33 503.07,-71.71 303,-41 293.57,-39.55 283.64,-37.64 274.01,-35.57"/>
<polygon fill="#63b8ff" stroke="#63b8ff" points="760.49,-81.05 770.93,-79.28 761.66,-74.15 760.49,-81.05"/>
</a>
</g>
</g>
<!-- Node6 -->
<g id="Node000006" class="node">
<title>Node6</title>
<g id="a_Node000006"><a xlink:href="distributed_8cc.html" target="_top" xlink:title=" ">
<polygon fill="white" stroke="#666666" points="446,-35.5 312,-35.5 312,-5.5 446,-5.5 446,-35.5"/>
<text text-anchor="start" x="320" y="-23.5" font-family="Times,serif" font-size="10.00">doc/dox/user/examples</text>
<text text-anchor="middle" x="379" y="-12.5" font-family="Times,serif" font-size="10.00">/distributed.cc</text>
</a>
</g>
</g>
<!-- Node2&#45;&gt;Node6 -->
<g id="edge5_Node000002_Node000006" class="edge">
<title>Node2&#45;&gt;Node6</title>
<g id="a_edge5_Node000002_Node000006"><a xlink:title=" ">
<path fill="none" stroke="#63b8ff" d="M760.86,-77.63C759.56,-77.41 758.27,-77.2 757,-77 623.49,-55.88 587.87,-65.85 455,-41 446.83,-39.47 438.24,-37.57 429.89,-35.55"/>
<polygon fill="#63b8ff" stroke="#63b8ff" points="760.45,-81.11 770.91,-79.44 761.69,-74.22 760.45,-81.11"/>
</a>
</g>
</g>
<!-- Node7 -->
<g id="Node000007" class="node">
<title>Node7</title>
<g id="a_Node000007"><a xlink:href="iterative_8cc.html" target="_top" xlink:title=" ">
<polygon fill="white" stroke="#666666" points="598,-35.5 464,-35.5 464,-5.5 598,-5.5 598,-35.5"/>
<text text-anchor="start" x="472" y="-23.5" font-family="Times,serif" font-size="10.00">doc/dox/user/examples</text>
<text text-anchor="middle" x="531" y="-12.5" font-family="Times,serif" font-size="10.00">/iterative.cc</text>
</a>
</g>
</g>
<!-- Node2&#45;&gt;Node7 -->
<g id="edge6_Node000002_Node000007" class="edge">
<title>Node2&#45;&gt;Node7</title>
<g id="a_edge6_Node000002_Node000007"><a xlink:title=" ">
<path fill="none" stroke="#63b8ff" d="M760.95,-76.79C721.91,-68.02 660.21,-53.96 607,-41 599.85,-39.26 592.34,-37.39 584.93,-35.51"/>
<polygon fill="#63b8ff" stroke="#63b8ff" points="760.32,-80.24 770.85,-79.01 761.86,-73.41 760.32,-80.24"/>
</a>
</g>
</g>
<!-- Node8 -->
<g id="Node000008" class="node">
<title>Node8</title>
<g id="a_Node000008"><a xlink:href="reducing_8cc.html" target="_top" xlink:title=" ">
<polygon fill="white" stroke="#666666" points="750,-35.5 616,-35.5 616,-5.5 750,-5.5 750,-35.5"/>
<text text-anchor="start" x="624" y="-23.5" font-family="Times,serif" font-size="10.00">doc/dox/user/examples</text>
<text text-anchor="middle" x="683" y="-12.5" font-family="Times,serif" font-size="10.00">/reducing.cc</text>
</a>
</g>
</g>
<!-- Node2&#45;&gt;Node8 -->
<g id="edge7_Node000002_Node000008" class="edge">
<title>Node2&#45;&gt;Node8</title>
<g id="a_edge7_Node000002_Node000008"><a xlink:title=" ">
<path fill="none" stroke="#63b8ff" d="M775.32,-72C755.79,-61.32 728.61,-46.45 708.81,-35.62"/>
<polygon fill="#63b8ff" stroke="#63b8ff" points="773.77,-75.14 784.22,-76.87 777.13,-69 773.77,-75.14"/>
</a>
</g>
</g>
<!-- Node9 -->
<g id="Node000009" class="node">
<title>Node9</title>
<g id="a_Node000009"><a xlink:href="simple_8cc.html" target="_top" xlink:title=" ">
<polygon fill="white" stroke="#666666" points="902,-35.5 768,-35.5 768,-5.5 902,-5.5 902,-35.5"/>
<text text-anchor="start" x="776" y="-23.5" font-family="Times,serif" font-size="10.00">doc/dox/user/examples</text>
<text text-anchor="middle" x="835" y="-12.5" font-family="Times,serif" font-size="10.00">/simple.cc</text>
</a>
</g>
</g>
<!-- Node2&#45;&gt;Node9 -->
<g id="edge8_Node000002_Node000009" class="edge">
<title>Node2&#45;&gt;Node9</title>
<g id="a_edge8_Node000002_Node000009"><a xlink:title=" ">
<path fill="none" stroke="#63b8ff" d="M809.68,-67.8C815.18,-57.74 821.98,-45.31 827.15,-35.86"/>
<polygon fill="#63b8ff" stroke="#63b8ff" points="806.45,-66.42 804.72,-76.87 812.59,-69.77 806.45,-66.42"/>
</a>
</g>
</g>
<!-- Node10 -->
<g id="Node000010" class="node">
<title>Node10</title>
<g id="a_Node000010"><a xlink:href="ttg_2madness_2ttg_8h.html" target="_top" xlink:title=" ">
<polygon fill="white" stroke="#666666" points="124,-30 0,-30 0,-11 124,-11 124,-30"/>
<text text-anchor="middle" x="62" y="-18" font-family="Times,serif" font-size="10.00">ttg/ttg/madness/ttg.h</text>
</a>
</g>
</g>
<!-- Node2&#45;&gt;Node10 -->
<g id="edge9_Node000002_Node000010" class="edge">
<title>Node2&#45;&gt;Node10</title>
<g id="a_edge9_Node000002_Node000010"><a xlink:title=" ">
<path fill="none" stroke="#63b8ff" d="M760.87,-77.53C759.57,-77.34 758.27,-77.16 757,-77 481.42,-41.98 407.12,-86.03 133,-41 117.86,-38.51 101.32,-34.07 88.01,-30.06"/>
<polygon fill="#63b8ff" stroke="#63b8ff" points="760.51,-81.02 770.94,-79.19 761.65,-74.11 760.51,-81.02"/>
</a>
</g>
</g>
<!-- Node11 -->
<g id="Node000011" class="node">
<title>Node11</title>
<g id="a_Node000011"><a xlink:href="ttg_2parsec_2ttg_8h.html" target="_top" xlink:title=" ">
<polygon fill="white" stroke="#666666" points="1324,-30 1212,-30 1212,-11 1324,-11 1324,-30"/>
<text text-anchor="middle" x="1268" y="-18" font-family="Times,serif" font-size="10.00">ttg/ttg/parsec/ttg.h</text>
</a>
</g>
</g>
<!-- Node2&#45;&gt;Node11 -->
<g id="edge10_Node000002_Node000011" class="edge">
<title>Node2&#45;&gt;Node11</title>
<g id="a_edge10_Node000002_Node000011"><a xlink:title=" ">
<path fill="none" stroke="#63b8ff" d="M839.15,-83.54C911.6,-79.4 1071.18,-67.82 1203,-41 1216.51,-38.25 1231.25,-33.94 1243.27,-30.07"/>
<polygon fill="#63b8ff" stroke="#63b8ff" points="838.9,-80.05 829.11,-84.1 839.29,-87.04 838.9,-80.05"/>
</a>
</g>
</g>
<!-- Node12&#45;&gt;Node10 -->
<g id="edge45_Node000012_Node000010" class="edge">
<title>Node12&#45;&gt;Node10</title>
<g id="a_edge45_Node000012_Node000010"><a xlink:title=" ">
<path fill="none" stroke="#63b8ff" d="M564.15,-632.59C523.3,-628.18 468.81,-617.35 428,-591 372.44,-555.12 338,-538.63 338,-472.5 338,-472.5 338,-472.5 338,-140.5 338,-113.53 157.98,-52.51 88.71,-30.02"/>
<polygon fill="#63b8ff" stroke="#63b8ff" points="563.92,-636.08 574.22,-633.58 564.61,-629.12 563.92,-636.08"/>
</a>
</g>
</g>
<!-- Node12&#45;&gt;Node11 -->
<g id="edge46_Node000012_Node000011" class="edge">
<title>Node12&#45;&gt;Node11</title>
<g id="a_edge46_Node000012_Node000011"><a xlink:title=" ">
<path fill="none" stroke="#63b8ff" d="M679.59,-635.17C763.36,-633.45 923.1,-625.42 1054,-591 1113.09,-575.46 1132.18,-574.03 1180,-536 1231.35,-495.17 1268,-483.1 1268,-417.5 1268,-417.5 1268,-417.5 1268,-140.5 1268,-99.18 1268,-49.79 1268,-30.16"/>
<polygon fill="#63b8ff" stroke="#63b8ff" points="679.45,-631.68 669.52,-635.36 679.58,-638.67 679.45,-631.68"/>
</a>
</g>
</g>
<!-- Node13 -->
<g id="Node000013" class="node">
<title>Node13</title>
<g id="a_Node000013"><a xlink:href="base_2world_8h.html" target="_top" xlink:title=" ">
<polygon fill="white" stroke="#666666" points="1045,-591 929,-591 929,-572 1045,-572 1045,-591"/>
<text text-anchor="middle" x="987" y="-579" font-family="Times,serif" font-size="10.00">ttg/ttg/base/world.h</text>
</a>
</g>
</g>
<!-- Node12&#45;&gt;Node13 -->
<g id="edge12_Node000012_Node000013" class="edge">
<title>Node12&#45;&gt;Node13</title>
<g id="a_edge12_Node000012_Node000013"><a xlink:title=" ">
<path fill="none" stroke="#63b8ff" d="M679.84,-627.1C747.95,-617.21 860.42,-600.88 928.72,-590.96"/>
<polygon fill="#63b8ff" stroke="#63b8ff" points="679.11,-623.67 669.72,-628.57 680.12,-630.6 679.11,-623.67"/>
</a>
</g>
</g>
<!-- Node20 -->
<g id="Node000020" class="node">
<title>Node20</title>
<g id="a_Node000020"><a xlink:href="tt_8h.html" target="_top" xlink:title=" ">
<polygon fill="white" stroke="#666666" points="718,-316 650,-316 650,-297 718,-297 718,-316"/>
<text text-anchor="middle" x="684" y="-304" font-family="Times,serif" font-size="10.00">ttg/ttg/tt.h</text>
</a>
</g>
</g>
<!-- Node12&#45;&gt;Node20 -->
<g id="edge47_Node000012_Node000020" class="edge">
<title>Node12&#45;&gt;Node20</title>
<g id="a_edge47_Node000012_Node000020"><a xlink:title=" ">
<path fill="none" stroke="#63b8ff" d="M564.27,-630.09C502.72,-620.76 414,-595.53 414,-527.5 414,-527.5 414,-527.5 414,-415.5 414,-365.27 577.15,-327.87 649.8,-313.71"/>
<polygon fill="#63b8ff" stroke="#63b8ff" points="563.89,-633.57 574.28,-631.5 564.87,-626.64 563.89,-633.57"/>
</a>
</g>
</g>
<!-- Node13&#45;&gt;Node2 -->
<g id="edge13_Node000013_Node000002" class="edge">
<title>Node13&#45;&gt;Node2</title>
<g id="a_edge13_Node000013_Node000002"><a xlink:title=" ">
<path fill="none" stroke="#63b8ff" d="M1040.72,-569.39C1089.54,-555.78 1154,-527.41 1154,-472.5 1154,-472.5 1154,-472.5 1154,-250.5 1154,-107.91 914.08,-89.62 829.27,-87.61"/>
<polygon fill="#63b8ff" stroke="#63b8ff" points="1039.65,-566.05 1030.88,-572 1041.44,-572.82 1039.65,-566.05"/>
</a>
</g>
</g>
<!-- Node13&#45;&gt;Node11 -->
<g id="edge14_Node000013_Node000011" class="edge">
<title>Node13&#45;&gt;Node11</title>
<g id="a_edge14_Node000013_Node000011"><a xlink:title=" ">
<path fill="none" stroke="#63b8ff" d="M1055.35,-572.86C1114.97,-561.94 1192,-535.63 1192,-472.5 1192,-472.5 1192,-472.5 1192,-140.5 1192,-92.45 1236.55,-48.22 1257.43,-30.13"/>
<polygon fill="#63b8ff" stroke="#63b8ff" points="1054.46,-569.46 1045.2,-574.6 1055.64,-576.36 1054.46,-569.46"/>
</a>
</g>
</g>
<!-- Node14 -->
<g id="Node000014" class="node">
<title>Node14</title>
<g id="a_Node000014"><a xlink:href="world_8h.html" target="_top" xlink:title=" ">
<polygon fill="white" stroke="#666666" points="875.5,-536 786.5,-536 786.5,-517 875.5,-517 875.5,-536"/>
<text text-anchor="middle" x="831" y="-524" font-family="Times,serif" font-size="10.00">ttg/ttg/world.h</text>
</a>
</g>
</g>
<!-- Node13&#45;&gt;Node14 -->
<g id="edge15_Node000013_Node000014" class="edge">
<title>Node13&#45;&gt;Node14</title>
<g id="a_edge15_Node000013_Node000014"><a xlink:title=" ">
<path fill="none" stroke="#63b8ff" d="M952.18,-568.67C923.09,-558.79 882.3,-544.93 856.26,-536.08"/>
<polygon fill="#63b8ff" stroke="#63b8ff" points="951.34,-572.08 961.94,-571.98 953.59,-565.45 951.34,-572.08"/>
</a>
</g>
</g>
<!-- Node14&#45;&gt;Node2 -->
<g id="edge16_Node000014_Node000002" class="edge">
<title>Node14&#45;&gt;Node2</title>
<g id="a_edge16_Node000014_Node000002"><a xlink:title=" ">
<path fill="none" stroke="#63b8ff" d="M776.27,-519.63C679.9,-507.75 490,-476.82 490,-417.5 490,-417.5 490,-417.5 490,-195.5 490,-161.66 503.61,-150.42 532,-132 571.17,-106.59 710.07,-93.86 771,-89.4"/>
<polygon fill="#63b8ff" stroke="#63b8ff" points="776.07,-523.13 786.42,-520.85 776.91,-516.18 776.07,-523.13"/>
</a>
</g>
</g>
<!-- Node14&#45;&gt;Node10 -->
<g id="edge19_Node000014_Node000010" class="edge">
<title>Node14&#45;&gt;Node10</title>
<g id="a_edge19_Node000014_Node000010"><a xlink:title=" ">
<path fill="none" stroke="#63b8ff" d="M776.09,-522.28C700.73,-517.05 569.91,-504.79 529,-481 470.92,-447.22 376,-323.01 376,-252.5 376,-252.5 376,-252.5 376,-140.5 376,-110.33 375.34,-96.12 352,-77 275.69,-14.5 229.36,-62.09 133,-41 118.89,-37.91 103.4,-33.75 90.5,-30.06"/>
<polygon fill="#63b8ff" stroke="#63b8ff" points="776.13,-525.79 786.34,-522.97 776.6,-518.81 776.13,-525.79"/>
</a>
</g>
</g>
<!-- Node15 -->
<g id="Node000015" class="node">
<title>Node15</title>
<g id="a_Node000015"><a xlink:href="broadcast_8h.html" target="_top" xlink:title=" ">
<polygon fill="white" stroke="#666666" points="821.5,-151 710.5,-151 710.5,-132 821.5,-132 821.5,-151"/>
<text text-anchor="middle" x="766" y="-139" font-family="Times,serif" font-size="10.00">ttg/ttg/broadcast.h</text>
</a>
</g>
</g>
<!-- Node14&#45;&gt;Node15 -->
<g id="edge17_Node000014_Node000015" class="edge">
<title>Node14&#45;&gt;Node15</title>
<g id="a_edge17_Node000014_Node000015"><a xlink:title=" ">
<path fill="none" stroke="#63b8ff" d="M815.95,-509.24C799.06,-489.24 774,-453.49 774,-417.5 774,-417.5 774,-417.5 774,-250.5 774,-213.46 769.26,-169.47 767.08,-151.16"/>
<polygon fill="#63b8ff" stroke="#63b8ff" points="813.36,-511.6 822.59,-516.8 818.62,-506.98 813.36,-511.6"/>
</a>
</g>
</g>
<!-- Node16 -->
<g id="Node000016" class="node">
<title>Node16</title>
<g id="a_Node000016"><a xlink:href="run_8h.html" target="_top" xlink:title=" ">
<polygon fill="white" stroke="#666666" points="946.5,-481 867.5,-481 867.5,-462 946.5,-462 946.5,-481"/>
<text text-anchor="middle" x="907" y="-469" font-family="Times,serif" font-size="10.00">ttg/ttg/run.h</text>
</a>
</g>
</g>
<!-- Node14&#45;&gt;Node16 -->
<g id="edge20_Node000014_Node000016" class="edge">
<title>Node14&#45;&gt;Node16</title>
<g id="a_edge20_Node000014_Node000016"><a xlink:title=" ">
<path fill="none" stroke="#63b8ff" d="M851.58,-511.15C865.31,-501.57 882.93,-489.29 894.57,-481.17"/>
<polygon fill="#63b8ff" stroke="#63b8ff" points="849.41,-508.39 843.21,-516.98 853.42,-514.14 849.41,-508.39"/>
</a>
</g>
</g>
<!-- Node14&#45;&gt;Node17 -->
<g id="edge44_Node000014_Node000017" class="edge">
<title>Node14&#45;&gt;Node17</title>
<g id="a_edge44_Node000014_Node000017"><a xlink:title=" ">
<path fill="none" stroke="#63b8ff" d="M885.53,-515.44C909.07,-508.86 935.59,-498.17 955,-481 972.01,-465.95 981.1,-439.73 984.87,-426.17"/>
<polygon fill="#63b8ff" stroke="#63b8ff" points="884.45,-512.11 875.66,-518.02 886.22,-518.88 884.45,-512.11"/>
</a>
</g>
</g>
<!-- Node15&#45;&gt;Node2 -->
<g id="edge18_Node000015_Node000002" class="edge">
<title>Node15&#45;&gt;Node2</title>
<g id="a_edge18_Node000015_Node000002"><a xlink:title=" ">
<path fill="none" stroke="#63b8ff" d="M777.16,-123.1C782.97,-114.04 789.82,-103.37 794.49,-96.09"/>
<polygon fill="#63b8ff" stroke="#63b8ff" points="774.07,-121.44 771.61,-131.75 779.96,-125.22 774.07,-121.44"/>
</a>
</g>
</g>
<!-- Node16&#45;&gt;Node2 -->
<g id="edge21_Node000016_Node000002" class="edge">
<title>Node16&#45;&gt;Node2</title>
<g id="a_edge21_Node000016_Node000002"><a xlink:title=" ">
<path fill="none" stroke="#63b8ff" d="M908.62,-451.58C912.1,-405.71 918.54,-285.12 900,-187 895.17,-161.44 896.87,-151.79 880,-132 865.46,-114.95 842.67,-103.18 825.13,-96.05"/>
<polygon fill="#63b8ff" stroke="#63b8ff" points="905.13,-451.32 907.82,-461.57 912.11,-451.88 905.13,-451.32"/>
</a>
</g>
</g>
<!-- Node16&#45;&gt;Node17 -->
<g id="edge22_Node000016_Node000017" class="edge">
<title>Node16&#45;&gt;Node17</title>
<g id="a_edge22_Node000016_Node000017"><a xlink:title=" ">
<path fill="none" stroke="#63b8ff" d="M928.25,-456.42C942.76,-446.81 961.54,-434.37 973.91,-426.17"/>
<polygon fill="#63b8ff" stroke="#63b8ff" points="926.26,-453.54 919.85,-461.98 930.12,-459.38 926.26,-453.54"/>
</a>
</g>
</g>
<!-- Node17&#45;&gt;Node11 -->
<g id="edge43_Node000017_Node000011" class="edge">
<title>Node17&#45;&gt;Node11</title>
<g id="a_edge43_Node000017_Node000011"><a xlink:title=" ">
<path fill="none" stroke="#63b8ff" d="M1022.89,-403.12C1061.06,-387.4 1116,-356.3 1116,-307.5 1116,-307.5 1116,-307.5 1116,-250.5 1116,-168.61 1126.47,-140.64 1178,-77 1196.02,-54.75 1225.5,-39 1245.78,-30.1"/>
<polygon fill="#63b8ff" stroke="#63b8ff" points="1021.13,-400.05 1013.11,-406.97 1023.69,-406.57 1021.13,-400.05"/>
</a>
</g>
</g>
<!-- Node18 -->
<g id="Node000018" class="node">
<title>Node18</title>
<g id="a_Node000018"><a xlink:href="edge_8h.html" target="_top" xlink:title=" ">
<polygon fill="white" stroke="#666666" points="1030,-371 944,-371 944,-352 1030,-352 1030,-371"/>
<text text-anchor="middle" x="987" y="-359" font-family="Times,serif" font-size="10.00">ttg/ttg/edge.h</text>
</a>
</g>
</g>
<!-- Node17&#45;&gt;Node18 -->
<g id="edge23_Node000017_Node000018" class="edge">
<title>Node17&#45;&gt;Node18</title>
<g id="a_edge23_Node000017_Node000018"><a xlink:title=" ">
<path fill="none" stroke="#63b8ff" d="M987,-396.66C987,-387.93 987,-377.99 987,-371.09"/>
<polygon fill="#63b8ff" stroke="#63b8ff" points="983.5,-396.75 987,-406.75 990.5,-396.75 983.5,-396.75"/>
</a>
</g>
</g>
<!-- Node19 -->
<g id="Node000019" class="node">
<title>Node19</title>
<g id="a_Node000019"><a xlink:href="func_8h.html" target="_top" xlink:title=" ">
<polygon fill="white" stroke="#666666" points="891.5,-206 808.5,-206 808.5,-187 891.5,-187 891.5,-206"/>
<text text-anchor="middle" x="850" y="-194" font-family="Times,serif" font-size="10.00">ttg/ttg/func.h</text>
</a>
</g>
</g>
<!-- Node17&#45;&gt;Node19 -->
<g id="edge42_Node000017_Node000019" class="edge">
<title>Node17&#45;&gt;Node19</title>
<g id="a_edge42_Node000017_Node000019"><a xlink:title=" ">
<path fill="none" stroke="#63b8ff" d="M966.04,-400.77C955.77,-392.81 943.76,-382.3 935,-371 891.44,-314.79 861.74,-232.69 852.81,-206.13"/>
<polygon fill="#63b8ff" stroke="#63b8ff" points="964.04,-403.65 974.15,-406.82 968.23,-398.04 964.04,-403.65"/>
</a>
</g>
</g>
<!-- Node18&#45;&gt;Node2 -->
<g id="edge24_Node000018_Node000002" class="edge">
<title>Node18&#45;&gt;Node2</title>
<g id="a_edge24_Node000018_Node000002"><a xlink:title=" ">
<path fill="none" stroke="#63b8ff" d="M1000.96,-344.1C1016.67,-323.92 1040,-287.98 1040,-252.5 1040,-252.5 1040,-252.5 1040,-195.5 1040,-104.12 893.52,-89.6 829.43,-87.62"/>
<polygon fill="#63b8ff" stroke="#63b8ff" points="998.17,-341.99 994.59,-351.96 1003.61,-346.39 998.17,-341.99"/>
</a>
</g>
</g>
<!-- Node18&#45;&gt;Node11 -->
<g id="edge30_Node000018_Node000011" class="edge">
<title>Node18&#45;&gt;Node11</title>
<g id="a_edge30_Node000018_Node000011"><a xlink:title=" ">
<path fill="none" stroke="#63b8ff" d="M1010.58,-346.46C1037.54,-328.41 1078,-294.35 1078,-252.5 1078,-252.5 1078,-252.5 1078,-140.5 1078,-101.06 1107.52,-99.38 1140,-77 1171.61,-55.22 1213.15,-39.14 1240.2,-30.04"/>
<polygon fill="#63b8ff" stroke="#63b8ff" points="1008.55,-343.6 1002.03,-351.96 1012.33,-349.49 1008.55,-343.6"/>
</a>
</g>
</g>
<!-- Node18&#45;&gt;Node19 -->
<g id="edge25_Node000018_Node000019" class="edge">
<title>Node18&#45;&gt;Node19</title>
<g id="a_edge25_Node000018_Node000019"><a xlink:title=" ">
<path fill="none" stroke="#63b8ff" d="M973.18,-344.05C944.5,-309.93 879.38,-232.45 857.4,-206.31"/>
<polygon fill="#63b8ff" stroke="#63b8ff" points="970.52,-346.33 979.63,-351.74 975.88,-341.83 970.52,-346.33"/>
</a>
</g>
</g>
<!-- Node18&#45;&gt;Node20 -->
<g id="edge31_Node000018_Node000020" class="edge">
<title>Node18&#45;&gt;Node20</title>
<g id="a_edge31_Node000018_Node000020"><a xlink:title=" ">
<path fill="none" stroke="#63b8ff" d="M933.9,-351.21C871.71,-340.33 770.54,-322.64 718.04,-313.45"/>
<polygon fill="#63b8ff" stroke="#63b8ff" points="933.46,-354.69 943.91,-352.96 934.66,-347.79 933.46,-354.69"/>
</a>
</g>
</g>
<!-- Node19&#45;&gt;Node2 -->
<g id="edge26_Node000019_Node000002" class="edge">
<title>Node19&#45;&gt;Node2</title>
<g id="a_edge26_Node000019_Node000002"><a xlink:title=" ">
<path fill="none" stroke="#63b8ff" d="M860.09,-177.79C866.2,-164.56 871.5,-146.35 864,-132 855.16,-115.09 836.64,-103.31 821.79,-96.13"/>
<polygon fill="#63b8ff" stroke="#63b8ff" points="856.92,-176.3 855.46,-186.79 863.14,-179.5 856.92,-176.3"/>
</a>
</g>
</g>
<!-- Node19&#45;&gt;Node10 -->
<g id="edge28_Node000019_Node000010" class="edge">
<title>Node19&#45;&gt;Node10</title>
<g id="a_edge28_Node000019_Node000010"><a xlink:title=" ">
<path fill="none" stroke="#63b8ff" d="M849.22,-176.71C847.57,-162.28 842.89,-143.03 830,-132 711.32,-30.44 286.46,-70.17 133,-41 118.31,-38.21 102.21,-33.89 89.07,-30.03"/>
<polygon fill="#63b8ff" stroke="#63b8ff" points="845.76,-177.28 850,-186.99 852.74,-176.75 845.76,-177.28"/>
</a>
</g>
</g>
<!-- Node19&#45;&gt;Node11 -->
<g id="edge29_Node000019_Node000011" class="edge">
<title>Node19&#45;&gt;Node11</title>
<g id="a_edge29_Node000019_Node000011"><a xlink:title=" ">
<path fill="none" stroke="#63b8ff" d="M871.54,-181.15C909.14,-156.66 989.82,-106.59 1064,-77 1123.27,-53.35 1141.54,-58.17 1203,-41 1215.25,-37.58 1228.74,-33.57 1240.23,-30.08"/>
<polygon fill="#63b8ff" stroke="#63b8ff" points="869.38,-178.38 862.94,-186.79 873.22,-184.23 869.38,-178.38"/>
</a>
</g>
</g>
<!-- Node19&#45;&gt;Node15 -->
<g id="edge27_Node000019_Node000015" class="edge">
<title>Node19&#45;&gt;Node15</title>
<g id="a_edge27_Node000019_Node000015"><a xlink:title=" ">
<path fill="none" stroke="#63b8ff" d="M827.69,-181.42C812.45,-171.81 792.73,-159.37 779.74,-151.17"/>
<polygon fill="#63b8ff" stroke="#63b8ff" points="826.18,-184.61 836.5,-186.98 829.91,-178.69 826.18,-184.61"/>
</a>
</g>
</g>
<!-- Node20&#45;&gt;Node2 -->
<g id="edge32_Node000020_Node000002" class="edge">
<title>Node20&#45;&gt;Node2</title>
<g id="a_edge32_Node000020_Node000002"><a xlink:title=" ">
<path fill="none" stroke="#63b8ff" d="M645.83,-293.25C628.51,-286.11 608.85,-275.59 595,-261 552.89,-216.63 507.67,-178.85 547,-132 575.32,-98.27 710.52,-90.1 770.84,-88.13"/>
<polygon fill="#63b8ff" stroke="#63b8ff" points="644.58,-296.52 655.16,-296.87 647.11,-289.99 644.58,-296.52"/>
</a>
</g>
</g>
<!-- Node20&#45;&gt;Node10 -->
<g id="edge35_Node000020_Node000010" class="edge">
<title>Node20&#45;&gt;Node10</title>
<g id="a_edge35_Node000020_Node000010"><a xlink:title=" ">
<path fill="none" stroke="#63b8ff" d="M643.48,-293.7C621.56,-286.25 594.62,-275.31 573,-261 476.82,-197.34 493.16,-128.58 390,-77 286.84,-25.42 245.95,-64.32 133,-41 118.6,-38.03 102.81,-33.79 89.79,-30.03"/>
<polygon fill="#63b8ff" stroke="#63b8ff" points="642.57,-297.08 653.17,-296.88 644.76,-290.43 642.57,-297.08"/>
</a>
</g>
</g>
<!-- Node20&#45;&gt;Node11 -->
<g id="edge36_Node000020_Node000011" class="edge">
<title>Node20&#45;&gt;Node11</title>
<g id="a_edge36_Node000020_Node000011"><a xlink:title=" ">
<path fill="none" stroke="#63b8ff" d="M728.19,-297.92C807.08,-283.13 964,-247.43 964,-197.5 964,-197.5 964,-197.5 964,-140.5 964,-25.44 1092.18,-71.96 1203,-41 1215.25,-37.58 1228.74,-33.57 1240.23,-30.08"/>
<polygon fill="#63b8ff" stroke="#63b8ff" points="727.25,-294.53 718.05,-299.79 728.52,-301.42 727.25,-294.53"/>
</a>
</g>
</g>
<!-- Node20&#45;&gt;Node15 -->
<g id="edge33_Node000020_Node000015" class="edge">
<title>Node20&#45;&gt;Node15</title>
<g id="a_edge33_Node000020_Node000015"><a xlink:title=" ">
<path fill="none" stroke="#63b8ff" d="M697.39,-288.77C703.52,-280.67 710.6,-270.63 716,-261 737.96,-221.86 756.26,-171.13 763.11,-151.14"/>
<polygon fill="#63b8ff" stroke="#63b8ff" points="694.61,-286.65 691.24,-296.69 700.14,-290.94 694.61,-286.65"/>
</a>
</g>
</g>
<!-- Node20&#45;&gt;Node19 -->
<g id="edge34_Node000020_Node000019" class="edge">
<title>Node20&#45;&gt;Node19</title>
<g id="a_edge34_Node000020_Node000019"><a xlink:title=" ">
<path fill="none" stroke="#63b8ff" d="M705.83,-291.3C740.73,-268.59 808.04,-224.8 836.63,-206.2"/>
<polygon fill="#63b8ff" stroke="#63b8ff" points="703.78,-288.46 697.3,-296.84 707.59,-294.32 703.78,-288.46"/>
</a>
</g>
</g>
<!-- Node21 -->
<g id="Node000021" class="node">
<title>Node21</title>
<g id="a_Node000021"><a xlink:href="traverse_8h.html" target="_top" xlink:title=" ">
<polygon fill="white" stroke="#666666" points="707.5,-261 604.5,-261 604.5,-242 707.5,-242 707.5,-261"/>
<text text-anchor="middle" x="656" y="-249" font-family="Times,serif" font-size="10.00">ttg/ttg/traverse.h</text>
</a>
</g>
</g>
<!-- Node20&#45;&gt;Node21 -->
<g id="edge37_Node000020_Node000021" class="edge">
<title>Node20&#45;&gt;Node21</title>
<g id="a_edge37_Node000020_Node000021"><a xlink:title=" ">
<path fill="none" stroke="#63b8ff" d="M674.66,-287.82C669.91,-278.82 664.34,-268.29 660.54,-261.09"/>
<polygon fill="#63b8ff" stroke="#63b8ff" points="671.61,-289.54 679.38,-296.75 677.8,-286.27 671.61,-289.54"/>
</a>
</g>
</g>
<!-- Node21&#45;&gt;Node2 -->
<g id="edge38_Node000021_Node000002" class="edge">
<title>Node21&#45;&gt;Node2</title>
<g id="a_edge38_Node000021_Node000002"><a xlink:title=" ">
<path fill="none" stroke="#63b8ff" d="M658.59,-231.67C663.01,-206.1 674.3,-160.33 701,-132 719.74,-112.11 749.01,-100.48 770.87,-94.13"/>
<polygon fill="#63b8ff" stroke="#63b8ff" points="655.08,-231.44 657.01,-241.86 662,-232.52 655.08,-231.44"/>
</a>
</g>
</g>
<!-- Node21&#45;&gt;Node19 -->
<g id="edge39_Node000021_Node000019" class="edge">
<title>Node21&#45;&gt;Node19</title>
<g id="a_edge39_Node000021_Node000019"><a xlink:title=" ">
<path fill="none" stroke="#63b8ff" d="M696.96,-239.31C733.26,-229.39 785.5,-215.12 818.59,-206.08"/>
<polygon fill="#63b8ff" stroke="#63b8ff" points="695.89,-235.97 687.17,-241.98 697.74,-242.73 695.89,-235.97"/>
</a>
</g>
</g>
<!-- Node22 -->
<g id="Node000022" class="node">
<title>Node22</title>
<g id="a_Node000022"><a xlink:href="dot_8h.html" target="_top" xlink:title=" ">
<polygon fill="white" stroke="#666666" points="653.5,-151 556.5,-151 556.5,-132 653.5,-132 653.5,-151"/>
<text text-anchor="middle" x="605" y="-139" font-family="Times,serif" font-size="10.00">ttg/ttg/util/dot.h</text>
</a>
</g>
</g>
<!-- Node21&#45;&gt;Node22 -->
<g id="edge40_Node000021_Node000022" class="edge">
<title>Node21&#45;&gt;Node22</title>
<g id="a_edge40_Node000021_Node000022"><a xlink:title=" ">
<path fill="none" stroke="#63b8ff" d="M647.47,-232.44C636.37,-208.92 617.39,-168.73 609.09,-151.16"/>
<polygon fill="#63b8ff" stroke="#63b8ff" points="644.39,-234.11 651.83,-241.66 650.72,-231.12 644.39,-234.11"/>
</a>
</g>
</g>
<!-- Node22&#45;&gt;Node2 -->
<g id="edge41_Node000022_Node000002" class="edge">
<title>Node22&#45;&gt;Node2</title>
<g id="a_edge41_Node000022_Node000002"><a xlink:title=" ">
<path fill="none" stroke="#63b8ff" d="M646.41,-129.24C683.84,-119.07 737.98,-104.36 770.98,-95.39"/>
<polygon fill="#63b8ff" stroke="#63b8ff" points="645.06,-125.98 636.33,-131.98 646.9,-132.74 645.06,-125.98"/>
</a>
</g>
</g>
</g>
</svg>

<g id="navigator" transform="translate(0 0)" fill="#404254">
  <rect fill="#f2f5e9" fill-opacity="0.5" stroke="#606060" stroke-width=".5" x="0" y="0" width="60" height="60"/>
  <use id="zoomplus" xlink:href="#zoomPlus" x="17" y="9" onmousedown="handleZoom(evt,'in')"/>
  <use id="zoomminus" xlink:href="#zoomMin" x="42" y="9" onmousedown="handleZoom(evt,'out')"/>
  <use id="reset" xlink:href="#resetDef" x="30" y="36" onmousedown="handleReset()"/>
   <use id="arrowup" xlink:href="#arrowUp" x="0" y="0" onmousedown="handlePan(0,-1)"/>
  <use id="arrowright" xlink:href="#arrowRight" x="0" y="0" onmousedown="handlePan(1,0)"/>
  <use id="arrowdown" xlink:href="#arrowDown" x="0" y="0" onmousedown="handlePan(0,1)"/>
  <use id="arrowleft" xlink:href="#arrowLeft" x="0" y="0" onmousedown="handlePan(-1,0)"/>
</g>
<svg viewBox="0 0 15 15" width="100%" height="30px" preserveAspectRatio="xMaxYMin meet">
 <g id="arrow_out" transform="scale(0.3 0.3)">
  <a xlink:href="demangle_8h__dep__incl_org.svg" target="_base">
   <rect id="button" ry="5" rx="5" y="6" x="6" height="38" width="38"
        fill="#f2f5e9" fill-opacity="0.5" stroke="#606060" stroke-width="1.0"/>
   <path id="arrow"
     d="M 11.500037,31.436501 C 11.940474,20.09759 22.043105,11.32322 32.158766,21.979434 L 37.068811,17.246167 C 37.068811,17.246167 37.088388,32 37.088388,32 L 22.160133,31.978069 C 22.160133,31.978069 26.997745,27.140456 26.997745,27.140456 C 18.528582,18.264221 13.291696,25.230495 11.500037,31.436501 z"
     style="fill:#404040;"/>
  </a>
 </g>
</svg>

<style type='text/css'>
<![CDATA[
[data-mouse-over-selected='false'] { opacity: 0.7; }
[data-mouse-over-selected='true']  { opacity: 1.0; }
]]>
</style>
<script type="application/ecmascript"><![CDATA[
document.addEventListener('DOMContentLoaded', (event) => {
  highlightEdges();
  highlightAdjacentNodes();
});
]]></script>
</svg>
