<?xml version="1.0" encoding="UTF-8" standalone="no"?>
<!DOCTYPE svg PUBLIC "-//W3C//DTD SVG 1.1//EN"
 "http://www.w3.org/Graphics/SVG/1.1/DTD/svg11.dtd">
<!-- Generated by graphviz version 2.43.0 (0)
 -->
<!-- Title: ttg/ttg/device/device.h Pages: 1 -->
<svg width="1476pt" height="269pt"
 viewBox="0.00 0.00 1475.50 269.00" xmlns="http://www.w3.org/2000/svg" xmlns:xlink="http://www.w3.org/1999/xlink">
<g id="graph0" class="graph" transform="scale(1 1) rotate(0) translate(4 265)">
<title>ttg/ttg/device/device.h</title>
<!-- Node1 -->
<g id="Node000001" class="node">
<title>Node1</title>
<g id="a_Node000001"><a xlink:title=" ">
<polygon fill="#999999" stroke="#666666" points="1335,-261 1205,-261 1205,-242 1335,-242 1335,-261"/>
<text text-anchor="middle" x="1270" y="-249" font-family="Times,serif" font-size="10.00">ttg/ttg/device/device.h</text>
</a>
</g>
</g>
<!-- Node2 -->
<g id="Node000002" class="node">
<title>Node2</title>
<g id="a_Node000002"><a xlink:href="ttg_8h.html" target="_top" xlink:title=" ">
<polygon fill="white" stroke="#666666" points="786,-151 728,-151 728,-132 786,-132 786,-151"/>
<text text-anchor="middle" x="757" y="-139" font-family="Times,serif" font-size="10.00">ttg/ttg.h</text>
</a>
</g>
</g>
<!-- Node1&#45;&gt;Node2 -->
<g id="edge1_Node000001_Node000002" class="edge">
<title>Node1&#45;&gt;Node2</title>
<g id="a_edge1_Node000001_Node000002"><a xlink:title=" ">
<path fill="none" stroke="#63b8ff" d="M1219.48,-239.86C1113.33,-217.52 869.98,-166.29 786.07,-148.62"/>
<polygon fill="#63b8ff" stroke="#63b8ff" points="1218.81,-243.3 1229.32,-241.94 1220.25,-236.45 1218.81,-243.3"/>
</a>
</g>
</g>
<!-- Node11 -->
<g id="Node000011" class="node">
<title>Node11</title>
<g id="a_Node000011"><a xlink:href="ttg_2parsec_2ttg_8h.html" target="_top" xlink:title=" ">
<polygon fill="white" stroke="#666666" points="1345,-19 1233,-19 1233,0 1345,0 1345,-19"/>
<text text-anchor="middle" x="1289" y="-7" font-family="Times,serif" font-size="10.00">ttg/ttg/parsec/ttg.h</text>
</a>
</g>
</g>
<!-- Node1&#45;&gt;Node11 -->
<g id="edge21_Node000001_Node000011" class="edge">
<title>Node1&#45;&gt;Node11</title>
<g id="a_edge21_Node000001_Node000011"><a xlink:title=" ">
<path fill="none" stroke="#63b8ff" d="M1271.47,-231.93C1275.32,-183.36 1285.56,-53.94 1288.31,-19.19"/>
<polygon fill="#63b8ff" stroke="#63b8ff" points="1267.98,-231.71 1270.68,-241.96 1274.95,-232.27 1267.98,-231.71"/>
</a>
</g>
</g>
<!-- Node12 -->
<g id="Node000012" class="node">
<title>Node12</title>
<g id="a_Node000012"><a xlink:href="madness_2buffer_8h.html" target="_top" xlink:title=" ">
<polygon fill="white" stroke="#666666" points="1229,-206 1089,-206 1089,-187 1229,-187 1229,-206"/>
<text text-anchor="middle" x="1159" y="-194" font-family="Times,serif" font-size="10.00">ttg/ttg/madness/buffer.h</text>
</a>
</g>
</g>
<!-- Node1&#45;&gt;Node12 -->
<g id="edge11_Node000001_Node000012" class="edge">
<title>Node1&#45;&gt;Node12</title>
<g id="a_edge11_Node000001_Node000012"><a xlink:title=" ">
<path fill="none" stroke="#63b8ff" d="M1243.05,-237.63C1222.61,-227.87 1195.05,-214.71 1177.16,-206.17"/>
<polygon fill="#63b8ff" stroke="#63b8ff" points="1241.63,-240.83 1252.17,-241.98 1244.65,-234.52 1241.63,-240.83"/>
</a>
</g>
</g>
<!-- Node14 -->
<g id="Node000014" class="node">
<title>Node14</title>
<g id="a_Node000014"><a xlink:href="parsec_2buffer_8h.html" target="_top" xlink:title=" ">
<polygon fill="white" stroke="#666666" points="1444,-151 1316,-151 1316,-132 1444,-132 1444,-151"/>
<text text-anchor="middle" x="1380" y="-139" font-family="Times,serif" font-size="10.00">ttg/ttg/parsec/buffer.h</text>
</a>
</g>
</g>
<!-- Node1&#45;&gt;Node14 -->
<g id="edge15_Node000001_Node000014" class="edge">
<title>Node1&#45;&gt;Node14</title>
<g id="a_edge15_Node000001_Node000014"><a xlink:title=" ">
<path fill="none" stroke="#63b8ff" d="M1283.86,-234.25C1295.3,-221.11 1312.16,-202.34 1328,-187 1341.66,-173.78 1358.56,-159.7 1369.31,-151"/>
<polygon fill="#63b8ff" stroke="#63b8ff" points="1281.08,-232.12 1277.2,-241.98 1286.38,-236.69 1281.08,-232.12"/>
</a>
</g>
</g>
<!-- Node16 -->
<g id="Node000016" class="node">
<title>Node16</title>
<g id="a_Node000016"><a xlink:href="parsec_2device_8h.html" target="_top" xlink:title=" ">
<polygon fill="white" stroke="#666666" points="1467.5,-206 1336.5,-206 1336.5,-187 1467.5,-187 1467.5,-206"/>
<text text-anchor="middle" x="1402" y="-194" font-family="Times,serif" font-size="10.00">ttg/ttg/parsec/device.h</text>
</a>
</g>
</g>
<!-- Node1&#45;&gt;Node16 -->
<g id="edge19_Node000001_Node000016" class="edge">
<title>Node1&#45;&gt;Node16</title>
<g id="a_edge19_Node000001_Node000016"><a xlink:title=" ">
<path fill="none" stroke="#63b8ff" d="M1300.73,-238.16C1325.17,-228.35 1358.74,-214.87 1380.41,-206.17"/>
<polygon fill="#63b8ff" stroke="#63b8ff" points="1299.18,-235.01 1291.21,-241.98 1301.79,-241.51 1299.18,-235.01"/>
</a>
</g>
</g>
<!-- Node3 -->
<g id="Node000003" class="node">
<title>Node3</title>
<g id="a_Node000003"><a xlink:href="fibonacci_8cc.html" target="_top" xlink:title=" ">
<polygon fill="white" stroke="#666666" points="128,-90.5 0,-90.5 0,-60.5 128,-60.5 128,-90.5"/>
<text text-anchor="start" x="8" y="-78.5" font-family="Times,serif" font-size="10.00">doc/dox/dev/devsamp</text>
<text text-anchor="middle" x="64" y="-67.5" font-family="Times,serif" font-size="10.00">/fibonacci/fibonacci.cc</text>
</a>
</g>
</g>
<!-- Node2&#45;&gt;Node3 -->
<g id="edge2_Node000002_Node000003" class="edge">
<title>Node2&#45;&gt;Node3</title>
<g id="a_edge2_Node000002_Node000003"><a xlink:title=" ">
<path fill="none" stroke="#63b8ff" d="M717.62,-140.25C619.07,-139.07 354.18,-132.46 137,-96 128.59,-94.59 119.75,-92.64 111.23,-90.51"/>
<polygon fill="#63b8ff" stroke="#63b8ff" points="717.68,-143.75 727.72,-140.36 717.75,-136.75 717.68,-143.75"/>
</a>
</g>
</g>
<!-- Node4 -->
<g id="Node000004" class="node">
<title>Node4</title>
<g id="a_Node000004"><a xlink:href="fibonacci__device_8cc.html" target="_top" xlink:title=" ">
<polygon fill="white" stroke="#666666" points="274,-96 146,-96 146,-55 274,-55 274,-96"/>
<text text-anchor="start" x="154" y="-84" font-family="Times,serif" font-size="10.00">doc/dox/dev/devsamp</text>
<text text-anchor="start" x="154" y="-73" font-family="Times,serif" font-size="10.00">/fibonacci/fibonacci</text>
<text text-anchor="middle" x="210" y="-62" font-family="Times,serif" font-size="10.00">_device.cc</text>
</a>
</g>
</g>
<!-- Node2&#45;&gt;Node4 -->
<g id="edge3_Node000002_Node000004" class="edge">
<title>Node2&#45;&gt;Node4</title>
<g id="a_edge3_Node000002_Node000004"><a xlink:title=" ">
<path fill="none" stroke="#63b8ff" d="M717.61,-139.03C635.97,-135.5 442.62,-124.6 283,-96 280.16,-95.49 277.27,-94.93 274.35,-94.32"/>
<polygon fill="#63b8ff" stroke="#63b8ff" points="717.78,-142.54 727.92,-139.46 718.07,-135.55 717.78,-142.54"/>
</a>
</g>
</g>
<!-- Node5 -->
<g id="Node000005" class="node">
<title>Node5</title>
<g id="a_Node000005"><a xlink:href="helloworld_8cpp.html" target="_top" xlink:title=" ">
<polygon fill="white" stroke="#666666" points="443.5,-90.5 292.5,-90.5 292.5,-60.5 443.5,-60.5 443.5,-90.5"/>
<text text-anchor="start" x="300.5" y="-78.5" font-family="Times,serif" font-size="10.00">doc/dox/dev/devsamp</text>
<text text-anchor="middle" x="368" y="-67.5" font-family="Times,serif" font-size="10.00">/helloworld/helloworld.cpp</text>
</a>
</g>
</g>
<!-- Node2&#45;&gt;Node5 -->
<g id="edge4_Node000002_Node000005" class="edge">
<title>Node2&#45;&gt;Node5</title>
<g id="a_edge4_Node000002_Node000005"><a xlink:title=" ">
<path fill="none" stroke="#63b8ff" d="M717.75,-135.78C659.67,-128.56 547.51,-113.73 453,-96 444.37,-94.38 435.29,-92.49 426.4,-90.55"/>
<polygon fill="#63b8ff" stroke="#63b8ff" points="717.6,-139.28 727.95,-137.04 718.45,-132.34 717.6,-139.28"/>
</a>
</g>
</g>
<!-- Node6 -->
<g id="Node000006" class="node">
<title>Node6</title>
<g id="a_Node000006"><a xlink:href="distributed_8cc.html" target="_top" xlink:title=" ">
<polygon fill="white" stroke="#666666" points="596,-90.5 462,-90.5 462,-60.5 596,-60.5 596,-90.5"/>
<text text-anchor="start" x="470" y="-78.5" font-family="Times,serif" font-size="10.00">doc/dox/user/examples</text>
<text text-anchor="middle" x="529" y="-67.5" font-family="Times,serif" font-size="10.00">/distributed.cc</text>
</a>
</g>
</g>
<!-- Node2&#45;&gt;Node6 -->
<g id="edge5_Node000002_Node000006" class="edge">
<title>Node2&#45;&gt;Node6</title>
<g id="a_edge5_Node000002_Node000006"><a xlink:title=" ">
<path fill="none" stroke="#63b8ff" d="M717.89,-129.52C679.51,-118.75 620.84,-102.28 579.08,-90.56"/>
<polygon fill="#63b8ff" stroke="#63b8ff" points="717.09,-132.93 727.66,-132.26 718.98,-126.19 717.09,-132.93"/>
</a>
</g>
</g>
<!-- Node7 -->
<g id="Node000007" class="node">
<title>Node7</title>
<g id="a_Node000007"><a xlink:href="iterative_8cc.html" target="_top" xlink:title=" ">
<polygon fill="white" stroke="#666666" points="748,-90.5 614,-90.5 614,-60.5 748,-60.5 748,-90.5"/>
<text text-anchor="start" x="622" y="-78.5" font-family="Times,serif" font-size="10.00">doc/dox/user/examples</text>
<text text-anchor="middle" x="681" y="-67.5" font-family="Times,serif" font-size="10.00">/iterative.cc</text>
</a>
</g>
</g>
<!-- Node2&#45;&gt;Node7 -->
<g id="edge6_Node000002_Node000007" class="edge">
<title>Node2&#45;&gt;Node7</title>
<g id="a_edge6_Node000002_Node000007"><a xlink:title=" ">
<path fill="none" stroke="#63b8ff" d="M738.85,-125.21C726.37,-114.71 709.93,-100.86 697.76,-90.62"/>
<polygon fill="#63b8ff" stroke="#63b8ff" points="736.85,-128.1 746.75,-131.87 741.36,-122.75 736.85,-128.1"/>
</a>
</g>
</g>
<!-- Node8 -->
<g id="Node000008" class="node">
<title>Node8</title>
<g id="a_Node000008"><a xlink:href="reducing_8cc.html" target="_top" xlink:title=" ">
<polygon fill="white" stroke="#666666" points="900,-90.5 766,-90.5 766,-60.5 900,-60.5 900,-90.5"/>
<text text-anchor="start" x="774" y="-78.5" font-family="Times,serif" font-size="10.00">doc/dox/user/examples</text>
<text text-anchor="middle" x="833" y="-67.5" font-family="Times,serif" font-size="10.00">/reducing.cc</text>
</a>
</g>
</g>
<!-- Node2&#45;&gt;Node8 -->
<g id="edge7_Node000002_Node000008" class="edge">
<title>Node2&#45;&gt;Node8</title>
<g id="a_edge7_Node000002_Node000008"><a xlink:title=" ">
<path fill="none" stroke="#63b8ff" d="M775.15,-125.21C787.63,-114.71 804.07,-100.86 816.24,-90.62"/>
<polygon fill="#63b8ff" stroke="#63b8ff" points="772.64,-122.75 767.25,-131.87 777.15,-128.1 772.64,-122.75"/>
</a>
</g>
</g>
<!-- Node9 -->
<g id="Node000009" class="node">
<title>Node9</title>
<g id="a_Node000009"><a xlink:href="simple_8cc.html" target="_top" xlink:title=" ">
<polygon fill="white" stroke="#666666" points="1052,-90.5 918,-90.5 918,-60.5 1052,-60.5 1052,-90.5"/>
<text text-anchor="start" x="926" y="-78.5" font-family="Times,serif" font-size="10.00">doc/dox/user/examples</text>
<text text-anchor="middle" x="985" y="-67.5" font-family="Times,serif" font-size="10.00">/simple.cc</text>
</a>
</g>
</g>
<!-- Node2&#45;&gt;Node9 -->
<g id="edge8_Node000002_Node000009" class="edge">
<title>Node2&#45;&gt;Node9</title>
<g id="a_edge8_Node000002_Node000009"><a xlink:title=" ">
<path fill="none" stroke="#63b8ff" d="M796.11,-129.52C834.49,-118.75 893.16,-102.28 934.92,-90.56"/>
<polygon fill="#63b8ff" stroke="#63b8ff" points="795.02,-126.19 786.34,-132.26 796.91,-132.93 795.02,-126.19"/>
</a>
</g>
</g>
<!-- Node10 -->
<g id="Node000010" class="node">
<title>Node10</title>
<g id="a_Node000010"><a xlink:href="ttg_2madness_2ttg_8h.html" target="_top" xlink:title=" ">
<polygon fill="white" stroke="#666666" points="1232,-85 1108,-85 1108,-66 1232,-66 1232,-85"/>
<text text-anchor="middle" x="1170" y="-73" font-family="Times,serif" font-size="10.00">ttg/ttg/madness/ttg.h</text>
</a>
</g>
</g>
<!-- Node2&#45;&gt;Node10 -->
<g id="edge9_Node000002_Node000010" class="edge">
<title>Node2&#45;&gt;Node10</title>
<g id="a_edge9_Node000002_Node000010"><a xlink:title=" ">
<path fill="none" stroke="#63b8ff" d="M796.33,-136.85C859.47,-130.65 987.2,-116.68 1094,-96 1109.38,-93.02 1126.28,-88.79 1140.23,-85.02"/>
<polygon fill="#63b8ff" stroke="#63b8ff" points="795.65,-133.4 786.04,-137.85 796.33,-140.37 795.65,-133.4"/>
</a>
</g>
</g>
<!-- Node2&#45;&gt;Node11 -->
<g id="edge10_Node000002_Node000011" class="edge">
<title>Node2&#45;&gt;Node11</title>
<g id="a_edge10_Node000002_Node000011"><a xlink:title=" ">
<path fill="none" stroke="#63b8ff" d="M796.38,-137.99C867.86,-132.91 1015.76,-119.8 1061,-96 1082.99,-84.43 1077.52,-67.49 1099,-55 1140.15,-31.07 1193.36,-20 1233,-14.89"/>
<polygon fill="#63b8ff" stroke="#63b8ff" points="795.74,-134.53 786,-138.71 796.22,-141.51 795.74,-134.53"/>
</a>
</g>
</g>
<!-- Node12&#45;&gt;Node10 -->
<g id="edge14_Node000012_Node000010" class="edge">
<title>Node12&#45;&gt;Node10</title>
<g id="a_edge14_Node000012_Node000010"><a xlink:title=" ">
<path fill="none" stroke="#63b8ff" d="M1114.42,-183.82C1084.32,-173.5 1052.5,-156.28 1067,-132 1081.74,-107.32 1111.65,-92.97 1135.46,-85.07"/>
<polygon fill="#63b8ff" stroke="#63b8ff" points="1113.49,-187.2 1124.08,-186.93 1115.63,-180.53 1113.49,-187.2"/>
</a>
</g>
</g>
<!-- Node13 -->
<g id="Node000013" class="node">
<title>Node13</title>
<g id="a_Node000013"><a xlink:href="madness_2devicefunc_8h.html" target="_top" xlink:title=" ">
<polygon fill="white" stroke="#666666" points="1241.5,-151 1076.5,-151 1076.5,-132 1241.5,-132 1241.5,-151"/>
<text text-anchor="middle" x="1159" y="-139" font-family="Times,serif" font-size="10.00">ttg/ttg/madness/devicefunc.h</text>
</a>
</g>
</g>
<!-- Node12&#45;&gt;Node13 -->
<g id="edge12_Node000012_Node000013" class="edge">
<title>Node12&#45;&gt;Node13</title>
<g id="a_edge12_Node000012_Node000013"><a xlink:title=" ">
<path fill="none" stroke="#63b8ff" d="M1159,-176.66C1159,-167.93 1159,-157.99 1159,-151.09"/>
<polygon fill="#63b8ff" stroke="#63b8ff" points="1155.5,-176.75 1159,-186.75 1162.5,-176.75 1155.5,-176.75"/>
</a>
</g>
</g>
<!-- Node13&#45;&gt;Node10 -->
<g id="edge13_Node000013_Node000010" class="edge">
<title>Node13&#45;&gt;Node10</title>
<g id="a_edge13_Node000013_Node000010"><a xlink:title=" ">
<path fill="none" stroke="#63b8ff" d="M1162.19,-121.95C1164.25,-109.93 1166.85,-94.82 1168.47,-85.41"/>
<polygon fill="#63b8ff" stroke="#63b8ff" points="1158.73,-121.42 1160.48,-131.87 1165.63,-122.61 1158.73,-121.42"/>
</a>
</g>
</g>
<!-- Node14&#45;&gt;Node11 -->
<g id="edge18_Node000014_Node000011" class="edge">
<title>Node14&#45;&gt;Node11</title>
<g id="a_edge18_Node000014_Node000011"><a xlink:title=" ">
<path fill="none" stroke="#63b8ff" d="M1358.44,-125.98C1347.92,-118.07 1335.69,-107.55 1327,-96 1308.24,-71.08 1296.25,-35.45 1291.42,-19.19"/>
<polygon fill="#63b8ff" stroke="#63b8ff" points="1356.6,-128.97 1366.76,-131.98 1360.7,-123.29 1356.6,-128.97"/>
</a>
</g>
</g>
<!-- Node15 -->
<g id="Node000015" class="node">
<title>Node15</title>
<g id="a_Node000015"><a xlink:href="parsec__data_8h.html" target="_top" xlink:title=" ">
<polygon fill="white" stroke="#666666" points="1458,-90.5 1336,-90.5 1336,-60.5 1458,-60.5 1458,-90.5"/>
<text text-anchor="start" x="1344" y="-78.5" font-family="Times,serif" font-size="10.00">ttg/ttg/parsec/parsec</text>
<text text-anchor="middle" x="1397" y="-67.5" font-family="Times,serif" font-size="10.00">_data.h</text>
</a>
</g>
</g>
<!-- Node14&#45;&gt;Node15 -->
<g id="edge16_Node000014_Node000015" class="edge">
<title>Node14&#45;&gt;Node15</title>
<g id="a_edge16_Node000014_Node000015"><a xlink:title=" ">
<path fill="none" stroke="#63b8ff" d="M1384.87,-122.17C1387.51,-112.22 1390.73,-100.11 1393.19,-90.86"/>
<polygon fill="#63b8ff" stroke="#63b8ff" points="1381.48,-121.31 1382.29,-131.87 1388.24,-123.1 1381.48,-121.31"/>
</a>
</g>
</g>
<!-- Node15&#45;&gt;Node11 -->
<g id="edge17_Node000015_Node000011" class="edge">
<title>Node15&#45;&gt;Node11</title>
<g id="a_edge17_Node000015_Node000011"><a xlink:title=" ">
<path fill="none" stroke="#63b8ff" d="M1364.62,-55.31C1344.23,-43.23 1318.93,-28.23 1303.37,-19.02"/>
<polygon fill="#63b8ff" stroke="#63b8ff" points="1362.91,-58.37 1373.3,-60.45 1366.48,-52.35 1362.91,-58.37"/>
</a>
</g>
</g>
<!-- Node16&#45;&gt;Node14 -->
<g id="edge20_Node000016_Node000014" class="edge">
<title>Node16&#45;&gt;Node14</title>
<g id="a_edge20_Node000016_Node000014"><a xlink:title=" ">
<path fill="none" stroke="#63b8ff" d="M1394.42,-177.24C1390.74,-168.37 1386.49,-158.14 1383.57,-151.09"/>
<polygon fill="#63b8ff" stroke="#63b8ff" points="1391.3,-178.85 1398.37,-186.75 1397.77,-176.17 1391.3,-178.85"/>
</a>
</g>
</g>
</g>
</svg>
