<?xml version="1.0" encoding="UTF-8" standalone="no"?>
<!DOCTYPE svg PUBLIC "-//W3C//DTD SVG 1.1//EN"
 "http://www.w3.org/Graphics/SVG/1.1/DTD/svg11.dtd">
<!-- Generated by graphviz version 2.43.0 (0)
 -->
<!-- Title: ttg/ttg/device/task.h Pages: 1 -->
<svg width="1332pt" height="159pt"
 viewBox="0.00 0.00 1332.00 159.00" xmlns="http://www.w3.org/2000/svg" xmlns:xlink="http://www.w3.org/1999/xlink">
<g id="graph0" class="graph" transform="scale(1 1) rotate(0) translate(4 155)">
<title>ttg/ttg/device/task.h</title>
<!-- Node1 -->
<g id="Node000001" class="node">
<title>Node1</title>
<g id="a_Node000001"><a xlink:title=" ">
<polygon fill="#999999" stroke="#666666" points="1191,-151 1073,-151 1073,-132 1191,-132 1191,-151"/>
<text text-anchor="middle" x="1132" y="-139" font-family="Times,serif" font-size="10.00">ttg/ttg/device/task.h</text>
</a>
</g>
</g>
<!-- Node2 -->
<g id="Node000002" class="node">
<title>Node2</title>
<g id="a_Node000002"><a xlink:href="ttg_8h.html" target="_top" xlink:title=" ">
<polygon fill="white" stroke="#666666" points="786,-96 728,-96 728,-77 786,-77 786,-96"/>
<text text-anchor="middle" x="757" y="-84" font-family="Times,serif" font-size="10.00">ttg/ttg.h</text>
</a>
</g>
</g>
<!-- Node1&#45;&gt;Node2 -->
<g id="edge1_Node000001_Node000002" class="edge">
<title>Node1&#45;&gt;Node2</title>
<g id="a_edge1_Node000001_Node000002"><a xlink:title=" ">
<path fill="none" stroke="#63b8ff" d="M1062.92,-130.74C980.13,-119.04 845.22,-99.97 786.2,-91.63"/>
<polygon fill="#63b8ff" stroke="#63b8ff" points="1062.6,-134.23 1072.99,-132.16 1063.58,-127.3 1062.6,-134.23"/>
</a>
</g>
</g>
<!-- Node10 -->
<g id="Node000010" class="node">
<title>Node10</title>
<g id="a_Node000010"><a xlink:href="ttg_2madness_2ttg_8h.html" target="_top" xlink:title=" ">
<polygon fill="white" stroke="#666666" points="1194,-30 1070,-30 1070,-11 1194,-11 1194,-30"/>
<text text-anchor="middle" x="1132" y="-18" font-family="Times,serif" font-size="10.00">ttg/ttg/madness/ttg.h</text>
</a>
</g>
</g>
<!-- Node1&#45;&gt;Node10 -->
<g id="edge11_Node000001_Node000010" class="edge">
<title>Node1&#45;&gt;Node10</title>
<g id="a_edge11_Node000001_Node000010"><a xlink:title=" ">
<path fill="none" stroke="#63b8ff" d="M1132,-121.86C1132,-95.81 1132,-49.56 1132,-30.3"/>
<polygon fill="#63b8ff" stroke="#63b8ff" points="1128.5,-121.94 1132,-131.94 1135.5,-121.94 1128.5,-121.94"/>
</a>
</g>
</g>
<!-- Node11 -->
<g id="Node000011" class="node">
<title>Node11</title>
<g id="a_Node000011"><a xlink:href="ttg_2parsec_2ttg_8h.html" target="_top" xlink:title=" ">
<polygon fill="white" stroke="#666666" points="1324,-30 1212,-30 1212,-11 1324,-11 1324,-30"/>
<text text-anchor="middle" x="1268" y="-18" font-family="Times,serif" font-size="10.00">ttg/ttg/parsec/ttg.h</text>
</a>
</g>
</g>
<!-- Node1&#45;&gt;Node11 -->
<g id="edge12_Node000001_Node000011" class="edge">
<title>Node1&#45;&gt;Node11</title>
<g id="a_edge12_Node000001_Node000011"><a xlink:title=" ">
<path fill="none" stroke="#63b8ff" d="M1149.44,-125.24C1178.27,-100.02 1234.94,-50.43 1257.94,-30.3"/>
<polygon fill="#63b8ff" stroke="#63b8ff" points="1147,-122.72 1141.78,-131.94 1151.61,-127.99 1147,-122.72"/>
</a>
</g>
</g>
<!-- Node3 -->
<g id="Node000003" class="node">
<title>Node3</title>
<g id="a_Node000003"><a xlink:href="fibonacci_8cc.html" target="_top" xlink:title=" ">
<polygon fill="white" stroke="#666666" points="280,-35.5 152,-35.5 152,-5.5 280,-5.5 280,-35.5"/>
<text text-anchor="start" x="160" y="-23.5" font-family="Times,serif" font-size="10.00">doc/dox/dev/devsamp</text>
<text text-anchor="middle" x="216" y="-12.5" font-family="Times,serif" font-size="10.00">/fibonacci/fibonacci.cc</text>
</a>
</g>
</g>
<!-- Node2&#45;&gt;Node3 -->
<g id="edge2_Node000002_Node000003" class="edge">
<title>Node2&#45;&gt;Node3</title>
<g id="a_edge2_Node000002_Node000003"><a xlink:title=" ">
<path fill="none" stroke="#63b8ff" d="M717.52,-83.96C636.58,-80.32 446.21,-69.27 289,-41 280.87,-39.54 272.31,-37.61 264.04,-35.54"/>
<polygon fill="#63b8ff" stroke="#63b8ff" points="717.6,-87.47 727.74,-84.41 717.91,-80.48 717.6,-87.47"/>
</a>
</g>
</g>
<!-- Node4 -->
<g id="Node000004" class="node">
<title>Node4</title>
<g id="a_Node000004"><a xlink:href="fibonacci__device_8cc.html" target="_top" xlink:title=" ">
<polygon fill="white" stroke="#666666" points="426,-41 298,-41 298,0 426,0 426,-41"/>
<text text-anchor="start" x="306" y="-29" font-family="Times,serif" font-size="10.00">doc/dox/dev/devsamp</text>
<text text-anchor="start" x="306" y="-18" font-family="Times,serif" font-size="10.00">/fibonacci/fibonacci</text>
<text text-anchor="middle" x="362" y="-7" font-family="Times,serif" font-size="10.00">_device.cc</text>
</a>
</g>
</g>
<!-- Node2&#45;&gt;Node4 -->
<g id="edge3_Node000002_Node000004" class="edge">
<title>Node2&#45;&gt;Node4</title>
<g id="a_edge3_Node000002_Node000004"><a xlink:title=" ">
<path fill="none" stroke="#63b8ff" d="M717.62,-81.65C656.67,-75.32 535.98,-61.38 435,-41 432.17,-40.43 429.29,-39.81 426.38,-39.16"/>
<polygon fill="#63b8ff" stroke="#63b8ff" points="717.63,-85.16 727.93,-82.7 718.34,-78.2 717.63,-85.16"/>
</a>
</g>
</g>
<!-- Node5 -->
<g id="Node000005" class="node">
<title>Node5</title>
<g id="a_Node000005"><a xlink:href="helloworld_8cpp.html" target="_top" xlink:title=" ">
<polygon fill="white" stroke="#666666" points="595.5,-35.5 444.5,-35.5 444.5,-5.5 595.5,-5.5 595.5,-35.5"/>
<text text-anchor="start" x="452.5" y="-23.5" font-family="Times,serif" font-size="10.00">doc/dox/dev/devsamp</text>
<text text-anchor="middle" x="520" y="-12.5" font-family="Times,serif" font-size="10.00">/helloworld/helloworld.cpp</text>
</a>
</g>
</g>
<!-- Node2&#45;&gt;Node5 -->
<g id="edge4_Node000002_Node000005" class="edge">
<title>Node2&#45;&gt;Node5</title>
<g id="a_edge4_Node000002_Node000005"><a xlink:title=" ">
<path fill="none" stroke="#63b8ff" d="M718.09,-74.99C678.32,-64.25 616.32,-47.51 572.29,-35.62"/>
<polygon fill="#63b8ff" stroke="#63b8ff" points="717.37,-78.42 727.94,-77.65 719.2,-71.67 717.37,-78.42"/>
</a>
</g>
</g>
<!-- Node6 -->
<g id="Node000006" class="node">
<title>Node6</title>
<g id="a_Node000006"><a xlink:href="distributed_8cc.html" target="_top" xlink:title=" ">
<polygon fill="white" stroke="#666666" points="748,-35.5 614,-35.5 614,-5.5 748,-5.5 748,-35.5"/>
<text text-anchor="start" x="622" y="-23.5" font-family="Times,serif" font-size="10.00">doc/dox/user/examples</text>
<text text-anchor="middle" x="681" y="-12.5" font-family="Times,serif" font-size="10.00">/distributed.cc</text>
</a>
</g>
</g>
<!-- Node2&#45;&gt;Node6 -->
<g id="edge5_Node000002_Node000006" class="edge">
<title>Node2&#45;&gt;Node6</title>
<g id="a_edge5_Node000002_Node000006"><a xlink:title=" ">
<path fill="none" stroke="#63b8ff" d="M738.85,-70.21C726.37,-59.71 709.93,-45.86 697.76,-35.62"/>
<polygon fill="#63b8ff" stroke="#63b8ff" points="736.85,-73.1 746.75,-76.87 741.36,-67.75 736.85,-73.1"/>
</a>
</g>
</g>
<!-- Node7 -->
<g id="Node000007" class="node">
<title>Node7</title>
<g id="a_Node000007"><a xlink:href="iterative_8cc.html" target="_top" xlink:title=" ">
<polygon fill="white" stroke="#666666" points="900,-35.5 766,-35.5 766,-5.5 900,-5.5 900,-35.5"/>
<text text-anchor="start" x="774" y="-23.5" font-family="Times,serif" font-size="10.00">doc/dox/user/examples</text>
<text text-anchor="middle" x="833" y="-12.5" font-family="Times,serif" font-size="10.00">/iterative.cc</text>
</a>
</g>
</g>
<!-- Node2&#45;&gt;Node7 -->
<g id="edge6_Node000002_Node000007" class="edge">
<title>Node2&#45;&gt;Node7</title>
<g id="a_edge6_Node000002_Node000007"><a xlink:title=" ">
<path fill="none" stroke="#63b8ff" d="M775.15,-70.21C787.63,-59.71 804.07,-45.86 816.24,-35.62"/>
<polygon fill="#63b8ff" stroke="#63b8ff" points="772.64,-67.75 767.25,-76.87 777.15,-73.1 772.64,-67.75"/>
</a>
</g>
</g>
<!-- Node8 -->
<g id="Node000008" class="node">
<title>Node8</title>
<g id="a_Node000008"><a xlink:href="reducing_8cc.html" target="_top" xlink:title=" ">
<polygon fill="white" stroke="#666666" points="1052,-35.5 918,-35.5 918,-5.5 1052,-5.5 1052,-35.5"/>
<text text-anchor="start" x="926" y="-23.5" font-family="Times,serif" font-size="10.00">doc/dox/user/examples</text>
<text text-anchor="middle" x="985" y="-12.5" font-family="Times,serif" font-size="10.00">/reducing.cc</text>
</a>
</g>
</g>
<!-- Node2&#45;&gt;Node8 -->
<g id="edge7_Node000002_Node000008" class="edge">
<title>Node2&#45;&gt;Node8</title>
<g id="a_edge7_Node000002_Node000008"><a xlink:title=" ">
<path fill="none" stroke="#63b8ff" d="M796.11,-74.52C834.49,-63.75 893.16,-47.28 934.92,-35.56"/>
<polygon fill="#63b8ff" stroke="#63b8ff" points="795.02,-71.19 786.34,-77.26 796.91,-77.93 795.02,-71.19"/>
</a>
</g>
</g>
<!-- Node9 -->
<g id="Node000009" class="node">
<title>Node9</title>
<g id="a_Node000009"><a xlink:href="simple_8cc.html" target="_top" xlink:title=" ">
<polygon fill="white" stroke="#666666" points="134,-35.5 0,-35.5 0,-5.5 134,-5.5 134,-35.5"/>
<text text-anchor="start" x="8" y="-23.5" font-family="Times,serif" font-size="10.00">doc/dox/user/examples</text>
<text text-anchor="middle" x="67" y="-12.5" font-family="Times,serif" font-size="10.00">/simple.cc</text>
</a>
</g>
</g>
<!-- Node2&#45;&gt;Node9 -->
<g id="edge8_Node000002_Node000009" class="edge">
<title>Node2&#45;&gt;Node9</title>
<g id="a_edge8_Node000002_Node000009"><a xlink:title=" ">
<path fill="none" stroke="#63b8ff" d="M717.67,-85.08C619.86,-83.51 358,-76.08 143,-41 134.4,-39.6 125.34,-37.68 116.61,-35.58"/>
<polygon fill="#63b8ff" stroke="#63b8ff" points="717.65,-88.58 727.7,-85.23 717.75,-81.58 717.65,-88.58"/>
</a>
</g>
</g>
<!-- Node2&#45;&gt;Node10 -->
<g id="edge9_Node000002_Node000010" class="edge">
<title>Node2&#45;&gt;Node10</title>
<g id="a_edge9_Node000002_Node000010"><a xlink:title=" ">
<path fill="none" stroke="#63b8ff" d="M796.35,-81.3C854.57,-74.74 966.89,-60.73 1061,-41 1075.26,-38.01 1090.9,-33.82 1103.86,-30.08"/>
<polygon fill="#63b8ff" stroke="#63b8ff" points="795.68,-77.86 786.13,-82.44 796.46,-84.81 795.68,-77.86"/>
</a>
</g>
</g>
<!-- Node2&#45;&gt;Node11 -->
<g id="edge10_Node000002_Node000011" class="edge">
<title>Node2&#45;&gt;Node11</title>
<g id="a_edge10_Node000002_Node000011"><a xlink:title=" ">
<path fill="none" stroke="#63b8ff" d="M796.61,-84.1C874.92,-80.77 1054.82,-70.34 1203,-41 1216.64,-38.3 1231.51,-33.95 1243.59,-30.04"/>
<polygon fill="#63b8ff" stroke="#63b8ff" points="796.09,-80.62 786.24,-84.52 796.38,-87.61 796.09,-80.62"/>
</a>
</g>
</g>
</g>
</svg>
