<?xml version="1.0" encoding="UTF-8" standalone="no"?>
<!DOCTYPE svg PUBLIC "-//W3C//DTD SVG 1.1//EN"
 "http://www.w3.org/Graphics/SVG/1.1/DTD/svg11.dtd">
<!-- Generated by graphviz version 2.43.0 (0)
 -->
<!-- Title: ttg/ttg/devicescratch.h Pages: 1 -->
<svg width="610pt" height="192pt"
 viewBox="0.00 0.00 609.50 192.00" xmlns="http://www.w3.org/2000/svg" xmlns:xlink="http://www.w3.org/1999/xlink">
<g id="graph0" class="graph" transform="scale(1 1) rotate(0) translate(4 188)">
<title>ttg/ttg/devicescratch.h</title>
<!-- Node1 -->
<g id="Node000001" class="node">
<title>Node1</title>
<g id="a_Node000001"><a xlink:title=" ">
<polygon fill="#999999" stroke="#666666" points="220.5,-184 89.5,-184 89.5,-165 220.5,-165 220.5,-184"/>
<text text-anchor="middle" x="155" y="-172" font-family="Times,serif" font-size="10.00">ttg/ttg/devicescratch.h</text>
</a>
</g>
</g>
<!-- Node2 -->
<g id="Node000002" class="node">
<title>Node2</title>
<g id="a_Node000002"><a xlink:href="devicescope_8h.html" target="_top" xlink:title=" ">
<polygon fill="white" stroke="#666666" points="106,-129 0,-129 0,-110 106,-110 106,-129"/>
<text text-anchor="middle" x="53" y="-117" font-family="Times,serif" font-size="10.00">ttg/devicescope.h</text>
</a>
</g>
</g>
<!-- Node1&#45;&gt;Node2 -->
<g id="edge1_Node000001_Node000002" class="edge">
<title>Node1&#45;&gt;Node2</title>
<g id="a_edge1_Node000001_Node000002"><a xlink:title=" ">
<path fill="none" stroke="#63b8ff" d="M138.61,-164.98C122.43,-156.57 97.43,-143.59 78.62,-133.81"/>
<polygon fill="#63b8ff" stroke="#63b8ff" points="80.17,-130.68 69.69,-129.17 76.95,-136.89 80.17,-130.68"/>
</a>
</g>
</g>
<!-- Node3 -->
<g id="Node000003" class="node">
<title>Node3</title>
<g id="a_Node000003"><a xlink:href="fwd_8h.html" target="_top" xlink:title=" ">
<polygon fill="white" stroke="#666666" points="186,-129 124,-129 124,-110 186,-110 186,-129"/>
<text text-anchor="middle" x="155" y="-117" font-family="Times,serif" font-size="10.00">ttg/fwd.h</text>
</a>
</g>
</g>
<!-- Node1&#45;&gt;Node3 -->
<g id="edge2_Node000001_Node000003" class="edge">
<title>Node1&#45;&gt;Node3</title>
<g id="a_edge2_Node000001_Node000003"><a xlink:title=" ">
<path fill="none" stroke="#63b8ff" d="M155,-164.75C155,-157.8 155,-147.85 155,-139.13"/>
<polygon fill="#63b8ff" stroke="#63b8ff" points="158.5,-139.09 155,-129.09 151.5,-139.09 158.5,-139.09"/>
</a>
</g>
</g>
<!-- Node5 -->
<g id="Node000005" class="node">
<title>Node5</title>
<g id="a_Node000005"><a xlink:href="meta_8h.html" target="_top" xlink:title=" ">
<polygon fill="white" stroke="#666666" points="331.5,-129 242.5,-129 242.5,-110 331.5,-110 331.5,-129"/>
<text text-anchor="middle" x="287" y="-117" font-family="Times,serif" font-size="10.00">ttg/util/meta.h</text>
</a>
</g>
</g>
<!-- Node1&#45;&gt;Node5 -->
<g id="edge4_Node000001_Node000005" class="edge">
<title>Node1&#45;&gt;Node5</title>
<g id="a_edge4_Node000001_Node000005"><a xlink:title=" ">
<path fill="none" stroke="#63b8ff" d="M176.21,-164.98C197.73,-156.34 231.28,-142.87 255.83,-133.02"/>
<polygon fill="#63b8ff" stroke="#63b8ff" points="257.43,-136.14 265.41,-129.17 254.82,-129.65 257.43,-136.14"/>
</a>
</g>
</g>
<!-- Node4 -->
<g id="Node000004" class="node">
<title>Node4</title>
<g id="a_Node000004"><a xlink:href="impl__selector_8h.html" target="_top" xlink:title=" ">
<polygon fill="white" stroke="#666666" points="173,-74 63,-74 63,-55 173,-55 173,-74"/>
<text text-anchor="middle" x="118" y="-62" font-family="Times,serif" font-size="10.00">ttg/impl_selector.h</text>
</a>
</g>
</g>
<!-- Node3&#45;&gt;Node4 -->
<g id="edge3_Node000003_Node000004" class="edge">
<title>Node3&#45;&gt;Node4</title>
<g id="a_edge3_Node000003_Node000004"><a xlink:title=" ">
<path fill="none" stroke="#63b8ff" d="M148.89,-109.75C143.72,-102.34 136.15,-91.5 129.81,-82.41"/>
<polygon fill="#63b8ff" stroke="#63b8ff" points="132.59,-80.29 124,-74.09 126.85,-84.29 132.59,-80.29"/>
</a>
</g>
</g>
<!-- Node6 -->
<g id="Node000006" class="node">
<title>Node6</title>
<g id="a_Node000006"><a xlink:title=" ">
<polygon fill="#e0e0e0" stroke="#999999" points="259,-74 191,-74 191,-55 259,-55 259,-74"/>
<text text-anchor="middle" x="225" y="-62" font-family="Times,serif" font-size="10.00">functional</text>
</a>
</g>
</g>
<!-- Node5&#45;&gt;Node6 -->
<g id="edge5_Node000005_Node000006" class="edge">
<title>Node5&#45;&gt;Node6</title>
<g id="a_edge5_Node000005_Node000006"><a xlink:title=" ">
<path fill="none" stroke="#63b8ff" d="M277.04,-109.98C267.87,-102.15 254.06,-90.34 242.97,-80.86"/>
<polygon fill="#63b8ff" stroke="#63b8ff" points="245.02,-78.01 235.14,-74.17 240.47,-83.33 245.02,-78.01"/>
</a>
</g>
</g>
<!-- Node7 -->
<g id="Node000007" class="node">
<title>Node7</title>
<g id="a_Node000007"><a xlink:title=" ">
<polygon fill="#e0e0e0" stroke="#999999" points="251.5,-19 180.5,-19 180.5,0 251.5,0 251.5,-19"/>
<text text-anchor="middle" x="216" y="-7" font-family="Times,serif" font-size="10.00">type_traits</text>
</a>
</g>
</g>
<!-- Node5&#45;&gt;Node7 -->
<g id="edge6_Node000005_Node000007" class="edge">
<title>Node5&#45;&gt;Node7</title>
<g id="a_edge6_Node000005_Node000007"><a xlink:title=" ">
<path fill="none" stroke="#63b8ff" d="M285.96,-109.62C284.1,-96.7 279.3,-72.36 268,-55 260.3,-43.17 248.56,-32.74 238.18,-24.96"/>
<polygon fill="#63b8ff" stroke="#63b8ff" points="240.07,-22.01 229.9,-19.07 236.02,-27.72 240.07,-22.01"/>
</a>
</g>
</g>
<!-- Node8 -->
<g id="Node000008" class="node">
<title>Node8</title>
<g id="a_Node000008"><a xlink:href="span_8h.html" target="_top" xlink:title=" ">
<polygon fill="white" stroke="#666666" points="403,-74 315,-74 315,-55 403,-55 403,-74"/>
<text text-anchor="middle" x="359" y="-62" font-family="Times,serif" font-size="10.00">ttg/util/span.h</text>
</a>
</g>
</g>
<!-- Node5&#45;&gt;Node8 -->
<g id="edge7_Node000005_Node000008" class="edge">
<title>Node5&#45;&gt;Node8</title>
<g id="a_edge7_Node000005_Node000008"><a xlink:title=" ">
<path fill="none" stroke="#63b8ff" d="M298.57,-109.98C309.42,-102 325.88,-89.88 338.88,-80.31"/>
<polygon fill="#63b8ff" stroke="#63b8ff" points="341.24,-82.92 347.22,-74.17 337.09,-77.28 341.24,-82.92"/>
</a>
</g>
</g>
<!-- Node13 -->
<g id="Node000013" class="node">
<title>Node13</title>
<g id="a_Node000013"><a xlink:href="typelist_8h.html" target="_top" xlink:title=" ">
<polygon fill="white" stroke="#666666" points="576.5,-74 475.5,-74 475.5,-55 576.5,-55 576.5,-74"/>
<text text-anchor="middle" x="526" y="-62" font-family="Times,serif" font-size="10.00">ttg/util/typelist.h</text>
</a>
</g>
</g>
<!-- Node5&#45;&gt;Node13 -->
<g id="edge13_Node000005_Node000013" class="edge">
<title>Node5&#45;&gt;Node13</title>
<g id="a_edge13_Node000005_Node000013"><a xlink:title=" ">
<path fill="none" stroke="#63b8ff" d="M325.4,-109.98C366.74,-100.82 432.6,-86.21 477.49,-76.26"/>
<polygon fill="#63b8ff" stroke="#63b8ff" points="478.29,-79.66 487.3,-74.08 476.78,-72.83 478.29,-79.66"/>
</a>
</g>
</g>
<!-- Node8&#45;&gt;Node7 -->
<g id="edge11_Node000008_Node000007" class="edge">
<title>Node8&#45;&gt;Node7</title>
<g id="a_edge11_Node000008_Node000007"><a xlink:title=" ">
<path fill="none" stroke="#63b8ff" d="M336.02,-54.98C312.5,-46.27 275.71,-32.63 249.06,-22.75"/>
<polygon fill="#63b8ff" stroke="#63b8ff" points="249.99,-19.36 239.39,-19.17 247.55,-25.93 249.99,-19.36"/>
</a>
</g>
</g>
<!-- Node9 -->
<g id="Node000009" class="node">
<title>Node9</title>
<g id="a_Node000009"><a xlink:title=" ">
<polygon fill="#e0e0e0" stroke="#999999" points="314,-19 270,-19 270,0 314,0 314,-19"/>
<text text-anchor="middle" x="292" y="-7" font-family="Times,serif" font-size="10.00">array</text>
</a>
</g>
</g>
<!-- Node8&#45;&gt;Node9 -->
<g id="edge8_Node000008_Node000009" class="edge">
<title>Node8&#45;&gt;Node9</title>
<g id="a_edge8_Node000008_Node000009"><a xlink:title=" ">
<path fill="none" stroke="#63b8ff" d="M348.24,-54.98C338.23,-47.07 323.11,-35.11 311.07,-25.58"/>
<polygon fill="#63b8ff" stroke="#63b8ff" points="312.97,-22.63 302.96,-19.17 308.63,-28.12 312.97,-22.63"/>
</a>
</g>
</g>
<!-- Node10 -->
<g id="Node000010" class="node">
<title>Node10</title>
<g id="a_Node000010"><a xlink:title=" ">
<polygon fill="#e0e0e0" stroke="#999999" points="386,-19 332,-19 332,0 386,0 386,-19"/>
<text text-anchor="middle" x="359" y="-7" font-family="Times,serif" font-size="10.00">cstddef</text>
</a>
</g>
</g>
<!-- Node8&#45;&gt;Node10 -->
<g id="edge9_Node000008_Node000010" class="edge">
<title>Node8&#45;&gt;Node10</title>
<g id="a_edge9_Node000008_Node000010"><a xlink:title=" ">
<path fill="none" stroke="#63b8ff" d="M359,-54.75C359,-47.8 359,-37.85 359,-29.13"/>
<polygon fill="#63b8ff" stroke="#63b8ff" points="362.5,-29.09 359,-19.09 355.5,-29.09 362.5,-29.09"/>
</a>
</g>
</g>
<!-- Node11 -->
<g id="Node000011" class="node">
<title>Node11</title>
<g id="a_Node000011"><a xlink:title=" ">
<polygon fill="#e0e0e0" stroke="#999999" points="455.5,-19 404.5,-19 404.5,0 455.5,0 455.5,-19"/>
<text text-anchor="middle" x="430" y="-7" font-family="Times,serif" font-size="10.00">cstdint</text>
</a>
</g>
</g>
<!-- Node8&#45;&gt;Node11 -->
<g id="edge10_Node000008_Node000011" class="edge">
<title>Node8&#45;&gt;Node11</title>
<g id="a_edge10_Node000008_Node000011"><a xlink:title=" ">
<path fill="none" stroke="#63b8ff" d="M370.41,-54.98C381.11,-47 397.34,-34.88 410.16,-25.31"/>
<polygon fill="#63b8ff" stroke="#63b8ff" points="412.47,-27.96 418.39,-19.17 408.28,-22.35 412.47,-27.96"/>
</a>
</g>
</g>
<!-- Node12 -->
<g id="Node000012" class="node">
<title>Node12</title>
<g id="a_Node000012"><a xlink:title=" ">
<polygon fill="#e0e0e0" stroke="#999999" points="540,-19 474,-19 474,0 540,0 540,-19"/>
<text text-anchor="middle" x="507" y="-7" font-family="Times,serif" font-size="10.00">exception</text>
</a>
</g>
</g>
<!-- Node8&#45;&gt;Node12 -->
<g id="edge12_Node000008_Node000012" class="edge">
<title>Node8&#45;&gt;Node12</title>
<g id="a_edge12_Node000008_Node000012"><a xlink:title=" ">
<path fill="none" stroke="#63b8ff" d="M382.78,-54.98C407.23,-46.23 445.53,-32.51 473.15,-22.62"/>
<polygon fill="#63b8ff" stroke="#63b8ff" points="474.55,-25.84 482.79,-19.17 472.19,-19.25 474.55,-25.84"/>
</a>
</g>
</g>
<!-- Node14 -->
<g id="Node000014" class="node">
<title>Node14</title>
<g id="a_Node000014"><a xlink:title=" ">
<polygon fill="#e0e0e0" stroke="#999999" points="601.5,-19 558.5,-19 558.5,0 601.5,0 601.5,-19"/>
<text text-anchor="middle" x="580" y="-7" font-family="Times,serif" font-size="10.00">tuple</text>
</a>
</g>
</g>
<!-- Node13&#45;&gt;Node14 -->
<g id="edge14_Node000013_Node000014" class="edge">
<title>Node13&#45;&gt;Node14</title>
<g id="a_edge14_Node000013_Node000014"><a xlink:title=" ">
<path fill="none" stroke="#63b8ff" d="M534.92,-54.75C542.78,-47.03 554.43,-35.6 563.92,-26.28"/>
<polygon fill="#63b8ff" stroke="#63b8ff" points="566.56,-28.59 571.25,-19.09 561.66,-23.6 566.56,-28.59"/>
</a>
</g>
</g>
</g>
</svg>
