<?xml version="1.0" encoding="UTF-8" standalone="no"?>
<!DOCTYPE svg PUBLIC "-//W3C//DTD SVG 1.1//EN"
 "http://www.w3.org/Graphics/SVG/1.1/DTD/svg11.dtd">
<!-- Generated by graphviz version 2.43.0 (0)
 -->
<!-- Title: ttg/ttg Pages: 1 -->
<svg width="306pt" height="259pt"
 viewBox="0.00 0.00 306.00 259.00" xmlns="http://www.w3.org/2000/svg" xmlns:xlink="http://www.w3.org/1999/xlink">

<svg id="main" version="1.1" xmlns="http://www.w3.org/2000/svg" xmlns:xlink="http://www.w3.org/1999/xlink" xml:space="preserve" onload="init(evt)">
<style type="text/css"><![CDATA[
.node, .edge {opacity: 0.7;}
.node.selected, .edge.selected {opacity: 1;}
.edge:hover path { stroke: red; }
.edge:hover polygon { stroke: red; fill: red; }
]]></style>
<script type="application/ecmascript" xlink:href="svg.min.js"/>
<svg id="graph" class="graph">
<g id="graph0" class="graph" transform="scale(1 1) rotate(0) translate(4 255)">
<title>ttg/ttg</title>
<g id="clust1" class="cluster">
<title>clusterdir_a825e1ba92545c3b5c2d3ccdfd8c48c1</title>
<g id="a_clust1"><a xlink:href="dir_a825e1ba92545c3b5c2d3ccdfd8c48c1.html" target="_top" xlink:title="ttg">
<polygon fill="#daedff" stroke="#404040" stroke-dasharray="5,2" points="8,-8 8,-243 290,-243 290,-8 8,-8"/>
<text text-anchor="middle" x="149" y="-231" font-family="Times,serif" font-size="10.00">ttg</text>
</a>
</g>
</g>
<g id="clust2" class="cluster">
<title>clusterdir_eadfcb2e6dc630a96ad146c380f23e4d</title>
<g id="a_clust2"><a xlink:href="dir_eadfcb2e6dc630a96ad146c380f23e4d.html" target="_top">
<polygon fill="#daedff" stroke="#404040" stroke-width="2" points="16,-16 16,-216 282,-216 282,-16 16,-16"/>
</a>
</g>
</g>
<!-- dir_eadfcb2e6dc630a96ad146c380f23e4d -->
<g id="node1" class="node">
<title>dir_eadfcb2e6dc630a96ad146c380f23e4d</title>
<text text-anchor="middle" x="243" y="-196" font-family="Times,serif" font-size="10.00">ttg</text>
</g>
<!-- dir_e67ae4b516638ba86976c7f6d8216122 -->
<g id="node2" class="node">
<title>dir_e67ae4b516638ba86976c7f6d8216122</title>
<g id="a_node2"><a xlink:href="dir_e67ae4b516638ba86976c7f6d8216122.html" target="_top" xlink:title="base">
<polygon fill="#4ea9ff" stroke="#404040" points="213.5,-153 172.5,-153 172.5,-134 213.5,-134 213.5,-153"/>
<text text-anchor="middle" x="193" y="-141" font-family="Times,serif" font-size="10.00">base</text>
</a>
</g>
</g>
<!-- dir_eadfcb2e6dc630a96ad146c380f23e4d&#45;&gt;dir_e67ae4b516638ba86976c7f6d8216122 -->
<g id="edge3" class="edge">
<title>dir_eadfcb2e6dc630a96ad146c380f23e4d&#45;&gt;dir_e67ae4b516638ba86976c7f6d8216122</title>
<g id="a_edge3"><a xlink:href="dir_000025_000001.html" target="_top">
<path fill="none" stroke="#63b8ff" d="M234.74,-188.75C227.54,-181.11 216.89,-169.82 208.15,-160.56"/>
<polygon fill="#63b8ff" stroke="#63b8ff" points="210.51,-157.96 201.1,-153.09 205.42,-162.76 210.51,-157.96"/>
</a>
</g>
<g id="a_edge3&#45;headlabel"><a xlink:href="dir_000025_000001.html" target="_top" xlink:title="11">
<text text-anchor="middle" x="215.04" y="-156.13" font-family="FreeSans" font-size="10.00" fill="#63b8ff">11</text>
</a>
</g>
</g>
<!-- dir_d6fd4865185b9faac2b34d4b3d207028 -->
<g id="node4" class="node">
<title>dir_d6fd4865185b9faac2b34d4b3d207028</title>
<g id="a_node4"><a xlink:href="dir_d6fd4865185b9faac2b34d4b3d207028.html" target="_top" xlink:title="external">
<polygon fill="#4ea9ff" stroke="#404040" points="271.5,-43 212.5,-43 212.5,-24 271.5,-24 271.5,-43"/>
<text text-anchor="middle" x="242" y="-31" font-family="Times,serif" font-size="10.00">external</text>
</a>
</g>
</g>
<!-- dir_eadfcb2e6dc630a96ad146c380f23e4d&#45;&gt;dir_d6fd4865185b9faac2b34d4b3d207028 -->
<g id="edge2" class="edge">
<title>dir_eadfcb2e6dc630a96ad146c380f23e4d&#45;&gt;dir_d6fd4865185b9faac2b34d4b3d207028</title>
<g id="a_edge2"><a xlink:href="dir_000025_000013.html" target="_top">
<path fill="none" stroke="#63b8ff" d="M246.86,-188.85C250.56,-180.04 255.89,-165.87 258,-153 263.32,-120.54 263.65,-111.4 258,-79 256.43,-70 253.2,-60.42 250.06,-52.46"/>
<polygon fill="#63b8ff" stroke="#63b8ff" points="253.23,-50.97 246.11,-43.12 246.78,-53.69 253.23,-50.97"/>
</a>
</g>
<g id="a_edge2&#45;headlabel"><a xlink:href="dir_000025_000013.html" target="_top" xlink:title="77">
<text text-anchor="middle" x="257.24" y="-50.68" font-family="FreeSans" font-size="10.00" fill="#63b8ff">77</text>
</a>
</g>
</g>
<!-- dir_13fd119dab1db984ce4477363886eeb4 -->
<g id="node7" class="node">
<title>dir_13fd119dab1db984ce4477363886eeb4</title>
<g id="a_node7"><a xlink:href="dir_13fd119dab1db984ce4477363886eeb4.html" target="_top" xlink:title="serialization">
<polygon fill="#4ea9ff" stroke="#404040" points="193,-43 115,-43 115,-24 193,-24 193,-43"/>
<text text-anchor="middle" x="154" y="-31" font-family="Times,serif" font-size="10.00">serialization</text>
</a>
</g>
</g>
<!-- dir_eadfcb2e6dc630a96ad146c380f23e4d&#45;&gt;dir_13fd119dab1db984ce4477363886eeb4 -->
<g id="edge1" class="edge">
<title>dir_eadfcb2e6dc630a96ad146c380f23e4d&#45;&gt;dir_13fd119dab1db984ce4477363886eeb4</title>
<g id="a_edge1"><a xlink:href="dir_000025_000021.html" target="_top">
<path fill="none" stroke="#63b8ff" d="M242.83,-188.9C242.29,-176.32 240.18,-152.4 232,-134 217.24,-100.78 188.92,-68.89 170.78,-50.52"/>
<polygon fill="#63b8ff" stroke="#63b8ff" points="172.81,-47.61 163.24,-43.08 167.89,-52.59 172.81,-47.61"/>
</a>
</g>
<g id="a_edge1&#45;headlabel"><a xlink:href="dir_000025_000021.html" target="_top" xlink:title="7">
<text text-anchor="middle" x="177.37" y="-45.62" font-family="FreeSans" font-size="10.00" fill="#63b8ff">7</text>
</a>
</g>
</g>
<!-- dir_fb38b30f47951bfe30ef4589dd313e50 -->
<g id="node8" class="node">
<title>dir_fb38b30f47951bfe30ef4589dd313e50</title>
<g id="a_node8"><a xlink:href="dir_fb38b30f47951bfe30ef4589dd313e50.html" target="_top" xlink:title="util">
<polygon fill="#4ea9ff" stroke="#404040" points="170.5,-98 137.5,-98 137.5,-79 170.5,-79 170.5,-98"/>
<text text-anchor="middle" x="154" y="-86" font-family="Times,serif" font-size="10.00">util</text>
</a>
</g>
</g>
<!-- dir_eadfcb2e6dc630a96ad146c380f23e4d&#45;&gt;dir_fb38b30f47951bfe30ef4589dd313e50 -->
<g id="edge4" class="edge">
<title>dir_eadfcb2e6dc630a96ad146c380f23e4d&#45;&gt;dir_fb38b30f47951bfe30ef4589dd313e50</title>
<g id="a_edge4"><a xlink:href="dir_000025_000028.html" target="_top">
<path fill="none" stroke="#63b8ff" d="M242.15,-188.84C240.48,-175.76 235.76,-150.73 223,-134 211.8,-119.31 194.25,-108.09 179.66,-100.59"/>
<polygon fill="#63b8ff" stroke="#63b8ff" points="181.11,-97.41 170.59,-96.2 178.06,-103.71 181.11,-97.41"/>
</a>
</g>
<g id="a_edge4&#45;headlabel"><a xlink:href="dir_000025_000028.html" target="_top" xlink:title="47">
<text text-anchor="middle" x="185.59" y="-93.92" font-family="FreeSans" font-size="10.00" fill="#63b8ff">47</text>
</a>
</g>
</g>
<!-- dir_e67ae4b516638ba86976c7f6d8216122&#45;&gt;dir_fb38b30f47951bfe30ef4589dd313e50 -->
<g id="edge5" class="edge">
<title>dir_e67ae4b516638ba86976c7f6d8216122&#45;&gt;dir_fb38b30f47951bfe30ef4589dd313e50</title>
<g id="a_edge5"><a xlink:href="dir_000001_000028.html" target="_top">
<path fill="none" stroke="#63b8ff" d="M181.39,-133.75C174.42,-126.42 166.16,-115.73 160.29,-106.7"/>
<polygon fill="#63b8ff" stroke="#63b8ff" points="163.3,-104.91 155.19,-98.09 157.27,-108.48 163.3,-104.91"/>
</a>
</g>
<g id="a_edge5&#45;headlabel"><a xlink:href="dir_000001_000028.html" target="_top" xlink:title="4">
<text text-anchor="middle" x="167.57" y="-104.05" font-family="FreeSans" font-size="10.00" fill="#63b8ff">4</text>
</a>
</g>
</g>
<!-- dir_bc97ab6845a366ec7354b4363128df1d -->
<g id="node3" class="node">
<title>dir_bc97ab6845a366ec7354b4363128df1d</title>
<g id="a_node3"><a xlink:href="dir_bc97ab6845a366ec7354b4363128df1d.html" target="_top" xlink:title="device">
<polygon fill="#4ea9ff" stroke="#404040" points="134,-153 84,-153 84,-134 134,-134 134,-153"/>
<text text-anchor="middle" x="109" y="-141" font-family="Times,serif" font-size="10.00">device</text>
</a>
</g>
</g>
<!-- dir_bc97ab6845a366ec7354b4363128df1d&#45;&gt;dir_fb38b30f47951bfe30ef4589dd313e50 -->
<g id="edge6" class="edge">
<title>dir_bc97ab6845a366ec7354b4363128df1d&#45;&gt;dir_fb38b30f47951bfe30ef4589dd313e50</title>
<g id="a_edge6"><a xlink:href="dir_000008_000028.html" target="_top">
<path fill="none" stroke="#63b8ff" d="M116.43,-133.75C122.85,-126.18 132.31,-115.05 140.12,-105.84"/>
<polygon fill="#63b8ff" stroke="#63b8ff" points="142.9,-107.98 146.71,-98.09 137.57,-103.45 142.9,-107.98"/>
</a>
</g>
<g id="a_edge6&#45;headlabel"><a xlink:href="dir_000008_000028.html" target="_top" xlink:title="1">
<text text-anchor="middle" x="142.74" y="-110.06" font-family="FreeSans" font-size="10.00" fill="#63b8ff">1</text>
</a>
</g>
</g>
<!-- dir_e1343a3dc90010149b86ffe6d9c5dcc4 -->
<g id="node5" class="node">
<title>dir_e1343a3dc90010149b86ffe6d9c5dcc4</title>
<g id="a_node5"><a xlink:href="dir_e1343a3dc90010149b86ffe6d9c5dcc4.html" target="_top" xlink:title="madness">
<polygon fill="#4ea9ff" stroke="#404040" points="92,-208 30,-208 30,-189 92,-189 92,-208"/>
<text text-anchor="middle" x="61" y="-196" font-family="Times,serif" font-size="10.00">madness</text>
</a>
</g>
</g>
<!-- dir_e1343a3dc90010149b86ffe6d9c5dcc4&#45;&gt;dir_e67ae4b516638ba86976c7f6d8216122 -->
<g id="edge9" class="edge">
<title>dir_e1343a3dc90010149b86ffe6d9c5dcc4&#45;&gt;dir_e67ae4b516638ba86976c7f6d8216122</title>
<g id="a_edge9"><a xlink:href="dir_000017_000001.html" target="_top">
<path fill="none" stroke="#63b8ff" d="M82.21,-188.98C103.99,-180.24 138.08,-166.55 162.7,-156.67"/>
<polygon fill="#63b8ff" stroke="#63b8ff" points="164.3,-159.79 172.28,-152.82 161.7,-153.3 164.3,-159.79"/>
</a>
</g>
<g id="a_edge9&#45;headlabel"><a xlink:href="dir_000017_000001.html" target="_top" xlink:title="2">
<text text-anchor="middle" x="162.03" y="-161.27" font-family="FreeSans" font-size="10.00" fill="#63b8ff">2</text>
</a>
</g>
</g>
<!-- dir_e1343a3dc90010149b86ffe6d9c5dcc4&#45;&gt;dir_bc97ab6845a366ec7354b4363128df1d -->
<g id="edge8" class="edge">
<title>dir_e1343a3dc90010149b86ffe6d9c5dcc4&#45;&gt;dir_bc97ab6845a366ec7354b4363128df1d</title>
<g id="a_edge8"><a xlink:href="dir_000017_000008.html" target="_top">
<path fill="none" stroke="#63b8ff" d="M68.93,-188.75C75.85,-181.11 86.07,-169.82 94.45,-160.56"/>
<polygon fill="#63b8ff" stroke="#63b8ff" points="97.1,-162.85 101.22,-153.09 91.91,-158.15 97.1,-162.85"/>
</a>
</g>
<g id="a_edge8&#45;headlabel"><a xlink:href="dir_000017_000008.html" target="_top" xlink:title="2">
<text text-anchor="middle" x="96.79" y="-164.92" font-family="FreeSans" font-size="10.00" fill="#63b8ff">2</text>
</a>
</g>
</g>
<!-- dir_e1343a3dc90010149b86ffe6d9c5dcc4&#45;&gt;dir_13fd119dab1db984ce4477363886eeb4 -->
<g id="edge7" class="edge">
<title>dir_e1343a3dc90010149b86ffe6d9c5dcc4&#45;&gt;dir_13fd119dab1db984ce4477363886eeb4</title>
<g id="a_edge7"><a xlink:href="dir_000017_000021.html" target="_top">
<path fill="none" stroke="#63b8ff" d="M59.87,-188.7C58.55,-176.29 57.14,-153.01 62,-134 68.85,-107.23 72.77,-99.77 91,-79 101.74,-66.77 116.47,-56.13 128.99,-48.32"/>
<polygon fill="#63b8ff" stroke="#63b8ff" points="130.85,-51.29 137.63,-43.15 127.25,-45.28 130.85,-51.29"/>
</a>
</g>
<g id="a_edge7&#45;headlabel"><a xlink:href="dir_000017_000021.html" target="_top" xlink:title="1">
<text text-anchor="middle" x="129.22" y="-53.07" font-family="FreeSans" font-size="10.00" fill="#63b8ff">1</text>
</a>
</g>
</g>
<!-- dir_e1343a3dc90010149b86ffe6d9c5dcc4&#45;&gt;dir_fb38b30f47951bfe30ef4589dd313e50 -->
<g id="edge10" class="edge">
<title>dir_e1343a3dc90010149b86ffe6d9c5dcc4&#45;&gt;dir_fb38b30f47951bfe30ef4589dd313e50</title>
<g id="a_edge10"><a xlink:href="dir_000017_000028.html" target="_top">
<path fill="none" stroke="#63b8ff" d="M60.77,-188.79C60.86,-175.64 62.77,-150.51 75,-134 88,-116.45 110.12,-104.85 127.65,-97.91"/>
<polygon fill="#63b8ff" stroke="#63b8ff" points="129.16,-101.08 137.34,-94.35 126.75,-94.51 129.16,-101.08"/>
</a>
</g>
<g id="a_edge10&#45;headlabel"><a xlink:href="dir_000017_000028.html" target="_top" xlink:title="11">
<text text-anchor="middle" x="126.76" y="-102.48" font-family="FreeSans" font-size="10.00" fill="#63b8ff">11</text>
</a>
</g>
</g>
<!-- dir_9821395bc66cf1f03c298ff9baab0fee -->
<g id="node6" class="node">
<title>dir_9821395bc66cf1f03c298ff9baab0fee</title>
<g id="a_node6"><a xlink:href="dir_9821395bc66cf1f03c298ff9baab0fee.html" target="_top" xlink:title="parsec">
<polygon fill="#4ea9ff" stroke="#404040" points="172,-208 122,-208 122,-189 172,-189 172,-208"/>
<text text-anchor="middle" x="147" y="-196" font-family="Times,serif" font-size="10.00">parsec</text>
</a>
</g>
</g>
<!-- dir_9821395bc66cf1f03c298ff9baab0fee&#45;&gt;dir_e67ae4b516638ba86976c7f6d8216122 -->
<g id="edge13" class="edge">
<title>dir_9821395bc66cf1f03c298ff9baab0fee&#45;&gt;dir_e67ae4b516638ba86976c7f6d8216122</title>
<g id="a_edge13"><a xlink:href="dir_000019_000001.html" target="_top">
<path fill="none" stroke="#63b8ff" d="M154.6,-188.75C161.16,-181.18 170.82,-170.05 178.81,-160.84"/>
<polygon fill="#63b8ff" stroke="#63b8ff" points="181.63,-162.94 185.55,-153.09 176.35,-158.35 181.63,-162.94"/>
</a>
</g>
<g id="a_edge13&#45;headlabel"><a xlink:href="dir_000019_000001.html" target="_top" xlink:title="3">
<text text-anchor="middle" x="181.42" y="-165.01" font-family="FreeSans" font-size="10.00" fill="#63b8ff">3</text>
</a>
</g>
</g>
<!-- dir_9821395bc66cf1f03c298ff9baab0fee&#45;&gt;dir_bc97ab6845a366ec7354b4363128df1d -->
<g id="edge12" class="edge">
<title>dir_9821395bc66cf1f03c298ff9baab0fee&#45;&gt;dir_bc97ab6845a366ec7354b4363128df1d</title>
<g id="a_edge12"><a xlink:href="dir_000019_000008.html" target="_top">
<path fill="none" stroke="#63b8ff" d="M140.73,-188.75C135.41,-181.34 127.64,-170.5 121.12,-161.41"/>
<polygon fill="#63b8ff" stroke="#63b8ff" points="123.83,-159.18 115.16,-153.09 118.14,-163.26 123.83,-159.18"/>
</a>
</g>
<g id="a_edge12&#45;headlabel"><a xlink:href="dir_000019_000008.html" target="_top" xlink:title="4">
<text text-anchor="middle" x="128.23" y="-157.94" font-family="FreeSans" font-size="10.00" fill="#63b8ff">4</text>
</a>
</g>
</g>
<!-- dir_9821395bc66cf1f03c298ff9baab0fee&#45;&gt;dir_13fd119dab1db984ce4477363886eeb4 -->
<g id="edge11" class="edge">
<title>dir_9821395bc66cf1f03c298ff9baab0fee&#45;&gt;dir_13fd119dab1db984ce4477363886eeb4</title>
<g id="a_edge11"><a xlink:href="dir_000019_000021.html" target="_top">
<path fill="none" stroke="#63b8ff" d="M121.86,-189.29C105.32,-182.43 84.95,-170.84 75,-153 70.89,-145.62 72.22,-141.97 75,-134 87.07,-99.38 116.78,-67.76 136.13,-49.85"/>
<polygon fill="#63b8ff" stroke="#63b8ff" points="138.61,-52.33 143.71,-43.04 133.93,-47.12 138.61,-52.33"/>
</a>
</g>
<g id="a_edge11&#45;headlabel"><a xlink:href="dir_000019_000021.html" target="_top" xlink:title="1">
<text text-anchor="middle" x="137.83" y="-54.34" font-family="FreeSans" font-size="10.00" fill="#63b8ff">1</text>
</a>
</g>
</g>
<!-- dir_9821395bc66cf1f03c298ff9baab0fee&#45;&gt;dir_fb38b30f47951bfe30ef4589dd313e50 -->
<g id="edge14" class="edge">
<title>dir_9821395bc66cf1f03c298ff9baab0fee&#45;&gt;dir_fb38b30f47951bfe30ef4589dd313e50</title>
<g id="a_edge14"><a xlink:href="dir_000019_000028.html" target="_top">
<path fill="none" stroke="#63b8ff" d="M147.57,-188.66C148.71,-171.17 151.26,-131.8 152.78,-108.27"/>
<polygon fill="#63b8ff" stroke="#63b8ff" points="156.28,-108.36 153.44,-98.16 149.3,-107.91 156.28,-108.36"/>
</a>
</g>
<g id="a_edge14&#45;headlabel"><a xlink:href="dir_000019_000028.html" target="_top" xlink:title="12">
<text text-anchor="middle" x="158.89" y="-109.63" font-family="FreeSans" font-size="10.00" fill="#63b8ff">12</text>
</a>
</g>
</g>
<!-- dir_13fd119dab1db984ce4477363886eeb4&#45;&gt;dir_fb38b30f47951bfe30ef4589dd313e50 -->
<g id="edge15" class="edge">
<title>dir_13fd119dab1db984ce4477363886eeb4&#45;&gt;dir_fb38b30f47951bfe30ef4589dd313e50</title>
<g id="a_edge15"><a xlink:href="dir_000021_000028.html" target="_top">
<path fill="none" stroke="#63b8ff" d="M159.13,-43.09C160.64,-49.99 161.09,-59.93 160.49,-68.66"/>
<polygon fill="#63b8ff" stroke="#63b8ff" points="157,-68.38 159.17,-78.75 163.94,-69.29 157,-68.38"/>
</a>
</g>
<g id="a_edge15&#45;headlabel"><a xlink:href="dir_000021_000028.html" target="_top" xlink:title="3">
<text text-anchor="middle" x="154.65" y="-61.94" font-family="FreeSans" font-size="10.00" fill="#63b8ff">3</text>
</a>
</g>
</g>
<!-- dir_fb38b30f47951bfe30ef4589dd313e50&#45;&gt;dir_e67ae4b516638ba86976c7f6d8216122 -->
<g id="edge18" class="edge">
<title>dir_fb38b30f47951bfe30ef4589dd313e50&#45;&gt;dir_e67ae4b516638ba86976c7f6d8216122</title>
<g id="a_edge18"><a xlink:href="dir_000028_000001.html" target="_top">
<path fill="none" stroke="#63b8ff" d="M165.45,-98.09C172.4,-105.37 180.67,-116.04 186.58,-125.1"/>
<polygon fill="#63b8ff" stroke="#63b8ff" points="183.6,-126.94 191.73,-133.75 189.62,-123.36 183.6,-126.94"/>
</a>
</g>
<g id="a_edge18&#45;headlabel"><a xlink:href="dir_000028_000001.html" target="_top" xlink:title="1">
<text text-anchor="middle" x="179.33" y="-122.81" font-family="FreeSans" font-size="10.00" fill="#63b8ff">1</text>
</a>
</g>
</g>
<!-- dir_fb38b30f47951bfe30ef4589dd313e50&#45;&gt;dir_d6fd4865185b9faac2b34d4b3d207028 -->
<g id="edge17" class="edge">
<title>dir_fb38b30f47951bfe30ef4589dd313e50&#45;&gt;dir_d6fd4865185b9faac2b34d4b3d207028</title>
<g id="a_edge17"><a xlink:href="dir_000028_000013.html" target="_top">
<path fill="none" stroke="#63b8ff" d="M168.14,-78.98C181.79,-70.77 202.69,-58.18 218.78,-48.49"/>
<polygon fill="#63b8ff" stroke="#63b8ff" points="220.84,-51.33 227.6,-43.17 217.23,-45.33 220.84,-51.33"/>
</a>
</g>
<g id="a_edge17&#45;headlabel"><a xlink:href="dir_000028_000013.html" target="_top" xlink:title="1">
<text text-anchor="middle" x="219.23" y="-53.11" font-family="FreeSans" font-size="10.00" fill="#63b8ff">1</text>
</a>
</g>
</g>
<!-- dir_fb38b30f47951bfe30ef4589dd313e50&#45;&gt;dir_13fd119dab1db984ce4477363886eeb4 -->
<g id="edge16" class="edge">
<title>dir_fb38b30f47951bfe30ef4589dd313e50&#45;&gt;dir_13fd119dab1db984ce4477363886eeb4</title>
<g id="a_edge16"><a xlink:href="dir_000028_000021.html" target="_top">
<path fill="none" stroke="#63b8ff" d="M148.83,-78.75C147.34,-71.8 146.9,-61.85 147.52,-53.13"/>
<polygon fill="#63b8ff" stroke="#63b8ff" points="151.01,-53.47 148.87,-43.09 144.07,-52.53 151.01,-53.47"/>
</a>
</g>
<g id="a_edge16&#45;headlabel"><a xlink:href="dir_000028_000021.html" target="_top" xlink:title="1">
<text text-anchor="middle" x="153.34" y="-54.91" font-family="FreeSans" font-size="10.00" fill="#63b8ff">1</text>
</a>
</g>
</g>
</g>
</svg>
</svg>

<style type='text/css'>
<![CDATA[
[data-mouse-over-selected='false'] { opacity: 0.7; }
[data-mouse-over-selected='true']  { opacity: 1.0; }
]]>
</style>
<script type="application/ecmascript"><![CDATA[
document.addEventListener('DOMContentLoaded', (event) => {
  highlightEdges();
  highlightAdjacentNodes();
});
]]></script>
</svg>
