<?xml version="1.0" encoding="UTF-8" standalone="no"?>
<!DOCTYPE svg PUBLIC "-//W3C//DTD SVG 1.1//EN"
 "http://www.w3.org/Graphics/SVG/1.1/DTD/svg11.dtd">
<!-- Generated by graphviz version 2.43.0 (0)
 -->
<!-- Title: main Pages: 1 -->
<svg width="411pt" height="415pt"
 viewBox="0.00 0.00 411.00 414.50" xmlns="http://www.w3.org/2000/svg" xmlns:xlink="http://www.w3.org/1999/xlink">

<svg id="main" version="1.1" xmlns="http://www.w3.org/2000/svg" xmlns:xlink="http://www.w3.org/1999/xlink" xml:space="preserve" onload="init(evt)">
<style type="text/css"><![CDATA[
.node, .edge {opacity: 0.7;}
.node.selected, .edge.selected {opacity: 1;}
.edge:hover path { stroke: red; }
.edge:hover polygon { stroke: red; fill: red; }
]]></style>
<script type="application/ecmascript" xlink:href="svg.min.js"/>
<svg id="graph" class="graph">
<g id="graph0" class="graph" transform="scale(1 1) rotate(0) translate(4 410.5)">
<title>main</title>
<!-- Node1 -->
<g id="Node000001" class="node">
<title>Node1</title>
<g id="a_Node000001"><a xlink:title=" ">
<polygon fill="#999999" stroke="#666666" points="42,-221.5 0,-221.5 0,-202.5 42,-202.5 42,-221.5"/>
<text text-anchor="middle" x="21" y="-209.5" font-family="Times,serif" font-size="10.00">main</text>
</a>
</g>
</g>
<!-- Node2 -->
<g id="Node000002" class="node">
<title>Node2</title>
<g id="a_Node000002"><a xlink:href="namespacettg.html#afbabcd9802bf1bbdd302e7a612459353" target="_top" xlink:title="Make a tuple of Edges to pass to.">
<polygon fill="white" stroke="#666666" points="192.5,-406.5 124.5,-406.5 124.5,-387.5 192.5,-387.5 192.5,-406.5"/>
<text text-anchor="middle" x="158.5" y="-394.5" font-family="Times,serif" font-size="10.00">ttg::edges</text>
</a>
</g>
</g>
<!-- Node1&#45;&gt;Node2 -->
<g id="edge1_Node000001_Node000002" class="edge">
<title>Node1&#45;&gt;Node2</title>
<g id="a_edge1_Node000001_Node000002"><a xlink:title=" ">
<path fill="none" stroke="#63b8ff" d="M22.15,-221.66C23.13,-250.34 30.13,-335.73 78,-379 87.86,-387.91 101.18,-392.71 114.1,-395.21"/>
<polygon fill="#63b8ff" stroke="#63b8ff" points="113.89,-398.71 124.3,-396.75 114.94,-391.79 113.89,-398.71"/>
</a>
</g>
</g>
<!-- Node3 -->
<g id="Node000003" class="node">
<title>Node3</title>
<g id="a_Node000003"><a xlink:href="namespacettg.html#a1261c57f70c978771f64af07d7f7d7cd" target="_top" xlink:title="Starts the execution in the given execution context.">
<polygon fill="white" stroke="#666666" points="197,-369.5 120,-369.5 120,-350.5 197,-350.5 197,-369.5"/>
<text text-anchor="middle" x="158.5" y="-357.5" font-family="Times,serif" font-size="10.00">ttg::execute</text>
</a>
</g>
</g>
<!-- Node1&#45;&gt;Node3 -->
<g id="edge2_Node000001_Node000003" class="edge">
<title>Node1&#45;&gt;Node3</title>
<g id="a_edge2_Node000001_Node000003"><a xlink:title=" ">
<path fill="none" stroke="#63b8ff" d="M23.17,-221.59C26.65,-245.81 39.25,-309.8 78,-342 87.01,-349.49 98.5,-354.01 109.93,-356.71"/>
<polygon fill="#63b8ff" stroke="#63b8ff" points="109.41,-360.17 119.89,-358.64 110.74,-353.3 109.41,-360.17"/>
</a>
</g>
</g>
<!-- Node4 -->
<g id="Node000004" class="node">
<title>Node4</title>
<g id="a_Node000004"><a xlink:href="namespacettg.html#a807bf42719a82b1539603d477aa2a3fd" target="_top" xlink:title="Returns when all tasks associated with the given execution context have finished on all ranks.">
<polygon fill="white" stroke="#666666" points="191,-332.5 126,-332.5 126,-313.5 191,-313.5 191,-332.5"/>
<text text-anchor="middle" x="158.5" y="-320.5" font-family="Times,serif" font-size="10.00">ttg::fence</text>
</a>
</g>
</g>
<!-- Node1&#45;&gt;Node4 -->
<g id="edge3_Node000001_Node000004" class="edge">
<title>Node1&#45;&gt;Node4</title>
<g id="a_edge3_Node000001_Node000004"><a xlink:title=" ">
<path fill="none" stroke="#63b8ff" d="M24.95,-221.66C31.31,-240.78 48.21,-283.47 78,-305 88.86,-312.85 102.56,-317.35 115.52,-319.91"/>
<polygon fill="#63b8ff" stroke="#63b8ff" points="115.25,-323.42 125.68,-321.58 116.38,-316.51 115.25,-323.42"/>
</a>
</g>
</g>
<!-- Node5 -->
<g id="Node000005" class="node">
<title>Node5</title>
<g id="a_Node000005"><a xlink:href="namespacettg.html#a96780ef3c553a2f45aa7ea881bdb6490" target="_top" xlink:title="Finalizes the TTG runtime.">
<polygon fill="white" stroke="#666666" points="195.5,-277.5 121.5,-277.5 121.5,-258.5 195.5,-258.5 195.5,-277.5"/>
<text text-anchor="middle" x="158.5" y="-265.5" font-family="Times,serif" font-size="10.00">ttg::finalize</text>
</a>
</g>
</g>
<!-- Node1&#45;&gt;Node5 -->
<g id="edge4_Node000001_Node000005" class="edge">
<title>Node1&#45;&gt;Node5</title>
<g id="a_edge4_Node000001_Node000005"><a xlink:title=" ">
<path fill="none" stroke="#63b8ff" d="M33.26,-221.53C44.07,-230.19 61.19,-242.7 78,-250 88.44,-254.53 100.16,-257.99 111.33,-260.6"/>
<polygon fill="#63b8ff" stroke="#63b8ff" points="110.87,-264.08 121.38,-262.77 112.34,-257.24 110.87,-264.08"/>
</a>
</g>
</g>
<!-- Node6 -->
<g id="Node000006" class="node">
<title>Node6</title>
<g id="a_Node000006"><a xlink:href="namespacettg.html#a5829b255a41f2e47fa0e27bb5c791824" target="_top" xlink:title=" ">
<polygon fill="white" stroke="#666666" points="403,-138.5 275,-138.5 275,-119.5 403,-119.5 403,-138.5"/>
<text text-anchor="middle" x="339" y="-126.5" font-family="Times,serif" font-size="10.00">ttg::get_default_world</text>
</a>
</g>
</g>
<!-- Node1&#45;&gt;Node6 -->
<g id="edge6_Node000001_Node000006" class="edge">
<title>Node1&#45;&gt;Node6</title>
<g id="a_edge6_Node000001_Node000006"><a xlink:title=" ">
<path fill="none" stroke="#63b8ff" d="M24.95,-202.32C31.22,-183.69 47.82,-143.26 78,-127 147.07,-89.79 242.19,-104.03 296.16,-117.01"/>
<polygon fill="#63b8ff" stroke="#63b8ff" points="295.51,-120.45 306.06,-119.48 297.21,-113.66 295.51,-120.45"/>
</a>
</g>
</g>
<!-- Node7 -->
<g id="Node000007" class="node">
<title>Node7</title>
<g id="a_Node000007"><a xlink:href="namespacettg.html#a19c06079af2c21be154b525ff21028d1" target="_top" xlink:title=" ">
<polygon fill="white" stroke="#666666" points="198.5,-203.5 118.5,-203.5 118.5,-184.5 198.5,-184.5 198.5,-203.5"/>
<text text-anchor="middle" x="158.5" y="-191.5" font-family="Times,serif" font-size="10.00">ttg::initialize</text>
</a>
</g>
</g>
<!-- Node1&#45;&gt;Node7 -->
<g id="edge7_Node000001_Node000007" class="edge">
<title>Node1&#45;&gt;Node7</title>
<g id="a_edge7_Node000001_Node000007"><a xlink:title=" ">
<path fill="none" stroke="#63b8ff" d="M42.29,-209.31C59.64,-207 85.33,-203.59 108.06,-200.57"/>
<polygon fill="#63b8ff" stroke="#63b8ff" points="108.8,-204 118.25,-199.21 107.87,-197.06 108.8,-204"/>
</a>
</g>
</g>
<!-- Node8 -->
<g id="Node000008" class="node">
<title>Node8</title>
<g id="a_Node000008"><a xlink:href="namespacettg.html#ade4672895f07e88909dab1644c69e60a" target="_top" xlink:title="Make the TTG tts executable. Applies.">
<polygon fill="white" stroke="#666666" points="239,-240.5 78,-240.5 78,-221.5 239,-221.5 239,-240.5"/>
<text text-anchor="middle" x="158.5" y="-228.5" font-family="Times,serif" font-size="10.00">ttg::make_graph_executable</text>
</a>
</g>
</g>
<!-- Node1&#45;&gt;Node8 -->
<g id="edge8_Node000001_Node000008" class="edge">
<title>Node1&#45;&gt;Node8</title>
<g id="a_edge8_Node000001_Node000008"><a xlink:title=" ">
<path fill="none" stroke="#63b8ff" d="M42.29,-214.84C52.56,-216.29 65.77,-218.14 79.55,-220.07"/>
<polygon fill="#63b8ff" stroke="#63b8ff" points="79.27,-223.56 89.66,-221.49 80.24,-216.63 79.27,-223.56"/>
</a>
</g>
</g>
<!-- Node10 -->
<g id="Node000010" class="node">
<title>Node10</title>
<g id="a_Node000010"><a xlink:href="namespacettg.html#aa3510e128b769afb53720d24fa83fb97" target="_top" xlink:title="atomically prints to std::cout a sequence of items (separated by ttg::print_separator) followed by st...">
<polygon fill="white" stroke="#666666" points="189.5,-24.5 127.5,-24.5 127.5,-5.5 189.5,-5.5 189.5,-24.5"/>
<text text-anchor="middle" x="158.5" y="-12.5" font-family="Times,serif" font-size="10.00">ttg::print</text>
</a>
</g>
</g>
<!-- Node1&#45;&gt;Node10 -->
<g id="edge10_Node000001_Node000010" class="edge">
<title>Node1&#45;&gt;Node10</title>
<g id="a_edge10_Node000001_Node000010"><a xlink:title=" ">
<path fill="none" stroke="#63b8ff" d="M21.9,-202.1C22.15,-171.85 27.26,-79.81 78,-33 88.63,-23.19 103.44,-18.35 117.4,-16.07"/>
<polygon fill="#63b8ff" stroke="#63b8ff" points="117.86,-19.54 127.35,-14.82 116.99,-12.59 117.86,-19.54"/>
</a>
</g>
</g>
<!-- Node12 -->
<g id="Node000012" class="node">
<title>Node12</title>
<g id="a_Node000012"><a xlink:href="namespacettg.html#a1b23b6cea5360627c9f1e1e9f421bcf3" target="_top" xlink:title="Sends a control message (message without an accompanying task id or a value) to the template tasks at...">
<polygon fill="white" stroke="#666666" points="189.5,-61.5 127.5,-61.5 127.5,-42.5 189.5,-42.5 189.5,-61.5"/>
<text text-anchor="middle" x="158.5" y="-49.5" font-family="Times,serif" font-size="10.00">ttg::send</text>
</a>
</g>
</g>
<!-- Node1&#45;&gt;Node12 -->
<g id="edge12_Node000001_Node000012" class="edge">
<title>Node1&#45;&gt;Node12</title>
<g id="a_edge12_Node000001_Node000012"><a xlink:title=" ">
<path fill="none" stroke="#63b8ff" d="M24.36,-202.23C30.09,-180.35 46.63,-126.75 78,-94 89.69,-81.79 105.72,-72.4 120.32,-65.62"/>
<polygon fill="#63b8ff" stroke="#63b8ff" points="121.89,-68.76 129.65,-61.54 119.08,-62.34 121.89,-68.76"/>
</a>
</g>
</g>
<!-- Node13 -->
<g id="Node000013" class="node">
<title>Node13</title>
<g id="a_Node000013"><a xlink:href="namespacettg__parsec.html#ae1b91b1ff1edc3fbc1e7e07d6c659c17" target="_top" xlink:title=" ">
<polygon fill="white" stroke="#666666" points="224,-166 93,-166 93,-136 224,-136 224,-166"/>
<text text-anchor="start" x="101" y="-154" font-family="Times,serif" font-size="10.00">ttg_parsec::ttg_default</text>
<text text-anchor="middle" x="158.5" y="-143" font-family="Times,serif" font-size="10.00">_execution_context</text>
</a>
</g>
</g>
<!-- Node1&#45;&gt;Node13 -->
<g id="edge14_Node000001_Node000013" class="edge">
<title>Node1&#45;&gt;Node13</title>
<g id="a_edge14_Node000001_Node000013"><a xlink:title=" ">
<path fill="none" stroke="#63b8ff" d="M34.78,-202.38C45.77,-194.45 62.3,-183.35 78,-176 82.91,-173.7 88.09,-171.54 93.36,-169.52"/>
<polygon fill="#63b8ff" stroke="#63b8ff" points="94.68,-172.76 102.88,-166.05 92.29,-166.18 94.68,-172.76"/>
</a>
</g>
</g>
<!-- Node5&#45;&gt;Node5 -->
<g id="edge5_Node000005_Node000005" class="edge">
<title>Node5&#45;&gt;Node5</title>
<g id="a_edge5_Node000005_Node000005"><a xlink:title=" ">
<path fill="none" stroke="#63b8ff" d="M137.54,-277.58C127.34,-286.23 134.33,-295.5 158.5,-295.5 173.99,-295.5 182.42,-291.7 183.8,-286.69"/>
<polygon fill="#63b8ff" stroke="#63b8ff" points="186.92,-285.11 179.46,-277.58 180.6,-288.12 186.92,-285.11"/>
</a>
</g>
</g>
<!-- Node9 -->
<g id="Node000009" class="node">
<title>Node9</title>
<g id="a_Node000009"><a xlink:href="namespacettg.html#ac9c4eec56ea2e0cbc9bf52e1129bfee5" target="_top" xlink:title=" ">
<polygon fill="white" stroke="#666666" points="395,-240.5 283,-240.5 283,-221.5 395,-221.5 395,-240.5"/>
<text text-anchor="middle" x="339" y="-228.5" font-family="Times,serif" font-size="10.00">ttg::make_traverse</text>
</a>
</g>
</g>
<!-- Node8&#45;&gt;Node9 -->
<g id="edge9_Node000008_Node000009" class="edge">
<title>Node8&#45;&gt;Node9</title>
<g id="a_edge9_Node000008_Node000009"><a xlink:title=" ">
<path fill="none" stroke="#63b8ff" d="M239.09,-231C250.29,-231 261.7,-231 272.6,-231"/>
<polygon fill="#63b8ff" stroke="#63b8ff" points="272.86,-234.5 282.86,-231 272.86,-227.5 272.86,-234.5"/>
</a>
</g>
</g>
<!-- Node11 -->
<g id="Node000011" class="node">
<title>Node11</title>
<g id="a_Node000011"><a xlink:href="namespacettg_1_1detail.html#a26e07486d5ef8eb5735a8975991a7693" target="_top" xlink:title=" ">
<polygon fill="white" stroke="#666666" points="387,-30 291,-30 291,0 387,0 387,-30"/>
<text text-anchor="start" x="299" y="-18" font-family="Times,serif" font-size="10.00">ttg::detail::print</text>
<text text-anchor="middle" x="339" y="-7" font-family="Times,serif" font-size="10.00">_helper</text>
</a>
</g>
</g>
<!-- Node10&#45;&gt;Node11 -->
<g id="edge11_Node000010_Node000011" class="edge">
<title>Node10&#45;&gt;Node11</title>
<g id="a_edge11_Node000010_Node000011"><a xlink:title=" ">
<path fill="none" stroke="#63b8ff" d="M189.78,-15C214.62,-15 250.5,-15 280.73,-15"/>
<polygon fill="#63b8ff" stroke="#63b8ff" points="280.75,-18.5 290.75,-15 280.75,-11.5 280.75,-18.5"/>
</a>
</g>
</g>
<!-- Node12&#45;&gt;Node12 -->
<g id="edge13_Node000012_Node000012" class="edge">
<title>Node12&#45;&gt;Node12</title>
<g id="a_edge13_Node000012_Node000012"><a xlink:title=" ">
<path fill="none" stroke="#63b8ff" d="M137.54,-61.58C127.34,-70.23 134.33,-79.5 158.5,-79.5 173.99,-79.5 182.42,-75.7 183.8,-70.69"/>
<polygon fill="#63b8ff" stroke="#63b8ff" points="186.92,-69.11 179.46,-61.58 180.6,-72.12 186.92,-69.11"/>
</a>
</g>
</g>
<!-- Node13&#45;&gt;Node6 -->
<g id="edge15_Node000013_Node000006" class="edge">
<title>Node13&#45;&gt;Node6</title>
<g id="a_edge15_Node000013_Node000006"><a xlink:title=" ">
<path fill="none" stroke="#63b8ff" d="M224.19,-143.03C237.31,-141.41 251.2,-139.7 264.59,-138.05"/>
<polygon fill="#63b8ff" stroke="#63b8ff" points="265.22,-141.5 274.72,-136.8 264.37,-134.55 265.22,-141.5"/>
</a>
</g>
</g>
</g>
</svg>
</svg>

<style type='text/css'>
<![CDATA[
[data-mouse-over-selected='false'] { opacity: 0.7; }
[data-mouse-over-selected='true']  { opacity: 1.0; }
]]>
</style>
<script type="application/ecmascript"><![CDATA[
document.addEventListener('DOMContentLoaded', (event) => {
  highlightEdges();
  highlightAdjacentNodes();
});
]]></script>
</svg>
