<?xml version="1.0" encoding="UTF-8" standalone="no"?>
<!DOCTYPE svg PUBLIC "-//W3C//DTD SVG 1.1//EN"
 "http://www.w3.org/Graphics/SVG/1.1/DTD/svg11.dtd">
<!-- Generated by graphviz version 2.43.0 (0)
 -->
<!-- Title: G Pages: 1 -->
<svg width="467pt" height="133pt"
 viewBox="0.00 0.00 467.29 133.08" xmlns="http://www.w3.org/2000/svg" xmlns:xlink="http://www.w3.org/1999/xlink">
<g id="graph0" class="graph" transform="scale(1 1) rotate(0) translate(4 129.08)">
<title>G</title>
<polygon fill="white" stroke="transparent" points="-4,4 -4,-129.08 463.29,-129.08 463.29,4 -4,4"/>
<!-- A -->
<g id="node1" class="node">
<title>A</title>
<ellipse fill="none" stroke="black" cx="29.25" cy="-53.08" rx="29.5" ry="18"/>
<text text-anchor="middle" x="29.25" y="-49.38" font-family="Times,serif" font-size="14.00">A(k)</text>
</g>
<!-- B0 -->
<g id="node2" class="node">
<title>B0</title>
<ellipse fill="none" stroke="black" cx="228.99" cy="-107.08" rx="41.69" ry="18"/>
<text text-anchor="middle" x="228.99" y="-103.38" font-family="Times,serif" font-size="14.00">B(k, 0)</text>
</g>
<!-- A&#45;&gt;B0 -->
<g id="edge2" class="edge">
<title>A&#45;&gt;B0</title>
<path fill="none" stroke="black" d="M53.5,-63.49C60.77,-66.52 68.89,-69.65 76.49,-72.08 110.81,-83.01 150.51,-92.05 180.66,-98.21"/>
<polygon fill="black" stroke="black" points="180,-101.65 190.49,-100.18 181.38,-94.78 180,-101.65"/>
<text text-anchor="middle" x="98.49" y="-86.88" font-family="Times,serif" font-size="14.00">n+2.0</text>
</g>
<!-- B1 -->
<g id="node3" class="node">
<title>B1</title>
<ellipse fill="none" stroke="black" cx="228.99" cy="-53.08" rx="41.69" ry="18"/>
<text text-anchor="middle" x="228.99" y="-49.38" font-family="Times,serif" font-size="14.00">B(k, 1)</text>
</g>
<!-- A&#45;&gt;B1 -->
<g id="edge1" class="edge">
<title>A&#45;&gt;B1</title>
<path fill="none" stroke="black" d="M58.58,-53.08C89.43,-53.08 139.39,-53.08 177.08,-53.08"/>
<polygon fill="black" stroke="black" points="177.36,-56.58 187.36,-53.08 177.36,-49.58 177.36,-56.58"/>
<text text-anchor="middle" x="98.49" y="-56.88" font-family="Times,serif" font-size="14.00">n+1.0</text>
</g>
<!-- C -->
<g id="node4" class="node">
<title>C</title>
<ellipse fill="none" stroke="black" cx="429.39" cy="-53.08" rx="29.8" ry="18"/>
<text text-anchor="middle" x="429.39" y="-49.38" font-family="Times,serif" font-size="14.00">C(k)</text>
</g>
<!-- B0&#45;&gt;C -->
<g id="edge3" class="edge">
<title>B0&#45;&gt;C</title>
<path fill="none" stroke="black" d="M267.48,-100.13C298.41,-94 343.27,-84.15 381.49,-72.08 386.07,-70.63 390.83,-68.94 395.48,-67.17"/>
<polygon fill="black" stroke="black" points="396.79,-70.41 404.8,-63.48 394.21,-63.91 396.79,-70.41"/>
<text text-anchor="middle" x="359.49" y="-86.88" font-family="Times,serif" font-size="14.00">n+1.0</text>
</g>
<!-- B1&#45;&gt;C -->
<g id="edge4" class="edge">
<title>B1&#45;&gt;C</title>
<path fill="none" stroke="black" d="M270.62,-53.08C305.35,-53.08 354.99,-53.08 389.28,-53.08"/>
<polygon fill="black" stroke="black" points="389.39,-56.58 399.39,-53.08 389.39,-49.58 389.39,-56.58"/>
<text text-anchor="middle" x="359.49" y="-56.88" font-family="Times,serif" font-size="14.00">n+1.0</text>
</g>
<!-- C&#45;&gt;A -->
<g id="edge5" class="edge">
<title>C&#45;&gt;A</title>
<path fill="none" stroke="black" d="M406.16,-41.7C384.64,-31.38 350.77,-16.9 319.49,-11.08 240.41,3.65 217.57,3.73 138.49,-11.08 111.52,-16.13 82.62,-27.68 61.47,-37.4"/>
<polygon fill="black" stroke="black" points="59.89,-34.28 52.34,-41.7 62.87,-40.61 59.89,-34.28"/>
<text text-anchor="middle" x="228.99" y="-14.88" font-family="Times,serif" font-size="14.00">n1+n2 iff n1+n2 &lt; 100.0</text>
</g>
</g>
</svg>
