<?xml version="1.0" encoding="UTF-8" standalone="no"?>
<!DOCTYPE svg PUBLIC "-//W3C//DTD SVG 1.1//EN"
 "http://www.w3.org/Graphics/SVG/1.1/DTD/svg11.dtd">
<!-- Generated by graphviz version 2.43.0 (0)
 -->
<!-- Title: G Pages: 1 -->
<!--zoomable 255 -->

<svg id="main" version="1.1" xmlns="http://www.w3.org/2000/svg" xmlns:xlink="http://www.w3.org/1999/xlink" xml:space="preserve" onload="init(evt)">
<style type="text/css"><![CDATA[
.node, .edge {opacity: 0.7;}
.node.selected, .edge.selected {opacity: 1;}
.edge:hover path { stroke: red; }
.edge:hover polygon { stroke: red; fill: red; }
]]></style>

<defs>
  <circle id="rim" cx="0" cy="0" r="7"/>
  <circle id="rim2" cx="0" cy="0" r="3.5"/>
  <g id="zoomPlus">
    <use xlink:href="#rim" fill="#404040"><set attributeName="fill" to="#808080" begin="zoomplus.mouseover" end="zoomplus.mouseout"/></use>
    <path d="M-4,0h8M0,-4v8" fill="none" stroke="white" stroke-width="1.5" pointer-events="none"/>
  </g>
  <g id="zoomMin">
    <use xlink:href="#rim" fill="#404040"><set attributeName="fill" to="#808080" begin="zoomminus.mouseover" end="zoomminus.mouseout"/></use>
    <path d="M-4,0h8" fill="none" stroke="white" stroke-width="1.5" pointer-events="none"/>
  </g>
  <g id="arrowUp" transform="translate(30 24)">
    <use xlink:href="#rim"/>
    <path pointer-events="none" fill="none" stroke="white" stroke-width="1.5" d="M0,-3.0v7 M-2.5,-0.5L0,-3.0L2.5,-0.5"/>
  </g>
  <g id="arrowRight" transform="rotate(90) translate(36 -43)">
    <use xlink:href="#rim"/>
    <path pointer-events="none" fill="none" stroke="white" stroke-width="1.5" d="M0,-3.0v7 M-2.5,-0.5L0,-3.0L2.5,-0.5"/>
  </g>
  <g id="arrowDown" transform="rotate(180) translate(-30 -48)">
    <use xlink:href="#rim"/>
    <path pointer-events="none" fill="none" stroke="white" stroke-width="1.5" d="M0,-3.0v7 M-2.5,-0.5L0,-3.0L2.5,-0.5"/>
  </g>
  <g id="arrowLeft" transform="rotate(270) translate(-36 17)">
    <use xlink:href="#rim"/>
    <path pointer-events="none" fill="none" stroke="white" stroke-width="1.5" d="M0,-3.0v7 M-2.5,-0.5L0,-3.0L2.5,-0.5"/>
  </g>
  <g id="resetDef">
    <use xlink:href="#rim2" fill="#404040"><set attributeName="fill" to="#808080" begin="reset.mouseover" end="reset.mouseout"/></use>
  </g>
</defs>
<script type="application/ecmascript">
var viewWidth = 527;
var viewHeight = 255;
</script>
<script type="application/ecmascript" xlink:href="svg.min.js"/>
<svg id="graph" class="graph">
<g id="viewport">
<title>G</title>
<polygon fill="white" stroke="transparent" points="-4,4 -4,-250.7 523.29,-250.7 523.29,4 -4,4"/>
<!-- A -->
<g id="node1" class="node">
<title>A</title>
<ellipse fill="none" stroke="black" cx="29.25" cy="-120.7" rx="29.5" ry="18"/>
<text text-anchor="middle" x="29.25" y="-117" font-family="Times,serif" font-size="14.00">A(k)</text>
</g>
<!-- B0 -->
<g id="node2" class="node">
<title>B0</title>
<ellipse fill="none" stroke="black" cx="258.99" cy="-228.7" rx="41.69" ry="18"/>
<text text-anchor="middle" x="258.99" y="-225" font-family="Times,serif" font-size="14.00">B(k, 0)</text>
</g>
<!-- A&#45;&gt;B0 -->
<g id="edge1" class="edge">
<title>A&#45;&gt;B0</title>
<path fill="none" stroke="black" d="M45.49,-135.8C54.24,-144.14 65.61,-154.44 76.49,-162.7 102.42,-182.39 108.41,-189.27 138.49,-201.7 160.91,-210.97 187.07,-217.33 209.19,-221.55"/>
<polygon fill="black" stroke="black" points="208.57,-224.99 219.04,-223.34 209.82,-218.11 208.57,-224.99"/>
<text text-anchor="middle" x="98.49" y="-196.5" font-family="Times,serif" font-size="14.00">n+1.0</text>
</g>
<!-- B1 -->
<g id="node3" class="node">
<title>B1</title>
<ellipse fill="none" stroke="black" cx="258.99" cy="-174.7" rx="41.69" ry="18"/>
<text text-anchor="middle" x="258.99" y="-171" font-family="Times,serif" font-size="14.00">B(k, 1)</text>
</g>
<!-- A&#45;&gt;B1 -->
<g id="edge2" class="edge">
<title>A&#45;&gt;B1</title>
<path fill="none" stroke="black" d="M55.59,-128.76C62.35,-130.8 69.68,-132.92 76.49,-134.7 121.87,-146.55 174.22,-157.84 211,-165.38"/>
<polygon fill="black" stroke="black" points="210.45,-168.84 220.95,-167.41 211.85,-161.98 210.45,-168.84"/>
<text text-anchor="middle" x="98.49" y="-147.5" font-family="Times,serif" font-size="14.00">n+2.0</text>
</g>
<!-- Bd -->
<g id="node4" class="node">
<title>Bd</title>
<ellipse fill="none" stroke="black" cx="258.99" cy="-120.7" rx="27" ry="18"/>
<text text-anchor="middle" x="258.99" y="-117" font-family="Times,serif" font-size="14.00">...</text>
</g>
<!-- A&#45;&gt;Bd -->
<g id="edge3" class="edge">
<title>A&#45;&gt;Bd</title>
<path fill="none" stroke="transparent" d="M58.63,-120.7C99.81,-120.7 176.13,-120.7 221.46,-120.7"/>
<polygon fill="transparent" stroke="transparent" points="221.73,-124.2 231.73,-120.7 221.73,-117.2 221.73,-124.2"/>
</g>
<!-- Bn -->
<g id="node5" class="node">
<title>Bn</title>
<ellipse fill="none" stroke="black" cx="258.99" cy="-66.7" rx="41.69" ry="18"/>
<text text-anchor="middle" x="258.99" y="-63" font-family="Times,serif" font-size="14.00">B(k, n)</text>
</g>
<!-- A&#45;&gt;Bn -->
<g id="edge4" class="edge">
<title>A&#45;&gt;Bn</title>
<path fill="none" stroke="black" d="M53.45,-110.11C60.72,-107.08 68.84,-103.99 76.49,-101.7 120.48,-88.57 171.98,-79.19 208.87,-73.46"/>
<polygon fill="black" stroke="black" points="209.5,-76.9 218.86,-71.94 208.45,-69.98 209.5,-76.9"/>
<text text-anchor="middle" x="98.49" y="-105.5" font-family="Times,serif" font-size="14.00">n+p</text>
</g>
<!-- Ci -->
<g id="node6" class="node">
<title>Ci</title>
<ellipse fill="none" stroke="black" cx="489.39" cy="-99.7" rx="20.51" ry="16.03"/>
<text text-anchor="middle" x="489.39" y="-96" font-family="Times,serif" font-size="14.00">+</text>
</g>
<!-- B0&#45;&gt;Ci -->
<g id="edge5" class="edge">
<title>B0&#45;&gt;Ci</title>
<path fill="none" stroke="black" d="M299.08,-223.65C323,-219.64 353.83,-212.82 379.49,-201.7 410.04,-188.47 417.17,-182.42 441.49,-159.7 453.35,-148.63 464.62,-134.38 473.13,-122.55"/>
<polygon fill="black" stroke="black" points="476.21,-124.27 479.08,-114.07 470.47,-120.25 476.21,-124.27"/>
<text text-anchor="middle" x="419.49" y="-196.5" font-family="Times,serif" font-size="14.00">n+1.0</text>
</g>
<!-- B1&#45;&gt;Ci -->
<g id="edge6" class="edge">
<title>B1&#45;&gt;Ci</title>
<path fill="none" stroke="black" d="M297.91,-168.08C321.66,-163.46 352.73,-156.53 379.49,-147.7 408.76,-138.05 440.89,-123.35 462.61,-112.76"/>
<polygon fill="black" stroke="black" points="464.4,-115.78 471.81,-108.22 461.3,-109.51 464.4,-115.78"/>
<text text-anchor="middle" x="419.49" y="-144.5" font-family="Times,serif" font-size="14.00">n+1.0</text>
</g>
<!-- Bn&#45;&gt;Ci -->
<g id="edge7" class="edge">
<title>Bn&#45;&gt;Ci</title>
<path fill="none" stroke="black" d="M298.74,-72.3C344.07,-78.85 418.11,-89.55 458.98,-95.45"/>
<polygon fill="black" stroke="black" points="458.7,-98.95 469.1,-96.92 459.7,-92.02 458.7,-98.95"/>
<text text-anchor="middle" x="419.49" y="-95.5" font-family="Times,serif" font-size="14.00">n+1.0</text>
</g>
<!-- C -->
<g id="node7" class="node">
<title>C</title>
<ellipse fill="none" stroke="black" cx="489.39" cy="-24.7" rx="29.8" ry="18"/>
<text text-anchor="middle" x="489.39" y="-21" font-family="Times,serif" font-size="14.00">C(k)</text>
</g>
<!-- Ci&#45;&gt;C -->
<g id="edge8" class="edge">
<title>Ci&#45;&gt;C</title>
<path fill="none" stroke="black" d="M489.39,-83.27C489.39,-73.17 489.39,-63.07 489.39,-52.97"/>
<polygon fill="black" stroke="black" points="492.89,-52.87 489.39,-42.87 485.89,-52.87 492.89,-52.87"/>
</g>
<!-- C&#45;&gt;A -->
<g id="edge9" class="edge">
<title>C&#45;&gt;A</title>
<path fill="none" stroke="black" d="M461.34,-18.42C401,-5.72 251.8,18.3 138.49,-24.7 100.89,-38.98 67.98,-72.95 48.6,-96.4"/>
<polygon fill="black" stroke="black" points="45.86,-94.22 42.33,-104.2 51.32,-98.6 45.86,-94.22"/>
<text text-anchor="middle" x="258.99" y="-28.5" font-family="Times,serif" font-size="14.00">Sum(input) if Sum(input) &lt; 100.0</text>
</g>
</g>
</svg>

<g id="navigator" transform="translate(0 0)" fill="#404254">
  <rect fill="#f2f5e9" fill-opacity="0.5" stroke="#606060" stroke-width=".5" x="0" y="0" width="60" height="60"/>
  <use id="zoomplus" xlink:href="#zoomPlus" x="17" y="9" onmousedown="handleZoom(evt,'in')"/>
  <use id="zoomminus" xlink:href="#zoomMin" x="42" y="9" onmousedown="handleZoom(evt,'out')"/>
  <use id="reset" xlink:href="#resetDef" x="30" y="36" onmousedown="handleReset()"/>
   <use id="arrowup" xlink:href="#arrowUp" x="0" y="0" onmousedown="handlePan(0,-1)"/>
  <use id="arrowright" xlink:href="#arrowRight" x="0" y="0" onmousedown="handlePan(1,0)"/>
  <use id="arrowdown" xlink:href="#arrowDown" x="0" y="0" onmousedown="handlePan(0,1)"/>
  <use id="arrowleft" xlink:href="#arrowLeft" x="0" y="0" onmousedown="handlePan(-1,0)"/>
</g>
<svg viewBox="0 0 15 15" width="100%" height="30px" preserveAspectRatio="xMaxYMin meet">
 <g id="arrow_out" transform="scale(0.3 0.3)">
  <a xlink:href="dot_reducing_org.svg" target="_base">
   <rect id="button" ry="5" rx="5" y="6" x="6" height="38" width="38"
        fill="#f2f5e9" fill-opacity="0.5" stroke="#606060" stroke-width="1.0"/>
   <path id="arrow"
     d="M 11.500037,31.436501 C 11.940474,20.09759 22.043105,11.32322 32.158766,21.979434 L 37.068811,17.246167 C 37.068811,17.246167 37.088388,32 37.088388,32 L 22.160133,31.978069 C 22.160133,31.978069 26.997745,27.140456 26.997745,27.140456 C 18.528582,18.264221 13.291696,25.230495 11.500037,31.436501 z"
     style="fill:#404040;"/>
  </a>
 </g>
</svg>

<style type='text/css'>
<![CDATA[
[data-mouse-over-selected='false'] { opacity: 0.7; }
[data-mouse-over-selected='true']  { opacity: 1.0; }
]]>
</style>
<script type="application/ecmascript"><![CDATA[
document.addEventListener('DOMContentLoaded', (event) => {
  highlightEdges();
  highlightAdjacentNodes();
});
]]></script>
</svg>
