<?xml version="1.0" encoding="UTF-8" standalone="no"?>
<!DOCTYPE svg PUBLIC "-//W3C//DTD SVG 1.1//EN"
 "http://www.w3.org/Graphics/SVG/1.1/DTD/svg11.dtd">
<!-- Generated by graphviz version 2.43.0 (0)
 -->
<!-- Title: ttg/ttg/env.h Pages: 1 -->
<svg width="764pt" height="82pt"
 viewBox="0.00 0.00 764.00 82.00" xmlns="http://www.w3.org/2000/svg" xmlns:xlink="http://www.w3.org/1999/xlink">
<g id="graph0" class="graph" transform="scale(1 1) rotate(0) translate(4 78)">
<title>ttg/ttg/env.h</title>
<!-- Node1 -->
<g id="Node000001" class="node">
<title>Node1</title>
<g id="a_Node000001"><a xlink:title=" ">
<polygon fill="#999999" stroke="#666666" points="556.5,-74 478.5,-74 478.5,-55 556.5,-55 556.5,-74"/>
<text text-anchor="middle" x="517.5" y="-62" font-family="Times,serif" font-size="10.00">ttg/ttg/env.h</text>
</a>
</g>
</g>
<!-- Node2 -->
<g id="Node000002" class="node">
<title>Node2</title>
<g id="a_Node000002"><a xlink:title=" ">
<polygon fill="#e0e0e0" stroke="#999999" points="147,-19 0,-19 0,0 147,0 147,-19"/>
<text text-anchor="middle" x="73.5" y="-7" font-family="Times,serif" font-size="10.00">umpire_cxx_allocator.hpp</text>
</a>
</g>
</g>
<!-- Node1&#45;&gt;Node2 -->
<g id="edge1_Node000001_Node000002" class="edge">
<title>Node1&#45;&gt;Node2</title>
<g id="a_edge1_Node000001_Node000002"><a xlink:title=" ">
<path fill="none" stroke="#63b8ff" d="M478.49,-58.84C406.34,-50.23 250.7,-31.65 154.76,-20.2"/>
<polygon fill="#63b8ff" stroke="#63b8ff" points="155.15,-16.72 144.8,-19.01 154.32,-23.67 155.15,-16.72"/>
</a>
</g>
</g>
<!-- Node3 -->
<g id="Node000003" class="node">
<title>Node3</title>
<g id="a_Node000003"><a xlink:title=" ">
<polygon fill="#e0e0e0" stroke="#999999" points="340,-19 165,-19 165,0 340,0 340,-19"/>
<text text-anchor="middle" x="252.5" y="-7" font-family="Times,serif" font-size="10.00">umpire/strategy/QuickPool.hpp</text>
</a>
</g>
</g>
<!-- Node1&#45;&gt;Node3 -->
<g id="edge2_Node000001_Node000003" class="edge">
<title>Node1&#45;&gt;Node3</title>
<g id="a_edge2_Node000001_Node000003"><a xlink:title=" ">
<path fill="none" stroke="#63b8ff" d="M478.4,-55.68C432.51,-46.5 356.2,-31.24 305.14,-21.03"/>
<polygon fill="#63b8ff" stroke="#63b8ff" points="305.77,-17.59 295.28,-19.06 304.4,-24.45 305.77,-17.59"/>
</a>
</g>
</g>
<!-- Node4 -->
<g id="Node000004" class="node">
<title>Node4</title>
<g id="a_Node000004"><a xlink:title=" ">
<polygon fill="#e0e0e0" stroke="#999999" points="540.5,-19 358.5,-19 358.5,0 540.5,0 540.5,-19"/>
<text text-anchor="middle" x="449.5" y="-7" font-family="Times,serif" font-size="10.00">umpire/strategy/SizeLimiter.hpp</text>
</a>
</g>
</g>
<!-- Node1&#45;&gt;Node4 -->
<g id="edge3_Node000001_Node000004" class="edge">
<title>Node1&#45;&gt;Node4</title>
<g id="a_edge3_Node000001_Node000004"><a xlink:title=" ">
<path fill="none" stroke="#63b8ff" d="M506.57,-54.98C496.42,-47.07 481.08,-35.11 468.85,-25.58"/>
<polygon fill="#63b8ff" stroke="#63b8ff" points="470.66,-22.56 460.62,-19.17 466.36,-28.08 470.66,-22.56"/>
</a>
</g>
</g>
<!-- Node5 -->
<g id="Node000005" class="node">
<title>Node5</title>
<g id="a_Node000005"><a xlink:title=" ">
<polygon fill="#e0e0e0" stroke="#999999" points="612,-19 559,-19 559,0 612,0 612,-19"/>
<text text-anchor="middle" x="585.5" y="-7" font-family="Times,serif" font-size="10.00">cassert</text>
</a>
</g>
</g>
<!-- Node1&#45;&gt;Node5 -->
<g id="edge4_Node000001_Node000005" class="edge">
<title>Node1&#45;&gt;Node5</title>
<g id="a_edge4_Node000001_Node000005"><a xlink:title=" ">
<path fill="none" stroke="#63b8ff" d="M528.43,-54.98C538.58,-47.07 553.92,-35.11 566.15,-25.58"/>
<polygon fill="#63b8ff" stroke="#63b8ff" points="568.64,-28.08 574.38,-19.17 564.34,-22.56 568.64,-28.08"/>
</a>
</g>
</g>
<!-- Node6 -->
<g id="Node000006" class="node">
<title>Node6</title>
<g id="a_Node000006"><a xlink:title=" ">
<polygon fill="#e0e0e0" stroke="#999999" points="689,-19 630,-19 630,0 689,0 689,-19"/>
<text text-anchor="middle" x="659.5" y="-7" font-family="Times,serif" font-size="10.00">memory</text>
</a>
</g>
</g>
<!-- Node1&#45;&gt;Node6 -->
<g id="edge5_Node000001_Node000006" class="edge">
<title>Node1&#45;&gt;Node6</title>
<g id="a_edge5_Node000001_Node000006"><a xlink:title=" ">
<path fill="none" stroke="#63b8ff" d="M540.31,-54.98C563.67,-46.27 600.2,-32.63 626.67,-22.75"/>
<polygon fill="#63b8ff" stroke="#63b8ff" points="628.13,-25.95 636.27,-19.17 625.68,-19.39 628.13,-25.95"/>
</a>
</g>
</g>
<!-- Node7 -->
<g id="Node000007" class="node">
<title>Node7</title>
<g id="a_Node000007"><a xlink:title=" ">
<polygon fill="#e0e0e0" stroke="#999999" points="756,-19 707,-19 707,0 756,0 756,-19"/>
<text text-anchor="middle" x="731.5" y="-7" font-family="Times,serif" font-size="10.00">mutex</text>
</a>
</g>
</g>
<!-- Node1&#45;&gt;Node7 -->
<g id="edge6_Node000001_Node000007" class="edge">
<title>Node1&#45;&gt;Node7</title>
<g id="a_edge6_Node000001_Node000007"><a xlink:title=" ">
<path fill="none" stroke="#63b8ff" d="M552.9,-54.92C587.35,-46.54 641.41,-33.32 696.98,-19.36"/>
<polygon fill="#63b8ff" stroke="#63b8ff" points="698.16,-22.68 707,-16.84 696.45,-15.89 698.16,-22.68"/>
</a>
</g>
</g>
</g>
</svg>
