<?xml version="1.0" encoding="UTF-8" standalone="no"?>
<!DOCTYPE svg PUBLIC "-//W3C//DTD SVG 1.1//EN"
 "http://www.w3.org/Graphics/SVG/1.1/DTD/svg11.dtd">
<!-- Generated by graphviz version 2.43.0 (0)
 -->
<!-- Title: ttg/ttg/execution.h Pages: 1 -->
<svg width="1522pt" height="324pt"
 viewBox="0.00 0.00 1522.00 324.00" xmlns="http://www.w3.org/2000/svg" xmlns:xlink="http://www.w3.org/1999/xlink">
<g id="graph0" class="graph" transform="scale(1 1) rotate(0) translate(4 320)">
<title>ttg/ttg/execution.h</title>
<!-- Node1 -->
<g id="Node000001" class="node">
<title>Node1</title>
<g id="a_Node000001"><a xlink:title=" ">
<polygon fill="#999999" stroke="#666666" points="666,-316 556,-316 556,-297 666,-297 666,-316"/>
<text text-anchor="middle" x="611" y="-304" font-family="Times,serif" font-size="10.00">ttg/ttg/execution.h</text>
</a>
</g>
</g>
<!-- Node2 -->
<g id="Node000002" class="node">
<title>Node2</title>
<g id="a_Node000002"><a xlink:href="device_2device_8h.html" target="_top" xlink:title=" ">
<polygon fill="white" stroke="#666666" points="1163,-261 1033,-261 1033,-242 1163,-242 1163,-261"/>
<text text-anchor="middle" x="1098" y="-249" font-family="Times,serif" font-size="10.00">ttg/ttg/device/device.h</text>
</a>
</g>
</g>
<!-- Node1&#45;&gt;Node2 -->
<g id="edge1_Node000001_Node000002" class="edge">
<title>Node1&#45;&gt;Node2</title>
<g id="a_edge1_Node000001_Node000002"><a xlink:title=" ">
<path fill="none" stroke="#63b8ff" d="M676.54,-298.37C769.72,-288.23 939.5,-269.75 1032.61,-259.62"/>
<polygon fill="#63b8ff" stroke="#63b8ff" points="675.95,-294.91 666.39,-299.47 676.71,-301.87 675.95,-294.91"/>
</a>
</g>
</g>
<!-- Node12 -->
<g id="Node000012" class="node">
<title>Node12</title>
<g id="a_Node000012"><a xlink:href="ttg_2parsec_2ttg_8h.html" target="_top" xlink:title=" ">
<polygon fill="white" stroke="#666666" points="151,-19 39,-19 39,0 151,0 151,-19"/>
<text text-anchor="middle" x="95" y="-7" font-family="Times,serif" font-size="10.00">ttg/ttg/parsec/ttg.h</text>
</a>
</g>
</g>
<!-- Node1&#45;&gt;Node12 -->
<g id="edge23_Node000001_Node000012" class="edge">
<title>Node1&#45;&gt;Node12</title>
<g id="a_edge23_Node000001_Node000012"><a xlink:title=" ">
<path fill="none" stroke="#63b8ff" d="M545.94,-300.77C388.53,-288.45 0,-252.48 0,-197.5 0,-197.5 0,-197.5 0,-140.5 0,-85.43 56.26,-38.13 82.19,-19.26"/>
<polygon fill="#63b8ff" stroke="#63b8ff" points="545.73,-304.26 555.97,-301.55 546.27,-297.28 545.73,-304.26"/>
</a>
</g>
</g>
<!-- Node18 -->
<g id="Node000018" class="node">
<title>Node18</title>
<g id="a_Node000018"><a xlink:href="runtimes_8h.html" target="_top" xlink:title=" ">
<polygon fill="white" stroke="#666666" points="664.5,-206 557.5,-206 557.5,-187 664.5,-187 664.5,-206"/>
<text text-anchor="middle" x="611" y="-194" font-family="Times,serif" font-size="10.00">ttg/ttg/runtimes.h</text>
</a>
</g>
</g>
<!-- Node1&#45;&gt;Node18 -->
<g id="edge24_Node000001_Node000018" class="edge">
<title>Node1&#45;&gt;Node18</title>
<g id="a_edge24_Node000001_Node000018"><a xlink:title=" ">
<path fill="none" stroke="#63b8ff" d="M611,-286.48C611,-262.84 611,-223.5 611,-206.16"/>
<polygon fill="#63b8ff" stroke="#63b8ff" points="607.5,-286.66 611,-296.66 614.5,-286.66 607.5,-286.66"/>
</a>
</g>
</g>
<!-- Node3 -->
<g id="Node000003" class="node">
<title>Node3</title>
<g id="a_Node000003"><a xlink:href="ttg_8h.html" target="_top" xlink:title=" ">
<polygon fill="white" stroke="#666666" points="753,-151 695,-151 695,-132 753,-132 753,-151"/>
<text text-anchor="middle" x="724" y="-139" font-family="Times,serif" font-size="10.00">ttg/ttg.h</text>
</a>
</g>
</g>
<!-- Node2&#45;&gt;Node3 -->
<g id="edge2_Node000002_Node000003" class="edge">
<title>Node2&#45;&gt;Node3</title>
<g id="a_edge2_Node000002_Node000003"><a xlink:title=" ">
<path fill="none" stroke="#63b8ff" d="M1058.73,-239.16C983.32,-217.38 819.78,-170.16 753.15,-150.92"/>
<polygon fill="#63b8ff" stroke="#63b8ff" points="1057.76,-242.52 1068.34,-241.94 1059.7,-235.8 1057.76,-242.52"/>
</a>
</g>
</g>
<!-- Node2&#45;&gt;Node12 -->
<g id="edge22_Node000002_Node000012" class="edge">
<title>Node2&#45;&gt;Node12</title>
<g id="a_edge22_Node000002_Node000012"><a xlink:title=" ">
<path fill="none" stroke="#63b8ff" d="M1022.75,-247.63C829.54,-239.46 320.23,-212.54 164,-151 124.19,-135.32 104.81,-133.92 85,-96 71.72,-70.57 83.98,-35.19 90.95,-19.09"/>
<polygon fill="#63b8ff" stroke="#63b8ff" points="1022.67,-251.13 1032.81,-248.05 1022.96,-244.14 1022.67,-251.13"/>
</a>
</g>
</g>
<!-- Node13 -->
<g id="Node000013" class="node">
<title>Node13</title>
<g id="a_Node000013"><a xlink:href="madness_2buffer_8h.html" target="_top" xlink:title=" ">
<polygon fill="white" stroke="#666666" points="1231,-206 1091,-206 1091,-187 1231,-187 1231,-206"/>
<text text-anchor="middle" x="1161" y="-194" font-family="Times,serif" font-size="10.00">ttg/ttg/madness/buffer.h</text>
</a>
</g>
</g>
<!-- Node2&#45;&gt;Node13 -->
<g id="edge12_Node000002_Node000013" class="edge">
<title>Node2&#45;&gt;Node13</title>
<g id="a_edge12_Node000002_Node000013"><a xlink:title=" ">
<path fill="none" stroke="#63b8ff" d="M1116.04,-235.32C1127.27,-225.87 1141.32,-214.06 1150.69,-206.17"/>
<polygon fill="#63b8ff" stroke="#63b8ff" points="1113.52,-232.87 1108.12,-241.98 1118.03,-238.23 1113.52,-232.87"/>
</a>
</g>
</g>
<!-- Node15 -->
<g id="Node000015" class="node">
<title>Node15</title>
<g id="a_Node000015"><a xlink:href="parsec_2buffer_8h.html" target="_top" xlink:title=" ">
<polygon fill="white" stroke="#666666" points="1428,-151 1300,-151 1300,-132 1428,-132 1428,-151"/>
<text text-anchor="middle" x="1364" y="-139" font-family="Times,serif" font-size="10.00">ttg/ttg/parsec/buffer.h</text>
</a>
</g>
</g>
<!-- Node2&#45;&gt;Node15 -->
<g id="edge16_Node000002_Node000015" class="edge">
<title>Node2&#45;&gt;Node15</title>
<g id="a_edge16_Node000002_Node000015"><a xlink:title=" ">
<path fill="none" stroke="#63b8ff" d="M1140.38,-239.26C1168.96,-231.18 1207.28,-219.39 1240,-206 1280.74,-189.33 1326.23,-164.27 1349.12,-151.17"/>
<polygon fill="#63b8ff" stroke="#63b8ff" points="1139.39,-235.9 1130.7,-241.96 1141.27,-242.64 1139.39,-235.9"/>
</a>
</g>
</g>
<!-- Node17 -->
<g id="Node000017" class="node">
<title>Node17</title>
<g id="a_Node000017"><a xlink:href="parsec_2device_8h.html" target="_top" xlink:title=" ">
<polygon fill="white" stroke="#666666" points="1426.5,-206 1295.5,-206 1295.5,-187 1426.5,-187 1426.5,-206"/>
<text text-anchor="middle" x="1361" y="-194" font-family="Times,serif" font-size="10.00">ttg/ttg/parsec/device.h</text>
</a>
</g>
</g>
<!-- Node2&#45;&gt;Node17 -->
<g id="edge20_Node000002_Node000017" class="edge">
<title>Node2&#45;&gt;Node17</title>
<g id="a_edge20_Node000002_Node000017"><a xlink:title=" ">
<path fill="none" stroke="#63b8ff" d="M1150.09,-240C1199.39,-230.07 1272.5,-215.33 1318.41,-206.08"/>
<polygon fill="#63b8ff" stroke="#63b8ff" points="1149.37,-236.58 1140.26,-241.98 1150.75,-243.44 1149.37,-236.58"/>
</a>
</g>
</g>
<!-- Node4 -->
<g id="Node000004" class="node">
<title>Node4</title>
<g id="a_Node000004"><a xlink:href="fibonacci_8cc.html" target="_top" xlink:title=" ">
<polygon fill="white" stroke="#666666" points="726,-90.5 598,-90.5 598,-60.5 726,-60.5 726,-90.5"/>
<text text-anchor="start" x="606" y="-78.5" font-family="Times,serif" font-size="10.00">doc/dox/dev/devsamp</text>
<text text-anchor="middle" x="662" y="-67.5" font-family="Times,serif" font-size="10.00">/fibonacci/fibonacci.cc</text>
</a>
</g>
</g>
<!-- Node3&#45;&gt;Node4 -->
<g id="edge3_Node000003_Node000004" class="edge">
<title>Node3&#45;&gt;Node4</title>
<g id="a_edge3_Node000003_Node000004"><a xlink:title=" ">
<path fill="none" stroke="#63b8ff" d="M708.65,-124.66C698.62,-114.31 685.64,-100.9 675.91,-90.86"/>
<polygon fill="#63b8ff" stroke="#63b8ff" points="706.17,-127.12 715.64,-131.87 711.19,-122.25 706.17,-127.12"/>
</a>
</g>
</g>
<!-- Node5 -->
<g id="Node000005" class="node">
<title>Node5</title>
<g id="a_Node000005"><a xlink:href="fibonacci__device_8cc.html" target="_top" xlink:title=" ">
<polygon fill="white" stroke="#666666" points="872,-96 744,-96 744,-55 872,-55 872,-96"/>
<text text-anchor="start" x="752" y="-84" font-family="Times,serif" font-size="10.00">doc/dox/dev/devsamp</text>
<text text-anchor="start" x="752" y="-73" font-family="Times,serif" font-size="10.00">/fibonacci/fibonacci</text>
<text text-anchor="middle" x="808" y="-62" font-family="Times,serif" font-size="10.00">_device.cc</text>
</a>
</g>
</g>
<!-- Node3&#45;&gt;Node5 -->
<g id="edge4_Node000003_Node000005" class="edge">
<title>Node3&#45;&gt;Node5</title>
<g id="a_edge4_Node000003_Node000005"><a xlink:title=" ">
<path fill="none" stroke="#63b8ff" d="M743.46,-125.67C755.04,-116.85 769.87,-105.55 782.39,-96.01"/>
<polygon fill="#63b8ff" stroke="#63b8ff" points="741.16,-123.02 735.33,-131.87 745.4,-128.59 741.16,-123.02"/>
</a>
</g>
</g>
<!-- Node6 -->
<g id="Node000006" class="node">
<title>Node6</title>
<g id="a_Node000006"><a xlink:href="helloworld_8cpp.html" target="_top" xlink:title=" ">
<polygon fill="white" stroke="#666666" points="1041.5,-90.5 890.5,-90.5 890.5,-60.5 1041.5,-60.5 1041.5,-90.5"/>
<text text-anchor="start" x="898.5" y="-78.5" font-family="Times,serif" font-size="10.00">doc/dox/dev/devsamp</text>
<text text-anchor="middle" x="966" y="-67.5" font-family="Times,serif" font-size="10.00">/helloworld/helloworld.cpp</text>
</a>
</g>
</g>
<!-- Node3&#45;&gt;Node6 -->
<g id="edge5_Node000003_Node000006" class="edge">
<title>Node3&#45;&gt;Node6</title>
<g id="a_edge5_Node000003_Node000006"><a xlink:title=" ">
<path fill="none" stroke="#63b8ff" d="M763,-130.19C803.64,-119.44 867.6,-102.52 912.85,-90.56"/>
<polygon fill="#63b8ff" stroke="#63b8ff" points="761.96,-126.84 753.19,-132.78 763.75,-133.61 761.96,-126.84"/>
</a>
</g>
</g>
<!-- Node7 -->
<g id="Node000007" class="node">
<title>Node7</title>
<g id="a_Node000007"><a xlink:href="distributed_8cc.html" target="_top" xlink:title=" ">
<polygon fill="white" stroke="#666666" points="1194,-90.5 1060,-90.5 1060,-60.5 1194,-60.5 1194,-90.5"/>
<text text-anchor="start" x="1068" y="-78.5" font-family="Times,serif" font-size="10.00">doc/dox/user/examples</text>
<text text-anchor="middle" x="1127" y="-67.5" font-family="Times,serif" font-size="10.00">/distributed.cc</text>
</a>
</g>
</g>
<!-- Node3&#45;&gt;Node7 -->
<g id="edge6_Node000003_Node000007" class="edge">
<title>Node3&#45;&gt;Node7</title>
<g id="a_edge6_Node000003_Node000007"><a xlink:title=" ">
<path fill="none" stroke="#63b8ff" d="M763.46,-136.56C825,-130.09 947.43,-115.92 1050,-96 1058.12,-94.42 1066.67,-92.51 1074.99,-90.51"/>
<polygon fill="#63b8ff" stroke="#63b8ff" points="762.99,-133.09 753.4,-137.61 763.71,-140.05 762.99,-133.09"/>
</a>
</g>
</g>
<!-- Node8 -->
<g id="Node000008" class="node">
<title>Node8</title>
<g id="a_Node000008"><a xlink:href="iterative_8cc.html" target="_top" xlink:title=" ">
<polygon fill="white" stroke="#666666" points="276,-90.5 142,-90.5 142,-60.5 276,-60.5 276,-90.5"/>
<text text-anchor="start" x="150" y="-78.5" font-family="Times,serif" font-size="10.00">doc/dox/user/examples</text>
<text text-anchor="middle" x="209" y="-67.5" font-family="Times,serif" font-size="10.00">/iterative.cc</text>
</a>
</g>
</g>
<!-- Node3&#45;&gt;Node8 -->
<g id="edge7_Node000003_Node000008" class="edge">
<title>Node3&#45;&gt;Node8</title>
<g id="a_edge7_Node000003_Node000008"><a xlink:title=" ">
<path fill="none" stroke="#63b8ff" d="M684.73,-132.19C506.8,-105.7 457.73,-125.73 285,-96 276.54,-94.54 267.65,-92.62 259.04,-90.56"/>
<polygon fill="#63b8ff" stroke="#63b8ff" points="684.27,-135.66 694.69,-133.7 685.32,-128.74 684.27,-135.66"/>
</a>
</g>
</g>
<!-- Node9 -->
<g id="Node000009" class="node">
<title>Node9</title>
<g id="a_Node000009"><a xlink:href="reducing_8cc.html" target="_top" xlink:title=" ">
<polygon fill="white" stroke="#666666" points="428,-90.5 294,-90.5 294,-60.5 428,-60.5 428,-90.5"/>
<text text-anchor="start" x="302" y="-78.5" font-family="Times,serif" font-size="10.00">doc/dox/user/examples</text>
<text text-anchor="middle" x="361" y="-67.5" font-family="Times,serif" font-size="10.00">/reducing.cc</text>
</a>
</g>
</g>
<!-- Node3&#45;&gt;Node9 -->
<g id="edge8_Node000003_Node000009" class="edge">
<title>Node3&#45;&gt;Node9</title>
<g id="a_edge8_Node000003_Node000009"><a xlink:title=" ">
<path fill="none" stroke="#63b8ff" d="M684.74,-132.09C573.69,-112.43 543.12,-117.25 437,-96 429.12,-94.42 420.83,-92.54 412.75,-90.57"/>
<polygon fill="#63b8ff" stroke="#63b8ff" points="684.2,-135.55 694.66,-133.87 685.43,-128.66 684.2,-135.55"/>
</a>
</g>
</g>
<!-- Node10 -->
<g id="Node000010" class="node">
<title>Node10</title>
<g id="a_Node000010"><a xlink:href="simple_8cc.html" target="_top" xlink:title=" ">
<polygon fill="white" stroke="#666666" points="580,-90.5 446,-90.5 446,-60.5 580,-60.5 580,-90.5"/>
<text text-anchor="start" x="454" y="-78.5" font-family="Times,serif" font-size="10.00">doc/dox/user/examples</text>
<text text-anchor="middle" x="513" y="-67.5" font-family="Times,serif" font-size="10.00">/simple.cc</text>
</a>
</g>
</g>
<!-- Node3&#45;&gt;Node10 -->
<g id="edge9_Node000003_Node000010" class="edge">
<title>Node3&#45;&gt;Node10</title>
<g id="a_edge9_Node000003_Node000010"><a xlink:title=" ">
<path fill="none" stroke="#63b8ff" d="M685.58,-128.85C650.11,-118.09 597.37,-102.09 559.54,-90.62"/>
<polygon fill="#63b8ff" stroke="#63b8ff" points="684.96,-132.32 695.54,-131.87 686.99,-125.62 684.96,-132.32"/>
</a>
</g>
</g>
<!-- Node11 -->
<g id="Node000011" class="node">
<title>Node11</title>
<g id="a_Node000011"><a xlink:href="ttg_2madness_2ttg_8h.html" target="_top" xlink:title=" ">
<polygon fill="white" stroke="#666666" points="1336,-85 1212,-85 1212,-66 1336,-66 1336,-85"/>
<text text-anchor="middle" x="1274" y="-73" font-family="Times,serif" font-size="10.00">ttg/ttg/madness/ttg.h</text>
</a>
</g>
</g>
<!-- Node3&#45;&gt;Node11 -->
<g id="edge10_Node000003_Node000011" class="edge">
<title>Node3&#45;&gt;Node11</title>
<g id="a_edge10_Node000003_Node000011"><a xlink:title=" ">
<path fill="none" stroke="#63b8ff" d="M763.39,-137.74C862.21,-130.66 1118.77,-111.36 1203,-96 1217.84,-93.29 1234.08,-88.94 1247.28,-85.03"/>
<polygon fill="#63b8ff" stroke="#63b8ff" points="762.95,-134.26 753.23,-138.46 763.45,-141.24 762.95,-134.26"/>
</a>
</g>
</g>
<!-- Node3&#45;&gt;Node12 -->
<g id="edge11_Node000003_Node000012" class="edge">
<title>Node3&#45;&gt;Node12</title>
<g id="a_edge11_Node000003_Node000012"><a xlink:title=" ">
<path fill="none" stroke="#63b8ff" d="M684.49,-132.48C589.47,-123.98 181.4,-129.75 133,-96 106.75,-77.7 98.4,-36.93 95.94,-19.11"/>
<polygon fill="#63b8ff" stroke="#63b8ff" points="684.37,-135.99 694.7,-133.62 685.15,-129.03 684.37,-135.99"/>
</a>
</g>
</g>
<!-- Node13&#45;&gt;Node11 -->
<g id="edge15_Node000013_Node000011" class="edge">
<title>Node13&#45;&gt;Node11</title>
<g id="a_edge15_Node000013_Node000011"><a xlink:title=" ">
<path fill="none" stroke="#63b8ff" d="M1203.76,-183.44C1221.25,-176.54 1240.31,-166.15 1253,-151 1269.23,-131.64 1272.95,-100.54 1273.78,-85.38"/>
<polygon fill="#63b8ff" stroke="#63b8ff" points="1202.44,-180.2 1194.26,-186.93 1204.85,-186.77 1202.44,-180.2"/>
</a>
</g>
</g>
<!-- Node14 -->
<g id="Node000014" class="node">
<title>Node14</title>
<g id="a_Node000014"><a xlink:href="madness_2devicefunc_8h.html" target="_top" xlink:title=" ">
<polygon fill="white" stroke="#666666" points="1243.5,-151 1078.5,-151 1078.5,-132 1243.5,-132 1243.5,-151"/>
<text text-anchor="middle" x="1161" y="-139" font-family="Times,serif" font-size="10.00">ttg/ttg/madness/devicefunc.h</text>
</a>
</g>
</g>
<!-- Node13&#45;&gt;Node14 -->
<g id="edge13_Node000013_Node000014" class="edge">
<title>Node13&#45;&gt;Node14</title>
<g id="a_edge13_Node000013_Node000014"><a xlink:title=" ">
<path fill="none" stroke="#63b8ff" d="M1161,-176.66C1161,-167.93 1161,-157.99 1161,-151.09"/>
<polygon fill="#63b8ff" stroke="#63b8ff" points="1157.5,-176.75 1161,-186.75 1164.5,-176.75 1157.5,-176.75"/>
</a>
</g>
</g>
<!-- Node14&#45;&gt;Node11 -->
<g id="edge14_Node000014_Node000011" class="edge">
<title>Node14&#45;&gt;Node11</title>
<g id="a_edge14_Node000014_Node000011"><a xlink:title=" ">
<path fill="none" stroke="#63b8ff" d="M1185.09,-126.86C1207.33,-114.26 1239.71,-95.92 1258.64,-85.2"/>
<polygon fill="#63b8ff" stroke="#63b8ff" points="1183.22,-123.89 1176.24,-131.87 1186.67,-129.99 1183.22,-123.89"/>
</a>
</g>
</g>
<!-- Node15&#45;&gt;Node12 -->
<g id="edge19_Node000015_Node000012" class="edge">
<title>Node15&#45;&gt;Node12</title>
<g id="a_edge19_Node000015_Node000012"><a xlink:title=" ">
<path fill="none" stroke="#63b8ff" d="M1365.82,-121.71C1366.59,-101.78 1364.24,-71.01 1345,-55 1298.57,-16.38 388.59,-11.28 151.23,-10.6"/>
<polygon fill="#63b8ff" stroke="#63b8ff" points="1362.33,-121.54 1365.13,-131.75 1369.31,-122.02 1362.33,-121.54"/>
</a>
</g>
</g>
<!-- Node16 -->
<g id="Node000016" class="node">
<title>Node16</title>
<g id="a_Node000016"><a xlink:href="parsec__data_8h.html" target="_top" xlink:title=" ">
<polygon fill="white" stroke="#666666" points="1514,-90.5 1392,-90.5 1392,-60.5 1514,-60.5 1514,-90.5"/>
<text text-anchor="start" x="1400" y="-78.5" font-family="Times,serif" font-size="10.00">ttg/ttg/parsec/parsec</text>
<text text-anchor="middle" x="1453" y="-67.5" font-family="Times,serif" font-size="10.00">_data.h</text>
</a>
</g>
</g>
<!-- Node15&#45;&gt;Node16 -->
<g id="edge17_Node000015_Node000016" class="edge">
<title>Node15&#45;&gt;Node16</title>
<g id="a_edge17_Node000015_Node000016"><a xlink:title=" ">
<path fill="none" stroke="#63b8ff" d="M1384.42,-125.82C1399.12,-115.24 1418.85,-101.06 1433.37,-90.62"/>
<polygon fill="#63b8ff" stroke="#63b8ff" points="1382.08,-123.19 1376,-131.87 1386.17,-128.87 1382.08,-123.19"/>
</a>
</g>
</g>
<!-- Node16&#45;&gt;Node12 -->
<g id="edge18_Node000016_Node000012" class="edge">
<title>Node16&#45;&gt;Node12</title>
<g id="a_edge18_Node000016_Node000012"><a xlink:title=" ">
<path fill="none" stroke="#63b8ff" d="M1395.49,-58.19C1389.62,-56.93 1383.71,-55.83 1378,-55 1135.94,-19.77 365.75,-12.24 151.05,-10.81"/>
<polygon fill="#63b8ff" stroke="#63b8ff" points="1394.78,-61.62 1405.31,-60.43 1396.34,-54.79 1394.78,-61.62"/>
</a>
</g>
</g>
<!-- Node17&#45;&gt;Node15 -->
<g id="edge21_Node000017_Node000015" class="edge">
<title>Node17&#45;&gt;Node15</title>
<g id="a_edge21_Node000017_Node000015"><a xlink:title=" ">
<path fill="none" stroke="#63b8ff" d="M1362.07,-176.66C1362.56,-167.93 1363.12,-157.99 1363.51,-151.09"/>
<polygon fill="#63b8ff" stroke="#63b8ff" points="1358.57,-176.57 1361.5,-186.75 1365.56,-176.96 1358.57,-176.57"/>
</a>
</g>
</g>
<!-- Node18&#45;&gt;Node3 -->
<g id="edge25_Node000018_Node000003" class="edge">
<title>Node18&#45;&gt;Node3</title>
<g id="a_edge25_Node000018_Node000003"><a xlink:title=" ">
<path fill="none" stroke="#63b8ff" d="M638.43,-182.63C659.25,-172.87 687.3,-159.71 705.51,-151.17"/>
<polygon fill="#63b8ff" stroke="#63b8ff" points="636.72,-179.57 629.16,-186.98 639.7,-185.91 636.72,-179.57"/>
</a>
</g>
</g>
<!-- Node18&#45;&gt;Node11 -->
<g id="edge27_Node000018_Node000011" class="edge">
<title>Node18&#45;&gt;Node11</title>
<g id="a_edge27_Node000018_Node000011"><a xlink:title=" ">
<path fill="none" stroke="#63b8ff" d="M674.99,-186.92C784.02,-171.82 1012.48,-138.06 1203,-96 1217.1,-92.89 1232.59,-88.72 1245.49,-85.04"/>
<polygon fill="#63b8ff" stroke="#63b8ff" points="674.25,-183.49 664.82,-188.32 675.2,-190.42 674.25,-183.49"/>
</a>
</g>
</g>
<!-- Node18&#45;&gt;Node12 -->
<g id="edge29_Node000018_Node000012" class="edge">
<title>Node18&#45;&gt;Node12</title>
<g id="a_edge29_Node000018_Node000012"><a xlink:title=" ">
<path fill="none" stroke="#63b8ff" d="M547.4,-192.47C423.98,-185.15 159.02,-161.97 101,-96 81.84,-74.21 88.39,-36.01 92.6,-19.04"/>
<polygon fill="#63b8ff" stroke="#63b8ff" points="547.28,-195.97 557.46,-193.05 547.68,-188.98 547.28,-195.97"/>
</a>
</g>
</g>
<!-- Node19 -->
<g id="Node000019" class="node">
<title>Node19</title>
<g id="a_Node000019"><a xlink:href="madness_2import_8h.html" target="_top" xlink:title=" ">
<polygon fill="white" stroke="#666666" points="527.5,-151 384.5,-151 384.5,-132 527.5,-132 527.5,-151"/>
<text text-anchor="middle" x="456" y="-139" font-family="Times,serif" font-size="10.00">ttg/ttg/madness/import.h</text>
</a>
</g>
</g>
<!-- Node18&#45;&gt;Node19 -->
<g id="edge26_Node000018_Node000019" class="edge">
<title>Node18&#45;&gt;Node19</title>
<g id="a_edge26_Node000018_Node000019"><a xlink:title=" ">
<path fill="none" stroke="#63b8ff" d="M576.4,-183.67C547.5,-173.79 506.97,-159.93 481.1,-151.08"/>
<polygon fill="#63b8ff" stroke="#63b8ff" points="575.5,-187.06 586.1,-186.98 577.77,-180.44 575.5,-187.06"/>
</a>
</g>
</g>
<!-- Node20 -->
<g id="Node000020" class="node">
<title>Node20</title>
<g id="a_Node000020"><a xlink:href="parsec_2import_8h.html" target="_top" xlink:title=" ">
<polygon fill="white" stroke="#666666" points="676.5,-151 545.5,-151 545.5,-132 676.5,-132 676.5,-151"/>
<text text-anchor="middle" x="611" y="-139" font-family="Times,serif" font-size="10.00">ttg/ttg/parsec/import.h</text>
</a>
</g>
</g>
<!-- Node18&#45;&gt;Node20 -->
<g id="edge28_Node000018_Node000020" class="edge">
<title>Node18&#45;&gt;Node20</title>
<g id="a_edge28_Node000018_Node000020"><a xlink:title=" ">
<path fill="none" stroke="#63b8ff" d="M611,-176.66C611,-167.93 611,-157.99 611,-151.09"/>
<polygon fill="#63b8ff" stroke="#63b8ff" points="607.5,-176.75 611,-186.75 614.5,-176.75 607.5,-176.75"/>
</a>
</g>
</g>
</g>
</svg>
