<?xml version="1.0" encoding="UTF-8" standalone="no"?>
<!DOCTYPE svg PUBLIC "-//W3C//DTD SVG 1.1//EN"
 "http://www.w3.org/Graphics/SVG/1.1/DTD/svg11.dtd">
<!-- Generated by graphviz version 2.43.0 (0)
 -->
<!-- Title: main Pages: 1 -->
<svg width="395pt" height="279pt"
 viewBox="0.00 0.00 395.00 278.50" xmlns="http://www.w3.org/2000/svg" xmlns:xlink="http://www.w3.org/1999/xlink">
<g id="graph0" class="graph" transform="scale(1 1) rotate(0) translate(4 274.5)">
<title>main</title>
<!-- Node1 -->
<g id="Node000001" class="node">
<title>Node1</title>
<g id="a_Node000001"><a xlink:title=" ">
<polygon fill="#999999" stroke="#666666" points="42,-130 0,-130 0,-111 42,-111 42,-130"/>
<text text-anchor="middle" x="21" y="-118" font-family="Times,serif" font-size="10.00">main</text>
</a>
</g>
</g>
<!-- Node2 -->
<g id="Node000002" class="node">
<title>Node2</title>
<g id="a_Node000002"><a xlink:href="namespacettg.html#a78c09561304884c05c8a8f25006b0ee6" target="_top" xlink:title="Accesses the default backend&#39;s default execution context.">
<polygon fill="white" stroke="#666666" points="222.5,-270.5 94.5,-270.5 94.5,-240.5 222.5,-240.5 222.5,-270.5"/>
<text text-anchor="start" x="102.5" y="-258.5" font-family="Times,serif" font-size="10.00">ttg::default_execution</text>
<text text-anchor="middle" x="158.5" y="-247.5" font-family="Times,serif" font-size="10.00">_context</text>
</a>
</g>
</g>
<!-- Node1&#45;&gt;Node2 -->
<g id="edge1_Node000001_Node000002" class="edge">
<title>Node1&#45;&gt;Node2</title>
<g id="a_edge1_Node000001_Node000002"><a xlink:title=" ">
<path fill="none" stroke="#63b8ff" d="M24.12,-130.13C29.36,-151.61 44.94,-203.74 78,-231.5 80.28,-233.41 82.7,-235.17 85.24,-236.79"/>
<polygon fill="#63b8ff" stroke="#63b8ff" points="83.79,-239.99 94.23,-241.77 87.18,-233.87 83.79,-239.99"/>
</a>
</g>
</g>
<!-- Node3 -->
<g id="Node000003" class="node">
<title>Node3</title>
<g id="a_Node000003"><a xlink:href="namespacettg.html#a1261c57f70c978771f64af07d7f7d7cd" target="_top" xlink:title="Starts the execution in the given execution context.">
<polygon fill="white" stroke="#666666" points="197,-222 120,-222 120,-203 197,-203 197,-222"/>
<text text-anchor="middle" x="158.5" y="-210" font-family="Times,serif" font-size="10.00">ttg::execute</text>
</a>
</g>
</g>
<!-- Node1&#45;&gt;Node3 -->
<g id="edge2_Node000001_Node000003" class="edge">
<title>Node1&#45;&gt;Node3</title>
<g id="a_edge2_Node000001_Node000003"><a xlink:title=" ">
<path fill="none" stroke="#63b8ff" d="M26.49,-130.17C34.47,-146.21 52.68,-178.17 78,-194.5 87.47,-200.61 98.74,-204.66 109.77,-207.34"/>
<polygon fill="#63b8ff" stroke="#63b8ff" points="109.28,-210.81 119.78,-209.44 110.71,-203.96 109.28,-210.81"/>
</a>
</g>
</g>
<!-- Node4 -->
<g id="Node000004" class="node">
<title>Node4</title>
<g id="a_Node000004"><a xlink:href="namespacettg.html#a807bf42719a82b1539603d477aa2a3fd" target="_top" xlink:title="Returns when all tasks associated with the given execution context have finished on all ranks.">
<polygon fill="white" stroke="#666666" points="191,-185 126,-185 126,-166 191,-166 191,-185"/>
<text text-anchor="middle" x="158.5" y="-173" font-family="Times,serif" font-size="10.00">ttg::fence</text>
</a>
</g>
</g>
<!-- Node1&#45;&gt;Node4 -->
<g id="edge3_Node000001_Node000004" class="edge">
<title>Node1&#45;&gt;Node4</title>
<g id="a_edge3_Node000001_Node000004"><a xlink:title=" ">
<path fill="none" stroke="#63b8ff" d="M33.73,-130.09C44.58,-138.5 61.49,-150.46 78,-157.5 89.8,-162.53 103.2,-166.26 115.6,-168.97"/>
<polygon fill="#63b8ff" stroke="#63b8ff" points="115.23,-172.47 125.72,-171.02 116.62,-165.6 115.23,-172.47"/>
</a>
</g>
</g>
<!-- Node5 -->
<g id="Node000005" class="node">
<title>Node5</title>
<g id="a_Node000005"><a xlink:href="namespacettg.html#a96780ef3c553a2f45aa7ea881bdb6490" target="_top" xlink:title="Finalizes the TTG runtime.">
<polygon fill="white" stroke="#666666" points="195.5,-130 121.5,-130 121.5,-111 195.5,-111 195.5,-130"/>
<text text-anchor="middle" x="158.5" y="-118" font-family="Times,serif" font-size="10.00">ttg::finalize</text>
</a>
</g>
</g>
<!-- Node1&#45;&gt;Node5 -->
<g id="edge4_Node000001_Node000005" class="edge">
<title>Node1&#45;&gt;Node5</title>
<g id="a_edge4_Node000001_Node000005"><a xlink:title=" ">
<path fill="none" stroke="#63b8ff" d="M42.29,-120.5C60.42,-120.5 87.68,-120.5 111.12,-120.5"/>
<polygon fill="#63b8ff" stroke="#63b8ff" points="111.24,-124 121.24,-120.5 111.24,-117 111.24,-124"/>
</a>
</g>
</g>
<!-- Node6 -->
<g id="Node000006" class="node">
<title>Node6</title>
<g id="a_Node000006"><a xlink:href="namespacettg.html#a19c06079af2c21be154b525ff21028d1" target="_top" xlink:title=" ">
<polygon fill="white" stroke="#666666" points="198.5,-93 118.5,-93 118.5,-74 198.5,-74 198.5,-93"/>
<text text-anchor="middle" x="158.5" y="-81" font-family="Times,serif" font-size="10.00">ttg::initialize</text>
</a>
</g>
</g>
<!-- Node1&#45;&gt;Node6 -->
<g id="edge6_Node000001_Node000006" class="edge">
<title>Node1&#45;&gt;Node6</title>
<g id="a_edge6_Node000001_Node000006"><a xlink:title=" ">
<path fill="none" stroke="#63b8ff" d="M42.11,-113.63C52.72,-110.1 66,-105.86 78,-102.5 87.74,-99.78 98.21,-97.1 108.26,-94.65"/>
<polygon fill="#63b8ff" stroke="#63b8ff" points="109.22,-98.02 118.12,-92.28 107.58,-91.21 109.22,-98.02"/>
</a>
</g>
</g>
<!-- Node7 -->
<g id="Node000007" class="node">
<title>Node7</title>
<g id="a_Node000007"><a xlink:href="namespacettg.html#ade4672895f07e88909dab1644c69e60a" target="_top" xlink:title="Make the TTG tts executable. Applies.">
<polygon fill="white" stroke="#666666" points="239,-56 78,-56 78,-37 239,-37 239,-56"/>
<text text-anchor="middle" x="158.5" y="-44" font-family="Times,serif" font-size="10.00">ttg::make_graph_executable</text>
</a>
</g>
</g>
<!-- Node1&#45;&gt;Node7 -->
<g id="edge7_Node000001_Node000007" class="edge">
<title>Node1&#45;&gt;Node7</title>
<g id="a_edge7_Node000001_Node000007"><a xlink:title=" ">
<path fill="none" stroke="#63b8ff" d="M29.17,-110.72C38.84,-98.26 57.25,-76.98 78,-65.5 82.02,-63.28 86.29,-61.31 90.69,-59.57"/>
<polygon fill="#63b8ff" stroke="#63b8ff" points="92.21,-62.75 100.48,-56.12 89.88,-56.15 92.21,-62.75"/>
</a>
</g>
</g>
<!-- Node9 -->
<g id="Node000009" class="node">
<title>Node9</title>
<g id="a_Node000009"><a xlink:href="fibonacci_8cc.html#a0f9e65d0b745d1d332efa6b1a89582ca" target="_top" xlink:title=" ">
<polygon fill="white" stroke="#666666" points="206,-19 111,-19 111,0 206,0 206,-19"/>
<text text-anchor="middle" x="158.5" y="-7" font-family="Times,serif" font-size="10.00">make_ttg_fib_lt</text>
</a>
</g>
</g>
<!-- Node1&#45;&gt;Node9 -->
<g id="edge9_Node000001_Node000009" class="edge">
<title>Node1&#45;&gt;Node9</title>
<g id="a_edge9_Node000001_Node000009"><a xlink:title=" ">
<path fill="none" stroke="#63b8ff" d="M24.95,-110.84C31.31,-91.72 48.21,-49.03 78,-27.5 84.84,-22.56 92.81,-18.94 101.01,-16.3"/>
<polygon fill="#63b8ff" stroke="#63b8ff" points="101.99,-19.66 110.69,-13.63 100.12,-12.91 101.99,-19.66"/>
</a>
</g>
</g>
<!-- Node5&#45;&gt;Node5 -->
<g id="edge5_Node000005_Node000005" class="edge">
<title>Node5&#45;&gt;Node5</title>
<g id="a_edge5_Node000005_Node000005"><a xlink:title=" ">
<path fill="none" stroke="#63b8ff" d="M137.54,-130.08C127.34,-138.73 134.33,-148 158.5,-148 173.99,-148 182.42,-144.2 183.8,-139.19"/>
<polygon fill="#63b8ff" stroke="#63b8ff" points="186.92,-137.61 179.46,-130.08 180.6,-140.62 186.92,-137.61"/>
</a>
</g>
</g>
<!-- Node8 -->
<g id="Node000008" class="node">
<title>Node8</title>
<g id="a_Node000008"><a xlink:href="namespacettg.html#ac9c4eec56ea2e0cbc9bf52e1129bfee5" target="_top" xlink:title=" ">
<polygon fill="white" stroke="#666666" points="387,-56 275,-56 275,-37 387,-37 387,-56"/>
<text text-anchor="middle" x="331" y="-44" font-family="Times,serif" font-size="10.00">ttg::make_traverse</text>
</a>
</g>
</g>
<!-- Node7&#45;&gt;Node8 -->
<g id="edge8_Node000007_Node000008" class="edge">
<title>Node7&#45;&gt;Node8</title>
<g id="a_edge8_Node000007_Node000008"><a xlink:title=" ">
<path fill="none" stroke="#63b8ff" d="M239.26,-46.5C247.67,-46.5 256.15,-46.5 264.37,-46.5"/>
<polygon fill="#63b8ff" stroke="#63b8ff" points="264.63,-50 274.63,-46.5 264.63,-43 264.63,-50"/>
</a>
</g>
</g>
<!-- Node10 -->
<g id="Node000010" class="node">
<title>Node10</title>
<g id="a_Node000010"><a xlink:href="namespacettg.html#afbabcd9802bf1bbdd302e7a612459353" target="_top" xlink:title="Make a tuple of Edges to pass to.">
<polygon fill="white" stroke="#666666" points="365,-19 297,-19 297,0 365,0 365,-19"/>
<text text-anchor="middle" x="331" y="-7" font-family="Times,serif" font-size="10.00">ttg::edges</text>
</a>
</g>
</g>
<!-- Node9&#45;&gt;Node10 -->
<g id="edge10_Node000009_Node000010" class="edge">
<title>Node9&#45;&gt;Node10</title>
<g id="a_edge10_Node000009_Node000010"><a xlink:title=" ">
<path fill="none" stroke="#63b8ff" d="M206.09,-9.5C231.28,-9.5 262.19,-9.5 286.83,-9.5"/>
<polygon fill="#63b8ff" stroke="#63b8ff" points="286.97,-13 296.97,-9.5 286.97,-6 286.97,-13"/>
</a>
</g>
</g>
</g>
</svg>
