<?xml version="1.0" encoding="UTF-8" standalone="no"?>
<!DOCTYPE svg PUBLIC "-//W3C//DTD SVG 1.1//EN"
 "http://www.w3.org/Graphics/SVG/1.1/DTD/svg11.dtd">
<!-- Generated by graphviz version 2.43.0 (0)
 -->
<!-- Title: main Pages: 1 -->
<svg width="672pt" height="383pt"
 viewBox="0.00 0.00 672.00 383.00" xmlns="http://www.w3.org/2000/svg" xmlns:xlink="http://www.w3.org/1999/xlink">
<g id="graph0" class="graph" transform="scale(1 1) rotate(0) translate(4 379)">
<title>main</title>
<!-- Node1 -->
<g id="Node000001" class="node">
<title>Node1</title>
<g id="a_Node000001"><a xlink:title=" ">
<polygon fill="#999999" stroke="#666666" points="42,-197.5 0,-197.5 0,-178.5 42,-178.5 42,-197.5"/>
<text text-anchor="middle" x="21" y="-185.5" font-family="Times,serif" font-size="10.00">main</text>
</a>
</g>
</g>
<!-- Node2 -->
<g id="Node000002" class="node">
<title>Node2</title>
<g id="a_Node000002"><a xlink:href="namespacettg.html#a78c09561304884c05c8a8f25006b0ee6" target="_top" xlink:title="Accesses the default backend&#39;s default execution context.">
<polygon fill="white" stroke="#666666" points="222.5,-375 94.5,-375 94.5,-345 222.5,-345 222.5,-375"/>
<text text-anchor="start" x="102.5" y="-363" font-family="Times,serif" font-size="10.00">ttg::default_execution</text>
<text text-anchor="middle" x="158.5" y="-352" font-family="Times,serif" font-size="10.00">_context</text>
</a>
</g>
</g>
<!-- Node1&#45;&gt;Node2 -->
<g id="edge1_Node000001_Node000002" class="edge">
<title>Node1&#45;&gt;Node2</title>
<g id="a_edge1_Node000001_Node000002"><a xlink:title=" ">
<path fill="none" stroke="#63b8ff" d="M22.76,-197.55C25.37,-223.67 36.23,-297 78,-336 80.3,-338.14 82.78,-340.1 85.4,-341.88"/>
<polygon fill="#63b8ff" stroke="#63b8ff" points="83.77,-344.98 94.17,-346.99 87.29,-338.93 83.77,-344.98"/>
</a>
</g>
</g>
<!-- Node3 -->
<g id="Node000003" class="node">
<title>Node3</title>
<g id="a_Node000003"><a xlink:href="namespacettg.html#a1261c57f70c978771f64af07d7f7d7cd" target="_top" xlink:title="Starts the execution in the given execution context.">
<polygon fill="white" stroke="#666666" points="197,-326.5 120,-326.5 120,-307.5 197,-307.5 197,-326.5"/>
<text text-anchor="middle" x="158.5" y="-314.5" font-family="Times,serif" font-size="10.00">ttg::execute</text>
</a>
</g>
</g>
<!-- Node1&#45;&gt;Node3 -->
<g id="edge2_Node000001_Node000003" class="edge">
<title>Node1&#45;&gt;Node3</title>
<g id="a_edge2_Node000001_Node000003"><a xlink:title=" ">
<path fill="none" stroke="#63b8ff" d="M23.98,-197.8C28.94,-219.63 43.98,-272.43 78,-299 87.14,-306.14 98.58,-310.56 109.91,-313.26"/>
<polygon fill="#63b8ff" stroke="#63b8ff" points="109.29,-316.7 119.78,-315.21 110.65,-309.83 109.29,-316.7"/>
</a>
</g>
</g>
<!-- Node4 -->
<g id="Node000004" class="node">
<title>Node4</title>
<g id="a_Node000004"><a xlink:href="namespacettg.html#a807bf42719a82b1539603d477aa2a3fd" target="_top" xlink:title="Returns when all tasks associated with the given execution context have finished on all ranks.">
<polygon fill="white" stroke="#666666" points="191,-289.5 126,-289.5 126,-270.5 191,-270.5 191,-289.5"/>
<text text-anchor="middle" x="158.5" y="-277.5" font-family="Times,serif" font-size="10.00">ttg::fence</text>
</a>
</g>
</g>
<!-- Node1&#45;&gt;Node4 -->
<g id="edge3_Node000001_Node000004" class="edge">
<title>Node1&#45;&gt;Node4</title>
<g id="a_edge3_Node000001_Node000004"><a xlink:title=" ">
<path fill="none" stroke="#63b8ff" d="M26.49,-197.67C34.47,-213.71 52.68,-245.67 78,-262 89.17,-269.2 102.84,-273.54 115.67,-276.15"/>
<polygon fill="#63b8ff" stroke="#63b8ff" points="115.27,-279.63 125.72,-277.89 116.47,-272.74 115.27,-279.63"/>
</a>
</g>
</g>
<!-- Node5 -->
<g id="Node000005" class="node">
<title>Node5</title>
<g id="a_Node000005"><a xlink:href="namespacettg.html#a96780ef3c553a2f45aa7ea881bdb6490" target="_top" xlink:title="Finalizes the TTG runtime.">
<polygon fill="white" stroke="#666666" points="195.5,-234.5 121.5,-234.5 121.5,-215.5 195.5,-215.5 195.5,-234.5"/>
<text text-anchor="middle" x="158.5" y="-222.5" font-family="Times,serif" font-size="10.00">ttg::finalize</text>
</a>
</g>
</g>
<!-- Node1&#45;&gt;Node5 -->
<g id="edge4_Node000001_Node000005" class="edge">
<title>Node1&#45;&gt;Node5</title>
<g id="a_edge4_Node000001_Node000005"><a xlink:title=" ">
<path fill="none" stroke="#63b8ff" d="M42.06,-195.37C52.66,-199.13 65.95,-203.6 78,-207 88.74,-210.03 100.41,-212.9 111.41,-215.42"/>
<polygon fill="#63b8ff" stroke="#63b8ff" points="110.76,-218.86 121.29,-217.64 112.29,-212.03 110.76,-218.86"/>
</a>
</g>
</g>
<!-- Node6 -->
<g id="Node000006" class="node">
<title>Node6</title>
<g id="a_Node000006"><a xlink:href="namespacettg.html#a19c06079af2c21be154b525ff21028d1" target="_top" xlink:title=" ">
<polygon fill="white" stroke="#666666" points="198.5,-197.5 118.5,-197.5 118.5,-178.5 198.5,-178.5 198.5,-197.5"/>
<text text-anchor="middle" x="158.5" y="-185.5" font-family="Times,serif" font-size="10.00">ttg::initialize</text>
</a>
</g>
</g>
<!-- Node1&#45;&gt;Node6 -->
<g id="edge6_Node000001_Node000006" class="edge">
<title>Node1&#45;&gt;Node6</title>
<g id="a_edge6_Node000001_Node000006"><a xlink:title=" ">
<path fill="none" stroke="#63b8ff" d="M42.29,-188C59.64,-188 85.33,-188 108.06,-188"/>
<polygon fill="#63b8ff" stroke="#63b8ff" points="108.25,-191.5 118.25,-188 108.25,-184.5 108.25,-191.5"/>
</a>
</g>
</g>
<!-- Node7 -->
<g id="Node000007" class="node">
<title>Node7</title>
<g id="a_Node000007"><a xlink:href="namespacettg.html#ade4672895f07e88909dab1644c69e60a" target="_top" xlink:title="Make the TTG tts executable. Applies.">
<polygon fill="white" stroke="#666666" points="239,-160.5 78,-160.5 78,-141.5 239,-141.5 239,-160.5"/>
<text text-anchor="middle" x="158.5" y="-148.5" font-family="Times,serif" font-size="10.00">ttg::make_graph_executable</text>
</a>
</g>
</g>
<!-- Node1&#45;&gt;Node7 -->
<g id="edge7_Node000001_Node000007" class="edge">
<title>Node1&#45;&gt;Node7</title>
<g id="a_edge7_Node000001_Node000007"><a xlink:title=" ">
<path fill="none" stroke="#63b8ff" d="M42.11,-181.13C52.72,-177.6 66,-173.36 78,-170 86.64,-167.58 95.86,-165.2 104.84,-162.98"/>
<polygon fill="#63b8ff" stroke="#63b8ff" points="105.96,-166.32 114.85,-160.56 104.31,-159.51 105.96,-166.32"/>
</a>
</g>
</g>
<!-- Node9 -->
<g id="Node000009" class="node">
<title>Node9</title>
<g id="a_Node000009"><a xlink:href="fibonacci__device_8cc.html#a0f9e65d0b745d1d332efa6b1a89582ca" target="_top" xlink:title=" ">
<polygon fill="white" stroke="#666666" points="206,-123.5 111,-123.5 111,-104.5 206,-104.5 206,-123.5"/>
<text text-anchor="middle" x="158.5" y="-111.5" font-family="Times,serif" font-size="10.00">make_ttg_fib_lt</text>
</a>
</g>
</g>
<!-- Node1&#45;&gt;Node9 -->
<g id="edge9_Node000001_Node000009" class="edge">
<title>Node1&#45;&gt;Node9</title>
<g id="a_edge9_Node000001_Node000009"><a xlink:title=" ">
<path fill="none" stroke="#63b8ff" d="M29.17,-178.22C38.84,-165.76 57.25,-144.48 78,-133 85.15,-129.04 93.11,-125.9 101.14,-123.42"/>
<polygon fill="#63b8ff" stroke="#63b8ff" points="102.24,-126.74 110.94,-120.69 100.37,-120 102.24,-126.74"/>
</a>
</g>
</g>
<!-- Node18 -->
<g id="Node000018" class="node">
<title>Node18</title>
<g id="a_Node000018"><a xlink:href="namespacettg.html#a6cec936cab8cf9b94bfacba41f859a30" target="_top" xlink:title="enables tracing; if trace_enabled()==true this has no effect">
<polygon fill="white" stroke="#666666" points="519,-29.5 439,-29.5 439,-10.5 519,-10.5 519,-29.5"/>
<text text-anchor="middle" x="479" y="-17.5" font-family="Times,serif" font-size="10.00">ttg::trace_on</text>
</a>
</g>
</g>
<!-- Node1&#45;&gt;Node18 -->
<g id="edge20_Node000001_Node000018" class="edge">
<title>Node1&#45;&gt;Node18</title>
<g id="a_edge20_Node000001_Node000018"><a xlink:title=" ">
<path fill="none" stroke="#63b8ff" d="M24.92,-178.36C31.22,-159.28 48.03,-116.76 78,-96 85.23,-90.99 323.21,-47.79 428.6,-28.85"/>
<polygon fill="#63b8ff" stroke="#63b8ff" points="429.46,-32.25 438.68,-27.04 428.22,-25.36 429.46,-32.25"/>
</a>
</g>
</g>
<!-- Node19 -->
<g id="Node000019" class="node">
<title>Node19</title>
<g id="a_Node000019"><a xlink:href="namespacettg__parsec.html#ae1b91b1ff1edc3fbc1e7e07d6c659c17" target="_top" xlink:title=" ">
<polygon fill="white" stroke="#666666" points="224,-30 93,-30 93,0 224,0 224,-30"/>
<text text-anchor="start" x="101" y="-18" font-family="Times,serif" font-size="10.00">ttg_parsec::ttg_default</text>
<text text-anchor="middle" x="158.5" y="-7" font-family="Times,serif" font-size="10.00">_execution_context</text>
</a>
</g>
</g>
<!-- Node1&#45;&gt;Node19 -->
<g id="edge23_Node000001_Node000019" class="edge">
<title>Node1&#45;&gt;Node19</title>
<g id="a_edge23_Node000001_Node000019"><a xlink:title=" ">
<path fill="none" stroke="#63b8ff" d="M23.01,-178.46C26.2,-153.02 38.33,-82.85 78,-44 81.43,-40.64 85.28,-37.67 89.38,-35.04"/>
<polygon fill="#63b8ff" stroke="#63b8ff" points="91.13,-38.07 98.11,-30.1 87.68,-31.98 91.13,-38.07"/>
</a>
</g>
</g>
<!-- Node5&#45;&gt;Node5 -->
<g id="edge5_Node000005_Node000005" class="edge">
<title>Node5&#45;&gt;Node5</title>
<g id="a_edge5_Node000005_Node000005"><a xlink:title=" ">
<path fill="none" stroke="#63b8ff" d="M137.54,-234.58C127.34,-243.23 134.33,-252.5 158.5,-252.5 173.99,-252.5 182.42,-248.7 183.8,-243.69"/>
<polygon fill="#63b8ff" stroke="#63b8ff" points="186.92,-242.11 179.46,-234.58 180.6,-245.12 186.92,-242.11"/>
</a>
</g>
</g>
<!-- Node8 -->
<g id="Node000008" class="node">
<title>Node8</title>
<g id="a_Node000008"><a xlink:href="namespacettg.html#ac9c4eec56ea2e0cbc9bf52e1129bfee5" target="_top" xlink:title=" ">
<polygon fill="white" stroke="#666666" points="395,-216.5 283,-216.5 283,-197.5 395,-197.5 395,-216.5"/>
<text text-anchor="middle" x="339" y="-204.5" font-family="Times,serif" font-size="10.00">ttg::make_traverse</text>
</a>
</g>
</g>
<!-- Node7&#45;&gt;Node8 -->
<g id="edge8_Node000007_Node000008" class="edge">
<title>Node7&#45;&gt;Node8</title>
<g id="a_edge8_Node000007_Node000008"><a xlink:title=" ">
<path fill="none" stroke="#63b8ff" d="M208.01,-160.54C218.38,-163.15 229.17,-166.3 239,-170 255.93,-176.38 258.21,-182.26 275,-189 279.82,-190.94 284.93,-192.76 290.07,-194.44"/>
<polygon fill="#63b8ff" stroke="#63b8ff" points="289.34,-197.88 299.93,-197.5 291.41,-191.19 289.34,-197.88"/>
</a>
</g>
</g>
<!-- Node10 -->
<g id="Node000010" class="node">
<title>Node10</title>
<g id="a_Node000010"><a xlink:href="namespacettg.html#afbabcd9802bf1bbdd302e7a612459353" target="_top" xlink:title="Make a tuple of Edges to pass to.">
<polygon fill="white" stroke="#666666" points="373,-179.5 305,-179.5 305,-160.5 373,-160.5 373,-179.5"/>
<text text-anchor="middle" x="339" y="-167.5" font-family="Times,serif" font-size="10.00">ttg::edges</text>
</a>
</g>
</g>
<!-- Node9&#45;&gt;Node10 -->
<g id="edge10_Node000009_Node000010" class="edge">
<title>Node9&#45;&gt;Node10</title>
<g id="a_edge10_Node000009_Node000010"><a xlink:title=" ">
<path fill="none" stroke="#63b8ff" d="M206.33,-123.13C217.21,-125.81 228.64,-129.1 239,-133 255.93,-139.38 258.21,-145.26 275,-152 281.38,-154.56 288.27,-156.92 295.06,-159.03"/>
<polygon fill="#63b8ff" stroke="#63b8ff" points="294.29,-162.45 304.87,-161.92 296.27,-155.73 294.29,-162.45"/>
</a>
</g>
</g>
<!-- Node11 -->
<g id="Node000011" class="node">
<title>Node11</title>
<g id="a_Node000011"><a xlink:href="fibonacci__cuda__kernel_8h.html#afeeff85046f25c694e2056d73275e3f6" target="_top" xlink:title=" ">
<polygon fill="white" stroke="#666666" points="375,-142.5 303,-142.5 303,-123.5 375,-123.5 375,-142.5"/>
<text text-anchor="middle" x="339" y="-130.5" font-family="Times,serif" font-size="10.00">next_value</text>
</a>
</g>
</g>
<!-- Node9&#45;&gt;Node11 -->
<g id="edge11_Node000009_Node000011" class="edge">
<title>Node9&#45;&gt;Node11</title>
<g id="a_edge11_Node000009_Node000011"><a xlink:title=" ">
<path fill="none" stroke="#63b8ff" d="M206.4,-118.99C233.12,-121.84 266.43,-125.38 292.85,-128.19"/>
<polygon fill="#63b8ff" stroke="#63b8ff" points="292.66,-131.69 302.98,-129.27 293.4,-124.73 292.66,-131.69"/>
</a>
</g>
</g>
<!-- Node12 -->
<g id="Node000012" class="node">
<title>Node12</title>
<g id="a_Node000012"><a xlink:href="namespacettg.html#af5e470229c1ddef41b83b6398a5dc583" target="_top" xlink:title=" ">
<polygon fill="white" stroke="#666666" points="370,-105.5 308,-105.5 308,-86.5 370,-86.5 370,-105.5"/>
<text text-anchor="middle" x="339" y="-93.5" font-family="Times,serif" font-size="10.00">ttg::trace</text>
</a>
</g>
</g>
<!-- Node9&#45;&gt;Node12 -->
<g id="edge12_Node000009_Node000012" class="edge">
<title>Node9&#45;&gt;Node12</title>
<g id="a_edge12_Node000009_Node000012"><a xlink:title=" ">
<path fill="none" stroke="#63b8ff" d="M206.4,-109.27C234.76,-106.41 270.55,-102.8 297.64,-100.07"/>
<polygon fill="#63b8ff" stroke="#63b8ff" points="298.33,-103.52 307.93,-99.03 297.63,-96.55 298.33,-103.52"/>
</a>
</g>
</g>
<!-- Node13 -->
<g id="Node000013" class="node">
<title>Node13</title>
<g id="a_Node000013"><a xlink:href="namespacettg.html#aacacfe8bc9582308a405c4370650a9d4" target="_top" xlink:title="atomically prints to std::clog a sequence of items (separated by ttg::print_separator) followed by st...">
<polygon fill="white" stroke="#666666" points="505.5,-181.5 452.5,-181.5 452.5,-162.5 505.5,-162.5 505.5,-181.5"/>
<text text-anchor="middle" x="479" y="-169.5" font-family="Times,serif" font-size="10.00">ttg::log</text>
</a>
</g>
</g>
<!-- Node12&#45;&gt;Node13 -->
<g id="edge13_Node000012_Node000013" class="edge">
<title>Node12&#45;&gt;Node13</title>
<g id="a_edge13_Node000012_Node000013"><a xlink:title=" ">
<path fill="none" stroke="#63b8ff" d="M370.29,-102.18C381.05,-105.13 392.97,-109.29 403,-115 421.86,-125.74 421.68,-134.92 439,-148 443.07,-151.07 447.55,-154.11 451.97,-156.94"/>
<polygon fill="#63b8ff" stroke="#63b8ff" points="450.49,-160.14 460.84,-162.4 454.16,-154.18 450.49,-160.14"/>
</a>
</g>
</g>
<!-- Node15 -->
<g id="Node000015" class="node">
<title>Node15</title>
<g id="a_Node000015"><a xlink:href="namespacettg.html#afbdd9c742be395e0746fdbc26c7d55cc" target="_top" xlink:title="returns whether tracing was enabled at configure time">
<polygon fill="white" stroke="#666666" points="664,-64.5 555,-64.5 555,-45.5 664,-45.5 664,-64.5"/>
<text text-anchor="middle" x="609.5" y="-52.5" font-family="Times,serif" font-size="10.00">ttg::trace_enabled</text>
</a>
</g>
</g>
<!-- Node12&#45;&gt;Node15 -->
<g id="edge15_Node000012_Node000015" class="edge">
<title>Node12&#45;&gt;Node15</title>
<g id="a_edge15_Node000012_Node000015"><a xlink:title=" ">
<path fill="none" stroke="#63b8ff" d="M370.27,-90.13C389.84,-86.43 415.88,-81.67 439,-78 473.93,-72.46 513.05,-67.09 544.9,-62.94"/>
<polygon fill="#63b8ff" stroke="#63b8ff" points="545.5,-66.39 554.97,-61.64 544.6,-59.45 545.5,-66.39"/>
</a>
</g>
</g>
<!-- Node16 -->
<g id="Node000016" class="node">
<title>Node16</title>
<g id="a_Node000016"><a xlink:href="namespacettg.html#abfb8501d408a1ed918cc2a540865a2d8" target="_top" xlink:title="returns whether tracing is enabled">
<polygon fill="white" stroke="#666666" points="515.5,-105.5 442.5,-105.5 442.5,-86.5 515.5,-86.5 515.5,-105.5"/>
<text text-anchor="middle" x="479" y="-93.5" font-family="Times,serif" font-size="10.00">ttg::tracing</text>
</a>
</g>
</g>
<!-- Node12&#45;&gt;Node16 -->
<g id="edge16_Node000012_Node000016" class="edge">
<title>Node12&#45;&gt;Node16</title>
<g id="a_edge16_Node000012_Node000016"><a xlink:title=" ">
<path fill="none" stroke="#63b8ff" d="M370.28,-96C388.47,-96 411.97,-96 432.38,-96"/>
<polygon fill="#63b8ff" stroke="#63b8ff" points="432.41,-99.5 442.41,-96 432.41,-92.5 432.41,-99.5"/>
</a>
</g>
</g>
<!-- Node14 -->
<g id="Node000014" class="node">
<title>Node14</title>
<g id="a_Node000014"><a xlink:href="namespacettg_1_1detail.html#a26e07486d5ef8eb5735a8975991a7693" target="_top" xlink:title=" ">
<polygon fill="white" stroke="#666666" points="657.5,-187 561.5,-187 561.5,-157 657.5,-157 657.5,-187"/>
<text text-anchor="start" x="569.5" y="-175" font-family="Times,serif" font-size="10.00">ttg::detail::print</text>
<text text-anchor="middle" x="609.5" y="-164" font-family="Times,serif" font-size="10.00">_helper</text>
</a>
</g>
</g>
<!-- Node13&#45;&gt;Node14 -->
<g id="edge14_Node000013_Node000014" class="edge">
<title>Node13&#45;&gt;Node14</title>
<g id="a_edge14_Node000013_Node000014"><a xlink:title=" ">
<path fill="none" stroke="#63b8ff" d="M505.7,-172C518.73,-172 535.13,-172 550.98,-172"/>
<polygon fill="#63b8ff" stroke="#63b8ff" points="551.27,-175.5 561.27,-172 551.27,-168.5 551.27,-175.5"/>
</a>
</g>
</g>
<!-- Node16&#45;&gt;Node15 -->
<g id="edge19_Node000016_Node000015" class="edge">
<title>Node16&#45;&gt;Node15</title>
<g id="a_edge19_Node000016_Node000015"><a xlink:title=" ">
<path fill="none" stroke="#63b8ff" d="M509.8,-86.49C527.36,-80.89 549.78,-73.74 568.81,-67.66"/>
<polygon fill="#63b8ff" stroke="#63b8ff" points="569.95,-70.97 578.41,-64.6 567.82,-64.31 569.95,-70.97"/>
</a>
</g>
</g>
<!-- Node17 -->
<g id="Node000017" class="node">
<title>Node17</title>
<g id="a_Node000017"><a xlink:href="namespacettg_1_1detail.html#a95356c3874e7ec9268a40feb4fc1519f" target="_top" xlink:title=" ">
<polygon fill="white" stroke="#666666" points="658,-113 561,-113 561,-83 658,-83 658,-113"/>
<text text-anchor="start" x="569" y="-101" font-family="Times,serif" font-size="10.00">ttg::detail::trace</text>
<text text-anchor="middle" x="609.5" y="-90" font-family="Times,serif" font-size="10.00">_accessor</text>
</a>
</g>
</g>
<!-- Node16&#45;&gt;Node17 -->
<g id="edge17_Node000016_Node000017" class="edge">
<title>Node16&#45;&gt;Node17</title>
<g id="a_edge17_Node000016_Node000017"><a xlink:title=" ">
<path fill="none" stroke="#63b8ff" d="M515.79,-96.56C526.59,-96.73 538.73,-96.91 550.59,-97.1"/>
<polygon fill="#63b8ff" stroke="#63b8ff" points="550.83,-100.6 560.89,-97.26 550.94,-93.6 550.83,-100.6"/>
</a>
</g>
</g>
<!-- Node17&#45;&gt;Node12 -->
<g id="edge18_Node000017_Node000012" class="edge">
<title>Node17&#45;&gt;Node12</title>
<g id="a_edge18_Node000017_Node000012"><a xlink:title=" ">
<path fill="none" stroke="#63b8ff" d="M560.9,-108.76C547.42,-111.33 532.7,-113.71 519,-115 483.6,-118.33 474.4,-118.37 439,-115 419.39,-113.14 397.89,-109.24 379.95,-105.46"/>
<polygon fill="#63b8ff" stroke="#63b8ff" points="380.63,-102.02 370.12,-103.32 379.14,-108.86 380.63,-102.02"/>
</a>
</g>
</g>
<!-- Node18&#45;&gt;Node15 -->
<g id="edge22_Node000018_Node000015" class="edge">
<title>Node18&#45;&gt;Node15</title>
<g id="a_edge22_Node000018_Node000015"><a xlink:title=" ">
<path fill="none" stroke="#63b8ff" d="M515.11,-29.56C530.13,-33.65 547.84,-38.48 563.77,-42.82"/>
<polygon fill="#63b8ff" stroke="#63b8ff" points="562.86,-46.2 573.43,-45.45 564.7,-39.44 562.86,-46.2"/>
</a>
</g>
</g>
<!-- Node18&#45;&gt;Node17 -->
<g id="edge21_Node000018_Node000017" class="edge">
<title>Node18&#45;&gt;Node17</title>
<g id="a_edge21_Node000018_Node000017"><a xlink:title=" ">
<path fill="none" stroke="#63b8ff" d="M491.7,-29.58C506.05,-41.04 531.37,-60.38 555,-74 557.65,-75.53 560.41,-77.03 563.23,-78.48"/>
<polygon fill="#63b8ff" stroke="#63b8ff" points="561.8,-81.68 572.32,-82.97 564.9,-75.4 561.8,-81.68"/>
</a>
</g>
</g>
<!-- Node20 -->
<g id="Node000020" class="node">
<title>Node20</title>
<g id="a_Node000020"><a xlink:href="namespacettg.html#a5829b255a41f2e47fa0e27bb5c791824" target="_top" xlink:title=" ">
<polygon fill="white" stroke="#666666" points="403,-24.5 275,-24.5 275,-5.5 403,-5.5 403,-24.5"/>
<text text-anchor="middle" x="339" y="-12.5" font-family="Times,serif" font-size="10.00">ttg::get_default_world</text>
</a>
</g>
</g>
<!-- Node19&#45;&gt;Node20 -->
<g id="edge24_Node000019_Node000020" class="edge">
<title>Node19&#45;&gt;Node20</title>
<g id="a_edge24_Node000019_Node000020"><a xlink:title=" ">
<path fill="none" stroke="#63b8ff" d="M224.19,-15C237.31,-15 251.2,-15 264.59,-15"/>
<polygon fill="#63b8ff" stroke="#63b8ff" points="264.72,-18.5 274.72,-15 264.72,-11.5 264.72,-18.5"/>
</a>
</g>
</g>
</g>
</svg>
