<?xml version="1.0" encoding="UTF-8" standalone="no"?>
<!DOCTYPE svg PUBLIC "-//W3C//DTD SVG 1.1//EN"
 "http://www.w3.org/Graphics/SVG/1.1/DTD/svg11.dtd">
<!-- Generated by graphviz version 2.43.0 (0)
 -->
<!-- Title: ttg/ttg/func.h Pages: 1 -->
<svg width="1332pt" height="214pt"
 viewBox="0.00 0.00 1332.00 214.00" xmlns="http://www.w3.org/2000/svg" xmlns:xlink="http://www.w3.org/1999/xlink">
<g id="graph0" class="graph" transform="scale(1 1) rotate(0) translate(4 210)">
<title>ttg/ttg/func.h</title>
<!-- Node1 -->
<g id="Node000001" class="node">
<title>Node1</title>
<g id="a_Node000001"><a xlink:title=" ">
<polygon fill="#999999" stroke="#666666" points="1098.5,-206 1015.5,-206 1015.5,-187 1098.5,-187 1098.5,-206"/>
<text text-anchor="middle" x="1057" y="-194" font-family="Times,serif" font-size="10.00">ttg/ttg/func.h</text>
</a>
</g>
</g>
<!-- Node2 -->
<g id="Node000002" class="node">
<title>Node2</title>
<g id="a_Node000002"><a xlink:href="ttg_8h.html" target="_top" xlink:title=" ">
<polygon fill="white" stroke="#666666" points="862,-96 804,-96 804,-77 862,-77 862,-96"/>
<text text-anchor="middle" x="833" y="-84" font-family="Times,serif" font-size="10.00">ttg/ttg.h</text>
</a>
</g>
</g>
<!-- Node1&#45;&gt;Node2 -->
<g id="edge1_Node000001_Node000002" class="edge">
<title>Node1&#45;&gt;Node2</title>
<g id="a_edge1_Node000001_Node000002"><a xlink:title=" ">
<path fill="none" stroke="#63b8ff" d="M1025.29,-183.12C1004.05,-174.6 975.57,-162.73 951,-151 913.21,-132.95 870.23,-108.89 848.03,-96.19"/>
<polygon fill="#63b8ff" stroke="#63b8ff" points="1024.22,-186.46 1034.8,-186.9 1026.81,-179.95 1024.22,-186.46"/>
</a>
</g>
</g>
<!-- Node10 -->
<g id="Node000010" class="node">
<title>Node10</title>
<g id="a_Node000010"><a xlink:href="ttg_2madness_2ttg_8h.html" target="_top" xlink:title=" ">
<polygon fill="white" stroke="#666666" points="1194,-30 1070,-30 1070,-11 1194,-11 1194,-30"/>
<text text-anchor="middle" x="1132" y="-18" font-family="Times,serif" font-size="10.00">ttg/ttg/madness/ttg.h</text>
</a>
</g>
</g>
<!-- Node1&#45;&gt;Node10 -->
<g id="edge13_Node000001_Node000010" class="edge">
<title>Node1&#45;&gt;Node10</title>
<g id="a_edge13_Node000001_Node000010"><a xlink:title=" ">
<path fill="none" stroke="#63b8ff" d="M1066.6,-177.88C1070.88,-169.78 1075.88,-159.99 1080,-151 1100.48,-106.28 1121.18,-51.06 1128.87,-30.1"/>
<polygon fill="#63b8ff" stroke="#63b8ff" points="1063.48,-176.29 1061.83,-186.76 1069.65,-179.6 1063.48,-176.29"/>
</a>
</g>
</g>
<!-- Node11 -->
<g id="Node000011" class="node">
<title>Node11</title>
<g id="a_Node000011"><a xlink:href="ttg_2parsec_2ttg_8h.html" target="_top" xlink:title=" ">
<polygon fill="white" stroke="#666666" points="1324,-30 1212,-30 1212,-11 1324,-11 1324,-30"/>
<text text-anchor="middle" x="1268" y="-18" font-family="Times,serif" font-size="10.00">ttg/ttg/parsec/ttg.h</text>
</a>
</g>
</g>
<!-- Node1&#45;&gt;Node11 -->
<g id="edge14_Node000001_Node000011" class="edge">
<title>Node1&#45;&gt;Node11</title>
<g id="a_edge14_Node000001_Node000011"><a xlink:title=" ">
<path fill="none" stroke="#63b8ff" d="M1075.39,-180.34C1118.27,-144.98 1223.78,-57.97 1257.47,-30.18"/>
<polygon fill="#63b8ff" stroke="#63b8ff" points="1072.95,-177.81 1067.46,-186.87 1077.41,-183.21 1072.95,-177.81"/>
</a>
</g>
</g>
<!-- Node12 -->
<g id="Node000012" class="node">
<title>Node12</title>
<g id="a_Node000012"><a xlink:href="broadcast_8h.html" target="_top" xlink:title=" ">
<polygon fill="white" stroke="#666666" points="1070.5,-151 959.5,-151 959.5,-132 1070.5,-132 1070.5,-151"/>
<text text-anchor="middle" x="1015" y="-139" font-family="Times,serif" font-size="10.00">ttg/ttg/broadcast.h</text>
</a>
</g>
</g>
<!-- Node1&#45;&gt;Node12 -->
<g id="edge11_Node000001_Node000012" class="edge">
<title>Node1&#45;&gt;Node12</title>
<g id="a_edge11_Node000001_Node000012"><a xlink:title=" ">
<path fill="none" stroke="#63b8ff" d="M1043.67,-178.67C1036.39,-169.5 1027.7,-158.52 1021.81,-151.09"/>
<polygon fill="#63b8ff" stroke="#63b8ff" points="1041.11,-181.08 1050.06,-186.75 1046.6,-176.74 1041.11,-181.08"/>
</a>
</g>
</g>
<!-- Node3 -->
<g id="Node000003" class="node">
<title>Node3</title>
<g id="a_Node000003"><a xlink:href="fibonacci_8cc.html" target="_top" xlink:title=" ">
<polygon fill="white" stroke="#666666" points="280,-35.5 152,-35.5 152,-5.5 280,-5.5 280,-35.5"/>
<text text-anchor="start" x="160" y="-23.5" font-family="Times,serif" font-size="10.00">doc/dox/dev/devsamp</text>
<text text-anchor="middle" x="216" y="-12.5" font-family="Times,serif" font-size="10.00">/fibonacci/fibonacci.cc</text>
</a>
</g>
</g>
<!-- Node2&#45;&gt;Node3 -->
<g id="edge2_Node000002_Node000003" class="edge">
<title>Node2&#45;&gt;Node3</title>
<g id="a_edge2_Node000002_Node000003"><a xlink:title=" ">
<path fill="none" stroke="#63b8ff" d="M793.86,-84.7C704,-82.35 476.27,-73.4 289,-41 280.73,-39.57 272.03,-37.63 263.63,-35.54"/>
<polygon fill="#63b8ff" stroke="#63b8ff" points="793.79,-88.2 803.87,-84.95 793.96,-81.2 793.79,-88.2"/>
</a>
</g>
</g>
<!-- Node4 -->
<g id="Node000004" class="node">
<title>Node4</title>
<g id="a_Node000004"><a xlink:href="fibonacci__device_8cc.html" target="_top" xlink:title=" ">
<polygon fill="white" stroke="#666666" points="426,-41 298,-41 298,0 426,0 426,-41"/>
<text text-anchor="start" x="306" y="-29" font-family="Times,serif" font-size="10.00">doc/dox/dev/devsamp</text>
<text text-anchor="start" x="306" y="-18" font-family="Times,serif" font-size="10.00">/fibonacci/fibonacci</text>
<text text-anchor="middle" x="362" y="-7" font-family="Times,serif" font-size="10.00">_device.cc</text>
</a>
</g>
</g>
<!-- Node2&#45;&gt;Node4 -->
<g id="edge3_Node000002_Node000004" class="edge">
<title>Node2&#45;&gt;Node4</title>
<g id="a_edge3_Node000002_Node000004"><a xlink:title=" ">
<path fill="none" stroke="#63b8ff" d="M793.43,-83.05C721.56,-78.15 564.98,-65.48 435,-41 432.16,-40.47 429.28,-39.88 426.37,-39.25"/>
<polygon fill="#63b8ff" stroke="#63b8ff" points="793.6,-86.57 803.81,-83.74 794.07,-79.58 793.6,-86.57"/>
</a>
</g>
</g>
<!-- Node5 -->
<g id="Node000005" class="node">
<title>Node5</title>
<g id="a_Node000005"><a xlink:href="helloworld_8cpp.html" target="_top" xlink:title=" ">
<polygon fill="white" stroke="#666666" points="595.5,-35.5 444.5,-35.5 444.5,-5.5 595.5,-5.5 595.5,-35.5"/>
<text text-anchor="start" x="452.5" y="-23.5" font-family="Times,serif" font-size="10.00">doc/dox/dev/devsamp</text>
<text text-anchor="middle" x="520" y="-12.5" font-family="Times,serif" font-size="10.00">/helloworld/helloworld.cpp</text>
</a>
</g>
</g>
<!-- Node2&#45;&gt;Node5 -->
<g id="edge4_Node000002_Node000005" class="edge">
<title>Node2&#45;&gt;Node5</title>
<g id="a_edge4_Node000002_Node000005"><a xlink:title=" ">
<path fill="none" stroke="#63b8ff" d="M793.75,-78.24C748.26,-69.74 671.06,-55.02 605,-41 597,-39.3 588.6,-37.45 580.31,-35.59"/>
<polygon fill="#63b8ff" stroke="#63b8ff" points="793.31,-81.72 803.79,-80.11 794.6,-74.84 793.31,-81.72"/>
</a>
</g>
</g>
<!-- Node6 -->
<g id="Node000006" class="node">
<title>Node6</title>
<g id="a_Node000006"><a xlink:href="distributed_8cc.html" target="_top" xlink:title=" ">
<polygon fill="white" stroke="#666666" points="748,-35.5 614,-35.5 614,-5.5 748,-5.5 748,-35.5"/>
<text text-anchor="start" x="622" y="-23.5" font-family="Times,serif" font-size="10.00">doc/dox/user/examples</text>
<text text-anchor="middle" x="681" y="-12.5" font-family="Times,serif" font-size="10.00">/distributed.cc</text>
</a>
</g>
</g>
<!-- Node2&#45;&gt;Node6 -->
<g id="edge5_Node000002_Node000006" class="edge">
<title>Node2&#45;&gt;Node6</title>
<g id="a_edge5_Node000002_Node000006"><a xlink:title=" ">
<path fill="none" stroke="#63b8ff" d="M802.99,-72.86C777.5,-62.13 740.96,-46.75 714.52,-35.62"/>
<polygon fill="#63b8ff" stroke="#63b8ff" points="801.93,-76.21 812.5,-76.87 804.64,-69.76 801.93,-76.21"/>
</a>
</g>
</g>
<!-- Node7 -->
<g id="Node000007" class="node">
<title>Node7</title>
<g id="a_Node000007"><a xlink:href="iterative_8cc.html" target="_top" xlink:title=" ">
<polygon fill="white" stroke="#666666" points="900,-35.5 766,-35.5 766,-5.5 900,-5.5 900,-35.5"/>
<text text-anchor="start" x="774" y="-23.5" font-family="Times,serif" font-size="10.00">doc/dox/user/examples</text>
<text text-anchor="middle" x="833" y="-12.5" font-family="Times,serif" font-size="10.00">/iterative.cc</text>
</a>
</g>
</g>
<!-- Node2&#45;&gt;Node7 -->
<g id="edge6_Node000002_Node000007" class="edge">
<title>Node2&#45;&gt;Node7</title>
<g id="a_edge6_Node000002_Node000007"><a xlink:title=" ">
<path fill="none" stroke="#63b8ff" d="M833,-66.85C833,-56.97 833,-45.01 833,-35.86"/>
<polygon fill="#63b8ff" stroke="#63b8ff" points="829.5,-66.87 833,-76.87 836.5,-66.87 829.5,-66.87"/>
</a>
</g>
</g>
<!-- Node8 -->
<g id="Node000008" class="node">
<title>Node8</title>
<g id="a_Node000008"><a xlink:href="reducing_8cc.html" target="_top" xlink:title=" ">
<polygon fill="white" stroke="#666666" points="1052,-35.5 918,-35.5 918,-5.5 1052,-5.5 1052,-35.5"/>
<text text-anchor="start" x="926" y="-23.5" font-family="Times,serif" font-size="10.00">doc/dox/user/examples</text>
<text text-anchor="middle" x="985" y="-12.5" font-family="Times,serif" font-size="10.00">/reducing.cc</text>
</a>
</g>
</g>
<!-- Node2&#45;&gt;Node8 -->
<g id="edge7_Node000002_Node000008" class="edge">
<title>Node2&#45;&gt;Node8</title>
<g id="a_edge7_Node000002_Node000008"><a xlink:title=" ">
<path fill="none" stroke="#63b8ff" d="M863.01,-72.86C888.5,-62.13 925.04,-46.75 951.48,-35.62"/>
<polygon fill="#63b8ff" stroke="#63b8ff" points="861.36,-69.76 853.5,-76.87 864.07,-76.21 861.36,-69.76"/>
</a>
</g>
</g>
<!-- Node9 -->
<g id="Node000009" class="node">
<title>Node9</title>
<g id="a_Node000009"><a xlink:href="simple_8cc.html" target="_top" xlink:title=" ">
<polygon fill="white" stroke="#666666" points="134,-35.5 0,-35.5 0,-5.5 134,-5.5 134,-35.5"/>
<text text-anchor="start" x="8" y="-23.5" font-family="Times,serif" font-size="10.00">doc/dox/user/examples</text>
<text text-anchor="middle" x="67" y="-12.5" font-family="Times,serif" font-size="10.00">/simple.cc</text>
</a>
</g>
</g>
<!-- Node2&#45;&gt;Node9 -->
<g id="edge8_Node000002_Node000009" class="edge">
<title>Node2&#45;&gt;Node9</title>
<g id="a_edge8_Node000002_Node000009"><a xlink:title=" ">
<path fill="none" stroke="#63b8ff" d="M793.65,-85.52C687.77,-85.04 388.27,-80.02 143,-41 134.26,-39.61 125.05,-37.67 116.19,-35.54"/>
<polygon fill="#63b8ff" stroke="#63b8ff" points="793.85,-89.02 803.86,-85.56 793.87,-82.02 793.85,-89.02"/>
</a>
</g>
</g>
<!-- Node2&#45;&gt;Node10 -->
<g id="edge9_Node000002_Node000010" class="edge">
<title>Node2&#45;&gt;Node10</title>
<g id="a_edge9_Node000002_Node000010"><a xlink:title=" ">
<path fill="none" stroke="#63b8ff" d="M872.36,-78.75C917.96,-70.71 995.25,-56.42 1061,-41 1074.81,-37.76 1090,-33.66 1102.76,-30.06"/>
<polygon fill="#63b8ff" stroke="#63b8ff" points="871.55,-75.34 862.3,-80.51 872.76,-82.23 871.55,-75.34"/>
</a>
</g>
</g>
<!-- Node2&#45;&gt;Node11 -->
<g id="edge10_Node000002_Node000011" class="edge">
<title>Node2&#45;&gt;Node11</title>
<g id="a_edge10_Node000002_Node000011"><a xlink:title=" ">
<path fill="none" stroke="#63b8ff" d="M872.3,-83C940.28,-78.18 1083.96,-65.82 1203,-41 1216.49,-38.19 1231.23,-33.87 1243.26,-30.02"/>
<polygon fill="#63b8ff" stroke="#63b8ff" points="871.79,-79.53 862.06,-83.71 872.28,-86.51 871.79,-79.53"/>
</a>
</g>
</g>
<!-- Node12&#45;&gt;Node2 -->
<g id="edge12_Node000012_Node000002" class="edge">
<title>Node12&#45;&gt;Node2</title>
<g id="a_edge12_Node000012_Node000002"><a xlink:title=" ">
<path fill="none" stroke="#63b8ff" d="M976.11,-129.17C941.96,-119.23 893.05,-104.99 862.17,-95.99"/>
<polygon fill="#63b8ff" stroke="#63b8ff" points="975.18,-132.55 985.76,-131.98 977.14,-125.83 975.18,-132.55"/>
</a>
</g>
</g>
</g>
</svg>
