<?xml version="1.0" encoding="UTF-8" standalone="no"?>
<!DOCTYPE svg PUBLIC "-//W3C//DTD SVG 1.1//EN"
 "http://www.w3.org/Graphics/SVG/1.1/DTD/svg11.dtd">
<!-- Generated by graphviz version 2.43.0 (0)
 -->
<!-- Title: ttg/ttg/external/boost/callable_traits/detail/function_object.hpp Pages: 1 -->
<svg width="971pt" height="423pt"
 viewBox="0.00 0.00 970.50 423.00" xmlns="http://www.w3.org/2000/svg" xmlns:xlink="http://www.w3.org/1999/xlink">
<g id="graph0" class="graph" transform="scale(1 1) rotate(0) translate(4 419)">
<title>ttg/ttg/external/boost/callable_traits/detail/function_object.hpp</title>
<!-- Node1 -->
<g id="Node000001" class="node">
<title>Node1</title>
<g id="a_Node000001"><a xlink:title=" ">
<polygon fill="#999999" stroke="#666666" points="361,-415 237,-415 237,-374 361,-374 361,-415"/>
<text text-anchor="start" x="245" y="-403" font-family="Times,serif" font-size="10.00">ttg/ttg/external/boost</text>
<text text-anchor="start" x="245" y="-392" font-family="Times,serif" font-size="10.00">/callable_traits/detail</text>
<text text-anchor="middle" x="299" y="-381" font-family="Times,serif" font-size="10.00">/function_object.hpp</text>
</a>
</g>
</g>
<!-- Node2 -->
<g id="Node000002" class="node">
<title>Node2</title>
<g id="a_Node000002"><a xlink:href="pmf_8hpp.html" target="_top" xlink:title=" ">
<polygon fill="white" stroke="#666666" points="519,-338 401,-338 401,-308 519,-308 519,-338"/>
<text text-anchor="start" x="409" y="-326" font-family="Times,serif" font-size="10.00">boost/callable_traits</text>
<text text-anchor="middle" x="460" y="-315" font-family="Times,serif" font-size="10.00">/detail/pmf.hpp</text>
</a>
</g>
</g>
<!-- Node1&#45;&gt;Node2 -->
<g id="edge1_Node000001_Node000002" class="edge">
<title>Node1&#45;&gt;Node2</title>
<g id="a_edge1_Node000001_Node000002"><a xlink:title=" ">
<path fill="none" stroke="#63b8ff" d="M344.28,-373.96C367.47,-363.94 395.52,-351.83 418.2,-342.04"/>
<polygon fill="#63b8ff" stroke="#63b8ff" points="419.77,-345.18 427.56,-338 416.99,-338.75 419.77,-345.18"/>
</a>
</g>
</g>
<!-- Node3 -->
<g id="Node000003" class="node">
<title>Node3</title>
<g id="a_Node000003"><a xlink:href="forward__declarations_8hpp.html" target="_top" xlink:title=" ">
<polygon fill="white" stroke="#666666" points="287,-266.5 105,-266.5 105,-236.5 287,-236.5 287,-266.5"/>
<text text-anchor="start" x="113" y="-254.5" font-family="Times,serif" font-size="10.00">boost/callable_traits</text>
<text text-anchor="middle" x="196" y="-243.5" font-family="Times,serif" font-size="10.00">/detail/forward_declarations.hpp</text>
</a>
</g>
</g>
<!-- Node1&#45;&gt;Node3 -->
<g id="edge30_Node000001_Node000003" class="edge">
<title>Node1&#45;&gt;Node3</title>
<g id="a_edge30_Node000001_Node000003"><a xlink:title=" ">
<path fill="none" stroke="#63b8ff" d="M284.68,-373.89C265.72,-347.95 232.38,-302.31 212.43,-274.99"/>
<polygon fill="#63b8ff" stroke="#63b8ff" points="215.18,-272.82 206.45,-266.81 209.53,-276.95 215.18,-272.82"/>
</a>
</g>
</g>
<!-- Node11 -->
<g id="Node000011" class="node">
<title>Node11</title>
<g id="a_Node000011"><a xlink:href="default__callable__traits_8hpp.html" target="_top" xlink:title=" ">
<polygon fill="white" stroke="#666666" points="265.5,-195 134.5,-195 134.5,-154 265.5,-154 265.5,-195"/>
<text text-anchor="start" x="142.5" y="-183" font-family="Times,serif" font-size="10.00">boost/callable_traits</text>
<text text-anchor="start" x="142.5" y="-172" font-family="Times,serif" font-size="10.00">/detail/default_callable</text>
<text text-anchor="middle" x="200" y="-161" font-family="Times,serif" font-size="10.00">_traits.hpp</text>
</a>
</g>
</g>
<!-- Node1&#45;&gt;Node11 -->
<g id="edge29_Node000001_Node000011" class="edge">
<title>Node1&#45;&gt;Node11</title>
<g id="a_edge29_Node000001_Node000011"><a xlink:title=" ">
<path fill="none" stroke="#63b8ff" d="M236.62,-374.93C188.72,-357.01 125.88,-324.7 96,-272 87.01,-256.15 86.63,-246.63 96,-231 103.86,-217.9 115.98,-207.72 129.2,-199.87"/>
<polygon fill="#63b8ff" stroke="#63b8ff" points="130.93,-202.92 138.02,-195.04 127.57,-196.78 130.93,-202.92"/>
</a>
</g>
</g>
<!-- Node14 -->
<g id="Node000014" class="node">
<title>Node14</title>
<g id="a_Node000014"><a xlink:href="utility_8hpp.html" target="_top" xlink:title=" ">
<polygon fill="white" stroke="#666666" points="461,-266.5 343,-266.5 343,-236.5 461,-236.5 461,-266.5"/>
<text text-anchor="start" x="351" y="-254.5" font-family="Times,serif" font-size="10.00">boost/callable_traits</text>
<text text-anchor="middle" x="402" y="-243.5" font-family="Times,serif" font-size="10.00">/detail/utility.hpp</text>
</a>
</g>
</g>
<!-- Node1&#45;&gt;Node14 -->
<g id="edge31_Node000001_Node000014" class="edge">
<title>Node1&#45;&gt;Node14</title>
<g id="a_edge31_Node000001_Node000014"><a xlink:title=" ">
<path fill="none" stroke="#63b8ff" d="M313.32,-373.89C332.28,-347.95 365.62,-302.31 385.57,-274.99"/>
<polygon fill="#63b8ff" stroke="#63b8ff" points="388.47,-276.95 391.55,-266.81 382.82,-272.82 388.47,-276.95"/>
</a>
</g>
</g>
<!-- Node2&#45;&gt;Node3 -->
<g id="edge2_Node000002_Node000003" class="edge">
<title>Node2&#45;&gt;Node3</title>
<g id="a_edge2_Node000002_Node000003"><a xlink:title=" ">
<path fill="none" stroke="#63b8ff" d="M406.58,-307.94C363.99,-296.73 304.26,-281 259.28,-269.16"/>
<polygon fill="#63b8ff" stroke="#63b8ff" points="259.91,-265.7 249.34,-266.54 258.12,-272.47 259.91,-265.7"/>
</a>
</g>
</g>
<!-- Node2&#45;&gt;Node11 -->
<g id="edge15_Node000002_Node000011" class="edge">
<title>Node2&#45;&gt;Node11</title>
<g id="a_edge15_Node000002_Node000011"><a xlink:title=" ">
<path fill="none" stroke="#63b8ff" d="M410.22,-307.97C385.96,-299.74 357.11,-287.83 334,-272 313.5,-257.96 315.42,-246.5 296,-231 281.66,-219.55 264.7,-208.94 249.05,-200.12"/>
<polygon fill="#63b8ff" stroke="#63b8ff" points="250.46,-196.9 240.01,-195.15 247.08,-203.04 250.46,-196.9"/>
</a>
</g>
</g>
<!-- Node12 -->
<g id="Node000012" class="node">
<title>Node12</title>
<g id="a_Node000012"><a xlink:href="set__function__qualifiers_8hpp.html" target="_top" xlink:title=" ">
<polygon fill="white" stroke="#666666" points="597,-272 479,-272 479,-231 597,-231 597,-272"/>
<text text-anchor="start" x="487" y="-260" font-family="Times,serif" font-size="10.00">boost/callable_traits</text>
<text text-anchor="start" x="487" y="-249" font-family="Times,serif" font-size="10.00">/detail/set_function</text>
<text text-anchor="middle" x="538" y="-238" font-family="Times,serif" font-size="10.00">_qualifiers.hpp</text>
</a>
</g>
</g>
<!-- Node2&#45;&gt;Node12 -->
<g id="edge11_Node000002_Node000012" class="edge">
<title>Node2&#45;&gt;Node12</title>
<g id="a_edge11_Node000002_Node000012"><a xlink:title=" ">
<path fill="none" stroke="#63b8ff" d="M475.78,-307.94C485.19,-299.56 497.42,-288.65 508.55,-278.74"/>
<polygon fill="#63b8ff" stroke="#63b8ff" points="510.89,-281.34 516.03,-272.07 506.24,-276.11 510.89,-281.34"/>
</a>
</g>
</g>
<!-- Node13 -->
<g id="Node000013" class="node">
<title>Node13</title>
<g id="a_Node000013"><a xlink:href="qualifier__flags_8hpp.html" target="_top" xlink:title=" ">
<polygon fill="white" stroke="#666666" points="628.5,-189.5 481.5,-189.5 481.5,-159.5 628.5,-159.5 628.5,-189.5"/>
<text text-anchor="start" x="489.5" y="-177.5" font-family="Times,serif" font-size="10.00">boost/callable_traits</text>
<text text-anchor="middle" x="555" y="-166.5" font-family="Times,serif" font-size="10.00">/detail/qualifier_flags.hpp</text>
</a>
</g>
</g>
<!-- Node2&#45;&gt;Node13 -->
<g id="edge14_Node000002_Node000013" class="edge">
<title>Node2&#45;&gt;Node13</title>
<g id="a_edge14_Node000002_Node000013"><a xlink:title=" ">
<path fill="none" stroke="#63b8ff" d="M519.16,-317.73C550.42,-312.11 586.3,-299.58 606,-272 623.37,-247.7 600.01,-216.73 579.49,-196.53"/>
<polygon fill="#63b8ff" stroke="#63b8ff" points="581.82,-193.91 572.14,-189.6 577.02,-199.01 581.82,-193.91"/>
</a>
</g>
</g>
<!-- Node2&#45;&gt;Node14 -->
<g id="edge16_Node000002_Node000014" class="edge">
<title>Node2&#45;&gt;Node14</title>
<g id="a_edge16_Node000002_Node000014"><a xlink:title=" ">
<path fill="none" stroke="#63b8ff" d="M448.26,-307.94C440.24,-298.33 429.46,-285.4 420.32,-274.45"/>
<polygon fill="#63b8ff" stroke="#63b8ff" points="422.81,-271.98 413.72,-266.54 417.44,-276.46 422.81,-271.98"/>
</a>
</g>
</g>
<!-- Node16 -->
<g id="Node000016" class="node">
<title>Node16</title>
<g id="a_Node000016"><a xlink:href="unguarded_2pmf_8hpp.html" target="_top" xlink:title=" ">
<polygon fill="white" stroke="#666666" points="807,-266.5 653,-266.5 653,-236.5 807,-236.5 807,-266.5"/>
<text text-anchor="start" x="661" y="-254.5" font-family="Times,serif" font-size="10.00">boost/callable_traits</text>
<text text-anchor="middle" x="730" y="-243.5" font-family="Times,serif" font-size="10.00">/detail/unguarded/pmf.hpp</text>
</a>
</g>
</g>
<!-- Node2&#45;&gt;Node16 -->
<g id="edge21_Node000002_Node000016" class="edge">
<title>Node2&#45;&gt;Node16</title>
<g id="a_edge21_Node000002_Node000016"><a xlink:title=" ">
<path fill="none" stroke="#63b8ff" d="M514.64,-307.94C558.28,-296.7 619.54,-280.93 665.57,-269.09"/>
<polygon fill="#63b8ff" stroke="#63b8ff" points="666.63,-272.43 675.44,-266.54 664.89,-265.65 666.63,-272.43"/>
</a>
</g>
</g>
<!-- Node20 -->
<g id="Node000020" class="node">
<title>Node20</title>
<g id="a_Node000020"><a xlink:href="pmf__varargs_8hpp.html" target="_top" xlink:title=" ">
<polygon fill="white" stroke="#666666" points="959.5,-272 828.5,-272 828.5,-231 959.5,-231 959.5,-272"/>
<text text-anchor="start" x="836.5" y="-260" font-family="Times,serif" font-size="10.00">boost/callable_traits</text>
<text text-anchor="start" x="836.5" y="-249" font-family="Times,serif" font-size="10.00">/detail/unguarded/pmf</text>
<text text-anchor="middle" x="894" y="-238" font-family="Times,serif" font-size="10.00">_varargs.hpp</text>
</a>
</g>
</g>
<!-- Node2&#45;&gt;Node20 -->
<g id="edge25_Node000002_Node000020" class="edge">
<title>Node2&#45;&gt;Node20</title>
<g id="a_edge25_Node000002_Node000020"><a xlink:title=" ">
<path fill="none" stroke="#63b8ff" d="M519.21,-315.62C590.12,-307.53 712.31,-292.18 816,-272 816.75,-271.85 817.49,-271.71 818.25,-271.56"/>
<polygon fill="#63b8ff" stroke="#63b8ff" points="819.08,-274.96 828.15,-269.48 817.64,-268.11 819.08,-274.96"/>
</a>
</g>
</g>
<!-- Node4 -->
<g id="Node000004" class="node">
<title>Node4</title>
<g id="a_Node000004"><a xlink:href="config_8hpp.html" target="_top" xlink:title=" ">
<polygon fill="white" stroke="#666666" points="366,-112.5 248,-112.5 248,-82.5 366,-82.5 366,-112.5"/>
<text text-anchor="start" x="256" y="-100.5" font-family="Times,serif" font-size="10.00">boost/callable_traits</text>
<text text-anchor="middle" x="307" y="-89.5" font-family="Times,serif" font-size="10.00">/detail/config.hpp</text>
</a>
</g>
</g>
<!-- Node3&#45;&gt;Node4 -->
<g id="edge3_Node000003_Node000004" class="edge">
<title>Node3&#45;&gt;Node4</title>
<g id="a_edge3_Node000003_Node000004"><a xlink:title=" ">
<path fill="none" stroke="#63b8ff" d="M167.45,-236.47C151.8,-227.09 133.85,-213.14 125,-195 117.01,-178.62 114.16,-168.64 125,-154 150.83,-119.13 198.07,-105.43 237.95,-100.36"/>
<polygon fill="#63b8ff" stroke="#63b8ff" points="238.37,-103.83 247.92,-99.25 237.59,-96.88 238.37,-103.83"/>
</a>
</g>
</g>
<!-- Node3&#45;&gt;Node11 -->
<g id="edge10_Node000003_Node000011" class="edge">
<title>Node3&#45;&gt;Node11</title>
<g id="a_edge10_Node000003_Node000011"><a xlink:title=" ">
<path fill="none" stroke="#63b8ff" d="M196.75,-236.39C197.22,-227.67 197.83,-216.14 198.4,-205.46"/>
<polygon fill="#63b8ff" stroke="#63b8ff" points="201.91,-205.38 198.95,-195.2 194.92,-205 201.91,-205.38"/>
</a>
</g>
</g>
<!-- Node5 -->
<g id="Node000005" class="node">
<title>Node5</title>
<g id="a_Node000005"><a xlink:title=" ">
<polygon fill="#e0e0e0" stroke="#999999" points="217.5,-30 146.5,-30 146.5,-11 217.5,-11 217.5,-30"/>
<text text-anchor="middle" x="182" y="-18" font-family="Times,serif" font-size="10.00">type_traits</text>
</a>
</g>
</g>
<!-- Node4&#45;&gt;Node5 -->
<g id="edge4_Node000004_Node000005" class="edge">
<title>Node4&#45;&gt;Node5</title>
<g id="a_edge4_Node000004_Node000005"><a xlink:title=" ">
<path fill="none" stroke="#63b8ff" d="M283.49,-82.39C261.09,-68.95 227.56,-48.84 205.25,-35.45"/>
<polygon fill="#63b8ff" stroke="#63b8ff" points="206.81,-32.31 196.44,-30.16 203.21,-38.31 206.81,-32.31"/>
</a>
</g>
</g>
<!-- Node6 -->
<g id="Node000006" class="node">
<title>Node6</title>
<g id="a_Node000006"><a xlink:title=" ">
<polygon fill="#e0e0e0" stroke="#999999" points="278.5,-30 235.5,-30 235.5,-11 278.5,-11 278.5,-30"/>
<text text-anchor="middle" x="257" y="-18" font-family="Times,serif" font-size="10.00">tuple</text>
</a>
</g>
</g>
<!-- Node4&#45;&gt;Node6 -->
<g id="edge5_Node000004_Node000006" class="edge">
<title>Node4&#45;&gt;Node6</title>
<g id="a_edge5_Node000004_Node000006"><a xlink:title=" ">
<path fill="none" stroke="#63b8ff" d="M297.6,-82.39C289.4,-70.1 277.48,-52.22 268.68,-39.02"/>
<polygon fill="#63b8ff" stroke="#63b8ff" points="271.38,-36.75 262.92,-30.37 265.55,-40.64 271.38,-36.75"/>
</a>
</g>
</g>
<!-- Node7 -->
<g id="Node000007" class="node">
<title>Node7</title>
<g id="a_Node000007"><a xlink:title=" ">
<polygon fill="#e0e0e0" stroke="#999999" points="343,-30 297,-30 297,-11 343,-11 343,-30"/>
<text text-anchor="middle" x="320" y="-18" font-family="Times,serif" font-size="10.00">utility</text>
</a>
</g>
</g>
<!-- Node4&#45;&gt;Node7 -->
<g id="edge6_Node000004_Node000007" class="edge">
<title>Node4&#45;&gt;Node7</title>
<g id="a_edge6_Node000004_Node000007"><a xlink:title=" ">
<path fill="none" stroke="#63b8ff" d="M309.45,-82.39C311.49,-70.58 314.44,-53.6 316.69,-40.58"/>
<polygon fill="#63b8ff" stroke="#63b8ff" points="320.2,-40.83 318.46,-30.37 313.31,-39.63 320.2,-40.83"/>
</a>
</g>
</g>
<!-- Node8 -->
<g id="Node000008" class="node">
<title>Node8</title>
<g id="a_Node000008"><a xlink:title=" ">
<polygon fill="#e0e0e0" stroke="#999999" points="412.5,-30 361.5,-30 361.5,-11 412.5,-11 412.5,-30"/>
<text text-anchor="middle" x="387" y="-18" font-family="Times,serif" font-size="10.00">cstdint</text>
</a>
</g>
</g>
<!-- Node4&#45;&gt;Node8 -->
<g id="edge7_Node000004_Node000008" class="edge">
<title>Node4&#45;&gt;Node8</title>
<g id="a_edge7_Node000004_Node000008"><a xlink:title=" ">
<path fill="none" stroke="#63b8ff" d="M322.05,-82.39C335.67,-69.62 355.72,-50.83 369.93,-37.5"/>
<polygon fill="#63b8ff" stroke="#63b8ff" points="372.63,-39.77 377.53,-30.37 367.84,-34.66 372.63,-39.77"/>
</a>
</g>
</g>
<!-- Node9 -->
<g id="Node000009" class="node">
<title>Node9</title>
<g id="a_Node000009"><a xlink:href="disjunction_8hpp.html" target="_top" xlink:title=" ">
<polygon fill="white" stroke="#666666" points="603.5,-35.5 430.5,-35.5 430.5,-5.5 603.5,-5.5 603.5,-35.5"/>
<text text-anchor="start" x="438.5" y="-23.5" font-family="Times,serif" font-size="10.00">boost/callable_traits</text>
<text text-anchor="middle" x="517" y="-12.5" font-family="Times,serif" font-size="10.00">/detail/polyfills/disjunction.hpp</text>
</a>
</g>
</g>
<!-- Node4&#45;&gt;Node9 -->
<g id="edge8_Node000004_Node000009" class="edge">
<title>Node4&#45;&gt;Node9</title>
<g id="a_edge8_Node000004_Node000009"><a xlink:title=" ">
<path fill="none" stroke="#63b8ff" d="M346.5,-82.39C380.96,-70.08 431.11,-52.18 468.1,-38.97"/>
<polygon fill="#63b8ff" stroke="#63b8ff" points="469.44,-42.2 477.68,-35.54 467.08,-35.61 469.44,-42.2"/>
</a>
</g>
</g>
<!-- Node10 -->
<g id="Node000010" class="node">
<title>Node10</title>
<g id="a_Node000010"><a xlink:href="make__index__sequence_8hpp.html" target="_top" xlink:title=" ">
<polygon fill="white" stroke="#666666" points="128,-41 0,-41 0,0 128,0 128,-41"/>
<text text-anchor="start" x="8" y="-29" font-family="Times,serif" font-size="10.00">boost/callable_traits</text>
<text text-anchor="start" x="8" y="-18" font-family="Times,serif" font-size="10.00">/detail/polyfills/make</text>
<text text-anchor="middle" x="64" y="-7" font-family="Times,serif" font-size="10.00">_index_sequence.hpp</text>
</a>
</g>
</g>
<!-- Node4&#45;&gt;Node10 -->
<g id="edge9_Node000004_Node000010" class="edge">
<title>Node4&#45;&gt;Node10</title>
<g id="a_edge9_Node000004_Node000010"><a xlink:title=" ">
<path fill="none" stroke="#63b8ff" d="M261.58,-82.48C226.61,-71.69 177.56,-56.55 137.09,-44.06"/>
<polygon fill="#63b8ff" stroke="#63b8ff" points="138.12,-40.71 127.53,-41.11 136.05,-47.4 138.12,-40.71"/>
</a>
</g>
</g>
<!-- Node12&#45;&gt;Node13 -->
<g id="edge12_Node000012_Node000013" class="edge">
<title>Node12&#45;&gt;Node13</title>
<g id="a_edge12_Node000012_Node000013"><a xlink:title=" ">
<path fill="none" stroke="#63b8ff" d="M542.47,-230.79C544.63,-221.26 547.24,-209.73 549.52,-199.67"/>
<polygon fill="#63b8ff" stroke="#63b8ff" points="552.95,-200.39 551.74,-189.86 546.12,-198.84 552.95,-200.39"/>
</a>
</g>
</g>
<!-- Node13&#45;&gt;Node4 -->
<g id="edge13_Node000013_Node000004" class="edge">
<title>Node13&#45;&gt;Node4</title>
<g id="a_edge13_Node000013_Node000004"><a xlink:title=" ">
<path fill="none" stroke="#63b8ff" d="M508.64,-159.48C467.46,-147.03 407.15,-128.79 363.22,-115.5"/>
<polygon fill="#63b8ff" stroke="#63b8ff" points="364.13,-112.12 353.55,-112.58 362.11,-118.82 364.13,-112.12"/>
</a>
</g>
</g>
<!-- Node14&#45;&gt;Node4 -->
<g id="edge17_Node000014_Node000004" class="edge">
<title>Node14&#45;&gt;Node4</title>
<g id="a_edge17_Node000014_Node000004"><a xlink:title=" ">
<path fill="none" stroke="#63b8ff" d="M363.72,-236.48C345.12,-227.58 324.38,-214.08 313,-195 300.03,-173.25 300.26,-143.61 302.64,-122.95"/>
<polygon fill="#63b8ff" stroke="#63b8ff" points="306.15,-123.16 304.07,-112.77 299.22,-122.19 306.15,-123.16"/>
</a>
</g>
</g>
<!-- Node14&#45;&gt;Node13 -->
<g id="edge20_Node000014_Node000013" class="edge">
<title>Node14&#45;&gt;Node13</title>
<g id="a_edge20_Node000014_Node000013"><a xlink:title=" ">
<path fill="none" stroke="#63b8ff" d="M430.78,-236.39C455.25,-224.4 490.56,-207.09 517.29,-193.99"/>
<polygon fill="#63b8ff" stroke="#63b8ff" points="518.91,-197.09 526.35,-189.54 515.83,-190.8 518.91,-197.09"/>
</a>
</g>
</g>
<!-- Node15 -->
<g id="Node000015" class="node">
<title>Node15</title>
<g id="a_Node000015"><a xlink:href="sfinae__errors_8hpp.html" target="_top" xlink:title=" ">
<polygon fill="white" stroke="#666666" points="463.5,-189.5 322.5,-189.5 322.5,-159.5 463.5,-159.5 463.5,-189.5"/>
<text text-anchor="start" x="330.5" y="-177.5" font-family="Times,serif" font-size="10.00">boost/callable_traits</text>
<text text-anchor="middle" x="393" y="-166.5" font-family="Times,serif" font-size="10.00">/detail/sfinae_errors.hpp</text>
</a>
</g>
</g>
<!-- Node14&#45;&gt;Node15 -->
<g id="edge18_Node000014_Node000015" class="edge">
<title>Node14&#45;&gt;Node15</title>
<g id="a_edge18_Node000014_Node000015"><a xlink:title=" ">
<path fill="none" stroke="#63b8ff" d="M400.31,-236.39C399.06,-226.02 397.34,-211.68 395.88,-199.51"/>
<polygon fill="#63b8ff" stroke="#63b8ff" points="399.35,-199.06 394.69,-189.54 392.4,-199.89 399.35,-199.06"/>
</a>
</g>
</g>
<!-- Node15&#45;&gt;Node4 -->
<g id="edge19_Node000015_Node000004" class="edge">
<title>Node15&#45;&gt;Node4</title>
<g id="a_edge19_Node000015_Node000004"><a xlink:title=" ">
<path fill="none" stroke="#63b8ff" d="M376.82,-159.39C363.85,-148.08 345.45,-132.04 330.8,-119.26"/>
<polygon fill="#63b8ff" stroke="#63b8ff" points="332.94,-116.48 323.1,-112.54 328.34,-121.75 332.94,-116.48"/>
</a>
</g>
</g>
<!-- Node17 -->
<g id="Node000017" class="node">
<title>Node17</title>
<g id="a_Node000017"><a xlink:href="pmf__2_8hpp.html" target="_top" xlink:title=" ">
<polygon fill="white" stroke="#666666" points="813,-189.5 647,-189.5 647,-159.5 813,-159.5 813,-189.5"/>
<text text-anchor="start" x="655" y="-177.5" font-family="Times,serif" font-size="10.00">boost/callable_traits</text>
<text text-anchor="middle" x="730" y="-166.5" font-family="Times,serif" font-size="10.00">/detail/unguarded/pmf_2.hpp</text>
</a>
</g>
</g>
<!-- Node16&#45;&gt;Node17 -->
<g id="edge22_Node000016_Node000017" class="edge">
<title>Node16&#45;&gt;Node17</title>
<g id="a_edge22_Node000016_Node000017"><a xlink:title=" ">
<path fill="none" stroke="#63b8ff" d="M730,-236.39C730,-226.13 730,-211.97 730,-199.88"/>
<polygon fill="#63b8ff" stroke="#63b8ff" points="733.5,-199.54 730,-189.54 726.5,-199.54 733.5,-199.54"/>
</a>
</g>
</g>
<!-- Node18 -->
<g id="Node000018" class="node">
<title>Node18</title>
<g id="a_Node000018"><a xlink:href="pmf__3_8hpp.html" target="_top" xlink:title=" ">
<polygon fill="white" stroke="#666666" points="813,-112.5 647,-112.5 647,-82.5 813,-82.5 813,-112.5"/>
<text text-anchor="start" x="655" y="-100.5" font-family="Times,serif" font-size="10.00">boost/callable_traits</text>
<text text-anchor="middle" x="730" y="-89.5" font-family="Times,serif" font-size="10.00">/detail/unguarded/pmf_3.hpp</text>
</a>
</g>
</g>
<!-- Node17&#45;&gt;Node18 -->
<g id="edge23_Node000017_Node000018" class="edge">
<title>Node17&#45;&gt;Node18</title>
<g id="a_edge23_Node000017_Node000018"><a xlink:title=" ">
<path fill="none" stroke="#63b8ff" d="M730,-159.39C730,-149.13 730,-134.97 730,-122.88"/>
<polygon fill="#63b8ff" stroke="#63b8ff" points="733.5,-122.54 730,-112.54 726.5,-122.54 733.5,-122.54"/>
</a>
</g>
</g>
<!-- Node19 -->
<g id="Node000019" class="node">
<title>Node19</title>
<g id="a_Node000019"><a xlink:href="pmf__4_8hpp.html" target="_top" xlink:title=" ">
<polygon fill="white" stroke="#666666" points="813,-35.5 647,-35.5 647,-5.5 813,-5.5 813,-35.5"/>
<text text-anchor="start" x="655" y="-23.5" font-family="Times,serif" font-size="10.00">boost/callable_traits</text>
<text text-anchor="middle" x="730" y="-12.5" font-family="Times,serif" font-size="10.00">/detail/unguarded/pmf_4.hpp</text>
</a>
</g>
</g>
<!-- Node18&#45;&gt;Node19 -->
<g id="edge24_Node000018_Node000019" class="edge">
<title>Node18&#45;&gt;Node19</title>
<g id="a_edge24_Node000018_Node000019"><a xlink:title=" ">
<path fill="none" stroke="#63b8ff" d="M730,-82.39C730,-72.13 730,-57.97 730,-45.88"/>
<polygon fill="#63b8ff" stroke="#63b8ff" points="733.5,-45.54 730,-35.54 726.5,-45.54 733.5,-45.54"/>
</a>
</g>
</g>
<!-- Node21 -->
<g id="Node000021" class="node">
<title>Node21</title>
<g id="a_Node000021"><a xlink:href="pmf__varargs__2_8hpp.html" target="_top" xlink:title=" ">
<polygon fill="white" stroke="#666666" points="962.5,-195 831.5,-195 831.5,-154 962.5,-154 962.5,-195"/>
<text text-anchor="start" x="839.5" y="-183" font-family="Times,serif" font-size="10.00">boost/callable_traits</text>
<text text-anchor="start" x="839.5" y="-172" font-family="Times,serif" font-size="10.00">/detail/unguarded/pmf</text>
<text text-anchor="middle" x="897" y="-161" font-family="Times,serif" font-size="10.00">_varargs_2.hpp</text>
</a>
</g>
</g>
<!-- Node20&#45;&gt;Node21 -->
<g id="edge26_Node000020_Node000021" class="edge">
<title>Node20&#45;&gt;Node21</title>
<g id="a_edge26_Node000020_Node000021"><a xlink:title=" ">
<path fill="none" stroke="#63b8ff" d="M894.79,-230.79C895.1,-222.96 895.47,-213.77 895.81,-205.16"/>
<polygon fill="#63b8ff" stroke="#63b8ff" points="899.31,-205.21 896.22,-195.07 892.32,-204.93 899.31,-205.21"/>
</a>
</g>
</g>
<!-- Node22 -->
<g id="Node000022" class="node">
<title>Node22</title>
<g id="a_Node000022"><a xlink:href="pmf__varargs__3_8hpp.html" target="_top" xlink:title=" ">
<polygon fill="white" stroke="#666666" points="962.5,-118 831.5,-118 831.5,-77 962.5,-77 962.5,-118"/>
<text text-anchor="start" x="839.5" y="-106" font-family="Times,serif" font-size="10.00">boost/callable_traits</text>
<text text-anchor="start" x="839.5" y="-95" font-family="Times,serif" font-size="10.00">/detail/unguarded/pmf</text>
<text text-anchor="middle" x="897" y="-84" font-family="Times,serif" font-size="10.00">_varargs_3.hpp</text>
</a>
</g>
</g>
<!-- Node21&#45;&gt;Node22 -->
<g id="edge27_Node000021_Node000022" class="edge">
<title>Node21&#45;&gt;Node22</title>
<g id="a_edge27_Node000021_Node000022"><a xlink:title=" ">
<path fill="none" stroke="#63b8ff" d="M897,-153.79C897,-145.96 897,-136.77 897,-128.16"/>
<polygon fill="#63b8ff" stroke="#63b8ff" points="900.5,-128.07 897,-118.07 893.5,-128.07 900.5,-128.07"/>
</a>
</g>
</g>
<!-- Node23 -->
<g id="Node000023" class="node">
<title>Node23</title>
<g id="a_Node000023"><a xlink:href="pmf__varargs__4_8hpp.html" target="_top" xlink:title=" ">
<polygon fill="white" stroke="#666666" points="962.5,-41 831.5,-41 831.5,0 962.5,0 962.5,-41"/>
<text text-anchor="start" x="839.5" y="-29" font-family="Times,serif" font-size="10.00">boost/callable_traits</text>
<text text-anchor="start" x="839.5" y="-18" font-family="Times,serif" font-size="10.00">/detail/unguarded/pmf</text>
<text text-anchor="middle" x="897" y="-7" font-family="Times,serif" font-size="10.00">_varargs_4.hpp</text>
</a>
</g>
</g>
<!-- Node22&#45;&gt;Node23 -->
<g id="edge28_Node000022_Node000023" class="edge">
<title>Node22&#45;&gt;Node23</title>
<g id="a_edge28_Node000022_Node000023"><a xlink:title=" ">
<path fill="none" stroke="#63b8ff" d="M897,-76.79C897,-68.96 897,-59.77 897,-51.16"/>
<polygon fill="#63b8ff" stroke="#63b8ff" points="900.5,-51.07 897,-41.07 893.5,-51.07 900.5,-51.07"/>
</a>
</g>
</g>
</g>
</svg>
