<?xml version="1.0" encoding="UTF-8" standalone="no"?>
<!DOCTYPE svg PUBLIC "-//W3C//DTD SVG 1.1//EN"
 "http://www.w3.org/Graphics/SVG/1.1/DTD/svg11.dtd">
<!-- Generated by graphviz version 2.43.0 (0)
 -->
<!-- Title: ttg/ttg/external/boost/callable_traits/detail/unguarded/function_ptr_varargs.hpp Pages: 1 -->
<svg width="161pt" height="214pt"
 viewBox="0.00 0.00 161.00 214.00" xmlns="http://www.w3.org/2000/svg" xmlns:xlink="http://www.w3.org/1999/xlink">
<g id="graph0" class="graph" transform="scale(1 1) rotate(0) translate(4 210)">
<title>ttg/ttg/external/boost/callable_traits/detail/unguarded/function_ptr_varargs.hpp</title>
<!-- Node1 -->
<g id="Node000001" class="node">
<title>Node1</title>
<g id="a_Node000001"><a xlink:title=" ">
<polygon fill="#999999" stroke="#666666" points="147.5,-206 5.5,-206 5.5,-154 147.5,-154 147.5,-206"/>
<text text-anchor="start" x="13.5" y="-194" font-family="Times,serif" font-size="10.00">ttg/ttg/external/boost</text>
<text text-anchor="start" x="13.5" y="-183" font-family="Times,serif" font-size="10.00">/callable_traits/detail</text>
<text text-anchor="start" x="13.5" y="-172" font-family="Times,serif" font-size="10.00">/unguarded/function_ptr</text>
<text text-anchor="middle" x="76.5" y="-161" font-family="Times,serif" font-size="10.00">_varargs.hpp</text>
</a>
</g>
</g>
<!-- Node2 -->
<g id="Node000002" class="node">
<title>Node2</title>
<g id="a_Node000002"><a xlink:href="function__ptr__varargs__2_8hpp.html" target="_top" xlink:title=" ">
<polygon fill="white" stroke="#666666" points="153,-118 0,-118 0,-77 153,-77 153,-118"/>
<text text-anchor="start" x="8" y="-106" font-family="Times,serif" font-size="10.00">boost/callable_traits</text>
<text text-anchor="start" x="8" y="-95" font-family="Times,serif" font-size="10.00">/detail/unguarded/function</text>
<text text-anchor="middle" x="76.5" y="-84" font-family="Times,serif" font-size="10.00">_ptr_varargs_2.hpp</text>
</a>
</g>
</g>
<!-- Node1&#45;&gt;Node2 -->
<g id="edge1_Node000001_Node000002" class="edge">
<title>Node1&#45;&gt;Node2</title>
<g id="a_edge1_Node000001_Node000002"><a xlink:title=" ">
<path fill="none" stroke="#63b8ff" d="M76.5,-153.97C76.5,-145.86 76.5,-136.78 76.5,-128.35"/>
<polygon fill="#63b8ff" stroke="#63b8ff" points="80,-128.15 76.5,-118.15 73,-128.15 80,-128.15"/>
</a>
</g>
</g>
<!-- Node3 -->
<g id="Node000003" class="node">
<title>Node3</title>
<g id="a_Node000003"><a xlink:href="function__ptr__varargs__3_8hpp.html" target="_top" xlink:title=" ">
<polygon fill="white" stroke="#666666" points="153,-41 0,-41 0,0 153,0 153,-41"/>
<text text-anchor="start" x="8" y="-29" font-family="Times,serif" font-size="10.00">boost/callable_traits</text>
<text text-anchor="start" x="8" y="-18" font-family="Times,serif" font-size="10.00">/detail/unguarded/function</text>
<text text-anchor="middle" x="76.5" y="-7" font-family="Times,serif" font-size="10.00">_ptr_varargs_3.hpp</text>
</a>
</g>
</g>
<!-- Node2&#45;&gt;Node3 -->
<g id="edge2_Node000002_Node000003" class="edge">
<title>Node2&#45;&gt;Node3</title>
<g id="a_edge2_Node000002_Node000003"><a xlink:title=" ">
<path fill="none" stroke="#63b8ff" d="M76.5,-76.79C76.5,-68.96 76.5,-59.77 76.5,-51.16"/>
<polygon fill="#63b8ff" stroke="#63b8ff" points="80,-51.07 76.5,-41.07 73,-51.07 80,-51.07"/>
</a>
</g>
</g>
</g>
</svg>
