<?xml version="1.0" encoding="UTF-8" standalone="no"?>
<!DOCTYPE svg PUBLIC "-//W3C//DTD SVG 1.1//EN"
 "http://www.w3.org/Graphics/SVG/1.1/DTD/svg11.dtd">
<!-- Generated by graphviz version 2.43.0 (0)
 -->
<!-- Title: ttg/ttg/util/hash.h Pages: 1 -->
<svg width="471pt" height="247pt"
 viewBox="0.00 0.00 471.00 247.00" xmlns="http://www.w3.org/2000/svg" xmlns:xlink="http://www.w3.org/1999/xlink">
<g id="graph0" class="graph" transform="scale(1 1) rotate(0) translate(4 243)">
<title>ttg/ttg/util/hash.h</title>
<!-- Node1 -->
<g id="Node000001" class="node">
<title>Node1</title>
<g id="a_Node000001"><a xlink:title=" ">
<polygon fill="#999999" stroke="#666666" points="263.5,-239 158.5,-239 158.5,-220 263.5,-220 263.5,-239"/>
<text text-anchor="middle" x="211" y="-227" font-family="Times,serif" font-size="10.00">ttg/ttg/util/hash.h</text>
</a>
</g>
</g>
<!-- Node2 -->
<g id="Node000002" class="node">
<title>Node2</title>
<g id="a_Node000002"><a xlink:title=" ">
<polygon fill="#e0e0e0" stroke="#999999" points="54,-19 0,-19 0,0 54,0 54,-19"/>
<text text-anchor="middle" x="27" y="-7" font-family="Times,serif" font-size="10.00">cstddef</text>
</a>
</g>
</g>
<!-- Node1&#45;&gt;Node2 -->
<g id="edge1_Node000001_Node000002" class="edge">
<title>Node1&#45;&gt;Node2</title>
<g id="a_edge1_Node000001_Node000002"><a xlink:title=" ">
<path fill="none" stroke="#63b8ff" d="M194.55,-220C180.13,-212.01 159.16,-199.05 144,-184 94.47,-134.82 53.39,-61.74 35.97,-28.33"/>
<polygon fill="#63b8ff" stroke="#63b8ff" points="39.02,-26.6 31.34,-19.3 32.79,-29.8 39.02,-26.6"/>
</a>
</g>
</g>
<!-- Node3 -->
<g id="Node000003" class="node">
<title>Node3</title>
<g id="a_Node000003"><a xlink:title=" ">
<polygon fill="#e0e0e0" stroke="#999999" points="123.5,-19 72.5,-19 72.5,0 123.5,0 123.5,-19"/>
<text text-anchor="middle" x="98" y="-7" font-family="Times,serif" font-size="10.00">cstdint</text>
</a>
</g>
</g>
<!-- Node1&#45;&gt;Node3 -->
<g id="edge2_Node000001_Node000003" class="edge">
<title>Node1&#45;&gt;Node3</title>
<g id="a_edge2_Node000001_Node000003"><a xlink:title=" ">
<path fill="none" stroke="#63b8ff" d="M197.28,-219.81C185.62,-211.8 169.21,-198.9 159,-184 124.78,-134.04 107.79,-62.89 101.27,-29.36"/>
<polygon fill="#63b8ff" stroke="#63b8ff" points="104.65,-28.37 99.4,-19.16 97.77,-29.63 104.65,-28.37"/>
</a>
</g>
</g>
<!-- Node4 -->
<g id="Node000004" class="node">
<title>Node4</title>
<g id="a_Node000004"><a xlink:href="void_8h.html" target="_top" xlink:title=" ">
<polygon fill="white" stroke="#666666" points="253.5,-184 168.5,-184 168.5,-165 253.5,-165 253.5,-184"/>
<text text-anchor="middle" x="211" y="-172" font-family="Times,serif" font-size="10.00">ttg/util/void.h</text>
</a>
</g>
</g>
<!-- Node1&#45;&gt;Node4 -->
<g id="edge3_Node000001_Node000004" class="edge">
<title>Node1&#45;&gt;Node4</title>
<g id="a_edge3_Node000001_Node000004"><a xlink:title=" ">
<path fill="none" stroke="#63b8ff" d="M211,-219.75C211,-212.8 211,-202.85 211,-194.13"/>
<polygon fill="#63b8ff" stroke="#63b8ff" points="214.5,-194.09 211,-184.09 207.5,-194.09 214.5,-194.09"/>
</a>
</g>
</g>
<!-- Node14 -->
<g id="Node000014" class="node">
<title>Node14</title>
<g id="a_Node000014"><a xlink:href="util_2hash_2std_2pair_8h.html" target="_top" xlink:title=" ">
<polygon fill="white" stroke="#666666" points="400.5,-184 271.5,-184 271.5,-165 400.5,-165 400.5,-184"/>
<text text-anchor="middle" x="336" y="-172" font-family="Times,serif" font-size="10.00">ttg/util/hash/std/pair.h</text>
</a>
</g>
</g>
<!-- Node1&#45;&gt;Node14 -->
<g id="edge16_Node000001_Node000014" class="edge">
<title>Node1&#45;&gt;Node14</title>
<g id="a_edge16_Node000001_Node000014"><a xlink:title=" ">
<path fill="none" stroke="#63b8ff" d="M225.97,-219.98C244.52,-211.3 276.26,-197.75 300.98,-187.88"/>
<polygon fill="#63b8ff" stroke="#63b8ff" points="302.38,-191.09 310.4,-184.17 299.82,-184.58 302.38,-191.09"/>
</a>
</g>
</g>
<!-- Node5 -->
<g id="Node000005" class="node">
<title>Node5</title>
<g id="a_Node000005"><a xlink:title=" ">
<polygon fill="#e0e0e0" stroke="#999999" points="334.5,-129 273.5,-129 273.5,-110 334.5,-110 334.5,-129"/>
<text text-anchor="middle" x="304" y="-117" font-family="Times,serif" font-size="10.00">iostream</text>
</a>
</g>
</g>
<!-- Node4&#45;&gt;Node5 -->
<g id="edge4_Node000004_Node000005" class="edge">
<title>Node4&#45;&gt;Node5</title>
<g id="a_edge4_Node000004_Node000005"><a xlink:title=" ">
<path fill="none" stroke="#63b8ff" d="M225.94,-164.98C240.5,-156.69 262.87,-143.94 279.93,-134.22"/>
<polygon fill="#63b8ff" stroke="#63b8ff" points="281.83,-137.16 288.79,-129.17 278.36,-131.08 281.83,-137.16"/>
</a>
</g>
</g>
<!-- Node6 -->
<g id="Node000006" class="node">
<title>Node6</title>
<g id="a_Node000006"><a xlink:href="meta_8h.html" target="_top" xlink:title=" ">
<polygon fill="white" stroke="#666666" points="255.5,-129 166.5,-129 166.5,-110 255.5,-110 255.5,-129"/>
<text text-anchor="middle" x="211" y="-117" font-family="Times,serif" font-size="10.00">ttg/util/meta.h</text>
</a>
</g>
</g>
<!-- Node4&#45;&gt;Node6 -->
<g id="edge5_Node000004_Node000006" class="edge">
<title>Node4&#45;&gt;Node6</title>
<g id="a_edge5_Node000004_Node000006"><a xlink:title=" ">
<path fill="none" stroke="#63b8ff" d="M211,-164.75C211,-157.8 211,-147.85 211,-139.13"/>
<polygon fill="#63b8ff" stroke="#63b8ff" points="214.5,-139.09 211,-129.09 207.5,-139.09 214.5,-139.09"/>
</a>
</g>
</g>
<!-- Node7 -->
<g id="Node000007" class="node">
<title>Node7</title>
<g id="a_Node000007"><a xlink:title=" ">
<polygon fill="#e0e0e0" stroke="#999999" points="463,-74 395,-74 395,-55 463,-55 463,-74"/>
<text text-anchor="middle" x="429" y="-62" font-family="Times,serif" font-size="10.00">functional</text>
</a>
</g>
</g>
<!-- Node6&#45;&gt;Node7 -->
<g id="edge6_Node000006_Node000007" class="edge">
<title>Node6&#45;&gt;Node7</title>
<g id="a_edge6_Node000006_Node000007"><a xlink:title=" ">
<path fill="none" stroke="#63b8ff" d="M246.03,-109.98C283.75,-100.81 343.86,-86.2 384.81,-76.24"/>
<polygon fill="#63b8ff" stroke="#63b8ff" points="385.89,-79.58 394.78,-73.82 384.24,-72.78 385.89,-79.58"/>
</a>
</g>
</g>
<!-- Node8 -->
<g id="Node000008" class="node">
<title>Node8</title>
<g id="a_Node000008"><a xlink:title=" ">
<polygon fill="#e0e0e0" stroke="#999999" points="359.5,-19 288.5,-19 288.5,0 359.5,0 359.5,-19"/>
<text text-anchor="middle" x="324" y="-7" font-family="Times,serif" font-size="10.00">type_traits</text>
</a>
</g>
</g>
<!-- Node6&#45;&gt;Node8 -->
<g id="edge7_Node000006_Node000008" class="edge">
<title>Node6&#45;&gt;Node8</title>
<g id="a_edge7_Node000006_Node000008"><a xlink:title=" ">
<path fill="none" stroke="#63b8ff" d="M217.78,-109.83C227.88,-97.16 247.74,-73.14 267,-55 278.39,-44.27 292.21,-33.44 303.38,-25.15"/>
<polygon fill="#63b8ff" stroke="#63b8ff" points="305.67,-27.81 311.68,-19.09 301.54,-22.16 305.67,-27.81"/>
</a>
</g>
</g>
<!-- Node9 -->
<g id="Node000009" class="node">
<title>Node9</title>
<g id="a_Node000009"><a xlink:href="span_8h.html" target="_top" xlink:title=" ">
<polygon fill="white" stroke="#666666" points="219,-74 131,-74 131,-55 219,-55 219,-74"/>
<text text-anchor="middle" x="175" y="-62" font-family="Times,serif" font-size="10.00">ttg/util/span.h</text>
</a>
</g>
</g>
<!-- Node6&#45;&gt;Node9 -->
<g id="edge8_Node000006_Node000009" class="edge">
<title>Node6&#45;&gt;Node9</title>
<g id="a_edge8_Node000006_Node000009"><a xlink:title=" ">
<path fill="none" stroke="#63b8ff" d="M205.06,-109.75C200.02,-102.34 192.66,-91.5 186.49,-82.41"/>
<polygon fill="#63b8ff" stroke="#63b8ff" points="189.35,-80.39 180.83,-74.09 183.56,-84.33 189.35,-80.39"/>
</a>
</g>
</g>
<!-- Node12 -->
<g id="Node000012" class="node">
<title>Node12</title>
<g id="a_Node000012"><a xlink:href="typelist_8h.html" target="_top" xlink:title=" ">
<polygon fill="white" stroke="#666666" points="376.5,-74 275.5,-74 275.5,-55 376.5,-55 376.5,-74"/>
<text text-anchor="middle" x="326" y="-62" font-family="Times,serif" font-size="10.00">ttg/util/typelist.h</text>
</a>
</g>
</g>
<!-- Node6&#45;&gt;Node12 -->
<g id="edge14_Node000006_Node000012" class="edge">
<title>Node6&#45;&gt;Node12</title>
<g id="a_edge14_Node000006_Node000012"><a xlink:title=" ">
<path fill="none" stroke="#63b8ff" d="M229.48,-109.98C247.98,-101.46 276.68,-88.23 297.98,-78.41"/>
<polygon fill="#63b8ff" stroke="#63b8ff" points="299.57,-81.53 307.19,-74.17 296.64,-75.18 299.57,-81.53"/>
</a>
</g>
</g>
<!-- Node9&#45;&gt;Node2 -->
<g id="edge10_Node000009_Node000002" class="edge">
<title>Node9&#45;&gt;Node2</title>
<g id="a_edge10_Node000009_Node000002"><a xlink:title=" ">
<path fill="none" stroke="#63b8ff" d="M151.22,-54.98C126.77,-46.23 88.47,-32.51 60.85,-22.62"/>
<polygon fill="#63b8ff" stroke="#63b8ff" points="61.81,-19.25 51.21,-19.17 59.45,-25.84 61.81,-19.25"/>
</a>
</g>
</g>
<!-- Node9&#45;&gt;Node3 -->
<g id="edge11_Node000009_Node000003" class="edge">
<title>Node9&#45;&gt;Node3</title>
<g id="a_edge11_Node000009_Node000003"><a xlink:title=" ">
<path fill="none" stroke="#63b8ff" d="M162.63,-54.98C150.91,-46.92 133.08,-34.65 119.11,-25.03"/>
<polygon fill="#63b8ff" stroke="#63b8ff" points="120.82,-21.96 110.6,-19.17 116.85,-27.72 120.82,-21.96"/>
</a>
</g>
</g>
<!-- Node9&#45;&gt;Node8 -->
<g id="edge12_Node000009_Node000008" class="edge">
<title>Node9&#45;&gt;Node8</title>
<g id="a_edge12_Node000009_Node000008"><a xlink:title=" ">
<path fill="none" stroke="#63b8ff" d="M198.94,-54.98C223.56,-46.23 262.12,-32.51 289.92,-22.62"/>
<polygon fill="#63b8ff" stroke="#63b8ff" points="291.38,-25.82 299.62,-19.17 289.03,-19.22 291.38,-25.82"/>
</a>
</g>
</g>
<!-- Node10 -->
<g id="Node000010" class="node">
<title>Node10</title>
<g id="a_Node000010"><a xlink:title=" ">
<polygon fill="#e0e0e0" stroke="#999999" points="270,-19 226,-19 226,0 270,0 270,-19"/>
<text text-anchor="middle" x="248" y="-7" font-family="Times,serif" font-size="10.00">array</text>
</a>
</g>
</g>
<!-- Node9&#45;&gt;Node10 -->
<g id="edge9_Node000009_Node000010" class="edge">
<title>Node9&#45;&gt;Node10</title>
<g id="a_edge9_Node000009_Node000010"><a xlink:title=" ">
<path fill="none" stroke="#63b8ff" d="M186.73,-54.98C197.73,-47 214.42,-34.88 227.6,-25.31"/>
<polygon fill="#63b8ff" stroke="#63b8ff" points="230.02,-27.88 236.06,-19.17 225.91,-22.21 230.02,-27.88"/>
</a>
</g>
</g>
<!-- Node11 -->
<g id="Node000011" class="node">
<title>Node11</title>
<g id="a_Node000011"><a xlink:title=" ">
<polygon fill="#e0e0e0" stroke="#999999" points="208,-19 142,-19 142,0 208,0 208,-19"/>
<text text-anchor="middle" x="175" y="-7" font-family="Times,serif" font-size="10.00">exception</text>
</a>
</g>
</g>
<!-- Node9&#45;&gt;Node11 -->
<g id="edge13_Node000009_Node000011" class="edge">
<title>Node9&#45;&gt;Node11</title>
<g id="a_edge13_Node000009_Node000011"><a xlink:title=" ">
<path fill="none" stroke="#63b8ff" d="M175,-54.75C175,-47.8 175,-37.85 175,-29.13"/>
<polygon fill="#63b8ff" stroke="#63b8ff" points="178.5,-29.09 175,-19.09 171.5,-29.09 178.5,-29.09"/>
</a>
</g>
</g>
<!-- Node13 -->
<g id="Node000013" class="node">
<title>Node13</title>
<g id="a_Node000013"><a xlink:title=" ">
<polygon fill="#e0e0e0" stroke="#999999" points="420.5,-19 377.5,-19 377.5,0 420.5,0 420.5,-19"/>
<text text-anchor="middle" x="399" y="-7" font-family="Times,serif" font-size="10.00">tuple</text>
</a>
</g>
</g>
<!-- Node12&#45;&gt;Node13 -->
<g id="edge15_Node000012_Node000013" class="edge">
<title>Node12&#45;&gt;Node13</title>
<g id="a_edge15_Node000012_Node000013"><a xlink:title=" ">
<path fill="none" stroke="#63b8ff" d="M337.73,-54.98C348.73,-47 365.42,-34.88 378.6,-25.31"/>
<polygon fill="#63b8ff" stroke="#63b8ff" points="381.02,-27.88 387.06,-19.17 376.91,-22.21 381.02,-27.88"/>
</a>
</g>
</g>
<!-- Node14&#45;&gt;Node1 -->
<g id="edge17_Node000014_Node000001" class="edge">
<title>Node14&#45;&gt;Node1</title>
<g id="a_edge17_Node000014_Node000001"><a xlink:title=" ">
<path fill="none" stroke="#63b8ff" d="M320.7,-184.17C301.99,-192.91 270.22,-206.47 245.58,-216.29"/>
<polygon fill="#63b8ff" stroke="#63b8ff" points="244.22,-213.07 236.2,-219.98 246.79,-219.58 244.22,-213.07"/>
</a>
</g>
</g>
<!-- Node15 -->
<g id="Node000015" class="node">
<title>Node15</title>
<g id="a_Node000015"><a xlink:title=" ">
<polygon fill="#e0e0e0" stroke="#999999" points="399,-129 353,-129 353,-110 399,-110 399,-129"/>
<text text-anchor="middle" x="376" y="-117" font-family="Times,serif" font-size="10.00">utility</text>
</a>
</g>
</g>
<!-- Node14&#45;&gt;Node15 -->
<g id="edge18_Node000014_Node000015" class="edge">
<title>Node14&#45;&gt;Node15</title>
<g id="a_edge18_Node000014_Node000015"><a xlink:title=" ">
<path fill="none" stroke="#63b8ff" d="M342.61,-164.75C348.26,-157.26 356.54,-146.28 363.45,-137.13"/>
<polygon fill="#63b8ff" stroke="#63b8ff" points="366.29,-139.18 369.52,-129.09 360.7,-134.96 366.29,-139.18"/>
</a>
</g>
</g>
</g>
</svg>
