<?xml version="1.0" encoding="UTF-8" standalone="no"?>
<!DOCTYPE svg PUBLIC "-//W3C//DTD SVG 1.1//EN"
 "http://www.w3.org/Graphics/SVG/1.1/DTD/svg11.dtd">
<!-- Generated by graphviz version 2.43.0 (0)
 -->
<!-- Title: ttg/ttg/util/hash.h Pages: 1 -->
<!--zoomable 665 -->

<svg id="main" version="1.1" xmlns="http://www.w3.org/2000/svg" xmlns:xlink="http://www.w3.org/1999/xlink" xml:space="preserve" onload="init(evt)">
<style type="text/css"><![CDATA[
.node, .edge {opacity: 0.7;}
.node.selected, .edge.selected {opacity: 1;}
.edge:hover path { stroke: red; }
.edge:hover polygon { stroke: red; fill: red; }
]]></style>

<defs>
  <circle id="rim" cx="0" cy="0" r="7"/>
  <circle id="rim2" cx="0" cy="0" r="3.5"/>
  <g id="zoomPlus">
    <use xlink:href="#rim" fill="#404040"><set attributeName="fill" to="#808080" begin="zoomplus.mouseover" end="zoomplus.mouseout"/></use>
    <path d="M-4,0h8M0,-4v8" fill="none" stroke="white" stroke-width="1.5" pointer-events="none"/>
  </g>
  <g id="zoomMin">
    <use xlink:href="#rim" fill="#404040"><set attributeName="fill" to="#808080" begin="zoomminus.mouseover" end="zoomminus.mouseout"/></use>
    <path d="M-4,0h8" fill="none" stroke="white" stroke-width="1.5" pointer-events="none"/>
  </g>
  <g id="arrowUp" transform="translate(30 24)">
    <use xlink:href="#rim"/>
    <path pointer-events="none" fill="none" stroke="white" stroke-width="1.5" d="M0,-3.0v7 M-2.5,-0.5L0,-3.0L2.5,-0.5"/>
  </g>
  <g id="arrowRight" transform="rotate(90) translate(36 -43)">
    <use xlink:href="#rim"/>
    <path pointer-events="none" fill="none" stroke="white" stroke-width="1.5" d="M0,-3.0v7 M-2.5,-0.5L0,-3.0L2.5,-0.5"/>
  </g>
  <g id="arrowDown" transform="rotate(180) translate(-30 -48)">
    <use xlink:href="#rim"/>
    <path pointer-events="none" fill="none" stroke="white" stroke-width="1.5" d="M0,-3.0v7 M-2.5,-0.5L0,-3.0L2.5,-0.5"/>
  </g>
  <g id="arrowLeft" transform="rotate(270) translate(-36 17)">
    <use xlink:href="#rim"/>
    <path pointer-events="none" fill="none" stroke="white" stroke-width="1.5" d="M0,-3.0v7 M-2.5,-0.5L0,-3.0L2.5,-0.5"/>
  </g>
  <g id="resetDef">
    <use xlink:href="#rim2" fill="#404040"><set attributeName="fill" to="#808080" begin="reset.mouseover" end="reset.mouseout"/></use>
  </g>
</defs>
<script type="application/ecmascript">
var viewWidth = 1396;
var viewHeight = 665;
var sectionId = 'dynsection-1';
</script>
<script type="application/ecmascript" xlink:href="svg.min.js"/>
<svg id="graph" class="graph">
<g id="viewport">
<title>ttg/ttg/util/hash.h</title>
<!-- Node1 -->
<g id="Node000001" class="node">
<title>Node1</title>
<g id="a_Node000001"><a xlink:title=" ">
<polygon fill="#999999" stroke="#666666" points="951.5,-657 846.5,-657 846.5,-638 951.5,-638 951.5,-657"/>
<text text-anchor="middle" x="899" y="-645" font-family="Times,serif" font-size="10.00">ttg/ttg/util/hash.h</text>
</a>
</g>
</g>
<!-- Node2 -->
<g id="Node000002" class="node">
<title>Node2</title>
<g id="a_Node000002"><a xlink:href="ttg_8h.html" target="_top" xlink:title=" ">
<polygon fill="white" stroke="#666666" points="769,-101.5 711,-101.5 711,-82.5 769,-82.5 769,-101.5"/>
<text text-anchor="middle" x="740" y="-89.5" font-family="Times,serif" font-size="10.00">ttg/ttg.h</text>
</a>
</g>
</g>
<!-- Node1&#45;&gt;Node2 -->
<g id="edge1_Node000001_Node000002" class="edge">
<title>Node1&#45;&gt;Node2</title>
<g id="a_edge1_Node000001_Node000002"><a xlink:title=" ">
<path fill="none" stroke="#63b8ff" d="M907.52,-628.48C916.7,-607.4 930,-571.21 930,-538.5 930,-538.5 930,-538.5 930,-206.5 930,-132.53 822.57,-105.63 769.27,-96.83"/>
<polygon fill="#63b8ff" stroke="#63b8ff" points="904.25,-627.23 903.31,-637.78 910.63,-630.12 904.25,-627.23"/>
</a>
</g>
</g>
<!-- Node10 -->
<g id="Node000010" class="node">
<title>Node10</title>
<g id="a_Node000010"><a xlink:href="ttg_2madness_2ttg_8h.html" target="_top" xlink:title=" ">
<polygon fill="white" stroke="#666666" points="184,-30 60,-30 60,-11 184,-11 184,-30"/>
<text text-anchor="middle" x="122" y="-18" font-family="Times,serif" font-size="10.00">ttg/ttg/madness/ttg.h</text>
</a>
</g>
</g>
<!-- Node1&#45;&gt;Node10 -->
<g id="edge45_Node000001_Node000010" class="edge">
<title>Node1&#45;&gt;Node10</title>
<g id="a_edge45_Node000001_Node000010"><a xlink:title=" ">
<path fill="none" stroke="#63b8ff" d="M836.28,-646.23C676.57,-645.01 257.7,-638.33 124,-602 64.25,-585.76 0,-600.42 0,-538.5 0,-538.5 0,-538.5 0,-151.5 0,-91.45 70.06,-47.76 104,-30.12"/>
<polygon fill="#63b8ff" stroke="#63b8ff" points="836.4,-649.73 846.42,-646.3 836.45,-642.73 836.4,-649.73"/>
</a>
</g>
</g>
<!-- Node11 -->
<g id="Node000011" class="node">
<title>Node11</title>
<g id="a_Node000011"><a xlink:href="ttg_2parsec_2ttg_8h.html" target="_top" xlink:title=" ">
<polygon fill="white" stroke="#666666" points="318,-30 206,-30 206,-11 318,-11 318,-30"/>
<text text-anchor="middle" x="262" y="-18" font-family="Times,serif" font-size="10.00">ttg/ttg/parsec/ttg.h</text>
</a>
</g>
</g>
<!-- Node1&#45;&gt;Node11 -->
<g id="edge46_Node000001_Node000011" class="edge">
<title>Node1&#45;&gt;Node11</title>
<g id="a_edge46_Node000001_Node000011"><a xlink:title=" ">
<path fill="none" stroke="#63b8ff" d="M836.18,-645.22C637.84,-640.35 38,-618.98 38,-538.5 38,-538.5 38,-538.5 38,-261.5 38,-141.53 189.45,-56.58 243.29,-30.18"/>
<polygon fill="#63b8ff" stroke="#63b8ff" points="836.36,-648.72 846.44,-645.46 836.52,-641.73 836.36,-648.72"/>
</a>
</g>
</g>
<!-- Node12 -->
<g id="Node000012" class="node">
<title>Node12</title>
<g id="a_Node000012"><a xlink:href="keymap_8h.html" target="_top" xlink:title=" ">
<polygon fill="white" stroke="#666666" points="716,-602 588,-602 588,-583 716,-583 716,-602"/>
<text text-anchor="middle" x="652" y="-590" font-family="Times,serif" font-size="10.00">ttg/ttg/base/keymap.h</text>
</a>
</g>
</g>
<!-- Node1&#45;&gt;Node12 -->
<g id="edge11_Node000001_Node000012" class="edge">
<title>Node1&#45;&gt;Node12</title>
<g id="a_edge11_Node000001_Node000012"><a xlink:title=" ">
<path fill="none" stroke="#63b8ff" d="M849.5,-635.88C803.2,-625.94 734.93,-611.3 692,-602.08"/>
<polygon fill="#63b8ff" stroke="#63b8ff" points="848.8,-639.31 859.32,-637.98 850.27,-632.46 848.8,-639.31"/>
</a>
</g>
</g>
<!-- Node22 -->
<g id="Node000022" class="node">
<title>Node22</title>
<g id="a_Node000022"><a xlink:href="util_2hash_2std_2pair_8h.html" target="_top" xlink:title=" ">
<polygon fill="white" stroke="#666666" points="1074,-107 960,-107 960,-77 1074,-77 1074,-107"/>
<text text-anchor="start" x="968" y="-95" font-family="Times,serif" font-size="10.00">ttg/ttg/util/hash/std</text>
<text text-anchor="middle" x="1017" y="-84" font-family="Times,serif" font-size="10.00">/pair.h</text>
</a>
</g>
</g>
<!-- Node1&#45;&gt;Node22 -->
<g id="edge47_Node000001_Node000022" class="edge">
<title>Node1&#45;&gt;Node22</title>
<g id="a_edge47_Node000001_Node000022"><a xlink:title=" ">
<path fill="none" stroke="#63b8ff" d="M917.15,-632.05C941.8,-613.95 982,-580.18 982,-538.5 982,-538.5 982,-538.5 982,-206.5 982,-169.91 995,-128.32 1005.79,-107.1"/>
<polygon fill="#63b8ff" stroke="#63b8ff" points="914.95,-629.32 908.87,-638 919.03,-635 914.95,-629.32"/>
</a>
</g>
</g>
<!-- Node3 -->
<g id="Node000003" class="node">
<title>Node3</title>
<g id="a_Node000003"><a xlink:href="fibonacci_8cc.html" target="_top" xlink:title=" ">
<polygon fill="white" stroke="#666666" points="464,-35.5 336,-35.5 336,-5.5 464,-5.5 464,-35.5"/>
<text text-anchor="start" x="344" y="-23.5" font-family="Times,serif" font-size="10.00">doc/dox/dev/devsamp</text>
<text text-anchor="middle" x="400" y="-12.5" font-family="Times,serif" font-size="10.00">/fibonacci/fibonacci.cc</text>
</a>
</g>
</g>
<!-- Node2&#45;&gt;Node3 -->
<g id="edge2_Node000002_Node000003" class="edge">
<title>Node2&#45;&gt;Node3</title>
<g id="a_edge2_Node000002_Node000003"><a xlink:title=" ">
<path fill="none" stroke="#63b8ff" d="M700.43,-84.56C648.13,-75.82 553.25,-59.2 473,-41 465.71,-39.35 458.04,-37.46 450.54,-35.53"/>
<polygon fill="#63b8ff" stroke="#63b8ff" points="700.18,-88.06 710.61,-86.25 701.32,-81.16 700.18,-88.06"/>
</a>
</g>
</g>
<!-- Node4 -->
<g id="Node000004" class="node">
<title>Node4</title>
<g id="a_Node000004"><a xlink:href="fibonacci__device_8cc.html" target="_top" xlink:title=" ">
<polygon fill="white" stroke="#666666" points="610,-41 482,-41 482,0 610,0 610,-41"/>
<text text-anchor="start" x="490" y="-29" font-family="Times,serif" font-size="10.00">doc/dox/dev/devsamp</text>
<text text-anchor="start" x="490" y="-18" font-family="Times,serif" font-size="10.00">/fibonacci/fibonacci</text>
<text text-anchor="middle" x="546" y="-7" font-family="Times,serif" font-size="10.00">_device.cc</text>
</a>
</g>
</g>
<!-- Node2&#45;&gt;Node4 -->
<g id="edge3_Node000002_Node000004" class="edge">
<title>Node2&#45;&gt;Node4</title>
<g id="a_edge3_Node000002_Node000004"><a xlink:title=" ">
<path fill="none" stroke="#63b8ff" d="M706.51,-79C677.37,-68.56 634.58,-53.23 600.51,-41.03"/>
<polygon fill="#63b8ff" stroke="#63b8ff" points="705.62,-82.4 716.21,-82.48 707.98,-75.81 705.62,-82.4"/>
</a>
</g>
</g>
<!-- Node5 -->
<g id="Node000005" class="node">
<title>Node5</title>
<g id="a_Node000005"><a xlink:href="helloworld_8cpp.html" target="_top" xlink:title=" ">
<polygon fill="white" stroke="#666666" points="779.5,-35.5 628.5,-35.5 628.5,-5.5 779.5,-5.5 779.5,-35.5"/>
<text text-anchor="start" x="636.5" y="-23.5" font-family="Times,serif" font-size="10.00">doc/dox/dev/devsamp</text>
<text text-anchor="middle" x="704" y="-12.5" font-family="Times,serif" font-size="10.00">/helloworld/helloworld.cpp</text>
</a>
</g>
</g>
<!-- Node2&#45;&gt;Node5 -->
<g id="edge4_Node000002_Node000005" class="edge">
<title>Node2&#45;&gt;Node5</title>
<g id="a_edge4_Node000002_Node000005"><a xlink:title=" ">
<path fill="none" stroke="#63b8ff" d="M730.82,-73.28C724.77,-61.6 716.96,-46.51 711.32,-35.64"/>
<polygon fill="#63b8ff" stroke="#63b8ff" points="727.88,-75.21 735.59,-82.48 734.09,-71.99 727.88,-75.21"/>
</a>
</g>
</g>
<!-- Node6 -->
<g id="Node000006" class="node">
<title>Node6</title>
<g id="a_Node000006"><a xlink:href="distributed_8cc.html" target="_top" xlink:title=" ">
<polygon fill="white" stroke="#666666" points="1236,-35.5 1102,-35.5 1102,-5.5 1236,-5.5 1236,-35.5"/>
<text text-anchor="start" x="1110" y="-23.5" font-family="Times,serif" font-size="10.00">doc/dox/user/examples</text>
<text text-anchor="middle" x="1169" y="-12.5" font-family="Times,serif" font-size="10.00">/distributed.cc</text>
</a>
</g>
</g>
<!-- Node2&#45;&gt;Node6 -->
<g id="edge5_Node000002_Node000006" class="edge">
<title>Node2&#45;&gt;Node6</title>
<g id="a_edge5_Node000002_Node000006"><a xlink:title=" ">
<path fill="none" stroke="#63b8ff" d="M779.27,-86.87C844.7,-79.68 979.99,-63.43 1093,-41 1100.88,-39.44 1109.17,-37.56 1117.25,-35.59"/>
<polygon fill="#63b8ff" stroke="#63b8ff" points="778.57,-83.43 769.01,-87.99 779.33,-90.39 778.57,-83.43"/>
</a>
</g>
</g>
<!-- Node7 -->
<g id="Node000007" class="node">
<title>Node7</title>
<g id="a_Node000007"><a xlink:href="iterative_8cc.html" target="_top" xlink:title=" ">
<polygon fill="white" stroke="#666666" points="1388,-35.5 1254,-35.5 1254,-5.5 1388,-5.5 1388,-35.5"/>
<text text-anchor="start" x="1262" y="-23.5" font-family="Times,serif" font-size="10.00">doc/dox/user/examples</text>
<text text-anchor="middle" x="1321" y="-12.5" font-family="Times,serif" font-size="10.00">/iterative.cc</text>
</a>
</g>
</g>
<!-- Node2&#45;&gt;Node7 -->
<g id="edge6_Node000002_Node000007" class="edge">
<title>Node2&#45;&gt;Node7</title>
<g id="a_edge6_Node000002_Node000007"><a xlink:title=" ">
<path fill="none" stroke="#63b8ff" d="M779.38,-87.88C881.92,-79.64 1155.45,-56.83 1245,-41 1253.32,-39.53 1262.06,-37.63 1270.54,-35.59"/>
<polygon fill="#63b8ff" stroke="#63b8ff" points="778.84,-84.42 769.15,-88.7 779.4,-91.39 778.84,-84.42"/>
</a>
</g>
</g>
<!-- Node8 -->
<g id="Node000008" class="node">
<title>Node8</title>
<g id="a_Node000008"><a xlink:href="reducing_8cc.html" target="_top" xlink:title=" ">
<polygon fill="white" stroke="#666666" points="1084,-35.5 950,-35.5 950,-5.5 1084,-5.5 1084,-35.5"/>
<text text-anchor="start" x="958" y="-23.5" font-family="Times,serif" font-size="10.00">doc/dox/user/examples</text>
<text text-anchor="middle" x="1017" y="-12.5" font-family="Times,serif" font-size="10.00">/reducing.cc</text>
</a>
</g>
</g>
<!-- Node2&#45;&gt;Node8 -->
<g id="edge7_Node000002_Node000008" class="edge">
<title>Node2&#45;&gt;Node8</title>
<g id="a_edge7_Node000002_Node000008"><a xlink:title=" ">
<path fill="none" stroke="#63b8ff" d="M779.06,-81.37C819.58,-71.37 884.76,-55.21 941,-41 948,-39.23 955.36,-37.36 962.63,-35.5"/>
<polygon fill="#63b8ff" stroke="#63b8ff" points="778.18,-77.99 769.31,-83.78 779.86,-84.78 778.18,-77.99"/>
</a>
</g>
</g>
<!-- Node9 -->
<g id="Node000009" class="node">
<title>Node9</title>
<g id="a_Node000009"><a xlink:href="simple_8cc.html" target="_top" xlink:title=" ">
<polygon fill="white" stroke="#666666" points="932,-35.5 798,-35.5 798,-5.5 932,-5.5 932,-35.5"/>
<text text-anchor="start" x="806" y="-23.5" font-family="Times,serif" font-size="10.00">doc/dox/user/examples</text>
<text text-anchor="middle" x="865" y="-12.5" font-family="Times,serif" font-size="10.00">/simple.cc</text>
</a>
</g>
</g>
<!-- Node2&#45;&gt;Node9 -->
<g id="edge8_Node000002_Node000009" class="edge">
<title>Node2&#45;&gt;Node9</title>
<g id="a_edge8_Node000002_Node000009"><a xlink:title=" ">
<path fill="none" stroke="#63b8ff" d="M764.23,-77.53C785.9,-65.48 817.55,-47.88 839.57,-35.64"/>
<polygon fill="#63b8ff" stroke="#63b8ff" points="762.37,-74.56 755.33,-82.48 765.77,-80.68 762.37,-74.56"/>
</a>
</g>
</g>
<!-- Node2&#45;&gt;Node10 -->
<g id="edge9_Node000002_Node000010" class="edge">
<title>Node2&#45;&gt;Node10</title>
<g id="a_edge9_Node000002_Node000010"><a xlink:title=" ">
<path fill="none" stroke="#63b8ff" d="M700.67,-89.57C610.82,-85.83 383.84,-73.67 197,-41 181.36,-38.27 164.21,-33.91 150.25,-30.01"/>
<polygon fill="#63b8ff" stroke="#63b8ff" points="700.8,-93.08 710.94,-89.99 701.09,-86.08 700.8,-93.08"/>
</a>
</g>
</g>
<!-- Node2&#45;&gt;Node11 -->
<g id="edge10_Node000002_Node000011" class="edge">
<title>Node2&#45;&gt;Node11</title>
<g id="a_edge10_Node000002_Node000011"><a xlink:title=" ">
<path fill="none" stroke="#63b8ff" d="M700.71,-88.49C626.87,-83.28 462.61,-69.33 327,-41 313.51,-38.18 298.77,-33.87 286.75,-30.01"/>
<polygon fill="#63b8ff" stroke="#63b8ff" points="700.72,-92 710.93,-89.2 701.2,-85.02 700.72,-92"/>
</a>
</g>
</g>
<!-- Node12&#45;&gt;Node2 -->
<g id="edge12_Node000012_Node000002" class="edge">
<title>Node12&#45;&gt;Node2</title>
<g id="a_edge12_Node000012_Node000002"><a xlink:title=" ">
<path fill="none" stroke="#63b8ff" d="M726.21,-588.36C796.7,-580.91 892,-557.21 892,-483.5 892,-483.5 892,-483.5 892,-206.5 892,-145.9 813.48,-113.78 769.31,-100.5"/>
<polygon fill="#63b8ff" stroke="#63b8ff" points="725.62,-584.9 716,-589.34 726.29,-591.86 725.62,-584.9"/>
</a>
</g>
</g>
<!-- Node12&#45;&gt;Node10 -->
<g id="edge13_Node000012_Node000010" class="edge">
<title>Node12&#45;&gt;Node10</title>
<g id="a_edge13_Node000012_Node000010"><a xlink:title=" ">
<path fill="none" stroke="#63b8ff" d="M577.66,-588.41C464.43,-583.04 254.36,-570.26 183,-547 130.42,-529.86 76,-538.8 76,-483.5 76,-483.5 76,-483.5 76,-261.5 76,-169.44 109.05,-61 119.12,-30.1"/>
<polygon fill="#63b8ff" stroke="#63b8ff" points="577.83,-591.92 587.98,-588.89 578.15,-584.93 577.83,-591.92"/>
</a>
</g>
</g>
<!-- Node12&#45;&gt;Node11 -->
<g id="edge14_Node000012_Node000011" class="edge">
<title>Node12&#45;&gt;Node11</title>
<g id="a_edge14_Node000012_Node000011"><a xlink:title=" ">
<path fill="none" stroke="#63b8ff" d="M577.74,-590.71C438.48,-587.21 152,-569.54 152,-483.5 152,-483.5 152,-483.5 152,-206.5 152,-128.4 225.32,-54.52 252.24,-30.02"/>
<polygon fill="#63b8ff" stroke="#63b8ff" points="577.83,-594.21 587.91,-590.95 578,-587.22 577.83,-594.21"/>
</a>
</g>
</g>
<!-- Node13 -->
<g id="Node000013" class="node">
<title>Node13</title>
<g id="a_Node000013"><a xlink:href="world_8h.html" target="_top" xlink:title=" ">
<polygon fill="white" stroke="#666666" points="696.5,-547 607.5,-547 607.5,-528 696.5,-528 696.5,-547"/>
<text text-anchor="middle" x="652" y="-535" font-family="Times,serif" font-size="10.00">ttg/ttg/world.h</text>
</a>
</g>
</g>
<!-- Node12&#45;&gt;Node13 -->
<g id="edge15_Node000012_Node000013" class="edge">
<title>Node12&#45;&gt;Node13</title>
<g id="a_edge15_Node000012_Node000013"><a xlink:title=" ">
<path fill="none" stroke="#63b8ff" d="M652,-572.66C652,-563.93 652,-553.99 652,-547.09"/>
<polygon fill="#63b8ff" stroke="#63b8ff" points="648.5,-572.75 652,-582.75 655.5,-572.75 648.5,-572.75"/>
</a>
</g>
</g>
<!-- Node13&#45;&gt;Node2 -->
<g id="edge16_Node000013_Node000002" class="edge">
<title>Node13&#45;&gt;Node2</title>
<g id="a_edge16_Node000013_Node000002"><a xlink:title=" ">
<path fill="none" stroke="#63b8ff" d="M706.91,-530.72C766.73,-521.02 854,-495.41 854,-428.5 854,-428.5 854,-428.5 854,-206.5 854,-153.86 792.19,-117.2 759.6,-101.53"/>
<polygon fill="#63b8ff" stroke="#63b8ff" points="706.19,-527.29 696.83,-532.25 707.24,-534.21 706.19,-527.29"/>
</a>
</g>
</g>
<!-- Node13&#45;&gt;Node10 -->
<g id="edge19_Node000013_Node000010" class="edge">
<title>Node13&#45;&gt;Node10</title>
<g id="a_edge19_Node000013_Node000010"><a xlink:title=" ">
<path fill="none" stroke="#63b8ff" d="M597.17,-526.43C460.21,-499.72 114,-421.98 114,-318.5 114,-318.5 114,-318.5 114,-151.5 114,-105.6 119.03,-50.75 121.11,-30.01"/>
<polygon fill="#63b8ff" stroke="#63b8ff" points="596.57,-529.88 607.06,-528.34 597.9,-523.01 596.57,-529.88"/>
</a>
</g>
</g>
<!-- Node14 -->
<g id="Node000014" class="node">
<title>Node14</title>
<g id="a_Node000014"><a xlink:href="broadcast_8h.html" target="_top" xlink:title=" ">
<polygon fill="white" stroke="#666666" points="557.5,-162 446.5,-162 446.5,-143 557.5,-143 557.5,-162"/>
<text text-anchor="middle" x="502" y="-150" font-family="Times,serif" font-size="10.00">ttg/ttg/broadcast.h</text>
</a>
</g>
</g>
<!-- Node13&#45;&gt;Node14 -->
<g id="edge17_Node000013_Node000014" class="edge">
<title>Node13&#45;&gt;Node14</title>
<g id="a_edge17_Node000013_Node000014"><a xlink:title=" ">
<path fill="none" stroke="#63b8ff" d="M703.91,-525.33C751.95,-511.59 816,-483.04 816,-428.5 816,-428.5 816,-428.5 816,-371.5 816,-240.76 630.06,-182.14 544.35,-162.07"/>
<polygon fill="#63b8ff" stroke="#63b8ff" points="702.96,-521.96 694.23,-527.97 704.8,-528.72 702.96,-521.96"/>
</a>
</g>
</g>
<!-- Node15 -->
<g id="Node000015" class="node">
<title>Node15</title>
<g id="a_Node000015"><a xlink:href="run_8h.html" target="_top" xlink:title=" ">
<polygon fill="white" stroke="#666666" points="691.5,-492 612.5,-492 612.5,-473 691.5,-473 691.5,-492"/>
<text text-anchor="middle" x="652" y="-480" font-family="Times,serif" font-size="10.00">ttg/ttg/run.h</text>
</a>
</g>
</g>
<!-- Node13&#45;&gt;Node15 -->
<g id="edge20_Node000013_Node000015" class="edge">
<title>Node13&#45;&gt;Node15</title>
<g id="a_edge20_Node000013_Node000015"><a xlink:title=" ">
<path fill="none" stroke="#63b8ff" d="M652,-517.66C652,-508.93 652,-498.99 652,-492.09"/>
<polygon fill="#63b8ff" stroke="#63b8ff" points="648.5,-517.75 652,-527.75 655.5,-517.75 648.5,-517.75"/>
</a>
</g>
</g>
<!-- Node16 -->
<g id="Node000016" class="node">
<title>Node16</title>
<g id="a_Node000016"><a xlink:href="terminal_8h.html" target="_top" xlink:title=" ">
<polygon fill="white" stroke="#666666" points="451,-437 347,-437 347,-418 451,-418 451,-437"/>
<text text-anchor="middle" x="399" y="-425" font-family="Times,serif" font-size="10.00">ttg/ttg/terminal.h</text>
</a>
</g>
</g>
<!-- Node13&#45;&gt;Node16 -->
<g id="edge44_Node000013_Node000016" class="edge">
<title>Node13&#45;&gt;Node16</title>
<g id="a_edge44_Node000013_Node000016"><a xlink:title=" ">
<path fill="none" stroke="#63b8ff" d="M622.35,-523.84C570.21,-501.58 463.4,-455.99 419.02,-437.05"/>
<polygon fill="#63b8ff" stroke="#63b8ff" points="621.15,-527.14 631.72,-527.84 623.9,-520.7 621.15,-527.14"/>
</a>
</g>
</g>
<!-- Node14&#45;&gt;Node2 -->
<g id="edge18_Node000014_Node000002" class="edge">
<title>Node14&#45;&gt;Node2</title>
<g id="a_edge18_Node000014_Node000002"><a xlink:title=" ">
<path fill="none" stroke="#63b8ff" d="M546.44,-140.58C594.56,-128.75 669.92,-110.23 710.97,-100.14"/>
<polygon fill="#63b8ff" stroke="#63b8ff" points="545.48,-137.21 536.61,-142.99 547.15,-144.01 545.48,-137.21"/>
</a>
</g>
</g>
<!-- Node15&#45;&gt;Node2 -->
<g id="edge21_Node000015_Node000002" class="edge">
<title>Node15&#45;&gt;Node2</title>
<g id="a_edge21_Node000015_Node000002"><a xlink:title=" ">
<path fill="none" stroke="#63b8ff" d="M662.15,-463.93C685.37,-422.58 741.86,-315.18 761,-217 767.3,-184.71 770.04,-175.14 763,-143 759.65,-127.69 751.15,-111.48 745.48,-101.8"/>
<polygon fill="#63b8ff" stroke="#63b8ff" points="659.02,-462.35 657.12,-472.77 665.11,-465.81 659.02,-462.35"/>
</a>
</g>
</g>
<!-- Node15&#45;&gt;Node16 -->
<g id="edge22_Node000015_Node000016" class="edge">
<title>Node15&#45;&gt;Node16</title>
<g id="a_edge22_Node000015_Node000016"><a xlink:title=" ">
<path fill="none" stroke="#63b8ff" d="M602.42,-471.11C554.97,-461.17 484.26,-446.36 439.93,-437.07"/>
<polygon fill="#63b8ff" stroke="#63b8ff" points="601.96,-474.59 612.47,-473.22 603.4,-467.74 601.96,-474.59"/>
</a>
</g>
</g>
<!-- Node16&#45;&gt;Node11 -->
<g id="edge43_Node000016_Node000011" class="edge">
<title>Node16&#45;&gt;Node11</title>
<g id="a_edge43_Node000016_Node000011"><a xlink:title=" ">
<path fill="none" stroke="#63b8ff" d="M336.75,-420.53C275.15,-410.78 190,-385.24 190,-318.5 190,-318.5 190,-318.5 190,-206.5 190,-156.6 224.62,-153.77 242,-107 252.09,-79.85 258.22,-45.9 260.71,-30.2"/>
<polygon fill="#63b8ff" stroke="#63b8ff" points="336.4,-424.01 346.8,-422.01 337.42,-417.09 336.4,-424.01"/>
</a>
</g>
</g>
<!-- Node17 -->
<g id="Node000017" class="node">
<title>Node17</title>
<g id="a_Node000017"><a xlink:href="edge_8h.html" target="_top" xlink:title=" ">
<polygon fill="white" stroke="#666666" points="442,-382 356,-382 356,-363 442,-363 442,-382"/>
<text text-anchor="middle" x="399" y="-370" font-family="Times,serif" font-size="10.00">ttg/ttg/edge.h</text>
</a>
</g>
</g>
<!-- Node16&#45;&gt;Node17 -->
<g id="edge23_Node000016_Node000017" class="edge">
<title>Node16&#45;&gt;Node17</title>
<g id="a_edge23_Node000016_Node000017"><a xlink:title=" ">
<path fill="none" stroke="#63b8ff" d="M399,-407.66C399,-398.93 399,-388.99 399,-382.09"/>
<polygon fill="#63b8ff" stroke="#63b8ff" points="395.5,-407.75 399,-417.75 402.5,-407.75 395.5,-407.75"/>
</a>
</g>
</g>
<!-- Node18 -->
<g id="Node000018" class="node">
<title>Node18</title>
<g id="a_Node000018"><a xlink:href="func_8h.html" target="_top" xlink:title=" ">
<polygon fill="white" stroke="#666666" points="415.5,-217 332.5,-217 332.5,-198 415.5,-198 415.5,-217"/>
<text text-anchor="middle" x="374" y="-205" font-family="Times,serif" font-size="10.00">ttg/ttg/func.h</text>
</a>
</g>
</g>
<!-- Node16&#45;&gt;Node18 -->
<g id="edge42_Node000016_Node000018" class="edge">
<title>Node16&#45;&gt;Node18</title>
<g id="a_edge42_Node000016_Node000018"><a xlink:title=" ">
<path fill="none" stroke="#63b8ff" d="M374.42,-412.29C363.91,-404.76 352.75,-394.48 347,-382 320.1,-323.57 355.88,-243.59 369.3,-217.28"/>
<polygon fill="#63b8ff" stroke="#63b8ff" points="372.7,-415.35 382.97,-417.95 376.57,-409.51 372.7,-415.35"/>
</a>
</g>
</g>
<!-- Node17&#45;&gt;Node2 -->
<g id="edge24_Node000017_Node000002" class="edge">
<title>Node17&#45;&gt;Node2</title>
<g id="a_edge24_Node000017_Node000002"><a xlink:title=" ">
<path fill="none" stroke="#63b8ff" d="M452.39,-371.33C524.89,-368 653.21,-350.51 721,-272 764.7,-221.38 748.62,-130.31 742.16,-101.79"/>
<polygon fill="#63b8ff" stroke="#63b8ff" points="451.97,-367.85 442.11,-371.73 452.23,-374.84 451.97,-367.85"/>
</a>
</g>
</g>
<!-- Node17&#45;&gt;Node11 -->
<g id="edge30_Node000017_Node000011" class="edge">
<title>Node17&#45;&gt;Node11</title>
<g id="a_edge30_Node000017_Node000011"><a xlink:title=" ">
<path fill="none" stroke="#63b8ff" d="M361.85,-359.39C322.5,-343.95 266,-313.13 266,-263.5 266,-263.5 266,-263.5 266,-206.5 266,-148.61 289.04,-134.18 280,-77 277.31,-59.99 270.26,-41.1 265.82,-30.32"/>
<polygon fill="#63b8ff" stroke="#63b8ff" points="360.85,-362.75 371.44,-362.98 363.31,-356.2 360.85,-362.75"/>
</a>
</g>
</g>
<!-- Node17&#45;&gt;Node18 -->
<g id="edge25_Node000017_Node000018" class="edge">
<title>Node17&#45;&gt;Node18</title>
<g id="a_edge25_Node000017_Node000018"><a xlink:title=" ">
<path fill="none" stroke="#63b8ff" d="M396.14,-352.83C390.74,-317.67 379.28,-242.9 375.35,-217.31"/>
<polygon fill="#63b8ff" stroke="#63b8ff" points="392.68,-353.38 397.66,-362.74 399.6,-352.32 392.68,-353.38"/>
</a>
</g>
</g>
<!-- Node19 -->
<g id="Node000019" class="node">
<title>Node19</title>
<g id="a_Node000019"><a xlink:href="tt_8h.html" target="_top" xlink:title=" ">
<polygon fill="white" stroke="#666666" points="478,-327 410,-327 410,-308 478,-308 478,-327"/>
<text text-anchor="middle" x="444" y="-315" font-family="Times,serif" font-size="10.00">ttg/ttg/tt.h</text>
</a>
</g>
</g>
<!-- Node17&#45;&gt;Node19 -->
<g id="edge31_Node000017_Node000019" class="edge">
<title>Node17&#45;&gt;Node19</title>
<g id="a_edge31_Node000017_Node000019"><a xlink:title=" ">
<path fill="none" stroke="#63b8ff" d="M413.05,-354.96C420.89,-345.72 430.33,-334.6 436.71,-327.09"/>
<polygon fill="#63b8ff" stroke="#63b8ff" points="410.24,-352.86 406.43,-362.75 415.57,-357.39 410.24,-352.86"/>
</a>
</g>
</g>
<!-- Node18&#45;&gt;Node2 -->
<g id="edge26_Node000018_Node000002" class="edge">
<title>Node18&#45;&gt;Node2</title>
<g id="a_edge26_Node000018_Node000002"><a xlink:title=" ">
<path fill="none" stroke="#63b8ff" d="M386.16,-189.53C397.73,-174.73 416.54,-153.98 438,-143 529.32,-96.29 654.59,-91.59 710.72,-92.11"/>
<polygon fill="#63b8ff" stroke="#63b8ff" points="383.13,-187.73 379.92,-197.83 388.73,-191.93 383.13,-187.73"/>
</a>
</g>
</g>
<!-- Node18&#45;&gt;Node10 -->
<g id="edge28_Node000018_Node000010" class="edge">
<title>Node18&#45;&gt;Node10</title>
<g id="a_edge28_Node000018_Node000010"><a xlink:title=" ">
<path fill="none" stroke="#63b8ff" d="M354.05,-191.86C303.89,-155.03 173.68,-59.44 133.79,-30.16"/>
<polygon fill="#63b8ff" stroke="#63b8ff" points="352.05,-194.73 362.18,-197.83 356.19,-189.09 352.05,-194.73"/>
</a>
</g>
</g>
<!-- Node18&#45;&gt;Node11 -->
<g id="edge29_Node000018_Node000011" class="edge">
<title>Node18&#45;&gt;Node11</title>
<g id="a_edge29_Node000018_Node000011"><a xlink:title=" ">
<path fill="none" stroke="#63b8ff" d="M368.49,-188.01C360.15,-161.82 342.65,-113.11 318,-77 305.19,-58.23 285.45,-40.47 273.15,-30.3"/>
<polygon fill="#63b8ff" stroke="#63b8ff" points="365.2,-189.23 371.49,-197.75 371.89,-187.16 365.2,-189.23"/>
</a>
</g>
</g>
<!-- Node18&#45;&gt;Node14 -->
<g id="edge27_Node000018_Node000014" class="edge">
<title>Node18&#45;&gt;Node14</title>
<g id="a_edge27_Node000018_Node000014"><a xlink:title=" ">
<path fill="none" stroke="#63b8ff" d="M404.12,-194.03C427.79,-184.23 460.15,-170.83 481.06,-162.17"/>
<polygon fill="#63b8ff" stroke="#63b8ff" points="402.47,-190.93 394.57,-197.98 405.14,-197.39 402.47,-190.93"/>
</a>
</g>
</g>
<!-- Node19&#45;&gt;Node2 -->
<g id="edge32_Node000019_Node000002" class="edge">
<title>Node19&#45;&gt;Node2</title>
<g id="a_edge32_Node000019_Node000002"><a xlink:title=" ">
<path fill="none" stroke="#63b8ff" d="M457.64,-300.07C489.99,-261.4 571.26,-166.18 606,-143 638.74,-121.16 682.3,-107.19 710.74,-99.73"/>
<polygon fill="#63b8ff" stroke="#63b8ff" points="454.89,-297.89 451.18,-307.81 460.27,-302.38 454.89,-297.89"/>
</a>
</g>
</g>
<!-- Node19&#45;&gt;Node10 -->
<g id="edge35_Node000019_Node000010" class="edge">
<title>Node19&#45;&gt;Node10</title>
<g id="a_edge35_Node000019_Node000010"><a xlink:title=" ">
<path fill="none" stroke="#63b8ff" d="M424.43,-301.63C381.45,-268.6 276.31,-185.82 197,-107 170.25,-80.42 141.67,-45.91 128.88,-30.1"/>
<polygon fill="#63b8ff" stroke="#63b8ff" points="422.56,-304.6 432.63,-307.9 426.81,-299.04 422.56,-304.6"/>
</a>
</g>
</g>
<!-- Node19&#45;&gt;Node11 -->
<g id="edge36_Node000019_Node000011" class="edge">
<title>Node19&#45;&gt;Node11</title>
<g id="a_edge36_Node000019_Node000011"><a xlink:title=" ">
<path fill="none" stroke="#63b8ff" d="M443.57,-297.63C442.46,-273.64 438.54,-231.35 425,-198 400.28,-137.11 386.33,-123.61 340,-77 320.55,-57.43 293.53,-39.91 276.93,-30"/>
<polygon fill="#63b8ff" stroke="#63b8ff" points="440.08,-297.94 443.93,-307.81 447.08,-297.7 440.08,-297.94"/>
</a>
</g>
</g>
<!-- Node19&#45;&gt;Node14 -->
<g id="edge33_Node000019_Node000014" class="edge">
<title>Node19&#45;&gt;Node14</title>
<g id="a_edge33_Node000019_Node000014"><a xlink:title=" ">
<path fill="none" stroke="#63b8ff" d="M450.48,-298.28C462.92,-263.32 489.72,-188.01 498.87,-162.31"/>
<polygon fill="#63b8ff" stroke="#63b8ff" points="447.17,-297.14 447.12,-307.74 453.77,-299.49 447.17,-297.14"/>
</a>
</g>
</g>
<!-- Node19&#45;&gt;Node18 -->
<g id="edge34_Node000019_Node000018" class="edge">
<title>Node19&#45;&gt;Node18</title>
<g id="a_edge34_Node000019_Node000018"><a xlink:title=" ">
<path fill="none" stroke="#63b8ff" d="M432.7,-299.07C417.52,-275.64 391.11,-234.89 379.61,-217.16"/>
<polygon fill="#63b8ff" stroke="#63b8ff" points="429.9,-301.17 438.27,-307.66 435.77,-297.37 429.9,-301.17"/>
</a>
</g>
</g>
<!-- Node20 -->
<g id="Node000020" class="node">
<title>Node20</title>
<g id="a_Node000020"><a xlink:href="traverse_8h.html" target="_top" xlink:title=" ">
<polygon fill="white" stroke="#666666" points="711.5,-272 608.5,-272 608.5,-253 711.5,-253 711.5,-272"/>
<text text-anchor="middle" x="660" y="-260" font-family="Times,serif" font-size="10.00">ttg/ttg/traverse.h</text>
</a>
</g>
</g>
<!-- Node19&#45;&gt;Node20 -->
<g id="edge37_Node000019_Node000020" class="edge">
<title>Node19&#45;&gt;Node20</title>
<g id="a_edge37_Node000019_Node000020"><a xlink:title=" ">
<path fill="none" stroke="#63b8ff" d="M488.1,-305.68C528.64,-295.73 587.93,-281.18 625.22,-272.03"/>
<polygon fill="#63b8ff" stroke="#63b8ff" points="487.1,-302.32 478.23,-308.1 488.77,-309.12 487.1,-302.32"/>
</a>
</g>
</g>
<!-- Node20&#45;&gt;Node2 -->
<g id="edge38_Node000020_Node000002" class="edge">
<title>Node20&#45;&gt;Node2</title>
<g id="a_edge38_Node000020_Node000002"><a xlink:title=" ">
<path fill="none" stroke="#63b8ff" d="M672.39,-244.65C685.98,-225.48 707.62,-192.83 721,-162 730,-141.25 735.81,-115.13 738.41,-101.76"/>
<polygon fill="#63b8ff" stroke="#63b8ff" points="669.44,-242.75 666.44,-252.91 675.12,-246.84 669.44,-242.75"/>
</a>
</g>
</g>
<!-- Node20&#45;&gt;Node18 -->
<g id="edge39_Node000020_Node000018" class="edge">
<title>Node20&#45;&gt;Node18</title>
<g id="a_edge39_Node000020_Node000018"><a xlink:title=" ">
<path fill="none" stroke="#63b8ff" d="M604.06,-251.13C548.75,-240.88 465.38,-225.43 415.65,-216.22"/>
<polygon fill="#63b8ff" stroke="#63b8ff" points="603.58,-254.6 614.05,-252.98 604.85,-247.72 603.58,-254.6"/>
</a>
</g>
</g>
<!-- Node21 -->
<g id="Node000021" class="node">
<title>Node21</title>
<g id="a_Node000021"><a xlink:href="dot_8h.html" target="_top" xlink:title=" ">
<polygon fill="white" stroke="#666666" points="711.5,-162 614.5,-162 614.5,-143 711.5,-143 711.5,-162"/>
<text text-anchor="middle" x="663" y="-150" font-family="Times,serif" font-size="10.00">ttg/ttg/util/dot.h</text>
</a>
</g>
</g>
<!-- Node20&#45;&gt;Node21 -->
<g id="edge40_Node000020_Node000021" class="edge">
<title>Node20&#45;&gt;Node21</title>
<g id="a_edge40_Node000020_Node000021"><a xlink:title=" ">
<path fill="none" stroke="#63b8ff" d="M660.53,-242.48C661.18,-218.84 662.28,-179.5 662.76,-162.16"/>
<polygon fill="#63b8ff" stroke="#63b8ff" points="657.02,-242.57 660.25,-252.66 664.02,-242.76 657.02,-242.57"/>
</a>
</g>
</g>
<!-- Node21&#45;&gt;Node2 -->
<g id="edge41_Node000021_Node000002" class="edge">
<title>Node21&#45;&gt;Node2</title>
<g id="a_edge41_Node000021_Node000002"><a xlink:title=" ">
<path fill="none" stroke="#63b8ff" d="M682.69,-136.54C697.23,-125.49 716.52,-110.84 728.59,-101.67"/>
<polygon fill="#63b8ff" stroke="#63b8ff" points="680.21,-134.03 674.36,-142.87 684.44,-139.61 680.21,-134.03"/>
</a>
</g>
</g>
<!-- Node22&#45;&gt;Node1 -->
<g id="edge51_Node000022_Node000001" class="edge">
<title>Node22&#45;&gt;Node1</title>
<g id="a_edge51_Node000022_Node000001"><a xlink:title=" ">
<path fill="none" stroke="#63b8ff" d="M1015.19,-116.88C1009.69,-139.6 1000,-174.91 1000,-206.5 1000,-538.5 1000,-538.5 1000,-538.5 1000,-585.3 949.32,-622.12 919.51,-638"/>
<polygon fill="#63b8ff" stroke="#63b8ff" points="1018.61,-117.63 1017.43,-107.1 1011.78,-116.06 1018.61,-117.63"/>
</a>
</g>
</g>
<!-- Node22&#45;&gt;Node6 -->
<g id="edge48_Node000022_Node000006" class="edge">
<title>Node22&#45;&gt;Node6</title>
<g id="a_edge48_Node000022_Node000006"><a xlink:title=" ">
<path fill="none" stroke="#63b8ff" d="M1057.13,-72.65C1082.55,-61.03 1114.91,-46.23 1138.29,-35.54"/>
<polygon fill="#63b8ff" stroke="#63b8ff" points="1055.4,-69.59 1047.76,-76.94 1058.31,-75.96 1055.4,-69.59"/>
</a>
</g>
</g>
<!-- Node22&#45;&gt;Node7 -->
<g id="edge49_Node000022_Node000007" class="edge">
<title>Node22&#45;&gt;Node7</title>
<g id="a_edge49_Node000022_Node000007"><a xlink:title=" ">
<path fill="none" stroke="#63b8ff" d="M1084.32,-76.89C1129.79,-67.2 1191.12,-53.82 1245,-41 1252.16,-39.3 1259.67,-37.45 1267.08,-35.58"/>
<polygon fill="#63b8ff" stroke="#63b8ff" points="1083.34,-73.52 1074.28,-79.02 1084.79,-80.37 1083.34,-73.52"/>
</a>
</g>
</g>
<!-- Node22&#45;&gt;Node8 -->
<g id="edge50_Node000022_Node000008" class="edge">
<title>Node22&#45;&gt;Node8</title>
<g id="a_edge50_Node000022_Node000008"><a xlink:title=" ">
<path fill="none" stroke="#63b8ff" d="M1017,-66.75C1017,-56.31 1017,-44.49 1017,-35.54"/>
<polygon fill="#63b8ff" stroke="#63b8ff" points="1013.5,-66.94 1017,-76.94 1020.5,-66.94 1013.5,-66.94"/>
</a>
</g>
</g>
</g>
</svg>

<g id="navigator" transform="translate(0 0)" fill="#404254">
  <rect fill="#f2f5e9" fill-opacity="0.5" stroke="#606060" stroke-width=".5" x="0" y="0" width="60" height="60"/>
  <use id="zoomplus" xlink:href="#zoomPlus" x="17" y="9" onmousedown="handleZoom(evt,'in')"/>
  <use id="zoomminus" xlink:href="#zoomMin" x="42" y="9" onmousedown="handleZoom(evt,'out')"/>
  <use id="reset" xlink:href="#resetDef" x="30" y="36" onmousedown="handleReset()"/>
   <use id="arrowup" xlink:href="#arrowUp" x="0" y="0" onmousedown="handlePan(0,-1)"/>
  <use id="arrowright" xlink:href="#arrowRight" x="0" y="0" onmousedown="handlePan(1,0)"/>
  <use id="arrowdown" xlink:href="#arrowDown" x="0" y="0" onmousedown="handlePan(0,1)"/>
  <use id="arrowleft" xlink:href="#arrowLeft" x="0" y="0" onmousedown="handlePan(-1,0)"/>
</g>
<svg viewBox="0 0 15 15" width="100%" height="30px" preserveAspectRatio="xMaxYMin meet">
 <g id="arrow_out" transform="scale(0.3 0.3)">
  <a xlink:href="hash_8h__dep__incl_org.svg" target="_base">
   <rect id="button" ry="5" rx="5" y="6" x="6" height="38" width="38"
        fill="#f2f5e9" fill-opacity="0.5" stroke="#606060" stroke-width="1.0"/>
   <path id="arrow"
     d="M 11.500037,31.436501 C 11.940474,20.09759 22.043105,11.32322 32.158766,21.979434 L 37.068811,17.246167 C 37.068811,17.246167 37.088388,32 37.088388,32 L 22.160133,31.978069 C 22.160133,31.978069 26.997745,27.140456 26.997745,27.140456 C 18.528582,18.264221 13.291696,25.230495 11.500037,31.436501 z"
     style="fill:#404040;"/>
  </a>
 </g>
</svg>

<style type='text/css'>
<![CDATA[
[data-mouse-over-selected='false'] { opacity: 0.7; }
[data-mouse-over-selected='true']  { opacity: 1.0; }
]]>
</style>
<script type="application/ecmascript"><![CDATA[
document.addEventListener('DOMContentLoaded', (event) => {
  highlightEdges();
  highlightAdjacentNodes();
});
]]></script>
</svg>
