<?xml version="1.0" encoding="UTF-8" standalone="no"?>
<!DOCTYPE svg PUBLIC "-//W3C//DTD SVG 1.1//EN"
 "http://www.w3.org/Graphics/SVG/1.1/DTD/svg11.dtd">
<!-- Generated by graphviz version 2.43.0 (0)
 -->
<!-- Title: main Pages: 1 -->
<svg width="395pt" height="267pt"
 viewBox="0.00 0.00 395.00 267.00" xmlns="http://www.w3.org/2000/svg" xmlns:xlink="http://www.w3.org/1999/xlink">

<svg id="main" version="1.1" xmlns="http://www.w3.org/2000/svg" xmlns:xlink="http://www.w3.org/1999/xlink" xml:space="preserve" onload="init(evt)">
<style type="text/css"><![CDATA[
.node, .edge {opacity: 0.7;}
.node.selected, .edge.selected {opacity: 1;}
.edge:hover path { stroke: red; }
.edge:hover polygon { stroke: red; fill: red; }
]]></style>
<script type="application/ecmascript" xlink:href="svg.min.js"/>
<svg id="graph" class="graph">
<g id="graph0" class="graph" transform="scale(1 1) rotate(0) translate(4 263)">
<title>main</title>
<!-- Node1 -->
<g id="Node000001" class="node">
<title>Node1</title>
<g id="a_Node000001"><a xlink:title=" ">
<polygon fill="#999999" stroke="#666666" points="42,-130 0,-130 0,-111 42,-111 42,-130"/>
<text text-anchor="middle" x="21" y="-118" font-family="Times,serif" font-size="10.00">main</text>
</a>
</g>
</g>
<!-- Node2 -->
<g id="Node000002" class="node">
<title>Node2</title>
<g id="a_Node000002"><a xlink:href="namespacettg.html#a1261c57f70c978771f64af07d7f7d7cd" target="_top" xlink:title="Starts the execution in the given execution context.">
<polygon fill="white" stroke="#666666" points="197,-259 120,-259 120,-240 197,-240 197,-259"/>
<text text-anchor="middle" x="158.5" y="-247" font-family="Times,serif" font-size="10.00">ttg::execute</text>
</a>
</g>
</g>
<!-- Node1&#45;&gt;Node2 -->
<g id="edge1_Node000001_Node000002" class="edge">
<title>Node1&#45;&gt;Node2</title>
<g id="a_edge1_Node000001_Node000002"><a xlink:title=" ">
<path fill="none" stroke="#63b8ff" d="M23.98,-130.3C28.94,-152.13 43.98,-204.93 78,-231.5 87.14,-238.64 98.58,-243.06 109.91,-245.76"/>
<polygon fill="#63b8ff" stroke="#63b8ff" points="109.29,-249.2 119.78,-247.71 110.65,-242.33 109.29,-249.2"/>
</a>
</g>
</g>
<!-- Node3 -->
<g id="Node000003" class="node">
<title>Node3</title>
<g id="a_Node000003"><a xlink:href="namespacettg.html#a807bf42719a82b1539603d477aa2a3fd" target="_top" xlink:title="Returns when all tasks associated with the given execution context have finished on all ranks.">
<polygon fill="white" stroke="#666666" points="191,-222 126,-222 126,-203 191,-203 191,-222"/>
<text text-anchor="middle" x="158.5" y="-210" font-family="Times,serif" font-size="10.00">ttg::fence</text>
</a>
</g>
</g>
<!-- Node1&#45;&gt;Node3 -->
<g id="edge2_Node000001_Node000003" class="edge">
<title>Node1&#45;&gt;Node3</title>
<g id="a_edge2_Node000001_Node000003"><a xlink:title=" ">
<path fill="none" stroke="#63b8ff" d="M26.49,-130.17C34.47,-146.21 52.68,-178.17 78,-194.5 89.17,-201.7 102.84,-206.04 115.67,-208.65"/>
<polygon fill="#63b8ff" stroke="#63b8ff" points="115.27,-212.13 125.72,-210.39 116.47,-205.24 115.27,-212.13"/>
</a>
</g>
</g>
<!-- Node4 -->
<g id="Node000004" class="node">
<title>Node4</title>
<g id="a_Node000004"><a xlink:href="namespacettg.html#a96780ef3c553a2f45aa7ea881bdb6490" target="_top" xlink:title="Finalizes the TTG runtime.">
<polygon fill="white" stroke="#666666" points="195.5,-167 121.5,-167 121.5,-148 195.5,-148 195.5,-167"/>
<text text-anchor="middle" x="158.5" y="-155" font-family="Times,serif" font-size="10.00">ttg::finalize</text>
</a>
</g>
</g>
<!-- Node1&#45;&gt;Node4 -->
<g id="edge3_Node000001_Node000004" class="edge">
<title>Node1&#45;&gt;Node4</title>
<g id="a_edge3_Node000001_Node000004"><a xlink:title=" ">
<path fill="none" stroke="#63b8ff" d="M42.06,-127.87C52.66,-131.63 65.95,-136.1 78,-139.5 88.74,-142.53 100.41,-145.4 111.41,-147.92"/>
<polygon fill="#63b8ff" stroke="#63b8ff" points="110.76,-151.36 121.29,-150.14 112.29,-144.53 110.76,-151.36"/>
</a>
</g>
</g>
<!-- Node5 -->
<g id="Node000005" class="node">
<title>Node5</title>
<g id="a_Node000005"><a xlink:href="namespacettg.html#a5829b255a41f2e47fa0e27bb5c791824" target="_top" xlink:title=" ">
<polygon fill="white" stroke="#666666" points="222.5,-130 94.5,-130 94.5,-111 222.5,-111 222.5,-130"/>
<text text-anchor="middle" x="158.5" y="-118" font-family="Times,serif" font-size="10.00">ttg::get_default_world</text>
</a>
</g>
</g>
<!-- Node1&#45;&gt;Node5 -->
<g id="edge5_Node000001_Node000005" class="edge">
<title>Node1&#45;&gt;Node5</title>
<g id="a_edge5_Node000001_Node000005"><a xlink:title=" ">
<path fill="none" stroke="#63b8ff" d="M42.29,-120.5C53.73,-120.5 68.81,-120.5 84.27,-120.5"/>
<polygon fill="#63b8ff" stroke="#63b8ff" points="84.45,-124 94.45,-120.5 84.45,-117 84.45,-124"/>
</a>
</g>
</g>
<!-- Node6 -->
<g id="Node000006" class="node">
<title>Node6</title>
<g id="a_Node000006"><a xlink:href="namespacettg.html#a19c06079af2c21be154b525ff21028d1" target="_top" xlink:title=" ">
<polygon fill="white" stroke="#666666" points="198.5,-93 118.5,-93 118.5,-74 198.5,-74 198.5,-93"/>
<text text-anchor="middle" x="158.5" y="-81" font-family="Times,serif" font-size="10.00">ttg::initialize</text>
</a>
</g>
</g>
<!-- Node1&#45;&gt;Node6 -->
<g id="edge6_Node000001_Node000006" class="edge">
<title>Node1&#45;&gt;Node6</title>
<g id="a_edge6_Node000001_Node000006"><a xlink:title=" ">
<path fill="none" stroke="#63b8ff" d="M42.11,-113.63C52.72,-110.1 66,-105.86 78,-102.5 87.74,-99.78 98.21,-97.1 108.26,-94.65"/>
<polygon fill="#63b8ff" stroke="#63b8ff" points="109.22,-98.02 118.12,-92.28 107.58,-91.21 109.22,-98.02"/>
</a>
</g>
</g>
<!-- Node7 -->
<g id="Node000007" class="node">
<title>Node7</title>
<g id="a_Node000007"><a xlink:href="namespacettg.html#ade4672895f07e88909dab1644c69e60a" target="_top" xlink:title="Make the TTG tts executable. Applies.">
<polygon fill="white" stroke="#666666" points="239,-56 78,-56 78,-37 239,-37 239,-56"/>
<text text-anchor="middle" x="158.5" y="-44" font-family="Times,serif" font-size="10.00">ttg::make_graph_executable</text>
</a>
</g>
</g>
<!-- Node1&#45;&gt;Node7 -->
<g id="edge7_Node000001_Node000007" class="edge">
<title>Node1&#45;&gt;Node7</title>
<g id="a_edge7_Node000001_Node000007"><a xlink:title=" ">
<path fill="none" stroke="#63b8ff" d="M29.17,-110.72C38.84,-98.26 57.25,-76.98 78,-65.5 82.02,-63.28 86.29,-61.31 90.69,-59.57"/>
<polygon fill="#63b8ff" stroke="#63b8ff" points="92.21,-62.75 100.48,-56.12 89.88,-56.15 92.21,-62.75"/>
</a>
</g>
</g>
<!-- Node9 -->
<g id="Node000009" class="node">
<title>Node9</title>
<g id="a_Node000009"><a xlink:href="namespacettg.html#ac0ad1dd3b87329e4acf9774df6dc8473" target="_top" xlink:title=" ">
<polygon fill="white" stroke="#666666" points="188.5,-19 128.5,-19 128.5,0 188.5,0 188.5,-19"/>
<text text-anchor="middle" x="158.5" y="-7" font-family="Times,serif" font-size="10.00">ttg::rank</text>
</a>
</g>
</g>
<!-- Node1&#45;&gt;Node9 -->
<g id="edge9_Node000001_Node000009" class="edge">
<title>Node1&#45;&gt;Node9</title>
<g id="a_edge9_Node000001_Node000009"><a xlink:title=" ">
<path fill="none" stroke="#63b8ff" d="M25,-110.97C31.46,-92.11 48.52,-49.96 78,-28.5 89.61,-20.05 104.47,-15.31 118.19,-12.67"/>
<polygon fill="#63b8ff" stroke="#63b8ff" points="119.06,-16.07 128.38,-11.03 117.95,-9.16 119.06,-16.07"/>
</a>
</g>
</g>
<!-- Node4&#45;&gt;Node4 -->
<g id="edge4_Node000004_Node000004" class="edge">
<title>Node4&#45;&gt;Node4</title>
<g id="a_edge4_Node000004_Node000004"><a xlink:title=" ">
<path fill="none" stroke="#63b8ff" d="M137.54,-167.08C127.34,-175.73 134.33,-185 158.5,-185 173.99,-185 182.42,-181.2 183.8,-176.19"/>
<polygon fill="#63b8ff" stroke="#63b8ff" points="186.92,-174.61 179.46,-167.08 180.6,-177.62 186.92,-174.61"/>
</a>
</g>
</g>
<!-- Node8 -->
<g id="Node000008" class="node">
<title>Node8</title>
<g id="a_Node000008"><a xlink:href="namespacettg.html#ac9c4eec56ea2e0cbc9bf52e1129bfee5" target="_top" xlink:title=" ">
<polygon fill="white" stroke="#666666" points="387,-56 275,-56 275,-37 387,-37 387,-56"/>
<text text-anchor="middle" x="331" y="-44" font-family="Times,serif" font-size="10.00">ttg::make_traverse</text>
</a>
</g>
</g>
<!-- Node7&#45;&gt;Node8 -->
<g id="edge8_Node000007_Node000008" class="edge">
<title>Node7&#45;&gt;Node8</title>
<g id="a_edge8_Node000007_Node000008"><a xlink:title=" ">
<path fill="none" stroke="#63b8ff" d="M239.26,-46.5C247.67,-46.5 256.15,-46.5 264.37,-46.5"/>
<polygon fill="#63b8ff" stroke="#63b8ff" points="264.63,-50 274.63,-46.5 264.63,-43 264.63,-50"/>
</a>
</g>
</g>
</g>
</svg>
</svg>

<style type='text/css'>
<![CDATA[
[data-mouse-over-selected='false'] { opacity: 0.7; }
[data-mouse-over-selected='true']  { opacity: 1.0; }
]]>
</style>
<script type="application/ecmascript"><![CDATA[
document.addEventListener('DOMContentLoaded', (event) => {
  highlightEdges();
  highlightAdjacentNodes();
});
]]></script>
</svg>
