<?xml version="1.0" encoding="UTF-8" standalone="no"?>
<!DOCTYPE svg PUBLIC "-//W3C//DTD SVG 1.1//EN"
 "http://www.w3.org/Graphics/SVG/1.1/DTD/svg11.dtd">
<!-- Generated by graphviz version 2.43.0 (0)
 -->
<!-- Title: Graphical Class Hierarchy Pages: 1 -->
<svg width="297pt" height="167pt"
 viewBox="0.00 0.00 297.00 167.00" xmlns="http://www.w3.org/2000/svg" xmlns:xlink="http://www.w3.org/1999/xlink">
<g id="graph0" class="graph" transform="scale(1 1) rotate(0) translate(4 163)">
<title>Graphical Class Hierarchy</title>
<!-- Node0 -->
<g id="Node000000" class="node">
<title>Node0</title>
<g id="a_Node000000"><a xlink:href="structttg_1_1meta_1_1probe__last.html" target="_top" xlink:title=" ">
<polygon fill="white" stroke="#666666" points="122,-100 0,-100 0,-59 122,-59 122,-100"/>
<text text-anchor="start" x="8" y="-88" font-family="Times,serif" font-size="10.00">ttg::meta::probe_last</text>
<text text-anchor="start" x="8" y="-77" font-family="Times,serif" font-size="10.00">&lt; Predicate, Default,</text>
<text text-anchor="middle" x="61" y="-66" font-family="Times,serif" font-size="10.00"> Ts... &gt;</text>
</a>
</g>
</g>
<!-- Node1 -->
<g id="Node000001" class="node">
<title>Node1</title>
<g id="a_Node000001"><a xlink:href="structttg_1_1meta_1_1probe__last_3_01_predicate_00_01_default_00_01_t1_00_01_ts_8_8_8_01_4.html" target="_top" xlink:title=" ">
<polygon fill="white" stroke="#666666" points="284.5,-159 162.5,-159 162.5,-118 284.5,-118 284.5,-159"/>
<text text-anchor="start" x="170.5" y="-147" font-family="Times,serif" font-size="10.00">ttg::meta::probe_last</text>
<text text-anchor="start" x="170.5" y="-136" font-family="Times,serif" font-size="10.00">&lt; Predicate, Default,</text>
<text text-anchor="middle" x="223.5" y="-125" font-family="Times,serif" font-size="10.00"> T1, Ts... &gt;</text>
</a>
</g>
</g>
<!-- Node0&#45;&gt;Node1 -->
<g id="edge164_Node000000_Node000001" class="edge">
<title>Node0&#45;&gt;Node1</title>
<g id="a_edge164_Node000000_Node000001"><a xlink:title=" ">
<path fill="none" stroke="#63b8ff" d="M127.87,-103.71C140.75,-108.45 154.15,-113.37 166.67,-117.98"/>
<polygon fill="#63b8ff" stroke="#63b8ff" points="128.73,-100.3 118.14,-100.14 126.31,-106.87 128.73,-100.3"/>
</a>
</g>
</g>
<!-- Node2 -->
<g id="Node000002" class="node">
<title>Node2</title>
<g id="a_Node000002"><a xlink:href="structttg_1_1meta_1_1probe__last_3_01_predicate_00_01_default_00_01std_1_1tuple_3_01_ts_8_8_8_01_4_01_4.html" target="_top" xlink:title=" ">
<polygon fill="white" stroke="#666666" points="284.5,-100 162.5,-100 162.5,-59 284.5,-59 284.5,-100"/>
<text text-anchor="start" x="170.5" y="-88" font-family="Times,serif" font-size="10.00">ttg::meta::probe_last</text>
<text text-anchor="start" x="170.5" y="-77" font-family="Times,serif" font-size="10.00">&lt; Predicate, Default,</text>
<text text-anchor="middle" x="223.5" y="-66" font-family="Times,serif" font-size="10.00"> std::tuple&lt; Ts... &gt; &gt;</text>
</a>
</g>
</g>
<!-- Node0&#45;&gt;Node2 -->
<g id="edge165_Node000000_Node000002" class="edge">
<title>Node0&#45;&gt;Node2</title>
<g id="a_edge165_Node000000_Node000002"><a xlink:title=" ">
<path fill="none" stroke="#63b8ff" d="M132.53,-79.5C142.52,-79.5 152.71,-79.5 162.48,-79.5"/>
<polygon fill="#63b8ff" stroke="#63b8ff" points="132.22,-76 122.22,-79.5 132.22,-83 132.22,-76"/>
</a>
</g>
</g>
<!-- Node3 -->
<g id="Node000003" class="node">
<title>Node3</title>
<g id="a_Node000003"><a xlink:href="structttg_1_1meta_1_1probe__last_3_01_predicate_00_01_default_00_01ttg_1_1typelist_3_01_ts_8_8_8_01_4_01_4.html" target="_top" xlink:title=" ">
<polygon fill="white" stroke="#666666" points="289,-41 158,-41 158,0 289,0 289,-41"/>
<text text-anchor="start" x="166" y="-29" font-family="Times,serif" font-size="10.00">ttg::meta::probe_last</text>
<text text-anchor="start" x="166" y="-18" font-family="Times,serif" font-size="10.00">&lt; Predicate, Default,</text>
<text text-anchor="middle" x="223.5" y="-7" font-family="Times,serif" font-size="10.00"> ttg::typelist&lt; Ts... &gt; &gt;</text>
</a>
</g>
</g>
<!-- Node0&#45;&gt;Node3 -->
<g id="edge166_Node000000_Node000003" class="edge">
<title>Node0&#45;&gt;Node3</title>
<g id="a_edge166_Node000000_Node000003"><a xlink:title=" ">
<path fill="none" stroke="#63b8ff" d="M127.87,-55.29C140.75,-50.55 154.15,-45.63 166.67,-41.02"/>
<polygon fill="#63b8ff" stroke="#63b8ff" points="126.31,-52.13 118.14,-58.86 128.73,-58.7 126.31,-52.13"/>
</a>
</g>
</g>
</g>
</svg>
