<?xml version="1.0" encoding="UTF-8" standalone="no"?>
<!DOCTYPE svg PUBLIC "-//W3C//DTD SVG 1.1//EN"
 "http://www.w3.org/Graphics/SVG/1.1/DTD/svg11.dtd">
<!-- Generated by graphviz version 2.43.0 (0)
 -->
<!-- Title: Graphical Class Hierarchy Pages: 1 -->
<svg width="216pt" height="86pt"
 viewBox="0.00 0.00 216.00 86.00" xmlns="http://www.w3.org/2000/svg" xmlns:xlink="http://www.w3.org/1999/xlink">
<g id="graph0" class="graph" transform="scale(1 1) rotate(0) translate(4 82)">
<title>Graphical Class Hierarchy</title>
<!-- Node0 -->
<g id="Node000000" class="node">
<title>Node0</title>
<g id="a_Node000000"><a xlink:title=" ">
<polygon fill="#e0e0e0" stroke="#999999" points="29,-48.5 0,-48.5 0,-29.5 29,-29.5 29,-48.5"/>
<text text-anchor="middle" x="14.5" y="-36.5" font-family="Times,serif" font-size="10.00">T</text>
</a>
</g>
</g>
<!-- Node1 -->
<g id="Node000001" class="node">
<title>Node1</title>
<g id="a_Node000001"><a xlink:href="structboost_1_1callable__traits_1_1detail_1_1disjunction_3_01_t_01_4.html" target="_top" xlink:title=" ">
<polygon fill="white" stroke="#666666" points="208,-78 65,-78 65,-48 208,-48 208,-78"/>
<text text-anchor="start" x="73" y="-66" font-family="Times,serif" font-size="10.00">boost::callable_traits</text>
<text text-anchor="middle" x="136.5" y="-55" font-family="Times,serif" font-size="10.00">::detail::disjunction&lt; T &gt;</text>
</a>
</g>
</g>
<!-- Node0&#45;&gt;Node1 -->
<g id="edge151_Node000000_Node000001" class="edge">
<title>Node0&#45;&gt;Node1</title>
<g id="a_edge151_Node000000_Node000001"><a xlink:title=" ">
<path fill="none" stroke="#63b8ff" d="M39.11,-43.72C46.74,-45.25 55.62,-47.02 64.85,-48.87"/>
<polygon fill="#63b8ff" stroke="#63b8ff" points="39.76,-40.28 29.27,-41.75 38.38,-47.15 39.76,-40.28"/>
</a>
</g>
</g>
<!-- Node2 -->
<g id="Node000002" class="node">
<title>Node2</title>
<g id="a_Node000002"><a xlink:href="structboost_1_1callable__traits_1_1detail_1_1fail__if.html" target="_top" xlink:title=" ">
<polygon fill="white" stroke="#666666" points="200.5,-30 72.5,-30 72.5,0 200.5,0 200.5,-30"/>
<text text-anchor="start" x="80.5" y="-18" font-family="Times,serif" font-size="10.00">boost::callable_traits</text>
<text text-anchor="middle" x="136.5" y="-7" font-family="Times,serif" font-size="10.00">::detail::fail_if&lt; B, T &gt;</text>
</a>
</g>
</g>
<!-- Node0&#45;&gt;Node2 -->
<g id="edge152_Node000000_Node000002" class="edge">
<title>Node0&#45;&gt;Node2</title>
<g id="a_edge152_Node000000_Node000002"><a xlink:title=" ">
<path fill="none" stroke="#63b8ff" d="M39.2,-34.26C48.84,-32.33 60.48,-30 72.29,-27.64"/>
<polygon fill="#63b8ff" stroke="#63b8ff" points="38.38,-30.85 29.27,-36.25 39.76,-37.72 38.38,-30.85"/>
</a>
</g>
</g>
</g>
</svg>
