<?xml version="1.0" encoding="UTF-8" standalone="no"?>
<!DOCTYPE svg PUBLIC "-//W3C//DTD SVG 1.1//EN"
 "http://www.w3.org/Graphics/SVG/1.1/DTD/svg11.dtd">
<!-- Generated by graphviz version 2.43.0 (0)
 -->
<!-- Title: Graphical Class Hierarchy Pages: 1 -->
<svg width="330pt" height="64pt"
 viewBox="0.00 0.00 330.00 64.00" xmlns="http://www.w3.org/2000/svg" xmlns:xlink="http://www.w3.org/1999/xlink">
<g id="graph0" class="graph" transform="scale(1 1) rotate(0) translate(4 60)">
<title>Graphical Class Hierarchy</title>
<!-- Node0 -->
<g id="Node000000" class="node">
<title>Node0</title>
<g id="a_Node000000"><a xlink:href="classttg_1_1base_1_1_world_impl_base.html" target="_top" xlink:title="Base class for implementation&#45;specific Worlds.">
<polygon fill="white" stroke="#666666" points="145,-37 0,-37 0,-18 145,-18 145,-37"/>
<text text-anchor="middle" x="72.5" y="-25" font-family="Times,serif" font-size="10.00">ttg::base::WorldImplBase</text>
</a>
</g>
</g>
<!-- Node1 -->
<g id="Node000001" class="node">
<title>Node1</title>
<g id="a_Node000001"><a xlink:href="classttg__madness_1_1_world_impl.html" target="_top" xlink:title=" ">
<polygon fill="white" stroke="#666666" points="322,-56 181,-56 181,-37 322,-37 322,-56"/>
<text text-anchor="middle" x="251.5" y="-44" font-family="Times,serif" font-size="10.00">ttg_madness::WorldImpl</text>
</a>
</g>
</g>
<!-- Node0&#45;&gt;Node1 -->
<g id="edge155_Node000000_Node000001" class="edge">
<title>Node0&#45;&gt;Node1</title>
<g id="a_edge155_Node000000_Node000001"><a xlink:title=" ">
<path fill="none" stroke="#63b8ff" d="M155.26,-36.28C163.85,-37.2 172.52,-38.13 180.96,-39.03"/>
<polygon fill="#63b8ff" stroke="#63b8ff" points="155.55,-32.79 145.24,-35.2 154.81,-39.75 155.55,-32.79"/>
</a>
</g>
</g>
<!-- Node2 -->
<g id="Node000002" class="node">
<title>Node2</title>
<g id="a_Node000002"><a xlink:href="classttg__parsec_1_1_world_impl.html" target="_top" xlink:title=" ">
<polygon fill="white" stroke="#666666" points="316,-19 187,-19 187,0 316,0 316,-19"/>
<text text-anchor="middle" x="251.5" y="-7" font-family="Times,serif" font-size="10.00">ttg_parsec::WorldImpl</text>
</a>
</g>
</g>
<!-- Node0&#45;&gt;Node2 -->
<g id="edge156_Node000000_Node000002" class="edge">
<title>Node0&#45;&gt;Node2</title>
<g id="a_edge156_Node000000_Node000002"><a xlink:title=" ">
<path fill="none" stroke="#63b8ff" d="M155.34,-19.18C165.94,-18.1 176.67,-17.01 186.92,-15.97"/>
<polygon fill="#63b8ff" stroke="#63b8ff" points="154.83,-15.71 145.24,-20.2 155.54,-22.67 154.83,-15.71"/>
</a>
</g>
</g>
</g>
</svg>
