<?xml version="1.0" encoding="UTF-8" standalone="no"?>
<!DOCTYPE svg PUBLIC "-//W3C//DTD SVG 1.1//EN"
 "http://www.w3.org/Graphics/SVG/1.1/DTD/svg11.dtd">
<!-- Generated by graphviz version 2.43.0 (0)
 -->
<!-- Title: Graphical Class Hierarchy Pages: 1 -->
<svg width="293pt" height="209pt"
 viewBox="0.00 0.00 293.00 208.50" xmlns="http://www.w3.org/2000/svg" xmlns:xlink="http://www.w3.org/1999/xlink">
<g id="graph0" class="graph" transform="scale(1 1) rotate(0) translate(4 204.5)">
<title>Graphical Class Hierarchy</title>
<!-- Node0 -->
<g id="Node000000" class="node">
<title>Node0</title>
<g id="a_Node000000"><a xlink:title=" ">
<polygon fill="#e0e0e0" stroke="#999999" points="91,-120.5 0,-120.5 0,-101.5 91,-101.5 91,-120.5"/>
<text text-anchor="middle" x="45.5" y="-108.5" font-family="Times,serif" font-size="10.00">std::streambuf</text>
</a>
</g>
</g>
<!-- Node1 -->
<g id="Node000001" class="node">
<title>Node1</title>
<g id="a_Node000001"><a xlink:href="classttg_1_1detail_1_1byte__istreambuf.html" target="_top" xlink:title="streambuf that writes bytes to a buffer in memory">
<polygon fill="white" stroke="#666666" points="283.5,-200.5 128.5,-200.5 128.5,-181.5 283.5,-181.5 283.5,-200.5"/>
<text text-anchor="middle" x="206" y="-188.5" font-family="Times,serif" font-size="10.00">ttg::detail::byte_istreambuf</text>
</a>
</g>
</g>
<!-- Node0&#45;&gt;Node1 -->
<g id="edge129_Node000000_Node000001" class="edge">
<title>Node0&#45;&gt;Node1</title>
<g id="a_edge129_Node000000_Node000001"><a xlink:title=" ">
<path fill="none" stroke="#63b8ff" d="M63.6,-127.75C78.96,-141.87 102.78,-161.55 127,-173 134.16,-176.39 142,-179.16 149.86,-181.42"/>
<polygon fill="#63b8ff" stroke="#63b8ff" points="65.66,-124.88 55.98,-120.56 60.85,-129.97 65.66,-124.88"/>
</a>
</g>
</g>
<!-- Node2 -->
<g id="Node000002" class="node">
<title>Node2</title>
<g id="a_Node000002"><a xlink:href="classttg_1_1detail_1_1byte__ostreambuf.html" target="_top" xlink:title="streambuf that writes bytes to a buffer in memory">
<polygon fill="white" stroke="#666666" points="285,-163.5 127,-163.5 127,-144.5 285,-144.5 285,-163.5"/>
<text text-anchor="middle" x="206" y="-151.5" font-family="Times,serif" font-size="10.00">ttg::detail::byte_ostreambuf</text>
</a>
</g>
</g>
<!-- Node0&#45;&gt;Node2 -->
<g id="edge130_Node000000_Node000002" class="edge">
<title>Node0&#45;&gt;Node2</title>
<g id="a_edge130_Node000000_Node000002"><a xlink:title=" ">
<path fill="none" stroke="#63b8ff" d="M87.21,-123.57C99.91,-127.38 114,-131.48 127,-135 138.97,-138.24 152.05,-141.52 164.01,-144.43"/>
<polygon fill="#63b8ff" stroke="#63b8ff" points="87.94,-120.14 77.36,-120.6 85.92,-126.84 87.94,-120.14"/>
</a>
</g>
</g>
<!-- Node3 -->
<g id="Node000003" class="node">
<title>Node3</title>
<g id="a_Node000003"><a xlink:href="classttg_1_1detail_1_1counting__streambuf.html" target="_top" xlink:title="streambuf that counts bytes">
<polygon fill="white" stroke="#666666" points="264,-126 148,-126 148,-96 264,-96 264,-126"/>
<text text-anchor="start" x="156" y="-114" font-family="Times,serif" font-size="10.00">ttg::detail::counting</text>
<text text-anchor="middle" x="206" y="-103" font-family="Times,serif" font-size="10.00">_streambuf</text>
</a>
</g>
</g>
<!-- Node0&#45;&gt;Node3 -->
<g id="edge131_Node000000_Node000003" class="edge">
<title>Node0&#45;&gt;Node3</title>
<g id="a_edge131_Node000000_Node000003"><a xlink:title=" ">
<path fill="none" stroke="#63b8ff" d="M101.23,-111C116.25,-111 132.57,-111 147.72,-111"/>
<polygon fill="#63b8ff" stroke="#63b8ff" points="101.07,-107.5 91.07,-111 101.07,-114.5 101.07,-107.5"/>
</a>
</g>
</g>
<!-- Node4 -->
<g id="Node000004" class="node">
<title>Node4</title>
<g id="a_Node000004"><a xlink:href="classttg_1_1detail_1_1iovec__istreambuf.html" target="_top" xlink:title="streambuf that reads vector of address&#45;size pairs">
<polygon fill="white" stroke="#666666" points="255,-78 157,-78 157,-48 255,-48 255,-78"/>
<text text-anchor="start" x="165" y="-66" font-family="Times,serif" font-size="10.00">ttg::detail::iovec</text>
<text text-anchor="middle" x="206" y="-55" font-family="Times,serif" font-size="10.00">_istreambuf</text>
</a>
</g>
</g>
<!-- Node0&#45;&gt;Node4 -->
<g id="edge132_Node000000_Node000004" class="edge">
<title>Node0&#45;&gt;Node4</title>
<g id="a_edge132_Node000000_Node000004"><a xlink:title=" ">
<path fill="none" stroke="#63b8ff" d="M87.84,-98.48C108.96,-92.08 134.78,-84.26 156.8,-77.6"/>
<polygon fill="#63b8ff" stroke="#63b8ff" points="86.75,-95.15 78.19,-101.4 88.78,-101.85 86.75,-95.15"/>
</a>
</g>
</g>
<!-- Node5 -->
<g id="Node000005" class="node">
<title>Node5</title>
<g id="a_Node000005"><a xlink:href="classttg_1_1detail_1_1iovec__ostreambuf.html" target="_top" xlink:title="streambuf that records vector of address&#45;size pairs">
<polygon fill="white" stroke="#666666" points="255,-30 157,-30 157,0 255,0 255,-30"/>
<text text-anchor="start" x="165" y="-18" font-family="Times,serif" font-size="10.00">ttg::detail::iovec</text>
<text text-anchor="middle" x="206" y="-7" font-family="Times,serif" font-size="10.00">_ostreambuf</text>
</a>
</g>
</g>
<!-- Node0&#45;&gt;Node5 -->
<g id="edge133_Node000000_Node000005" class="edge">
<title>Node0&#45;&gt;Node5</title>
<g id="a_edge133_Node000000_Node000005"><a xlink:title=" ">
<path fill="none" stroke="#63b8ff" d="M61.9,-93.42C77,-77.18 101.42,-53.45 127,-39 136.13,-33.84 146.5,-29.66 156.63,-26.33"/>
<polygon fill="#63b8ff" stroke="#63b8ff" points="59.02,-91.39 54.89,-101.14 64.2,-96.09 59.02,-91.39"/>
</a>
</g>
</g>
</g>
</svg>
