<?xml version="1.0" encoding="UTF-8" standalone="no"?>
<!DOCTYPE svg PUBLIC "-//W3C//DTD SVG 1.1//EN"
 "http://www.w3.org/Graphics/SVG/1.1/DTD/svg11.dtd">
<!-- Generated by graphviz version 2.43.0 (0)
 -->
<!-- Title: Graphical Class Hierarchy Pages: 1 -->
<svg width="599pt" height="400pt"
 viewBox="0.00 0.00 599.00 400.00" xmlns="http://www.w3.org/2000/svg" xmlns:xlink="http://www.w3.org/1999/xlink">
<g id="graph0" class="graph" transform="scale(1 1) rotate(0) translate(4 396)">
<title>Graphical Class Hierarchy</title>
<!-- Node0 -->
<g id="Node000000" class="node">
<title>Node0</title>
<g id="a_Node000000"><a xlink:title=" ">
<polygon fill="#e0e0e0" stroke="#999999" points="131,-381 0,-381 0,-362 131,-362 131,-381"/>
<text text-anchor="middle" x="65.5" y="-369" font-family="Times,serif" font-size="10.00">madness::WorldObject</text>
</a>
</g>
</g>
<!-- Node1 -->
<g id="Node000001" class="node">
<title>Node1</title>
<g id="a_Node000001"><a xlink:href="classttg__madness_1_1_t_t.html" target="_top" xlink:title=" ">
<polygon fill="white" stroke="#666666" points="356.5,-392 199.5,-392 199.5,-351 356.5,-351 356.5,-392"/>
<text text-anchor="start" x="207.5" y="-380" font-family="Times,serif" font-size="10.00">ttg_madness::TT&lt; keyT,</text>
<text text-anchor="start" x="207.5" y="-369" font-family="Times,serif" font-size="10.00"> output_terminalsT, derived</text>
<text text-anchor="middle" x="278" y="-358" font-family="Times,serif" font-size="10.00">T, input_valueTs, Space &gt;</text>
</a>
</g>
</g>
<!-- Node0&#45;&gt;Node1 -->
<g id="edge53_Node000000_Node000001" class="edge">
<title>Node0&#45;&gt;Node1</title>
<g id="a_edge53_Node000000_Node000001"><a xlink:title=" ">
<path fill="none" stroke="#63b8ff" d="M141.09,-371.5C159.93,-371.5 180.2,-371.5 199.2,-371.5"/>
<polygon fill="#63b8ff" stroke="#63b8ff" points="141.09,-368 131.09,-371.5 141.09,-375 141.09,-368"/>
</a>
</g>
</g>
<!-- Node2 -->
<g id="Node000002" class="node">
<title>Node2</title>
<g id="a_Node000002"><a xlink:href="classttg_1_1_t_t_base.html" target="_top" xlink:title="A base class for all template tasks.">
<polygon fill="white" stroke="#666666" points="103,-244 28,-244 28,-225 103,-225 103,-244"/>
<text text-anchor="middle" x="65.5" y="-232" font-family="Times,serif" font-size="10.00">ttg::TTBase</text>
</a>
</g>
</g>
<!-- Node2&#45;&gt;Node1 -->
<g id="edge59_Node000002_Node000001" class="edge">
<title>Node2&#45;&gt;Node1</title>
<g id="a_edge59_Node000002_Node000001"><a xlink:title=" ">
<path fill="none" stroke="#63b8ff" d="M78.64,-252.67C95.59,-276.63 128.63,-318.42 167,-341.5 176.92,-347.47 188.06,-352.28 199.33,-356.14"/>
<polygon fill="#63b8ff" stroke="#63b8ff" points="81.33,-250.4 72.76,-244.16 75.57,-254.38 81.33,-250.4"/>
</a>
</g>
</g>
<!-- Node3 -->
<g id="Node000003" class="node">
<title>Node3</title>
<g id="a_Node000003"><a xlink:href="classttg__parsec_1_1_t_t.html" target="_top" xlink:title=" ">
<polygon fill="white" stroke="#666666" points="363,-236.5 193,-236.5 193,-162.5 363,-162.5 363,-236.5"/>
<text text-anchor="start" x="201" y="-224.5" font-family="Times,serif" font-size="10.00">ttg_parsec::TT&lt; int,</text>
<text text-anchor="start" x="201" y="-213.5" font-family="Times,serif" font-size="10.00"> std::tuple&lt; Out&lt; int,</text>
<text text-anchor="start" x="201" y="-202.5" font-family="Times,serif" font-size="10.00"> Value &gt;, Out&lt; int, Value</text>
<text text-anchor="start" x="201" y="-191.5" font-family="Times,serif" font-size="10.00"> &gt;, Out&lt; int, Value &gt; &gt;,</text>
<text text-anchor="start" x="201" y="-180.5" font-family="Times,serif" font-size="10.00"> BinaryTreeBroadcast&lt; Value,</text>
<text text-anchor="middle" x="278" y="-169.5" font-family="Times,serif" font-size="10.00"> int &gt;, ttg::typelist&lt; Value &gt; &gt;</text>
</a>
</g>
</g>
<!-- Node2&#45;&gt;Node3 -->
<g id="edge54_Node000002_Node000003" class="edge">
<title>Node2&#45;&gt;Node3</title>
<g id="a_edge54_Node000002_Node000003"><a xlink:title=" ">
<path fill="none" stroke="#63b8ff" d="M113.15,-226.74C136.55,-222.85 165.6,-218.02 192.73,-213.51"/>
<polygon fill="#63b8ff" stroke="#63b8ff" points="112.46,-223.31 103.17,-228.4 113.6,-230.22 112.46,-223.31"/>
</a>
</g>
</g>
<!-- Node5 -->
<g id="Node000005" class="node">
<title>Node5</title>
<g id="a_Node000005"><a xlink:href="classttg__parsec_1_1_t_t.html" target="_top" xlink:title=" ">
<polygon fill="white" stroke="#666666" points="389,-144 167,-144 167,-59 389,-59 389,-144"/>
<text text-anchor="start" x="175" y="-132" font-family="Times,serif" font-size="10.00">ttg_parsec::TT&lt; int,</text>
<text text-anchor="start" x="175" y="-121" font-family="Times,serif" font-size="10.00"> std::tuple&lt; Out&lt; int,</text>
<text text-anchor="start" x="175" y="-110" font-family="Times,serif" font-size="10.00"> Value &gt;, Out&lt; int, Value</text>
<text text-anchor="start" x="175" y="-99" font-family="Times,serif" font-size="10.00"> &gt;, Out&lt; int, Value &gt;, Out</text>
<text text-anchor="start" x="175" y="-88" font-family="Times,serif" font-size="10.00">&lt; OutKey, Value &gt; &gt;, BinaryTreeReduce</text>
<text text-anchor="start" x="175" y="-77" font-family="Times,serif" font-size="10.00">&lt; Value, BinaryOp, OutKey &gt;, ttg</text>
<text text-anchor="middle" x="278" y="-66" font-family="Times,serif" font-size="10.00">::typelist&lt; Value, Value, Value &gt; &gt;</text>
</a>
</g>
</g>
<!-- Node2&#45;&gt;Node5 -->
<g id="edge55_Node000002_Node000005" class="edge">
<title>Node2&#45;&gt;Node5</title>
<g id="a_edge55_Node000002_Node000005"><a xlink:title=" ">
<path fill="none" stroke="#63b8ff" d="M84.18,-218.08C103.52,-200.65 135.93,-172.98 167,-153.5 172.1,-150.3 177.43,-147.17 182.87,-144.13"/>
<polygon fill="#63b8ff" stroke="#63b8ff" points="81.76,-215.55 76.73,-224.87 86.48,-220.72 81.76,-215.55"/>
</a>
</g>
</g>
<!-- Node9 -->
<g id="Node000009" class="node">
<title>Node9</title>
<g id="a_Node000009"><a xlink:href="classttg_1_1_sink_t_t.html" target="_top" xlink:title="A data sink for one input.">
<polygon fill="white" stroke="#666666" points="333,-332.5 223,-332.5 223,-302.5 333,-302.5 333,-332.5"/>
<text text-anchor="start" x="231" y="-320.5" font-family="Times,serif" font-size="10.00">ttg::SinkTT&lt; keyT,</text>
<text text-anchor="middle" x="278" y="-309.5" font-family="Times,serif" font-size="10.00"> input_valueT &gt;</text>
</a>
</g>
</g>
<!-- Node2&#45;&gt;Node9 -->
<g id="edge57_Node000002_Node000009" class="edge">
<title>Node2&#45;&gt;Node9</title>
<g id="a_edge57_Node000002_Node000009"><a xlink:title=" ">
<path fill="none" stroke="#63b8ff" d="M88.03,-249.86C107.71,-263.23 138.08,-282.19 167,-293.5 184.66,-300.41 204.73,-305.52 222.84,-309.22"/>
<polygon fill="#63b8ff" stroke="#63b8ff" points="89.99,-246.97 79.78,-244.16 86.01,-252.73 89.99,-246.97"/>
</a>
</g>
</g>
<!-- Node10 -->
<g id="Node000010" class="node">
<title>Node10</title>
<g id="a_Node000010"><a xlink:href="classttg_1_1_t_t_g.html" target="_top" xlink:title="a template task graph implementation">
<polygon fill="white" stroke="#666666" points="353,-284.5 203,-284.5 203,-254.5 353,-254.5 353,-284.5"/>
<text text-anchor="start" x="211" y="-272.5" font-family="Times,serif" font-size="10.00">ttg::TTG&lt; input_terminals</text>
<text text-anchor="middle" x="278" y="-261.5" font-family="Times,serif" font-size="10.00">T, output_terminalsT &gt;</text>
</a>
</g>
</g>
<!-- Node2&#45;&gt;Node10 -->
<g id="edge58_Node000002_Node000010" class="edge">
<title>Node2&#45;&gt;Node10</title>
<g id="a_edge58_Node000002_Node000010"><a xlink:title=" ">
<path fill="none" stroke="#63b8ff" d="M113.24,-242.27C139.56,-246.65 173.04,-252.21 202.85,-257.17"/>
<polygon fill="#63b8ff" stroke="#63b8ff" points="113.6,-238.78 103.17,-240.6 112.46,-245.69 113.6,-238.78"/>
</a>
</g>
</g>
<!-- Node7 -->
<g id="Node000007" class="node">
<title>Node7</title>
<g id="a_Node000007"><a xlink:href="classttg__parsec_1_1_t_t.html" target="_top" xlink:title=" ">
<polygon fill="white" stroke="#666666" points="356.5,-41 199.5,-41 199.5,0 356.5,0 356.5,-41"/>
<text text-anchor="start" x="207.5" y="-29" font-family="Times,serif" font-size="10.00">ttg_parsec::TT&lt; keyT,</text>
<text text-anchor="start" x="207.5" y="-18" font-family="Times,serif" font-size="10.00"> output_terminalsT, derived</text>
<text text-anchor="middle" x="278" y="-7" font-family="Times,serif" font-size="10.00">T, input_valueTs, Space &gt;</text>
</a>
</g>
</g>
<!-- Node2&#45;&gt;Node7 -->
<g id="edge60_Node000002_Node000007" class="edge">
<title>Node2&#45;&gt;Node7</title>
<g id="a_edge60_Node000002_Node000007"><a xlink:title=" ">
<path fill="none" stroke="#63b8ff" d="M78.13,-216.04C91.48,-194.59 113.73,-158 131,-125.5 148.54,-92.49 138.25,-73.38 167,-49.5 176.42,-41.68 187.73,-35.94 199.46,-31.74"/>
<polygon fill="#63b8ff" stroke="#63b8ff" points="75.02,-214.42 72.68,-224.75 80.95,-218.13 75.02,-214.42"/>
</a>
</g>
</g>
<!-- Node6 -->
<g id="Node000006" class="node">
<title>Node6</title>
<g id="a_Node000006"><a xlink:href="classttg_1_1_binary_tree_reduce.html" target="_top" xlink:title="generic binary reduction of a set of key&#45;value pairs.">
<polygon fill="white" stroke="#666666" points="591,-116.5 425,-116.5 425,-86.5 591,-86.5 591,-116.5"/>
<text text-anchor="start" x="433" y="-104.5" font-family="Times,serif" font-size="10.00">ttg::BinaryTreeReduce</text>
<text text-anchor="middle" x="508" y="-93.5" font-family="Times,serif" font-size="10.00">&lt; Value, BinaryOp, OutKey &gt;</text>
</a>
</g>
</g>
<!-- Node5&#45;&gt;Node6 -->
<g id="edge56_Node000005_Node000006" class="edge">
<title>Node5&#45;&gt;Node6</title>
<g id="a_edge56_Node000005_Node000006"><a xlink:title=" ">
<path fill="none" stroke="#63b8ff" d="M399.4,-101.5C407.97,-101.5 416.49,-101.5 424.77,-101.5"/>
<polygon fill="#63b8ff" stroke="#63b8ff" points="399.33,-98 389.33,-101.5 399.33,-105 399.33,-98"/>
</a>
</g>
</g>
<!-- Node8 -->
<g id="Node000008" class="node">
<title>Node8</title>
<g id="a_Node000008"><a xlink:href="classttg_1_1_binary_tree_broadcast.html" target="_top" xlink:title="generic binary broadcast of a value to a set of {key,value} pairs">
<polygon fill="white" stroke="#666666" points="580.5,-35.5 435.5,-35.5 435.5,-5.5 580.5,-5.5 580.5,-35.5"/>
<text text-anchor="start" x="443.5" y="-23.5" font-family="Times,serif" font-size="10.00">ttg::BinaryTreeBroadcast</text>
<text text-anchor="middle" x="508" y="-12.5" font-family="Times,serif" font-size="10.00">&lt; Value, OutKey &gt;</text>
</a>
</g>
</g>
<!-- Node7&#45;&gt;Node8 -->
<g id="edge61_Node000007_Node000008" class="edge">
<title>Node7&#45;&gt;Node8</title>
<g id="a_edge61_Node000007_Node000008"><a xlink:title=" ">
<path fill="none" stroke="#63b8ff" d="M366.52,-20.5C389.31,-20.5 413.6,-20.5 435.46,-20.5"/>
<polygon fill="#63b8ff" stroke="#63b8ff" points="366.51,-17 356.51,-20.5 366.51,-24 366.51,-17"/>
</a>
</g>
</g>
<!-- Node4 -->
<g id="Node000004" class="node">
<title>Node4</title>
<g id="a_Node000004"><a xlink:href="structttg__parsec_1_1detail_1_1_parsec_t_t_base.html" target="_top" xlink:title=" ">
<polygon fill="white" stroke="#666666" points="117.5,-116.5 13.5,-116.5 13.5,-86.5 117.5,-86.5 117.5,-116.5"/>
<text text-anchor="start" x="21.5" y="-104.5" font-family="Times,serif" font-size="10.00">ttg_parsec::detail</text>
<text text-anchor="middle" x="65.5" y="-93.5" font-family="Times,serif" font-size="10.00">::ParsecTTBase</text>
</a>
</g>
</g>
<!-- Node4&#45;&gt;Node3 -->
<g id="edge62_Node000004_Node000003" class="edge">
<title>Node4&#45;&gt;Node3</title>
<g id="a_edge62_Node000004_Node000003"><a xlink:title=" ">
<path fill="none" stroke="#8b1a1a" d="M103.22,-121.41C122.1,-131.42 145.58,-143.5 167,-153.5 175.35,-157.4 184.12,-161.33 192.91,-165.17"/>
<polygon fill="#8b1a1a" stroke="#8b1a1a" points="104.83,-118.3 94.35,-116.69 101.53,-124.48 104.83,-118.3"/>
</a>
</g>
</g>
<!-- Node4&#45;&gt;Node5 -->
<g id="edge63_Node000004_Node000005" class="edge">
<title>Node4&#45;&gt;Node5</title>
<g id="a_edge63_Node000004_Node000005"><a xlink:title=" ">
<path fill="none" stroke="#8b1a1a" d="M127.82,-101.5C140.13,-101.5 153.41,-101.5 166.81,-101.5"/>
<polygon fill="#8b1a1a" stroke="#8b1a1a" points="127.72,-98 117.72,-101.5 127.72,-105 127.72,-98"/>
</a>
</g>
</g>
<!-- Node4&#45;&gt;Node7 -->
<g id="edge64_Node000004_Node000007" class="edge">
<title>Node4&#45;&gt;Node7</title>
<g id="a_edge64_Node000004_Node000007"><a xlink:title=" ">
<path fill="none" stroke="#8b1a1a" d="M100.69,-81.42C119.74,-70.85 144.16,-58.3 167,-49.5 177.32,-45.53 188.39,-41.9 199.39,-38.67"/>
<polygon fill="#8b1a1a" stroke="#8b1a1a" points="98.8,-78.47 91.81,-86.42 102.24,-84.57 98.8,-78.47"/>
</a>
</g>
</g>
</g>
</svg>
