<?xml version="1.0" encoding="UTF-8" standalone="no"?>
<!DOCTYPE svg PUBLIC "-//W3C//DTD SVG 1.1//EN"
 "http://www.w3.org/Graphics/SVG/1.1/DTD/svg11.dtd">
<!-- Generated by graphviz version 2.43.0 (0)
 -->
<!-- Title: Graphical Class Hierarchy Pages: 1 -->
<svg width="295pt" height="157pt"
 viewBox="0.00 0.00 295.00 156.50" xmlns="http://www.w3.org/2000/svg" xmlns:xlink="http://www.w3.org/1999/xlink">
<g id="graph0" class="graph" transform="scale(1 1) rotate(0) translate(4 152.5)">
<title>Graphical Class Hierarchy</title>
<!-- Node0 -->
<g id="Node000000" class="node">
<title>Node0</title>
<g id="a_Node000000"><a xlink:href="structttg__parsec_1_1detail_1_1parsec__ttg__task__base__t.html" target="_top" xlink:title=" ">
<polygon fill="white" stroke="#666666" points="140,-84 0,-84 0,-54 140,-54 140,-84"/>
<text text-anchor="start" x="8" y="-72" font-family="Times,serif" font-size="10.00">ttg_parsec::detail</text>
<text text-anchor="middle" x="70" y="-61" font-family="Times,serif" font-size="10.00">::parsec_ttg_task_base_t</text>
</a>
</g>
</g>
<!-- Node1 -->
<g id="Node000001" class="node">
<title>Node1</title>
<g id="a_Node000001"><a xlink:href="structttg__parsec_1_1detail_1_1parsec__ttg__task__t.html" target="_top" xlink:title=" ">
<polygon fill="white" stroke="#666666" points="287,-148.5 176,-148.5 176,-107.5 287,-107.5 287,-148.5"/>
<text text-anchor="start" x="184" y="-136.5" font-family="Times,serif" font-size="10.00">ttg_parsec::detail</text>
<text text-anchor="start" x="184" y="-125.5" font-family="Times,serif" font-size="10.00">::parsec_ttg_task_t</text>
<text text-anchor="middle" x="231.5" y="-114.5" font-family="Times,serif" font-size="10.00">&lt; TT, KeyIsVoid &gt;</text>
</a>
</g>
</g>
<!-- Node0&#45;&gt;Node1 -->
<g id="edge175_Node000000_Node000001" class="edge">
<title>Node0&#45;&gt;Node1</title>
<g id="a_edge175_Node000000_Node000001"><a xlink:title=" ">
<path fill="none" stroke="#63b8ff" d="M121.07,-87.52C138.45,-93.95 158.03,-101.19 175.77,-107.75"/>
<polygon fill="#63b8ff" stroke="#63b8ff" points="122.25,-84.23 111.66,-84.04 119.83,-90.79 122.25,-84.23"/>
</a>
</g>
</g>
<!-- Node2 -->
<g id="Node000002" class="node">
<title>Node2</title>
<g id="a_Node000002"><a xlink:href="structttg__parsec_1_1detail_1_1parsec__ttg__task__t_3_01_t_t_00_01true_01_4.html" target="_top" xlink:title=" ">
<polygon fill="white" stroke="#666666" points="287,-89.5 176,-89.5 176,-48.5 287,-48.5 287,-89.5"/>
<text text-anchor="start" x="184" y="-77.5" font-family="Times,serif" font-size="10.00">ttg_parsec::detail</text>
<text text-anchor="start" x="184" y="-66.5" font-family="Times,serif" font-size="10.00">::parsec_ttg_task_t</text>
<text text-anchor="middle" x="231.5" y="-55.5" font-family="Times,serif" font-size="10.00">&lt; TT, true &gt;</text>
</a>
</g>
</g>
<!-- Node0&#45;&gt;Node2 -->
<g id="edge176_Node000000_Node000002" class="edge">
<title>Node0&#45;&gt;Node2</title>
<g id="a_edge176_Node000000_Node000002"><a xlink:title=" ">
<path fill="none" stroke="#63b8ff" d="M150.17,-69C158.83,-69 167.51,-69 175.78,-69"/>
<polygon fill="#63b8ff" stroke="#63b8ff" points="150.03,-65.5 140.03,-69 150.03,-72.5 150.03,-65.5"/>
</a>
</g>
</g>
<!-- Node3 -->
<g id="Node000003" class="node">
<title>Node3</title>
<g id="a_Node000003"><a xlink:href="structttg__parsec_1_1detail_1_1reducer__task__t.html" target="_top" xlink:title=" ">
<polygon fill="white" stroke="#666666" points="283.5,-30 179.5,-30 179.5,0 283.5,0 283.5,-30"/>
<text text-anchor="start" x="187.5" y="-18" font-family="Times,serif" font-size="10.00">ttg_parsec::detail</text>
<text text-anchor="middle" x="231.5" y="-7" font-family="Times,serif" font-size="10.00">::reducer_task_t</text>
</a>
</g>
</g>
<!-- Node0&#45;&gt;Node3 -->
<g id="edge177_Node000000_Node000003" class="edge">
<title>Node0&#45;&gt;Node3</title>
<g id="a_edge177_Node000000_Node000003"><a xlink:title=" ">
<path fill="none" stroke="#63b8ff" d="M124.97,-50.73C144.83,-44 167.1,-36.47 186.03,-30.05"/>
<polygon fill="#63b8ff" stroke="#63b8ff" points="123.78,-47.44 115.43,-53.96 126.02,-54.07 123.78,-47.44"/>
</a>
</g>
</g>
</g>
</svg>
