<?xml version="1.0" encoding="UTF-8" standalone="no"?>
<!DOCTYPE svg PUBLIC "-//W3C//DTD SVG 1.1//EN"
 "http://www.w3.org/Graphics/SVG/1.1/DTD/svg11.dtd">
<!-- Generated by graphviz version 2.43.0 (0)
 -->
<!-- Title: Graphical Class Hierarchy Pages: 1 -->
<svg width="319pt" height="1153pt"
 viewBox="0.00 0.00 319.00 1152.50" xmlns="http://www.w3.org/2000/svg" xmlns:xlink="http://www.w3.org/1999/xlink">
<g id="graph0" class="graph" transform="scale(1 1) rotate(0) translate(4 1148.5)">
<title>Graphical Class Hierarchy</title>
<!-- Node0 -->
<g id="Node000000" class="node">
<title>Node0</title>
<g id="a_Node000000"><a xlink:title=" ">
<polygon fill="#e0e0e0" stroke="#999999" points="87,-488 0,-488 0,-469 87,-469 87,-488"/>
<text text-anchor="middle" x="43.5" y="-476" font-family="Times,serif" font-size="10.00">std::true_type</text>
</a>
</g>
</g>
<!-- Node1 -->
<g id="Node000001" class="node">
<title>Node1</title>
<g id="a_Node000001"><a xlink:href="struct_t_c_b___s_p_a_n___n_a_m_e_s_p_a_c_e___n_a_m_e_1_1detail_1_1has__size__and__data_3_01_t_00fcf51269242c64e6f704600d32eb2114.html" target="_top" xlink:title=" ">
<polygon fill="white" stroke="#666666" points="305.5,-1144.5 128.5,-1144.5 128.5,-1070.5 305.5,-1070.5 305.5,-1144.5"/>
<text text-anchor="start" x="136.5" y="-1132.5" font-family="Times,serif" font-size="10.00">TCB_SPAN_NAMESPACE</text>
<text text-anchor="start" x="136.5" y="-1121.5" font-family="Times,serif" font-size="10.00">_NAME::detail::has_size</text>
<text text-anchor="start" x="136.5" y="-1110.5" font-family="Times,serif" font-size="10.00">_and_data&lt; T, void_t&lt; decltype</text>
<text text-anchor="start" x="136.5" y="-1099.5" font-family="Times,serif" font-size="10.00">(detail::size(std::declval&lt;</text>
<text text-anchor="start" x="136.5" y="-1088.5" font-family="Times,serif" font-size="10.00"> T &gt;())), decltype(detail::data</text>
<text text-anchor="middle" x="217" y="-1077.5" font-family="Times,serif" font-size="10.00">(std::declval&lt; T &gt;()))&gt; &gt;</text>
</a>
</g>
</g>
<!-- Node0&#45;&gt;Node1 -->
<g id="edge134_Node000000_Node000001" class="edge">
<title>Node0&#45;&gt;Node1</title>
<g id="a_edge134_Node000000_Node000001"><a xlink:title=" ">
<path fill="none" stroke="#63b8ff" d="M44.73,-498.11C46.14,-588.94 56.03,-968.22 123,-1061.5 125.21,-1064.57 127.68,-1067.45 130.35,-1070.15"/>
<polygon fill="#63b8ff" stroke="#63b8ff" points="48.23,-498.04 44.59,-488.09 41.23,-498.13 48.23,-498.04"/>
</a>
</g>
</g>
<!-- Node2 -->
<g id="Node000002" class="node">
<title>Node2</title>
<g id="a_Node000002"><a xlink:href="struct_t_c_b___s_p_a_n___n_a_m_e_s_p_a_c_e___n_a_m_e_1_1detail_1_1is__complete_3_01_t_00_01decltype_07sizeof_07_t_08_08_4.html" target="_top" xlink:title=" ">
<polygon fill="white" stroke="#666666" points="295.5,-1052 138.5,-1052 138.5,-1011 295.5,-1011 295.5,-1052"/>
<text text-anchor="start" x="146.5" y="-1040" font-family="Times,serif" font-size="10.00">TCB_SPAN_NAMESPACE</text>
<text text-anchor="start" x="146.5" y="-1029" font-family="Times,serif" font-size="10.00">_NAME::detail::is_complete</text>
<text text-anchor="middle" x="217" y="-1018" font-family="Times,serif" font-size="10.00">&lt; T, decltype(sizeof(T))&gt;</text>
</a>
</g>
</g>
<!-- Node0&#45;&gt;Node2 -->
<g id="edge135_Node000000_Node000002" class="edge">
<title>Node0&#45;&gt;Node2</title>
<g id="a_edge135_Node000000_Node000002"><a xlink:title=" ">
<path fill="none" stroke="#63b8ff" d="M44.74,-498.22C46.2,-584.08 56.18,-924.54 123,-1002.5 127.29,-1007.51 132.44,-1011.66 138.07,-1015.11"/>
<polygon fill="#63b8ff" stroke="#63b8ff" points="48.24,-497.99 44.59,-488.04 41.24,-498.09 48.24,-497.99"/>
</a>
</g>
</g>
<!-- Node3 -->
<g id="Node000003" class="node">
<title>Node3</title>
<g id="a_Node000003"><a xlink:href="struct_t_c_b___s_p_a_n___n_a_m_e_s_p_a_c_e___n_a_m_e_1_1detail_1_1is__span_3_01span_3_01_t_00_01_s_01_4_01_4.html" target="_top" xlink:title=" ">
<polygon fill="white" stroke="#666666" points="291,-993 143,-993 143,-952 291,-952 291,-993"/>
<text text-anchor="start" x="151" y="-981" font-family="Times,serif" font-size="10.00">TCB_SPAN_NAMESPACE</text>
<text text-anchor="start" x="151" y="-970" font-family="Times,serif" font-size="10.00">_NAME::detail::is_span</text>
<text text-anchor="middle" x="217" y="-959" font-family="Times,serif" font-size="10.00">&lt; span&lt; T, S &gt; &gt;</text>
</a>
</g>
</g>
<!-- Node0&#45;&gt;Node3 -->
<g id="edge136_Node000000_Node000003" class="edge">
<title>Node0&#45;&gt;Node3</title>
<g id="a_edge136_Node000000_Node000003"><a xlink:title=" ">
<path fill="none" stroke="#63b8ff" d="M45.18,-498.18C48.33,-577.7 63.9,-874.18 123,-942.5 128.44,-948.79 135.2,-953.77 142.58,-957.71"/>
<polygon fill="#63b8ff" stroke="#63b8ff" points="48.68,-497.94 44.81,-488.08 41.68,-498.2 48.68,-497.94"/>
</a>
</g>
</g>
<!-- Node4 -->
<g id="Node000004" class="node">
<title>Node4</title>
<g id="a_Node000004"><a xlink:href="struct_t_c_b___s_p_a_n___n_a_m_e_s_p_a_c_e___n_a_m_e_1_1detail_1_1is__std__array_3_01std_1_1array_3_01_t_00_01_n_01_4_01_4.html" target="_top" xlink:title=" ">
<polygon fill="white" stroke="#666666" points="291,-933.5 143,-933.5 143,-881.5 291,-881.5 291,-933.5"/>
<text text-anchor="start" x="151" y="-921.5" font-family="Times,serif" font-size="10.00">TCB_SPAN_NAMESPACE</text>
<text text-anchor="start" x="151" y="-910.5" font-family="Times,serif" font-size="10.00">_NAME::detail::is_std</text>
<text text-anchor="start" x="151" y="-899.5" font-family="Times,serif" font-size="10.00">_array&lt; std::array&lt; T,</text>
<text text-anchor="middle" x="217" y="-888.5" font-family="Times,serif" font-size="10.00"> N &gt; &gt;</text>
</a>
</g>
</g>
<!-- Node0&#45;&gt;Node4 -->
<g id="edge137_Node000000_Node000004" class="edge">
<title>Node0&#45;&gt;Node4</title>
<g id="a_edge137_Node000000_Node000004"><a xlink:title=" ">
<path fill="none" stroke="#63b8ff" d="M45.97,-498.73C51.59,-570.93 73.94,-814.7 123,-872.5 128.47,-878.94 135.25,-884.2 142.65,-888.5"/>
<polygon fill="#63b8ff" stroke="#63b8ff" points="49.43,-498.04 45.18,-488.33 42.45,-498.57 49.43,-498.04"/>
</a>
</g>
</g>
<!-- Node5 -->
<g id="Node000005" class="node">
<title>Node5</title>
<g id="a_Node000005"><a xlink:href="structttg_1_1detail_1_1is__printable_3_01_t_00_01std_1_1void__t_3_01decltype_07std_1_1declval_3_a5774f3d043eeeee157069b2b78993f2.html" target="_top" xlink:title=" ">
<polygon fill="white" stroke="#666666" points="309.5,-863.5 124.5,-863.5 124.5,-811.5 309.5,-811.5 309.5,-863.5"/>
<text text-anchor="start" x="132.5" y="-851.5" font-family="Times,serif" font-size="10.00">ttg::detail::is_printable</text>
<text text-anchor="start" x="132.5" y="-840.5" font-family="Times,serif" font-size="10.00">&lt; T, std::void_t&lt; decltype</text>
<text text-anchor="start" x="132.5" y="-829.5" font-family="Times,serif" font-size="10.00">(std::declval&lt; std::ostream</text>
<text text-anchor="middle" x="217" y="-818.5" font-family="Times,serif" font-size="10.00"> &amp; &gt;()&lt;&lt; std::declval&lt; T &gt;())&gt; &gt;</text>
</a>
</g>
</g>
<!-- Node0&#45;&gt;Node5 -->
<g id="edge138_Node000000_Node000005" class="edge">
<title>Node0&#45;&gt;Node5</title>
<g id="a_edge138_Node000000_Node000005"><a xlink:title=" ">
<path fill="none" stroke="#63b8ff" d="M46.87,-498.32C54.76,-561.42 82.02,-756.18 123,-802.5 125.86,-805.73 129.04,-808.66 132.47,-811.33"/>
<polygon fill="#63b8ff" stroke="#63b8ff" points="50.31,-497.64 45.62,-488.14 43.36,-498.49 50.31,-497.64"/>
</a>
</g>
</g>
<!-- Node6 -->
<g id="Node000006" class="node">
<title>Node6</title>
<g id="a_Node000006"><a xlink:href="structttg_1_1detail_1_1is__user__buffer__serializable_3_01_t_00_01std_1_1enable__if__t_3_01is__m0b1b0fef265c42eba757df512051490f.html" target="_top" xlink:title=" ">
<polygon fill="white" stroke="#666666" points="305,-793 129,-793 129,-708 305,-708 305,-793"/>
<text text-anchor="start" x="137" y="-781" font-family="Times,serif" font-size="10.00">ttg::detail::is_user</text>
<text text-anchor="start" x="137" y="-770" font-family="Times,serif" font-size="10.00">_buffer_serializable</text>
<text text-anchor="start" x="137" y="-759" font-family="Times,serif" font-size="10.00">&lt; T, std::enable_if_t</text>
<text text-anchor="start" x="137" y="-748" font-family="Times,serif" font-size="10.00">&lt; is_madness_user_buffer</text>
<text text-anchor="start" x="137" y="-737" font-family="Times,serif" font-size="10.00">_serializable_v&lt; T &gt;||is</text>
<text text-anchor="start" x="137" y="-726" font-family="Times,serif" font-size="10.00">_boost_user_buffer_serializable</text>
<text text-anchor="middle" x="217" y="-715" font-family="Times,serif" font-size="10.00">_v&lt; T &gt; &gt; &gt;</text>
</a>
</g>
</g>
<!-- Node0&#45;&gt;Node6 -->
<g id="edge139_Node000000_Node000006" class="edge">
<title>Node0&#45;&gt;Node6</title>
<g id="a_edge139_Node000000_Node000006"><a xlink:title=" ">
<path fill="none" stroke="#63b8ff" d="M46.83,-498.17C52.66,-539.67 71.31,-637.36 123,-698.5 125.75,-701.75 128.75,-704.83 131.94,-707.76"/>
<polygon fill="#63b8ff" stroke="#63b8ff" points="50.27,-497.5 45.51,-488.04 43.33,-498.4 50.27,-497.5"/>
</a>
</g>
</g>
<!-- Node7 -->
<g id="Node000007" class="node">
<title>Node7</title>
<g id="a_Node000007"><a xlink:href="structttg_1_1has__split__metadata_3_01_t_00_01ttg_1_1meta_1_1void__t_3_01decltype_07std_1_1declvf56f1c63ccb307bdcba58d9645d83e4a.html" target="_top" xlink:title=" ">
<polygon fill="white" stroke="#666666" points="295.5,-689.5 138.5,-689.5 138.5,-615.5 295.5,-615.5 295.5,-689.5"/>
<text text-anchor="start" x="146.5" y="-677.5" font-family="Times,serif" font-size="10.00">ttg::has_split_metadata</text>
<text text-anchor="start" x="146.5" y="-666.5" font-family="Times,serif" font-size="10.00">&lt; T, ttg::meta::void_t</text>
<text text-anchor="start" x="146.5" y="-655.5" font-family="Times,serif" font-size="10.00">&lt; decltype(std::declval</text>
<text text-anchor="start" x="146.5" y="-644.5" font-family="Times,serif" font-size="10.00">&lt; SplitMetadataDescriptor</text>
<text text-anchor="start" x="146.5" y="-633.5" font-family="Times,serif" font-size="10.00">&lt; T &gt; &gt;().get_metadata(std</text>
<text text-anchor="middle" x="217" y="-622.5" font-family="Times,serif" font-size="10.00">::declval&lt; T &gt;()))&gt; &gt;</text>
</a>
</g>
</g>
<!-- Node0&#45;&gt;Node7 -->
<g id="edge140_Node000000_Node000007" class="edge">
<title>Node0&#45;&gt;Node7</title>
<g id="a_edge140_Node000000_Node000007"><a xlink:title=" ">
<path fill="none" stroke="#63b8ff" d="M52.14,-497.64C63.83,-524.87 88.5,-575 123,-606.5 127.66,-610.75 132.78,-614.7 138.15,-618.35"/>
<polygon fill="#63b8ff" stroke="#63b8ff" points="55.25,-495.99 48.18,-488.1 48.78,-498.68 55.25,-495.99"/>
</a>
</g>
</g>
<!-- Node8 -->
<g id="Node000008" class="node">
<title>Node8</title>
<g id="a_Node000008"><a xlink:href="structttg_1_1meta_1_1has__member__function__hash_3_01_t_00_01std_1_1void__t_3_01decltype_07std_1f4964d2720bb5e0fa5e45d0cbc913910.html" target="_top" xlink:title=" ">
<polygon fill="white" stroke="#666666" points="285.5,-597 148.5,-597 148.5,-534 285.5,-534 285.5,-597"/>
<text text-anchor="start" x="156.5" y="-585" font-family="Times,serif" font-size="10.00">ttg::meta::has_member</text>
<text text-anchor="start" x="156.5" y="-574" font-family="Times,serif" font-size="10.00">_function_hash&lt; T, std</text>
<text text-anchor="start" x="156.5" y="-563" font-family="Times,serif" font-size="10.00">::void_t&lt; decltype(std</text>
<text text-anchor="start" x="156.5" y="-552" font-family="Times,serif" font-size="10.00">::declval&lt; const T &amp; &gt;()</text>
<text text-anchor="middle" x="217" y="-541" font-family="Times,serif" font-size="10.00">.hash())&gt; &gt;</text>
</a>
</g>
</g>
<!-- Node0&#45;&gt;Node8 -->
<g id="edge141_Node000000_Node000008" class="edge">
<title>Node0&#45;&gt;Node8</title>
<g id="a_edge141_Node000000_Node000008"><a xlink:title=" ">
<path fill="none" stroke="#63b8ff" d="M68.38,-493.46C83.74,-502.83 104.25,-514.91 123,-524.5 131.01,-528.6 139.52,-532.69 148.02,-536.61"/>
<polygon fill="#63b8ff" stroke="#63b8ff" points="69.9,-490.29 59.55,-488.02 66.23,-496.24 69.9,-490.29"/>
</a>
</g>
</g>
<!-- Node9 -->
<g id="Node000009" class="node">
<title>Node9</title>
<g id="a_Node000009"><a xlink:href="structttg_1_1meta_1_1has__ttg__hash__specialization_3_01_t_00_01ttg_1_1meta_1_1void__t_3_01declt201ce8145530f4367ef878f3430213de.html" target="_top" xlink:title=" ">
<polygon fill="white" stroke="#666666" points="299,-515.5 135,-515.5 135,-441.5 299,-441.5 299,-515.5"/>
<text text-anchor="start" x="143" y="-503.5" font-family="Times,serif" font-size="10.00">ttg::meta::has_ttg</text>
<text text-anchor="start" x="143" y="-492.5" font-family="Times,serif" font-size="10.00">_hash_specialization</text>
<text text-anchor="start" x="143" y="-481.5" font-family="Times,serif" font-size="10.00">&lt; T, ttg::meta::void</text>
<text text-anchor="start" x="143" y="-470.5" font-family="Times,serif" font-size="10.00">_t&lt; decltype(std::declval</text>
<text text-anchor="start" x="143" y="-459.5" font-family="Times,serif" font-size="10.00">&lt; ttg::hash&lt; T &gt; &gt;()(std</text>
<text text-anchor="middle" x="217" y="-448.5" font-family="Times,serif" font-size="10.00">::declval&lt; const T &amp; &gt;()))&gt; &gt;</text>
</a>
</g>
</g>
<!-- Node0&#45;&gt;Node9 -->
<g id="edge142_Node000000_Node000009" class="edge">
<title>Node0&#45;&gt;Node9</title>
<g id="a_edge142_Node000000_Node000009"><a xlink:title=" ">
<path fill="none" stroke="#63b8ff" d="M97.49,-478.5C109.37,-478.5 122.23,-478.5 134.96,-478.5"/>
<polygon fill="#63b8ff" stroke="#63b8ff" points="97.33,-475 87.33,-478.5 97.33,-482 97.33,-475"/>
</a>
</g>
</g>
<!-- Node10 -->
<g id="Node000010" class="node">
<title>Node10</title>
<g id="a_Node000010"><a xlink:href="structttg_1_1meta_1_1is__buffer_3_01const_01ttg_1_1_buffer_3_01_t_00_01_a_01_4_01_4.html" target="_top" xlink:title=" ">
<polygon fill="white" stroke="#666666" points="276,-423 158,-423 158,-382 276,-382 276,-423"/>
<text text-anchor="start" x="166" y="-411" font-family="Times,serif" font-size="10.00">ttg::meta::is_buffer</text>
<text text-anchor="start" x="166" y="-400" font-family="Times,serif" font-size="10.00">&lt; const ttg::Buffer&lt;</text>
<text text-anchor="middle" x="217" y="-389" font-family="Times,serif" font-size="10.00"> T, A &gt; &gt;</text>
</a>
</g>
</g>
<!-- Node0&#45;&gt;Node10 -->
<g id="edge143_Node000000_Node000010" class="edge">
<title>Node0&#45;&gt;Node10</title>
<g id="a_edge143_Node000000_Node000010"><a xlink:title=" ">
<path fill="none" stroke="#63b8ff" d="M67.5,-463.22C82.78,-453.53 103.54,-441.21 123,-432.5 133.99,-427.58 146.04,-423.08 157.72,-419.14"/>
<polygon fill="#63b8ff" stroke="#63b8ff" points="65.25,-460.5 58.75,-468.86 69.05,-466.39 65.25,-460.5"/>
</a>
</g>
</g>
<!-- Node11 -->
<g id="Node000011" class="node">
<title>Node11</title>
<g id="a_Node000011"><a xlink:href="structttg_1_1meta_1_1is__buffer_3_01ttg_1_1_buffer_3_01_t_00_01_a_01_4_01_4.html" target="_top" xlink:title=" ">
<polygon fill="white" stroke="#666666" points="283,-363.5 151,-363.5 151,-333.5 283,-333.5 283,-363.5"/>
<text text-anchor="start" x="159" y="-351.5" font-family="Times,serif" font-size="10.00">ttg::meta::is_buffer</text>
<text text-anchor="middle" x="217" y="-340.5" font-family="Times,serif" font-size="10.00">&lt; ttg::Buffer&lt; T, A &gt; &gt;</text>
</a>
</g>
</g>
<!-- Node0&#45;&gt;Node11 -->
<g id="edge144_Node000000_Node000011" class="edge">
<title>Node0&#45;&gt;Node11</title>
<g id="a_edge144_Node000000_Node000011"><a xlink:title=" ">
<path fill="none" stroke="#63b8ff" d="M53.39,-459.97C65.7,-436.3 90.2,-395.74 123,-373.5 131.3,-367.87 140.82,-363.51 150.53,-360.13"/>
<polygon fill="#63b8ff" stroke="#63b8ff" points="50.22,-458.47 48.87,-468.98 56.48,-461.61 50.22,-458.47"/>
</a>
</g>
</g>
<!-- Node12 -->
<g id="Node000012" class="node">
<title>Node12</title>
<g id="a_Node000012"><a xlink:href="structttg_1_1meta_1_1is__devicescratch_3_01const_01ttg_1_1devicescratch_3_01_t_01_4_01_4.html" target="_top" xlink:title=" ">
<polygon fill="white" stroke="#666666" points="311,-315.5 123,-315.5 123,-285.5 311,-285.5 311,-315.5"/>
<text text-anchor="start" x="131" y="-303.5" font-family="Times,serif" font-size="10.00">ttg::meta::is_devicescratch</text>
<text text-anchor="middle" x="217" y="-292.5" font-family="Times,serif" font-size="10.00">&lt; const ttg::devicescratch&lt; T &gt; &gt;</text>
</a>
</g>
</g>
<!-- Node0&#45;&gt;Node12 -->
<g id="edge145_Node000000_Node000012" class="edge">
<title>Node0&#45;&gt;Node12</title>
<g id="a_edge145_Node000000_Node000012"><a xlink:title=" ">
<path fill="none" stroke="#63b8ff" d="M48.89,-459.03C57.34,-426.14 79.04,-359.76 123,-324.5 127.29,-321.06 132.02,-318.1 137.01,-315.57"/>
<polygon fill="#63b8ff" stroke="#63b8ff" points="45.47,-458.26 46.52,-468.8 52.28,-459.91 45.47,-458.26"/>
</a>
</g>
</g>
<!-- Node13 -->
<g id="Node000013" class="node">
<title>Node13</title>
<g id="a_Node000013"><a xlink:href="structttg_1_1meta_1_1is__devicescratch_3_01ttg_1_1devicescratch_3_01_t_01_4_01_4.html" target="_top" xlink:title=" ">
<polygon fill="white" stroke="#666666" points="296,-267.5 138,-267.5 138,-237.5 296,-237.5 296,-267.5"/>
<text text-anchor="start" x="146" y="-255.5" font-family="Times,serif" font-size="10.00">ttg::meta::is_devicescratch</text>
<text text-anchor="middle" x="217" y="-244.5" font-family="Times,serif" font-size="10.00">&lt; ttg::devicescratch&lt; T &gt; &gt;</text>
</a>
</g>
</g>
<!-- Node0&#45;&gt;Node13 -->
<g id="edge146_Node000000_Node000013" class="edge">
<title>Node0&#45;&gt;Node13</title>
<g id="a_edge146_Node000000_Node000013"><a xlink:title=" ">
<path fill="none" stroke="#63b8ff" d="M46.32,-458.55C51.12,-417.96 67.84,-325.5 123,-276.5 127.49,-272.51 132.55,-269.17 137.94,-266.38"/>
<polygon fill="#63b8ff" stroke="#63b8ff" points="42.81,-458.44 45.24,-468.75 49.78,-459.17 42.81,-458.44"/>
</a>
</g>
</g>
<!-- Node14 -->
<g id="Node000014" class="node">
<title>Node14</title>
<g id="a_Node000014"><a xlink:href="structttg_1_1meta_1_1is__generic__callable.html" target="_top" xlink:title=" ">
<polygon fill="white" stroke="#666666" points="277,-219 157,-219 157,-178 277,-178 277,-219"/>
<text text-anchor="start" x="165" y="-207" font-family="Times,serif" font-size="10.00">ttg::meta::is_generic</text>
<text text-anchor="start" x="165" y="-196" font-family="Times,serif" font-size="10.00">_callable&lt; Callable,</text>
<text text-anchor="middle" x="217" y="-185" font-family="Times,serif" font-size="10.00"> typename &gt;</text>
</a>
</g>
</g>
<!-- Node0&#45;&gt;Node14 -->
<g id="edge147_Node000000_Node000014" class="edge">
<title>Node0&#45;&gt;Node14</title>
<g id="a_edge147_Node000000_Node000014"><a xlink:title=" ">
<path fill="none" stroke="#63b8ff" d="M44.86,-458.75C46.78,-412.05 58.17,-293.83 123,-228.5 132.2,-219.23 144.28,-212.82 156.67,-208.39"/>
<polygon fill="#63b8ff" stroke="#63b8ff" points="41.36,-458.67 44.55,-468.77 48.35,-458.89 41.36,-458.67"/>
</a>
</g>
</g>
<!-- Node15 -->
<g id="Node000015" class="node">
<title>Node15</title>
<g id="a_Node000015"><a xlink:href="structttg_1_1meta_1_1is__ptr_3_01ttg_1_1_ptr_3_01_t_01_4_01_4.html" target="_top" xlink:title=" ">
<polygon fill="white" stroke="#666666" points="269.5,-159.5 164.5,-159.5 164.5,-129.5 269.5,-129.5 269.5,-159.5"/>
<text text-anchor="start" x="172.5" y="-147.5" font-family="Times,serif" font-size="10.00">ttg::meta::is_ptr&lt;</text>
<text text-anchor="middle" x="217" y="-136.5" font-family="Times,serif" font-size="10.00"> ttg::Ptr&lt; T &gt; &gt;</text>
</a>
</g>
</g>
<!-- Node0&#45;&gt;Node15 -->
<g id="edge148_Node000000_Node000015" class="edge">
<title>Node0&#45;&gt;Node15</title>
<g id="a_edge148_Node000000_Node000015"><a xlink:title=" ">
<path fill="none" stroke="#63b8ff" d="M46.92,-458.64C54.8,-397.14 81.65,-211.43 123,-169.5 133.92,-158.43 149.18,-152.1 164.18,-148.54"/>
<polygon fill="#63b8ff" stroke="#63b8ff" points="43.4,-458.56 45.63,-468.91 50.35,-459.43 43.4,-458.56"/>
</a>
</g>
</g>
<!-- Node16 -->
<g id="Node000016" class="node">
<title>Node16</title>
<g id="a_Node000016"><a xlink:href="structttg_1_1meta_1_1is__typelist_3_01typelist_3_01_ts_8_8_8_01_4_01_4.html" target="_top" xlink:title=" ">
<polygon fill="white" stroke="#666666" points="276.5,-111.5 157.5,-111.5 157.5,-81.5 276.5,-81.5 276.5,-111.5"/>
<text text-anchor="start" x="165.5" y="-99.5" font-family="Times,serif" font-size="10.00">ttg::meta::is_typelist</text>
<text text-anchor="middle" x="217" y="-88.5" font-family="Times,serif" font-size="10.00">&lt; typelist&lt; Ts... &gt; &gt;</text>
</a>
</g>
</g>
<!-- Node0&#45;&gt;Node16 -->
<g id="edge149_Node000000_Node000016" class="edge">
<title>Node0&#45;&gt;Node16</title>
<g id="a_edge149_Node000000_Node000016"><a xlink:title=" ">
<path fill="none" stroke="#63b8ff" d="M46.16,-458.64C52.21,-390.83 75.31,-169.98 123,-120.5 132.14,-111.02 144.5,-105.1 157.21,-101.45"/>
<polygon fill="#63b8ff" stroke="#63b8ff" points="42.65,-458.54 45.28,-468.81 49.63,-459.15 42.65,-458.54"/>
</a>
</g>
</g>
<!-- Node17 -->
<g id="Node000017" class="node">
<title>Node17</title>
<g id="a_Node000017"><a xlink:href="structttg__parsec_1_1detail_1_1is__ttvalue__base_3_01_t_00_01std_1_1is__base__of_3_01_t_t_value_6d3aa991efc6cbb2e8250bf7d4769adb.html" target="_top" xlink:title=" ">
<polygon fill="white" stroke="#666666" points="292.5,-63 141.5,-63 141.5,0 292.5,0 292.5,-63"/>
<text text-anchor="start" x="149.5" y="-51" font-family="Times,serif" font-size="10.00">ttg_parsec::detail</text>
<text text-anchor="start" x="149.5" y="-40" font-family="Times,serif" font-size="10.00">::is_ttvalue_base&lt; T,</text>
<text text-anchor="start" x="149.5" y="-29" font-family="Times,serif" font-size="10.00"> std::is_base_of&lt; TTValue</text>
<text text-anchor="start" x="149.5" y="-18" font-family="Times,serif" font-size="10.00">&lt; std::decay_t&lt; T &gt; &gt;, std</text>
<text text-anchor="middle" x="217" y="-7" font-family="Times,serif" font-size="10.00">::decay_t&lt; T &gt; &gt; &gt;</text>
</a>
</g>
</g>
<!-- Node0&#45;&gt;Node17 -->
<g id="edge150_Node000000_Node000017" class="edge">
<title>Node0&#45;&gt;Node17</title>
<g id="a_edge150_Node000000_Node000017"><a xlink:title=" ">
<path fill="none" stroke="#63b8ff" d="M45.93,-458.68C51.52,-385.82 74.13,-133.77 123,-72.5 128.06,-66.15 134.31,-60.77 141.15,-56.19"/>
<polygon fill="#63b8ff" stroke="#63b8ff" points="42.43,-458.55 45.17,-468.78 49.41,-459.07 42.43,-458.55"/>
</a>
</g>
</g>
</g>
</svg>
