<?xml version="1.0" encoding="UTF-8" standalone="no"?>
<!DOCTYPE svg PUBLIC "-//W3C//DTD SVG 1.1//EN"
 "http://www.w3.org/Graphics/SVG/1.1/DTD/svg11.dtd">
<!-- Generated by graphviz version 2.43.0 (0)
 -->
<!-- Title: Graphical Class Hierarchy Pages: 1 -->
<svg width="314pt" height="124pt"
 viewBox="0.00 0.00 314.00 124.00" xmlns="http://www.w3.org/2000/svg" xmlns:xlink="http://www.w3.org/1999/xlink">
<g id="graph0" class="graph" transform="scale(1 1) rotate(0) translate(4 120)">
<title>Graphical Class Hierarchy</title>
<!-- Node0 -->
<g id="Node000000" class="node">
<title>Node0</title>
<g id="a_Node000000"><a xlink:title=" ">
<polygon fill="#e0e0e0" stroke="#999999" points="127,-116 0,-116 0,-86 127,-86 127,-116"/>
<text text-anchor="start" x="8" y="-104" font-family="Times,serif" font-size="10.00">boost::archive::binary</text>
<text text-anchor="middle" x="63.5" y="-93" font-family="Times,serif" font-size="10.00">_iarchive_impl</text>
</a>
</g>
</g>
<!-- Node1 -->
<g id="Node000001" class="node">
<title>Node1</title>
<g id="a_Node000001"><a xlink:href="classttg_1_1detail_1_1boost__optimized__iarchive.html" target="_top" xlink:title="optimized data&#45;only deserializer for boost_optimized_oarchive">
<polygon fill="white" stroke="#666666" points="306,-114.5 163,-114.5 163,-73.5 306,-73.5 306,-114.5"/>
<text text-anchor="start" x="171" y="-102.5" font-family="Times,serif" font-size="10.00">ttg::detail::boost</text>
<text text-anchor="start" x="171" y="-91.5" font-family="Times,serif" font-size="10.00">_optimized_iarchive</text>
<text text-anchor="middle" x="234.5" y="-80.5" font-family="Times,serif" font-size="10.00">&lt; StreamOrStreambuf &gt;</text>
</a>
</g>
</g>
<!-- Node0&#45;&gt;Node1 -->
<g id="edge3_Node000000_Node000001" class="edge">
<title>Node0&#45;&gt;Node1</title>
<g id="a_edge3_Node000000_Node000001"><a xlink:title=" ">
<path fill="none" stroke="#63b8ff" d="M137.56,-97.97C145.95,-97.63 154.49,-97.27 162.84,-96.93"/>
<polygon fill="#63b8ff" stroke="#63b8ff" points="137.28,-94.48 127.43,-98.39 137.57,-101.48 137.28,-94.48"/>
</a>
</g>
</g>
<!-- Node4 -->
<g id="Node000004" class="node">
<title>Node4</title>
<g id="a_Node000004"><a xlink:title=" ">
<polygon fill="#e0e0e0" stroke="#999999" points="127,-30 0,-30 0,0 127,0 127,-30"/>
<text text-anchor="start" x="8" y="-18" font-family="Times,serif" font-size="10.00">boost::archive::binary</text>
<text text-anchor="middle" x="63.5" y="-7" font-family="Times,serif" font-size="10.00">_oarchive_impl</text>
</a>
</g>
</g>
<!-- Node3 -->
<g id="Node000003" class="node">
<title>Node3</title>
<g id="a_Node000003"><a xlink:href="classttg_1_1detail_1_1boost__optimized__oarchive.html" target="_top" xlink:title="optimized data&#45;only serializer">
<polygon fill="white" stroke="#666666" points="306,-48.5 163,-48.5 163,-7.5 306,-7.5 306,-48.5"/>
<text text-anchor="start" x="171" y="-36.5" font-family="Times,serif" font-size="10.00">ttg::detail::boost</text>
<text text-anchor="start" x="171" y="-25.5" font-family="Times,serif" font-size="10.00">_optimized_oarchive</text>
<text text-anchor="middle" x="234.5" y="-14.5" font-family="Times,serif" font-size="10.00">&lt; StreamOrStreambuf &gt;</text>
</a>
</g>
</g>
<!-- Node4&#45;&gt;Node3 -->
<g id="edge4_Node000004_Node000003" class="edge">
<title>Node4&#45;&gt;Node3</title>
<g id="a_edge4_Node000004_Node000003"><a xlink:title=" ">
<path fill="none" stroke="#63b8ff" d="M137.56,-20.62C145.95,-21.27 154.49,-21.92 162.84,-22.56"/>
<polygon fill="#63b8ff" stroke="#63b8ff" points="137.67,-17.12 127.43,-19.84 137.13,-24.1 137.67,-17.12"/>
</a>
</g>
</g>
<!-- Node2 -->
<g id="Node000002" class="node">
<title>Node2</title>
<g id="a_Node000002"><a xlink:title=" ">
<polygon fill="#e0e0e0" stroke="#999999" points="123.5,-67.5 3.5,-67.5 3.5,-48.5 123.5,-48.5 123.5,-67.5"/>
<text text-anchor="middle" x="63.5" y="-55.5" font-family="Times,serif" font-size="10.00">StreamOrStreambuf</text>
</a>
</g>
</g>
<!-- Node2&#45;&gt;Node1 -->
<g id="edge5_Node000002_Node000001" class="edge">
<title>Node2&#45;&gt;Node1</title>
<g id="a_edge5_Node000002_Node000001"><a xlink:title=" ">
<path fill="none" stroke="#8b1a1a" d="M119.24,-69.66C133.17,-72.63 148.33,-75.86 162.92,-78.97"/>
<polygon fill="#8b1a1a" stroke="#8b1a1a" points="119.85,-66.21 109.35,-67.55 118.4,-73.06 119.85,-66.21"/>
</a>
</g>
</g>
<!-- Node2&#45;&gt;Node3 -->
<g id="edge6_Node000002_Node000003" class="edge">
<title>Node2&#45;&gt;Node3</title>
<g id="a_edge6_Node000002_Node000003"><a xlink:title=" ">
<path fill="none" stroke="#8b1a1a" d="M128.55,-46.63C139.74,-44.64 151.43,-42.57 162.79,-40.55"/>
<polygon fill="#8b1a1a" stroke="#8b1a1a" points="127.67,-43.23 118.44,-48.43 128.9,-50.12 127.67,-43.23"/>
</a>
</g>
</g>
</g>
</svg>
