<?xml version="1.0" encoding="UTF-8" standalone="no"?>
<!DOCTYPE svg PUBLIC "-//W3C//DTD SVG 1.1//EN"
 "http://www.w3.org/Graphics/SVG/1.1/DTD/svg11.dtd">
<!-- Generated by graphviz version 2.43.0 (0)
 -->
<!-- Title: Graphical Class Hierarchy Pages: 1 -->
<svg width="261pt" height="135pt"
 viewBox="0.00 0.00 261.00 135.00" xmlns="http://www.w3.org/2000/svg" xmlns:xlink="http://www.w3.org/1999/xlink">
<g id="graph0" class="graph" transform="scale(1 1) rotate(0) translate(4 131)">
<title>Graphical Class Hierarchy</title>
<!-- Node0 -->
<g id="Node000000" class="node">
<title>Node0</title>
<g id="a_Node000000"><a xlink:title=" ">
<polygon fill="#e0e0e0" stroke="#999999" points="79,-84 0,-84 0,-65 79,-65 79,-84"/>
<text text-anchor="middle" x="39.5" y="-72" font-family="Times,serif" font-size="10.00">std::is_const</text>
</a>
</g>
</g>
<!-- Node1 -->
<g id="Node000001" class="node">
<title>Node1</title>
<g id="a_Node000001"><a xlink:href="structttg_1_1meta_1_1is__const.html" target="_top" xlink:title=" ">
<polygon fill="white" stroke="#666666" points="253,-127 115,-127 115,-108 253,-108 253,-127"/>
<text text-anchor="middle" x="184" y="-115" font-family="Times,serif" font-size="10.00">ttg::meta::is_const&lt; T &gt;</text>
</a>
</g>
</g>
<!-- Node0&#45;&gt;Node1 -->
<g id="edge124_Node000000_Node000001" class="edge">
<title>Node0&#45;&gt;Node1</title>
<g id="a_edge124_Node000000_Node000001"><a xlink:title=" ">
<path fill="none" stroke="#63b8ff" d="M79.19,-87.28C90.68,-90.99 103.32,-94.99 115,-98.5 125.68,-101.71 137.36,-105.04 147.98,-108"/>
<polygon fill="#63b8ff" stroke="#63b8ff" points="80.02,-83.87 69.43,-84.11 77.86,-90.53 80.02,-83.87"/>
</a>
</g>
</g>
<!-- Node2 -->
<g id="Node000002" class="node">
<title>Node2</title>
<g id="a_Node000002"><a xlink:href="structttg_1_1meta_1_1is__const_3_01ttg_1_1_buffer_3_01_t_00_01_a_01_4_01_4.html" target="_top" xlink:title=" ">
<polygon fill="white" stroke="#666666" points="250,-89.5 118,-89.5 118,-59.5 250,-59.5 250,-89.5"/>
<text text-anchor="start" x="126" y="-77.5" font-family="Times,serif" font-size="10.00">ttg::meta::is_const</text>
<text text-anchor="middle" x="184" y="-66.5" font-family="Times,serif" font-size="10.00">&lt; ttg::Buffer&lt; T, A &gt; &gt;</text>
</a>
</g>
</g>
<!-- Node0&#45;&gt;Node2 -->
<g id="edge125_Node000000_Node000002" class="edge">
<title>Node0&#45;&gt;Node2</title>
<g id="a_edge125_Node000000_Node000002"><a xlink:title=" ">
<path fill="none" stroke="#63b8ff" d="M89.18,-74.5C98.39,-74.5 108.15,-74.5 117.77,-74.5"/>
<polygon fill="#63b8ff" stroke="#63b8ff" points="89.06,-71 79.06,-74.5 89.06,-78 89.06,-71"/>
</a>
</g>
</g>
<!-- Node3 -->
<g id="Node000003" class="node">
<title>Node3</title>
<g id="a_Node000003"><a xlink:href="structttg_1_1meta_1_1is__const_3_01ttg_1_1devicescratch_3_01_t_01_4_01_4.html" target="_top" xlink:title=" ">
<polygon fill="white" stroke="#666666" points="243,-41 125,-41 125,0 243,0 243,-41"/>
<text text-anchor="start" x="133" y="-29" font-family="Times,serif" font-size="10.00">ttg::meta::is_const</text>
<text text-anchor="start" x="133" y="-18" font-family="Times,serif" font-size="10.00">&lt; ttg::devicescratch</text>
<text text-anchor="middle" x="184" y="-7" font-family="Times,serif" font-size="10.00">&lt; T &gt; &gt;</text>
</a>
</g>
</g>
<!-- Node0&#45;&gt;Node3 -->
<g id="edge126_Node000000_Node000003" class="edge">
<title>Node0&#45;&gt;Node3</title>
<g id="a_edge126_Node000000_Node000003"><a xlink:title=" ">
<path fill="none" stroke="#63b8ff" d="M75.2,-61.35C91.33,-55.24 110.88,-47.83 128.88,-41.01"/>
<polygon fill="#63b8ff" stroke="#63b8ff" points="73.76,-58.15 65.65,-64.97 76.24,-64.7 73.76,-58.15"/>
</a>
</g>
</g>
</g>
</svg>
