<?xml version="1.0" encoding="UTF-8" standalone="no"?>
<!DOCTYPE svg PUBLIC "-//W3C//DTD SVG 1.1//EN"
 "http://www.w3.org/Graphics/SVG/1.1/DTD/svg11.dtd">
<!-- Generated by graphviz version 2.43.0 (0)
 -->
<!-- Title: Graphical Class Hierarchy Pages: 1 -->
<svg width="309pt" height="134pt"
 viewBox="0.00 0.00 309.00 134.00" xmlns="http://www.w3.org/2000/svg" xmlns:xlink="http://www.w3.org/1999/xlink">
<g id="graph0" class="graph" transform="scale(1 1) rotate(0) translate(4 130)">
<title>Graphical Class Hierarchy</title>
<!-- Node0 -->
<g id="Node000000" class="node">
<title>Node0</title>
<g id="a_Node000000"><a xlink:href="structboost_1_1callable__traits_1_1detail_1_1default__callable__traits.html" target="_top" xlink:title=" ">
<polygon fill="white" stroke="#666666" points="137,-83.5 0,-83.5 0,-42.5 137,-42.5 137,-83.5"/>
<text text-anchor="start" x="8" y="-71.5" font-family="Times,serif" font-size="10.00">boost::callable_traits</text>
<text text-anchor="start" x="8" y="-60.5" font-family="Times,serif" font-size="10.00">::detail::default_callable</text>
<text text-anchor="middle" x="68.5" y="-49.5" font-family="Times,serif" font-size="10.00">_traits&lt; T &gt;</text>
</a>
</g>
</g>
<!-- Node1 -->
<g id="Node000001" class="node">
<title>Node1</title>
<g id="a_Node000001"><a xlink:href="structboost_1_1callable__traits_1_1detail_1_1function.html" target="_top" xlink:title=" ">
<polygon fill="white" stroke="#666666" points="301,-126 173,-126 173,-96 301,-96 301,-126"/>
<text text-anchor="start" x="181" y="-114" font-family="Times,serif" font-size="10.00">boost::callable_traits</text>
<text text-anchor="middle" x="237" y="-103" font-family="Times,serif" font-size="10.00">::detail::function&lt; T &gt;</text>
</a>
</g>
</g>
<!-- Node0&#45;&gt;Node1 -->
<g id="edge17_Node000000_Node000001" class="edge">
<title>Node0&#45;&gt;Node1</title>
<g id="a_edge17_Node000000_Node000001"><a xlink:title=" ">
<path fill="none" stroke="#63b8ff" d="M147.16,-85.39C159.62,-88.98 172.25,-92.62 183.92,-95.99"/>
<polygon fill="#63b8ff" stroke="#63b8ff" points="147.8,-81.93 137.22,-82.52 145.86,-88.66 147.8,-81.93"/>
</a>
</g>
</g>
<!-- Node2 -->
<g id="Node000002" class="node">
<title>Node2</title>
<g id="a_Node000002"><a xlink:href="structboost_1_1callable__traits_1_1detail_1_1pmd.html" target="_top" xlink:title=" ">
<polygon fill="white" stroke="#666666" points="297.5,-78 176.5,-78 176.5,-48 297.5,-48 297.5,-78"/>
<text text-anchor="start" x="184.5" y="-66" font-family="Times,serif" font-size="10.00">boost::callable_traits</text>
<text text-anchor="middle" x="237" y="-55" font-family="Times,serif" font-size="10.00">::detail::pmd&lt; T &gt;</text>
</a>
</g>
</g>
<!-- Node0&#45;&gt;Node2 -->
<g id="edge18_Node000000_Node000002" class="edge">
<title>Node0&#45;&gt;Node2</title>
<g id="a_edge18_Node000000_Node000002"><a xlink:title=" ">
<path fill="none" stroke="#63b8ff" d="M147.33,-63C157.09,-63 166.94,-63 176.36,-63"/>
<polygon fill="#63b8ff" stroke="#63b8ff" points="147.22,-59.5 137.22,-63 147.22,-66.5 147.22,-59.5"/>
</a>
</g>
</g>
<!-- Node3 -->
<g id="Node000003" class="node">
<title>Node3</title>
<g id="a_Node000003"><a xlink:href="structboost_1_1callable__traits_1_1detail_1_1pmf.html" target="_top" xlink:title=" ">
<polygon fill="white" stroke="#666666" points="297.5,-30 176.5,-30 176.5,0 297.5,0 297.5,-30"/>
<text text-anchor="start" x="184.5" y="-18" font-family="Times,serif" font-size="10.00">boost::callable_traits</text>
<text text-anchor="middle" x="237" y="-7" font-family="Times,serif" font-size="10.00">::detail::pmf&lt; T &gt;</text>
</a>
</g>
</g>
<!-- Node0&#45;&gt;Node3 -->
<g id="edge19_Node000000_Node000003" class="edge">
<title>Node0&#45;&gt;Node3</title>
<g id="a_edge19_Node000000_Node000003"><a xlink:title=" ">
<path fill="none" stroke="#63b8ff" d="M147.16,-40.61C159.62,-37.02 172.25,-33.38 183.92,-30.01"/>
<polygon fill="#63b8ff" stroke="#63b8ff" points="145.86,-37.34 137.22,-43.48 147.8,-44.07 145.86,-37.34"/>
</a>
</g>
</g>
</g>
</svg>
