<?xml version="1.0" encoding="UTF-8" standalone="no"?>
<!DOCTYPE svg PUBLIC "-//W3C//DTD SVG 1.1//EN"
 "http://www.w3.org/Graphics/SVG/1.1/DTD/svg11.dtd">
<!-- Generated by graphviz version 2.43.0 (0)
 -->
<!-- Title: Graphical Class Hierarchy Pages: 1 -->
<svg width="440pt" height="521pt"
 viewBox="0.00 0.00 440.00 521.00" xmlns="http://www.w3.org/2000/svg" xmlns:xlink="http://www.w3.org/1999/xlink">
<g id="graph0" class="graph" transform="scale(1 1) rotate(0) translate(4 517)">
<title>Graphical Class Hierarchy</title>
<!-- Node0 -->
<g id="Node000000" class="node">
<title>Node0</title>
<g id="a_Node000000"><a xlink:title=" ">
<polygon fill="#e0e0e0" stroke="#999999" points="128,-265.5 0,-265.5 0,-246.5 128,-246.5 128,-265.5"/>
<text text-anchor="middle" x="64" y="-253.5" font-family="Times,serif" font-size="10.00">default_callable_traits</text>
</a>
</g>
</g>
<!-- Node1 -->
<g id="Node000001" class="node">
<title>Node1</title>
<g id="a_Node000001"><a xlink:href="structfunction_3_01_b_o_o_s_t___c_l_b_l___t_r_t_s___s_t_01_return_07_b_o_o_s_t___c_l_b_l___t_r_tfa0f2bde06c215e8b279a5d59902e039.html" target="_top" xlink:title=" ">
<polygon fill="white" stroke="#666666" points="403,-513 193,-513 193,-439 403,-439 403,-513"/>
<text text-anchor="start" x="201" y="-501" font-family="Times,serif" font-size="10.00">function&lt; BOOST_CLBL</text>
<text text-anchor="start" x="201" y="-490" font-family="Times,serif" font-size="10.00">_TRTS_ST Return(BOOST</text>
<text text-anchor="start" x="201" y="-479" font-family="Times,serif" font-size="10.00">_CLBL_TRTS_CC *)(Args...)</text>
<text text-anchor="start" x="201" y="-468" font-family="Times,serif" font-size="10.00"> BOOST_CLBL_TRTS_INCLUDE</text>
<text text-anchor="start" x="201" y="-457" font-family="Times,serif" font-size="10.00">_TRANSACTION_SAFE BOOST_CLBL</text>
<text text-anchor="middle" x="298" y="-446" font-family="Times,serif" font-size="10.00">_TRTS_NOEXCEPT_SPEC &gt;</text>
</a>
</g>
</g>
<!-- Node0&#45;&gt;Node1 -->
<g id="edge36_Node000000_Node000001" class="edge">
<title>Node0&#45;&gt;Node1</title>
<g id="a_edge36_Node000000_Node000001"><a xlink:title=" ">
<path fill="none" stroke="#63b8ff" d="M70.99,-275.63C82.89,-311.43 112.88,-387.53 164,-430 172.64,-437.18 182.48,-443.27 192.79,-448.42"/>
<polygon fill="#63b8ff" stroke="#63b8ff" points="74.26,-274.35 67.87,-265.9 67.59,-276.49 74.26,-274.35"/>
</a>
</g>
</g>
<!-- Node2 -->
<g id="Node000002" class="node">
<title>Node2</title>
<g id="a_Node000002"><a xlink:href="structfunction_3_01_b_o_o_s_t___c_l_b_l___t_r_t_s___s_t_01_return_07_b_o_o_s_t___c_l_b_l___t_r_t69354928696edfd1a845c0b5fed36de2.html" target="_top" xlink:title=" ">
<polygon fill="white" stroke="#666666" points="432,-421 164,-421 164,-347 432,-347 432,-421"/>
<text text-anchor="start" x="172" y="-409" font-family="Times,serif" font-size="10.00">function&lt; BOOST_CLBL</text>
<text text-anchor="start" x="172" y="-398" font-family="Times,serif" font-size="10.00">_TRTS_ST Return(BOOST</text>
<text text-anchor="start" x="172" y="-387" font-family="Times,serif" font-size="10.00">_CLBL_TRTS_VARARGS_CC</text>
<text text-anchor="start" x="172" y="-376" font-family="Times,serif" font-size="10.00"> *)(Args...,...) BOOST</text>
<text text-anchor="start" x="172" y="-365" font-family="Times,serif" font-size="10.00">_CLBL_TRTS_INCLUDE_TRANSACTION</text>
<text text-anchor="middle" x="298" y="-354" font-family="Times,serif" font-size="10.00">_SAFE BOOST_CLBL_TRTS_NOEXCEPT_SPEC &gt;</text>
</a>
</g>
</g>
<!-- Node0&#45;&gt;Node2 -->
<g id="edge37_Node000000_Node000002" class="edge">
<title>Node0&#45;&gt;Node2</title>
<g id="a_edge37_Node000000_Node000002"><a xlink:title=" ">
<path fill="none" stroke="#63b8ff" d="M81.34,-272.75C99.91,-290.97 131.83,-319.91 164,-338 169.54,-341.11 175.32,-344.07 181.24,-346.87"/>
<polygon fill="#63b8ff" stroke="#63b8ff" points="83.79,-270.25 74.24,-265.66 78.84,-275.2 83.79,-270.25"/>
</a>
</g>
</g>
<!-- Node3 -->
<g id="Node000003" class="node">
<title>Node3</title>
<g id="a_Node000003"><a xlink:href="structfunction_3_01_return_07_args_8_8_8_08_01_b_o_o_s_t___c_l_b_l___t_r_t_s___i_n_c_l_u_d_e___q11352dae41c00b7ccc8c78763a6b4958.html" target="_top" xlink:title=" ">
<polygon fill="white" stroke="#666666" points="414,-328.5 182,-328.5 182,-265.5 414,-265.5 414,-328.5"/>
<text text-anchor="start" x="190" y="-316.5" font-family="Times,serif" font-size="10.00">function&lt; Return(Args...)</text>
<text text-anchor="start" x="190" y="-305.5" font-family="Times,serif" font-size="10.00"> BOOST_CLBL_TRTS_INCLUDE</text>
<text text-anchor="start" x="190" y="-294.5" font-family="Times,serif" font-size="10.00">_QUALIFIERS BOOST_CLBL_TRTS</text>
<text text-anchor="start" x="190" y="-283.5" font-family="Times,serif" font-size="10.00">_INCLUDE_TRANSACTION_SAFE BOOST</text>
<text text-anchor="middle" x="298" y="-272.5" font-family="Times,serif" font-size="10.00">_CLBL_TRTS_NOEXCEPT_SPEC &gt;</text>
</a>
</g>
</g>
<!-- Node0&#45;&gt;Node3 -->
<g id="edge38_Node000000_Node000003" class="edge">
<title>Node0&#45;&gt;Node3</title>
<g id="a_edge38_Node000000_Node000003"><a xlink:title=" ">
<path fill="none" stroke="#63b8ff" d="M128.8,-267.28C145.24,-270.18 163.45,-273.4 181.64,-276.61"/>
<polygon fill="#63b8ff" stroke="#63b8ff" points="129.27,-263.8 118.81,-265.51 128.05,-270.7 129.27,-263.8"/>
</a>
</g>
</g>
<!-- Node4 -->
<g id="Node000004" class="node">
<title>Node4</title>
<g id="a_Node000004"><a xlink:href="structfunction_3_01_return_07_args_8_8_8_00_8_8_8_08_01_b_o_o_s_t___c_l_b_l___t_r_t_s___i_n_c_l_1c6229b724c94722af6b6c9dcabc07a1.html" target="_top" xlink:title=" ">
<polygon fill="white" stroke="#666666" points="414,-247.5 182,-247.5 182,-184.5 414,-184.5 414,-247.5"/>
<text text-anchor="start" x="190" y="-235.5" font-family="Times,serif" font-size="10.00">function&lt; Return(Args...,</text>
<text text-anchor="start" x="190" y="-224.5" font-family="Times,serif" font-size="10.00">...) BOOST_CLBL_TRTS_INCLUDE</text>
<text text-anchor="start" x="190" y="-213.5" font-family="Times,serif" font-size="10.00">_QUALIFIERS BOOST_CLBL_TRTS</text>
<text text-anchor="start" x="190" y="-202.5" font-family="Times,serif" font-size="10.00">_INCLUDE_TRANSACTION_SAFE BOOST</text>
<text text-anchor="middle" x="298" y="-191.5" font-family="Times,serif" font-size="10.00">_CLBL_TRTS_NOEXCEPT_SPEC &gt;</text>
</a>
</g>
</g>
<!-- Node0&#45;&gt;Node4 -->
<g id="edge39_Node000000_Node000004" class="edge">
<title>Node0&#45;&gt;Node4</title>
<g id="a_edge39_Node000000_Node000004"><a xlink:title=" ">
<path fill="none" stroke="#63b8ff" d="M130.58,-244.69C146.64,-241.92 164.31,-238.88 181.94,-235.84"/>
<polygon fill="#63b8ff" stroke="#63b8ff" points="129.53,-241.32 120.28,-246.47 130.72,-248.22 129.53,-241.32"/>
</a>
</g>
</g>
<!-- Node5 -->
<g id="Node000005" class="node">
<title>Node5</title>
<g id="a_Node000005"><a xlink:href="structpmf_3_01_return_07_b_o_o_s_t___c_l_b_l___t_r_t_s___c_c_01_t_1_1_5_08_07_args_8_8_8_08_01_b71b6d99e77689be47e355e95a9447b0d.html" target="_top" xlink:title=" ">
<polygon fill="white" stroke="#666666" points="414,-166 182,-166 182,-92 414,-92 414,-166"/>
<text text-anchor="start" x="190" y="-154" font-family="Times,serif" font-size="10.00">pmf&lt; Return(BOOST_CLBL</text>
<text text-anchor="start" x="190" y="-143" font-family="Times,serif" font-size="10.00">_TRTS_CC T::*)(Args...)</text>
<text text-anchor="start" x="190" y="-132" font-family="Times,serif" font-size="10.00"> BOOST_CLBL_TRTS_INCLUDE</text>
<text text-anchor="start" x="190" y="-121" font-family="Times,serif" font-size="10.00">_QUALIFIERS BOOST_CLBL_TRTS</text>
<text text-anchor="start" x="190" y="-110" font-family="Times,serif" font-size="10.00">_INCLUDE_TRANSACTION_SAFE BOOST</text>
<text text-anchor="middle" x="298" y="-99" font-family="Times,serif" font-size="10.00">_CLBL_TRTS_NOEXCEPT_SPEC &gt;</text>
</a>
</g>
</g>
<!-- Node0&#45;&gt;Node5 -->
<g id="edge40_Node000000_Node000005" class="edge">
<title>Node0&#45;&gt;Node5</title>
<g id="a_edge40_Node000000_Node000005"><a xlink:title=" ">
<path fill="none" stroke="#63b8ff" d="M81.99,-239.2C100.72,-221.46 132.41,-193.66 164,-176 170.2,-172.54 176.7,-169.25 183.36,-166.15"/>
<polygon fill="#63b8ff" stroke="#63b8ff" points="79.34,-236.9 74.57,-246.36 84.2,-241.94 79.34,-236.9"/>
</a>
</g>
</g>
<!-- Node6 -->
<g id="Node000006" class="node">
<title>Node6</title>
<g id="a_Node000006"><a xlink:href="structpmf_3_01_return_07_b_o_o_s_t___c_l_b_l___t_r_t_s___v_a_r_a_r_g_s___c_c_01_t_1_1_5_08_07_ar464c9119384a36ebad34ca263de89271.html" target="_top" xlink:title=" ">
<polygon fill="white" stroke="#666666" points="432,-74 164,-74 164,0 432,0 432,-74"/>
<text text-anchor="start" x="172" y="-62" font-family="Times,serif" font-size="10.00">pmf&lt; Return(BOOST_CLBL</text>
<text text-anchor="start" x="172" y="-51" font-family="Times,serif" font-size="10.00">_TRTS_VARARGS_CC T::*)</text>
<text text-anchor="start" x="172" y="-40" font-family="Times,serif" font-size="10.00">(Args...,...) BOOST_CLBL</text>
<text text-anchor="start" x="172" y="-29" font-family="Times,serif" font-size="10.00">_TRTS_INCLUDE_QUALIFIERS</text>
<text text-anchor="start" x="172" y="-18" font-family="Times,serif" font-size="10.00"> BOOST_CLBL_TRTS_INCLUDE_TRANSACTION</text>
<text text-anchor="middle" x="298" y="-7" font-family="Times,serif" font-size="10.00">_SAFE BOOST_CLBL_TRTS_NOEXCEPT_SPEC &gt;</text>
</a>
</g>
</g>
<!-- Node0&#45;&gt;Node6 -->
<g id="edge41_Node000000_Node000006" class="edge">
<title>Node0&#45;&gt;Node6</title>
<g id="a_edge41_Node000000_Node000006"><a xlink:title=" ">
<path fill="none" stroke="#63b8ff" d="M71.02,-236.48C82.98,-200.89 113.05,-125.22 164,-83 167.86,-79.8 171.95,-76.83 176.21,-74.05"/>
<polygon fill="#63b8ff" stroke="#63b8ff" points="67.64,-235.57 67.89,-246.16 74.3,-237.73 67.64,-235.57"/>
</a>
</g>
</g>
</g>
</svg>
