<?xml version="1.0" encoding="UTF-8" standalone="no"?>
<!DOCTYPE svg PUBLIC "-//W3C//DTD SVG 1.1//EN"
 "http://www.w3.org/Graphics/SVG/1.1/DTD/svg11.dtd">
<!-- Generated by graphviz version 2.43.0 (0)
 -->
<!-- Title: ttg/ttg/util/iovec.h Pages: 1 -->
<svg width="319pt" height="214pt"
 viewBox="0.00 0.00 319.00 214.00" xmlns="http://www.w3.org/2000/svg" xmlns:xlink="http://www.w3.org/1999/xlink">
<g id="graph0" class="graph" transform="scale(1 1) rotate(0) translate(4 210)">
<title>ttg/ttg/util/iovec.h</title>
<!-- Node1 -->
<g id="Node000001" class="node">
<title>Node1</title>
<g id="a_Node000001"><a xlink:title=" ">
<polygon fill="#999999" stroke="#666666" points="209.5,-206 102.5,-206 102.5,-187 209.5,-187 209.5,-206"/>
<text text-anchor="middle" x="156" y="-194" font-family="Times,serif" font-size="10.00">ttg/ttg/util/iovec.h</text>
</a>
</g>
</g>
<!-- Node2 -->
<g id="Node000002" class="node">
<title>Node2</title>
<g id="a_Node000002"><a xlink:href="parsec_2buffer_8h.html" target="_top" xlink:title=" ">
<polygon fill="white" stroke="#666666" points="141,-145.5 13,-145.5 13,-126.5 141,-126.5 141,-145.5"/>
<text text-anchor="middle" x="77" y="-133.5" font-family="Times,serif" font-size="10.00">ttg/ttg/parsec/buffer.h</text>
</a>
</g>
</g>
<!-- Node1&#45;&gt;Node2 -->
<g id="edge1_Node000001_Node000002" class="edge">
<title>Node1&#45;&gt;Node2</title>
<g id="a_edge1_Node000001_Node000002"><a xlink:title=" ">
<path fill="none" stroke="#63b8ff" d="M136.21,-180.85C121.25,-169.77 101.21,-154.93 88.7,-145.67"/>
<polygon fill="#63b8ff" stroke="#63b8ff" points="134.22,-183.73 144.34,-186.87 138.39,-178.1 134.22,-183.73"/>
</a>
</g>
</g>
<!-- Node5 -->
<g id="Node000005" class="node">
<title>Node5</title>
<g id="a_Node000005"><a xlink:href="splitmd__data__descriptor_8h.html" target="_top" xlink:title=" ">
<polygon fill="white" stroke="#666666" points="311,-151 159,-151 159,-121 311,-121 311,-151"/>
<text text-anchor="start" x="167" y="-139" font-family="Times,serif" font-size="10.00">ttg/ttg/serialization</text>
<text text-anchor="middle" x="235" y="-128" font-family="Times,serif" font-size="10.00">/splitmd_data_descriptor.h</text>
</a>
</g>
</g>
<!-- Node1&#45;&gt;Node5 -->
<g id="edge5_Node000001_Node000005" class="edge">
<title>Node1&#45;&gt;Node5</title>
<g id="a_edge5_Node000001_Node000005"><a xlink:title=" ">
<path fill="none" stroke="#63b8ff" d="M175.9,-180.77C188.17,-171.68 203.82,-160.09 215.94,-151.11"/>
<polygon fill="#63b8ff" stroke="#63b8ff" points="173.61,-178.1 167.66,-186.87 177.78,-183.73 173.61,-178.1"/>
</a>
</g>
</g>
<!-- Node3 -->
<g id="Node000003" class="node">
<title>Node3</title>
<g id="a_Node000003"><a xlink:href="parsec__data_8h.html" target="_top" xlink:title=" ">
<polygon fill="white" stroke="#666666" points="122,-85 0,-85 0,-55 122,-55 122,-85"/>
<text text-anchor="start" x="8" y="-73" font-family="Times,serif" font-size="10.00">ttg/ttg/parsec/parsec</text>
<text text-anchor="middle" x="61" y="-62" font-family="Times,serif" font-size="10.00">_data.h</text>
</a>
</g>
</g>
<!-- Node2&#45;&gt;Node3 -->
<g id="edge2_Node000002_Node000003" class="edge">
<title>Node2&#45;&gt;Node3</title>
<g id="a_edge2_Node000002_Node000003"><a xlink:title=" ">
<path fill="none" stroke="#63b8ff" d="M72.34,-116.35C69.87,-106.47 66.88,-94.51 64.59,-85.36"/>
<polygon fill="#63b8ff" stroke="#63b8ff" points="69.02,-117.52 74.84,-126.37 75.81,-115.82 69.02,-117.52"/>
</a>
</g>
</g>
<!-- Node4 -->
<g id="Node000004" class="node">
<title>Node4</title>
<g id="a_Node000004"><a xlink:href="ttg_2parsec_2ttg_8h.html" target="_top" xlink:title=" ">
<polygon fill="white" stroke="#666666" points="206,-19 94,-19 94,0 206,0 206,-19"/>
<text text-anchor="middle" x="150" y="-7" font-family="Times,serif" font-size="10.00">ttg/ttg/parsec/ttg.h</text>
</a>
</g>
</g>
<!-- Node2&#45;&gt;Node4 -->
<g id="edge4_Node000002_Node000004" class="edge">
<title>Node2&#45;&gt;Node4</title>
<g id="a_edge4_Node000002_Node000004"><a xlink:title=" ">
<path fill="none" stroke="#63b8ff" d="M98.29,-120.1C109.58,-111.14 122.77,-98.82 131,-85 143.7,-63.66 147.97,-34 149.36,-19.38"/>
<polygon fill="#63b8ff" stroke="#63b8ff" points="96.01,-117.43 90.14,-126.25 100.23,-123.02 96.01,-117.43"/>
</a>
</g>
</g>
<!-- Node3&#45;&gt;Node4 -->
<g id="edge3_Node000003_Node000004" class="edge">
<title>Node3&#45;&gt;Node4</title>
<g id="a_edge3_Node000003_Node000004"><a xlink:title=" ">
<path fill="none" stroke="#63b8ff" d="M91.33,-49.06C106.87,-38.85 124.98,-26.95 136.92,-19.09"/>
<polygon fill="#63b8ff" stroke="#63b8ff" points="88.98,-46.42 82.54,-54.84 92.82,-52.27 88.98,-46.42"/>
</a>
</g>
</g>
<!-- Node6 -->
<g id="Node000006" class="node">
<title>Node6</title>
<g id="a_Node000006"><a xlink:href="data__descriptor_8h.html" target="_top" xlink:title=" ">
<polygon fill="white" stroke="#666666" points="291.5,-85 178.5,-85 178.5,-55 291.5,-55 291.5,-85"/>
<text text-anchor="start" x="186.5" y="-73" font-family="Times,serif" font-size="10.00">ttg/ttg/serialization</text>
<text text-anchor="middle" x="235" y="-62" font-family="Times,serif" font-size="10.00">/data_descriptor.h</text>
</a>
</g>
</g>
<!-- Node5&#45;&gt;Node6 -->
<g id="edge6_Node000005_Node000006" class="edge">
<title>Node5&#45;&gt;Node6</title>
<g id="a_edge6_Node000005_Node000006"><a xlink:title=" ">
<path fill="none" stroke="#63b8ff" d="M235,-110.54C235,-101.96 235,-92.61 235,-85.16"/>
<polygon fill="#63b8ff" stroke="#63b8ff" points="231.5,-110.8 235,-120.8 238.5,-110.8 231.5,-110.8"/>
</a>
</g>
</g>
<!-- Node6&#45;&gt;Node4 -->
<g id="edge7_Node000006_Node000004" class="edge">
<title>Node6&#45;&gt;Node4</title>
<g id="a_edge7_Node000006_Node000004"><a xlink:title=" ">
<path fill="none" stroke="#63b8ff" d="M206.09,-49.1C191.34,-38.95 174.16,-27.13 162.74,-19.27"/>
<polygon fill="#63b8ff" stroke="#63b8ff" points="204.2,-52.05 214.42,-54.84 208.17,-46.29 204.2,-52.05"/>
</a>
</g>
</g>
</g>
</svg>
