<?xml version="1.0" encoding="UTF-8" standalone="no"?>
<!DOCTYPE svg PUBLIC "-//W3C//DTD SVG 1.1//EN"
 "http://www.w3.org/Graphics/SVG/1.1/DTD/svg11.dtd">
<!-- Generated by graphviz version 2.43.0 (0)
 -->
<!-- Title: ttg/ttg/external/boost/callable_traits/detail/is_invocable_impl.hpp Pages: 1 -->
<svg width="673pt" height="335pt"
 viewBox="0.00 0.00 672.50 335.00" xmlns="http://www.w3.org/2000/svg" xmlns:xlink="http://www.w3.org/1999/xlink">
<g id="graph0" class="graph" transform="scale(1 1) rotate(0) translate(4 331)">
<title>ttg/ttg/external/boost/callable_traits/detail/is_invocable_impl.hpp</title>
<!-- Node1 -->
<g id="Node000001" class="node">
<title>Node1</title>
<g id="a_Node000001"><a xlink:title=" ">
<polygon fill="#999999" stroke="#666666" points="254,-327 121,-327 121,-286 254,-286 254,-327"/>
<text text-anchor="start" x="129" y="-315" font-family="Times,serif" font-size="10.00">ttg/ttg/external/boost</text>
<text text-anchor="start" x="129" y="-304" font-family="Times,serif" font-size="10.00">/callable_traits/detail</text>
<text text-anchor="middle" x="187.5" y="-293" font-family="Times,serif" font-size="10.00">/is_invocable_impl.hpp</text>
</a>
</g>
</g>
<!-- Node2 -->
<g id="Node000002" class="node">
<title>Node2</title>
<g id="a_Node000002"><a xlink:href="config_8hpp.html" target="_top" xlink:title=" ">
<polygon fill="white" stroke="#666666" points="347.5,-107 229.5,-107 229.5,-77 347.5,-77 347.5,-107"/>
<text text-anchor="start" x="237.5" y="-95" font-family="Times,serif" font-size="10.00">boost/callable_traits</text>
<text text-anchor="middle" x="288.5" y="-84" font-family="Times,serif" font-size="10.00">/detail/config.hpp</text>
</a>
</g>
</g>
<!-- Node1&#45;&gt;Node2 -->
<g id="edge1_Node000001_Node000002" class="edge">
<title>Node1&#45;&gt;Node2</title>
<g id="a_edge1_Node000001_Node000002"><a xlink:title=" ">
<path fill="none" stroke="#63b8ff" d="M128.63,-285.87C112.46,-277.46 96.82,-265.83 87.5,-250 71.24,-222.39 96.76,-154.79 108.5,-143 137.36,-114 181.48,-101.44 218.82,-96.16"/>
<polygon fill="#63b8ff" stroke="#63b8ff" points="219.67,-99.58 229.15,-94.86 218.79,-92.64 219.67,-99.58"/>
</a>
</g>
</g>
<!-- Node3 -->
<g id="Node000003" class="node">
<title>Node3</title>
<g id="a_Node000003"><a xlink:title=" ">
<polygon fill="#e0e0e0" stroke="#999999" points="71,-30 0,-30 0,-11 71,-11 71,-30"/>
<text text-anchor="middle" x="35.5" y="-18" font-family="Times,serif" font-size="10.00">type_traits</text>
</a>
</g>
</g>
<!-- Node1&#45;&gt;Node3 -->
<g id="edge17_Node000001_Node000003" class="edge">
<title>Node1&#45;&gt;Node3</title>
<g id="a_edge17_Node000001_Node000003"><a xlink:title=" ">
<path fill="none" stroke="#63b8ff" d="M125.6,-285.88C107.96,-277.45 90.34,-265.81 78.5,-250 30.05,-185.33 31.08,-82.08 33.83,-40.13"/>
<polygon fill="#63b8ff" stroke="#63b8ff" points="37.33,-40.25 34.61,-30.01 30.35,-39.71 37.33,-40.25"/>
</a>
</g>
</g>
<!-- Node5 -->
<g id="Node000005" class="node">
<title>Node5</title>
<g id="a_Node000005"><a xlink:title=" ">
<polygon fill="#e0e0e0" stroke="#999999" points="664.5,-30 618.5,-30 618.5,-11 664.5,-11 664.5,-30"/>
<text text-anchor="middle" x="641.5" y="-18" font-family="Times,serif" font-size="10.00">utility</text>
</a>
</g>
</g>
<!-- Node1&#45;&gt;Node5 -->
<g id="edge18_Node000001_Node000005" class="edge">
<title>Node1&#45;&gt;Node5</title>
<g id="a_edge18_Node000001_Node000005"><a xlink:title=" ">
<path fill="none" stroke="#63b8ff" d="M254.04,-297.22C366.61,-281.7 586.86,-244.25 632.5,-184 664.86,-141.29 654.21,-72.68 646.52,-39.99"/>
<polygon fill="#63b8ff" stroke="#63b8ff" points="649.85,-38.86 644,-30.02 643.06,-40.57 649.85,-38.86"/>
</a>
</g>
</g>
<!-- Node9 -->
<g id="Node000009" class="node">
<title>Node9</title>
<g id="a_Node000009"><a xlink:href="forward__declarations_8hpp.html" target="_top" xlink:title=" ">
<polygon fill="white" stroke="#666666" points="278.5,-250 96.5,-250 96.5,-220 278.5,-220 278.5,-250"/>
<text text-anchor="start" x="104.5" y="-238" font-family="Times,serif" font-size="10.00">boost/callable_traits</text>
<text text-anchor="middle" x="187.5" y="-227" font-family="Times,serif" font-size="10.00">/detail/forward_declarations.hpp</text>
</a>
</g>
</g>
<!-- Node1&#45;&gt;Node9 -->
<g id="edge8_Node000001_Node000009" class="edge">
<title>Node1&#45;&gt;Node9</title>
<g id="a_edge8_Node000001_Node000009"><a xlink:title=" ">
<path fill="none" stroke="#63b8ff" d="M187.5,-285.77C187.5,-277.85 187.5,-268.63 187.5,-260.3"/>
<polygon fill="#63b8ff" stroke="#63b8ff" points="191,-260.04 187.5,-250.04 184,-260.04 191,-260.04"/>
</a>
</g>
</g>
<!-- Node11 -->
<g id="Node000011" class="node">
<title>Node11</title>
<g id="a_Node000011"><a xlink:href="utility_8hpp.html" target="_top" xlink:title=" ">
<polygon fill="white" stroke="#666666" points="430.5,-250 312.5,-250 312.5,-220 430.5,-220 430.5,-250"/>
<text text-anchor="start" x="320.5" y="-238" font-family="Times,serif" font-size="10.00">boost/callable_traits</text>
<text text-anchor="middle" x="371.5" y="-227" font-family="Times,serif" font-size="10.00">/detail/utility.hpp</text>
</a>
</g>
</g>
<!-- Node1&#45;&gt;Node11 -->
<g id="edge11_Node000001_Node000011" class="edge">
<title>Node1&#45;&gt;Node11</title>
<g id="a_edge11_Node000001_Node000011"><a xlink:title=" ">
<path fill="none" stroke="#63b8ff" d="M239.24,-285.96C266.11,-275.81 298.67,-263.51 324.77,-253.65"/>
<polygon fill="#63b8ff" stroke="#63b8ff" points="326.31,-256.81 334.42,-250 323.83,-250.26 326.31,-256.81"/>
</a>
</g>
</g>
<!-- Node2&#45;&gt;Node3 -->
<g id="edge2_Node000002_Node000003" class="edge">
<title>Node2&#45;&gt;Node3</title>
<g id="a_edge2_Node000002_Node000003"><a xlink:title=" ">
<path fill="none" stroke="#63b8ff" d="M237.3,-76.94C189.88,-63.91 120.27,-44.79 76.44,-32.75"/>
<polygon fill="#63b8ff" stroke="#63b8ff" points="77.26,-29.34 66.69,-30.07 75.4,-36.09 77.26,-29.34"/>
</a>
</g>
</g>
<!-- Node4 -->
<g id="Node000004" class="node">
<title>Node4</title>
<g id="a_Node000004"><a xlink:title=" ">
<polygon fill="#e0e0e0" stroke="#999999" points="173,-30 130,-30 130,-11 173,-11 173,-30"/>
<text text-anchor="middle" x="151.5" y="-18" font-family="Times,serif" font-size="10.00">tuple</text>
</a>
</g>
</g>
<!-- Node2&#45;&gt;Node4 -->
<g id="edge3_Node000002_Node000004" class="edge">
<title>Node2&#45;&gt;Node4</title>
<g id="a_edge3_Node000002_Node000004"><a xlink:title=" ">
<path fill="none" stroke="#63b8ff" d="M255.13,-76.84C233.71,-67.41 205.52,-54.34 181.5,-41 178.51,-39.34 175.42,-37.5 172.42,-35.62"/>
<polygon fill="#63b8ff" stroke="#63b8ff" points="174.11,-32.55 163.81,-30.06 170.31,-38.43 174.11,-32.55"/>
</a>
</g>
</g>
<!-- Node2&#45;&gt;Node5 -->
<g id="edge4_Node000002_Node000005" class="edge">
<title>Node2&#45;&gt;Node5</title>
<g id="a_edge4_Node000002_Node000005"><a xlink:title=" ">
<path fill="none" stroke="#63b8ff" d="M347.54,-84.48C408.55,-76.97 506.19,-62.79 588.5,-41 596.14,-38.98 604.23,-36.29 611.73,-33.56"/>
<polygon fill="#63b8ff" stroke="#63b8ff" points="613.03,-36.81 621.15,-30.01 610.56,-30.26 613.03,-36.81"/>
</a>
</g>
</g>
<!-- Node6 -->
<g id="Node000006" class="node">
<title>Node6</title>
<g id="a_Node000006"><a xlink:title=" ">
<polygon fill="#e0e0e0" stroke="#999999" points="242,-30 191,-30 191,-11 242,-11 242,-30"/>
<text text-anchor="middle" x="216.5" y="-18" font-family="Times,serif" font-size="10.00">cstdint</text>
</a>
</g>
</g>
<!-- Node2&#45;&gt;Node6 -->
<g id="edge5_Node000002_Node000006" class="edge">
<title>Node2&#45;&gt;Node6</title>
<g id="a_edge5_Node000002_Node000006"><a xlink:title=" ">
<path fill="none" stroke="#63b8ff" d="M273.93,-76.94C262.06,-65.48 245.32,-49.32 232.97,-37.4"/>
<polygon fill="#63b8ff" stroke="#63b8ff" points="235.21,-34.69 225.58,-30.27 230.35,-39.73 235.21,-34.69"/>
</a>
</g>
</g>
<!-- Node7 -->
<g id="Node000007" class="node">
<title>Node7</title>
<g id="a_Node000007"><a xlink:href="disjunction_8hpp.html" target="_top" xlink:title=" ">
<polygon fill="white" stroke="#666666" points="433,-35.5 260,-35.5 260,-5.5 433,-5.5 433,-35.5"/>
<text text-anchor="start" x="268" y="-23.5" font-family="Times,serif" font-size="10.00">boost/callable_traits</text>
<text text-anchor="middle" x="346.5" y="-12.5" font-family="Times,serif" font-size="10.00">/detail/polyfills/disjunction.hpp</text>
</a>
</g>
</g>
<!-- Node2&#45;&gt;Node7 -->
<g id="edge6_Node000002_Node000007" class="edge">
<title>Node2&#45;&gt;Node7</title>
<g id="a_edge6_Node000002_Node000007"><a xlink:title=" ">
<path fill="none" stroke="#63b8ff" d="M300.24,-76.94C308.26,-67.33 319.04,-54.4 328.18,-43.45"/>
<polygon fill="#63b8ff" stroke="#63b8ff" points="331.06,-45.46 334.78,-35.54 325.69,-40.98 331.06,-45.46"/>
</a>
</g>
</g>
<!-- Node8 -->
<g id="Node000008" class="node">
<title>Node8</title>
<g id="a_Node000008"><a xlink:href="make__index__sequence_8hpp.html" target="_top" xlink:title=" ">
<polygon fill="white" stroke="#666666" points="579.5,-41 451.5,-41 451.5,0 579.5,0 579.5,-41"/>
<text text-anchor="start" x="459.5" y="-29" font-family="Times,serif" font-size="10.00">boost/callable_traits</text>
<text text-anchor="start" x="459.5" y="-18" font-family="Times,serif" font-size="10.00">/detail/polyfills/make</text>
<text text-anchor="middle" x="515.5" y="-7" font-family="Times,serif" font-size="10.00">_index_sequence.hpp</text>
</a>
</g>
</g>
<!-- Node2&#45;&gt;Node8 -->
<g id="edge7_Node000002_Node000008" class="edge">
<title>Node2&#45;&gt;Node8</title>
<g id="a_edge7_Node000002_Node000008"><a xlink:title=" ">
<path fill="none" stroke="#63b8ff" d="M334.44,-76.94C365.23,-67.51 406.44,-54.89 441.77,-44.07"/>
<polygon fill="#63b8ff" stroke="#63b8ff" points="443.03,-47.35 451.57,-41.07 440.98,-40.65 443.03,-47.35"/>
</a>
</g>
</g>
<!-- Node9&#45;&gt;Node2 -->
<g id="edge9_Node000009_Node000002" class="edge">
<title>Node9&#45;&gt;Node2</title>
<g id="a_edge9_Node000009_Node000002"><a xlink:title=" ">
<path fill="none" stroke="#63b8ff" d="M157.04,-219.94C142.88,-211.66 127.44,-199.69 119.5,-184 111.27,-167.74 108.59,-157.6 119.5,-143 131.85,-126.47 178.1,-113.48 219.1,-104.88"/>
<polygon fill="#63b8ff" stroke="#63b8ff" points="220.01,-108.27 229.11,-102.85 218.61,-101.41 220.01,-108.27"/>
</a>
</g>
</g>
<!-- Node10 -->
<g id="Node000010" class="node">
<title>Node10</title>
<g id="a_Node000010"><a xlink:href="default__callable__traits_8hpp.html" target="_top" xlink:title=" ">
<polygon fill="white" stroke="#666666" points="260,-184 129,-184 129,-143 260,-143 260,-184"/>
<text text-anchor="start" x="137" y="-172" font-family="Times,serif" font-size="10.00">boost/callable_traits</text>
<text text-anchor="start" x="137" y="-161" font-family="Times,serif" font-size="10.00">/detail/default_callable</text>
<text text-anchor="middle" x="194.5" y="-150" font-family="Times,serif" font-size="10.00">_traits.hpp</text>
</a>
</g>
</g>
<!-- Node9&#45;&gt;Node10 -->
<g id="edge10_Node000009_Node000010" class="edge">
<title>Node9&#45;&gt;Node10</title>
<g id="a_edge10_Node000009_Node000010"><a xlink:title=" ">
<path fill="none" stroke="#63b8ff" d="M188.92,-219.94C189.66,-212.52 190.61,-203.14 191.51,-194.2"/>
<polygon fill="#63b8ff" stroke="#63b8ff" points="195.01,-194.37 192.53,-184.07 188.04,-193.67 195.01,-194.37"/>
</a>
</g>
</g>
<!-- Node11&#45;&gt;Node2 -->
<g id="edge12_Node000011_Node000002" class="edge">
<title>Node11&#45;&gt;Node2</title>
<g id="a_edge12_Node000011_Node000002"><a xlink:title=" ">
<path fill="none" stroke="#63b8ff" d="M346.47,-219.96C333.23,-211.27 317.82,-198.92 308.5,-184 295.84,-163.72 291.13,-136.52 289.41,-117.15"/>
<polygon fill="#63b8ff" stroke="#63b8ff" points="292.89,-116.77 288.72,-107.03 285.91,-117.25 292.89,-116.77"/>
</a>
</g>
</g>
<!-- Node12 -->
<g id="Node000012" class="node">
<title>Node12</title>
<g id="a_Node000012"><a xlink:href="sfinae__errors_8hpp.html" target="_top" xlink:title=" ">
<polygon fill="white" stroke="#666666" points="458,-178.5 317,-178.5 317,-148.5 458,-148.5 458,-178.5"/>
<text text-anchor="start" x="325" y="-166.5" font-family="Times,serif" font-size="10.00">boost/callable_traits</text>
<text text-anchor="middle" x="387.5" y="-155.5" font-family="Times,serif" font-size="10.00">/detail/sfinae_errors.hpp</text>
</a>
</g>
</g>
<!-- Node11&#45;&gt;Node12 -->
<g id="edge13_Node000011_Node000012" class="edge">
<title>Node11&#45;&gt;Node12</title>
<g id="a_edge13_Node000011_Node000012"><a xlink:title=" ">
<path fill="none" stroke="#63b8ff" d="M374.74,-219.94C376.82,-210.89 379.58,-198.91 382,-188.4"/>
<polygon fill="#63b8ff" stroke="#63b8ff" points="385.43,-189.07 384.27,-178.54 378.61,-187.5 385.43,-189.07"/>
</a>
</g>
</g>
<!-- Node13 -->
<g id="Node000013" class="node">
<title>Node13</title>
<g id="a_Node000013"><a xlink:href="qualifier__flags_8hpp.html" target="_top" xlink:title=" ">
<polygon fill="white" stroke="#666666" points="623,-178.5 476,-178.5 476,-148.5 623,-148.5 623,-178.5"/>
<text text-anchor="start" x="484" y="-166.5" font-family="Times,serif" font-size="10.00">boost/callable_traits</text>
<text text-anchor="middle" x="549.5" y="-155.5" font-family="Times,serif" font-size="10.00">/detail/qualifier_flags.hpp</text>
</a>
</g>
</g>
<!-- Node11&#45;&gt;Node13 -->
<g id="edge15_Node000011_Node000013" class="edge">
<title>Node11&#45;&gt;Node13</title>
<g id="a_edge15_Node000011_Node000013"><a xlink:title=" ">
<path fill="none" stroke="#63b8ff" d="M407.52,-219.94C435.39,-209.06 474.15,-193.92 504.13,-182.21"/>
<polygon fill="#63b8ff" stroke="#63b8ff" points="505.49,-185.44 513.53,-178.54 502.94,-178.92 505.49,-185.44"/>
</a>
</g>
</g>
<!-- Node12&#45;&gt;Node2 -->
<g id="edge14_Node000012_Node000002" class="edge">
<title>Node12&#45;&gt;Node2</title>
<g id="a_edge14_Node000012_Node000002"><a xlink:title=" ">
<path fill="none" stroke="#63b8ff" d="M367.47,-148.44C352.97,-138.26 333.18,-124.37 317.04,-113.04"/>
<polygon fill="#63b8ff" stroke="#63b8ff" points="318.7,-109.92 308.5,-107.04 314.68,-115.65 318.7,-109.92"/>
</a>
</g>
</g>
<!-- Node13&#45;&gt;Node2 -->
<g id="edge16_Node000013_Node000002" class="edge">
<title>Node13&#45;&gt;Node2</title>
<g id="a_edge16_Node000013_Node000002"><a xlink:title=" ">
<path fill="none" stroke="#63b8ff" d="M496.68,-148.44C454.58,-137.23 395.53,-121.5 351.06,-109.66"/>
<polygon fill="#63b8ff" stroke="#63b8ff" points="351.8,-106.23 341.24,-107.04 350,-113 351.8,-106.23"/>
</a>
</g>
</g>
</g>
</svg>
