<?xml version="1.0" encoding="UTF-8" standalone="no"?>
<!DOCTYPE svg PUBLIC "-//W3C//DTD SVG 1.1//EN"
 "http://www.w3.org/Graphics/SVG/1.1/DTD/svg11.dtd">
<!-- Generated by graphviz version 2.43.0 (0)
 -->
<!-- Title: ttg/ttg/base/keymap.h Pages: 1 -->
<svg width="1398pt" height="599pt"
 viewBox="0.00 0.00 1398.00 599.00" xmlns="http://www.w3.org/2000/svg" xmlns:xlink="http://www.w3.org/1999/xlink">
<g id="graph0" class="graph" transform="scale(1 1) rotate(0) translate(4 595)">
<title>ttg/ttg/base/keymap.h</title>
<!-- Node1 -->
<g id="Node000001" class="node">
<title>Node1</title>
<g id="a_Node000001"><a xlink:title=" ">
<polygon fill="#999999" stroke="#666666" points="159,-591 31,-591 31,-572 159,-572 159,-591"/>
<text text-anchor="middle" x="95" y="-579" font-family="Times,serif" font-size="10.00">ttg/ttg/base/keymap.h</text>
</a>
</g>
</g>
<!-- Node2 -->
<g id="Node000002" class="node">
<title>Node2</title>
<g id="a_Node000002"><a xlink:href="ttg_8h.html" target="_top" xlink:title=" ">
<polygon fill="white" stroke="#666666" points="653,-96 595,-96 595,-77 653,-77 653,-96"/>
<text text-anchor="middle" x="624" y="-84" font-family="Times,serif" font-size="10.00">ttg/ttg.h</text>
</a>
</g>
</g>
<!-- Node1&#45;&gt;Node2 -->
<g id="edge1_Node000001_Node000002" class="edge">
<title>Node1&#45;&gt;Node2</title>
<g id="a_edge1_Node000001_Node000002"><a xlink:title=" ">
<path fill="none" stroke="#63b8ff" d="M110.05,-564.24C126.94,-544.24 152,-508.49 152,-472.5 152,-472.5 152,-472.5 152,-415.5 152,-303.92 178.41,-267.19 256,-187 294.29,-147.43 314.66,-149.1 367,-132 447.06,-105.85 546.45,-94.21 594.82,-89.8"/>
<polygon fill="#63b8ff" stroke="#63b8ff" points="107.38,-561.98 103.41,-571.8 112.64,-566.6 107.38,-561.98"/>
</a>
</g>
</g>
<!-- Node10 -->
<g id="Node000010" class="node">
<title>Node10</title>
<g id="a_Node000010"><a xlink:href="ttg_2madness_2ttg_8h.html" target="_top" xlink:title=" ">
<polygon fill="white" stroke="#666666" points="320,-30 196,-30 196,-11 320,-11 320,-30"/>
<text text-anchor="middle" x="258" y="-18" font-family="Times,serif" font-size="10.00">ttg/ttg/madness/ttg.h</text>
</a>
</g>
</g>
<!-- Node1&#45;&gt;Node10 -->
<g id="edge11_Node000001_Node000010" class="edge">
<title>Node1&#45;&gt;Node10</title>
<g id="a_edge11_Node000001_Node000010"><a xlink:title=" ">
<path fill="none" stroke="#63b8ff" d="M79.95,-564.24C63.06,-544.24 38,-508.49 38,-472.5 38,-472.5 38,-472.5 38,-250.5 38,-135.28 184.63,-55.56 238.48,-30.17"/>
<polygon fill="#63b8ff" stroke="#63b8ff" points="77.36,-566.6 86.59,-571.8 82.62,-561.98 77.36,-566.6"/>
</a>
</g>
</g>
<!-- Node11 -->
<g id="Node000011" class="node">
<title>Node11</title>
<g id="a_Node000011"><a xlink:href="ttg_2parsec_2ttg_8h.html" target="_top" xlink:title=" ">
<polygon fill="white" stroke="#666666" points="174,-30 62,-30 62,-11 174,-11 174,-30"/>
<text text-anchor="middle" x="118" y="-18" font-family="Times,serif" font-size="10.00">ttg/ttg/parsec/ttg.h</text>
</a>
</g>
</g>
<!-- Node1&#45;&gt;Node11 -->
<g id="edge12_Node000001_Node000011" class="edge">
<title>Node1&#45;&gt;Node11</title>
<g id="a_edge12_Node000001_Node000011"><a xlink:title=" ">
<path fill="none" stroke="#63b8ff" d="M64.76,-567.19C50.76,-559.74 34.86,-549.26 24,-536 4.89,-512.66 0,-502.67 0,-472.5 0,-472.5 0,-472.5 0,-140.5 0,-85.22 65,-46.45 98.51,-30.13"/>
<polygon fill="#63b8ff" stroke="#63b8ff" points="63.56,-570.5 74.07,-571.86 66.7,-564.25 63.56,-570.5"/>
</a>
</g>
</g>
<!-- Node12 -->
<g id="Node000012" class="node">
<title>Node12</title>
<g id="a_Node000012"><a xlink:href="world_8h.html" target="_top" xlink:title=" ">
<polygon fill="white" stroke="#666666" points="346.5,-536 257.5,-536 257.5,-517 346.5,-517 346.5,-536"/>
<text text-anchor="middle" x="302" y="-524" font-family="Times,serif" font-size="10.00">ttg/ttg/world.h</text>
</a>
</g>
</g>
<!-- Node1&#45;&gt;Node12 -->
<g id="edge13_Node000001_Node000012" class="edge">
<title>Node1&#45;&gt;Node12</title>
<g id="a_edge13_Node000001_Node000012"><a xlink:title=" ">
<path fill="none" stroke="#63b8ff" d="M138.21,-569.44C176.96,-559.52 233.03,-545.16 268.48,-536.08"/>
<polygon fill="#63b8ff" stroke="#63b8ff" points="137.08,-566.11 128.26,-571.98 138.81,-572.89 137.08,-566.11"/>
</a>
</g>
</g>
<!-- Node3 -->
<g id="Node000003" class="node">
<title>Node3</title>
<g id="a_Node000003"><a xlink:href="fibonacci_8cc.html" target="_top" xlink:title=" ">
<polygon fill="white" stroke="#666666" points="1244,-35.5 1116,-35.5 1116,-5.5 1244,-5.5 1244,-35.5"/>
<text text-anchor="start" x="1124" y="-23.5" font-family="Times,serif" font-size="10.00">doc/dox/dev/devsamp</text>
<text text-anchor="middle" x="1180" y="-12.5" font-family="Times,serif" font-size="10.00">/fibonacci/fibonacci.cc</text>
</a>
</g>
</g>
<!-- Node2&#45;&gt;Node3 -->
<g id="edge2_Node000002_Node000003" class="edge">
<title>Node2&#45;&gt;Node3</title>
<g id="a_edge2_Node000002_Node000003"><a xlink:title=" ">
<path fill="none" stroke="#63b8ff" d="M663.28,-84.13C745.96,-80.76 943.79,-70.1 1107,-41 1115.14,-39.55 1123.69,-37.63 1131.96,-35.56"/>
<polygon fill="#63b8ff" stroke="#63b8ff" points="662.94,-80.64 653.08,-84.53 663.21,-87.64 662.94,-80.64"/>
</a>
</g>
</g>
<!-- Node4 -->
<g id="Node000004" class="node">
<title>Node4</title>
<g id="a_Node000004"><a xlink:href="fibonacci__device_8cc.html" target="_top" xlink:title=" ">
<polygon fill="white" stroke="#666666" points="1390,-41 1262,-41 1262,0 1390,0 1390,-41"/>
<text text-anchor="start" x="1270" y="-29" font-family="Times,serif" font-size="10.00">doc/dox/dev/devsamp</text>
<text text-anchor="start" x="1270" y="-18" font-family="Times,serif" font-size="10.00">/fibonacci/fibonacci</text>
<text text-anchor="middle" x="1326" y="-7" font-family="Times,serif" font-size="10.00">_device.cc</text>
</a>
</g>
</g>
<!-- Node2&#45;&gt;Node4 -->
<g id="edge3_Node000002_Node000004" class="edge">
<title>Node2&#45;&gt;Node4</title>
<g id="a_edge3_Node000002_Node000004"><a xlink:title=" ">
<path fill="none" stroke="#63b8ff" d="M663.25,-85.31C762.66,-84.27 1032.15,-77.96 1253,-41 1255.85,-40.52 1258.74,-39.99 1261.66,-39.4"/>
<polygon fill="#63b8ff" stroke="#63b8ff" points="663.04,-81.81 653.07,-85.4 663.1,-88.81 663.04,-81.81"/>
</a>
</g>
</g>
<!-- Node5 -->
<g id="Node000005" class="node">
<title>Node5</title>
<g id="a_Node000005"><a xlink:href="helloworld_8cpp.html" target="_top" xlink:title=" ">
<polygon fill="white" stroke="#666666" points="489.5,-35.5 338.5,-35.5 338.5,-5.5 489.5,-5.5 489.5,-35.5"/>
<text text-anchor="start" x="346.5" y="-23.5" font-family="Times,serif" font-size="10.00">doc/dox/dev/devsamp</text>
<text text-anchor="middle" x="414" y="-12.5" font-family="Times,serif" font-size="10.00">/helloworld/helloworld.cpp</text>
</a>
</g>
</g>
<!-- Node2&#45;&gt;Node5 -->
<g id="edge4_Node000002_Node000005" class="edge">
<title>Node2&#45;&gt;Node5</title>
<g id="a_edge4_Node000002_Node000005"><a xlink:title=" ">
<path fill="none" stroke="#63b8ff" d="M585.76,-73.85C550.46,-63.09 497.97,-47.09 460.32,-35.62"/>
<polygon fill="#63b8ff" stroke="#63b8ff" points="585.09,-77.3 595.68,-76.87 587.13,-70.61 585.09,-77.3"/>
</a>
</g>
</g>
<!-- Node6 -->
<g id="Node000006" class="node">
<title>Node6</title>
<g id="a_Node000006"><a xlink:href="distributed_8cc.html" target="_top" xlink:title=" ">
<polygon fill="white" stroke="#666666" points="642,-35.5 508,-35.5 508,-5.5 642,-5.5 642,-35.5"/>
<text text-anchor="start" x="516" y="-23.5" font-family="Times,serif" font-size="10.00">doc/dox/user/examples</text>
<text text-anchor="middle" x="575" y="-12.5" font-family="Times,serif" font-size="10.00">/distributed.cc</text>
</a>
</g>
</g>
<!-- Node2&#45;&gt;Node6 -->
<g id="edge5_Node000002_Node000006" class="edge">
<title>Node2&#45;&gt;Node6</title>
<g id="a_edge5_Node000002_Node000006"><a xlink:title=" ">
<path fill="none" stroke="#63b8ff" d="M611.16,-68.74C603.34,-58.52 593.45,-45.6 585.99,-35.86"/>
<polygon fill="#63b8ff" stroke="#63b8ff" points="608.53,-71.06 617.39,-76.87 614.09,-66.8 608.53,-71.06"/>
</a>
</g>
</g>
<!-- Node7 -->
<g id="Node000007" class="node">
<title>Node7</title>
<g id="a_Node000007"><a xlink:href="iterative_8cc.html" target="_top" xlink:title=" ">
<polygon fill="white" stroke="#666666" points="794,-35.5 660,-35.5 660,-5.5 794,-5.5 794,-35.5"/>
<text text-anchor="start" x="668" y="-23.5" font-family="Times,serif" font-size="10.00">doc/dox/user/examples</text>
<text text-anchor="middle" x="727" y="-12.5" font-family="Times,serif" font-size="10.00">/iterative.cc</text>
</a>
</g>
</g>
<!-- Node2&#45;&gt;Node7 -->
<g id="edge6_Node000002_Node000007" class="edge">
<title>Node2&#45;&gt;Node7</title>
<g id="a_edge6_Node000002_Node000007"><a xlink:title=" ">
<path fill="none" stroke="#63b8ff" d="M646.67,-71.41C663.79,-60.78 687.16,-46.25 704.28,-35.62"/>
<polygon fill="#63b8ff" stroke="#63b8ff" points="644.54,-68.62 637.89,-76.87 648.23,-74.56 644.54,-68.62"/>
</a>
</g>
</g>
<!-- Node8 -->
<g id="Node000008" class="node">
<title>Node8</title>
<g id="a_Node000008"><a xlink:href="reducing_8cc.html" target="_top" xlink:title=" ">
<polygon fill="white" stroke="#666666" points="946,-35.5 812,-35.5 812,-5.5 946,-5.5 946,-35.5"/>
<text text-anchor="start" x="820" y="-23.5" font-family="Times,serif" font-size="10.00">doc/dox/user/examples</text>
<text text-anchor="middle" x="879" y="-12.5" font-family="Times,serif" font-size="10.00">/reducing.cc</text>
</a>
</g>
</g>
<!-- Node2&#45;&gt;Node8 -->
<g id="edge7_Node000002_Node000008" class="edge">
<title>Node2&#45;&gt;Node8</title>
<g id="a_edge7_Node000002_Node000008"><a xlink:title=" ">
<path fill="none" stroke="#63b8ff" d="M663.32,-75.81C699.6,-66.86 754.96,-53.13 803,-41 810,-39.23 817.36,-37.36 824.63,-35.5"/>
<polygon fill="#63b8ff" stroke="#63b8ff" points="662.03,-72.53 653.16,-78.32 663.71,-79.32 662.03,-72.53"/>
</a>
</g>
</g>
<!-- Node9 -->
<g id="Node000009" class="node">
<title>Node9</title>
<g id="a_Node000009"><a xlink:href="simple_8cc.html" target="_top" xlink:title=" ">
<polygon fill="white" stroke="#666666" points="1098,-35.5 964,-35.5 964,-5.5 1098,-5.5 1098,-35.5"/>
<text text-anchor="start" x="972" y="-23.5" font-family="Times,serif" font-size="10.00">doc/dox/user/examples</text>
<text text-anchor="middle" x="1031" y="-12.5" font-family="Times,serif" font-size="10.00">/simple.cc</text>
</a>
</g>
</g>
<!-- Node2&#45;&gt;Node9 -->
<g id="edge8_Node000002_Node000009" class="edge">
<title>Node2&#45;&gt;Node9</title>
<g id="a_edge8_Node000002_Node000009"><a xlink:title=" ">
<path fill="none" stroke="#63b8ff" d="M663.59,-81.7C725.93,-75.37 850.63,-61.33 955,-41 963.02,-39.44 971.46,-37.54 979.68,-35.54"/>
<polygon fill="#63b8ff" stroke="#63b8ff" points="663.01,-78.24 653.41,-82.72 663.71,-85.2 663.01,-78.24"/>
</a>
</g>
</g>
<!-- Node2&#45;&gt;Node10 -->
<g id="edge9_Node000002_Node000010" class="edge">
<title>Node2&#45;&gt;Node10</title>
<g id="a_edge9_Node000002_Node000010"><a xlink:title=" ">
<path fill="none" stroke="#63b8ff" d="M584.93,-81.1C528.2,-74.37 419.87,-60.26 329,-41 314.74,-37.98 299.11,-33.78 286.14,-30.05"/>
<polygon fill="#63b8ff" stroke="#63b8ff" points="584.56,-84.58 594.9,-82.27 585.38,-77.63 584.56,-84.58"/>
</a>
</g>
</g>
<!-- Node2&#45;&gt;Node11 -->
<g id="edge10_Node000002_Node000011" class="edge">
<title>Node2&#45;&gt;Node11</title>
<g id="a_edge10_Node000002_Node000011"><a xlink:title=" ">
<path fill="none" stroke="#63b8ff" d="M584.67,-83.79C507.7,-79.94 332.06,-68.66 187,-41 172.69,-38.27 157.05,-33.96 144.28,-30.09"/>
<polygon fill="#63b8ff" stroke="#63b8ff" points="584.7,-87.3 594.86,-84.28 585.04,-80.3 584.7,-87.3"/>
</a>
</g>
</g>
<!-- Node12&#45;&gt;Node2 -->
<g id="edge14_Node000012_Node000002" class="edge">
<title>Node12&#45;&gt;Node2</title>
<g id="a_edge14_Node000012_Node000002"><a xlink:title=" ">
<path fill="none" stroke="#63b8ff" d="M357.05,-525.45C489.68,-523.86 816,-510.5 816,-417.5 816,-417.5 816,-417.5 816,-195.5 816,-121.69 706.87,-97.79 653.16,-90.49"/>
<polygon fill="#63b8ff" stroke="#63b8ff" points="356.68,-521.96 346.71,-525.56 356.75,-528.96 356.68,-521.96"/>
</a>
</g>
</g>
<!-- Node12&#45;&gt;Node10 -->
<g id="edge17_Node000012_Node000010" class="edge">
<title>Node12&#45;&gt;Node10</title>
<g id="a_edge17_Node000012_Node000010"><a xlink:title=" ">
<path fill="none" stroke="#63b8ff" d="M247.37,-517.75C191.86,-506.44 114,-479.51 114,-417.5 114,-417.5 114,-417.5 114,-305.5 114,-243.31 225.24,-71.05 252.18,-30.25"/>
<polygon fill="#63b8ff" stroke="#63b8ff" points="246.97,-521.24 257.45,-519.69 248.29,-514.37 246.97,-521.24"/>
</a>
</g>
</g>
<!-- Node13 -->
<g id="Node000013" class="node">
<title>Node13</title>
<g id="a_Node000013"><a xlink:href="broadcast_8h.html" target="_top" xlink:title=" ">
<polygon fill="white" stroke="#666666" points="557.5,-151 446.5,-151 446.5,-132 557.5,-132 557.5,-151"/>
<text text-anchor="middle" x="502" y="-139" font-family="Times,serif" font-size="10.00">ttg/ttg/broadcast.h</text>
</a>
</g>
</g>
<!-- Node12&#45;&gt;Node13 -->
<g id="edge15_Node000012_Node000013" class="edge">
<title>Node12&#45;&gt;Node13</title>
<g id="a_edge15_Node000012_Node000013"><a xlink:title=" ">
<path fill="none" stroke="#63b8ff" d="M356.93,-524.53C482.14,-520.82 778,-503.01 778,-417.5 778,-417.5 778,-417.5 778,-360.5 778,-237.16 606.16,-172.73 533.66,-151.04"/>
<polygon fill="#63b8ff" stroke="#63b8ff" points="356.68,-521.03 346.78,-524.81 356.87,-528.03 356.68,-521.03"/>
</a>
</g>
</g>
<!-- Node14 -->
<g id="Node000014" class="node">
<title>Node14</title>
<g id="a_Node000014"><a xlink:href="run_8h.html" target="_top" xlink:title=" ">
<polygon fill="white" stroke="#666666" points="375.5,-481 296.5,-481 296.5,-462 375.5,-462 375.5,-481"/>
<text text-anchor="middle" x="336" y="-469" font-family="Times,serif" font-size="10.00">ttg/ttg/run.h</text>
</a>
</g>
</g>
<!-- Node12&#45;&gt;Node14 -->
<g id="edge18_Node000012_Node000014" class="edge">
<title>Node12&#45;&gt;Node14</title>
<g id="a_edge18_Node000012_Node000014"><a xlink:title=" ">
<path fill="none" stroke="#63b8ff" d="M313.16,-508.1C318.97,-499.04 325.82,-488.37 330.49,-481.09"/>
<polygon fill="#63b8ff" stroke="#63b8ff" points="310.07,-506.44 307.61,-516.75 315.96,-510.22 310.07,-506.44"/>
</a>
</g>
</g>
<!-- Node15 -->
<g id="Node000015" class="node">
<title>Node15</title>
<g id="a_Node000015"><a xlink:href="terminal_8h.html" target="_top" xlink:title=" ">
<polygon fill="white" stroke="#666666" points="320,-426 216,-426 216,-407 320,-407 320,-426"/>
<text text-anchor="middle" x="268" y="-414" font-family="Times,serif" font-size="10.00">ttg/ttg/terminal.h</text>
</a>
</g>
</g>
<!-- Node12&#45;&gt;Node15 -->
<g id="edge42_Node000012_Node000015" class="edge">
<title>Node12&#45;&gt;Node15</title>
<g id="a_edge42_Node000012_Node000015"><a xlink:title=" ">
<path fill="none" stroke="#63b8ff" d="M295.78,-507.5C293.02,-499.42 289.78,-489.75 287,-481 280.79,-461.48 274.03,-438.41 270.49,-426.16"/>
<polygon fill="#63b8ff" stroke="#63b8ff" points="292.48,-508.68 299.04,-517 299.1,-506.4 292.48,-508.68"/>
</a>
</g>
</g>
<!-- Node13&#45;&gt;Node2 -->
<g id="edge16_Node000013_Node000002" class="edge">
<title>Node13&#45;&gt;Node2</title>
<g id="a_edge16_Node000013_Node000002"><a xlink:title=" ">
<path fill="none" stroke="#63b8ff" d="M531.01,-127.9C553.54,-118.11 584.2,-104.79 604.04,-96.17"/>
<polygon fill="#63b8ff" stroke="#63b8ff" points="529.38,-124.79 521.6,-131.98 532.17,-131.21 529.38,-124.79"/>
</a>
</g>
</g>
<!-- Node14&#45;&gt;Node2 -->
<g id="edge19_Node000014_Node000002" class="edge">
<title>Node14&#45;&gt;Node2</title>
<g id="a_edge19_Node000014_Node000002"><a xlink:title=" ">
<path fill="none" stroke="#63b8ff" d="M375.18,-458.96C460.11,-431.54 659.49,-353.44 734,-206 748.87,-176.58 757.63,-159.19 739,-132 719.88,-104.1 680.55,-93.69 653.25,-89.8"/>
<polygon fill="#63b8ff" stroke="#63b8ff" points="374.12,-455.63 365.65,-461.99 376.24,-462.3 374.12,-455.63"/>
</a>
</g>
</g>
<!-- Node14&#45;&gt;Node15 -->
<g id="edge20_Node000014_Node000015" class="edge">
<title>Node14&#45;&gt;Node15</title>
<g id="a_edge20_Node000014_Node000015"><a xlink:title=" ">
<path fill="none" stroke="#63b8ff" d="M316.88,-455.6C304.7,-446.11 289.34,-434.13 279.12,-426.17"/>
<polygon fill="#63b8ff" stroke="#63b8ff" points="315.04,-458.6 325.07,-461.98 319.34,-453.08 315.04,-458.6"/>
</a>
</g>
</g>
<!-- Node15&#45;&gt;Node11 -->
<g id="edge41_Node000015_Node000011" class="edge">
<title>Node15&#45;&gt;Node11</title>
<g id="a_edge41_Node000015_Node000011"><a xlink:title=" ">
<path fill="none" stroke="#63b8ff" d="M259.78,-397.67C237.88,-349.69 177.12,-213.51 138,-96 130.22,-72.62 123.29,-44.36 120.01,-30.32"/>
<polygon fill="#63b8ff" stroke="#63b8ff" points="256.6,-399.13 263.95,-406.76 262.97,-396.22 256.6,-399.13"/>
</a>
</g>
</g>
<!-- Node16 -->
<g id="Node000016" class="node">
<title>Node16</title>
<g id="a_Node000016"><a xlink:href="edge_8h.html" target="_top" xlink:title=" ">
<polygon fill="white" stroke="#666666" points="347,-371 261,-371 261,-352 347,-352 347,-371"/>
<text text-anchor="middle" x="304" y="-359" font-family="Times,serif" font-size="10.00">ttg/ttg/edge.h</text>
</a>
</g>
</g>
<!-- Node15&#45;&gt;Node16 -->
<g id="edge21_Node000015_Node000016" class="edge">
<title>Node15&#45;&gt;Node16</title>
<g id="a_edge21_Node000015_Node000016"><a xlink:title=" ">
<path fill="none" stroke="#63b8ff" d="M279.62,-398.39C285.82,-389.27 293.17,-378.45 298.17,-371.09"/>
<polygon fill="#63b8ff" stroke="#63b8ff" points="276.67,-396.51 273.94,-406.75 282.46,-400.44 276.67,-396.51"/>
</a>
</g>
</g>
<!-- Node17 -->
<g id="Node000017" class="node">
<title>Node17</title>
<g id="a_Node000017"><a xlink:href="func_8h.html" target="_top" xlink:title=" ">
<polygon fill="white" stroke="#666666" points="348.5,-206 265.5,-206 265.5,-187 348.5,-187 348.5,-206"/>
<text text-anchor="middle" x="307" y="-194" font-family="Times,serif" font-size="10.00">ttg/ttg/func.h</text>
</a>
</g>
</g>
<!-- Node15&#45;&gt;Node17 -->
<g id="edge40_Node000015_Node000017" class="edge">
<title>Node15&#45;&gt;Node17</title>
<g id="a_edge40_Node000015_Node000017"><a xlink:title=" ">
<path fill="none" stroke="#63b8ff" d="M259.35,-397.61C254.26,-384.97 249.31,-367.58 252,-352 261.98,-294.2 291.51,-229.38 302.67,-206.26"/>
<polygon fill="#63b8ff" stroke="#63b8ff" points="256.24,-399.23 263.49,-406.96 262.64,-396.4 256.24,-399.23"/>
</a>
</g>
</g>
<!-- Node16&#45;&gt;Node2 -->
<g id="edge22_Node000016_Node000002" class="edge">
<title>Node16&#45;&gt;Node2</title>
<g id="a_edge22_Node000016_Node000002"><a xlink:title=" ">
<path fill="none" stroke="#63b8ff" d="M357.33,-355.97C428.67,-347.6 556.32,-324.32 644,-261 697.95,-222.04 755.82,-188.08 720,-132 705.37,-109.09 675.57,-97.79 653.03,-92.34"/>
<polygon fill="#63b8ff" stroke="#63b8ff" points="356.77,-352.51 347.22,-357.1 357.55,-359.46 356.77,-352.51"/>
</a>
</g>
</g>
<!-- Node16&#45;&gt;Node11 -->
<g id="edge28_Node000016_Node000011" class="edge">
<title>Node16&#45;&gt;Node11</title>
<g id="a_edge28_Node000016_Node000011"><a xlink:title=" ">
<path fill="none" stroke="#63b8ff" d="M293.03,-343.06C266.93,-301.24 199.66,-191.62 151,-96 139.2,-72.8 127.31,-44.46 121.56,-30.36"/>
<polygon fill="#63b8ff" stroke="#63b8ff" points="290.08,-344.94 298.35,-351.56 296.01,-341.23 290.08,-344.94"/>
</a>
</g>
</g>
<!-- Node16&#45;&gt;Node17 -->
<g id="edge23_Node000016_Node000017" class="edge">
<title>Node16&#45;&gt;Node17</title>
<g id="a_edge23_Node000016_Node000017"><a xlink:title=" ">
<path fill="none" stroke="#63b8ff" d="M304.35,-341.37C305,-306.03 306.37,-231.79 306.84,-206.31"/>
<polygon fill="#63b8ff" stroke="#63b8ff" points="300.85,-341.67 304.16,-351.74 307.84,-341.8 300.85,-341.67"/>
</a>
</g>
</g>
<!-- Node18 -->
<g id="Node000018" class="node">
<title>Node18</title>
<g id="a_Node000018"><a xlink:href="tt_8h.html" target="_top" xlink:title=" ">
<polygon fill="white" stroke="#666666" points="414,-316 346,-316 346,-297 414,-297 414,-316"/>
<text text-anchor="middle" x="380" y="-304" font-family="Times,serif" font-size="10.00">ttg/ttg/tt.h</text>
</a>
</g>
</g>
<!-- Node16&#45;&gt;Node18 -->
<g id="edge29_Node000016_Node000018" class="edge">
<title>Node16&#45;&gt;Node18</title>
<g id="a_edge29_Node000016_Node000018"><a xlink:title=" ">
<path fill="none" stroke="#63b8ff" d="M324.58,-346.15C338.31,-336.57 355.93,-324.29 367.57,-316.17"/>
<polygon fill="#63b8ff" stroke="#63b8ff" points="322.41,-343.39 316.21,-351.98 326.42,-349.14 322.41,-343.39"/>
</a>
</g>
</g>
<!-- Node17&#45;&gt;Node2 -->
<g id="edge24_Node000017_Node000002" class="edge">
<title>Node17&#45;&gt;Node2</title>
<g id="a_edge24_Node000017_Node000002"><a xlink:title=" ">
<path fill="none" stroke="#63b8ff" d="M325.23,-180.49C343.88,-165.9 374.26,-144.21 404,-132 469.07,-105.28 551.75,-94.12 594.86,-89.86"/>
<polygon fill="#63b8ff" stroke="#63b8ff" points="322.93,-177.85 317.3,-186.82 327.29,-183.32 322.93,-177.85"/>
</a>
</g>
</g>
<!-- Node17&#45;&gt;Node10 -->
<g id="edge26_Node000017_Node000010" class="edge">
<title>Node17&#45;&gt;Node10</title>
<g id="a_edge26_Node000017_Node000010"><a xlink:title=" ">
<path fill="none" stroke="#63b8ff" d="M303.65,-176.74C299.23,-153.18 290.74,-111.64 280,-77 274.72,-59.97 266.6,-40.77 261.85,-30.01"/>
<polygon fill="#63b8ff" stroke="#63b8ff" points="300.24,-177.55 305.48,-186.76 307.12,-176.29 300.24,-177.55"/>
</a>
</g>
</g>
<!-- Node17&#45;&gt;Node11 -->
<g id="edge27_Node000017_Node000011" class="edge">
<title>Node17&#45;&gt;Node11</title>
<g id="a_edge27_Node000017_Node000011"><a xlink:title=" ">
<path fill="none" stroke="#63b8ff" d="M294.69,-178.51C276.58,-154.22 240.89,-108.98 204,-77 181.71,-57.68 152.17,-40.08 134.15,-30.09"/>
<polygon fill="#63b8ff" stroke="#63b8ff" points="291.99,-180.74 300.74,-186.72 297.63,-176.59 291.99,-180.74"/>
</a>
</g>
</g>
<!-- Node17&#45;&gt;Node13 -->
<g id="edge25_Node000017_Node000013" class="edge">
<title>Node17&#45;&gt;Node13</title>
<g id="a_edge25_Node000017_Node000013"><a xlink:title=" ">
<path fill="none" stroke="#63b8ff" d="M348.17,-184.31C384.66,-174.39 437.17,-160.12 470.42,-151.08"/>
<polygon fill="#63b8ff" stroke="#63b8ff" points="347.06,-180.98 338.33,-186.98 348.9,-187.74 347.06,-180.98"/>
</a>
</g>
</g>
<!-- Node18&#45;&gt;Node2 -->
<g id="edge30_Node000018_Node000002" class="edge">
<title>Node18&#45;&gt;Node2</title>
<g id="a_edge30_Node000018_Node000002"><a xlink:title=" ">
<path fill="none" stroke="#63b8ff" d="M385.79,-287.1C399.69,-243 434.03,-134.73 437,-132 459.85,-110.99 548.21,-97.02 594.83,-90.95"/>
<polygon fill="#63b8ff" stroke="#63b8ff" points="382.39,-286.23 382.72,-296.82 389.07,-288.34 382.39,-286.23"/>
</a>
</g>
</g>
<!-- Node18&#45;&gt;Node10 -->
<g id="edge33_Node000018_Node000010" class="edge">
<title>Node18&#45;&gt;Node10</title>
<g id="a_edge33_Node000018_Node000010"><a xlink:title=" ">
<path fill="none" stroke="#63b8ff" d="M378.17,-286.86C375.45,-263.11 369.26,-221.06 357,-187 338.14,-134.6 326.39,-124.3 297,-77 286.43,-59.99 272.7,-41.1 264.67,-30.32"/>
<polygon fill="#63b8ff" stroke="#63b8ff" points="374.71,-287.36 379.25,-296.93 381.67,-286.61 374.71,-287.36"/>
</a>
</g>
</g>
<!-- Node18&#45;&gt;Node11 -->
<g id="edge34_Node000018_Node000011" class="edge">
<title>Node18&#45;&gt;Node11</title>
<g id="a_edge34_Node000018_Node000011"><a xlink:title=" ">
<path fill="none" stroke="#63b8ff" d="M358.85,-291.05C333.03,-272.88 288.77,-239.91 256,-206 196.79,-144.74 140.57,-57.7 123.36,-30.18"/>
<polygon fill="#63b8ff" stroke="#63b8ff" points="356.96,-294 367.16,-296.84 360.96,-288.26 356.96,-294"/>
</a>
</g>
</g>
<!-- Node18&#45;&gt;Node13 -->
<g id="edge31_Node000018_Node000013" class="edge">
<title>Node18&#45;&gt;Node13</title>
<g id="a_edge31_Node000018_Node000013"><a xlink:title=" ">
<path fill="none" stroke="#63b8ff" d="M400.2,-290.79C410.46,-282.71 422.69,-272.09 432,-261 463.03,-224.03 488.67,-171.62 498.11,-151.16"/>
<polygon fill="#63b8ff" stroke="#63b8ff" points="397.97,-288.08 392.15,-296.93 402.22,-293.65 397.97,-288.08"/>
</a>
</g>
</g>
<!-- Node18&#45;&gt;Node17 -->
<g id="edge32_Node000018_Node000017" class="edge">
<title>Node18&#45;&gt;Node17</title>
<g id="a_edge32_Node000018_Node000017"><a xlink:title=" ">
<path fill="none" stroke="#63b8ff" d="M368.22,-288.07C352.38,-264.64 324.84,-223.89 312.85,-206.16"/>
<polygon fill="#63b8ff" stroke="#63b8ff" points="365.53,-290.34 374.03,-296.66 371.33,-286.42 365.53,-290.34"/>
</a>
</g>
</g>
<!-- Node19 -->
<g id="Node000019" class="node">
<title>Node19</title>
<g id="a_Node000019"><a xlink:href="traverse_8h.html" target="_top" xlink:title=" ">
<polygon fill="white" stroke="#666666" points="635.5,-261 532.5,-261 532.5,-242 635.5,-242 635.5,-261"/>
<text text-anchor="middle" x="584" y="-249" font-family="Times,serif" font-size="10.00">ttg/ttg/traverse.h</text>
</a>
</g>
</g>
<!-- Node18&#45;&gt;Node19 -->
<g id="edge35_Node000018_Node000019" class="edge">
<title>Node18&#45;&gt;Node19</title>
<g id="a_edge35_Node000018_Node000019"><a xlink:title=" ">
<path fill="none" stroke="#63b8ff" d="M422.58,-294.44C460.77,-284.52 516.02,-270.16 550.97,-261.08"/>
<polygon fill="#63b8ff" stroke="#63b8ff" points="421.57,-291.08 412.78,-296.98 423.33,-297.86 421.57,-291.08"/>
</a>
</g>
</g>
<!-- Node19&#45;&gt;Node2 -->
<g id="edge36_Node000019_Node000002" class="edge">
<title>Node19&#45;&gt;Node2</title>
<g id="a_edge36_Node000019_Node000002"><a xlink:title=" ">
<path fill="none" stroke="#63b8ff" d="M585.99,-231.67C588.8,-208.03 594.75,-166.42 605,-132 608.84,-119.12 615.3,-104.96 619.61,-96.15"/>
<polygon fill="#63b8ff" stroke="#63b8ff" points="582.5,-231.39 584.86,-241.72 589.46,-232.17 582.5,-231.39"/>
</a>
</g>
</g>
<!-- Node19&#45;&gt;Node17 -->
<g id="edge37_Node000019_Node000017" class="edge">
<title>Node19&#45;&gt;Node17</title>
<g id="a_edge37_Node000019_Node000017"><a xlink:title=" ">
<path fill="none" stroke="#63b8ff" d="M529.58,-240.09C476.5,-229.93 396.91,-214.7 348.68,-205.47"/>
<polygon fill="#63b8ff" stroke="#63b8ff" points="529.02,-243.54 539.5,-241.98 530.33,-236.67 529.02,-243.54"/>
</a>
</g>
</g>
<!-- Node20 -->
<g id="Node000020" class="node">
<title>Node20</title>
<g id="a_Node000020"><a xlink:href="dot_8h.html" target="_top" xlink:title=" ">
<polygon fill="white" stroke="#666666" points="711.5,-151 614.5,-151 614.5,-132 711.5,-132 711.5,-151"/>
<text text-anchor="middle" x="663" y="-139" font-family="Times,serif" font-size="10.00">ttg/ttg/util/dot.h</text>
</a>
</g>
</g>
<!-- Node19&#45;&gt;Node20 -->
<g id="edge38_Node000019_Node000020" class="edge">
<title>Node19&#45;&gt;Node20</title>
<g id="a_edge38_Node000019_Node000020"><a xlink:title=" ">
<path fill="none" stroke="#63b8ff" d="M596.52,-233.38C613.62,-210.01 643.64,-168.97 656.67,-151.16"/>
<polygon fill="#63b8ff" stroke="#63b8ff" points="593.54,-231.52 590.46,-241.66 599.19,-235.66 593.54,-231.52"/>
</a>
</g>
</g>
<!-- Node20&#45;&gt;Node2 -->
<g id="edge39_Node000020_Node000002" class="edge">
<title>Node20&#45;&gt;Node2</title>
<g id="a_edge39_Node000020_Node000002"><a xlink:title=" ">
<path fill="none" stroke="#63b8ff" d="M650.62,-123.67C643.86,-114.5 635.79,-103.52 630.32,-96.09"/>
<polygon fill="#63b8ff" stroke="#63b8ff" points="647.81,-125.77 656.56,-131.75 653.45,-121.62 647.81,-125.77"/>
</a>
</g>
</g>
</g>
</svg>
