<?xml version="1.0" encoding="UTF-8" standalone="no"?>
<!DOCTYPE svg PUBLIC "-//W3C//DTD SVG 1.1//EN"
 "http://www.w3.org/Graphics/SVG/1.1/DTD/svg11.dtd">
<!-- Generated by graphviz version 2.43.0 (0)
 -->
<!-- Title: ttg/ttg/base/keymap.h Pages: 1 -->
<!--zoomable 302 -->

<svg id="main" version="1.1" xmlns="http://www.w3.org/2000/svg" xmlns:xlink="http://www.w3.org/1999/xlink" xml:space="preserve" onload="init(evt)">
<style type="text/css"><![CDATA[
.node, .edge {opacity: 0.7;}
.node.selected, .edge.selected {opacity: 1;}
.edge:hover path { stroke: red; }
.edge:hover polygon { stroke: red; fill: red; }
]]></style>

<defs>
  <circle id="rim" cx="0" cy="0" r="7"/>
  <circle id="rim2" cx="0" cy="0" r="3.5"/>
  <g id="zoomPlus">
    <use xlink:href="#rim" fill="#404040"><set attributeName="fill" to="#808080" begin="zoomplus.mouseover" end="zoomplus.mouseout"/></use>
    <path d="M-4,0h8M0,-4v8" fill="none" stroke="white" stroke-width="1.5" pointer-events="none"/>
  </g>
  <g id="zoomMin">
    <use xlink:href="#rim" fill="#404040"><set attributeName="fill" to="#808080" begin="zoomminus.mouseover" end="zoomminus.mouseout"/></use>
    <path d="M-4,0h8" fill="none" stroke="white" stroke-width="1.5" pointer-events="none"/>
  </g>
  <g id="arrowUp" transform="translate(30 24)">
    <use xlink:href="#rim"/>
    <path pointer-events="none" fill="none" stroke="white" stroke-width="1.5" d="M0,-3.0v7 M-2.5,-0.5L0,-3.0L2.5,-0.5"/>
  </g>
  <g id="arrowRight" transform="rotate(90) translate(36 -43)">
    <use xlink:href="#rim"/>
    <path pointer-events="none" fill="none" stroke="white" stroke-width="1.5" d="M0,-3.0v7 M-2.5,-0.5L0,-3.0L2.5,-0.5"/>
  </g>
  <g id="arrowDown" transform="rotate(180) translate(-30 -48)">
    <use xlink:href="#rim"/>
    <path pointer-events="none" fill="none" stroke="white" stroke-width="1.5" d="M0,-3.0v7 M-2.5,-0.5L0,-3.0L2.5,-0.5"/>
  </g>
  <g id="arrowLeft" transform="rotate(270) translate(-36 17)">
    <use xlink:href="#rim"/>
    <path pointer-events="none" fill="none" stroke="white" stroke-width="1.5" d="M0,-3.0v7 M-2.5,-0.5L0,-3.0L2.5,-0.5"/>
  </g>
  <g id="resetDef">
    <use xlink:href="#rim2" fill="#404040"><set attributeName="fill" to="#808080" begin="reset.mouseover" end="reset.mouseout"/></use>
  </g>
</defs>
<script type="application/ecmascript">
var viewWidth = 577;
var viewHeight = 302;
var sectionId = 'dynsection-0';
</script>
<script type="application/ecmascript" xlink:href="svg.min.js"/>
<svg id="graph" class="graph">
<g id="viewport">
<title>ttg/ttg/base/keymap.h</title>
<!-- Node1 -->
<g id="Node000001" class="node">
<title>Node1</title>
<g id="a_Node000001"><a xlink:title=" ">
<polygon fill="#999999" stroke="#666666" points="284.41,-294 156.41,-294 156.41,-275 284.41,-275 284.41,-294"/>
<text text-anchor="middle" x="220.41" y="-282" font-family="Times,serif" font-size="10.00">ttg/ttg/base/keymap.h</text>
</a>
</g>
</g>
<!-- Node2 -->
<g id="Node000002" class="node">
<title>Node2</title>
<g id="a_Node000002"><a xlink:title=" ">
<polygon fill="#e0e0e0" stroke="#999999" points="193.91,-19 122.91,-19 122.91,0 193.91,0 193.91,-19"/>
<text text-anchor="middle" x="158.41" y="-7" font-family="Times,serif" font-size="10.00">type_traits</text>
</a>
</g>
</g>
<!-- Node1&#45;&gt;Node2 -->
<g id="edge1_Node000001_Node000002" class="edge">
<title>Node1&#45;&gt;Node2</title>
<g id="a_edge1_Node000001_Node000002"><a xlink:title=" ">
<path fill="none" stroke="#63b8ff" d="M156.18,-278.8C91.25,-270.13 0.41,-245.49 0.41,-175.5 0.41,-175.5 0.41,-175.5 0.41,-118.5 0.41,-89.04 -1.22,-76.03 19.41,-55 32.61,-41.54 77.43,-28.69 112.65,-20.29"/>
<polygon fill="#63b8ff" stroke="#63b8ff" points="113.82,-23.62 122.76,-17.94 112.23,-16.8 113.82,-23.62"/>
</a>
</g>
</g>
<!-- Node3 -->
<g id="Node000003" class="node">
<title>Node3</title>
<g id="a_Node000003"><a xlink:href="meta_8h.html" target="_top" xlink:title=" ">
<polygon fill="white" stroke="#666666" points="264.91,-129 175.91,-129 175.91,-110 264.91,-110 264.91,-129"/>
<text text-anchor="middle" x="220.41" y="-117" font-family="Times,serif" font-size="10.00">ttg/util/meta.h</text>
</a>
</g>
</g>
<!-- Node1&#45;&gt;Node3 -->
<g id="edge2_Node000001_Node000003" class="edge">
<title>Node1&#45;&gt;Node3</title>
<g id="a_edge2_Node000001_Node000003"><a xlink:title=" ">
<path fill="none" stroke="#63b8ff" d="M220.41,-274.74C220.41,-249.31 220.41,-175.08 220.41,-139.69"/>
<polygon fill="#63b8ff" stroke="#63b8ff" points="223.91,-139.31 220.41,-129.31 216.91,-139.31 223.91,-139.31"/>
</a>
</g>
</g>
<!-- Node12 -->
<g id="Node000012" class="node">
<title>Node12</title>
<g id="a_Node000012"><a xlink:href="hash_8h.html" target="_top" xlink:title=" ">
<polygon fill="white" stroke="#666666" points="478.41,-239 390.41,-239 390.41,-220 478.41,-220 478.41,-239"/>
<text text-anchor="middle" x="434.41" y="-227" font-family="Times,serif" font-size="10.00">ttg/util/hash.h</text>
</a>
</g>
</g>
<!-- Node1&#45;&gt;Node12 -->
<g id="edge13_Node000001_Node000012" class="edge">
<title>Node1&#45;&gt;Node12</title>
<g id="a_edge13_Node000001_Node000012"><a xlink:title=" ">
<path fill="none" stroke="#63b8ff" d="M254.79,-274.98C291.5,-265.89 349.79,-251.46 389.96,-241.51"/>
<polygon fill="#63b8ff" stroke="#63b8ff" points="390.89,-244.88 399.76,-239.08 389.21,-238.09 390.89,-244.88"/>
</a>
</g>
</g>
<!-- Node3&#45;&gt;Node2 -->
<g id="edge4_Node000003_Node000002" class="edge">
<title>Node3&#45;&gt;Node2</title>
<g id="a_edge4_Node000003_Node000002"><a xlink:title=" ">
<path fill="none" stroke="#63b8ff" d="M209.35,-109.74C199.63,-101.48 185.76,-88.28 177.41,-74 169.32,-60.17 164.41,-42.61 161.61,-29.45"/>
<polygon fill="#63b8ff" stroke="#63b8ff" points="164.97,-28.41 159.67,-19.24 158.1,-29.72 164.97,-28.41"/>
</a>
</g>
</g>
<!-- Node4 -->
<g id="Node000004" class="node">
<title>Node4</title>
<g id="a_Node000004"><a xlink:title=" ">
<polygon fill="#e0e0e0" stroke="#999999" points="254.41,-74 186.41,-74 186.41,-55 254.41,-55 254.41,-74"/>
<text text-anchor="middle" x="220.41" y="-62" font-family="Times,serif" font-size="10.00">functional</text>
</a>
</g>
</g>
<!-- Node3&#45;&gt;Node4 -->
<g id="edge3_Node000003_Node000004" class="edge">
<title>Node3&#45;&gt;Node4</title>
<g id="a_edge3_Node000003_Node000004"><a xlink:title=" ">
<path fill="none" stroke="#63b8ff" d="M220.41,-109.75C220.41,-102.8 220.41,-92.85 220.41,-84.13"/>
<polygon fill="#63b8ff" stroke="#63b8ff" points="223.91,-84.09 220.41,-74.09 216.91,-84.09 223.91,-84.09"/>
</a>
</g>
</g>
<!-- Node5 -->
<g id="Node000005" class="node">
<title>Node5</title>
<g id="a_Node000005"><a xlink:href="span_8h.html" target="_top" xlink:title=" ">
<polygon fill="white" stroke="#666666" points="360.41,-74 272.41,-74 272.41,-55 360.41,-55 360.41,-74"/>
<text text-anchor="middle" x="316.41" y="-62" font-family="Times,serif" font-size="10.00">ttg/util/span.h</text>
</a>
</g>
</g>
<!-- Node3&#45;&gt;Node5 -->
<g id="edge5_Node000003_Node000005" class="edge">
<title>Node3&#45;&gt;Node5</title>
<g id="a_edge5_Node000003_Node000005"><a xlink:title=" ">
<path fill="none" stroke="#63b8ff" d="M235.83,-109.98C250.86,-101.69 273.95,-88.94 291.56,-79.22"/>
<polygon fill="#63b8ff" stroke="#63b8ff" points="293.64,-82.07 300.7,-74.17 290.26,-75.94 293.64,-82.07"/>
</a>
</g>
</g>
<!-- Node10 -->
<g id="Node000010" class="node">
<title>Node10</title>
<g id="a_Node000010"><a xlink:href="typelist_8h.html" target="_top" xlink:title=" ">
<polygon fill="white" stroke="#666666" points="129.91,-74 28.91,-74 28.91,-55 129.91,-55 129.91,-74"/>
<text text-anchor="middle" x="79.41" y="-62" font-family="Times,serif" font-size="10.00">ttg/util/typelist.h</text>
</a>
</g>
</g>
<!-- Node3&#45;&gt;Node10 -->
<g id="edge11_Node000003_Node000010" class="edge">
<title>Node3&#45;&gt;Node10</title>
<g id="a_edge11_Node000003_Node000010"><a xlink:title=" ">
<path fill="none" stroke="#63b8ff" d="M197.75,-109.98C174.56,-101.27 138.29,-87.63 112.01,-77.75"/>
<polygon fill="#63b8ff" stroke="#63b8ff" points="113.07,-74.41 102.47,-74.17 110.6,-80.97 113.07,-74.41"/>
</a>
</g>
</g>
<!-- Node5&#45;&gt;Node2 -->
<g id="edge9_Node000005_Node000002" class="edge">
<title>Node5&#45;&gt;Node2</title>
<g id="a_edge9_Node000005_Node000002"><a xlink:title=" ">
<path fill="none" stroke="#63b8ff" d="M291.02,-54.98C264.61,-46.13 223.06,-32.19 193.51,-22.28"/>
<polygon fill="#63b8ff" stroke="#63b8ff" points="194.59,-18.94 183.99,-19.08 192.36,-25.58 194.59,-18.94"/>
</a>
</g>
</g>
<!-- Node6 -->
<g id="Node000006" class="node">
<title>Node6</title>
<g id="a_Node000006"><a xlink:title=" ">
<polygon fill="#e0e0e0" stroke="#999999" points="341.41,-19 297.41,-19 297.41,0 341.41,0 341.41,-19"/>
<text text-anchor="middle" x="319.41" y="-7" font-family="Times,serif" font-size="10.00">array</text>
</a>
</g>
</g>
<!-- Node5&#45;&gt;Node6 -->
<g id="edge6_Node000005_Node000006" class="edge">
<title>Node5&#45;&gt;Node6</title>
<g id="a_edge6_Node000005_Node000006"><a xlink:title=" ">
<path fill="none" stroke="#63b8ff" d="M316.9,-54.75C317.3,-47.8 317.86,-37.85 318.35,-29.13"/>
<polygon fill="#63b8ff" stroke="#63b8ff" points="321.85,-29.27 318.92,-19.09 314.86,-28.88 321.85,-29.27"/>
</a>
</g>
</g>
<!-- Node7 -->
<g id="Node000007" class="node">
<title>Node7</title>
<g id="a_Node000007"><a xlink:title=" ">
<polygon fill="#e0e0e0" stroke="#999999" points="543.41,-19 489.41,-19 489.41,0 543.41,0 543.41,-19"/>
<text text-anchor="middle" x="516.41" y="-7" font-family="Times,serif" font-size="10.00">cstddef</text>
</a>
</g>
</g>
<!-- Node5&#45;&gt;Node7 -->
<g id="edge7_Node000005_Node000007" class="edge">
<title>Node5&#45;&gt;Node7</title>
<g id="a_edge7_Node000005_Node000007"><a xlink:title=" ">
<path fill="none" stroke="#63b8ff" d="M348.54,-54.98C384.17,-45.54 441.56,-30.33 479.14,-20.38"/>
<polygon fill="#63b8ff" stroke="#63b8ff" points="480.4,-23.66 489.17,-17.72 478.61,-16.9 480.4,-23.66"/>
</a>
</g>
</g>
<!-- Node8 -->
<g id="Node000008" class="node">
<title>Node8</title>
<g id="a_Node000008"><a xlink:title=" ">
<polygon fill="#e0e0e0" stroke="#999999" points="411.91,-19 360.91,-19 360.91,0 411.91,0 411.91,-19"/>
<text text-anchor="middle" x="386.41" y="-7" font-family="Times,serif" font-size="10.00">cstdint</text>
</a>
</g>
</g>
<!-- Node5&#45;&gt;Node8 -->
<g id="edge8_Node000005_Node000008" class="edge">
<title>Node5&#45;&gt;Node8</title>
<g id="a_edge8_Node000005_Node000008"><a xlink:title=" ">
<path fill="none" stroke="#63b8ff" d="M327.65,-54.98C338.21,-47 354.21,-34.88 366.85,-25.31"/>
<polygon fill="#63b8ff" stroke="#63b8ff" points="369.1,-28 374.96,-19.17 364.87,-22.42 369.1,-28"/>
</a>
</g>
</g>
<!-- Node9 -->
<g id="Node000009" class="node">
<title>Node9</title>
<g id="a_Node000009"><a xlink:title=" ">
<polygon fill="#e0e0e0" stroke="#999999" points="279.41,-19 213.41,-19 213.41,0 279.41,0 279.41,-19"/>
<text text-anchor="middle" x="246.41" y="-7" font-family="Times,serif" font-size="10.00">exception</text>
</a>
</g>
</g>
<!-- Node5&#45;&gt;Node9 -->
<g id="edge10_Node000005_Node000009" class="edge">
<title>Node5&#45;&gt;Node9</title>
<g id="a_edge10_Node000005_Node000009"><a xlink:title=" ">
<path fill="none" stroke="#63b8ff" d="M305.16,-54.98C294.61,-47 278.61,-34.88 265.97,-25.31"/>
<polygon fill="#63b8ff" stroke="#63b8ff" points="267.94,-22.42 257.86,-19.17 263.72,-28 267.94,-22.42"/>
</a>
</g>
</g>
<!-- Node11 -->
<g id="Node000011" class="node">
<title>Node11</title>
<g id="a_Node000011"><a xlink:title=" ">
<polygon fill="#e0e0e0" stroke="#999999" points="100.91,-19 57.91,-19 57.91,0 100.91,0 100.91,-19"/>
<text text-anchor="middle" x="79.41" y="-7" font-family="Times,serif" font-size="10.00">tuple</text>
</a>
</g>
</g>
<!-- Node10&#45;&gt;Node11 -->
<g id="edge12_Node000010_Node000011" class="edge">
<title>Node10&#45;&gt;Node11</title>
<g id="a_edge12_Node000010_Node000011"><a xlink:title=" ">
<path fill="none" stroke="#63b8ff" d="M79.41,-54.75C79.41,-47.8 79.41,-37.85 79.41,-29.13"/>
<polygon fill="#63b8ff" stroke="#63b8ff" points="82.91,-29.09 79.41,-19.09 75.91,-29.09 82.91,-29.09"/>
</a>
</g>
</g>
<!-- Node12&#45;&gt;Node7 -->
<g id="edge14_Node000012_Node000007" class="edge">
<title>Node12&#45;&gt;Node7</title>
<g id="a_edge14_Node000012_Node000007"><a xlink:title=" ">
<path fill="none" stroke="#63b8ff" d="M478.66,-224.63C505.66,-219.72 538.18,-208.69 555.41,-184 589.49,-135.15 550.04,-61.37 528.54,-28"/>
<polygon fill="#63b8ff" stroke="#63b8ff" points="531.24,-25.74 522.79,-19.36 525.42,-29.62 531.24,-25.74"/>
</a>
</g>
</g>
<!-- Node12&#45;&gt;Node8 -->
<g id="edge15_Node000012_Node000008" class="edge">
<title>Node12&#45;&gt;Node8</title>
<g id="a_edge15_Node000012_Node000008"><a xlink:title=" ">
<path fill="none" stroke="#63b8ff" d="M427.89,-219.81C421.79,-211.2 412.95,-197.39 408.41,-184 390.06,-129.97 386.79,-61.77 386.35,-29.32"/>
<polygon fill="#63b8ff" stroke="#63b8ff" points="389.85,-29.06 386.3,-19.08 382.85,-29.09 389.85,-29.06"/>
</a>
</g>
</g>
<!-- Node13 -->
<g id="Node000013" class="node">
<title>Node13</title>
<g id="a_Node000013"><a xlink:href="void_8h.html" target="_top" xlink:title=" ">
<polygon fill="white" stroke="#666666" points="357.91,-184 272.91,-184 272.91,-165 357.91,-165 357.91,-184"/>
<text text-anchor="middle" x="315.41" y="-172" font-family="Times,serif" font-size="10.00">ttg/util/void.h</text>
</a>
</g>
</g>
<!-- Node12&#45;&gt;Node13 -->
<g id="edge16_Node000012_Node000013" class="edge">
<title>Node12&#45;&gt;Node13</title>
<g id="a_edge16_Node000012_Node000013"><a xlink:title=" ">
<path fill="none" stroke="#63b8ff" d="M415.29,-219.98C396.06,-211.42 366.17,-198.11 344.1,-188.28"/>
<polygon fill="#63b8ff" stroke="#63b8ff" points="345.43,-185.04 334.87,-184.17 342.59,-191.44 345.43,-185.04"/>
</a>
</g>
</g>
<!-- Node15 -->
<g id="Node000015" class="node">
<title>Node15</title>
<g id="a_Node000015"><a xlink:href="util_2hash_2std_2pair_8h.html" target="_top" xlink:title=" ">
<polygon fill="white" stroke="#666666" points="545.91,-184 416.91,-184 416.91,-165 545.91,-165 545.91,-184"/>
<text text-anchor="middle" x="481.41" y="-172" font-family="Times,serif" font-size="10.00">ttg/util/hash/std/pair.h</text>
</a>
</g>
</g>
<!-- Node12&#45;&gt;Node15 -->
<g id="edge19_Node000012_Node000015" class="edge">
<title>Node12&#45;&gt;Node15</title>
<g id="a_edge19_Node000012_Node000015"><a xlink:title=" ">
<path fill="none" stroke="#63b8ff" d="M437,-219.75C442.19,-212.03 451.97,-200.6 461.18,-191.28"/>
<polygon fill="#63b8ff" stroke="#63b8ff" points="463.88,-193.54 468.66,-184.09 459.03,-188.5 463.88,-193.54"/>
</a>
</g>
</g>
<!-- Node13&#45;&gt;Node3 -->
<g id="edge18_Node000013_Node000003" class="edge">
<title>Node13&#45;&gt;Node3</title>
<g id="a_edge18_Node000013_Node000003"><a xlink:title=" ">
<path fill="none" stroke="#63b8ff" d="M300.14,-164.98C285.27,-156.69 262.43,-143.94 244.99,-134.22"/>
<polygon fill="#63b8ff" stroke="#63b8ff" points="246.39,-130.99 235.95,-129.17 242.98,-137.1 246.39,-130.99"/>
</a>
</g>
</g>
<!-- Node14 -->
<g id="Node000014" class="node">
<title>Node14</title>
<g id="a_Node000014"><a xlink:title=" ">
<polygon fill="#e0e0e0" stroke="#999999" points="345.91,-129 284.91,-129 284.91,-110 345.91,-110 345.91,-129"/>
<text text-anchor="middle" x="315.41" y="-117" font-family="Times,serif" font-size="10.00">iostream</text>
</a>
</g>
</g>
<!-- Node13&#45;&gt;Node14 -->
<g id="edge17_Node000013_Node000014" class="edge">
<title>Node13&#45;&gt;Node14</title>
<g id="a_edge17_Node000013_Node000014"><a xlink:title=" ">
<path fill="none" stroke="#63b8ff" d="M315.41,-164.75C315.41,-157.8 315.41,-147.85 315.41,-139.13"/>
<polygon fill="#63b8ff" stroke="#63b8ff" points="318.91,-139.09 315.41,-129.09 311.91,-139.09 318.91,-139.09"/>
</a>
</g>
</g>
<!-- Node15&#45;&gt;Node12 -->
<g id="edge20_Node000015_Node000012" class="edge">
<title>Node15&#45;&gt;Node12</title>
<g id="a_edge20_Node000015_Node000012"><a xlink:title=" ">
<path fill="none" stroke="#63b8ff" d="M478.87,-184.17C473.64,-191.98 463.64,-203.64 454.31,-213.04"/>
<polygon fill="#63b8ff" stroke="#63b8ff" points="451.87,-210.54 447.07,-219.98 456.71,-215.59 451.87,-210.54"/>
</a>
</g>
</g>
<!-- Node16 -->
<g id="Node000016" class="node">
<title>Node16</title>
<g id="a_Node000016"><a xlink:title=" ">
<polygon fill="#e0e0e0" stroke="#999999" points="504.41,-129 458.41,-129 458.41,-110 504.41,-110 504.41,-129"/>
<text text-anchor="middle" x="481.41" y="-117" font-family="Times,serif" font-size="10.00">utility</text>
</a>
</g>
</g>
<!-- Node15&#45;&gt;Node16 -->
<g id="edge21_Node000015_Node000016" class="edge">
<title>Node15&#45;&gt;Node16</title>
<g id="a_edge21_Node000015_Node000016"><a xlink:title=" ">
<path fill="none" stroke="#63b8ff" d="M481.41,-164.75C481.41,-157.8 481.41,-147.85 481.41,-139.13"/>
<polygon fill="#63b8ff" stroke="#63b8ff" points="484.91,-139.09 481.41,-129.09 477.91,-139.09 484.91,-139.09"/>
</a>
</g>
</g>
</g>
</svg>

<g id="navigator" transform="translate(0 0)" fill="#404254">
  <rect fill="#f2f5e9" fill-opacity="0.5" stroke="#606060" stroke-width=".5" x="0" y="0" width="60" height="60"/>
  <use id="zoomplus" xlink:href="#zoomPlus" x="17" y="9" onmousedown="handleZoom(evt,'in')"/>
  <use id="zoomminus" xlink:href="#zoomMin" x="42" y="9" onmousedown="handleZoom(evt,'out')"/>
  <use id="reset" xlink:href="#resetDef" x="30" y="36" onmousedown="handleReset()"/>
   <use id="arrowup" xlink:href="#arrowUp" x="0" y="0" onmousedown="handlePan(0,-1)"/>
  <use id="arrowright" xlink:href="#arrowRight" x="0" y="0" onmousedown="handlePan(1,0)"/>
  <use id="arrowdown" xlink:href="#arrowDown" x="0" y="0" onmousedown="handlePan(0,1)"/>
  <use id="arrowleft" xlink:href="#arrowLeft" x="0" y="0" onmousedown="handlePan(-1,0)"/>
</g>
<svg viewBox="0 0 15 15" width="100%" height="30px" preserveAspectRatio="xMaxYMin meet">
 <g id="arrow_out" transform="scale(0.3 0.3)">
  <a xlink:href="keymap_8h__incl_org.svg" target="_base">
   <rect id="button" ry="5" rx="5" y="6" x="6" height="38" width="38"
        fill="#f2f5e9" fill-opacity="0.5" stroke="#606060" stroke-width="1.0"/>
   <path id="arrow"
     d="M 11.500037,31.436501 C 11.940474,20.09759 22.043105,11.32322 32.158766,21.979434 L 37.068811,17.246167 C 37.068811,17.246167 37.088388,32 37.088388,32 L 22.160133,31.978069 C 22.160133,31.978069 26.997745,27.140456 26.997745,27.140456 C 18.528582,18.264221 13.291696,25.230495 11.500037,31.436501 z"
     style="fill:#404040;"/>
  </a>
 </g>
</svg>

<style type='text/css'>
<![CDATA[
[data-mouse-over-selected='false'] { opacity: 0.7; }
[data-mouse-over-selected='true']  { opacity: 1.0; }
]]>
</style>
<script type="application/ecmascript"><![CDATA[
document.addEventListener('DOMContentLoaded', (event) => {
  highlightEdges();
  highlightAdjacentNodes();
});
]]></script>
</svg>
