<?xml version="1.0" encoding="UTF-8" standalone="no"?>
<!DOCTYPE svg PUBLIC "-//W3C//DTD SVG 1.1//EN"
 "http://www.w3.org/Graphics/SVG/1.1/DTD/svg11.dtd">
<!-- Generated by graphviz version 2.43.0 (0)
 -->
<!-- Title: ttg/ttg/madness/buffer.h Pages: 1 -->
<svg width="871pt" height="258pt"
 viewBox="0.00 0.00 870.52 258.00" xmlns="http://www.w3.org/2000/svg" xmlns:xlink="http://www.w3.org/1999/xlink">
<g id="graph0" class="graph" transform="scale(1 1) rotate(0) translate(4 254)">
<title>ttg/ttg/madness/buffer.h</title>
<!-- Node1 -->
<g id="Node000001" class="node">
<title>Node1</title>
<g id="a_Node000001"><a xlink:title=" ">
<polygon fill="#999999" stroke="#666666" points="711.02,-250 571.02,-250 571.02,-231 711.02,-231 711.02,-250"/>
<text text-anchor="middle" x="641.02" y="-238" font-family="Times,serif" font-size="10.00">ttg/ttg/madness/buffer.h</text>
</a>
</g>
</g>
<!-- Node2 -->
<g id="Node000002" class="node">
<title>Node2</title>
<g id="a_Node000002"><a xlink:href="traits_8h.html" target="_top" xlink:title=" ">
<polygon fill="white" stroke="#666666" points="339.02,-195 205.02,-195 205.02,-176 339.02,-176 339.02,-195"/>
<text text-anchor="middle" x="272.02" y="-183" font-family="Times,serif" font-size="10.00">ttg/serialization/traits.h</text>
</a>
</g>
</g>
<!-- Node1&#45;&gt;Node2 -->
<g id="edge1_Node000001_Node000002" class="edge">
<title>Node1&#45;&gt;Node2</title>
<g id="a_edge1_Node000001_Node000002"><a xlink:title=" ">
<path fill="none" stroke="#63b8ff" d="M581.74,-230.98C516.2,-221.57 410.76,-206.43 341.43,-196.47"/>
<polygon fill="#63b8ff" stroke="#63b8ff" points="341.86,-193 331.47,-195.04 340.87,-199.92 341.86,-193"/>
</a>
</g>
</g>
<!-- Node17 -->
<g id="Node000017" class="node">
<title>Node17</title>
<g id="a_Node000017"><a xlink:href="device_2device_8h.html" target="_top" xlink:title=" ">
<polygon fill="white" stroke="#666666" points="697.52,-195 584.52,-195 584.52,-176 697.52,-176 697.52,-195"/>
<text text-anchor="middle" x="641.02" y="-183" font-family="Times,serif" font-size="10.00">ttg/device/device.h</text>
</a>
</g>
</g>
<!-- Node1&#45;&gt;Node17 -->
<g id="edge21_Node000001_Node000017" class="edge">
<title>Node1&#45;&gt;Node17</title>
<g id="a_edge21_Node000001_Node000017"><a xlink:title=" ">
<path fill="none" stroke="#63b8ff" d="M641.02,-230.75C641.02,-223.8 641.02,-213.85 641.02,-205.13"/>
<polygon fill="#63b8ff" stroke="#63b8ff" points="644.52,-205.09 641.02,-195.09 637.52,-205.09 644.52,-205.09"/>
</a>
</g>
</g>
<!-- Node22 -->
<g id="Node000022" class="node">
<title>Node22</title>
<g id="a_Node000022"><a xlink:title=" ">
<polygon fill="#e0e0e0" stroke="#999999" points="774.52,-195 715.52,-195 715.52,-176 774.52,-176 774.52,-195"/>
<text text-anchor="middle" x="745.02" y="-183" font-family="Times,serif" font-size="10.00">memory</text>
</a>
</g>
</g>
<!-- Node1&#45;&gt;Node22 -->
<g id="edge28_Node000001_Node000022" class="edge">
<title>Node1&#45;&gt;Node22</title>
<g id="a_edge28_Node000001_Node000022"><a xlink:title=" ">
<path fill="none" stroke="#63b8ff" d="M657.73,-230.98C674.24,-222.57 699.72,-209.59 718.9,-199.81"/>
<polygon fill="#63b8ff" stroke="#63b8ff" points="720.69,-202.83 728.01,-195.17 717.51,-196.59 720.69,-202.83"/>
</a>
</g>
</g>
<!-- Node3 -->
<g id="Node000003" class="node">
<title>Node3</title>
<g id="a_Node000003"><a xlink:href="meta_8h.html" target="_top" xlink:title=" ">
<polygon fill="white" stroke="#666666" points="506.52,-140 417.52,-140 417.52,-121 506.52,-121 506.52,-140"/>
<text text-anchor="middle" x="462.02" y="-128" font-family="Times,serif" font-size="10.00">ttg/util/meta.h</text>
</a>
</g>
</g>
<!-- Node2&#45;&gt;Node3 -->
<g id="edge2_Node000002_Node000003" class="edge">
<title>Node2&#45;&gt;Node3</title>
<g id="a_edge2_Node000002_Node000003"><a xlink:title=" ">
<path fill="none" stroke="#63b8ff" d="M302.55,-175.98C334.73,-167.01 385.58,-152.82 421.19,-142.89"/>
<polygon fill="#63b8ff" stroke="#63b8ff" points="422.57,-146.14 431.26,-140.08 420.68,-139.4 422.57,-146.14"/>
</a>
</g>
</g>
<!-- Node5 -->
<g id="Node000005" class="node">
<title>Node5</title>
<g id="a_Node000005"><a xlink:title=" ">
<polygon fill="#e0e0e0" stroke="#999999" points="293.52,-19 222.52,-19 222.52,0 293.52,0 293.52,-19"/>
<text text-anchor="middle" x="258.02" y="-7" font-family="Times,serif" font-size="10.00">type_traits</text>
</a>
</g>
</g>
<!-- Node2&#45;&gt;Node5 -->
<g id="edge13_Node000002_Node000005" class="edge">
<title>Node2&#45;&gt;Node5</title>
<g id="a_edge13_Node000002_Node000005"><a xlink:title=" ">
<path fill="none" stroke="#63b8ff" d="M204.53,-183.35C158.19,-179.72 96.99,-169.1 51.02,-140 15.59,-117.56 -16.89,-87.17 10.02,-55 35.28,-24.81 147.61,-15.07 212.09,-11.95"/>
<polygon fill="#63b8ff" stroke="#63b8ff" points="212.56,-15.44 222.39,-11.49 212.24,-8.44 212.56,-15.44"/>
</a>
</g>
</g>
<!-- Node13 -->
<g id="Node000013" class="node">
<title>Node13</title>
<g id="a_Node000013"><a xlink:title=" ">
<polygon fill="#e0e0e0" stroke="#999999" points="121.52,-140 60.52,-140 60.52,-121 121.52,-121 121.52,-140"/>
<text text-anchor="middle" x="91.02" y="-128" font-family="Times,serif" font-size="10.00">iostream</text>
</a>
</g>
</g>
<!-- Node2&#45;&gt;Node13 -->
<g id="edge14_Node000002_Node000013" class="edge">
<title>Node2&#45;&gt;Node13</title>
<g id="a_edge14_Node000002_Node000013"><a xlink:title=" ">
<path fill="none" stroke="#63b8ff" d="M242.94,-175.98C212.42,-167.05 164.26,-152.94 130.36,-143.02"/>
<polygon fill="#63b8ff" stroke="#63b8ff" points="130.91,-139.53 120.33,-140.08 128.95,-146.25 130.91,-139.53"/>
</a>
</g>
</g>
<!-- Node14 -->
<g id="Node000014" class="node">
<title>Node14</title>
<g id="a_Node000014"><a xlink:href="backends_8h.html" target="_top" xlink:title=" ">
<polygon fill="white" stroke="#666666" points="296.52,-140 139.52,-140 139.52,-121 296.52,-121 296.52,-140"/>
<text text-anchor="middle" x="218.02" y="-128" font-family="Times,serif" font-size="10.00">ttg/serialization/backends.h</text>
</a>
</g>
</g>
<!-- Node2&#45;&gt;Node14 -->
<g id="edge15_Node000002_Node000014" class="edge">
<title>Node2&#45;&gt;Node14</title>
<g id="a_edge15_Node000002_Node000014"><a xlink:title=" ">
<path fill="none" stroke="#63b8ff" d="M263.11,-175.75C255.24,-168.03 243.59,-156.6 234.1,-147.28"/>
<polygon fill="#63b8ff" stroke="#63b8ff" points="236.36,-144.6 226.77,-140.09 231.46,-149.59 236.36,-144.6"/>
</a>
</g>
</g>
<!-- Node4 -->
<g id="Node000004" class="node">
<title>Node4</title>
<g id="a_Node000004"><a xlink:title=" ">
<polygon fill="#e0e0e0" stroke="#999999" points="418.02,-79.5 350.02,-79.5 350.02,-60.5 418.02,-60.5 418.02,-79.5"/>
<text text-anchor="middle" x="384.02" y="-67.5" font-family="Times,serif" font-size="10.00">functional</text>
</a>
</g>
</g>
<!-- Node3&#45;&gt;Node4 -->
<g id="edge3_Node000003_Node000004" class="edge">
<title>Node3&#45;&gt;Node4</title>
<g id="a_edge3_Node000003_Node000004"><a xlink:title=" ">
<path fill="none" stroke="#63b8ff" d="M450.51,-120.87C438.19,-111.62 418.4,-96.78 403.62,-85.69"/>
<polygon fill="#63b8ff" stroke="#63b8ff" points="405.68,-82.87 395.58,-79.67 401.48,-88.47 405.68,-82.87"/>
</a>
</g>
</g>
<!-- Node3&#45;&gt;Node5 -->
<g id="edge4_Node000003_Node000005" class="edge">
<title>Node3&#45;&gt;Node5</title>
<g id="a_edge4_Node000003_Node000005"><a xlink:title=" ">
<path fill="none" stroke="#63b8ff" d="M460.46,-120.91C457.16,-105.34 448,-72.47 427.02,-55 408.41,-39.49 347.25,-26.02 303.87,-18.07"/>
<polygon fill="#63b8ff" stroke="#63b8ff" points="304.28,-14.59 293.82,-16.27 303.04,-21.48 304.28,-14.59"/>
</a>
</g>
</g>
<!-- Node6 -->
<g id="Node000006" class="node">
<title>Node6</title>
<g id="a_Node000006"><a xlink:href="span_8h.html" target="_top" xlink:title=" ">
<polygon fill="white" stroke="#666666" points="562.02,-79.5 474.02,-79.5 474.02,-60.5 562.02,-60.5 562.02,-79.5"/>
<text text-anchor="middle" x="518.02" y="-67.5" font-family="Times,serif" font-size="10.00">ttg/util/span.h</text>
</a>
</g>
</g>
<!-- Node3&#45;&gt;Node6 -->
<g id="edge5_Node000003_Node000006" class="edge">
<title>Node3&#45;&gt;Node6</title>
<g id="a_edge5_Node000003_Node000006"><a xlink:title=" ">
<path fill="none" stroke="#63b8ff" d="M470.29,-120.87C478.81,-111.97 492.29,-97.89 502.75,-86.95"/>
<polygon fill="#63b8ff" stroke="#63b8ff" points="505.34,-89.31 509.73,-79.67 500.28,-84.47 505.34,-89.31"/>
</a>
</g>
</g>
<!-- Node11 -->
<g id="Node000011" class="node">
<title>Node11</title>
<g id="a_Node000011"><a xlink:href="typelist_8h.html" target="_top" xlink:title=" ">
<polygon fill="white" stroke="#666666" points="681.52,-79.5 580.52,-79.5 580.52,-60.5 681.52,-60.5 681.52,-79.5"/>
<text text-anchor="middle" x="631.02" y="-67.5" font-family="Times,serif" font-size="10.00">ttg/util/typelist.h</text>
</a>
</g>
</g>
<!-- Node3&#45;&gt;Node11 -->
<g id="edge11_Node000003_Node000011" class="edge">
<title>Node3&#45;&gt;Node11</title>
<g id="a_edge11_Node000003_Node000011"><a xlink:title=" ">
<path fill="none" stroke="#63b8ff" d="M486.6,-120.99C515.64,-110.94 564.12,-94.16 596.82,-82.84"/>
<polygon fill="#63b8ff" stroke="#63b8ff" points="598.11,-86.1 606.42,-79.52 595.83,-79.48 598.11,-86.1"/>
</a>
</g>
</g>
<!-- Node6&#45;&gt;Node5 -->
<g id="edge9_Node000006_Node000005" class="edge">
<title>Node6&#45;&gt;Node5</title>
<g id="a_edge9_Node000006_Node000005"><a xlink:title=" ">
<path fill="none" stroke="#63b8ff" d="M483.09,-60.45C475.49,-58.62 467.49,-56.72 460.02,-55 406.48,-42.64 344.77,-29.16 303.79,-20.31"/>
<polygon fill="#63b8ff" stroke="#63b8ff" points="304.34,-16.85 293.83,-18.16 302.87,-23.69 304.34,-16.85"/>
</a>
</g>
</g>
<!-- Node7 -->
<g id="Node000007" class="node">
<title>Node7</title>
<g id="a_Node000007"><a xlink:title=" ">
<polygon fill="#e0e0e0" stroke="#999999" points="540.02,-19 496.02,-19 496.02,0 540.02,0 540.02,-19"/>
<text text-anchor="middle" x="518.02" y="-7" font-family="Times,serif" font-size="10.00">array</text>
</a>
</g>
</g>
<!-- Node6&#45;&gt;Node7 -->
<g id="edge6_Node000006_Node000007" class="edge">
<title>Node6&#45;&gt;Node7</title>
<g id="a_edge6_Node000006_Node000007"><a xlink:title=" ">
<path fill="none" stroke="#63b8ff" d="M518.02,-60.37C518.02,-52.25 518.02,-39.81 518.02,-29.39"/>
<polygon fill="#63b8ff" stroke="#63b8ff" points="521.52,-29.17 518.02,-19.17 514.52,-29.17 521.52,-29.17"/>
</a>
</g>
</g>
<!-- Node8 -->
<g id="Node000008" class="node">
<title>Node8</title>
<g id="a_Node000008"><a xlink:title=" ">
<polygon fill="#e0e0e0" stroke="#999999" points="612.02,-19 558.02,-19 558.02,0 612.02,0 612.02,-19"/>
<text text-anchor="middle" x="585.02" y="-7" font-family="Times,serif" font-size="10.00">cstddef</text>
</a>
</g>
</g>
<!-- Node6&#45;&gt;Node8 -->
<g id="edge7_Node000006_Node000008" class="edge">
<title>Node6&#45;&gt;Node8</title>
<g id="a_edge7_Node000006_Node000008"><a xlink:title=" ">
<path fill="none" stroke="#63b8ff" d="M527.91,-60.37C538.3,-51.3 554.86,-36.84 567.48,-25.82"/>
<polygon fill="#63b8ff" stroke="#63b8ff" points="569.87,-28.38 575.1,-19.17 565.26,-23.11 569.87,-28.38"/>
</a>
</g>
</g>
<!-- Node9 -->
<g id="Node000009" class="node">
<title>Node9</title>
<g id="a_Node000009"><a xlink:title=" ">
<polygon fill="#e0e0e0" stroke="#999999" points="393.52,-19 342.52,-19 342.52,0 393.52,0 393.52,-19"/>
<text text-anchor="middle" x="368.02" y="-7" font-family="Times,serif" font-size="10.00">cstdint</text>
</a>
</g>
</g>
<!-- Node6&#45;&gt;Node9 -->
<g id="edge8_Node000006_Node000009" class="edge">
<title>Node6&#45;&gt;Node9</title>
<g id="a_edge8_Node000006_Node000009"><a xlink:title=" ">
<path fill="none" stroke="#63b8ff" d="M496.21,-60.49C470.77,-50.57 428.51,-34.09 399.52,-22.78"/>
<polygon fill="#63b8ff" stroke="#63b8ff" points="400.45,-19.39 389.86,-19.02 397.91,-25.91 400.45,-19.39"/>
</a>
</g>
</g>
<!-- Node10 -->
<g id="Node000010" class="node">
<title>Node10</title>
<g id="a_Node000010"><a xlink:title=" ">
<polygon fill="#e0e0e0" stroke="#999999" points="478.02,-19 412.02,-19 412.02,0 478.02,0 478.02,-19"/>
<text text-anchor="middle" x="445.02" y="-7" font-family="Times,serif" font-size="10.00">exception</text>
</a>
</g>
</g>
<!-- Node6&#45;&gt;Node10 -->
<g id="edge10_Node000006_Node000010" class="edge">
<title>Node6&#45;&gt;Node10</title>
<g id="a_edge10_Node000006_Node000010"><a xlink:title=" ">
<path fill="none" stroke="#63b8ff" d="M507.25,-60.37C495.82,-51.21 477.54,-36.56 463.75,-25.51"/>
<polygon fill="#63b8ff" stroke="#63b8ff" points="465.83,-22.69 455.84,-19.17 461.45,-28.15 465.83,-22.69"/>
</a>
</g>
</g>
<!-- Node12 -->
<g id="Node000012" class="node">
<title>Node12</title>
<g id="a_Node000012"><a xlink:title=" ">
<polygon fill="#e0e0e0" stroke="#999999" points="673.52,-19 630.52,-19 630.52,0 673.52,0 673.52,-19"/>
<text text-anchor="middle" x="652.02" y="-7" font-family="Times,serif" font-size="10.00">tuple</text>
</a>
</g>
</g>
<!-- Node11&#45;&gt;Node12 -->
<g id="edge12_Node000011_Node000012" class="edge">
<title>Node11&#45;&gt;Node12</title>
<g id="a_edge12_Node000011_Node000012"><a xlink:title=" ">
<path fill="none" stroke="#63b8ff" d="M634.12,-60.37C637.1,-52.07 641.69,-39.28 645.48,-28.72"/>
<polygon fill="#63b8ff" stroke="#63b8ff" points="648.83,-29.76 648.91,-19.17 642.24,-27.4 648.83,-29.76"/>
</a>
</g>
</g>
<!-- Node15 -->
<g id="Node000015" class="node">
<title>Node15</title>
<g id="a_Node000015"><a xlink:href="boost_8h.html" target="_top" xlink:title=" ">
<polygon fill="white" stroke="#666666" points="166.52,-85 19.52,-85 19.52,-55 166.52,-55 166.52,-85"/>
<text text-anchor="start" x="27.52" y="-73" font-family="Times,serif" font-size="10.00">ttg/serialization/backends</text>
<text text-anchor="middle" x="93.02" y="-62" font-family="Times,serif" font-size="10.00">/boost.h</text>
</a>
</g>
</g>
<!-- Node14&#45;&gt;Node15 -->
<g id="edge16_Node000014_Node000015" class="edge">
<title>Node14&#45;&gt;Node15</title>
<g id="a_edge16_Node000014_Node000015"><a xlink:title=" ">
<path fill="none" stroke="#63b8ff" d="M199.85,-120.99C182.31,-112.79 155.18,-100.09 132.65,-89.55"/>
<polygon fill="#63b8ff" stroke="#63b8ff" points="133.86,-86.25 123.32,-85.18 130.89,-92.59 133.86,-86.25"/>
</a>
</g>
</g>
<!-- Node16 -->
<g id="Node000016" class="node">
<title>Node16</title>
<g id="a_Node000016"><a xlink:href="madness_8h.html" target="_top" xlink:title=" ">
<polygon fill="white" stroke="#666666" points="331.52,-85 184.52,-85 184.52,-55 331.52,-55 331.52,-85"/>
<text text-anchor="start" x="192.52" y="-73" font-family="Times,serif" font-size="10.00">ttg/serialization/backends</text>
<text text-anchor="middle" x="258.02" y="-62" font-family="Times,serif" font-size="10.00">/madness.h</text>
</a>
</g>
</g>
<!-- Node14&#45;&gt;Node16 -->
<g id="edge18_Node000014_Node000016" class="edge">
<title>Node14&#45;&gt;Node16</title>
<g id="a_edge18_Node000014_Node000016"><a xlink:title=" ">
<path fill="none" stroke="#63b8ff" d="M223.93,-120.87C228.85,-113.67 236.1,-103.07 242.64,-93.49"/>
<polygon fill="#63b8ff" stroke="#63b8ff" points="245.62,-95.34 248.37,-85.11 239.84,-91.39 245.62,-95.34"/>
</a>
</g>
</g>
<!-- Node15&#45;&gt;Node5 -->
<g id="edge17_Node000015_Node000005" class="edge">
<title>Node15&#45;&gt;Node5</title>
<g id="a_edge17_Node000015_Node000005"><a xlink:title=" ">
<path fill="none" stroke="#63b8ff" d="M132.55,-54.99C160.44,-45.1 197.44,-31.98 224.02,-22.56"/>
<polygon fill="#63b8ff" stroke="#63b8ff" points="225.4,-25.78 233.66,-19.14 223.06,-19.18 225.4,-25.78"/>
</a>
</g>
</g>
<!-- Node16&#45;&gt;Node2 -->
<g id="edge20_Node000016_Node000002" class="edge">
<title>Node16&#45;&gt;Node2</title>
<g id="a_edge20_Node000016_Node000002"><a xlink:title=" ">
<path fill="none" stroke="#63b8ff" d="M277.31,-85.37C287.66,-94.32 299.41,-106.82 305.02,-121 311.63,-137.68 300.29,-155.74 289.14,-168.32"/>
<polygon fill="#63b8ff" stroke="#63b8ff" points="286.43,-166.09 282.04,-175.73 291.49,-170.93 286.43,-166.09"/>
</a>
</g>
</g>
<!-- Node16&#45;&gt;Node5 -->
<g id="edge19_Node000016_Node000005" class="edge">
<title>Node16&#45;&gt;Node5</title>
<g id="a_edge19_Node000016_Node000005"><a xlink:title=" ">
<path fill="none" stroke="#63b8ff" d="M258.02,-54.84C258.02,-47.21 258.02,-37.7 258.02,-29.45"/>
<polygon fill="#63b8ff" stroke="#63b8ff" points="261.52,-29.27 258.02,-19.27 254.52,-29.27 261.52,-29.27"/>
</a>
</g>
</g>
<!-- Node17&#45;&gt;Node3 -->
<g id="edge27_Node000017_Node000003" class="edge">
<title>Node17&#45;&gt;Node3</title>
<g id="a_edge27_Node000017_Node000003"><a xlink:title=" ">
<path fill="none" stroke="#63b8ff" d="M612.26,-175.98C582.08,-167.05 534.45,-152.94 500.93,-143.02"/>
<polygon fill="#63b8ff" stroke="#63b8ff" points="501.59,-139.57 491.01,-140.08 499.6,-146.28 501.59,-139.57"/>
</a>
</g>
</g>
<!-- Node18 -->
<g id="Node000018" class="node">
<title>Node18</title>
<g id="a_Node000018"><a xlink:title=" ">
<polygon fill="#e0e0e0" stroke="#999999" points="862.52,-140 787.52,-140 787.52,-121 862.52,-121 862.52,-140"/>
<text text-anchor="middle" x="825.02" y="-128" font-family="Times,serif" font-size="10.00">ttg/config.h</text>
</a>
</g>
</g>
<!-- Node17&#45;&gt;Node18 -->
<g id="edge22_Node000017_Node000018" class="edge">
<title>Node17&#45;&gt;Node18</title>
<g id="a_edge22_Node000017_Node000018"><a xlink:title=" ">
<path fill="none" stroke="#63b8ff" d="M670.59,-175.98C701.75,-167.01 751,-152.82 785.48,-142.89"/>
<polygon fill="#63b8ff" stroke="#63b8ff" points="786.59,-146.21 795.23,-140.08 784.65,-139.49 786.59,-146.21"/>
</a>
</g>
</g>
<!-- Node19 -->
<g id="Node000019" class="node">
<title>Node19</title>
<g id="a_Node000019"><a xlink:href="execution_8h.html" target="_top" xlink:title=" ">
<polygon fill="white" stroke="#666666" points="650.52,-140 557.52,-140 557.52,-121 650.52,-121 650.52,-140"/>
<text text-anchor="middle" x="604.02" y="-128" font-family="Times,serif" font-size="10.00">ttg/execution.h</text>
</a>
</g>
</g>
<!-- Node17&#45;&gt;Node19 -->
<g id="edge23_Node000017_Node000019" class="edge">
<title>Node17&#45;&gt;Node19</title>
<g id="a_edge23_Node000017_Node000019"><a xlink:title=" ">
<path fill="none" stroke="#63b8ff" d="M634.91,-175.75C629.74,-168.34 622.18,-157.5 615.83,-148.41"/>
<polygon fill="#63b8ff" stroke="#63b8ff" points="618.61,-146.29 610.02,-140.09 612.87,-150.29 618.61,-146.29"/>
</a>
</g>
</g>
<!-- Node20 -->
<g id="Node000020" class="node">
<title>Node20</title>
<g id="a_Node000020"><a xlink:href="impl__selector_8h.html" target="_top" xlink:title=" ">
<polygon fill="white" stroke="#666666" points="810.02,-79.5 700.02,-79.5 700.02,-60.5 810.02,-60.5 810.02,-79.5"/>
<text text-anchor="middle" x="755.02" y="-67.5" font-family="Times,serif" font-size="10.00">ttg/impl_selector.h</text>
</a>
</g>
</g>
<!-- Node17&#45;&gt;Node20 -->
<g id="edge24_Node000017_Node000020" class="edge">
<title>Node17&#45;&gt;Node20</title>
<g id="a_edge24_Node000017_Node000020"><a xlink:title=" ">
<path fill="none" stroke="#63b8ff" d="M648.1,-175.99C658.58,-163.52 679.06,-139.75 698.02,-121 710.26,-108.91 724.86,-96.13 736.22,-86.52"/>
<polygon fill="#63b8ff" stroke="#63b8ff" points="738.76,-88.95 744.18,-79.85 734.26,-83.59 738.76,-88.95"/>
</a>
</g>
</g>
<!-- Node21 -->
<g id="Node000021" class="node">
<title>Node21</title>
<g id="a_Node000021"><a xlink:href="fwd_8h.html" target="_top" xlink:title=" ">
<polygon fill="white" stroke="#666666" points="769.02,-140 707.02,-140 707.02,-121 769.02,-121 769.02,-140"/>
<text text-anchor="middle" x="738.02" y="-128" font-family="Times,serif" font-size="10.00">ttg/fwd.h</text>
</a>
</g>
</g>
<!-- Node17&#45;&gt;Node21 -->
<g id="edge25_Node000017_Node000021" class="edge">
<title>Node17&#45;&gt;Node21</title>
<g id="a_edge25_Node000017_Node000021"><a xlink:title=" ">
<path fill="none" stroke="#63b8ff" d="M656.61,-175.98C671.79,-167.69 695.12,-154.94 712.92,-145.22"/>
<polygon fill="#63b8ff" stroke="#63b8ff" points="715.06,-148.04 722.16,-140.17 711.7,-141.89 715.06,-148.04"/>
</a>
</g>
</g>
<!-- Node21&#45;&gt;Node20 -->
<g id="edge26_Node000021_Node000020" class="edge">
<title>Node21&#45;&gt;Node20</title>
<g id="a_edge26_Node000021_Node000020"><a xlink:title=" ">
<path fill="none" stroke="#63b8ff" d="M740.53,-120.87C742.92,-112.66 746.58,-100.04 749.63,-89.55"/>
<polygon fill="#63b8ff" stroke="#63b8ff" points="753.08,-90.25 752.5,-79.67 746.35,-88.29 753.08,-90.25"/>
</a>
</g>
</g>
</g>
</svg>
