<?xml version="1.0" encoding="UTF-8" standalone="no"?>
<!DOCTYPE svg PUBLIC "-//W3C//DTD SVG 1.1//EN"
 "http://www.w3.org/Graphics/SVG/1.1/DTD/svg11.dtd">
<!-- Generated by graphviz version 2.43.0 (0)
 -->
<!-- Title: ttg/ttg/madness/buffer.h Pages: 1 -->
<svg width="216pt" height="137pt"
 viewBox="0.00 0.00 215.50 137.00" xmlns="http://www.w3.org/2000/svg" xmlns:xlink="http://www.w3.org/1999/xlink">
<g id="graph0" class="graph" transform="scale(1 1) rotate(0) translate(4 133)">
<title>ttg/ttg/madness/buffer.h</title>
<!-- Node1 -->
<g id="Node000001" class="node">
<title>Node1</title>
<g id="a_Node000001"><a xlink:title=" ">
<polygon fill="#999999" stroke="#666666" points="207.5,-129 67.5,-129 67.5,-110 207.5,-110 207.5,-129"/>
<text text-anchor="middle" x="137.5" y="-117" font-family="Times,serif" font-size="10.00">ttg/ttg/madness/buffer.h</text>
</a>
</g>
</g>
<!-- Node2 -->
<g id="Node000002" class="node">
<title>Node2</title>
<g id="a_Node000002"><a xlink:href="madness_2devicefunc_8h.html" target="_top" xlink:title=" ">
<polygon fill="white" stroke="#666666" points="165,-74 0,-74 0,-55 165,-55 165,-74"/>
<text text-anchor="middle" x="82.5" y="-62" font-family="Times,serif" font-size="10.00">ttg/ttg/madness/devicefunc.h</text>
</a>
</g>
</g>
<!-- Node1&#45;&gt;Node2 -->
<g id="edge1_Node000001_Node000002" class="edge">
<title>Node1&#45;&gt;Node2</title>
<g id="a_edge1_Node000001_Node000002"><a xlink:title=" ">
<path fill="none" stroke="#63b8ff" d="M121.21,-102.8C111.46,-93.41 99.45,-81.83 91.41,-74.09"/>
<polygon fill="#63b8ff" stroke="#63b8ff" points="118.79,-105.33 128.42,-109.75 123.65,-100.29 118.79,-105.33"/>
</a>
</g>
</g>
<!-- Node3 -->
<g id="Node000003" class="node">
<title>Node3</title>
<g id="a_Node000003"><a xlink:href="ttg_2madness_2ttg_8h.html" target="_top" xlink:title=" ">
<polygon fill="white" stroke="#666666" points="199.5,-19 75.5,-19 75.5,0 199.5,0 199.5,-19"/>
<text text-anchor="middle" x="137.5" y="-7" font-family="Times,serif" font-size="10.00">ttg/ttg/madness/ttg.h</text>
</a>
</g>
</g>
<!-- Node1&#45;&gt;Node3 -->
<g id="edge3_Node000001_Node000003" class="edge">
<title>Node1&#45;&gt;Node3</title>
<g id="a_edge3_Node000001_Node000003"><a xlink:title=" ">
<path fill="none" stroke="#63b8ff" d="M155.14,-102.86C162.64,-95.04 170.56,-84.91 174.5,-74 182.13,-52.88 161.78,-30.79 148.32,-19.04"/>
<polygon fill="#63b8ff" stroke="#63b8ff" points="152.66,-100.39 147.94,-109.87 157.55,-105.4 152.66,-100.39"/>
</a>
</g>
</g>
<!-- Node2&#45;&gt;Node3 -->
<g id="edge2_Node000002_Node000003" class="edge">
<title>Node2&#45;&gt;Node3</title>
<g id="a_edge2_Node000002_Node000003"><a xlink:title=" ">
<path fill="none" stroke="#63b8ff" d="M98.79,-47.8C108.54,-38.41 120.55,-26.83 128.59,-19.09"/>
<polygon fill="#63b8ff" stroke="#63b8ff" points="96.35,-45.29 91.58,-54.75 101.21,-50.33 96.35,-45.29"/>
</a>
</g>
</g>
</g>
</svg>
