<?xml version="1.0" encoding="UTF-8" standalone="no"?>
<!DOCTYPE svg PUBLIC "-//W3C//DTD SVG 1.1//EN"
 "http://www.w3.org/Graphics/SVG/1.1/DTD/svg11.dtd">
<!-- Generated by graphviz version 2.43.0 (0)
 -->
<!-- Title: ttg/ttg/serialization/backends/madness.h Pages: 1 -->
<!--zoomable 445 -->

<svg id="main" version="1.1" xmlns="http://www.w3.org/2000/svg" xmlns:xlink="http://www.w3.org/1999/xlink" xml:space="preserve" onload="init(evt)">
<style type="text/css"><![CDATA[
.node, .edge {opacity: 0.7;}
.node.selected, .edge.selected {opacity: 1;}
.edge:hover path { stroke: red; }
.edge:hover polygon { stroke: red; fill: red; }
]]></style>

<defs>
  <circle id="rim" cx="0" cy="0" r="7"/>
  <circle id="rim2" cx="0" cy="0" r="3.5"/>
  <g id="zoomPlus">
    <use xlink:href="#rim" fill="#404040"><set attributeName="fill" to="#808080" begin="zoomplus.mouseover" end="zoomplus.mouseout"/></use>
    <path d="M-4,0h8M0,-4v8" fill="none" stroke="white" stroke-width="1.5" pointer-events="none"/>
  </g>
  <g id="zoomMin">
    <use xlink:href="#rim" fill="#404040"><set attributeName="fill" to="#808080" begin="zoomminus.mouseover" end="zoomminus.mouseout"/></use>
    <path d="M-4,0h8" fill="none" stroke="white" stroke-width="1.5" pointer-events="none"/>
  </g>
  <g id="arrowUp" transform="translate(30 24)">
    <use xlink:href="#rim"/>
    <path pointer-events="none" fill="none" stroke="white" stroke-width="1.5" d="M0,-3.0v7 M-2.5,-0.5L0,-3.0L2.5,-0.5"/>
  </g>
  <g id="arrowRight" transform="rotate(90) translate(36 -43)">
    <use xlink:href="#rim"/>
    <path pointer-events="none" fill="none" stroke="white" stroke-width="1.5" d="M0,-3.0v7 M-2.5,-0.5L0,-3.0L2.5,-0.5"/>
  </g>
  <g id="arrowDown" transform="rotate(180) translate(-30 -48)">
    <use xlink:href="#rim"/>
    <path pointer-events="none" fill="none" stroke="white" stroke-width="1.5" d="M0,-3.0v7 M-2.5,-0.5L0,-3.0L2.5,-0.5"/>
  </g>
  <g id="arrowLeft" transform="rotate(270) translate(-36 17)">
    <use xlink:href="#rim"/>
    <path pointer-events="none" fill="none" stroke="white" stroke-width="1.5" d="M0,-3.0v7 M-2.5,-0.5L0,-3.0L2.5,-0.5"/>
  </g>
  <g id="resetDef">
    <use xlink:href="#rim2" fill="#404040"><set attributeName="fill" to="#808080" begin="reset.mouseover" end="reset.mouseout"/></use>
  </g>
</defs>
<script type="application/ecmascript">
var viewWidth = 1368;
var viewHeight = 445;
var sectionId = 'dynsection-1';
</script>
<script type="application/ecmascript" xlink:href="svg.min.js"/>
<svg id="graph" class="graph">
<g id="viewport">
<title>ttg/ttg/serialization/backends/madness.h</title>
<!-- Node1 -->
<g id="Node000001" class="node">
<title>Node1</title>
<g id="a_Node000001"><a xlink:title=" ">
<polygon fill="#999999" stroke="#666666" points="717.5,-437 590.5,-437 590.5,-407 717.5,-407 717.5,-437"/>
<text text-anchor="start" x="598.5" y="-425" font-family="Times,serif" font-size="10.00">ttg/ttg/serialization</text>
<text text-anchor="middle" x="654" y="-414" font-family="Times,serif" font-size="10.00">/backends/madness.h</text>
</a>
</g>
</g>
<!-- Node2 -->
<g id="Node000002" class="node">
<title>Node2</title>
<g id="a_Node000002"><a xlink:href="backends_8h.html" target="_top" xlink:title=" ">
<polygon fill="white" stroke="#666666" points="668.5,-371 555.5,-371 555.5,-341 668.5,-341 668.5,-371"/>
<text text-anchor="start" x="563.5" y="-359" font-family="Times,serif" font-size="10.00">ttg/ttg/serialization</text>
<text text-anchor="middle" x="612" y="-348" font-family="Times,serif" font-size="10.00">/backends.h</text>
</a>
</g>
</g>
<!-- Node1&#45;&gt;Node2 -->
<g id="edge1_Node000001_Node000002" class="edge">
<title>Node1&#45;&gt;Node2</title>
<g id="a_edge1_Node000001_Node000002"><a xlink:title=" ">
<path fill="none" stroke="#63b8ff" d="M639.07,-398.24C633.14,-389.21 626.51,-379.11 621.3,-371.16"/>
<polygon fill="#63b8ff" stroke="#63b8ff" points="636.27,-400.36 644.68,-406.8 642.12,-396.52 636.27,-400.36"/>
</a>
</g>
</g>
<!-- Node3 -->
<g id="Node000003" class="node">
<title>Node3</title>
<g id="a_Node000003"><a xlink:href="serialization_8h.html" target="_top" xlink:title=" ">
<polygon fill="white" stroke="#666666" points="397,-233.5 275,-233.5 275,-214.5 397,-214.5 397,-233.5"/>
<text text-anchor="middle" x="336" y="-221.5" font-family="Times,serif" font-size="10.00">ttg/ttg/serialization.h</text>
</a>
</g>
</g>
<!-- Node2&#45;&gt;Node3 -->
<g id="edge2_Node000002_Node000003" class="edge">
<title>Node2&#45;&gt;Node3</title>
<g id="a_edge2_Node000002_Node000003"><a xlink:title=" ">
<path fill="none" stroke="#63b8ff" d="M572.98,-336.62C512.52,-308.14 398.58,-254.48 354.27,-233.61"/>
<polygon fill="#63b8ff" stroke="#63b8ff" points="571.66,-339.87 582.2,-340.96 574.65,-333.54 571.66,-339.87"/>
</a>
</g>
</g>
<!-- Node16 -->
<g id="Node000016" class="node">
<title>Node16</title>
<g id="a_Node000016"><a xlink:href="traits_8h.html" target="_top" xlink:title=" ">
<polygon fill="white" stroke="#666666" points="753.5,-305 640.5,-305 640.5,-275 753.5,-275 753.5,-305"/>
<text text-anchor="start" x="648.5" y="-293" font-family="Times,serif" font-size="10.00">ttg/ttg/serialization</text>
<text text-anchor="middle" x="697" y="-282" font-family="Times,serif" font-size="10.00">/traits.h</text>
</a>
</g>
</g>
<!-- Node2&#45;&gt;Node16 -->
<g id="edge18_Node000002_Node000016" class="edge">
<title>Node2&#45;&gt;Node16</title>
<g id="a_edge18_Node000002_Node000016"><a xlink:title=" ">
<path fill="none" stroke="#63b8ff" d="M638.89,-334.75C651.67,-325.13 666.64,-313.86 678.19,-305.16"/>
<polygon fill="#63b8ff" stroke="#63b8ff" points="636.75,-331.99 630.86,-340.8 640.96,-337.58 636.75,-331.99"/>
</a>
</g>
</g>
<!-- Node4 -->
<g id="Node000004" class="node">
<title>Node4</title>
<g id="a_Node000004"><a xlink:href="fibonacci_8cc.html" target="_top" xlink:title=" ">
<polygon fill="white" stroke="#666666" points="128,-35.5 0,-35.5 0,-5.5 128,-5.5 128,-35.5"/>
<text text-anchor="start" x="8" y="-23.5" font-family="Times,serif" font-size="10.00">doc/dox/dev/devsamp</text>
<text text-anchor="middle" x="64" y="-12.5" font-family="Times,serif" font-size="10.00">/fibonacci/fibonacci.cc</text>
</a>
</g>
</g>
<!-- Node3&#45;&gt;Node4 -->
<g id="edge3_Node000003_Node000004" class="edge">
<title>Node3&#45;&gt;Node4</title>
<g id="a_edge3_Node000003_Node000004"><a xlink:title=" ">
<path fill="none" stroke="#63b8ff" d="M313.57,-208.88C298.28,-199.1 277.67,-185.61 260,-173 192.27,-124.65 114.95,-62.84 81.23,-35.54"/>
<polygon fill="#63b8ff" stroke="#63b8ff" points="312.02,-212.04 322.34,-214.45 315.78,-206.13 312.02,-212.04"/>
</a>
</g>
</g>
<!-- Node5 -->
<g id="Node000005" class="node">
<title>Node5</title>
<g id="a_Node000005"><a xlink:href="fibonacci__device_8cc.html" target="_top" xlink:title=" ">
<polygon fill="white" stroke="#666666" points="274,-41 146,-41 146,0 274,0 274,-41"/>
<text text-anchor="start" x="154" y="-29" font-family="Times,serif" font-size="10.00">doc/dox/dev/devsamp</text>
<text text-anchor="start" x="154" y="-18" font-family="Times,serif" font-size="10.00">/fibonacci/fibonacci</text>
<text text-anchor="middle" x="210" y="-7" font-family="Times,serif" font-size="10.00">_device.cc</text>
</a>
</g>
</g>
<!-- Node3&#45;&gt;Node5 -->
<g id="edge4_Node000003_Node000005" class="edge">
<title>Node3&#45;&gt;Node5</title>
<g id="a_edge4_Node000003_Node000005"><a xlink:title=" ">
<path fill="none" stroke="#63b8ff" d="M315.72,-207.86C304.45,-198.69 290.77,-186.24 281,-173 249.61,-130.46 226.97,-71.83 216.5,-41.49"/>
<polygon fill="#63b8ff" stroke="#63b8ff" points="313.74,-210.76 323.77,-214.19 318.07,-205.26 313.74,-210.76"/>
</a>
</g>
</g>
<!-- Node6 -->
<g id="Node000006" class="node">
<title>Node6</title>
<g id="a_Node000006"><a xlink:href="buffer_8h.html" target="_top" xlink:title=" ">
<polygon fill="white" stroke="#666666" points="381.5,-167.5 290.5,-167.5 290.5,-148.5 381.5,-148.5 381.5,-167.5"/>
<text text-anchor="middle" x="336" y="-155.5" font-family="Times,serif" font-size="10.00">ttg/ttg/buffer.h</text>
</a>
</g>
</g>
<!-- Node3&#45;&gt;Node6 -->
<g id="edge5_Node000003_Node000006" class="edge">
<title>Node3&#45;&gt;Node6</title>
<g id="a_edge5_Node000003_Node000006"><a xlink:title=" ">
<path fill="none" stroke="#63b8ff" d="M336,-204.08C336,-192.13 336,-177.22 336,-167.91"/>
<polygon fill="#63b8ff" stroke="#63b8ff" points="332.5,-204.37 336,-214.37 339.5,-204.37 332.5,-204.37"/>
</a>
</g>
</g>
<!-- Node7 -->
<g id="Node000007" class="node">
<title>Node7</title>
<g id="a_Node000007"><a xlink:href="ttg_8h.html" target="_top" xlink:title=" ">
<polygon fill="white" stroke="#666666" points="636,-101.5 578,-101.5 578,-82.5 636,-82.5 636,-101.5"/>
<text text-anchor="middle" x="607" y="-89.5" font-family="Times,serif" font-size="10.00">ttg/ttg.h</text>
</a>
</g>
</g>
<!-- Node6&#45;&gt;Node7 -->
<g id="edge6_Node000006_Node000007" class="edge">
<title>Node6&#45;&gt;Node7</title>
<g id="a_edge6_Node000006_Node000007"><a xlink:title=" ">
<path fill="none" stroke="#63b8ff" d="M382.29,-146.07C438.37,-132.83 531.13,-110.92 577.99,-99.85"/>
<polygon fill="#63b8ff" stroke="#63b8ff" points="381.19,-142.73 372.27,-148.44 382.8,-149.54 381.19,-142.73"/>
</a>
</g>
</g>
<!-- Node15 -->
<g id="Node000015" class="node">
<title>Node15</title>
<g id="a_Node000015"><a xlink:href="parsec__data_8h.html" target="_top" xlink:title=" ">
<polygon fill="white" stroke="#666666" points="385,-107 263,-107 263,-77 385,-77 385,-107"/>
<text text-anchor="start" x="271" y="-95" font-family="Times,serif" font-size="10.00">ttg/ttg/parsec/parsec</text>
<text text-anchor="middle" x="324" y="-84" font-family="Times,serif" font-size="10.00">_data.h</text>
</a>
</g>
</g>
<!-- Node6&#45;&gt;Node15 -->
<g id="edge16_Node000006_Node000015" class="edge">
<title>Node6&#45;&gt;Node15</title>
<g id="a_edge16_Node000006_Node000015"><a xlink:title=" ">
<path fill="none" stroke="#63b8ff" d="M332.5,-138.35C330.65,-128.47 328.41,-116.51 326.69,-107.36"/>
<polygon fill="#63b8ff" stroke="#63b8ff" points="329.1,-139.18 334.38,-148.37 335.98,-137.89 329.1,-139.18"/>
</a>
</g>
</g>
<!-- Node7&#45;&gt;Node4 -->
<g id="edge7_Node000007_Node000004" class="edge">
<title>Node7&#45;&gt;Node4</title>
<g id="a_edge7_Node000007_Node000004"><a xlink:title=" ">
<path fill="none" stroke="#63b8ff" d="M567.89,-83.69C554.34,-81.33 539.03,-78.85 525,-77 353.29,-54.41 307.49,-71.46 137,-41 128.86,-39.55 120.31,-37.63 112.04,-35.56"/>
<polygon fill="#63b8ff" stroke="#63b8ff" points="567.4,-87.16 577.86,-85.47 568.63,-80.27 567.4,-87.16"/>
</a>
</g>
</g>
<!-- Node7&#45;&gt;Node5 -->
<g id="edge8_Node000007_Node000005" class="edge">
<title>Node7&#45;&gt;Node5</title>
<g id="a_edge8_Node000007_Node000005"><a xlink:title=" ">
<path fill="none" stroke="#63b8ff" d="M567.83,-84.14C554.27,-81.81 538.98,-79.23 525,-77 417.62,-59.85 389.48,-63.07 283,-41 280.17,-40.41 277.29,-39.79 274.39,-39.12"/>
<polygon fill="#63b8ff" stroke="#63b8ff" points="567.35,-87.61 577.8,-85.86 568.54,-80.71 567.35,-87.61"/>
</a>
</g>
</g>
<!-- Node8 -->
<g id="Node000008" class="node">
<title>Node8</title>
<g id="a_Node000008"><a xlink:href="helloworld_8cpp.html" target="_top" xlink:title=" ">
<polygon fill="white" stroke="#666666" points="725.5,-35.5 574.5,-35.5 574.5,-5.5 725.5,-5.5 725.5,-35.5"/>
<text text-anchor="start" x="582.5" y="-23.5" font-family="Times,serif" font-size="10.00">doc/dox/dev/devsamp</text>
<text text-anchor="middle" x="650" y="-12.5" font-family="Times,serif" font-size="10.00">/helloworld/helloworld.cpp</text>
</a>
</g>
</g>
<!-- Node7&#45;&gt;Node8 -->
<g id="edge9_Node000007_Node000008" class="edge">
<title>Node7&#45;&gt;Node8</title>
<g id="a_edge9_Node000007_Node000008"><a xlink:title=" ">
<path fill="none" stroke="#63b8ff" d="M617.74,-73.64C625,-61.91 634.46,-46.62 641.25,-35.64"/>
<polygon fill="#63b8ff" stroke="#63b8ff" points="614.56,-72.13 612.27,-82.48 620.51,-75.82 614.56,-72.13"/>
</a>
</g>
</g>
<!-- Node9 -->
<g id="Node000009" class="node">
<title>Node9</title>
<g id="a_Node000009"><a xlink:href="distributed_8cc.html" target="_top" xlink:title=" ">
<polygon fill="white" stroke="#666666" points="1030,-35.5 896,-35.5 896,-5.5 1030,-5.5 1030,-35.5"/>
<text text-anchor="start" x="904" y="-23.5" font-family="Times,serif" font-size="10.00">doc/dox/user/examples</text>
<text text-anchor="middle" x="963" y="-12.5" font-family="Times,serif" font-size="10.00">/distributed.cc</text>
</a>
</g>
</g>
<!-- Node7&#45;&gt;Node9 -->
<g id="edge10_Node000007_Node000009" class="edge">
<title>Node7&#45;&gt;Node9</title>
<g id="a_edge10_Node000007_Node000009"><a xlink:title=" ">
<path fill="none" stroke="#63b8ff" d="M646.06,-84.97C700.33,-76.37 801.55,-59.57 887,-41 894.59,-39.35 902.56,-37.47 910.38,-35.54"/>
<polygon fill="#63b8ff" stroke="#63b8ff" points="645.5,-81.51 636.16,-86.53 646.59,-88.43 645.5,-81.51"/>
</a>
</g>
</g>
<!-- Node10 -->
<g id="Node000010" class="node">
<title>Node10</title>
<g id="a_Node000010"><a xlink:href="iterative_8cc.html" target="_top" xlink:title=" ">
<polygon fill="white" stroke="#666666" points="1182,-35.5 1048,-35.5 1048,-5.5 1182,-5.5 1182,-35.5"/>
<text text-anchor="start" x="1056" y="-23.5" font-family="Times,serif" font-size="10.00">doc/dox/user/examples</text>
<text text-anchor="middle" x="1115" y="-12.5" font-family="Times,serif" font-size="10.00">/iterative.cc</text>
</a>
</g>
</g>
<!-- Node7&#45;&gt;Node10 -->
<g id="edge11_Node000007_Node000010" class="edge">
<title>Node7&#45;&gt;Node10</title>
<g id="a_edge11_Node000007_Node000010"><a xlink:title=" ">
<path fill="none" stroke="#63b8ff" d="M646.1,-88.26C722.22,-82.55 895.42,-67.6 1039,-41 1047.17,-39.49 1055.76,-37.59 1064.11,-35.57"/>
<polygon fill="#63b8ff" stroke="#63b8ff" points="645.73,-84.78 636.02,-89.01 646.25,-91.76 645.73,-84.78"/>
</a>
</g>
</g>
<!-- Node11 -->
<g id="Node000011" class="node">
<title>Node11</title>
<g id="a_Node000011"><a xlink:href="reducing_8cc.html" target="_top" xlink:title=" ">
<polygon fill="white" stroke="#666666" points="878,-35.5 744,-35.5 744,-5.5 878,-5.5 878,-35.5"/>
<text text-anchor="start" x="752" y="-23.5" font-family="Times,serif" font-size="10.00">doc/dox/user/examples</text>
<text text-anchor="middle" x="811" y="-12.5" font-family="Times,serif" font-size="10.00">/reducing.cc</text>
</a>
</g>
</g>
<!-- Node7&#45;&gt;Node11 -->
<g id="edge12_Node000007_Node000011" class="edge">
<title>Node7&#45;&gt;Node11</title>
<g id="a_edge12_Node000007_Node000011"><a xlink:title=" ">
<path fill="none" stroke="#63b8ff" d="M641.92,-79.1C677.39,-67.02 732.33,-48.3 769.89,-35.51"/>
<polygon fill="#63b8ff" stroke="#63b8ff" points="640.35,-75.94 632.01,-82.48 642.61,-82.57 640.35,-75.94"/>
</a>
</g>
</g>
<!-- Node12 -->
<g id="Node000012" class="node">
<title>Node12</title>
<g id="a_Node000012"><a xlink:href="simple_8cc.html" target="_top" xlink:title=" ">
<polygon fill="white" stroke="#666666" points="556,-35.5 422,-35.5 422,-5.5 556,-5.5 556,-35.5"/>
<text text-anchor="start" x="430" y="-23.5" font-family="Times,serif" font-size="10.00">doc/dox/user/examples</text>
<text text-anchor="middle" x="489" y="-12.5" font-family="Times,serif" font-size="10.00">/simple.cc</text>
</a>
</g>
</g>
<!-- Node7&#45;&gt;Node12 -->
<g id="edge13_Node000007_Node000012" class="edge">
<title>Node7&#45;&gt;Node12</title>
<g id="a_edge13_Node000007_Node000012"><a xlink:title=" ">
<path fill="none" stroke="#63b8ff" d="M583.85,-77.37C563.41,-65.32 533.7,-47.83 513,-35.64"/>
<polygon fill="#63b8ff" stroke="#63b8ff" points="582.14,-80.42 592.53,-82.48 585.69,-74.39 582.14,-80.42"/>
</a>
</g>
</g>
<!-- Node13 -->
<g id="Node000013" class="node">
<title>Node13</title>
<g id="a_Node000013"><a xlink:href="ttg_2madness_2ttg_8h.html" target="_top" xlink:title=" ">
<polygon fill="white" stroke="#666666" points="1324,-30 1200,-30 1200,-11 1324,-11 1324,-30"/>
<text text-anchor="middle" x="1262" y="-18" font-family="Times,serif" font-size="10.00">ttg/ttg/madness/ttg.h</text>
</a>
</g>
</g>
<!-- Node7&#45;&gt;Node13 -->
<g id="edge14_Node000007_Node000013" class="edge">
<title>Node7&#45;&gt;Node13</title>
<g id="a_edge14_Node000007_Node000013"><a xlink:title=" ">
<path fill="none" stroke="#63b8ff" d="M646.64,-88.55C760.29,-81.39 1085.83,-59.78 1191,-41 1205.85,-38.35 1222.09,-34 1235.29,-30.08"/>
<polygon fill="#63b8ff" stroke="#63b8ff" points="646.08,-85.08 636.32,-89.2 646.52,-92.07 646.08,-85.08"/>
</a>
</g>
</g>
<!-- Node14 -->
<g id="Node000014" class="node">
<title>Node14</title>
<g id="a_Node000014"><a xlink:href="ttg_2parsec_2ttg_8h.html" target="_top" xlink:title=" ">
<polygon fill="white" stroke="#666666" points="404,-30 292,-30 292,-11 404,-11 404,-30"/>
<text text-anchor="middle" x="348" y="-18" font-family="Times,serif" font-size="10.00">ttg/ttg/parsec/ttg.h</text>
</a>
</g>
</g>
<!-- Node7&#45;&gt;Node14 -->
<g id="edge15_Node000007_Node000014" class="edge">
<title>Node7&#45;&gt;Node14</title>
<g id="a_edge15_Node000007_Node000014"><a xlink:title=" ">
<path fill="none" stroke="#63b8ff" d="M568.03,-81.43C528.77,-71.68 466.51,-55.92 413,-41 400.74,-37.58 387.26,-33.58 375.77,-30.09"/>
<polygon fill="#63b8ff" stroke="#63b8ff" points="567.43,-84.89 577.98,-83.9 569.12,-78.1 567.43,-84.89"/>
</a>
</g>
</g>
<!-- Node15&#45;&gt;Node14 -->
<g id="edge17_Node000015_Node000014" class="edge">
<title>Node15&#45;&gt;Node14</title>
<g id="a_edge17_Node000015_Node000014"><a xlink:title=" ">
<path fill="none" stroke="#63b8ff" d="M332.18,-67.32C336.59,-54.54 341.77,-39.53 344.97,-30.27"/>
<polygon fill="#63b8ff" stroke="#63b8ff" points="328.81,-66.34 328.86,-76.94 335.43,-68.63 328.81,-66.34"/>
</a>
</g>
</g>
<!-- Node16&#45;&gt;Node1 -->
<g id="edge24_Node000016_Node000001" class="edge">
<title>Node16&#45;&gt;Node1</title>
<g id="a_edge24_Node000016_Node000001"><a xlink:title=" ">
<path fill="none" stroke="#63b8ff" d="M692.17,-315.26C688.67,-331.3 683.44,-352.67 677,-371 672.63,-383.44 666.28,-397 661.37,-406.85"/>
<polygon fill="#63b8ff" stroke="#63b8ff" points="695.67,-315.61 694.3,-305.11 688.82,-314.17 695.67,-315.61"/>
</a>
</g>
</g>
<!-- Node16&#45;&gt;Node3 -->
<g id="edge23_Node000016_Node000003" class="edge">
<title>Node16&#45;&gt;Node3</title>
<g id="a_edge23_Node000016_Node000003"><a xlink:title=" ">
<path fill="none" stroke="#63b8ff" d="M629.96,-277.11C558.55,-264.45 447.28,-244.73 384.1,-233.53"/>
<polygon fill="#63b8ff" stroke="#63b8ff" points="629.74,-280.63 640.2,-278.93 630.96,-273.74 629.74,-280.63"/>
</a>
</g>
</g>
<!-- Node17 -->
<g id="Node000017" class="node">
<title>Node17</title>
<g id="a_Node000017"><a xlink:href="madness_2buffer_8h.html" target="_top" xlink:title=" ">
<polygon fill="white" stroke="#666666" points="1252,-167.5 1112,-167.5 1112,-148.5 1252,-148.5 1252,-167.5"/>
<text text-anchor="middle" x="1182" y="-155.5" font-family="Times,serif" font-size="10.00">ttg/ttg/madness/buffer.h</text>
</a>
</g>
</g>
<!-- Node16&#45;&gt;Node17 -->
<g id="edge19_Node000016_Node000017" class="edge">
<title>Node16&#45;&gt;Node17</title>
<g id="a_edge19_Node000016_Node000017"><a xlink:title=" ">
<path fill="none" stroke="#63b8ff" d="M764.03,-286.04C885.84,-280.06 1133.67,-264.84 1163,-239 1183.78,-220.69 1183.98,-184.19 1182.85,-167.58"/>
<polygon fill="#63b8ff" stroke="#63b8ff" points="763.53,-282.56 753.71,-286.54 763.87,-289.55 763.53,-282.56"/>
</a>
</g>
</g>
<!-- Node19 -->
<g id="Node000019" class="node">
<title>Node19</title>
<g id="a_Node000019"><a xlink:href="data__descriptor_8h.html" target="_top" xlink:title=" ">
<polygon fill="white" stroke="#666666" points="516.5,-107 403.5,-107 403.5,-77 516.5,-77 516.5,-107"/>
<text text-anchor="start" x="411.5" y="-95" font-family="Times,serif" font-size="10.00">ttg/ttg/serialization</text>
<text text-anchor="middle" x="460" y="-84" font-family="Times,serif" font-size="10.00">/data_descriptor.h</text>
</a>
</g>
</g>
<!-- Node16&#45;&gt;Node19 -->
<g id="edge25_Node000016_Node000019" class="edge">
<title>Node16&#45;&gt;Node19</title>
<g id="a_edge25_Node000016_Node000019"><a xlink:title=" ">
<path fill="none" stroke="#63b8ff" d="M630.45,-277.21C597.55,-269.51 558.11,-257.39 526,-239 488.9,-217.75 472.94,-212.26 456,-173 446.74,-151.55 451.36,-123.8 455.63,-107.26"/>
<polygon fill="#63b8ff" stroke="#63b8ff" points="629.92,-280.68 640.44,-279.46 631.45,-273.85 629.92,-280.68"/>
</a>
</g>
</g>
<!-- Node20 -->
<g id="Node000020" class="node">
<title>Node20</title>
<g id="a_Node000020"><a xlink:href="allocator_8h.html" target="_top" xlink:title=" ">
<polygon fill="white" stroke="#666666" points="668.5,-239 555.5,-239 555.5,-209 668.5,-209 668.5,-239"/>
<text text-anchor="start" x="563.5" y="-227" font-family="Times,serif" font-size="10.00">ttg/ttg/serialization</text>
<text text-anchor="middle" x="612" y="-216" font-family="Times,serif" font-size="10.00">/std/allocator.h</text>
</a>
</g>
</g>
<!-- Node16&#45;&gt;Node20 -->
<g id="edge27_Node000016_Node000020" class="edge">
<title>Node16&#45;&gt;Node20</title>
<g id="a_edge27_Node000016_Node000020"><a xlink:title=" ">
<path fill="none" stroke="#63b8ff" d="M670.11,-268.75C657.33,-259.13 642.36,-247.86 630.81,-239.16"/>
<polygon fill="#63b8ff" stroke="#63b8ff" points="668.04,-271.58 678.14,-274.8 672.25,-265.99 668.04,-271.58"/>
</a>
</g>
</g>
<!-- Node21 -->
<g id="Node000021" class="node">
<title>Node21</title>
<g id="a_Node000021"><a xlink:href="list_8h.html" target="_top" xlink:title=" ">
<polygon fill="white" stroke="#666666" points="578.5,-173 465.5,-173 465.5,-143 578.5,-143 578.5,-173"/>
<text text-anchor="start" x="473.5" y="-161" font-family="Times,serif" font-size="10.00">ttg/ttg/serialization</text>
<text text-anchor="middle" x="522" y="-150" font-family="Times,serif" font-size="10.00">/std/list.h</text>
</a>
</g>
</g>
<!-- Node16&#45;&gt;Node21 -->
<g id="edge32_Node000016_Node000021" class="edge">
<title>Node16&#45;&gt;Node21</title>
<g id="a_edge32_Node000016_Node000021"><a xlink:title=" ">
<path fill="none" stroke="#63b8ff" d="M630.53,-281.01C601.11,-274.27 568.22,-261.86 546,-239 528.51,-221.01 523.7,-190.8 522.42,-173.1"/>
<polygon fill="#63b8ff" stroke="#63b8ff" points="629.84,-284.44 640.35,-283.08 631.29,-277.59 629.84,-284.44"/>
</a>
</g>
</g>
<!-- Node22 -->
<g id="Node000022" class="node">
<title>Node22</title>
<g id="a_Node000022"><a xlink:href="vector_8h.html" target="_top" xlink:title=" ">
<polygon fill="white" stroke="#666666" points="709.5,-173 596.5,-173 596.5,-143 709.5,-143 709.5,-173"/>
<text text-anchor="start" x="604.5" y="-161" font-family="Times,serif" font-size="10.00">ttg/ttg/serialization</text>
<text text-anchor="middle" x="653" y="-150" font-family="Times,serif" font-size="10.00">/std/vector.h</text>
</a>
</g>
</g>
<!-- Node16&#45;&gt;Node22 -->
<g id="edge39_Node000016_Node000022" class="edge">
<title>Node16&#45;&gt;Node22</title>
<g id="a_edge39_Node000016_Node000022"><a xlink:title=" ">
<path fill="none" stroke="#63b8ff" d="M692.27,-264.71C688.82,-248.65 683.59,-227.27 677,-209 672.49,-196.5 665.87,-182.95 660.72,-173.11"/>
<polygon fill="#63b8ff" stroke="#63b8ff" points="688.92,-265.79 694.37,-274.87 695.77,-264.37 688.92,-265.79"/>
</a>
</g>
</g>
<!-- Node23 -->
<g id="Node000023" class="node">
<title>Node23</title>
<g id="a_Node000023"><a xlink:href="array_8h.html" target="_top" xlink:title=" ">
<polygon fill="white" stroke="#666666" points="842.5,-239 729.5,-239 729.5,-209 842.5,-209 842.5,-239"/>
<text text-anchor="start" x="737.5" y="-227" font-family="Times,serif" font-size="10.00">ttg/ttg/serialization</text>
<text text-anchor="middle" x="786" y="-216" font-family="Times,serif" font-size="10.00">/std/array.h</text>
</a>
</g>
</g>
<!-- Node16&#45;&gt;Node23 -->
<g id="edge30_Node000016_Node000023" class="edge">
<title>Node16&#45;&gt;Node23</title>
<g id="a_edge30_Node000016_Node000023"><a xlink:title=" ">
<path fill="none" stroke="#63b8ff" d="M725.16,-268.75C738.54,-259.13 754.22,-247.86 766.3,-239.16"/>
<polygon fill="#63b8ff" stroke="#63b8ff" points="722.83,-266.12 716.75,-274.8 726.91,-271.8 722.83,-266.12"/>
</a>
</g>
</g>
<!-- Node25 -->
<g id="Node000025" class="node">
<title>Node25</title>
<g id="a_Node000025"><a xlink:href="serialization_2std_2pair_8h.html" target="_top" xlink:title=" ">
<polygon fill="white" stroke="#666666" points="983.5,-107 870.5,-107 870.5,-77 983.5,-77 983.5,-107"/>
<text text-anchor="start" x="878.5" y="-95" font-family="Times,serif" font-size="10.00">ttg/ttg/serialization</text>
<text text-anchor="middle" x="927" y="-84" font-family="Times,serif" font-size="10.00">/std/pair.h</text>
</a>
</g>
</g>
<!-- Node16&#45;&gt;Node25 -->
<g id="edge33_Node000016_Node000025" class="edge">
<title>Node16&#45;&gt;Node25</title>
<g id="a_edge33_Node000016_Node000025"><a xlink:title=" ">
<path fill="none" stroke="#63b8ff" d="M763.58,-279.13C793,-272 826.42,-259.8 851,-239 893.75,-202.82 915.59,-136.46 923.48,-107.34"/>
<polygon fill="#63b8ff" stroke="#63b8ff" points="762.75,-275.73 753.77,-281.36 764.3,-282.55 762.75,-275.73"/>
</a>
</g>
</g>
<!-- Node26 -->
<g id="Node000026" class="node">
<title>Node26</title>
<g id="a_Node000026"><a xlink:href="tuple_8h.html" target="_top" xlink:title=" ">
<polygon fill="white" stroke="#666666" points="1022.5,-239 909.5,-239 909.5,-209 1022.5,-209 1022.5,-239"/>
<text text-anchor="start" x="917.5" y="-227" font-family="Times,serif" font-size="10.00">ttg/ttg/serialization</text>
<text text-anchor="middle" x="966" y="-216" font-family="Times,serif" font-size="10.00">/std/tuple.h</text>
</a>
</g>
</g>
<!-- Node16&#45;&gt;Node26 -->
<g id="edge37_Node000016_Node000026" class="edge">
<title>Node16&#45;&gt;Node26</title>
<g id="a_edge37_Node000016_Node000026"><a xlink:title=" ">
<path fill="none" stroke="#63b8ff" d="M763.64,-273.15C808.42,-262.49 866.82,-248.6 909.36,-238.48"/>
<polygon fill="#63b8ff" stroke="#63b8ff" points="762.64,-269.79 753.72,-275.51 764.26,-276.6 762.64,-269.79"/>
</a>
</g>
</g>
<!-- Node27 -->
<g id="Node000027" class="node">
<title>Node27</title>
<g id="a_Node000027"><a xlink:href="variant_8h.html" target="_top" xlink:title=" ">
<polygon fill="white" stroke="#666666" points="1153.5,-239 1040.5,-239 1040.5,-209 1153.5,-209 1153.5,-239"/>
<text text-anchor="start" x="1048.5" y="-227" font-family="Times,serif" font-size="10.00">ttg/ttg/serialization</text>
<text text-anchor="middle" x="1097" y="-216" font-family="Times,serif" font-size="10.00">/std/variant.h</text>
</a>
</g>
</g>
<!-- Node16&#45;&gt;Node27 -->
<g id="edge38_Node000016_Node000027" class="edge">
<title>Node16&#45;&gt;Node27</title>
<g id="a_edge38_Node000016_Node000027"><a xlink:title=" ">
<path fill="none" stroke="#63b8ff" d="M763.9,-280.3C831.67,-271.18 939.42,-255.86 1032,-239 1034.73,-238.5 1037.51,-237.98 1040.32,-237.43"/>
<polygon fill="#63b8ff" stroke="#63b8ff" points="763.24,-276.86 753.79,-281.65 764.16,-283.79 763.24,-276.86"/>
</a>
</g>
</g>
<!-- Node17&#45;&gt;Node13 -->
<g id="edge22_Node000017_Node000013" class="edge">
<title>Node17&#45;&gt;Node13</title>
<g id="a_edge22_Node000017_Node000013"><a xlink:title=" ">
<path fill="none" stroke="#63b8ff" d="M1178.57,-138.12C1176.45,-121.09 1175.8,-95.89 1186,-77 1198.11,-54.57 1223.68,-38.87 1241.81,-30.02"/>
<polygon fill="#63b8ff" stroke="#63b8ff" points="1175.18,-139.08 1180.16,-148.43 1182.09,-138.01 1175.18,-139.08"/>
</a>
</g>
</g>
<!-- Node18 -->
<g id="Node000018" class="node">
<title>Node18</title>
<g id="a_Node000018"><a xlink:href="madness_2devicefunc_8h.html" target="_top" xlink:title=" ">
<polygon fill="white" stroke="#666666" points="1359.5,-101.5 1194.5,-101.5 1194.5,-82.5 1359.5,-82.5 1359.5,-101.5"/>
<text text-anchor="middle" x="1277" y="-89.5" font-family="Times,serif" font-size="10.00">ttg/ttg/madness/devicefunc.h</text>
</a>
</g>
</g>
<!-- Node17&#45;&gt;Node18 -->
<g id="edge20_Node000017_Node000018" class="edge">
<title>Node17&#45;&gt;Node18</title>
<g id="a_edge20_Node000017_Node000018"><a xlink:title=" ">
<path fill="none" stroke="#63b8ff" d="M1203.26,-142.68C1221.92,-130.11 1248.46,-112.23 1264.09,-101.7"/>
<polygon fill="#63b8ff" stroke="#63b8ff" points="1201.15,-139.88 1194.81,-148.37 1205.06,-145.68 1201.15,-139.88"/>
</a>
</g>
</g>
<!-- Node18&#45;&gt;Node13 -->
<g id="edge21_Node000018_Node000013" class="edge">
<title>Node18&#45;&gt;Node13</title>
<g id="a_edge21_Node000018_Node000013"><a xlink:title=" ">
<path fill="none" stroke="#63b8ff" d="M1273.03,-72.62C1270.06,-58.86 1266.13,-40.65 1263.85,-30.09"/>
<polygon fill="#63b8ff" stroke="#63b8ff" points="1269.63,-73.44 1275.16,-82.48 1276.47,-71.96 1269.63,-73.44"/>
</a>
</g>
</g>
<!-- Node19&#45;&gt;Node14 -->
<g id="edge26_Node000019_Node000014" class="edge">
<title>Node19&#45;&gt;Node14</title>
<g id="a_edge26_Node000019_Node000014"><a xlink:title=" ">
<path fill="none" stroke="#63b8ff" d="M428.66,-71.55C406.69,-57.92 378.38,-40.35 361.81,-30.07"/>
<polygon fill="#63b8ff" stroke="#63b8ff" points="426.99,-74.64 437.34,-76.94 430.68,-68.69 426.99,-74.64"/>
</a>
</g>
</g>
<!-- Node20&#45;&gt;Node21 -->
<g id="edge28_Node000020_Node000021" class="edge">
<title>Node20&#45;&gt;Node21</title>
<g id="a_edge28_Node000020_Node000021"><a xlink:title=" ">
<path fill="none" stroke="#63b8ff" d="M583.53,-202.75C569.99,-193.13 554.14,-181.86 541.92,-173.16"/>
<polygon fill="#63b8ff" stroke="#63b8ff" points="581.85,-205.85 592.03,-208.8 585.9,-200.15 581.85,-205.85"/>
</a>
</g>
</g>
<!-- Node20&#45;&gt;Node22 -->
<g id="edge29_Node000020_Node000022" class="edge">
<title>Node20&#45;&gt;Node22</title>
<g id="a_edge29_Node000020_Node000022"><a xlink:title=" ">
<path fill="none" stroke="#63b8ff" d="M626.58,-200.24C632.36,-191.21 638.84,-181.11 643.93,-173.16"/>
<polygon fill="#63b8ff" stroke="#63b8ff" points="623.55,-198.49 621.1,-208.8 629.44,-202.26 623.55,-198.49"/>
</a>
</g>
</g>
<!-- Node24 -->
<g id="Node000024" class="node">
<title>Node24</title>
<g id="a_Node000024"><a xlink:href="multiindex_8h.html" target="_top" xlink:title=" ">
<polygon fill="white" stroke="#666666" points="862.5,-167.5 727.5,-167.5 727.5,-148.5 862.5,-148.5 862.5,-167.5"/>
<text text-anchor="middle" x="795" y="-155.5" font-family="Times,serif" font-size="10.00">ttg/ttg/util/multiindex.h</text>
</a>
</g>
</g>
<!-- Node23&#45;&gt;Node24 -->
<g id="edge31_Node000023_Node000024" class="edge">
<title>Node23&#45;&gt;Node24</title>
<g id="a_edge31_Node000023_Node000024"><a xlink:title=" ">
<path fill="none" stroke="#63b8ff" d="M789.43,-198.6C790.95,-187.8 792.64,-175.78 793.76,-167.84"/>
<polygon fill="#63b8ff" stroke="#63b8ff" points="785.92,-198.41 788,-208.8 792.86,-199.38 785.92,-198.41"/>
</a>
</g>
</g>
<!-- Node25&#45;&gt;Node9 -->
<g id="edge34_Node000025_Node000009" class="edge">
<title>Node25&#45;&gt;Node9</title>
<g id="a_edge34_Node000025_Node000009"><a xlink:title=" ">
<path fill="none" stroke="#63b8ff" d="M939.05,-67.73C944.58,-57.06 950.95,-44.77 955.73,-35.54"/>
<polygon fill="#63b8ff" stroke="#63b8ff" points="935.78,-66.45 934.29,-76.94 941.99,-69.67 935.78,-66.45"/>
</a>
</g>
</g>
<!-- Node25&#45;&gt;Node10 -->
<g id="edge35_Node000025_Node000010" class="edge">
<title>Node25&#45;&gt;Node10</title>
<g id="a_edge35_Node000025_Node000010"><a xlink:title=" ">
<path fill="none" stroke="#63b8ff" d="M974.57,-73.42C1006.3,-61.68 1047.47,-46.47 1077.01,-35.54"/>
<polygon fill="#63b8ff" stroke="#63b8ff" points="973.21,-70.19 965.04,-76.94 975.64,-76.75 973.21,-70.19"/>
</a>
</g>
</g>
<!-- Node25&#45;&gt;Node11 -->
<g id="edge36_Node000025_Node000011" class="edge">
<title>Node25&#45;&gt;Node11</title>
<g id="a_edge36_Node000025_Node000011"><a xlink:title=" ">
<path fill="none" stroke="#63b8ff" d="M894.83,-71.72C875.68,-60.25 851.8,-45.95 834.44,-35.54"/>
<polygon fill="#63b8ff" stroke="#63b8ff" points="893.15,-74.8 903.53,-76.94 896.75,-68.79 893.15,-74.8"/>
</a>
</g>
</g>
</g>
</svg>

<g id="navigator" transform="translate(0 0)" fill="#404254">
  <rect fill="#f2f5e9" fill-opacity="0.5" stroke="#606060" stroke-width=".5" x="0" y="0" width="60" height="60"/>
  <use id="zoomplus" xlink:href="#zoomPlus" x="17" y="9" onmousedown="handleZoom(evt,'in')"/>
  <use id="zoomminus" xlink:href="#zoomMin" x="42" y="9" onmousedown="handleZoom(evt,'out')"/>
  <use id="reset" xlink:href="#resetDef" x="30" y="36" onmousedown="handleReset()"/>
   <use id="arrowup" xlink:href="#arrowUp" x="0" y="0" onmousedown="handlePan(0,-1)"/>
  <use id="arrowright" xlink:href="#arrowRight" x="0" y="0" onmousedown="handlePan(1,0)"/>
  <use id="arrowdown" xlink:href="#arrowDown" x="0" y="0" onmousedown="handlePan(0,1)"/>
  <use id="arrowleft" xlink:href="#arrowLeft" x="0" y="0" onmousedown="handlePan(-1,0)"/>
</g>
<svg viewBox="0 0 15 15" width="100%" height="30px" preserveAspectRatio="xMaxYMin meet">
 <g id="arrow_out" transform="scale(0.3 0.3)">
  <a xlink:href="madness_8h__dep__incl_org.svg" target="_base">
   <rect id="button" ry="5" rx="5" y="6" x="6" height="38" width="38"
        fill="#f2f5e9" fill-opacity="0.5" stroke="#606060" stroke-width="1.0"/>
   <path id="arrow"
     d="M 11.500037,31.436501 C 11.940474,20.09759 22.043105,11.32322 32.158766,21.979434 L 37.068811,17.246167 C 37.068811,17.246167 37.088388,32 37.088388,32 L 22.160133,31.978069 C 22.160133,31.978069 26.997745,27.140456 26.997745,27.140456 C 18.528582,18.264221 13.291696,25.230495 11.500037,31.436501 z"
     style="fill:#404040;"/>
  </a>
 </g>
</svg>

<style type='text/css'>
<![CDATA[
[data-mouse-over-selected='false'] { opacity: 0.7; }
[data-mouse-over-selected='true']  { opacity: 1.0; }
]]>
</style>
<script type="application/ecmascript"><![CDATA[
document.addEventListener('DOMContentLoaded', (event) => {
  highlightEdges();
  highlightAdjacentNodes();
});
]]></script>
</svg>
