<?xml version="1.0" encoding="UTF-8" standalone="no"?>
<!DOCTYPE svg PUBLIC "-//W3C//DTD SVG 1.1//EN"
 "http://www.w3.org/Graphics/SVG/1.1/DTD/svg11.dtd">
<!-- Generated by graphviz version 2.43.0 (0)
 -->
<!-- Title: ttg/ttg/serialization/backends/madness.h Pages: 1 -->
<svg width="590pt" height="269pt"
 viewBox="0.00 0.00 590.24 269.00" xmlns="http://www.w3.org/2000/svg" xmlns:xlink="http://www.w3.org/1999/xlink">
<g id="graph0" class="graph" transform="scale(1 1) rotate(0) translate(4 265)">
<title>ttg/ttg/serialization/backends/madness.h</title>
<!-- Node1 -->
<g id="Node000001" class="node">
<title>Node1</title>
<g id="a_Node000001"><a xlink:title=" ">
<polygon fill="#999999" stroke="#666666" points="158.24,-261 31.24,-261 31.24,-231 158.24,-231 158.24,-261"/>
<text text-anchor="start" x="39.24" y="-249" font-family="Times,serif" font-size="10.00">ttg/ttg/serialization</text>
<text text-anchor="middle" x="94.74" y="-238" font-family="Times,serif" font-size="10.00">/backends/madness.h</text>
</a>
</g>
</g>
<!-- Node2 -->
<g id="Node000002" class="node">
<title>Node2</title>
<g id="a_Node000002"><a xlink:title=" ">
<polygon fill="#e0e0e0" stroke="#999999" points="226.24,-19 155.24,-19 155.24,0 226.24,0 226.24,-19"/>
<text text-anchor="middle" x="190.74" y="-7" font-family="Times,serif" font-size="10.00">type_traits</text>
</a>
</g>
</g>
<!-- Node1&#45;&gt;Node2 -->
<g id="edge1_Node000001_Node000002" class="edge">
<title>Node1&#45;&gt;Node2</title>
<g id="a_edge1_Node000001_Node000002"><a xlink:title=" ">
<path fill="none" stroke="#63b8ff" d="M77.05,-230.92C55.64,-212.63 20.72,-178.45 6.74,-140 -0.94,-118.88 -5.28,-76.04 12.74,-55 29.78,-35.11 98.37,-22.41 145.25,-15.87"/>
<polygon fill="#63b8ff" stroke="#63b8ff" points="145.75,-19.34 155.19,-14.53 144.82,-12.4 145.75,-19.34"/>
</a>
</g>
</g>
<!-- Node3 -->
<g id="Node000003" class="node">
<title>Node3</title>
<g id="a_Node000003"><a xlink:href="traits_8h.html" target="_top" xlink:title=" ">
<polygon fill="white" stroke="#666666" points="268.74,-195 134.74,-195 134.74,-176 268.74,-176 268.74,-195"/>
<text text-anchor="middle" x="201.74" y="-183" font-family="Times,serif" font-size="10.00">ttg/serialization/traits.h</text>
</a>
</g>
</g>
<!-- Node1&#45;&gt;Node3 -->
<g id="edge2_Node000001_Node000003" class="edge">
<title>Node1&#45;&gt;Node3</title>
<g id="a_edge2_Node000001_Node000003"><a xlink:title=" ">
<path fill="none" stroke="#63b8ff" d="M120.37,-230.99C137.58,-221.58 160.14,-209.24 177.14,-199.95"/>
<polygon fill="#63b8ff" stroke="#63b8ff" points="178.84,-203.01 185.94,-195.14 175.49,-196.87 178.84,-203.01"/>
</a>
</g>
</g>
<!-- Node3&#45;&gt;Node2 -->
<g id="edge14_Node000003_Node000002" class="edge">
<title>Node3&#45;&gt;Node2</title>
<g id="a_edge14_Node000003_Node000002"><a xlink:title=" ">
<path fill="none" stroke="#63b8ff" d="M201.18,-175.63C199.47,-148.52 194.27,-66.32 191.92,-29.13"/>
<polygon fill="#63b8ff" stroke="#63b8ff" points="195.41,-28.9 191.29,-19.14 188.42,-29.34 195.41,-28.9"/>
</a>
</g>
</g>
<!-- Node4 -->
<g id="Node000004" class="node">
<title>Node4</title>
<g id="a_Node000004"><a xlink:href="meta_8h.html" target="_top" xlink:title=" ">
<polygon fill="white" stroke="#666666" points="342.24,-140 253.24,-140 253.24,-121 342.24,-121 342.24,-140"/>
<text text-anchor="middle" x="297.74" y="-128" font-family="Times,serif" font-size="10.00">ttg/util/meta.h</text>
</a>
</g>
</g>
<!-- Node3&#45;&gt;Node4 -->
<g id="edge3_Node000003_Node000004" class="edge">
<title>Node3&#45;&gt;Node4</title>
<g id="a_edge3_Node000003_Node000004"><a xlink:title=" ">
<path fill="none" stroke="#63b8ff" d="M217.16,-175.98C232.19,-167.69 255.28,-154.94 272.9,-145.22"/>
<polygon fill="#63b8ff" stroke="#63b8ff" points="274.97,-148.07 282.04,-140.17 271.59,-141.94 274.97,-148.07"/>
</a>
</g>
</g>
<!-- Node13 -->
<g id="Node000013" class="node">
<title>Node13</title>
<g id="a_Node000013"><a xlink:title=" ">
<polygon fill="#e0e0e0" stroke="#999999" points="421.24,-140 360.24,-140 360.24,-121 421.24,-121 421.24,-140"/>
<text text-anchor="middle" x="390.74" y="-128" font-family="Times,serif" font-size="10.00">iostream</text>
</a>
</g>
</g>
<!-- Node3&#45;&gt;Node13 -->
<g id="edge15_Node000003_Node000013" class="edge">
<title>Node3&#45;&gt;Node13</title>
<g id="a_edge15_Node000003_Node000013"><a xlink:title=" ">
<path fill="none" stroke="#63b8ff" d="M232.11,-175.98C264.11,-167.01 314.7,-152.82 350.12,-142.89"/>
<polygon fill="#63b8ff" stroke="#63b8ff" points="351.45,-146.15 360.14,-140.08 349.56,-139.41 351.45,-146.15"/>
</a>
</g>
</g>
<!-- Node14 -->
<g id="Node000014" class="node">
<title>Node14</title>
<g id="a_Node000014"><a xlink:href="backends_8h.html" target="_top" xlink:title=" ">
<polygon fill="white" stroke="#666666" points="173.24,-140 16.24,-140 16.24,-121 173.24,-121 173.24,-140"/>
<text text-anchor="middle" x="94.74" y="-128" font-family="Times,serif" font-size="10.00">ttg/serialization/backends.h</text>
</a>
</g>
</g>
<!-- Node3&#45;&gt;Node14 -->
<g id="edge16_Node000003_Node000014" class="edge">
<title>Node3&#45;&gt;Node14</title>
<g id="a_edge16_Node000003_Node000014"><a xlink:title=" ">
<path fill="none" stroke="#63b8ff" d="M184.55,-175.98C167.49,-167.54 141.11,-154.47 121.34,-144.68"/>
<polygon fill="#63b8ff" stroke="#63b8ff" points="122.76,-141.47 112.24,-140.17 119.65,-147.75 122.76,-141.47"/>
</a>
</g>
</g>
<!-- Node4&#45;&gt;Node2 -->
<g id="edge5_Node000004_Node000002" class="edge">
<title>Node4&#45;&gt;Node2</title>
<g id="a_edge5_Node000004_Node000002"><a xlink:title=" ">
<path fill="none" stroke="#63b8ff" d="M301.88,-120.79C308.28,-105.89 318.52,-75.17 304.74,-55 296.3,-42.64 262.62,-30.41 234.04,-21.9"/>
<polygon fill="#63b8ff" stroke="#63b8ff" points="234.77,-18.47 224.19,-19.06 232.83,-25.2 234.77,-18.47"/>
</a>
</g>
</g>
<!-- Node5 -->
<g id="Node000005" class="node">
<title>Node5</title>
<g id="a_Node000005"><a xlink:title=" ">
<polygon fill="#e0e0e0" stroke="#999999" points="295.74,-79.5 227.74,-79.5 227.74,-60.5 295.74,-60.5 295.74,-79.5"/>
<text text-anchor="middle" x="261.74" y="-67.5" font-family="Times,serif" font-size="10.00">functional</text>
</a>
</g>
</g>
<!-- Node4&#45;&gt;Node5 -->
<g id="edge4_Node000004_Node000005" class="edge">
<title>Node4&#45;&gt;Node5</title>
<g id="a_edge4_Node000004_Node000005"><a xlink:title=" ">
<path fill="none" stroke="#63b8ff" d="M292.43,-120.87C287.16,-112.31 278.95,-98.97 272.35,-88.24"/>
<polygon fill="#63b8ff" stroke="#63b8ff" points="275.3,-86.35 267.07,-79.67 269.33,-90.02 275.3,-86.35"/>
</a>
</g>
</g>
<!-- Node6 -->
<g id="Node000006" class="node">
<title>Node6</title>
<g id="a_Node000006"><a xlink:href="span_8h.html" target="_top" xlink:title=" ">
<polygon fill="white" stroke="#666666" points="439.74,-79.5 351.74,-79.5 351.74,-60.5 439.74,-60.5 439.74,-79.5"/>
<text text-anchor="middle" x="395.74" y="-67.5" font-family="Times,serif" font-size="10.00">ttg/util/span.h</text>
</a>
</g>
</g>
<!-- Node4&#45;&gt;Node6 -->
<g id="edge6_Node000004_Node000006" class="edge">
<title>Node4&#45;&gt;Node6</title>
<g id="a_edge6_Node000004_Node000006"><a xlink:title=" ">
<path fill="none" stroke="#63b8ff" d="M312.2,-120.87C328.05,-111.41 353.71,-96.09 372.42,-84.92"/>
<polygon fill="#63b8ff" stroke="#63b8ff" points="374.43,-87.8 381.22,-79.67 370.84,-81.79 374.43,-87.8"/>
</a>
</g>
</g>
<!-- Node11 -->
<g id="Node000011" class="node">
<title>Node11</title>
<g id="a_Node000011"><a xlink:href="typelist_8h.html" target="_top" xlink:title=" ">
<polygon fill="white" stroke="#666666" points="582.24,-79.5 481.24,-79.5 481.24,-60.5 582.24,-60.5 582.24,-79.5"/>
<text text-anchor="middle" x="531.74" y="-67.5" font-family="Times,serif" font-size="10.00">ttg/util/typelist.h</text>
</a>
</g>
</g>
<!-- Node4&#45;&gt;Node11 -->
<g id="edge12_Node000004_Node000011" class="edge">
<title>Node4&#45;&gt;Node11</title>
<g id="a_edge12_Node000004_Node000011"><a xlink:title=" ">
<path fill="none" stroke="#63b8ff" d="M331.77,-120.99C373.01,-110.68 442.6,-93.28 487.85,-81.97"/>
<polygon fill="#63b8ff" stroke="#63b8ff" points="488.82,-85.34 497.67,-79.52 487.12,-78.55 488.82,-85.34"/>
</a>
</g>
</g>
<!-- Node6&#45;&gt;Node2 -->
<g id="edge10_Node000006_Node000002" class="edge">
<title>Node6&#45;&gt;Node2</title>
<g id="a_edge10_Node000006_Node000002"><a xlink:title=" ">
<path fill="none" stroke="#63b8ff" d="M365.93,-60.49C330.18,-50.29 270.11,-33.15 230.45,-21.83"/>
<polygon fill="#63b8ff" stroke="#63b8ff" points="231.16,-18.4 220.58,-19.02 229.24,-25.13 231.16,-18.4"/>
</a>
</g>
</g>
<!-- Node7 -->
<g id="Node000007" class="node">
<title>Node7</title>
<g id="a_Node000007"><a xlink:title=" ">
<polygon fill="#e0e0e0" stroke="#999999" points="288.74,-19 244.74,-19 244.74,0 288.74,0 288.74,-19"/>
<text text-anchor="middle" x="266.74" y="-7" font-family="Times,serif" font-size="10.00">array</text>
</a>
</g>
</g>
<!-- Node6&#45;&gt;Node7 -->
<g id="edge7_Node000006_Node000007" class="edge">
<title>Node6&#45;&gt;Node7</title>
<g id="a_edge7_Node000006_Node000007"><a xlink:title=" ">
<path fill="none" stroke="#63b8ff" d="M376.98,-60.49C355.39,-50.7 319.71,-34.52 294.81,-23.23"/>
<polygon fill="#63b8ff" stroke="#63b8ff" points="296.07,-19.96 285.52,-19.02 293.18,-26.33 296.07,-19.96"/>
</a>
</g>
</g>
<!-- Node8 -->
<g id="Node000008" class="node">
<title>Node8</title>
<g id="a_Node000008"><a xlink:title=" ">
<polygon fill="#e0e0e0" stroke="#999999" points="360.74,-19 306.74,-19 306.74,0 360.74,0 360.74,-19"/>
<text text-anchor="middle" x="333.74" y="-7" font-family="Times,serif" font-size="10.00">cstddef</text>
</a>
</g>
</g>
<!-- Node6&#45;&gt;Node8 -->
<g id="edge8_Node000006_Node000008" class="edge">
<title>Node6&#45;&gt;Node8</title>
<g id="a_edge8_Node000006_Node000008"><a xlink:title=" ">
<path fill="none" stroke="#63b8ff" d="M386.59,-60.37C377.07,-51.38 361.94,-37.11 350.31,-26.14"/>
<polygon fill="#63b8ff" stroke="#63b8ff" points="352.6,-23.48 342.93,-19.17 347.8,-28.58 352.6,-23.48"/>
</a>
</g>
</g>
<!-- Node9 -->
<g id="Node000009" class="node">
<title>Node9</title>
<g id="a_Node000009"><a xlink:title=" ">
<polygon fill="#e0e0e0" stroke="#999999" points="430.24,-19 379.24,-19 379.24,0 430.24,0 430.24,-19"/>
<text text-anchor="middle" x="404.74" y="-7" font-family="Times,serif" font-size="10.00">cstdint</text>
</a>
</g>
</g>
<!-- Node6&#45;&gt;Node9 -->
<g id="edge9_Node000006_Node000009" class="edge">
<title>Node6&#45;&gt;Node9</title>
<g id="a_edge9_Node000006_Node000009"><a xlink:title=" ">
<path fill="none" stroke="#63b8ff" d="M397.07,-60.37C398.33,-52.16 400.27,-39.54 401.89,-29.05"/>
<polygon fill="#63b8ff" stroke="#63b8ff" points="405.35,-29.58 403.41,-19.17 398.43,-28.52 405.35,-29.58"/>
</a>
</g>
</g>
<!-- Node10 -->
<g id="Node000010" class="node">
<title>Node10</title>
<g id="a_Node000010"><a xlink:title=" ">
<polygon fill="#e0e0e0" stroke="#999999" points="514.74,-19 448.74,-19 448.74,0 514.74,0 514.74,-19"/>
<text text-anchor="middle" x="481.74" y="-7" font-family="Times,serif" font-size="10.00">exception</text>
</a>
</g>
</g>
<!-- Node6&#45;&gt;Node10 -->
<g id="edge11_Node000006_Node000010" class="edge">
<title>Node6&#45;&gt;Node10</title>
<g id="a_edge11_Node000006_Node000010"><a xlink:title=" ">
<path fill="none" stroke="#63b8ff" d="M408.43,-60.37C422.15,-51.04 444.24,-36.01 460.59,-24.88"/>
<polygon fill="#63b8ff" stroke="#63b8ff" points="462.7,-27.69 469,-19.17 458.76,-21.9 462.7,-27.69"/>
</a>
</g>
</g>
<!-- Node12 -->
<g id="Node000012" class="node">
<title>Node12</title>
<g id="a_Node000012"><a xlink:title=" ">
<polygon fill="#e0e0e0" stroke="#999999" points="576.24,-19 533.24,-19 533.24,0 576.24,0 576.24,-19"/>
<text text-anchor="middle" x="554.74" y="-7" font-family="Times,serif" font-size="10.00">tuple</text>
</a>
</g>
</g>
<!-- Node11&#45;&gt;Node12 -->
<g id="edge13_Node000011_Node000012" class="edge">
<title>Node11&#45;&gt;Node12</title>
<g id="a_edge13_Node000011_Node000012"><a xlink:title=" ">
<path fill="none" stroke="#63b8ff" d="M535.13,-60.37C538.4,-52.07 543.43,-39.28 547.58,-28.72"/>
<polygon fill="#63b8ff" stroke="#63b8ff" points="550.93,-29.75 551.33,-19.17 544.42,-27.19 550.93,-29.75"/>
</a>
</g>
</g>
<!-- Node14&#45;&gt;Node1 -->
<g id="edge19_Node000014_Node000001" class="edge">
<title>Node14&#45;&gt;Node1</title>
<g id="a_edge19_Node000014_Node000001"><a xlink:title=" ">
<path fill="none" stroke="#63b8ff" d="M94.74,-140.23C94.74,-157.18 94.74,-195.09 94.74,-220.35"/>
<polygon fill="#63b8ff" stroke="#63b8ff" points="91.24,-220.63 94.74,-230.63 98.24,-220.63 91.24,-220.63"/>
</a>
</g>
</g>
<!-- Node15 -->
<g id="Node000015" class="node">
<title>Node15</title>
<g id="a_Node000015"><a xlink:href="boost_8h.html" target="_top" xlink:title=" ">
<polygon fill="white" stroke="#666666" points="169.24,-85 22.24,-85 22.24,-55 169.24,-55 169.24,-85"/>
<text text-anchor="start" x="30.24" y="-73" font-family="Times,serif" font-size="10.00">ttg/serialization/backends</text>
<text text-anchor="middle" x="95.74" y="-62" font-family="Times,serif" font-size="10.00">/boost.h</text>
</a>
</g>
</g>
<!-- Node14&#45;&gt;Node15 -->
<g id="edge17_Node000014_Node000015" class="edge">
<title>Node14&#45;&gt;Node15</title>
<g id="a_edge17_Node000014_Node000015"><a xlink:title=" ">
<path fill="none" stroke="#63b8ff" d="M94.89,-120.87C95,-114.11 95.17,-104.35 95.33,-95.26"/>
<polygon fill="#63b8ff" stroke="#63b8ff" points="98.83,-95.17 95.5,-85.11 91.83,-95.05 98.83,-95.17"/>
</a>
</g>
</g>
<!-- Node15&#45;&gt;Node2 -->
<g id="edge18_Node000015_Node000002" class="edge">
<title>Node15&#45;&gt;Node2</title>
<g id="a_edge18_Node000015_Node000002"><a xlink:title=" ">
<path fill="none" stroke="#63b8ff" d="M118.74,-54.84C133.74,-45.6 153.24,-33.59 168.17,-24.4"/>
<polygon fill="#63b8ff" stroke="#63b8ff" points="170.1,-27.32 176.78,-19.09 166.43,-21.36 170.1,-27.32"/>
</a>
</g>
</g>
</g>
</svg>
