<?xml version="1.0" encoding="UTF-8" standalone="no"?>
<!DOCTYPE svg PUBLIC "-//W3C//DTD SVG 1.1//EN"
 "http://www.w3.org/Graphics/SVG/1.1/DTD/svg11.dtd">
<!-- Generated by graphviz version 2.43.0 (0)
 -->
<!-- Title: ttg::finalize Pages: 1 -->
<svg width="390pt" height="100pt"
 viewBox="0.00 0.00 390.00 100.00" xmlns="http://www.w3.org/2000/svg" xmlns:xlink="http://www.w3.org/1999/xlink">

<svg id="main" version="1.1" xmlns="http://www.w3.org/2000/svg" xmlns:xlink="http://www.w3.org/1999/xlink" xml:space="preserve" onload="init(evt)">
<style type="text/css"><![CDATA[
.node, .edge {opacity: 0.7;}
.node.selected, .edge.selected {opacity: 1;}
.edge:hover path { stroke: red; }
.edge:hover polygon { stroke: red; fill: red; }
]]></style>
<script type="application/ecmascript" xlink:href="svg.min.js"/>
<svg id="graph" class="graph">
<g id="graph0" class="graph" transform="scale(1 1) rotate(0) translate(4 96)">
<title>ttg::finalize</title>
<!-- Node1 -->
<g id="Node000001" class="node">
<title>Node1</title>
<g id="a_Node000001"><a xlink:title="Finalizes the TTG runtime.">
<polygon fill="#999999" stroke="#666666" points="74,-43.5 0,-43.5 0,-24.5 74,-24.5 74,-43.5"/>
<text text-anchor="middle" x="37" y="-31.5" font-family="Times,serif" font-size="10.00">ttg::finalize</text>
</a>
</g>
</g>
<!-- Node2 -->
<g id="Node000002" class="node">
<title>Node2</title>
<g id="a_Node000002"><a xlink:href="namespacettg_1_1detail.html#aa052371edfa4cc08284a526ff426c037" target="_top" xlink:title=" ">
<polygon fill="white" stroke="#666666" points="225,-92 110,-92 110,-62 225,-62 225,-92"/>
<text text-anchor="start" x="118" y="-80" font-family="Times,serif" font-size="10.00">ttg::detail::finalized</text>
<text text-anchor="middle" x="167.5" y="-69" font-family="Times,serif" font-size="10.00">_accessor</text>
</a>
</g>
</g>
<!-- Node1&#45;&gt;Node2 -->
<g id="edge1_Node000001_Node000002" class="edge">
<title>Node1&#45;&gt;Node2</title>
<g id="a_edge1_Node000001_Node000002"><a xlink:title=" ">
<path fill="none" stroke="#63b8ff" d="M66.52,-43.54C79.93,-48.03 96.38,-53.54 112.04,-58.78"/>
<polygon fill="#63b8ff" stroke="#63b8ff" points="111.06,-62.14 121.66,-61.99 113.28,-55.5 111.06,-62.14"/>
</a>
</g>
</g>
<!-- Node3 -->
<g id="Node000003" class="node">
<title>Node3</title>
<g id="a_Node000003"><a xlink:href="namespacettg.html#ac2a23489e146ae0a7b155ba3f7fe177f" target="_top" xlink:title=" ">
<polygon fill="white" stroke="#666666" points="210.5,-43.5 124.5,-43.5 124.5,-24.5 210.5,-24.5 210.5,-43.5"/>
<text text-anchor="middle" x="167.5" y="-31.5" font-family="Times,serif" font-size="10.00">ttg::initialized</text>
</a>
</g>
</g>
<!-- Node1&#45;&gt;Node3 -->
<g id="edge2_Node000001_Node000003" class="edge">
<title>Node1&#45;&gt;Node3</title>
<g id="a_edge2_Node000001_Node000003"><a xlink:title=" ">
<path fill="none" stroke="#63b8ff" d="M74.14,-34C86.56,-34 100.73,-34 114.17,-34"/>
<polygon fill="#63b8ff" stroke="#63b8ff" points="114.28,-37.5 124.28,-34 114.28,-30.5 114.28,-37.5"/>
</a>
</g>
</g>
<!-- Node4 -->
<g id="Node000004" class="node">
<title>Node4</title>
<g id="a_Node000004"><a xlink:href="namespacettg_1_1detail.html#a5837cdc38d7dd80b56782aaafd4dfee0" target="_top" xlink:title=" ">
<polygon fill="white" stroke="#666666" points="382,-30 261,-30 261,0 382,0 382,-30"/>
<text text-anchor="start" x="269" y="-18" font-family="Times,serif" font-size="10.00">ttg::detail::initialized</text>
<text text-anchor="middle" x="321.5" y="-7" font-family="Times,serif" font-size="10.00">_accessor</text>
</a>
</g>
</g>
<!-- Node1&#45;&gt;Node4 -->
<g id="edge4_Node000001_Node000004" class="edge">
<title>Node1&#45;&gt;Node4</title>
<g id="a_edge4_Node000001_Node000004"><a xlink:title=" ">
<path fill="none" stroke="#63b8ff" d="M69.23,-24.45C81.78,-21.08 96.45,-17.7 110,-16 156.63,-10.15 209.53,-9.92 250.64,-11.15"/>
<polygon fill="#63b8ff" stroke="#63b8ff" points="250.71,-14.65 260.82,-11.49 250.95,-7.66 250.71,-14.65"/>
</a>
</g>
</g>
<!-- Node3&#45;&gt;Node4 -->
<g id="edge3_Node000003_Node000004" class="edge">
<title>Node3&#45;&gt;Node4</title>
<g id="a_edge3_Node000003_Node000004"><a xlink:title=" ">
<path fill="none" stroke="#63b8ff" d="M210.84,-28.71C223.16,-27.17 236.96,-25.44 250.5,-23.75"/>
<polygon fill="#63b8ff" stroke="#63b8ff" points="251.29,-27.18 260.78,-22.46 250.42,-20.23 251.29,-27.18"/>
</a>
</g>
</g>
</g>
</svg>
</svg>

<style type='text/css'>
<![CDATA[
[data-mouse-over-selected='false'] { opacity: 0.7; }
[data-mouse-over-selected='true']  { opacity: 1.0; }
]]>
</style>
<script type="application/ecmascript"><![CDATA[
document.addEventListener('DOMContentLoaded', (event) => {
  highlightEdges();
  highlightAdjacentNodes();
});
]]></script>
</svg>
