<?xml version="1.0" encoding="UTF-8" standalone="no"?>
<!DOCTYPE svg PUBLIC "-//W3C//DTD SVG 1.1//EN"
 "http://www.w3.org/Graphics/SVG/1.1/DTD/svg11.dtd">
<!-- Generated by graphviz version 2.43.0 (0)
 -->
<!-- Title: ttg_madness::ttg_fence Pages: 1 -->
<svg width="451pt" height="38pt"
 viewBox="0.00 0.00 451.00 38.00" xmlns="http://www.w3.org/2000/svg" xmlns:xlink="http://www.w3.org/1999/xlink">
<g id="graph0" class="graph" transform="scale(1 1) rotate(0) translate(4 34)">
<title>ttg_madness::ttg_fence</title>
<!-- Node1 -->
<g id="Node000001" class="node">
<title>Node1</title>
<g id="a_Node000001"><a xlink:title=" ">
<polygon fill="#999999" stroke="#666666" points="135,-24.5 0,-24.5 0,-5.5 135,-5.5 135,-24.5"/>
<text text-anchor="middle" x="67.5" y="-12.5" font-family="Times,serif" font-size="10.00">ttg_madness::ttg_fence</text>
</a>
</g>
</g>
<!-- Node2 -->
<g id="Node000002" class="node">
<title>Node2</title>
<g id="a_Node000002"><a xlink:href="classttg_1_1base_1_1_world.html#aabab7c9df8f16919ab41a864c8b1adc4" target="_top" xlink:title=" ">
<polygon fill="white" stroke="#666666" points="296,-24.5 171,-24.5 171,-5.5 296,-5.5 296,-24.5"/>
<text text-anchor="middle" x="233.5" y="-12.5" font-family="Times,serif" font-size="10.00">ttg::base::World::impl</text>
</a>
</g>
</g>
<!-- Node1&#45;&gt;Node2 -->
<g id="edge1_Node000001_Node000002" class="edge">
<title>Node1&#45;&gt;Node2</title>
<g id="a_edge1_Node000001_Node000002"><a xlink:title=" ">
<path fill="none" stroke="#63b8ff" d="M135.21,-15C143.59,-15 152.2,-15 160.66,-15"/>
<polygon fill="#63b8ff" stroke="#63b8ff" points="160.88,-18.5 170.88,-15 160.88,-11.5 160.88,-18.5"/>
</a>
</g>
</g>
<!-- Node3 -->
<g id="Node000003" class="node">
<title>Node3</title>
<g id="a_Node000003"><a xlink:href="classttg_1_1base_1_1_world.html#af39ca1832f455a94134515f94aaa8533" target="_top" xlink:title=" ">
<polygon fill="white" stroke="#666666" points="443,-30 332,-30 332,0 443,0 443,-30"/>
<text text-anchor="start" x="340" y="-18" font-family="Times,serif" font-size="10.00">ttg::base::World::is</text>
<text text-anchor="middle" x="387.5" y="-7" font-family="Times,serif" font-size="10.00">_valid</text>
</a>
</g>
</g>
<!-- Node2&#45;&gt;Node3 -->
<g id="edge2_Node000002_Node000003" class="edge">
<title>Node2&#45;&gt;Node3</title>
<g id="a_edge2_Node000002_Node000003"><a xlink:title=" ">
<path fill="none" stroke="#63b8ff" d="M296.32,-15C304.62,-15 313.15,-15 321.5,-15"/>
<polygon fill="#63b8ff" stroke="#63b8ff" points="321.57,-18.5 331.57,-15 321.57,-11.5 321.57,-18.5"/>
</a>
</g>
</g>
</g>
</svg>
