<?xml version="1.0" encoding="UTF-8" standalone="no"?>
<!DOCTYPE svg PUBLIC "-//W3C//DTD SVG 1.1//EN"
 "http://www.w3.org/Graphics/SVG/1.1/DTD/svg11.dtd">
<!-- Generated by graphviz version 2.43.0 (0)
 -->
<!-- Title: ttg::sendk Pages: 1 -->
<svg width="197pt" height="45pt"
 viewBox="0.00 0.00 197.00 45.00" xmlns="http://www.w3.org/2000/svg" xmlns:xlink="http://www.w3.org/1999/xlink">
<g id="graph0" class="graph" transform="scale(1 1) rotate(0) translate(4 41)">
<title>ttg::sendk</title>
<!-- Node1 -->
<g id="Node000001" class="node">
<title>Node1</title>
<g id="a_Node000001"><a xlink:title="Sends a task id (without an accompanying value) to the template tasks attached to the output terminal...">
<polygon fill="#999999" stroke="#666666" points="68,-19 0,-19 0,0 68,0 68,-19"/>
<text text-anchor="middle" x="34" y="-7" font-family="Times,serif" font-size="10.00">ttg::sendk</text>
</a>
</g>
</g>
<!-- Node2 -->
<g id="Node000002" class="node">
<title>Node2</title>
<g id="a_Node000002"><a xlink:href="namespacettg_1_1meta.html#affd90f350d054c6a5b4859644d834172" target="_top" xlink:title=" ">
<polygon fill="white" stroke="#666666" points="189,-19 104,-19 104,0 189,0 189,-19"/>
<text text-anchor="middle" x="146.5" y="-7" font-family="Times,serif" font-size="10.00">ttg::meta::get</text>
</a>
</g>
</g>
<!-- Node1&#45;&gt;Node2 -->
<g id="edge1_Node000001_Node000002" class="edge">
<title>Node1&#45;&gt;Node2</title>
<g id="a_edge1_Node000001_Node000002"><a xlink:title=" ">
<path fill="none" stroke="#63b8ff" d="M68.15,-9.5C76.2,-9.5 84.98,-9.5 93.66,-9.5"/>
<polygon fill="#63b8ff" stroke="#63b8ff" points="93.74,-13 103.74,-9.5 93.74,-6 93.74,-13"/>
</a>
</g>
</g>
<!-- Node2&#45;&gt;Node2 -->
<g id="edge2_Node000002_Node000002" class="edge">
<title>Node2&#45;&gt;Node2</title>
<g id="a_edge2_Node000002_Node000002"><a xlink:title=" ">
<path fill="none" stroke="#63b8ff" d="M129.24,-19.08C120.84,-27.73 126.59,-37 146.5,-37 158.94,-37 165.85,-33.38 167.24,-28.55"/>
<polygon fill="#63b8ff" stroke="#63b8ff" points="170.49,-27.26 163.76,-19.08 163.92,-29.68 170.49,-27.26"/>
</a>
</g>
</g>
</g>
</svg>
