<?xml version="1.0" encoding="UTF-8" standalone="no"?>
<!DOCTYPE svg PUBLIC "-//W3C//DTD SVG 1.1//EN"
 "http://www.w3.org/Graphics/SVG/1.1/DTD/svg11.dtd">
<!-- Generated by graphviz version 2.43.0 (0)
 -->
<!-- Title: ttg::connect Pages: 1 -->
<!--zoomable 312 -->

<svg id="main" version="1.1" xmlns="http://www.w3.org/2000/svg" xmlns:xlink="http://www.w3.org/1999/xlink" xml:space="preserve" onload="init(evt)">
<style type="text/css"><![CDATA[
.node, .edge {opacity: 0.7;}
.node.selected, .edge.selected {opacity: 1;}
.edge:hover path { stroke: red; }
.edge:hover polygon { stroke: red; fill: red; }
]]></style>

<defs>
  <circle id="rim" cx="0" cy="0" r="7"/>
  <circle id="rim2" cx="0" cy="0" r="3.5"/>
  <g id="zoomPlus">
    <use xlink:href="#rim" fill="#404040"><set attributeName="fill" to="#808080" begin="zoomplus.mouseover" end="zoomplus.mouseout"/></use>
    <path d="M-4,0h8M0,-4v8" fill="none" stroke="white" stroke-width="1.5" pointer-events="none"/>
  </g>
  <g id="zoomMin">
    <use xlink:href="#rim" fill="#404040"><set attributeName="fill" to="#808080" begin="zoomminus.mouseover" end="zoomminus.mouseout"/></use>
    <path d="M-4,0h8" fill="none" stroke="white" stroke-width="1.5" pointer-events="none"/>
  </g>
  <g id="arrowUp" transform="translate(30 24)">
    <use xlink:href="#rim"/>
    <path pointer-events="none" fill="none" stroke="white" stroke-width="1.5" d="M0,-3.0v7 M-2.5,-0.5L0,-3.0L2.5,-0.5"/>
  </g>
  <g id="arrowRight" transform="rotate(90) translate(36 -43)">
    <use xlink:href="#rim"/>
    <path pointer-events="none" fill="none" stroke="white" stroke-width="1.5" d="M0,-3.0v7 M-2.5,-0.5L0,-3.0L2.5,-0.5"/>
  </g>
  <g id="arrowDown" transform="rotate(180) translate(-30 -48)">
    <use xlink:href="#rim"/>
    <path pointer-events="none" fill="none" stroke="white" stroke-width="1.5" d="M0,-3.0v7 M-2.5,-0.5L0,-3.0L2.5,-0.5"/>
  </g>
  <g id="arrowLeft" transform="rotate(270) translate(-36 17)">
    <use xlink:href="#rim"/>
    <path pointer-events="none" fill="none" stroke="white" stroke-width="1.5" d="M0,-3.0v7 M-2.5,-0.5L0,-3.0L2.5,-0.5"/>
  </g>
  <g id="resetDef">
    <use xlink:href="#rim2" fill="#404040"><set attributeName="fill" to="#808080" begin="reset.mouseover" end="reset.mouseout"/></use>
  </g>
</defs>
<script type="application/ecmascript">
var viewWidth = 625;
var viewHeight = 312;
var sectionId = 'dynsection-12';
</script>
<script type="application/ecmascript" xlink:href="svg.min.js"/>
<svg id="graph" class="graph">
<g id="viewport">
<title>ttg::connect</title>
<!-- Node1 -->
<g id="Node000001" class="node">
<title>Node1</title>
<g id="a_Node000001"><a xlink:title="Connect output terminal to successor input terminal.">
<polygon fill="#999999" stroke="#666666" points="77,-178.5 0,-178.5 0,-159.5 77,-159.5 77,-178.5"/>
<text text-anchor="middle" x="38.5" y="-166.5" font-family="Times,serif" font-size="10.00">ttg::connect</text>
</a>
</g>
</g>
<!-- Node2 -->
<g id="Node000002" class="node">
<title>Node2</title>
<g id="a_Node000002"><a xlink:href="classttg_1_1_out.html#a0dd09ce5a40514317b0677a68e08a4a8" target="_top" xlink:title=" ">
<polygon fill="white" stroke="#666666" points="214,-178.5 113,-178.5 113,-159.5 214,-159.5 214,-178.5"/>
<text text-anchor="middle" x="163.5" y="-166.5" font-family="Times,serif" font-size="10.00">ttg::Out::connect</text>
</a>
</g>
</g>
<!-- Node1&#45;&gt;Node2 -->
<g id="edge1_Node000001_Node000002" class="edge">
<title>Node1&#45;&gt;Node2</title>
<g id="a_edge1_Node000001_Node000002"><a xlink:title=" ">
<path fill="none" stroke="#63b8ff" d="M77.07,-169C85.2,-169 93.98,-169 102.72,-169"/>
<polygon fill="#63b8ff" stroke="#63b8ff" points="102.91,-172.5 112.91,-169 102.91,-165.5 102.91,-172.5"/>
</a>
</g>
</g>
<!-- Node3 -->
<g id="Node000003" class="node">
<title>Node3</title>
<g id="a_Node000003"><a xlink:href="classttg_1_1_terminal_base.html#a40df40809acfc616d60c9377bf6cfa61" target="_top" xlink:title=" ">
<polygon fill="white" stroke="#666666" points="363,-304 250,-304 250,-274 363,-274 363,-304"/>
<text text-anchor="start" x="258" y="-292" font-family="Times,serif" font-size="10.00">ttg::TerminalBase::</text>
<text text-anchor="middle" x="306.5" y="-281" font-family="Times,serif" font-size="10.00">connect_base</text>
</a>
</g>
</g>
<!-- Node2&#45;&gt;Node3 -->
<g id="edge2_Node000002_Node000003" class="edge">
<title>Node2&#45;&gt;Node3</title>
<g id="a_edge2_Node000002_Node000003"><a xlink:title=" ">
<path fill="none" stroke="#63b8ff" d="M170.94,-178.7C183.9,-197.59 214.9,-239.64 250,-265 251.87,-266.35 253.82,-267.64 255.83,-268.88"/>
<polygon fill="#63b8ff" stroke="#63b8ff" points="254.51,-272.15 264.95,-273.95 257.91,-266.03 254.51,-272.15"/>
</a>
</g>
</g>
<!-- Node4 -->
<g id="Node000004" class="node">
<title>Node4</title>
<g id="a_Node000004"><a xlink:href="classttg_1_1_terminal_base.html#ab19aac249a137dbb8199e5d87dfefd5c" target="_top" xlink:title=" ">
<polygon fill="white" stroke="#666666" points="363,-256 250,-256 250,-226 363,-226 363,-256"/>
<text text-anchor="start" x="258" y="-244" font-family="Times,serif" font-size="10.00">ttg::TerminalBase::</text>
<text text-anchor="middle" x="306.5" y="-233" font-family="Times,serif" font-size="10.00">connect_pull</text>
</a>
</g>
</g>
<!-- Node2&#45;&gt;Node4 -->
<g id="edge3_Node000002_Node000004" class="edge">
<title>Node2&#45;&gt;Node4</title>
<g id="a_edge3_Node000002_Node000004"><a xlink:title=" ">
<path fill="none" stroke="#63b8ff" d="M180.31,-178.53C197.27,-188.59 225.14,-204.69 250,-217 253.15,-218.56 256.43,-220.13 259.75,-221.66"/>
<polygon fill="#63b8ff" stroke="#63b8ff" points="258.58,-224.98 269.13,-225.91 261.46,-218.6 258.58,-224.98"/>
</a>
</g>
</g>
<!-- Node5 -->
<g id="Node000005" class="node">
<title>Node5</title>
<g id="a_Node000005"><a xlink:href="classttg_1_1_terminal_base.html#afb14b11c29459fc8aa5a2cb4297b5c2e" target="_top" xlink:title="Returns name of terminal.">
<polygon fill="white" stroke="#666666" points="363,-208 250,-208 250,-178 363,-178 363,-208"/>
<text text-anchor="start" x="258" y="-196" font-family="Times,serif" font-size="10.00">ttg::TerminalBase::</text>
<text text-anchor="middle" x="306.5" y="-185" font-family="Times,serif" font-size="10.00">get_name</text>
</a>
</g>
</g>
<!-- Node2&#45;&gt;Node5 -->
<g id="edge4_Node000002_Node000005" class="edge">
<title>Node2&#45;&gt;Node5</title>
<g id="a_edge4_Node000002_Node000005"><a xlink:title=" ">
<path fill="none" stroke="#63b8ff" d="M214.21,-177.46C222.53,-178.88 231.28,-180.37 239.92,-181.84"/>
<polygon fill="#63b8ff" stroke="#63b8ff" points="239.55,-185.32 249.99,-183.55 240.72,-178.42 239.55,-185.32"/>
</a>
</g>
</g>
<!-- Node6 -->
<g id="Node000006" class="node">
<title>Node6</title>
<g id="a_Node000006"><a xlink:href="classttg_1_1_terminal_base.html#a57202041203e7ed427c3f2fe28d39e7b" target="_top" xlink:title="Returns the terminal type.">
<polygon fill="white" stroke="#666666" points="363,-160 250,-160 250,-130 363,-130 363,-160"/>
<text text-anchor="start" x="258" y="-148" font-family="Times,serif" font-size="10.00">ttg::TerminalBase::</text>
<text text-anchor="middle" x="306.5" y="-137" font-family="Times,serif" font-size="10.00">get_type</text>
</a>
</g>
</g>
<!-- Node2&#45;&gt;Node6 -->
<g id="edge5_Node000002_Node000006" class="edge">
<title>Node2&#45;&gt;Node6</title>
<g id="a_edge5_Node000002_Node000006"><a xlink:title=" ">
<path fill="none" stroke="#63b8ff" d="M214.21,-160.54C222.53,-159.12 231.28,-157.63 239.92,-156.16"/>
<polygon fill="#63b8ff" stroke="#63b8ff" points="240.72,-159.58 249.99,-154.45 239.55,-152.68 240.72,-159.58"/>
</a>
</g>
</g>
<!-- Node7 -->
<g id="Node000007" class="node">
<title>Node7</title>
<g id="a_Node000007"><a xlink:href="namespacettg.html#ac0ad1dd3b87329e4acf9774df6dc8473" target="_top" xlink:title=" ">
<polygon fill="white" stroke="#666666" points="336.5,-111.5 276.5,-111.5 276.5,-92.5 336.5,-92.5 336.5,-111.5"/>
<text text-anchor="middle" x="306.5" y="-99.5" font-family="Times,serif" font-size="10.00">ttg::rank</text>
</a>
</g>
</g>
<!-- Node2&#45;&gt;Node7 -->
<g id="edge6_Node000002_Node000007" class="edge">
<title>Node2&#45;&gt;Node7</title>
<g id="a_edge6_Node000002_Node000007"><a xlink:title=" ">
<path fill="none" stroke="#63b8ff" d="M179.51,-159.46C196.25,-149.1 224.36,-132.47 250,-121 255.36,-118.6 261.12,-116.32 266.83,-114.22"/>
<polygon fill="#63b8ff" stroke="#63b8ff" points="268.04,-117.51 276.31,-110.88 265.71,-110.91 268.04,-117.51"/>
</a>
</g>
</g>
<!-- Node8 -->
<g id="Node000008" class="node">
<title>Node8</title>
<g id="a_Node000008"><a xlink:href="namespacettg.html#af5e470229c1ddef41b83b6398a5dc583" target="_top" xlink:title=" ">
<polygon fill="white" stroke="#666666" points="337.5,-74.5 275.5,-74.5 275.5,-55.5 337.5,-55.5 337.5,-74.5"/>
<text text-anchor="middle" x="306.5" y="-62.5" font-family="Times,serif" font-size="10.00">ttg::trace</text>
</a>
</g>
</g>
<!-- Node2&#45;&gt;Node8 -->
<g id="edge7_Node000002_Node000008" class="edge">
<title>Node2&#45;&gt;Node8</title>
<g id="a_edge7_Node000002_Node000008"><a xlink:title=" ">
<path fill="none" stroke="#63b8ff" d="M171.67,-159.43C185.16,-142.03 216.05,-105.11 250,-84 254.81,-81.01 260.15,-78.42 265.57,-76.2"/>
<polygon fill="#63b8ff" stroke="#63b8ff" points="267.13,-79.36 275.29,-72.6 264.69,-72.79 267.13,-79.36"/>
</a>
</g>
</g>
<!-- Node9 -->
<g id="Node000009" class="node">
<title>Node9</title>
<g id="a_Node000009"><a xlink:href="namespacettg.html#aacacfe8bc9582308a405c4370650a9d4" target="_top" xlink:title="atomically prints to std::clog a sequence of items (separated by ttg::print_separator) followed by st...">
<polygon fill="white" stroke="#666666" points="462,-131.5 409,-131.5 409,-112.5 462,-112.5 462,-131.5"/>
<text text-anchor="middle" x="435.5" y="-119.5" font-family="Times,serif" font-size="10.00">ttg::log</text>
</a>
</g>
</g>
<!-- Node8&#45;&gt;Node9 -->
<g id="edge8_Node000008_Node000009" class="edge">
<title>Node8&#45;&gt;Node9</title>
<g id="a_edge8_Node000008_Node000009"><a xlink:title=" ">
<path fill="none" stroke="#63b8ff" d="M337.79,-74.4C346.06,-77.23 354.96,-80.52 363,-84 378.93,-90.91 396.13,-99.99 409.67,-107.55"/>
<polygon fill="#63b8ff" stroke="#63b8ff" points="407.97,-110.61 418.39,-112.49 411.42,-104.52 407.97,-110.61"/>
</a>
</g>
</g>
<!-- Node11 -->
<g id="Node000011" class="node">
<title>Node11</title>
<g id="a_Node000011"><a xlink:href="namespacettg.html#afbdd9c742be395e0746fdbc26c7d55cc" target="_top" xlink:title="returns whether tracing was enabled at configure time">
<polygon fill="white" stroke="#666666" points="617,-81.5 508,-81.5 508,-62.5 617,-62.5 617,-81.5"/>
<text text-anchor="middle" x="562.5" y="-69.5" font-family="Times,serif" font-size="10.00">ttg::trace_enabled</text>
</a>
</g>
</g>
<!-- Node8&#45;&gt;Node11 -->
<g id="edge10_Node000008_Node000011" class="edge">
<title>Node8&#45;&gt;Node11</title>
<g id="a_edge10_Node000008_Node000011"><a xlink:title=" ">
<path fill="none" stroke="#63b8ff" d="M337.63,-65.83C376.85,-66.91 446.41,-68.83 497.62,-70.24"/>
<polygon fill="#63b8ff" stroke="#63b8ff" points="497.83,-73.75 507.92,-70.52 498.02,-66.75 497.83,-73.75"/>
</a>
</g>
</g>
<!-- Node12 -->
<g id="Node000012" class="node">
<title>Node12</title>
<g id="a_Node000012"><a xlink:href="namespacettg.html#abfb8501d408a1ed918cc2a540865a2d8" target="_top" xlink:title="returns whether tracing is enabled">
<polygon fill="white" stroke="#666666" points="472,-55.5 399,-55.5 399,-36.5 472,-36.5 472,-55.5"/>
<text text-anchor="middle" x="435.5" y="-43.5" font-family="Times,serif" font-size="10.00">ttg::tracing</text>
</a>
</g>
</g>
<!-- Node8&#45;&gt;Node12 -->
<g id="edge11_Node000008_Node000012" class="edge">
<title>Node8&#45;&gt;Node12</title>
<g id="a_edge11_Node000008_Node000012"><a xlink:title=" ">
<path fill="none" stroke="#63b8ff" d="M337.6,-60.5C352.78,-58.23 371.53,-55.42 388.48,-52.88"/>
<polygon fill="#63b8ff" stroke="#63b8ff" points="389.38,-56.29 398.75,-51.35 388.34,-49.37 389.38,-56.29"/>
</a>
</g>
</g>
<!-- Node10 -->
<g id="Node000010" class="node">
<title>Node10</title>
<g id="a_Node000010"><a xlink:href="namespacettg_1_1detail.html#a26e07486d5ef8eb5735a8975991a7693" target="_top" xlink:title=" ">
<polygon fill="white" stroke="#666666" points="610.5,-137 514.5,-137 514.5,-107 610.5,-107 610.5,-137"/>
<text text-anchor="start" x="522.5" y="-125" font-family="Times,serif" font-size="10.00">ttg::detail::print</text>
<text text-anchor="middle" x="562.5" y="-114" font-family="Times,serif" font-size="10.00">_helper</text>
</a>
</g>
</g>
<!-- Node9&#45;&gt;Node10 -->
<g id="edge9_Node000009_Node000010" class="edge">
<title>Node9&#45;&gt;Node10</title>
<g id="a_edge9_Node000009_Node000010"><a xlink:title=" ">
<path fill="none" stroke="#63b8ff" d="M462.1,-122C474.34,-122 489.53,-122 504.32,-122"/>
<polygon fill="#63b8ff" stroke="#63b8ff" points="504.46,-125.5 514.46,-122 504.46,-118.5 504.46,-125.5"/>
</a>
</g>
</g>
<!-- Node12&#45;&gt;Node11 -->
<g id="edge14_Node000012_Node000011" class="edge">
<title>Node12&#45;&gt;Node11</title>
<g id="a_edge14_Node000012_Node000011"><a xlink:title=" ">
<path fill="none" stroke="#63b8ff" d="M472.32,-53.45C482.7,-55.61 494.29,-58.02 505.58,-60.37"/>
<polygon fill="#63b8ff" stroke="#63b8ff" points="504.89,-63.8 515.4,-62.41 506.32,-56.95 504.89,-63.8"/>
</a>
</g>
</g>
<!-- Node13 -->
<g id="Node000013" class="node">
<title>Node13</title>
<g id="a_Node000013"><a xlink:href="namespacettg_1_1detail.html#a95356c3874e7ec9268a40feb4fc1519f" target="_top" xlink:title=" ">
<polygon fill="white" stroke="#666666" points="611,-30 514,-30 514,0 611,0 611,-30"/>
<text text-anchor="start" x="522" y="-18" font-family="Times,serif" font-size="10.00">ttg::detail::trace</text>
<text text-anchor="middle" x="562.5" y="-7" font-family="Times,serif" font-size="10.00">_accessor</text>
</a>
</g>
</g>
<!-- Node12&#45;&gt;Node13 -->
<g id="edge12_Node000012_Node000013" class="edge">
<title>Node12&#45;&gt;Node13</title>
<g id="a_edge12_Node000012_Node000013"><a xlink:title=" ">
<path fill="none" stroke="#63b8ff" d="M472.32,-37.12C482.15,-34.68 493.07,-31.97 503.79,-29.31"/>
<polygon fill="#63b8ff" stroke="#63b8ff" points="504.69,-32.69 513.56,-26.89 503.01,-25.9 504.69,-32.69"/>
</a>
</g>
</g>
<!-- Node13&#45;&gt;Node8 -->
<g id="edge13_Node000013_Node000008" class="edge">
<title>Node13&#45;&gt;Node8</title>
<g id="a_edge13_Node000013_Node000008"><a xlink:title=" ">
<path fill="none" stroke="#63b8ff" d="M513.96,-14.54C481.23,-15.18 436.98,-17.96 399,-27 376.55,-32.34 352.5,-42.52 334.7,-51"/>
<polygon fill="#63b8ff" stroke="#63b8ff" points="332.94,-47.96 325.5,-55.49 336.02,-54.25 332.94,-47.96"/>
</a>
</g>
</g>
</g>
</svg>

<g id="navigator" transform="translate(0 0)" fill="#404254">
  <rect fill="#f2f5e9" fill-opacity="0.5" stroke="#606060" stroke-width=".5" x="0" y="0" width="60" height="60"/>
  <use id="zoomplus" xlink:href="#zoomPlus" x="17" y="9" onmousedown="handleZoom(evt,'in')"/>
  <use id="zoomminus" xlink:href="#zoomMin" x="42" y="9" onmousedown="handleZoom(evt,'out')"/>
  <use id="reset" xlink:href="#resetDef" x="30" y="36" onmousedown="handleReset()"/>
   <use id="arrowup" xlink:href="#arrowUp" x="0" y="0" onmousedown="handlePan(0,-1)"/>
  <use id="arrowright" xlink:href="#arrowRight" x="0" y="0" onmousedown="handlePan(1,0)"/>
  <use id="arrowdown" xlink:href="#arrowDown" x="0" y="0" onmousedown="handlePan(0,1)"/>
  <use id="arrowleft" xlink:href="#arrowLeft" x="0" y="0" onmousedown="handlePan(-1,0)"/>
</g>
<svg viewBox="0 0 15 15" width="100%" height="30px" preserveAspectRatio="xMaxYMin meet">
 <g id="arrow_out" transform="scale(0.3 0.3)">
  <a xlink:href="namespacettg_ac31d3ffe687039e52a8179b0ffca7153_cgraph_org.svg" target="_base">
   <rect id="button" ry="5" rx="5" y="6" x="6" height="38" width="38"
        fill="#f2f5e9" fill-opacity="0.5" stroke="#606060" stroke-width="1.0"/>
   <path id="arrow"
     d="M 11.500037,31.436501 C 11.940474,20.09759 22.043105,11.32322 32.158766,21.979434 L 37.068811,17.246167 C 37.068811,17.246167 37.088388,32 37.088388,32 L 22.160133,31.978069 C 22.160133,31.978069 26.997745,27.140456 26.997745,27.140456 C 18.528582,18.264221 13.291696,25.230495 11.500037,31.436501 z"
     style="fill:#404040;"/>
  </a>
 </g>
</svg>

<style type='text/css'>
<![CDATA[
[data-mouse-over-selected='false'] { opacity: 0.7; }
[data-mouse-over-selected='true']  { opacity: 1.0; }
]]>
</style>
<script type="application/ecmascript"><![CDATA[
document.addEventListener('DOMContentLoaded', (event) => {
  highlightEdges();
  highlightAdjacentNodes();
});
]]></script>
</svg>
