<?xml version="1.0" encoding="UTF-8" standalone="no"?>
<!DOCTYPE svg PUBLIC "-//W3C//DTD SVG 1.1//EN"
 "http://www.w3.org/Graphics/SVG/1.1/DTD/svg11.dtd">
<!-- Generated by graphviz version 2.43.0 (0)
 -->
<!-- Title: ttg::send Pages: 1 -->
<svg width="191pt" height="100pt"
 viewBox="0.00 0.00 191.00 100.00" xmlns="http://www.w3.org/2000/svg" xmlns:xlink="http://www.w3.org/1999/xlink">

<svg id="main" version="1.1" xmlns="http://www.w3.org/2000/svg" xmlns:xlink="http://www.w3.org/1999/xlink" xml:space="preserve" onload="init(evt)">
<style type="text/css"><![CDATA[
.node, .edge {opacity: 0.7;}
.node.selected, .edge.selected {opacity: 1;}
.edge:hover path { stroke: red; }
.edge:hover polygon { stroke: red; fill: red; }
]]></style>
<script type="application/ecmascript" xlink:href="svg.min.js"/>
<svg id="graph" class="graph">
<g id="graph0" class="graph" transform="scale(1 1) rotate(0) translate(4 96)">
<title>ttg::send</title>
<!-- Node1 -->
<g id="Node000001" class="node">
<title>Node1</title>
<g id="a_Node000001"><a xlink:title="Sends a task id and a value to the template tasks attached to the output terminal of this template ta...">
<polygon fill="#999999" stroke="#666666" points="62,-46 0,-46 0,-27 62,-27 62,-46"/>
<text text-anchor="middle" x="31" y="-34" font-family="Times,serif" font-size="10.00">ttg::send</text>
</a>
</g>
</g>
<!-- Node2 -->
<g id="Node000002" class="node">
<title>Node2</title>
<g id="a_Node000002"><a xlink:href="namespacettg_1_1meta.html#affd90f350d054c6a5b4859644d834172" target="_top" xlink:title=" ">
<polygon fill="white" stroke="#666666" points="183,-74 98,-74 98,-55 183,-55 183,-74"/>
<text text-anchor="middle" x="140.5" y="-62" font-family="Times,serif" font-size="10.00">ttg::meta::get</text>
</a>
</g>
</g>
<!-- Node1&#45;&gt;Node2 -->
<g id="edge1_Node000001_Node000002" class="edge">
<title>Node1&#45;&gt;Node2</title>
<g id="a_edge1_Node000001_Node000002"><a xlink:title=" ">
<path fill="none" stroke="#63b8ff" d="M62.23,-44.37C71.83,-46.87 82.68,-49.7 93.14,-52.43"/>
<polygon fill="#63b8ff" stroke="#63b8ff" points="92.45,-55.86 103.01,-55 94.21,-49.09 92.45,-55.86"/>
</a>
</g>
</g>
<!-- Node3 -->
<g id="Node000003" class="node">
<title>Node3</title>
<g id="a_Node000003"><a xlink:href="namespacettg.html#a1b23b6cea5360627c9f1e1e9f421bcf3" target="_top" xlink:title="Sends a control message (message without an accompanying task id or a value) to the template tasks at...">
<polygon fill="white" stroke="#666666" points="171.5,-19 109.5,-19 109.5,0 171.5,0 171.5,-19"/>
<text text-anchor="middle" x="140.5" y="-7" font-family="Times,serif" font-size="10.00">ttg::send</text>
</a>
</g>
</g>
<!-- Node1&#45;&gt;Node3 -->
<g id="edge3_Node000001_Node000003" class="edge">
<title>Node1&#45;&gt;Node3</title>
<g id="a_edge3_Node000001_Node000003"><a xlink:title=" ">
<path fill="none" stroke="#63b8ff" d="M62.23,-28.91C73.78,-26.01 87.13,-22.65 99.45,-19.56"/>
<polygon fill="#63b8ff" stroke="#63b8ff" points="100.65,-22.87 109.5,-17.04 98.94,-16.08 100.65,-22.87"/>
</a>
</g>
</g>
<!-- Node2&#45;&gt;Node2 -->
<g id="edge2_Node000002_Node000002" class="edge">
<title>Node2&#45;&gt;Node2</title>
<g id="a_edge2_Node000002_Node000002"><a xlink:title=" ">
<path fill="none" stroke="#63b8ff" d="M123.85,-74.08C115.76,-82.73 121.3,-92 140.5,-92 152.5,-92 159.16,-88.38 160.5,-83.55"/>
<polygon fill="#63b8ff" stroke="#63b8ff" points="163.78,-82.34 157.15,-74.08 157.18,-84.68 163.78,-82.34"/>
</a>
</g>
</g>
<!-- Node3&#45;&gt;Node3 -->
<g id="edge4_Node000003_Node000003" class="edge">
<title>Node3&#45;&gt;Node3</title>
<g id="a_edge4_Node000003_Node000003"><a xlink:title=" ">
<path fill="none" stroke="#63b8ff" d="M123.85,-19.08C115.76,-27.73 121.3,-37 140.5,-37 152.5,-37 159.16,-33.38 160.5,-28.55"/>
<polygon fill="#63b8ff" stroke="#63b8ff" points="163.78,-27.34 157.15,-19.08 157.18,-29.68 163.78,-27.34"/>
</a>
</g>
</g>
</g>
</svg>
</svg>

<style type='text/css'>
<![CDATA[
[data-mouse-over-selected='false'] { opacity: 0.7; }
[data-mouse-over-selected='true']  { opacity: 1.0; }
]]>
</style>
<script type="application/ecmascript"><![CDATA[
document.addEventListener('DOMContentLoaded', (event) => {
  highlightEdges();
  highlightAdjacentNodes();
});
]]></script>
</svg>
