<?xml version="1.0" encoding="UTF-8" standalone="no"?>
<!DOCTYPE svg PUBLIC "-//W3C//DTD SVG 1.1//EN"
 "http://www.w3.org/Graphics/SVG/1.1/DTD/svg11.dtd">
<!-- Generated by graphviz version 2.43.0 (0)
 -->
<!-- Title: ttg::detail::diagnose_accessor Pages: 1 -->
<svg width="263pt" height="101pt"
 viewBox="0.00 0.00 263.00 101.00" xmlns="http://www.w3.org/2000/svg" xmlns:xlink="http://www.w3.org/1999/xlink">

<svg id="main" version="1.1" xmlns="http://www.w3.org/2000/svg" xmlns:xlink="http://www.w3.org/1999/xlink" xml:space="preserve" onload="init(evt)">
<style type="text/css"><![CDATA[
.node, .edge {opacity: 0.7;}
.node.selected, .edge.selected {opacity: 1;}
.edge:hover path { stroke: red; }
.edge:hover polygon { stroke: red; fill: red; }
]]></style>
<script type="application/ecmascript" xlink:href="svg.min.js"/>
<svg id="graph" class="graph">
<g id="graph0" class="graph" transform="scale(1 1) rotate(0) translate(4 97)">
<title>ttg::detail::diagnose_accessor</title>
<!-- Node1 -->
<g id="Node000001" class="node">
<title>Node1</title>
<g id="a_Node000001"><a xlink:title=" ">
<polygon fill="#999999" stroke="#666666" points="255,-79.5 137,-79.5 137,-49.5 255,-49.5 255,-79.5"/>
<text text-anchor="start" x="145" y="-67.5" font-family="Times,serif" font-size="10.00">ttg::detail::diagnose</text>
<text text-anchor="middle" x="196" y="-56.5" font-family="Times,serif" font-size="10.00">_accessor</text>
</a>
</g>
</g>
<!-- Node2 -->
<g id="Node000002" class="node">
<title>Node2</title>
<g id="a_Node000002"><a xlink:href="namespacettg.html#a34d9ec9e8e0d0b0a11cb6df934247dfe" target="_top" xlink:title=" ">
<polygon fill="white" stroke="#666666" points="92,-93 9,-93 9,-74 92,-74 92,-93"/>
<text text-anchor="middle" x="50.5" y="-81" font-family="Times,serif" font-size="10.00">ttg::diagnose</text>
</a>
</g>
</g>
<!-- Node1&#45;&gt;Node2 -->
<g id="edge1_Node000001_Node000002" class="edge">
<title>Node1&#45;&gt;Node2</title>
<g id="a_edge1_Node000001_Node000002"><a xlink:title=" ">
<path fill="none" stroke="#63b8ff" d="M126.7,-66.8C110.66,-68.86 94.39,-71.4 81.1,-74"/>
<polygon fill="#63b8ff" stroke="#63b8ff" points="127.13,-70.27 136.63,-65.58 126.28,-63.33 127.13,-70.27"/>
</a>
</g>
</g>
<!-- Node3 -->
<g id="Node000003" class="node">
<title>Node3</title>
<g id="a_Node000003"><a xlink:href="namespacettg.html#aacf9cee7849bcfb0208794af9ee52941" target="_top" xlink:title=" ">
<polygon fill="white" stroke="#666666" points="101,-56 0,-56 0,-37 101,-37 101,-56"/>
<text text-anchor="middle" x="50.5" y="-44" font-family="Times,serif" font-size="10.00">ttg::diagnose_off</text>
</a>
</g>
</g>
<!-- Node1&#45;&gt;Node3 -->
<g id="edge3_Node000001_Node000003" class="edge">
<title>Node1&#45;&gt;Node3</title>
<g id="a_edge3_Node000001_Node000003"><a xlink:title=" ">
<path fill="none" stroke="#63b8ff" d="M126.59,-55.92C117.99,-54.84 109.32,-53.75 101.09,-52.72"/>
<polygon fill="#63b8ff" stroke="#63b8ff" points="126.28,-59.41 136.63,-57.18 127.15,-52.46 126.28,-59.41"/>
</a>
</g>
</g>
<!-- Node4 -->
<g id="Node000004" class="node">
<title>Node4</title>
<g id="a_Node000004"><a xlink:href="namespacettg.html#a0367b1d8f25df55737220b1eef1d19d8" target="_top" xlink:title=" ">
<polygon fill="white" stroke="#666666" points="101,-19 0,-19 0,0 101,0 101,-19"/>
<text text-anchor="middle" x="50.5" y="-7" font-family="Times,serif" font-size="10.00">ttg::diagnose_on</text>
</a>
</g>
</g>
<!-- Node1&#45;&gt;Node4 -->
<g id="edge4_Node000001_Node000004" class="edge">
<title>Node1&#45;&gt;Node4</title>
<g id="a_edge4_Node000001_Node000004"><a xlink:title=" ">
<path fill="none" stroke="#63b8ff" d="M146.35,-45.86C122.95,-36.89 95.88,-26.51 76.66,-19.14"/>
<polygon fill="#63b8ff" stroke="#63b8ff" points="145.2,-49.16 155.79,-49.47 147.7,-42.62 145.2,-49.16"/>
</a>
</g>
</g>
<!-- Node2&#45;&gt;Node1 -->
<g id="edge2_Node000002_Node000001" class="edge">
<title>Node2&#45;&gt;Node1</title>
<g id="a_edge2_Node000002_Node000001"><a xlink:title=" ">
<path fill="none" stroke="#63b8ff" d="M102.22,-83.27C113.35,-82.08 125.23,-80.56 136.63,-78.87"/>
<polygon fill="#63b8ff" stroke="#63b8ff" points="101.84,-79.79 92.24,-84.26 102.53,-86.76 101.84,-79.79"/>
</a>
</g>
</g>
</g>
</svg>
</svg>

<style type='text/css'>
<![CDATA[
[data-mouse-over-selected='false'] { opacity: 0.7; }
[data-mouse-over-selected='true']  { opacity: 1.0; }
]]>
</style>
<script type="application/ecmascript"><![CDATA[
document.addEventListener('DOMContentLoaded', (event) => {
  highlightEdges();
  highlightAdjacentNodes();
});
]]></script>
</svg>
