<?xml version="1.0" encoding="UTF-8" standalone="no"?>
<!DOCTYPE svg PUBLIC "-//W3C//DTD SVG 1.1//EN"
 "http://www.w3.org/Graphics/SVG/1.1/DTD/svg11.dtd">
<!-- Generated by graphviz version 2.43.0 (0)
 -->
<!-- Title: ttg_parsec::detail::foreach_parsec_data Pages: 1 -->
<svg width="494pt" height="200pt"
 viewBox="0.00 0.00 494.00 199.50" xmlns="http://www.w3.org/2000/svg" xmlns:xlink="http://www.w3.org/1999/xlink">

<svg id="main" version="1.1" xmlns="http://www.w3.org/2000/svg" xmlns:xlink="http://www.w3.org/1999/xlink" xml:space="preserve" onload="init(evt)">
<style type="text/css"><![CDATA[
.node, .edge {opacity: 0.7;}
.node.selected, .edge.selected {opacity: 1;}
.edge:hover path { stroke: red; }
.edge:hover polygon { stroke: red; fill: red; }
]]></style>
<script type="application/ecmascript" xlink:href="svg.min.js"/>
<svg id="graph" class="graph">
<g id="graph0" class="graph" transform="scale(1 1) rotate(0) translate(4 195.5)">
<title>ttg_parsec::detail::foreach_parsec_data</title>
<!-- Node1 -->
<g id="Node000001" class="node">
<title>Node1</title>
<g id="a_Node000001"><a xlink:title=" ">
<polygon fill="#999999" stroke="#666666" points="486,-121 358,-121 358,-91 486,-91 486,-121"/>
<text text-anchor="start" x="366" y="-109" font-family="Times,serif" font-size="10.00">ttg_parsec::detail</text>
<text text-anchor="middle" x="422" y="-98" font-family="Times,serif" font-size="10.00">::foreach_parsec_data</text>
</a>
</g>
</g>
<!-- Node2 -->
<g id="Node000002" class="node">
<title>Node2</title>
<g id="a_Node000002"><a xlink:href="classttg__parsec_1_1_t_t.html#ab267d50d29a8a845a5578f67d6c75f2a" target="_top" xlink:title=" ">
<polygon fill="white" stroke="#666666" points="167,-191.5 0,-191.5 0,-172.5 167,-172.5 167,-191.5"/>
<text text-anchor="middle" x="83.5" y="-179.5" font-family="Times,serif" font-size="10.00">ttg_parsec::TT::broadcast_arg</text>
</a>
</g>
</g>
<!-- Node1&#45;&gt;Node2 -->
<g id="edge1_Node000001_Node000002" class="edge">
<title>Node1&#45;&gt;Node2</title>
<g id="a_edge1_Node000001_Node000002"><a xlink:title=" ">
<path fill="none" stroke="#63b8ff" d="M397.28,-127.71C378.41,-143.5 350.52,-163.66 322,-173 272.39,-189.24 213.82,-191.63 167.26,-189.89"/>
<polygon fill="#63b8ff" stroke="#63b8ff" points="399.73,-130.22 405.04,-121.05 395.17,-124.91 399.73,-130.22"/>
</a>
</g>
</g>
<!-- Node3 -->
<g id="Node000003" class="node">
<title>Node3</title>
<g id="a_Node000003"><a xlink:href="classttg__parsec_1_1_t_t.html#a620e641c7024e14437f199e475f92db6" target="_top" xlink:title=" ">
<polygon fill="white" stroke="#666666" points="319,-164 206,-164 206,-134 319,-134 319,-164"/>
<text text-anchor="start" x="214" y="-152" font-family="Times,serif" font-size="10.00">ttg_parsec::TT::can</text>
<text text-anchor="middle" x="262.5" y="-141" font-family="Times,serif" font-size="10.00">_inline_data</text>
</a>
</g>
</g>
<!-- Node1&#45;&gt;Node3 -->
<g id="edge2_Node000001_Node000003" class="edge">
<title>Node1&#45;&gt;Node3</title>
<g id="a_edge2_Node000001_Node000003"><a xlink:title=" ">
<path fill="none" stroke="#63b8ff" d="M356.05,-123.73C343.59,-127.13 330.66,-130.66 318.55,-133.97"/>
<polygon fill="#63b8ff" stroke="#63b8ff" points="357.19,-127.05 365.91,-121.04 355.35,-120.3 357.19,-127.05"/>
</a>
</g>
</g>
<!-- Node4 -->
<g id="Node000004" class="node">
<title>Node4</title>
<g id="a_Node000004"><a xlink:href="classttg__parsec_1_1_t_t.html#af647004ce89dc81d1202dd68070f0bde" target="_top" xlink:title=" ">
<polygon fill="white" stroke="#666666" points="138.5,-145 28.5,-145 28.5,-115 138.5,-115 138.5,-145"/>
<text text-anchor="start" x="36.5" y="-133" font-family="Times,serif" font-size="10.00">ttg_parsec::TT::set</text>
<text text-anchor="middle" x="83.5" y="-122" font-family="Times,serif" font-size="10.00">_arg_impl</text>
</a>
</g>
</g>
<!-- Node1&#45;&gt;Node4 -->
<g id="edge8_Node000001_Node000004" class="edge">
<title>Node1&#45;&gt;Node4</title>
<g id="a_edge8_Node000001_Node000004"><a xlink:title=" ">
<path fill="none" stroke="#63b8ff" d="M347.44,-111.25C284.46,-115.74 195.24,-122.1 138.62,-126.14"/>
<polygon fill="#63b8ff" stroke="#63b8ff" points="347.98,-114.72 357.71,-110.51 347.48,-107.73 347.98,-114.72"/>
</a>
</g>
</g>
<!-- Node5 -->
<g id="Node000005" class="node">
<title>Node5</title>
<g id="a_Node000005"><a xlink:href="classttg__parsec_1_1_t_t.html#af0ad3fe4092ed50f7d73ed92f568b209" target="_top" xlink:title=" ">
<polygon fill="white" stroke="#666666" points="322,-78 203,-78 203,-48 322,-48 322,-78"/>
<text text-anchor="start" x="211" y="-66" font-family="Times,serif" font-size="10.00">ttg_parsec::TT::copy</text>
<text text-anchor="middle" x="262.5" y="-55" font-family="Times,serif" font-size="10.00">_mark_pushout</text>
</a>
</g>
</g>
<!-- Node1&#45;&gt;Node5 -->
<g id="edge5_Node000001_Node000005" class="edge">
<title>Node1&#45;&gt;Node5</title>
<g id="a_edge5_Node000001_Node000005"><a xlink:title=" ">
<path fill="none" stroke="#63b8ff" d="M356.05,-88.27C343.59,-84.87 330.66,-81.34 318.55,-78.03"/>
<polygon fill="#63b8ff" stroke="#63b8ff" points="355.35,-91.7 365.91,-90.96 357.19,-84.95 355.35,-91.7"/>
</a>
</g>
</g>
<!-- Node7 -->
<g id="Node000007" class="node">
<title>Node7</title>
<g id="a_Node000007"><a xlink:href="classttg__parsec_1_1_t_t.html#ab9cbb6fbff64a26d98e2905560422e8c" target="_top" xlink:title=" ">
<polygon fill="white" stroke="#666666" points="317.5,-30 207.5,-30 207.5,0 317.5,0 317.5,-30"/>
<text text-anchor="start" x="215.5" y="-18" font-family="Times,serif" font-size="10.00">ttg_parsec::TT::set</text>
<text text-anchor="middle" x="262.5" y="-7" font-family="Times,serif" font-size="10.00">_arg_from_msg</text>
</a>
</g>
</g>
<!-- Node1&#45;&gt;Node7 -->
<g id="edge7_Node000001_Node000007" class="edge">
<title>Node1&#45;&gt;Node7</title>
<g id="a_edge7_Node000001_Node000007"><a xlink:title=" ">
<path fill="none" stroke="#63b8ff" d="M393.22,-84.93C373.89,-70.85 347.17,-52.5 322,-39 316.1,-35.84 309.69,-32.82 303.35,-30.05"/>
<polygon fill="#63b8ff" stroke="#63b8ff" points="391.16,-87.76 401.29,-90.87 395.31,-82.12 391.16,-87.76"/>
</a>
</g>
</g>
<!-- Node3&#45;&gt;Node2 -->
<g id="edge3_Node000003_Node000002" class="edge">
<title>Node3&#45;&gt;Node2</title>
<g id="a_edge3_Node000003_Node000002"><a xlink:title=" ">
<path fill="none" stroke="#63b8ff" d="M196.04,-161.21C176.09,-164.92 154.46,-168.96 135.61,-172.47"/>
<polygon fill="#63b8ff" stroke="#63b8ff" points="196.79,-164.62 205.98,-159.35 195.51,-157.74 196.79,-164.62"/>
</a>
</g>
</g>
<!-- Node3&#45;&gt;Node4 -->
<g id="edge4_Node000003_Node000004" class="edge">
<title>Node3&#45;&gt;Node4</title>
<g id="a_edge4_Node000003_Node000004"><a xlink:title=" ">
<path fill="none" stroke="#63b8ff" d="M195.97,-141.97C177.09,-139.94 156.71,-137.75 138.61,-135.81"/>
<polygon fill="#63b8ff" stroke="#63b8ff" points="195.67,-145.45 205.98,-143.04 196.41,-138.49 195.67,-145.45"/>
</a>
</g>
</g>
<!-- Node6 -->
<g id="Node000006" class="node">
<title>Node6</title>
<g id="a_Node000006"><a xlink:href="classttg__parsec_1_1_t_t.html#a2e11524aaacb5beebc988786e1f6a92c" target="_top" xlink:title=" ">
<polygon fill="white" stroke="#666666" points="137,-78 30,-78 30,-48 137,-48 137,-78"/>
<text text-anchor="start" x="38" y="-66" font-family="Times,serif" font-size="10.00">ttg_parsec::TT::do</text>
<text text-anchor="middle" x="83.5" y="-55" font-family="Times,serif" font-size="10.00">_prepare_send</text>
</a>
</g>
</g>
<!-- Node5&#45;&gt;Node6 -->
<g id="edge6_Node000005_Node000006" class="edge">
<title>Node5&#45;&gt;Node6</title>
<g id="a_edge6_Node000005_Node000006"><a xlink:title=" ">
<path fill="none" stroke="#63b8ff" d="M192.5,-63C174.13,-63 154.57,-63 137.23,-63"/>
<polygon fill="#63b8ff" stroke="#63b8ff" points="192.56,-66.5 202.56,-63 192.56,-59.5 192.56,-66.5"/>
</a>
</g>
</g>
</g>
</svg>
</svg>

<style type='text/css'>
<![CDATA[
[data-mouse-over-selected='false'] { opacity: 0.7; }
[data-mouse-over-selected='true']  { opacity: 1.0; }
]]>
</style>
<script type="application/ecmascript"><![CDATA[
document.addEventListener('DOMContentLoaded', (event) => {
  highlightEdges();
  highlightAdjacentNodes();
});
]]></script>
</svg>
