<?xml version="1.0" encoding="UTF-8" standalone="no"?>
<!DOCTYPE svg PUBLIC "-//W3C//DTD SVG 1.1//EN"
 "http://www.w3.org/Graphics/SVG/1.1/DTD/svg11.dtd">
<!-- Generated by graphviz version 2.43.0 (0)
 -->
<!-- Title: ttg::detail::broadcast Pages: 1 -->
<svg width="288pt" height="249pt"
 viewBox="0.00 0.00 288.00 249.00" xmlns="http://www.w3.org/2000/svg" xmlns:xlink="http://www.w3.org/1999/xlink">

<svg id="main" version="1.1" xmlns="http://www.w3.org/2000/svg" xmlns:xlink="http://www.w3.org/1999/xlink" xml:space="preserve" onload="init(evt)">
<style type="text/css"><![CDATA[
.node, .edge {opacity: 0.7;}
.node.selected, .edge.selected {opacity: 1;}
.edge:hover path { stroke: red; }
.edge:hover polygon { stroke: red; fill: red; }
]]></style>
<script type="application/ecmascript" xlink:href="svg.min.js"/>
<svg id="graph" class="graph">
<g id="graph0" class="graph" transform="scale(1 1) rotate(0) translate(4 245)">
<title>ttg::detail::broadcast</title>
<!-- Node1 -->
<g id="Node000001" class="node">
<title>Node1</title>
<g id="a_Node000001"><a xlink:title=" ">
<polygon fill="#999999" stroke="#666666" points="280,-130 158,-130 158,-111 280,-111 280,-130"/>
<text text-anchor="middle" x="219" y="-118" font-family="Times,serif" font-size="10.00">ttg::detail::broadcast</text>
</a>
</g>
</g>
<!-- Node1&#45;&gt;Node1 -->
<g id="edge5_Node000001_Node000001" class="edge">
<title>Node1&#45;&gt;Node1</title>
<g id="a_edge5_Node000001_Node000001"><a xlink:title=" ">
<path fill="none" stroke="#63b8ff" d="M248.49,-138.82C247.26,-144.01 237.43,-148 219,-148 190.92,-148 182.8,-138.73 194.65,-130.08"/>
<polygon fill="#63b8ff" stroke="#63b8ff" points="251.44,-136.93 243.35,-130.08 245.41,-140.48 251.44,-136.93"/>
</a>
</g>
</g>
<!-- Node2 -->
<g id="Node000002" class="node">
<title>Node2</title>
<g id="a_Node000002"><a xlink:href="namespacettg_1_1detail.html#af0cd55a640abd73c4760329260a09ba2" target="_top" xlink:title=" ">
<polygon fill="white" stroke="#666666" points="122,-241 0,-241 0,-222 122,-222 122,-241"/>
<text text-anchor="middle" x="61" y="-229" font-family="Times,serif" font-size="10.00">ttg::detail::broadcast</text>
</a>
</g>
</g>
<!-- Node1&#45;&gt;Node2 -->
<g id="edge1_Node000001_Node000002" class="edge">
<title>Node1&#45;&gt;Node2</title>
<g id="a_edge1_Node000001_Node000002"><a xlink:title=" ">
<path fill="none" stroke="#63b8ff" d="M204.22,-138.27C187.1,-159.18 155.98,-193.57 122,-213.5 116.28,-216.86 109.88,-219.64 103.44,-221.92"/>
<polygon fill="#63b8ff" stroke="#63b8ff" points="207.15,-140.21 210.67,-130.21 201.69,-135.84 207.15,-140.21"/>
</a>
</g>
</g>
<!-- Node3 -->
<g id="Node000003" class="node">
<title>Node3</title>
<g id="a_Node000003"><a xlink:href="namespacettg_1_1detail.html#a9d591282fbb338459fafb4d2c1360d8c" target="_top" xlink:title=" ">
<polygon fill="white" stroke="#666666" points="122,-204 0,-204 0,-185 122,-185 122,-204"/>
<text text-anchor="middle" x="61" y="-192" font-family="Times,serif" font-size="10.00">ttg::detail::broadcast</text>
</a>
</g>
</g>
<!-- Node1&#45;&gt;Node3 -->
<g id="edge2_Node000001_Node000003" class="edge">
<title>Node1&#45;&gt;Node3</title>
<g id="a_edge2_Node000001_Node000003"><a xlink:title=" ">
<path fill="none" stroke="#63b8ff" d="M195.4,-135.75C176.44,-148.03 148.31,-165.07 122,-176.5 114.72,-179.66 106.71,-182.49 98.98,-184.9"/>
<polygon fill="#63b8ff" stroke="#63b8ff" points="197.49,-138.57 203.92,-130.15 193.65,-132.72 197.49,-138.57"/>
</a>
</g>
</g>
<!-- Node4 -->
<g id="Node000004" class="node">
<title>Node4</title>
<g id="a_Node000004"><a xlink:href="namespacettg_1_1detail.html#adaaa172e6c45c0096b3b94b9c2df68bb" target="_top" xlink:title=" ">
<polygon fill="white" stroke="#666666" points="122,-167 0,-167 0,-148 122,-148 122,-167"/>
<text text-anchor="middle" x="61" y="-155" font-family="Times,serif" font-size="10.00">ttg::detail::broadcast</text>
</a>
</g>
</g>
<!-- Node1&#45;&gt;Node4 -->
<g id="edge3_Node000001_Node000004" class="edge">
<title>Node1&#45;&gt;Node4</title>
<g id="a_edge3_Node000001_Node000004"><a xlink:title=" ">
<path fill="none" stroke="#63b8ff" d="M168.01,-132.36C146.78,-137.39 122.36,-143.18 102.31,-147.94"/>
<polygon fill="#63b8ff" stroke="#63b8ff" points="168.9,-135.74 177.83,-130.03 167.29,-128.93 168.9,-135.74"/>
</a>
</g>
</g>
<!-- Node5 -->
<g id="Node000005" class="node">
<title>Node5</title>
<g id="a_Node000005"><a xlink:href="namespacettg.html#ac8e21a740dc51633bdb551ca9a15599c" target="_top" xlink:title=" ">
<polygon fill="white" stroke="#666666" points="104.5,-130 17.5,-130 17.5,-111 104.5,-111 104.5,-130"/>
<text text-anchor="middle" x="61" y="-118" font-family="Times,serif" font-size="10.00">ttg::broadcast</text>
</a>
</g>
</g>
<!-- Node1&#45;&gt;Node5 -->
<g id="edge4_Node000001_Node000005" class="edge">
<title>Node1&#45;&gt;Node5</title>
<g id="a_edge4_Node000001_Node000005"><a xlink:title=" ">
<path fill="none" stroke="#63b8ff" d="M147.64,-120.5C133.01,-120.5 118.02,-120.5 104.76,-120.5"/>
<polygon fill="#63b8ff" stroke="#63b8ff" points="147.69,-124 157.69,-120.5 147.69,-117 147.69,-124"/>
</a>
</g>
</g>
<!-- Node6 -->
<g id="Node000006" class="node">
<title>Node6</title>
<g id="a_Node000006"><a xlink:href="namespacettg.html#a755e4e30482082d4e484cd9c339007a5" target="_top" xlink:title=" ">
<polygon fill="white" stroke="#666666" points="104.5,-93 17.5,-93 17.5,-74 104.5,-74 104.5,-93"/>
<text text-anchor="middle" x="61" y="-81" font-family="Times,serif" font-size="10.00">ttg::broadcast</text>
</a>
</g>
</g>
<!-- Node1&#45;&gt;Node6 -->
<g id="edge6_Node000001_Node000006" class="edge">
<title>Node1&#45;&gt;Node6</title>
<g id="a_edge6_Node000001_Node000006"><a xlink:title=" ">
<path fill="none" stroke="#63b8ff" d="M168.01,-108.64C146.78,-103.61 122.36,-97.82 102.31,-93.06"/>
<polygon fill="#63b8ff" stroke="#63b8ff" points="167.29,-112.07 177.83,-110.97 168.9,-105.26 167.29,-112.07"/>
</a>
</g>
</g>
<!-- Node7 -->
<g id="Node000007" class="node">
<title>Node7</title>
<g id="a_Node000007"><a xlink:href="namespacettg.html#acd90a9ecb881d48728663b44d3935ff3" target="_top" xlink:title=" ">
<polygon fill="white" stroke="#666666" points="107.5,-56 14.5,-56 14.5,-37 107.5,-37 107.5,-56"/>
<text text-anchor="middle" x="61" y="-44" font-family="Times,serif" font-size="10.00">ttg::broadcastk</text>
</a>
</g>
</g>
<!-- Node1&#45;&gt;Node7 -->
<g id="edge7_Node000001_Node000007" class="edge">
<title>Node1&#45;&gt;Node7</title>
<g id="a_edge7_Node000001_Node000007"><a xlink:title=" ">
<path fill="none" stroke="#63b8ff" d="M194.99,-105.45C175.98,-93.48 148,-76.91 122,-65.5 113.9,-61.94 104.91,-58.74 96.42,-56.01"/>
<polygon fill="#63b8ff" stroke="#63b8ff" points="193.23,-108.48 203.55,-110.91 197,-102.58 193.23,-108.48"/>
</a>
</g>
</g>
<!-- Node8 -->
<g id="Node000008" class="node">
<title>Node8</title>
<g id="a_Node000008"><a xlink:href="namespacettg.html#ad969e1e680fbdf6ae4ac7119198020ec" target="_top" xlink:title=" ">
<polygon fill="white" stroke="#666666" points="107.5,-19 14.5,-19 14.5,0 107.5,0 107.5,-19"/>
<text text-anchor="middle" x="61" y="-7" font-family="Times,serif" font-size="10.00">ttg::broadcastk</text>
</a>
</g>
</g>
<!-- Node1&#45;&gt;Node8 -->
<g id="edge8_Node000001_Node000008" class="edge">
<title>Node1&#45;&gt;Node8</title>
<g id="a_edge8_Node000001_Node000008"><a xlink:title=" ">
<path fill="none" stroke="#63b8ff" d="M204.13,-103.02C186.92,-82.42 155.7,-48.49 122,-28.5 115.61,-24.71 108.38,-21.59 101.21,-19.06"/>
<polygon fill="#63b8ff" stroke="#63b8ff" points="201.57,-105.42 210.61,-110.95 206.99,-100.99 201.57,-105.42"/>
</a>
</g>
</g>
</g>
</svg>
</svg>

<style type='text/css'>
<![CDATA[
[data-mouse-over-selected='false'] { opacity: 0.7; }
[data-mouse-over-selected='true']  { opacity: 1.0; }
]]>
</style>
<script type="application/ecmascript"><![CDATA[
document.addEventListener('DOMContentLoaded', (event) => {
  highlightEdges();
  highlightAdjacentNodes();
});
]]></script>
</svg>
