<?xml version="1.0" encoding="UTF-8" standalone="no"?>
<!DOCTYPE svg PUBLIC "-//W3C//DTD SVG 1.1//EN"
 "http://www.w3.org/Graphics/SVG/1.1/DTD/svg11.dtd">
<!-- Generated by graphviz version 2.43.0 (0)
 -->
<!-- Title: ttg_parsec::buffer_data Pages: 1 -->
<svg width="284pt" height="94pt"
 viewBox="0.00 0.00 284.00 93.50" xmlns="http://www.w3.org/2000/svg" xmlns:xlink="http://www.w3.org/1999/xlink">
<g id="graph0" class="graph" transform="scale(1 1) rotate(0) translate(4 89.5)">
<title>ttg_parsec::buffer_data</title>
<!-- Node1 -->
<g id="Node000001" class="node">
<title>Node1</title>
<g id="a_Node000001"><a xlink:title=" ">
<polygon fill="#999999" stroke="#666666" points="134,-45.5 0,-45.5 0,-26.5 134,-26.5 134,-45.5"/>
<text text-anchor="middle" x="67" y="-33.5" font-family="Times,serif" font-size="10.00">ttg_parsec::buffer_data</text>
</a>
</g>
</g>
<!-- Node2 -->
<g id="Node000002" class="node">
<title>Node2</title>
<g id="a_Node000002"><a xlink:href="namespacettg_1_1meta.html#affd90f350d054c6a5b4859644d834172" target="_top" xlink:title=" ">
<polygon fill="white" stroke="#666666" points="265.5,-67.5 180.5,-67.5 180.5,-48.5 265.5,-48.5 265.5,-67.5"/>
<text text-anchor="middle" x="223" y="-55.5" font-family="Times,serif" font-size="10.00">ttg::meta::get</text>
</a>
</g>
</g>
<!-- Node1&#45;&gt;Node2 -->
<g id="edge1_Node000001_Node000002" class="edge">
<title>Node1&#45;&gt;Node2</title>
<g id="a_edge1_Node000001_Node000002"><a xlink:title=" ">
<path fill="none" stroke="#63b8ff" d="M134.2,-45.46C146.31,-47.19 158.78,-48.97 170.38,-50.63"/>
<polygon fill="#63b8ff" stroke="#63b8ff" points="169.93,-54.1 180.33,-52.05 170.92,-47.17 169.93,-54.1"/>
</a>
</g>
</g>
<!-- Node3 -->
<g id="Node000003" class="node">
<title>Node3</title>
<g id="a_Node000003"><a xlink:href="namespacettg__parsec_1_1detail.html#ad37e220fbc05d0a62b08a94964480f0a" target="_top" xlink:title=" ">
<polygon fill="white" stroke="#666666" points="276,-30 170,-30 170,0 276,0 276,-30"/>
<text text-anchor="start" x="178" y="-18" font-family="Times,serif" font-size="10.00">ttg_parsec::detail</text>
<text text-anchor="middle" x="223" y="-7" font-family="Times,serif" font-size="10.00">::get_parsec_data</text>
</a>
</g>
</g>
<!-- Node1&#45;&gt;Node3 -->
<g id="edge3_Node000001_Node000003" class="edge">
<title>Node1&#45;&gt;Node3</title>
<g id="a_edge3_Node000001_Node000003"><a xlink:title=" ">
<path fill="none" stroke="#63b8ff" d="M134.2,-26.97C142.67,-25.82 151.3,-24.64 159.7,-23.5"/>
<polygon fill="#63b8ff" stroke="#63b8ff" points="160.36,-26.94 169.8,-22.12 159.41,-20 160.36,-26.94"/>
</a>
</g>
</g>
<!-- Node2&#45;&gt;Node2 -->
<g id="edge2_Node000002_Node000002" class="edge">
<title>Node2&#45;&gt;Node2</title>
<g id="a_edge2_Node000002_Node000002"><a xlink:title=" ">
<path fill="none" stroke="#63b8ff" d="M198.96,-67.58C187.26,-76.23 195.27,-85.5 223,-85.5 241.2,-85.5 250.9,-81.51 252.12,-76.32"/>
<polygon fill="#63b8ff" stroke="#63b8ff" points="255.09,-74.47 247.04,-67.58 249.04,-77.99 255.09,-74.47"/>
</a>
</g>
</g>
</g>
</svg>
