<?xml version="1.0" encoding="UTF-8" standalone="no"?>
<!DOCTYPE svg PUBLIC "-//W3C//DTD SVG 1.1//EN"
 "http://www.w3.org/Graphics/SVG/1.1/DTD/svg11.dtd">
<!-- Generated by graphviz version 2.43.0 (0)
 -->
<!-- Title: ttg::fence Pages: 1 -->
<svg width="151pt" height="64pt"
 viewBox="0.00 0.00 151.00 64.00" xmlns="http://www.w3.org/2000/svg" xmlns:xlink="http://www.w3.org/1999/xlink">
<g id="graph0" class="graph" transform="scale(1 1) rotate(0) translate(4 60)">
<title>ttg::fence</title>
<!-- Node1 -->
<g id="Node000001" class="node">
<title>Node1</title>
<g id="a_Node000001"><a xlink:title="Returns when all tasks associated with the given execution context have finished on all ranks.">
<polygon fill="#999999" stroke="#666666" points="143,-37 78,-37 78,-18 143,-18 143,-37"/>
<text text-anchor="middle" x="110.5" y="-25" font-family="Times,serif" font-size="10.00">ttg::fence</text>
</a>
</g>
</g>
<!-- Node2 -->
<g id="Node000002" class="node">
<title>Node2</title>
<g id="a_Node000002"><a xlink:href="distributed_8cc.html#a3c04138a5bfe5d72780bb7e82a18e627" target="_top" xlink:title=" ">
<polygon fill="white" stroke="#666666" points="42,-56 0,-56 0,-37 42,-37 42,-56"/>
<text text-anchor="middle" x="21" y="-44" font-family="Times,serif" font-size="10.00">main</text>
</a>
</g>
</g>
<!-- Node1&#45;&gt;Node2 -->
<g id="edge1_Node000001_Node000002" class="edge">
<title>Node1&#45;&gt;Node2</title>
<g id="a_edge1_Node000001_Node000002"><a xlink:title=" ">
<path fill="none" stroke="#63b8ff" d="M67.9,-36.53C58.91,-38.48 49.81,-40.46 42.1,-42.14"/>
<polygon fill="#63b8ff" stroke="#63b8ff" points="68.88,-39.9 77.91,-34.36 67.4,-33.06 68.88,-39.9"/>
</a>
</g>
</g>
<!-- Node3 -->
<g id="Node000003" class="node">
<title>Node3</title>
<g id="a_Node000003"><a xlink:href="fibonacci_8cc.html#a0ddf1224851353fc92bfbff6f499fa97" target="_top" xlink:title=" ">
<polygon fill="white" stroke="#666666" points="42,-19 0,-19 0,0 42,0 42,-19"/>
<text text-anchor="middle" x="21" y="-7" font-family="Times,serif" font-size="10.00">main</text>
</a>
</g>
</g>
<!-- Node1&#45;&gt;Node3 -->
<g id="edge2_Node000001_Node000003" class="edge">
<title>Node1&#45;&gt;Node3</title>
<g id="a_edge2_Node000001_Node000003"><a xlink:title=" ">
<path fill="none" stroke="#63b8ff" d="M67.9,-18.94C58.91,-17.09 49.81,-15.22 42.1,-13.64"/>
<polygon fill="#63b8ff" stroke="#63b8ff" points="67.41,-22.41 77.91,-21 68.82,-15.56 67.41,-22.41"/>
</a>
</g>
</g>
</g>
</svg>
