<?xml version="1.0" encoding="UTF-8" standalone="no"?>
<!DOCTYPE svg PUBLIC "-//W3C//DTD SVG 1.1//EN"
 "http://www.w3.org/Graphics/SVG/1.1/DTD/svg11.dtd">
<!-- Generated by graphviz version 2.43.0 (0)
 -->
<!-- Title: ttg::detail::iarchive_load_override_optimized_dispatch Pages: 1 -->
<svg width="463pt" height="49pt"
 viewBox="0.00 0.00 463.00 49.00" xmlns="http://www.w3.org/2000/svg" xmlns:xlink="http://www.w3.org/1999/xlink">
<g id="graph0" class="graph" transform="scale(1 1) rotate(0) translate(4 45)">
<title>ttg::detail::iarchive_load_override_optimized_dispatch</title>
<!-- Node1 -->
<g id="Node000001" class="node">
<title>Node1</title>
<g id="a_Node000001"><a xlink:title=" ">
<polygon fill="#999999" stroke="#666666" points="455,-41 308,-41 308,0 455,0 455,-41"/>
<text text-anchor="start" x="316" y="-29" font-family="Times,serif" font-size="10.00">ttg::detail::iarchive</text>
<text text-anchor="start" x="316" y="-18" font-family="Times,serif" font-size="10.00">_load_override_optimized</text>
<text text-anchor="middle" x="381.5" y="-7" font-family="Times,serif" font-size="10.00">_dispatch</text>
</a>
</g>
</g>
<!-- Node2 -->
<g id="Node000002" class="node">
<title>Node2</title>
<g id="a_Node000002"><a xlink:href="classttg_1_1detail_1_1boost__optimized__iarchive.html#a32d67b987ff7baf28e11348f0ec2928f" target="_top" xlink:title=" ">
<polygon fill="white" stroke="#666666" points="272,-41 154,-41 154,0 272,0 272,-41"/>
<text text-anchor="start" x="162" y="-29" font-family="Times,serif" font-size="10.00">ttg::detail::boost</text>
<text text-anchor="start" x="162" y="-18" font-family="Times,serif" font-size="10.00">_optimized_iarchive</text>
<text text-anchor="middle" x="213" y="-7" font-family="Times,serif" font-size="10.00">::load_override</text>
</a>
</g>
</g>
<!-- Node1&#45;&gt;Node2 -->
<g id="edge1_Node000001_Node000002" class="edge">
<title>Node1&#45;&gt;Node2</title>
<g id="a_edge1_Node000001_Node000002"><a xlink:title=" ">
<path fill="none" stroke="#63b8ff" d="M297.78,-20.5C289.08,-20.5 280.38,-20.5 272.05,-20.5"/>
<polygon fill="#63b8ff" stroke="#63b8ff" points="297.96,-24 307.96,-20.5 297.95,-17 297.96,-24"/>
</a>
</g>
</g>
<!-- Node3 -->
<g id="Node000003" class="node">
<title>Node3</title>
<g id="a_Node000003"><a xlink:href="classttg_1_1detail_1_1boost__optimized__iarchive.html#ae1929473831dca2c475521d4673e4ff5" target="_top" xlink:title=" ">
<polygon fill="white" stroke="#666666" points="118,-41 0,-41 0,0 118,0 118,-41"/>
<text text-anchor="start" x="8" y="-29" font-family="Times,serif" font-size="10.00">ttg::detail::boost</text>
<text text-anchor="start" x="8" y="-18" font-family="Times,serif" font-size="10.00">_optimized_iarchive</text>
<text text-anchor="middle" x="59" y="-7" font-family="Times,serif" font-size="10.00">::operator&gt;&gt;</text>
</a>
</g>
</g>
<!-- Node2&#45;&gt;Node3 -->
<g id="edge2_Node000002_Node000003" class="edge">
<title>Node2&#45;&gt;Node3</title>
<g id="a_edge2_Node000002_Node000003"><a xlink:title=" ">
<path fill="none" stroke="#63b8ff" d="M143.46,-20.5C135.01,-20.5 126.45,-20.5 118.18,-20.5"/>
<polygon fill="#63b8ff" stroke="#63b8ff" points="143.67,-24 153.67,-20.5 143.67,-17 143.67,-24"/>
</a>
</g>
</g>
</g>
</svg>
