<?xml version="1.0" encoding="UTF-8" standalone="no"?>
<!DOCTYPE svg PUBLIC "-//W3C//DTD SVG 1.1//EN"
 "http://www.w3.org/Graphics/SVG/1.1/DTD/svg11.dtd">
<!-- Generated by graphviz version 2.43.0 (0)
 -->
<!-- Title: ttg::size Pages: 1 -->
<!--zoomable 751 -->

<svg id="main" version="1.1" xmlns="http://www.w3.org/2000/svg" xmlns:xlink="http://www.w3.org/1999/xlink" xml:space="preserve" onload="init(evt)">
<style type="text/css"><![CDATA[
.node, .edge {opacity: 0.7;}
.node.selected, .edge.selected {opacity: 1;}
.edge:hover path { stroke: red; }
.edge:hover polygon { stroke: red; fill: red; }
]]></style>

<defs>
  <circle id="rim" cx="0" cy="0" r="7"/>
  <circle id="rim2" cx="0" cy="0" r="3.5"/>
  <g id="zoomPlus">
    <use xlink:href="#rim" fill="#404040"><set attributeName="fill" to="#808080" begin="zoomplus.mouseover" end="zoomplus.mouseout"/></use>
    <path d="M-4,0h8M0,-4v8" fill="none" stroke="white" stroke-width="1.5" pointer-events="none"/>
  </g>
  <g id="zoomMin">
    <use xlink:href="#rim" fill="#404040"><set attributeName="fill" to="#808080" begin="zoomminus.mouseover" end="zoomminus.mouseout"/></use>
    <path d="M-4,0h8" fill="none" stroke="white" stroke-width="1.5" pointer-events="none"/>
  </g>
  <g id="arrowUp" transform="translate(30 24)">
    <use xlink:href="#rim"/>
    <path pointer-events="none" fill="none" stroke="white" stroke-width="1.5" d="M0,-3.0v7 M-2.5,-0.5L0,-3.0L2.5,-0.5"/>
  </g>
  <g id="arrowRight" transform="rotate(90) translate(36 -43)">
    <use xlink:href="#rim"/>
    <path pointer-events="none" fill="none" stroke="white" stroke-width="1.5" d="M0,-3.0v7 M-2.5,-0.5L0,-3.0L2.5,-0.5"/>
  </g>
  <g id="arrowDown" transform="rotate(180) translate(-30 -48)">
    <use xlink:href="#rim"/>
    <path pointer-events="none" fill="none" stroke="white" stroke-width="1.5" d="M0,-3.0v7 M-2.5,-0.5L0,-3.0L2.5,-0.5"/>
  </g>
  <g id="arrowLeft" transform="rotate(270) translate(-36 17)">
    <use xlink:href="#rim"/>
    <path pointer-events="none" fill="none" stroke="white" stroke-width="1.5" d="M0,-3.0v7 M-2.5,-0.5L0,-3.0L2.5,-0.5"/>
  </g>
  <g id="resetDef">
    <use xlink:href="#rim2" fill="#404040"><set attributeName="fill" to="#808080" begin="reset.mouseover" end="reset.mouseout"/></use>
  </g>
</defs>
<script type="application/ecmascript">
var viewWidth = 532;
var viewHeight = 751;
var sectionId = 'dynsection-76';
</script>
<script type="application/ecmascript" xlink:href="svg.min.js"/>
<svg id="graph" class="graph">
<g id="viewport">
<title>ttg::size</title>
<!-- Node1 -->
<g id="Node000001" class="node">
<title>Node1</title>
<g id="a_Node000001"><a xlink:title=" ">
<polygon fill="#999999" stroke="#666666" points="524,-335 468,-335 468,-316 524,-316 524,-335"/>
<text text-anchor="middle" x="496" y="-323" font-family="Times,serif" font-size="10.00">ttg::size</text>
</a>
</g>
</g>
<!-- Node2 -->
<g id="Node000002" class="node">
<title>Node2</title>
<g id="a_Node000002"><a xlink:href="namespacettg_1_1detail.html#aa699a60527ee694e99d01da9b5e7cbd8" target="_top" xlink:title="constructs a boost_buffer_iarchive object">
<polygon fill="white" stroke="#666666" points="419,-742.5 287,-742.5 287,-712.5 419,-712.5 419,-742.5"/>
<text text-anchor="start" x="295" y="-730.5" font-family="Times,serif" font-size="10.00">ttg::detail::make_boost</text>
<text text-anchor="middle" x="353" y="-719.5" font-family="Times,serif" font-size="10.00">_buffer_iarchive</text>
</a>
</g>
</g>
<!-- Node1&#45;&gt;Node2 -->
<g id="edge1_Node000001_Node000002" class="edge">
<title>Node1&#45;&gt;Node2</title>
<g id="a_edge1_Node000001_Node000002"><a xlink:title=" ">
<path fill="none" stroke="#63b8ff" d="M494.37,-345.44C491.74,-415.51 479.51,-649.19 432,-703.5 428.36,-707.66 424.02,-711.11 419.28,-713.97"/>
<polygon fill="#63b8ff" stroke="#63b8ff" points="497.87,-345.43 494.72,-335.31 490.87,-345.19 497.87,-345.43"/>
</a>
</g>
</g>
<!-- Node3 -->
<g id="Node000003" class="node">
<title>Node3</title>
<g id="a_Node000003"><a xlink:href="namespacettg_1_1detail.html#acd72686534948b9ec5296ac2938c918e" target="_top" xlink:title="constructs a boost_buffer_oarchive object">
<polygon fill="white" stroke="#666666" points="419,-694.5 287,-694.5 287,-664.5 419,-664.5 419,-694.5"/>
<text text-anchor="start" x="295" y="-682.5" font-family="Times,serif" font-size="10.00">ttg::detail::make_boost</text>
<text text-anchor="middle" x="353" y="-671.5" font-family="Times,serif" font-size="10.00">_buffer_oarchive</text>
</a>
</g>
</g>
<!-- Node1&#45;&gt;Node3 -->
<g id="edge2_Node000001_Node000003" class="edge">
<title>Node1&#45;&gt;Node3</title>
<g id="a_edge2_Node000001_Node000003"><a xlink:title=" ">
<path fill="none" stroke="#63b8ff" d="M493.84,-345.33C489.71,-409.33 473.67,-608.98 432,-655.5 428.31,-659.62 423.94,-663.03 419.17,-665.87"/>
<polygon fill="#63b8ff" stroke="#63b8ff" points="497.35,-345.22 494.48,-335.02 490.37,-344.79 497.35,-345.22"/>
</a>
</g>
</g>
<!-- Node4 -->
<g id="Node000004" class="node">
<title>Node4</title>
<g id="a_Node000004"><a xlink:href="structttg_1_1default__data__descriptor_3_01_t_00_01std_1_1enable__if__t_3_01ttg_1_1has__split__m7b97af3698ab80a6204d3eb38af1e244.html#ad578b8a4fc4118f8bbed56f9cfa0e087" target="_top" xlink:title="measures the size of the binary representation of object">
<polygon fill="white" stroke="#666666" points="432,-646.5 274,-646.5 274,-594.5 432,-594.5 432,-646.5"/>
<text text-anchor="start" x="282" y="-634.5" font-family="Times,serif" font-size="10.00">ttg::default_data_descriptor</text>
<text text-anchor="start" x="282" y="-623.5" font-family="Times,serif" font-size="10.00">&lt; T, std::enable_if_t&lt; ttg</text>
<text text-anchor="start" x="282" y="-612.5" font-family="Times,serif" font-size="10.00">::has_split_metadata&lt; T &gt;::</text>
<text text-anchor="middle" x="353" y="-601.5" font-family="Times,serif" font-size="10.00">value &gt; &gt;::payload_size</text>
</a>
</g>
</g>
<!-- Node1&#45;&gt;Node4 -->
<g id="edge3_Node000001_Node000004" class="edge">
<title>Node1&#45;&gt;Node4</title>
<g id="a_edge3_Node000001_Node000004"><a xlink:title=" ">
<path fill="none" stroke="#63b8ff" d="M495.77,-345.15C496.56,-392.25 492.19,-513.07 432,-585.5 429.34,-588.7 426.34,-591.61 423.08,-594.27"/>
<polygon fill="#63b8ff" stroke="#63b8ff" points="499.26,-344.97 495.5,-335.07 492.27,-345.16 499.26,-344.97"/>
</a>
</g>
</g>
<!-- Node5 -->
<g id="Node000005" class="node">
<title>Node5</title>
<g id="a_Node000005"><a xlink:href="classttg_1_1_out.html#af3902b047294f85bdfaeb42dcd4488a4" target="_top" xlink:title=" ">
<polygon fill="white" stroke="#666666" points="396,-558 310,-558 310,-539 396,-539 396,-558"/>
<text text-anchor="middle" x="353" y="-546" font-family="Times,serif" font-size="10.00">ttg::Out::send</text>
</a>
</g>
</g>
<!-- Node1&#45;&gt;Node5 -->
<g id="edge4_Node000001_Node000005" class="edge">
<title>Node1&#45;&gt;Node5</title>
<g id="a_edge4_Node000001_Node000005"><a xlink:title=" ">
<path fill="none" stroke="#63b8ff" d="M494.97,-345.33C493.78,-386.08 485.05,-479.57 432,-529.5 422.36,-538.57 409.13,-543.53 396.31,-546.18"/>
<polygon fill="#63b8ff" stroke="#63b8ff" points="498.47,-345.38 495.14,-335.32 491.47,-345.26 498.47,-345.38"/>
</a>
</g>
</g>
<!-- Node9 -->
<g id="Node000009" class="node">
<title>Node9</title>
<g id="a_Node000009"><a xlink:href="classttg_1_1_in_terminal_base.html#aadc34357f0d6c31b0c086369d95a2554" target="_top" xlink:title=" ">
<polygon fill="white" stroke="#666666" points="411.5,-520.5 294.5,-520.5 294.5,-490.5 411.5,-490.5 411.5,-520.5"/>
<text text-anchor="start" x="302.5" y="-508.5" font-family="Times,serif" font-size="10.00">ttg::InTerminalBase</text>
<text text-anchor="middle" x="353" y="-497.5" font-family="Times,serif" font-size="10.00">::set_size</text>
</a>
</g>
</g>
<!-- Node1&#45;&gt;Node9 -->
<g id="edge9_Node000001_Node000009" class="edge">
<title>Node1&#45;&gt;Node9</title>
<g id="a_edge9_Node000001_Node000009"><a xlink:title=" ">
<path fill="none" stroke="#63b8ff" d="M491.92,-345.37C485.96,-377.27 469.93,-440.03 432,-476.5 426.17,-482.11 419.15,-486.65 411.76,-490.32"/>
<polygon fill="#63b8ff" stroke="#63b8ff" points="495.43,-345.56 493.68,-335.12 488.53,-344.38 495.43,-345.56"/>
</a>
</g>
</g>
<!-- Node10 -->
<g id="Node000010" class="node">
<title>Node10</title>
<g id="a_Node000010"><a xlink:href="classttg_1_1_out_terminal_base.html#ae49bef4469c9abd4dd1f10b0429984b4" target="_top" xlink:title=" ">
<polygon fill="white" stroke="#666666" points="415.5,-340.5 290.5,-340.5 290.5,-310.5 415.5,-310.5 415.5,-340.5"/>
<text text-anchor="start" x="298.5" y="-328.5" font-family="Times,serif" font-size="10.00">ttg::OutTerminalBase</text>
<text text-anchor="middle" x="353" y="-317.5" font-family="Times,serif" font-size="10.00">::set_size</text>
</a>
</g>
</g>
<!-- Node1&#45;&gt;Node10 -->
<g id="edge10_Node000001_Node000010" class="edge">
<title>Node1&#45;&gt;Node10</title>
<g id="a_edge10_Node000001_Node000010"><a xlink:title=" ">
<path fill="none" stroke="#63b8ff" d="M457.49,-325.5C444.62,-325.5 429.84,-325.5 415.56,-325.5"/>
<polygon fill="#63b8ff" stroke="#63b8ff" points="457.81,-329 467.81,-325.5 457.81,-322 457.81,-329"/>
</a>
</g>
</g>
<!-- Node11 -->
<g id="Node000011" class="node">
<title>Node11</title>
<g id="a_Node000011"><a xlink:href="namespacettg.html#a647ab7e77f26372e8ed5519e373caf3b" target="_top" xlink:title=" ">
<polygon fill="white" stroke="#666666" points="214,-313 137,-313 137,-294 214,-294 214,-313"/>
<text text-anchor="middle" x="175.5" y="-301" font-family="Times,serif" font-size="10.00">ttg::set_size</text>
</a>
</g>
</g>
<!-- Node1&#45;&gt;Node11 -->
<g id="edge19_Node000001_Node000011" class="edge">
<title>Node1&#45;&gt;Node11</title>
<g id="a_edge19_Node000001_Node000011"><a xlink:title=" ">
<path fill="none" stroke="#63b8ff" d="M465.92,-311.89C455.47,-307.68 443.43,-303.6 432,-301.5 355.65,-287.45 264.29,-293.54 214.12,-298.81"/>
<polygon fill="#63b8ff" stroke="#63b8ff" points="464.82,-315.23 475.39,-315.91 467.55,-308.78 464.82,-315.23"/>
</a>
</g>
</g>
<!-- Node12 -->
<g id="Node000012" class="node">
<title>Node12</title>
<g id="a_Node000012"><a xlink:href="namespacettg.html#aeb9f920fc147bba8f435b2ca39cdd414" target="_top" xlink:title=" ">
<polygon fill="white" stroke="#666666" points="77,-331 0,-331 0,-312 77,-312 77,-331"/>
<text text-anchor="middle" x="38.5" y="-319" font-family="Times,serif" font-size="10.00">ttg::set_size</text>
</a>
</g>
</g>
<!-- Node1&#45;&gt;Node12 -->
<g id="edge17_Node000001_Node000012" class="edge">
<title>Node1&#45;&gt;Node12</title>
<g id="a_edge17_Node000001_Node000012"><a xlink:title=" ">
<path fill="none" stroke="#63b8ff" d="M487.81,-344.65C478.53,-366.42 460.15,-401.05 432,-417.5 309.42,-489.14 237.8,-502.2 113,-434.5 71.24,-411.85 49.49,-354.07 42.28,-331.11"/>
<polygon fill="#63b8ff" stroke="#63b8ff" points="491.15,-345.72 491.64,-335.14 484.66,-343.11 491.15,-345.72"/>
</a>
</g>
</g>
<!-- Node13 -->
<g id="Node000013" class="node">
<title>Node13</title>
<g id="a_Node000013"><a xlink:href="namespacettg.html#ae96ab8dfc75550533beda7e2644dc00f" target="_top" xlink:title=" ">
<polygon fill="white" stroke="#666666" points="77,-294 0,-294 0,-275 77,-275 77,-294"/>
<text text-anchor="middle" x="38.5" y="-282" font-family="Times,serif" font-size="10.00">ttg::set_size</text>
</a>
</g>
</g>
<!-- Node1&#45;&gt;Node13 -->
<g id="edge20_Node000001_Node000013" class="edge">
<title>Node1&#45;&gt;Node13</title>
<g id="a_edge20_Node000001_Node000013"><a xlink:title=" ">
<path fill="none" stroke="#63b8ff" d="M473.77,-309.84C462.07,-302.16 446.93,-293.67 432,-289.5 305.98,-254.29 148.21,-269.08 77.2,-278.68"/>
<polygon fill="#63b8ff" stroke="#63b8ff" points="472.11,-312.95 482.34,-315.73 476.08,-307.18 472.11,-312.95"/>
</a>
</g>
</g>
<!-- Node14 -->
<g id="Node000014" class="node">
<title>Node14</title>
<g id="a_Node000014"><a xlink:href="namespacettg.html#af31d31d8a37261b9f89f1852e9e3c10f" target="_top" xlink:title="Set the size of all streaming input terminals connected to an output terminal with void key.">
<polygon fill="white" stroke="#666666" points="214,-425 137,-425 137,-406 214,-406 214,-425"/>
<text text-anchor="middle" x="175.5" y="-413" font-family="Times,serif" font-size="10.00">ttg::set_size</text>
</a>
</g>
</g>
<!-- Node1&#45;&gt;Node14 -->
<g id="edge22_Node000001_Node000014" class="edge">
<title>Node1&#45;&gt;Node14</title>
<g id="a_edge22_Node000001_Node000014"><a xlink:title=" ">
<path fill="none" stroke="#63b8ff" d="M482.47,-343.61C471.14,-358.4 453.04,-378.46 432,-388.5 360.75,-422.51 265.89,-422.4 214.12,-419.09"/>
<polygon fill="#63b8ff" stroke="#63b8ff" points="485.54,-345.35 488.62,-335.21 479.89,-341.21 485.54,-345.35"/>
</a>
</g>
</g>
<!-- Node15 -->
<g id="Node000015" class="node">
<title>Node15</title>
<g id="a_Node000015"><a xlink:href="classttg_1_1_out_terminal_base.html#a5ce0ce0c4247e276201644e30314ba70" target="_top" xlink:title=" ">
<polygon fill="white" stroke="#666666" points="238,-370.5 113,-370.5 113,-340.5 238,-340.5 238,-370.5"/>
<text text-anchor="start" x="121" y="-358.5" font-family="Times,serif" font-size="10.00">ttg::OutTerminalBase</text>
<text text-anchor="middle" x="175.5" y="-347.5" font-family="Times,serif" font-size="10.00">::set_size</text>
</a>
</g>
</g>
<!-- Node1&#45;&gt;Node15 -->
<g id="edge26_Node000001_Node000015" class="edge">
<title>Node1&#45;&gt;Node15</title>
<g id="a_edge26_Node000001_Node000015"><a xlink:title=" ">
<path fill="none" stroke="#63b8ff" d="M477.09,-341.64C465.23,-351.2 448.81,-362.41 432,-367.5 367.93,-386.9 290.72,-379.29 238.06,-369.75"/>
<polygon fill="#63b8ff" stroke="#63b8ff" points="479.47,-344.2 484.86,-335.08 474.96,-338.85 479.47,-344.2"/>
</a>
</g>
</g>
<!-- Node16 -->
<g id="Node000016" class="node">
<title>Node16</title>
<g id="a_Node000016"><a xlink:href="namespacettg.html#ae42500c549bd86505f6e3688985fdc87" target="_top" xlink:title="Set the size of all streaming input terminals connected to the output terminal for a task identified ...">
<polygon fill="white" stroke="#666666" points="391.5,-216 314.5,-216 314.5,-197 391.5,-197 391.5,-216"/>
<text text-anchor="middle" x="353" y="-204" font-family="Times,serif" font-size="10.00">ttg::set_size</text>
</a>
</g>
</g>
<!-- Node1&#45;&gt;Node16 -->
<g id="edge18_Node000001_Node000016" class="edge">
<title>Node1&#45;&gt;Node16</title>
<g id="a_edge18_Node000001_Node000016"><a xlink:title=" ">
<path fill="none" stroke="#63b8ff" d="M487.15,-306.43C477.35,-284.92 458.56,-250.35 432,-230.5 420.31,-221.76 405.4,-216.17 391.75,-212.61"/>
<polygon fill="#63b8ff" stroke="#63b8ff" points="484.04,-308.05 491.24,-315.82 490.46,-305.26 484.04,-308.05"/>
</a>
</g>
</g>
<!-- Node17 -->
<g id="Node000017" class="node">
<title>Node17</title>
<g id="a_Node000017"><a xlink:href="namespacettg.html#a110fa791266faf4d8dcf7708acdfa082" target="_top" xlink:title="Set the size of all streaming input terminals connected to an output terminal for a task,...">
<polygon fill="white" stroke="#666666" points="391.5,-179 314.5,-179 314.5,-160 391.5,-160 391.5,-179"/>
<text text-anchor="middle" x="353" y="-167" font-family="Times,serif" font-size="10.00">ttg::set_size</text>
</a>
</g>
</g>
<!-- Node1&#45;&gt;Node17 -->
<g id="edge21_Node000001_Node000017" class="edge">
<title>Node1&#45;&gt;Node17</title>
<g id="a_edge21_Node000001_Node000017"><a xlink:title=" ">
<path fill="none" stroke="#63b8ff" d="M491.63,-305.5C485.43,-275.19 469.27,-217.92 432,-187.5 420.7,-178.27 405.54,-173.59 391.6,-171.27"/>
<polygon fill="#63b8ff" stroke="#63b8ff" points="488.25,-306.51 493.54,-315.69 495.13,-305.22 488.25,-306.51"/>
</a>
</g>
</g>
<!-- Node18 -->
<g id="Node000018" class="node">
<title>Node18</title>
<g id="a_Node000018"><a xlink:href="namespacettg.html#a94a90ba4ea019238eda234b44af0a46d" target="_top" xlink:title=" ">
<polygon fill="white" stroke="#666666" points="391.5,-142 314.5,-142 314.5,-123 391.5,-123 391.5,-142"/>
<text text-anchor="middle" x="353" y="-130" font-family="Times,serif" font-size="10.00">ttg::set_size</text>
</a>
</g>
</g>
<!-- Node1&#45;&gt;Node18 -->
<g id="edge23_Node000001_Node000018" class="edge">
<title>Node1&#45;&gt;Node18</title>
<g id="a_edge23_Node000001_Node000018"><a xlink:title=" ">
<path fill="none" stroke="#63b8ff" d="M493.81,-305.47C490.53,-268.95 478.19,-191.51 432,-150.5 420.98,-140.72 405.72,-135.95 391.61,-133.72"/>
<polygon fill="#63b8ff" stroke="#63b8ff" points="490.35,-306.09 494.59,-315.8 497.33,-305.56 490.35,-306.09"/>
</a>
</g>
</g>
<!-- Node19 -->
<g id="Node000019" class="node">
<title>Node19</title>
<g id="a_Node000019"><a xlink:href="namespacettg.html#ae3212bd318de893c930ded0ad4256bbb" target="_top" xlink:title=" ">
<polygon fill="white" stroke="#666666" points="391.5,-105 314.5,-105 314.5,-86 391.5,-86 391.5,-105"/>
<text text-anchor="middle" x="353" y="-93" font-family="Times,serif" font-size="10.00">ttg::set_size</text>
</a>
</g>
</g>
<!-- Node1&#45;&gt;Node19 -->
<g id="edge24_Node000001_Node000019" class="edge">
<title>Node1&#45;&gt;Node19</title>
<g id="a_edge24_Node000001_Node000019"><a xlink:title=" ">
<path fill="none" stroke="#63b8ff" d="M495.29,-305.71C494.78,-263.77 487.36,-165.53 432,-113.5 421.27,-103.41 406.05,-98.59 391.9,-96.41"/>
<polygon fill="#63b8ff" stroke="#63b8ff" points="491.79,-305.75 495.29,-315.75 498.79,-305.75 491.79,-305.75"/>
</a>
</g>
</g>
<!-- Node20 -->
<g id="Node000020" class="node">
<title>Node20</title>
<g id="a_Node000020"><a xlink:href="classttg_1_1_in_terminal_base.html#a93b9a93516494bd40d8396f7afe43fd9" target="_top" xlink:title=" ">
<polygon fill="white" stroke="#666666" points="411.5,-67.5 294.5,-67.5 294.5,-37.5 411.5,-37.5 411.5,-67.5"/>
<text text-anchor="start" x="302.5" y="-55.5" font-family="Times,serif" font-size="10.00">ttg::InTerminalBase</text>
<text text-anchor="middle" x="353" y="-44.5" font-family="Times,serif" font-size="10.00">::set_size</text>
</a>
</g>
</g>
<!-- Node1&#45;&gt;Node20 -->
<g id="edge25_Node000001_Node000020" class="edge">
<title>Node1&#45;&gt;Node20</title>
<g id="a_edge25_Node000001_Node000020"><a xlink:title=" ">
<path fill="none" stroke="#63b8ff" d="M492.53,-305.88C485.52,-253.15 463.91,-110.07 432,-76.5 426.34,-70.54 419.24,-66.05 411.64,-62.67"/>
<polygon fill="#63b8ff" stroke="#63b8ff" points="489.08,-306.48 493.84,-315.95 496.02,-305.58 489.08,-306.48"/>
</a>
</g>
</g>
<!-- Node21 -->
<g id="Node000021" class="node">
<title>Node21</title>
<g id="a_Node000021"><a xlink:href="classttg_1_1_dot.html#a168203fd05265000a5fe12be79738a94" target="_top" xlink:title=" ">
<polygon fill="white" stroke="#666666" points="398.5,-19 307.5,-19 307.5,0 398.5,0 398.5,-19"/>
<text text-anchor="middle" x="353" y="-7" font-family="Times,serif" font-size="10.00">ttg::Dot::ttfunc</text>
</a>
</g>
</g>
<!-- Node1&#45;&gt;Node21 -->
<g id="edge27_Node000001_Node000021" class="edge">
<title>Node1&#45;&gt;Node21</title>
<g id="a_edge27_Node000001_Node000021"><a xlink:title=" ">
<path fill="none" stroke="#63b8ff" d="M493.5,-305.64C488.56,-245.75 470.89,-68.57 432,-28.5 423.26,-19.5 411.03,-14.48 398.84,-11.75"/>
<polygon fill="#63b8ff" stroke="#63b8ff" points="490.04,-306.29 494.32,-315.98 497.01,-305.74 490.04,-306.29"/>
</a>
</g>
</g>
<!-- Node5&#45;&gt;Node5 -->
<g id="edge5_Node000005_Node000005" class="edge">
<title>Node5&#45;&gt;Node5</title>
<g id="a_edge5_Node000005_Node000005"><a xlink:title=" ">
<path fill="none" stroke="#63b8ff" d="M379.41,-567.19C377.97,-572.2 369.17,-576 353,-576 327.76,-576 320.47,-566.73 331.11,-558.08"/>
<polygon fill="#63b8ff" stroke="#63b8ff" points="382.47,-565.48 374.89,-558.08 376.2,-568.6 382.47,-565.48"/>
</a>
</g>
</g>
<!-- Node6 -->
<g id="Node000006" class="node">
<title>Node6</title>
<g id="a_Node000006"><a xlink:href="classttg_1_1_out.html#ad2a015783a18cb7e66096c95a9ae77d0" target="_top" xlink:title=" ">
<polygon fill="white" stroke="#666666" points="218.5,-595 132.5,-595 132.5,-576 218.5,-576 218.5,-595"/>
<text text-anchor="middle" x="175.5" y="-583" font-family="Times,serif" font-size="10.00">ttg::Out::send</text>
</a>
</g>
</g>
<!-- Node5&#45;&gt;Node6 -->
<g id="edge6_Node000005_Node000006" class="edge">
<title>Node5&#45;&gt;Node6</title>
<g id="a_edge6_Node000005_Node000006"><a xlink:title=" ">
<path fill="none" stroke="#63b8ff" d="M299.95,-559.47C274.07,-564.93 243.2,-571.44 218.8,-576.58"/>
<polygon fill="#63b8ff" stroke="#63b8ff" points="300.9,-562.85 309.96,-557.36 299.46,-556 300.9,-562.85"/>
</a>
</g>
</g>
<!-- Node7 -->
<g id="Node000007" class="node">
<title>Node7</title>
<g id="a_Node000007"><a xlink:href="namespacettg.html#a195eb3c0d9b0118dd7c94c0463840734" target="_top" xlink:title="Sends a task id and a value to the given output terminal.">
<polygon fill="white" stroke="#666666" points="206.5,-558 144.5,-558 144.5,-539 206.5,-539 206.5,-558"/>
<text text-anchor="middle" x="175.5" y="-546" font-family="Times,serif" font-size="10.00">ttg::send</text>
</a>
</g>
</g>
<!-- Node5&#45;&gt;Node7 -->
<g id="edge7_Node000005_Node000007" class="edge">
<title>Node5&#45;&gt;Node7</title>
<g id="a_edge7_Node000005_Node000007"><a xlink:title=" ">
<path fill="none" stroke="#63b8ff" d="M299.94,-548.5C269.54,-548.5 232.25,-548.5 206.66,-548.5"/>
<polygon fill="#63b8ff" stroke="#63b8ff" points="299.96,-552 309.96,-548.5 299.96,-545 299.96,-552"/>
</a>
</g>
</g>
<!-- Node8 -->
<g id="Node000008" class="node">
<title>Node8</title>
<g id="a_Node000008"><a xlink:href="namespacettg.html#a64fbfb8618ef226f6b3d49a7a46db0cb" target="_top" xlink:title="Sends a control message (message without an accompanying task id or a value) to the given output term...">
<polygon fill="white" stroke="#666666" points="206.5,-521 144.5,-521 144.5,-502 206.5,-502 206.5,-521"/>
<text text-anchor="middle" x="175.5" y="-509" font-family="Times,serif" font-size="10.00">ttg::send</text>
</a>
</g>
</g>
<!-- Node5&#45;&gt;Node8 -->
<g id="edge8_Node000005_Node000008" class="edge">
<title>Node5&#45;&gt;Node8</title>
<g id="a_edge8_Node000005_Node000008"><a xlink:title=" ">
<path fill="none" stroke="#63b8ff" d="M299.94,-537.53C269.54,-531.12 232.25,-523.25 206.66,-517.86"/>
<polygon fill="#63b8ff" stroke="#63b8ff" points="299.46,-541 309.96,-539.64 300.9,-534.15 299.46,-541"/>
</a>
</g>
</g>
<!-- Node10&#45;&gt;Node10 -->
<g id="edge11_Node000010_Node000010" class="edge">
<title>Node10&#45;&gt;Node10</title>
<g id="a_edge11_Node000010_Node000010"><a xlink:title=" ">
<path fill="none" stroke="#63b8ff" d="M377.86,-351.1C374.46,-355.47 366.17,-358.5 353,-358.5 330.81,-358.5 322.49,-349.91 328.04,-340.78"/>
<polygon fill="#63b8ff" stroke="#63b8ff" points="381.36,-350.81 377.96,-340.78 374.36,-350.74 381.36,-350.81"/>
</a>
</g>
</g>
<!-- Node10&#45;&gt;Node11 -->
<g id="edge12_Node000010_Node000011" class="edge">
<title>Node10&#45;&gt;Node11</title>
<g id="a_edge12_Node000010_Node000011"><a xlink:title=" ">
<path fill="none" stroke="#63b8ff" d="M280.18,-316.5C257.51,-313.66 233.38,-310.63 214.11,-308.21"/>
<polygon fill="#63b8ff" stroke="#63b8ff" points="279.77,-319.97 290.13,-317.74 280.64,-313.03 279.77,-319.97"/>
</a>
</g>
</g>
<!-- Node10&#45;&gt;Node14 -->
<g id="edge15_Node000010_Node000014" class="edge">
<title>Node10&#45;&gt;Node14</title>
<g id="a_edge15_Node000010_Node000014"><a xlink:title=" ">
<path fill="none" stroke="#63b8ff" d="M313.7,-345.14C277.03,-363.95 223.25,-391.52 195.16,-405.93"/>
<polygon fill="#63b8ff" stroke="#63b8ff" points="315.32,-348.24 322.63,-340.56 312.13,-342.01 315.32,-348.24"/>
</a>
</g>
</g>
<!-- Node10&#45;&gt;Node15 -->
<g id="edge16_Node000010_Node000015" class="edge">
<title>Node10&#45;&gt;Node15</title>
<g id="a_edge16_Node000010_Node000015"><a xlink:title=" ">
<path fill="none" stroke="#63b8ff" d="M280.1,-337.79C266.16,-340.17 251.68,-342.65 238.11,-344.97"/>
<polygon fill="#63b8ff" stroke="#63b8ff" points="280.86,-341.21 290.13,-336.08 279.68,-334.31 280.86,-341.21"/>
</a>
</g>
</g>
<!-- Node11&#45;&gt;Node12 -->
<g id="edge13_Node000011_Node000012" class="edge">
<title>Node11&#45;&gt;Node12</title>
<g id="a_edge13_Node000011_Node000012"><a xlink:title=" ">
<path fill="none" stroke="#63b8ff" d="M126.56,-309.89C110.42,-312.04 92.63,-314.42 77.37,-316.45"/>
<polygon fill="#63b8ff" stroke="#63b8ff" points="127.45,-313.31 136.89,-308.51 126.52,-306.37 127.45,-313.31"/>
</a>
</g>
</g>
<!-- Node11&#45;&gt;Node13 -->
<g id="edge14_Node000011_Node000013" class="edge">
<title>Node11&#45;&gt;Node13</title>
<g id="a_edge14_Node000011_Node000013"><a xlink:title=" ">
<path fill="none" stroke="#63b8ff" d="M126.56,-296.75C110.42,-294.48 92.63,-291.98 77.37,-289.83"/>
<polygon fill="#63b8ff" stroke="#63b8ff" points="126.5,-300.28 136.89,-298.21 127.48,-293.35 126.5,-300.28"/>
</a>
</g>
</g>
</g>
</svg>

<g id="navigator" transform="translate(0 0)" fill="#404254">
  <rect fill="#f2f5e9" fill-opacity="0.5" stroke="#606060" stroke-width=".5" x="0" y="0" width="60" height="60"/>
  <use id="zoomplus" xlink:href="#zoomPlus" x="17" y="9" onmousedown="handleZoom(evt,'in')"/>
  <use id="zoomminus" xlink:href="#zoomMin" x="42" y="9" onmousedown="handleZoom(evt,'out')"/>
  <use id="reset" xlink:href="#resetDef" x="30" y="36" onmousedown="handleReset()"/>
   <use id="arrowup" xlink:href="#arrowUp" x="0" y="0" onmousedown="handlePan(0,-1)"/>
  <use id="arrowright" xlink:href="#arrowRight" x="0" y="0" onmousedown="handlePan(1,0)"/>
  <use id="arrowdown" xlink:href="#arrowDown" x="0" y="0" onmousedown="handlePan(0,1)"/>
  <use id="arrowleft" xlink:href="#arrowLeft" x="0" y="0" onmousedown="handlePan(-1,0)"/>
</g>
<svg viewBox="0 0 15 15" width="100%" height="30px" preserveAspectRatio="xMaxYMin meet">
 <g id="arrow_out" transform="scale(0.3 0.3)">
  <a xlink:href="namespacettg_a293bb7226707f202e735a9b3e4c76fab_icgraph_org.svg" target="_base">
   <rect id="button" ry="5" rx="5" y="6" x="6" height="38" width="38"
        fill="#f2f5e9" fill-opacity="0.5" stroke="#606060" stroke-width="1.0"/>
   <path id="arrow"
     d="M 11.500037,31.436501 C 11.940474,20.09759 22.043105,11.32322 32.158766,21.979434 L 37.068811,17.246167 C 37.068811,17.246167 37.088388,32 37.088388,32 L 22.160133,31.978069 C 22.160133,31.978069 26.997745,27.140456 26.997745,27.140456 C 18.528582,18.264221 13.291696,25.230495 11.500037,31.436501 z"
     style="fill:#404040;"/>
  </a>
 </g>
</svg>

<style type='text/css'>
<![CDATA[
[data-mouse-over-selected='false'] { opacity: 0.7; }
[data-mouse-over-selected='true']  { opacity: 1.0; }
]]>
</style>
<script type="application/ecmascript"><![CDATA[
document.addEventListener('DOMContentLoaded', (event) => {
  highlightEdges();
  highlightAdjacentNodes();
});
]]></script>
</svg>
