<?xml version="1.0" encoding="UTF-8" standalone="no"?>
<!DOCTYPE svg PUBLIC "-//W3C//DTD SVG 1.1//EN"
 "http://www.w3.org/Graphics/SVG/1.1/DTD/svg11.dtd">
<!-- Generated by graphviz version 2.43.0 (0)
 -->
<!-- Title: ttg_parsec::register_device_memory Pages: 1 -->
<svg width="450pt" height="94pt"
 viewBox="0.00 0.00 450.00 93.50" xmlns="http://www.w3.org/2000/svg" xmlns:xlink="http://www.w3.org/1999/xlink">

<svg id="main" version="1.1" xmlns="http://www.w3.org/2000/svg" xmlns:xlink="http://www.w3.org/1999/xlink" xml:space="preserve" onload="init(evt)">
<style type="text/css"><![CDATA[
.node, .edge {opacity: 0.7;}
.node.selected, .edge.selected {opacity: 1;}
.edge:hover path { stroke: red; }
.edge:hover polygon { stroke: red; fill: red; }
]]></style>
<script type="application/ecmascript" xlink:href="svg.min.js"/>
<svg id="graph" class="graph">
<g id="graph0" class="graph" transform="scale(1 1) rotate(0) translate(4 89.5)">
<title>ttg_parsec::register_device_memory</title>
<!-- Node1 -->
<g id="Node000001" class="node">
<title>Node1</title>
<g id="a_Node000001"><a xlink:title=" ">
<polygon fill="#999999" stroke="#666666" points="116,-51 0,-51 0,-21 116,-21 116,-51"/>
<text text-anchor="start" x="8" y="-39" font-family="Times,serif" font-size="10.00">ttg_parsec::register</text>
<text text-anchor="middle" x="58" y="-28" font-family="Times,serif" font-size="10.00">_device_memory</text>
</a>
</g>
</g>
<!-- Node2 -->
<g id="Node000002" class="node">
<title>Node2</title>
<g id="a_Node000002"><a xlink:href="namespacettg__parsec_1_1detail.html#ab90903b036af1e96ad7028f89907f30a" target="_top" xlink:title=" ">
<polygon fill="white" stroke="#666666" points="300,-51 152,-51 152,-21 300,-21 300,-51"/>
<text text-anchor="start" x="160" y="-39" font-family="Times,serif" font-size="10.00">ttg_parsec::detail</text>
<text text-anchor="middle" x="226" y="-28" font-family="Times,serif" font-size="10.00">::register_device_memory</text>
</a>
</g>
</g>
<!-- Node1&#45;&gt;Node2 -->
<g id="edge1_Node000001_Node000002" class="edge">
<title>Node1&#45;&gt;Node2</title>
<g id="a_edge1_Node000001_Node000002"><a xlink:title=" ">
<path fill="none" stroke="#63b8ff" d="M116.13,-36C124.42,-36 133.09,-36 141.77,-36"/>
<polygon fill="#63b8ff" stroke="#63b8ff" points="141.94,-39.5 151.94,-36 141.94,-32.5 141.94,-39.5"/>
</a>
</g>
</g>
<!-- Node2&#45;&gt;Node2 -->
<g id="edge5_Node000002_Node000002" class="edge">
<title>Node2&#45;&gt;Node2</title>
<g id="a_edge5_Node000002_Node000002"><a xlink:title=" ">
<path fill="none" stroke="#63b8ff" d="M197.52,-51.28C191.2,-60.41 200.69,-69 226,-69 241.03,-69 250.48,-65.97 254.36,-61.6"/>
<polygon fill="#63b8ff" stroke="#63b8ff" points="257.86,-61.32 254.48,-51.28 250.86,-61.23 257.86,-61.32"/>
</a>
</g>
</g>
<!-- Node3 -->
<g id="Node000003" class="node">
<title>Node3</title>
<g id="a_Node000003"><a xlink:href="namespacettg_1_1meta.html#affd90f350d054c6a5b4859644d834172" target="_top" xlink:title=" ">
<polygon fill="white" stroke="#666666" points="431.5,-67.5 346.5,-67.5 346.5,-48.5 431.5,-48.5 431.5,-67.5"/>
<text text-anchor="middle" x="389" y="-55.5" font-family="Times,serif" font-size="10.00">ttg::meta::get</text>
</a>
</g>
</g>
<!-- Node2&#45;&gt;Node3 -->
<g id="edge2_Node000002_Node000003" class="edge">
<title>Node2&#45;&gt;Node3</title>
<g id="a_edge2_Node000002_Node000003"><a xlink:title=" ">
<path fill="none" stroke="#63b8ff" d="M300.43,-46.03C312.5,-47.68 324.77,-49.36 336.17,-50.92"/>
<polygon fill="#63b8ff" stroke="#63b8ff" points="335.98,-54.42 346.36,-52.31 336.92,-47.49 335.98,-54.42"/>
</a>
</g>
</g>
<!-- Node4 -->
<g id="Node000004" class="node">
<title>Node4</title>
<g id="a_Node000004"><a xlink:href="namespacettg__parsec_1_1detail.html#ad37e220fbc05d0a62b08a94964480f0a" target="_top" xlink:title=" ">
<polygon fill="white" stroke="#666666" points="442,-30 336,-30 336,0 442,0 442,-30"/>
<text text-anchor="start" x="344" y="-18" font-family="Times,serif" font-size="10.00">ttg_parsec::detail</text>
<text text-anchor="middle" x="389" y="-7" font-family="Times,serif" font-size="10.00">::get_parsec_data</text>
</a>
</g>
</g>
<!-- Node2&#45;&gt;Node4 -->
<g id="edge4_Node000002_Node000004" class="edge">
<title>Node2&#45;&gt;Node4</title>
<g id="a_edge4_Node000002_Node000004"><a xlink:title=" ">
<path fill="none" stroke="#63b8ff" d="M300.43,-26.42C308.92,-25.31 317.52,-24.19 325.84,-23.11"/>
<polygon fill="#63b8ff" stroke="#63b8ff" points="326.36,-26.57 335.83,-21.81 325.46,-19.63 326.36,-26.57"/>
</a>
</g>
</g>
<!-- Node3&#45;&gt;Node3 -->
<g id="edge3_Node000003_Node000003" class="edge">
<title>Node3&#45;&gt;Node3</title>
<g id="a_edge3_Node000003_Node000003"><a xlink:title=" ">
<path fill="none" stroke="#63b8ff" d="M364.03,-67.58C351.88,-76.23 360.21,-85.5 389,-85.5 407.9,-85.5 417.98,-81.51 419.24,-76.32"/>
<polygon fill="#63b8ff" stroke="#63b8ff" points="422.13,-74.34 413.97,-67.58 416.14,-77.95 422.13,-74.34"/>
</a>
</g>
</g>
</g>
</svg>
</svg>

<style type='text/css'>
<![CDATA[
[data-mouse-over-selected='false'] { opacity: 0.7; }
[data-mouse-over-selected='true']  { opacity: 1.0; }
]]>
</style>
<script type="application/ecmascript"><![CDATA[
document.addEventListener('DOMContentLoaded', (event) => {
  highlightEdges();
  highlightAdjacentNodes();
});
]]></script>
</svg>
