<?xml version="1.0" encoding="UTF-8" standalone="no"?>
<!DOCTYPE svg PUBLIC "-//W3C//DTD SVG 1.1//EN"
 "http://www.w3.org/Graphics/SVG/1.1/DTD/svg11.dtd">
<!-- Generated by graphviz version 2.43.0 (0)
 -->
<!-- Title: ttg::detail::broadcast Pages: 1 -->
<svg width="409pt" height="64pt"
 viewBox="0.00 0.00 409.00 64.00" xmlns="http://www.w3.org/2000/svg" xmlns:xlink="http://www.w3.org/1999/xlink">

<svg id="main" version="1.1" xmlns="http://www.w3.org/2000/svg" xmlns:xlink="http://www.w3.org/1999/xlink" xml:space="preserve" onload="init(evt)">
<style type="text/css"><![CDATA[
.node, .edge {opacity: 0.7;}
.node.selected, .edge.selected {opacity: 1;}
.edge:hover path { stroke: red; }
.edge:hover polygon { stroke: red; fill: red; }
]]></style>
<script type="application/ecmascript" xlink:href="svg.min.js"/>
<svg id="graph" class="graph">
<g id="graph0" class="graph" transform="scale(1 1) rotate(0) translate(4 60)">
<title>ttg::detail::broadcast</title>
<!-- Node1 -->
<g id="Node000001" class="node">
<title>Node1</title>
<g id="a_Node000001"><a xlink:title=" ">
<polygon fill="#999999" stroke="#666666" points="122,-19 0,-19 0,0 122,0 122,-19"/>
<text text-anchor="middle" x="61" y="-7" font-family="Times,serif" font-size="10.00">ttg::detail::broadcast</text>
</a>
</g>
</g>
<!-- Node2 -->
<g id="Node000002" class="node">
<title>Node2</title>
<g id="a_Node000002"><a xlink:href="namespacettg_1_1detail.html#adc8ad44fcad6d0781a817bfd5f7a9ce6" target="_top" xlink:title=" ">
<polygon fill="white" stroke="#666666" points="280,-38 158,-38 158,-19 280,-19 280,-38"/>
<text text-anchor="middle" x="219" y="-26" font-family="Times,serif" font-size="10.00">ttg::detail::broadcast</text>
</a>
</g>
</g>
<!-- Node1&#45;&gt;Node2 -->
<g id="edge1_Node000001_Node000002" class="edge">
<title>Node1&#45;&gt;Node2</title>
<g id="a_edge1_Node000001_Node000002"><a xlink:title=" ">
<path fill="none" stroke="#63b8ff" d="M122.31,-16.85C130.69,-17.87 139.36,-18.92 147.9,-19.96"/>
<polygon fill="#63b8ff" stroke="#63b8ff" points="147.5,-23.44 157.85,-21.17 148.34,-16.49 147.5,-23.44"/>
</a>
</g>
</g>
<!-- Node3 -->
<g id="Node000003" class="node">
<title>Node3</title>
<g id="a_Node000003"><a xlink:href="namespacettg_1_1meta.html#affd90f350d054c6a5b4859644d834172" target="_top" xlink:title=" ">
<polygon fill="white" stroke="#666666" points="401,-19 316,-19 316,0 401,0 401,-19"/>
<text text-anchor="middle" x="358.5" y="-7" font-family="Times,serif" font-size="10.00">ttg::meta::get</text>
</a>
</g>
</g>
<!-- Node1&#45;&gt;Node3 -->
<g id="edge5_Node000001_Node000003" class="edge">
<title>Node1&#45;&gt;Node3</title>
<g id="a_edge5_Node000001_Node000003"><a xlink:title=" ">
<path fill="none" stroke="#63b8ff" d="M122.16,-9.5C176.15,-9.5 254.57,-9.5 305.8,-9.5"/>
<polygon fill="#63b8ff" stroke="#63b8ff" points="305.98,-13 315.98,-9.5 305.98,-6 305.98,-13"/>
</a>
</g>
</g>
<!-- Node2&#45;&gt;Node2 -->
<g id="edge2_Node000002_Node000002" class="edge">
<title>Node2&#45;&gt;Node2</title>
<g id="a_edge2_Node000002_Node000002"><a xlink:title=" ">
<path fill="none" stroke="#63b8ff" d="M197.73,-38.08C187.38,-46.73 194.47,-56 219,-56 234.71,-56 243.27,-52.2 244.67,-47.19"/>
<polygon fill="#63b8ff" stroke="#63b8ff" points="247.77,-45.56 240.27,-38.08 241.47,-48.61 247.77,-45.56"/>
</a>
</g>
</g>
<!-- Node2&#45;&gt;Node3 -->
<g id="edge3_Node000002_Node000003" class="edge">
<title>Node2&#45;&gt;Node3</title>
<g id="a_edge3_Node000002_Node000003"><a xlink:title=" ">
<path fill="none" stroke="#63b8ff" d="M280.31,-20.17C288.83,-18.99 297.52,-17.79 305.85,-16.64"/>
<polygon fill="#63b8ff" stroke="#63b8ff" points="306.37,-20.1 315.8,-15.26 305.42,-13.16 306.37,-20.1"/>
</a>
</g>
</g>
<!-- Node3&#45;&gt;Node3 -->
<g id="edge4_Node000003_Node000003" class="edge">
<title>Node3&#45;&gt;Node3</title>
<g id="a_edge4_Node000003_Node000003"><a xlink:title=" ">
<path fill="none" stroke="#63b8ff" d="M337.23,-19.08C326.88,-27.73 333.97,-37 358.5,-37 374.21,-37 382.77,-33.2 384.17,-28.19"/>
<polygon fill="#63b8ff" stroke="#63b8ff" points="387.27,-26.56 379.77,-19.08 380.97,-29.61 387.27,-26.56"/>
</a>
</g>
</g>
</g>
</svg>
</svg>

<style type='text/css'>
<![CDATA[
[data-mouse-over-selected='false'] { opacity: 0.7; }
[data-mouse-over-selected='true']  { opacity: 1.0; }
]]>
</style>
<script type="application/ecmascript"><![CDATA[
document.addEventListener('DOMContentLoaded', (event) => {
  highlightEdges();
  highlightAdjacentNodes();
});
]]></script>
</svg>
