<?xml version="1.0" encoding="UTF-8" standalone="no"?>
<!DOCTYPE svg PUBLIC "-//W3C//DTD SVG 1.1//EN"
 "http://www.w3.org/Graphics/SVG/1.1/DTD/svg11.dtd">
<!-- Generated by graphviz version 2.43.0 (0)
 -->
<!-- Title: ttg_parsec::detail::get_parsec_data Pages: 1 -->
<svg width="699pt" height="363pt"
 viewBox="0.00 0.00 699.00 362.68" xmlns="http://www.w3.org/2000/svg" xmlns:xlink="http://www.w3.org/1999/xlink">
<g id="graph0" class="graph" transform="scale(1 1) rotate(0) translate(4 358.68)">
<title>ttg_parsec::detail::get_parsec_data</title>
<!-- Node1 -->
<g id="Node000001" class="node">
<title>Node1</title>
<g id="a_Node000001"><a xlink:title=" ">
<polygon fill="#999999" stroke="#666666" points="691,-162 585,-162 585,-132 691,-132 691,-162"/>
<text text-anchor="start" x="593" y="-150" font-family="Times,serif" font-size="10.00">ttg_parsec::detail</text>
<text text-anchor="middle" x="638" y="-139" font-family="Times,serif" font-size="10.00">::get_parsec_data</text>
</a>
</g>
</g>
<!-- Node2 -->
<g id="Node000002" class="node">
<title>Node2</title>
<g id="a_Node000002"><a xlink:href="namespacettg__parsec.html#ad933ff1f3fd96231aa79e6be486e6cb5" target="_top" xlink:title=" ">
<polygon fill="white" stroke="#666666" points="542,-265.5 408,-265.5 408,-246.5 542,-246.5 542,-265.5"/>
<text text-anchor="middle" x="475" y="-253.5" font-family="Times,serif" font-size="10.00">ttg_parsec::buffer_data</text>
</a>
</g>
</g>
<!-- Node1&#45;&gt;Node2 -->
<g id="edge1_Node000001_Node000002" class="edge">
<title>Node1&#45;&gt;Node2</title>
<g id="a_edge1_Node000001_Node000002"><a xlink:title=" ">
<path fill="none" stroke="#63b8ff" d="M620.09,-170.44C604.04,-190.98 578.11,-220.11 549,-237 542.32,-240.88 534.84,-243.98 527.28,-246.45"/>
<polygon fill="#63b8ff" stroke="#63b8ff" points="623.07,-172.3 626.34,-162.22 617.5,-168.06 623.07,-172.3"/>
</a>
</g>
</g>
<!-- Node3 -->
<g id="Node000003" class="node">
<title>Node3</title>
<g id="a_Node000003"><a xlink:href="namespacettg__parsec_1_1detail.html#a4daca8ffc2e91c825340381688737ff0" target="_top" xlink:title=" ">
<polygon fill="white" stroke="#666666" points="539,-228 411,-228 411,-198 539,-198 539,-228"/>
<text text-anchor="start" x="419" y="-216" font-family="Times,serif" font-size="10.00">ttg_parsec::detail</text>
<text text-anchor="middle" x="475" y="-205" font-family="Times,serif" font-size="10.00">::foreach_parsec_data</text>
</a>
</g>
</g>
<!-- Node1&#45;&gt;Node3 -->
<g id="edge2_Node000001_Node000003" class="edge">
<title>Node1&#45;&gt;Node3</title>
<g id="a_edge2_Node000001_Node000003"><a xlink:title=" ">
<path fill="none" stroke="#63b8ff" d="M598.56,-166.66C583.32,-174.1 565.52,-182.37 549,-189 541.2,-192.13 532.82,-195.17 524.61,-197.98"/>
<polygon fill="#63b8ff" stroke="#63b8ff" points="600.27,-169.72 607.68,-162.15 597.17,-163.44 600.27,-169.72"/>
</a>
</g>
</g>
<!-- Node10 -->
<g id="Node000010" class="node">
<title>Node10</title>
<g id="a_Node000010"><a xlink:href="namespacettg__parsec_1_1detail.html#a64062122e8cf61337eec8a59373e3fed" target="_top" xlink:title=" ">
<polygon fill="white" stroke="#666666" points="529.5,-162 420.5,-162 420.5,-132 529.5,-132 529.5,-162"/>
<text text-anchor="start" x="428.5" y="-150" font-family="Times,serif" font-size="10.00">ttg_parsec::detail</text>
<text text-anchor="middle" x="475" y="-139" font-family="Times,serif" font-size="10.00">::mark_device_out</text>
</a>
</g>
</g>
<!-- Node1&#45;&gt;Node10 -->
<g id="edge11_Node000001_Node000010" class="edge">
<title>Node1&#45;&gt;Node10</title>
<g id="a_edge11_Node000001_Node000010"><a xlink:title=" ">
<path fill="none" stroke="#63b8ff" d="M574.62,-147C559.78,-147 544.08,-147 529.67,-147"/>
<polygon fill="#63b8ff" stroke="#63b8ff" points="574.73,-150.5 584.73,-147 574.73,-143.5 574.73,-150.5"/>
</a>
</g>
</g>
<!-- Node12 -->
<g id="Node000012" class="node">
<title>Node12</title>
<g id="a_Node000012"><a xlink:href="namespacettg__parsec_1_1detail.html#acfab5fde82e7fa34a3d65f33434d25f5" target="_top" xlink:title=" ">
<polygon fill="white" stroke="#666666" points="527,-96 423,-96 423,-66 527,-66 527,-96"/>
<text text-anchor="start" x="431" y="-84" font-family="Times,serif" font-size="10.00">ttg_parsec::detail</text>
<text text-anchor="middle" x="475" y="-73" font-family="Times,serif" font-size="10.00">::post_device_out</text>
</a>
</g>
</g>
<!-- Node1&#45;&gt;Node12 -->
<g id="edge14_Node000001_Node000012" class="edge">
<title>Node1&#45;&gt;Node12</title>
<g id="a_edge14_Node000001_Node000012"><a xlink:title=" ">
<path fill="none" stroke="#63b8ff" d="M590.53,-127.95C565.81,-117.82 535.84,-105.53 512.76,-96.07"/>
<polygon fill="#63b8ff" stroke="#63b8ff" points="589.48,-131.3 600.06,-131.86 592.14,-124.83 589.48,-131.3"/>
</a>
</g>
</g>
<!-- Node14 -->
<g id="Node000014" class="node">
<title>Node14</title>
<g id="a_Node000014"><a xlink:href="namespacettg__parsec_1_1detail.html#ab90903b036af1e96ad7028f89907f30a" target="_top" xlink:title=" ">
<polygon fill="white" stroke="#666666" points="549,-30 401,-30 401,0 549,0 549,-30"/>
<text text-anchor="start" x="409" y="-18" font-family="Times,serif" font-size="10.00">ttg_parsec::detail</text>
<text text-anchor="middle" x="475" y="-7" font-family="Times,serif" font-size="10.00">::register_device_memory</text>
</a>
</g>
</g>
<!-- Node1&#45;&gt;Node14 -->
<g id="edge17_Node000001_Node000014" class="edge">
<title>Node1&#45;&gt;Node14</title>
<g id="a_edge17_Node000001_Node000014"><a xlink:title=" ">
<path fill="none" stroke="#63b8ff" d="M617.73,-124.01C600.84,-104.71 574.99,-77.15 549,-57 535.83,-46.79 519.91,-37.34 506.3,-30.01"/>
<polygon fill="#63b8ff" stroke="#63b8ff" points="615.21,-126.44 624.39,-131.73 620.5,-121.87 615.21,-126.44"/>
</a>
</g>
</g>
<!-- Node4 -->
<g id="Node000004" class="node">
<title>Node4</title>
<g id="a_Node000004"><a xlink:href="classttg__parsec_1_1_t_t.html#ab267d50d29a8a845a5578f67d6c75f2a" target="_top" xlink:title=" ">
<polygon fill="white" stroke="#666666" points="167,-339.5 0,-339.5 0,-320.5 167,-320.5 167,-339.5"/>
<text text-anchor="middle" x="83.5" y="-327.5" font-family="Times,serif" font-size="10.00">ttg_parsec::TT::broadcast_arg</text>
</a>
</g>
</g>
<!-- Node3&#45;&gt;Node4 -->
<g id="edge3_Node000003_Node000004" class="edge">
<title>Node3&#45;&gt;Node4</title>
<g id="a_edge3_Node000003_Node000004"><a xlink:title=" ">
<path fill="none" stroke="#63b8ff" d="M406.45,-233.53C404.54,-234.92 402.72,-236.41 401,-238 371.46,-265.28 398.26,-298.4 365,-321 289.64,-372.21 174.7,-353.41 118.22,-339.55"/>
<polygon fill="#63b8ff" stroke="#63b8ff" points="408.66,-236.28 415.27,-228 404.94,-230.35 408.66,-236.28"/>
</a>
</g>
</g>
<!-- Node5 -->
<g id="Node000005" class="node">
<title>Node5</title>
<g id="a_Node000005"><a xlink:href="classttg__parsec_1_1_t_t.html#a620e641c7024e14437f199e475f92db6" target="_top" xlink:title=" ">
<polygon fill="white" stroke="#666666" points="340.5,-312 227.5,-312 227.5,-282 340.5,-282 340.5,-312"/>
<text text-anchor="start" x="235.5" y="-300" font-family="Times,serif" font-size="10.00">ttg_parsec::TT::can</text>
<text text-anchor="middle" x="284" y="-289" font-family="Times,serif" font-size="10.00">_inline_data</text>
</a>
</g>
</g>
<!-- Node3&#45;&gt;Node5 -->
<g id="edge4_Node000003_Node000005" class="edge">
<title>Node3&#45;&gt;Node5</title>
<g id="a_edge4_Node000003_Node000005"><a xlink:title=" ">
<path fill="none" stroke="#63b8ff" d="M413.08,-231.94C408.91,-233.81 404.85,-235.84 401,-238 382.85,-248.21 383.06,-257.63 365,-268 355.65,-273.37 345.12,-278.04 334.86,-281.96"/>
<polygon fill="#63b8ff" stroke="#63b8ff" points="414.45,-235.16 422.31,-228.05 411.74,-228.7 414.45,-235.16"/>
</a>
</g>
</g>
<!-- Node6 -->
<g id="Node000006" class="node">
<title>Node6</title>
<g id="a_Node000006"><a xlink:href="classttg__parsec_1_1_t_t.html#af647004ce89dc81d1202dd68070f0bde" target="_top" xlink:title=" ">
<polygon fill="white" stroke="#666666" points="138.5,-293 28.5,-293 28.5,-263 138.5,-263 138.5,-293"/>
<text text-anchor="start" x="36.5" y="-281" font-family="Times,serif" font-size="10.00">ttg_parsec::TT::set</text>
<text text-anchor="middle" x="83.5" y="-270" font-family="Times,serif" font-size="10.00">_arg_impl</text>
</a>
</g>
</g>
<!-- Node3&#45;&gt;Node6 -->
<g id="edge10_Node000003_Node000006" class="edge">
<title>Node3&#45;&gt;Node6</title>
<g id="a_edge10_Node000003_Node000006"><a xlink:title=" ">
<path fill="none" stroke="#63b8ff" d="M400.99,-228.23C388.98,-230.59 376.66,-232.93 365,-235 286.54,-248.92 195.25,-262.42 138.66,-270.47"/>
<polygon fill="#63b8ff" stroke="#63b8ff" points="401.86,-231.63 410.98,-226.24 400.49,-224.76 401.86,-231.63"/>
</a>
</g>
</g>
<!-- Node7 -->
<g id="Node000007" class="node">
<title>Node7</title>
<g id="a_Node000007"><a xlink:href="classttg__parsec_1_1_t_t.html#af0ad3fe4092ed50f7d73ed92f568b209" target="_top" xlink:title=" ">
<polygon fill="white" stroke="#666666" points="343.5,-226 224.5,-226 224.5,-196 343.5,-196 343.5,-226"/>
<text text-anchor="start" x="232.5" y="-214" font-family="Times,serif" font-size="10.00">ttg_parsec::TT::copy</text>
<text text-anchor="middle" x="284" y="-203" font-family="Times,serif" font-size="10.00">_mark_pushout</text>
</a>
</g>
</g>
<!-- Node3&#45;&gt;Node7 -->
<g id="edge7_Node000003_Node000007" class="edge">
<title>Node3&#45;&gt;Node7</title>
<g id="a_edge7_Node000003_Node000007"><a xlink:title=" ">
<path fill="none" stroke="#63b8ff" d="M400.74,-212.22C381.83,-212.02 361.73,-211.81 343.67,-211.62"/>
<polygon fill="#63b8ff" stroke="#63b8ff" points="400.77,-215.73 410.8,-212.33 400.84,-208.73 400.77,-215.73"/>
</a>
</g>
</g>
<!-- Node9 -->
<g id="Node000009" class="node">
<title>Node9</title>
<g id="a_Node000009"><a xlink:href="classttg__parsec_1_1_t_t.html#ab9cbb6fbff64a26d98e2905560422e8c" target="_top" xlink:title=" ">
<polygon fill="white" stroke="#666666" points="339,-178 229,-178 229,-148 339,-148 339,-178"/>
<text text-anchor="start" x="237" y="-166" font-family="Times,serif" font-size="10.00">ttg_parsec::TT::set</text>
<text text-anchor="middle" x="284" y="-155" font-family="Times,serif" font-size="10.00">_arg_from_msg</text>
</a>
</g>
</g>
<!-- Node3&#45;&gt;Node9 -->
<g id="edge9_Node000003_Node000009" class="edge">
<title>Node3&#45;&gt;Node9</title>
<g id="a_edge9_Node000003_Node000009"><a xlink:title=" ">
<path fill="none" stroke="#63b8ff" d="M407.52,-195.41C385.11,-189.49 360.4,-182.95 339.07,-177.3"/>
<polygon fill="#63b8ff" stroke="#63b8ff" points="406.73,-198.82 417.29,-198 408.52,-192.06 406.73,-198.82"/>
</a>
</g>
</g>
<!-- Node5&#45;&gt;Node4 -->
<g id="edge5_Node000005_Node000004" class="edge">
<title>Node5&#45;&gt;Node4</title>
<g id="a_edge5_Node000005_Node000004"><a xlink:title=" ">
<path fill="none" stroke="#63b8ff" d="M217.52,-307.89C193.04,-311.96 165.45,-316.54 141.77,-320.48"/>
<polygon fill="#63b8ff" stroke="#63b8ff" points="218.15,-311.33 227.44,-306.24 217,-304.42 218.15,-311.33"/>
</a>
</g>
</g>
<!-- Node5&#45;&gt;Node6 -->
<g id="edge6_Node000005_Node000006" class="edge">
<title>Node5&#45;&gt;Node6</title>
<g id="a_edge6_Node000005_Node000006"><a xlink:title=" ">
<path fill="none" stroke="#63b8ff" d="M217.47,-290.73C191.93,-288.28 163,-285.51 138.67,-283.19"/>
<polygon fill="#63b8ff" stroke="#63b8ff" points="217.15,-294.21 227.44,-291.68 217.82,-287.25 217.15,-294.21"/>
</a>
</g>
</g>
<!-- Node8 -->
<g id="Node000008" class="node">
<title>Node8</title>
<g id="a_Node000008"><a xlink:href="classttg__parsec_1_1_t_t.html#a2e11524aaacb5beebc988786e1f6a92c" target="_top" xlink:title=" ">
<polygon fill="white" stroke="#666666" points="137,-226 30,-226 30,-196 137,-196 137,-226"/>
<text text-anchor="start" x="38" y="-214" font-family="Times,serif" font-size="10.00">ttg_parsec::TT::do</text>
<text text-anchor="middle" x="83.5" y="-203" font-family="Times,serif" font-size="10.00">_prepare_send</text>
</a>
</g>
</g>
<!-- Node7&#45;&gt;Node8 -->
<g id="edge8_Node000007_Node000008" class="edge">
<title>Node7&#45;&gt;Node8</title>
<g id="a_edge8_Node000007_Node000008"><a xlink:title=" ">
<path fill="none" stroke="#63b8ff" d="M214,-211C188.74,-211 160.6,-211 137.02,-211"/>
<polygon fill="#63b8ff" stroke="#63b8ff" points="214.25,-214.5 224.25,-211 214.25,-207.5 214.25,-214.5"/>
</a>
</g>
</g>
<!-- Node10&#45;&gt;Node10 -->
<g id="edge13_Node000010_Node000010" class="edge">
<title>Node10&#45;&gt;Node10</title>
<g id="a_edge13_Node000010_Node000010"><a xlink:title=" ">
<path fill="none" stroke="#63b8ff" d="M503.36,-172.6C499.48,-176.97 490.03,-180 475,-180 449.69,-180 440.2,-171.41 446.52,-162.28"/>
<polygon fill="#63b8ff" stroke="#63b8ff" points="506.86,-172.32 503.48,-162.28 499.86,-172.23 506.86,-172.32"/>
</a>
</g>
</g>
<!-- Node11 -->
<g id="Node000011" class="node">
<title>Node11</title>
<g id="a_Node000011"><a xlink:href="namespacettg__parsec.html#af9c1968d2d71fd832f8f0292aaf58979" target="_top" xlink:title=" ">
<polygon fill="white" stroke="#666666" points="365,-129.5 203,-129.5 203,-110.5 365,-110.5 365,-129.5"/>
<text text-anchor="middle" x="284" y="-117.5" font-family="Times,serif" font-size="10.00">ttg_parsec::mark_device_out</text>
</a>
</g>
</g>
<!-- Node10&#45;&gt;Node11 -->
<g id="edge12_Node000010_Node000011" class="edge">
<title>Node10&#45;&gt;Node11</title>
<g id="a_edge12_Node000010_Node000011"><a xlink:title=" ">
<path fill="none" stroke="#63b8ff" d="M410.35,-137.91C391.44,-135.21 370.68,-132.24 351.58,-129.51"/>
<polygon fill="#63b8ff" stroke="#63b8ff" points="409.95,-141.39 420.35,-139.34 410.94,-134.46 409.95,-141.39"/>
</a>
</g>
</g>
<!-- Node12&#45;&gt;Node12 -->
<g id="edge16_Node000012_Node000012" class="edge">
<title>Node12&#45;&gt;Node12</title>
<g id="a_edge16_Node000012_Node000012"><a xlink:title=" ">
<path fill="none" stroke="#63b8ff" d="M503.36,-106.6C499.48,-110.97 490.03,-114 475,-114 449.69,-114 440.2,-105.41 446.52,-96.28"/>
<polygon fill="#63b8ff" stroke="#63b8ff" points="506.86,-106.32 503.48,-96.28 499.86,-106.23 506.86,-106.32"/>
</a>
</g>
</g>
<!-- Node13 -->
<g id="Node000013" class="node">
<title>Node13</title>
<g id="a_Node000013"><a xlink:href="namespacettg__parsec.html#ab22c9936889e19bb34845fafcd699c9e" target="_top" xlink:title=" ">
<polygon fill="white" stroke="#666666" points="363,-90.5 205,-90.5 205,-71.5 363,-71.5 363,-90.5"/>
<text text-anchor="middle" x="284" y="-78.5" font-family="Times,serif" font-size="10.00">ttg_parsec::post_device_out</text>
</a>
</g>
</g>
<!-- Node12&#45;&gt;Node13 -->
<g id="edge15_Node000012_Node000013" class="edge">
<title>Node12&#45;&gt;Node13</title>
<g id="a_edge15_Node000012_Node000013"><a xlink:title=" ">
<path fill="none" stroke="#63b8ff" d="M412.71,-81C396.92,-81 379.71,-81 363.2,-81"/>
<polygon fill="#63b8ff" stroke="#63b8ff" points="412.85,-84.5 422.85,-81 412.85,-77.5 412.85,-84.5"/>
</a>
</g>
</g>
<!-- Node14&#45;&gt;Node14 -->
<g id="edge19_Node000014_Node000014" class="edge">
<title>Node14&#45;&gt;Node14</title>
<g id="a_edge19_Node000014_Node000014"><a xlink:title=" ">
<path fill="none" stroke="#63b8ff" d="M503.36,-40.6C499.48,-44.97 490.03,-48 475,-48 449.69,-48 440.2,-39.41 446.52,-30.28"/>
<polygon fill="#63b8ff" stroke="#63b8ff" points="506.86,-40.32 503.48,-30.28 499.86,-40.23 506.86,-40.32"/>
</a>
</g>
</g>
<!-- Node15 -->
<g id="Node000015" class="node">
<title>Node15</title>
<g id="a_Node000015"><a xlink:href="namespacettg__parsec.html#af8d611f46a2ca75cc727e1d84f1f9452" target="_top" xlink:title=" ">
<polygon fill="white" stroke="#666666" points="342,-30 226,-30 226,0 342,0 342,-30"/>
<text text-anchor="start" x="234" y="-18" font-family="Times,serif" font-size="10.00">ttg_parsec::register</text>
<text text-anchor="middle" x="284" y="-7" font-family="Times,serif" font-size="10.00">_device_memory</text>
</a>
</g>
</g>
<!-- Node14&#45;&gt;Node15 -->
<g id="edge18_Node000014_Node000015" class="edge">
<title>Node14&#45;&gt;Node15</title>
<g id="a_edge18_Node000014_Node000015"><a xlink:title=" ">
<path fill="none" stroke="#63b8ff" d="M390.76,-15C374.31,-15 357.4,-15 342.05,-15"/>
<polygon fill="#63b8ff" stroke="#63b8ff" points="390.93,-18.5 400.93,-15 390.93,-11.5 390.93,-18.5"/>
</a>
</g>
</g>
</g>
</svg>
