<?xml version="1.0" encoding="UTF-8" standalone="no"?>
<!DOCTYPE svg PUBLIC "-//W3C//DTD SVG 1.1//EN"
 "http://www.w3.org/Graphics/SVG/1.1/DTD/svg11.dtd">
<!-- Generated by graphviz version 2.43.0 (0)
 -->
<!-- Title: ttg::initialize Pages: 1 -->
<svg width="420pt" height="322pt"
 viewBox="0.00 0.00 420.00 322.00" xmlns="http://www.w3.org/2000/svg" xmlns:xlink="http://www.w3.org/1999/xlink">

<svg id="main" version="1.1" xmlns="http://www.w3.org/2000/svg" xmlns:xlink="http://www.w3.org/1999/xlink" xml:space="preserve" onload="init(evt)">
<style type="text/css"><![CDATA[
.node, .edge {opacity: 0.7;}
.node.selected, .edge.selected {opacity: 1;}
.edge:hover path { stroke: red; }
.edge:hover polygon { stroke: red; fill: red; }
]]></style>
<script type="application/ecmascript" xlink:href="svg.min.js"/>
<svg id="graph" class="graph">
<g id="graph0" class="graph" transform="scale(1 1) rotate(0) translate(4 318)">
<title>ttg::initialize</title>
<!-- Node1 -->
<g id="Node000001" class="node">
<title>Node1</title>
<g id="a_Node000001"><a xlink:title="Initializes the TTG runtime with the default backend.">
<polygon fill="#999999" stroke="#666666" points="80,-161.5 0,-161.5 0,-142.5 80,-142.5 80,-161.5"/>
<text text-anchor="middle" x="40" y="-149.5" font-family="Times,serif" font-size="10.00">ttg::initialize</text>
</a>
</g>
</g>
<!-- Node2 -->
<g id="Node000002" class="node">
<title>Node2</title>
<g id="a_Node000002"><a xlink:href="classttg_1_1_debugger.html#a754e9a1b50445936716c34856c26272d" target="_top" xlink:title="Return the global default debugger.">
<polygon fill="white" stroke="#666666" points="251,-314 120,-314 120,-284 251,-284 251,-314"/>
<text text-anchor="start" x="128" y="-302" font-family="Times,serif" font-size="10.00">ttg::Debugger::default</text>
<text text-anchor="middle" x="185.5" y="-291" font-family="Times,serif" font-size="10.00">_debugger</text>
</a>
</g>
</g>
<!-- Node1&#45;&gt;Node2 -->
<g id="edge1_Node000001_Node000002" class="edge">
<title>Node1&#45;&gt;Node2</title>
<g id="a_edge1_Node000001_Node000002"><a xlink:title=" ">
<path fill="none" stroke="#63b8ff" d="M44.24,-161.53C52.49,-184.44 76.52,-243.07 116,-275 117.58,-276.28 119.23,-277.49 120.94,-278.64"/>
<polygon fill="#63b8ff" stroke="#63b8ff" points="119.5,-281.85 129.9,-283.88 123.04,-275.81 119.5,-281.85"/>
</a>
</g>
</g>
<!-- Node3 -->
<g id="Node000003" class="node">
<title>Node3</title>
<g id="a_Node000003"><a xlink:href="namespacettg.html#a78c09561304884c05c8a8f25006b0ee6" target="_top" xlink:title="Accesses the default backend&#39;s default execution context.">
<polygon fill="white" stroke="#666666" points="249.5,-266 121.5,-266 121.5,-236 249.5,-236 249.5,-266"/>
<text text-anchor="start" x="129.5" y="-254" font-family="Times,serif" font-size="10.00">ttg::default_execution</text>
<text text-anchor="middle" x="185.5" y="-243" font-family="Times,serif" font-size="10.00">_context</text>
</a>
</g>
</g>
<!-- Node1&#45;&gt;Node3 -->
<g id="edge2_Node000001_Node000003" class="edge">
<title>Node1&#45;&gt;Node3</title>
<g id="a_edge2_Node000001_Node000003"><a xlink:title=" ">
<path fill="none" stroke="#63b8ff" d="M48.25,-161.67C60.55,-177.44 87,-208.77 116,-227 118.58,-228.62 121.29,-230.16 124.08,-231.6"/>
<polygon fill="#63b8ff" stroke="#63b8ff" points="122.64,-234.79 133.18,-235.9 125.64,-228.46 122.64,-234.79"/>
</a>
</g>
</g>
<!-- Node4 -->
<g id="Node000004" class="node">
<title>Node4</title>
<g id="a_Node000004"><a xlink:href="namespacettg.html#a87391f1d17461f49ac87ce078f00d4de" target="_top" xlink:title=" ">
<polygon fill="white" stroke="#666666" points="225.5,-217.5 145.5,-217.5 145.5,-198.5 225.5,-198.5 225.5,-217.5"/>
<text text-anchor="middle" x="185.5" y="-205.5" font-family="Times,serif" font-size="10.00">ttg::finalized</text>
</a>
</g>
</g>
<!-- Node1&#45;&gt;Node4 -->
<g id="edge3_Node000001_Node000004" class="edge">
<title>Node1&#45;&gt;Node4</title>
<g id="a_edge3_Node000001_Node000004"><a xlink:title=" ">
<path fill="none" stroke="#63b8ff" d="M57.51,-161.65C72.41,-170.05 95.12,-182.07 116,-190 122.26,-192.38 128.95,-194.56 135.61,-196.51"/>
<polygon fill="#63b8ff" stroke="#63b8ff" points="134.71,-199.9 145.29,-199.22 136.6,-193.16 134.71,-199.9"/>
</a>
</g>
</g>
<!-- Node6 -->
<g id="Node000006" class="node">
<title>Node6</title>
<g id="a_Node000006"><a xlink:href="namespacettg.html#ac2a23489e146ae0a7b155ba3f7fe177f" target="_top" xlink:title=" ">
<polygon fill="white" stroke="#666666" points="228.5,-180.5 142.5,-180.5 142.5,-161.5 228.5,-161.5 228.5,-180.5"/>
<text text-anchor="middle" x="185.5" y="-168.5" font-family="Times,serif" font-size="10.00">ttg::initialized</text>
</a>
</g>
</g>
<!-- Node1&#45;&gt;Node6 -->
<g id="edge5_Node000001_Node000006" class="edge">
<title>Node1&#45;&gt;Node6</title>
<g id="a_edge5_Node000001_Node000006"><a xlink:title=" ">
<path fill="none" stroke="#63b8ff" d="M80.21,-157.19C96.31,-159.32 115.17,-161.82 132.4,-164.1"/>
<polygon fill="#63b8ff" stroke="#63b8ff" points="131.95,-167.57 142.32,-165.41 132.86,-160.63 131.95,-167.57"/>
</a>
</g>
</g>
<!-- Node7 -->
<g id="Node000007" class="node">
<title>Node7</title>
<g id="a_Node000007"><a xlink:href="namespacettg_1_1detail.html#a5837cdc38d7dd80b56782aaafd4dfee0" target="_top" xlink:title=" ">
<polygon fill="white" stroke="#666666" points="412,-162 291,-162 291,-132 412,-132 412,-162"/>
<text text-anchor="start" x="299" y="-150" font-family="Times,serif" font-size="10.00">ttg::detail::initialized</text>
<text text-anchor="middle" x="351.5" y="-139" font-family="Times,serif" font-size="10.00">_accessor</text>
</a>
</g>
</g>
<!-- Node1&#45;&gt;Node7 -->
<g id="edge7_Node000001_Node000007" class="edge">
<title>Node1&#45;&gt;Node7</title>
<g id="a_edge7_Node000001_Node000007"><a xlink:title=" ">
<path fill="none" stroke="#63b8ff" d="M80.2,-151.37C130.58,-150.55 218.94,-149.13 280.88,-148.12"/>
<polygon fill="#63b8ff" stroke="#63b8ff" points="281.02,-151.62 290.97,-147.96 280.91,-144.62 281.02,-151.62"/>
</a>
</g>
</g>
<!-- Node8 -->
<g id="Node000008" class="node">
<title>Node8</title>
<g id="a_Node000008"><a xlink:href="namespacettg_1_1detail.html#ac7958c35eef5d60f2c16fac47d3baf62" target="_top" xlink:title="Determine the number of compute threads to use by TTG when not given to ttg::initialize">
<polygon fill="white" stroke="#666666" points="255,-104.5 116,-104.5 116,-85.5 255,-85.5 255,-104.5"/>
<text text-anchor="middle" x="185.5" y="-92.5" font-family="Times,serif" font-size="10.00">ttg::detail::num_threads</text>
</a>
</g>
</g>
<!-- Node1&#45;&gt;Node8 -->
<g id="edge8_Node000001_Node000008" class="edge">
<title>Node1&#45;&gt;Node8</title>
<g id="a_edge8_Node000001_Node000008"><a xlink:title=" ">
<path fill="none" stroke="#63b8ff" d="M61.51,-142.46C76.48,-135.62 97.34,-126.36 116,-119 125.67,-115.18 136.22,-111.34 146.08,-107.87"/>
<polygon fill="#63b8ff" stroke="#63b8ff" points="147.35,-111.14 155.65,-104.55 145.06,-104.52 147.35,-111.14"/>
</a>
</g>
</g>
<!-- Node9 -->
<g id="Node000009" class="node">
<title>Node9</title>
<g id="a_Node000009"><a xlink:href="namespacettg.html#ac0ad1dd3b87329e4acf9774df6dc8473" target="_top" xlink:title=" ">
<polygon fill="white" stroke="#666666" points="215.5,-67.5 155.5,-67.5 155.5,-48.5 215.5,-48.5 215.5,-67.5"/>
<text text-anchor="middle" x="185.5" y="-55.5" font-family="Times,serif" font-size="10.00">ttg::rank</text>
</a>
</g>
</g>
<!-- Node1&#45;&gt;Node9 -->
<g id="edge9_Node000001_Node000009" class="edge">
<title>Node1&#45;&gt;Node9</title>
<g id="a_edge9_Node000001_Node000009"><a xlink:title=" ">
<path fill="none" stroke="#63b8ff" d="M47.68,-142.46C59.53,-126.26 85.83,-93.45 116,-76 124.94,-70.83 135.39,-67.11 145.39,-64.45"/>
<polygon fill="#63b8ff" stroke="#63b8ff" points="146.25,-67.85 155.18,-62.13 144.64,-61.04 146.25,-67.85"/>
</a>
</g>
</g>
<!-- Node10 -->
<g id="Node000010" class="node">
<title>Node10</title>
<g id="a_Node000010"><a xlink:href="classttg_1_1_debugger.html#a348f33c40ae29063b35d22c7f7562c4f" target="_top" xlink:title="Set the global default debugger. The initial value is null.">
<polygon fill="white" stroke="#666666" points="242,-30 129,-30 129,0 242,0 242,-30"/>
<text text-anchor="start" x="137" y="-18" font-family="Times,serif" font-size="10.00">ttg::Debugger::set</text>
<text text-anchor="middle" x="185.5" y="-7" font-family="Times,serif" font-size="10.00">_default_debugger</text>
</a>
</g>
</g>
<!-- Node1&#45;&gt;Node10 -->
<g id="edge10_Node000001_Node000010" class="edge">
<title>Node1&#45;&gt;Node10</title>
<g id="a_edge10_Node000001_Node000010"><a xlink:title=" ">
<path fill="none" stroke="#63b8ff" d="M44.86,-142.29C53.96,-120.62 78.82,-67.91 116,-39 117.78,-37.62 119.64,-36.31 121.57,-35.08"/>
<polygon fill="#63b8ff" stroke="#63b8ff" points="123.38,-38.07 130.38,-30.11 119.95,-31.97 123.38,-38.07"/>
</a>
</g>
</g>
<!-- Node5 -->
<g id="Node000005" class="node">
<title>Node5</title>
<g id="a_Node000005"><a xlink:href="namespacettg_1_1detail.html#aa052371edfa4cc08284a526ff426c037" target="_top" xlink:title=" ">
<polygon fill="white" stroke="#666666" points="409,-223 294,-223 294,-193 409,-193 409,-223"/>
<text text-anchor="start" x="302" y="-211" font-family="Times,serif" font-size="10.00">ttg::detail::finalized</text>
<text text-anchor="middle" x="351.5" y="-200" font-family="Times,serif" font-size="10.00">_accessor</text>
</a>
</g>
</g>
<!-- Node4&#45;&gt;Node5 -->
<g id="edge4_Node000004_Node000005" class="edge">
<title>Node4&#45;&gt;Node5</title>
<g id="a_edge4_Node000004_Node000005"><a xlink:title=" ">
<path fill="none" stroke="#63b8ff" d="M225.78,-208C243.13,-208 264.02,-208 283.7,-208"/>
<polygon fill="#63b8ff" stroke="#63b8ff" points="283.86,-211.5 293.86,-208 283.86,-204.5 283.86,-211.5"/>
</a>
</g>
</g>
<!-- Node6&#45;&gt;Node7 -->
<g id="edge6_Node000006_Node000007" class="edge">
<title>Node6&#45;&gt;Node7</title>
<g id="a_edge6_Node000006_Node000007"><a xlink:title=" ">
<path fill="none" stroke="#63b8ff" d="M228.73,-164.82C244.52,-162.51 262.9,-159.82 280.53,-157.24"/>
<polygon fill="#63b8ff" stroke="#63b8ff" points="281.41,-160.65 290.79,-155.74 280.39,-153.72 281.41,-160.65"/>
</a>
</g>
</g>
</g>
</svg>
</svg>

<style type='text/css'>
<![CDATA[
[data-mouse-over-selected='false'] { opacity: 0.7; }
[data-mouse-over-selected='true']  { opacity: 1.0; }
]]>
</style>
<script type="application/ecmascript"><![CDATA[
document.addEventListener('DOMContentLoaded', (event) => {
  highlightEdges();
  highlightAdjacentNodes();
});
]]></script>
</svg>
