<?xml version="1.0" encoding="UTF-8" standalone="no"?>
<!DOCTYPE svg PUBLIC "-//W3C//DTD SVG 1.1//EN"
 "http://www.w3.org/Graphics/SVG/1.1/DTD/svg11.dtd">
<!-- Generated by graphviz version 2.43.0 (0)
 -->
<!-- Title: ttg::finalize Pages: 1 -->
<svg width="192pt" height="101pt"
 viewBox="0.00 0.00 192.00 101.00" xmlns="http://www.w3.org/2000/svg" xmlns:xlink="http://www.w3.org/1999/xlink">
<g id="graph0" class="graph" transform="scale(1 1) rotate(0) translate(4 97)">
<title>ttg::finalize</title>
<!-- Node1 -->
<g id="Node000001" class="node">
<title>Node1</title>
<g id="a_Node000001"><a xlink:title="Finalizes the TTG runtime.">
<polygon fill="#999999" stroke="#666666" points="184,-56 110,-56 110,-37 184,-37 184,-56"/>
<text text-anchor="middle" x="147" y="-44" font-family="Times,serif" font-size="10.00">ttg::finalize</text>
</a>
</g>
</g>
<!-- Node1&#45;&gt;Node1 -->
<g id="edge1_Node000001_Node000001" class="edge">
<title>Node1&#45;&gt;Node1</title>
<g id="a_edge1_Node000001_Node000001"><a xlink:title=" ">
<path fill="none" stroke="#63b8ff" d="M167.37,-65.55C166.01,-70.38 159.22,-74 147,-74 127.45,-74 121.8,-64.73 130.05,-56.08"/>
<polygon fill="#63b8ff" stroke="#63b8ff" points="170.64,-64.3 163.95,-56.08 164.05,-66.68 170.64,-64.3"/>
</a>
</g>
</g>
<!-- Node2 -->
<g id="Node000002" class="node">
<title>Node2</title>
<g id="a_Node000002"><a xlink:href="namespacettg.html#a2451a53374fb0fbb77f162a17b1684fa" target="_top" xlink:title=" ">
<polygon fill="white" stroke="#666666" points="74,-93 0,-93 0,-74 74,-74 74,-93"/>
<text text-anchor="middle" x="37" y="-81" font-family="Times,serif" font-size="10.00">ttg::finalize</text>
</a>
</g>
</g>
<!-- Node1&#45;&gt;Node2 -->
<g id="edge2_Node000001_Node000002" class="edge">
<title>Node1&#45;&gt;Node2</title>
<g id="a_edge2_Node000001_Node000002"><a xlink:title=" ">
<path fill="none" stroke="#63b8ff" d="M108.41,-59.38C94.51,-64.14 79.01,-69.45 66.09,-73.88"/>
<polygon fill="#63b8ff" stroke="#63b8ff" points="109.86,-62.58 118.19,-56.03 107.59,-55.96 109.86,-62.58"/>
</a>
</g>
</g>
<!-- Node3 -->
<g id="Node000003" class="node">
<title>Node3</title>
<g id="a_Node000003"><a xlink:href="distributed_8cc.html#a3c04138a5bfe5d72780bb7e82a18e627" target="_top" xlink:title=" ">
<polygon fill="white" stroke="#666666" points="58,-56 16,-56 16,-37 58,-37 58,-56"/>
<text text-anchor="middle" x="37" y="-44" font-family="Times,serif" font-size="10.00">main</text>
</a>
</g>
</g>
<!-- Node1&#45;&gt;Node3 -->
<g id="edge3_Node000001_Node000003" class="edge">
<title>Node1&#45;&gt;Node3</title>
<g id="a_edge3_Node000001_Node000003"><a xlink:title=" ">
<path fill="none" stroke="#63b8ff" d="M99.44,-46.5C85.03,-46.5 69.91,-46.5 58.27,-46.5"/>
<polygon fill="#63b8ff" stroke="#63b8ff" points="99.74,-50 109.74,-46.5 99.74,-43 99.74,-50"/>
</a>
</g>
</g>
<!-- Node4 -->
<g id="Node000004" class="node">
<title>Node4</title>
<g id="a_Node000004"><a xlink:href="fibonacci_8cc.html#a0ddf1224851353fc92bfbff6f499fa97" target="_top" xlink:title=" ">
<polygon fill="white" stroke="#666666" points="58,-19 16,-19 16,0 58,0 58,-19"/>
<text text-anchor="middle" x="37" y="-7" font-family="Times,serif" font-size="10.00">main</text>
</a>
</g>
</g>
<!-- Node1&#45;&gt;Node4 -->
<g id="edge4_Node000001_Node000004" class="edge">
<title>Node1&#45;&gt;Node4</title>
<g id="a_edge4_Node000001_Node000004"><a xlink:title=" ">
<path fill="none" stroke="#63b8ff" d="M108.57,-33.68C91.66,-27.88 72.35,-21.27 58.21,-16.43"/>
<polygon fill="#63b8ff" stroke="#63b8ff" points="107.59,-37.04 118.19,-36.97 109.86,-30.42 107.59,-37.04"/>
</a>
</g>
</g>
</g>
</svg>
