<?xml version="1.0" encoding="UTF-8" standalone="no"?>
<!DOCTYPE svg PUBLIC "-//W3C//DTD SVG 1.1//EN"
 "http://www.w3.org/Graphics/SVG/1.1/DTD/svg11.dtd">
<!-- Generated by graphviz version 2.43.0 (0)
 -->
<!-- Title: ttg::detail::op_base_lazy_pull_accessor Pages: 1 -->
<svg width="486pt" height="86pt"
 viewBox="0.00 0.00 486.00 86.00" xmlns="http://www.w3.org/2000/svg" xmlns:xlink="http://www.w3.org/1999/xlink">
<g id="graph0" class="graph" transform="scale(1 1) rotate(0) translate(4 82)">
<title>ttg::detail::op_base_lazy_pull_accessor</title>
<!-- Node1 -->
<g id="Node000001" class="node">
<title>Node1</title>
<g id="a_Node000001"><a xlink:title=" ">
<polygon fill="#999999" stroke="#666666" points="478,-42.5 362,-42.5 362,-12.5 478,-12.5 478,-42.5"/>
<text text-anchor="start" x="370" y="-30.5" font-family="Times,serif" font-size="10.00">ttg::detail::op_base</text>
<text text-anchor="middle" x="420" y="-19.5" font-family="Times,serif" font-size="10.00">_lazy_pull_accessor</text>
</a>
</g>
</g>
<!-- Node2 -->
<g id="Node000002" class="node">
<title>Node2</title>
<g id="a_Node000002"><a xlink:href="classttg_1_1_t_t_base.html#adee30b248cb0d4db4213c417451be953" target="_top" xlink:title=" ">
<polygon fill="white" stroke="#666666" points="323,-56 183,-56 183,-37 323,-37 323,-56"/>
<text text-anchor="middle" x="253" y="-44" font-family="Times,serif" font-size="10.00">ttg::TTBase::is_lazy_pull</text>
</a>
</g>
</g>
<!-- Node1&#45;&gt;Node2 -->
<g id="edge1_Node000001_Node000002" class="edge">
<title>Node1&#45;&gt;Node2</title>
<g id="a_edge1_Node000001_Node000002"><a xlink:title=" ">
<path fill="none" stroke="#63b8ff" d="M351.66,-35.25C342.23,-36.34 332.54,-37.46 323.08,-38.55"/>
<polygon fill="#63b8ff" stroke="#63b8ff" points="352.22,-38.71 361.75,-34.09 351.42,-31.76 352.22,-38.71"/>
</a>
</g>
</g>
<!-- Node5 -->
<g id="Node000005" class="node">
<title>Node5</title>
<g id="a_Node000005"><a xlink:href="classttg_1_1_t_t_base.html#a9f365364234f5aa49cec380f95f58dde" target="_top" xlink:title=" ">
<polygon fill="white" stroke="#666666" points="326,-19 180,-19 180,0 326,0 326,-19"/>
<text text-anchor="middle" x="253" y="-7" font-family="Times,serif" font-size="10.00">ttg::TTBase::set_lazy_pull</text>
</a>
</g>
</g>
<!-- Node1&#45;&gt;Node5 -->
<g id="edge4_Node000001_Node000005" class="edge">
<title>Node1&#45;&gt;Node5</title>
<g id="a_edge4_Node000001_Node000005"><a xlink:title=" ">
<path fill="none" stroke="#63b8ff" d="M351.67,-20.15C343.3,-19.24 334.71,-18.3 326.26,-17.38"/>
<polygon fill="#63b8ff" stroke="#63b8ff" points="351.43,-23.65 361.75,-21.25 352.19,-16.69 351.43,-23.65"/>
</a>
</g>
</g>
<!-- Node3 -->
<g id="Node000003" class="node">
<title>Node3</title>
<g id="a_Node000003"><a xlink:href="classttg__madness_1_1_t_t.html#a2810f6594315e404871457fd05f06099" target="_top" xlink:title=" ">
<polygon fill="white" stroke="#666666" points="144,-78 0,-78 0,-59 144,-59 144,-78"/>
<text text-anchor="middle" x="72" y="-66" font-family="Times,serif" font-size="10.00">ttg_madness::TT::set_arg</text>
</a>
</g>
</g>
<!-- Node2&#45;&gt;Node3 -->
<g id="edge2_Node000002_Node000003" class="edge">
<title>Node2&#45;&gt;Node3</title>
<g id="a_edge2_Node000002_Node000003"><a xlink:title=" ">
<path fill="none" stroke="#63b8ff" d="M172.58,-56.26C163.09,-57.43 153.45,-58.61 144.09,-59.76"/>
<polygon fill="#63b8ff" stroke="#63b8ff" points="173.3,-59.7 182.79,-55.01 172.44,-52.75 173.3,-59.7"/>
</a>
</g>
</g>
<!-- Node4 -->
<g id="Node000004" class="node">
<title>Node4</title>
<g id="a_Node000004"><a xlink:href="classttg__parsec_1_1_t_t.html#adc3a5e538d9a4c192168317cb0db9814" target="_top" xlink:title=" ">
<polygon fill="white" stroke="#666666" points="127,-40.5 17,-40.5 17,-10.5 127,-10.5 127,-40.5"/>
<text text-anchor="start" x="25" y="-28.5" font-family="Times,serif" font-size="10.00">ttg_parsec::TT::set</text>
<text text-anchor="middle" x="72" y="-17.5" font-family="Times,serif" font-size="10.00">_arg_local_impl</text>
</a>
</g>
</g>
<!-- Node2&#45;&gt;Node4 -->
<g id="edge3_Node000002_Node000004" class="edge">
<title>Node2&#45;&gt;Node4</title>
<g id="a_edge3_Node000002_Node000004"><a xlink:title=" ">
<path fill="none" stroke="#63b8ff" d="M172.73,-37.2C157.28,-35.39 141.43,-33.53 127.04,-31.84"/>
<polygon fill="#63b8ff" stroke="#63b8ff" points="172.45,-40.69 182.79,-38.38 173.27,-33.74 172.45,-40.69"/>
</a>
</g>
</g>
</g>
</svg>
