<?xml version="1.0" encoding="UTF-8" standalone="no"?>
<!DOCTYPE svg PUBLIC "-//W3C//DTD SVG 1.1//EN"
 "http://www.w3.org/Graphics/SVG/1.1/DTD/svg11.dtd">
<!-- Generated by graphviz version 2.43.0 (0)
 -->
<!-- Title: ttg::tracing Pages: 1 -->
<svg width="589pt" height="113pt"
 viewBox="0.00 0.00 589.00 112.50" xmlns="http://www.w3.org/2000/svg" xmlns:xlink="http://www.w3.org/1999/xlink">
<g id="graph0" class="graph" transform="scale(1 1) rotate(0) translate(4 108.5)">
<title>ttg::tracing</title>
<!-- Node1 -->
<g id="Node000001" class="node">
<title>Node1</title>
<g id="a_Node000001"><a xlink:title="returns whether tracing is enabled">
<polygon fill="#999999" stroke="#666666" points="73,-56 0,-56 0,-37 73,-37 73,-56"/>
<text text-anchor="middle" x="36.5" y="-44" font-family="Times,serif" font-size="10.00">ttg::tracing</text>
</a>
</g>
</g>
<!-- Node2 -->
<g id="Node000002" class="node">
<title>Node2</title>
<g id="a_Node000002"><a xlink:href="namespacettg_1_1detail.html#a95356c3874e7ec9268a40feb4fc1519f" target="_top" xlink:title=" ">
<polygon fill="white" stroke="#666666" points="206,-104.5 109,-104.5 109,-74.5 206,-74.5 206,-104.5"/>
<text text-anchor="start" x="117" y="-92.5" font-family="Times,serif" font-size="10.00">ttg::detail::trace</text>
<text text-anchor="middle" x="157.5" y="-81.5" font-family="Times,serif" font-size="10.00">_accessor</text>
</a>
</g>
</g>
<!-- Node1&#45;&gt;Node2 -->
<g id="edge1_Node000001_Node000002" class="edge">
<title>Node1&#45;&gt;Node2</title>
<g id="a_edge1_Node000001_Node000002"><a xlink:title=" ">
<path fill="none" stroke="#63b8ff" d="M63.91,-56.04C76.04,-60.43 90.86,-65.78 105.05,-70.91"/>
<polygon fill="#63b8ff" stroke="#63b8ff" points="104.14,-74.3 114.74,-74.41 106.52,-67.72 104.14,-74.3"/>
</a>
</g>
</g>
<!-- Node6 -->
<g id="Node000006" class="node">
<title>Node6</title>
<g id="a_Node000006"><a xlink:href="namespacettg.html#afbdd9c742be395e0746fdbc26c7d55cc" target="_top" xlink:title="returns whether tracing was enabled at configure time">
<polygon fill="white" stroke="#666666" points="449,-19 340,-19 340,0 449,0 449,-19"/>
<text text-anchor="middle" x="394.5" y="-7" font-family="Times,serif" font-size="10.00">ttg::trace_enabled</text>
</a>
</g>
</g>
<!-- Node1&#45;&gt;Node6 -->
<g id="edge7_Node000001_Node000006" class="edge">
<title>Node1&#45;&gt;Node6</title>
<g id="a_edge7_Node000001_Node000006"><a xlink:title=" ">
<path fill="none" stroke="#63b8ff" d="M73.26,-42.78C133.22,-36.55 254.77,-23.92 329.66,-16.13"/>
<polygon fill="#63b8ff" stroke="#63b8ff" points="330.33,-19.58 339.91,-15.07 329.6,-12.62 330.33,-19.58"/>
</a>
</g>
</g>
<!-- Node3 -->
<g id="Node000003" class="node">
<title>Node3</title>
<g id="a_Node000003"><a xlink:href="namespacettg.html#af5e470229c1ddef41b83b6398a5dc583" target="_top" xlink:title=" ">
<polygon fill="white" stroke="#666666" points="304,-56 242,-56 242,-37 304,-37 304,-56"/>
<text text-anchor="middle" x="273" y="-44" font-family="Times,serif" font-size="10.00">ttg::trace</text>
</a>
</g>
</g>
<!-- Node2&#45;&gt;Node3 -->
<g id="edge2_Node000002_Node000003" class="edge">
<title>Node2&#45;&gt;Node3</title>
<g id="a_edge2_Node000002_Node000003"><a xlink:title=" ">
<path fill="none" stroke="#63b8ff" d="M198.2,-74.46C210.91,-69.64 224.88,-64.35 237.21,-59.68"/>
<polygon fill="#63b8ff" stroke="#63b8ff" points="238.58,-62.9 246.7,-56.09 236.1,-56.36 238.58,-62.9"/>
</a>
</g>
</g>
<!-- Node3&#45;&gt;Node1 -->
<g id="edge6_Node000003_Node000001" class="edge">
<title>Node3&#45;&gt;Node1</title>
<g id="a_edge6_Node000003_Node000001"><a xlink:title=" ">
<path fill="none" stroke="#63b8ff" d="M241.66,-46.5C201.43,-46.5 130.08,-46.5 83.29,-46.5"/>
<polygon fill="#63b8ff" stroke="#63b8ff" points="83.12,-43 73.12,-46.5 83.12,-50 83.12,-43"/>
</a>
</g>
</g>
<!-- Node4 -->
<g id="Node000004" class="node">
<title>Node4</title>
<g id="a_Node000004"><a xlink:href="namespacettg.html#aacacfe8bc9582308a405c4370650a9d4" target="_top" xlink:title="atomically prints to std::clog a sequence of items (separated by ttg::print_separator) followed by st...">
<polygon fill="white" stroke="#666666" points="421,-56 368,-56 368,-37 421,-37 421,-56"/>
<text text-anchor="middle" x="394.5" y="-44" font-family="Times,serif" font-size="10.00">ttg::log</text>
</a>
</g>
</g>
<!-- Node3&#45;&gt;Node4 -->
<g id="edge3_Node000003_Node000004" class="edge">
<title>Node3&#45;&gt;Node4</title>
<g id="a_edge3_Node000003_Node000004"><a xlink:title=" ">
<path fill="none" stroke="#63b8ff" d="M304.15,-46.5C320.42,-46.5 340.59,-46.5 357.65,-46.5"/>
<polygon fill="#63b8ff" stroke="#63b8ff" points="357.81,-50 367.81,-46.5 357.81,-43 357.81,-50"/>
</a>
</g>
</g>
<!-- Node3&#45;&gt;Node6 -->
<g id="edge5_Node000003_Node000006" class="edge">
<title>Node3&#45;&gt;Node6</title>
<g id="a_edge5_Node000003_Node000006"><a xlink:title=" ">
<path fill="none" stroke="#63b8ff" d="M304.15,-37.16C318.93,-32.59 336.93,-27.02 352.89,-22.07"/>
<polygon fill="#63b8ff" stroke="#63b8ff" points="354,-25.39 362.52,-19.09 351.93,-18.71 354,-25.39"/>
</a>
</g>
</g>
<!-- Node5 -->
<g id="Node000005" class="node">
<title>Node5</title>
<g id="a_Node000005"><a xlink:href="namespacettg_1_1detail.html#a26e07486d5ef8eb5735a8975991a7693" target="_top" xlink:title=" ">
<polygon fill="white" stroke="#666666" points="581,-61.5 485,-61.5 485,-31.5 581,-31.5 581,-61.5"/>
<text text-anchor="start" x="493" y="-49.5" font-family="Times,serif" font-size="10.00">ttg::detail::print</text>
<text text-anchor="middle" x="533" y="-38.5" font-family="Times,serif" font-size="10.00">_helper</text>
</a>
</g>
</g>
<!-- Node4&#45;&gt;Node5 -->
<g id="edge4_Node000004_Node000005" class="edge">
<title>Node4&#45;&gt;Node5</title>
<g id="a_edge4_Node000004_Node000005"><a xlink:title=" ">
<path fill="none" stroke="#63b8ff" d="M421.17,-46.5C436.29,-46.5 456.05,-46.5 474.69,-46.5"/>
<polygon fill="#63b8ff" stroke="#63b8ff" points="474.89,-50 484.89,-46.5 474.89,-43 474.89,-50"/>
</a>
</g>
</g>
</g>
</svg>
