<?xml version="1.0" encoding="UTF-8" standalone="no"?>
<!DOCTYPE svg PUBLIC "-//W3C//DTD SVG 1.1//EN"
 "http://www.w3.org/Graphics/SVG/1.1/DTD/svg11.dtd">
<!-- Generated by graphviz version 2.43.0 (0)
 -->
<!-- Title: ttg::sendv Pages: 1 -->
<svg width="514pt" height="172pt"
 viewBox="0.00 0.00 514.00 171.50" xmlns="http://www.w3.org/2000/svg" xmlns:xlink="http://www.w3.org/1999/xlink">
<g id="graph0" class="graph" transform="scale(1 1) rotate(0) translate(4 167.5)">
<title>ttg::sendv</title>
<!-- Node1 -->
<g id="Node000001" class="node">
<title>Node1</title>
<g id="a_Node000001"><a xlink:title="Sends a value (without an accompanying task id) to the given output terminal.">
<polygon fill="#999999" stroke="#666666" points="68,-86 0,-86 0,-67 68,-67 68,-86"/>
<text text-anchor="middle" x="34" y="-74" font-family="Times,serif" font-size="10.00">ttg::sendv</text>
</a>
</g>
</g>
<!-- Node2 -->
<g id="Node000002" class="node">
<title>Node2</title>
<g id="a_Node000002"><a xlink:href="classttg_1_1_out.html#a19596b1bdc19006bfe9771b3ece65223" target="_top" xlink:title=" ">
<polygon fill="white" stroke="#666666" points="196,-86 104,-86 104,-67 196,-67 196,-86"/>
<text text-anchor="middle" x="150" y="-74" font-family="Times,serif" font-size="10.00">ttg::Out::sendv</text>
</a>
</g>
</g>
<!-- Node1&#45;&gt;Node2 -->
<g id="edge1_Node000001_Node000002" class="edge">
<title>Node1&#45;&gt;Node2</title>
<g id="a_edge1_Node000001_Node000002"><a xlink:title=" ">
<path fill="none" stroke="#63b8ff" d="M68.28,-76.5C76.22,-76.5 84.9,-76.5 93.53,-76.5"/>
<polygon fill="#63b8ff" stroke="#63b8ff" points="93.6,-80 103.6,-76.5 93.6,-73 93.6,-80"/>
</a>
</g>
</g>
<!-- Node2&#45;&gt;Node2 -->
<g id="edge8_Node000002_Node000002" class="edge">
<title>Node2&#45;&gt;Node2</title>
<g id="a_edge8_Node000002_Node000002"><a xlink:title=" ">
<path fill="none" stroke="#63b8ff" d="M132.12,-86.08C123.42,-94.73 129.38,-104 150,-104 162.89,-104 170.05,-100.38 171.48,-95.55"/>
<polygon fill="#63b8ff" stroke="#63b8ff" points="174.7,-94.19 167.88,-86.08 168.16,-96.67 174.7,-94.19"/>
</a>
</g>
</g>
<!-- Node3 -->
<g id="Node000003" class="node">
<title>Node3</title>
<g id="a_Node000003"><a xlink:href="classttg_1_1_terminal_base.html#a57202041203e7ed427c3f2fe28d39e7b" target="_top" xlink:title="Returns the terminal type.">
<polygon fill="white" stroke="#666666" points="351,-163.5 238,-163.5 238,-133.5 351,-133.5 351,-163.5"/>
<text text-anchor="start" x="246" y="-151.5" font-family="Times,serif" font-size="10.00">ttg::TerminalBase::</text>
<text text-anchor="middle" x="294.5" y="-140.5" font-family="Times,serif" font-size="10.00">get_type</text>
</a>
</g>
</g>
<!-- Node2&#45;&gt;Node3 -->
<g id="edge2_Node000002_Node000003" class="edge">
<title>Node2&#45;&gt;Node3</title>
<g id="a_edge2_Node000002_Node000003"><a xlink:title=" ">
<path fill="none" stroke="#63b8ff" d="M165.53,-86.09C181.44,-96.36 207.9,-112.75 232,-124.5 235.49,-126.2 239.14,-127.88 242.84,-129.5"/>
<polygon fill="#63b8ff" stroke="#63b8ff" points="241.51,-132.73 252.08,-133.41 244.23,-126.29 241.51,-132.73"/>
</a>
</g>
</g>
<!-- Node4 -->
<g id="Node000004" class="node">
<title>Node4</title>
<g id="a_Node000004"><a xlink:href="classttg_1_1_out_terminal_base.html#a19283a6990d4c46f7c74fbaab4fddce5" target="_top" xlink:title=" ">
<polygon fill="white" stroke="#666666" points="357,-115.5 232,-115.5 232,-85.5 357,-85.5 357,-115.5"/>
<text text-anchor="start" x="240" y="-103.5" font-family="Times,serif" font-size="10.00">ttg::OutTerminalBase</text>
<text text-anchor="middle" x="294.5" y="-92.5" font-family="Times,serif" font-size="10.00">::nsuccessors</text>
</a>
</g>
</g>
<!-- Node2&#45;&gt;Node4 -->
<g id="edge3_Node000002_Node000004" class="edge">
<title>Node2&#45;&gt;Node4</title>
<g id="a_edge3_Node000002_Node000004"><a xlink:title=" ">
<path fill="none" stroke="#63b8ff" d="M196.09,-84.09C204.32,-85.48 213.1,-86.96 221.88,-88.44"/>
<polygon fill="#63b8ff" stroke="#63b8ff" points="221.33,-91.89 231.77,-90.1 222.49,-84.99 221.33,-91.89"/>
</a>
</g>
</g>
<!-- Node6 -->
<g id="Node000006" class="node">
<title>Node6</title>
<g id="a_Node000006"><a xlink:href="classttg_1_1_in.html#a7c9662d2c659f82f611354178d3776af" target="_top" xlink:title=" ">
<polygon fill="white" stroke="#666666" points="336.5,-19 252.5,-19 252.5,0 336.5,0 336.5,-19"/>
<text text-anchor="middle" x="294.5" y="-7" font-family="Times,serif" font-size="10.00">ttg::In::sendv</text>
</a>
</g>
</g>
<!-- Node2&#45;&gt;Node6 -->
<g id="edge5_Node000002_Node000006" class="edge">
<title>Node2&#45;&gt;Node6</title>
<g id="a_edge5_Node000002_Node000006"><a xlink:title=" ">
<path fill="none" stroke="#63b8ff" d="M164.8,-66.95C180.5,-56.42 207.19,-39.5 232,-28.5 237.04,-26.26 242.43,-24.18 247.84,-22.28"/>
<polygon fill="#63b8ff" stroke="#63b8ff" points="249.15,-25.54 257.53,-19.06 246.94,-18.89 249.15,-25.54"/>
</a>
</g>
</g>
<!-- Node8 -->
<g id="Node000008" class="node">
<title>Node8</title>
<g id="a_Node000008"><a xlink:href="classttg_1_1_out_terminal_base.html#aa0341fd67b25363d5c45d77646294cf9" target="_top" xlink:title=" ">
<polygon fill="white" stroke="#666666" points="357,-67.5 232,-67.5 232,-37.5 357,-37.5 357,-67.5"/>
<text text-anchor="start" x="240" y="-55.5" font-family="Times,serif" font-size="10.00">ttg::OutTerminalBase</text>
<text text-anchor="middle" x="294.5" y="-44.5" font-family="Times,serif" font-size="10.00">::successors</text>
</a>
</g>
</g>
<!-- Node2&#45;&gt;Node8 -->
<g id="edge9_Node000002_Node000008" class="edge">
<title>Node2&#45;&gt;Node8</title>
<g id="a_edge9_Node000002_Node000008"><a xlink:title=" ">
<path fill="none" stroke="#63b8ff" d="M196.09,-68.91C204.32,-67.52 213.1,-66.04 221.88,-64.56"/>
<polygon fill="#63b8ff" stroke="#63b8ff" points="222.49,-68.01 231.77,-62.9 221.33,-61.11 222.49,-68.01"/>
</a>
</g>
</g>
<!-- Node5 -->
<g id="Node000005" class="node">
<title>Node5</title>
<g id="a_Node000005"><a xlink:href="classttg_1_1_terminal_base.html#ab21d3f0050249488606592cfe99c3409" target="_top" xlink:title="Get connections to successors.">
<polygon fill="white" stroke="#666666" points="506,-100.5 393,-100.5 393,-70.5 506,-70.5 506,-100.5"/>
<text text-anchor="start" x="401" y="-88.5" font-family="Times,serif" font-size="10.00">ttg::TerminalBase::</text>
<text text-anchor="middle" x="449.5" y="-77.5" font-family="Times,serif" font-size="10.00">get_connections</text>
</a>
</g>
</g>
<!-- Node4&#45;&gt;Node5 -->
<g id="edge4_Node000004_Node000005" class="edge">
<title>Node4&#45;&gt;Node5</title>
<g id="a_edge4_Node000004_Node000005"><a xlink:title=" ">
<path fill="none" stroke="#63b8ff" d="M357.29,-94.44C365.66,-93.62 374.28,-92.78 382.72,-91.95"/>
<polygon fill="#63b8ff" stroke="#63b8ff" points="383.29,-95.41 392.9,-90.95 382.6,-88.44 383.29,-95.41"/>
</a>
</g>
</g>
<!-- Node7 -->
<g id="Node000007" class="node">
<title>Node7</title>
<g id="a_Node000007"><a xlink:href="namespacettg_1_1meta.html#affd90f350d054c6a5b4859644d834172" target="_top" xlink:title=" ">
<polygon fill="white" stroke="#666666" points="492,-19 407,-19 407,0 492,0 492,-19"/>
<text text-anchor="middle" x="449.5" y="-7" font-family="Times,serif" font-size="10.00">ttg::meta::get</text>
</a>
</g>
</g>
<!-- Node6&#45;&gt;Node7 -->
<g id="edge6_Node000006_Node000007" class="edge">
<title>Node6&#45;&gt;Node7</title>
<g id="a_edge6_Node000006_Node000007"><a xlink:title=" ">
<path fill="none" stroke="#63b8ff" d="M336.5,-9.5C355.04,-9.5 377.16,-9.5 396.83,-9.5"/>
<polygon fill="#63b8ff" stroke="#63b8ff" points="396.85,-13 406.85,-9.5 396.85,-6 396.85,-13"/>
</a>
</g>
</g>
<!-- Node7&#45;&gt;Node7 -->
<g id="edge7_Node000007_Node000007" class="edge">
<title>Node7&#45;&gt;Node7</title>
<g id="a_edge7_Node000007_Node000007"><a xlink:title=" ">
<path fill="none" stroke="#63b8ff" d="M425.76,-19.08C414.22,-27.73 422.13,-37 449.5,-37 467.46,-37 477.04,-33.01 478.25,-27.82"/>
<polygon fill="#63b8ff" stroke="#63b8ff" points="481.25,-26.02 473.24,-19.08 475.17,-29.5 481.25,-26.02"/>
</a>
</g>
</g>
<!-- Node8&#45;&gt;Node5 -->
<g id="edge10_Node000008_Node000005" class="edge">
<title>Node8&#45;&gt;Node5</title>
<g id="a_edge10_Node000008_Node000005"><a xlink:title=" ">
<path fill="none" stroke="#63b8ff" d="M357.29,-65.83C365.75,-67.65 374.47,-69.53 383,-71.37"/>
<polygon fill="#63b8ff" stroke="#63b8ff" points="382.38,-74.82 392.9,-73.51 383.86,-67.98 382.38,-74.82"/>
</a>
</g>
</g>
</g>
</svg>
