<?xml version="1.0" encoding="UTF-8" standalone="no"?>
<!DOCTYPE svg PUBLIC "-//W3C//DTD SVG 1.1//EN"
 "http://www.w3.org/Graphics/SVG/1.1/DTD/svg11.dtd">
<!-- Generated by graphviz version 2.43.0 (0)
 -->
<!-- Title: ttg_parsec::ttg_finalize Pages: 1 -->
<svg width="456pt" height="172pt"
 viewBox="0.00 0.00 456.00 172.00" xmlns="http://www.w3.org/2000/svg" xmlns:xlink="http://www.w3.org/1999/xlink">
<g id="graph0" class="graph" transform="scale(1 1) rotate(0) translate(4 168)">
<title>ttg_parsec::ttg_finalize</title>
<!-- Node1 -->
<g id="Node000001" class="node">
<title>Node1</title>
<g id="a_Node000001"><a xlink:title=" ">
<polygon fill="#999999" stroke="#666666" points="132,-88.5 0,-88.5 0,-69.5 132,-69.5 132,-88.5"/>
<text text-anchor="middle" x="66" y="-76.5" font-family="Times,serif" font-size="10.00">ttg_parsec::ttg_finalize</text>
</a>
</g>
</g>
<!-- Node2 -->
<g id="Node000002" class="node">
<title>Node2</title>
<g id="a_Node000002"><a xlink:href="namespacettg.html#a78c09561304884c05c8a8f25006b0ee6" target="_top" xlink:title="Accesses the default backend&#39;s default execution context.">
<polygon fill="white" stroke="#666666" points="298.5,-164 170.5,-164 170.5,-134 298.5,-134 298.5,-164"/>
<text text-anchor="start" x="178.5" y="-152" font-family="Times,serif" font-size="10.00">ttg::default_execution</text>
<text text-anchor="middle" x="234.5" y="-141" font-family="Times,serif" font-size="10.00">_context</text>
</a>
</g>
</g>
<!-- Node1&#45;&gt;Node2 -->
<g id="edge1_Node000001_Node000002" class="edge">
<title>Node1&#45;&gt;Node2</title>
<g id="a_edge1_Node000001_Node000002"><a xlink:title=" ">
<path fill="none" stroke="#63b8ff" d="M86.92,-88.62C107.16,-98.26 139.48,-113.3 168,-125 172.39,-126.8 176.97,-128.61 181.58,-130.39"/>
<polygon fill="#63b8ff" stroke="#63b8ff" points="180.45,-133.7 191.04,-133.98 182.93,-127.16 180.45,-133.7"/>
</a>
</g>
</g>
<!-- Node3 -->
<g id="Node000003" class="node">
<title>Node3</title>
<g id="a_Node000003"><a xlink:href="structttg__parsec_1_1detail_1_1ptr__impl.html#a19c7c72b0d727e864279957d3b4dc2ad" target="_top" xlink:title=" ">
<polygon fill="white" stroke="#666666" points="301,-116 168,-116 168,-86 301,-86 301,-116"/>
<text text-anchor="start" x="176" y="-104" font-family="Times,serif" font-size="10.00">ttg_parsec::detail</text>
<text text-anchor="middle" x="234.5" y="-93" font-family="Times,serif" font-size="10.00">::ptr_impl::drop_all_ptr</text>
</a>
</g>
</g>
<!-- Node1&#45;&gt;Node3 -->
<g id="edge2_Node000001_Node000003" class="edge">
<title>Node1&#45;&gt;Node3</title>
<g id="a_edge2_Node000001_Node000003"><a xlink:title=" ">
<path fill="none" stroke="#63b8ff" d="M132.33,-87.63C140.71,-88.74 149.35,-89.88 157.87,-91.01"/>
<polygon fill="#63b8ff" stroke="#63b8ff" points="157.44,-94.48 167.81,-92.32 158.36,-87.54 157.44,-94.48"/>
</a>
</g>
</g>
<!-- Node4 -->
<g id="Node000004" class="node">
<title>Node4</title>
<g id="a_Node000004"><a xlink:href="classttg_1_1base_1_1_world.html#aabab7c9df8f16919ab41a864c8b1adc4" target="_top" xlink:title=" ">
<polygon fill="white" stroke="#666666" points="297,-67.5 172,-67.5 172,-48.5 297,-48.5 297,-67.5"/>
<text text-anchor="middle" x="234.5" y="-55.5" font-family="Times,serif" font-size="10.00">ttg::base::World::impl</text>
</a>
</g>
</g>
<!-- Node1&#45;&gt;Node4 -->
<g id="edge3_Node000001_Node000004" class="edge">
<title>Node1&#45;&gt;Node4</title>
<g id="a_edge3_Node000001_Node000004"><a xlink:title=" ">
<path fill="none" stroke="#63b8ff" d="M132.33,-70.76C142,-69.54 152,-68.28 161.8,-67.04"/>
<polygon fill="#63b8ff" stroke="#63b8ff" points="162.41,-70.49 171.9,-65.77 161.54,-63.55 162.41,-70.49"/>
</a>
</g>
</g>
<!-- Node6 -->
<g id="Node000006" class="node">
<title>Node6</title>
<g id="a_Node000006"><a xlink:href="namespacettg__parsec_1_1detail.html#a4d5f8e33feee47fa541e697b30ac4ece" target="_top" xlink:title=" ">
<polygon fill="white" stroke="#666666" points="286.5,-30 182.5,-30 182.5,0 286.5,0 286.5,-30"/>
<text text-anchor="start" x="190.5" y="-18" font-family="Times,serif" font-size="10.00">ttg_parsec::detail</text>
<text text-anchor="middle" x="234.5" y="-7" font-family="Times,serif" font-size="10.00">::initialized_mpi</text>
</a>
</g>
</g>
<!-- Node1&#45;&gt;Node6 -->
<g id="edge5_Node000001_Node000006" class="edge">
<title>Node1&#45;&gt;Node6</title>
<g id="a_edge5_Node000001_Node000006"><a xlink:title=" ">
<path fill="none" stroke="#63b8ff" d="M91.89,-69.36C112.33,-61.45 142.03,-49.97 168,-40 173.39,-37.93 179.02,-35.77 184.64,-33.63"/>
<polygon fill="#63b8ff" stroke="#63b8ff" points="185.91,-36.89 194,-30.05 183.41,-30.35 185.91,-36.89"/>
</a>
</g>
</g>
<!-- Node5 -->
<g id="Node000005" class="node">
<title>Node5</title>
<g id="a_Node000005"><a xlink:href="classttg_1_1base_1_1_world.html#af39ca1832f455a94134515f94aaa8533" target="_top" xlink:title=" ">
<polygon fill="white" stroke="#666666" points="448,-73 337,-73 337,-43 448,-43 448,-73"/>
<text text-anchor="start" x="345" y="-61" font-family="Times,serif" font-size="10.00">ttg::base::World::is</text>
<text text-anchor="middle" x="392.5" y="-50" font-family="Times,serif" font-size="10.00">_valid</text>
</a>
</g>
</g>
<!-- Node4&#45;&gt;Node5 -->
<g id="edge4_Node000004_Node000005" class="edge">
<title>Node4&#45;&gt;Node5</title>
<g id="a_edge4_Node000004_Node000005"><a xlink:title=" ">
<path fill="none" stroke="#63b8ff" d="M297.16,-58C306.89,-58 316.98,-58 326.78,-58"/>
<polygon fill="#63b8ff" stroke="#63b8ff" points="326.86,-61.5 336.86,-58 326.86,-54.5 326.86,-61.5"/>
</a>
</g>
</g>
</g>
</svg>
