<?xml version="1.0" encoding="UTF-8" standalone="no"?>
<!DOCTYPE svg PUBLIC "-//W3C//DTD SVG 1.1//EN"
 "http://www.w3.org/Graphics/SVG/1.1/DTD/svg11.dtd">
<!-- Generated by graphviz version 2.43.0 (0)
 -->
<!-- Title: ttg::finalize Pages: 1 -->
<svg width="714pt" height="78pt"
 viewBox="0.00 0.00 714.00 78.00" xmlns="http://www.w3.org/2000/svg" xmlns:xlink="http://www.w3.org/1999/xlink">
<g id="graph0" class="graph" transform="scale(1 1) rotate(0) translate(4 74)">
<title>ttg::finalize</title>
<!-- Node1 -->
<g id="Node000001" class="node">
<title>Node1</title>
<g id="a_Node000001"><a xlink:title="Finalize streaming input terminals connected to the given output terminal; use this to finalize termi...">
<polygon fill="#999999" stroke="#666666" points="74,-24.5 0,-24.5 0,-5.5 74,-5.5 74,-24.5"/>
<text text-anchor="middle" x="37" y="-12.5" font-family="Times,serif" font-size="10.00">ttg::finalize</text>
</a>
</g>
</g>
<!-- Node2 -->
<g id="Node000002" class="node">
<title>Node2</title>
<g id="a_Node000002"><a xlink:href="classttg_1_1_out_terminal_base.html#af7831a958cf8a5774153bf0c3c0cfaa6" target="_top" xlink:title=" ">
<polygon fill="white" stroke="#666666" points="235,-30 110,-30 110,0 235,0 235,-30"/>
<text text-anchor="start" x="118" y="-18" font-family="Times,serif" font-size="10.00">ttg::OutTerminalBase</text>
<text text-anchor="middle" x="172.5" y="-7" font-family="Times,serif" font-size="10.00">::finalize</text>
</a>
</g>
</g>
<!-- Node1&#45;&gt;Node2 -->
<g id="edge1_Node000001_Node000002" class="edge">
<title>Node1&#45;&gt;Node2</title>
<g id="a_edge1_Node000001_Node000002"><a xlink:title=" ">
<path fill="none" stroke="#63b8ff" d="M74.13,-15C82.15,-15 90.93,-15 99.82,-15"/>
<polygon fill="#63b8ff" stroke="#63b8ff" points="99.88,-18.5 109.88,-15 99.88,-11.5 99.88,-18.5"/>
</a>
</g>
</g>
<!-- Node3 -->
<g id="Node000003" class="node">
<title>Node3</title>
<g id="a_Node000003"><a xlink:href="classttg_1_1_out_terminal_base.html#a17d34c774c64c9aed0cd9424cafba0e2" target="_top" xlink:title=" ">
<polygon fill="white" stroke="#666666" points="396,-52 271,-52 271,-22 396,-22 396,-52"/>
<text text-anchor="start" x="279" y="-40" font-family="Times,serif" font-size="10.00">ttg::OutTerminalBase</text>
<text text-anchor="middle" x="333.5" y="-29" font-family="Times,serif" font-size="10.00">::finalize</text>
</a>
</g>
</g>
<!-- Node2&#45;&gt;Node3 -->
<g id="edge2_Node000002_Node000003" class="edge">
<title>Node2&#45;&gt;Node3</title>
<g id="a_edge2_Node000002_Node000003"><a xlink:title=" ">
<path fill="none" stroke="#63b8ff" d="M235.43,-23.57C243.67,-24.71 252.18,-25.89 260.58,-27.05"/>
<polygon fill="#63b8ff" stroke="#63b8ff" points="260.35,-30.55 270.74,-28.45 261.31,-23.62 260.35,-30.55"/>
</a>
</g>
</g>
<!-- Node4 -->
<g id="Node000004" class="node">
<title>Node4</title>
<g id="a_Node000004"><a xlink:href="classttg_1_1_out_terminal_base.html#aa0341fd67b25363d5c45d77646294cf9" target="_top" xlink:title=" ">
<polygon fill="white" stroke="#666666" points="557,-30 432,-30 432,0 557,0 557,-30"/>
<text text-anchor="start" x="440" y="-18" font-family="Times,serif" font-size="10.00">ttg::OutTerminalBase</text>
<text text-anchor="middle" x="494.5" y="-7" font-family="Times,serif" font-size="10.00">::successors</text>
</a>
</g>
</g>
<!-- Node2&#45;&gt;Node4 -->
<g id="edge6_Node000002_Node000004" class="edge">
<title>Node2&#45;&gt;Node4</title>
<g id="a_edge6_Node000002_Node000004"><a xlink:title=" ">
<path fill="none" stroke="#63b8ff" d="M235.13,-13.54C247.03,-13.32 259.4,-13.12 271,-13 326.55,-12.43 340.45,-12.43 396,-13 404.34,-13.09 413.07,-13.21 421.74,-13.36"/>
<polygon fill="#63b8ff" stroke="#63b8ff" points="421.81,-16.86 431.87,-13.54 421.93,-9.86 421.81,-16.86"/>
</a>
</g>
</g>
<!-- Node3&#45;&gt;Node3 -->
<g id="edge3_Node000003_Node000003" class="edge">
<title>Node3&#45;&gt;Node3</title>
<g id="a_edge3_Node000003_Node000003"><a xlink:title=" ">
<path fill="none" stroke="#63b8ff" d="M305.38,-52.28C299.12,-61.41 308.5,-70 333.5,-70 348.34,-70 357.68,-66.97 361.51,-62.6"/>
<polygon fill="#63b8ff" stroke="#63b8ff" points="365.01,-62.32 361.62,-52.28 358.01,-62.23 365.01,-62.32"/>
</a>
</g>
</g>
<!-- Node3&#45;&gt;Node4 -->
<g id="edge4_Node000003_Node000004" class="edge">
<title>Node3&#45;&gt;Node4</title>
<g id="a_edge4_Node000003_Node000004"><a xlink:title=" ">
<path fill="none" stroke="#63b8ff" d="M396.43,-28.43C404.67,-27.29 413.18,-26.11 421.58,-24.95"/>
<polygon fill="#63b8ff" stroke="#63b8ff" points="422.31,-28.38 431.74,-23.55 421.35,-21.45 422.31,-28.38"/>
</a>
</g>
</g>
<!-- Node5 -->
<g id="Node000005" class="node">
<title>Node5</title>
<g id="a_Node000005"><a xlink:href="classttg_1_1_terminal_base.html#ab21d3f0050249488606592cfe99c3409" target="_top" xlink:title="Get connections to successors.">
<polygon fill="white" stroke="#666666" points="706,-30 593,-30 593,0 706,0 706,-30"/>
<text text-anchor="start" x="601" y="-18" font-family="Times,serif" font-size="10.00">ttg::TerminalBase::</text>
<text text-anchor="middle" x="649.5" y="-7" font-family="Times,serif" font-size="10.00">get_connections</text>
</a>
</g>
</g>
<!-- Node4&#45;&gt;Node5 -->
<g id="edge5_Node000004_Node000005" class="edge">
<title>Node4&#45;&gt;Node5</title>
<g id="a_edge5_Node000004_Node000005"><a xlink:title=" ">
<path fill="none" stroke="#63b8ff" d="M557.29,-15C565.66,-15 574.28,-15 582.72,-15"/>
<polygon fill="#63b8ff" stroke="#63b8ff" points="582.9,-18.5 592.9,-15 582.9,-11.5 582.9,-18.5"/>
</a>
</g>
</g>
</g>
</svg>
