<?xml version="1.0" encoding="UTF-8" standalone="no"?>
<!DOCTYPE svg PUBLIC "-//W3C//DTD SVG 1.1//EN"
 "http://www.w3.org/Graphics/SVG/1.1/DTD/svg11.dtd">
<!-- Generated by graphviz version 2.43.0 (0)
 -->
<!-- Title: ttg::get_default_world Pages: 1 -->
<svg width="518pt" height="291pt"
 viewBox="0.00 0.00 518.00 291.00" xmlns="http://www.w3.org/2000/svg" xmlns:xlink="http://www.w3.org/1999/xlink">
<g id="graph0" class="graph" transform="scale(1 1) rotate(0) translate(4 287)">
<title>ttg::get_default_world</title>
<!-- Node1 -->
<g id="Node000001" class="node">
<title>Node1</title>
<g id="a_Node000001"><a xlink:title=" ">
<polygon fill="#999999" stroke="#666666" points="510,-197 382,-197 382,-178 510,-178 510,-197"/>
<text text-anchor="middle" x="446" y="-185" font-family="Times,serif" font-size="10.00">ttg::get_default_world</text>
</a>
</g>
</g>
<!-- Node2 -->
<g id="Node000002" class="node">
<title>Node2</title>
<g id="a_Node000002"><a xlink:href="classttg_1_1_sink_t_t.html#ac3e5c68b5dd8fe03b88db6fb60d5ccbe" target="_top" xlink:title=" ">
<polygon fill="white" stroke="#666666" points="338.5,-283 210.5,-283 210.5,-264 338.5,-264 338.5,-283"/>
<text text-anchor="middle" x="274.5" y="-271" font-family="Times,serif" font-size="10.00">ttg::SinkTT::get_world</text>
</a>
</g>
</g>
<!-- Node1&#45;&gt;Node2 -->
<g id="edge1_Node000001_Node000002" class="edge">
<title>Node1&#45;&gt;Node2</title>
<g id="a_edge1_Node000001_Node000002"><a xlink:title=" ">
<path fill="none" stroke="#63b8ff" d="M425.63,-203.49C406.47,-218.58 375.79,-240.87 346,-254.5 337.82,-258.24 328.75,-261.37 319.92,-263.94"/>
<polygon fill="#63b8ff" stroke="#63b8ff" points="427.96,-206.11 433.58,-197.12 423.58,-200.64 427.96,-206.11"/>
</a>
</g>
</g>
<!-- Node3 -->
<g id="Node000003" class="node">
<title>Node3</title>
<g id="a_Node000003"><a xlink:href="distributed_8cc.html#a3c04138a5bfe5d72780bb7e82a18e627" target="_top" xlink:title=" ">
<polygon fill="white" stroke="#666666" points="104.5,-167 62.5,-167 62.5,-148 104.5,-148 104.5,-167"/>
<text text-anchor="middle" x="83.5" y="-155" font-family="Times,serif" font-size="10.00">main</text>
</a>
</g>
</g>
<!-- Node1&#45;&gt;Node3 -->
<g id="edge2_Node000001_Node000003" class="edge">
<title>Node1&#45;&gt;Node3</title>
<g id="a_edge2_Node000001_Node000003"><a xlink:title=" ">
<path fill="none" stroke="#63b8ff" d="M389.73,-176.1C375.54,-173.54 360.25,-171.11 346,-169.5 256.36,-159.34 148.51,-157.72 104.58,-157.51"/>
<polygon fill="#63b8ff" stroke="#63b8ff" points="389.38,-179.59 399.85,-177.97 390.65,-172.71 389.38,-179.59"/>
</a>
</g>
</g>
<!-- Node4 -->
<g id="Node000004" class="node">
<title>Node4</title>
<g id="a_Node000004"><a xlink:href="helloworld_8cpp.html#a0ddf1224851353fc92bfbff6f499fa97" target="_top" xlink:title=" ">
<polygon fill="white" stroke="#666666" points="295.5,-197 253.5,-197 253.5,-178 295.5,-178 295.5,-197"/>
<text text-anchor="middle" x="274.5" y="-185" font-family="Times,serif" font-size="10.00">main</text>
</a>
</g>
</g>
<!-- Node1&#45;&gt;Node4 -->
<g id="edge3_Node000001_Node000004" class="edge">
<title>Node1&#45;&gt;Node4</title>
<g id="a_edge3_Node000001_Node000004"><a xlink:title=" ">
<path fill="none" stroke="#63b8ff" d="M371.76,-187.5C344,-187.5 314.57,-187.5 295.66,-187.5"/>
<polygon fill="#63b8ff" stroke="#63b8ff" points="371.88,-191 381.88,-187.5 371.88,-184 371.88,-191"/>
</a>
</g>
</g>
<!-- Node5 -->
<g id="Node000005" class="node">
<title>Node5</title>
<g id="a_Node000005"><a xlink:href="namespacettg__madness.html#afdf4fa1d2bd497283e589f93d13047d7" target="_top" xlink:title=" ">
<polygon fill="white" stroke="#666666" points="346,-245.5 203,-245.5 203,-215.5 346,-215.5 346,-245.5"/>
<text text-anchor="start" x="211" y="-233.5" font-family="Times,serif" font-size="10.00">ttg_madness::ttg_default</text>
<text text-anchor="middle" x="274.5" y="-222.5" font-family="Times,serif" font-size="10.00">_execution_context</text>
</a>
</g>
</g>
<!-- Node1&#45;&gt;Node5 -->
<g id="edge4_Node000001_Node000005" class="edge">
<title>Node1&#45;&gt;Node5</title>
<g id="a_edge4_Node000001_Node000005"><a xlink:title=" ">
<path fill="none" stroke="#63b8ff" d="M397.51,-199.55C378.01,-204.49 355.22,-210.28 334.65,-215.49"/>
<polygon fill="#63b8ff" stroke="#63b8ff" points="398.55,-202.89 407.38,-197.04 396.83,-196.11 398.55,-202.89"/>
</a>
</g>
</g>
<!-- Node7 -->
<g id="Node000007" class="node">
<title>Node7</title>
<g id="a_Node000007"><a xlink:href="namespacettg__parsec.html#ae1b91b1ff1edc3fbc1e7e07d6c659c17" target="_top" xlink:title=" ">
<polygon fill="white" stroke="#666666" points="340,-113.5 209,-113.5 209,-83.5 340,-83.5 340,-113.5"/>
<text text-anchor="start" x="217" y="-101.5" font-family="Times,serif" font-size="10.00">ttg_parsec::ttg_default</text>
<text text-anchor="middle" x="274.5" y="-90.5" font-family="Times,serif" font-size="10.00">_execution_context</text>
</a>
</g>
</g>
<!-- Node1&#45;&gt;Node7 -->
<g id="edge6_Node000001_Node000007" class="edge">
<title>Node1&#45;&gt;Node7</title>
<g id="a_edge6_Node000001_Node000007"><a xlink:title=" ">
<path fill="none" stroke="#63b8ff" d="M417.66,-173.14C397.78,-162.69 370.23,-148.22 346,-135.5 332.29,-128.3 317.09,-120.32 304.31,-113.62"/>
<polygon fill="#63b8ff" stroke="#63b8ff" points="416.27,-176.36 426.75,-177.91 419.53,-170.16 416.27,-176.36"/>
</a>
</g>
</g>
<!-- Node6 -->
<g id="Node000006" class="node">
<title>Node6</title>
<g id="a_Node000006"><a xlink:href="namespacettg__madness.html#ae93a49f2423fc5eef1f4a60ab351f457" target="_top" xlink:title=" ">
<polygon fill="white" stroke="#666666" points="150.5,-240 16.5,-240 16.5,-221 150.5,-221 150.5,-240"/>
<text text-anchor="middle" x="83.5" y="-228" font-family="Times,serif" font-size="10.00">ttg_madness::ttg_abort</text>
</a>
</g>
</g>
<!-- Node5&#45;&gt;Node6 -->
<g id="edge5_Node000005_Node000006" class="edge">
<title>Node5&#45;&gt;Node6</title>
<g id="a_edge5_Node000005_Node000006"><a xlink:title=" ">
<path fill="none" stroke="#63b8ff" d="M192.73,-230.5C178.7,-230.5 164.26,-230.5 150.68,-230.5"/>
<polygon fill="#63b8ff" stroke="#63b8ff" points="192.85,-234 202.85,-230.5 192.85,-227 192.85,-234"/>
</a>
</g>
</g>
<!-- Node7&#45;&gt;Node3 -->
<g id="edge8_Node000007_Node000003" class="edge">
<title>Node7&#45;&gt;Node3</title>
<g id="a_edge8_Node000007_Node000003"><a xlink:title=" ">
<path fill="none" stroke="#63b8ff" d="M228.94,-117.4C210.06,-124.95 187.69,-133.3 167,-139.5 146.08,-145.77 121.56,-150.84 104.72,-153.98"/>
<polygon fill="#63b8ff" stroke="#63b8ff" points="230.51,-120.54 238.47,-113.54 227.89,-114.05 230.51,-120.54"/>
</a>
</g>
</g>
<!-- Node8 -->
<g id="Node000008" class="node">
<title>Node8</title>
<g id="a_Node000008"><a xlink:href="classttg__parsec_1_1_t_t.html#ab267d50d29a8a845a5578f67d6c75f2a" target="_top" xlink:title=" ">
<polygon fill="white" stroke="#666666" points="167,-56 0,-56 0,-37 167,-37 167,-56"/>
<text text-anchor="middle" x="83.5" y="-44" font-family="Times,serif" font-size="10.00">ttg_parsec::TT::broadcast_arg</text>
</a>
</g>
</g>
<!-- Node7&#45;&gt;Node8 -->
<g id="edge7_Node000007_Node000008" class="edge">
<title>Node7&#45;&gt;Node8</title>
<g id="a_edge7_Node000007_Node000008"><a xlink:title=" ">
<path fill="none" stroke="#63b8ff" d="M219.82,-80.28C203,-74.86 184.32,-69.14 167,-64.5 155.67,-61.46 143.37,-58.57 131.8,-56.02"/>
<polygon fill="#63b8ff" stroke="#63b8ff" points="218.88,-83.65 229.47,-83.42 221.05,-77 218.88,-83.65"/>
</a>
</g>
</g>
<!-- Node9 -->
<g id="Node000009" class="node">
<title>Node9</title>
<g id="a_Node000009"><a xlink:href="fibonacci__device_8cc.html#a0ddf1224851353fc92bfbff6f499fa97" target="_top" xlink:title=" ">
<polygon fill="white" stroke="#666666" points="104.5,-19 62.5,-19 62.5,0 104.5,0 104.5,-19"/>
<text text-anchor="middle" x="83.5" y="-7" font-family="Times,serif" font-size="10.00">main</text>
</a>
</g>
</g>
<!-- Node7&#45;&gt;Node9 -->
<g id="edge9_Node000007_Node000009" class="edge">
<title>Node7&#45;&gt;Node9</title>
<g id="a_edge9_Node000007_Node000009"><a xlink:title=" ">
<path fill="none" stroke="#63b8ff" d="M247.53,-77.14C226.9,-61.2 196.66,-40.09 167,-27.5 146.76,-18.91 121.91,-14.21 104.81,-11.78"/>
<polygon fill="#63b8ff" stroke="#63b8ff" points="245.47,-79.96 255.49,-83.39 249.79,-74.46 245.47,-79.96"/>
</a>
</g>
</g>
<!-- Node10 -->
<g id="Node000010" class="node">
<title>Node10</title>
<g id="a_Node000010"><a xlink:href="classttg__parsec_1_1_t_t.html#a08dc06e5603cc2a7af4e020dedb095d6" target="_top" xlink:title=" ">
<polygon fill="white" stroke="#666666" points="166,-130 1,-130 1,-111 166,-111 166,-130"/>
<text text-anchor="middle" x="83.5" y="-118" font-family="Times,serif" font-size="10.00">ttg_parsec::TT::prepare_send</text>
</a>
</g>
</g>
<!-- Node7&#45;&gt;Node10 -->
<g id="edge10_Node000007_Node000010" class="edge">
<title>Node7&#45;&gt;Node10</title>
<g id="a_edge10_Node000007_Node000010"><a xlink:title=" ">
<path fill="none" stroke="#63b8ff" d="M198.81,-107.19C188.07,-108.44 176.97,-109.74 166.1,-111"/>
<polygon fill="#63b8ff" stroke="#63b8ff" points="199.46,-110.64 208.99,-106.01 198.65,-103.69 199.46,-110.64"/>
</a>
</g>
</g>
<!-- Node11 -->
<g id="Node000011" class="node">
<title>Node11</title>
<g id="a_Node000011"><a xlink:href="classttg__parsec_1_1_t_t.html#a3990fd1f9235344cba60f4a42702e767" target="_top" xlink:title=" ">
<polygon fill="white" stroke="#666666" points="166,-93 1,-93 1,-74 166,-74 166,-93"/>
<text text-anchor="middle" x="83.5" y="-81" font-family="Times,serif" font-size="10.00">ttg_parsec::TT::prepare_send</text>
</a>
</g>
</g>
<!-- Node7&#45;&gt;Node11 -->
<g id="edge11_Node000007_Node000011" class="edge">
<title>Node7&#45;&gt;Node11</title>
<g id="a_edge11_Node000007_Node000011"><a xlink:title=" ">
<path fill="none" stroke="#63b8ff" d="M198.81,-92.57C188.07,-91.72 176.97,-90.84 166.1,-89.98"/>
<polygon fill="#63b8ff" stroke="#63b8ff" points="198.74,-96.08 208.99,-93.38 199.29,-89.1 198.74,-96.08"/>
</a>
</g>
</g>
</g>
</svg>
