<?xml version="1.0" encoding="UTF-8" standalone="no"?>
<!DOCTYPE svg PUBLIC "-//W3C//DTD SVG 1.1//EN"
 "http://www.w3.org/Graphics/SVG/1.1/DTD/svg11.dtd">
<!-- Generated by graphviz version 2.43.0 (0)
 -->
<!-- Title: ttg_madness::detail::watchpoints_threads Pages: 1 -->
<svg width="336pt" height="124pt"
 viewBox="0.00 0.00 336.00 123.50" xmlns="http://www.w3.org/2000/svg" xmlns:xlink="http://www.w3.org/1999/xlink">
<g id="graph0" class="graph" transform="scale(1 1) rotate(0) translate(4 119.5)">
<title>ttg_madness::detail::watchpoints_threads</title>
<!-- Node1 -->
<g id="Node000001" class="node">
<title>Node1</title>
<g id="a_Node000001"><a xlink:title=" ">
<polygon fill="#999999" stroke="#666666" points="328,-67.5 200,-67.5 200,-37.5 328,-37.5 328,-67.5"/>
<text text-anchor="start" x="208" y="-55.5" font-family="Times,serif" font-size="10.00">ttg_madness::detail</text>
<text text-anchor="middle" x="264" y="-44.5" font-family="Times,serif" font-size="10.00">::watchpoints_threads</text>
</a>
</g>
</g>
<!-- Node2 -->
<g id="Node000002" class="node">
<title>Node2</title>
<g id="a_Node000002"><a xlink:href="namespacettg__madness.html#a1d0750abcb4d3cb112ff1755f38798f1" target="_top" xlink:title="must be called from main thread before setting watchpoints">
<polygon fill="white" stroke="#666666" points="147.5,-115.5 16.5,-115.5 16.5,-85.5 147.5,-85.5 147.5,-115.5"/>
<text text-anchor="start" x="24.5" y="-103.5" font-family="Times,serif" font-size="10.00">ttg_madness::initialize</text>
<text text-anchor="middle" x="82" y="-92.5" font-family="Times,serif" font-size="10.00">_watchpoints</text>
</a>
</g>
</g>
<!-- Node1&#45;&gt;Node2 -->
<g id="edge1_Node000001_Node000002" class="edge">
<title>Node1&#45;&gt;Node2</title>
<g id="a_edge1_Node000001_Node000002"><a xlink:title=" ">
<path fill="none" stroke="#63b8ff" d="M196.81,-70.15C177.91,-75.19 157.51,-80.63 139.26,-85.5"/>
<polygon fill="#63b8ff" stroke="#63b8ff" points="197.78,-73.51 206.54,-67.56 195.98,-66.75 197.78,-73.51"/>
</a>
</g>
</g>
<!-- Node3 -->
<g id="Node000003" class="node">
<title>Node3</title>
<g id="a_Node000003"><a xlink:href="namespacettg__madness.html#a410adda62f54efc8623cf0d50afdd53e" target="_top" xlink:title="clears the hardware watchpoint for window [addr,addr+size) previously created with watchpoint_set&lt;T&gt;">
<polygon fill="white" stroke="#666666" points="154,-67.5 10,-67.5 10,-37.5 154,-37.5 154,-67.5"/>
<text text-anchor="start" x="18" y="-55.5" font-family="Times,serif" font-size="10.00">ttg_madness::watchpoint</text>
<text text-anchor="middle" x="82" y="-44.5" font-family="Times,serif" font-size="10.00">_clear</text>
</a>
</g>
</g>
<!-- Node1&#45;&gt;Node3 -->
<g id="edge2_Node000001_Node000003" class="edge">
<title>Node1&#45;&gt;Node3</title>
<g id="a_edge2_Node000001_Node000003"><a xlink:title=" ">
<path fill="none" stroke="#63b8ff" d="M189.6,-52.5C177.86,-52.5 165.73,-52.5 154.04,-52.5"/>
<polygon fill="#63b8ff" stroke="#63b8ff" points="189.79,-56 199.79,-52.5 189.79,-49 189.79,-56"/>
</a>
</g>
</g>
<!-- Node4 -->
<g id="Node000004" class="node">
<title>Node4</title>
<g id="a_Node000004"><a xlink:href="namespacettg__madness.html#a8cabd7cfbc5aaead3712f4a8e505e94f" target="_top" xlink:title="sets a hardware watchpoint for window [addr,addr+size) and condition cond">
<polygon fill="white" stroke="#666666" points="164,-19 0,-19 0,0 164,0 164,-19"/>
<text text-anchor="middle" x="82" y="-7" font-family="Times,serif" font-size="10.00">ttg_madness::watchpoint_set</text>
</a>
</g>
</g>
<!-- Node1&#45;&gt;Node4 -->
<g id="edge3_Node000001_Node000004" class="edge">
<title>Node1&#45;&gt;Node4</title>
<g id="a_edge3_Node000001_Node000004"><a xlink:title=" ">
<path fill="none" stroke="#63b8ff" d="M191.32,-35.06C182.13,-32.84 172.84,-30.61 164,-28.5 150.93,-25.38 136.67,-22.02 123.81,-19.01"/>
<polygon fill="#63b8ff" stroke="#63b8ff" points="190.69,-38.5 201.23,-37.45 192.33,-31.7 190.69,-38.5"/>
</a>
</g>
</g>
</g>
</svg>
