<?xml version="1.0" encoding="UTF-8" standalone="no"?>
<!DOCTYPE svg PUBLIC "-//W3C//DTD SVG 1.1//EN"
 "http://www.w3.org/Graphics/SVG/1.1/DTD/svg11.dtd">
<!-- Generated by graphviz version 2.43.0 (0)
 -->
<!-- Title: ttg::edges Pages: 1 -->
<svg width="287pt" height="138pt"
 viewBox="0.00 0.00 287.00 138.00" xmlns="http://www.w3.org/2000/svg" xmlns:xlink="http://www.w3.org/1999/xlink">
<g id="graph0" class="graph" transform="scale(1 1) rotate(0) translate(4 134)">
<title>ttg::edges</title>
<!-- Node1 -->
<g id="Node000001" class="node">
<title>Node1</title>
<g id="a_Node000001"><a xlink:title="Make a tuple of Edges to pass to.">
<polygon fill="#999999" stroke="#666666" points="279,-74 211,-74 211,-55 279,-55 279,-74"/>
<text text-anchor="middle" x="245" y="-62" font-family="Times,serif" font-size="10.00">ttg::edges</text>
</a>
</g>
</g>
<!-- Node2 -->
<g id="Node000002" class="node">
<title>Node2</title>
<g id="a_Node000002"><a xlink:href="classttg_1_1_edge.html#adf1150d7ec9cf09a79fb13cbb77132b8" target="_top" xlink:title="Edge carrying a tuple of values.">
<polygon fill="white" stroke="#666666" points="175,-130 78,-130 78,-111 175,-111 175,-130"/>
<text text-anchor="middle" x="126.5" y="-118" font-family="Times,serif" font-size="10.00">ttg::Edge::Edge</text>
</a>
</g>
</g>
<!-- Node1&#45;&gt;Node2 -->
<g id="edge1_Node000001_Node000002" class="edge">
<title>Node1&#45;&gt;Node2</title>
<g id="a_edge1_Node000001_Node000002"><a xlink:title=" ">
<path fill="none" stroke="#63b8ff" d="M219.37,-79.17C206.39,-86.62 190.08,-95.53 175,-102.5 168.6,-105.46 161.56,-108.33 154.9,-110.87"/>
<polygon fill="#63b8ff" stroke="#63b8ff" points="221.27,-82.11 228.16,-74.06 217.76,-76.06 221.27,-82.11"/>
</a>
</g>
</g>
<!-- Node3 -->
<g id="Node000003" class="node">
<title>Node3</title>
<g id="a_Node000003"><a xlink:href="distributed_8cc.html#a3c04138a5bfe5d72780bb7e82a18e627" target="_top" xlink:title=" ">
<polygon fill="white" stroke="#666666" points="147.5,-93 105.5,-93 105.5,-74 147.5,-74 147.5,-93"/>
<text text-anchor="middle" x="126.5" y="-81" font-family="Times,serif" font-size="10.00">main</text>
</a>
</g>
</g>
<!-- Node1&#45;&gt;Node3 -->
<g id="edge2_Node000001_Node000003" class="edge">
<title>Node1&#45;&gt;Node3</title>
<g id="a_edge2_Node000001_Node000003"><a xlink:title=" ">
<path fill="none" stroke="#63b8ff" d="M200.83,-71.54C182.69,-74.5 162.45,-77.8 147.84,-80.18"/>
<polygon fill="#63b8ff" stroke="#63b8ff" points="201.62,-74.96 210.93,-69.89 200.49,-68.05 201.62,-74.96"/>
</a>
</g>
</g>
<!-- Node4 -->
<g id="Node000004" class="node">
<title>Node4</title>
<g id="a_Node000004"><a xlink:href="fibonacci_8cc.html#a0f9e65d0b745d1d332efa6b1a89582ca" target="_top" xlink:title=" ">
<polygon fill="white" stroke="#666666" points="174,-56 79,-56 79,-37 174,-37 174,-56"/>
<text text-anchor="middle" x="126.5" y="-44" font-family="Times,serif" font-size="10.00">make_ttg_fib_lt</text>
</a>
</g>
</g>
<!-- Node1&#45;&gt;Node4 -->
<g id="edge3_Node000001_Node000004" class="edge">
<title>Node1&#45;&gt;Node4</title>
<g id="a_edge3_Node000001_Node000004"><a xlink:title=" ">
<path fill="none" stroke="#63b8ff" d="M200.95,-57.85C192.21,-56.5 182.99,-55.07 174.14,-53.71"/>
<polygon fill="#63b8ff" stroke="#63b8ff" points="200.51,-61.32 210.93,-59.39 201.58,-54.4 200.51,-61.32"/>
</a>
</g>
</g>
<!-- Node6 -->
<g id="Node000006" class="node">
<title>Node6</title>
<g id="a_Node000006"><a xlink:href="classttg_1_1_dot.html#a168203fd05265000a5fe12be79738a94" target="_top" xlink:title=" ">
<polygon fill="white" stroke="#666666" points="172,-19 81,-19 81,0 172,0 172,-19"/>
<text text-anchor="middle" x="126.5" y="-7" font-family="Times,serif" font-size="10.00">ttg::Dot::ttfunc</text>
</a>
</g>
</g>
<!-- Node1&#45;&gt;Node6 -->
<g id="edge5_Node000001_Node000006" class="edge">
<title>Node1&#45;&gt;Node6</title>
<g id="a_edge5_Node000001_Node000006"><a xlink:title=" ">
<path fill="none" stroke="#63b8ff" d="M217.81,-50.05C205.05,-43.21 189.38,-35.11 175,-28.5 167.9,-25.24 160.07,-21.97 152.84,-19.09"/>
<polygon fill="#63b8ff" stroke="#63b8ff" points="216.48,-53.31 226.94,-54.99 219.81,-47.15 216.48,-53.31"/>
</a>
</g>
</g>
<!-- Node5 -->
<g id="Node000005" class="node">
<title>Node5</title>
<g id="a_Node000005"><a xlink:href="fibonacci_8cc.html#a0ddf1224851353fc92bfbff6f499fa97" target="_top" xlink:title=" ">
<polygon fill="white" stroke="#666666" points="42,-56 0,-56 0,-37 42,-37 42,-56"/>
<text text-anchor="middle" x="21" y="-44" font-family="Times,serif" font-size="10.00">main</text>
</a>
</g>
</g>
<!-- Node4&#45;&gt;Node5 -->
<g id="edge4_Node000004_Node000005" class="edge">
<title>Node4&#45;&gt;Node5</title>
<g id="a_edge4_Node000004_Node000005"><a xlink:title=" ">
<path fill="none" stroke="#63b8ff" d="M68.61,-46.5C59.15,-46.5 49.92,-46.5 42.21,-46.5"/>
<polygon fill="#63b8ff" stroke="#63b8ff" points="68.9,-50 78.9,-46.5 68.9,-43 68.9,-50"/>
</a>
</g>
</g>
</g>
</svg>
