<?xml version="1.0" encoding="UTF-8" standalone="no"?>
<!DOCTYPE svg PUBLIC "-//W3C//DTD SVG 1.1//EN"
 "http://www.w3.org/Graphics/SVG/1.1/DTD/svg11.dtd">
<!-- Generated by graphviz version 2.43.0 (0)
 -->
<!-- Title: ttg::print Pages: 1 -->
<svg width="405pt" height="124pt"
 viewBox="0.00 0.00 405.00 124.00" xmlns="http://www.w3.org/2000/svg" xmlns:xlink="http://www.w3.org/1999/xlink">

<svg id="main" version="1.1" xmlns="http://www.w3.org/2000/svg" xmlns:xlink="http://www.w3.org/1999/xlink" xml:space="preserve" onload="init(evt)">
<style type="text/css"><![CDATA[
.node, .edge {opacity: 0.7;}
.node.selected, .edge.selected {opacity: 1;}
.edge:hover path { stroke: red; }
.edge:hover polygon { stroke: red; fill: red; }
]]></style>
<script type="application/ecmascript" xlink:href="svg.min.js"/>
<svg id="graph" class="graph">
<g id="graph0" class="graph" transform="scale(1 1) rotate(0) translate(4 120)">
<title>ttg::print</title>
<!-- Node1 -->
<g id="Node000001" class="node">
<title>Node1</title>
<g id="a_Node000001"><a xlink:title="atomically prints to std::cout a sequence of items (separated by ttg::print_separator) followed by st...">
<polygon fill="#999999" stroke="#666666" points="397,-67.5 335,-67.5 335,-48.5 397,-48.5 397,-67.5"/>
<text text-anchor="middle" x="366" y="-55.5" font-family="Times,serif" font-size="10.00">ttg::print</text>
</a>
</g>
</g>
<!-- Node2 -->
<g id="Node000002" class="node">
<title>Node2</title>
<g id="a_Node000002"><a xlink:href="classttg__parsec_1_1_world_impl.html#a8486bd3e8dc829175f7ad0538e0dce4b" target="_top" xlink:title=" ">
<polygon fill="white" stroke="#666666" points="296.5,-116 167.5,-116 167.5,-86 296.5,-86 296.5,-116"/>
<text text-anchor="start" x="175.5" y="-104" font-family="Times,serif" font-size="10.00">ttg_parsec::WorldImpl</text>
<text text-anchor="middle" x="232" y="-93" font-family="Times,serif" font-size="10.00">::dag_on</text>
</a>
</g>
</g>
<!-- Node1&#45;&gt;Node2 -->
<g id="edge1_Node000001_Node000002" class="edge">
<title>Node1&#45;&gt;Node2</title>
<g id="a_edge1_Node000001_Node000002"><a xlink:title=" ">
<path fill="none" stroke="#63b8ff" d="M325.91,-70.73C311.21,-75.52 294.35,-81.01 279.07,-85.99"/>
<polygon fill="#63b8ff" stroke="#63b8ff" points="327.28,-73.97 335.7,-67.54 325.11,-67.31 327.28,-73.97"/>
</a>
</g>
</g>
<!-- Node4 -->
<g id="Node000004" class="node">
<title>Node4</title>
<g id="a_Node000004"><a xlink:href="distributed_8cc.html#a3c04138a5bfe5d72780bb7e82a18e627" target="_top" xlink:title=" ">
<polygon fill="white" stroke="#666666" points="253,-67.5 211,-67.5 211,-48.5 253,-48.5 253,-67.5"/>
<text text-anchor="middle" x="232" y="-55.5" font-family="Times,serif" font-size="10.00">main</text>
</a>
</g>
</g>
<!-- Node1&#45;&gt;Node4 -->
<g id="edge3_Node000001_Node000004" class="edge">
<title>Node1&#45;&gt;Node4</title>
<g id="a_edge3_Node000001_Node000004"><a xlink:title=" ">
<path fill="none" stroke="#63b8ff" d="M324.62,-58C301.01,-58 272.23,-58 253.3,-58"/>
<polygon fill="#63b8ff" stroke="#63b8ff" points="324.72,-61.5 334.72,-58 324.72,-54.5 324.72,-61.5"/>
</a>
</g>
</g>
<!-- Node5 -->
<g id="Node000005" class="node">
<title>Node5</title>
<g id="a_Node000005"><a xlink:href="classttg__parsec_1_1_t_t.html#ab0bde8f642c472a5cf19274f7251268f" target="_top" xlink:title=" ">
<polygon fill="white" stroke="#666666" points="299,-30 165,-30 165,0 299,0 299,-30"/>
<text text-anchor="start" x="173" y="-18" font-family="Times,serif" font-size="10.00">ttg_parsec::TT::register</text>
<text text-anchor="middle" x="232" y="-7" font-family="Times,serif" font-size="10.00">_static_op_function</text>
</a>
</g>
</g>
<!-- Node1&#45;&gt;Node5 -->
<g id="edge4_Node000001_Node000005" class="edge">
<title>Node1&#45;&gt;Node5</title>
<g id="a_edge4_Node000001_Node000005"><a xlink:title=" ">
<path fill="none" stroke="#63b8ff" d="M325.91,-45.27C311.21,-40.48 294.35,-34.99 279.07,-30.01"/>
<polygon fill="#63b8ff" stroke="#63b8ff" points="325.11,-48.69 335.7,-48.46 327.28,-42.03 325.11,-48.69"/>
</a>
</g>
</g>
<!-- Node3 -->
<g id="Node000003" class="node">
<title>Node3</title>
<g id="a_Node000003"><a xlink:href="classttg__parsec_1_1_world_impl.html#a5dbc8b40e4d489a0d913efccfb7d0ae0" target="_top" xlink:title=" ">
<polygon fill="white" stroke="#666666" points="129,-116 0,-116 0,-86 129,-86 129,-116"/>
<text text-anchor="start" x="8" y="-104" font-family="Times,serif" font-size="10.00">ttg_parsec::WorldImpl</text>
<text text-anchor="middle" x="64.5" y="-93" font-family="Times,serif" font-size="10.00">::WorldImpl</text>
</a>
</g>
</g>
<!-- Node2&#45;&gt;Node3 -->
<g id="edge2_Node000002_Node000003" class="edge">
<title>Node2&#45;&gt;Node3</title>
<g id="a_edge2_Node000002_Node000003"><a xlink:title=" ">
<path fill="none" stroke="#63b8ff" d="M157.35,-101C147.93,-101 138.36,-101 129.12,-101"/>
<polygon fill="#63b8ff" stroke="#63b8ff" points="157.49,-104.5 167.49,-101 157.49,-97.5 157.49,-104.5"/>
</a>
</g>
</g>
<!-- Node6 -->
<g id="Node000006" class="node">
<title>Node6</title>
<g id="a_Node000006"><a xlink:href="classttg__parsec_1_1_t_t.html#ac36a15986a5a4182b0cadb188014192a" target="_top" xlink:title="Marks this executable.">
<polygon fill="white" stroke="#666666" points="125.5,-30 3.5,-30 3.5,0 125.5,0 125.5,-30"/>
<text text-anchor="start" x="11.5" y="-18" font-family="Times,serif" font-size="10.00">ttg_parsec::TT::make</text>
<text text-anchor="middle" x="64.5" y="-7" font-family="Times,serif" font-size="10.00">_executable</text>
</a>
</g>
</g>
<!-- Node5&#45;&gt;Node6 -->
<g id="edge5_Node000005_Node000006" class="edge">
<title>Node5&#45;&gt;Node6</title>
<g id="a_edge5_Node000005_Node000006"><a xlink:title=" ">
<path fill="none" stroke="#63b8ff" d="M154.6,-15C144.91,-15 135.11,-15 125.72,-15"/>
<polygon fill="#63b8ff" stroke="#63b8ff" points="154.64,-18.5 164.64,-15 154.64,-11.5 154.64,-18.5"/>
</a>
</g>
</g>
</g>
</svg>
</svg>

<style type='text/css'>
<![CDATA[
[data-mouse-over-selected='false'] { opacity: 0.7; }
[data-mouse-over-selected='true']  { opacity: 1.0; }
]]>
</style>
<script type="application/ecmascript"><![CDATA[
document.addEventListener('DOMContentLoaded', (event) => {
  highlightEdges();
  highlightAdjacentNodes();
});
]]></script>
</svg>
