<?xml version="1.0" encoding="UTF-8" standalone="no"?>
<!DOCTYPE svg PUBLIC "-//W3C//DTD SVG 1.1//EN"
 "http://www.w3.org/Graphics/SVG/1.1/DTD/svg11.dtd">
<!-- Generated by graphviz version 2.43.0 (0)
 -->
<!-- Title: ttg::sendk Pages: 1 -->
<svg width="635pt" height="88pt"
 viewBox="0.00 0.00 635.00 87.50" xmlns="http://www.w3.org/2000/svg" xmlns:xlink="http://www.w3.org/1999/xlink">
<g id="graph0" class="graph" transform="scale(1 1) rotate(0) translate(4 83.5)">
<title>ttg::sendk</title>
<!-- Node1 -->
<g id="Node000001" class="node">
<title>Node1</title>
<g id="a_Node000001"><a xlink:title="Sends a task id (without an accompanying value) to the template tasks attached to the output terminal...">
<polygon fill="#999999" stroke="#666666" points="68,-42.5 0,-42.5 0,-23.5 68,-23.5 68,-42.5"/>
<text text-anchor="middle" x="34" y="-30.5" font-family="Times,serif" font-size="10.00">ttg::sendk</text>
</a>
</g>
</g>
<!-- Node2 -->
<g id="Node000002" class="node">
<title>Node2</title>
<g id="a_Node000002"><a xlink:href="namespacettg_1_1meta.html#affd90f350d054c6a5b4859644d834172" target="_top" xlink:title=" ">
<polygon fill="white" stroke="#666666" points="189,-61.5 104,-61.5 104,-42.5 189,-42.5 189,-61.5"/>
<text text-anchor="middle" x="146.5" y="-49.5" font-family="Times,serif" font-size="10.00">ttg::meta::get</text>
</a>
</g>
</g>
<!-- Node1&#45;&gt;Node2 -->
<g id="edge1_Node000001_Node000002" class="edge">
<title>Node1&#45;&gt;Node2</title>
<g id="a_edge1_Node000001_Node000002"><a xlink:title=" ">
<path fill="none" stroke="#63b8ff" d="M68.15,-38.7C76.2,-40.08 84.98,-41.59 93.66,-43.09"/>
<polygon fill="#63b8ff" stroke="#63b8ff" points="93.3,-46.58 103.74,-44.82 94.48,-39.68 93.3,-46.58"/>
</a>
</g>
</g>
<!-- Node3 -->
<g id="Node000003" class="node">
<title>Node3</title>
<g id="a_Node000003"><a xlink:href="namespacettg.html#a83562836ce105890c0e32d75cad1e421" target="_top" xlink:title="Sends a task id (without an accompanying value) to the given output terminal.">
<polygon fill="white" stroke="#666666" points="180.5,-24.5 112.5,-24.5 112.5,-5.5 180.5,-5.5 180.5,-24.5"/>
<text text-anchor="middle" x="146.5" y="-12.5" font-family="Times,serif" font-size="10.00">ttg::sendk</text>
</a>
</g>
</g>
<!-- Node1&#45;&gt;Node3 -->
<g id="edge3_Node000001_Node000003" class="edge">
<title>Node1&#45;&gt;Node3</title>
<g id="a_edge3_Node000001_Node000003"><a xlink:title=" ">
<path fill="none" stroke="#63b8ff" d="M68.15,-27.6C78.86,-25.86 90.89,-23.89 102.22,-22.05"/>
<polygon fill="#63b8ff" stroke="#63b8ff" points="103.06,-25.46 112.37,-20.4 101.94,-18.55 103.06,-25.46"/>
</a>
</g>
</g>
<!-- Node2&#45;&gt;Node2 -->
<g id="edge2_Node000002_Node000002" class="edge">
<title>Node2&#45;&gt;Node2</title>
<g id="a_edge2_Node000002_Node000002"><a xlink:title=" ">
<path fill="none" stroke="#63b8ff" d="M129.24,-61.58C120.84,-70.23 126.59,-79.5 146.5,-79.5 158.94,-79.5 165.85,-75.88 167.24,-71.05"/>
<polygon fill="#63b8ff" stroke="#63b8ff" points="170.49,-69.76 163.76,-61.58 163.92,-72.18 170.49,-69.76"/>
</a>
</g>
</g>
<!-- Node4 -->
<g id="Node000004" class="node">
<title>Node4</title>
<g id="a_Node000004"><a xlink:href="classttg_1_1_out.html#a63a75f52fff6b34ec5287e7daefe5bfa" target="_top" xlink:title=" ">
<polygon fill="white" stroke="#666666" points="317,-24.5 225,-24.5 225,-5.5 317,-5.5 317,-24.5"/>
<text text-anchor="middle" x="271" y="-12.5" font-family="Times,serif" font-size="10.00">ttg::Out::sendk</text>
</a>
</g>
</g>
<!-- Node3&#45;&gt;Node4 -->
<g id="edge4_Node000003_Node000004" class="edge">
<title>Node3&#45;&gt;Node4</title>
<g id="a_edge4_Node000003_Node000004"><a xlink:title=" ">
<path fill="none" stroke="#63b8ff" d="M180.65,-15C191.17,-15 203.11,-15 214.75,-15"/>
<polygon fill="#63b8ff" stroke="#63b8ff" points="214.86,-18.5 224.86,-15 214.86,-11.5 214.86,-18.5"/>
</a>
</g>
</g>
<!-- Node4&#45;&gt;Node4 -->
<g id="edge5_Node000004_Node000004" class="edge">
<title>Node4&#45;&gt;Node4</title>
<g id="a_edge5_Node000004_Node000004"><a xlink:title=" ">
<path fill="none" stroke="#63b8ff" d="M251.89,-24.58C242.59,-33.23 248.96,-42.5 271,-42.5 284.77,-42.5 292.43,-38.88 293.96,-34.05"/>
<polygon fill="#63b8ff" stroke="#63b8ff" points="297.12,-32.53 290.11,-24.58 290.64,-35.16 297.12,-32.53"/>
</a>
</g>
</g>
<!-- Node5 -->
<g id="Node000005" class="node">
<title>Node5</title>
<g id="a_Node000005"><a xlink:href="classttg_1_1_out_terminal_base.html#aa0341fd67b25363d5c45d77646294cf9" target="_top" xlink:title=" ">
<polygon fill="white" stroke="#666666" points="478,-30 353,-30 353,0 478,0 478,-30"/>
<text text-anchor="start" x="361" y="-18" font-family="Times,serif" font-size="10.00">ttg::OutTerminalBase</text>
<text text-anchor="middle" x="415.5" y="-7" font-family="Times,serif" font-size="10.00">::successors</text>
</a>
</g>
</g>
<!-- Node4&#45;&gt;Node5 -->
<g id="edge6_Node000004_Node000005" class="edge">
<title>Node4&#45;&gt;Node5</title>
<g id="a_edge6_Node000004_Node000005"><a xlink:title=" ">
<path fill="none" stroke="#63b8ff" d="M317.09,-15C325.23,-15 333.91,-15 342.6,-15"/>
<polygon fill="#63b8ff" stroke="#63b8ff" points="342.77,-18.5 352.77,-15 342.77,-11.5 342.77,-18.5"/>
</a>
</g>
</g>
<!-- Node6 -->
<g id="Node000006" class="node">
<title>Node6</title>
<g id="a_Node000006"><a xlink:href="classttg_1_1_terminal_base.html#ab21d3f0050249488606592cfe99c3409" target="_top" xlink:title="Get connections to successors.">
<polygon fill="white" stroke="#666666" points="627,-30 514,-30 514,0 627,0 627,-30"/>
<text text-anchor="start" x="522" y="-18" font-family="Times,serif" font-size="10.00">ttg::TerminalBase::</text>
<text text-anchor="middle" x="570.5" y="-7" font-family="Times,serif" font-size="10.00">get_connections</text>
</a>
</g>
</g>
<!-- Node5&#45;&gt;Node6 -->
<g id="edge7_Node000005_Node000006" class="edge">
<title>Node5&#45;&gt;Node6</title>
<g id="a_edge7_Node000005_Node000006"><a xlink:title=" ">
<path fill="none" stroke="#63b8ff" d="M478.29,-15C486.66,-15 495.28,-15 503.72,-15"/>
<polygon fill="#63b8ff" stroke="#63b8ff" points="503.9,-18.5 513.9,-15 503.9,-11.5 503.9,-18.5"/>
</a>
</g>
</g>
</g>
</svg>
