<?xml version="1.0" encoding="UTF-8" standalone="no"?>
<!DOCTYPE svg PUBLIC "-//W3C//DTD SVG 1.1//EN"
 "http://www.w3.org/Graphics/SVG/1.1/DTD/svg11.dtd">
<!-- Generated by graphviz version 2.43.0 (0)
 -->
<!-- Title: ttg_parsec::detail::foreach_parsec_data Pages: 1 -->
<svg width="399pt" height="99pt"
 viewBox="0.00 0.00 399.00 98.50" xmlns="http://www.w3.org/2000/svg" xmlns:xlink="http://www.w3.org/1999/xlink">

<svg id="main" version="1.1" xmlns="http://www.w3.org/2000/svg" xmlns:xlink="http://www.w3.org/1999/xlink" xml:space="preserve" onload="init(evt)">
<style type="text/css"><![CDATA[
.node, .edge {opacity: 0.7;}
.node.selected, .edge.selected {opacity: 1;}
.edge:hover path { stroke: red; }
.edge:hover polygon { stroke: red; fill: red; }
]]></style>
<script type="application/ecmascript" xlink:href="svg.min.js"/>
<svg id="graph" class="graph">
<g id="graph0" class="graph" transform="scale(1 1) rotate(0) translate(4 94.5)">
<title>ttg_parsec::detail::foreach_parsec_data</title>
<!-- Node1 -->
<g id="Node000001" class="node">
<title>Node1</title>
<g id="a_Node000001"><a xlink:title=" ">
<polygon fill="#999999" stroke="#666666" points="128,-54 0,-54 0,-24 128,-24 128,-54"/>
<text text-anchor="start" x="8" y="-42" font-family="Times,serif" font-size="10.00">ttg_parsec::detail</text>
<text text-anchor="middle" x="64" y="-31" font-family="Times,serif" font-size="10.00">::foreach_parsec_data</text>
</a>
</g>
</g>
<!-- Node2 -->
<g id="Node000002" class="node">
<title>Node2</title>
<g id="a_Node000002"><a xlink:href="namespacettg_1_1detail.html#ad277a8a8c9831a5cbdc938a5a1504f62" target="_top" xlink:title=" ">
<polygon fill="white" stroke="#666666" points="268,-78 166,-78 166,-48 268,-48 268,-78"/>
<text text-anchor="start" x="174" y="-66" font-family="Times,serif" font-size="10.00">ttg::detail::buffer</text>
<text text-anchor="middle" x="217" y="-55" font-family="Times,serif" font-size="10.00">_apply</text>
</a>
</g>
</g>
<!-- Node1&#45;&gt;Node2 -->
<g id="edge1_Node000001_Node000002" class="edge">
<title>Node1&#45;&gt;Node2</title>
<g id="a_edge1_Node000001_Node000002"><a xlink:title=" ">
<path fill="none" stroke="#63b8ff" d="M128.16,-49.04C137.32,-50.49 146.73,-51.99 155.83,-53.44"/>
<polygon fill="#63b8ff" stroke="#63b8ff" points="155.52,-56.93 165.94,-55.04 156.62,-50.02 155.52,-56.93"/>
</a>
</g>
</g>
<!-- Node4 -->
<g id="Node000004" class="node">
<title>Node4</title>
<g id="a_Node000004"><a xlink:href="namespacettg__parsec_1_1detail.html#ad37e220fbc05d0a62b08a94964480f0a" target="_top" xlink:title=" ">
<polygon fill="white" stroke="#666666" points="270,-30 164,-30 164,0 270,0 270,-30"/>
<text text-anchor="start" x="172" y="-18" font-family="Times,serif" font-size="10.00">ttg_parsec::detail</text>
<text text-anchor="middle" x="217" y="-7" font-family="Times,serif" font-size="10.00">::get_parsec_data</text>
</a>
</g>
</g>
<!-- Node1&#45;&gt;Node4 -->
<g id="edge4_Node000001_Node000004" class="edge">
<title>Node1&#45;&gt;Node4</title>
<g id="a_edge4_Node000001_Node000004"><a xlink:title=" ">
<path fill="none" stroke="#63b8ff" d="M128.16,-28.96C136.55,-27.63 145.15,-26.26 153.53,-24.93"/>
<polygon fill="#63b8ff" stroke="#63b8ff" points="154.28,-28.35 163.6,-23.33 153.18,-21.44 154.28,-28.35"/>
</a>
</g>
</g>
<!-- Node3 -->
<g id="Node000003" class="node">
<title>Node3</title>
<g id="a_Node000003"><a xlink:href="namespacettg_1_1meta.html#affd90f350d054c6a5b4859644d834172" target="_top" xlink:title=" ">
<polygon fill="white" stroke="#666666" points="391,-72.5 306,-72.5 306,-53.5 391,-53.5 391,-72.5"/>
<text text-anchor="middle" x="348.5" y="-60.5" font-family="Times,serif" font-size="10.00">ttg::meta::get</text>
</a>
</g>
</g>
<!-- Node2&#45;&gt;Node3 -->
<g id="edge2_Node000002_Node000003" class="edge">
<title>Node2&#45;&gt;Node3</title>
<g id="a_edge2_Node000002_Node000003"><a xlink:title=" ">
<path fill="none" stroke="#63b8ff" d="M268.07,-63C277.17,-63 286.68,-63 295.83,-63"/>
<polygon fill="#63b8ff" stroke="#63b8ff" points="295.96,-66.5 305.96,-63 295.96,-59.5 295.96,-66.5"/>
</a>
</g>
</g>
<!-- Node3&#45;&gt;Node3 -->
<g id="edge3_Node000003_Node000003" class="edge">
<title>Node3&#45;&gt;Node3</title>
<g id="a_edge3_Node000003_Node000003"><a xlink:title=" ">
<path fill="none" stroke="#63b8ff" d="M328.46,-72.58C318.72,-81.23 325.39,-90.5 348.5,-90.5 363.3,-90.5 371.36,-86.7 372.68,-81.69"/>
<polygon fill="#63b8ff" stroke="#63b8ff" points="375.86,-80.23 368.54,-72.58 369.49,-83.13 375.86,-80.23"/>
</a>
</g>
</g>
</g>
</svg>
</svg>

<style type='text/css'>
<![CDATA[
[data-mouse-over-selected='false'] { opacity: 0.7; }
[data-mouse-over-selected='true']  { opacity: 1.0; }
]]>
</style>
<script type="application/ecmascript"><![CDATA[
document.addEventListener('DOMContentLoaded', (event) => {
  highlightEdges();
  highlightAdjacentNodes();
});
]]></script>
</svg>
