<?xml version="1.0" encoding="UTF-8" standalone="no"?>
<!DOCTYPE svg PUBLIC "-//W3C//DTD SVG 1.1//EN"
 "http://www.w3.org/Graphics/SVG/1.1/DTD/svg11.dtd">
<!-- Generated by graphviz version 2.43.0 (0)
 -->
<!-- Title: ttg::launch_gdb Pages: 1 -->
<svg width="417pt" height="76pt"
 viewBox="0.00 0.00 417.00 75.50" xmlns="http://www.w3.org/2000/svg" xmlns:xlink="http://www.w3.org/1999/xlink">
<g id="graph0" class="graph" transform="scale(1 1) rotate(0) translate(4 71.5)">
<title>ttg::launch_gdb</title>
<!-- Node1 -->
<g id="Node000001" class="node">
<title>Node1</title>
<g id="a_Node000001"><a xlink:title=" ">
<polygon fill="#999999" stroke="#666666" points="97,-48.5 0,-48.5 0,-29.5 97,-29.5 97,-48.5"/>
<text text-anchor="middle" x="48.5" y="-36.5" font-family="Times,serif" font-size="10.00">ttg::launch_gdb</text>
</a>
</g>
</g>
<!-- Node2 -->
<g id="Node000002" class="node">
<title>Node2</title>
<g id="a_Node000002"><a xlink:href="namespacettg.html#a908edd0939096bd053fcbe6a5fee9609" target="_top" xlink:title=" ">
<polygon fill="white" stroke="#666666" points="260,-29.5 133,-29.5 133,-10.5 260,-10.5 260,-29.5"/>
<text text-anchor="middle" x="196.5" y="-17.5" font-family="Times,serif" font-size="10.00">ttg::launch_debugger</text>
</a>
</g>
</g>
<!-- Node1&#45;&gt;Node2 -->
<g id="edge1_Node000001_Node000002" class="edge">
<title>Node1&#45;&gt;Node2</title>
<g id="a_edge1_Node000001_Node000002"><a xlink:title=" ">
<path fill="none" stroke="#63b8ff" d="M97.31,-32.78C105.49,-31.71 114.17,-30.58 122.83,-29.46"/>
<polygon fill="#63b8ff" stroke="#63b8ff" points="123.51,-32.9 132.97,-28.14 122.6,-25.96 123.51,-32.9"/>
</a>
</g>
</g>
<!-- Node3 -->
<g id="Node000003" class="node">
<title>Node3</title>
<g id="a_Node000003"><a xlink:href="namespacettg.html#ac0ad1dd3b87329e4acf9774df6dc8473" target="_top" xlink:title=" ">
<polygon fill="white" stroke="#666666" points="382.5,-67.5 322.5,-67.5 322.5,-48.5 382.5,-48.5 382.5,-67.5"/>
<text text-anchor="middle" x="352.5" y="-55.5" font-family="Times,serif" font-size="10.00">ttg::rank</text>
</a>
</g>
</g>
<!-- Node1&#45;&gt;Node3 -->
<g id="edge4_Node000001_Node000003" class="edge">
<title>Node1&#45;&gt;Node3</title>
<g id="a_edge4_Node000001_Node000003"><a xlink:title=" ">
<path fill="none" stroke="#63b8ff" d="M97.02,-41.99C156.48,-45.73 257.17,-52.07 312.39,-55.54"/>
<polygon fill="#63b8ff" stroke="#63b8ff" points="312.28,-59.04 322.48,-56.17 312.72,-52.05 312.28,-59.04"/>
</a>
</g>
</g>
<!-- Node2&#45;&gt;Node3 -->
<g id="edge2_Node000002_Node000003" class="edge">
<title>Node2&#45;&gt;Node3</title>
<g id="a_edge2_Node000002_Node000003"><a xlink:title=" ">
<path fill="none" stroke="#63b8ff" d="M236.36,-29.59C259.65,-35.33 289.16,-42.62 312.47,-48.37"/>
<polygon fill="#63b8ff" stroke="#63b8ff" points="311.83,-51.82 322.38,-50.81 313.51,-45.02 311.83,-51.82"/>
</a>
</g>
</g>
<!-- Node4 -->
<g id="Node000004" class="node">
<title>Node4</title>
<g id="a_Node000004"><a xlink:href="classttg_1_1_debugger.html#a348f33c40ae29063b35d22c7f7562c4f" target="_top" xlink:title="Set the global default debugger. The initial value is null.">
<polygon fill="white" stroke="#666666" points="409,-30 296,-30 296,0 409,0 409,-30"/>
<text text-anchor="start" x="304" y="-18" font-family="Times,serif" font-size="10.00">ttg::Debugger::set</text>
<text text-anchor="middle" x="352.5" y="-7" font-family="Times,serif" font-size="10.00">_default_debugger</text>
</a>
</g>
</g>
<!-- Node2&#45;&gt;Node4 -->
<g id="edge3_Node000002_Node000004" class="edge">
<title>Node2&#45;&gt;Node4</title>
<g id="a_edge3_Node000002_Node000004"><a xlink:title=" ">
<path fill="none" stroke="#63b8ff" d="M260.14,-17.97C268.54,-17.69 277.19,-17.41 285.65,-17.14"/>
<polygon fill="#63b8ff" stroke="#63b8ff" points="285.97,-20.63 295.85,-16.81 285.74,-13.63 285.97,-20.63"/>
</a>
</g>
</g>
</g>
</svg>
