<?xml version="1.0" encoding="UTF-8" standalone="no"?>
<!DOCTYPE svg PUBLIC "-//W3C//DTD SVG 1.1//EN"
 "http://www.w3.org/Graphics/SVG/1.1/DTD/svg11.dtd">
<!-- Generated by graphviz version 2.43.0 (0)
 -->
<!-- Title: ttg::default_execution_context Pages: 1 -->
<!--zoomable 327 -->

<svg id="main" version="1.1" xmlns="http://www.w3.org/2000/svg" xmlns:xlink="http://www.w3.org/1999/xlink" xml:space="preserve" onload="init(evt)">
<style type="text/css"><![CDATA[
.node, .edge {opacity: 0.7;}
.node.selected, .edge.selected {opacity: 1;}
.edge:hover path { stroke: red; }
.edge:hover polygon { stroke: red; fill: red; }
]]></style>

<defs>
  <circle id="rim" cx="0" cy="0" r="7"/>
  <circle id="rim2" cx="0" cy="0" r="3.5"/>
  <g id="zoomPlus">
    <use xlink:href="#rim" fill="#404040"><set attributeName="fill" to="#808080" begin="zoomplus.mouseover" end="zoomplus.mouseout"/></use>
    <path d="M-4,0h8M0,-4v8" fill="none" stroke="white" stroke-width="1.5" pointer-events="none"/>
  </g>
  <g id="zoomMin">
    <use xlink:href="#rim" fill="#404040"><set attributeName="fill" to="#808080" begin="zoomminus.mouseover" end="zoomminus.mouseout"/></use>
    <path d="M-4,0h8" fill="none" stroke="white" stroke-width="1.5" pointer-events="none"/>
  </g>
  <g id="arrowUp" transform="translate(30 24)">
    <use xlink:href="#rim"/>
    <path pointer-events="none" fill="none" stroke="white" stroke-width="1.5" d="M0,-3.0v7 M-2.5,-0.5L0,-3.0L2.5,-0.5"/>
  </g>
  <g id="arrowRight" transform="rotate(90) translate(36 -43)">
    <use xlink:href="#rim"/>
    <path pointer-events="none" fill="none" stroke="white" stroke-width="1.5" d="M0,-3.0v7 M-2.5,-0.5L0,-3.0L2.5,-0.5"/>
  </g>
  <g id="arrowDown" transform="rotate(180) translate(-30 -48)">
    <use xlink:href="#rim"/>
    <path pointer-events="none" fill="none" stroke="white" stroke-width="1.5" d="M0,-3.0v7 M-2.5,-0.5L0,-3.0L2.5,-0.5"/>
  </g>
  <g id="arrowLeft" transform="rotate(270) translate(-36 17)">
    <use xlink:href="#rim"/>
    <path pointer-events="none" fill="none" stroke="white" stroke-width="1.5" d="M0,-3.0v7 M-2.5,-0.5L0,-3.0L2.5,-0.5"/>
  </g>
  <g id="resetDef">
    <use xlink:href="#rim2" fill="#404040"><set attributeName="fill" to="#808080" begin="reset.mouseover" end="reset.mouseout"/></use>
  </g>
</defs>
<script type="application/ecmascript">
var viewWidth = 516;
var viewHeight = 327;
var sectionId = 'dynsection-15';
</script>
<script type="application/ecmascript" xlink:href="svg.min.js"/>
<svg id="graph" class="graph">
<g id="viewport">
<title>ttg::default_execution_context</title>
<!-- Node1 -->
<g id="Node000001" class="node">
<title>Node1</title>
<g id="a_Node000001"><a xlink:title="Accesses the default backend&#39;s default execution context.">
<polygon fill="#999999" stroke="#666666" points="508,-104.5 380,-104.5 380,-74.5 508,-74.5 508,-104.5"/>
<text text-anchor="start" x="388" y="-92.5" font-family="Times,serif" font-size="10.00">ttg::default_execution</text>
<text text-anchor="middle" x="444" y="-81.5" font-family="Times,serif" font-size="10.00">_context</text>
</a>
</g>
</g>
<!-- Node2 -->
<g id="Node000002" class="node">
<title>Node2</title>
<g id="a_Node000002"><a xlink:href="namespacettg__parsec_1_1detail.html#abb5f8a2eb005a7dc66279a6decd9e8c5" target="_top" xlink:title=" ">
<polygon fill="white" stroke="#666666" points="344,-190.5 212,-190.5 212,-160.5 344,-160.5 344,-190.5"/>
<text text-anchor="start" x="220" y="-178.5" font-family="Times,serif" font-size="10.00">ttg_parsec::detail</text>
<text text-anchor="middle" x="278" y="-167.5" font-family="Times,serif" font-size="10.00">::create_new_datacopy</text>
</a>
</g>
</g>
<!-- Node1&#45;&gt;Node2 -->
<g id="edge1_Node000001_Node000002" class="edge">
<title>Node1&#45;&gt;Node2</title>
<g id="a_edge1_Node000001_Node000002"><a xlink:title=" ">
<path fill="none" stroke="#63b8ff" d="M413.4,-110.29C394.2,-123.2 368.31,-139.56 344,-151.5 337.52,-154.68 330.51,-157.69 323.57,-160.43"/>
<polygon fill="#63b8ff" stroke="#63b8ff" points="415.43,-113.15 421.72,-104.63 411.49,-107.36 415.43,-113.15"/>
</a>
</g>
</g>
<!-- Node9 -->
<g id="Node000009" class="node">
<title>Node9</title>
<g id="a_Node000009"><a xlink:href="namespacettg.html#a557cbca5e1f34dcc87a43afd0d03c6e4" target="_top" xlink:title="Initializes the TTG runtime with the default backend.">
<polygon fill="white" stroke="#666666" points="318,-142 238,-142 238,-123 318,-123 318,-142"/>
<text text-anchor="middle" x="278" y="-130" font-family="Times,serif" font-size="10.00">ttg::initialize</text>
</a>
</g>
</g>
<!-- Node1&#45;&gt;Node9 -->
<g id="edge8_Node000001_Node000009" class="edge">
<title>Node1&#45;&gt;Node9</title>
<g id="a_edge8_Node000001_Node000009"><a xlink:title=" ">
<path fill="none" stroke="#63b8ff" d="M375.95,-107.08C355.31,-112.49 333.35,-118.25 315.56,-122.91"/>
<polygon fill="#63b8ff" stroke="#63b8ff" points="376.86,-110.46 385.64,-104.54 375.08,-103.69 376.86,-110.46"/>
</a>
</g>
</g>
<!-- Node10 -->
<g id="Node000010" class="node">
<title>Node10</title>
<g id="a_Node000010"><a xlink:href="namespacettg__madness.html#a1d0750abcb4d3cb112ff1755f38798f1" target="_top" xlink:title="must be called from main thread before setting watchpoints">
<polygon fill="white" stroke="#666666" points="343.5,-104.5 212.5,-104.5 212.5,-74.5 343.5,-74.5 343.5,-104.5"/>
<text text-anchor="start" x="220.5" y="-92.5" font-family="Times,serif" font-size="10.00">ttg_madness::initialize</text>
<text text-anchor="middle" x="278" y="-81.5" font-family="Times,serif" font-size="10.00">_watchpoints</text>
</a>
</g>
</g>
<!-- Node1&#45;&gt;Node10 -->
<g id="edge9_Node000001_Node000010" class="edge">
<title>Node1&#45;&gt;Node10</title>
<g id="a_edge9_Node000001_Node000010"><a xlink:title=" ">
<path fill="none" stroke="#63b8ff" d="M369.53,-89.5C360.88,-89.5 352.1,-89.5 343.59,-89.5"/>
<polygon fill="#63b8ff" stroke="#63b8ff" points="369.59,-93 379.59,-89.5 369.59,-86 369.59,-93"/>
</a>
</g>
</g>
<!-- Node11 -->
<g id="Node000011" class="node">
<title>Node11</title>
<g id="a_Node000011"><a xlink:href="fibonacci_8cc.html#a0ddf1224851353fc92bfbff6f499fa97" target="_top" xlink:title=" ">
<polygon fill="white" stroke="#666666" points="299,-56 257,-56 257,-37 299,-37 299,-56"/>
<text text-anchor="middle" x="278" y="-44" font-family="Times,serif" font-size="10.00">main</text>
</a>
</g>
</g>
<!-- Node1&#45;&gt;Node11 -->
<g id="edge10_Node000001_Node000011" class="edge">
<title>Node1&#45;&gt;Node11</title>
<g id="a_edge10_Node000001_Node000011"><a xlink:title=" ">
<path fill="none" stroke="#63b8ff" d="M375.61,-71.83C348.03,-64.6 318.18,-56.77 299.07,-51.76"/>
<polygon fill="#63b8ff" stroke="#63b8ff" points="375.08,-75.31 385.64,-74.46 376.86,-68.54 375.08,-75.31"/>
</a>
</g>
</g>
<!-- Node12 -->
<g id="Node000012" class="node">
<title>Node12</title>
<g id="a_Node000012"><a xlink:href="namespacettg__parsec.html#a5008389f3116aff76f4dc8d04e3fab3b" target="_top" xlink:title=" ">
<polygon fill="white" stroke="#666666" points="344,-19 212,-19 212,0 344,0 344,-19"/>
<text text-anchor="middle" x="278" y="-7" font-family="Times,serif" font-size="10.00">ttg_parsec::ttg_finalize</text>
</a>
</g>
</g>
<!-- Node1&#45;&gt;Node12 -->
<g id="edge11_Node000001_Node000012" class="edge">
<title>Node1&#45;&gt;Node12</title>
<g id="a_edge11_Node000001_Node000012"><a xlink:title=" ">
<path fill="none" stroke="#63b8ff" d="M414.47,-68.52C395.33,-55.24 369.11,-38.56 344,-27.5 336.61,-24.24 328.48,-21.44 320.54,-19.07"/>
<polygon fill="#63b8ff" stroke="#63b8ff" points="412.55,-71.45 422.74,-74.35 416.58,-65.72 412.55,-71.45"/>
</a>
</g>
</g>
<!-- Node3 -->
<g id="Node000003" class="node">
<title>Node3</title>
<g id="a_Node000003"><a xlink:href="namespacettg__parsec.html#a6b4f435426a465bb5345e28f35a7ecca" target="_top" xlink:title=" ">
<polygon fill="white" stroke="#666666" points="144.5,-319 31.5,-319 31.5,-300 144.5,-300 144.5,-319"/>
<text text-anchor="middle" x="88" y="-307" font-family="Times,serif" font-size="10.00">ttg_parsec::get_ptr</text>
</a>
</g>
</g>
<!-- Node2&#45;&gt;Node3 -->
<g id="edge2_Node000002_Node000003" class="edge">
<title>Node2&#45;&gt;Node3</title>
<g id="a_edge2_Node000002_Node000003"><a xlink:title=" ">
<path fill="none" stroke="#63b8ff" d="M262.91,-199.52C245.85,-226.34 214.56,-268.95 176,-291.5 166.55,-297.03 155.65,-300.88 144.83,-303.55"/>
<polygon fill="#63b8ff" stroke="#63b8ff" points="266.05,-201.09 268.34,-190.74 260.1,-197.41 266.05,-201.09"/>
</a>
</g>
</g>
<!-- Node4 -->
<g id="Node000004" class="node">
<title>Node4</title>
<g id="a_Node000004"><a xlink:href="structttg_1_1detail_1_1value__copy__handler_3_01ttg_1_1_runtime_1_1_pa_r_s_e_c_01_4.html#a2e260c8eb28173f0fe1b0dc631aeaccb" target="_top" xlink:title=" ">
<polygon fill="white" stroke="#666666" points="176,-282 0,-282 0,-241 176,-241 176,-282"/>
<text text-anchor="start" x="8" y="-270" font-family="Times,serif" font-size="10.00">ttg::detail::value</text>
<text text-anchor="start" x="8" y="-259" font-family="Times,serif" font-size="10.00">_copy_handler&lt; ttg::</text>
<text text-anchor="middle" x="88" y="-248" font-family="Times,serif" font-size="10.00">Runtime::PaRSEC &gt;::operator()</text>
</a>
</g>
</g>
<!-- Node2&#45;&gt;Node4 -->
<g id="edge3_Node000002_Node000004" class="edge">
<title>Node2&#45;&gt;Node4</title>
<g id="a_edge3_Node000002_Node000004"><a xlink:title=" ">
<path fill="none" stroke="#63b8ff" d="M244.45,-195.99C225.05,-207.65 199.67,-221.99 176,-232.5 169.31,-235.47 162.21,-238.31 155.07,-240.97"/>
<polygon fill="#63b8ff" stroke="#63b8ff" points="246.46,-198.86 253.19,-190.67 242.82,-192.88 246.46,-198.86"/>
</a>
</g>
</g>
<!-- Node5 -->
<g id="Node000005" class="node">
<title>Node5</title>
<g id="a_Node000005"><a xlink:href="structttg_1_1detail_1_1value__copy__handler_3_01ttg_1_1_runtime_1_1_pa_r_s_e_c_01_4.html#a7aa33ebff0f5c4129d8587d9f1d0de0a" target="_top" xlink:title=" ">
<polygon fill="white" stroke="#666666" points="176,-223 0,-223 0,-182 176,-182 176,-223"/>
<text text-anchor="start" x="8" y="-211" font-family="Times,serif" font-size="10.00">ttg::detail::value</text>
<text text-anchor="start" x="8" y="-200" font-family="Times,serif" font-size="10.00">_copy_handler&lt; ttg::</text>
<text text-anchor="middle" x="88" y="-189" font-family="Times,serif" font-size="10.00">Runtime::PaRSEC &gt;::operator()</text>
</a>
</g>
</g>
<!-- Node2&#45;&gt;Node5 -->
<g id="edge4_Node000002_Node000005" class="edge">
<title>Node2&#45;&gt;Node5</title>
<g id="a_edge4_Node000002_Node000005"><a xlink:title=" ">
<path fill="none" stroke="#63b8ff" d="M201.7,-186.31C193.35,-187.51 184.78,-188.74 176.3,-189.96"/>
<polygon fill="#63b8ff" stroke="#63b8ff" points="202.37,-189.75 211.77,-184.87 201.38,-182.82 202.37,-189.75"/>
</a>
</g>
</g>
<!-- Node6 -->
<g id="Node000006" class="node">
<title>Node6</title>
<g id="a_Node000006"><a xlink:href="classttg__parsec_1_1_t_t.html#ab9cbb6fbff64a26d98e2905560422e8c" target="_top" xlink:title=" ">
<polygon fill="white" stroke="#666666" points="143,-163.5 33,-163.5 33,-133.5 143,-133.5 143,-163.5"/>
<text text-anchor="start" x="41" y="-151.5" font-family="Times,serif" font-size="10.00">ttg_parsec::TT::set</text>
<text text-anchor="middle" x="88" y="-140.5" font-family="Times,serif" font-size="10.00">_arg_from_msg</text>
</a>
</g>
</g>
<!-- Node2&#45;&gt;Node6 -->
<g id="edge5_Node000002_Node000006" class="edge">
<title>Node2&#45;&gt;Node6</title>
<g id="a_edge5_Node000002_Node000006"><a xlink:title=" ">
<path fill="none" stroke="#63b8ff" d="M201.67,-164.68C182.11,-161.87 161.43,-158.9 143.2,-156.28"/>
<polygon fill="#63b8ff" stroke="#63b8ff" points="201.38,-168.18 211.77,-166.13 202.37,-161.25 201.38,-168.18"/>
</a>
</g>
</g>
<!-- Node7 -->
<g id="Node000007" class="node">
<title>Node7</title>
<g id="a_Node000007"><a xlink:href="classttg__parsec_1_1_t_t.html#af647004ce89dc81d1202dd68070f0bde" target="_top" xlink:title=" ">
<polygon fill="white" stroke="#666666" points="143,-115.5 33,-115.5 33,-85.5 143,-85.5 143,-115.5"/>
<text text-anchor="start" x="41" y="-103.5" font-family="Times,serif" font-size="10.00">ttg_parsec::TT::set</text>
<text text-anchor="middle" x="88" y="-92.5" font-family="Times,serif" font-size="10.00">_arg_impl</text>
</a>
</g>
</g>
<!-- Node2&#45;&gt;Node7 -->
<g id="edge6_Node000002_Node000007" class="edge">
<title>Node2&#45;&gt;Node7</title>
<g id="a_edge6_Node000002_Node000007"><a xlink:title=" ">
<path fill="none" stroke="#63b8ff" d="M221.97,-156.49C218.55,-154.91 215.2,-153.24 212,-151.5 194.43,-141.94 193.95,-133.31 176,-124.5 165.73,-119.46 154.25,-115.34 143.07,-112.03"/>
<polygon fill="#63b8ff" stroke="#63b8ff" points="220.58,-159.7 231.15,-160.48 223.38,-153.28 220.58,-159.7"/>
</a>
</g>
</g>
<!-- Node8 -->
<g id="Node000008" class="node">
<title>Node8</title>
<g id="a_Node000008"><a xlink:href="classttg__parsec_1_1_t_t.html#adc3a5e538d9a4c192168317cb0db9814" target="_top" xlink:title=" ">
<polygon fill="white" stroke="#666666" points="143,-67.5 33,-67.5 33,-37.5 143,-37.5 143,-67.5"/>
<text text-anchor="start" x="41" y="-55.5" font-family="Times,serif" font-size="10.00">ttg_parsec::TT::set</text>
<text text-anchor="middle" x="88" y="-44.5" font-family="Times,serif" font-size="10.00">_arg_local_impl</text>
</a>
</g>
</g>
<!-- Node2&#45;&gt;Node8 -->
<g id="edge7_Node000002_Node000008" class="edge">
<title>Node2&#45;&gt;Node8</title>
<g id="a_edge7_Node000002_Node000008"><a xlink:title=" ">
<path fill="none" stroke="#63b8ff" d="M216.03,-154.84C214.63,-153.78 213.28,-152.67 212,-151.5 184.66,-126.61 204.37,-100.21 176,-76.5 166.62,-68.66 154.88,-63.37 143.09,-59.81"/>
<polygon fill="#63b8ff" stroke="#63b8ff" points="214.22,-157.84 224.51,-160.36 218.03,-151.97 214.22,-157.84"/>
</a>
</g>
</g>
</g>
</svg>

<g id="navigator" transform="translate(0 0)" fill="#404254">
  <rect fill="#f2f5e9" fill-opacity="0.5" stroke="#606060" stroke-width=".5" x="0" y="0" width="60" height="60"/>
  <use id="zoomplus" xlink:href="#zoomPlus" x="17" y="9" onmousedown="handleZoom(evt,'in')"/>
  <use id="zoomminus" xlink:href="#zoomMin" x="42" y="9" onmousedown="handleZoom(evt,'out')"/>
  <use id="reset" xlink:href="#resetDef" x="30" y="36" onmousedown="handleReset()"/>
   <use id="arrowup" xlink:href="#arrowUp" x="0" y="0" onmousedown="handlePan(0,-1)"/>
  <use id="arrowright" xlink:href="#arrowRight" x="0" y="0" onmousedown="handlePan(1,0)"/>
  <use id="arrowdown" xlink:href="#arrowDown" x="0" y="0" onmousedown="handlePan(0,1)"/>
  <use id="arrowleft" xlink:href="#arrowLeft" x="0" y="0" onmousedown="handlePan(-1,0)"/>
</g>
<svg viewBox="0 0 15 15" width="100%" height="30px" preserveAspectRatio="xMaxYMin meet">
 <g id="arrow_out" transform="scale(0.3 0.3)">
  <a xlink:href="namespacettg_a78c09561304884c05c8a8f25006b0ee6_icgraph_org.svg" target="_base">
   <rect id="button" ry="5" rx="5" y="6" x="6" height="38" width="38"
        fill="#f2f5e9" fill-opacity="0.5" stroke="#606060" stroke-width="1.0"/>
   <path id="arrow"
     d="M 11.500037,31.436501 C 11.940474,20.09759 22.043105,11.32322 32.158766,21.979434 L 37.068811,17.246167 C 37.068811,17.246167 37.088388,32 37.088388,32 L 22.160133,31.978069 C 22.160133,31.978069 26.997745,27.140456 26.997745,27.140456 C 18.528582,18.264221 13.291696,25.230495 11.500037,31.436501 z"
     style="fill:#404040;"/>
  </a>
 </g>
</svg>

<style type='text/css'>
<![CDATA[
[data-mouse-over-selected='false'] { opacity: 0.7; }
[data-mouse-over-selected='true']  { opacity: 1.0; }
]]>
</style>
<script type="application/ecmascript"><![CDATA[
document.addEventListener('DOMContentLoaded', (event) => {
  highlightEdges();
  highlightAdjacentNodes();
});
]]></script>
</svg>
