<?xml version="1.0" encoding="UTF-8" standalone="no"?>
<!DOCTYPE svg PUBLIC "-//W3C//DTD SVG 1.1//EN"
 "http://www.w3.org/Graphics/SVG/1.1/DTD/svg11.dtd">
<!-- Generated by graphviz version 2.43.0 (0)
 -->
<!-- Title: ttg_parsec::detail::register_device_memory Pages: 1 -->
<svg width="298pt" height="94pt"
 viewBox="0.00 0.00 298.00 93.50" xmlns="http://www.w3.org/2000/svg" xmlns:xlink="http://www.w3.org/1999/xlink">

<svg id="main" version="1.1" xmlns="http://www.w3.org/2000/svg" xmlns:xlink="http://www.w3.org/1999/xlink" xml:space="preserve" onload="init(evt)">
<style type="text/css"><![CDATA[
.node, .edge {opacity: 0.7;}
.node.selected, .edge.selected {opacity: 1;}
.edge:hover path { stroke: red; }
.edge:hover polygon { stroke: red; fill: red; }
]]></style>
<script type="application/ecmascript" xlink:href="svg.min.js"/>
<svg id="graph" class="graph">
<g id="graph0" class="graph" transform="scale(1 1) rotate(0) translate(4 89.5)">
<title>ttg_parsec::detail::register_device_memory</title>
<!-- Node1 -->
<g id="Node000001" class="node">
<title>Node1</title>
<g id="a_Node000001"><a xlink:title=" ">
<polygon fill="#999999" stroke="#666666" points="148,-51 0,-51 0,-21 148,-21 148,-51"/>
<text text-anchor="start" x="8" y="-39" font-family="Times,serif" font-size="10.00">ttg_parsec::detail</text>
<text text-anchor="middle" x="74" y="-28" font-family="Times,serif" font-size="10.00">::register_device_memory</text>
</a>
</g>
</g>
<!-- Node1&#45;&gt;Node1 -->
<g id="edge4_Node000001_Node000001" class="edge">
<title>Node1&#45;&gt;Node1</title>
<g id="a_edge4_Node000001_Node000001"><a xlink:title=" ">
<path fill="none" stroke="#63b8ff" d="M45.52,-51.28C39.2,-60.41 48.69,-69 74,-69 89.03,-69 98.48,-65.97 102.36,-61.6"/>
<polygon fill="#63b8ff" stroke="#63b8ff" points="105.86,-61.32 102.48,-51.28 98.86,-61.23 105.86,-61.32"/>
</a>
</g>
</g>
<!-- Node2 -->
<g id="Node000002" class="node">
<title>Node2</title>
<g id="a_Node000002"><a xlink:href="namespacettg_1_1meta.html#affd90f350d054c6a5b4859644d834172" target="_top" xlink:title=" ">
<polygon fill="white" stroke="#666666" points="279.5,-67.5 194.5,-67.5 194.5,-48.5 279.5,-48.5 279.5,-67.5"/>
<text text-anchor="middle" x="237" y="-55.5" font-family="Times,serif" font-size="10.00">ttg::meta::get</text>
</a>
</g>
</g>
<!-- Node1&#45;&gt;Node2 -->
<g id="edge1_Node000001_Node000002" class="edge">
<title>Node1&#45;&gt;Node2</title>
<g id="a_edge1_Node000001_Node000002"><a xlink:title=" ">
<path fill="none" stroke="#63b8ff" d="M148.43,-46.03C160.5,-47.68 172.77,-49.36 184.17,-50.92"/>
<polygon fill="#63b8ff" stroke="#63b8ff" points="183.98,-54.42 194.36,-52.31 184.92,-47.49 183.98,-54.42"/>
</a>
</g>
</g>
<!-- Node3 -->
<g id="Node000003" class="node">
<title>Node3</title>
<g id="a_Node000003"><a xlink:href="namespacettg__parsec_1_1detail.html#ad37e220fbc05d0a62b08a94964480f0a" target="_top" xlink:title=" ">
<polygon fill="white" stroke="#666666" points="290,-30 184,-30 184,0 290,0 290,-30"/>
<text text-anchor="start" x="192" y="-18" font-family="Times,serif" font-size="10.00">ttg_parsec::detail</text>
<text text-anchor="middle" x="237" y="-7" font-family="Times,serif" font-size="10.00">::get_parsec_data</text>
</a>
</g>
</g>
<!-- Node1&#45;&gt;Node3 -->
<g id="edge3_Node000001_Node000003" class="edge">
<title>Node1&#45;&gt;Node3</title>
<g id="a_edge3_Node000001_Node000003"><a xlink:title=" ">
<path fill="none" stroke="#63b8ff" d="M148.43,-26.42C156.92,-25.31 165.52,-24.19 173.84,-23.11"/>
<polygon fill="#63b8ff" stroke="#63b8ff" points="174.36,-26.57 183.83,-21.81 173.46,-19.63 174.36,-26.57"/>
</a>
</g>
</g>
<!-- Node2&#45;&gt;Node2 -->
<g id="edge2_Node000002_Node000002" class="edge">
<title>Node2&#45;&gt;Node2</title>
<g id="a_edge2_Node000002_Node000002"><a xlink:title=" ">
<path fill="none" stroke="#63b8ff" d="M212.03,-67.58C199.88,-76.23 208.21,-85.5 237,-85.5 255.9,-85.5 265.98,-81.51 267.24,-76.32"/>
<polygon fill="#63b8ff" stroke="#63b8ff" points="270.13,-74.34 261.97,-67.58 264.14,-77.95 270.13,-74.34"/>
</a>
</g>
</g>
</g>
</svg>
</svg>

<style type='text/css'>
<![CDATA[
[data-mouse-over-selected='false'] { opacity: 0.7; }
[data-mouse-over-selected='true']  { opacity: 1.0; }
]]>
</style>
<script type="application/ecmascript"><![CDATA[
document.addEventListener('DOMContentLoaded', (event) => {
  highlightEdges();
  highlightAdjacentNodes();
});
]]></script>
</svg>
