<?xml version="1.0" encoding="UTF-8" standalone="no"?>
<!DOCTYPE svg PUBLIC "-//W3C//DTD SVG 1.1//EN"
 "http://www.w3.org/Graphics/SVG/1.1/DTD/svg11.dtd">
<!-- Generated by graphviz version 2.43.0 (0)
 -->
<!-- Title: ttg::detail::broadcast Pages: 1 -->
<svg width="251pt" height="45pt"
 viewBox="0.00 0.00 251.00 45.00" xmlns="http://www.w3.org/2000/svg" xmlns:xlink="http://www.w3.org/1999/xlink">
<g id="graph0" class="graph" transform="scale(1 1) rotate(0) translate(4 41)">
<title>ttg::detail::broadcast</title>
<!-- Node1 -->
<g id="Node000001" class="node">
<title>Node1</title>
<g id="a_Node000001"><a xlink:title=" ">
<polygon fill="#999999" stroke="#666666" points="122,-19 0,-19 0,0 122,0 122,-19"/>
<text text-anchor="middle" x="61" y="-7" font-family="Times,serif" font-size="10.00">ttg::detail::broadcast</text>
</a>
</g>
</g>
<!-- Node1&#45;&gt;Node1 -->
<g id="edge1_Node000001_Node000001" class="edge">
<title>Node1&#45;&gt;Node1</title>
<g id="a_edge1_Node000001_Node000001"><a xlink:title=" ">
<path fill="none" stroke="#63b8ff" d="M39.73,-19.08C29.38,-27.73 36.47,-37 61,-37 76.71,-37 85.27,-33.2 86.67,-28.19"/>
<polygon fill="#63b8ff" stroke="#63b8ff" points="89.77,-26.56 82.27,-19.08 83.47,-29.61 89.77,-26.56"/>
</a>
</g>
</g>
<!-- Node2 -->
<g id="Node000002" class="node">
<title>Node2</title>
<g id="a_Node000002"><a xlink:href="namespacettg_1_1meta.html#affd90f350d054c6a5b4859644d834172" target="_top" xlink:title=" ">
<polygon fill="white" stroke="#666666" points="243,-19 158,-19 158,0 243,0 243,-19"/>
<text text-anchor="middle" x="200.5" y="-7" font-family="Times,serif" font-size="10.00">ttg::meta::get</text>
</a>
</g>
</g>
<!-- Node1&#45;&gt;Node2 -->
<g id="edge2_Node000001_Node000002" class="edge">
<title>Node1&#45;&gt;Node2</title>
<g id="a_edge2_Node000001_Node000002"><a xlink:title=" ">
<path fill="none" stroke="#63b8ff" d="M122.31,-9.5C130.73,-9.5 139.33,-9.5 147.57,-9.5"/>
<polygon fill="#63b8ff" stroke="#63b8ff" points="147.8,-13 157.8,-9.5 147.8,-6 147.8,-13"/>
</a>
</g>
</g>
<!-- Node2&#45;&gt;Node2 -->
<g id="edge3_Node000002_Node000002" class="edge">
<title>Node2&#45;&gt;Node2</title>
<g id="a_edge3_Node000002_Node000002"><a xlink:title=" ">
<path fill="none" stroke="#63b8ff" d="M179.23,-19.08C168.88,-27.73 175.97,-37 200.5,-37 216.21,-37 224.77,-33.2 226.17,-28.19"/>
<polygon fill="#63b8ff" stroke="#63b8ff" points="229.27,-26.56 221.77,-19.08 222.97,-29.61 229.27,-26.56"/>
</a>
</g>
</g>
</g>
</svg>
