<?xml version="1.0" encoding="UTF-8" standalone="no"?>
<!DOCTYPE svg PUBLIC "-//W3C//DTD SVG 1.1//EN"
 "http://www.w3.org/Graphics/SVG/1.1/DTD/svg11.dtd">
<!-- Generated by graphviz version 2.43.0 (0)
 -->
<!-- Title: ttg_parsec::get_ptr Pages: 1 -->
<svg width="467pt" height="86pt"
 viewBox="0.00 0.00 467.00 86.00" xmlns="http://www.w3.org/2000/svg" xmlns:xlink="http://www.w3.org/1999/xlink">
<g id="graph0" class="graph" transform="scale(1 1) rotate(0) translate(4 82)">
<title>ttg_parsec::get_ptr</title>
<!-- Node1 -->
<g id="Node000001" class="node">
<title>Node1</title>
<g id="a_Node000001"><a xlink:title=" ">
<polygon fill="#999999" stroke="#666666" points="113,-48.5 0,-48.5 0,-29.5 113,-29.5 113,-48.5"/>
<text text-anchor="middle" x="56.5" y="-36.5" font-family="Times,serif" font-size="10.00">ttg_parsec::get_ptr</text>
</a>
</g>
</g>
<!-- Node2 -->
<g id="Node000002" class="node">
<title>Node2</title>
<g id="a_Node000002"><a xlink:href="namespacettg__parsec_1_1detail.html#abb5f8a2eb005a7dc66279a6decd9e8c5" target="_top" xlink:title=" ">
<polygon fill="white" stroke="#666666" points="288,-78 156,-78 156,-48 288,-48 288,-78"/>
<text text-anchor="start" x="164" y="-66" font-family="Times,serif" font-size="10.00">ttg_parsec::detail</text>
<text text-anchor="middle" x="222" y="-55" font-family="Times,serif" font-size="10.00">::create_new_datacopy</text>
</a>
</g>
</g>
<!-- Node1&#45;&gt;Node2 -->
<g id="edge1_Node000001_Node000002" class="edge">
<title>Node1&#45;&gt;Node2</title>
<g id="a_edge1_Node000001_Node000002"><a xlink:title=" ">
<path fill="none" stroke="#63b8ff" d="M113.31,-47.19C123.79,-48.73 134.91,-50.36 145.87,-51.97"/>
<polygon fill="#63b8ff" stroke="#63b8ff" points="145.46,-55.45 155.86,-53.44 146.48,-48.52 145.46,-55.45"/>
</a>
</g>
</g>
<!-- Node4 -->
<g id="Node000004" class="node">
<title>Node4</title>
<g id="a_Node000004"><a xlink:href="structttg__parsec_1_1detail_1_1ttg__data__copy__t.html#a7e1910ed6d9295519d18342582f3ba97" target="_top" xlink:title=" ">
<polygon fill="white" stroke="#666666" points="295,-30 149,-30 149,0 295,0 295,-30"/>
<text text-anchor="start" x="157" y="-18" font-family="Times,serif" font-size="10.00">ttg_parsec::detail</text>
<text text-anchor="middle" x="222" y="-7" font-family="Times,serif" font-size="10.00">::ttg_data_copy_t::get_ptr</text>
</a>
</g>
</g>
<!-- Node1&#45;&gt;Node4 -->
<g id="edge3_Node000001_Node000004" class="edge">
<title>Node1&#45;&gt;Node4</title>
<g id="a_edge3_Node000001_Node000004"><a xlink:title=" ">
<path fill="none" stroke="#63b8ff" d="M113.31,-30.81C121.56,-29.6 130.19,-28.33 138.84,-27.06"/>
<polygon fill="#63b8ff" stroke="#63b8ff" points="139.58,-30.49 148.96,-25.57 138.56,-23.56 139.58,-30.49"/>
</a>
</g>
</g>
<!-- Node3 -->
<g id="Node000003" class="node">
<title>Node3</title>
<g id="a_Node000003"><a xlink:href="namespacettg.html#a78c09561304884c05c8a8f25006b0ee6" target="_top" xlink:title="Accesses the default backend&#39;s default execution context.">
<polygon fill="white" stroke="#666666" points="459,-78 331,-78 331,-48 459,-48 459,-78"/>
<text text-anchor="start" x="339" y="-66" font-family="Times,serif" font-size="10.00">ttg::default_execution</text>
<text text-anchor="middle" x="395" y="-55" font-family="Times,serif" font-size="10.00">_context</text>
</a>
</g>
</g>
<!-- Node2&#45;&gt;Node3 -->
<g id="edge2_Node000002_Node000003" class="edge">
<title>Node2&#45;&gt;Node3</title>
<g id="a_edge2_Node000002_Node000003"><a xlink:title=" ">
<path fill="none" stroke="#63b8ff" d="M288.14,-63C298.72,-63 309.75,-63 320.52,-63"/>
<polygon fill="#63b8ff" stroke="#63b8ff" points="320.74,-66.5 330.74,-63 320.74,-59.5 320.74,-66.5"/>
</a>
</g>
</g>
</g>
</svg>
