<?xml version="1.0" encoding="UTF-8" standalone="no"?>
<!DOCTYPE svg PUBLIC "-//W3C//DTD SVG 1.1//EN"
 "http://www.w3.org/Graphics/SVG/1.1/DTD/svg11.dtd">
<!-- Generated by graphviz version 2.43.0 (0)
 -->
<!-- Title: ttg::sendv Pages: 1 -->
<!--zoomable 199 -->

<svg id="main" version="1.1" xmlns="http://www.w3.org/2000/svg" xmlns:xlink="http://www.w3.org/1999/xlink" xml:space="preserve" onload="init(evt)">
<style type="text/css"><![CDATA[
.node, .edge {opacity: 0.7;}
.node.selected, .edge.selected {opacity: 1;}
.edge:hover path { stroke: red; }
.edge:hover polygon { stroke: red; fill: red; }
]]></style>

<defs>
  <circle id="rim" cx="0" cy="0" r="7"/>
  <circle id="rim2" cx="0" cy="0" r="3.5"/>
  <g id="zoomPlus">
    <use xlink:href="#rim" fill="#404040"><set attributeName="fill" to="#808080" begin="zoomplus.mouseover" end="zoomplus.mouseout"/></use>
    <path d="M-4,0h8M0,-4v8" fill="none" stroke="white" stroke-width="1.5" pointer-events="none"/>
  </g>
  <g id="zoomMin">
    <use xlink:href="#rim" fill="#404040"><set attributeName="fill" to="#808080" begin="zoomminus.mouseover" end="zoomminus.mouseout"/></use>
    <path d="M-4,0h8" fill="none" stroke="white" stroke-width="1.5" pointer-events="none"/>
  </g>
  <g id="arrowUp" transform="translate(30 24)">
    <use xlink:href="#rim"/>
    <path pointer-events="none" fill="none" stroke="white" stroke-width="1.5" d="M0,-3.0v7 M-2.5,-0.5L0,-3.0L2.5,-0.5"/>
  </g>
  <g id="arrowRight" transform="rotate(90) translate(36 -43)">
    <use xlink:href="#rim"/>
    <path pointer-events="none" fill="none" stroke="white" stroke-width="1.5" d="M0,-3.0v7 M-2.5,-0.5L0,-3.0L2.5,-0.5"/>
  </g>
  <g id="arrowDown" transform="rotate(180) translate(-30 -48)">
    <use xlink:href="#rim"/>
    <path pointer-events="none" fill="none" stroke="white" stroke-width="1.5" d="M0,-3.0v7 M-2.5,-0.5L0,-3.0L2.5,-0.5"/>
  </g>
  <g id="arrowLeft" transform="rotate(270) translate(-36 17)">
    <use xlink:href="#rim"/>
    <path pointer-events="none" fill="none" stroke="white" stroke-width="1.5" d="M0,-3.0v7 M-2.5,-0.5L0,-3.0L2.5,-0.5"/>
  </g>
  <g id="resetDef">
    <use xlink:href="#rim2" fill="#404040"><set attributeName="fill" to="#808080" begin="reset.mouseover" end="reset.mouseout"/></use>
  </g>
</defs>
<script type="application/ecmascript">
var viewWidth = 618;
var viewHeight = 199;
var sectionId = 'dynsection-64';
</script>
<script type="application/ecmascript" xlink:href="svg.min.js"/>
<svg id="graph" class="graph">
<g id="viewport">
<title>ttg::sendv</title>
<!-- Node1 -->
<g id="Node000001" class="node">
<title>Node1</title>
<g id="a_Node000001"><a xlink:title="Sends a value (without an accompanying task id) to the template tasks attached to the output terminal...">
<polygon fill="#999999" stroke="#666666" points="68,-158.5 0,-158.5 0,-139.5 68,-139.5 68,-158.5"/>
<text text-anchor="middle" x="34" y="-146.5" font-family="Times,serif" font-size="10.00">ttg::sendv</text>
</a>
</g>
</g>
<!-- Node2 -->
<g id="Node000002" class="node">
<title>Node2</title>
<g id="a_Node000002"><a xlink:href="namespacettg_1_1meta.html#affd90f350d054c6a5b4859644d834172" target="_top" xlink:title=" ">
<polygon fill="white" stroke="#666666" points="596,-127.5 511,-127.5 511,-108.5 596,-108.5 596,-127.5"/>
<text text-anchor="middle" x="553.5" y="-115.5" font-family="Times,serif" font-size="10.00">ttg::meta::get</text>
</a>
</g>
</g>
<!-- Node1&#45;&gt;Node2 -->
<g id="edge1_Node000001_Node000002" class="edge">
<title>Node1&#45;&gt;Node2</title>
<g id="a_edge1_Node000001_Node000002"><a xlink:title=" ">
<path fill="none" stroke="#63b8ff" d="M68.1,-157.97C140.78,-176.14 319.13,-212.36 461,-173 488.22,-165.45 515.47,-147.39 533.06,-134.01"/>
<polygon fill="#63b8ff" stroke="#63b8ff" points="535.62,-136.45 541.32,-127.53 531.29,-130.95 535.62,-136.45"/>
</a>
</g>
</g>
<!-- Node3 -->
<g id="Node000003" class="node">
<title>Node3</title>
<g id="a_Node000003"><a xlink:href="namespacettg.html#a8f6699133cf34d99b17a41af9834a272" target="_top" xlink:title="Sends a value (without an accompanying task id) to the given output terminal.">
<polygon fill="white" stroke="#666666" points="172,-139.5 104,-139.5 104,-120.5 172,-120.5 172,-139.5"/>
<text text-anchor="middle" x="138" y="-127.5" font-family="Times,serif" font-size="10.00">ttg::sendv</text>
</a>
</g>
</g>
<!-- Node1&#45;&gt;Node3 -->
<g id="edge3_Node000001_Node000003" class="edge">
<title>Node1&#45;&gt;Node3</title>
<g id="a_edge3_Node000001_Node000003"><a xlink:title=" ">
<path fill="none" stroke="#63b8ff" d="M68.12,-142.83C76.31,-141.3 85.21,-139.65 93.81,-138.05"/>
<polygon fill="#63b8ff" stroke="#63b8ff" points="94.51,-141.47 103.7,-136.2 93.23,-134.59 94.51,-141.47"/>
</a>
</g>
</g>
<!-- Node2&#45;&gt;Node2 -->
<g id="edge2_Node000002_Node000002" class="edge">
<title>Node2&#45;&gt;Node2</title>
<g id="a_edge2_Node000002_Node000002"><a xlink:title=" ">
<path fill="none" stroke="#63b8ff" d="M529.76,-127.58C518.22,-136.23 526.13,-145.5 553.5,-145.5 571.46,-145.5 581.04,-141.51 582.25,-136.32"/>
<polygon fill="#63b8ff" stroke="#63b8ff" points="585.25,-134.52 577.24,-127.58 579.17,-138 585.25,-134.52"/>
</a>
</g>
</g>
<!-- Node4 -->
<g id="Node000004" class="node">
<title>Node4</title>
<g id="a_Node000004"><a xlink:href="classttg_1_1_out.html#a19596b1bdc19006bfe9771b3ece65223" target="_top" xlink:title=" ">
<polygon fill="white" stroke="#666666" points="300,-115.5 208,-115.5 208,-96.5 300,-96.5 300,-115.5"/>
<text text-anchor="middle" x="254" y="-103.5" font-family="Times,serif" font-size="10.00">ttg::Out::sendv</text>
</a>
</g>
</g>
<!-- Node3&#45;&gt;Node4 -->
<g id="edge4_Node000003_Node000004" class="edge">
<title>Node3&#45;&gt;Node4</title>
<g id="a_edge4_Node000003_Node000004"><a xlink:title=" ">
<path fill="none" stroke="#63b8ff" d="M172.28,-122.99C180.3,-121.3 189.09,-119.46 197.81,-117.62"/>
<polygon fill="#63b8ff" stroke="#63b8ff" points="198.54,-121.04 207.6,-115.56 197.09,-114.19 198.54,-121.04"/>
</a>
</g>
</g>
<!-- Node4&#45;&gt;Node4 -->
<g id="edge10_Node000004_Node000004" class="edge">
<title>Node4&#45;&gt;Node4</title>
<g id="a_edge10_Node000004_Node000004"><a xlink:title=" ">
<path fill="none" stroke="#63b8ff" d="M236.12,-115.58C227.42,-124.23 233.38,-133.5 254,-133.5 266.89,-133.5 274.05,-129.88 275.48,-125.05"/>
<polygon fill="#63b8ff" stroke="#63b8ff" points="278.7,-123.69 271.88,-115.58 272.16,-126.17 278.7,-123.69"/>
</a>
</g>
</g>
<!-- Node5 -->
<g id="Node000005" class="node">
<title>Node5</title>
<g id="a_Node000005"><a xlink:href="classttg_1_1_terminal_base.html#a57202041203e7ed427c3f2fe28d39e7b" target="_top" xlink:title="Returns the terminal type.">
<polygon fill="white" stroke="#666666" points="455,-164 342,-164 342,-134 455,-134 455,-164"/>
<text text-anchor="start" x="350" y="-152" font-family="Times,serif" font-size="10.00">ttg::TerminalBase::</text>
<text text-anchor="middle" x="398.5" y="-141" font-family="Times,serif" font-size="10.00">get_type</text>
</a>
</g>
</g>
<!-- Node4&#45;&gt;Node5 -->
<g id="edge5_Node000004_Node000005" class="edge">
<title>Node4&#45;&gt;Node5</title>
<g id="a_edge5_Node000004_Node000005"><a xlink:title=" ">
<path fill="none" stroke="#63b8ff" d="M286.63,-115.54C301.78,-120.12 320.43,-125.74 338.09,-131.07"/>
<polygon fill="#63b8ff" stroke="#63b8ff" points="337.19,-134.46 347.77,-133.99 339.21,-127.75 337.19,-134.46"/>
</a>
</g>
</g>
<!-- Node6 -->
<g id="Node000006" class="node">
<title>Node6</title>
<g id="a_Node000006"><a xlink:href="classttg_1_1_out_terminal_base.html#a19283a6990d4c46f7c74fbaab4fddce5" target="_top" xlink:title=" ">
<polygon fill="white" stroke="#666666" points="461,-78 336,-78 336,-48 461,-48 461,-78"/>
<text text-anchor="start" x="344" y="-66" font-family="Times,serif" font-size="10.00">ttg::OutTerminalBase</text>
<text text-anchor="middle" x="398.5" y="-55" font-family="Times,serif" font-size="10.00">::nsuccessors</text>
</a>
</g>
</g>
<!-- Node4&#45;&gt;Node6 -->
<g id="edge6_Node000004_Node000006" class="edge">
<title>Node4&#45;&gt;Node6</title>
<g id="a_edge6_Node000004_Node000006"><a xlink:title=" ">
<path fill="none" stroke="#63b8ff" d="M286.63,-96.46C301.78,-91.88 320.43,-86.26 338.09,-80.93"/>
<polygon fill="#63b8ff" stroke="#63b8ff" points="339.21,-84.25 347.77,-78.01 337.19,-77.54 339.21,-84.25"/>
</a>
</g>
</g>
<!-- Node8 -->
<g id="Node000008" class="node">
<title>Node8</title>
<g id="a_Node000008"><a xlink:href="classttg_1_1_in.html#a7c9662d2c659f82f611354178d3776af" target="_top" xlink:title=" ">
<polygon fill="white" stroke="#666666" points="440.5,-115.5 356.5,-115.5 356.5,-96.5 440.5,-96.5 440.5,-115.5"/>
<text text-anchor="middle" x="398.5" y="-103.5" font-family="Times,serif" font-size="10.00">ttg::In::sendv</text>
</a>
</g>
</g>
<!-- Node4&#45;&gt;Node8 -->
<g id="edge8_Node000004_Node000008" class="edge">
<title>Node4&#45;&gt;Node8</title>
<g id="a_edge8_Node000004_Node000008"><a xlink:title=" ">
<path fill="none" stroke="#63b8ff" d="M300.09,-106C314.66,-106 330.93,-106 345.94,-106"/>
<polygon fill="#63b8ff" stroke="#63b8ff" points="346.09,-109.5 356.09,-106 346.09,-102.5 346.09,-109.5"/>
</a>
</g>
</g>
<!-- Node9 -->
<g id="Node000009" class="node">
<title>Node9</title>
<g id="a_Node000009"><a xlink:href="classttg_1_1_out_terminal_base.html#aa0341fd67b25363d5c45d77646294cf9" target="_top" xlink:title=" ">
<polygon fill="white" stroke="#666666" points="461,-30 336,-30 336,0 461,0 461,-30"/>
<text text-anchor="start" x="344" y="-18" font-family="Times,serif" font-size="10.00">ttg::OutTerminalBase</text>
<text text-anchor="middle" x="398.5" y="-7" font-family="Times,serif" font-size="10.00">::successors</text>
</a>
</g>
</g>
<!-- Node4&#45;&gt;Node9 -->
<g id="edge11_Node000004_Node000009" class="edge">
<title>Node4&#45;&gt;Node9</title>
<g id="a_edge11_Node000004_Node000009"><a xlink:title=" ">
<path fill="none" stroke="#63b8ff" d="M264.69,-96.19C279.14,-82.01 307.68,-55.65 336,-39 338.68,-37.42 341.48,-35.91 344.35,-34.47"/>
<polygon fill="#63b8ff" stroke="#63b8ff" points="346.1,-37.51 353.67,-30.1 343.13,-31.18 346.1,-37.51"/>
</a>
</g>
</g>
<!-- Node7 -->
<g id="Node000007" class="node">
<title>Node7</title>
<g id="a_Node000007"><a xlink:href="classttg_1_1_terminal_base.html#ab21d3f0050249488606592cfe99c3409" target="_top" xlink:title="Get connections to successors.">
<polygon fill="white" stroke="#666666" points="610,-66 497,-66 497,-36 610,-36 610,-66"/>
<text text-anchor="start" x="505" y="-54" font-family="Times,serif" font-size="10.00">ttg::TerminalBase::</text>
<text text-anchor="middle" x="553.5" y="-43" font-family="Times,serif" font-size="10.00">get_connections</text>
</a>
</g>
</g>
<!-- Node6&#45;&gt;Node7 -->
<g id="edge7_Node000006_Node000007" class="edge">
<title>Node6&#45;&gt;Node7</title>
<g id="a_edge7_Node000006_Node000007"><a xlink:title=" ">
<path fill="none" stroke="#63b8ff" d="M461.29,-58.15C469.66,-57.5 478.28,-56.82 486.72,-56.16"/>
<polygon fill="#63b8ff" stroke="#63b8ff" points="487.2,-59.63 496.9,-55.36 486.65,-52.65 487.2,-59.63"/>
</a>
</g>
</g>
<!-- Node8&#45;&gt;Node2 -->
<g id="edge9_Node000008_Node000002" class="edge">
<title>Node8&#45;&gt;Node2</title>
<g id="a_edge9_Node000008_Node000002"><a xlink:title=" ">
<path fill="none" stroke="#63b8ff" d="M440.5,-109.22C459.04,-110.67 481.16,-112.4 500.83,-113.95"/>
<polygon fill="#63b8ff" stroke="#63b8ff" points="500.61,-117.44 510.85,-114.73 501.16,-110.46 500.61,-117.44"/>
</a>
</g>
</g>
<!-- Node9&#45;&gt;Node7 -->
<g id="edge12_Node000009_Node000007" class="edge">
<title>Node9&#45;&gt;Node7</title>
<g id="a_edge12_Node000009_Node000007"><a xlink:title=" ">
<path fill="none" stroke="#63b8ff" d="M461.29,-29.54C469.75,-31.53 478.47,-33.58 487,-35.59"/>
<polygon fill="#63b8ff" stroke="#63b8ff" points="486.36,-39.03 496.9,-37.92 487.96,-32.22 486.36,-39.03"/>
</a>
</g>
</g>
</g>
</svg>

<g id="navigator" transform="translate(0 0)" fill="#404254">
  <rect fill="#f2f5e9" fill-opacity="0.5" stroke="#606060" stroke-width=".5" x="0" y="0" width="60" height="60"/>
  <use id="zoomplus" xlink:href="#zoomPlus" x="17" y="9" onmousedown="handleZoom(evt,'in')"/>
  <use id="zoomminus" xlink:href="#zoomMin" x="42" y="9" onmousedown="handleZoom(evt,'out')"/>
  <use id="reset" xlink:href="#resetDef" x="30" y="36" onmousedown="handleReset()"/>
   <use id="arrowup" xlink:href="#arrowUp" x="0" y="0" onmousedown="handlePan(0,-1)"/>
  <use id="arrowright" xlink:href="#arrowRight" x="0" y="0" onmousedown="handlePan(1,0)"/>
  <use id="arrowdown" xlink:href="#arrowDown" x="0" y="0" onmousedown="handlePan(0,1)"/>
  <use id="arrowleft" xlink:href="#arrowLeft" x="0" y="0" onmousedown="handlePan(-1,0)"/>
</g>
<svg viewBox="0 0 15 15" width="100%" height="30px" preserveAspectRatio="xMaxYMin meet">
 <g id="arrow_out" transform="scale(0.3 0.3)">
  <a xlink:href="namespacettg_aec6fd6a228d0400a690001fd5171b468_cgraph_org.svg" target="_base">
   <rect id="button" ry="5" rx="5" y="6" x="6" height="38" width="38"
        fill="#f2f5e9" fill-opacity="0.5" stroke="#606060" stroke-width="1.0"/>
   <path id="arrow"
     d="M 11.500037,31.436501 C 11.940474,20.09759 22.043105,11.32322 32.158766,21.979434 L 37.068811,17.246167 C 37.068811,17.246167 37.088388,32 37.088388,32 L 22.160133,31.978069 C 22.160133,31.978069 26.997745,27.140456 26.997745,27.140456 C 18.528582,18.264221 13.291696,25.230495 11.500037,31.436501 z"
     style="fill:#404040;"/>
  </a>
 </g>
</svg>

<style type='text/css'>
<![CDATA[
[data-mouse-over-selected='false'] { opacity: 0.7; }
[data-mouse-over-selected='true']  { opacity: 1.0; }
]]>
</style>
<script type="application/ecmascript"><![CDATA[
document.addEventListener('DOMContentLoaded', (event) => {
  highlightEdges();
  highlightAdjacentNodes();
});
]]></script>
</svg>
