<?xml version="1.0" encoding="UTF-8" standalone="no"?>
<!DOCTYPE svg PUBLIC "-//W3C//DTD SVG 1.1//EN"
 "http://www.w3.org/Graphics/SVG/1.1/DTD/svg11.dtd">
<!-- Generated by graphviz version 2.43.0 (0)
 -->
<!-- Title: ttg::detail::tt_base_trace_accessor Pages: 1 -->
<svg width="468pt" height="145pt"
 viewBox="0.00 0.00 468.00 145.00" xmlns="http://www.w3.org/2000/svg" xmlns:xlink="http://www.w3.org/1999/xlink">
<g id="graph0" class="graph" transform="scale(1 1) rotate(0) translate(4 141)">
<title>ttg::detail::tt_base_trace_accessor</title>
<!-- Node1 -->
<g id="Node000001" class="node">
<title>Node1</title>
<g id="a_Node000001"><a xlink:title=" ">
<polygon fill="#999999" stroke="#666666" points="108,-80 0,-80 0,-50 108,-50 108,-80"/>
<text text-anchor="start" x="8" y="-68" font-family="Times,serif" font-size="10.00">ttg::detail::tt_base</text>
<text text-anchor="middle" x="54" y="-57" font-family="Times,serif" font-size="10.00">_trace_accessor</text>
</a>
</g>
</g>
<!-- Node2 -->
<g id="Node000002" class="node">
<title>Node2</title>
<g id="a_Node000002"><a xlink:href="namespacettg.html#af5e470229c1ddef41b83b6398a5dc583" target="_top" xlink:title=" ">
<polygon fill="white" stroke="#666666" points="206,-74.5 144,-74.5 144,-55.5 206,-55.5 206,-74.5"/>
<text text-anchor="middle" x="175" y="-62.5" font-family="Times,serif" font-size="10.00">ttg::trace</text>
</a>
</g>
</g>
<!-- Node1&#45;&gt;Node2 -->
<g id="edge1_Node000001_Node000002" class="edge">
<title>Node1&#45;&gt;Node2</title>
<g id="a_edge1_Node000001_Node000002"><a xlink:title=" ">
<path fill="none" stroke="#63b8ff" d="M108.23,-65C116.85,-65 125.64,-65 133.88,-65"/>
<polygon fill="#63b8ff" stroke="#63b8ff" points="133.96,-68.5 143.96,-65 133.96,-61.5 133.96,-68.5"/>
</a>
</g>
</g>
<!-- Node3 -->
<g id="Node000003" class="node">
<title>Node3</title>
<g id="a_Node000003"><a xlink:href="namespacettg.html#aacacfe8bc9582308a405c4370650a9d4" target="_top" xlink:title="atomically prints to std::clog a sequence of items (separated by ttg::print_separator) followed by st...">
<polygon fill="white" stroke="#666666" points="305,-131.5 252,-131.5 252,-112.5 305,-112.5 305,-131.5"/>
<text text-anchor="middle" x="278.5" y="-119.5" font-family="Times,serif" font-size="10.00">ttg::log</text>
</a>
</g>
</g>
<!-- Node2&#45;&gt;Node3 -->
<g id="edge2_Node000002_Node000003" class="edge">
<title>Node2&#45;&gt;Node3</title>
<g id="a_edge2_Node000002_Node000003"><a xlink:title=" ">
<path fill="none" stroke="#63b8ff" d="M193.22,-74.67C209.28,-83.69 233.46,-97.27 251.8,-107.57"/>
<polygon fill="#63b8ff" stroke="#63b8ff" points="250.1,-110.63 260.54,-112.47 253.53,-104.53 250.1,-110.63"/>
</a>
</g>
</g>
<!-- Node5 -->
<g id="Node000005" class="node">
<title>Node5</title>
<g id="a_Node000005"><a xlink:href="namespacettg.html#afbdd9c742be395e0746fdbc26c7d55cc" target="_top" xlink:title="returns whether tracing was enabled at configure time">
<polygon fill="white" stroke="#666666" points="460,-81.5 351,-81.5 351,-62.5 460,-62.5 460,-81.5"/>
<text text-anchor="middle" x="405.5" y="-69.5" font-family="Times,serif" font-size="10.00">ttg::trace_enabled</text>
</a>
</g>
</g>
<!-- Node2&#45;&gt;Node5 -->
<g id="edge4_Node000002_Node000005" class="edge">
<title>Node2&#45;&gt;Node5</title>
<g id="a_edge4_Node000002_Node000005"><a xlink:title=" ">
<path fill="none" stroke="#63b8ff" d="M206.34,-65.93C240.47,-66.97 296.85,-68.7 340.77,-70.05"/>
<polygon fill="#63b8ff" stroke="#63b8ff" points="340.69,-73.55 350.79,-70.35 340.9,-66.55 340.69,-73.55"/>
</a>
</g>
</g>
<!-- Node6 -->
<g id="Node000006" class="node">
<title>Node6</title>
<g id="a_Node000006"><a xlink:href="namespacettg.html#abfb8501d408a1ed918cc2a540865a2d8" target="_top" xlink:title="returns whether tracing is enabled">
<polygon fill="white" stroke="#666666" points="315,-55.5 242,-55.5 242,-36.5 315,-36.5 315,-55.5"/>
<text text-anchor="middle" x="278.5" y="-43.5" font-family="Times,serif" font-size="10.00">ttg::tracing</text>
</a>
</g>
</g>
<!-- Node2&#45;&gt;Node6 -->
<g id="edge5_Node000002_Node000006" class="edge">
<title>Node2&#45;&gt;Node6</title>
<g id="a_edge5_Node000002_Node000006"><a xlink:title=" ">
<path fill="none" stroke="#63b8ff" d="M206.18,-59.35C214.24,-57.84 223.14,-56.18 231.84,-54.55"/>
<polygon fill="#63b8ff" stroke="#63b8ff" points="232.71,-57.95 241.89,-52.67 231.42,-51.07 232.71,-57.95"/>
</a>
</g>
</g>
<!-- Node4 -->
<g id="Node000004" class="node">
<title>Node4</title>
<g id="a_Node000004"><a xlink:href="namespacettg_1_1detail.html#a26e07486d5ef8eb5735a8975991a7693" target="_top" xlink:title=" ">
<polygon fill="white" stroke="#666666" points="453.5,-137 357.5,-137 357.5,-107 453.5,-107 453.5,-137"/>
<text text-anchor="start" x="365.5" y="-125" font-family="Times,serif" font-size="10.00">ttg::detail::print</text>
<text text-anchor="middle" x="405.5" y="-114" font-family="Times,serif" font-size="10.00">_helper</text>
</a>
</g>
</g>
<!-- Node3&#45;&gt;Node4 -->
<g id="edge3_Node000003_Node000004" class="edge">
<title>Node3&#45;&gt;Node4</title>
<g id="a_edge3_Node000003_Node000004"><a xlink:title=" ">
<path fill="none" stroke="#63b8ff" d="M305.1,-122C317.34,-122 332.53,-122 347.32,-122"/>
<polygon fill="#63b8ff" stroke="#63b8ff" points="347.46,-125.5 357.46,-122 347.46,-118.5 347.46,-125.5"/>
</a>
</g>
</g>
<!-- Node6&#45;&gt;Node5 -->
<g id="edge8_Node000006_Node000005" class="edge">
<title>Node6&#45;&gt;Node5</title>
<g id="a_edge8_Node000006_Node000005"><a xlink:title=" ">
<path fill="none" stroke="#63b8ff" d="M315.32,-53.45C325.7,-55.61 337.29,-58.02 348.58,-60.37"/>
<polygon fill="#63b8ff" stroke="#63b8ff" points="347.89,-63.8 358.4,-62.41 349.32,-56.95 347.89,-63.8"/>
</a>
</g>
</g>
<!-- Node7 -->
<g id="Node000007" class="node">
<title>Node7</title>
<g id="a_Node000007"><a xlink:href="namespacettg_1_1detail.html#a95356c3874e7ec9268a40feb4fc1519f" target="_top" xlink:title=" ">
<polygon fill="white" stroke="#666666" points="454,-30 357,-30 357,0 454,0 454,-30"/>
<text text-anchor="start" x="365" y="-18" font-family="Times,serif" font-size="10.00">ttg::detail::trace</text>
<text text-anchor="middle" x="405.5" y="-7" font-family="Times,serif" font-size="10.00">_accessor</text>
</a>
</g>
</g>
<!-- Node6&#45;&gt;Node7 -->
<g id="edge6_Node000006_Node000007" class="edge">
<title>Node6&#45;&gt;Node7</title>
<g id="a_edge6_Node000006_Node000007"><a xlink:title=" ">
<path fill="none" stroke="#63b8ff" d="M315.32,-37.12C325.15,-34.68 336.07,-31.97 346.79,-29.31"/>
<polygon fill="#63b8ff" stroke="#63b8ff" points="347.69,-32.69 356.56,-26.89 346.01,-25.9 347.69,-32.69"/>
</a>
</g>
</g>
<!-- Node7&#45;&gt;Node2 -->
<g id="edge7_Node000007_Node000002" class="edge">
<title>Node7&#45;&gt;Node2</title>
<g id="a_edge7_Node000007_Node000002"><a xlink:title=" ">
<path fill="none" stroke="#63b8ff" d="M356.89,-12.99C323.94,-12.93 279.45,-15.49 242,-27 225.93,-31.94 209.54,-41.34 197.12,-49.56"/>
<polygon fill="#63b8ff" stroke="#63b8ff" points="195.09,-46.71 188.83,-55.25 199.06,-52.48 195.09,-46.71"/>
</a>
</g>
</g>
</g>
</svg>
