<?xml version="1.0" encoding="UTF-8" standalone="no"?>
<!DOCTYPE svg PUBLIC "-//W3C//DTD SVG 1.1//EN"
 "http://www.w3.org/Graphics/SVG/1.1/DTD/svg11.dtd">
<!-- Generated by graphviz version 2.43.0 (0)
 -->
<!-- Title: ttg::broadcastk Pages: 1 -->
<svg width="380pt" height="45pt"
 viewBox="0.00 0.00 380.00 45.00" xmlns="http://www.w3.org/2000/svg" xmlns:xlink="http://www.w3.org/1999/xlink">
<g id="graph0" class="graph" transform="scale(1 1) rotate(0) translate(4 41)">
<title>ttg::broadcastk</title>
<!-- Node1 -->
<g id="Node000001" class="node">
<title>Node1</title>
<g id="a_Node000001"><a xlink:title=" ">
<polygon fill="#999999" stroke="#666666" points="93,-19 0,-19 0,0 93,0 93,-19"/>
<text text-anchor="middle" x="46.5" y="-7" font-family="Times,serif" font-size="10.00">ttg::broadcastk</text>
</a>
</g>
</g>
<!-- Node2 -->
<g id="Node000002" class="node">
<title>Node2</title>
<g id="a_Node000002"><a xlink:href="namespacettg_1_1detail.html#adc8ad44fcad6d0781a817bfd5f7a9ce6" target="_top" xlink:title=" ">
<polygon fill="white" stroke="#666666" points="251,-19 129,-19 129,0 251,0 251,-19"/>
<text text-anchor="middle" x="190" y="-7" font-family="Times,serif" font-size="10.00">ttg::detail::broadcast</text>
</a>
</g>
</g>
<!-- Node1&#45;&gt;Node2 -->
<g id="edge1_Node000001_Node000002" class="edge">
<title>Node1&#45;&gt;Node2</title>
<g id="a_edge1_Node000001_Node000002"><a xlink:title=" ">
<path fill="none" stroke="#63b8ff" d="M93.05,-9.5C101.24,-9.5 109.94,-9.5 118.64,-9.5"/>
<polygon fill="#63b8ff" stroke="#63b8ff" points="118.82,-13 128.82,-9.5 118.82,-6 118.82,-13"/>
</a>
</g>
</g>
<!-- Node2&#45;&gt;Node2 -->
<g id="edge2_Node000002_Node000002" class="edge">
<title>Node2&#45;&gt;Node2</title>
<g id="a_edge2_Node000002_Node000002"><a xlink:title=" ">
<path fill="none" stroke="#63b8ff" d="M168.73,-19.08C158.38,-27.73 165.47,-37 190,-37 205.71,-37 214.27,-33.2 215.67,-28.19"/>
<polygon fill="#63b8ff" stroke="#63b8ff" points="218.77,-26.56 211.27,-19.08 212.47,-29.61 218.77,-26.56"/>
</a>
</g>
</g>
<!-- Node3 -->
<g id="Node000003" class="node">
<title>Node3</title>
<g id="a_Node000003"><a xlink:href="namespacettg_1_1meta.html#affd90f350d054c6a5b4859644d834172" target="_top" xlink:title=" ">
<polygon fill="white" stroke="#666666" points="372,-19 287,-19 287,0 372,0 372,-19"/>
<text text-anchor="middle" x="329.5" y="-7" font-family="Times,serif" font-size="10.00">ttg::meta::get</text>
</a>
</g>
</g>
<!-- Node2&#45;&gt;Node3 -->
<g id="edge3_Node000002_Node000003" class="edge">
<title>Node2&#45;&gt;Node3</title>
<g id="a_edge3_Node000002_Node000003"><a xlink:title=" ">
<path fill="none" stroke="#63b8ff" d="M251.31,-9.5C259.73,-9.5 268.33,-9.5 276.57,-9.5"/>
<polygon fill="#63b8ff" stroke="#63b8ff" points="276.8,-13 286.8,-9.5 276.8,-6 276.8,-13"/>
</a>
</g>
</g>
<!-- Node3&#45;&gt;Node3 -->
<g id="edge4_Node000003_Node000003" class="edge">
<title>Node3&#45;&gt;Node3</title>
<g id="a_edge4_Node000003_Node000003"><a xlink:title=" ">
<path fill="none" stroke="#63b8ff" d="M308.23,-19.08C297.88,-27.73 304.97,-37 329.5,-37 345.21,-37 353.77,-33.2 355.17,-28.19"/>
<polygon fill="#63b8ff" stroke="#63b8ff" points="358.27,-26.56 350.77,-19.08 351.97,-29.61 358.27,-26.56"/>
</a>
</g>
</g>
</g>
</svg>
