<?xml version="1.0" encoding="UTF-8" standalone="no"?>
<!DOCTYPE svg PUBLIC "-//W3C//DTD SVG 1.1//EN"
 "http://www.w3.org/Graphics/SVG/1.1/DTD/svg11.dtd">
<!-- Generated by graphviz version 2.43.0 (0)
 -->
<!-- Title: ttg::trace Pages: 1 -->
<svg width="324pt" height="145pt"
 viewBox="0.00 0.00 324.00 145.00" xmlns="http://www.w3.org/2000/svg" xmlns:xlink="http://www.w3.org/1999/xlink">
<g id="graph0" class="graph" transform="scale(1 1) rotate(0) translate(4 141)">
<title>ttg::trace</title>
<!-- Node1 -->
<g id="Node000001" class="node">
<title>Node1</title>
<g id="a_Node000001"><a xlink:title=" ">
<polygon fill="#999999" stroke="#666666" points="62,-74.5 0,-74.5 0,-55.5 62,-55.5 62,-74.5"/>
<text text-anchor="middle" x="31" y="-62.5" font-family="Times,serif" font-size="10.00">ttg::trace</text>
</a>
</g>
</g>
<!-- Node2 -->
<g id="Node000002" class="node">
<title>Node2</title>
<g id="a_Node000002"><a xlink:href="namespacettg.html#aacacfe8bc9582308a405c4370650a9d4" target="_top" xlink:title="atomically prints to std::clog a sequence of items (separated by ttg::print_separator) followed by st...">
<polygon fill="white" stroke="#666666" points="161,-131.5 108,-131.5 108,-112.5 161,-112.5 161,-131.5"/>
<text text-anchor="middle" x="134.5" y="-119.5" font-family="Times,serif" font-size="10.00">ttg::log</text>
</a>
</g>
</g>
<!-- Node1&#45;&gt;Node2 -->
<g id="edge1_Node000001_Node000002" class="edge">
<title>Node1&#45;&gt;Node2</title>
<g id="a_edge1_Node000001_Node000002"><a xlink:title=" ">
<path fill="none" stroke="#63b8ff" d="M49.22,-74.67C65.28,-83.69 89.46,-97.27 107.8,-107.57"/>
<polygon fill="#63b8ff" stroke="#63b8ff" points="106.1,-110.63 116.54,-112.47 109.53,-104.53 106.1,-110.63"/>
</a>
</g>
</g>
<!-- Node4 -->
<g id="Node000004" class="node">
<title>Node4</title>
<g id="a_Node000004"><a xlink:href="namespacettg.html#afbdd9c742be395e0746fdbc26c7d55cc" target="_top" xlink:title="returns whether tracing was enabled at configure time">
<polygon fill="white" stroke="#666666" points="316,-81.5 207,-81.5 207,-62.5 316,-62.5 316,-81.5"/>
<text text-anchor="middle" x="261.5" y="-69.5" font-family="Times,serif" font-size="10.00">ttg::trace_enabled</text>
</a>
</g>
</g>
<!-- Node1&#45;&gt;Node4 -->
<g id="edge3_Node000001_Node000004" class="edge">
<title>Node1&#45;&gt;Node4</title>
<g id="a_edge3_Node000001_Node000004"><a xlink:title=" ">
<path fill="none" stroke="#63b8ff" d="M62.34,-65.93C96.47,-66.97 152.85,-68.7 196.77,-70.05"/>
<polygon fill="#63b8ff" stroke="#63b8ff" points="196.69,-73.55 206.79,-70.35 196.9,-66.55 196.69,-73.55"/>
</a>
</g>
</g>
<!-- Node5 -->
<g id="Node000005" class="node">
<title>Node5</title>
<g id="a_Node000005"><a xlink:href="namespacettg.html#abfb8501d408a1ed918cc2a540865a2d8" target="_top" xlink:title="returns whether tracing is enabled">
<polygon fill="white" stroke="#666666" points="171,-55.5 98,-55.5 98,-36.5 171,-36.5 171,-55.5"/>
<text text-anchor="middle" x="134.5" y="-43.5" font-family="Times,serif" font-size="10.00">ttg::tracing</text>
</a>
</g>
</g>
<!-- Node1&#45;&gt;Node5 -->
<g id="edge4_Node000001_Node000005" class="edge">
<title>Node1&#45;&gt;Node5</title>
<g id="a_edge4_Node000001_Node000005"><a xlink:title=" ">
<path fill="none" stroke="#63b8ff" d="M62.18,-59.35C70.24,-57.84 79.14,-56.18 87.84,-54.55"/>
<polygon fill="#63b8ff" stroke="#63b8ff" points="88.71,-57.95 97.89,-52.67 87.42,-51.07 88.71,-57.95"/>
</a>
</g>
</g>
<!-- Node3 -->
<g id="Node000003" class="node">
<title>Node3</title>
<g id="a_Node000003"><a xlink:href="namespacettg_1_1detail.html#a26e07486d5ef8eb5735a8975991a7693" target="_top" xlink:title=" ">
<polygon fill="white" stroke="#666666" points="309.5,-137 213.5,-137 213.5,-107 309.5,-107 309.5,-137"/>
<text text-anchor="start" x="221.5" y="-125" font-family="Times,serif" font-size="10.00">ttg::detail::print</text>
<text text-anchor="middle" x="261.5" y="-114" font-family="Times,serif" font-size="10.00">_helper</text>
</a>
</g>
</g>
<!-- Node2&#45;&gt;Node3 -->
<g id="edge2_Node000002_Node000003" class="edge">
<title>Node2&#45;&gt;Node3</title>
<g id="a_edge2_Node000002_Node000003"><a xlink:title=" ">
<path fill="none" stroke="#63b8ff" d="M161.1,-122C173.34,-122 188.53,-122 203.32,-122"/>
<polygon fill="#63b8ff" stroke="#63b8ff" points="203.46,-125.5 213.46,-122 203.46,-118.5 203.46,-125.5"/>
</a>
</g>
</g>
<!-- Node5&#45;&gt;Node4 -->
<g id="edge7_Node000005_Node000004" class="edge">
<title>Node5&#45;&gt;Node4</title>
<g id="a_edge7_Node000005_Node000004"><a xlink:title=" ">
<path fill="none" stroke="#63b8ff" d="M171.32,-53.45C181.7,-55.61 193.29,-58.02 204.58,-60.37"/>
<polygon fill="#63b8ff" stroke="#63b8ff" points="203.89,-63.8 214.4,-62.41 205.32,-56.95 203.89,-63.8"/>
</a>
</g>
</g>
<!-- Node6 -->
<g id="Node000006" class="node">
<title>Node6</title>
<g id="a_Node000006"><a xlink:href="namespacettg_1_1detail.html#a95356c3874e7ec9268a40feb4fc1519f" target="_top" xlink:title=" ">
<polygon fill="white" stroke="#666666" points="310,-30 213,-30 213,0 310,0 310,-30"/>
<text text-anchor="start" x="221" y="-18" font-family="Times,serif" font-size="10.00">ttg::detail::trace</text>
<text text-anchor="middle" x="261.5" y="-7" font-family="Times,serif" font-size="10.00">_accessor</text>
</a>
</g>
</g>
<!-- Node5&#45;&gt;Node6 -->
<g id="edge5_Node000005_Node000006" class="edge">
<title>Node5&#45;&gt;Node6</title>
<g id="a_edge5_Node000005_Node000006"><a xlink:title=" ">
<path fill="none" stroke="#63b8ff" d="M171.32,-37.12C181.15,-34.68 192.07,-31.97 202.79,-29.31"/>
<polygon fill="#63b8ff" stroke="#63b8ff" points="203.69,-32.69 212.56,-26.89 202.01,-25.9 203.69,-32.69"/>
</a>
</g>
</g>
<!-- Node6&#45;&gt;Node1 -->
<g id="edge6_Node000006_Node000001" class="edge">
<title>Node6&#45;&gt;Node1</title>
<g id="a_edge6_Node000006_Node000001"><a xlink:title=" ">
<path fill="none" stroke="#63b8ff" d="M212.89,-12.99C179.94,-12.93 135.45,-15.49 98,-27 81.93,-31.94 65.54,-41.34 53.12,-49.56"/>
<polygon fill="#63b8ff" stroke="#63b8ff" points="51.09,-46.71 44.83,-55.25 55.06,-52.48 51.09,-46.71"/>
</a>
</g>
</g>
</g>
</svg>
