<?xml version="1.0" encoding="UTF-8" standalone="no"?>
<!DOCTYPE svg PUBLIC "-//W3C//DTD SVG 1.1//EN"
 "http://www.w3.org/Graphics/SVG/1.1/DTD/svg11.dtd">
<!-- Generated by graphviz version 2.43.0 (0)
 -->
<!-- Title: ttg_parsec::detail::mark_device_out Pages: 1 -->
<svg width="315pt" height="56pt"
 viewBox="0.00 0.00 315.00 56.00" xmlns="http://www.w3.org/2000/svg" xmlns:xlink="http://www.w3.org/1999/xlink">
<g id="graph0" class="graph" transform="scale(1 1) rotate(0) translate(4 52)">
<title>ttg_parsec::detail::mark_device_out</title>
<!-- Node1 -->
<g id="Node000001" class="node">
<title>Node1</title>
<g id="a_Node000001"><a xlink:title=" ">
<polygon fill="#999999" stroke="#666666" points="307,-30 198,-30 198,0 307,0 307,-30"/>
<text text-anchor="start" x="206" y="-18" font-family="Times,serif" font-size="10.00">ttg_parsec::detail</text>
<text text-anchor="middle" x="252.5" y="-7" font-family="Times,serif" font-size="10.00">::mark_device_out</text>
</a>
</g>
</g>
<!-- Node1&#45;&gt;Node1 -->
<g id="edge2_Node000001_Node000001" class="edge">
<title>Node1&#45;&gt;Node1</title>
<g id="a_edge2_Node000001_Node000001"><a xlink:title=" ">
<path fill="none" stroke="#63b8ff" d="M282.26,-40.6C278.19,-44.97 268.27,-48 252.5,-48 225.94,-48 215.98,-39.41 222.62,-30.28"/>
<polygon fill="#63b8ff" stroke="#63b8ff" points="285.76,-40.32 282.38,-30.28 278.76,-40.23 285.76,-40.32"/>
</a>
</g>
</g>
<!-- Node2 -->
<g id="Node000002" class="node">
<title>Node2</title>
<g id="a_Node000002"><a xlink:href="namespacettg__parsec.html#af9c1968d2d71fd832f8f0292aaf58979" target="_top" xlink:title=" ">
<polygon fill="white" stroke="#666666" points="162,-24.5 0,-24.5 0,-5.5 162,-5.5 162,-24.5"/>
<text text-anchor="middle" x="81" y="-12.5" font-family="Times,serif" font-size="10.00">ttg_parsec::mark_device_out</text>
</a>
</g>
</g>
<!-- Node1&#45;&gt;Node2 -->
<g id="edge1_Node000001_Node000002" class="edge">
<title>Node1&#45;&gt;Node2</title>
<g id="a_edge1_Node000001_Node000002"><a xlink:title=" ">
<path fill="none" stroke="#63b8ff" d="M187.84,-15C179.47,-15 170.81,-15 162.22,-15"/>
<polygon fill="#63b8ff" stroke="#63b8ff" points="187.87,-18.5 197.87,-15 187.87,-11.5 187.87,-18.5"/>
</a>
</g>
</g>
</g>
</svg>
