<?xml version="1.0" encoding="UTF-8" standalone="no"?>
<!DOCTYPE svg PUBLIC "-//W3C//DTD SVG 1.1//EN"
 "http://www.w3.org/Graphics/SVG/1.1/DTD/svg11.dtd">
<!-- Generated by graphviz version 2.43.0 (0)
 -->
<!-- Title: ttg_madness::ttg_abort Pages: 1 -->
<svg width="485pt" height="38pt"
 viewBox="0.00 0.00 485.00 38.00" xmlns="http://www.w3.org/2000/svg" xmlns:xlink="http://www.w3.org/1999/xlink">
<g id="graph0" class="graph" transform="scale(1 1) rotate(0) translate(4 34)">
<title>ttg_madness::ttg_abort</title>
<!-- Node1 -->
<g id="Node000001" class="node">
<title>Node1</title>
<g id="a_Node000001"><a xlink:title=" ">
<polygon fill="#999999" stroke="#666666" points="134,-24.5 0,-24.5 0,-5.5 134,-5.5 134,-24.5"/>
<text text-anchor="middle" x="67" y="-12.5" font-family="Times,serif" font-size="10.00">ttg_madness::ttg_abort</text>
</a>
</g>
</g>
<!-- Node2 -->
<g id="Node000002" class="node">
<title>Node2</title>
<g id="a_Node000002"><a xlink:href="namespacettg__madness.html#afdf4fa1d2bd497283e589f93d13047d7" target="_top" xlink:title=" ">
<polygon fill="white" stroke="#666666" points="313,-30 170,-30 170,0 313,0 313,-30"/>
<text text-anchor="start" x="178" y="-18" font-family="Times,serif" font-size="10.00">ttg_madness::ttg_default</text>
<text text-anchor="middle" x="241.5" y="-7" font-family="Times,serif" font-size="10.00">_execution_context</text>
</a>
</g>
</g>
<!-- Node1&#45;&gt;Node2 -->
<g id="edge1_Node000001_Node000002" class="edge">
<title>Node1&#45;&gt;Node2</title>
<g id="a_edge1_Node000001_Node000002"><a xlink:title=" ">
<path fill="none" stroke="#63b8ff" d="M134.2,-15C142.6,-15 151.27,-15 159.86,-15"/>
<polygon fill="#63b8ff" stroke="#63b8ff" points="159.89,-18.5 169.89,-15 159.89,-11.5 159.89,-18.5"/>
</a>
</g>
</g>
<!-- Node3 -->
<g id="Node000003" class="node">
<title>Node3</title>
<g id="a_Node000003"><a xlink:href="namespacettg.html#a5829b255a41f2e47fa0e27bb5c791824" target="_top" xlink:title=" ">
<polygon fill="white" stroke="#666666" points="477,-24.5 349,-24.5 349,-5.5 477,-5.5 477,-24.5"/>
<text text-anchor="middle" x="413" y="-12.5" font-family="Times,serif" font-size="10.00">ttg::get_default_world</text>
</a>
</g>
</g>
<!-- Node2&#45;&gt;Node3 -->
<g id="edge2_Node000002_Node000003" class="edge">
<title>Node2&#45;&gt;Node3</title>
<g id="a_edge2_Node000002_Node000003"><a xlink:title=" ">
<path fill="none" stroke="#63b8ff" d="M313.4,-15C321.79,-15 330.36,-15 338.77,-15"/>
<polygon fill="#63b8ff" stroke="#63b8ff" points="338.94,-18.5 348.94,-15 338.94,-11.5 338.94,-18.5"/>
</a>
</g>
</g>
</g>
</svg>
