<?xml version="1.0" encoding="UTF-8" standalone="no"?>
<!DOCTYPE svg PUBLIC "-//W3C//DTD SVG 1.1//EN"
 "http://www.w3.org/Graphics/SVG/1.1/DTD/svg11.dtd">
<!-- Generated by graphviz version 2.43.0 (0)
 -->
<!-- Title: ttg::connect Pages: 1 -->
<svg width="759pt" height="312pt"
 viewBox="0.00 0.00 759.00 312.00" xmlns="http://www.w3.org/2000/svg" xmlns:xlink="http://www.w3.org/1999/xlink">
<g id="graph0" class="graph" transform="scale(1 1) rotate(0) translate(4 308)">
<title>ttg::connect</title>
<!-- Node1 -->
<g id="Node000001" class="node">
<title>Node1</title>
<g id="a_Node000001"><a xlink:title="Connect producer output terminal outindex to consumer input terminal inindex (via TTBase pointers)">
<polygon fill="#999999" stroke="#666666" points="77,-141.5 0,-141.5 0,-122.5 77,-122.5 77,-141.5"/>
<text text-anchor="middle" x="38.5" y="-129.5" font-family="Times,serif" font-size="10.00">ttg::connect</text>
</a>
</g>
</g>
<!-- Node2 -->
<g id="Node000002" class="node">
<title>Node2</title>
<g id="a_Node000002"><a xlink:href="namespacettg.html#ac31d3ffe687039e52a8179b0ffca7153" target="_top" xlink:title="Connect output terminal to successor input terminal.">
<polygon fill="white" stroke="#666666" points="200.5,-178.5 123.5,-178.5 123.5,-159.5 200.5,-159.5 200.5,-178.5"/>
<text text-anchor="middle" x="162" y="-166.5" font-family="Times,serif" font-size="10.00">ttg::connect</text>
</a>
</g>
</g>
<!-- Node1&#45;&gt;Node2 -->
<g id="edge1_Node000001_Node000002" class="edge">
<title>Node1&#45;&gt;Node2</title>
<g id="a_edge1_Node000001_Node000002"><a xlink:title=" ">
<path fill="none" stroke="#63b8ff" d="M70.79,-141.53C85.7,-146.07 103.72,-151.56 119.73,-156.43"/>
<polygon fill="#63b8ff" stroke="#63b8ff" points="118.81,-159.81 129.39,-159.38 120.85,-153.11 118.81,-159.81"/>
</a>
</g>
</g>
<!-- Node15 -->
<g id="Node000015" class="node">
<title>Node15</title>
<g id="a_Node000015"><a xlink:href="classttg_1_1_t_t_base.html#a6d770847f4352a404b6b75e269a6704c" target="_top" xlink:title="Returns a pointer to the i&#39;th input terminal.">
<polygon fill="white" stroke="#666666" points="207.5,-141.5 116.5,-141.5 116.5,-122.5 207.5,-122.5 207.5,-141.5"/>
<text text-anchor="middle" x="162" y="-129.5" font-family="Times,serif" font-size="10.00">ttg::TTBase::in</text>
</a>
</g>
</g>
<!-- Node1&#45;&gt;Node15 -->
<g id="edge16_Node000001_Node000015" class="edge">
<title>Node1&#45;&gt;Node15</title>
<g id="a_edge16_Node000001_Node000015"><a xlink:title=" ">
<path fill="none" stroke="#63b8ff" d="M77.28,-132C86.48,-132 96.51,-132 106.32,-132"/>
<polygon fill="#63b8ff" stroke="#63b8ff" points="106.43,-135.5 116.43,-132 106.43,-128.5 106.43,-135.5"/>
</a>
</g>
</g>
<!-- Node16 -->
<g id="Node000016" class="node">
<title>Node16</title>
<g id="a_Node000016"><a xlink:href="classttg_1_1_t_t_base.html#a6fd6000f03d5e1b5d9ba4a5f1624f316" target="_top" xlink:title="Returns a pointer to the i&#39;th output terminal.">
<polygon fill="white" stroke="#666666" points="211,-104.5 113,-104.5 113,-85.5 211,-85.5 211,-104.5"/>
<text text-anchor="middle" x="162" y="-92.5" font-family="Times,serif" font-size="10.00">ttg::TTBase::out</text>
</a>
</g>
</g>
<!-- Node1&#45;&gt;Node16 -->
<g id="edge17_Node000001_Node000016" class="edge">
<title>Node1&#45;&gt;Node16</title>
<g id="a_edge17_Node000001_Node000016"><a xlink:title=" ">
<path fill="none" stroke="#63b8ff" d="M70.79,-122.47C85.7,-117.93 103.72,-112.44 119.73,-107.57"/>
<polygon fill="#63b8ff" stroke="#63b8ff" points="120.85,-110.89 129.39,-104.62 118.81,-104.19 120.85,-110.89"/>
</a>
</g>
</g>
<!-- Node3 -->
<g id="Node000003" class="node">
<title>Node3</title>
<g id="a_Node000003"><a xlink:href="classttg_1_1_out.html#a0dd09ce5a40514317b0677a68e08a4a8" target="_top" xlink:title=" ">
<polygon fill="white" stroke="#666666" points="348,-178.5 247,-178.5 247,-159.5 348,-159.5 348,-178.5"/>
<text text-anchor="middle" x="297.5" y="-166.5" font-family="Times,serif" font-size="10.00">ttg::Out::connect</text>
</a>
</g>
</g>
<!-- Node2&#45;&gt;Node3 -->
<g id="edge2_Node000002_Node000003" class="edge">
<title>Node2&#45;&gt;Node3</title>
<g id="a_edge2_Node000002_Node000003"><a xlink:title=" ">
<path fill="none" stroke="#63b8ff" d="M200.54,-169C211.75,-169 224.32,-169 236.59,-169"/>
<polygon fill="#63b8ff" stroke="#63b8ff" points="236.78,-172.5 246.78,-169 236.78,-165.5 236.78,-172.5"/>
</a>
</g>
</g>
<!-- Node4 -->
<g id="Node000004" class="node">
<title>Node4</title>
<g id="a_Node000004"><a xlink:href="classttg_1_1_terminal_base.html#a40df40809acfc616d60c9377bf6cfa61" target="_top" xlink:title=" ">
<polygon fill="white" stroke="#666666" points="497,-304 384,-304 384,-274 497,-274 497,-304"/>
<text text-anchor="start" x="392" y="-292" font-family="Times,serif" font-size="10.00">ttg::TerminalBase::</text>
<text text-anchor="middle" x="440.5" y="-281" font-family="Times,serif" font-size="10.00">connect_base</text>
</a>
</g>
</g>
<!-- Node3&#45;&gt;Node4 -->
<g id="edge3_Node000003_Node000004" class="edge">
<title>Node3&#45;&gt;Node4</title>
<g id="a_edge3_Node000003_Node000004"><a xlink:title=" ">
<path fill="none" stroke="#63b8ff" d="M304.94,-178.7C317.9,-197.59 348.9,-239.64 384,-265 385.87,-266.35 387.82,-267.64 389.83,-268.88"/>
<polygon fill="#63b8ff" stroke="#63b8ff" points="388.51,-272.15 398.95,-273.95 391.91,-266.03 388.51,-272.15"/>
</a>
</g>
</g>
<!-- Node5 -->
<g id="Node000005" class="node">
<title>Node5</title>
<g id="a_Node000005"><a xlink:href="classttg_1_1_terminal_base.html#ab19aac249a137dbb8199e5d87dfefd5c" target="_top" xlink:title=" ">
<polygon fill="white" stroke="#666666" points="497,-256 384,-256 384,-226 497,-226 497,-256"/>
<text text-anchor="start" x="392" y="-244" font-family="Times,serif" font-size="10.00">ttg::TerminalBase::</text>
<text text-anchor="middle" x="440.5" y="-233" font-family="Times,serif" font-size="10.00">connect_pull</text>
</a>
</g>
</g>
<!-- Node3&#45;&gt;Node5 -->
<g id="edge4_Node000003_Node000005" class="edge">
<title>Node3&#45;&gt;Node5</title>
<g id="a_edge4_Node000003_Node000005"><a xlink:title=" ">
<path fill="none" stroke="#63b8ff" d="M314.31,-178.53C331.27,-188.59 359.14,-204.69 384,-217 387.15,-218.56 390.43,-220.13 393.75,-221.66"/>
<polygon fill="#63b8ff" stroke="#63b8ff" points="392.58,-224.98 403.13,-225.91 395.46,-218.6 392.58,-224.98"/>
</a>
</g>
</g>
<!-- Node6 -->
<g id="Node000006" class="node">
<title>Node6</title>
<g id="a_Node000006"><a xlink:href="classttg_1_1_terminal_base.html#afb14b11c29459fc8aa5a2cb4297b5c2e" target="_top" xlink:title="Returns name of terminal.">
<polygon fill="white" stroke="#666666" points="497,-208 384,-208 384,-178 497,-178 497,-208"/>
<text text-anchor="start" x="392" y="-196" font-family="Times,serif" font-size="10.00">ttg::TerminalBase::</text>
<text text-anchor="middle" x="440.5" y="-185" font-family="Times,serif" font-size="10.00">get_name</text>
</a>
</g>
</g>
<!-- Node3&#45;&gt;Node6 -->
<g id="edge5_Node000003_Node000006" class="edge">
<title>Node3&#45;&gt;Node6</title>
<g id="a_edge5_Node000003_Node000006"><a xlink:title=" ">
<path fill="none" stroke="#63b8ff" d="M348.21,-177.46C356.53,-178.88 365.28,-180.37 373.92,-181.84"/>
<polygon fill="#63b8ff" stroke="#63b8ff" points="373.55,-185.32 383.99,-183.55 374.72,-178.42 373.55,-185.32"/>
</a>
</g>
</g>
<!-- Node7 -->
<g id="Node000007" class="node">
<title>Node7</title>
<g id="a_Node000007"><a xlink:href="classttg_1_1_terminal_base.html#a57202041203e7ed427c3f2fe28d39e7b" target="_top" xlink:title="Returns the terminal type.">
<polygon fill="white" stroke="#666666" points="497,-160 384,-160 384,-130 497,-130 497,-160"/>
<text text-anchor="start" x="392" y="-148" font-family="Times,serif" font-size="10.00">ttg::TerminalBase::</text>
<text text-anchor="middle" x="440.5" y="-137" font-family="Times,serif" font-size="10.00">get_type</text>
</a>
</g>
</g>
<!-- Node3&#45;&gt;Node7 -->
<g id="edge6_Node000003_Node000007" class="edge">
<title>Node3&#45;&gt;Node7</title>
<g id="a_edge6_Node000003_Node000007"><a xlink:title=" ">
<path fill="none" stroke="#63b8ff" d="M348.21,-160.54C356.53,-159.12 365.28,-157.63 373.92,-156.16"/>
<polygon fill="#63b8ff" stroke="#63b8ff" points="374.72,-159.58 383.99,-154.45 373.55,-152.68 374.72,-159.58"/>
</a>
</g>
</g>
<!-- Node8 -->
<g id="Node000008" class="node">
<title>Node8</title>
<g id="a_Node000008"><a xlink:href="namespacettg.html#ac0ad1dd3b87329e4acf9774df6dc8473" target="_top" xlink:title=" ">
<polygon fill="white" stroke="#666666" points="470.5,-111.5 410.5,-111.5 410.5,-92.5 470.5,-92.5 470.5,-111.5"/>
<text text-anchor="middle" x="440.5" y="-99.5" font-family="Times,serif" font-size="10.00">ttg::rank</text>
</a>
</g>
</g>
<!-- Node3&#45;&gt;Node8 -->
<g id="edge7_Node000003_Node000008" class="edge">
<title>Node3&#45;&gt;Node8</title>
<g id="a_edge7_Node000003_Node000008"><a xlink:title=" ">
<path fill="none" stroke="#63b8ff" d="M313.51,-159.46C330.25,-149.1 358.36,-132.47 384,-121 389.36,-118.6 395.12,-116.32 400.83,-114.22"/>
<polygon fill="#63b8ff" stroke="#63b8ff" points="402.04,-117.51 410.31,-110.88 399.71,-110.91 402.04,-117.51"/>
</a>
</g>
</g>
<!-- Node9 -->
<g id="Node000009" class="node">
<title>Node9</title>
<g id="a_Node000009"><a xlink:href="namespacettg.html#af5e470229c1ddef41b83b6398a5dc583" target="_top" xlink:title=" ">
<polygon fill="white" stroke="#666666" points="471.5,-74.5 409.5,-74.5 409.5,-55.5 471.5,-55.5 471.5,-74.5"/>
<text text-anchor="middle" x="440.5" y="-62.5" font-family="Times,serif" font-size="10.00">ttg::trace</text>
</a>
</g>
</g>
<!-- Node3&#45;&gt;Node9 -->
<g id="edge8_Node000003_Node000009" class="edge">
<title>Node3&#45;&gt;Node9</title>
<g id="a_edge8_Node000003_Node000009"><a xlink:title=" ">
<path fill="none" stroke="#63b8ff" d="M305.67,-159.43C319.16,-142.03 350.05,-105.11 384,-84 388.81,-81.01 394.15,-78.42 399.57,-76.2"/>
<polygon fill="#63b8ff" stroke="#63b8ff" points="401.13,-79.36 409.29,-72.6 398.69,-72.79 401.13,-79.36"/>
</a>
</g>
</g>
<!-- Node10 -->
<g id="Node000010" class="node">
<title>Node10</title>
<g id="a_Node000010"><a xlink:href="namespacettg.html#aacacfe8bc9582308a405c4370650a9d4" target="_top" xlink:title="atomically prints to std::clog a sequence of items (separated by ttg::print_separator) followed by st...">
<polygon fill="white" stroke="#666666" points="596,-131.5 543,-131.5 543,-112.5 596,-112.5 596,-131.5"/>
<text text-anchor="middle" x="569.5" y="-119.5" font-family="Times,serif" font-size="10.00">ttg::log</text>
</a>
</g>
</g>
<!-- Node9&#45;&gt;Node10 -->
<g id="edge9_Node000009_Node000010" class="edge">
<title>Node9&#45;&gt;Node10</title>
<g id="a_edge9_Node000009_Node000010"><a xlink:title=" ">
<path fill="none" stroke="#63b8ff" d="M471.79,-74.4C480.06,-77.23 488.96,-80.52 497,-84 512.93,-90.91 530.13,-99.99 543.67,-107.55"/>
<polygon fill="#63b8ff" stroke="#63b8ff" points="541.97,-110.61 552.39,-112.49 545.42,-104.52 541.97,-110.61"/>
</a>
</g>
</g>
<!-- Node12 -->
<g id="Node000012" class="node">
<title>Node12</title>
<g id="a_Node000012"><a xlink:href="namespacettg.html#afbdd9c742be395e0746fdbc26c7d55cc" target="_top" xlink:title="returns whether tracing was enabled at configure time">
<polygon fill="white" stroke="#666666" points="751,-81.5 642,-81.5 642,-62.5 751,-62.5 751,-81.5"/>
<text text-anchor="middle" x="696.5" y="-69.5" font-family="Times,serif" font-size="10.00">ttg::trace_enabled</text>
</a>
</g>
</g>
<!-- Node9&#45;&gt;Node12 -->
<g id="edge11_Node000009_Node000012" class="edge">
<title>Node9&#45;&gt;Node12</title>
<g id="a_edge11_Node000009_Node000012"><a xlink:title=" ">
<path fill="none" stroke="#63b8ff" d="M471.63,-65.83C510.85,-66.91 580.41,-68.83 631.62,-70.24"/>
<polygon fill="#63b8ff" stroke="#63b8ff" points="631.83,-73.75 641.92,-70.52 632.02,-66.75 631.83,-73.75"/>
</a>
</g>
</g>
<!-- Node13 -->
<g id="Node000013" class="node">
<title>Node13</title>
<g id="a_Node000013"><a xlink:href="namespacettg.html#abfb8501d408a1ed918cc2a540865a2d8" target="_top" xlink:title="returns whether tracing is enabled">
<polygon fill="white" stroke="#666666" points="606,-55.5 533,-55.5 533,-36.5 606,-36.5 606,-55.5"/>
<text text-anchor="middle" x="569.5" y="-43.5" font-family="Times,serif" font-size="10.00">ttg::tracing</text>
</a>
</g>
</g>
<!-- Node9&#45;&gt;Node13 -->
<g id="edge12_Node000009_Node000013" class="edge">
<title>Node9&#45;&gt;Node13</title>
<g id="a_edge12_Node000009_Node000013"><a xlink:title=" ">
<path fill="none" stroke="#63b8ff" d="M471.6,-60.5C486.78,-58.23 505.53,-55.42 522.48,-52.88"/>
<polygon fill="#63b8ff" stroke="#63b8ff" points="523.38,-56.29 532.75,-51.35 522.34,-49.37 523.38,-56.29"/>
</a>
</g>
</g>
<!-- Node11 -->
<g id="Node000011" class="node">
<title>Node11</title>
<g id="a_Node000011"><a xlink:href="namespacettg_1_1detail.html#a26e07486d5ef8eb5735a8975991a7693" target="_top" xlink:title=" ">
<polygon fill="white" stroke="#666666" points="744.5,-137 648.5,-137 648.5,-107 744.5,-107 744.5,-137"/>
<text text-anchor="start" x="656.5" y="-125" font-family="Times,serif" font-size="10.00">ttg::detail::print</text>
<text text-anchor="middle" x="696.5" y="-114" font-family="Times,serif" font-size="10.00">_helper</text>
</a>
</g>
</g>
<!-- Node10&#45;&gt;Node11 -->
<g id="edge10_Node000010_Node000011" class="edge">
<title>Node10&#45;&gt;Node11</title>
<g id="a_edge10_Node000010_Node000011"><a xlink:title=" ">
<path fill="none" stroke="#63b8ff" d="M596.1,-122C608.34,-122 623.53,-122 638.32,-122"/>
<polygon fill="#63b8ff" stroke="#63b8ff" points="638.46,-125.5 648.46,-122 638.46,-118.5 638.46,-125.5"/>
</a>
</g>
</g>
<!-- Node13&#45;&gt;Node12 -->
<g id="edge15_Node000013_Node000012" class="edge">
<title>Node13&#45;&gt;Node12</title>
<g id="a_edge15_Node000013_Node000012"><a xlink:title=" ">
<path fill="none" stroke="#63b8ff" d="M606.32,-53.45C616.7,-55.61 628.29,-58.02 639.58,-60.37"/>
<polygon fill="#63b8ff" stroke="#63b8ff" points="638.89,-63.8 649.4,-62.41 640.32,-56.95 638.89,-63.8"/>
</a>
</g>
</g>
<!-- Node14 -->
<g id="Node000014" class="node">
<title>Node14</title>
<g id="a_Node000014"><a xlink:href="namespacettg_1_1detail.html#a95356c3874e7ec9268a40feb4fc1519f" target="_top" xlink:title=" ">
<polygon fill="white" stroke="#666666" points="745,-30 648,-30 648,0 745,0 745,-30"/>
<text text-anchor="start" x="656" y="-18" font-family="Times,serif" font-size="10.00">ttg::detail::trace</text>
<text text-anchor="middle" x="696.5" y="-7" font-family="Times,serif" font-size="10.00">_accessor</text>
</a>
</g>
</g>
<!-- Node13&#45;&gt;Node14 -->
<g id="edge13_Node000013_Node000014" class="edge">
<title>Node13&#45;&gt;Node14</title>
<g id="a_edge13_Node000013_Node000014"><a xlink:title=" ">
<path fill="none" stroke="#63b8ff" d="M606.32,-37.12C616.15,-34.68 627.07,-31.97 637.79,-29.31"/>
<polygon fill="#63b8ff" stroke="#63b8ff" points="638.69,-32.69 647.56,-26.89 637.01,-25.9 638.69,-32.69"/>
</a>
</g>
</g>
<!-- Node14&#45;&gt;Node9 -->
<g id="edge14_Node000014_Node000009" class="edge">
<title>Node14&#45;&gt;Node9</title>
<g id="a_edge14_Node000014_Node000009"><a xlink:title=" ">
<path fill="none" stroke="#63b8ff" d="M647.96,-14.54C615.23,-15.18 570.98,-17.96 533,-27 510.55,-32.34 486.5,-42.52 468.7,-51"/>
<polygon fill="#63b8ff" stroke="#63b8ff" points="466.94,-47.96 459.5,-55.49 470.02,-54.25 466.94,-47.96"/>
</a>
</g>
</g>
</g>
</svg>
