<?xml version="1.0" encoding="UTF-8" standalone="no"?>
<!DOCTYPE svg PUBLIC "-//W3C//DTD SVG 1.1//EN"
 "http://www.w3.org/Graphics/SVG/1.1/DTD/svg11.dtd">
<!-- Generated by graphviz version 2.43.0 (0)
 -->
<!-- Title: ttg::print_error Pages: 1 -->
<!--zoomable 631 -->

<svg id="main" version="1.1" xmlns="http://www.w3.org/2000/svg" xmlns:xlink="http://www.w3.org/1999/xlink" xml:space="preserve" onload="init(evt)">
<style type="text/css"><![CDATA[
.node, .edge {opacity: 0.7;}
.node.selected, .edge.selected {opacity: 1;}
.edge:hover path { stroke: red; }
.edge:hover polygon { stroke: red; fill: red; }
]]></style>

<defs>
  <circle id="rim" cx="0" cy="0" r="7"/>
  <circle id="rim2" cx="0" cy="0" r="3.5"/>
  <g id="zoomPlus">
    <use xlink:href="#rim" fill="#404040"><set attributeName="fill" to="#808080" begin="zoomplus.mouseover" end="zoomplus.mouseout"/></use>
    <path d="M-4,0h8M0,-4v8" fill="none" stroke="white" stroke-width="1.5" pointer-events="none"/>
  </g>
  <g id="zoomMin">
    <use xlink:href="#rim" fill="#404040"><set attributeName="fill" to="#808080" begin="zoomminus.mouseover" end="zoomminus.mouseout"/></use>
    <path d="M-4,0h8" fill="none" stroke="white" stroke-width="1.5" pointer-events="none"/>
  </g>
  <g id="arrowUp" transform="translate(30 24)">
    <use xlink:href="#rim"/>
    <path pointer-events="none" fill="none" stroke="white" stroke-width="1.5" d="M0,-3.0v7 M-2.5,-0.5L0,-3.0L2.5,-0.5"/>
  </g>
  <g id="arrowRight" transform="rotate(90) translate(36 -43)">
    <use xlink:href="#rim"/>
    <path pointer-events="none" fill="none" stroke="white" stroke-width="1.5" d="M0,-3.0v7 M-2.5,-0.5L0,-3.0L2.5,-0.5"/>
  </g>
  <g id="arrowDown" transform="rotate(180) translate(-30 -48)">
    <use xlink:href="#rim"/>
    <path pointer-events="none" fill="none" stroke="white" stroke-width="1.5" d="M0,-3.0v7 M-2.5,-0.5L0,-3.0L2.5,-0.5"/>
  </g>
  <g id="arrowLeft" transform="rotate(270) translate(-36 17)">
    <use xlink:href="#rim"/>
    <path pointer-events="none" fill="none" stroke="white" stroke-width="1.5" d="M0,-3.0v7 M-2.5,-0.5L0,-3.0L2.5,-0.5"/>
  </g>
  <g id="resetDef">
    <use xlink:href="#rim2" fill="#404040"><set attributeName="fill" to="#808080" begin="reset.mouseover" end="reset.mouseout"/></use>
  </g>
</defs>
<script type="application/ecmascript">
var viewWidth = 280;
var viewHeight = 631;
var sectionId = 'dynsection-51';
</script>
<script type="application/ecmascript" xlink:href="svg.min.js"/>
<svg id="graph" class="graph">
<g id="viewport">
<title>ttg::print_error</title>
<!-- Node1 -->
<g id="Node000001" class="node">
<title>Node1</title>
<g id="a_Node000001"><a xlink:title="atomically prints to std::cerr a sequence of items (separated by ttg::print_separator) followed by st...">
<polygon fill="#999999" stroke="#666666" points="272,-312 180,-312 180,-293 272,-293 272,-312"/>
<text text-anchor="middle" x="226" y="-300" font-family="Times,serif" font-size="10.00">ttg::print_error</text>
</a>
</g>
</g>
<!-- Node2 -->
<g id="Node000002" class="node">
<title>Node2</title>
<g id="a_Node000002"><a xlink:href="classttg__madness_1_1_t_t.html#a8f53db95a62dfdbe427f57163a2751b4" target="_top" xlink:title="finalizes stream for input i">
<polygon fill="white" stroke="#666666" points="143.5,-622.5 0.5,-622.5 0.5,-592.5 143.5,-592.5 143.5,-622.5"/>
<text text-anchor="start" x="8.5" y="-610.5" font-family="Times,serif" font-size="10.00">ttg_madness::TT::finalize</text>
<text text-anchor="middle" x="72" y="-599.5" font-family="Times,serif" font-size="10.00">_argstream</text>
</a>
</g>
</g>
<!-- Node1&#45;&gt;Node2 -->
<g id="edge1_Node000001_Node000002" class="edge">
<title>Node1&#45;&gt;Node2</title>
<g id="a_edge1_Node000001_Node000002"><a xlink:title=" ">
<path fill="none" stroke="#63b8ff" d="M225.2,-322.19C224.63,-372.68 216.08,-508.07 144,-583.5 140.76,-586.89 137.03,-589.79 133.01,-592.29"/>
<polygon fill="#63b8ff" stroke="#63b8ff" points="228.7,-322.01 225.22,-312.01 221.7,-322 228.7,-322.01"/>
</a>
</g>
</g>
<!-- Node3 -->
<g id="Node000003" class="node">
<title>Node3</title>
<g id="a_Node000003"><a xlink:href="classttg__parsec_1_1_t_t.html#a22e5aac5bf2827bfcfb01d6ea47f382a" target="_top" xlink:title="finalizes stream for input i">
<polygon fill="white" stroke="#666666" points="137.5,-574.5 6.5,-574.5 6.5,-544.5 137.5,-544.5 137.5,-574.5"/>
<text text-anchor="start" x="14.5" y="-562.5" font-family="Times,serif" font-size="10.00">ttg_parsec::TT::finalize</text>
<text text-anchor="middle" x="72" y="-551.5" font-family="Times,serif" font-size="10.00">_argstream</text>
</a>
</g>
</g>
<!-- Node1&#45;&gt;Node3 -->
<g id="edge2_Node000001_Node000003" class="edge">
<title>Node1&#45;&gt;Node3</title>
<g id="a_edge2_Node000001_Node000003"><a xlink:title=" ">
<path fill="none" stroke="#63b8ff" d="M223.83,-322.05C220.13,-366.32 204.99,-475.03 144,-535.5 140.58,-538.89 136.67,-541.8 132.47,-544.3"/>
<polygon fill="#63b8ff" stroke="#63b8ff" points="227.32,-322.26 224.56,-312.03 220.34,-321.75 227.32,-322.26"/>
</a>
</g>
</g>
<!-- Node4 -->
<g id="Node000004" class="node">
<title>Node4</title>
<g id="a_Node000004"><a xlink:href="classttg__madness_1_1_t_t.html#ad3281e576a13d510353fea6ef49caac8" target="_top" xlink:title="finalizes stream for input i">
<polygon fill="white" stroke="#666666" points="143.5,-526.5 0.5,-526.5 0.5,-496.5 143.5,-496.5 143.5,-526.5"/>
<text text-anchor="start" x="8.5" y="-514.5" font-family="Times,serif" font-size="10.00">ttg_madness::TT::finalize</text>
<text text-anchor="middle" x="72" y="-503.5" font-family="Times,serif" font-size="10.00">_argstream</text>
</a>
</g>
</g>
<!-- Node1&#45;&gt;Node4 -->
<g id="edge3_Node000001_Node000004" class="edge">
<title>Node1&#45;&gt;Node4</title>
<g id="a_edge3_Node000001_Node000004"><a xlink:title=" ">
<path fill="none" stroke="#63b8ff" d="M221.76,-322.27C214.59,-359.82 193.89,-441.76 144,-487.5 140.26,-490.93 136.01,-493.87 131.5,-496.39"/>
<polygon fill="#63b8ff" stroke="#63b8ff" points="225.26,-322.59 223.57,-312.13 218.37,-321.36 225.26,-322.59"/>
</a>
</g>
</g>
<!-- Node5 -->
<g id="Node000005" class="node">
<title>Node5</title>
<g id="a_Node000005"><a xlink:href="classttg__parsec_1_1_t_t.html#affca736b8369f0dd02c251dcbdb3974f" target="_top" xlink:title="finalizes stream for input i">
<polygon fill="white" stroke="#666666" points="137.5,-478.5 6.5,-478.5 6.5,-448.5 137.5,-448.5 137.5,-478.5"/>
<text text-anchor="start" x="14.5" y="-466.5" font-family="Times,serif" font-size="10.00">ttg_parsec::TT::finalize</text>
<text text-anchor="middle" x="72" y="-455.5" font-family="Times,serif" font-size="10.00">_argstream</text>
</a>
</g>
</g>
<!-- Node1&#45;&gt;Node5 -->
<g id="edge4_Node000001_Node000005" class="edge">
<title>Node1&#45;&gt;Node5</title>
<g id="a_edge4_Node000001_Node000005"><a xlink:title=" ">
<path fill="none" stroke="#63b8ff" d="M218.66,-321.57C207.91,-351.04 183.37,-407.57 144,-439.5 139.76,-442.94 134.99,-445.9 130,-448.44"/>
<polygon fill="#63b8ff" stroke="#63b8ff" points="222,-322.63 222,-312.03 215.39,-320.32 222,-322.63"/>
</a>
</g>
</g>
<!-- Node6 -->
<g id="Node000006" class="node">
<title>Node6</title>
<g id="a_Node000006"><a xlink:href="namespacettg__madness.html#a1d0750abcb4d3cb112ff1755f38798f1" target="_top" xlink:title="must be called from main thread before setting watchpoints">
<polygon fill="white" stroke="#666666" points="137.5,-430.5 6.5,-430.5 6.5,-400.5 137.5,-400.5 137.5,-430.5"/>
<text text-anchor="start" x="14.5" y="-418.5" font-family="Times,serif" font-size="10.00">ttg_madness::initialize</text>
<text text-anchor="middle" x="72" y="-407.5" font-family="Times,serif" font-size="10.00">_watchpoints</text>
</a>
</g>
</g>
<!-- Node1&#45;&gt;Node6 -->
<g id="edge5_Node000001_Node000006" class="edge">
<title>Node1&#45;&gt;Node6</title>
<g id="a_edge5_Node000001_Node000006"><a xlink:title=" ">
<path fill="none" stroke="#63b8ff" d="M213.12,-320.24C198.89,-340.21 173.26,-372.36 144,-391.5 138.77,-394.92 133.01,-397.9 127.1,-400.49"/>
<polygon fill="#63b8ff" stroke="#63b8ff" points="216,-322.22 218.83,-312.01 210.25,-318.23 216,-322.22"/>
</a>
</g>
</g>
<!-- Node7 -->
<g id="Node000007" class="node">
<title>Node7</title>
<g id="a_Node000007"><a xlink:href="classttg__madness_1_1_t_t.html#aea5a9c17b765ac16c034cafb686c9bf2" target="_top" xlink:title=" ">
<polygon fill="white" stroke="#666666" points="142,-382.5 2,-382.5 2,-352.5 142,-352.5 142,-382.5"/>
<text text-anchor="start" x="10" y="-370.5" font-family="Times,serif" font-size="10.00">ttg_madness::TT::invoke</text>
<text text-anchor="middle" x="72" y="-359.5" font-family="Times,serif" font-size="10.00">_pull_terminal</text>
</a>
</g>
</g>
<!-- Node1&#45;&gt;Node7 -->
<g id="edge6_Node000001_Node000007" class="edge">
<title>Node1&#45;&gt;Node7</title>
<g id="a_edge6_Node000001_Node000007"><a xlink:title=" ">
<path fill="none" stroke="#63b8ff" d="M198.89,-316.92C183.23,-325.25 162.78,-335.62 144,-343.5 136.56,-346.62 128.56,-349.64 120.71,-352.42"/>
<polygon fill="#63b8ff" stroke="#63b8ff" points="200.81,-319.85 207.96,-312.03 197.49,-313.69 200.81,-319.85"/>
</a>
</g>
</g>
<!-- Node8 -->
<g id="Node000008" class="node">
<title>Node8</title>
<g id="a_Node000008"><a xlink:href="classttg__madness_1_1_t_t.html#a2810f6594315e404871457fd05f06099" target="_top" xlink:title=" ">
<polygon fill="white" stroke="#666666" points="144,-334 0,-334 0,-315 144,-315 144,-334"/>
<text text-anchor="middle" x="72" y="-322" font-family="Times,serif" font-size="10.00">ttg_madness::TT::set_arg</text>
</a>
</g>
</g>
<!-- Node1&#45;&gt;Node8 -->
<g id="edge7_Node000001_Node000008" class="edge">
<title>Node1&#45;&gt;Node8</title>
<g id="a_edge7_Node000001_Node000008"><a xlink:title=" ">
<path fill="none" stroke="#63b8ff" d="M169.61,-310.52C159.61,-311.96 149.1,-313.49 138.84,-314.97"/>
<polygon fill="#63b8ff" stroke="#63b8ff" points="170.41,-313.94 179.81,-309.04 169.41,-307.01 170.41,-313.94"/>
</a>
</g>
</g>
<!-- Node9 -->
<g id="Node000009" class="node">
<title>Node9</title>
<g id="a_Node000009"><a xlink:href="classttg__parsec_1_1_t_t.html#adc3a5e538d9a4c192168317cb0db9814" target="_top" xlink:title=" ">
<polygon fill="white" stroke="#666666" points="127,-296.5 17,-296.5 17,-266.5 127,-266.5 127,-296.5"/>
<text text-anchor="start" x="25" y="-284.5" font-family="Times,serif" font-size="10.00">ttg_parsec::TT::set</text>
<text text-anchor="middle" x="72" y="-273.5" font-family="Times,serif" font-size="10.00">_arg_local_impl</text>
</a>
</g>
</g>
<!-- Node1&#45;&gt;Node9 -->
<g id="edge8_Node000001_Node000009" class="edge">
<title>Node1&#45;&gt;Node9</title>
<g id="a_edge8_Node000001_Node000009"><a xlink:title=" ">
<path fill="none" stroke="#63b8ff" d="M169.88,-294.88C155.95,-292.96 141.02,-290.9 127.14,-288.98"/>
<polygon fill="#63b8ff" stroke="#63b8ff" points="169.42,-298.35 179.81,-296.26 170.38,-291.42 169.42,-298.35"/>
</a>
</g>
</g>
<!-- Node10 -->
<g id="Node000010" class="node">
<title>Node10</title>
<g id="a_Node000010"><a xlink:href="classttg__madness_1_1_t_t.html#af1f8926792b406a906e1276eb1031eed" target="_top" xlink:title=" ">
<polygon fill="white" stroke="#666666" points="133,-248.5 11,-248.5 11,-218.5 133,-218.5 133,-248.5"/>
<text text-anchor="start" x="19" y="-236.5" font-family="Times,serif" font-size="10.00">ttg_madness::TT::set</text>
<text text-anchor="middle" x="72" y="-225.5" font-family="Times,serif" font-size="10.00">_argstream_size</text>
</a>
</g>
</g>
<!-- Node1&#45;&gt;Node10 -->
<g id="edge9_Node000001_Node000010" class="edge">
<title>Node1&#45;&gt;Node10</title>
<g id="a_edge9_Node000001_Node000010"><a xlink:title=" ">
<path fill="none" stroke="#63b8ff" d="M200.98,-287.65C185.17,-278.25 163.8,-266.26 144,-257.5 136.86,-254.34 129.17,-251.34 121.57,-248.61"/>
<polygon fill="#63b8ff" stroke="#63b8ff" points="199.23,-290.67 209.6,-292.84 202.84,-284.68 199.23,-290.67"/>
</a>
</g>
</g>
<!-- Node11 -->
<g id="Node000011" class="node">
<title>Node11</title>
<g id="a_Node000011"><a xlink:href="classttg__madness_1_1_t_t.html#a9f0418a0dd9ec6ace5cfacf430a3461f" target="_top" xlink:title=" ">
<polygon fill="white" stroke="#666666" points="133,-200.5 11,-200.5 11,-170.5 133,-170.5 133,-200.5"/>
<text text-anchor="start" x="19" y="-188.5" font-family="Times,serif" font-size="10.00">ttg_madness::TT::set</text>
<text text-anchor="middle" x="72" y="-177.5" font-family="Times,serif" font-size="10.00">_argstream_size</text>
</a>
</g>
</g>
<!-- Node1&#45;&gt;Node11 -->
<g id="edge10_Node000001_Node000011" class="edge">
<title>Node1&#45;&gt;Node11</title>
<g id="a_edge10_Node000001_Node000011"><a xlink:title=" ">
<path fill="none" stroke="#63b8ff" d="M213.52,-284.27C199.5,-263.41 173.93,-229.54 144,-209.5 138.92,-206.1 133.31,-203.13 127.54,-200.57"/>
<polygon fill="#63b8ff" stroke="#63b8ff" points="210.72,-286.39 219.12,-292.84 216.58,-282.56 210.72,-286.39"/>
</a>
</g>
</g>
<!-- Node12 -->
<g id="Node000012" class="node">
<title>Node12</title>
<g id="a_Node000012"><a xlink:href="classttg__madness_1_1_t_t.html#ab6c8b768c80a14b079bb9e70f53a1cc7" target="_top" xlink:title=" ">
<polygon fill="white" stroke="#666666" points="137.5,-152.5 6.5,-152.5 6.5,-122.5 137.5,-122.5 137.5,-152.5"/>
<text text-anchor="start" x="14.5" y="-140.5" font-family="Times,serif" font-size="10.00">ttg_madness::TT::set</text>
<text text-anchor="middle" x="72" y="-129.5" font-family="Times,serif" font-size="10.00">_static_argstream_size</text>
</a>
</g>
</g>
<!-- Node1&#45;&gt;Node12 -->
<g id="edge11_Node000001_Node000012" class="edge">
<title>Node1&#45;&gt;Node12</title>
<g id="a_edge11_Node000001_Node000012"><a xlink:title=" ">
<path fill="none" stroke="#63b8ff" d="M218.82,-282.88C208.28,-252.55 184.02,-194.38 144,-161.5 139.78,-158.03 135.03,-155.05 130.04,-152.5"/>
<polygon fill="#63b8ff" stroke="#63b8ff" points="215.6,-284.3 222.08,-292.69 222.25,-282.1 215.6,-284.3"/>
</a>
</g>
</g>
<!-- Node13 -->
<g id="Node000013" class="node">
<title>Node13</title>
<g id="a_Node000013"><a xlink:href="classttg__parsec_1_1_t_t.html#aa50ec2908d3cecdf17c962e05760bec7" target="_top" xlink:title=" ">
<polygon fill="white" stroke="#666666" points="137.5,-104.5 6.5,-104.5 6.5,-74.5 137.5,-74.5 137.5,-104.5"/>
<text text-anchor="start" x="14.5" y="-92.5" font-family="Times,serif" font-size="10.00">ttg_parsec::TT::set</text>
<text text-anchor="middle" x="72" y="-81.5" font-family="Times,serif" font-size="10.00">_static_argstream_size</text>
</a>
</g>
</g>
<!-- Node1&#45;&gt;Node13 -->
<g id="edge12_Node000001_Node000013" class="edge">
<title>Node1&#45;&gt;Node13</title>
<g id="a_edge12_Node000001_Node000013"><a xlink:title=" ">
<path fill="none" stroke="#63b8ff" d="M221.9,-282.31C214.95,-243.96 194.61,-160.27 144,-113.5 140.27,-110.06 136.03,-107.1 131.52,-104.58"/>
<polygon fill="#63b8ff" stroke="#63b8ff" points="218.53,-283.38 223.64,-292.66 225.43,-282.22 218.53,-283.38"/>
</a>
</g>
</g>
<!-- Node14 -->
<g id="Node000014" class="node">
<title>Node14</title>
<g id="a_Node000014"><a xlink:href="classttg__madness_1_1_t_t.html#a5aea2d05192a06d6b6165fcd406b1eba" target="_top" xlink:title=" ">
<polygon fill="white" stroke="#666666" points="132,-56 12,-56 12,-37 132,-37 132,-56"/>
<text text-anchor="middle" x="72" y="-44" font-family="Times,serif" font-size="10.00">ttg_madness::TT::TT</text>
</a>
</g>
</g>
<!-- Node1&#45;&gt;Node14 -->
<g id="edge13_Node000001_Node000014" class="edge">
<title>Node1&#45;&gt;Node14</title>
<g id="a_edge13_Node000001_Node000014"><a xlink:title=" ">
<path fill="none" stroke="#63b8ff" d="M224.23,-282.62C221.37,-237.21 207.85,-125.16 144,-65.5 139.9,-61.67 135.11,-58.59 129.99,-56.12"/>
<polygon fill="#63b8ff" stroke="#63b8ff" points="220.74,-282.86 224.75,-292.66 227.73,-282.49 220.74,-282.86"/>
</a>
</g>
</g>
<!-- Node15 -->
<g id="Node000015" class="node">
<title>Node15</title>
<g id="a_Node000015"><a xlink:href="classttg__madness_1_1_t_t.html#a3b9de627838456d8c208bb3cc4da7c20" target="_top" xlink:title=" ">
<polygon fill="white" stroke="#666666" points="132,-19 12,-19 12,0 132,0 132,-19"/>
<text text-anchor="middle" x="72" y="-7" font-family="Times,serif" font-size="10.00">ttg_madness::TT::TT</text>
</a>
</g>
</g>
<!-- Node1&#45;&gt;Node15 -->
<g id="edge14_Node000001_Node000015" class="edge">
<title>Node1&#45;&gt;Node15</title>
<g id="a_edge14_Node000001_Node000015"><a xlink:title=" ">
<path fill="none" stroke="#63b8ff" d="M225.31,-282.68C224.96,-232.52 216.84,-99.48 144,-28.5 140.07,-24.67 135.46,-21.59 130.5,-19.12"/>
<polygon fill="#63b8ff" stroke="#63b8ff" points="221.81,-282.81 225.27,-292.83 228.81,-282.84 221.81,-282.81"/>
</a>
</g>
</g>
</g>
</svg>

<g id="navigator" transform="translate(0 0)" fill="#404254">
  <rect fill="#f2f5e9" fill-opacity="0.5" stroke="#606060" stroke-width=".5" x="0" y="0" width="60" height="60"/>
  <use id="zoomplus" xlink:href="#zoomPlus" x="17" y="9" onmousedown="handleZoom(evt,'in')"/>
  <use id="zoomminus" xlink:href="#zoomMin" x="42" y="9" onmousedown="handleZoom(evt,'out')"/>
  <use id="reset" xlink:href="#resetDef" x="30" y="36" onmousedown="handleReset()"/>
   <use id="arrowup" xlink:href="#arrowUp" x="0" y="0" onmousedown="handlePan(0,-1)"/>
  <use id="arrowright" xlink:href="#arrowRight" x="0" y="0" onmousedown="handlePan(1,0)"/>
  <use id="arrowdown" xlink:href="#arrowDown" x="0" y="0" onmousedown="handlePan(0,1)"/>
  <use id="arrowleft" xlink:href="#arrowLeft" x="0" y="0" onmousedown="handlePan(-1,0)"/>
</g>
<svg viewBox="0 0 15 15" width="100%" height="30px" preserveAspectRatio="xMaxYMin meet">
 <g id="arrow_out" transform="scale(0.3 0.3)">
  <a xlink:href="namespacettg_aacafa23974f833f3ac9c42ab4fbd7e68_icgraph_org.svg" target="_base">
   <rect id="button" ry="5" rx="5" y="6" x="6" height="38" width="38"
        fill="#f2f5e9" fill-opacity="0.5" stroke="#606060" stroke-width="1.0"/>
   <path id="arrow"
     d="M 11.500037,31.436501 C 11.940474,20.09759 22.043105,11.32322 32.158766,21.979434 L 37.068811,17.246167 C 37.068811,17.246167 37.088388,32 37.088388,32 L 22.160133,31.978069 C 22.160133,31.978069 26.997745,27.140456 26.997745,27.140456 C 18.528582,18.264221 13.291696,25.230495 11.500037,31.436501 z"
     style="fill:#404040;"/>
  </a>
 </g>
</svg>

<style type='text/css'>
<![CDATA[
[data-mouse-over-selected='false'] { opacity: 0.7; }
[data-mouse-over-selected='true']  { opacity: 1.0; }
]]>
</style>
<script type="application/ecmascript"><![CDATA[
document.addEventListener('DOMContentLoaded', (event) => {
  highlightEdges();
  highlightAdjacentNodes();
});
]]></script>
</svg>
