<?xml version="1.0" encoding="UTF-8" standalone="no"?>
<!DOCTYPE svg PUBLIC "-//W3C//DTD SVG 1.1//EN"
 "http://www.w3.org/Graphics/SVG/1.1/DTD/svg11.dtd">
<!-- Generated by graphviz version 2.43.0 (0)
 -->
<!-- Title: ttg_parsec::post_device_out Pages: 1 -->
<svg width="448pt" height="56pt"
 viewBox="0.00 0.00 448.00 56.00" xmlns="http://www.w3.org/2000/svg" xmlns:xlink="http://www.w3.org/1999/xlink">
<g id="graph0" class="graph" transform="scale(1 1) rotate(0) translate(4 52)">
<title>ttg_parsec::post_device_out</title>
<!-- Node1 -->
<g id="Node000001" class="node">
<title>Node1</title>
<g id="a_Node000001"><a xlink:title=" ">
<polygon fill="#999999" stroke="#666666" points="158,-24.5 0,-24.5 0,-5.5 158,-5.5 158,-24.5"/>
<text text-anchor="middle" x="79" y="-12.5" font-family="Times,serif" font-size="10.00">ttg_parsec::post_device_out</text>
</a>
</g>
</g>
<!-- Node2 -->
<g id="Node000002" class="node">
<title>Node2</title>
<g id="a_Node000002"><a xlink:href="namespacettg__parsec_1_1detail.html#acfab5fde82e7fa34a3d65f33434d25f5" target="_top" xlink:title=" ">
<polygon fill="white" stroke="#666666" points="298,-30 194,-30 194,0 298,0 298,-30"/>
<text text-anchor="start" x="202" y="-18" font-family="Times,serif" font-size="10.00">ttg_parsec::detail</text>
<text text-anchor="middle" x="246" y="-7" font-family="Times,serif" font-size="10.00">::post_device_out</text>
</a>
</g>
</g>
<!-- Node1&#45;&gt;Node2 -->
<g id="edge1_Node000001_Node000002" class="edge">
<title>Node1&#45;&gt;Node2</title>
<g id="a_edge1_Node000001_Node000002"><a xlink:title=" ">
<path fill="none" stroke="#63b8ff" d="M158.15,-15C166.8,-15 175.51,-15 183.9,-15"/>
<polygon fill="#63b8ff" stroke="#63b8ff" points="183.95,-18.5 193.95,-15 183.95,-11.5 183.95,-18.5"/>
</a>
</g>
</g>
<!-- Node2&#45;&gt;Node2 -->
<g id="edge3_Node000002_Node000002" class="edge">
<title>Node2&#45;&gt;Node2</title>
<g id="a_edge3_Node000002_Node000002"><a xlink:title=" ">
<path fill="none" stroke="#63b8ff" d="M221.39,-30.28C215.92,-39.41 224.12,-48 246,-48 258.99,-48 267.16,-44.97 270.51,-40.6"/>
<polygon fill="#63b8ff" stroke="#63b8ff" points="274.01,-40.31 270.61,-30.28 267.01,-40.24 274.01,-40.31"/>
</a>
</g>
</g>
<!-- Node3 -->
<g id="Node000003" class="node">
<title>Node3</title>
<g id="a_Node000003"><a xlink:href="namespacettg__parsec_1_1detail.html#ad37e220fbc05d0a62b08a94964480f0a" target="_top" xlink:title=" ">
<polygon fill="white" stroke="#666666" points="440,-30 334,-30 334,0 440,0 440,-30"/>
<text text-anchor="start" x="342" y="-18" font-family="Times,serif" font-size="10.00">ttg_parsec::detail</text>
<text text-anchor="middle" x="387" y="-7" font-family="Times,serif" font-size="10.00">::get_parsec_data</text>
</a>
</g>
</g>
<!-- Node2&#45;&gt;Node3 -->
<g id="edge2_Node000002_Node000003" class="edge">
<title>Node2&#45;&gt;Node3</title>
<g id="a_edge2_Node000002_Node000003"><a xlink:title=" ">
<path fill="none" stroke="#63b8ff" d="M298.36,-15C306.61,-15 315.22,-15 323.69,-15"/>
<polygon fill="#63b8ff" stroke="#63b8ff" points="323.92,-18.5 333.92,-15 323.92,-11.5 323.92,-18.5"/>
</a>
</g>
</g>
</g>
</svg>
