<?xml version="1.0" encoding="UTF-8" standalone="no"?>
<!DOCTYPE svg PUBLIC "-//W3C//DTD SVG 1.1//EN"
 "http://www.w3.org/Graphics/SVG/1.1/DTD/svg11.dtd">
<!-- Generated by graphviz version 2.43.0 (0)
 -->
<!-- Title: ttg::trace_on Pages: 1 -->
<svg width="573pt" height="126pt"
 viewBox="0.00 0.00 573.00 125.50" xmlns="http://www.w3.org/2000/svg" xmlns:xlink="http://www.w3.org/1999/xlink">
<g id="graph0" class="graph" transform="scale(1 1) rotate(0) translate(4 121.5)">
<title>ttg::trace_on</title>
<!-- Node1 -->
<g id="Node000001" class="node">
<title>Node1</title>
<g id="a_Node000001"><a xlink:title="enables tracing; if trace_enabled()==true this has no effect">
<polygon fill="#999999" stroke="#666666" points="80,-19 0,-19 0,0 80,0 80,-19"/>
<text text-anchor="middle" x="40" y="-7" font-family="Times,serif" font-size="10.00">ttg::trace_on</text>
</a>
</g>
</g>
<!-- Node2 -->
<g id="Node000002" class="node">
<title>Node2</title>
<g id="a_Node000002"><a xlink:href="namespacettg_1_1detail.html#a95356c3874e7ec9268a40feb4fc1519f" target="_top" xlink:title=" ">
<polygon fill="white" stroke="#666666" points="213,-46.5 116,-46.5 116,-16.5 213,-16.5 213,-46.5"/>
<text text-anchor="start" x="124" y="-34.5" font-family="Times,serif" font-size="10.00">ttg::detail::trace</text>
<text text-anchor="middle" x="164.5" y="-23.5" font-family="Times,serif" font-size="10.00">_accessor</text>
</a>
</g>
</g>
<!-- Node1&#45;&gt;Node2 -->
<g id="edge1_Node000001_Node000002" class="edge">
<title>Node1&#45;&gt;Node2</title>
<g id="a_edge1_Node000001_Node000002"><a xlink:title=" ">
<path fill="none" stroke="#63b8ff" d="M80.1,-16.52C88.25,-17.99 97.01,-19.56 105.67,-21.11"/>
<polygon fill="#63b8ff" stroke="#63b8ff" points="105.3,-24.6 115.76,-22.93 106.54,-17.71 105.3,-24.6"/>
</a>
</g>
</g>
<!-- Node6 -->
<g id="Node000006" class="node">
<title>Node6</title>
<g id="a_Node000006"><a xlink:href="namespacettg.html#afbdd9c742be395e0746fdbc26c7d55cc" target="_top" xlink:title="returns whether tracing was enabled at configure time">
<polygon fill="white" stroke="#666666" points="565,-36 456,-36 456,-17 565,-17 565,-36"/>
<text text-anchor="middle" x="510.5" y="-24" font-family="Times,serif" font-size="10.00">ttg::trace_enabled</text>
</a>
</g>
</g>
<!-- Node1&#45;&gt;Node6 -->
<g id="edge9_Node000001_Node000006" class="edge">
<title>Node1&#45;&gt;Node6</title>
<g id="a_edge9_Node000001_Node000006"><a xlink:title=" ">
<path fill="none" stroke="#63b8ff" d="M80.14,-6.72C149.05,-2.42 296.45,4.1 420,-8.5 433.32,-9.86 447.59,-12.28 460.74,-14.92"/>
<polygon fill="#63b8ff" stroke="#63b8ff" points="460.04,-18.34 470.54,-16.96 461.47,-11.49 460.04,-18.34"/>
</a>
</g>
</g>
<!-- Node3 -->
<g id="Node000003" class="node">
<title>Node3</title>
<g id="a_Node000003"><a xlink:href="namespacettg.html#af5e470229c1ddef41b83b6398a5dc583" target="_top" xlink:title=" ">
<polygon fill="white" stroke="#666666" points="311,-74 249,-74 249,-55 311,-55 311,-74"/>
<text text-anchor="middle" x="280" y="-62" font-family="Times,serif" font-size="10.00">ttg::trace</text>
</a>
</g>
</g>
<!-- Node2&#45;&gt;Node3 -->
<g id="edge2_Node000002_Node000003" class="edge">
<title>Node2&#45;&gt;Node3</title>
<g id="a_edge2_Node000002_Node000003"><a xlink:title=" ">
<path fill="none" stroke="#63b8ff" d="M213.31,-45.4C221.83,-47.88 230.64,-50.44 238.92,-52.85"/>
<polygon fill="#63b8ff" stroke="#63b8ff" points="238.14,-56.26 248.72,-55.69 240.09,-49.54 238.14,-56.26"/>
</a>
</g>
</g>
<!-- Node4 -->
<g id="Node000004" class="node">
<title>Node4</title>
<g id="a_Node000004"><a xlink:href="namespacettg.html#aacacfe8bc9582308a405c4370650a9d4" target="_top" xlink:title="atomically prints to std::clog a sequence of items (separated by ttg::print_separator) followed by st...">
<polygon fill="white" stroke="#666666" points="410,-112 357,-112 357,-93 410,-93 410,-112"/>
<text text-anchor="middle" x="383.5" y="-100" font-family="Times,serif" font-size="10.00">ttg::log</text>
</a>
</g>
</g>
<!-- Node3&#45;&gt;Node4 -->
<g id="edge3_Node000003_Node000004" class="edge">
<title>Node3&#45;&gt;Node4</title>
<g id="a_edge3_Node000003_Node000004"><a xlink:title=" ">
<path fill="none" stroke="#63b8ff" d="M306.61,-74.09C318.99,-78.72 334.05,-84.36 347.47,-89.39"/>
<polygon fill="#63b8ff" stroke="#63b8ff" points="346.3,-92.69 356.9,-92.91 348.76,-86.13 346.3,-92.69"/>
</a>
</g>
</g>
<!-- Node3&#45;&gt;Node6 -->
<g id="edge5_Node000003_Node000006" class="edge">
<title>Node3&#45;&gt;Node6</title>
<g id="a_edge5_Node000003_Node000006"><a xlink:title=" ">
<path fill="none" stroke="#63b8ff" d="M311.2,-61.02C339.42,-57.62 382.69,-52 420,-45.5 432.23,-43.37 445.32,-40.77 457.63,-38.19"/>
<polygon fill="#63b8ff" stroke="#63b8ff" points="458.68,-41.54 467.73,-36.03 457.22,-34.69 458.68,-41.54"/>
</a>
</g>
</g>
<!-- Node7 -->
<g id="Node000007" class="node">
<title>Node7</title>
<g id="a_Node000007"><a xlink:href="namespacettg.html#abfb8501d408a1ed918cc2a540865a2d8" target="_top" xlink:title="returns whether tracing is enabled">
<polygon fill="white" stroke="#666666" points="420,-36 347,-36 347,-17 420,-17 420,-36"/>
<text text-anchor="middle" x="383.5" y="-24" font-family="Times,serif" font-size="10.00">ttg::tracing</text>
</a>
</g>
</g>
<!-- Node3&#45;&gt;Node7 -->
<g id="edge6_Node000003_Node000007" class="edge">
<title>Node3&#45;&gt;Node7</title>
<g id="a_edge6_Node000003_Node000007"><a xlink:title=" ">
<path fill="none" stroke="#63b8ff" d="M306.61,-54.91C318.99,-50.28 334.05,-44.64 347.47,-39.61"/>
<polygon fill="#63b8ff" stroke="#63b8ff" points="348.76,-42.87 356.9,-36.09 346.3,-36.31 348.76,-42.87"/>
</a>
</g>
</g>
<!-- Node5 -->
<g id="Node000005" class="node">
<title>Node5</title>
<g id="a_Node000005"><a xlink:href="namespacettg_1_1detail.html#a26e07486d5ef8eb5735a8975991a7693" target="_top" xlink:title=" ">
<polygon fill="white" stroke="#666666" points="558.5,-117.5 462.5,-117.5 462.5,-87.5 558.5,-87.5 558.5,-117.5"/>
<text text-anchor="start" x="470.5" y="-105.5" font-family="Times,serif" font-size="10.00">ttg::detail::print</text>
<text text-anchor="middle" x="510.5" y="-94.5" font-family="Times,serif" font-size="10.00">_helper</text>
</a>
</g>
</g>
<!-- Node4&#45;&gt;Node5 -->
<g id="edge4_Node000004_Node000005" class="edge">
<title>Node4&#45;&gt;Node5</title>
<g id="a_edge4_Node000004_Node000005"><a xlink:title=" ">
<path fill="none" stroke="#63b8ff" d="M410.1,-102.5C422.34,-102.5 437.53,-102.5 452.32,-102.5"/>
<polygon fill="#63b8ff" stroke="#63b8ff" points="452.46,-106 462.46,-102.5 452.46,-99 452.46,-106"/>
</a>
</g>
</g>
<!-- Node7&#45;&gt;Node2 -->
<g id="edge7_Node000007_Node000002" class="edge">
<title>Node7&#45;&gt;Node2</title>
<g id="a_edge7_Node000007_Node000002"><a xlink:title=" ">
<path fill="none" stroke="#63b8ff" d="M346.77,-27.32C313.28,-28.1 262.61,-29.26 223.35,-30.17"/>
<polygon fill="#63b8ff" stroke="#63b8ff" points="223.04,-26.67 213.12,-30.4 223.2,-33.67 223.04,-26.67"/>
</a>
</g>
</g>
<!-- Node7&#45;&gt;Node6 -->
<g id="edge8_Node000007_Node000006" class="edge">
<title>Node7&#45;&gt;Node6</title>
<g id="a_edge8_Node000007_Node000006"><a xlink:title=" ">
<path fill="none" stroke="#63b8ff" d="M420.32,-26.5C428.31,-26.5 437.01,-26.5 445.74,-26.5"/>
<polygon fill="#63b8ff" stroke="#63b8ff" points="445.97,-30 455.97,-26.5 445.97,-23 445.97,-30"/>
</a>
</g>
</g>
</g>
</svg>
