<?xml version="1.0" encoding="UTF-8" standalone="no"?>
<!DOCTYPE svg PUBLIC "-//W3C//DTD SVG 1.1//EN"
 "http://www.w3.org/Graphics/SVG/1.1/DTD/svg11.dtd">
<!-- Generated by graphviz version 2.43.0 (0)
 -->
<!-- Title: ttg::connect Pages: 1 -->
<svg width="738pt" height="312pt"
 viewBox="0.00 0.00 738.00 312.00" xmlns="http://www.w3.org/2000/svg" xmlns:xlink="http://www.w3.org/1999/xlink">
<g id="graph0" class="graph" transform="scale(1 1) rotate(0) translate(4 308)">
<title>ttg::connect</title>
<!-- Node1 -->
<g id="Node000001" class="node">
<title>Node1</title>
<g id="a_Node000001"><a xlink:title="Connect producer output terminal outindex to consumer input terminal inindex (via bare pointers to TT...">
<polygon fill="#999999" stroke="#666666" points="77,-178.5 0,-178.5 0,-159.5 77,-159.5 77,-178.5"/>
<text text-anchor="middle" x="38.5" y="-166.5" font-family="Times,serif" font-size="10.00">ttg::connect</text>
</a>
</g>
</g>
<!-- Node2 -->
<g id="Node000002" class="node">
<title>Node2</title>
<g id="a_Node000002"><a xlink:href="namespacettg.html#ac31d3ffe687039e52a8179b0ffca7153" target="_top" xlink:title="Connect output terminal to successor input terminal.">
<polygon fill="white" stroke="#666666" points="190,-178.5 113,-178.5 113,-159.5 190,-159.5 190,-178.5"/>
<text text-anchor="middle" x="151.5" y="-166.5" font-family="Times,serif" font-size="10.00">ttg::connect</text>
</a>
</g>
</g>
<!-- Node1&#45;&gt;Node2 -->
<g id="edge1_Node000001_Node000002" class="edge">
<title>Node1&#45;&gt;Node2</title>
<g id="a_edge1_Node000001_Node000002"><a xlink:title=" ">
<path fill="none" stroke="#63b8ff" d="M77.08,-169C85.31,-169 94.12,-169 102.69,-169"/>
<polygon fill="#63b8ff" stroke="#63b8ff" points="102.96,-172.5 112.96,-169 102.96,-165.5 102.96,-172.5"/>
</a>
</g>
</g>
<!-- Node3 -->
<g id="Node000003" class="node">
<title>Node3</title>
<g id="a_Node000003"><a xlink:href="classttg_1_1_out.html#a0dd09ce5a40514317b0677a68e08a4a8" target="_top" xlink:title=" ">
<polygon fill="white" stroke="#666666" points="327,-178.5 226,-178.5 226,-159.5 327,-159.5 327,-178.5"/>
<text text-anchor="middle" x="276.5" y="-166.5" font-family="Times,serif" font-size="10.00">ttg::Out::connect</text>
</a>
</g>
</g>
<!-- Node2&#45;&gt;Node3 -->
<g id="edge2_Node000002_Node000003" class="edge">
<title>Node2&#45;&gt;Node3</title>
<g id="a_edge2_Node000002_Node000003"><a xlink:title=" ">
<path fill="none" stroke="#63b8ff" d="M190.07,-169C198.2,-169 206.98,-169 215.72,-169"/>
<polygon fill="#63b8ff" stroke="#63b8ff" points="215.91,-172.5 225.91,-169 215.91,-165.5 215.91,-172.5"/>
</a>
</g>
</g>
<!-- Node4 -->
<g id="Node000004" class="node">
<title>Node4</title>
<g id="a_Node000004"><a xlink:href="classttg_1_1_terminal_base.html#a40df40809acfc616d60c9377bf6cfa61" target="_top" xlink:title=" ">
<polygon fill="white" stroke="#666666" points="476,-304 363,-304 363,-274 476,-274 476,-304"/>
<text text-anchor="start" x="371" y="-292" font-family="Times,serif" font-size="10.00">ttg::TerminalBase::</text>
<text text-anchor="middle" x="419.5" y="-281" font-family="Times,serif" font-size="10.00">connect_base</text>
</a>
</g>
</g>
<!-- Node3&#45;&gt;Node4 -->
<g id="edge3_Node000003_Node000004" class="edge">
<title>Node3&#45;&gt;Node4</title>
<g id="a_edge3_Node000003_Node000004"><a xlink:title=" ">
<path fill="none" stroke="#63b8ff" d="M283.94,-178.7C296.9,-197.59 327.9,-239.64 363,-265 364.87,-266.35 366.82,-267.64 368.83,-268.88"/>
<polygon fill="#63b8ff" stroke="#63b8ff" points="367.51,-272.15 377.95,-273.95 370.91,-266.03 367.51,-272.15"/>
</a>
</g>
</g>
<!-- Node5 -->
<g id="Node000005" class="node">
<title>Node5</title>
<g id="a_Node000005"><a xlink:href="classttg_1_1_terminal_base.html#ab19aac249a137dbb8199e5d87dfefd5c" target="_top" xlink:title=" ">
<polygon fill="white" stroke="#666666" points="476,-256 363,-256 363,-226 476,-226 476,-256"/>
<text text-anchor="start" x="371" y="-244" font-family="Times,serif" font-size="10.00">ttg::TerminalBase::</text>
<text text-anchor="middle" x="419.5" y="-233" font-family="Times,serif" font-size="10.00">connect_pull</text>
</a>
</g>
</g>
<!-- Node3&#45;&gt;Node5 -->
<g id="edge4_Node000003_Node000005" class="edge">
<title>Node3&#45;&gt;Node5</title>
<g id="a_edge4_Node000003_Node000005"><a xlink:title=" ">
<path fill="none" stroke="#63b8ff" d="M293.31,-178.53C310.27,-188.59 338.14,-204.69 363,-217 366.15,-218.56 369.43,-220.13 372.75,-221.66"/>
<polygon fill="#63b8ff" stroke="#63b8ff" points="371.58,-224.98 382.13,-225.91 374.46,-218.6 371.58,-224.98"/>
</a>
</g>
</g>
<!-- Node6 -->
<g id="Node000006" class="node">
<title>Node6</title>
<g id="a_Node000006"><a xlink:href="classttg_1_1_terminal_base.html#afb14b11c29459fc8aa5a2cb4297b5c2e" target="_top" xlink:title="Returns name of terminal.">
<polygon fill="white" stroke="#666666" points="476,-208 363,-208 363,-178 476,-178 476,-208"/>
<text text-anchor="start" x="371" y="-196" font-family="Times,serif" font-size="10.00">ttg::TerminalBase::</text>
<text text-anchor="middle" x="419.5" y="-185" font-family="Times,serif" font-size="10.00">get_name</text>
</a>
</g>
</g>
<!-- Node3&#45;&gt;Node6 -->
<g id="edge5_Node000003_Node000006" class="edge">
<title>Node3&#45;&gt;Node6</title>
<g id="a_edge5_Node000003_Node000006"><a xlink:title=" ">
<path fill="none" stroke="#63b8ff" d="M327.21,-177.46C335.53,-178.88 344.28,-180.37 352.92,-181.84"/>
<polygon fill="#63b8ff" stroke="#63b8ff" points="352.55,-185.32 362.99,-183.55 353.72,-178.42 352.55,-185.32"/>
</a>
</g>
</g>
<!-- Node7 -->
<g id="Node000007" class="node">
<title>Node7</title>
<g id="a_Node000007"><a xlink:href="classttg_1_1_terminal_base.html#a57202041203e7ed427c3f2fe28d39e7b" target="_top" xlink:title="Returns the terminal type.">
<polygon fill="white" stroke="#666666" points="476,-160 363,-160 363,-130 476,-130 476,-160"/>
<text text-anchor="start" x="371" y="-148" font-family="Times,serif" font-size="10.00">ttg::TerminalBase::</text>
<text text-anchor="middle" x="419.5" y="-137" font-family="Times,serif" font-size="10.00">get_type</text>
</a>
</g>
</g>
<!-- Node3&#45;&gt;Node7 -->
<g id="edge6_Node000003_Node000007" class="edge">
<title>Node3&#45;&gt;Node7</title>
<g id="a_edge6_Node000003_Node000007"><a xlink:title=" ">
<path fill="none" stroke="#63b8ff" d="M327.21,-160.54C335.53,-159.12 344.28,-157.63 352.92,-156.16"/>
<polygon fill="#63b8ff" stroke="#63b8ff" points="353.72,-159.58 362.99,-154.45 352.55,-152.68 353.72,-159.58"/>
</a>
</g>
</g>
<!-- Node8 -->
<g id="Node000008" class="node">
<title>Node8</title>
<g id="a_Node000008"><a xlink:href="namespacettg.html#ac0ad1dd3b87329e4acf9774df6dc8473" target="_top" xlink:title=" ">
<polygon fill="white" stroke="#666666" points="449.5,-111.5 389.5,-111.5 389.5,-92.5 449.5,-92.5 449.5,-111.5"/>
<text text-anchor="middle" x="419.5" y="-99.5" font-family="Times,serif" font-size="10.00">ttg::rank</text>
</a>
</g>
</g>
<!-- Node3&#45;&gt;Node8 -->
<g id="edge7_Node000003_Node000008" class="edge">
<title>Node3&#45;&gt;Node8</title>
<g id="a_edge7_Node000003_Node000008"><a xlink:title=" ">
<path fill="none" stroke="#63b8ff" d="M292.51,-159.46C309.25,-149.1 337.36,-132.47 363,-121 368.36,-118.6 374.12,-116.32 379.83,-114.22"/>
<polygon fill="#63b8ff" stroke="#63b8ff" points="381.04,-117.51 389.31,-110.88 378.71,-110.91 381.04,-117.51"/>
</a>
</g>
</g>
<!-- Node9 -->
<g id="Node000009" class="node">
<title>Node9</title>
<g id="a_Node000009"><a xlink:href="namespacettg.html#af5e470229c1ddef41b83b6398a5dc583" target="_top" xlink:title=" ">
<polygon fill="white" stroke="#666666" points="450.5,-74.5 388.5,-74.5 388.5,-55.5 450.5,-55.5 450.5,-74.5"/>
<text text-anchor="middle" x="419.5" y="-62.5" font-family="Times,serif" font-size="10.00">ttg::trace</text>
</a>
</g>
</g>
<!-- Node3&#45;&gt;Node9 -->
<g id="edge8_Node000003_Node000009" class="edge">
<title>Node3&#45;&gt;Node9</title>
<g id="a_edge8_Node000003_Node000009"><a xlink:title=" ">
<path fill="none" stroke="#63b8ff" d="M284.67,-159.43C298.16,-142.03 329.05,-105.11 363,-84 367.81,-81.01 373.15,-78.42 378.57,-76.2"/>
<polygon fill="#63b8ff" stroke="#63b8ff" points="380.13,-79.36 388.29,-72.6 377.69,-72.79 380.13,-79.36"/>
</a>
</g>
</g>
<!-- Node10 -->
<g id="Node000010" class="node">
<title>Node10</title>
<g id="a_Node000010"><a xlink:href="namespacettg.html#aacacfe8bc9582308a405c4370650a9d4" target="_top" xlink:title="atomically prints to std::clog a sequence of items (separated by ttg::print_separator) followed by st...">
<polygon fill="white" stroke="#666666" points="575,-131.5 522,-131.5 522,-112.5 575,-112.5 575,-131.5"/>
<text text-anchor="middle" x="548.5" y="-119.5" font-family="Times,serif" font-size="10.00">ttg::log</text>
</a>
</g>
</g>
<!-- Node9&#45;&gt;Node10 -->
<g id="edge9_Node000009_Node000010" class="edge">
<title>Node9&#45;&gt;Node10</title>
<g id="a_edge9_Node000009_Node000010"><a xlink:title=" ">
<path fill="none" stroke="#63b8ff" d="M450.79,-74.4C459.06,-77.23 467.96,-80.52 476,-84 491.93,-90.91 509.13,-99.99 522.67,-107.55"/>
<polygon fill="#63b8ff" stroke="#63b8ff" points="520.97,-110.61 531.39,-112.49 524.42,-104.52 520.97,-110.61"/>
</a>
</g>
</g>
<!-- Node12 -->
<g id="Node000012" class="node">
<title>Node12</title>
<g id="a_Node000012"><a xlink:href="namespacettg.html#afbdd9c742be395e0746fdbc26c7d55cc" target="_top" xlink:title="returns whether tracing was enabled at configure time">
<polygon fill="white" stroke="#666666" points="730,-81.5 621,-81.5 621,-62.5 730,-62.5 730,-81.5"/>
<text text-anchor="middle" x="675.5" y="-69.5" font-family="Times,serif" font-size="10.00">ttg::trace_enabled</text>
</a>
</g>
</g>
<!-- Node9&#45;&gt;Node12 -->
<g id="edge11_Node000009_Node000012" class="edge">
<title>Node9&#45;&gt;Node12</title>
<g id="a_edge11_Node000009_Node000012"><a xlink:title=" ">
<path fill="none" stroke="#63b8ff" d="M450.63,-65.83C489.85,-66.91 559.41,-68.83 610.62,-70.24"/>
<polygon fill="#63b8ff" stroke="#63b8ff" points="610.83,-73.75 620.92,-70.52 611.02,-66.75 610.83,-73.75"/>
</a>
</g>
</g>
<!-- Node13 -->
<g id="Node000013" class="node">
<title>Node13</title>
<g id="a_Node000013"><a xlink:href="namespacettg.html#abfb8501d408a1ed918cc2a540865a2d8" target="_top" xlink:title="returns whether tracing is enabled">
<polygon fill="white" stroke="#666666" points="585,-55.5 512,-55.5 512,-36.5 585,-36.5 585,-55.5"/>
<text text-anchor="middle" x="548.5" y="-43.5" font-family="Times,serif" font-size="10.00">ttg::tracing</text>
</a>
</g>
</g>
<!-- Node9&#45;&gt;Node13 -->
<g id="edge12_Node000009_Node000013" class="edge">
<title>Node9&#45;&gt;Node13</title>
<g id="a_edge12_Node000009_Node000013"><a xlink:title=" ">
<path fill="none" stroke="#63b8ff" d="M450.6,-60.5C465.78,-58.23 484.53,-55.42 501.48,-52.88"/>
<polygon fill="#63b8ff" stroke="#63b8ff" points="502.38,-56.29 511.75,-51.35 501.34,-49.37 502.38,-56.29"/>
</a>
</g>
</g>
<!-- Node11 -->
<g id="Node000011" class="node">
<title>Node11</title>
<g id="a_Node000011"><a xlink:href="namespacettg_1_1detail.html#a26e07486d5ef8eb5735a8975991a7693" target="_top" xlink:title=" ">
<polygon fill="white" stroke="#666666" points="723.5,-137 627.5,-137 627.5,-107 723.5,-107 723.5,-137"/>
<text text-anchor="start" x="635.5" y="-125" font-family="Times,serif" font-size="10.00">ttg::detail::print</text>
<text text-anchor="middle" x="675.5" y="-114" font-family="Times,serif" font-size="10.00">_helper</text>
</a>
</g>
</g>
<!-- Node10&#45;&gt;Node11 -->
<g id="edge10_Node000010_Node000011" class="edge">
<title>Node10&#45;&gt;Node11</title>
<g id="a_edge10_Node000010_Node000011"><a xlink:title=" ">
<path fill="none" stroke="#63b8ff" d="M575.1,-122C587.34,-122 602.53,-122 617.32,-122"/>
<polygon fill="#63b8ff" stroke="#63b8ff" points="617.46,-125.5 627.46,-122 617.46,-118.5 617.46,-125.5"/>
</a>
</g>
</g>
<!-- Node13&#45;&gt;Node12 -->
<g id="edge15_Node000013_Node000012" class="edge">
<title>Node13&#45;&gt;Node12</title>
<g id="a_edge15_Node000013_Node000012"><a xlink:title=" ">
<path fill="none" stroke="#63b8ff" d="M585.32,-53.45C595.7,-55.61 607.29,-58.02 618.58,-60.37"/>
<polygon fill="#63b8ff" stroke="#63b8ff" points="617.89,-63.8 628.4,-62.41 619.32,-56.95 617.89,-63.8"/>
</a>
</g>
</g>
<!-- Node14 -->
<g id="Node000014" class="node">
<title>Node14</title>
<g id="a_Node000014"><a xlink:href="namespacettg_1_1detail.html#a95356c3874e7ec9268a40feb4fc1519f" target="_top" xlink:title=" ">
<polygon fill="white" stroke="#666666" points="724,-30 627,-30 627,0 724,0 724,-30"/>
<text text-anchor="start" x="635" y="-18" font-family="Times,serif" font-size="10.00">ttg::detail::trace</text>
<text text-anchor="middle" x="675.5" y="-7" font-family="Times,serif" font-size="10.00">_accessor</text>
</a>
</g>
</g>
<!-- Node13&#45;&gt;Node14 -->
<g id="edge13_Node000013_Node000014" class="edge">
<title>Node13&#45;&gt;Node14</title>
<g id="a_edge13_Node000013_Node000014"><a xlink:title=" ">
<path fill="none" stroke="#63b8ff" d="M585.32,-37.12C595.15,-34.68 606.07,-31.97 616.79,-29.31"/>
<polygon fill="#63b8ff" stroke="#63b8ff" points="617.69,-32.69 626.56,-26.89 616.01,-25.9 617.69,-32.69"/>
</a>
</g>
</g>
<!-- Node14&#45;&gt;Node9 -->
<g id="edge14_Node000014_Node000009" class="edge">
<title>Node14&#45;&gt;Node9</title>
<g id="a_edge14_Node000014_Node000009"><a xlink:title=" ">
<path fill="none" stroke="#63b8ff" d="M626.96,-14.54C594.23,-15.18 549.98,-17.96 512,-27 489.55,-32.34 465.5,-42.52 447.7,-51"/>
<polygon fill="#63b8ff" stroke="#63b8ff" points="445.94,-47.96 438.5,-55.49 449.02,-54.25 445.94,-47.96"/>
</a>
</g>
</g>
</g>
</svg>
