<?xml version="1.0" encoding="UTF-8" standalone="no"?>
<!DOCTYPE svg PUBLIC "-//W3C//DTD SVG 1.1//EN"
 "http://www.w3.org/Graphics/SVG/1.1/DTD/svg11.dtd">
<!-- Generated by graphviz version 2.43.0 (0)
 -->
<!-- Title: ttg::invoke_once Pages: 1 -->
<svg width="756pt" height="201pt"
 viewBox="0.00 0.00 756.00 200.86" xmlns="http://www.w3.org/2000/svg" xmlns:xlink="http://www.w3.org/1999/xlink">
<g id="graph0" class="graph" transform="scale(1 1) rotate(0) translate(4 196.86)">
<title>ttg::invoke_once</title>
<!-- Node1 -->
<g id="Node000001" class="node">
<title>Node1</title>
<g id="a_Node000001"><a xlink:title=" ">
<polygon fill="#999999" stroke="#666666" points="100,-105.5 0,-105.5 0,-86.5 100,-86.5 100,-105.5"/>
<text text-anchor="middle" x="50" y="-93.5" font-family="Times,serif" font-size="10.00">ttg::invoke_once</text>
</a>
</g>
</g>
<!-- Node2 -->
<g id="Node000002" class="node">
<title>Node2</title>
<g id="a_Node000002"><a xlink:href="classttg__parsec_1_1_t_t.html#a0b6df5b0372c3a8819ecf15f2f3bc0b0" target="_top" xlink:title=" ">
<polygon fill="white" stroke="#666666" points="255.5,-154 144.5,-154 144.5,-124 255.5,-124 255.5,-154"/>
<text text-anchor="start" x="152.5" y="-142" font-family="Times,serif" font-size="10.00">ttg_parsec::TT::get</text>
<text text-anchor="middle" x="200" y="-131" font-family="Times,serif" font-size="10.00">_world</text>
</a>
</g>
</g>
<!-- Node1&#45;&gt;Node2 -->
<g id="edge1_Node000001_Node000002" class="edge">
<title>Node1&#45;&gt;Node2</title>
<g id="a_edge1_Node000001_Node000002"><a xlink:title=" ">
<path fill="none" stroke="#63b8ff" d="M83.85,-105.54C99.65,-110.14 119.14,-115.8 137.55,-121.15"/>
<polygon fill="#63b8ff" stroke="#63b8ff" points="136.77,-124.56 147.35,-123.99 138.72,-117.84 136.77,-124.56"/>
</a>
</g>
</g>
<!-- Node3 -->
<g id="Node000003" class="node">
<title>Node3</title>
<g id="a_Node000003"><a xlink:href="classttg__parsec_1_1_t_t.html#a4d282fbdfbcd425d02419d599a3893d3" target="_top" xlink:title=" ">
<polygon fill="white" stroke="#666666" points="264,-105.5 136,-105.5 136,-86.5 264,-86.5 264,-105.5"/>
<text text-anchor="middle" x="200" y="-93.5" font-family="Times,serif" font-size="10.00">ttg_parsec::TT::invoke</text>
</a>
</g>
</g>
<!-- Node1&#45;&gt;Node3 -->
<g id="edge2_Node000001_Node000003" class="edge">
<title>Node1&#45;&gt;Node3</title>
<g id="a_edge2_Node000001_Node000003"><a xlink:title=" ">
<path fill="none" stroke="#63b8ff" d="M100.28,-96C108.5,-96 117.18,-96 125.84,-96"/>
<polygon fill="#63b8ff" stroke="#63b8ff" points="125.98,-99.5 135.98,-96 125.98,-92.5 125.98,-99.5"/>
</a>
</g>
</g>
<!-- Node8 -->
<g id="Node000008" class="node">
<title>Node8</title>
<g id="a_Node000008"><a xlink:href="classttg_1_1base_1_1_world.html#a7c354d1e43268884cb3b947f44ce0f5e" target="_top" xlink:title=" ">
<polygon fill="white" stroke="#666666" points="263,-46.5 137,-46.5 137,-27.5 263,-27.5 263,-46.5"/>
<text text-anchor="middle" x="200" y="-34.5" font-family="Times,serif" font-size="10.00">ttg::base::World::rank</text>
</a>
</g>
</g>
<!-- Node1&#45;&gt;Node8 -->
<g id="edge13_Node000001_Node000008" class="edge">
<title>Node1&#45;&gt;Node8</title>
<g id="a_edge13_Node000001_Node000008"><a xlink:title=" ">
<path fill="none" stroke="#63b8ff" d="M75.11,-86.39C99.62,-76.62 137.8,-61.4 165.3,-50.43"/>
<polygon fill="#63b8ff" stroke="#63b8ff" points="166.91,-53.56 174.9,-46.61 164.32,-47.06 166.91,-53.56"/>
</a>
</g>
</g>
<!-- Node4 -->
<g id="Node000004" class="node">
<title>Node4</title>
<g id="a_Node000004"><a xlink:href="classttg__parsec_1_1_t_t.html#aab59a1bf0fcc4f771457b5f05cb42741" target="_top" xlink:title=" ">
<polygon fill="white" stroke="#666666" points="748,-105.5 637,-105.5 637,-86.5 748,-86.5 748,-105.5"/>
<text text-anchor="middle" x="692.5" y="-93.5" font-family="Times,serif" font-size="10.00">ttg_parsec::TT::get</text>
</a>
</g>
</g>
<!-- Node3&#45;&gt;Node4 -->
<g id="edge3_Node000003_Node000004" class="edge">
<title>Node3&#45;&gt;Node4</title>
<g id="a_edge3_Node000003_Node000004"><a xlink:title=" ">
<path fill="none" stroke="#63b8ff" d="M237.45,-105.55C246.27,-108.25 255.58,-111.44 264,-115 280.86,-122.13 282.88,-128.52 300,-135 426.02,-182.66 474.25,-216.69 601,-171 632.63,-159.6 661.03,-131.8 677.26,-113.44"/>
<polygon fill="#63b8ff" stroke="#63b8ff" points="679.99,-115.64 683.83,-105.76 674.67,-111.09 679.99,-115.64"/>
</a>
</g>
</g>
<!-- Node5 -->
<g id="Node000005" class="node">
<title>Node5</title>
<g id="a_Node000005"><a xlink:href="namespacettg_1_1meta.html#affd90f350d054c6a5b4859644d834172" target="_top" xlink:title=" ">
<polygon fill="white" stroke="#666666" points="575,-143.5 490,-143.5 490,-124.5 575,-124.5 575,-143.5"/>
<text text-anchor="middle" x="532.5" y="-131.5" font-family="Times,serif" font-size="10.00">ttg::meta::get</text>
</a>
</g>
</g>
<!-- Node3&#45;&gt;Node5 -->
<g id="edge5_Node000003_Node000005" class="edge">
<title>Node3&#45;&gt;Node5</title>
<g id="a_edge5_Node000003_Node000005"><a xlink:title=" ">
<path fill="none" stroke="#63b8ff" d="M245.19,-105.54C262.25,-108.94 281.97,-112.54 300,-115 361.48,-123.4 432.68,-128.56 479.71,-131.35"/>
<polygon fill="#63b8ff" stroke="#63b8ff" points="479.77,-134.86 489.95,-131.94 480.17,-127.87 479.77,-134.86"/>
</a>
</g>
</g>
<!-- Node6 -->
<g id="Node000006" class="node">
<title>Node6</title>
<g id="a_Node000006"><a xlink:href="classttg__parsec_1_1_t_t.html#a5ea389d7d61418b2bef42db57b3ac927" target="_top" xlink:title=" ">
<polygon fill="white" stroke="#666666" points="428,-105.5 300,-105.5 300,-86.5 428,-86.5 428,-105.5"/>
<text text-anchor="middle" x="364" y="-93.5" font-family="Times,serif" font-size="10.00">ttg_parsec::TT::invoke</text>
</a>
</g>
</g>
<!-- Node3&#45;&gt;Node6 -->
<g id="edge7_Node000003_Node000006" class="edge">
<title>Node3&#45;&gt;Node6</title>
<g id="a_edge7_Node000003_Node000006"><a xlink:title=" ">
<path fill="none" stroke="#63b8ff" d="M264.1,-96C272.43,-96 281.04,-96 289.53,-96"/>
<polygon fill="#63b8ff" stroke="#63b8ff" points="289.81,-99.5 299.81,-96 289.81,-92.5 289.81,-99.5"/>
</a>
</g>
</g>
<!-- Node7 -->
<g id="Node000007" class="node">
<title>Node7</title>
<g id="a_Node000007"><a xlink:href="classttg__parsec_1_1_t_t.html#a55afaaaabd276251b531942c1ff5abe4" target="_top" xlink:title=" ">
<polygon fill="white" stroke="#666666" points="601,-67.5 464,-67.5 464,-48.5 601,-48.5 601,-67.5"/>
<text text-anchor="middle" x="532.5" y="-55.5" font-family="Times,serif" font-size="10.00">ttg_parsec::TT::set_args</text>
</a>
</g>
</g>
<!-- Node3&#45;&gt;Node7 -->
<g id="edge12_Node000003_Node000007" class="edge">
<title>Node3&#45;&gt;Node7</title>
<g id="a_edge12_Node000003_Node000007"><a xlink:title=" ">
<path fill="none" stroke="#63b8ff" d="M248.19,-86.49C264.55,-83.44 283.03,-80.27 300,-78 351.11,-71.16 408.9,-66.16 453.96,-62.88"/>
<polygon fill="#63b8ff" stroke="#63b8ff" points="454.23,-66.37 463.95,-62.16 453.73,-59.38 454.23,-66.37"/>
</a>
</g>
</g>
<!-- Node4&#45;&gt;Node4 -->
<g id="edge4_Node000004_Node000004" class="edge">
<title>Node4&#45;&gt;Node4</title>
<g id="a_edge4_Node000004_Node000004"><a xlink:title=" ">
<path fill="none" stroke="#63b8ff" d="M667.84,-105.58C655.84,-114.23 664.06,-123.5 692.5,-123.5 711.16,-123.5 721.12,-119.51 722.37,-114.32"/>
<polygon fill="#63b8ff" stroke="#63b8ff" points="725.29,-112.38 717.16,-105.58 719.27,-115.97 725.29,-112.38"/>
</a>
</g>
</g>
<!-- Node5&#45;&gt;Node5 -->
<g id="edge6_Node000005_Node000005" class="edge">
<title>Node5&#45;&gt;Node5</title>
<g id="a_edge6_Node000005_Node000005"><a xlink:title=" ">
<path fill="none" stroke="#63b8ff" d="M507.84,-143.58C495.84,-152.23 504.06,-161.5 532.5,-161.5 551.16,-161.5 561.12,-157.51 562.37,-152.32"/>
<polygon fill="#63b8ff" stroke="#63b8ff" points="565.29,-150.38 557.16,-143.58 559.27,-153.97 565.29,-150.38"/>
</a>
</g>
</g>
<!-- Node6&#45;&gt;Node4 -->
<g id="edge8_Node000006_Node000004" class="edge">
<title>Node6&#45;&gt;Node4</title>
<g id="a_edge8_Node000006_Node000004"><a xlink:title=" ">
<path fill="none" stroke="#63b8ff" d="M428.34,-96C485.46,-96 569.09,-96 626.67,-96"/>
<polygon fill="#63b8ff" stroke="#63b8ff" points="626.74,-99.5 636.74,-96 626.74,-92.5 626.74,-99.5"/>
</a>
</g>
</g>
<!-- Node6&#45;&gt;Node5 -->
<g id="edge9_Node000006_Node000005" class="edge">
<title>Node6&#45;&gt;Node5</title>
<g id="a_edge9_Node000006_Node000005"><a xlink:title=" ">
<path fill="none" stroke="#63b8ff" d="M407.01,-105.59C429.18,-110.65 456.57,-116.9 480.01,-122.25"/>
<polygon fill="#63b8ff" stroke="#63b8ff" points="479.26,-125.67 489.79,-124.48 480.82,-118.84 479.26,-125.67"/>
</a>
</g>
</g>
<!-- Node6&#45;&gt;Node7 -->
<g id="edge10_Node000006_Node000007" class="edge">
<title>Node6&#45;&gt;Node7</title>
<g id="a_edge10_Node000006_Node000007"><a xlink:title=" ">
<path fill="none" stroke="#63b8ff" d="M407.01,-86.41C429.18,-81.35 456.57,-75.1 480.01,-69.75"/>
<polygon fill="#63b8ff" stroke="#63b8ff" points="480.82,-73.16 489.79,-67.52 479.26,-66.33 480.82,-73.16"/>
</a>
</g>
</g>
<!-- Node7&#45;&gt;Node4 -->
<g id="edge11_Node000007_Node000004" class="edge">
<title>Node7&#45;&gt;Node4</title>
<g id="a_edge11_Node000007_Node000004"><a xlink:title=" ">
<path fill="none" stroke="#63b8ff" d="M573.37,-67.59C594.22,-72.6 619.93,-78.79 642.04,-84.11"/>
<polygon fill="#63b8ff" stroke="#63b8ff" points="641.38,-87.54 651.92,-86.48 643.01,-80.74 641.38,-87.54"/>
</a>
</g>
</g>
<!-- Node9 -->
<g id="Node000009" class="node">
<title>Node9</title>
<g id="a_Node000009"><a xlink:href="classttg_1_1base_1_1_world.html#af39ca1832f455a94134515f94aaa8533" target="_top" xlink:title=" ">
<polygon fill="white" stroke="#666666" points="419.5,-30 308.5,-30 308.5,0 419.5,0 419.5,-30"/>
<text text-anchor="start" x="316.5" y="-18" font-family="Times,serif" font-size="10.00">ttg::base::World::is</text>
<text text-anchor="middle" x="364" y="-7" font-family="Times,serif" font-size="10.00">_valid</text>
</a>
</g>
</g>
<!-- Node8&#45;&gt;Node9 -->
<g id="edge14_Node000008_Node000009" class="edge">
<title>Node8&#45;&gt;Node9</title>
<g id="a_edge14_Node000008_Node000009"><a xlink:title=" ">
<path fill="none" stroke="#63b8ff" d="M263.17,-28.56C274.7,-26.99 286.76,-25.35 298.36,-23.78"/>
<polygon fill="#63b8ff" stroke="#63b8ff" points="298.96,-27.23 308.4,-22.41 298.02,-20.29 298.96,-27.23"/>
</a>
</g>
</g>
</g>
</svg>
