<?xml version="1.0" encoding="UTF-8" standalone="no"?>
<!DOCTYPE svg PUBLIC "-//W3C//DTD SVG 1.1//EN"
 "http://www.w3.org/Graphics/SVG/1.1/DTD/svg11.dtd">
<!-- Generated by graphviz version 2.43.0 (0)
 -->
<!-- Title: ttg::set_size Pages: 1 -->
<!--zoomable 85 -->

<svg id="main" version="1.1" xmlns="http://www.w3.org/2000/svg" xmlns:xlink="http://www.w3.org/1999/xlink" xml:space="preserve" onload="init(evt)">
<style type="text/css"><![CDATA[
.node, .edge {opacity: 0.7;}
.node.selected, .edge.selected {opacity: 1;}
.edge:hover path { stroke: red; }
.edge:hover polygon { stroke: red; fill: red; }
]]></style>

<defs>
  <circle id="rim" cx="0" cy="0" r="7"/>
  <circle id="rim2" cx="0" cy="0" r="3.5"/>
  <g id="zoomPlus">
    <use xlink:href="#rim" fill="#404040"><set attributeName="fill" to="#808080" begin="zoomplus.mouseover" end="zoomplus.mouseout"/></use>
    <path d="M-4,0h8M0,-4v8" fill="none" stroke="white" stroke-width="1.5" pointer-events="none"/>
  </g>
  <g id="zoomMin">
    <use xlink:href="#rim" fill="#404040"><set attributeName="fill" to="#808080" begin="zoomminus.mouseover" end="zoomminus.mouseout"/></use>
    <path d="M-4,0h8" fill="none" stroke="white" stroke-width="1.5" pointer-events="none"/>
  </g>
  <g id="arrowUp" transform="translate(30 24)">
    <use xlink:href="#rim"/>
    <path pointer-events="none" fill="none" stroke="white" stroke-width="1.5" d="M0,-3.0v7 M-2.5,-0.5L0,-3.0L2.5,-0.5"/>
  </g>
  <g id="arrowRight" transform="rotate(90) translate(36 -43)">
    <use xlink:href="#rim"/>
    <path pointer-events="none" fill="none" stroke="white" stroke-width="1.5" d="M0,-3.0v7 M-2.5,-0.5L0,-3.0L2.5,-0.5"/>
  </g>
  <g id="arrowDown" transform="rotate(180) translate(-30 -48)">
    <use xlink:href="#rim"/>
    <path pointer-events="none" fill="none" stroke="white" stroke-width="1.5" d="M0,-3.0v7 M-2.5,-0.5L0,-3.0L2.5,-0.5"/>
  </g>
  <g id="arrowLeft" transform="rotate(270) translate(-36 17)">
    <use xlink:href="#rim"/>
    <path pointer-events="none" fill="none" stroke="white" stroke-width="1.5" d="M0,-3.0v7 M-2.5,-0.5L0,-3.0L2.5,-0.5"/>
  </g>
  <g id="resetDef">
    <use xlink:href="#rim2" fill="#404040"><set attributeName="fill" to="#808080" begin="reset.mouseover" end="reset.mouseout"/></use>
  </g>
</defs>
<script type="application/ecmascript">
var viewWidth = 556;
var viewHeight = 85;
var sectionId = 'dynsection-69';
</script>
<script type="application/ecmascript" xlink:href="svg.min.js"/>
<svg id="graph" class="graph">
<g id="viewport">
<title>ttg::set_size</title>
<!-- Node1 -->
<g id="Node000001" class="node">
<title>Node1</title>
<g id="a_Node000001"><a xlink:title=" ">
<polygon fill="#999999" stroke="#666666" points="77,-54.5 0,-54.5 0,-35.5 77,-35.5 77,-54.5"/>
<text text-anchor="middle" x="38.5" y="-42.5" font-family="Times,serif" font-size="10.00">ttg::set_size</text>
</a>
</g>
</g>
<!-- Node2 -->
<g id="Node000002" class="node">
<title>Node2</title>
<g id="a_Node000002"><a xlink:href="classttg_1_1_out_terminal_base.html#ae49bef4469c9abd4dd1f10b0429984b4" target="_top" xlink:title=" ">
<polygon fill="white" stroke="#666666" points="238,-30 113,-30 113,0 238,0 238,-30"/>
<text text-anchor="start" x="121" y="-18" font-family="Times,serif" font-size="10.00">ttg::OutTerminalBase</text>
<text text-anchor="middle" x="175.5" y="-7" font-family="Times,serif" font-size="10.00">::set_size</text>
</a>
</g>
</g>
<!-- Node1&#45;&gt;Node2 -->
<g id="edge1_Node000001_Node000002" class="edge">
<title>Node1&#45;&gt;Node2</title>
<g id="a_edge1_Node000001_Node000002"><a xlink:title=" ">
<path fill="none" stroke="#63b8ff" d="M77.11,-36.64C85.15,-34.85 93.91,-32.91 102.77,-30.94"/>
<polygon fill="#63b8ff" stroke="#63b8ff" points="103.78,-34.3 112.78,-28.72 102.26,-27.47 103.78,-34.3"/>
</a>
</g>
</g>
<!-- Node3 -->
<g id="Node000003" class="node">
<title>Node3</title>
<g id="a_Node000003"><a xlink:href="namespacettg.html#a293bb7226707f202e735a9b3e4c76fab" target="_top" xlink:title=" ">
<polygon fill="white" stroke="#666666" points="364.5,-76.5 308.5,-76.5 308.5,-57.5 364.5,-57.5 364.5,-76.5"/>
<text text-anchor="middle" x="336.5" y="-64.5" font-family="Times,serif" font-size="10.00">ttg::size</text>
</a>
</g>
</g>
<!-- Node1&#45;&gt;Node3 -->
<g id="edge6_Node000001_Node000003" class="edge">
<title>Node1&#45;&gt;Node3</title>
<g id="a_edge6_Node000001_Node000003"><a xlink:title=" ">
<path fill="none" stroke="#63b8ff" d="M77.16,-52.02C88.63,-53.92 101.3,-55.79 113,-57 177.98,-63.74 254.11,-65.94 298.36,-66.66"/>
<polygon fill="#63b8ff" stroke="#63b8ff" points="298.32,-70.16 308.37,-66.8 298.42,-63.16 298.32,-70.16"/>
</a>
</g>
</g>
<!-- Node2&#45;&gt;Node2 -->
<g id="edge2_Node000002_Node000002" class="edge">
<title>Node2&#45;&gt;Node2</title>
<g id="a_edge2_Node000002_Node000002"><a xlink:title=" ">
<path fill="none" stroke="#63b8ff" d="M151.59,-30.28C146.28,-39.41 154.25,-48 175.5,-48 188.12,-48 196.05,-44.97 199.31,-40.6"/>
<polygon fill="#63b8ff" stroke="#63b8ff" points="202.81,-40.31 199.41,-30.28 195.81,-40.24 202.81,-40.31"/>
</a>
</g>
</g>
<!-- Node2&#45;&gt;Node3 -->
<g id="edge3_Node000002_Node000003" class="edge">
<title>Node2&#45;&gt;Node3</title>
<g id="a_edge3_Node000002_Node000003"><a xlink:title=" ">
<path fill="none" stroke="#63b8ff" d="M222.49,-30.04C246.62,-37.93 275.79,-47.47 298.45,-54.88"/>
<polygon fill="#63b8ff" stroke="#63b8ff" points="297.45,-58.24 308.04,-58.02 299.62,-51.58 297.45,-58.24"/>
</a>
</g>
</g>
<!-- Node4 -->
<g id="Node000004" class="node">
<title>Node4</title>
<g id="a_Node000004"><a xlink:href="classttg_1_1_out_terminal_base.html#aa0341fd67b25363d5c45d77646294cf9" target="_top" xlink:title=" ">
<polygon fill="white" stroke="#666666" points="399,-30 274,-30 274,0 399,0 399,-30"/>
<text text-anchor="start" x="282" y="-18" font-family="Times,serif" font-size="10.00">ttg::OutTerminalBase</text>
<text text-anchor="middle" x="336.5" y="-7" font-family="Times,serif" font-size="10.00">::successors</text>
</a>
</g>
</g>
<!-- Node2&#45;&gt;Node4 -->
<g id="edge4_Node000002_Node000004" class="edge">
<title>Node2&#45;&gt;Node4</title>
<g id="a_edge4_Node000002_Node000004"><a xlink:title=" ">
<path fill="none" stroke="#63b8ff" d="M238.43,-15C246.67,-15 255.18,-15 263.58,-15"/>
<polygon fill="#63b8ff" stroke="#63b8ff" points="263.74,-18.5 273.74,-15 263.74,-11.5 263.74,-18.5"/>
</a>
</g>
</g>
<!-- Node5 -->
<g id="Node000005" class="node">
<title>Node5</title>
<g id="a_Node000005"><a xlink:href="classttg_1_1_terminal_base.html#ab21d3f0050249488606592cfe99c3409" target="_top" xlink:title="Get connections to successors.">
<polygon fill="white" stroke="#666666" points="548,-30 435,-30 435,0 548,0 548,-30"/>
<text text-anchor="start" x="443" y="-18" font-family="Times,serif" font-size="10.00">ttg::TerminalBase::</text>
<text text-anchor="middle" x="491.5" y="-7" font-family="Times,serif" font-size="10.00">get_connections</text>
</a>
</g>
</g>
<!-- Node4&#45;&gt;Node5 -->
<g id="edge5_Node000004_Node000005" class="edge">
<title>Node4&#45;&gt;Node5</title>
<g id="a_edge5_Node000004_Node000005"><a xlink:title=" ">
<path fill="none" stroke="#63b8ff" d="M399.29,-15C407.66,-15 416.28,-15 424.72,-15"/>
<polygon fill="#63b8ff" stroke="#63b8ff" points="424.9,-18.5 434.9,-15 424.9,-11.5 424.9,-18.5"/>
</a>
</g>
</g>
</g>
</svg>

<g id="navigator" transform="translate(0 0)" fill="#404254">
  <rect fill="#f2f5e9" fill-opacity="0.5" stroke="#606060" stroke-width=".5" x="0" y="0" width="60" height="60"/>
  <use id="zoomplus" xlink:href="#zoomPlus" x="17" y="9" onmousedown="handleZoom(evt,'in')"/>
  <use id="zoomminus" xlink:href="#zoomMin" x="42" y="9" onmousedown="handleZoom(evt,'out')"/>
  <use id="reset" xlink:href="#resetDef" x="30" y="36" onmousedown="handleReset()"/>
   <use id="arrowup" xlink:href="#arrowUp" x="0" y="0" onmousedown="handlePan(0,-1)"/>
  <use id="arrowright" xlink:href="#arrowRight" x="0" y="0" onmousedown="handlePan(1,0)"/>
  <use id="arrowdown" xlink:href="#arrowDown" x="0" y="0" onmousedown="handlePan(0,1)"/>
  <use id="arrowleft" xlink:href="#arrowLeft" x="0" y="0" onmousedown="handlePan(-1,0)"/>
</g>
<svg viewBox="0 0 15 15" width="100%" height="30px" preserveAspectRatio="xMaxYMin meet">
 <g id="arrow_out" transform="scale(0.3 0.3)">
  <a xlink:href="namespacettg_a647ab7e77f26372e8ed5519e373caf3b_cgraph_org.svg" target="_base">
   <rect id="button" ry="5" rx="5" y="6" x="6" height="38" width="38"
        fill="#f2f5e9" fill-opacity="0.5" stroke="#606060" stroke-width="1.0"/>
   <path id="arrow"
     d="M 11.500037,31.436501 C 11.940474,20.09759 22.043105,11.32322 32.158766,21.979434 L 37.068811,17.246167 C 37.068811,17.246167 37.088388,32 37.088388,32 L 22.160133,31.978069 C 22.160133,31.978069 26.997745,27.140456 26.997745,27.140456 C 18.528582,18.264221 13.291696,25.230495 11.500037,31.436501 z"
     style="fill:#404040;"/>
  </a>
 </g>
</svg>

<style type='text/css'>
<![CDATA[
[data-mouse-over-selected='false'] { opacity: 0.7; }
[data-mouse-over-selected='true']  { opacity: 1.0; }
]]>
</style>
<script type="application/ecmascript"><![CDATA[
document.addEventListener('DOMContentLoaded', (event) => {
  highlightEdges();
  highlightAdjacentNodes();
});
]]></script>
</svg>
