<?xml version="1.0" encoding="UTF-8" standalone="no"?>
<!DOCTYPE svg PUBLIC "-//W3C//DTD SVG 1.1//EN"
 "http://www.w3.org/Graphics/SVG/1.1/DTD/svg11.dtd">
<!-- Generated by graphviz version 2.43.0 (0)
 -->
<!-- Title: ttg::send Pages: 1 -->
<svg width="647pt" height="292pt"
 viewBox="0.00 0.00 647.00 292.00" xmlns="http://www.w3.org/2000/svg" xmlns:xlink="http://www.w3.org/1999/xlink">
<g id="graph0" class="graph" transform="scale(1 1) rotate(0) translate(4 288)">
<title>ttg::send</title>
<!-- Node1 -->
<g id="Node000001" class="node">
<title>Node1</title>
<g id="a_Node000001"><a xlink:title="Sends a control message (message without an accompanying task id or a value) to the given output term...">
<polygon fill="#999999" stroke="#666666" points="62,-198.5 0,-198.5 0,-179.5 62,-179.5 62,-198.5"/>
<text text-anchor="middle" x="31" y="-186.5" font-family="Times,serif" font-size="10.00">ttg::send</text>
</a>
</g>
</g>
<!-- Node2 -->
<g id="Node000002" class="node">
<title>Node2</title>
<g id="a_Node000002"><a xlink:href="classttg_1_1_out.html#af3902b047294f85bdfaeb42dcd4488a4" target="_top" xlink:title=" ">
<polygon fill="white" stroke="#666666" points="184,-198.5 98,-198.5 98,-179.5 184,-179.5 184,-198.5"/>
<text text-anchor="middle" x="141" y="-186.5" font-family="Times,serif" font-size="10.00">ttg::Out::send</text>
</a>
</g>
</g>
<!-- Node1&#45;&gt;Node2 -->
<g id="edge1_Node000001_Node000002" class="edge">
<title>Node1&#45;&gt;Node2</title>
<g id="a_edge1_Node000001_Node000002"><a xlink:title=" ">
<path fill="none" stroke="#63b8ff" d="M62.08,-189C70.07,-189 78.93,-189 87.73,-189"/>
<polygon fill="#63b8ff" stroke="#63b8ff" points="87.97,-192.5 97.97,-189 87.97,-185.5 87.97,-192.5"/>
</a>
</g>
</g>
<!-- Node2&#45;&gt;Node2 -->
<g id="edge4_Node000002_Node000002" class="edge">
<title>Node2&#45;&gt;Node2</title>
<g id="a_edge4_Node000002_Node000002"><a xlink:title=" ">
<path fill="none" stroke="#63b8ff" d="M124.05,-198.58C115.8,-207.23 121.45,-216.5 141,-216.5 153.22,-216.5 160.01,-212.88 161.37,-208.05"/>
<polygon fill="#63b8ff" stroke="#63b8ff" points="164.64,-206.8 157.95,-198.58 158.05,-209.18 164.64,-206.8"/>
</a>
</g>
</g>
<!-- Node3 -->
<g id="Node000003" class="node">
<title>Node3</title>
<g id="a_Node000003"><a xlink:href="classttg_1_1_terminal_base.html#afb14b11c29459fc8aa5a2cb4297b5c2e" target="_top" xlink:title="Returns name of terminal.">
<polygon fill="white" stroke="#666666" points="339,-284 226,-284 226,-254 339,-254 339,-284"/>
<text text-anchor="start" x="234" y="-272" font-family="Times,serif" font-size="10.00">ttg::TerminalBase::</text>
<text text-anchor="middle" x="282.5" y="-261" font-family="Times,serif" font-size="10.00">get_name</text>
</a>
</g>
</g>
<!-- Node2&#45;&gt;Node3 -->
<g id="edge2_Node000002_Node000003" class="edge">
<title>Node2&#45;&gt;Node3</title>
<g id="a_edge2_Node000002_Node000003"><a xlink:title=" ">
<path fill="none" stroke="#63b8ff" d="M153.29,-198.5C167.94,-210.5 194.65,-231.24 220,-245 223.06,-246.66 226.27,-248.27 229.54,-249.81"/>
<polygon fill="#63b8ff" stroke="#63b8ff" points="228.29,-253.09 238.85,-253.97 231.15,-246.7 228.29,-253.09"/>
</a>
</g>
</g>
<!-- Node4 -->
<g id="Node000004" class="node">
<title>Node4</title>
<g id="a_Node000004"><a xlink:href="namespacettg.html#ac0ad1dd3b87329e4acf9774df6dc8473" target="_top" xlink:title=" ">
<polygon fill="white" stroke="#666666" points="312.5,-235.5 252.5,-235.5 252.5,-216.5 312.5,-216.5 312.5,-235.5"/>
<text text-anchor="middle" x="282.5" y="-223.5" font-family="Times,serif" font-size="10.00">ttg::rank</text>
</a>
</g>
</g>
<!-- Node2&#45;&gt;Node4 -->
<g id="edge3_Node000002_Node000004" class="edge">
<title>Node2&#45;&gt;Node4</title>
<g id="a_edge3_Node000002_Node000004"><a xlink:title=" ">
<path fill="none" stroke="#63b8ff" d="M177.92,-198.53C197.68,-203.77 222.2,-210.27 242.43,-215.64"/>
<polygon fill="#63b8ff" stroke="#63b8ff" points="241.71,-219.07 252.27,-218.25 243.5,-212.3 241.71,-219.07"/>
</a>
</g>
</g>
<!-- Node5 -->
<g id="Node000005" class="node">
<title>Node5</title>
<g id="a_Node000005"><a xlink:href="namespacettg.html#a293bb7226707f202e735a9b3e4c76fab" target="_top" xlink:title=" ">
<polygon fill="white" stroke="#666666" points="310.5,-198.5 254.5,-198.5 254.5,-179.5 310.5,-179.5 310.5,-198.5"/>
<text text-anchor="middle" x="282.5" y="-186.5" font-family="Times,serif" font-size="10.00">ttg::size</text>
</a>
</g>
</g>
<!-- Node2&#45;&gt;Node5 -->
<g id="edge5_Node000002_Node000005" class="edge">
<title>Node2&#45;&gt;Node5</title>
<g id="a_edge5_Node000002_Node000005"><a xlink:title=" ">
<path fill="none" stroke="#63b8ff" d="M184.23,-189C203.36,-189 225.78,-189 244.26,-189"/>
<polygon fill="#63b8ff" stroke="#63b8ff" points="244.36,-192.5 254.36,-189 244.36,-185.5 244.36,-192.5"/>
</a>
</g>
</g>
<!-- Node6 -->
<g id="Node000006" class="node">
<title>Node6</title>
<g id="a_Node000006"><a xlink:href="classttg_1_1_out_terminal_base.html#aa0341fd67b25363d5c45d77646294cf9" target="_top" xlink:title=" ">
<polygon fill="white" stroke="#666666" points="345,-161 220,-161 220,-131 345,-131 345,-161"/>
<text text-anchor="start" x="228" y="-149" font-family="Times,serif" font-size="10.00">ttg::OutTerminalBase</text>
<text text-anchor="middle" x="282.5" y="-138" font-family="Times,serif" font-size="10.00">::successors</text>
</a>
</g>
</g>
<!-- Node2&#45;&gt;Node6 -->
<g id="edge6_Node000002_Node000006" class="edge">
<title>Node2&#45;&gt;Node6</title>
<g id="a_edge6_Node000002_Node000006"><a xlink:title=" ">
<path fill="none" stroke="#63b8ff" d="M172.96,-179.46C187.65,-174.93 205.72,-169.36 222.86,-164.07"/>
<polygon fill="#63b8ff" stroke="#63b8ff" points="224.29,-167.3 232.82,-161.01 222.23,-160.61 224.29,-167.3"/>
</a>
</g>
</g>
<!-- Node8 -->
<g id="Node000008" class="node">
<title>Node8</title>
<g id="a_Node000008"><a xlink:href="namespacettg.html#af5e470229c1ddef41b83b6398a5dc583" target="_top" xlink:title=" ">
<polygon fill="white" stroke="#666666" points="313.5,-93.5 251.5,-93.5 251.5,-74.5 313.5,-74.5 313.5,-93.5"/>
<text text-anchor="middle" x="282.5" y="-81.5" font-family="Times,serif" font-size="10.00">ttg::trace</text>
</a>
</g>
</g>
<!-- Node2&#45;&gt;Node8 -->
<g id="edge8_Node000002_Node000008" class="edge">
<title>Node2&#45;&gt;Node8</title>
<g id="a_edge8_Node000002_Node000008"><a xlink:title=" ">
<path fill="none" stroke="#63b8ff" d="M152.17,-179.36C166.66,-165.82 194.35,-140.76 220,-122 231.24,-113.78 244.28,-105.55 255.46,-98.86"/>
<polygon fill="#63b8ff" stroke="#63b8ff" points="257.49,-101.73 264.33,-93.64 253.94,-95.69 257.49,-101.73"/>
</a>
</g>
</g>
<!-- Node7 -->
<g id="Node000007" class="node">
<title>Node7</title>
<g id="a_Node000007"><a xlink:href="classttg_1_1_terminal_base.html#ab21d3f0050249488606592cfe99c3409" target="_top" xlink:title="Get connections to successors.">
<polygon fill="white" stroke="#666666" points="494,-180 381,-180 381,-150 494,-150 494,-180"/>
<text text-anchor="start" x="389" y="-168" font-family="Times,serif" font-size="10.00">ttg::TerminalBase::</text>
<text text-anchor="middle" x="437.5" y="-157" font-family="Times,serif" font-size="10.00">get_connections</text>
</a>
</g>
</g>
<!-- Node6&#45;&gt;Node7 -->
<g id="edge7_Node000006_Node000007" class="edge">
<title>Node6&#45;&gt;Node7</title>
<g id="a_edge7_Node000006_Node000007"><a xlink:title=" ">
<path fill="none" stroke="#63b8ff" d="M345.29,-153.67C353.66,-154.71 362.28,-155.78 370.72,-156.83"/>
<polygon fill="#63b8ff" stroke="#63b8ff" points="370.54,-160.34 380.9,-158.1 371.4,-153.39 370.54,-160.34"/>
</a>
</g>
</g>
<!-- Node9 -->
<g id="Node000009" class="node">
<title>Node9</title>
<g id="a_Node000009"><a xlink:href="namespacettg.html#aacacfe8bc9582308a405c4370650a9d4" target="_top" xlink:title="atomically prints to std::clog a sequence of items (separated by ttg::print_separator) followed by st...">
<polygon fill="white" stroke="#666666" points="464,-131.5 411,-131.5 411,-112.5 464,-112.5 464,-131.5"/>
<text text-anchor="middle" x="437.5" y="-119.5" font-family="Times,serif" font-size="10.00">ttg::log</text>
</a>
</g>
</g>
<!-- Node8&#45;&gt;Node9 -->
<g id="edge9_Node000008_Node000009" class="edge">
<title>Node8&#45;&gt;Node9</title>
<g id="a_edge9_Node000008_Node000009"><a xlink:title=" ">
<path fill="none" stroke="#63b8ff" d="M313.73,-91.51C338.79,-97.73 374.47,-106.59 400.91,-113.16"/>
<polygon fill="#63b8ff" stroke="#63b8ff" points="400.36,-116.63 410.9,-115.64 402.04,-109.84 400.36,-116.63"/>
</a>
</g>
</g>
<!-- Node11 -->
<g id="Node000011" class="node">
<title>Node11</title>
<g id="a_Node000011"><a xlink:href="namespacettg.html#afbdd9c742be395e0746fdbc26c7d55cc" target="_top" xlink:title="returns whether tracing was enabled at configure time">
<polygon fill="white" stroke="#666666" points="639,-81.5 530,-81.5 530,-62.5 639,-62.5 639,-81.5"/>
<text text-anchor="middle" x="584.5" y="-69.5" font-family="Times,serif" font-size="10.00">ttg::trace_enabled</text>
</a>
</g>
</g>
<!-- Node8&#45;&gt;Node11 -->
<g id="edge11_Node000008_Node000011" class="edge">
<title>Node8&#45;&gt;Node11</title>
<g id="a_edge11_Node000008_Node000011"><a xlink:title=" ">
<path fill="none" stroke="#63b8ff" d="M313.64,-82.79C361.56,-80.88 456.2,-77.09 519.68,-74.55"/>
<polygon fill="#63b8ff" stroke="#63b8ff" points="520.13,-78.04 529.98,-74.14 519.85,-71.04 520.13,-78.04"/>
</a>
</g>
</g>
<!-- Node12 -->
<g id="Node000012" class="node">
<title>Node12</title>
<g id="a_Node000012"><a xlink:href="namespacettg.html#abfb8501d408a1ed918cc2a540865a2d8" target="_top" xlink:title="returns whether tracing is enabled">
<polygon fill="white" stroke="#666666" points="474,-55.5 401,-55.5 401,-36.5 474,-36.5 474,-55.5"/>
<text text-anchor="middle" x="437.5" y="-43.5" font-family="Times,serif" font-size="10.00">ttg::tracing</text>
</a>
</g>
</g>
<!-- Node8&#45;&gt;Node12 -->
<g id="edge12_Node000008_Node000012" class="edge">
<title>Node8&#45;&gt;Node12</title>
<g id="a_edge12_Node000008_Node000012"><a xlink:title=" ">
<path fill="none" stroke="#63b8ff" d="M313.73,-76.49C335.77,-71.02 366.03,-63.5 390.99,-57.3"/>
<polygon fill="#63b8ff" stroke="#63b8ff" points="392.1,-60.63 400.97,-54.83 390.42,-53.84 392.1,-60.63"/>
</a>
</g>
</g>
<!-- Node10 -->
<g id="Node000010" class="node">
<title>Node10</title>
<g id="a_Node000010"><a xlink:href="namespacettg_1_1detail.html#a26e07486d5ef8eb5735a8975991a7693" target="_top" xlink:title=" ">
<polygon fill="white" stroke="#666666" points="632.5,-137 536.5,-137 536.5,-107 632.5,-107 632.5,-137"/>
<text text-anchor="start" x="544.5" y="-125" font-family="Times,serif" font-size="10.00">ttg::detail::print</text>
<text text-anchor="middle" x="584.5" y="-114" font-family="Times,serif" font-size="10.00">_helper</text>
</a>
</g>
</g>
<!-- Node9&#45;&gt;Node10 -->
<g id="edge10_Node000009_Node000010" class="edge">
<title>Node9&#45;&gt;Node10</title>
<g id="a_edge10_Node000009_Node000010"><a xlink:title=" ">
<path fill="none" stroke="#63b8ff" d="M464.09,-122C481.36,-122 504.84,-122 526.42,-122"/>
<polygon fill="#63b8ff" stroke="#63b8ff" points="526.49,-125.5 536.49,-122 526.49,-118.5 526.49,-125.5"/>
</a>
</g>
</g>
<!-- Node12&#45;&gt;Node11 -->
<g id="edge15_Node000012_Node000011" class="edge">
<title>Node12&#45;&gt;Node11</title>
<g id="a_edge15_Node000012_Node000011"><a xlink:title=" ">
<path fill="none" stroke="#63b8ff" d="M474.34,-52.43C488.17,-54.91 504.41,-57.82 520.08,-60.63"/>
<polygon fill="#63b8ff" stroke="#63b8ff" points="519.8,-64.13 530.26,-62.45 521.04,-57.24 519.8,-64.13"/>
</a>
</g>
</g>
<!-- Node13 -->
<g id="Node000013" class="node">
<title>Node13</title>
<g id="a_Node000013"><a xlink:href="namespacettg_1_1detail.html#a95356c3874e7ec9268a40feb4fc1519f" target="_top" xlink:title=" ">
<polygon fill="white" stroke="#666666" points="633,-30 536,-30 536,0 633,0 633,-30"/>
<text text-anchor="start" x="544" y="-18" font-family="Times,serif" font-size="10.00">ttg::detail::trace</text>
<text text-anchor="middle" x="584.5" y="-7" font-family="Times,serif" font-size="10.00">_accessor</text>
</a>
</g>
</g>
<!-- Node12&#45;&gt;Node13 -->
<g id="edge13_Node000012_Node000013" class="edge">
<title>Node12&#45;&gt;Node13</title>
<g id="a_edge13_Node000012_Node000013"><a xlink:title=" ">
<path fill="none" stroke="#63b8ff" d="M474.34,-38.34C489.84,-35.02 508.36,-31.06 525.71,-27.35"/>
<polygon fill="#63b8ff" stroke="#63b8ff" points="526.71,-30.72 535.76,-25.21 525.25,-23.87 526.71,-30.72"/>
</a>
</g>
</g>
<!-- Node13&#45;&gt;Node8 -->
<g id="edge14_Node000013_Node000008" class="edge">
<title>Node13&#45;&gt;Node8</title>
<g id="a_edge14_Node000013_Node000008"><a xlink:title=" ">
<path fill="none" stroke="#63b8ff" d="M535.76,-11.65C494.02,-10.16 432.23,-11.48 381,-27 352,-35.78 322.49,-54.73 303.64,-68.37"/>
<polygon fill="#63b8ff" stroke="#63b8ff" points="301.48,-65.62 295.54,-74.39 305.65,-71.24 301.48,-65.62"/>
</a>
</g>
</g>
</g>
</svg>
