<?xml version="1.0" encoding="UTF-8" standalone="no"?>
<!DOCTYPE svg PUBLIC "-//W3C//DTD SVG 1.1//EN"
 "http://www.w3.org/Graphics/SVG/1.1/DTD/svg11.dtd">
<!-- Generated by graphviz version 2.43.0 (0)
 -->
<!-- Title: ttg_madness::initialize_watchpoints Pages: 1 -->
<svg width="479pt" height="183pt"
 viewBox="0.00 0.00 479.00 183.00" xmlns="http://www.w3.org/2000/svg" xmlns:xlink="http://www.w3.org/1999/xlink">

<svg id="main" version="1.1" xmlns="http://www.w3.org/2000/svg" xmlns:xlink="http://www.w3.org/1999/xlink" xml:space="preserve" onload="init(evt)">
<style type="text/css"><![CDATA[
.node, .edge {opacity: 0.7;}
.node.selected, .edge.selected {opacity: 1;}
.edge:hover path { stroke: red; }
.edge:hover polygon { stroke: red; fill: red; }
]]></style>
<script type="application/ecmascript" xlink:href="svg.min.js"/>
<svg id="graph" class="graph">
<g id="graph0" class="graph" transform="scale(1 1) rotate(0) translate(4 179)">
<title>ttg_madness::initialize_watchpoints</title>
<!-- Node1 -->
<g id="Node000001" class="node">
<title>Node1</title>
<g id="a_Node000001"><a xlink:title="must be called from main thread before setting watchpoints">
<polygon fill="#999999" stroke="#666666" points="131,-97 0,-97 0,-67 131,-67 131,-97"/>
<text text-anchor="start" x="8" y="-85" font-family="Times,serif" font-size="10.00">ttg_madness::initialize</text>
<text text-anchor="middle" x="65.5" y="-74" font-family="Times,serif" font-size="10.00">_watchpoints</text>
</a>
</g>
</g>
<!-- Node2 -->
<g id="Node000002" class="node">
<title>Node2</title>
<g id="a_Node000002"><a xlink:href="namespacettg.html#a78c09561304884c05c8a8f25006b0ee6" target="_top" xlink:title="Accesses the default backend&#39;s default execution context.">
<polygon fill="white" stroke="#666666" points="317,-175 189,-175 189,-145 317,-145 317,-175"/>
<text text-anchor="start" x="197" y="-163" font-family="Times,serif" font-size="10.00">ttg::default_execution</text>
<text text-anchor="middle" x="253" y="-152" font-family="Times,serif" font-size="10.00">_context</text>
</a>
</g>
</g>
<!-- Node1&#45;&gt;Node2 -->
<g id="edge1_Node000001_Node000002" class="edge">
<title>Node1&#45;&gt;Node2</title>
<g id="a_edge1_Node000001_Node000002"><a xlink:title=" ">
<path fill="none" stroke="#63b8ff" d="M90.96,-97.1C110.87,-108.9 140.01,-125.09 167,-136 172.06,-138.05 177.37,-139.99 182.74,-141.82"/>
<polygon fill="#63b8ff" stroke="#63b8ff" points="181.86,-145.21 192.46,-144.98 184.03,-138.55 181.86,-145.21"/>
</a>
</g>
</g>
<!-- Node3 -->
<g id="Node000003" class="node">
<title>Node3</title>
<g id="a_Node000003"><a xlink:href="classttg_1_1detail_1_1_memory_watchpoint__x86__64_1_1_pool.html#a6464e134549f9a04956913215b151e32" target="_top" xlink:title=" ">
<polygon fill="white" stroke="#666666" points="339,-126.5 167,-126.5 167,-85.5 339,-85.5 339,-126.5"/>
<text text-anchor="start" x="175" y="-114.5" font-family="Times,serif" font-size="10.00">ttg::detail::MemoryWatchpoint</text>
<text text-anchor="start" x="175" y="-103.5" font-family="Times,serif" font-size="10.00">_x86_64::Pool::initialize</text>
<text text-anchor="middle" x="253" y="-92.5" font-family="Times,serif" font-size="10.00">_instance</text>
</a>
</g>
</g>
<!-- Node1&#45;&gt;Node3 -->
<g id="edge2_Node000001_Node000003" class="edge">
<title>Node1&#45;&gt;Node3</title>
<g id="a_edge2_Node000001_Node000003"><a xlink:title=" ">
<path fill="none" stroke="#63b8ff" d="M131.12,-90.36C139.39,-91.43 147.98,-92.54 156.61,-93.66"/>
<polygon fill="#63b8ff" stroke="#63b8ff" points="156.36,-97.16 166.73,-94.97 157.26,-90.21 156.36,-97.16"/>
</a>
</g>
</g>
<!-- Node4 -->
<g id="Node000004" class="node">
<title>Node4</title>
<g id="a_Node000004"><a xlink:href="namespacettg.html#aacafa23974f833f3ac9c42ab4fbd7e68" target="_top" xlink:title="atomically prints to std::cerr a sequence of items (separated by ttg::print_separator) followed by st...">
<polygon fill="white" stroke="#666666" points="299,-67.5 207,-67.5 207,-48.5 299,-48.5 299,-67.5"/>
<text text-anchor="middle" x="253" y="-55.5" font-family="Times,serif" font-size="10.00">ttg::print_error</text>
</a>
</g>
</g>
<!-- Node1&#45;&gt;Node4 -->
<g id="edge3_Node000001_Node000004" class="edge">
<title>Node1&#45;&gt;Node4</title>
<g id="a_edge3_Node000001_Node000004"><a xlink:title=" ">
<path fill="none" stroke="#63b8ff" d="M131.12,-73.64C152.5,-70.87 176.08,-67.82 196.69,-65.16"/>
<polygon fill="#63b8ff" stroke="#63b8ff" points="197.39,-68.59 206.86,-63.84 196.5,-61.65 197.39,-68.59"/>
</a>
</g>
</g>
<!-- Node6 -->
<g id="Node000006" class="node">
<title>Node6</title>
<g id="a_Node000006"><a xlink:href="namespacettg__madness_1_1detail.html#a6e029e1e0e4d49e71abd3edbe02f49cd" target="_top" xlink:title=" ">
<polygon fill="white" stroke="#666666" points="317,-30 189,-30 189,0 317,0 317,-30"/>
<text text-anchor="start" x="197" y="-18" font-family="Times,serif" font-size="10.00">ttg_madness::detail</text>
<text text-anchor="middle" x="253" y="-7" font-family="Times,serif" font-size="10.00">::watchpoints_threads</text>
</a>
</g>
</g>
<!-- Node1&#45;&gt;Node6 -->
<g id="edge5_Node000001_Node000006" class="edge">
<title>Node1&#45;&gt;Node6</title>
<g id="a_edge5_Node000001_Node000006"><a xlink:title=" ">
<path fill="none" stroke="#63b8ff" d="M100.1,-66.87C119.46,-58.43 144.37,-48.03 167,-40 173.68,-37.63 180.7,-35.3 187.74,-33.08"/>
<polygon fill="#63b8ff" stroke="#63b8ff" points="188.78,-36.42 197.3,-30.12 186.71,-29.74 188.78,-36.42"/>
</a>
</g>
</g>
<!-- Node5 -->
<g id="Node000005" class="node">
<title>Node5</title>
<g id="a_Node000005"><a xlink:href="namespacettg_1_1detail.html#a26e07486d5ef8eb5735a8975991a7693" target="_top" xlink:title=" ">
<polygon fill="white" stroke="#666666" points="471,-73 375,-73 375,-43 471,-43 471,-73"/>
<text text-anchor="start" x="383" y="-61" font-family="Times,serif" font-size="10.00">ttg::detail::print</text>
<text text-anchor="middle" x="423" y="-50" font-family="Times,serif" font-size="10.00">_helper</text>
</a>
</g>
</g>
<!-- Node4&#45;&gt;Node5 -->
<g id="edge4_Node000004_Node000005" class="edge">
<title>Node4&#45;&gt;Node5</title>
<g id="a_edge4_Node000004_Node000005"><a xlink:title=" ">
<path fill="none" stroke="#63b8ff" d="M299.02,-58C319.15,-58 343.12,-58 364.52,-58"/>
<polygon fill="#63b8ff" stroke="#63b8ff" points="364.8,-61.5 374.8,-58 364.8,-54.5 364.8,-61.5"/>
</a>
</g>
</g>
</g>
</svg>
</svg>

<style type='text/css'>
<![CDATA[
[data-mouse-over-selected='false'] { opacity: 0.7; }
[data-mouse-over-selected='true']  { opacity: 1.0; }
]]>
</style>
<script type="application/ecmascript"><![CDATA[
document.addEventListener('DOMContentLoaded', (event) => {
  highlightEdges();
  highlightAdjacentNodes();
});
]]></script>
</svg>
