<?xml version="1.0" encoding="UTF-8" standalone="no"?>
<!DOCTYPE svg PUBLIC "-//W3C//DTD SVG 1.1//EN"
 "http://www.w3.org/Graphics/SVG/1.1/DTD/svg11.dtd">
<!-- Generated by graphviz version 2.43.0 (0)
 -->
<!-- Title: ttg::abort Pages: 1 -->
<!--zoomable 365 -->

<svg id="main" version="1.1" xmlns="http://www.w3.org/2000/svg" xmlns:xlink="http://www.w3.org/1999/xlink" xml:space="preserve" onload="init(evt)">
<style type="text/css"><![CDATA[
.node, .edge {opacity: 0.7;}
.node.selected, .edge.selected {opacity: 1;}
.edge:hover path { stroke: red; }
.edge:hover polygon { stroke: red; fill: red; }
]]></style>

<defs>
  <circle id="rim" cx="0" cy="0" r="7"/>
  <circle id="rim2" cx="0" cy="0" r="3.5"/>
  <g id="zoomPlus">
    <use xlink:href="#rim" fill="#404040"><set attributeName="fill" to="#808080" begin="zoomplus.mouseover" end="zoomplus.mouseout"/></use>
    <path d="M-4,0h8M0,-4v8" fill="none" stroke="white" stroke-width="1.5" pointer-events="none"/>
  </g>
  <g id="zoomMin">
    <use xlink:href="#rim" fill="#404040"><set attributeName="fill" to="#808080" begin="zoomminus.mouseover" end="zoomminus.mouseout"/></use>
    <path d="M-4,0h8" fill="none" stroke="white" stroke-width="1.5" pointer-events="none"/>
  </g>
  <g id="arrowUp" transform="translate(30 24)">
    <use xlink:href="#rim"/>
    <path pointer-events="none" fill="none" stroke="white" stroke-width="1.5" d="M0,-3.0v7 M-2.5,-0.5L0,-3.0L2.5,-0.5"/>
  </g>
  <g id="arrowRight" transform="rotate(90) translate(36 -43)">
    <use xlink:href="#rim"/>
    <path pointer-events="none" fill="none" stroke="white" stroke-width="1.5" d="M0,-3.0v7 M-2.5,-0.5L0,-3.0L2.5,-0.5"/>
  </g>
  <g id="arrowDown" transform="rotate(180) translate(-30 -48)">
    <use xlink:href="#rim"/>
    <path pointer-events="none" fill="none" stroke="white" stroke-width="1.5" d="M0,-3.0v7 M-2.5,-0.5L0,-3.0L2.5,-0.5"/>
  </g>
  <g id="arrowLeft" transform="rotate(270) translate(-36 17)">
    <use xlink:href="#rim"/>
    <path pointer-events="none" fill="none" stroke="white" stroke-width="1.5" d="M0,-3.0v7 M-2.5,-0.5L0,-3.0L2.5,-0.5"/>
  </g>
  <g id="resetDef">
    <use xlink:href="#rim2" fill="#404040"><set attributeName="fill" to="#808080" begin="reset.mouseover" end="reset.mouseout"/></use>
  </g>
</defs>
<script type="application/ecmascript">
var viewWidth = 595;
var viewHeight = 365;
var sectionId = 'dynsection-0';
</script>
<script type="application/ecmascript" xlink:href="svg.min.js"/>
<svg id="graph" class="graph">
<g id="viewport">
<title>ttg::abort</title>
<!-- Node1 -->
<g id="Node000001" class="node">
<title>Node1</title>
<g id="a_Node000001"><a xlink:title="Aborts the TTG program using the default backend&#39;s ttg_abort method.">
<polygon fill="#999999" stroke="#666666" points="587,-177 523,-177 523,-158 587,-158 587,-177"/>
<text text-anchor="middle" x="555" y="-165" font-family="Times,serif" font-size="10.00">ttg::abort</text>
</a>
</g>
</g>
<!-- Node2 -->
<g id="Node000002" class="node">
<title>Node2</title>
<g id="a_Node000002"><a xlink:href="classttg_1_1_t_t_base.html#a1c8161302cb6f3f8d7d7f80b00a56e03" target="_top" xlink:title=" ">
<polygon fill="white" stroke="#666666" points="472.5,-357 357.5,-357 357.5,-338 472.5,-338 472.5,-357"/>
<text text-anchor="middle" x="415" y="-345" font-family="Times,serif" font-size="10.00">ttg::TTBase::invoke</text>
</a>
</g>
</g>
<!-- Node1&#45;&gt;Node2 -->
<g id="edge1_Node000001_Node000002" class="edge">
<title>Node1&#45;&gt;Node2</title>
<g id="a_edge1_Node000001_Node000002"><a xlink:title=" ">
<path fill="none" stroke="#63b8ff" d="M551.54,-187.42C546.23,-221.74 530.42,-291.92 487,-329.5 482.77,-333.16 477.9,-336.1 472.72,-338.45"/>
<polygon fill="#63b8ff" stroke="#63b8ff" points="555.05,-187.65 552.97,-177.26 548.11,-186.68 555.05,-187.65"/>
</a>
</g>
</g>
<!-- Node3 -->
<g id="Node000003" class="node">
<title>Node3</title>
<g id="a_Node000003"><a xlink:href="classttg_1_1detail_1_1boost__optimized__iarchive.html#a775693201af348b3f84822ce7d13aa05" target="_top" xlink:title=" ">
<polygon fill="white" stroke="#666666" points="474,-320 356,-320 356,-279 474,-279 474,-320"/>
<text text-anchor="start" x="364" y="-308" font-family="Times,serif" font-size="10.00">ttg::detail::boost</text>
<text text-anchor="start" x="364" y="-297" font-family="Times,serif" font-size="10.00">_optimized_iarchive</text>
<text text-anchor="middle" x="415" y="-286" font-family="Times,serif" font-size="10.00">::load_object</text>
</a>
</g>
</g>
<!-- Node1&#45;&gt;Node3 -->
<g id="edge2_Node000001_Node000003" class="edge">
<title>Node1&#45;&gt;Node3</title>
<g id="a_edge2_Node000001_Node000003"><a xlink:title=" ">
<path fill="none" stroke="#63b8ff" d="M545.76,-186.51C535.13,-209.04 514.67,-246.45 487,-269.5 482.79,-273.01 478.1,-276.17 473.2,-278.99"/>
<polygon fill="#63b8ff" stroke="#63b8ff" points="548.99,-187.85 549.94,-177.3 542.62,-184.96 548.99,-187.85"/>
</a>
</g>
</g>
<!-- Node4 -->
<g id="Node000004" class="node">
<title>Node4</title>
<g id="a_Node000004"><a xlink:href="class_callable_wrap_t_t.html#ad874ff7fd3e00b44371755c1e1c1d486" target="_top" xlink:title=" ">
<polygon fill="white" stroke="#666666" points="486.5,-260.5 343.5,-260.5 343.5,-230.5 486.5,-230.5 486.5,-260.5"/>
<text text-anchor="start" x="351.5" y="-248.5" font-family="Times,serif" font-size="10.00">CallableWrapTT::process</text>
<text text-anchor="middle" x="415" y="-237.5" font-family="Times,serif" font-size="10.00">_return</text>
</a>
</g>
</g>
<!-- Node1&#45;&gt;Node4 -->
<g id="edge3_Node000001_Node000004" class="edge">
<title>Node1&#45;&gt;Node4</title>
<g id="a_edge3_Node000001_Node000004"><a xlink:title=" ">
<path fill="none" stroke="#63b8ff" d="M536.79,-184.24C523.94,-195.99 505.48,-211.35 487,-221.5 480.96,-224.82 474.37,-227.79 467.73,-230.42"/>
<polygon fill="#63b8ff" stroke="#63b8ff" points="539.47,-186.53 544.37,-177.13 534.68,-181.42 539.47,-186.53"/>
</a>
</g>
</g>
<!-- Node13 -->
<g id="Node000013" class="node">
<title>Node13</title>
<g id="a_Node000013"><a xlink:href="classttg_1_1detail_1_1boost__optimized__oarchive.html#aaabd124d4141916057c0fd9c5df4098e" target="_top" xlink:title=" ">
<polygon fill="white" stroke="#666666" points="475.5,-212 354.5,-212 354.5,-171 475.5,-171 475.5,-212"/>
<text text-anchor="start" x="362.5" y="-200" font-family="Times,serif" font-size="10.00">ttg::detail::boost</text>
<text text-anchor="start" x="362.5" y="-189" font-family="Times,serif" font-size="10.00">_optimized_oarchive</text>
<text text-anchor="middle" x="415" y="-178" font-family="Times,serif" font-size="10.00">::save_object</text>
</a>
</g>
</g>
<!-- Node1&#45;&gt;Node13 -->
<g id="edge12_Node000001_Node000013" class="edge">
<title>Node1&#45;&gt;Node13</title>
<g id="a_edge12_Node000001_Node000013"><a xlink:title=" ">
<path fill="none" stroke="#63b8ff" d="M512.81,-174.66C501.16,-176.69 488.24,-178.94 475.73,-181.11"/>
<polygon fill="#63b8ff" stroke="#63b8ff" points="513.43,-178.11 522.69,-172.95 512.23,-171.21 513.43,-178.11"/>
</a>
</g>
</g>
<!-- Node14 -->
<g id="Node000014" class="node">
<title>Node14</title>
<g id="a_Node000014"><a xlink:href="classttg__madness_1_1_t_t.html#a2810f6594315e404871457fd05f06099" target="_top" xlink:title=" ">
<polygon fill="white" stroke="#666666" points="487,-153 343,-153 343,-134 487,-134 487,-153"/>
<text text-anchor="middle" x="415" y="-141" font-family="Times,serif" font-size="10.00">ttg_madness::TT::set_arg</text>
</a>
</g>
</g>
<!-- Node1&#45;&gt;Node14 -->
<g id="edge13_Node000001_Node000014" class="edge">
<title>Node1&#45;&gt;Node14</title>
<g id="a_edge13_Node000001_Node000014"><a xlink:title=" ">
<path fill="none" stroke="#63b8ff" d="M512.54,-160.29C499.41,-158.01 484.68,-155.44 470.76,-153.02"/>
<polygon fill="#63b8ff" stroke="#63b8ff" points="512.23,-163.79 522.69,-162.05 513.43,-156.89 512.23,-163.79"/>
</a>
</g>
</g>
<!-- Node15 -->
<g id="Node000015" class="node">
<title>Node15</title>
<g id="a_Node000015"><a xlink:href="classttg__parsec_1_1_t_t.html#ab9cbb6fbff64a26d98e2905560422e8c" target="_top" xlink:title=" ">
<polygon fill="white" stroke="#666666" points="470,-115.5 360,-115.5 360,-85.5 470,-85.5 470,-115.5"/>
<text text-anchor="start" x="368" y="-103.5" font-family="Times,serif" font-size="10.00">ttg_parsec::TT::set</text>
<text text-anchor="middle" x="415" y="-92.5" font-family="Times,serif" font-size="10.00">_arg_from_msg</text>
</a>
</g>
</g>
<!-- Node1&#45;&gt;Node15 -->
<g id="edge14_Node000001_Node000015" class="edge">
<title>Node1&#45;&gt;Node15</title>
<g id="a_edge14_Node000001_Node000015"><a xlink:title=" ">
<path fill="none" stroke="#63b8ff" d="M532.11,-152.05C519.35,-143.49 502.72,-133.08 487,-125.5 479.58,-121.92 471.52,-118.59 463.57,-115.61"/>
<polygon fill="#63b8ff" stroke="#63b8ff" points="530.42,-155.13 540.65,-157.89 534.37,-149.36 530.42,-155.13"/>
</a>
</g>
</g>
<!-- Node16 -->
<g id="Node000016" class="node">
<title>Node16</title>
<g id="a_Node000016"><a xlink:href="classttg__parsec_1_1_t_t.html#aaa5f1c1f04d2ffba82360ace2708c282" target="_top" xlink:title=" ">
<polygon fill="white" stroke="#666666" points="476,-67.5 354,-67.5 354,-37.5 476,-37.5 476,-67.5"/>
<text text-anchor="start" x="362" y="-55.5" font-family="Times,serif" font-size="10.00">ttg_parsec::TT::static</text>
<text text-anchor="middle" x="415" y="-44.5" font-family="Times,serif" font-size="10.00">_set_arg</text>
</a>
</g>
</g>
<!-- Node1&#45;&gt;Node16 -->
<g id="edge15_Node000001_Node000016" class="edge">
<title>Node1&#45;&gt;Node16</title>
<g id="a_edge15_Node000001_Node000016"><a xlink:title=" ">
<path fill="none" stroke="#63b8ff" d="M544.7,-148.74C533.63,-128.22 513.27,-95.7 487,-76.5 482.38,-73.12 477.25,-70.2 471.92,-67.67"/>
<polygon fill="#63b8ff" stroke="#63b8ff" points="541.66,-150.48 549.38,-157.74 547.87,-147.25 541.66,-150.48"/>
</a>
</g>
</g>
<!-- Node19 -->
<g id="Node000019" class="node">
<title>Node19</title>
<g id="a_Node000019"><a xlink:href="classttg__madness_1_1_t_t.html#a7a61ba733971b13989500f3be274e5cf" target="_top" xlink:title=" ">
<polygon fill="white" stroke="#666666" points="479,-19 351,-19 351,0 479,0 479,-19"/>
<text text-anchor="middle" x="415" y="-7" font-family="Times,serif" font-size="10.00">ttg_madness::TT::~TT</text>
</a>
</g>
</g>
<!-- Node1&#45;&gt;Node19 -->
<g id="edge18_Node000001_Node000019" class="edge">
<title>Node1&#45;&gt;Node19</title>
<g id="a_edge18_Node000001_Node000019"><a xlink:title=" ">
<path fill="none" stroke="#63b8ff" d="M550.03,-147.9C542.86,-117.65 524.86,-59.84 487,-28.5 482.28,-24.59 476.84,-21.48 471.1,-19.01"/>
<polygon fill="#63b8ff" stroke="#63b8ff" points="546.62,-148.68 552.2,-157.69 553.45,-147.17 546.62,-148.68"/>
</a>
</g>
</g>
<!-- Node5 -->
<g id="Node000005" class="node">
<title>Node5</title>
<g id="a_Node000005"><a xlink:href="class_callable_wrap_t_t.html#a1da0b139815741fd2daf8057970874c2" target="_top" xlink:title=" ">
<polygon fill="white" stroke="#666666" points="307,-310 158,-310 158,-291 307,-291 307,-310"/>
<text text-anchor="middle" x="232.5" y="-298" font-family="Times,serif" font-size="10.00">CallableWrapTT::call_func</text>
</a>
</g>
</g>
<!-- Node4&#45;&gt;Node5 -->
<g id="edge4_Node000004_Node000005" class="edge">
<title>Node4&#45;&gt;Node5</title>
<g id="a_edge4_Node000004_Node000005"><a xlink:title=" ">
<path fill="none" stroke="#63b8ff" d="M361.63,-263.85C337.43,-272.29 312.76,-280.8 307,-282.5 296.79,-285.51 285.69,-288.41 275.27,-290.98"/>
<polygon fill="#63b8ff" stroke="#63b8ff" points="362.91,-267.11 371.19,-260.51 360.6,-260.5 362.91,-267.11"/>
</a>
</g>
</g>
<!-- Node6 -->
<g id="Node000006" class="node">
<title>Node6</title>
<g id="a_Node000006"><a xlink:href="class_callable_wrap_t_t.html#a1277393882fc4f4d0e46a161fc43c475" target="_top" xlink:title=" ">
<polygon fill="white" stroke="#666666" points="307,-273 158,-273 158,-254 307,-254 307,-273"/>
<text text-anchor="middle" x="232.5" y="-261" font-family="Times,serif" font-size="10.00">CallableWrapTT::call_func</text>
</a>
</g>
</g>
<!-- Node4&#45;&gt;Node6 -->
<g id="edge5_Node000004_Node000006" class="edge">
<title>Node4&#45;&gt;Node6</title>
<g id="a_edge5_Node000004_Node000006"><a xlink:title=" ">
<path fill="none" stroke="#63b8ff" d="M333.33,-253.54C324.66,-254.41 315.87,-255.29 307.29,-256.14"/>
<polygon fill="#63b8ff" stroke="#63b8ff" points="333.84,-257.01 343.44,-252.54 333.14,-250.05 333.84,-257.01"/>
</a>
</g>
</g>
<!-- Node11 -->
<g id="Node000011" class="node">
<title>Node11</title>
<g id="a_Node000011"><a xlink:href="class_callable_wrap_t_t.html#a53c0324a1010ab3a9fd5cc0fdfc480e7" target="_top" xlink:title=" ">
<polygon fill="white" stroke="#666666" points="307,-236 158,-236 158,-217 307,-217 307,-236"/>
<text text-anchor="middle" x="232.5" y="-224" font-family="Times,serif" font-size="10.00">CallableWrapTT::call_func</text>
</a>
</g>
</g>
<!-- Node4&#45;&gt;Node11 -->
<g id="edge10_Node000004_Node000011" class="edge">
<title>Node4&#45;&gt;Node11</title>
<g id="a_edge10_Node000004_Node000011"><a xlink:title=" ">
<path fill="none" stroke="#63b8ff" d="M333.33,-237.01C324.66,-236.1 315.87,-235.17 307.29,-234.27"/>
<polygon fill="#63b8ff" stroke="#63b8ff" points="333.13,-240.51 343.44,-238.07 333.86,-233.54 333.13,-240.51"/>
</a>
</g>
</g>
<!-- Node12 -->
<g id="Node000012" class="node">
<title>Node12</title>
<g id="a_Node000012"><a xlink:href="class_callable_wrap_t_t.html#a1c350ebcbea11eced6a0ad39fd038d84" target="_top" xlink:title=" ">
<polygon fill="white" stroke="#666666" points="307,-199 158,-199 158,-180 307,-180 307,-199"/>
<text text-anchor="middle" x="232.5" y="-187" font-family="Times,serif" font-size="10.00">CallableWrapTT::call_func</text>
</a>
</g>
</g>
<!-- Node4&#45;&gt;Node12 -->
<g id="edge11_Node000004_Node000012" class="edge">
<title>Node4&#45;&gt;Node12</title>
<g id="a_edge11_Node000004_Node000012"><a xlink:title=" ">
<path fill="none" stroke="#63b8ff" d="M359.11,-227.07C353.66,-225.2 348.22,-223.32 343,-221.5 326.94,-215.89 323.25,-213.52 307,-208.5 296.17,-205.15 284.32,-201.91 273.36,-199.08"/>
<polygon fill="#63b8ff" stroke="#63b8ff" points="358.29,-230.49 368.88,-230.4 360.55,-223.86 358.29,-230.49"/>
</a>
</g>
</g>
<!-- Node7 -->
<g id="Node000007" class="node">
<title>Node7</title>
<g id="a_Node000007"><a xlink:href="class_callable_wrap_t_t.html#aecd18b162c424a0bb6796539c8df3136" target="_top" xlink:title=" ">
<polygon fill="white" stroke="#666666" points="119,-328 3,-328 3,-309 119,-309 119,-328"/>
<text text-anchor="middle" x="61" y="-316" font-family="Times,serif" font-size="10.00">CallableWrapTT::op</text>
</a>
</g>
</g>
<!-- Node6&#45;&gt;Node7 -->
<g id="edge6_Node000006_Node000007" class="edge">
<title>Node6&#45;&gt;Node7</title>
<g id="a_edge6_Node000006_Node000007"><a xlink:title=" ">
<path fill="none" stroke="#63b8ff" d="M178.25,-275.84C171.37,-277.85 164.47,-280.08 158,-282.5 141.25,-288.77 138.63,-293.91 122,-300.5 114.22,-303.59 105.69,-306.45 97.56,-308.93"/>
<polygon fill="#63b8ff" stroke="#63b8ff" points="179.58,-279.11 188.28,-273.05 177.7,-272.36 179.58,-279.11"/>
</a>
</g>
</g>
<!-- Node8 -->
<g id="Node000008" class="node">
<title>Node8</title>
<g id="a_Node000008"><a xlink:href="class_callable_wrap_t_t.html#a48bbe4143464130f417276d7fef340db" target="_top" xlink:title=" ">
<polygon fill="white" stroke="#666666" points="119,-291 3,-291 3,-272 119,-272 119,-291"/>
<text text-anchor="middle" x="61" y="-279" font-family="Times,serif" font-size="10.00">CallableWrapTT::op</text>
</a>
</g>
</g>
<!-- Node6&#45;&gt;Node8 -->
<g id="edge7_Node000006_Node000008" class="edge">
<title>Node6&#45;&gt;Node8</title>
<g id="a_edge7_Node000006_Node000008"><a xlink:title=" ">
<path fill="none" stroke="#63b8ff" d="M147.6,-272.41C137.92,-273.44 128.24,-274.47 119.04,-275.44"/>
<polygon fill="#63b8ff" stroke="#63b8ff" points="148.07,-275.88 157.65,-271.34 147.33,-268.92 148.07,-275.88"/>
</a>
</g>
</g>
<!-- Node9 -->
<g id="Node000009" class="node">
<title>Node9</title>
<g id="a_Node000009"><a xlink:href="class_callable_wrap_t_t.html#a829af784a7d1094a83014fa6bd3adcef" target="_top" xlink:title=" ">
<polygon fill="white" stroke="#666666" points="119,-254 3,-254 3,-235 119,-235 119,-254"/>
<text text-anchor="middle" x="61" y="-242" font-family="Times,serif" font-size="10.00">CallableWrapTT::op</text>
</a>
</g>
</g>
<!-- Node6&#45;&gt;Node9 -->
<g id="edge8_Node000006_Node000009" class="edge">
<title>Node6&#45;&gt;Node9</title>
<g id="a_edge8_Node000006_Node000009"><a xlink:title=" ">
<path fill="none" stroke="#63b8ff" d="M147.6,-254.09C137.92,-253.01 128.24,-251.92 119.04,-250.89"/>
<polygon fill="#63b8ff" stroke="#63b8ff" points="147.32,-257.59 157.65,-255.22 148.1,-250.63 147.32,-257.59"/>
</a>
</g>
</g>
<!-- Node10 -->
<g id="Node000010" class="node">
<title>Node10</title>
<g id="a_Node000010"><a xlink:href="class_callable_wrap_t_t.html#a6a5fa97bbba922623cb618f1f83675f4" target="_top" xlink:title=" ">
<polygon fill="white" stroke="#666666" points="119,-217 3,-217 3,-198 119,-198 119,-217"/>
<text text-anchor="middle" x="61" y="-205" font-family="Times,serif" font-size="10.00">CallableWrapTT::op</text>
</a>
</g>
</g>
<!-- Node6&#45;&gt;Node10 -->
<g id="edge9_Node000006_Node000010" class="edge">
<title>Node6&#45;&gt;Node10</title>
<g id="a_edge9_Node000006_Node000010"><a xlink:title=" ">
<path fill="none" stroke="#63b8ff" d="M175.22,-251.23C169.34,-249.5 163.51,-247.59 158,-245.5 141.09,-239.08 138.69,-233.48 122,-226.5 113.63,-223 104.38,-219.77 95.71,-217.01"/>
<polygon fill="#63b8ff" stroke="#63b8ff" points="174.52,-254.67 185.1,-253.97 176.4,-247.93 174.52,-254.67"/>
</a>
</g>
</g>
<!-- Node17 -->
<g id="Node000017" class="node">
<title>Node17</title>
<g id="a_Node000017"><a xlink:href="classttg__parsec_1_1_t_t.html#ab0bde8f642c472a5cf19274f7251268f" target="_top" xlink:title=" ">
<polygon fill="white" stroke="#666666" points="299.5,-67.5 165.5,-67.5 165.5,-37.5 299.5,-37.5 299.5,-67.5"/>
<text text-anchor="start" x="173.5" y="-55.5" font-family="Times,serif" font-size="10.00">ttg_parsec::TT::register</text>
<text text-anchor="middle" x="232.5" y="-44.5" font-family="Times,serif" font-size="10.00">_static_op_function</text>
</a>
</g>
</g>
<!-- Node16&#45;&gt;Node17 -->
<g id="edge16_Node000016_Node000017" class="edge">
<title>Node16&#45;&gt;Node17</title>
<g id="a_edge16_Node000016_Node000017"><a xlink:title=" ">
<path fill="none" stroke="#63b8ff" d="M343.51,-52.5C329.04,-52.5 313.86,-52.5 299.55,-52.5"/>
<polygon fill="#63b8ff" stroke="#63b8ff" points="343.9,-56 353.9,-52.5 343.9,-49 343.9,-56"/>
</a>
</g>
</g>
<!-- Node18 -->
<g id="Node000018" class="node">
<title>Node18</title>
<g id="a_Node000018"><a xlink:href="classttg__parsec_1_1_t_t.html#ac36a15986a5a4182b0cadb188014192a" target="_top" xlink:title="Marks this executable.">
<polygon fill="white" stroke="#666666" points="122,-67.5 0,-67.5 0,-37.5 122,-37.5 122,-67.5"/>
<text text-anchor="start" x="8" y="-55.5" font-family="Times,serif" font-size="10.00">ttg_parsec::TT::make</text>
<text text-anchor="middle" x="61" y="-44.5" font-family="Times,serif" font-size="10.00">_executable</text>
</a>
</g>
</g>
<!-- Node17&#45;&gt;Node18 -->
<g id="edge17_Node000017_Node000018" class="edge">
<title>Node17&#45;&gt;Node18</title>
<g id="a_edge17_Node000017_Node000018"><a xlink:title=" ">
<path fill="none" stroke="#63b8ff" d="M155.32,-52.5C144.16,-52.5 132.8,-52.5 122.03,-52.5"/>
<polygon fill="#63b8ff" stroke="#63b8ff" points="155.48,-56 165.48,-52.5 155.48,-49 155.48,-56"/>
</a>
</g>
</g>
</g>
</svg>

<g id="navigator" transform="translate(0 0)" fill="#404254">
  <rect fill="#f2f5e9" fill-opacity="0.5" stroke="#606060" stroke-width=".5" x="0" y="0" width="60" height="60"/>
  <use id="zoomplus" xlink:href="#zoomPlus" x="17" y="9" onmousedown="handleZoom(evt,'in')"/>
  <use id="zoomminus" xlink:href="#zoomMin" x="42" y="9" onmousedown="handleZoom(evt,'out')"/>
  <use id="reset" xlink:href="#resetDef" x="30" y="36" onmousedown="handleReset()"/>
   <use id="arrowup" xlink:href="#arrowUp" x="0" y="0" onmousedown="handlePan(0,-1)"/>
  <use id="arrowright" xlink:href="#arrowRight" x="0" y="0" onmousedown="handlePan(1,0)"/>
  <use id="arrowdown" xlink:href="#arrowDown" x="0" y="0" onmousedown="handlePan(0,1)"/>
  <use id="arrowleft" xlink:href="#arrowLeft" x="0" y="0" onmousedown="handlePan(-1,0)"/>
</g>
<svg viewBox="0 0 15 15" width="100%" height="30px" preserveAspectRatio="xMaxYMin meet">
 <g id="arrow_out" transform="scale(0.3 0.3)">
  <a xlink:href="namespacettg_a408d84f3b0f9b79a3278a3eac949b207_icgraph_org.svg" target="_base">
   <rect id="button" ry="5" rx="5" y="6" x="6" height="38" width="38"
        fill="#f2f5e9" fill-opacity="0.5" stroke="#606060" stroke-width="1.0"/>
   <path id="arrow"
     d="M 11.500037,31.436501 C 11.940474,20.09759 22.043105,11.32322 32.158766,21.979434 L 37.068811,17.246167 C 37.068811,17.246167 37.088388,32 37.088388,32 L 22.160133,31.978069 C 22.160133,31.978069 26.997745,27.140456 26.997745,27.140456 C 18.528582,18.264221 13.291696,25.230495 11.500037,31.436501 z"
     style="fill:#404040;"/>
  </a>
 </g>
</svg>

<style type='text/css'>
<![CDATA[
[data-mouse-over-selected='false'] { opacity: 0.7; }
[data-mouse-over-selected='true']  { opacity: 1.0; }
]]>
</style>
<script type="application/ecmascript"><![CDATA[
document.addEventListener('DOMContentLoaded', (event) => {
  highlightEdges();
  highlightAdjacentNodes();
});
]]></script>
</svg>
