<?xml version="1.0" encoding="UTF-8" standalone="no"?>
<!DOCTYPE svg PUBLIC "-//W3C//DTD SVG 1.1//EN"
 "http://www.w3.org/Graphics/SVG/1.1/DTD/svg11.dtd">
<!-- Generated by graphviz version 2.43.0 (0)
 -->
<!-- Title: ttg_parsec::detail::post_device_out Pages: 1 -->
<svg width="254pt" height="56pt"
 viewBox="0.00 0.00 254.00 56.00" xmlns="http://www.w3.org/2000/svg" xmlns:xlink="http://www.w3.org/1999/xlink">
<g id="graph0" class="graph" transform="scale(1 1) rotate(0) translate(4 52)">
<title>ttg_parsec::detail::post_device_out</title>
<!-- Node1 -->
<g id="Node000001" class="node">
<title>Node1</title>
<g id="a_Node000001"><a xlink:title=" ">
<polygon fill="#999999" stroke="#666666" points="104,-30 0,-30 0,0 104,0 104,-30"/>
<text text-anchor="start" x="8" y="-18" font-family="Times,serif" font-size="10.00">ttg_parsec::detail</text>
<text text-anchor="middle" x="52" y="-7" font-family="Times,serif" font-size="10.00">::post_device_out</text>
</a>
</g>
</g>
<!-- Node1&#45;&gt;Node1 -->
<g id="edge2_Node000001_Node000001" class="edge">
<title>Node1&#45;&gt;Node1</title>
<g id="a_edge2_Node000001_Node000001"><a xlink:title=" ">
<path fill="none" stroke="#63b8ff" d="M27.39,-30.28C21.92,-39.41 30.12,-48 52,-48 64.99,-48 73.16,-44.97 76.51,-40.6"/>
<polygon fill="#63b8ff" stroke="#63b8ff" points="80.01,-40.31 76.61,-30.28 73.01,-40.24 80.01,-40.31"/>
</a>
</g>
</g>
<!-- Node2 -->
<g id="Node000002" class="node">
<title>Node2</title>
<g id="a_Node000002"><a xlink:href="namespacettg__parsec_1_1detail.html#ad37e220fbc05d0a62b08a94964480f0a" target="_top" xlink:title=" ">
<polygon fill="white" stroke="#666666" points="246,-30 140,-30 140,0 246,0 246,-30"/>
<text text-anchor="start" x="148" y="-18" font-family="Times,serif" font-size="10.00">ttg_parsec::detail</text>
<text text-anchor="middle" x="193" y="-7" font-family="Times,serif" font-size="10.00">::get_parsec_data</text>
</a>
</g>
</g>
<!-- Node1&#45;&gt;Node2 -->
<g id="edge1_Node000001_Node000002" class="edge">
<title>Node1&#45;&gt;Node2</title>
<g id="a_edge1_Node000001_Node000002"><a xlink:title=" ">
<path fill="none" stroke="#63b8ff" d="M104.36,-15C112.61,-15 121.22,-15 129.69,-15"/>
<polygon fill="#63b8ff" stroke="#63b8ff" points="129.92,-18.5 139.92,-15 129.92,-11.5 129.92,-18.5"/>
</a>
</g>
</g>
</g>
</svg>
