<?xml version="1.0" encoding="UTF-8" standalone="no"?>
<!DOCTYPE svg PUBLIC "-//W3C//DTD SVG 1.1//EN"
 "http://www.w3.org/Graphics/SVG/1.1/DTD/svg11.dtd">
<!-- Generated by graphviz version 2.43.0 (0)
 -->
<!-- Title: ttg/ttg/parsec/parsec&#45;ext.h Pages: 1 -->
<!--zoomable 280 -->

<svg id="main" version="1.1" xmlns="http://www.w3.org/2000/svg" xmlns:xlink="http://www.w3.org/1999/xlink" xml:space="preserve" onload="init(evt)">
<style type="text/css"><![CDATA[
.node, .edge {opacity: 0.7;}
.node.selected, .edge.selected {opacity: 1;}
.edge:hover path { stroke: red; }
.edge:hover polygon { stroke: red; fill: red; }
]]></style>

<defs>
  <circle id="rim" cx="0" cy="0" r="7"/>
  <circle id="rim2" cx="0" cy="0" r="3.5"/>
  <g id="zoomPlus">
    <use xlink:href="#rim" fill="#404040"><set attributeName="fill" to="#808080" begin="zoomplus.mouseover" end="zoomplus.mouseout"/></use>
    <path d="M-4,0h8M0,-4v8" fill="none" stroke="white" stroke-width="1.5" pointer-events="none"/>
  </g>
  <g id="zoomMin">
    <use xlink:href="#rim" fill="#404040"><set attributeName="fill" to="#808080" begin="zoomminus.mouseover" end="zoomminus.mouseout"/></use>
    <path d="M-4,0h8" fill="none" stroke="white" stroke-width="1.5" pointer-events="none"/>
  </g>
  <g id="arrowUp" transform="translate(30 24)">
    <use xlink:href="#rim"/>
    <path pointer-events="none" fill="none" stroke="white" stroke-width="1.5" d="M0,-3.0v7 M-2.5,-0.5L0,-3.0L2.5,-0.5"/>
  </g>
  <g id="arrowRight" transform="rotate(90) translate(36 -43)">
    <use xlink:href="#rim"/>
    <path pointer-events="none" fill="none" stroke="white" stroke-width="1.5" d="M0,-3.0v7 M-2.5,-0.5L0,-3.0L2.5,-0.5"/>
  </g>
  <g id="arrowDown" transform="rotate(180) translate(-30 -48)">
    <use xlink:href="#rim"/>
    <path pointer-events="none" fill="none" stroke="white" stroke-width="1.5" d="M0,-3.0v7 M-2.5,-0.5L0,-3.0L2.5,-0.5"/>
  </g>
  <g id="arrowLeft" transform="rotate(270) translate(-36 17)">
    <use xlink:href="#rim"/>
    <path pointer-events="none" fill="none" stroke="white" stroke-width="1.5" d="M0,-3.0v7 M-2.5,-0.5L0,-3.0L2.5,-0.5"/>
  </g>
  <g id="resetDef">
    <use xlink:href="#rim2" fill="#404040"><set attributeName="fill" to="#808080" begin="reset.mouseover" end="reset.mouseout"/></use>
  </g>
</defs>
<script type="application/ecmascript">
var viewWidth = 741;
var viewHeight = 280;
var sectionId = 'dynsection-0';
</script>
<script type="application/ecmascript" xlink:href="svg.min.js"/>
<svg id="graph" class="graph">
<g id="viewport">
<title>ttg/ttg/parsec/parsec&#45;ext.h</title>
<!-- Node1 -->
<g id="Node000001" class="node">
<title>Node1</title>
<g id="a_Node000001"><a xlink:title=" ">
<polygon fill="#999999" stroke="#666666" points="152.89,-272 30.89,-272 30.89,-242 152.89,-242 152.89,-272"/>
<text text-anchor="start" x="38.89" y="-260" font-family="Times,serif" font-size="10.00">ttg/ttg/parsec/parsec</text>
<text text-anchor="middle" x="91.89" y="-249" font-family="Times,serif" font-size="10.00">&#45;ext.h</text>
</a>
</g>
</g>
<!-- Node2 -->
<g id="Node000002" class="node">
<title>Node2</title>
<g id="a_Node000002"><a xlink:href="parsec_2buffer_8h.html" target="_top" xlink:title=" ">
<polygon fill="white" stroke="#666666" points="155.89,-140 27.89,-140 27.89,-121 155.89,-121 155.89,-140"/>
<text text-anchor="middle" x="91.89" y="-128" font-family="Times,serif" font-size="10.00">ttg/ttg/parsec/buffer.h</text>
</a>
</g>
</g>
<!-- Node1&#45;&gt;Node2 -->
<g id="edge1_Node000001_Node000002" class="edge">
<title>Node1&#45;&gt;Node2</title>
<g id="a_edge1_Node000001_Node000002"><a xlink:title=" ">
<path fill="none" stroke="#63b8ff" d="M91.89,-231.48C91.89,-203.34 91.89,-158.67 91.89,-140.07"/>
<polygon fill="#63b8ff" stroke="#63b8ff" points="88.39,-231.72 91.89,-241.72 95.39,-231.72 88.39,-231.72"/>
</a>
</g>
</g>
<!-- Node4 -->
<g id="Node000004" class="node">
<title>Node4</title>
<g id="a_Node000004"><a xlink:href="ttg_2parsec_2ttg_8h.html" target="_top" xlink:title=" ">
<polygon fill="white" stroke="#666666" points="323.89,-19 211.89,-19 211.89,0 323.89,0 323.89,-19"/>
<text text-anchor="middle" x="267.89" y="-7" font-family="Times,serif" font-size="10.00">ttg/ttg/parsec/ttg.h</text>
</a>
</g>
</g>
<!-- Node1&#45;&gt;Node4 -->
<g id="edge5_Node000001_Node000004" class="edge">
<title>Node1&#45;&gt;Node4</title>
<g id="a_edge5_Node000001_Node000004"><a xlink:title=" ">
<path fill="none" stroke="#63b8ff" d="M71,-234.46C35.16,-194.89 -29.98,-109.68 15.89,-55 40.37,-25.81 145.15,-15.76 211.65,-12.3"/>
<polygon fill="#63b8ff" stroke="#63b8ff" points="68.59,-237 77.95,-241.97 73.72,-232.25 68.59,-237"/>
</a>
</g>
</g>
<!-- Node5 -->
<g id="Node000005" class="node">
<title>Node5</title>
<g id="a_Node000005"><a xlink:href="ttg__data__copy_8h.html" target="_top" xlink:title=" ">
<polygon fill="white" stroke="#666666" points="263.89,-206 161.89,-206 161.89,-176 263.89,-176 263.89,-206"/>
<text text-anchor="start" x="169.89" y="-194" font-family="Times,serif" font-size="10.00">ttg/ttg/parsec/ttg</text>
<text text-anchor="middle" x="212.89" y="-183" font-family="Times,serif" font-size="10.00">_data_copy.h</text>
</a>
</g>
</g>
<!-- Node1&#45;&gt;Node5 -->
<g id="edge6_Node000001_Node000005" class="edge">
<title>Node1&#45;&gt;Node5</title>
<g id="a_edge6_Node000001_Node000005"><a xlink:title=" ">
<path fill="none" stroke="#63b8ff" d="M127.36,-237.24C146.24,-227.25 169.07,-215.18 186.4,-206.01"/>
<polygon fill="#63b8ff" stroke="#63b8ff" points="125.65,-234.19 118.44,-241.95 128.92,-240.37 125.65,-234.19"/>
</a>
</g>
</g>
<!-- Node3 -->
<g id="Node000003" class="node">
<title>Node3</title>
<g id="a_Node000003"><a xlink:href="parsec__data_8h.html" target="_top" xlink:title=" ">
<polygon fill="white" stroke="#666666" points="155.89,-85 33.89,-85 33.89,-55 155.89,-55 155.89,-85"/>
<text text-anchor="start" x="41.89" y="-73" font-family="Times,serif" font-size="10.00">ttg/ttg/parsec/parsec</text>
<text text-anchor="middle" x="94.89" y="-62" font-family="Times,serif" font-size="10.00">_data.h</text>
</a>
</g>
</g>
<!-- Node2&#45;&gt;Node3 -->
<g id="edge2_Node000002_Node000003" class="edge">
<title>Node2&#45;&gt;Node3</title>
<g id="a_edge2_Node000002_Node000003"><a xlink:title=" ">
<path fill="none" stroke="#63b8ff" d="M92.86,-110.65C93.28,-102.36 93.77,-92.78 94.17,-85.11"/>
<polygon fill="#63b8ff" stroke="#63b8ff" points="89.35,-110.7 92.33,-120.87 96.34,-111.06 89.35,-110.7"/>
</a>
</g>
</g>
<!-- Node2&#45;&gt;Node4 -->
<g id="edge4_Node000002_Node000004" class="edge">
<title>Node2&#45;&gt;Node4</title>
<g id="a_edge4_Node000002_Node000004"><a xlink:title=" ">
<path fill="none" stroke="#63b8ff" d="M59.77,-116.52C46.46,-109.34 32.4,-99 24.89,-85 18.59,-73.25 16.35,-65.24 24.89,-55 48.2,-27.04 147.44,-16.59 211.66,-12.73"/>
<polygon fill="#63b8ff" stroke="#63b8ff" points="58.26,-119.67 68.78,-120.98 61.37,-113.4 58.26,-119.67"/>
</a>
</g>
</g>
<!-- Node3&#45;&gt;Node4 -->
<g id="edge3_Node000003_Node000004" class="edge">
<title>Node3&#45;&gt;Node4</title>
<g id="a_edge3_Node000003_Node000004"><a xlink:title=" ">
<path fill="none" stroke="#63b8ff" d="M145.93,-51.74C177.75,-40.98 217.32,-27.6 242.59,-19.05"/>
<polygon fill="#63b8ff" stroke="#63b8ff" points="144.68,-48.47 136.33,-54.99 146.92,-55.1 144.68,-48.47"/>
</a>
</g>
</g>
<!-- Node5&#45;&gt;Node2 -->
<g id="edge7_Node000005_Node000002" class="edge">
<title>Node5&#45;&gt;Node2</title>
<g id="a_edge7_Node000005_Node000002"><a xlink:title=" ">
<path fill="none" stroke="#63b8ff" d="M174.9,-171.63C153.13,-161.11 126.84,-148.4 109.76,-140.14"/>
<polygon fill="#63b8ff" stroke="#63b8ff" points="173.38,-174.79 183.91,-175.99 176.43,-168.48 173.38,-174.79"/>
</a>
</g>
</g>
<!-- Node5&#45;&gt;Node4 -->
<g id="edge17_Node000005_Node000004" class="edge">
<title>Node5&#45;&gt;Node4</title>
<g id="a_edge17_Node000005_Node000004"><a xlink:title=" ">
<path fill="none" stroke="#63b8ff" d="M203.85,-166.18C194.7,-137.92 184.32,-90.21 202.89,-55 211.88,-37.94 230.69,-26.18 245.77,-19.05"/>
<polygon fill="#63b8ff" stroke="#63b8ff" points="200.67,-167.68 207.23,-175.99 207.28,-165.39 200.67,-167.68"/>
</a>
</g>
</g>
<!-- Node6 -->
<g id="Node000006" class="node">
<title>Node6</title>
<g id="a_Node000006"><a xlink:href="parsec_2ptr_8h.html" target="_top" xlink:title=" ">
<polygon fill="white" stroke="#666666" points="323.89,-79.5 211.89,-79.5 211.89,-60.5 323.89,-60.5 323.89,-79.5"/>
<text text-anchor="middle" x="267.89" y="-67.5" font-family="Times,serif" font-size="10.00">ttg/ttg/parsec/ptr.h</text>
</a>
</g>
</g>
<!-- Node5&#45;&gt;Node6 -->
<g id="edge8_Node000005_Node000006" class="edge">
<title>Node5&#45;&gt;Node6</title>
<g id="a_edge8_Node000005_Node000006"><a xlink:title=" ">
<path fill="none" stroke="#63b8ff" d="M223.75,-166.51C236.06,-139.86 255.51,-97.78 263.86,-79.71"/>
<polygon fill="#63b8ff" stroke="#63b8ff" points="220.43,-165.34 219.42,-175.88 226.79,-168.27 220.43,-165.34"/>
</a>
</g>
</g>
<!-- Node7 -->
<g id="Node000007" class="node">
<title>Node7</title>
<g id="a_Node000007"><a xlink:href="parsec_2task_8h.html" target="_top" xlink:title=" ">
<polygon fill="white" stroke="#666666" points="411.39,-140 292.39,-140 292.39,-121 411.39,-121 411.39,-140"/>
<text text-anchor="middle" x="351.89" y="-128" font-family="Times,serif" font-size="10.00">ttg/ttg/parsec/task.h</text>
</a>
</g>
</g>
<!-- Node5&#45;&gt;Node7 -->
<g id="edge10_Node000005_Node000007" class="edge">
<title>Node5&#45;&gt;Node7</title>
<g id="a_edge10_Node000005_Node000007"><a xlink:title=" ">
<path fill="none" stroke="#63b8ff" d="M255.53,-172.05C280.72,-161.45 311.48,-148.51 331.36,-140.14"/>
<polygon fill="#63b8ff" stroke="#63b8ff" points="254.04,-168.88 246.18,-175.99 256.76,-175.33 254.04,-168.88"/>
</a>
</g>
</g>
<!-- Node10 -->
<g id="Node000010" class="node">
<title>Node10</title>
<g id="a_Node000010"><a xlink:href="parsec_2ttvalue_8h.html" target="_top" xlink:title=" ">
<polygon fill="white" stroke="#666666" points="687.39,-140 554.39,-140 554.39,-121 687.39,-121 687.39,-140"/>
<text text-anchor="middle" x="620.89" y="-128" font-family="Times,serif" font-size="10.00">ttg/ttg/parsec/ttvalue.h</text>
</a>
</g>
</g>
<!-- Node5&#45;&gt;Node10 -->
<g id="edge18_Node000005_Node000010" class="edge">
<title>Node5&#45;&gt;Node10</title>
<g id="a_edge18_Node000005_Node000010"><a xlink:title=" ">
<path fill="none" stroke="#63b8ff" d="M274.27,-181.2C351.96,-170.06 484.89,-151 561.59,-140"/>
<polygon fill="#63b8ff" stroke="#63b8ff" points="273.55,-177.77 264.15,-182.65 274.55,-184.7 273.55,-177.77"/>
</a>
</g>
</g>
<!-- Node6&#45;&gt;Node4 -->
<g id="edge9_Node000006_Node000004" class="edge">
<title>Node6&#45;&gt;Node4</title>
<g id="a_edge9_Node000006_Node000004"><a xlink:title=" ">
<path fill="none" stroke="#63b8ff" d="M267.89,-50.16C267.89,-39.74 267.89,-27.3 267.89,-19.17"/>
<polygon fill="#63b8ff" stroke="#63b8ff" points="264.39,-50.37 267.89,-60.37 271.39,-50.37 264.39,-50.37"/>
</a>
</g>
</g>
<!-- Node7&#45;&gt;Node4 -->
<g id="edge16_Node000007_Node000004" class="edge">
<title>Node7&#45;&gt;Node4</title>
<g id="a_edge16_Node000007_Node000004"><a xlink:title=" ">
<path fill="none" stroke="#63b8ff" d="M350.76,-110.61C348.99,-94.56 344.46,-71.55 332.89,-55 321.45,-38.64 301.92,-26.46 287.24,-19.02"/>
<polygon fill="#63b8ff" stroke="#63b8ff" points="347.3,-111.2 351.62,-120.88 354.27,-110.62 347.3,-111.2"/>
</a>
</g>
</g>
<!-- Node7&#45;&gt;Node6 -->
<g id="edge15_Node000007_Node000006" class="edge">
<title>Node7&#45;&gt;Node6</title>
<g id="a_edge15_Node000007_Node000006"><a xlink:title=" ">
<path fill="none" stroke="#63b8ff" d="M330.85,-114.85C314.94,-103.77 293.63,-88.93 280.34,-79.67"/>
<polygon fill="#63b8ff" stroke="#63b8ff" points="329.29,-118.03 339.5,-120.87 333.29,-112.28 329.29,-118.03"/>
</a>
</g>
</g>
<!-- Node8 -->
<g id="Node000008" class="node">
<title>Node8</title>
<g id="a_Node000008"><a xlink:href="parsec_2devicefunc_8h.html" target="_top" xlink:title=" ">
<polygon fill="white" stroke="#666666" points="533.39,-79.5 380.39,-79.5 380.39,-60.5 533.39,-60.5 533.39,-79.5"/>
<text text-anchor="middle" x="456.89" y="-67.5" font-family="Times,serif" font-size="10.00">ttg/ttg/parsec/devicefunc.h</text>
</a>
</g>
</g>
<!-- Node7&#45;&gt;Node8 -->
<g id="edge11_Node000007_Node000008" class="edge">
<title>Node7&#45;&gt;Node8</title>
<g id="a_edge11_Node000007_Node000008"><a xlink:title=" ">
<path fill="none" stroke="#63b8ff" d="M376.26,-115.92C396.32,-104.74 424.17,-89.23 441.33,-79.67"/>
<polygon fill="#63b8ff" stroke="#63b8ff" points="374.42,-112.94 367.38,-120.87 377.82,-119.06 374.42,-112.94"/>
</a>
</g>
</g>
<!-- Node9 -->
<g id="Node000009" class="node">
<title>Node9</title>
<g id="a_Node000009"><a xlink:href="parsec_2devicescratch_8h.html" target="_top" xlink:title=" ">
<polygon fill="white" stroke="#666666" points="718.39,-79.5 551.39,-79.5 551.39,-60.5 718.39,-60.5 718.39,-79.5"/>
<text text-anchor="middle" x="634.89" y="-67.5" font-family="Times,serif" font-size="10.00">ttg/ttg/parsec/devicescratch.h</text>
</a>
</g>
</g>
<!-- Node7&#45;&gt;Node9 -->
<g id="edge13_Node000007_Node000009" class="edge">
<title>Node7&#45;&gt;Node9</title>
<g id="a_edge13_Node000007_Node000009"><a xlink:title=" ">
<path fill="none" stroke="#63b8ff" d="M402.86,-118.96C457.49,-107.67 543.16,-89.96 593.69,-79.52"/>
<polygon fill="#63b8ff" stroke="#63b8ff" points="402.12,-115.54 393.04,-120.99 403.54,-122.4 402.12,-115.54"/>
</a>
</g>
</g>
<!-- Node8&#45;&gt;Node4 -->
<g id="edge12_Node000008_Node000004" class="edge">
<title>Node8&#45;&gt;Node4</title>
<g id="a_edge12_Node000008_Node000004"><a xlink:title=" ">
<path fill="none" stroke="#63b8ff" d="M419.62,-57.46C383.06,-46.15 328.17,-29.16 295.41,-19.02"/>
<polygon fill="#63b8ff" stroke="#63b8ff" points="418.82,-60.88 429.41,-60.49 420.89,-54.19 418.82,-60.88"/>
</a>
</g>
</g>
<!-- Node9&#45;&gt;Node4 -->
<g id="edge14_Node000009_Node000004" class="edge">
<title>Node9&#45;&gt;Node4</title>
<g id="a_edge14_Node000009_Node000004"><a xlink:title=" ">
<path fill="none" stroke="#63b8ff" d="M571.41,-58.88C500.71,-47.61 387.67,-29.59 321.32,-19.02"/>
<polygon fill="#63b8ff" stroke="#63b8ff" points="571.1,-62.38 581.52,-60.49 572.2,-55.46 571.1,-62.38"/>
</a>
</g>
</g>
<!-- Node10&#45;&gt;Node4 -->
<g id="edge19_Node000010_Node000004" class="edge">
<title>Node10&#45;&gt;Node4</title>
<g id="a_edge19_Node000010_Node000004"><a xlink:title=" ">
<path fill="none" stroke="#63b8ff" d="M681.29,-117.64C698.96,-111.06 716.36,-100.85 726.89,-85 734.27,-73.9 735.85,-64.87 726.89,-55 700.29,-25.69 440.9,-15.11 324.24,-11.81"/>
<polygon fill="#63b8ff" stroke="#63b8ff" points="679.84,-114.44 671.48,-120.94 682.07,-121.07 679.84,-114.44"/>
</a>
</g>
</g>
</g>
</svg>

<g id="navigator" transform="translate(0 0)" fill="#404254">
  <rect fill="#f2f5e9" fill-opacity="0.5" stroke="#606060" stroke-width=".5" x="0" y="0" width="60" height="60"/>
  <use id="zoomplus" xlink:href="#zoomPlus" x="17" y="9" onmousedown="handleZoom(evt,'in')"/>
  <use id="zoomminus" xlink:href="#zoomMin" x="42" y="9" onmousedown="handleZoom(evt,'out')"/>
  <use id="reset" xlink:href="#resetDef" x="30" y="36" onmousedown="handleReset()"/>
   <use id="arrowup" xlink:href="#arrowUp" x="0" y="0" onmousedown="handlePan(0,-1)"/>
  <use id="arrowright" xlink:href="#arrowRight" x="0" y="0" onmousedown="handlePan(1,0)"/>
  <use id="arrowdown" xlink:href="#arrowDown" x="0" y="0" onmousedown="handlePan(0,1)"/>
  <use id="arrowleft" xlink:href="#arrowLeft" x="0" y="0" onmousedown="handlePan(-1,0)"/>
</g>
<svg viewBox="0 0 15 15" width="100%" height="30px" preserveAspectRatio="xMaxYMin meet">
 <g id="arrow_out" transform="scale(0.3 0.3)">
  <a xlink:href="parsec-ext_8h__dep__incl_org.svg" target="_base">
   <rect id="button" ry="5" rx="5" y="6" x="6" height="38" width="38"
        fill="#f2f5e9" fill-opacity="0.5" stroke="#606060" stroke-width="1.0"/>
   <path id="arrow"
     d="M 11.500037,31.436501 C 11.940474,20.09759 22.043105,11.32322 32.158766,21.979434 L 37.068811,17.246167 C 37.068811,17.246167 37.088388,32 37.088388,32 L 22.160133,31.978069 C 22.160133,31.978069 26.997745,27.140456 26.997745,27.140456 C 18.528582,18.264221 13.291696,25.230495 11.500037,31.436501 z"
     style="fill:#404040;"/>
  </a>
 </g>
</svg>

<style type='text/css'>
<![CDATA[
[data-mouse-over-selected='false'] { opacity: 0.7; }
[data-mouse-over-selected='true']  { opacity: 1.0; }
]]>
</style>
<script type="application/ecmascript"><![CDATA[
document.addEventListener('DOMContentLoaded', (event) => {
  highlightEdges();
  highlightAdjacentNodes();
});
]]></script>
</svg>
