<?xml version="1.0" encoding="UTF-8" standalone="no"?>
<!DOCTYPE svg PUBLIC "-//W3C//DTD SVG 1.1//EN"
 "http://www.w3.org/Graphics/SVG/1.1/DTD/svg11.dtd">
<!-- Generated by graphviz version 2.43.0 (0)
 -->
<!-- Title: ttg/ttg/parsec/device.h Pages: 1 -->
<svg width="706pt" height="247pt"
 viewBox="0.00 0.00 706.00 247.00" xmlns="http://www.w3.org/2000/svg" xmlns:xlink="http://www.w3.org/1999/xlink">
<g id="graph0" class="graph" transform="scale(1 1) rotate(0) translate(4 243)">
<title>ttg/ttg/parsec/device.h</title>
<!-- Node1 -->
<g id="Node000001" class="node">
<title>Node1</title>
<g id="a_Node000001"><a xlink:title=" ">
<polygon fill="#999999" stroke="#666666" points="356,-239 225,-239 225,-220 356,-220 356,-239"/>
<text text-anchor="middle" x="290.5" y="-227" font-family="Times,serif" font-size="10.00">ttg/ttg/parsec/device.h</text>
</a>
</g>
</g>
<!-- Node2 -->
<g id="Node000002" class="node">
<title>Node2</title>
<g id="a_Node000002"><a xlink:href="device_2device_8h.html" target="_top" xlink:title=" ">
<polygon fill="white" stroke="#666666" points="271,-184 158,-184 158,-165 271,-165 271,-184"/>
<text text-anchor="middle" x="214.5" y="-172" font-family="Times,serif" font-size="10.00">ttg/device/device.h</text>
</a>
</g>
</g>
<!-- Node1&#45;&gt;Node2 -->
<g id="edge1_Node000001_Node000002" class="edge">
<title>Node1&#45;&gt;Node2</title>
<g id="a_edge1_Node000001_Node000002"><a xlink:title=" ">
<path fill="none" stroke="#63b8ff" d="M278.29,-219.98C266.72,-211.92 249.12,-199.65 235.34,-190.03"/>
<polygon fill="#63b8ff" stroke="#63b8ff" points="237.14,-187.02 226.93,-184.17 233.13,-192.76 237.14,-187.02"/>
</a>
</g>
</g>
<!-- Node17 -->
<g id="Node000017" class="node">
<title>Node17</title>
<g id="a_Node000017"><a xlink:title=" ">
<polygon fill="#e0e0e0" stroke="#999999" points="445.5,-184 289.5,-184 289.5,-165 445.5,-165 445.5,-184"/>
<text text-anchor="middle" x="367.5" y="-172" font-family="Times,serif" font-size="10.00">parsec/mca/device/device.h</text>
</a>
</g>
</g>
<!-- Node1&#45;&gt;Node17 -->
<g id="edge18_Node000001_Node000017" class="edge">
<title>Node1&#45;&gt;Node17</title>
<g id="a_edge18_Node000001_Node000017"><a xlink:title=" ">
<path fill="none" stroke="#63b8ff" d="M302.87,-219.98C314.59,-211.92 332.42,-199.65 346.39,-190.03"/>
<polygon fill="#63b8ff" stroke="#63b8ff" points="348.65,-192.72 354.9,-184.17 344.68,-186.96 348.65,-192.72"/>
</a>
</g>
</g>
<!-- Node3 -->
<g id="Node000003" class="node">
<title>Node3</title>
<g id="a_Node000003"><a xlink:title=" ">
<polygon fill="#e0e0e0" stroke="#999999" points="75,-129 0,-129 0,-110 75,-110 75,-129"/>
<text text-anchor="middle" x="37.5" y="-117" font-family="Times,serif" font-size="10.00">ttg/config.h</text>
</a>
</g>
</g>
<!-- Node2&#45;&gt;Node3 -->
<g id="edge2_Node000002_Node000003" class="edge">
<title>Node2&#45;&gt;Node3</title>
<g id="a_edge2_Node000002_Node000003"><a xlink:title=" ">
<path fill="none" stroke="#63b8ff" d="M186.06,-164.98C156.22,-156.05 109.12,-141.94 75.97,-132.02"/>
<polygon fill="#63b8ff" stroke="#63b8ff" points="76.74,-128.6 66.16,-129.08 74.74,-135.3 76.74,-128.6"/>
</a>
</g>
</g>
<!-- Node4 -->
<g id="Node000004" class="node">
<title>Node4</title>
<g id="a_Node000004"><a xlink:href="execution_8h.html" target="_top" xlink:title=" ">
<polygon fill="white" stroke="#666666" points="186,-129 93,-129 93,-110 186,-110 186,-129"/>
<text text-anchor="middle" x="139.5" y="-117" font-family="Times,serif" font-size="10.00">ttg/execution.h</text>
</a>
</g>
</g>
<!-- Node2&#45;&gt;Node4 -->
<g id="edge3_Node000002_Node000004" class="edge">
<title>Node2&#45;&gt;Node4</title>
<g id="a_edge3_Node000002_Node000004"><a xlink:title=" ">
<path fill="none" stroke="#63b8ff" d="M202.45,-164.98C191.04,-156.92 173.67,-144.65 160.07,-135.03"/>
<polygon fill="#63b8ff" stroke="#63b8ff" points="161.96,-132.08 151.77,-129.17 157.92,-137.8 161.96,-132.08"/>
</a>
</g>
</g>
<!-- Node5 -->
<g id="Node000005" class="node">
<title>Node5</title>
<g id="a_Node000005"><a xlink:href="impl__selector_8h.html" target="_top" xlink:title=" ">
<polygon fill="white" stroke="#666666" points="269.5,-74 159.5,-74 159.5,-55 269.5,-55 269.5,-74"/>
<text text-anchor="middle" x="214.5" y="-62" font-family="Times,serif" font-size="10.00">ttg/impl_selector.h</text>
</a>
</g>
</g>
<!-- Node2&#45;&gt;Node5 -->
<g id="edge4_Node000002_Node000005" class="edge">
<title>Node2&#45;&gt;Node5</title>
<g id="a_edge4_Node000002_Node000005"><a xlink:title=" ">
<path fill="none" stroke="#63b8ff" d="M214.5,-164.66C214.5,-147.17 214.5,-107.8 214.5,-84.27"/>
<polygon fill="#63b8ff" stroke="#63b8ff" points="218,-84.16 214.5,-74.16 211,-84.16 218,-84.16"/>
</a>
</g>
</g>
<!-- Node6 -->
<g id="Node000006" class="node">
<title>Node6</title>
<g id="a_Node000006"><a xlink:href="fwd_8h.html" target="_top" xlink:title=" ">
<polygon fill="white" stroke="#666666" points="304.5,-129 242.5,-129 242.5,-110 304.5,-110 304.5,-129"/>
<text text-anchor="middle" x="273.5" y="-117" font-family="Times,serif" font-size="10.00">ttg/fwd.h</text>
</a>
</g>
</g>
<!-- Node2&#45;&gt;Node6 -->
<g id="edge5_Node000002_Node000006" class="edge">
<title>Node2&#45;&gt;Node6</title>
<g id="a_edge5_Node000002_Node000006"><a xlink:title=" ">
<path fill="none" stroke="#63b8ff" d="M223.98,-164.98C232.7,-157.15 245.84,-145.34 256.4,-135.86"/>
<polygon fill="#63b8ff" stroke="#63b8ff" points="258.75,-138.46 263.85,-129.17 254.07,-133.25 258.75,-138.46"/>
</a>
</g>
</g>
<!-- Node7 -->
<g id="Node000007" class="node">
<title>Node7</title>
<g id="a_Node000007"><a xlink:href="meta_8h.html" target="_top" xlink:title=" ">
<polygon fill="white" stroke="#666666" points="428,-129 339,-129 339,-110 428,-110 428,-129"/>
<text text-anchor="middle" x="383.5" y="-117" font-family="Times,serif" font-size="10.00">ttg/util/meta.h</text>
</a>
</g>
</g>
<!-- Node2&#45;&gt;Node7 -->
<g id="edge7_Node000002_Node000007" class="edge">
<title>Node2&#45;&gt;Node7</title>
<g id="a_edge7_Node000002_Node000007"><a xlink:title=" ">
<path fill="none" stroke="#63b8ff" d="M241.65,-164.98C270.03,-156.09 314.73,-142.07 346.36,-132.15"/>
<polygon fill="#63b8ff" stroke="#63b8ff" points="347.64,-135.41 356.13,-129.08 345.55,-128.73 347.64,-135.41"/>
</a>
</g>
</g>
<!-- Node6&#45;&gt;Node5 -->
<g id="edge6_Node000006_Node000005" class="edge">
<title>Node6&#45;&gt;Node5</title>
<g id="a_edge6_Node000006_Node000005"><a xlink:title=" ">
<path fill="none" stroke="#63b8ff" d="M264.02,-109.98C255.3,-102.15 242.16,-90.34 231.6,-80.86"/>
<polygon fill="#63b8ff" stroke="#63b8ff" points="233.93,-78.25 224.15,-74.17 229.25,-83.46 233.93,-78.25"/>
</a>
</g>
</g>
<!-- Node8 -->
<g id="Node000008" class="node">
<title>Node8</title>
<g id="a_Node000008"><a xlink:title=" ">
<polygon fill="#e0e0e0" stroke="#999999" points="355.5,-74 287.5,-74 287.5,-55 355.5,-55 355.5,-74"/>
<text text-anchor="middle" x="321.5" y="-62" font-family="Times,serif" font-size="10.00">functional</text>
</a>
</g>
</g>
<!-- Node7&#45;&gt;Node8 -->
<g id="edge8_Node000007_Node000008" class="edge">
<title>Node7&#45;&gt;Node8</title>
<g id="a_edge8_Node000007_Node000008"><a xlink:title=" ">
<path fill="none" stroke="#63b8ff" d="M373.54,-109.98C364.37,-102.15 350.56,-90.34 339.47,-80.86"/>
<polygon fill="#63b8ff" stroke="#63b8ff" points="341.52,-78.01 331.64,-74.17 336.97,-83.33 341.52,-78.01"/>
</a>
</g>
</g>
<!-- Node9 -->
<g id="Node000009" class="node">
<title>Node9</title>
<g id="a_Node000009"><a xlink:title=" ">
<polygon fill="#e0e0e0" stroke="#999999" points="348,-19 277,-19 277,0 348,0 348,-19"/>
<text text-anchor="middle" x="312.5" y="-7" font-family="Times,serif" font-size="10.00">type_traits</text>
</a>
</g>
</g>
<!-- Node7&#45;&gt;Node9 -->
<g id="edge9_Node000007_Node000009" class="edge">
<title>Node7&#45;&gt;Node9</title>
<g id="a_edge9_Node000007_Node000009"><a xlink:title=" ">
<path fill="none" stroke="#63b8ff" d="M382.46,-109.62C380.6,-96.7 375.8,-72.36 364.5,-55 356.8,-43.17 345.06,-32.74 334.68,-24.96"/>
<polygon fill="#63b8ff" stroke="#63b8ff" points="336.57,-22.01 326.4,-19.07 332.52,-27.72 336.57,-22.01"/>
</a>
</g>
</g>
<!-- Node10 -->
<g id="Node000010" class="node">
<title>Node10</title>
<g id="a_Node000010"><a xlink:href="span_8h.html" target="_top" xlink:title=" ">
<polygon fill="white" stroke="#666666" points="499.5,-74 411.5,-74 411.5,-55 499.5,-55 499.5,-74"/>
<text text-anchor="middle" x="455.5" y="-62" font-family="Times,serif" font-size="10.00">ttg/util/span.h</text>
</a>
</g>
</g>
<!-- Node7&#45;&gt;Node10 -->
<g id="edge10_Node000007_Node000010" class="edge">
<title>Node7&#45;&gt;Node10</title>
<g id="a_edge10_Node000007_Node000010"><a xlink:title=" ">
<path fill="none" stroke="#63b8ff" d="M395.07,-109.98C405.92,-102 422.38,-89.88 435.38,-80.31"/>
<polygon fill="#63b8ff" stroke="#63b8ff" points="437.74,-82.92 443.72,-74.17 433.59,-77.28 437.74,-82.92"/>
</a>
</g>
</g>
<!-- Node15 -->
<g id="Node000015" class="node">
<title>Node15</title>
<g id="a_Node000015"><a xlink:href="typelist_8h.html" target="_top" xlink:title=" ">
<polygon fill="white" stroke="#666666" points="673,-74 572,-74 572,-55 673,-55 673,-74"/>
<text text-anchor="middle" x="622.5" y="-62" font-family="Times,serif" font-size="10.00">ttg/util/typelist.h</text>
</a>
</g>
</g>
<!-- Node7&#45;&gt;Node15 -->
<g id="edge16_Node000007_Node000015" class="edge">
<title>Node7&#45;&gt;Node15</title>
<g id="a_edge16_Node000007_Node000015"><a xlink:title=" ">
<path fill="none" stroke="#63b8ff" d="M421.9,-109.98C463.24,-100.82 529.1,-86.21 573.99,-76.26"/>
<polygon fill="#63b8ff" stroke="#63b8ff" points="574.79,-79.66 583.8,-74.08 573.28,-72.83 574.79,-79.66"/>
</a>
</g>
</g>
<!-- Node10&#45;&gt;Node9 -->
<g id="edge14_Node000010_Node000009" class="edge">
<title>Node10&#45;&gt;Node9</title>
<g id="a_edge14_Node000010_Node000009"><a xlink:title=" ">
<path fill="none" stroke="#63b8ff" d="M432.52,-54.98C409,-46.27 372.21,-32.63 345.56,-22.75"/>
<polygon fill="#63b8ff" stroke="#63b8ff" points="346.49,-19.36 335.89,-19.17 344.05,-25.93 346.49,-19.36"/>
</a>
</g>
</g>
<!-- Node11 -->
<g id="Node000011" class="node">
<title>Node11</title>
<g id="a_Node000011"><a xlink:title=" ">
<polygon fill="#e0e0e0" stroke="#999999" points="410.5,-19 366.5,-19 366.5,0 410.5,0 410.5,-19"/>
<text text-anchor="middle" x="388.5" y="-7" font-family="Times,serif" font-size="10.00">array</text>
</a>
</g>
</g>
<!-- Node10&#45;&gt;Node11 -->
<g id="edge11_Node000010_Node000011" class="edge">
<title>Node10&#45;&gt;Node11</title>
<g id="a_edge11_Node000010_Node000011"><a xlink:title=" ">
<path fill="none" stroke="#63b8ff" d="M444.74,-54.98C434.73,-47.07 419.61,-35.11 407.57,-25.58"/>
<polygon fill="#63b8ff" stroke="#63b8ff" points="409.47,-22.63 399.46,-19.17 405.13,-28.12 409.47,-22.63"/>
</a>
</g>
</g>
<!-- Node12 -->
<g id="Node000012" class="node">
<title>Node12</title>
<g id="a_Node000012"><a xlink:title=" ">
<polygon fill="#e0e0e0" stroke="#999999" points="482.5,-19 428.5,-19 428.5,0 482.5,0 482.5,-19"/>
<text text-anchor="middle" x="455.5" y="-7" font-family="Times,serif" font-size="10.00">cstddef</text>
</a>
</g>
</g>
<!-- Node10&#45;&gt;Node12 -->
<g id="edge12_Node000010_Node000012" class="edge">
<title>Node10&#45;&gt;Node12</title>
<g id="a_edge12_Node000010_Node000012"><a xlink:title=" ">
<path fill="none" stroke="#63b8ff" d="M455.5,-54.75C455.5,-47.8 455.5,-37.85 455.5,-29.13"/>
<polygon fill="#63b8ff" stroke="#63b8ff" points="459,-29.09 455.5,-19.09 452,-29.09 459,-29.09"/>
</a>
</g>
</g>
<!-- Node13 -->
<g id="Node000013" class="node">
<title>Node13</title>
<g id="a_Node000013"><a xlink:title=" ">
<polygon fill="#e0e0e0" stroke="#999999" points="552,-19 501,-19 501,0 552,0 552,-19"/>
<text text-anchor="middle" x="526.5" y="-7" font-family="Times,serif" font-size="10.00">cstdint</text>
</a>
</g>
</g>
<!-- Node10&#45;&gt;Node13 -->
<g id="edge13_Node000010_Node000013" class="edge">
<title>Node10&#45;&gt;Node13</title>
<g id="a_edge13_Node000010_Node000013"><a xlink:title=" ">
<path fill="none" stroke="#63b8ff" d="M466.91,-54.98C477.61,-47 493.84,-34.88 506.66,-25.31"/>
<polygon fill="#63b8ff" stroke="#63b8ff" points="508.97,-27.96 514.89,-19.17 504.78,-22.35 508.97,-27.96"/>
</a>
</g>
</g>
<!-- Node14 -->
<g id="Node000014" class="node">
<title>Node14</title>
<g id="a_Node000014"><a xlink:title=" ">
<polygon fill="#e0e0e0" stroke="#999999" points="636.5,-19 570.5,-19 570.5,0 636.5,0 636.5,-19"/>
<text text-anchor="middle" x="603.5" y="-7" font-family="Times,serif" font-size="10.00">exception</text>
</a>
</g>
</g>
<!-- Node10&#45;&gt;Node14 -->
<g id="edge15_Node000010_Node000014" class="edge">
<title>Node10&#45;&gt;Node14</title>
<g id="a_edge15_Node000010_Node000014"><a xlink:title=" ">
<path fill="none" stroke="#63b8ff" d="M479.28,-54.98C503.73,-46.23 542.03,-32.51 569.65,-22.62"/>
<polygon fill="#63b8ff" stroke="#63b8ff" points="571.05,-25.84 579.29,-19.17 568.69,-19.25 571.05,-25.84"/>
</a>
</g>
</g>
<!-- Node16 -->
<g id="Node000016" class="node">
<title>Node16</title>
<g id="a_Node000016"><a xlink:title=" ">
<polygon fill="#e0e0e0" stroke="#999999" points="698,-19 655,-19 655,0 698,0 698,-19"/>
<text text-anchor="middle" x="676.5" y="-7" font-family="Times,serif" font-size="10.00">tuple</text>
</a>
</g>
</g>
<!-- Node15&#45;&gt;Node16 -->
<g id="edge17_Node000015_Node000016" class="edge">
<title>Node15&#45;&gt;Node16</title>
<g id="a_edge17_Node000015_Node000016"><a xlink:title=" ">
<path fill="none" stroke="#63b8ff" d="M631.42,-54.75C639.28,-47.03 650.93,-35.6 660.42,-26.28"/>
<polygon fill="#63b8ff" stroke="#63b8ff" points="663.06,-28.59 667.75,-19.09 658.16,-23.6 663.06,-28.59"/>
</a>
</g>
</g>
</g>
</svg>
