<?xml version="1.0" encoding="UTF-8" standalone="no"?>
<!DOCTYPE svg PUBLIC "-//W3C//DTD SVG 1.1//EN"
 "http://www.w3.org/Graphics/SVG/1.1/DTD/svg11.dtd">
<!-- Generated by graphviz version 2.43.0 (0)
 -->
<!-- Title: ttg/ttg/parsec/device.h Pages: 1 -->
<svg width="179pt" height="203pt"
 viewBox="0.00 0.00 178.50 203.00" xmlns="http://www.w3.org/2000/svg" xmlns:xlink="http://www.w3.org/1999/xlink">
<g id="graph0" class="graph" transform="scale(1 1) rotate(0) translate(4 199)">
<title>ttg/ttg/parsec/device.h</title>
<!-- Node1 -->
<g id="Node000001" class="node">
<title>Node1</title>
<g id="a_Node000001"><a xlink:title=" ">
<polygon fill="#999999" stroke="#666666" points="170.5,-195 39.5,-195 39.5,-176 170.5,-176 170.5,-195"/>
<text text-anchor="middle" x="105" y="-183" font-family="Times,serif" font-size="10.00">ttg/ttg/parsec/device.h</text>
</a>
</g>
</g>
<!-- Node2 -->
<g id="Node000002" class="node">
<title>Node2</title>
<g id="a_Node000002"><a xlink:href="parsec_2buffer_8h.html" target="_top" xlink:title=" ">
<polygon fill="white" stroke="#666666" points="169,-140 41,-140 41,-121 169,-121 169,-140"/>
<text text-anchor="middle" x="105" y="-128" font-family="Times,serif" font-size="10.00">ttg/ttg/parsec/buffer.h</text>
</a>
</g>
</g>
<!-- Node1&#45;&gt;Node2 -->
<g id="edge1_Node000001_Node000002" class="edge">
<title>Node1&#45;&gt;Node2</title>
<g id="a_edge1_Node000001_Node000002"><a xlink:title=" ">
<path fill="none" stroke="#63b8ff" d="M105,-165.66C105,-156.93 105,-146.99 105,-140.09"/>
<polygon fill="#63b8ff" stroke="#63b8ff" points="101.5,-165.75 105,-175.75 108.5,-165.75 101.5,-165.75"/>
</a>
</g>
</g>
<!-- Node3 -->
<g id="Node000003" class="node">
<title>Node3</title>
<g id="a_Node000003"><a xlink:href="parsec__data_8h.html" target="_top" xlink:title=" ">
<polygon fill="white" stroke="#666666" points="122,-85 0,-85 0,-55 122,-55 122,-85"/>
<text text-anchor="start" x="8" y="-73" font-family="Times,serif" font-size="10.00">ttg/ttg/parsec/parsec</text>
<text text-anchor="middle" x="61" y="-62" font-family="Times,serif" font-size="10.00">_data.h</text>
</a>
</g>
</g>
<!-- Node2&#45;&gt;Node3 -->
<g id="edge2_Node000002_Node000003" class="edge">
<title>Node2&#45;&gt;Node3</title>
<g id="a_edge2_Node000002_Node000003"><a xlink:title=" ">
<path fill="none" stroke="#63b8ff" d="M92.29,-112.61C85.74,-103.89 77.84,-93.39 71.62,-85.11"/>
<polygon fill="#63b8ff" stroke="#63b8ff" points="89.7,-114.98 98.51,-120.87 95.29,-110.77 89.7,-114.98"/>
</a>
</g>
</g>
<!-- Node4 -->
<g id="Node000004" class="node">
<title>Node4</title>
<g id="a_Node000004"><a xlink:href="ttg_2parsec_2ttg_8h.html" target="_top" xlink:title=" ">
<polygon fill="white" stroke="#666666" points="161,-19 49,-19 49,0 161,0 161,-19"/>
<text text-anchor="middle" x="105" y="-7" font-family="Times,serif" font-size="10.00">ttg/ttg/parsec/ttg.h</text>
</a>
</g>
</g>
<!-- Node2&#45;&gt;Node4 -->
<g id="edge4_Node000002_Node000004" class="edge">
<title>Node2&#45;&gt;Node4</title>
<g id="a_edge4_Node000002_Node000004"><a xlink:title=" ">
<path fill="none" stroke="#63b8ff" d="M117.72,-112.61C122.93,-104.67 128.34,-94.81 131,-85 134.48,-72.13 134.48,-67.87 131,-55 127.31,-41.35 118.27,-27.6 111.89,-19.07"/>
<polygon fill="#63b8ff" stroke="#63b8ff" points="114.77,-110.73 111.89,-120.93 120.5,-114.75 114.77,-110.73"/>
</a>
</g>
</g>
<!-- Node3&#45;&gt;Node4 -->
<g id="edge3_Node000003_Node000004" class="edge">
<title>Node3&#45;&gt;Node4</title>
<g id="a_edge3_Node000003_Node000004"><a xlink:title=" ">
<path fill="none" stroke="#63b8ff" d="M77.7,-46.8C84.91,-37.21 92.94,-26.54 98.41,-19.27"/>
<polygon fill="#63b8ff" stroke="#63b8ff" points="74.87,-44.74 71.65,-54.84 80.46,-48.95 74.87,-44.74"/>
</a>
</g>
</g>
</g>
</svg>
