<?xml version="1.0" encoding="UTF-8" standalone="no"?>
<!DOCTYPE svg PUBLIC "-//W3C//DTD SVG 1.1//EN"
 "http://www.w3.org/Graphics/SVG/1.1/DTD/svg11.dtd">
<!-- Generated by graphviz version 2.43.0 (0)
 -->
<!-- Title: ttg/ttg/parsec/ttvalue.h Pages: 1 -->
<svg width="985pt" height="203pt"
 viewBox="0.00 0.00 984.50 203.00" xmlns="http://www.w3.org/2000/svg" xmlns:xlink="http://www.w3.org/1999/xlink">
<g id="graph0" class="graph" transform="scale(1 1) rotate(0) translate(4 199)">
<title>ttg/ttg/parsec/ttvalue.h</title>
<!-- Node1 -->
<g id="Node000001" class="node">
<title>Node1</title>
<g id="a_Node000001"><a xlink:title=" ">
<polygon fill="#999999" stroke="#666666" points="206,-195 73,-195 73,-176 206,-176 206,-195"/>
<text text-anchor="middle" x="139.5" y="-183" font-family="Times,serif" font-size="10.00">ttg/ttg/parsec/ttvalue.h</text>
</a>
</g>
</g>
<!-- Node2 -->
<g id="Node000002" class="node">
<title>Node2</title>
<g id="a_Node000002"><a xlink:title=" ">
<polygon fill="#e0e0e0" stroke="#999999" points="71,-19 0,-19 0,0 71,0 71,-19"/>
<text text-anchor="middle" x="35.5" y="-7" font-family="Times,serif" font-size="10.00">type_traits</text>
</a>
</g>
</g>
<!-- Node1&#45;&gt;Node2 -->
<g id="edge1_Node000001_Node000002" class="edge">
<title>Node1&#45;&gt;Node2</title>
<g id="a_edge1_Node000001_Node000002"><a xlink:title=" ">
<path fill="none" stroke="#63b8ff" d="M127.5,-175.82C105.41,-159.04 58.81,-119.77 39.5,-74 33.52,-59.83 32.86,-42.29 33.51,-29.24"/>
<polygon fill="#63b8ff" stroke="#63b8ff" points="37.01,-29.37 34.3,-19.12 30.03,-28.82 37.01,-29.37"/>
</a>
</g>
</g>
<!-- Node3 -->
<g id="Node000003" class="node">
<title>Node3</title>
<g id="a_Node000003"><a xlink:href="ttg__data__copy_8h.html" target="_top" xlink:title=" ">
<polygon fill="white" stroke="#666666" points="339,-140 226,-140 226,-110 339,-110 339,-140"/>
<text text-anchor="start" x="234" y="-128" font-family="Times,serif" font-size="10.00">ttg/parsec/ttg_data</text>
<text text-anchor="middle" x="282.5" y="-117" font-family="Times,serif" font-size="10.00">_copy.h</text>
</a>
</g>
</g>
<!-- Node1&#45;&gt;Node3 -->
<g id="edge2_Node000001_Node000003" class="edge">
<title>Node1&#45;&gt;Node3</title>
<g id="a_edge2_Node000001_Node000003"><a xlink:title=" ">
<path fill="none" stroke="#63b8ff" d="M160.29,-175.99C180.78,-167.61 212.72,-154.55 238.81,-143.87"/>
<polygon fill="#63b8ff" stroke="#63b8ff" points="240.19,-147.09 248.12,-140.06 237.54,-140.61 240.19,-147.09"/>
</a>
</g>
</g>
<!-- Node3&#45;&gt;Node2 -->
<g id="edge8_Node000003_Node000002" class="edge">
<title>Node3&#45;&gt;Node2</title>
<g id="a_edge8_Node000003_Node000002"><a xlink:title=" ">
<path fill="none" stroke="#63b8ff" d="M225.84,-118.16C166.64,-110.94 79.01,-96.74 54.5,-74 42.25,-62.64 37.79,-43.74 36.21,-29.51"/>
<polygon fill="#63b8ff" stroke="#63b8ff" points="39.69,-29.05 35.48,-19.33 32.71,-29.55 39.69,-29.05"/>
</a>
</g>
</g>
<!-- Node4 -->
<g id="Node000004" class="node">
<title>Node4</title>
<g id="a_Node000004"><a xlink:title=" ">
<polygon fill="#e0e0e0" stroke="#999999" points="109.5,-74 63.5,-74 63.5,-55 109.5,-55 109.5,-74"/>
<text text-anchor="middle" x="86.5" y="-62" font-family="Times,serif" font-size="10.00">utility</text>
</a>
</g>
</g>
<!-- Node3&#45;&gt;Node4 -->
<g id="edge3_Node000003_Node000004" class="edge">
<title>Node3&#45;&gt;Node4</title>
<g id="a_edge3_Node000003_Node000004"><a xlink:title=" ">
<path fill="none" stroke="#63b8ff" d="M235.55,-109.99C199.68,-99.28 151.15,-84.8 119.35,-75.31"/>
<polygon fill="#63b8ff" stroke="#63b8ff" points="120.24,-71.92 109.65,-72.41 118.24,-78.62 120.24,-71.92"/>
</a>
</g>
</g>
<!-- Node5 -->
<g id="Node000005" class="node">
<title>Node5</title>
<g id="a_Node000005"><a xlink:title=" ">
<polygon fill="#e0e0e0" stroke="#999999" points="171.5,-74 127.5,-74 127.5,-55 171.5,-55 171.5,-74"/>
<text text-anchor="middle" x="149.5" y="-62" font-family="Times,serif" font-size="10.00">limits</text>
</a>
</g>
</g>
<!-- Node3&#45;&gt;Node5 -->
<g id="edge4_Node000003_Node000005" class="edge">
<title>Node3&#45;&gt;Node5</title>
<g id="a_edge4_Node000003_Node000005"><a xlink:title=" ">
<path fill="none" stroke="#63b8ff" d="M250.64,-109.99C228.65,-100.31 199.65,-87.56 178.34,-78.18"/>
<polygon fill="#63b8ff" stroke="#63b8ff" points="179.7,-74.96 169.14,-74.14 176.89,-81.37 179.7,-74.96"/>
</a>
</g>
</g>
<!-- Node6 -->
<g id="Node000006" class="node">
<title>Node6</title>
<g id="a_Node000006"><a xlink:title=" ">
<polygon fill="#e0e0e0" stroke="#999999" points="237.5,-74 189.5,-74 189.5,-55 237.5,-55 237.5,-74"/>
<text text-anchor="middle" x="213.5" y="-62" font-family="Times,serif" font-size="10.00">vector</text>
</a>
</g>
</g>
<!-- Node3&#45;&gt;Node6 -->
<g id="edge5_Node000003_Node000006" class="edge">
<title>Node3&#45;&gt;Node6</title>
<g id="a_edge5_Node000003_Node000006"><a xlink:title=" ">
<path fill="none" stroke="#63b8ff" d="M265.8,-109.84C255.47,-101.09 242.22,-89.85 231.64,-80.88"/>
<polygon fill="#63b8ff" stroke="#63b8ff" points="233.73,-78.06 223.84,-74.27 229.2,-83.4 233.73,-78.06"/>
</a>
</g>
</g>
<!-- Node7 -->
<g id="Node000007" class="node">
<title>Node7</title>
<g id="a_Node000007"><a xlink:title=" ">
<polygon fill="#e0e0e0" stroke="#999999" points="309.5,-74 255.5,-74 255.5,-55 309.5,-55 309.5,-74"/>
<text text-anchor="middle" x="282.5" y="-62" font-family="Times,serif" font-size="10.00">iterator</text>
</a>
</g>
</g>
<!-- Node3&#45;&gt;Node7 -->
<g id="edge6_Node000003_Node000007" class="edge">
<title>Node3&#45;&gt;Node7</title>
<g id="a_edge6_Node000003_Node000007"><a xlink:title=" ">
<path fill="none" stroke="#63b8ff" d="M282.5,-109.84C282.5,-102.21 282.5,-92.7 282.5,-84.45"/>
<polygon fill="#63b8ff" stroke="#63b8ff" points="286,-84.27 282.5,-74.27 279,-84.27 286,-84.27"/>
</a>
</g>
</g>
<!-- Node8 -->
<g id="Node000008" class="node">
<title>Node8</title>
<g id="a_Node000008"><a xlink:title=" ">
<polygon fill="#e0e0e0" stroke="#999999" points="377.5,-74 327.5,-74 327.5,-55 377.5,-55 377.5,-74"/>
<text text-anchor="middle" x="352.5" y="-62" font-family="Times,serif" font-size="10.00">atomic</text>
</a>
</g>
</g>
<!-- Node3&#45;&gt;Node8 -->
<g id="edge7_Node000003_Node000008" class="edge">
<title>Node3&#45;&gt;Node8</title>
<g id="a_edge7_Node000003_Node000008"><a xlink:title=" ">
<path fill="none" stroke="#63b8ff" d="M299.45,-109.84C309.92,-101.09 323.36,-89.85 334.09,-80.88"/>
<polygon fill="#63b8ff" stroke="#63b8ff" points="336.58,-83.36 342.01,-74.27 332.09,-77.99 336.58,-83.36"/>
</a>
</g>
</g>
<!-- Node9 -->
<g id="Node000009" class="node">
<title>Node9</title>
<g id="a_Node000009"><a xlink:title=" ">
<polygon fill="#e0e0e0" stroke="#999999" points="455.5,-74 395.5,-74 395.5,-55 455.5,-55 455.5,-74"/>
<text text-anchor="middle" x="425.5" y="-62" font-family="Times,serif" font-size="10.00">parsec.h</text>
</a>
</g>
</g>
<!-- Node3&#45;&gt;Node9 -->
<g id="edge9_Node000003_Node000009" class="edge">
<title>Node3&#45;&gt;Node9</title>
<g id="a_edge9_Node000003_Node000009"><a xlink:title=" ">
<path fill="none" stroke="#63b8ff" d="M316.75,-109.99C340.61,-100.23 372.15,-87.33 395.11,-77.93"/>
<polygon fill="#63b8ff" stroke="#63b8ff" points="396.45,-81.17 404.38,-74.14 393.8,-74.69 396.45,-81.17"/>
</a>
</g>
</g>
<!-- Node10 -->
<g id="Node000010" class="node">
<title>Node10</title>
<g id="a_Node000010"><a xlink:href="thread__local_8h.html" target="_top" xlink:title=" ">
<polygon fill="white" stroke="#666666" points="617,-74 474,-74 474,-55 617,-55 617,-74"/>
<text text-anchor="middle" x="545.5" y="-62" font-family="Times,serif" font-size="10.00">ttg/parsec/thread_local.h</text>
</a>
</g>
</g>
<!-- Node3&#45;&gt;Node10 -->
<g id="edge10_Node000003_Node000010" class="edge">
<title>Node3&#45;&gt;Node10</title>
<g id="a_edge10_Node000003_Node000010"><a xlink:title=" ">
<path fill="none" stroke="#63b8ff" d="M339.24,-111.38C386.31,-100.91 452.52,-86.18 497.12,-76.26"/>
<polygon fill="#63b8ff" stroke="#63b8ff" points="498.12,-79.62 507.13,-74.04 496.6,-72.79 498.12,-79.62"/>
</a>
</g>
</g>
<!-- Node11 -->
<g id="Node000011" class="node">
<title>Node11</title>
<g id="a_Node000011"><a xlink:href="parsec-ext_8h.html" target="_top" xlink:title=" ">
<polygon fill="white" stroke="#666666" points="769.5,-74 635.5,-74 635.5,-55 769.5,-55 769.5,-74"/>
<text text-anchor="middle" x="702.5" y="-62" font-family="Times,serif" font-size="10.00">ttg/parsec/parsec&#45;ext.h</text>
</a>
</g>
</g>
<!-- Node3&#45;&gt;Node11 -->
<g id="edge11_Node000003_Node000011" class="edge">
<title>Node3&#45;&gt;Node11</title>
<g id="a_edge11_Node000003_Node000011"><a xlink:title=" ">
<path fill="none" stroke="#63b8ff" d="M339.14,-116.11C414.8,-105.57 548.86,-86.9 631.28,-75.42"/>
<polygon fill="#63b8ff" stroke="#63b8ff" points="631.89,-78.87 641.32,-74.02 630.93,-71.94 631.89,-78.87"/>
</a>
</g>
</g>
<!-- Node12 -->
<g id="Node000012" class="node">
<title>Node12</title>
<g id="a_Node000012"><a xlink:href="span_8h.html" target="_top" xlink:title=" ">
<polygon fill="white" stroke="#666666" points="875.5,-74 787.5,-74 787.5,-55 875.5,-55 875.5,-74"/>
<text text-anchor="middle" x="831.5" y="-62" font-family="Times,serif" font-size="10.00">ttg/util/span.h</text>
</a>
</g>
</g>
<!-- Node3&#45;&gt;Node12 -->
<g id="edge12_Node000003_Node000012" class="edge">
<title>Node3&#45;&gt;Node12</title>
<g id="a_edge12_Node000003_Node000012"><a xlink:title=" ">
<path fill="none" stroke="#63b8ff" d="M339.16,-119.38C429.51,-111.76 612.05,-95.4 776.95,-74.13"/>
<polygon fill="#63b8ff" stroke="#63b8ff" points="777.82,-77.55 787.28,-72.79 776.91,-70.61 777.82,-77.55"/>
</a>
</g>
</g>
<!-- Node12&#45;&gt;Node2 -->
<g id="edge16_Node000012_Node000002" class="edge">
<title>Node12&#45;&gt;Node2</title>
<g id="a_edge16_Node000012_Node000002"><a xlink:title=" ">
<path fill="none" stroke="#63b8ff" d="M787.3,-56.07C784.32,-55.68 781.37,-55.32 778.5,-55 515.67,-26.13 198.33,-14.98 81.52,-11.67"/>
<polygon fill="#63b8ff" stroke="#63b8ff" points="81.27,-8.16 71.18,-11.38 81.08,-15.16 81.27,-8.16"/>
</a>
</g>
</g>
<!-- Node13 -->
<g id="Node000013" class="node">
<title>Node13</title>
<g id="a_Node000013"><a xlink:title=" ">
<polygon fill="#e0e0e0" stroke="#999999" points="750.5,-19 706.5,-19 706.5,0 750.5,0 750.5,-19"/>
<text text-anchor="middle" x="728.5" y="-7" font-family="Times,serif" font-size="10.00">array</text>
</a>
</g>
</g>
<!-- Node12&#45;&gt;Node13 -->
<g id="edge13_Node000012_Node000013" class="edge">
<title>Node12&#45;&gt;Node13</title>
<g id="a_edge13_Node000012_Node000013"><a xlink:title=" ">
<path fill="none" stroke="#63b8ff" d="M814.95,-54.98C798.61,-46.57 773.37,-33.59 754.37,-23.81"/>
<polygon fill="#63b8ff" stroke="#63b8ff" points="755.84,-20.63 745.35,-19.17 752.64,-26.86 755.84,-20.63"/>
</a>
</g>
</g>
<!-- Node14 -->
<g id="Node000014" class="node">
<title>Node14</title>
<g id="a_Node000014"><a xlink:title=" ">
<polygon fill="#e0e0e0" stroke="#999999" points="822.5,-19 768.5,-19 768.5,0 822.5,0 822.5,-19"/>
<text text-anchor="middle" x="795.5" y="-7" font-family="Times,serif" font-size="10.00">cstddef</text>
</a>
</g>
</g>
<!-- Node12&#45;&gt;Node14 -->
<g id="edge14_Node000012_Node000014" class="edge">
<title>Node12&#45;&gt;Node14</title>
<g id="a_edge14_Node000012_Node000014"><a xlink:title=" ">
<path fill="none" stroke="#63b8ff" d="M825.56,-54.75C820.52,-47.34 813.16,-36.5 806.99,-27.41"/>
<polygon fill="#63b8ff" stroke="#63b8ff" points="809.85,-25.39 801.33,-19.09 804.06,-29.33 809.85,-25.39"/>
</a>
</g>
</g>
<!-- Node15 -->
<g id="Node000015" class="node">
<title>Node15</title>
<g id="a_Node000015"><a xlink:title=" ">
<polygon fill="#e0e0e0" stroke="#999999" points="892,-19 841,-19 841,0 892,0 892,-19"/>
<text text-anchor="middle" x="866.5" y="-7" font-family="Times,serif" font-size="10.00">cstdint</text>
</a>
</g>
</g>
<!-- Node12&#45;&gt;Node15 -->
<g id="edge15_Node000012_Node000015" class="edge">
<title>Node12&#45;&gt;Node15</title>
<g id="a_edge15_Node000012_Node000015"><a xlink:title=" ">
<path fill="none" stroke="#63b8ff" d="M837.28,-54.75C842.12,-47.42 849.18,-36.73 855.14,-27.7"/>
<polygon fill="#63b8ff" stroke="#63b8ff" points="858.24,-29.36 860.83,-19.09 852.4,-25.5 858.24,-29.36"/>
</a>
</g>
</g>
<!-- Node16 -->
<g id="Node000016" class="node">
<title>Node16</title>
<g id="a_Node000016"><a xlink:title=" ">
<polygon fill="#e0e0e0" stroke="#999999" points="976.5,-19 910.5,-19 910.5,0 976.5,0 976.5,-19"/>
<text text-anchor="middle" x="943.5" y="-7" font-family="Times,serif" font-size="10.00">exception</text>
</a>
</g>
</g>
<!-- Node12&#45;&gt;Node16 -->
<g id="edge17_Node000012_Node000016" class="edge">
<title>Node12&#45;&gt;Node16</title>
<g id="a_edge17_Node000012_Node000016"><a xlink:title=" ">
<path fill="none" stroke="#63b8ff" d="M849.49,-54.98C867.43,-46.5 895.22,-33.35 915.93,-23.54"/>
<polygon fill="#63b8ff" stroke="#63b8ff" points="917.64,-26.61 925.18,-19.17 914.64,-20.28 917.64,-26.61"/>
</a>
</g>
</g>
</g>
</svg>
