<?xml version="1.0" encoding="UTF-8" standalone="no"?>
<!DOCTYPE svg PUBLIC "-//W3C//DTD SVG 1.1//EN"
 "http://www.w3.org/Graphics/SVG/1.1/DTD/svg11.dtd">
<!-- Generated by graphviz version 2.43.0 (0)
 -->
<!-- Title: ttg/ttg/parsec/ptr.h Pages: 1 -->
<!--zoomable 258 -->

<svg id="main" version="1.1" xmlns="http://www.w3.org/2000/svg" xmlns:xlink="http://www.w3.org/1999/xlink" xml:space="preserve" onload="init(evt)">
<style type="text/css"><![CDATA[
.node, .edge {opacity: 0.7;}
.node.selected, .edge.selected {opacity: 1;}
.edge:hover path { stroke: red; }
.edge:hover polygon { stroke: red; fill: red; }
]]></style>

<defs>
  <circle id="rim" cx="0" cy="0" r="7"/>
  <circle id="rim2" cx="0" cy="0" r="3.5"/>
  <g id="zoomPlus">
    <use xlink:href="#rim" fill="#404040"><set attributeName="fill" to="#808080" begin="zoomplus.mouseover" end="zoomplus.mouseout"/></use>
    <path d="M-4,0h8M0,-4v8" fill="none" stroke="white" stroke-width="1.5" pointer-events="none"/>
  </g>
  <g id="zoomMin">
    <use xlink:href="#rim" fill="#404040"><set attributeName="fill" to="#808080" begin="zoomminus.mouseover" end="zoomminus.mouseout"/></use>
    <path d="M-4,0h8" fill="none" stroke="white" stroke-width="1.5" pointer-events="none"/>
  </g>
  <g id="arrowUp" transform="translate(30 24)">
    <use xlink:href="#rim"/>
    <path pointer-events="none" fill="none" stroke="white" stroke-width="1.5" d="M0,-3.0v7 M-2.5,-0.5L0,-3.0L2.5,-0.5"/>
  </g>
  <g id="arrowRight" transform="rotate(90) translate(36 -43)">
    <use xlink:href="#rim"/>
    <path pointer-events="none" fill="none" stroke="white" stroke-width="1.5" d="M0,-3.0v7 M-2.5,-0.5L0,-3.0L2.5,-0.5"/>
  </g>
  <g id="arrowDown" transform="rotate(180) translate(-30 -48)">
    <use xlink:href="#rim"/>
    <path pointer-events="none" fill="none" stroke="white" stroke-width="1.5" d="M0,-3.0v7 M-2.5,-0.5L0,-3.0L2.5,-0.5"/>
  </g>
  <g id="arrowLeft" transform="rotate(270) translate(-36 17)">
    <use xlink:href="#rim"/>
    <path pointer-events="none" fill="none" stroke="white" stroke-width="1.5" d="M0,-3.0v7 M-2.5,-0.5L0,-3.0L2.5,-0.5"/>
  </g>
  <g id="resetDef">
    <use xlink:href="#rim2" fill="#404040"><set attributeName="fill" to="#808080" begin="reset.mouseover" end="reset.mouseout"/></use>
  </g>
</defs>
<script type="application/ecmascript">
var viewWidth = 858;
var viewHeight = 258;
var sectionId = 'dynsection-0';
</script>
<script type="application/ecmascript" xlink:href="svg.min.js"/>
<svg id="graph" class="graph">
<g id="viewport">
<title>ttg/ttg/parsec/ptr.h</title>
<!-- Node1 -->
<g id="Node000001" class="node">
<title>Node1</title>
<g id="a_Node000001"><a xlink:title=" ">
<polygon fill="#999999" stroke="#666666" points="532,-250 420,-250 420,-231 532,-231 532,-250"/>
<text text-anchor="middle" x="476" y="-238" font-family="Times,serif" font-size="10.00">ttg/ttg/parsec/ptr.h</text>
</a>
</g>
</g>
<!-- Node2 -->
<g id="Node000002" class="node">
<title>Node2</title>
<g id="a_Node000002"><a xlink:title=" ">
<polygon fill="#e0e0e0" stroke="#999999" points="380,-195 282,-195 282,-176 380,-176 380,-195"/>
<text text-anchor="middle" x="331" y="-183" font-family="Times,serif" font-size="10.00">unordered_map</text>
</a>
</g>
</g>
<!-- Node1&#45;&gt;Node2 -->
<g id="edge1_Node000001_Node000002" class="edge">
<title>Node1&#45;&gt;Node2</title>
<g id="a_edge1_Node000001_Node000002"><a xlink:title=" ">
<path fill="none" stroke="#63b8ff" d="M452.7,-230.98C428.75,-222.23 391.22,-208.51 364.17,-198.62"/>
<polygon fill="#63b8ff" stroke="#63b8ff" points="365.31,-195.32 354.72,-195.17 362.91,-201.89 365.31,-195.32"/>
</a>
</g>
</g>
<!-- Node3 -->
<g id="Node000003" class="node">
<title>Node3</title>
<g id="a_Node000003"><a xlink:title=" ">
<polygon fill="#e0e0e0" stroke="#999999" points="447.5,-195 398.5,-195 398.5,-176 447.5,-176 447.5,-195"/>
<text text-anchor="middle" x="423" y="-183" font-family="Times,serif" font-size="10.00">mutex</text>
</a>
</g>
</g>
<!-- Node1&#45;&gt;Node3 -->
<g id="edge2_Node000001_Node000003" class="edge">
<title>Node1&#45;&gt;Node3</title>
<g id="a_edge2_Node000001_Node000003"><a xlink:title=" ">
<path fill="none" stroke="#63b8ff" d="M467.25,-230.75C459.53,-223.03 448.1,-211.6 438.78,-202.28"/>
<polygon fill="#63b8ff" stroke="#63b8ff" points="441.14,-199.69 431.59,-195.09 436.19,-204.64 441.14,-199.69"/>
</a>
</g>
</g>
<!-- Node4 -->
<g id="Node000004" class="node">
<title>Node4</title>
<g id="a_Node000004"><a xlink:href="ttg__data__copy_8h.html" target="_top" xlink:title=" ">
<polygon fill="white" stroke="#666666" points="485.5,-140 372.5,-140 372.5,-110 485.5,-110 485.5,-140"/>
<text text-anchor="start" x="380.5" y="-128" font-family="Times,serif" font-size="10.00">ttg/parsec/ttg_data</text>
<text text-anchor="middle" x="429" y="-117" font-family="Times,serif" font-size="10.00">_copy.h</text>
</a>
</g>
</g>
<!-- Node1&#45;&gt;Node4 -->
<g id="edge3_Node000001_Node000004" class="edge">
<title>Node1&#45;&gt;Node4</title>
<g id="a_edge3_Node000001_Node000004"><a xlink:title=" ">
<path fill="none" stroke="#63b8ff" d="M473.79,-230.68C470.55,-218.25 464.01,-194.95 456,-176 452.15,-166.89 447.17,-157.25 442.54,-148.88"/>
<polygon fill="#63b8ff" stroke="#63b8ff" points="445.52,-147.05 437.54,-140.08 439.44,-150.51 445.52,-147.05"/>
</a>
</g>
</g>
<!-- Node12 -->
<g id="Node000012" class="node">
<title>Node12</title>
<g id="a_Node000012"><a xlink:href="thread__local_8h.html" target="_top" xlink:title=" ">
<polygon fill="white" stroke="#666666" points="849.5,-74 706.5,-74 706.5,-55 849.5,-55 849.5,-74"/>
<text text-anchor="middle" x="778" y="-62" font-family="Times,serif" font-size="10.00">ttg/parsec/thread_local.h</text>
</a>
</g>
</g>
<!-- Node1&#45;&gt;Node12 -->
<g id="edge19_Node000001_Node000012" class="edge">
<title>Node1&#45;&gt;Node12</title>
<g id="a_edge19_Node000001_Node000012"><a xlink:title=" ">
<path fill="none" stroke="#63b8ff" d="M477.03,-230.89C480.33,-207.36 492.89,-141.64 533,-110 546.4,-99.43 636.47,-84.97 703.54,-75.44"/>
<polygon fill="#63b8ff" stroke="#63b8ff" points="704.26,-78.87 713.67,-74.01 703.28,-71.94 704.26,-78.87"/>
</a>
</g>
</g>
<!-- Node19 -->
<g id="Node000019" class="node">
<title>Node19</title>
<g id="a_Node000019"><a xlink:href="parsec_2task_8h.html" target="_top" xlink:title=" ">
<polygon fill="white" stroke="#666666" points="653.5,-195 552.5,-195 552.5,-176 653.5,-176 653.5,-195"/>
<text text-anchor="middle" x="603" y="-183" font-family="Times,serif" font-size="10.00">ttg/parsec/task.h</text>
</a>
</g>
</g>
<!-- Node1&#45;&gt;Node19 -->
<g id="edge20_Node000001_Node000019" class="edge">
<title>Node1&#45;&gt;Node19</title>
<g id="a_edge20_Node000001_Node000019"><a xlink:title=" ">
<path fill="none" stroke="#63b8ff" d="M496.4,-230.98C517.02,-222.38 549.11,-208.99 572.69,-199.15"/>
<polygon fill="#63b8ff" stroke="#63b8ff" points="574.34,-202.25 582.22,-195.17 571.65,-195.79 574.34,-202.25"/>
</a>
</g>
</g>
<!-- Node5 -->
<g id="Node000005" class="node">
<title>Node5</title>
<g id="a_Node000005"><a xlink:title=" ">
<polygon fill="#e0e0e0" stroke="#999999" points="560,-74 514,-74 514,-55 560,-55 560,-74"/>
<text text-anchor="middle" x="537" y="-62" font-family="Times,serif" font-size="10.00">utility</text>
</a>
</g>
</g>
<!-- Node4&#45;&gt;Node5 -->
<g id="edge4_Node000004_Node000005" class="edge">
<title>Node4&#45;&gt;Node5</title>
<g id="a_edge4_Node000004_Node000005"><a xlink:title=" ">
<path fill="none" stroke="#63b8ff" d="M454.87,-109.99C472.24,-100.58 495.01,-88.24 512.17,-78.95"/>
<polygon fill="#63b8ff" stroke="#63b8ff" points="513.92,-81.98 521.05,-74.14 510.59,-75.82 513.92,-81.98"/>
</a>
</g>
</g>
<!-- Node6 -->
<g id="Node000006" class="node">
<title>Node6</title>
<g id="a_Node000006"><a xlink:title=" ">
<polygon fill="#e0e0e0" stroke="#999999" points="622,-74 578,-74 578,-55 622,-55 622,-74"/>
<text text-anchor="middle" x="600" y="-62" font-family="Times,serif" font-size="10.00">limits</text>
</a>
</g>
</g>
<!-- Node4&#45;&gt;Node6 -->
<g id="edge5_Node000004_Node000006" class="edge">
<title>Node4&#45;&gt;Node6</title>
<g id="a_edge5_Node000004_Node000006"><a xlink:title=" ">
<path fill="none" stroke="#63b8ff" d="M469.96,-109.99C500.05,-99.69 540.37,-85.9 568.09,-76.42"/>
<polygon fill="#63b8ff" stroke="#63b8ff" points="569.36,-79.68 577.69,-73.13 567.09,-73.06 569.36,-79.68"/>
</a>
</g>
</g>
<!-- Node7 -->
<g id="Node000007" class="node">
<title>Node7</title>
<g id="a_Node000007"><a xlink:title=" ">
<polygon fill="#e0e0e0" stroke="#999999" points="688,-74 640,-74 640,-55 688,-55 688,-74"/>
<text text-anchor="middle" x="664" y="-62" font-family="Times,serif" font-size="10.00">vector</text>
</a>
</g>
</g>
<!-- Node4&#45;&gt;Node7 -->
<g id="edge6_Node000004_Node000007" class="edge">
<title>Node4&#45;&gt;Node7</title>
<g id="a_edge6_Node000004_Node000007"><a xlink:title=" ">
<path fill="none" stroke="#63b8ff" d="M485.63,-110.13C523.85,-100.74 575.69,-87.93 630.04,-74.23"/>
<polygon fill="#63b8ff" stroke="#63b8ff" points="631.02,-77.59 639.86,-71.75 629.3,-70.8 631.02,-77.59"/>
</a>
</g>
</g>
<!-- Node8 -->
<g id="Node000008" class="node">
<title>Node8</title>
<g id="a_Node000008"><a xlink:title=" ">
<polygon fill="#e0e0e0" stroke="#999999" points="54,-74 0,-74 0,-55 54,-55 54,-74"/>
<text text-anchor="middle" x="27" y="-62" font-family="Times,serif" font-size="10.00">iterator</text>
</a>
</g>
</g>
<!-- Node4&#45;&gt;Node8 -->
<g id="edge7_Node000004_Node000008" class="edge">
<title>Node4&#45;&gt;Node8</title>
<g id="a_edge7_Node000004_Node000008"><a xlink:title=" ">
<path fill="none" stroke="#63b8ff" d="M372.3,-117.97C302.18,-110.12 178.99,-95.1 64.09,-74.04"/>
<polygon fill="#63b8ff" stroke="#63b8ff" points="64.54,-70.57 54.07,-72.19 63.26,-77.45 64.54,-70.57"/>
</a>
</g>
</g>
<!-- Node9 -->
<g id="Node000009" class="node">
<title>Node9</title>
<g id="a_Node000009"><a xlink:title=" ">
<polygon fill="#e0e0e0" stroke="#999999" points="122,-74 72,-74 72,-55 122,-55 122,-74"/>
<text text-anchor="middle" x="97" y="-62" font-family="Times,serif" font-size="10.00">atomic</text>
</a>
</g>
</g>
<!-- Node4&#45;&gt;Node9 -->
<g id="edge8_Node000004_Node000009" class="edge">
<title>Node4&#45;&gt;Node9</title>
<g id="a_edge8_Node000004_Node000009"><a xlink:title=" ">
<path fill="none" stroke="#63b8ff" d="M372.42,-115.13C313.3,-105.68 217.94,-89.91 136,-74 134.74,-73.75 133.45,-73.5 132.16,-73.24"/>
<polygon fill="#63b8ff" stroke="#63b8ff" points="132.64,-69.77 122.14,-71.16 131.22,-76.62 132.64,-69.77"/>
</a>
</g>
</g>
<!-- Node10 -->
<g id="Node000010" class="node">
<title>Node10</title>
<g id="a_Node000010"><a xlink:title=" ">
<polygon fill="#e0e0e0" stroke="#999999" points="133.5,-19 62.5,-19 62.5,0 133.5,0 133.5,-19"/>
<text text-anchor="middle" x="98" y="-7" font-family="Times,serif" font-size="10.00">type_traits</text>
</a>
</g>
</g>
<!-- Node4&#45;&gt;Node10 -->
<g id="edge9_Node000004_Node000010" class="edge">
<title>Node4&#45;&gt;Node10</title>
<g id="a_edge9_Node000004_Node000010"><a xlink:title=" ">
<path fill="none" stroke="#63b8ff" d="M372.48,-121.8C317.87,-117.72 234.08,-106.23 169,-74 145.96,-62.59 124.71,-41.61 111.59,-26.9"/>
<polygon fill="#63b8ff" stroke="#63b8ff" points="114.02,-24.37 104.84,-19.08 108.72,-28.94 114.02,-24.37"/>
</a>
</g>
</g>
<!-- Node11 -->
<g id="Node000011" class="node">
<title>Node11</title>
<g id="a_Node000011"><a xlink:title=" ">
<polygon fill="#e0e0e0" stroke="#999999" points="344,-74 284,-74 284,-55 344,-55 344,-74"/>
<text text-anchor="middle" x="314" y="-62" font-family="Times,serif" font-size="10.00">parsec.h</text>
</a>
</g>
</g>
<!-- Node4&#45;&gt;Node11 -->
<g id="edge10_Node000004_Node000011" class="edge">
<title>Node4&#45;&gt;Node11</title>
<g id="a_edge10_Node000004_Node000011"><a xlink:title=" ">
<path fill="none" stroke="#63b8ff" d="M401.45,-109.99C382.78,-100.49 358.26,-88.02 339.94,-78.69"/>
<polygon fill="#63b8ff" stroke="#63b8ff" points="341.48,-75.55 330.98,-74.14 338.31,-81.79 341.48,-75.55"/>
</a>
</g>
</g>
<!-- Node4&#45;&gt;Node12 -->
<g id="edge11_Node000004_Node000012" class="edge">
<title>Node4&#45;&gt;Node12</title>
<g id="a_edge11_Node000004_Node000012"><a xlink:title=" ">
<path fill="none" stroke="#63b8ff" d="M485.55,-112.66C490.43,-111.74 495.3,-110.84 500,-110 571.8,-97.18 654.34,-84.19 710.72,-75.58"/>
<polygon fill="#63b8ff" stroke="#63b8ff" points="711.57,-78.99 720.93,-74.02 710.52,-72.07 711.57,-78.99"/>
</a>
</g>
</g>
<!-- Node13 -->
<g id="Node000013" class="node">
<title>Node13</title>
<g id="a_Node000013"><a xlink:href="parsec-ext_8h.html" target="_top" xlink:title=" ">
<polygon fill="white" stroke="#666666" points="496,-74 362,-74 362,-55 496,-55 496,-74"/>
<text text-anchor="middle" x="429" y="-62" font-family="Times,serif" font-size="10.00">ttg/parsec/parsec&#45;ext.h</text>
</a>
</g>
</g>
<!-- Node4&#45;&gt;Node13 -->
<g id="edge12_Node000004_Node000013" class="edge">
<title>Node4&#45;&gt;Node13</title>
<g id="a_edge12_Node000004_Node000013"><a xlink:title=" ">
<path fill="none" stroke="#63b8ff" d="M429,-109.84C429,-102.21 429,-92.7 429,-84.45"/>
<polygon fill="#63b8ff" stroke="#63b8ff" points="432.5,-84.27 429,-74.27 425.5,-84.27 432.5,-84.27"/>
</a>
</g>
</g>
<!-- Node14 -->
<g id="Node000014" class="node">
<title>Node14</title>
<g id="a_Node000014"><a xlink:href="span_8h.html" target="_top" xlink:title=" ">
<polygon fill="white" stroke="#666666" points="266,-74 178,-74 178,-55 266,-55 266,-74"/>
<text text-anchor="middle" x="222" y="-62" font-family="Times,serif" font-size="10.00">ttg/util/span.h</text>
</a>
</g>
</g>
<!-- Node4&#45;&gt;Node14 -->
<g id="edge13_Node000004_Node000014" class="edge">
<title>Node4&#45;&gt;Node14</title>
<g id="a_edge13_Node000004_Node000014"><a xlink:title=" ">
<path fill="none" stroke="#63b8ff" d="M379.42,-109.99C343.54,-99.85 295.67,-86.32 262.17,-76.85"/>
<polygon fill="#63b8ff" stroke="#63b8ff" points="262.84,-73.41 252.27,-74.05 260.94,-80.14 262.84,-73.41"/>
</a>
</g>
</g>
<!-- Node14&#45;&gt;Node10 -->
<g id="edge17_Node000014_Node000010" class="edge">
<title>Node14&#45;&gt;Node10</title>
<g id="a_edge17_Node000014_Node000010"><a xlink:title=" ">
<path fill="none" stroke="#63b8ff" d="M202.08,-54.98C181.95,-46.38 150.62,-32.99 127.59,-23.15"/>
<polygon fill="#63b8ff" stroke="#63b8ff" points="128.86,-19.88 118.29,-19.17 126.1,-26.32 128.86,-19.88"/>
</a>
</g>
</g>
<!-- Node15 -->
<g id="Node000015" class="node">
<title>Node15</title>
<g id="a_Node000015"><a xlink:title=" ">
<polygon fill="#e0e0e0" stroke="#999999" points="280,-19 236,-19 236,0 280,0 280,-19"/>
<text text-anchor="middle" x="258" y="-7" font-family="Times,serif" font-size="10.00">array</text>
</a>
</g>
</g>
<!-- Node14&#45;&gt;Node15 -->
<g id="edge14_Node000014_Node000015" class="edge">
<title>Node14&#45;&gt;Node15</title>
<g id="a_edge14_Node000014_Node000015"><a xlink:title=" ">
<path fill="none" stroke="#63b8ff" d="M227.94,-54.75C232.98,-47.34 240.34,-36.5 246.51,-27.41"/>
<polygon fill="#63b8ff" stroke="#63b8ff" points="249.44,-29.33 252.17,-19.09 243.65,-25.39 249.44,-29.33"/>
</a>
</g>
</g>
<!-- Node16 -->
<g id="Node000016" class="node">
<title>Node16</title>
<g id="a_Node000016"><a xlink:title=" ">
<polygon fill="#e0e0e0" stroke="#999999" points="352,-19 298,-19 298,0 352,0 352,-19"/>
<text text-anchor="middle" x="325" y="-7" font-family="Times,serif" font-size="10.00">cstddef</text>
</a>
</g>
</g>
<!-- Node14&#45;&gt;Node16 -->
<g id="edge15_Node000014_Node000016" class="edge">
<title>Node14&#45;&gt;Node16</title>
<g id="a_edge15_Node000014_Node000016"><a xlink:title=" ">
<path fill="none" stroke="#63b8ff" d="M238.55,-54.98C254.89,-46.57 280.13,-33.59 299.13,-23.81"/>
<polygon fill="#63b8ff" stroke="#63b8ff" points="300.86,-26.86 308.15,-19.17 297.66,-20.63 300.86,-26.86"/>
</a>
</g>
</g>
<!-- Node17 -->
<g id="Node000017" class="node">
<title>Node17</title>
<g id="a_Node000017"><a xlink:title=" ">
<polygon fill="#e0e0e0" stroke="#999999" points="421.5,-19 370.5,-19 370.5,0 421.5,0 421.5,-19"/>
<text text-anchor="middle" x="396" y="-7" font-family="Times,serif" font-size="10.00">cstdint</text>
</a>
</g>
</g>
<!-- Node14&#45;&gt;Node17 -->
<g id="edge16_Node000014_Node000017" class="edge">
<title>Node14&#45;&gt;Node17</title>
<g id="a_edge16_Node000014_Node000017"><a xlink:title=" ">
<path fill="none" stroke="#63b8ff" d="M249.96,-54.98C280.08,-45.81 328.08,-31.19 360.77,-21.23"/>
<polygon fill="#63b8ff" stroke="#63b8ff" points="361.84,-24.57 370.38,-18.3 359.8,-17.87 361.84,-24.57"/>
</a>
</g>
</g>
<!-- Node18 -->
<g id="Node000018" class="node">
<title>Node18</title>
<g id="a_Node000018"><a xlink:title=" ">
<polygon fill="#e0e0e0" stroke="#999999" points="218,-19 152,-19 152,0 218,0 218,-19"/>
<text text-anchor="middle" x="185" y="-7" font-family="Times,serif" font-size="10.00">exception</text>
</a>
</g>
</g>
<!-- Node14&#45;&gt;Node18 -->
<g id="edge18_Node000014_Node000018" class="edge">
<title>Node14&#45;&gt;Node18</title>
<g id="a_edge18_Node000014_Node000018"><a xlink:title=" ">
<path fill="none" stroke="#63b8ff" d="M215.89,-54.75C210.72,-47.34 203.15,-36.5 196.81,-27.41"/>
<polygon fill="#63b8ff" stroke="#63b8ff" points="199.59,-25.29 191,-19.09 193.85,-29.29 199.59,-25.29"/>
</a>
</g>
</g>
<!-- Node19&#45;&gt;Node4 -->
<g id="edge21_Node000019_Node000004" class="edge">
<title>Node19&#45;&gt;Node4</title>
<g id="a_edge21_Node000019_Node000004"><a xlink:title=" ">
<path fill="none" stroke="#63b8ff" d="M577.7,-175.99C552.33,-167.46 512.54,-154.09 480.5,-143.32"/>
<polygon fill="#63b8ff" stroke="#63b8ff" points="481.43,-139.93 470.83,-140.06 479.2,-146.57 481.43,-139.93"/>
</a>
</g>
</g>
<!-- Node20 -->
<g id="Node000020" class="node">
<title>Node20</title>
<g id="a_Node000020"><a xlink:title=" ">
<polygon fill="#e0e0e0" stroke="#999999" points="684,-134.5 542,-134.5 542,-115.5 684,-115.5 684,-134.5"/>
<text text-anchor="middle" x="613" y="-122.5" font-family="Times,serif" font-size="10.00">parsec/parsec_internal.h</text>
</a>
</g>
</g>
<!-- Node19&#45;&gt;Node20 -->
<g id="edge22_Node000019_Node000020" class="edge">
<title>Node19&#45;&gt;Node20</title>
<g id="a_edge22_Node000019_Node000020"><a xlink:title=" ">
<path fill="none" stroke="#63b8ff" d="M604.48,-175.87C605.88,-167.66 608.04,-155.04 609.83,-144.55"/>
<polygon fill="#63b8ff" stroke="#63b8ff" points="613.28,-145.11 611.52,-134.67 606.38,-143.93 613.28,-145.11"/>
</a>
</g>
</g>
<!-- Node21 -->
<g id="Node000021" class="node">
<title>Node21</title>
<g id="a_Node000021"><a xlink:title=" ">
<polygon fill="#e0e0e0" stroke="#999999" points="848,-140 702,-140 702,-110 848,-110 848,-140"/>
<text text-anchor="start" x="710" y="-128" font-family="Times,serif" font-size="10.00">parsec/mca/device/device</text>
<text text-anchor="middle" x="775" y="-117" font-family="Times,serif" font-size="10.00">_gpu.h</text>
</a>
</g>
</g>
<!-- Node19&#45;&gt;Node21 -->
<g id="edge23_Node000019_Node000021" class="edge">
<title>Node19&#45;&gt;Node21</title>
<g id="a_edge23_Node000019_Node000021"><a xlink:title=" ">
<path fill="none" stroke="#63b8ff" d="M628.01,-175.99C653.09,-167.46 692.42,-154.09 724.09,-143.32"/>
<polygon fill="#63b8ff" stroke="#63b8ff" points="725.31,-146.6 733.65,-140.06 723.05,-139.97 725.31,-146.6"/>
</a>
</g>
</g>
</g>
</svg>

<g id="navigator" transform="translate(0 0)" fill="#404254">
  <rect fill="#f2f5e9" fill-opacity="0.5" stroke="#606060" stroke-width=".5" x="0" y="0" width="60" height="60"/>
  <use id="zoomplus" xlink:href="#zoomPlus" x="17" y="9" onmousedown="handleZoom(evt,'in')"/>
  <use id="zoomminus" xlink:href="#zoomMin" x="42" y="9" onmousedown="handleZoom(evt,'out')"/>
  <use id="reset" xlink:href="#resetDef" x="30" y="36" onmousedown="handleReset()"/>
   <use id="arrowup" xlink:href="#arrowUp" x="0" y="0" onmousedown="handlePan(0,-1)"/>
  <use id="arrowright" xlink:href="#arrowRight" x="0" y="0" onmousedown="handlePan(1,0)"/>
  <use id="arrowdown" xlink:href="#arrowDown" x="0" y="0" onmousedown="handlePan(0,1)"/>
  <use id="arrowleft" xlink:href="#arrowLeft" x="0" y="0" onmousedown="handlePan(-1,0)"/>
</g>
<svg viewBox="0 0 15 15" width="100%" height="30px" preserveAspectRatio="xMaxYMin meet">
 <g id="arrow_out" transform="scale(0.3 0.3)">
  <a xlink:href="parsec_2ptr_8h__incl_org.svg" target="_base">
   <rect id="button" ry="5" rx="5" y="6" x="6" height="38" width="38"
        fill="#f2f5e9" fill-opacity="0.5" stroke="#606060" stroke-width="1.0"/>
   <path id="arrow"
     d="M 11.500037,31.436501 C 11.940474,20.09759 22.043105,11.32322 32.158766,21.979434 L 37.068811,17.246167 C 37.068811,17.246167 37.088388,32 37.088388,32 L 22.160133,31.978069 C 22.160133,31.978069 26.997745,27.140456 26.997745,27.140456 C 18.528582,18.264221 13.291696,25.230495 11.500037,31.436501 z"
     style="fill:#404040;"/>
  </a>
 </g>
</svg>

<style type='text/css'>
<![CDATA[
[data-mouse-over-selected='false'] { opacity: 0.7; }
[data-mouse-over-selected='true']  { opacity: 1.0; }
]]>
</style>
<script type="application/ecmascript"><![CDATA[
document.addEventListener('DOMContentLoaded', (event) => {
  highlightEdges();
  highlightAdjacentNodes();
});
]]></script>
</svg>
