<?xml version="1.0" encoding="UTF-8" standalone="no"?>
<!DOCTYPE svg PUBLIC "-//W3C//DTD SVG 1.1//EN"
 "http://www.w3.org/Graphics/SVG/1.1/DTD/svg11.dtd">
<!-- Generated by graphviz version 2.43.0 (0)
 -->
<!-- Title: ttg/ttg/parsec/task.h Pages: 1 -->
<svg width="514pt" height="137pt"
 viewBox="0.00 0.00 513.50 137.00" xmlns="http://www.w3.org/2000/svg" xmlns:xlink="http://www.w3.org/1999/xlink">
<g id="graph0" class="graph" transform="scale(1 1) rotate(0) translate(4 133)">
<title>ttg/ttg/parsec/task.h</title>
<!-- Node1 -->
<g id="Node000001" class="node">
<title>Node1</title>
<g id="a_Node000001"><a xlink:title=" ">
<polygon fill="#999999" stroke="#666666" points="296,-129 177,-129 177,-110 296,-110 296,-129"/>
<text text-anchor="middle" x="236.5" y="-117" font-family="Times,serif" font-size="10.00">ttg/ttg/parsec/task.h</text>
</a>
</g>
</g>
<!-- Node2 -->
<g id="Node000002" class="node">
<title>Node2</title>
<g id="a_Node000002"><a xlink:href="parsec_2devicefunc_8h.html" target="_top" xlink:title=" ">
<polygon fill="white" stroke="#666666" points="153,-74 0,-74 0,-55 153,-55 153,-74"/>
<text text-anchor="middle" x="76.5" y="-62" font-family="Times,serif" font-size="10.00">ttg/ttg/parsec/devicefunc.h</text>
</a>
</g>
</g>
<!-- Node1&#45;&gt;Node2 -->
<g id="edge1_Node000001_Node000002" class="edge">
<title>Node1&#45;&gt;Node2</title>
<g id="a_edge1_Node000001_Node000002"><a xlink:title=" ">
<path fill="none" stroke="#63b8ff" d="M201.17,-106.8C171.31,-96.91 129.23,-82.97 102.41,-74.08"/>
<polygon fill="#63b8ff" stroke="#63b8ff" points="200.2,-110.16 210.79,-109.98 202.4,-103.52 200.2,-110.16"/>
</a>
</g>
</g>
<!-- Node3 -->
<g id="Node000003" class="node">
<title>Node3</title>
<g id="a_Node000003"><a xlink:href="ttg_2parsec_2ttg_8h.html" target="_top" xlink:title=" ">
<polygon fill="white" stroke="#666666" points="292.5,-19 180.5,-19 180.5,0 292.5,0 292.5,-19"/>
<text text-anchor="middle" x="236.5" y="-7" font-family="Times,serif" font-size="10.00">ttg/ttg/parsec/ttg.h</text>
</a>
</g>
</g>
<!-- Node1&#45;&gt;Node3 -->
<g id="edge7_Node000001_Node000003" class="edge">
<title>Node1&#45;&gt;Node3</title>
<g id="a_edge7_Node000001_Node000003"><a xlink:title=" ">
<path fill="none" stroke="#63b8ff" d="M218.87,-102.29C211.71,-94.51 204.25,-84.59 200.5,-74 193.06,-52.97 212.87,-30.84 225.97,-19.07"/>
<polygon fill="#63b8ff" stroke="#63b8ff" points="216.81,-105.18 226.34,-109.81 221.78,-100.24 216.81,-105.18"/>
</a>
</g>
</g>
<!-- Node4 -->
<g id="Node000004" class="node">
<title>Node4</title>
<g id="a_Node000004"><a xlink:href="parsec_2devicescratch_8h.html" target="_top" xlink:title=" ">
<polygon fill="white" stroke="#666666" points="376,-74 209,-74 209,-55 376,-55 376,-74"/>
<text text-anchor="middle" x="292.5" y="-62" font-family="Times,serif" font-size="10.00">ttg/ttg/parsec/devicescratch.h</text>
</a>
</g>
</g>
<!-- Node1&#45;&gt;Node4 -->
<g id="edge3_Node000001_Node000004" class="edge">
<title>Node1&#45;&gt;Node4</title>
<g id="a_edge3_Node000001_Node000004"><a xlink:title=" ">
<path fill="none" stroke="#63b8ff" d="M252.83,-103.04C262.76,-93.64 275.09,-81.98 283.34,-74.17"/>
<polygon fill="#63b8ff" stroke="#63b8ff" points="250.35,-100.57 245.5,-109.98 255.17,-105.65 250.35,-100.57"/>
</a>
</g>
</g>
<!-- Node5 -->
<g id="Node000005" class="node">
<title>Node5</title>
<g id="a_Node000005"><a xlink:href="parsec_2ptr_8h.html" target="_top" xlink:title=" ">
<polygon fill="white" stroke="#666666" points="505.5,-74 393.5,-74 393.5,-55 505.5,-55 505.5,-74"/>
<text text-anchor="middle" x="449.5" y="-62" font-family="Times,serif" font-size="10.00">ttg/ttg/parsec/ptr.h</text>
</a>
</g>
</g>
<!-- Node1&#45;&gt;Node5 -->
<g id="edge5_Node000001_Node000005" class="edge">
<title>Node1&#45;&gt;Node5</title>
<g id="a_edge5_Node000001_Node000005"><a xlink:title=" ">
<path fill="none" stroke="#63b8ff" d="M280.45,-107.56C320.34,-97.64 378.37,-83.2 415.01,-74.08"/>
<polygon fill="#63b8ff" stroke="#63b8ff" points="279.58,-104.17 270.72,-109.98 281.27,-110.97 279.58,-104.17"/>
</a>
</g>
</g>
<!-- Node2&#45;&gt;Node3 -->
<g id="edge2_Node000002_Node000003" class="edge">
<title>Node2&#45;&gt;Node3</title>
<g id="a_edge2_Node000002_Node000003"><a xlink:title=" ">
<path fill="none" stroke="#63b8ff" d="M111.83,-51.8C141.69,-41.91 183.77,-27.97 210.59,-19.08"/>
<polygon fill="#63b8ff" stroke="#63b8ff" points="110.6,-48.52 102.21,-54.98 112.8,-55.16 110.6,-48.52"/>
</a>
</g>
</g>
<!-- Node4&#45;&gt;Node3 -->
<g id="edge4_Node000004_Node000003" class="edge">
<title>Node4&#45;&gt;Node3</title>
<g id="a_edge4_Node000004_Node000003"><a xlink:title=" ">
<path fill="none" stroke="#63b8ff" d="M276.17,-48.04C266.24,-38.64 253.91,-26.98 245.66,-19.17"/>
<polygon fill="#63b8ff" stroke="#63b8ff" points="273.83,-50.65 283.5,-54.98 278.65,-45.57 273.83,-50.65"/>
</a>
</g>
</g>
<!-- Node5&#45;&gt;Node3 -->
<g id="edge6_Node000005_Node000003" class="edge">
<title>Node5&#45;&gt;Node3</title>
<g id="a_edge6_Node000005_Node000003"><a xlink:title=" ">
<path fill="none" stroke="#63b8ff" d="M405.55,-52.56C365.66,-42.64 307.63,-28.2 270.99,-19.08"/>
<polygon fill="#63b8ff" stroke="#63b8ff" points="404.73,-55.97 415.28,-54.98 406.42,-49.17 404.73,-55.97"/>
</a>
</g>
</g>
</g>
</svg>
