<?xml version="1.0" encoding="UTF-8" standalone="no"?>
<!DOCTYPE svg PUBLIC "-//W3C//DTD SVG 1.1//EN"
 "http://www.w3.org/Graphics/SVG/1.1/DTD/svg11.dtd">
<!-- Generated by graphviz version 2.43.0 (0)
 -->
<!-- Title: ttg/ttg/parsec/devicescratch.h Pages: 1 -->
<!--zoomable 258 -->

<svg id="main" version="1.1" xmlns="http://www.w3.org/2000/svg" xmlns:xlink="http://www.w3.org/1999/xlink" xml:space="preserve" onload="init(evt)">
<style type="text/css"><![CDATA[
.node, .edge {opacity: 0.7;}
.node.selected, .edge.selected {opacity: 1;}
.edge:hover path { stroke: red; }
.edge:hover polygon { stroke: red; fill: red; }
]]></style>

<defs>
  <circle id="rim" cx="0" cy="0" r="7"/>
  <circle id="rim2" cx="0" cy="0" r="3.5"/>
  <g id="zoomPlus">
    <use xlink:href="#rim" fill="#404040"><set attributeName="fill" to="#808080" begin="zoomplus.mouseover" end="zoomplus.mouseout"/></use>
    <path d="M-4,0h8M0,-4v8" fill="none" stroke="white" stroke-width="1.5" pointer-events="none"/>
  </g>
  <g id="zoomMin">
    <use xlink:href="#rim" fill="#404040"><set attributeName="fill" to="#808080" begin="zoomminus.mouseover" end="zoomminus.mouseout"/></use>
    <path d="M-4,0h8" fill="none" stroke="white" stroke-width="1.5" pointer-events="none"/>
  </g>
  <g id="arrowUp" transform="translate(30 24)">
    <use xlink:href="#rim"/>
    <path pointer-events="none" fill="none" stroke="white" stroke-width="1.5" d="M0,-3.0v7 M-2.5,-0.5L0,-3.0L2.5,-0.5"/>
  </g>
  <g id="arrowRight" transform="rotate(90) translate(36 -43)">
    <use xlink:href="#rim"/>
    <path pointer-events="none" fill="none" stroke="white" stroke-width="1.5" d="M0,-3.0v7 M-2.5,-0.5L0,-3.0L2.5,-0.5"/>
  </g>
  <g id="arrowDown" transform="rotate(180) translate(-30 -48)">
    <use xlink:href="#rim"/>
    <path pointer-events="none" fill="none" stroke="white" stroke-width="1.5" d="M0,-3.0v7 M-2.5,-0.5L0,-3.0L2.5,-0.5"/>
  </g>
  <g id="arrowLeft" transform="rotate(270) translate(-36 17)">
    <use xlink:href="#rim"/>
    <path pointer-events="none" fill="none" stroke="white" stroke-width="1.5" d="M0,-3.0v7 M-2.5,-0.5L0,-3.0L2.5,-0.5"/>
  </g>
  <g id="resetDef">
    <use xlink:href="#rim2" fill="#404040"><set attributeName="fill" to="#808080" begin="reset.mouseover" end="reset.mouseout"/></use>
  </g>
</defs>
<script type="application/ecmascript">
var viewWidth = 909;
var viewHeight = 258;
var sectionId = 'dynsection-0';
</script>
<script type="application/ecmascript" xlink:href="svg.min.js"/>
<svg id="graph" class="graph">
<g id="viewport">
<title>ttg/ttg/parsec/devicescratch.h</title>
<!-- Node1 -->
<g id="Node000001" class="node">
<title>Node1</title>
<g id="a_Node000001"><a xlink:title=" ">
<polygon fill="#999999" stroke="#666666" points="526.37,-250 359.37,-250 359.37,-231 526.37,-231 526.37,-250"/>
<text text-anchor="middle" x="442.87" y="-238" font-family="Times,serif" font-size="10.00">ttg/ttg/parsec/devicescratch.h</text>
</a>
</g>
</g>
<!-- Node2 -->
<g id="Node000002" class="node">
<title>Node2</title>
<g id="a_Node000002"><a xlink:title=" ">
<polygon fill="#e0e0e0" stroke="#999999" points="215.87,-19 171.87,-19 171.87,0 215.87,0 215.87,-19"/>
<text text-anchor="middle" x="193.87" y="-7" font-family="Times,serif" font-size="10.00">array</text>
</a>
</g>
</g>
<!-- Node1&#45;&gt;Node2 -->
<g id="edge1_Node000001_Node000002" class="edge">
<title>Node1&#45;&gt;Node2</title>
<g id="a_edge1_Node000001_Node000002"><a xlink:title=" ">
<path fill="none" stroke="#63b8ff" d="M359.2,-236.84C253.78,-228.3 77.72,-195.51 5.87,-74 -28.44,-15.97 99.55,-9.55 161.76,-9.75"/>
<polygon fill="#63b8ff" stroke="#63b8ff" points="161.83,-13.25 171.86,-9.84 161.89,-6.25 161.83,-13.25"/>
</a>
</g>
</g>
<!-- Node3 -->
<g id="Node000003" class="node">
<title>Node3</title>
<g id="a_Node000003"><a xlink:title=" ">
<polygon fill="#e0e0e0" stroke="#999999" points="74.87,-74 14.87,-74 14.87,-55 74.87,-55 74.87,-74"/>
<text text-anchor="middle" x="44.87" y="-62" font-family="Times,serif" font-size="10.00">parsec.h</text>
</a>
</g>
</g>
<!-- Node1&#45;&gt;Node3 -->
<g id="edge2_Node000001_Node000003" class="edge">
<title>Node1&#45;&gt;Node3</title>
<g id="a_edge2_Node000001_Node000003"><a xlink:title=" ">
<path fill="none" stroke="#63b8ff" d="M411.47,-230.95C382.97,-222.83 340.01,-209.72 303.87,-195 214.73,-158.7 114.06,-104.26 68.97,-79.12"/>
<polygon fill="#63b8ff" stroke="#63b8ff" points="70.4,-75.91 59.96,-74.08 66.98,-82.02 70.4,-75.91"/>
</a>
</g>
</g>
<!-- Node4 -->
<g id="Node000004" class="node">
<title>Node4</title>
<g id="a_Node000004"><a xlink:title=" ">
<polygon fill="#e0e0e0" stroke="#999999" points="602.37,-195 471.37,-195 471.37,-176 602.37,-176 602.37,-195"/>
<text text-anchor="middle" x="536.87" y="-183" font-family="Times,serif" font-size="10.00">parsec/data_internal.h</text>
</a>
</g>
</g>
<!-- Node1&#45;&gt;Node4 -->
<g id="edge3_Node000001_Node000004" class="edge">
<title>Node1&#45;&gt;Node4</title>
<g id="a_edge3_Node000001_Node000004"><a xlink:title=" ">
<path fill="none" stroke="#63b8ff" d="M457.98,-230.98C472.69,-222.69 495.3,-209.94 512.55,-200.22"/>
<polygon fill="#63b8ff" stroke="#63b8ff" points="514.5,-203.13 521.5,-195.17 511.07,-197.03 514.5,-203.13"/>
</a>
</g>
</g>
<!-- Node5 -->
<g id="Node000005" class="node">
<title>Node5</title>
<g id="a_Node000005"><a xlink:title=" ">
<polygon fill="#e0e0e0" stroke="#999999" points="776.87,-195 620.87,-195 620.87,-176 776.87,-176 776.87,-195"/>
<text text-anchor="middle" x="698.87" y="-183" font-family="Times,serif" font-size="10.00">parsec/mca/device/device.h</text>
</a>
</g>
</g>
<!-- Node1&#45;&gt;Node5 -->
<g id="edge4_Node000001_Node000005" class="edge">
<title>Node1&#45;&gt;Node5</title>
<g id="a_edge4_Node000001_Node000005"><a xlink:title=" ">
<path fill="none" stroke="#63b8ff" d="M484,-230.98C528.47,-221.78 599.42,-207.09 647.52,-197.13"/>
<polygon fill="#63b8ff" stroke="#63b8ff" points="648.34,-200.54 657.42,-195.08 646.92,-193.68 648.34,-200.54"/>
</a>
</g>
</g>
<!-- Node6 -->
<g id="Node000006" class="node">
<title>Node6</title>
<g id="a_Node000006"><a xlink:title=" ">
<polygon fill="#e0e0e0" stroke="#999999" points="657.87,-140 511.87,-140 511.87,-110 657.87,-110 657.87,-140"/>
<text text-anchor="start" x="519.87" y="-128" font-family="Times,serif" font-size="10.00">parsec/mca/device/device</text>
<text text-anchor="middle" x="584.87" y="-117" font-family="Times,serif" font-size="10.00">_gpu.h</text>
</a>
</g>
</g>
<!-- Node1&#45;&gt;Node6 -->
<g id="edge5_Node000001_Node000006" class="edge">
<title>Node1&#45;&gt;Node6</title>
<g id="a_edge5_Node000001_Node000006"><a xlink:title=" ">
<path fill="none" stroke="#63b8ff" d="M443.31,-230.97C444.44,-217.61 448.48,-191.66 462.87,-176 476.2,-161.51 494.34,-151.11 512.56,-143.69"/>
<polygon fill="#63b8ff" stroke="#63b8ff" points="513.96,-146.9 522.07,-140.08 511.48,-140.36 513.96,-146.9"/>
</a>
</g>
</g>
<!-- Node7 -->
<g id="Node000007" class="node">
<title>Node7</title>
<g id="a_Node000007"><a xlink:href="devicescope_8h.html" target="_top" xlink:title=" ">
<polygon fill="white" stroke="#666666" points="900.87,-195 794.87,-195 794.87,-176 900.87,-176 900.87,-195"/>
<text text-anchor="middle" x="847.87" y="-183" font-family="Times,serif" font-size="10.00">ttg/devicescope.h</text>
</a>
</g>
</g>
<!-- Node1&#45;&gt;Node7 -->
<g id="edge6_Node000001_Node000007" class="edge">
<title>Node1&#45;&gt;Node7</title>
<g id="a_edge6_Node000001_Node000007"><a xlink:title=" ">
<path fill="none" stroke="#63b8ff" d="M509.61,-230.99C576.51,-222.42 682.78,-208.72 784.62,-195.16"/>
<polygon fill="#63b8ff" stroke="#63b8ff" points="785.33,-198.6 794.78,-193.81 784.4,-191.66 785.33,-198.6"/>
</a>
</g>
</g>
<!-- Node8 -->
<g id="Node000008" class="node">
<title>Node8</title>
<g id="a_Node000008"><a xlink:href="parsec_2task_8h.html" target="_top" xlink:title=" ">
<polygon fill="white" stroke="#666666" points="414.37,-195 313.37,-195 313.37,-176 414.37,-176 414.37,-195"/>
<text text-anchor="middle" x="363.87" y="-183" font-family="Times,serif" font-size="10.00">ttg/parsec/task.h</text>
</a>
</g>
</g>
<!-- Node1&#45;&gt;Node8 -->
<g id="edge7_Node000001_Node000008" class="edge">
<title>Node1&#45;&gt;Node8</title>
<g id="a_edge7_Node000001_Node000008"><a xlink:title=" ">
<path fill="none" stroke="#63b8ff" d="M430.18,-230.98C418.04,-222.84 399.52,-210.41 385.13,-200.76"/>
<polygon fill="#63b8ff" stroke="#63b8ff" points="387.05,-197.84 376.8,-195.17 383.15,-203.65 387.05,-197.84"/>
</a>
</g>
</g>
<!-- Node8&#45;&gt;Node6 -->
<g id="edge25_Node000008_Node000006" class="edge">
<title>Node8&#45;&gt;Node6</title>
<g id="a_edge25_Node000008_Node000006"><a xlink:title=" ">
<path fill="none" stroke="#63b8ff" d="M396.01,-175.99C428.86,-167.3 480.74,-153.57 521.82,-142.69"/>
<polygon fill="#63b8ff" stroke="#63b8ff" points="522.97,-146.01 531.74,-140.06 521.18,-139.24 522.97,-146.01"/>
</a>
</g>
</g>
<!-- Node9 -->
<g id="Node000009" class="node">
<title>Node9</title>
<g id="a_Node000009"><a xlink:href="ttg__data__copy_8h.html" target="_top" xlink:title=" ">
<polygon fill="white" stroke="#666666" points="493.37,-140 380.37,-140 380.37,-110 493.37,-110 493.37,-140"/>
<text text-anchor="start" x="388.37" y="-128" font-family="Times,serif" font-size="10.00">ttg/parsec/ttg_data</text>
<text text-anchor="middle" x="436.87" y="-117" font-family="Times,serif" font-size="10.00">_copy.h</text>
</a>
</g>
</g>
<!-- Node8&#45;&gt;Node9 -->
<g id="edge8_Node000008_Node000009" class="edge">
<title>Node8&#45;&gt;Node9</title>
<g id="a_edge8_Node000008_Node000009"><a xlink:title=" ">
<path fill="none" stroke="#63b8ff" d="M374.64,-175.87C384.27,-168.15 398.77,-156.54 411.34,-146.46"/>
<polygon fill="#63b8ff" stroke="#63b8ff" points="413.65,-149.1 419.26,-140.11 409.27,-143.64 413.65,-149.1"/>
</a>
</g>
</g>
<!-- Node22 -->
<g id="Node000022" class="node">
<title>Node22</title>
<g id="a_Node000022"><a xlink:title=" ">
<polygon fill="#e0e0e0" stroke="#999999" points="361.87,-134.5 219.87,-134.5 219.87,-115.5 361.87,-115.5 361.87,-134.5"/>
<text text-anchor="middle" x="290.87" y="-122.5" font-family="Times,serif" font-size="10.00">parsec/parsec_internal.h</text>
</a>
</g>
</g>
<!-- Node8&#45;&gt;Node22 -->
<g id="edge24_Node000008_Node000022" class="edge">
<title>Node8&#45;&gt;Node22</title>
<g id="a_edge24_Node000008_Node000022"><a xlink:title=" ">
<path fill="none" stroke="#63b8ff" d="M353.1,-175.87C341.67,-166.71 323.39,-152.06 309.6,-141.01"/>
<polygon fill="#63b8ff" stroke="#63b8ff" points="311.68,-138.19 301.69,-134.67 307.3,-143.65 311.68,-138.19"/>
</a>
</g>
</g>
<!-- Node9&#45;&gt;Node3 -->
<g id="edge15_Node000009_Node000003" class="edge">
<title>Node9&#45;&gt;Node3</title>
<g id="a_edge15_Node000009_Node000003"><a xlink:title=" ">
<path fill="none" stroke="#63b8ff" d="M380.05,-111.63C376.95,-111.05 373.88,-110.51 370.87,-110 247.32,-89.19 212.34,-95.37 85.18,-74.08"/>
<polygon fill="#63b8ff" stroke="#63b8ff" points="85.5,-70.58 75.05,-72.36 84.33,-77.48 85.5,-70.58"/>
</a>
</g>
</g>
<!-- Node10 -->
<g id="Node000010" class="node">
<title>Node10</title>
<g id="a_Node000010"><a xlink:title=" ">
<polygon fill="#e0e0e0" stroke="#999999" points="664.87,-74 618.87,-74 618.87,-55 664.87,-55 664.87,-74"/>
<text text-anchor="middle" x="641.87" y="-62" font-family="Times,serif" font-size="10.00">utility</text>
</a>
</g>
</g>
<!-- Node9&#45;&gt;Node10 -->
<g id="edge9_Node000009_Node000010" class="edge">
<title>Node9&#45;&gt;Node10</title>
<g id="a_edge9_Node000009_Node000010"><a xlink:title=" ">
<path fill="none" stroke="#63b8ff" d="M485.98,-109.99C524.08,-99.11 575.85,-84.34 609.07,-74.86"/>
<polygon fill="#63b8ff" stroke="#63b8ff" points="610.09,-78.21 618.75,-72.1 608.17,-71.48 610.09,-78.21"/>
</a>
</g>
</g>
<!-- Node11 -->
<g id="Node000011" class="node">
<title>Node11</title>
<g id="a_Node000011"><a xlink:title=" ">
<polygon fill="#e0e0e0" stroke="#999999" points="726.87,-74 682.87,-74 682.87,-55 726.87,-55 726.87,-74"/>
<text text-anchor="middle" x="704.87" y="-62" font-family="Times,serif" font-size="10.00">limits</text>
</a>
</g>
</g>
<!-- Node9&#45;&gt;Node11 -->
<g id="edge10_Node000009_Node000011" class="edge">
<title>Node9&#45;&gt;Node11</title>
<g id="a_edge10_Node000009_Node000011"><a xlink:title=" ">
<path fill="none" stroke="#63b8ff" d="M493.4,-112C496.6,-111.33 499.78,-110.65 502.87,-110 575.74,-94.6 596.69,-92.44 672.52,-74.22"/>
<polygon fill="#63b8ff" stroke="#63b8ff" points="673.67,-77.54 682.56,-71.79 672.02,-70.74 673.67,-77.54"/>
</a>
</g>
</g>
<!-- Node12 -->
<g id="Node000012" class="node">
<title>Node12</title>
<g id="a_Node000012"><a xlink:title=" ">
<polygon fill="#e0e0e0" stroke="#999999" points="792.87,-74 744.87,-74 744.87,-55 792.87,-55 792.87,-74"/>
<text text-anchor="middle" x="768.87" y="-62" font-family="Times,serif" font-size="10.00">vector</text>
</a>
</g>
</g>
<!-- Node9&#45;&gt;Node12 -->
<g id="edge11_Node000009_Node000012" class="edge">
<title>Node9&#45;&gt;Node12</title>
<g id="a_edge11_Node000009_Node000012"><a xlink:title=" ">
<path fill="none" stroke="#63b8ff" d="M493.71,-111.73C496.81,-111.13 499.88,-110.55 502.87,-110 602.82,-91.69 631.51,-94.87 734.88,-74.02"/>
<polygon fill="#63b8ff" stroke="#63b8ff" points="735.69,-77.43 744.79,-72 734.29,-70.57 735.69,-77.43"/>
</a>
</g>
</g>
<!-- Node13 -->
<g id="Node000013" class="node">
<title>Node13</title>
<g id="a_Node000013"><a xlink:title=" ">
<polygon fill="#e0e0e0" stroke="#999999" points="864.87,-74 810.87,-74 810.87,-55 864.87,-55 864.87,-74"/>
<text text-anchor="middle" x="837.87" y="-62" font-family="Times,serif" font-size="10.00">iterator</text>
</a>
</g>
</g>
<!-- Node9&#45;&gt;Node13 -->
<g id="edge12_Node000009_Node000013" class="edge">
<title>Node9&#45;&gt;Node13</title>
<g id="a_edge12_Node000009_Node000013"><a xlink:title=" ">
<path fill="none" stroke="#63b8ff" d="M493.69,-111.61C496.79,-111.04 499.87,-110.5 502.87,-110 631.69,-88.63 668.31,-96.98 800.69,-74.02"/>
<polygon fill="#63b8ff" stroke="#63b8ff" points="801.57,-77.41 810.81,-72.23 800.36,-70.52 801.57,-77.41"/>
</a>
</g>
</g>
<!-- Node14 -->
<g id="Node000014" class="node">
<title>Node14</title>
<g id="a_Node000014"><a xlink:title=" ">
<polygon fill="#e0e0e0" stroke="#999999" points="142.87,-74 92.87,-74 92.87,-55 142.87,-55 142.87,-74"/>
<text text-anchor="middle" x="117.87" y="-62" font-family="Times,serif" font-size="10.00">atomic</text>
</a>
</g>
</g>
<!-- Node9&#45;&gt;Node14 -->
<g id="edge13_Node000009_Node000014" class="edge">
<title>Node9&#45;&gt;Node14</title>
<g id="a_edge13_Node000009_Node000014"><a xlink:title=" ">
<path fill="none" stroke="#63b8ff" d="M380.02,-111.77C376.93,-111.16 373.87,-110.56 370.87,-110 277.06,-92.35 250.18,-93.86 153.02,-74.09"/>
<polygon fill="#63b8ff" stroke="#63b8ff" points="153.57,-70.63 143.07,-72.04 152.16,-77.49 153.57,-70.63"/>
</a>
</g>
</g>
<!-- Node15 -->
<g id="Node000015" class="node">
<title>Node15</title>
<g id="a_Node000015"><a xlink:title=" ">
<polygon fill="#e0e0e0" stroke="#999999" points="511.37,-19 440.37,-19 440.37,0 511.37,0 511.37,-19"/>
<text text-anchor="middle" x="475.87" y="-7" font-family="Times,serif" font-size="10.00">type_traits</text>
</a>
</g>
</g>
<!-- Node9&#45;&gt;Node15 -->
<g id="edge14_Node000009_Node000015" class="edge">
<title>Node9&#45;&gt;Node15</title>
<g id="a_edge14_Node000009_Node000015"><a xlink:title=" ">
<path fill="none" stroke="#63b8ff" d="M447.01,-109.82C453.41,-100.17 461.31,-86.86 465.87,-74 471.01,-59.52 473.51,-42.25 474.73,-29.38"/>
<polygon fill="#63b8ff" stroke="#63b8ff" points="478.22,-29.62 475.5,-19.38 471.24,-29.08 478.22,-29.62"/>
</a>
</g>
</g>
<!-- Node16 -->
<g id="Node000016" class="node">
<title>Node16</title>
<g id="a_Node000016"><a xlink:href="thread__local_8h.html" target="_top" xlink:title=" ">
<polygon fill="white" stroke="#666666" points="304.37,-74 161.37,-74 161.37,-55 304.37,-55 304.37,-74"/>
<text text-anchor="middle" x="232.87" y="-62" font-family="Times,serif" font-size="10.00">ttg/parsec/thread_local.h</text>
</a>
</g>
</g>
<!-- Node9&#45;&gt;Node16 -->
<g id="edge16_Node000009_Node000016" class="edge">
<title>Node9&#45;&gt;Node16</title>
<g id="a_edge16_Node000009_Node000016"><a xlink:title=" ">
<path fill="none" stroke="#63b8ff" d="M388.01,-109.99C352.65,-99.85 305.47,-86.32 272.46,-76.85"/>
<polygon fill="#63b8ff" stroke="#63b8ff" points="273.28,-73.45 262.7,-74.05 271.35,-80.17 273.28,-73.45"/>
</a>
</g>
</g>
<!-- Node17 -->
<g id="Node000017" class="node">
<title>Node17</title>
<g id="a_Node000017"><a xlink:href="parsec-ext_8h.html" target="_top" xlink:title=" ">
<polygon fill="white" stroke="#666666" points="456.87,-74 322.87,-74 322.87,-55 456.87,-55 456.87,-74"/>
<text text-anchor="middle" x="389.87" y="-62" font-family="Times,serif" font-size="10.00">ttg/parsec/parsec&#45;ext.h</text>
</a>
</g>
</g>
<!-- Node9&#45;&gt;Node17 -->
<g id="edge17_Node000009_Node000017" class="edge">
<title>Node9&#45;&gt;Node17</title>
<g id="a_edge17_Node000009_Node000017"><a xlink:title=" ">
<path fill="none" stroke="#63b8ff" d="M425.5,-109.84C418.81,-101.52 410.33,-90.96 403.32,-82.23"/>
<polygon fill="#63b8ff" stroke="#63b8ff" points="405.91,-79.87 396.92,-74.27 400.45,-84.25 405.91,-79.87"/>
</a>
</g>
</g>
<!-- Node18 -->
<g id="Node000018" class="node">
<title>Node18</title>
<g id="a_Node000018"><a xlink:href="span_8h.html" target="_top" xlink:title=" ">
<polygon fill="white" stroke="#666666" points="600.87,-74 512.87,-74 512.87,-55 600.87,-55 600.87,-74"/>
<text text-anchor="middle" x="556.87" y="-62" font-family="Times,serif" font-size="10.00">ttg/util/span.h</text>
</a>
</g>
</g>
<!-- Node9&#45;&gt;Node18 -->
<g id="edge18_Node000009_Node000018" class="edge">
<title>Node9&#45;&gt;Node18</title>
<g id="a_edge18_Node000009_Node000018"><a xlink:title=" ">
<path fill="none" stroke="#63b8ff" d="M465.62,-109.99C485.19,-100.45 510.92,-87.9 530.07,-78.57"/>
<polygon fill="#63b8ff" stroke="#63b8ff" points="531.7,-81.67 539.15,-74.14 528.63,-75.38 531.7,-81.67"/>
</a>
</g>
</g>
<!-- Node18&#45;&gt;Node2 -->
<g id="edge19_Node000018_Node000002" class="edge">
<title>Node18&#45;&gt;Node2</title>
<g id="a_edge19_Node000018_Node000002"><a xlink:title=" ">
<path fill="none" stroke="#63b8ff" d="M512.72,-57.05C438.81,-46.26 291.69,-24.78 226.39,-15.25"/>
<polygon fill="#63b8ff" stroke="#63b8ff" points="226.67,-11.75 216.27,-13.77 225.66,-18.68 226.67,-11.75"/>
</a>
</g>
</g>
<!-- Node18&#45;&gt;Node15 -->
<g id="edge22_Node000018_Node000015" class="edge">
<title>Node18&#45;&gt;Node15</title>
<g id="a_edge22_Node000018_Node000015"><a xlink:title=" ">
<path fill="none" stroke="#63b8ff" d="M543.86,-54.98C531.42,-46.84 512.42,-34.41 497.66,-24.76"/>
<polygon fill="#63b8ff" stroke="#63b8ff" points="499.41,-21.72 489.12,-19.17 495.58,-27.57 499.41,-21.72"/>
</a>
</g>
</g>
<!-- Node19 -->
<g id="Node000019" class="node">
<title>Node19</title>
<g id="a_Node000019"><a xlink:title=" ">
<polygon fill="#e0e0e0" stroke="#999999" points="583.87,-19 529.87,-19 529.87,0 583.87,0 583.87,-19"/>
<text text-anchor="middle" x="556.87" y="-7" font-family="Times,serif" font-size="10.00">cstddef</text>
</a>
</g>
</g>
<!-- Node18&#45;&gt;Node19 -->
<g id="edge20_Node000018_Node000019" class="edge">
<title>Node18&#45;&gt;Node19</title>
<g id="a_edge20_Node000018_Node000019"><a xlink:title=" ">
<path fill="none" stroke="#63b8ff" d="M556.87,-54.75C556.87,-47.8 556.87,-37.85 556.87,-29.13"/>
<polygon fill="#63b8ff" stroke="#63b8ff" points="560.37,-29.09 556.87,-19.09 553.37,-29.09 560.37,-29.09"/>
</a>
</g>
</g>
<!-- Node20 -->
<g id="Node000020" class="node">
<title>Node20</title>
<g id="a_Node000020"><a xlink:title=" ">
<polygon fill="#e0e0e0" stroke="#999999" points="653.37,-19 602.37,-19 602.37,0 653.37,0 653.37,-19"/>
<text text-anchor="middle" x="627.87" y="-7" font-family="Times,serif" font-size="10.00">cstdint</text>
</a>
</g>
</g>
<!-- Node18&#45;&gt;Node20 -->
<g id="edge21_Node000018_Node000020" class="edge">
<title>Node18&#45;&gt;Node20</title>
<g id="a_edge21_Node000018_Node000020"><a xlink:title=" ">
<path fill="none" stroke="#63b8ff" d="M568.28,-54.98C578.98,-47 595.21,-34.88 608.04,-25.31"/>
<polygon fill="#63b8ff" stroke="#63b8ff" points="610.34,-27.96 616.26,-19.17 606.15,-22.35 610.34,-27.96"/>
</a>
</g>
</g>
<!-- Node21 -->
<g id="Node000021" class="node">
<title>Node21</title>
<g id="a_Node000021"><a xlink:title=" ">
<polygon fill="#e0e0e0" stroke="#999999" points="737.87,-19 671.87,-19 671.87,0 737.87,0 737.87,-19"/>
<text text-anchor="middle" x="704.87" y="-7" font-family="Times,serif" font-size="10.00">exception</text>
</a>
</g>
</g>
<!-- Node18&#45;&gt;Node21 -->
<g id="edge23_Node000018_Node000021" class="edge">
<title>Node18&#45;&gt;Node21</title>
<g id="a_edge23_Node000018_Node000021"><a xlink:title=" ">
<path fill="none" stroke="#63b8ff" d="M580.65,-54.98C605.1,-46.23 643.41,-32.51 671.02,-22.62"/>
<polygon fill="#63b8ff" stroke="#63b8ff" points="672.43,-25.84 680.66,-19.17 670.07,-19.25 672.43,-25.84"/>
</a>
</g>
</g>
</g>
</svg>

<g id="navigator" transform="translate(0 0)" fill="#404254">
  <rect fill="#f2f5e9" fill-opacity="0.5" stroke="#606060" stroke-width=".5" x="0" y="0" width="60" height="60"/>
  <use id="zoomplus" xlink:href="#zoomPlus" x="17" y="9" onmousedown="handleZoom(evt,'in')"/>
  <use id="zoomminus" xlink:href="#zoomMin" x="42" y="9" onmousedown="handleZoom(evt,'out')"/>
  <use id="reset" xlink:href="#resetDef" x="30" y="36" onmousedown="handleReset()"/>
   <use id="arrowup" xlink:href="#arrowUp" x="0" y="0" onmousedown="handlePan(0,-1)"/>
  <use id="arrowright" xlink:href="#arrowRight" x="0" y="0" onmousedown="handlePan(1,0)"/>
  <use id="arrowdown" xlink:href="#arrowDown" x="0" y="0" onmousedown="handlePan(0,1)"/>
  <use id="arrowleft" xlink:href="#arrowLeft" x="0" y="0" onmousedown="handlePan(-1,0)"/>
</g>
<svg viewBox="0 0 15 15" width="100%" height="30px" preserveAspectRatio="xMaxYMin meet">
 <g id="arrow_out" transform="scale(0.3 0.3)">
  <a xlink:href="parsec_2devicescratch_8h__incl_org.svg" target="_base">
   <rect id="button" ry="5" rx="5" y="6" x="6" height="38" width="38"
        fill="#f2f5e9" fill-opacity="0.5" stroke="#606060" stroke-width="1.0"/>
   <path id="arrow"
     d="M 11.500037,31.436501 C 11.940474,20.09759 22.043105,11.32322 32.158766,21.979434 L 37.068811,17.246167 C 37.068811,17.246167 37.088388,32 37.088388,32 L 22.160133,31.978069 C 22.160133,31.978069 26.997745,27.140456 26.997745,27.140456 C 18.528582,18.264221 13.291696,25.230495 11.500037,31.436501 z"
     style="fill:#404040;"/>
  </a>
 </g>
</svg>

<style type='text/css'>
<![CDATA[
[data-mouse-over-selected='false'] { opacity: 0.7; }
[data-mouse-over-selected='true']  { opacity: 1.0; }
]]>
</style>
<script type="application/ecmascript"><![CDATA[
document.addEventListener('DOMContentLoaded', (event) => {
  highlightEdges();
  highlightAdjacentNodes();
});
]]></script>
</svg>
