<?xml version="1.0" encoding="UTF-8" standalone="no"?>
<!DOCTYPE svg PUBLIC "-//W3C//DTD SVG 1.1//EN"
 "http://www.w3.org/Graphics/SVG/1.1/DTD/svg11.dtd">
<!-- Generated by graphviz version 2.43.0 (0)
 -->
<!-- Title: ttg/ttg/parsec/buffer.h Pages: 1 -->
<svg width="1320pt" height="313pt"
 viewBox="0.00 0.00 1319.50 313.00" xmlns="http://www.w3.org/2000/svg" xmlns:xlink="http://www.w3.org/1999/xlink">
<g id="graph0" class="graph" transform="scale(1 1) rotate(0) translate(4 309)">
<title>ttg/ttg/parsec/buffer.h</title>
<!-- Node1 -->
<g id="Node000001" class="node">
<title>Node1</title>
<g id="a_Node000001"><a xlink:title=" ">
<polygon fill="#999999" stroke="#666666" points="701,-305 573,-305 573,-286 701,-286 701,-305"/>
<text text-anchor="middle" x="637" y="-293" font-family="Times,serif" font-size="10.00">ttg/ttg/parsec/buffer.h</text>
</a>
</g>
</g>
<!-- Node2 -->
<g id="Node000002" class="node">
<title>Node2</title>
<g id="a_Node000002"><a xlink:title=" ">
<polygon fill="#e0e0e0" stroke="#999999" points="229,-19 185,-19 185,0 229,0 229,-19"/>
<text text-anchor="middle" x="207" y="-7" font-family="Times,serif" font-size="10.00">array</text>
</a>
</g>
</g>
<!-- Node1&#45;&gt;Node2 -->
<g id="edge1_Node000001_Node000002" class="edge">
<title>Node1&#45;&gt;Node2</title>
<g id="a_edge1_Node000001_Node000002"><a xlink:title=" ">
<path fill="none" stroke="#63b8ff" d="M572.78,-292.52C431.24,-287.73 101.44,-274.11 57,-250 20.36,-230.12 0,-217.19 0,-175.5 0,-175.5 0,-175.5 0,-118.5 0,-40.65 116.49,-18.83 174.7,-12.78"/>
<polygon fill="#63b8ff" stroke="#63b8ff" points="175.22,-16.24 184.85,-11.82 174.56,-9.28 175.22,-16.24"/>
</a>
</g>
</g>
<!-- Node3 -->
<g id="Node000003" class="node">
<title>Node3</title>
<g id="a_Node000003"><a xlink:title=" ">
<polygon fill="#e0e0e0" stroke="#999999" points="76,-184 28,-184 28,-165 76,-165 76,-184"/>
<text text-anchor="middle" x="52" y="-172" font-family="Times,serif" font-size="10.00">vector</text>
</a>
</g>
</g>
<!-- Node1&#45;&gt;Node3 -->
<g id="edge2_Node000001_Node000003" class="edge">
<title>Node1&#45;&gt;Node3</title>
<g id="a_edge2_Node000001_Node000003"><a xlink:title=" ">
<path fill="none" stroke="#63b8ff" d="M572.85,-293.15C434.97,-289.72 119.7,-278.8 81,-250 63.46,-236.95 56.53,-211.76 53.79,-194.3"/>
<polygon fill="#63b8ff" stroke="#63b8ff" points="57.23,-193.65 52.52,-184.16 50.29,-194.51 57.23,-193.65"/>
</a>
</g>
</g>
<!-- Node4 -->
<g id="Node000004" class="node">
<title>Node4</title>
<g id="a_Node000004"><a xlink:title=" ">
<polygon fill="#e0e0e0" stroke="#999999" points="143.5,-244.5 90.5,-244.5 90.5,-225.5 143.5,-225.5 143.5,-244.5"/>
<text text-anchor="middle" x="117" y="-232.5" font-family="Times,serif" font-size="10.00">cassert</text>
</a>
</g>
</g>
<!-- Node1&#45;&gt;Node4 -->
<g id="edge3_Node000001_Node000004" class="edge">
<title>Node1&#45;&gt;Node4</title>
<g id="a_edge3_Node000001_Node000004"><a xlink:title=" ">
<path fill="none" stroke="#63b8ff" d="M572.74,-293.34C480.13,-290.58 304.19,-281.29 158,-250 154.94,-249.34 151.78,-248.53 148.65,-247.63"/>
<polygon fill="#63b8ff" stroke="#63b8ff" points="149.45,-244.21 138.86,-244.53 147.34,-250.88 149.45,-244.21"/>
</a>
</g>
</g>
<!-- Node5 -->
<g id="Node000005" class="node">
<title>Node5</title>
<g id="a_Node000005"><a xlink:title=" ">
<polygon fill="#e0e0e0" stroke="#999999" points="154,-184 94,-184 94,-165 154,-165 154,-184"/>
<text text-anchor="middle" x="124" y="-172" font-family="Times,serif" font-size="10.00">parsec.h</text>
</a>
</g>
</g>
<!-- Node1&#45;&gt;Node5 -->
<g id="edge4_Node000001_Node000005" class="edge">
<title>Node1&#45;&gt;Node5</title>
<g id="a_edge4_Node000001_Node000005"><a xlink:title=" ">
<path fill="none" stroke="#63b8ff" d="M572.7,-293.74C465.64,-291.54 256.16,-283.01 191,-250 165.86,-237.27 145.71,-210.81 134.3,-193.11"/>
<polygon fill="#63b8ff" stroke="#63b8ff" points="137.11,-190.99 128.88,-184.31 131.15,-194.66 137.11,-190.99"/>
</a>
</g>
</g>
<!-- Node6 -->
<g id="Node000006" class="node">
<title>Node6</title>
<g id="a_Node000006"><a xlink:title=" ">
<polygon fill="#e0e0e0" stroke="#999999" points="331.5,-244.5 200.5,-244.5 200.5,-225.5 331.5,-225.5 331.5,-244.5"/>
<text text-anchor="middle" x="266" y="-232.5" font-family="Times,serif" font-size="10.00">parsec/data_internal.h</text>
</a>
</g>
</g>
<!-- Node1&#45;&gt;Node6 -->
<g id="edge5_Node000001_Node000006" class="edge">
<title>Node1&#45;&gt;Node6</title>
<g id="a_edge5_Node000001_Node000006"><a xlink:title=" ">
<path fill="none" stroke="#63b8ff" d="M575.46,-285.98C515.32,-277.49 421.22,-263.76 340,-250 333.42,-248.88 326.52,-247.66 319.69,-246.41"/>
<polygon fill="#63b8ff" stroke="#63b8ff" points="320.25,-242.95 309.78,-244.57 318.97,-249.83 320.25,-242.95"/>
</a>
</g>
</g>
<!-- Node7 -->
<g id="Node000007" class="node">
<title>Node7</title>
<g id="a_Node000007"><a xlink:title=" ">
<polygon fill="#e0e0e0" stroke="#999999" points="984,-184 828,-184 828,-165 984,-165 984,-184"/>
<text text-anchor="middle" x="906" y="-172" font-family="Times,serif" font-size="10.00">parsec/mca/device/device.h</text>
</a>
</g>
</g>
<!-- Node1&#45;&gt;Node7 -->
<g id="edge6_Node000001_Node000007" class="edge">
<title>Node1&#45;&gt;Node7</title>
<g id="a_edge6_Node000001_Node000007"><a xlink:title=" ">
<path fill="none" stroke="#63b8ff" d="M701.03,-286.56C737.41,-280.22 782.95,-269.11 820,-250 848.82,-235.14 876.04,-208.71 891.86,-191.65"/>
<polygon fill="#63b8ff" stroke="#63b8ff" points="894.55,-193.89 898.67,-184.12 889.36,-189.19 894.55,-193.89"/>
</a>
</g>
</g>
<!-- Node8 -->
<g id="Node000008" class="node">
<title>Node8</title>
<g id="a_Node000008"><a xlink:title=" ">
<polygon fill="#e0e0e0" stroke="#999999" points="627,-250 481,-250 481,-220 627,-220 627,-250"/>
<text text-anchor="start" x="489" y="-238" font-family="Times,serif" font-size="10.00">parsec/mca/device/device</text>
<text text-anchor="middle" x="554" y="-227" font-family="Times,serif" font-size="10.00">_gpu.h</text>
</a>
</g>
</g>
<!-- Node1&#45;&gt;Node8 -->
<g id="edge7_Node000001_Node000008" class="edge">
<title>Node1&#45;&gt;Node8</title>
<g id="a_edge7_Node000001_Node000008"><a xlink:title=" ">
<path fill="none" stroke="#63b8ff" d="M624.75,-285.87C613.6,-278 596.7,-266.09 582.21,-255.89"/>
<polygon fill="#63b8ff" stroke="#63b8ff" points="584.22,-253.01 574.03,-250.11 580.18,-258.74 584.22,-253.01"/>
</a>
</g>
</g>
<!-- Node9 -->
<g id="Node000009" class="node">
<title>Node9</title>
<g id="a_Node000009"><a xlink:title=" ">
<polygon fill="#e0e0e0" stroke="#999999" points="795,-244.5 645,-244.5 645,-225.5 795,-225.5 795,-244.5"/>
<text text-anchor="middle" x="720" y="-232.5" font-family="Times,serif" font-size="10.00">parsec/utils/zone_malloc.h</text>
</a>
</g>
</g>
<!-- Node1&#45;&gt;Node9 -->
<g id="edge8_Node000001_Node000009" class="edge">
<title>Node1&#45;&gt;Node9</title>
<g id="a_edge8_Node000001_Node000009"><a xlink:title=" ">
<path fill="none" stroke="#63b8ff" d="M649.25,-285.87C662.36,-276.62 683.42,-261.78 699.15,-250.69"/>
<polygon fill="#63b8ff" stroke="#63b8ff" points="701.55,-253.29 707.7,-244.67 697.51,-247.57 701.55,-253.29"/>
</a>
</g>
</g>
<!-- Node10 -->
<g id="Node000010" class="node">
<title>Node10</title>
<g id="a_Node000010"><a xlink:href="ttg__data__copy_8h.html" target="_top" xlink:title=" ">
<polygon fill="white" stroke="#666666" points="462.5,-250 349.5,-250 349.5,-220 462.5,-220 462.5,-250"/>
<text text-anchor="start" x="357.5" y="-238" font-family="Times,serif" font-size="10.00">ttg/parsec/ttg_data</text>
<text text-anchor="middle" x="406" y="-227" font-family="Times,serif" font-size="10.00">_copy.h</text>
</a>
</g>
</g>
<!-- Node1&#45;&gt;Node10 -->
<g id="edge9_Node000001_Node000010" class="edge">
<title>Node1&#45;&gt;Node10</title>
<g id="a_edge9_Node000001_Node000010"><a xlink:title=" ">
<path fill="none" stroke="#63b8ff" d="M603.41,-285.99C568.93,-277.26 514.39,-263.45 471.37,-252.55"/>
<polygon fill="#63b8ff" stroke="#63b8ff" points="472.09,-249.13 461.54,-250.06 470.37,-255.91 472.09,-249.13"/>
</a>
</g>
</g>
<!-- Node17 -->
<g id="Node000017" class="node">
<title>Node17</title>
<g id="a_Node000017"><a xlink:href="parsec-ext_8h.html" target="_top" xlink:title=" ">
<polygon fill="white" stroke="#666666" points="810,-184 676,-184 676,-165 810,-165 810,-184"/>
<text text-anchor="middle" x="743" y="-172" font-family="Times,serif" font-size="10.00">ttg/parsec/parsec&#45;ext.h</text>
</a>
</g>
</g>
<!-- Node1&#45;&gt;Node17 -->
<g id="edge25_Node000001_Node000017" class="edge">
<title>Node1&#45;&gt;Node17</title>
<g id="a_edge25_Node000001_Node000017"><a xlink:title=" ">
<path fill="none" stroke="#63b8ff" d="M699.13,-285.94C741.06,-278.74 791.02,-266.89 804,-250 812.12,-239.43 810.04,-231.89 804,-220 797.23,-206.68 784.4,-196.41 772.25,-189.1"/>
<polygon fill="#63b8ff" stroke="#63b8ff" points="773.64,-185.87 763.2,-184.09 770.25,-191.99 773.64,-185.87"/>
</a>
</g>
</g>
<!-- Node22 -->
<g id="Node000022" class="node">
<title>Node22</title>
<g id="a_Node000022"><a xlink:href="iovec_8h.html" target="_top" xlink:title=" ">
<polygon fill="white" stroke="#666666" points="1311.5,-129 1222.5,-129 1222.5,-110 1311.5,-110 1311.5,-129"/>
<text text-anchor="middle" x="1267" y="-117" font-family="Times,serif" font-size="10.00">ttg/util/iovec.h</text>
</a>
</g>
</g>
<!-- Node1&#45;&gt;Node22 -->
<g id="edge26_Node000001_Node000022" class="edge">
<title>Node1&#45;&gt;Node22</title>
<g id="a_edge26_Node000001_Node000022"><a xlink:title=" ">
<path fill="none" stroke="#63b8ff" d="M701.33,-295.3C782.13,-294.52 924.11,-287.23 1039,-250 1122.79,-222.85 1210.17,-162.76 1247.84,-135.04"/>
<polygon fill="#63b8ff" stroke="#63b8ff" points="1249.99,-137.8 1255.92,-129.03 1245.81,-132.19 1249.99,-137.8"/>
</a>
</g>
</g>
<!-- Node23 -->
<g id="Node000023" class="node">
<title>Node23</title>
<g id="a_Node000023"><a xlink:href="device_2device_8h.html" target="_top" xlink:title=" ">
<polygon fill="white" stroke="#666666" points="1115.5,-184 1002.5,-184 1002.5,-165 1115.5,-165 1115.5,-184"/>
<text text-anchor="middle" x="1059" y="-172" font-family="Times,serif" font-size="10.00">ttg/device/device.h</text>
</a>
</g>
</g>
<!-- Node1&#45;&gt;Node23 -->
<g id="edge28_Node000001_Node000023" class="edge">
<title>Node1&#45;&gt;Node23</title>
<g id="a_edge28_Node000001_Node000023"><a xlink:title=" ">
<path fill="none" stroke="#63b8ff" d="M701.01,-293.46C794.22,-290.85 961.69,-281.76 1012,-250 1032.56,-237.02 1045.71,-211.43 1052.73,-193.89"/>
<polygon fill="#63b8ff" stroke="#63b8ff" points="1056.12,-194.8 1056.31,-184.2 1049.56,-192.37 1056.12,-194.8"/>
</a>
</g>
</g>
<!-- Node32 -->
<g id="Node000032" class="node">
<title>Node32</title>
<g id="a_Node000032"><a xlink:href="parsec_2device_8h.html" target="_top" xlink:title=" ">
<polygon fill="white" stroke="#666666" points="1002.5,-244.5 889.5,-244.5 889.5,-225.5 1002.5,-225.5 1002.5,-244.5"/>
<text text-anchor="middle" x="946" y="-232.5" font-family="Times,serif" font-size="10.00">ttg/parsec/device.h</text>
</a>
</g>
</g>
<!-- Node1&#45;&gt;Node32 -->
<g id="edge40_Node000001_Node000032" class="edge">
<title>Node1&#45;&gt;Node32</title>
<g id="a_edge40_Node000001_Node000032"><a xlink:title=" ">
<path fill="none" stroke="#63b8ff" d="M683.54,-285.94C731.54,-277.08 808.54,-262.77 875,-250 880.85,-248.88 886.97,-247.69 893.05,-246.5"/>
<polygon fill="#63b8ff" stroke="#63b8ff" points="894.07,-249.87 903.21,-244.51 892.73,-243 894.07,-249.87"/>
</a>
</g>
</g>
<!-- Node33 -->
<g id="Node000033" class="node">
<title>Node33</title>
<g id="a_Node000033"><a xlink:href="devicescope_8h.html" target="_top" xlink:title=" ">
<polygon fill="white" stroke="#666666" points="1278,-244.5 1172,-244.5 1172,-225.5 1278,-225.5 1278,-244.5"/>
<text text-anchor="middle" x="1225" y="-232.5" font-family="Times,serif" font-size="10.00">ttg/devicescope.h</text>
</a>
</g>
</g>
<!-- Node1&#45;&gt;Node33 -->
<g id="edge43_Node000001_Node000033" class="edge">
<title>Node1&#45;&gt;Node33</title>
<g id="a_edge43_Node000001_Node000033"><a xlink:title=" ">
<path fill="none" stroke="#63b8ff" d="M701.05,-291.52C799.63,-286.38 994.3,-274 1158,-250 1164.64,-249.03 1171.6,-247.8 1178.43,-246.48"/>
<polygon fill="#63b8ff" stroke="#63b8ff" points="1179.17,-249.91 1188.28,-244.51 1177.79,-243.04 1179.17,-249.91"/>
</a>
</g>
</g>
<!-- Node10&#45;&gt;Node3 -->
<g id="edge12_Node000010_Node000003" class="edge">
<title>Node10&#45;&gt;Node3</title>
<g id="a_edge12_Node000010_Node000003"><a xlink:title=" ">
<path fill="none" stroke="#63b8ff" d="M349.17,-221.69C346.07,-221.1 343,-220.53 340,-220 230.48,-200.68 199.03,-205.98 86.16,-184.02"/>
<polygon fill="#63b8ff" stroke="#63b8ff" points="86.57,-180.54 76.08,-182.03 85.21,-187.4 86.57,-180.54"/>
</a>
</g>
</g>
<!-- Node10&#45;&gt;Node5 -->
<g id="edge16_Node000010_Node000005" class="edge">
<title>Node10&#45;&gt;Node5</title>
<g id="a_edge16_Node000010_Node000005"><a xlink:title=" ">
<path fill="none" stroke="#63b8ff" d="M349.48,-221.98C346.27,-221.31 343.1,-220.64 340,-220 264.47,-204.31 243.19,-200.81 164.16,-184.22"/>
<polygon fill="#63b8ff" stroke="#63b8ff" points="164.73,-180.77 154.22,-182.13 163.29,-187.62 164.73,-180.77"/>
</a>
</g>
</g>
<!-- Node11 -->
<g id="Node000011" class="node">
<title>Node11</title>
<g id="a_Node000011"><a xlink:title=" ">
<polygon fill="#e0e0e0" stroke="#999999" points="418,-184 372,-184 372,-165 418,-165 418,-184"/>
<text text-anchor="middle" x="395" y="-172" font-family="Times,serif" font-size="10.00">utility</text>
</a>
</g>
</g>
<!-- Node10&#45;&gt;Node11 -->
<g id="edge10_Node000010_Node000011" class="edge">
<title>Node10&#45;&gt;Node11</title>
<g id="a_edge10_Node000010_Node000011"><a xlink:title=" ">
<path fill="none" stroke="#63b8ff" d="M403.34,-219.84C401.89,-212.13 400.07,-202.49 398.51,-194.17"/>
<polygon fill="#63b8ff" stroke="#63b8ff" points="401.94,-193.45 396.65,-184.27 395.06,-194.74 401.94,-193.45"/>
</a>
</g>
</g>
<!-- Node12 -->
<g id="Node000012" class="node">
<title>Node12</title>
<g id="a_Node000012"><a xlink:title=" ">
<polygon fill="#e0e0e0" stroke="#999999" points="480,-184 436,-184 436,-165 480,-165 480,-184"/>
<text text-anchor="middle" x="458" y="-172" font-family="Times,serif" font-size="10.00">limits</text>
</a>
</g>
</g>
<!-- Node10&#45;&gt;Node12 -->
<g id="edge11_Node000010_Node000012" class="edge">
<title>Node10&#45;&gt;Node12</title>
<g id="a_edge11_Node000010_Node000012"><a xlink:title=" ">
<path fill="none" stroke="#63b8ff" d="M418.59,-219.84C426.06,-211.43 435.56,-200.74 443.37,-191.96"/>
<polygon fill="#63b8ff" stroke="#63b8ff" points="446.18,-194.07 450.21,-184.27 440.95,-189.41 446.18,-194.07"/>
</a>
</g>
</g>
<!-- Node13 -->
<g id="Node000013" class="node">
<title>Node13</title>
<g id="a_Node000013"><a xlink:title=" ">
<polygon fill="#e0e0e0" stroke="#999999" points="552,-184 498,-184 498,-165 552,-165 552,-184"/>
<text text-anchor="middle" x="525" y="-172" font-family="Times,serif" font-size="10.00">iterator</text>
</a>
</g>
</g>
<!-- Node10&#45;&gt;Node13 -->
<g id="edge13_Node000010_Node000013" class="edge">
<title>Node10&#45;&gt;Node13</title>
<g id="a_edge13_Node000010_Node000013"><a xlink:title=" ">
<path fill="none" stroke="#63b8ff" d="M434.5,-219.99C453.91,-210.45 479.43,-197.9 498.42,-188.57"/>
<polygon fill="#63b8ff" stroke="#63b8ff" points="500,-191.69 507.43,-184.14 496.91,-185.41 500,-191.69"/>
</a>
</g>
</g>
<!-- Node14 -->
<g id="Node000014" class="node">
<title>Node14</title>
<g id="a_Node000014"><a xlink:title=" ">
<polygon fill="#e0e0e0" stroke="#999999" points="620,-184 570,-184 570,-165 620,-165 620,-184"/>
<text text-anchor="middle" x="595" y="-172" font-family="Times,serif" font-size="10.00">atomic</text>
</a>
</g>
</g>
<!-- Node10&#45;&gt;Node14 -->
<g id="edge14_Node000010_Node000014" class="edge">
<title>Node10&#45;&gt;Node14</title>
<g id="a_edge14_Node000010_Node000014"><a xlink:title=" ">
<path fill="none" stroke="#63b8ff" d="M451.27,-219.99C484.63,-209.66 529.34,-195.82 559.99,-186.34"/>
<polygon fill="#63b8ff" stroke="#63b8ff" points="561.29,-189.6 569.81,-183.3 559.22,-182.91 561.29,-189.6"/>
</a>
</g>
</g>
<!-- Node15 -->
<g id="Node000015" class="node">
<title>Node15</title>
<g id="a_Node000015"><a xlink:title=" ">
<polygon fill="#e0e0e0" stroke="#999999" points="563.5,-19 492.5,-19 492.5,0 563.5,0 563.5,-19"/>
<text text-anchor="middle" x="528" y="-7" font-family="Times,serif" font-size="10.00">type_traits</text>
</a>
</g>
</g>
<!-- Node10&#45;&gt;Node15 -->
<g id="edge15_Node000010_Node000015" class="edge">
<title>Node10&#45;&gt;Node15</title>
<g id="a_edge15_Node000010_Node000015"><a xlink:title=" ">
<path fill="none" stroke="#63b8ff" d="M387.43,-219.89C372.12,-206.41 354.24,-185.2 363,-165 391.78,-98.62 464.69,-47.71 503.24,-24.43"/>
<polygon fill="#63b8ff" stroke="#63b8ff" points="505.42,-27.2 512.25,-19.11 501.86,-21.18 505.42,-27.2"/>
</a>
</g>
</g>
<!-- Node16 -->
<g id="Node000016" class="node">
<title>Node16</title>
<g id="a_Node000016"><a xlink:href="thread__local_8h.html" target="_top" xlink:title=" ">
<polygon fill="white" stroke="#666666" points="315.5,-184 172.5,-184 172.5,-165 315.5,-165 315.5,-184"/>
<text text-anchor="middle" x="244" y="-172" font-family="Times,serif" font-size="10.00">ttg/parsec/thread_local.h</text>
</a>
</g>
</g>
<!-- Node10&#45;&gt;Node16 -->
<g id="edge17_Node000010_Node000016" class="edge">
<title>Node10&#45;&gt;Node16</title>
<g id="a_edge17_Node000010_Node000016"><a xlink:title=" ">
<path fill="none" stroke="#63b8ff" d="M367.2,-219.99C339.81,-210.1 303.48,-196.98 277.39,-187.56"/>
<polygon fill="#63b8ff" stroke="#63b8ff" points="278.52,-184.24 267.92,-184.14 276.14,-190.83 278.52,-184.24"/>
</a>
</g>
</g>
<!-- Node10&#45;&gt;Node17 -->
<g id="edge18_Node000010_Node000017" class="edge">
<title>Node10&#45;&gt;Node17</title>
<g id="a_edge18_Node000010_Node000017"><a xlink:title=" ">
<path fill="none" stroke="#63b8ff" d="M462.85,-221.77C465.94,-221.16 469.01,-220.56 472,-220 541.48,-206.93 621.38,-194.08 676.33,-185.57"/>
<polygon fill="#63b8ff" stroke="#63b8ff" points="676.94,-189.01 686.29,-184.03 675.87,-182.1 676.94,-189.01"/>
</a>
</g>
</g>
<!-- Node18 -->
<g id="Node000018" class="node">
<title>Node18</title>
<g id="a_Node000018"><a xlink:href="span_8h.html" target="_top" xlink:title=" ">
<polygon fill="white" stroke="#666666" points="692,-74 604,-74 604,-55 692,-55 692,-74"/>
<text text-anchor="middle" x="648" y="-62" font-family="Times,serif" font-size="10.00">ttg/util/span.h</text>
</a>
</g>
</g>
<!-- Node10&#45;&gt;Node18 -->
<g id="edge19_Node000010_Node000018" class="edge">
<title>Node10&#45;&gt;Node18</title>
<g id="a_edge19_Node000010_Node000018"><a xlink:title=" ">
<path fill="none" stroke="#63b8ff" d="M462.66,-221.7C528.25,-207.4 627.55,-185.55 629,-184 654.49,-156.89 653.66,-109.94 650.83,-84.02"/>
<polygon fill="#63b8ff" stroke="#63b8ff" points="654.29,-83.49 649.52,-74.03 647.35,-84.4 654.29,-83.49"/>
</a>
</g>
</g>
<!-- Node18&#45;&gt;Node2 -->
<g id="edge20_Node000018_Node000002" class="edge">
<title>Node18&#45;&gt;Node2</title>
<g id="a_edge20_Node000018_Node000002"><a xlink:title=" ">
<path fill="none" stroke="#63b8ff" d="M603.7,-58.18C515.04,-47.52 317.62,-23.8 239.62,-14.42"/>
<polygon fill="#63b8ff" stroke="#63b8ff" points="239.77,-10.91 229.43,-13.2 238.94,-17.86 239.77,-10.91"/>
</a>
</g>
</g>
<!-- Node18&#45;&gt;Node15 -->
<g id="edge23_Node000018_Node000015" class="edge">
<title>Node18&#45;&gt;Node15</title>
<g id="a_edge23_Node000018_Node000015"><a xlink:title=" ">
<path fill="none" stroke="#63b8ff" d="M628.72,-54.98C609.33,-46.42 579.19,-33.11 556.93,-23.28"/>
<polygon fill="#63b8ff" stroke="#63b8ff" points="558.19,-20.01 547.63,-19.17 555.36,-26.41 558.19,-20.01"/>
</a>
</g>
</g>
<!-- Node19 -->
<g id="Node000019" class="node">
<title>Node19</title>
<g id="a_Node000019"><a xlink:title=" ">
<polygon fill="#e0e0e0" stroke="#999999" points="636,-19 582,-19 582,0 636,0 636,-19"/>
<text text-anchor="middle" x="609" y="-7" font-family="Times,serif" font-size="10.00">cstddef</text>
</a>
</g>
</g>
<!-- Node18&#45;&gt;Node19 -->
<g id="edge21_Node000018_Node000019" class="edge">
<title>Node18&#45;&gt;Node19</title>
<g id="a_edge21_Node000018_Node000019"><a xlink:title=" ">
<path fill="none" stroke="#63b8ff" d="M641.56,-54.75C636.11,-47.34 628.14,-36.5 621.44,-27.41"/>
<polygon fill="#63b8ff" stroke="#63b8ff" points="624.07,-25.07 615.32,-19.09 618.43,-29.22 624.07,-25.07"/>
</a>
</g>
</g>
<!-- Node20 -->
<g id="Node000020" class="node">
<title>Node20</title>
<g id="a_Node000020"><a xlink:title=" ">
<polygon fill="#e0e0e0" stroke="#999999" points="789.5,-19 738.5,-19 738.5,0 789.5,0 789.5,-19"/>
<text text-anchor="middle" x="764" y="-7" font-family="Times,serif" font-size="10.00">cstdint</text>
</a>
</g>
</g>
<!-- Node18&#45;&gt;Node20 -->
<g id="edge22_Node000018_Node000020" class="edge">
<title>Node18&#45;&gt;Node20</title>
<g id="a_edge22_Node000018_Node000020"><a xlink:title=" ">
<path fill="none" stroke="#63b8ff" d="M666.64,-54.98C685.3,-46.46 714.25,-33.23 735.74,-23.41"/>
<polygon fill="#63b8ff" stroke="#63b8ff" points="737.38,-26.51 745.02,-19.17 734.47,-20.14 737.38,-26.51"/>
</a>
</g>
</g>
<!-- Node21 -->
<g id="Node000021" class="node">
<title>Node21</title>
<g id="a_Node000021"><a xlink:title=" ">
<polygon fill="#e0e0e0" stroke="#999999" points="720,-19 654,-19 654,0 720,0 720,-19"/>
<text text-anchor="middle" x="687" y="-7" font-family="Times,serif" font-size="10.00">exception</text>
</a>
</g>
</g>
<!-- Node18&#45;&gt;Node21 -->
<g id="edge24_Node000018_Node000021" class="edge">
<title>Node18&#45;&gt;Node21</title>
<g id="a_edge24_Node000018_Node000021"><a xlink:title=" ">
<path fill="none" stroke="#63b8ff" d="M654.44,-54.75C659.89,-47.34 667.86,-36.5 674.56,-27.41"/>
<polygon fill="#63b8ff" stroke="#63b8ff" points="677.57,-29.22 680.68,-19.09 671.93,-25.07 677.57,-29.22"/>
</a>
</g>
</g>
<!-- Node22&#45;&gt;Node20 -->
<g id="edge27_Node000022_Node000020" class="edge">
<title>Node22&#45;&gt;Node20</title>
<g id="a_edge27_Node000022_Node000020"><a xlink:title=" ">
<path fill="none" stroke="#63b8ff" d="M1242.36,-109.99C1202.56,-96.53 1121.47,-70.31 1051,-55 943.57,-31.66 911.88,-39.87 799.58,-18.91"/>
<polygon fill="#63b8ff" stroke="#63b8ff" points="800.03,-15.44 789.55,-17.01 798.72,-22.31 800.03,-15.44"/>
</a>
</g>
</g>
<!-- Node24 -->
<g id="Node000024" class="node">
<title>Node24</title>
<g id="a_Node000024"><a xlink:title=" ">
<polygon fill="#e0e0e0" stroke="#999999" points="1093.5,-129 1018.5,-129 1018.5,-110 1093.5,-110 1093.5,-129"/>
<text text-anchor="middle" x="1056" y="-117" font-family="Times,serif" font-size="10.00">ttg/config.h</text>
</a>
</g>
</g>
<!-- Node23&#45;&gt;Node24 -->
<g id="edge29_Node000023_Node000024" class="edge">
<title>Node23&#45;&gt;Node24</title>
<g id="a_edge29_Node000023_Node000024"><a xlink:title=" ">
<path fill="none" stroke="#63b8ff" d="M1058.5,-164.75C1058.11,-157.8 1057.55,-147.85 1057.05,-139.13"/>
<polygon fill="#63b8ff" stroke="#63b8ff" points="1060.55,-138.88 1056.49,-129.09 1053.56,-139.27 1060.55,-138.88"/>
</a>
</g>
</g>
<!-- Node25 -->
<g id="Node000025" class="node">
<title>Node25</title>
<g id="a_Node000025"><a xlink:href="execution_8h.html" target="_top" xlink:title=" ">
<polygon fill="white" stroke="#666666" points="1204.5,-129 1111.5,-129 1111.5,-110 1204.5,-110 1204.5,-129"/>
<text text-anchor="middle" x="1158" y="-117" font-family="Times,serif" font-size="10.00">ttg/execution.h</text>
</a>
</g>
</g>
<!-- Node23&#45;&gt;Node25 -->
<g id="edge30_Node000023_Node000025" class="edge">
<title>Node23&#45;&gt;Node25</title>
<g id="a_edge30_Node000023_Node000025"><a xlink:title=" ">
<path fill="none" stroke="#63b8ff" d="M1074.91,-164.98C1090.55,-156.61 1114.66,-143.7 1132.88,-133.95"/>
<polygon fill="#63b8ff" stroke="#63b8ff" points="1134.64,-136.98 1141.8,-129.17 1131.34,-130.8 1134.64,-136.98"/>
</a>
</g>
</g>
<!-- Node26 -->
<g id="Node000026" class="node">
<title>Node26</title>
<g id="a_Node000026"><a xlink:href="impl__selector_8h.html" target="_top" xlink:title=" ">
<polygon fill="white" stroke="#666666" points="1042,-74 932,-74 932,-55 1042,-55 1042,-74"/>
<text text-anchor="middle" x="987" y="-62" font-family="Times,serif" font-size="10.00">ttg/impl_selector.h</text>
</a>
</g>
</g>
<!-- Node23&#45;&gt;Node26 -->
<g id="edge31_Node000023_Node000026" class="edge">
<title>Node23&#45;&gt;Node26</title>
<g id="a_edge31_Node000023_Node000026"><a xlink:title=" ">
<path fill="none" stroke="#63b8ff" d="M1046.55,-164.94C1035.58,-156.82 1019.85,-143.7 1010,-129 1000.82,-115.3 994.78,-97.49 991.21,-84.22"/>
<polygon fill="#63b8ff" stroke="#63b8ff" points="994.56,-83.2 988.77,-74.33 987.77,-84.88 994.56,-83.2"/>
</a>
</g>
</g>
<!-- Node27 -->
<g id="Node000027" class="node">
<title>Node27</title>
<g id="a_Node000027"><a xlink:href="fwd_8h.html" target="_top" xlink:title=" ">
<polygon fill="white" stroke="#666666" points="962,-129 900,-129 900,-110 962,-110 962,-129"/>
<text text-anchor="middle" x="931" y="-117" font-family="Times,serif" font-size="10.00">ttg/fwd.h</text>
</a>
</g>
</g>
<!-- Node23&#45;&gt;Node27 -->
<g id="edge32_Node000023_Node000027" class="edge">
<title>Node23&#45;&gt;Node27</title>
<g id="a_edge32_Node000023_Node000027"><a xlink:title=" ">
<path fill="none" stroke="#63b8ff" d="M1038.43,-164.98C1017.57,-156.34 985.03,-142.87 961.23,-133.02"/>
<polygon fill="#63b8ff" stroke="#63b8ff" points="962.52,-129.76 951.94,-129.17 959.84,-136.23 962.52,-129.76"/>
</a>
</g>
</g>
<!-- Node28 -->
<g id="Node000028" class="node">
<title>Node28</title>
<g id="a_Node000028"><a xlink:href="meta_8h.html" target="_top" xlink:title=" ">
<polygon fill="white" stroke="#666666" points="816.5,-129 727.5,-129 727.5,-110 816.5,-110 816.5,-129"/>
<text text-anchor="middle" x="772" y="-117" font-family="Times,serif" font-size="10.00">ttg/util/meta.h</text>
</a>
</g>
</g>
<!-- Node23&#45;&gt;Node28 -->
<g id="edge34_Node000023_Node000028" class="edge">
<title>Node23&#45;&gt;Node28</title>
<g id="a_edge34_Node000023_Node000028"><a xlink:title=" ">
<path fill="none" stroke="#63b8ff" d="M1012.89,-164.98C962.13,-155.61 880.58,-140.55 826.65,-130.59"/>
<polygon fill="#63b8ff" stroke="#63b8ff" points="827.05,-127.11 816.58,-128.73 825.78,-133.99 827.05,-127.11"/>
</a>
</g>
</g>
<!-- Node27&#45;&gt;Node26 -->
<g id="edge33_Node000027_Node000026" class="edge">
<title>Node27&#45;&gt;Node26</title>
<g id="a_edge33_Node000027_Node000026"><a xlink:title=" ">
<path fill="none" stroke="#63b8ff" d="M940,-109.98C948.19,-102.23 960.51,-90.58 970.47,-81.14"/>
<polygon fill="#63b8ff" stroke="#63b8ff" points="972.98,-83.59 977.84,-74.17 968.17,-78.5 972.98,-83.59"/>
</a>
</g>
</g>
<!-- Node28&#45;&gt;Node15 -->
<g id="edge36_Node000028_Node000015" class="edge">
<title>Node28&#45;&gt;Node15</title>
<g id="a_edge36_Node000028_Node000015"><a xlink:title=" ">
<path fill="none" stroke="#63b8ff" d="M727.14,-113.65C689.91,-108.16 636.52,-96.81 595,-74 573.4,-62.13 553.57,-41.6 541.18,-27.1"/>
<polygon fill="#63b8ff" stroke="#63b8ff" points="543.86,-24.85 534.79,-19.37 538.46,-29.31 543.86,-24.85"/>
</a>
</g>
</g>
<!-- Node28&#45;&gt;Node18 -->
<g id="edge37_Node000028_Node000018" class="edge">
<title>Node28&#45;&gt;Node18</title>
<g id="a_edge37_Node000028_Node000018"><a xlink:title=" ">
<path fill="none" stroke="#63b8ff" d="M752.08,-109.98C731.95,-101.38 700.62,-87.99 677.59,-78.15"/>
<polygon fill="#63b8ff" stroke="#63b8ff" points="678.86,-74.88 668.29,-74.17 676.1,-81.32 678.86,-74.88"/>
</a>
</g>
</g>
<!-- Node29 -->
<g id="Node000029" class="node">
<title>Node29</title>
<g id="a_Node000029"><a xlink:title=" ">
<polygon fill="#e0e0e0" stroke="#999999" points="909,-74 841,-74 841,-55 909,-55 909,-74"/>
<text text-anchor="middle" x="875" y="-62" font-family="Times,serif" font-size="10.00">functional</text>
</a>
</g>
</g>
<!-- Node28&#45;&gt;Node29 -->
<g id="edge35_Node000028_Node000029" class="edge">
<title>Node28&#45;&gt;Node29</title>
<g id="a_edge35_Node000028_Node000029"><a xlink:title=" ">
<path fill="none" stroke="#63b8ff" d="M788.55,-109.98C804.89,-101.57 830.13,-88.59 849.13,-78.81"/>
<polygon fill="#63b8ff" stroke="#63b8ff" points="850.86,-81.86 858.15,-74.17 847.66,-75.63 850.86,-81.86"/>
</a>
</g>
</g>
<!-- Node30 -->
<g id="Node000030" class="node">
<title>Node30</title>
<g id="a_Node000030"><a xlink:href="typelist_8h.html" target="_top" xlink:title=" ">
<polygon fill="white" stroke="#666666" points="822.5,-74 721.5,-74 721.5,-55 822.5,-55 822.5,-74"/>
<text text-anchor="middle" x="772" y="-62" font-family="Times,serif" font-size="10.00">ttg/util/typelist.h</text>
</a>
</g>
</g>
<!-- Node28&#45;&gt;Node30 -->
<g id="edge38_Node000028_Node000030" class="edge">
<title>Node28&#45;&gt;Node30</title>
<g id="a_edge38_Node000028_Node000030"><a xlink:title=" ">
<path fill="none" stroke="#63b8ff" d="M772,-109.75C772,-102.8 772,-92.85 772,-84.13"/>
<polygon fill="#63b8ff" stroke="#63b8ff" points="775.5,-84.09 772,-74.09 768.5,-84.09 775.5,-84.09"/>
</a>
</g>
</g>
<!-- Node31 -->
<g id="Node000031" class="node">
<title>Node31</title>
<g id="a_Node000031"><a xlink:title=" ">
<polygon fill="#e0e0e0" stroke="#999999" points="850.5,-19 807.5,-19 807.5,0 850.5,0 850.5,-19"/>
<text text-anchor="middle" x="829" y="-7" font-family="Times,serif" font-size="10.00">tuple</text>
</a>
</g>
</g>
<!-- Node30&#45;&gt;Node31 -->
<g id="edge39_Node000030_Node000031" class="edge">
<title>Node30&#45;&gt;Node31</title>
<g id="a_edge39_Node000030_Node000031"><a xlink:title=" ">
<path fill="none" stroke="#63b8ff" d="M781.16,-54.98C789.5,-47.23 802.03,-35.58 812.18,-26.14"/>
<polygon fill="#63b8ff" stroke="#63b8ff" points="814.74,-28.54 819.68,-19.17 809.97,-23.42 814.74,-28.54"/>
</a>
</g>
</g>
<!-- Node32&#45;&gt;Node7 -->
<g id="edge42_Node000032_Node000007" class="edge">
<title>Node32&#45;&gt;Node7</title>
<g id="a_edge42_Node000032_Node000007"><a xlink:title=" ">
<path fill="none" stroke="#63b8ff" d="M940.1,-225.37C934.25,-216.81 925.13,-203.47 917.79,-192.74"/>
<polygon fill="#63b8ff" stroke="#63b8ff" points="920.46,-190.45 911.93,-184.17 914.68,-194.4 920.46,-190.45"/>
</a>
</g>
</g>
<!-- Node32&#45;&gt;Node23 -->
<g id="edge41_Node000032_Node000023" class="edge">
<title>Node32&#45;&gt;Node23</title>
<g id="a_edge41_Node000032_Node000023"><a xlink:title=" ">
<path fill="none" stroke="#63b8ff" d="M962.67,-225.37C981.28,-215.73 1011.62,-200.03 1033.28,-188.81"/>
<polygon fill="#63b8ff" stroke="#63b8ff" points="1034.99,-191.87 1042.26,-184.17 1031.77,-185.66 1034.99,-191.87"/>
</a>
</g>
</g>
</g>
</svg>
