<?xml version="1.0" encoding="UTF-8" standalone="no"?>
<!DOCTYPE svg PUBLIC "-//W3C//DTD SVG 1.1//EN"
 "http://www.w3.org/Graphics/SVG/1.1/DTD/svg11.dtd">
<!-- Generated by graphviz version 2.43.0 (0)
 -->
<!-- Title: ttg/ttg/util/print.h Pages: 1 -->
<!--zoomable 764 -->

<svg id="main" version="1.1" xmlns="http://www.w3.org/2000/svg" xmlns:xlink="http://www.w3.org/1999/xlink" xml:space="preserve" onload="init(evt)">
<style type="text/css"><![CDATA[
.node, .edge {opacity: 0.7;}
.node.selected, .edge.selected {opacity: 1;}
.edge:hover path { stroke: red; }
.edge:hover polygon { stroke: red; fill: red; }
]]></style>

<defs>
  <circle id="rim" cx="0" cy="0" r="7"/>
  <circle id="rim2" cx="0" cy="0" r="3.5"/>
  <g id="zoomPlus">
    <use xlink:href="#rim" fill="#404040"><set attributeName="fill" to="#808080" begin="zoomplus.mouseover" end="zoomplus.mouseout"/></use>
    <path d="M-4,0h8M0,-4v8" fill="none" stroke="white" stroke-width="1.5" pointer-events="none"/>
  </g>
  <g id="zoomMin">
    <use xlink:href="#rim" fill="#404040"><set attributeName="fill" to="#808080" begin="zoomminus.mouseover" end="zoomminus.mouseout"/></use>
    <path d="M-4,0h8" fill="none" stroke="white" stroke-width="1.5" pointer-events="none"/>
  </g>
  <g id="arrowUp" transform="translate(30 24)">
    <use xlink:href="#rim"/>
    <path pointer-events="none" fill="none" stroke="white" stroke-width="1.5" d="M0,-3.0v7 M-2.5,-0.5L0,-3.0L2.5,-0.5"/>
  </g>
  <g id="arrowRight" transform="rotate(90) translate(36 -43)">
    <use xlink:href="#rim"/>
    <path pointer-events="none" fill="none" stroke="white" stroke-width="1.5" d="M0,-3.0v7 M-2.5,-0.5L0,-3.0L2.5,-0.5"/>
  </g>
  <g id="arrowDown" transform="rotate(180) translate(-30 -48)">
    <use xlink:href="#rim"/>
    <path pointer-events="none" fill="none" stroke="white" stroke-width="1.5" d="M0,-3.0v7 M-2.5,-0.5L0,-3.0L2.5,-0.5"/>
  </g>
  <g id="arrowLeft" transform="rotate(270) translate(-36 17)">
    <use xlink:href="#rim"/>
    <path pointer-events="none" fill="none" stroke="white" stroke-width="1.5" d="M0,-3.0v7 M-2.5,-0.5L0,-3.0L2.5,-0.5"/>
  </g>
  <g id="resetDef">
    <use xlink:href="#rim2" fill="#404040"><set attributeName="fill" to="#808080" begin="reset.mouseover" end="reset.mouseout"/></use>
  </g>
</defs>
<script type="application/ecmascript">
var viewWidth = 1483;
var viewHeight = 764;
var sectionId = 'dynsection-1';
</script>
<script type="application/ecmascript" xlink:href="svg.min.js"/>
<svg id="graph" class="graph">
<g id="viewport">
<title>ttg/ttg/util/print.h</title>
<!-- Node1 -->
<g id="Node000001" class="node">
<title>Node1</title>
<g id="a_Node000001"><a xlink:title=" ">
<polygon fill="#999999" stroke="#666666" points="941.5,-756 836.5,-756 836.5,-737 941.5,-737 941.5,-756"/>
<text text-anchor="middle" x="889" y="-744" font-family="Times,serif" font-size="10.00">ttg/ttg/util/print.h</text>
</a>
</g>
</g>
<!-- Node2 -->
<g id="Node000002" class="node">
<title>Node2</title>
<g id="a_Node000002"><a xlink:href="ttg_8h.html" target="_top" xlink:title=" ">
<polygon fill="white" stroke="#666666" points="843,-96 785,-96 785,-77 843,-77 843,-96"/>
<text text-anchor="middle" x="814" y="-84" font-family="Times,serif" font-size="10.00">ttg/ttg.h</text>
</a>
</g>
</g>
<!-- Node1&#45;&gt;Node2 -->
<g id="edge1_Node000001_Node000002" class="edge">
<title>Node1&#45;&gt;Node2</title>
<g id="a_edge1_Node000001_Node000002"><a xlink:title=" ">
<path fill="none" stroke="#63b8ff" d="M920.29,-732.77C954.95,-716.36 1006,-684.25 1006,-637.5 1006,-637.5 1006,-637.5 1006,-195.5 1006,-121.69 896.87,-97.79 843.16,-90.49"/>
<polygon fill="#63b8ff" stroke="#63b8ff" points="918.67,-729.67 911.01,-736.99 921.56,-736.04 918.67,-729.67"/>
</a>
</g>
</g>
<!-- Node11 -->
<g id="Node000011" class="node">
<title>Node11</title>
<g id="a_Node000011"><a xlink:href="ttg_2parsec_2ttg_8h.html" target="_top" xlink:title=" ">
<polygon fill="white" stroke="#666666" points="246,-30 134,-30 134,-11 246,-11 246,-30"/>
<text text-anchor="middle" x="190" y="-18" font-family="Times,serif" font-size="10.00">ttg/ttg/parsec/ttg.h</text>
</a>
</g>
</g>
<!-- Node1&#45;&gt;Node11 -->
<g id="edge31_Node000001_Node000011" class="edge">
<title>Node1&#45;&gt;Node11</title>
<g id="a_edge31_Node000001_Node000011"><a xlink:title=" ">
<path fill="none" stroke="#63b8ff" d="M826.2,-744.47C623.53,-740.34 0,-720.83 0,-637.5 0,-637.5 0,-637.5 0,-140.5 0,-73.75 85.27,-43.03 141.56,-30.02"/>
<polygon fill="#63b8ff" stroke="#63b8ff" points="826.31,-747.98 836.38,-744.67 826.45,-740.98 826.31,-747.98"/>
</a>
</g>
</g>
<!-- Node12 -->
<g id="Node000012" class="node">
<title>Node12</title>
<g id="a_Node000012"><a xlink:href="edge_8h.html" target="_top" xlink:title=" ">
<polygon fill="white" stroke="#666666" points="788,-371 702,-371 702,-352 788,-352 788,-371"/>
<text text-anchor="middle" x="745" y="-359" font-family="Times,serif" font-size="10.00">ttg/ttg/edge.h</text>
</a>
</g>
</g>
<!-- Node1&#45;&gt;Node12 -->
<g id="edge11_Node000001_Node000012" class="edge">
<title>Node1&#45;&gt;Node12</title>
<g id="a_edge11_Node000001_Node000012"><a xlink:title=" ">
<path fill="none" stroke="#63b8ff" d="M892.03,-726.68C893.68,-714.05 895.18,-697.02 894,-682 886.25,-583 894.2,-553.24 855,-462 843.47,-435.16 840.05,-427.26 819,-407 802.8,-391.41 780.18,-378.81 764.22,-371.05"/>
<polygon fill="#63b8ff" stroke="#63b8ff" points="888.52,-726.47 890.54,-736.87 895.45,-727.49 888.52,-726.47"/>
</a>
</g>
</g>
<!-- Node18 -->
<g id="Node000018" class="node">
<title>Node18</title>
<g id="a_Node000018"><a xlink:href="trace_8h.html" target="_top" xlink:title=" ">
<polygon fill="white" stroke="#666666" points="885,-701 779,-701 779,-682 885,-682 885,-701"/>
<text text-anchor="middle" x="832" y="-689" font-family="Times,serif" font-size="10.00">ttg/ttg/util/trace.h</text>
</a>
</g>
</g>
<!-- Node1&#45;&gt;Node18 -->
<g id="edge32_Node000001_Node000018" class="edge">
<title>Node1&#45;&gt;Node18</title>
<g id="a_edge32_Node000001_Node000018"><a xlink:title=" ">
<path fill="none" stroke="#63b8ff" d="M872.38,-730.04C862.27,-720.64 849.72,-708.98 841.32,-701.17"/>
<polygon fill="#63b8ff" stroke="#63b8ff" points="870.14,-732.74 879.84,-736.98 874.9,-727.61 870.14,-732.74"/>
</a>
</g>
</g>
<!-- Node3 -->
<g id="Node000003" class="node">
<title>Node3</title>
<g id="a_Node000003"><a xlink:href="fibonacci_8cc.html" target="_top" xlink:title=" ">
<polygon fill="white" stroke="#666666" points="1329,-35.5 1201,-35.5 1201,-5.5 1329,-5.5 1329,-35.5"/>
<text text-anchor="start" x="1209" y="-23.5" font-family="Times,serif" font-size="10.00">doc/dox/dev/devsamp</text>
<text text-anchor="middle" x="1265" y="-12.5" font-family="Times,serif" font-size="10.00">/fibonacci/fibonacci.cc</text>
</a>
</g>
</g>
<!-- Node2&#45;&gt;Node3 -->
<g id="edge2_Node000002_Node000003" class="edge">
<title>Node2&#45;&gt;Node3</title>
<g id="a_edge2_Node000002_Node000003"><a xlink:title=" ">
<path fill="none" stroke="#63b8ff" d="M853.13,-82.76C922.06,-77.52 1069.46,-64.45 1192,-41 1199.86,-39.5 1208.12,-37.6 1216.14,-35.59"/>
<polygon fill="#63b8ff" stroke="#63b8ff" points="852.86,-79.27 843.15,-83.51 853.38,-86.25 852.86,-79.27"/>
</a>
</g>
</g>
<!-- Node4 -->
<g id="Node000004" class="node">
<title>Node4</title>
<g id="a_Node000004"><a xlink:href="fibonacci__device_8cc.html" target="_top" xlink:title=" ">
<polygon fill="white" stroke="#666666" points="1475,-41 1347,-41 1347,0 1475,0 1475,-41"/>
<text text-anchor="start" x="1355" y="-29" font-family="Times,serif" font-size="10.00">doc/dox/dev/devsamp</text>
<text text-anchor="start" x="1355" y="-18" font-family="Times,serif" font-size="10.00">/fibonacci/fibonacci</text>
<text text-anchor="middle" x="1411" y="-7" font-family="Times,serif" font-size="10.00">_device.cc</text>
</a>
</g>
</g>
<!-- Node2&#45;&gt;Node4 -->
<g id="edge3_Node000002_Node000004" class="edge">
<title>Node2&#45;&gt;Node4</title>
<g id="a_edge3_Node000002_Node000004"><a xlink:title=" ">
<path fill="none" stroke="#63b8ff" d="M853.22,-84.53C940.8,-81.84 1158.67,-72.31 1338,-41 1340.84,-40.5 1343.74,-39.95 1346.65,-39.35"/>
<polygon fill="#63b8ff" stroke="#63b8ff" points="853.09,-81.03 843.2,-84.82 853.3,-88.03 853.09,-81.03"/>
</a>
</g>
</g>
<!-- Node5 -->
<g id="Node000005" class="node">
<title>Node5</title>
<g id="a_Node000005"><a xlink:href="helloworld_8cpp.html" target="_top" xlink:title=" ">
<polygon fill="white" stroke="#666666" points="574.5,-35.5 423.5,-35.5 423.5,-5.5 574.5,-5.5 574.5,-35.5"/>
<text text-anchor="start" x="431.5" y="-23.5" font-family="Times,serif" font-size="10.00">doc/dox/dev/devsamp</text>
<text text-anchor="middle" x="499" y="-12.5" font-family="Times,serif" font-size="10.00">/helloworld/helloworld.cpp</text>
</a>
</g>
</g>
<!-- Node2&#45;&gt;Node5 -->
<g id="edge4_Node000002_Node000005" class="edge">
<title>Node2&#45;&gt;Node5</title>
<g id="a_edge4_Node000002_Node000005"><a xlink:title=" ">
<path fill="none" stroke="#63b8ff" d="M774.78,-78.34C728.94,-69.87 650.82,-55.12 584,-41 575.85,-39.28 567.28,-37.4 558.85,-35.5"/>
<polygon fill="#63b8ff" stroke="#63b8ff" points="774.42,-81.83 784.89,-80.2 775.69,-74.95 774.42,-81.83"/>
</a>
</g>
</g>
<!-- Node6 -->
<g id="Node000006" class="node">
<title>Node6</title>
<g id="a_Node000006"><a xlink:href="distributed_8cc.html" target="_top" xlink:title=" ">
<polygon fill="white" stroke="#666666" points="727,-35.5 593,-35.5 593,-5.5 727,-5.5 727,-35.5"/>
<text text-anchor="start" x="601" y="-23.5" font-family="Times,serif" font-size="10.00">doc/dox/user/examples</text>
<text text-anchor="middle" x="660" y="-12.5" font-family="Times,serif" font-size="10.00">/distributed.cc</text>
</a>
</g>
</g>
<!-- Node2&#45;&gt;Node6 -->
<g id="edge5_Node000002_Node000006" class="edge">
<title>Node2&#45;&gt;Node6</title>
<g id="a_edge5_Node000002_Node000006"><a xlink:title=" ">
<path fill="none" stroke="#63b8ff" d="M783.93,-73C758.1,-62.27 720.87,-46.8 693.97,-35.62"/>
<polygon fill="#63b8ff" stroke="#63b8ff" points="782.65,-76.26 793.23,-76.87 785.34,-69.8 782.65,-76.26"/>
</a>
</g>
</g>
<!-- Node7 -->
<g id="Node000007" class="node">
<title>Node7</title>
<g id="a_Node000007"><a xlink:href="iterative_8cc.html" target="_top" xlink:title=" ">
<polygon fill="white" stroke="#666666" points="879,-35.5 745,-35.5 745,-5.5 879,-5.5 879,-35.5"/>
<text text-anchor="start" x="753" y="-23.5" font-family="Times,serif" font-size="10.00">doc/dox/user/examples</text>
<text text-anchor="middle" x="812" y="-12.5" font-family="Times,serif" font-size="10.00">/iterative.cc</text>
</a>
</g>
</g>
<!-- Node2&#45;&gt;Node7 -->
<g id="edge6_Node000002_Node000007" class="edge">
<title>Node2&#45;&gt;Node7</title>
<g id="a_edge6_Node000002_Node000007"><a xlink:title=" ">
<path fill="none" stroke="#63b8ff" d="M813.42,-66.85C813.11,-56.97 812.73,-45.01 812.45,-35.86"/>
<polygon fill="#63b8ff" stroke="#63b8ff" points="809.92,-66.98 813.73,-76.87 816.92,-66.76 809.92,-66.98"/>
</a>
</g>
</g>
<!-- Node8 -->
<g id="Node000008" class="node">
<title>Node8</title>
<g id="a_Node000008"><a xlink:href="reducing_8cc.html" target="_top" xlink:title=" ">
<polygon fill="white" stroke="#666666" points="1031,-35.5 897,-35.5 897,-5.5 1031,-5.5 1031,-35.5"/>
<text text-anchor="start" x="905" y="-23.5" font-family="Times,serif" font-size="10.00">doc/dox/user/examples</text>
<text text-anchor="middle" x="964" y="-12.5" font-family="Times,serif" font-size="10.00">/reducing.cc</text>
</a>
</g>
</g>
<!-- Node2&#45;&gt;Node8 -->
<g id="edge7_Node000002_Node000008" class="edge">
<title>Node2&#45;&gt;Node8</title>
<g id="a_edge7_Node000002_Node000008"><a xlink:title=" ">
<path fill="none" stroke="#63b8ff" d="M843.62,-72.86C868.77,-62.13 904.83,-46.75 930.92,-35.62"/>
<polygon fill="#63b8ff" stroke="#63b8ff" points="842.05,-69.73 834.23,-76.87 844.8,-76.16 842.05,-69.73"/>
</a>
</g>
</g>
<!-- Node9 -->
<g id="Node000009" class="node">
<title>Node9</title>
<g id="a_Node000009"><a xlink:href="simple_8cc.html" target="_top" xlink:title=" ">
<polygon fill="white" stroke="#666666" points="1183,-35.5 1049,-35.5 1049,-5.5 1183,-5.5 1183,-35.5"/>
<text text-anchor="start" x="1057" y="-23.5" font-family="Times,serif" font-size="10.00">doc/dox/user/examples</text>
<text text-anchor="middle" x="1116" y="-12.5" font-family="Times,serif" font-size="10.00">/simple.cc</text>
</a>
</g>
</g>
<!-- Node2&#45;&gt;Node9 -->
<g id="edge8_Node000002_Node000009" class="edge">
<title>Node2&#45;&gt;Node9</title>
<g id="a_edge8_Node000002_Node000009"><a xlink:title=" ">
<path fill="none" stroke="#63b8ff" d="M852.97,-78.52C898.12,-70.28 974.69,-55.8 1040,-41 1047.44,-39.31 1055.26,-37.43 1062.94,-35.52"/>
<polygon fill="#63b8ff" stroke="#63b8ff" points="852.22,-75.1 843.01,-80.33 853.47,-81.99 852.22,-75.1"/>
</a>
</g>
</g>
<!-- Node10 -->
<g id="Node000010" class="node">
<title>Node10</title>
<g id="a_Node000010"><a xlink:href="ttg_2madness_2ttg_8h.html" target="_top" xlink:title=" ">
<polygon fill="white" stroke="#666666" points="405,-30 281,-30 281,-11 405,-11 405,-30"/>
<text text-anchor="middle" x="343" y="-18" font-family="Times,serif" font-size="10.00">ttg/ttg/madness/ttg.h</text>
</a>
</g>
</g>
<!-- Node2&#45;&gt;Node10 -->
<g id="edge9_Node000002_Node000010" class="edge">
<title>Node2&#45;&gt;Node10</title>
<g id="a_edge9_Node000002_Node000010"><a xlink:title=" ">
<path fill="none" stroke="#63b8ff" d="M774.66,-83.18C702.6,-78.48 544.81,-66.08 414,-41 399.31,-38.18 383.22,-33.87 370.07,-30.01"/>
<polygon fill="#63b8ff" stroke="#63b8ff" points="774.45,-86.68 784.65,-83.82 774.9,-79.69 774.45,-86.68"/>
</a>
</g>
</g>
<!-- Node2&#45;&gt;Node11 -->
<g id="edge10_Node000002_Node000011" class="edge">
<title>Node2&#45;&gt;Node11</title>
<g id="a_edge10_Node000002_Node000011"><a xlink:title=" ">
<path fill="none" stroke="#63b8ff" d="M774.47,-84.31C684.66,-81.15 458.59,-70.67 272,-41 254.95,-38.29 236.19,-33.93 220.93,-30.03"/>
<polygon fill="#63b8ff" stroke="#63b8ff" points="774.62,-87.81 784.73,-84.66 774.86,-80.82 774.62,-87.81"/>
</a>
</g>
</g>
<!-- Node12&#45;&gt;Node2 -->
<g id="edge12_Node000012_Node000002" class="edge">
<title>Node12&#45;&gt;Node2</title>
<g id="a_edge12_Node000012_Node000002"><a xlink:title=" ">
<path fill="none" stroke="#63b8ff" d="M773.78,-347.38C806.08,-330.45 854,-297.72 854,-252.5 854,-252.5 854,-252.5 854,-195.5 854,-156.31 830.55,-113.82 819.56,-96.06"/>
<polygon fill="#63b8ff" stroke="#63b8ff" points="772.1,-344.31 764.74,-351.93 775.25,-350.56 772.1,-344.31"/>
</a>
</g>
</g>
<!-- Node12&#45;&gt;Node11 -->
<g id="edge19_Node000012_Node000011" class="edge">
<title>Node12&#45;&gt;Node11</title>
<g id="a_edge19_Node000012_Node000011"><a xlink:title=" ">
<path fill="none" stroke="#63b8ff" d="M691.54,-353.85C566.6,-336.81 266,-286.57 266,-197.5 266,-197.5 266,-197.5 266,-140.5 266,-92.45 221.45,-48.22 200.57,-30.13"/>
<polygon fill="#63b8ff" stroke="#63b8ff" points="691.27,-357.34 701.65,-355.21 692.2,-350.41 691.27,-357.34"/>
</a>
</g>
</g>
<!-- Node13 -->
<g id="Node000013" class="node">
<title>Node13</title>
<g id="a_Node000013"><a xlink:href="func_8h.html" target="_top" xlink:title=" ">
<polygon fill="white" stroke="#666666" points="643.5,-206 560.5,-206 560.5,-187 643.5,-187 643.5,-206"/>
<text text-anchor="middle" x="602" y="-194" font-family="Times,serif" font-size="10.00">ttg/ttg/func.h</text>
</a>
</g>
</g>
<!-- Node12&#45;&gt;Node13 -->
<g id="edge13_Node000012_Node000013" class="edge">
<title>Node12&#45;&gt;Node13</title>
<g id="a_edge13_Node000012_Node000013"><a xlink:title=" ">
<path fill="none" stroke="#63b8ff" d="M740.57,-342.16C733.64,-316.82 718.02,-270.97 690,-242 673.34,-224.77 648.58,-213.08 629.57,-206.02"/>
<polygon fill="#63b8ff" stroke="#63b8ff" points="737.21,-343.13 743.1,-351.94 743.99,-341.38 737.21,-343.13"/>
</a>
</g>
</g>
<!-- Node15 -->
<g id="Node000015" class="node">
<title>Node15</title>
<g id="a_Node000015"><a xlink:href="tt_8h.html" target="_top" xlink:title=" ">
<polygon fill="white" stroke="#666666" points="616,-316 548,-316 548,-297 616,-297 616,-316"/>
<text text-anchor="middle" x="582" y="-304" font-family="Times,serif" font-size="10.00">ttg/ttg/tt.h</text>
</a>
</g>
</g>
<!-- Node12&#45;&gt;Node15 -->
<g id="edge20_Node000012_Node000015" class="edge">
<title>Node12&#45;&gt;Node15</title>
<g id="a_edge20_Node000012_Node000015"><a xlink:title=" ">
<path fill="none" stroke="#63b8ff" d="M709.01,-348.8C678.59,-338.91 635.72,-324.97 608.39,-316.08"/>
<polygon fill="#63b8ff" stroke="#63b8ff" points="708.22,-352.22 718.81,-351.98 710.38,-345.56 708.22,-352.22"/>
</a>
</g>
</g>
<!-- Node13&#45;&gt;Node2 -->
<g id="edge14_Node000013_Node000002" class="edge">
<title>Node13&#45;&gt;Node2</title>
<g id="a_edge14_Node000013_Node000002"><a xlink:title=" ">
<path fill="none" stroke="#63b8ff" d="M615.16,-178.72C627.22,-164.4 646.31,-144.23 667,-132 704.53,-109.82 754.08,-97.82 784.99,-92.04"/>
<polygon fill="#63b8ff" stroke="#63b8ff" points="612.21,-176.8 608.6,-186.76 617.63,-181.22 612.21,-176.8"/>
</a>
</g>
</g>
<!-- Node13&#45;&gt;Node10 -->
<g id="edge17_Node000013_Node000010" class="edge">
<title>Node13&#45;&gt;Node10</title>
<g id="a_edge17_Node000013_Node000010"><a xlink:title=" ">
<path fill="none" stroke="#63b8ff" d="M571.62,-182.85C553.86,-174.84 531.38,-163.63 513,-151 472.81,-123.39 470.85,-106.47 432,-77 407.63,-58.51 376.91,-40.39 358.68,-30.11"/>
<polygon fill="#63b8ff" stroke="#63b8ff" points="570.39,-186.13 580.95,-186.95 573.21,-179.72 570.39,-186.13"/>
</a>
</g>
</g>
<!-- Node13&#45;&gt;Node11 -->
<g id="edge18_Node000013_Node000011" class="edge">
<title>Node13&#45;&gt;Node11</title>
<g id="a_edge18_Node000013_Node000011"><a xlink:title=" ">
<path fill="none" stroke="#63b8ff" d="M569.33,-183.45C546,-174.73 513.92,-162.5 486,-151 410.56,-119.93 392.76,-109.67 318,-77 279.83,-60.32 235.17,-41 209.97,-30.12"/>
<polygon fill="#63b8ff" stroke="#63b8ff" points="568.17,-186.75 578.76,-186.96 570.61,-180.19 568.17,-186.75"/>
</a>
</g>
</g>
<!-- Node14 -->
<g id="Node000014" class="node">
<title>Node14</title>
<g id="a_Node000014"><a xlink:href="broadcast_8h.html" target="_top" xlink:title=" ">
<polygon fill="white" stroke="#666666" points="787.5,-151 676.5,-151 676.5,-132 787.5,-132 787.5,-151"/>
<text text-anchor="middle" x="732" y="-139" font-family="Times,serif" font-size="10.00">ttg/ttg/broadcast.h</text>
</a>
</g>
</g>
<!-- Node13&#45;&gt;Node14 -->
<g id="edge15_Node000013_Node000014" class="edge">
<title>Node13&#45;&gt;Node14</title>
<g id="a_edge15_Node000013_Node000014"><a xlink:title=" ">
<path fill="none" stroke="#63b8ff" d="M632.27,-183.16C656.34,-173.35 689.4,-159.87 710.73,-151.17"/>
<polygon fill="#63b8ff" stroke="#63b8ff" points="630.83,-179.97 622.89,-186.98 633.47,-186.45 630.83,-179.97"/>
</a>
</g>
</g>
<!-- Node14&#45;&gt;Node2 -->
<g id="edge16_Node000014_Node000002" class="edge">
<title>Node14&#45;&gt;Node2</title>
<g id="a_edge16_Node000014_Node000002"><a xlink:title=" ">
<path fill="none" stroke="#63b8ff" d="M753.78,-126.42C768.66,-116.81 787.91,-104.37 800.59,-96.17"/>
<polygon fill="#63b8ff" stroke="#63b8ff" points="751.67,-123.62 745.17,-131.98 755.47,-129.5 751.67,-123.62"/>
</a>
</g>
</g>
<!-- Node15&#45;&gt;Node2 -->
<g id="edge21_Node000015_Node000002" class="edge">
<title>Node15&#45;&gt;Node2</title>
<g id="a_edge21_Node000015_Node000002"><a xlink:title=" ">
<path fill="none" stroke="#63b8ff" d="M610.85,-292.62C657.1,-270.48 747.55,-220.74 796,-151 807.9,-133.87 811.98,-109 813.34,-96.06"/>
<polygon fill="#63b8ff" stroke="#63b8ff" points="609.25,-289.51 601.68,-296.92 612.22,-295.84 609.25,-289.51"/>
</a>
</g>
</g>
<!-- Node15&#45;&gt;Node10 -->
<g id="edge24_Node000015_Node000010" class="edge">
<title>Node15&#45;&gt;Node10</title>
<g id="a_edge24_Node000015_Node000010"><a xlink:title=" ">
<path fill="none" stroke="#63b8ff" d="M538.01,-298.16C512.41,-291.97 480.97,-280.8 459,-261 383.49,-192.96 352.1,-64.99 344.76,-30.34"/>
<polygon fill="#63b8ff" stroke="#63b8ff" points="537.33,-301.6 547.85,-300.38 538.87,-294.77 537.33,-301.6"/>
</a>
</g>
</g>
<!-- Node15&#45;&gt;Node11 -->
<g id="edge25_Node000015_Node000011" class="edge">
<title>Node15&#45;&gt;Node11</title>
<g id="a_edge25_Node000015_Node000011"><a xlink:title=" ">
<path fill="none" stroke="#63b8ff" d="M537.83,-297.81C459.41,-282.88 304,-247.05 304,-197.5 304,-197.5 304,-197.5 304,-140.5 304,-110.33 299.2,-100.27 280,-77 261.66,-54.77 231.96,-38.93 211.74,-30.01"/>
<polygon fill="#63b8ff" stroke="#63b8ff" points="537.44,-301.29 547.91,-299.69 538.72,-294.41 537.44,-301.29"/>
</a>
</g>
</g>
<!-- Node15&#45;&gt;Node13 -->
<g id="edge23_Node000015_Node000013" class="edge">
<title>Node15&#45;&gt;Node13</title>
<g id="a_edge23_Node000015_Node000013"><a xlink:title=" ">
<path fill="none" stroke="#63b8ff" d="M585.46,-286.8C589.83,-263.2 597.17,-223.58 600.4,-206.16"/>
<polygon fill="#63b8ff" stroke="#63b8ff" points="582.02,-286.19 583.64,-296.66 588.9,-287.47 582.02,-286.19"/>
</a>
</g>
</g>
<!-- Node15&#45;&gt;Node14 -->
<g id="edge22_Node000015_Node000014" class="edge">
<title>Node15&#45;&gt;Node14</title>
<g id="a_edge22_Node000015_Node000014"><a xlink:title=" ">
<path fill="none" stroke="#63b8ff" d="M597.13,-289.05C628.53,-254.93 699.83,-177.45 723.9,-151.31"/>
<polygon fill="#63b8ff" stroke="#63b8ff" points="594.26,-287.01 590.06,-296.74 599.41,-291.75 594.26,-287.01"/>
</a>
</g>
</g>
<!-- Node16 -->
<g id="Node000016" class="node">
<title>Node16</title>
<g id="a_Node000016"><a xlink:href="traverse_8h.html" target="_top" xlink:title=" ">
<polygon fill="white" stroke="#666666" points="571.5,-261 468.5,-261 468.5,-242 571.5,-242 571.5,-261"/>
<text text-anchor="middle" x="520" y="-249" font-family="Times,serif" font-size="10.00">ttg/ttg/traverse.h</text>
</a>
</g>
</g>
<!-- Node15&#45;&gt;Node16 -->
<g id="edge26_Node000015_Node000016" class="edge">
<title>Node15&#45;&gt;Node16</title>
<g id="a_edge26_Node000015_Node000016"><a xlink:title=" ">
<path fill="none" stroke="#63b8ff" d="M564.25,-290.32C553.19,-280.87 539.37,-269.06 530.14,-261.17"/>
<polygon fill="#63b8ff" stroke="#63b8ff" points="562.16,-293.15 572.04,-296.98 566.71,-287.83 562.16,-293.15"/>
</a>
</g>
</g>
<!-- Node16&#45;&gt;Node2 -->
<g id="edge27_Node000016_Node000002" class="edge">
<title>Node16&#45;&gt;Node2</title>
<g id="a_edge27_Node000016_Node000002"><a xlink:title=" ">
<path fill="none" stroke="#63b8ff" d="M511.99,-232.49C501.97,-206.89 488.86,-159.97 513,-132 547.99,-91.46 716.36,-87.22 784.89,-87.21"/>
<polygon fill="#63b8ff" stroke="#63b8ff" points="508.77,-233.87 515.85,-241.76 515.23,-231.18 508.77,-233.87"/>
</a>
</g>
</g>
<!-- Node16&#45;&gt;Node13 -->
<g id="edge28_Node000016_Node000013" class="edge">
<title>Node16&#45;&gt;Node13</title>
<g id="a_edge28_Node000016_Node000013"><a xlink:title=" ">
<path fill="none" stroke="#63b8ff" d="M541.78,-236.42C556.66,-226.81 575.91,-214.37 588.59,-206.17"/>
<polygon fill="#63b8ff" stroke="#63b8ff" points="539.67,-233.62 533.17,-241.98 543.47,-239.5 539.67,-233.62"/>
</a>
</g>
</g>
<!-- Node17 -->
<g id="Node000017" class="node">
<title>Node17</title>
<g id="a_Node000017"><a xlink:href="dot_8h.html" target="_top" xlink:title=" ">
<polygon fill="white" stroke="#666666" points="619.5,-151 522.5,-151 522.5,-132 619.5,-132 619.5,-151"/>
<text text-anchor="middle" x="571" y="-139" font-family="Times,serif" font-size="10.00">ttg/ttg/util/dot.h</text>
</a>
</g>
</g>
<!-- Node16&#45;&gt;Node17 -->
<g id="edge29_Node000016_Node000017" class="edge">
<title>Node16&#45;&gt;Node17</title>
<g id="a_edge29_Node000016_Node000017"><a xlink:title=" ">
<path fill="none" stroke="#63b8ff" d="M528.53,-232.44C539.63,-208.92 558.61,-168.73 566.91,-151.16"/>
<polygon fill="#63b8ff" stroke="#63b8ff" points="525.28,-231.12 524.17,-241.66 531.61,-234.11 525.28,-231.12"/>
</a>
</g>
</g>
<!-- Node17&#45;&gt;Node2 -->
<g id="edge30_Node000017_Node000002" class="edge">
<title>Node17&#45;&gt;Node2</title>
<g id="a_edge30_Node000017_Node000002"><a xlink:title=" ">
<path fill="none" stroke="#63b8ff" d="M619.88,-129.84C669.35,-119.05 744.17,-102.73 784.97,-93.83"/>
<polygon fill="#63b8ff" stroke="#63b8ff" points="619.07,-126.43 610.04,-131.98 620.56,-133.27 619.07,-126.43"/>
</a>
</g>
</g>
<!-- Node18&#45;&gt;Node2 -->
<g id="edge33_Node000018_Node000002" class="edge">
<title>Node18&#45;&gt;Node2</title>
<g id="a_edge33_Node000018_Node000002"><a xlink:title=" ">
<path fill="none" stroke="#63b8ff" d="M846.8,-674.37C882.04,-634.23 968,-525.27 968,-417.5 968,-417.5 968,-417.5 968,-195.5 968,-135.25 888.01,-105.75 843.33,-93.97"/>
<polygon fill="#63b8ff" stroke="#63b8ff" points="844.16,-672.08 840.1,-681.87 849.37,-676.75 844.16,-672.08"/>
</a>
</g>
</g>
<!-- Node18&#45;&gt;Node11 -->
<g id="edge53_Node000018_Node000011" class="edge">
<title>Node18&#45;&gt;Node11</title>
<g id="a_edge53_Node000018_Node000011"><a xlink:title=" ">
<path fill="none" stroke="#63b8ff" d="M768.98,-688.53C581.13,-681.85 38,-656.14 38,-582.5 38,-582.5 38,-582.5 38,-140.5 38,-79.17 115.67,-44.71 159.97,-30.05"/>
<polygon fill="#63b8ff" stroke="#63b8ff" points="768.86,-692.03 778.98,-688.88 769.11,-685.04 768.86,-692.03"/>
</a>
</g>
</g>
<!-- Node18&#45;&gt;Node12 -->
<g id="edge52_Node000018_Node000012" class="edge">
<title>Node18&#45;&gt;Node12</title>
<g id="a_edge52_Node000018_Node000012"><a xlink:title=" ">
<path fill="none" stroke="#63b8ff" d="M838.04,-672.29C844.55,-651.01 854,-614.6 854,-582.5 854,-582.5 854,-582.5 854,-525.5 854,-455.71 784.1,-393.17 756.25,-371.02"/>
<polygon fill="#63b8ff" stroke="#63b8ff" points="834.67,-671.35 834.97,-681.94 841.34,-673.47 834.67,-671.35"/>
</a>
</g>
</g>
<!-- Node19 -->
<g id="Node000019" class="node">
<title>Node19</title>
<g id="a_Node000019"><a xlink:href="base_2tt_8h.html" target="_top" xlink:title=" ">
<polygon fill="white" stroke="#666666" points="611.5,-646 516.5,-646 516.5,-627 611.5,-627 611.5,-646"/>
<text text-anchor="middle" x="564" y="-634" font-family="Times,serif" font-size="10.00">ttg/ttg/base/tt.h</text>
</a>
</g>
</g>
<!-- Node18&#45;&gt;Node19 -->
<g id="edge34_Node000018_Node000019" class="edge">
<title>Node18&#45;&gt;Node19</title>
<g id="a_edge34_Node000018_Node000019"><a xlink:title=" ">
<path fill="none" stroke="#63b8ff" d="M778.92,-680C728.68,-670.07 654.18,-655.33 607.4,-646.08"/>
<polygon fill="#63b8ff" stroke="#63b8ff" points="778.45,-683.48 788.94,-681.98 779.81,-676.61 778.45,-683.48"/>
</a>
</g>
</g>
<!-- Node23 -->
<g id="Node000023" class="node">
<title>Node23</title>
<g id="a_Node000023"><a xlink:href="terminal_8h.html" target="_top" xlink:title=" ">
<polygon fill="white" stroke="#666666" points="732,-426 628,-426 628,-407 732,-407 732,-426"/>
<text text-anchor="middle" x="680" y="-414" font-family="Times,serif" font-size="10.00">ttg/ttg/terminal.h</text>
</a>
</g>
</g>
<!-- Node18&#45;&gt;Node23 -->
<g id="edge54_Node000018_Node000023" class="edge">
<title>Node18&#45;&gt;Node23</title>
<g id="a_edge54_Node000018_Node000023"><a xlink:title=" ">
<path fill="none" stroke="#63b8ff" d="M827.54,-671.89C822.81,-650.46 816,-614.15 816,-582.5 816,-582.5 816,-582.5 816,-525.5 816,-471.23 748.76,-439.88 708.84,-426.05"/>
<polygon fill="#63b8ff" stroke="#63b8ff" points="824.19,-672.92 829.84,-681.88 831.01,-671.35 824.19,-672.92"/>
</a>
</g>
</g>
<!-- Node19&#45;&gt;Node10 -->
<g id="edge49_Node000019_Node000010" class="edge">
<title>Node19&#45;&gt;Node10</title>
<g id="a_edge49_Node000019_Node000010"><a xlink:title=" ">
<path fill="none" stroke="#63b8ff" d="M506.03,-633.67C384.46,-628.25 114,-607.23 114,-527.5 114,-527.5 114,-527.5 114,-250.5 114,-133.27 265.9,-55.09 322.27,-30.12"/>
<polygon fill="#63b8ff" stroke="#63b8ff" points="506.13,-637.18 516.27,-634.1 506.43,-630.18 506.13,-637.18"/>
</a>
</g>
</g>
<!-- Node19&#45;&gt;Node11 -->
<g id="edge50_Node000019_Node000011" class="edge">
<title>Node19&#45;&gt;Node11</title>
<g id="a_edge50_Node000019_Node000011"><a xlink:title=" ">
<path fill="none" stroke="#63b8ff" d="M506.21,-633.57C407.67,-629.57 211.7,-618.35 149,-591 109.59,-573.81 76,-570.5 76,-527.5 76,-527.5 76,-527.5 76,-140.5 76,-85.85 139.46,-46.51 171.68,-30.05"/>
<polygon fill="#63b8ff" stroke="#63b8ff" points="506.17,-637.07 516.3,-633.96 506.44,-630.07 506.17,-637.07"/>
</a>
</g>
</g>
<!-- Node19&#45;&gt;Node15 -->
<g id="edge51_Node000019_Node000015" class="edge">
<title>Node19&#45;&gt;Node15</title>
<g id="a_edge51_Node000019_Node000015"><a xlink:title=" ">
<path fill="none" stroke="#63b8ff" d="M564,-616.77C564,-595.23 564,-558.81 564,-527.5 564,-527.5 564,-527.5 564,-415.5 564,-378.05 574.66,-334.28 579.57,-316.1"/>
<polygon fill="#63b8ff" stroke="#63b8ff" points="560.5,-616.82 564,-626.82 567.5,-616.82 560.5,-616.82"/>
</a>
</g>
</g>
<!-- Node20 -->
<g id="Node000020" class="node">
<title>Node20</title>
<g id="a_Node000020"><a xlink:href="base_2world_8h.html" target="_top" xlink:title=" ">
<polygon fill="white" stroke="#666666" points="721,-591 605,-591 605,-572 721,-572 721,-591"/>
<text text-anchor="middle" x="663" y="-579" font-family="Times,serif" font-size="10.00">ttg/ttg/base/world.h</text>
</a>
</g>
</g>
<!-- Node19&#45;&gt;Node20 -->
<g id="edge35_Node000019_Node000020" class="edge">
<title>Node19&#45;&gt;Node20</title>
<g id="a_edge35_Node000019_Node000020"><a xlink:title=" ">
<path fill="none" stroke="#63b8ff" d="M588.78,-622.23C606.94,-612.51 631.06,-599.6 646.8,-591.17"/>
<polygon fill="#63b8ff" stroke="#63b8ff" points="587.07,-619.18 579.91,-626.98 590.37,-625.35 587.07,-619.18"/>
</a>
</g>
</g>
<!-- Node20&#45;&gt;Node2 -->
<g id="edge36_Node000020_Node000002" class="edge">
<title>Node20&#45;&gt;Node2</title>
<g id="a_edge36_Node000020_Node000002"><a xlink:title=" ">
<path fill="none" stroke="#63b8ff" d="M728.54,-569.94C807.59,-553.02 930,-511.64 930,-417.5 930,-417.5 930,-417.5 930,-195.5 930,-144.6 869.42,-110.86 835.82,-96.07"/>
<polygon fill="#63b8ff" stroke="#63b8ff" points="727.74,-566.53 718.65,-571.97 729.15,-573.38 727.74,-566.53"/>
</a>
</g>
</g>
<!-- Node20&#45;&gt;Node11 -->
<g id="edge37_Node000020_Node000011" class="edge">
<title>Node20&#45;&gt;Node11</title>
<g id="a_edge37_Node000020_Node000011"><a xlink:title=" ">
<path fill="none" stroke="#63b8ff" d="M594.75,-580.18C455.56,-577.67 152,-561.96 152,-472.5 152,-472.5 152,-472.5 152,-250.5 152,-163.45 179.05,-60.27 187.51,-30.15"/>
<polygon fill="#63b8ff" stroke="#63b8ff" points="594.82,-583.68 604.88,-580.34 594.94,-576.68 594.82,-583.68"/>
</a>
</g>
</g>
<!-- Node21 -->
<g id="Node000021" class="node">
<title>Node21</title>
<g id="a_Node000021"><a xlink:href="world_8h.html" target="_top" xlink:title=" ">
<polygon fill="white" stroke="#666666" points="719.5,-536 630.5,-536 630.5,-517 719.5,-517 719.5,-536"/>
<text text-anchor="middle" x="675" y="-524" font-family="Times,serif" font-size="10.00">ttg/ttg/world.h</text>
</a>
</g>
</g>
<!-- Node20&#45;&gt;Node21 -->
<g id="edge38_Node000020_Node000021" class="edge">
<title>Node20&#45;&gt;Node21</title>
<g id="a_edge38_Node000020_Node000021"><a xlink:title=" ">
<path fill="none" stroke="#63b8ff" d="M667.2,-561.95C669.19,-553.15 671.48,-543.06 673.06,-536.09"/>
<polygon fill="#63b8ff" stroke="#63b8ff" points="663.78,-561.22 664.98,-571.75 670.6,-562.77 663.78,-561.22"/>
</a>
</g>
</g>
<!-- Node21&#45;&gt;Node2 -->
<g id="edge39_Node000021_Node000002" class="edge">
<title>Node21&#45;&gt;Node2</title>
<g id="a_edge39_Node000021_Node000002"><a xlink:title=" ">
<path fill="none" stroke="#63b8ff" d="M718.65,-514.09C782.02,-494.59 892,-448.37 892,-362.5 892,-362.5 892,-362.5 892,-195.5 892,-151.09 848.12,-112.55 826.19,-96.05"/>
<polygon fill="#63b8ff" stroke="#63b8ff" points="717.49,-510.78 708.91,-516.99 719.49,-517.49 717.49,-510.78"/>
</a>
</g>
</g>
<!-- Node21&#45;&gt;Node10 -->
<g id="edge41_Node000021_Node000010" class="edge">
<title>Node21&#45;&gt;Node10</title>
<g id="a_edge41_Node000021_Node000010"><a xlink:title=" ">
<path fill="none" stroke="#63b8ff" d="M619.95,-524.76C492.91,-521.55 190,-504.76 190,-417.5 190,-417.5 190,-417.5 190,-305.5 190,-183.41 300.95,-63.31 333.89,-30.34"/>
<polygon fill="#63b8ff" stroke="#63b8ff" points="620.16,-528.26 630.24,-525 620.33,-521.26 620.16,-528.26"/>
</a>
</g>
</g>
<!-- Node21&#45;&gt;Node14 -->
<g id="edge40_Node000021_Node000014" class="edge">
<title>Node21&#45;&gt;Node14</title>
<g id="a_edge40_Node000021_Node000014"><a xlink:title=" ">
<path fill="none" stroke="#63b8ff" d="M693.96,-510.3C732.42,-477.6 816,-396.34 816,-307.5 816,-307.5 816,-307.5 816,-250.5 816,-205.13 769.24,-167.34 745.5,-151.08"/>
<polygon fill="#63b8ff" stroke="#63b8ff" points="691.52,-507.78 686.06,-516.86 695.99,-513.16 691.52,-507.78"/>
</a>
</g>
</g>
<!-- Node22 -->
<g id="Node000022" class="node">
<title>Node22</title>
<g id="a_Node000022"><a xlink:href="run_8h.html" target="_top" xlink:title=" ">
<polygon fill="white" stroke="#666666" points="671.5,-481 592.5,-481 592.5,-462 671.5,-462 671.5,-481"/>
<text text-anchor="middle" x="632" y="-469" font-family="Times,serif" font-size="10.00">ttg/ttg/run.h</text>
</a>
</g>
</g>
<!-- Node21&#45;&gt;Node22 -->
<g id="edge42_Node000021_Node000022" class="edge">
<title>Node21&#45;&gt;Node22</title>
<g id="a_edge42_Node000021_Node000022"><a xlink:title=" ">
<path fill="none" stroke="#63b8ff" d="M661.58,-508.96C654.09,-499.72 645.06,-488.6 638.97,-481.09"/>
<polygon fill="#63b8ff" stroke="#63b8ff" points="658.88,-511.19 667.9,-516.75 664.32,-506.78 658.88,-511.19"/>
</a>
</g>
</g>
<!-- Node21&#45;&gt;Node23 -->
<g id="edge48_Node000021_Node000023" class="edge">
<title>Node21&#45;&gt;Node23</title>
<g id="a_edge48_Node000021_Node000023"><a xlink:title=" ">
<path fill="none" stroke="#63b8ff" d="M677.55,-506.94C678.53,-498.97 679.52,-489.55 680,-481 681.1,-461.41 680.67,-438.36 680.31,-426.14"/>
<polygon fill="#63b8ff" stroke="#63b8ff" points="674.07,-506.62 676.24,-516.99 681.01,-507.53 674.07,-506.62"/>
</a>
</g>
</g>
<!-- Node22&#45;&gt;Node2 -->
<g id="edge43_Node000022_Node000002" class="edge">
<title>Node22&#45;&gt;Node2</title>
<g id="a_edge43_Node000022_Node000002"><a xlink:title=" ">
<path fill="none" stroke="#63b8ff" d="M604.55,-457.11C544.75,-425.85 410.13,-342.97 437,-242 451.49,-187.56 453.37,-163.61 500,-132 546.2,-100.68 716.18,-91.06 784.89,-88.41"/>
<polygon fill="#63b8ff" stroke="#63b8ff" points="603.3,-460.41 613.8,-461.85 606.49,-454.18 603.3,-460.41"/>
</a>
</g>
</g>
<!-- Node22&#45;&gt;Node23 -->
<g id="edge44_Node000022_Node000023" class="edge">
<title>Node22&#45;&gt;Node23</title>
<g id="a_edge44_Node000022_Node000023"><a xlink:title=" ">
<path fill="none" stroke="#63b8ff" d="M646.73,-454.24C655.14,-444.95 665.35,-433.68 672.22,-426.09"/>
<polygon fill="#63b8ff" stroke="#63b8ff" points="644.04,-451.99 639.93,-461.75 649.23,-456.69 644.04,-451.99"/>
</a>
</g>
</g>
<!-- Node23&#45;&gt;Node11 -->
<g id="edge47_Node000023_Node000011" class="edge">
<title>Node23&#45;&gt;Node11</title>
<g id="a_edge47_Node000023_Node000011"><a xlink:title=" ">
<path fill="none" stroke="#63b8ff" d="M618.85,-404.95C536.14,-387.86 388.15,-346.97 294,-261 220.35,-193.75 196.48,-65.21 191.22,-30.39"/>
<polygon fill="#63b8ff" stroke="#63b8ff" points="618.36,-408.42 628.85,-406.96 619.74,-401.56 618.36,-408.42"/>
</a>
</g>
</g>
<!-- Node23&#45;&gt;Node12 -->
<g id="edge45_Node000023_Node000012" class="edge">
<title>Node23&#45;&gt;Node12</title>
<g id="a_edge45_Node000023_Node000012"><a xlink:title=" ">
<path fill="none" stroke="#63b8ff" d="M698.27,-400.6C709.92,-391.11 724.6,-379.13 734.37,-371.17"/>
<polygon fill="#63b8ff" stroke="#63b8ff" points="695.98,-397.95 690.44,-406.98 700.41,-403.38 695.98,-397.95"/>
</a>
</g>
</g>
<!-- Node23&#45;&gt;Node13 -->
<g id="edge46_Node000023_Node000013" class="edge">
<title>Node23&#45;&gt;Node13</title>
<g id="a_edge46_Node000023_Node000013"><a xlink:title=" ">
<path fill="none" stroke="#63b8ff" d="M673.53,-397.42C657.56,-352.79 616.73,-238.67 605.12,-206.22"/>
<polygon fill="#63b8ff" stroke="#63b8ff" points="670.28,-398.72 676.94,-406.95 676.87,-396.36 670.28,-398.72"/>
</a>
</g>
</g>
</g>
</svg>

<g id="navigator" transform="translate(0 0)" fill="#404254">
  <rect fill="#f2f5e9" fill-opacity="0.5" stroke="#606060" stroke-width=".5" x="0" y="0" width="60" height="60"/>
  <use id="zoomplus" xlink:href="#zoomPlus" x="17" y="9" onmousedown="handleZoom(evt,'in')"/>
  <use id="zoomminus" xlink:href="#zoomMin" x="42" y="9" onmousedown="handleZoom(evt,'out')"/>
  <use id="reset" xlink:href="#resetDef" x="30" y="36" onmousedown="handleReset()"/>
   <use id="arrowup" xlink:href="#arrowUp" x="0" y="0" onmousedown="handlePan(0,-1)"/>
  <use id="arrowright" xlink:href="#arrowRight" x="0" y="0" onmousedown="handlePan(1,0)"/>
  <use id="arrowdown" xlink:href="#arrowDown" x="0" y="0" onmousedown="handlePan(0,1)"/>
  <use id="arrowleft" xlink:href="#arrowLeft" x="0" y="0" onmousedown="handlePan(-1,0)"/>
</g>
<svg viewBox="0 0 15 15" width="100%" height="30px" preserveAspectRatio="xMaxYMin meet">
 <g id="arrow_out" transform="scale(0.3 0.3)">
  <a xlink:href="print_8h__dep__incl_org.svg" target="_base">
   <rect id="button" ry="5" rx="5" y="6" x="6" height="38" width="38"
        fill="#f2f5e9" fill-opacity="0.5" stroke="#606060" stroke-width="1.0"/>
   <path id="arrow"
     d="M 11.500037,31.436501 C 11.940474,20.09759 22.043105,11.32322 32.158766,21.979434 L 37.068811,17.246167 C 37.068811,17.246167 37.088388,32 37.088388,32 L 22.160133,31.978069 C 22.160133,31.978069 26.997745,27.140456 26.997745,27.140456 C 18.528582,18.264221 13.291696,25.230495 11.500037,31.436501 z"
     style="fill:#404040;"/>
  </a>
 </g>
</svg>

<style type='text/css'>
<![CDATA[
[data-mouse-over-selected='false'] { opacity: 0.7; }
[data-mouse-over-selected='true']  { opacity: 1.0; }
]]>
</style>
<script type="application/ecmascript"><![CDATA[
document.addEventListener('DOMContentLoaded', (event) => {
  highlightEdges();
  highlightAdjacentNodes();
});
]]></script>
</svg>
