<?xml version="1.0" encoding="UTF-8" standalone="no"?>
<!DOCTYPE svg PUBLIC "-//W3C//DTD SVG 1.1//EN"
 "http://www.w3.org/Graphics/SVG/1.1/DTD/svg11.dtd">
<!-- Generated by graphviz version 2.43.0 (0)
 -->
<!-- Title: ttg/ttg/ptr.h Pages: 1 -->
<svg width="547pt" height="192pt"
 viewBox="0.00 0.00 546.50 192.00" xmlns="http://www.w3.org/2000/svg" xmlns:xlink="http://www.w3.org/1999/xlink">
<g id="graph0" class="graph" transform="scale(1 1) rotate(0) translate(4 188)">
<title>ttg/ttg/ptr.h</title>
<!-- Node1 -->
<g id="Node000001" class="node">
<title>Node1</title>
<g id="a_Node000001"><a xlink:title=" ">
<polygon fill="#999999" stroke="#666666" points="177.5,-184 102.5,-184 102.5,-165 177.5,-165 177.5,-184"/>
<text text-anchor="middle" x="140" y="-172" font-family="Times,serif" font-size="10.00">ttg/ttg/ptr.h</text>
</a>
</g>
</g>
<!-- Node2 -->
<g id="Node000002" class="node">
<title>Node2</title>
<g id="a_Node000002"><a xlink:href="fwd_8h.html" target="_top" xlink:title=" ">
<polygon fill="white" stroke="#666666" points="124,-129 62,-129 62,-110 124,-110 124,-129"/>
<text text-anchor="middle" x="93" y="-117" font-family="Times,serif" font-size="10.00">ttg/fwd.h</text>
</a>
</g>
</g>
<!-- Node1&#45;&gt;Node2 -->
<g id="edge1_Node000001_Node000002" class="edge">
<title>Node1&#45;&gt;Node2</title>
<g id="a_edge1_Node000001_Node000002"><a xlink:title=" ">
<path fill="none" stroke="#63b8ff" d="M132.24,-164.75C125.53,-157.18 115.66,-146.05 107.49,-136.84"/>
<polygon fill="#63b8ff" stroke="#63b8ff" points="109.87,-134.25 100.62,-129.09 104.63,-138.89 109.87,-134.25"/>
</a>
</g>
</g>
<!-- Node4 -->
<g id="Node000004" class="node">
<title>Node4</title>
<g id="a_Node000004"><a xlink:href="meta_8h.html" target="_top" xlink:title=" ">
<polygon fill="white" stroke="#666666" points="268.5,-129 179.5,-129 179.5,-110 268.5,-110 268.5,-129"/>
<text text-anchor="middle" x="224" y="-117" font-family="Times,serif" font-size="10.00">ttg/util/meta.h</text>
</a>
</g>
</g>
<!-- Node1&#45;&gt;Node4 -->
<g id="edge3_Node000001_Node000004" class="edge">
<title>Node1&#45;&gt;Node4</title>
<g id="a_edge3_Node000001_Node000004"><a xlink:title=" ">
<path fill="none" stroke="#63b8ff" d="M153.5,-164.98C166.4,-156.84 186.1,-144.41 201.4,-134.76"/>
<polygon fill="#63b8ff" stroke="#63b8ff" points="203.67,-137.47 210.26,-129.17 199.93,-131.55 203.67,-137.47"/>
</a>
</g>
</g>
<!-- Node3 -->
<g id="Node000003" class="node">
<title>Node3</title>
<g id="a_Node000003"><a xlink:href="impl__selector_8h.html" target="_top" xlink:title=" ">
<polygon fill="white" stroke="#666666" points="110,-74 0,-74 0,-55 110,-55 110,-74"/>
<text text-anchor="middle" x="55" y="-62" font-family="Times,serif" font-size="10.00">ttg/impl_selector.h</text>
</a>
</g>
</g>
<!-- Node2&#45;&gt;Node3 -->
<g id="edge2_Node000002_Node000003" class="edge">
<title>Node2&#45;&gt;Node3</title>
<g id="a_edge2_Node000002_Node000003"><a xlink:title=" ">
<path fill="none" stroke="#63b8ff" d="M86.73,-109.75C81.41,-102.34 73.64,-91.5 67.12,-82.41"/>
<polygon fill="#63b8ff" stroke="#63b8ff" points="69.83,-80.18 61.16,-74.09 64.14,-84.26 69.83,-80.18"/>
</a>
</g>
</g>
<!-- Node5 -->
<g id="Node000005" class="node">
<title>Node5</title>
<g id="a_Node000005"><a xlink:title=" ">
<polygon fill="#e0e0e0" stroke="#999999" points="196,-74 128,-74 128,-55 196,-55 196,-74"/>
<text text-anchor="middle" x="162" y="-62" font-family="Times,serif" font-size="10.00">functional</text>
</a>
</g>
</g>
<!-- Node4&#45;&gt;Node5 -->
<g id="edge4_Node000004_Node000005" class="edge">
<title>Node4&#45;&gt;Node5</title>
<g id="a_edge4_Node000004_Node000005"><a xlink:title=" ">
<path fill="none" stroke="#63b8ff" d="M214.04,-109.98C204.87,-102.15 191.06,-90.34 179.97,-80.86"/>
<polygon fill="#63b8ff" stroke="#63b8ff" points="182.02,-78.01 172.14,-74.17 177.47,-83.33 182.02,-78.01"/>
</a>
</g>
</g>
<!-- Node6 -->
<g id="Node000006" class="node">
<title>Node6</title>
<g id="a_Node000006"><a xlink:title=" ">
<polygon fill="#e0e0e0" stroke="#999999" points="188.5,-19 117.5,-19 117.5,0 188.5,0 188.5,-19"/>
<text text-anchor="middle" x="153" y="-7" font-family="Times,serif" font-size="10.00">type_traits</text>
</a>
</g>
</g>
<!-- Node4&#45;&gt;Node6 -->
<g id="edge5_Node000004_Node000006" class="edge">
<title>Node4&#45;&gt;Node6</title>
<g id="a_edge5_Node000004_Node000006"><a xlink:title=" ">
<path fill="none" stroke="#63b8ff" d="M222.96,-109.62C221.1,-96.7 216.3,-72.36 205,-55 197.3,-43.17 185.56,-32.74 175.18,-24.96"/>
<polygon fill="#63b8ff" stroke="#63b8ff" points="177.07,-22.01 166.9,-19.07 173.02,-27.72 177.07,-22.01"/>
</a>
</g>
</g>
<!-- Node7 -->
<g id="Node000007" class="node">
<title>Node7</title>
<g id="a_Node000007"><a xlink:href="span_8h.html" target="_top" xlink:title=" ">
<polygon fill="white" stroke="#666666" points="340,-74 252,-74 252,-55 340,-55 340,-74"/>
<text text-anchor="middle" x="296" y="-62" font-family="Times,serif" font-size="10.00">ttg/util/span.h</text>
</a>
</g>
</g>
<!-- Node4&#45;&gt;Node7 -->
<g id="edge6_Node000004_Node000007" class="edge">
<title>Node4&#45;&gt;Node7</title>
<g id="a_edge6_Node000004_Node000007"><a xlink:title=" ">
<path fill="none" stroke="#63b8ff" d="M235.57,-109.98C246.42,-102 262.88,-89.88 275.88,-80.31"/>
<polygon fill="#63b8ff" stroke="#63b8ff" points="278.24,-82.92 284.22,-74.17 274.09,-77.28 278.24,-82.92"/>
</a>
</g>
</g>
<!-- Node12 -->
<g id="Node000012" class="node">
<title>Node12</title>
<g id="a_Node000012"><a xlink:href="typelist_8h.html" target="_top" xlink:title=" ">
<polygon fill="white" stroke="#666666" points="513.5,-74 412.5,-74 412.5,-55 513.5,-55 513.5,-74"/>
<text text-anchor="middle" x="463" y="-62" font-family="Times,serif" font-size="10.00">ttg/util/typelist.h</text>
</a>
</g>
</g>
<!-- Node4&#45;&gt;Node12 -->
<g id="edge12_Node000004_Node000012" class="edge">
<title>Node4&#45;&gt;Node12</title>
<g id="a_edge12_Node000004_Node000012"><a xlink:title=" ">
<path fill="none" stroke="#63b8ff" d="M262.4,-109.98C303.74,-100.82 369.6,-86.21 414.49,-76.26"/>
<polygon fill="#63b8ff" stroke="#63b8ff" points="415.29,-79.66 424.3,-74.08 413.78,-72.83 415.29,-79.66"/>
</a>
</g>
</g>
<!-- Node7&#45;&gt;Node6 -->
<g id="edge10_Node000007_Node000006" class="edge">
<title>Node7&#45;&gt;Node6</title>
<g id="a_edge10_Node000007_Node000006"><a xlink:title=" ">
<path fill="none" stroke="#63b8ff" d="M273.02,-54.98C249.5,-46.27 212.71,-32.63 186.06,-22.75"/>
<polygon fill="#63b8ff" stroke="#63b8ff" points="186.99,-19.36 176.39,-19.17 184.55,-25.93 186.99,-19.36"/>
</a>
</g>
</g>
<!-- Node8 -->
<g id="Node000008" class="node">
<title>Node8</title>
<g id="a_Node000008"><a xlink:title=" ">
<polygon fill="#e0e0e0" stroke="#999999" points="251,-19 207,-19 207,0 251,0 251,-19"/>
<text text-anchor="middle" x="229" y="-7" font-family="Times,serif" font-size="10.00">array</text>
</a>
</g>
</g>
<!-- Node7&#45;&gt;Node8 -->
<g id="edge7_Node000007_Node000008" class="edge">
<title>Node7&#45;&gt;Node8</title>
<g id="a_edge7_Node000007_Node000008"><a xlink:title=" ">
<path fill="none" stroke="#63b8ff" d="M285.24,-54.98C275.23,-47.07 260.11,-35.11 248.07,-25.58"/>
<polygon fill="#63b8ff" stroke="#63b8ff" points="249.97,-22.63 239.96,-19.17 245.63,-28.12 249.97,-22.63"/>
</a>
</g>
</g>
<!-- Node9 -->
<g id="Node000009" class="node">
<title>Node9</title>
<g id="a_Node000009"><a xlink:title=" ">
<polygon fill="#e0e0e0" stroke="#999999" points="323,-19 269,-19 269,0 323,0 323,-19"/>
<text text-anchor="middle" x="296" y="-7" font-family="Times,serif" font-size="10.00">cstddef</text>
</a>
</g>
</g>
<!-- Node7&#45;&gt;Node9 -->
<g id="edge8_Node000007_Node000009" class="edge">
<title>Node7&#45;&gt;Node9</title>
<g id="a_edge8_Node000007_Node000009"><a xlink:title=" ">
<path fill="none" stroke="#63b8ff" d="M296,-54.75C296,-47.8 296,-37.85 296,-29.13"/>
<polygon fill="#63b8ff" stroke="#63b8ff" points="299.5,-29.09 296,-19.09 292.5,-29.09 299.5,-29.09"/>
</a>
</g>
</g>
<!-- Node10 -->
<g id="Node000010" class="node">
<title>Node10</title>
<g id="a_Node000010"><a xlink:title=" ">
<polygon fill="#e0e0e0" stroke="#999999" points="392.5,-19 341.5,-19 341.5,0 392.5,0 392.5,-19"/>
<text text-anchor="middle" x="367" y="-7" font-family="Times,serif" font-size="10.00">cstdint</text>
</a>
</g>
</g>
<!-- Node7&#45;&gt;Node10 -->
<g id="edge9_Node000007_Node000010" class="edge">
<title>Node7&#45;&gt;Node10</title>
<g id="a_edge9_Node000007_Node000010"><a xlink:title=" ">
<path fill="none" stroke="#63b8ff" d="M307.41,-54.98C318.11,-47 334.34,-34.88 347.16,-25.31"/>
<polygon fill="#63b8ff" stroke="#63b8ff" points="349.47,-27.96 355.39,-19.17 345.28,-22.35 349.47,-27.96"/>
</a>
</g>
</g>
<!-- Node11 -->
<g id="Node000011" class="node">
<title>Node11</title>
<g id="a_Node000011"><a xlink:title=" ">
<polygon fill="#e0e0e0" stroke="#999999" points="477,-19 411,-19 411,0 477,0 477,-19"/>
<text text-anchor="middle" x="444" y="-7" font-family="Times,serif" font-size="10.00">exception</text>
</a>
</g>
</g>
<!-- Node7&#45;&gt;Node11 -->
<g id="edge11_Node000007_Node000011" class="edge">
<title>Node7&#45;&gt;Node11</title>
<g id="a_edge11_Node000007_Node000011"><a xlink:title=" ">
<path fill="none" stroke="#63b8ff" d="M319.78,-54.98C344.23,-46.23 382.53,-32.51 410.15,-22.62"/>
<polygon fill="#63b8ff" stroke="#63b8ff" points="411.55,-25.84 419.79,-19.17 409.19,-19.25 411.55,-25.84"/>
</a>
</g>
</g>
<!-- Node13 -->
<g id="Node000013" class="node">
<title>Node13</title>
<g id="a_Node000013"><a xlink:title=" ">
<polygon fill="#e0e0e0" stroke="#999999" points="538.5,-19 495.5,-19 495.5,0 538.5,0 538.5,-19"/>
<text text-anchor="middle" x="517" y="-7" font-family="Times,serif" font-size="10.00">tuple</text>
</a>
</g>
</g>
<!-- Node12&#45;&gt;Node13 -->
<g id="edge13_Node000012_Node000013" class="edge">
<title>Node12&#45;&gt;Node13</title>
<g id="a_edge13_Node000012_Node000013"><a xlink:title=" ">
<path fill="none" stroke="#63b8ff" d="M471.92,-54.75C479.78,-47.03 491.43,-35.6 500.92,-26.28"/>
<polygon fill="#63b8ff" stroke="#63b8ff" points="503.56,-28.59 508.25,-19.09 498.66,-23.6 503.56,-28.59"/>
</a>
</g>
</g>
</g>
</svg>
