<?xml version="1.0" encoding="UTF-8" standalone="no"?>
<!DOCTYPE svg PUBLIC "-//W3C//DTD SVG 1.1//EN"
 "http://www.w3.org/Graphics/SVG/1.1/DTD/svg11.dtd">
<!-- Generated by graphviz version 2.43.0 (0)
 -->
<!-- Title: ttg/ttg/reduce.h Pages: 1 -->
<svg width="239pt" height="137pt"
 viewBox="0.00 0.00 238.69 137.00" xmlns="http://www.w3.org/2000/svg" xmlns:xlink="http://www.w3.org/1999/xlink">

<svg id="main" version="1.1" xmlns="http://www.w3.org/2000/svg" xmlns:xlink="http://www.w3.org/1999/xlink" xml:space="preserve" onload="init(evt)">
<style type="text/css"><![CDATA[
.node, .edge {opacity: 0.7;}
.node.selected, .edge.selected {opacity: 1;}
.edge:hover path { stroke: red; }
.edge:hover polygon { stroke: red; fill: red; }
]]></style>
<script type="application/ecmascript" xlink:href="svg.min.js"/>
<svg id="graph" class="graph">
<g id="graph0" class="graph" transform="scale(1 1) rotate(0) translate(4 133)">
<title>ttg/ttg/reduce.h</title>
<!-- Node1 -->
<g id="Node000001" class="node">
<title>Node1</title>
<g id="a_Node000001"><a xlink:title=" ">
<polygon fill="#999999" stroke="#666666" points="119.19,-129 23.19,-129 23.19,-110 119.19,-110 119.19,-129"/>
<text text-anchor="middle" x="71.19" y="-117" font-family="Times,serif" font-size="10.00">ttg/ttg/reduce.h</text>
</a>
</g>
</g>
<!-- Node2 -->
<g id="Node000002" class="node">
<title>Node2</title>
<g id="a_Node000002"><a xlink:title=" ">
<polygon fill="#e0e0e0" stroke="#999999" points="79.69,-19 26.69,-19 26.69,0 79.69,0 79.69,-19"/>
<text text-anchor="middle" x="53.19" y="-7" font-family="Times,serif" font-size="10.00">cassert</text>
</a>
</g>
</g>
<!-- Node1&#45;&gt;Node2 -->
<g id="edge1_Node000001_Node000002" class="edge">
<title>Node1&#45;&gt;Node2</title>
<g id="a_edge1_Node000001_Node000002"><a xlink:title=" ">
<path fill="none" stroke="#63b8ff" d="M47.41,-109.92C31.76,-102.89 12.52,-91.25 3.19,-74 -6.76,-55.61 11.82,-37.11 29.08,-24.86"/>
<polygon fill="#63b8ff" stroke="#63b8ff" points="31.43,-27.5 37.83,-19.06 27.56,-21.67 31.43,-27.5"/>
</a>
</g>
</g>
<!-- Node3 -->
<g id="Node000003" class="node">
<title>Node3</title>
<g id="a_Node000003"><a xlink:title=" ">
<polygon fill="#e0e0e0" stroke="#999999" points="62.19,-74 12.19,-74 12.19,-55 62.19,-55 62.19,-74"/>
<text text-anchor="middle" x="37.19" y="-62" font-family="Times,serif" font-size="10.00">cstdlib</text>
</a>
</g>
</g>
<!-- Node1&#45;&gt;Node3 -->
<g id="edge2_Node000001_Node000003" class="edge">
<title>Node1&#45;&gt;Node3</title>
<g id="a_edge2_Node000001_Node000003"><a xlink:title=" ">
<path fill="none" stroke="#63b8ff" d="M65.58,-109.75C60.87,-102.42 54.02,-91.73 48.22,-82.7"/>
<polygon fill="#63b8ff" stroke="#63b8ff" points="51.05,-80.62 42.7,-74.09 45.15,-84.4 51.05,-80.62"/>
</a>
</g>
</g>
<!-- Node4 -->
<g id="Node000004" class="node">
<title>Node4</title>
<g id="a_Node000004"><a xlink:title=" ">
<polygon fill="#e0e0e0" stroke="#999999" points="129.69,-74 80.69,-74 80.69,-55 129.69,-55 129.69,-74"/>
<text text-anchor="middle" x="105.19" y="-62" font-family="Times,serif" font-size="10.00">mutex</text>
</a>
</g>
</g>
<!-- Node1&#45;&gt;Node4 -->
<g id="edge3_Node000001_Node000004" class="edge">
<title>Node1&#45;&gt;Node4</title>
<g id="a_edge3_Node000001_Node000004"><a xlink:title=" ">
<path fill="none" stroke="#63b8ff" d="M76.8,-109.75C81.51,-102.42 88.36,-91.73 94.16,-82.7"/>
<polygon fill="#63b8ff" stroke="#63b8ff" points="97.23,-84.4 99.68,-74.09 91.33,-80.62 97.23,-84.4"/>
</a>
</g>
</g>
<!-- Node5 -->
<g id="Node000005" class="node">
<title>Node5</title>
<g id="a_Node000005"><a xlink:href="tree_8h.html" target="_top" xlink:title=" ">
<polygon fill="white" stroke="#666666" points="230.69,-74 147.69,-74 147.69,-55 230.69,-55 230.69,-74"/>
<text text-anchor="middle" x="189.19" y="-62" font-family="Times,serif" font-size="10.00">ttg/util/tree.h</text>
</a>
</g>
</g>
<!-- Node1&#45;&gt;Node5 -->
<g id="edge4_Node000001_Node000005" class="edge">
<title>Node1&#45;&gt;Node5</title>
<g id="a_edge4_Node000001_Node000005"><a xlink:title=" ">
<path fill="none" stroke="#63b8ff" d="M90.15,-109.98C109.22,-101.42 138.85,-88.11 160.74,-78.28"/>
<polygon fill="#63b8ff" stroke="#63b8ff" points="162.2,-81.46 169.89,-74.17 159.33,-75.07 162.2,-81.46"/>
</a>
</g>
</g>
<!-- Node5&#45;&gt;Node2 -->
<g id="edge5_Node000005_Node000002" class="edge">
<title>Node5&#45;&gt;Node2</title>
<g id="a_edge5_Node000005_Node000002"><a xlink:title=" ">
<path fill="none" stroke="#63b8ff" d="M167.34,-54.98C145.07,-46.3 110.29,-32.75 84.97,-22.88"/>
<polygon fill="#63b8ff" stroke="#63b8ff" points="86.03,-19.54 75.44,-19.17 83.48,-26.06 86.03,-19.54"/>
</a>
</g>
</g>
<!-- Node6 -->
<g id="Node000006" class="node">
<title>Node6</title>
<g id="a_Node000006"><a xlink:title=" ">
<polygon fill="#e0e0e0" stroke="#999999" points="212.19,-19 166.19,-19 166.19,0 212.19,0 212.19,-19"/>
<text text-anchor="middle" x="189.19" y="-7" font-family="Times,serif" font-size="10.00">utility</text>
</a>
</g>
</g>
<!-- Node5&#45;&gt;Node6 -->
<g id="edge6_Node000005_Node000006" class="edge">
<title>Node5&#45;&gt;Node6</title>
<g id="a_edge6_Node000005_Node000006"><a xlink:title=" ">
<path fill="none" stroke="#63b8ff" d="M189.19,-54.75C189.19,-47.8 189.19,-37.85 189.19,-29.13"/>
<polygon fill="#63b8ff" stroke="#63b8ff" points="192.69,-29.09 189.19,-19.09 185.69,-29.09 192.69,-29.09"/>
</a>
</g>
</g>
</g>
</svg>
</svg>

<style type='text/css'>
<![CDATA[
[data-mouse-over-selected='false'] { opacity: 0.7; }
[data-mouse-over-selected='true']  { opacity: 1.0; }
]]>
</style>
<script type="application/ecmascript"><![CDATA[
document.addEventListener('DOMContentLoaded', (event) => {
  highlightEdges();
  highlightAdjacentNodes();
});
]]></script>
</svg>
