<?xml version="1.0" encoding="UTF-8" standalone="no"?>
<!DOCTYPE svg PUBLIC "-//W3C//DTD SVG 1.1//EN"
 "http://www.w3.org/Graphics/SVG/1.1/DTD/svg11.dtd">
<!-- Generated by graphviz version 2.43.0 (0)
 -->
<!-- Title: main Pages: 1 -->
<svg width="395pt" height="359pt"
 viewBox="0.00 0.00 395.00 359.00" xmlns="http://www.w3.org/2000/svg" xmlns:xlink="http://www.w3.org/1999/xlink">

<svg id="main" version="1.1" xmlns="http://www.w3.org/2000/svg" xmlns:xlink="http://www.w3.org/1999/xlink" xml:space="preserve" onload="init(evt)">
<style type="text/css"><![CDATA[
.node, .edge {opacity: 0.7;}
.node.selected, .edge.selected {opacity: 1;}
.edge:hover path { stroke: red; }
.edge:hover polygon { stroke: red; fill: red; }
]]></style>
<script type="application/ecmascript" xlink:href="svg.min.js"/>
<svg id="graph" class="graph">
<g id="graph0" class="graph" transform="scale(1 1) rotate(0) translate(4 355)">
<title>main</title>
<!-- Node1 -->
<g id="Node000001" class="node">
<title>Node1</title>
<g id="a_Node000001"><a xlink:title=" ">
<polygon fill="#999999" stroke="#666666" points="42,-185 0,-185 0,-166 42,-166 42,-185"/>
<text text-anchor="middle" x="21" y="-173" font-family="Times,serif" font-size="10.00">main</text>
</a>
</g>
</g>
<!-- Node2 -->
<g id="Node000002" class="node">
<title>Node2</title>
<g id="a_Node000002"><a xlink:href="namespacettg.html#afbabcd9802bf1bbdd302e7a612459353" target="_top" xlink:title="Make a tuple of Edges to pass to.">
<polygon fill="white" stroke="#666666" points="192.5,-351 124.5,-351 124.5,-332 192.5,-332 192.5,-351"/>
<text text-anchor="middle" x="158.5" y="-339" font-family="Times,serif" font-size="10.00">ttg::edges</text>
</a>
</g>
</g>
<!-- Node1&#45;&gt;Node2 -->
<g id="edge1_Node000001_Node000002" class="edge">
<title>Node1&#45;&gt;Node2</title>
<g id="a_edge1_Node000001_Node000002"><a xlink:title=" ">
<path fill="none" stroke="#63b8ff" d="M22.62,-185.2C24.86,-211.73 34.88,-286 78,-323.5 88.03,-332.22 101.39,-336.97 114.3,-339.48"/>
<polygon fill="#63b8ff" stroke="#63b8ff" points="114.06,-342.98 124.48,-341.05 115.13,-336.06 114.06,-342.98"/>
</a>
</g>
</g>
<!-- Node3 -->
<g id="Node000003" class="node">
<title>Node3</title>
<g id="a_Node000003"><a xlink:href="namespacettg.html#a1261c57f70c978771f64af07d7f7d7cd" target="_top" xlink:title="Starts the execution in the given execution context.">
<polygon fill="white" stroke="#666666" points="197,-314 120,-314 120,-295 197,-295 197,-314"/>
<text text-anchor="middle" x="158.5" y="-302" font-family="Times,serif" font-size="10.00">ttg::execute</text>
</a>
</g>
</g>
<!-- Node1&#45;&gt;Node3 -->
<g id="edge2_Node000001_Node000003" class="edge">
<title>Node1&#45;&gt;Node3</title>
<g id="a_edge2_Node000001_Node000003"><a xlink:title=" ">
<path fill="none" stroke="#63b8ff" d="M23.98,-185.3C28.94,-207.13 43.98,-259.93 78,-286.5 87.14,-293.64 98.58,-298.06 109.91,-300.76"/>
<polygon fill="#63b8ff" stroke="#63b8ff" points="109.29,-304.2 119.78,-302.71 110.65,-297.33 109.29,-304.2"/>
</a>
</g>
</g>
<!-- Node4 -->
<g id="Node000004" class="node">
<title>Node4</title>
<g id="a_Node000004"><a xlink:href="namespacettg.html#a807bf42719a82b1539603d477aa2a3fd" target="_top" xlink:title="Returns when all tasks associated with the given execution context have finished on all ranks.">
<polygon fill="white" stroke="#666666" points="191,-277 126,-277 126,-258 191,-258 191,-277"/>
<text text-anchor="middle" x="158.5" y="-265" font-family="Times,serif" font-size="10.00">ttg::fence</text>
</a>
</g>
</g>
<!-- Node1&#45;&gt;Node4 -->
<g id="edge3_Node000001_Node000004" class="edge">
<title>Node1&#45;&gt;Node4</title>
<g id="a_edge3_Node000001_Node000004"><a xlink:title=" ">
<path fill="none" stroke="#63b8ff" d="M26.49,-185.17C34.47,-201.21 52.68,-233.17 78,-249.5 89.17,-256.7 102.84,-261.04 115.67,-263.65"/>
<polygon fill="#63b8ff" stroke="#63b8ff" points="115.27,-267.13 125.72,-265.39 116.47,-260.24 115.27,-267.13"/>
</a>
</g>
</g>
<!-- Node5 -->
<g id="Node000005" class="node">
<title>Node5</title>
<g id="a_Node000005"><a xlink:href="namespacettg.html#a96780ef3c553a2f45aa7ea881bdb6490" target="_top" xlink:title="Finalizes the TTG runtime.">
<polygon fill="white" stroke="#666666" points="195.5,-222 121.5,-222 121.5,-203 195.5,-203 195.5,-222"/>
<text text-anchor="middle" x="158.5" y="-210" font-family="Times,serif" font-size="10.00">ttg::finalize</text>
</a>
</g>
</g>
<!-- Node1&#45;&gt;Node5 -->
<g id="edge4_Node000001_Node000005" class="edge">
<title>Node1&#45;&gt;Node5</title>
<g id="a_edge4_Node000001_Node000005"><a xlink:title=" ">
<path fill="none" stroke="#63b8ff" d="M42.06,-182.87C52.66,-186.63 65.95,-191.1 78,-194.5 88.74,-197.53 100.41,-200.4 111.41,-202.92"/>
<polygon fill="#63b8ff" stroke="#63b8ff" points="110.76,-206.36 121.29,-205.14 112.29,-199.53 110.76,-206.36"/>
</a>
</g>
</g>
<!-- Node6 -->
<g id="Node000006" class="node">
<title>Node6</title>
<g id="a_Node000006"><a xlink:href="namespacettg.html#a5829b255a41f2e47fa0e27bb5c791824" target="_top" xlink:title=" ">
<polygon fill="white" stroke="#666666" points="222.5,-185 94.5,-185 94.5,-166 222.5,-166 222.5,-185"/>
<text text-anchor="middle" x="158.5" y="-173" font-family="Times,serif" font-size="10.00">ttg::get_default_world</text>
</a>
</g>
</g>
<!-- Node1&#45;&gt;Node6 -->
<g id="edge6_Node000001_Node000006" class="edge">
<title>Node1&#45;&gt;Node6</title>
<g id="a_edge6_Node000001_Node000006"><a xlink:title=" ">
<path fill="none" stroke="#63b8ff" d="M42.29,-175.5C53.73,-175.5 68.81,-175.5 84.27,-175.5"/>
<polygon fill="#63b8ff" stroke="#63b8ff" points="84.45,-179 94.45,-175.5 84.45,-172 84.45,-179"/>
</a>
</g>
</g>
<!-- Node7 -->
<g id="Node000007" class="node">
<title>Node7</title>
<g id="a_Node000007"><a xlink:href="namespacettg.html#a19c06079af2c21be154b525ff21028d1" target="_top" xlink:title=" ">
<polygon fill="white" stroke="#666666" points="198.5,-148 118.5,-148 118.5,-129 198.5,-129 198.5,-148"/>
<text text-anchor="middle" x="158.5" y="-136" font-family="Times,serif" font-size="10.00">ttg::initialize</text>
</a>
</g>
</g>
<!-- Node1&#45;&gt;Node7 -->
<g id="edge7_Node000001_Node000007" class="edge">
<title>Node1&#45;&gt;Node7</title>
<g id="a_edge7_Node000001_Node000007"><a xlink:title=" ">
<path fill="none" stroke="#63b8ff" d="M42.11,-168.63C52.72,-165.1 66,-160.86 78,-157.5 87.74,-154.78 98.21,-152.1 108.26,-149.65"/>
<polygon fill="#63b8ff" stroke="#63b8ff" points="109.22,-153.02 118.12,-147.28 107.58,-146.21 109.22,-153.02"/>
</a>
</g>
</g>
<!-- Node8 -->
<g id="Node000008" class="node">
<title>Node8</title>
<g id="a_Node000008"><a xlink:href="namespacettg.html#ade4672895f07e88909dab1644c69e60a" target="_top" xlink:title="Make the TTG tts executable. Applies.">
<polygon fill="white" stroke="#666666" points="239,-111 78,-111 78,-92 239,-92 239,-111"/>
<text text-anchor="middle" x="158.5" y="-99" font-family="Times,serif" font-size="10.00">ttg::make_graph_executable</text>
</a>
</g>
</g>
<!-- Node1&#45;&gt;Node8 -->
<g id="edge8_Node000001_Node000008" class="edge">
<title>Node1&#45;&gt;Node8</title>
<g id="a_edge8_Node000001_Node000008"><a xlink:title=" ">
<path fill="none" stroke="#63b8ff" d="M29.17,-165.72C38.84,-153.26 57.25,-131.98 78,-120.5 82.02,-118.28 86.29,-116.31 90.69,-114.57"/>
<polygon fill="#63b8ff" stroke="#63b8ff" points="92.21,-117.75 100.48,-111.12 89.88,-111.15 92.21,-117.75"/>
</a>
</g>
</g>
<!-- Node10 -->
<g id="Node000010" class="node">
<title>Node10</title>
<g id="a_Node000010"><a xlink:href="namespacettg.html#aa3510e128b769afb53720d24fa83fb97" target="_top" xlink:title="atomically prints to std::cout a sequence of items (separated by ttg::print_separator) followed by st...">
<polygon fill="white" stroke="#666666" points="189.5,-74 127.5,-74 127.5,-55 189.5,-55 189.5,-74"/>
<text text-anchor="middle" x="158.5" y="-62" font-family="Times,serif" font-size="10.00">ttg::print</text>
</a>
</g>
</g>
<!-- Node1&#45;&gt;Node10 -->
<g id="edge10_Node000001_Node000010" class="edge">
<title>Node1&#45;&gt;Node10</title>
<g id="a_edge10_Node000001_Node000010"><a xlink:title=" ">
<path fill="none" stroke="#63b8ff" d="M24.95,-165.84C31.31,-146.72 48.21,-104.03 78,-82.5 89.33,-74.31 103.76,-69.76 117.21,-67.26"/>
<polygon fill="#63b8ff" stroke="#63b8ff" points="117.88,-70.7 127.23,-65.72 116.82,-63.78 117.88,-70.7"/>
</a>
</g>
</g>
<!-- Node12 -->
<g id="Node000012" class="node">
<title>Node12</title>
<g id="a_Node000012"><a xlink:href="namespacettg.html#a1b23b6cea5360627c9f1e1e9f421bcf3" target="_top" xlink:title="Sends a control message (message without an accompanying task id or a value) to the template tasks at...">
<polygon fill="white" stroke="#666666" points="189.5,-19 127.5,-19 127.5,0 189.5,0 189.5,-19"/>
<text text-anchor="middle" x="158.5" y="-7" font-family="Times,serif" font-size="10.00">ttg::send</text>
</a>
</g>
</g>
<!-- Node1&#45;&gt;Node12 -->
<g id="edge12_Node000001_Node000012" class="edge">
<title>Node1&#45;&gt;Node12</title>
<g id="a_edge12_Node000001_Node000012"><a xlink:title=" ">
<path fill="none" stroke="#63b8ff" d="M23.71,-165.67C28.32,-141.98 43.05,-81.1 78,-45.5 88.87,-34.43 103.76,-26.46 117.71,-20.87"/>
<polygon fill="#63b8ff" stroke="#63b8ff" points="119,-24.13 127.16,-17.38 116.57,-17.57 119,-24.13"/>
</a>
</g>
</g>
<!-- Node5&#45;&gt;Node5 -->
<g id="edge5_Node000005_Node000005" class="edge">
<title>Node5&#45;&gt;Node5</title>
<g id="a_edge5_Node000005_Node000005"><a xlink:title=" ">
<path fill="none" stroke="#63b8ff" d="M137.54,-222.08C127.34,-230.73 134.33,-240 158.5,-240 173.99,-240 182.42,-236.2 183.8,-231.19"/>
<polygon fill="#63b8ff" stroke="#63b8ff" points="186.92,-229.61 179.46,-222.08 180.6,-232.62 186.92,-229.61"/>
</a>
</g>
</g>
<!-- Node9 -->
<g id="Node000009" class="node">
<title>Node9</title>
<g id="a_Node000009"><a xlink:href="namespacettg.html#ac9c4eec56ea2e0cbc9bf52e1129bfee5" target="_top" xlink:title=" ">
<polygon fill="white" stroke="#666666" points="387,-114 275,-114 275,-95 387,-95 387,-114"/>
<text text-anchor="middle" x="331" y="-102" font-family="Times,serif" font-size="10.00">ttg::make_traverse</text>
</a>
</g>
</g>
<!-- Node8&#45;&gt;Node9 -->
<g id="edge9_Node000008_Node000009" class="edge">
<title>Node8&#45;&gt;Node9</title>
<g id="a_edge9_Node000008_Node000009"><a xlink:title=" ">
<path fill="none" stroke="#63b8ff" d="M239.26,-102.9C247.67,-103.05 256.15,-103.2 264.37,-103.35"/>
<polygon fill="#63b8ff" stroke="#63b8ff" points="264.57,-106.85 274.63,-103.53 264.69,-99.85 264.57,-106.85"/>
</a>
</g>
</g>
<!-- Node11 -->
<g id="Node000011" class="node">
<title>Node11</title>
<g id="a_Node000011"><a xlink:href="namespacettg_1_1detail.html#a26e07486d5ef8eb5735a8975991a7693" target="_top" xlink:title=" ">
<polygon fill="white" stroke="#666666" points="379,-76.5 283,-76.5 283,-46.5 379,-46.5 379,-76.5"/>
<text text-anchor="start" x="291" y="-64.5" font-family="Times,serif" font-size="10.00">ttg::detail::print</text>
<text text-anchor="middle" x="331" y="-53.5" font-family="Times,serif" font-size="10.00">_helper</text>
</a>
</g>
</g>
<!-- Node10&#45;&gt;Node11 -->
<g id="edge11_Node000010_Node000011" class="edge">
<title>Node10&#45;&gt;Node11</title>
<g id="a_edge11_Node000010_Node000011"><a xlink:title=" ">
<path fill="none" stroke="#63b8ff" d="M189.59,-63.97C212.58,-63.57 244.95,-63 272.81,-62.51"/>
<polygon fill="#63b8ff" stroke="#63b8ff" points="272.91,-66.01 282.85,-62.33 272.79,-59.01 272.91,-66.01"/>
</a>
</g>
</g>
<!-- Node12&#45;&gt;Node12 -->
<g id="edge13_Node000012_Node000012" class="edge">
<title>Node12&#45;&gt;Node12</title>
<g id="a_edge13_Node000012_Node000012"><a xlink:title=" ">
<path fill="none" stroke="#63b8ff" d="M137.54,-19.08C127.34,-27.73 134.33,-37 158.5,-37 173.99,-37 182.42,-33.2 183.8,-28.19"/>
<polygon fill="#63b8ff" stroke="#63b8ff" points="186.92,-26.61 179.46,-19.08 180.6,-29.62 186.92,-26.61"/>
</a>
</g>
</g>
</g>
</svg>
</svg>

<style type='text/css'>
<![CDATA[
[data-mouse-over-selected='false'] { opacity: 0.7; }
[data-mouse-over-selected='true']  { opacity: 1.0; }
]]>
</style>
<script type="application/ecmascript"><![CDATA[
document.addEventListener('DOMContentLoaded', (event) => {
  highlightEdges();
  highlightAdjacentNodes();
});
]]></script>
</svg>
