<?xml version="1.0" encoding="UTF-8" standalone="no"?>
<!DOCTYPE svg PUBLIC "-//W3C//DTD SVG 1.1//EN"
 "http://www.w3.org/Graphics/SVG/1.1/DTD/svg11.dtd">
<!-- Generated by graphviz version 2.43.0 (0)
 -->
<!-- Title: ttg/ttg/run.h Pages: 1 -->
<svg width="1634pt" height="412pt"
 viewBox="0.00 0.00 1634.00 412.00" xmlns="http://www.w3.org/2000/svg" xmlns:xlink="http://www.w3.org/1999/xlink">
<g id="graph0" class="graph" transform="scale(1 1) rotate(0) translate(4 408)">
<title>ttg/ttg/run.h</title>
<!-- Node1 -->
<g id="Node000001" class="node">
<title>Node1</title>
<g id="a_Node000001"><a xlink:title=" ">
<polygon fill="#999999" stroke="#666666" points="364.5,-404 285.5,-404 285.5,-385 364.5,-385 364.5,-404"/>
<text text-anchor="middle" x="325" y="-392" font-family="Times,serif" font-size="10.00">ttg/ttg/run.h</text>
</a>
</g>
</g>
<!-- Node2 -->
<g id="Node000002" class="node">
<title>Node2</title>
<g id="a_Node000002"><a xlink:href="fwd_8h.html" target="_top" xlink:title=" ">
<polygon fill="white" stroke="#666666" points="62,-129 0,-129 0,-110 62,-110 62,-129"/>
<text text-anchor="middle" x="31" y="-117" font-family="Times,serif" font-size="10.00">ttg/fwd.h</text>
</a>
</g>
</g>
<!-- Node1&#45;&gt;Node2 -->
<g id="edge1_Node000001_Node000002" class="edge">
<title>Node1&#45;&gt;Node2</title>
<g id="a_edge1_Node000001_Node000002"><a xlink:title=" ">
<path fill="none" stroke="#63b8ff" d="M285.3,-388.23C201.45,-376 14,-342.3 14,-285.5 14,-285.5 14,-285.5 14,-228.5 14,-196.8 21.23,-160.51 26.26,-139.09"/>
<polygon fill="#63b8ff" stroke="#63b8ff" points="29.73,-139.65 28.71,-129.11 22.93,-137.99 29.73,-139.65"/>
</a>
</g>
</g>
<!-- Node4 -->
<g id="Node000004" class="node">
<title>Node4</title>
<g id="a_Node000004"><a xlink:href="bug_8h.html" target="_top" xlink:title=" ">
<polygon fill="white" stroke="#666666" points="371.5,-294 288.5,-294 288.5,-275 371.5,-275 371.5,-294"/>
<text text-anchor="middle" x="330" y="-282" font-family="Times,serif" font-size="10.00">ttg/util/bug.h</text>
</a>
</g>
</g>
<!-- Node1&#45;&gt;Node4 -->
<g id="edge3_Node000001_Node000004" class="edge">
<title>Node1&#45;&gt;Node4</title>
<g id="a_edge3_Node000001_Node000004"><a xlink:title=" ">
<path fill="none" stroke="#63b8ff" d="M320.49,-384.9C314.68,-372.71 305.77,-349.72 310,-330 311.97,-320.8 316,-311.2 319.93,-303.29"/>
<polygon fill="#63b8ff" stroke="#63b8ff" points="323.09,-304.79 324.68,-294.32 316.91,-301.51 323.09,-304.79"/>
</a>
</g>
</g>
<!-- Node12 -->
<g id="Node000012" class="node">
<title>Node12</title>
<g id="a_Node000012"><a xlink:href="util_2env_8h.html" target="_top" xlink:title=" ">
<polygon fill="white" stroke="#666666" points="399,-349 319,-349 319,-330 399,-330 399,-349"/>
<text text-anchor="middle" x="359" y="-337" font-family="Times,serif" font-size="10.00">ttg/util/env.h</text>
</a>
</g>
</g>
<!-- Node1&#45;&gt;Node12 -->
<g id="edge11_Node000001_Node000012" class="edge">
<title>Node1&#45;&gt;Node12</title>
<g id="a_edge11_Node000001_Node000012"><a xlink:title=" ">
<path fill="none" stroke="#63b8ff" d="M330.61,-384.75C335.32,-377.42 342.17,-366.73 347.97,-357.7"/>
<polygon fill="#63b8ff" stroke="#63b8ff" points="351.04,-359.4 353.49,-349.09 345.14,-355.62 351.04,-359.4"/>
</a>
</g>
</g>
<!-- Node13 -->
<g id="Node000013" class="node">
<title>Node13</title>
<g id="a_Node000013"><a xlink:href="world_8h.html" target="_top" xlink:title=" ">
<polygon fill="white" stroke="#666666" points="489,-349 417,-349 417,-330 489,-330 489,-349"/>
<text text-anchor="middle" x="453" y="-337" font-family="Times,serif" font-size="10.00">ttg/world.h</text>
</a>
</g>
</g>
<!-- Node1&#45;&gt;Node13 -->
<g id="edge12_Node000001_Node000013" class="edge">
<title>Node1&#45;&gt;Node13</title>
<g id="a_edge12_Node000001_Node000013"><a xlink:title=" ">
<path fill="none" stroke="#63b8ff" d="M345.57,-384.98C366.43,-376.34 398.97,-362.87 422.77,-353.02"/>
<polygon fill="#63b8ff" stroke="#63b8ff" points="424.16,-356.23 432.06,-349.17 421.48,-349.76 424.16,-356.23"/>
</a>
</g>
</g>
<!-- Node3 -->
<g id="Node000003" class="node">
<title>Node3</title>
<g id="a_Node000003"><a xlink:href="impl__selector_8h.html" target="_top" xlink:title=" ">
<polygon fill="white" stroke="#666666" points="116,-74 6,-74 6,-55 116,-55 116,-74"/>
<text text-anchor="middle" x="61" y="-62" font-family="Times,serif" font-size="10.00">ttg/impl_selector.h</text>
</a>
</g>
</g>
<!-- Node2&#45;&gt;Node3 -->
<g id="edge2_Node000002_Node000003" class="edge">
<title>Node2&#45;&gt;Node3</title>
<g id="a_edge2_Node000002_Node000003"><a xlink:title=" ">
<path fill="none" stroke="#63b8ff" d="M35.95,-109.75C40.06,-102.49 46.03,-91.95 51.1,-82.98"/>
<polygon fill="#63b8ff" stroke="#63b8ff" points="54.26,-84.52 56.14,-74.09 48.17,-81.07 54.26,-84.52"/>
</a>
</g>
</g>
<!-- Node5 -->
<g id="Node000005" class="node">
<title>Node5</title>
<g id="a_Node000005"><a xlink:title=" ">
<polygon fill="#e0e0e0" stroke="#999999" points="571.5,-239 518.5,-239 518.5,-220 571.5,-220 571.5,-239"/>
<text text-anchor="middle" x="545" y="-227" font-family="Times,serif" font-size="10.00">cassert</text>
</a>
</g>
</g>
<!-- Node4&#45;&gt;Node5 -->
<g id="edge4_Node000004_Node000005" class="edge">
<title>Node4&#45;&gt;Node5</title>
<g id="a_edge4_Node000004_Node000005"><a xlink:title=" ">
<path fill="none" stroke="#63b8ff" d="M364.54,-274.98C403.96,-265.27 468.17,-249.44 508.42,-239.52"/>
<polygon fill="#63b8ff" stroke="#63b8ff" points="509.48,-242.86 518.35,-237.07 507.8,-236.06 509.48,-242.86"/>
</a>
</g>
</g>
<!-- Node6 -->
<g id="Node000006" class="node">
<title>Node6</title>
<g id="a_Node000006"><a xlink:title=" ">
<polygon fill="#e0e0e0" stroke="#999999" points="435.5,-129 376.5,-129 376.5,-110 435.5,-110 435.5,-129"/>
<text text-anchor="middle" x="406" y="-117" font-family="Times,serif" font-size="10.00">memory</text>
</a>
</g>
</g>
<!-- Node4&#45;&gt;Node6 -->
<g id="edge5_Node000004_Node000006" class="edge">
<title>Node4&#45;&gt;Node6</title>
<g id="a_edge5_Node000004_Node000006"><a xlink:title=" ">
<path fill="none" stroke="#63b8ff" d="M334.09,-274.74C346.05,-249.09 381.16,-173.78 397.48,-138.78"/>
<polygon fill="#63b8ff" stroke="#63b8ff" points="400.84,-139.85 401.89,-129.31 394.5,-136.89 400.84,-139.85"/>
</a>
</g>
</g>
<!-- Node7 -->
<g id="Node000007" class="node">
<title>Node7</title>
<g id="a_Node000007"><a xlink:title=" ">
<polygon fill="#e0e0e0" stroke="#999999" points="500,-239 434,-239 434,-220 500,-220 500,-239"/>
<text text-anchor="middle" x="467" y="-227" font-family="Times,serif" font-size="10.00">stdexcept</text>
</a>
</g>
</g>
<!-- Node4&#45;&gt;Node7 -->
<g id="edge6_Node000004_Node000007" class="edge">
<title>Node4&#45;&gt;Node7</title>
<g id="a_edge6_Node000004_Node000007"><a xlink:title=" ">
<path fill="none" stroke="#63b8ff" d="M352.01,-274.98C374.45,-266.3 409.48,-252.75 434.99,-242.88"/>
<polygon fill="#63b8ff" stroke="#63b8ff" points="436.52,-246.04 444.59,-239.17 434,-239.51 436.52,-246.04"/>
</a>
</g>
</g>
<!-- Node8 -->
<g id="Node000008" class="node">
<title>Node8</title>
<g id="a_Node000008"><a xlink:title=" ">
<polygon fill="#e0e0e0" stroke="#999999" points="669.5,-129 622.5,-129 622.5,-110 669.5,-110 669.5,-129"/>
<text text-anchor="middle" x="646" y="-117" font-family="Times,serif" font-size="10.00">string</text>
</a>
</g>
</g>
<!-- Node4&#45;&gt;Node8 -->
<g id="edge7_Node000004_Node000008" class="edge">
<title>Node4&#45;&gt;Node8</title>
<g id="a_edge7_Node000004_Node000008"><a xlink:title=" ">
<path fill="none" stroke="#63b8ff" d="M340.44,-274.86C357.25,-261.34 391.8,-235.17 425,-220 479.92,-194.9 501.4,-209.79 556,-184 583.09,-171.2 610.74,-150.28 628.11,-135.98"/>
<polygon fill="#63b8ff" stroke="#63b8ff" points="630.79,-138.29 636.2,-129.18 626.29,-132.93 630.79,-138.29"/>
</a>
</g>
</g>
<!-- Node9 -->
<g id="Node000009" class="node">
<title>Node9</title>
<g id="a_Node000009"><a xlink:title=" ">
<polygon fill="#e0e0e0" stroke="#999999" points="302,-239 204,-239 204,-220 302,-220 302,-239"/>
<text text-anchor="middle" x="253" y="-227" font-family="Times,serif" font-size="10.00">unordered_map</text>
</a>
</g>
</g>
<!-- Node4&#45;&gt;Node9 -->
<g id="edge8_Node000004_Node000009" class="edge">
<title>Node4&#45;&gt;Node9</title>
<g id="a_edge8_Node000004_Node000009"><a xlink:title=" ">
<path fill="none" stroke="#63b8ff" d="M317.63,-274.98C305.91,-266.92 288.08,-254.65 274.11,-245.03"/>
<polygon fill="#63b8ff" stroke="#63b8ff" points="275.82,-241.96 265.6,-239.17 271.85,-247.72 275.82,-241.96"/>
</a>
</g>
</g>
<!-- Node10 -->
<g id="Node000010" class="node">
<title>Node10</title>
<g id="a_Node000010"><a xlink:title=" ">
<polygon fill="#e0e0e0" stroke="#999999" points="661,-74 613,-74 613,-55 661,-55 661,-74"/>
<text text-anchor="middle" x="637" y="-62" font-family="Times,serif" font-size="10.00">vector</text>
</a>
</g>
</g>
<!-- Node4&#45;&gt;Node10 -->
<g id="edge9_Node000004_Node000010" class="edge">
<title>Node4&#45;&gt;Node10</title>
<g id="a_edge9_Node000004_Node000010"><a xlink:title=" ">
<path fill="none" stroke="#63b8ff" d="M328.81,-274.7C325.5,-246.17 319.32,-155.5 367,-110 400.29,-78.23 537.8,-69.06 602.74,-66.48"/>
<polygon fill="#63b8ff" stroke="#63b8ff" points="603.02,-69.97 612.88,-66.11 602.76,-62.98 603.02,-69.97"/>
</a>
</g>
</g>
<!-- Node11 -->
<g id="Node000011" class="node">
<title>Node11</title>
<g id="a_Node000011"><a xlink:title=" ">
<polygon fill="#e0e0e0" stroke="#999999" points="185.5,-239 118.5,-239 118.5,-220 185.5,-220 185.5,-239"/>
<text text-anchor="middle" x="152" y="-227" font-family="Times,serif" font-size="10.00">pthread.h</text>
</a>
</g>
</g>
<!-- Node4&#45;&gt;Node11 -->
<g id="edge10_Node000004_Node000011" class="edge">
<title>Node4&#45;&gt;Node11</title>
<g id="a_edge10_Node000004_Node000011"><a xlink:title=" ">
<path fill="none" stroke="#63b8ff" d="M301.4,-274.98C271.39,-266.05 224.02,-251.94 190.68,-242.02"/>
<polygon fill="#63b8ff" stroke="#63b8ff" points="191.41,-238.58 180.82,-239.08 189.41,-245.29 191.41,-238.58"/>
</a>
</g>
</g>
<!-- Node13&#45;&gt;Node2 -->
<g id="edge69_Node000013_Node000002" class="edge">
<title>Node13&#45;&gt;Node2</title>
<g id="a_edge69_Node000013_Node000002"><a xlink:title=" ">
<path fill="none" stroke="#63b8ff" d="M416.69,-331.39C413.76,-330.89 410.83,-330.42 408,-330 334.59,-319.1 132.16,-342.51 76,-294 30.32,-254.53 28.03,-175.24 29.6,-139.15"/>
<polygon fill="#63b8ff" stroke="#63b8ff" points="33.1,-139.25 30.2,-129.06 26.11,-138.84 33.1,-139.25"/>
</a>
</g>
</g>
<!-- Node13&#45;&gt;Node3 -->
<g id="edge13_Node000013_Node000003" class="edge">
<title>Node13&#45;&gt;Node3</title>
<g id="a_edge13_Node000013_Node000003"><a xlink:title=" ">
<path fill="none" stroke="#63b8ff" d="M416.87,-331.62C325.05,-313.66 90,-264.36 90,-230.5 90,-230.5 90,-230.5 90,-173.5 90,-140.95 77.56,-104.71 68.97,-83.57"/>
<polygon fill="#63b8ff" stroke="#63b8ff" points="72.15,-82.09 65.03,-74.25 65.7,-84.82 72.15,-82.09"/>
</a>
</g>
</g>
<!-- Node13&#45;&gt;Node7 -->
<g id="edge14_Node000013_Node000007" class="edge">
<title>Node13&#45;&gt;Node7</title>
<g id="a_edge14_Node000013_Node000007"><a xlink:title=" ">
<path fill="none" stroke="#63b8ff" d="M456,-329.76C458.9,-320.88 463.12,-306.66 465,-294 467.21,-279.13 467.63,-262.1 467.55,-249.42"/>
<polygon fill="#63b8ff" stroke="#63b8ff" points="471.04,-249.12 467.36,-239.18 464.04,-249.25 471.04,-249.12"/>
</a>
</g>
</g>
<!-- Node14 -->
<g id="Node000014" class="node">
<title>Node14</title>
<g id="a_Node000014"><a xlink:title=" ">
<polygon fill="#e0e0e0" stroke="#999999" points="456,-294 390,-294 390,-275 456,-275 456,-294"/>
<text text-anchor="middle" x="423" y="-282" font-family="Times,serif" font-size="10.00">algorithm</text>
</a>
</g>
</g>
<!-- Node13&#45;&gt;Node14 -->
<g id="edge15_Node000013_Node000014" class="edge">
<title>Node13&#45;&gt;Node14</title>
<g id="a_edge15_Node000013_Node000014"><a xlink:title=" ">
<path fill="none" stroke="#63b8ff" d="M448.05,-329.75C443.94,-322.49 437.97,-311.95 432.9,-302.98"/>
<polygon fill="#63b8ff" stroke="#63b8ff" points="435.83,-301.07 427.86,-294.09 429.74,-304.52 435.83,-301.07"/>
</a>
</g>
</g>
<!-- Node15 -->
<g id="Node000015" class="node">
<title>Node15</title>
<g id="a_Node000015"><a xlink:href="base_2world_8h.html" target="_top" xlink:title=" ">
<polygon fill="white" stroke="#666666" points="730.5,-294 631.5,-294 631.5,-275 730.5,-275 730.5,-294"/>
<text text-anchor="middle" x="681" y="-282" font-family="Times,serif" font-size="10.00">ttg/base/world.h</text>
</a>
</g>
</g>
<!-- Node13&#45;&gt;Node15 -->
<g id="edge16_Node000013_Node000015" class="edge">
<title>Node13&#45;&gt;Node15</title>
<g id="a_edge16_Node000013_Node000015"><a xlink:title=" ">
<path fill="none" stroke="#63b8ff" d="M489.13,-330.1C528.42,-320.97 591.35,-306.34 634.35,-296.34"/>
<polygon fill="#63b8ff" stroke="#63b8ff" points="635.34,-299.71 644.29,-294.03 633.75,-292.89 635.34,-299.71"/>
</a>
</g>
</g>
<!-- Node34 -->
<g id="Node000034" class="node">
<title>Node34</title>
<g id="a_Node000034"><a xlink:href="keymap_8h.html" target="_top" xlink:title=" ">
<polygon fill="white" stroke="#666666" points="1572.5,-294 1461.5,-294 1461.5,-275 1572.5,-275 1572.5,-294"/>
<text text-anchor="middle" x="1517" y="-282" font-family="Times,serif" font-size="10.00">ttg/base/keymap.h</text>
</a>
</g>
</g>
<!-- Node13&#45;&gt;Node34 -->
<g id="edge47_Node000013_Node000034" class="edge">
<title>Node13&#45;&gt;Node34</title>
<g id="a_edge47_Node000013_Node000034"><a xlink:title=" ">
<path fill="none" stroke="#63b8ff" d="M489.01,-336.71C643.24,-329.02 1249.37,-298.83 1451.21,-288.78"/>
<polygon fill="#63b8ff" stroke="#63b8ff" points="1451.55,-292.26 1461.37,-288.27 1451.21,-285.27 1451.55,-292.26"/>
</a>
</g>
</g>
<!-- Node15&#45;&gt;Node5 -->
<g id="edge17_Node000015_Node000005" class="edge">
<title>Node15&#45;&gt;Node5</title>
<g id="a_edge17_Node000015_Node000005"><a xlink:title=" ">
<path fill="none" stroke="#63b8ff" d="M659.15,-274.98C636.88,-266.3 602.1,-252.75 576.78,-242.88"/>
<polygon fill="#63b8ff" stroke="#63b8ff" points="577.84,-239.54 567.25,-239.17 575.29,-246.06 577.84,-239.54"/>
</a>
</g>
</g>
<!-- Node15&#45;&gt;Node6 -->
<g id="edge21_Node000015_Node000006" class="edge">
<title>Node15&#45;&gt;Node6</title>
<g id="a_edge21_Node000015_Node000006"><a xlink:title=" ">
<path fill="none" stroke="#63b8ff" d="M670.16,-274.96C652.37,-261.34 615.37,-234.74 580,-220 514.72,-192.8 476.55,-232.42 425,-184 412.82,-172.56 408.35,-153.67 406.75,-139.46"/>
<polygon fill="#63b8ff" stroke="#63b8ff" points="410.23,-139.02 406,-129.3 403.25,-139.53 410.23,-139.02"/>
</a>
</g>
</g>
<!-- Node16 -->
<g id="Node000016" class="node">
<title>Node16</title>
<g id="a_Node000016"><a xlink:title=" ">
<polygon fill="#e0e0e0" stroke="#999999" points="676,-239 628,-239 628,-220 676,-220 676,-239"/>
<text text-anchor="middle" x="652" y="-227" font-family="Times,serif" font-size="10.00">future</text>
</a>
</g>
</g>
<!-- Node15&#45;&gt;Node16 -->
<g id="edge18_Node000015_Node000016" class="edge">
<title>Node15&#45;&gt;Node16</title>
<g id="a_edge18_Node000015_Node000016"><a xlink:title=" ">
<path fill="none" stroke="#63b8ff" d="M676.21,-274.75C672.24,-267.49 666.47,-256.95 661.57,-247.98"/>
<polygon fill="#63b8ff" stroke="#63b8ff" points="664.57,-246.18 656.7,-239.09 658.43,-249.54 664.57,-246.18"/>
</a>
</g>
</g>
<!-- Node17 -->
<g id="Node000017" class="node">
<title>Node17</title>
<g id="a_Node000017"><a xlink:title=" ">
<polygon fill="#e0e0e0" stroke="#999999" points="1171.5,-74 1110.5,-74 1110.5,-55 1171.5,-55 1171.5,-74"/>
<text text-anchor="middle" x="1141" y="-62" font-family="Times,serif" font-size="10.00">iostream</text>
</a>
</g>
</g>
<!-- Node15&#45;&gt;Node17 -->
<g id="edge19_Node000015_Node000017" class="edge">
<title>Node15&#45;&gt;Node17</title>
<g id="a_edge19_Node000015_Node000017"><a xlink:title=" ">
<path fill="none" stroke="#63b8ff" d="M730.85,-277.74C832.39,-265.13 1058.62,-232.31 1118,-184 1145.04,-162 1145.17,-144.84 1144,-110 1143.71,-101.48 1143.12,-92.06 1142.53,-84.08"/>
<polygon fill="#63b8ff" stroke="#63b8ff" points="1146.02,-83.72 1141.75,-74.02 1139.04,-84.26 1146.02,-83.72"/>
</a>
</g>
</g>
<!-- Node18 -->
<g id="Node000018" class="node">
<title>Node18</title>
<g id="a_Node000018"><a xlink:title=" ">
<polygon fill="#e0e0e0" stroke="#999999" points="726,-239 694,-239 694,-220 726,-220 726,-239"/>
<text text-anchor="middle" x="710" y="-227" font-family="Times,serif" font-size="10.00">list</text>
</a>
</g>
</g>
<!-- Node15&#45;&gt;Node18 -->
<g id="edge20_Node000015_Node000018" class="edge">
<title>Node15&#45;&gt;Node18</title>
<g id="a_edge20_Node000015_Node000018"><a xlink:title=" ">
<path fill="none" stroke="#63b8ff" d="M685.79,-274.75C689.76,-267.49 695.53,-256.95 700.43,-247.98"/>
<polygon fill="#63b8ff" stroke="#63b8ff" points="703.57,-249.54 705.3,-239.09 697.43,-246.18 703.57,-249.54"/>
</a>
</g>
</g>
<!-- Node19 -->
<g id="Node000019" class="node">
<title>Node19</title>
<g id="a_Node000019"><a xlink:title=" ">
<polygon fill="#e0e0e0" stroke="#999999" points="776,-239 744,-239 744,-220 776,-220 776,-239"/>
<text text-anchor="middle" x="760" y="-227" font-family="Times,serif" font-size="10.00">set</text>
</a>
</g>
</g>
<!-- Node15&#45;&gt;Node19 -->
<g id="edge22_Node000015_Node000019" class="edge">
<title>Node15&#45;&gt;Node19</title>
<g id="a_edge22_Node000015_Node000019"><a xlink:title=" ">
<path fill="none" stroke="#63b8ff" d="M693.69,-274.98C705.83,-266.84 724.36,-254.41 738.75,-244.76"/>
<polygon fill="#63b8ff" stroke="#63b8ff" points="740.72,-247.65 747.08,-239.17 736.82,-241.84 740.72,-247.65"/>
</a>
</g>
</g>
<!-- Node20 -->
<g id="Node000020" class="node">
<title>Node20</title>
<g id="a_Node000020"><a xlink:href="base_2tt_8h.html" target="_top" xlink:title=" ">
<polygon fill="white" stroke="#666666" points="881,-239 803,-239 803,-220 881,-220 881,-239"/>
<text text-anchor="middle" x="842" y="-227" font-family="Times,serif" font-size="10.00">ttg/base/tt.h</text>
</a>
</g>
</g>
<!-- Node15&#45;&gt;Node20 -->
<g id="edge23_Node000015_Node000020" class="edge">
<title>Node15&#45;&gt;Node20</title>
<g id="a_edge23_Node000015_Node000020"><a xlink:title=" ">
<path fill="none" stroke="#63b8ff" d="M706.87,-274.98C733.78,-266.13 776.12,-252.19 806.23,-242.28"/>
<polygon fill="#63b8ff" stroke="#63b8ff" points="807.53,-245.53 815.93,-239.08 805.34,-238.88 807.53,-245.53"/>
</a>
</g>
</g>
<!-- Node20&#45;&gt;Node8 -->
<g id="edge28_Node000020_Node000008" class="edge">
<title>Node20&#45;&gt;Node8</title>
<g id="a_edge28_Node000020_Node000008"><a xlink:title=" ">
<path fill="none" stroke="#63b8ff" d="M830.27,-219.82C812.57,-206.93 777.71,-182.39 746,-165 723.66,-152.75 697.3,-141.13 677.25,-132.83"/>
<polygon fill="#63b8ff" stroke="#63b8ff" points="678.54,-129.58 667.96,-129.04 675.89,-136.06 678.54,-129.58"/>
</a>
</g>
</g>
<!-- Node20&#45;&gt;Node10 -->
<g id="edge29_Node000020_Node000010" class="edge">
<title>Node20&#45;&gt;Node10</title>
<g id="a_edge29_Node000020_Node000010"><a xlink:title=" ">
<path fill="none" stroke="#63b8ff" d="M869.65,-219.98C886.58,-213.17 906.89,-201.76 917,-184 928.08,-164.54 915.36,-121.36 903,-110 869.7,-79.37 735.11,-69.63 671.12,-66.69"/>
<polygon fill="#63b8ff" stroke="#63b8ff" points="671.26,-63.19 661.12,-66.26 670.96,-70.19 671.26,-63.19"/>
</a>
</g>
</g>
<!-- Node20&#45;&gt;Node17 -->
<g id="edge25_Node000020_Node000017" class="edge">
<title>Node20&#45;&gt;Node17</title>
<g id="a_edge25_Node000020_Node000017"><a xlink:title=" ">
<path fill="none" stroke="#63b8ff" d="M881.14,-226.3C944.04,-222.03 1063.86,-210.56 1096,-184 1126.29,-158.97 1136.22,-111.2 1139.45,-84.59"/>
<polygon fill="#63b8ff" stroke="#63b8ff" points="1142.97,-84.62 1140.49,-74.31 1136,-83.91 1142.97,-84.62"/>
</a>
</g>
</g>
<!-- Node21 -->
<g id="Node000021" class="node">
<title>Node21</title>
<g id="a_Node000021"><a xlink:title=" ">
<polygon fill="#e0e0e0" stroke="#999999" points="1225.5,-19 1174.5,-19 1174.5,0 1225.5,0 1225.5,-19"/>
<text text-anchor="middle" x="1200" y="-7" font-family="Times,serif" font-size="10.00">cstdint</text>
</a>
</g>
</g>
<!-- Node20&#45;&gt;Node21 -->
<g id="edge24_Node000020_Node000021" class="edge">
<title>Node20&#45;&gt;Node21</title>
<g id="a_edge24_Node000020_Node000021"><a xlink:title=" ">
<path fill="none" stroke="#63b8ff" d="M881.04,-225.42C937.17,-220.21 1036.79,-207.83 1063,-184 1107.31,-143.7 1062.55,-100.07 1102,-55 1118.18,-36.51 1143.59,-25.28 1164.49,-18.72"/>
<polygon fill="#63b8ff" stroke="#63b8ff" points="1165.69,-22.02 1174.32,-15.87 1163.74,-15.29 1165.69,-22.02"/>
</a>
</g>
</g>
<!-- Node22 -->
<g id="Node000022" class="node">
<title>Node22</title>
<g id="a_Node000022"><a xlink:title=" ">
<polygon fill="#e0e0e0" stroke="#999999" points="662,-184 604,-184 604,-165 662,-165 662,-184"/>
<text text-anchor="middle" x="633" y="-172" font-family="Times,serif" font-size="10.00">optional</text>
</a>
</g>
</g>
<!-- Node20&#45;&gt;Node22 -->
<g id="edge26_Node000020_Node000022" class="edge">
<title>Node20&#45;&gt;Node22</title>
<g id="a_edge26_Node000020_Node000022"><a xlink:title=" ">
<path fill="none" stroke="#63b8ff" d="M808.42,-219.98C771.16,-210.54 711.13,-195.31 671.87,-185.36"/>
<polygon fill="#63b8ff" stroke="#63b8ff" points="672.67,-181.95 662.11,-182.88 670.95,-188.73 672.67,-181.95"/>
</a>
</g>
</g>
<!-- Node23 -->
<g id="Node000023" class="node">
<title>Node23</title>
<g id="a_Node000023"><a xlink:title=" ">
<polygon fill="#e0e0e0" stroke="#999999" points="737.5,-184 680.5,-184 680.5,-165 737.5,-165 737.5,-184"/>
<text text-anchor="middle" x="709" y="-172" font-family="Times,serif" font-size="10.00">sstream</text>
</a>
</g>
</g>
<!-- Node20&#45;&gt;Node23 -->
<g id="edge27_Node000020_Node000023" class="edge">
<title>Node20&#45;&gt;Node23</title>
<g id="a_edge27_Node000020_Node000023"><a xlink:title=" ">
<path fill="none" stroke="#63b8ff" d="M820.63,-219.98C798.85,-211.3 764.84,-197.75 740.08,-187.88"/>
<polygon fill="#63b8ff" stroke="#63b8ff" points="741.34,-184.62 730.76,-184.17 738.75,-191.12 741.34,-184.62"/>
</a>
</g>
</g>
<!-- Node24 -->
<g id="Node000024" class="node">
<title>Node24</title>
<g id="a_Node000024"><a xlink:href="base_2terminal_8h.html" target="_top" xlink:title=" ">
<polygon fill="white" stroke="#666666" points="547.5,-184 434.5,-184 434.5,-165 547.5,-165 547.5,-184"/>
<text text-anchor="middle" x="491" y="-172" font-family="Times,serif" font-size="10.00">ttg/base/terminal.h</text>
</a>
</g>
</g>
<!-- Node20&#45;&gt;Node24 -->
<g id="edge30_Node000020_Node000024" class="edge">
<title>Node20&#45;&gt;Node24</title>
<g id="a_edge30_Node000020_Node000024"><a xlink:title=" ">
<path fill="none" stroke="#63b8ff" d="M802.76,-222.57C743.3,-213.6 629.66,-196.44 557.24,-185.5"/>
<polygon fill="#63b8ff" stroke="#63b8ff" points="557.72,-182.03 547.31,-184 556.67,-188.96 557.72,-182.03"/>
</a>
</g>
</g>
<!-- Node25 -->
<g id="Node000025" class="node">
<title>Node25</title>
<g id="a_Node000025"><a xlink:href="demangle_8h.html" target="_top" xlink:title=" ">
<polygon fill="white" stroke="#666666" points="908,-184 794,-184 794,-165 908,-165 908,-184"/>
<text text-anchor="middle" x="851" y="-172" font-family="Times,serif" font-size="10.00">ttg/util/demangle.h</text>
</a>
</g>
</g>
<!-- Node20&#45;&gt;Node25 -->
<g id="edge34_Node000020_Node000025" class="edge">
<title>Node20&#45;&gt;Node25</title>
<g id="a_edge34_Node000020_Node000025"><a xlink:title=" ">
<path fill="none" stroke="#63b8ff" d="M843.49,-219.75C844.67,-212.8 846.36,-202.85 847.84,-194.13"/>
<polygon fill="#63b8ff" stroke="#63b8ff" points="851.32,-194.53 849.54,-184.09 844.42,-193.36 851.32,-194.53"/>
</a>
</g>
</g>
<!-- Node28 -->
<g id="Node000028" class="node">
<title>Node28</title>
<g id="a_Node000028"><a xlink:href="trace_8h.html" target="_top" xlink:title=" ">
<polygon fill="white" stroke="#666666" points="1053.5,-184 964.5,-184 964.5,-165 1053.5,-165 1053.5,-184"/>
<text text-anchor="middle" x="1009" y="-172" font-family="Times,serif" font-size="10.00">ttg/util/trace.h</text>
</a>
</g>
</g>
<!-- Node20&#45;&gt;Node28 -->
<g id="edge39_Node000020_Node000028" class="edge">
<title>Node20&#45;&gt;Node28</title>
<g id="a_edge39_Node000020_Node000028"><a xlink:title=" ">
<path fill="none" stroke="#63b8ff" d="M868.83,-219.98C896.87,-211.09 941.05,-197.07 972.3,-187.15"/>
<polygon fill="#63b8ff" stroke="#63b8ff" points="973.49,-190.44 981.96,-184.08 971.37,-183.77 973.49,-190.44"/>
</a>
</g>
</g>
<!-- Node24&#45;&gt;Node2 -->
<g id="edge33_Node000024_Node000002" class="edge">
<title>Node24&#45;&gt;Node2</title>
<g id="a_edge33_Node000024_Node000002"><a xlink:title=" ">
<path fill="none" stroke="#63b8ff" d="M434.13,-166.95C340.08,-156.11 154.35,-134.71 71.99,-125.22"/>
<polygon fill="#63b8ff" stroke="#63b8ff" points="72.34,-121.74 62,-124.07 71.54,-128.69 72.34,-121.74"/>
</a>
</g>
</g>
<!-- Node24&#45;&gt;Node8 -->
<g id="edge31_Node000024_Node000008" class="edge">
<title>Node24&#45;&gt;Node8</title>
<g id="a_edge31_Node000024_Node000008"><a xlink:title=" ">
<path fill="none" stroke="#63b8ff" d="M515.9,-164.98C542.16,-156.01 583.67,-141.81 612.72,-131.88"/>
<polygon fill="#63b8ff" stroke="#63b8ff" points="614.1,-135.11 622.43,-128.56 611.83,-128.48 614.1,-135.11"/>
</a>
</g>
</g>
<!-- Node24&#45;&gt;Node10 -->
<g id="edge32_Node000024_Node000010" class="edge">
<title>Node24&#45;&gt;Node10</title>
<g id="a_edge32_Node000024_Node000010"><a xlink:title=" ">
<path fill="none" stroke="#63b8ff" d="M502.7,-164.84C527.58,-146.44 585.99,-103.23 616.94,-80.34"/>
<polygon fill="#63b8ff" stroke="#63b8ff" points="619.29,-82.96 625.24,-74.2 615.12,-77.33 619.29,-82.96"/>
</a>
</g>
</g>
<!-- Node25&#45;&gt;Node6 -->
<g id="edge38_Node000025_Node000006" class="edge">
<title>Node25&#45;&gt;Node6</title>
<g id="a_edge38_Node000025_Node000006"><a xlink:title=" ">
<path fill="none" stroke="#63b8ff" d="M793.74,-166.68C702.08,-155.76 524.71,-134.64 445.67,-125.23"/>
<polygon fill="#63b8ff" stroke="#63b8ff" points="445.98,-121.74 435.64,-124.03 445.16,-128.69 445.98,-121.74"/>
</a>
</g>
</g>
<!-- Node25&#45;&gt;Node8 -->
<g id="edge36_Node000025_Node000008" class="edge">
<title>Node25&#45;&gt;Node8</title>
<g id="a_edge36_Node000025_Node000008"><a xlink:title=" ">
<path fill="none" stroke="#63b8ff" d="M818.06,-164.98C780.1,-155.17 718.02,-139.12 679.72,-129.22"/>
<polygon fill="#63b8ff" stroke="#63b8ff" points="680.15,-125.71 669.59,-126.6 678.4,-132.49 680.15,-125.71"/>
</a>
</g>
</g>
<!-- Node26 -->
<g id="Node000026" class="node">
<title>Node26</title>
<g id="a_Node000026"><a xlink:title=" ">
<polygon fill="#e0e0e0" stroke="#999999" points="816.5,-129 757.5,-129 757.5,-110 816.5,-110 816.5,-129"/>
<text text-anchor="middle" x="787" y="-117" font-family="Times,serif" font-size="10.00">cxxabi.h</text>
</a>
</g>
</g>
<!-- Node25&#45;&gt;Node26 -->
<g id="edge35_Node000025_Node000026" class="edge">
<title>Node25&#45;&gt;Node26</title>
<g id="a_edge35_Node000025_Node000026"><a xlink:title=" ">
<path fill="none" stroke="#63b8ff" d="M840.72,-164.98C831.16,-157.07 816.72,-145.11 805.22,-135.58"/>
<polygon fill="#63b8ff" stroke="#63b8ff" points="807.4,-132.85 797.47,-129.17 802.94,-138.24 807.4,-132.85"/>
</a>
</g>
</g>
<!-- Node27 -->
<g id="Node000027" class="node">
<title>Node27</title>
<g id="a_Node000027"><a xlink:title=" ">
<polygon fill="#e0e0e0" stroke="#999999" points="893.5,-129 834.5,-129 834.5,-110 893.5,-110 893.5,-129"/>
<text text-anchor="middle" x="864" y="-117" font-family="Times,serif" font-size="10.00">typeinfo</text>
</a>
</g>
</g>
<!-- Node25&#45;&gt;Node27 -->
<g id="edge37_Node000025_Node000027" class="edge">
<title>Node25&#45;&gt;Node27</title>
<g id="a_edge37_Node000025_Node000027"><a xlink:title=" ">
<path fill="none" stroke="#63b8ff" d="M853.15,-164.75C854.87,-157.72 857.35,-147.62 859.5,-138.84"/>
<polygon fill="#63b8ff" stroke="#63b8ff" points="862.91,-139.63 861.89,-129.09 856.11,-137.97 862.91,-139.63"/>
</a>
</g>
</g>
<!-- Node29 -->
<g id="Node000029" class="node">
<title>Node29</title>
<g id="a_Node000029"><a xlink:href="print_8h.html" target="_top" xlink:title=" ">
<polygon fill="white" stroke="#666666" points="1052,-129 964,-129 964,-110 1052,-110 1052,-129"/>
<text text-anchor="middle" x="1008" y="-117" font-family="Times,serif" font-size="10.00">ttg/util/print.h</text>
</a>
</g>
</g>
<!-- Node28&#45;&gt;Node29 -->
<g id="edge40_Node000028_Node000029" class="edge">
<title>Node28&#45;&gt;Node29</title>
<g id="a_edge40_Node000028_Node000029"><a xlink:title=" ">
<path fill="none" stroke="#63b8ff" d="M1008.83,-164.75C1008.7,-157.8 1008.52,-147.85 1008.35,-139.13"/>
<polygon fill="#63b8ff" stroke="#63b8ff" points="1011.85,-139.02 1008.16,-129.09 1004.85,-139.15 1011.85,-139.02"/>
</a>
</g>
</g>
<!-- Node29&#45;&gt;Node10 -->
<g id="edge44_Node000029_Node000010" class="edge">
<title>Node29&#45;&gt;Node10</title>
<g id="a_edge44_Node000029_Node000010"><a xlink:title=" ">
<path fill="none" stroke="#63b8ff" d="M963.98,-112.03C959.26,-111.34 954.53,-110.65 950,-110 848.74,-95.38 729,-78.46 671.37,-70.34"/>
<polygon fill="#63b8ff" stroke="#63b8ff" points="671.75,-66.86 661.36,-68.93 670.77,-73.79 671.75,-66.86"/>
</a>
</g>
</g>
<!-- Node29&#45;&gt;Node17 -->
<g id="edge41_Node000029_Node000017" class="edge">
<title>Node29&#45;&gt;Node17</title>
<g id="a_edge41_Node000029_Node000017"><a xlink:title=" ">
<path fill="none" stroke="#63b8ff" d="M1029.37,-109.98C1051.15,-101.3 1085.16,-87.75 1109.92,-77.88"/>
<polygon fill="#63b8ff" stroke="#63b8ff" points="1111.25,-81.12 1119.24,-74.17 1108.66,-74.62 1111.25,-81.12"/>
</a>
</g>
</g>
<!-- Node30 -->
<g id="Node000030" class="node">
<title>Node30</title>
<g id="a_Node000030"><a xlink:title=" ">
<polygon fill="#e0e0e0" stroke="#999999" points="989.5,-74 940.5,-74 940.5,-55 989.5,-55 989.5,-74"/>
<text text-anchor="middle" x="965" y="-62" font-family="Times,serif" font-size="10.00">mutex</text>
</a>
</g>
</g>
<!-- Node29&#45;&gt;Node30 -->
<g id="edge42_Node000029_Node000030" class="edge">
<title>Node29&#45;&gt;Node30</title>
<g id="a_edge42_Node000029_Node000030"><a xlink:title=" ">
<path fill="none" stroke="#63b8ff" d="M1000.9,-109.75C994.83,-102.26 985.91,-91.28 978.49,-82.13"/>
<polygon fill="#63b8ff" stroke="#63b8ff" points="980.99,-79.65 971.97,-74.09 975.55,-84.06 980.99,-79.65"/>
</a>
</g>
</g>
<!-- Node31 -->
<g id="Node000031" class="node">
<title>Node31</title>
<g id="a_Node000031"><a xlink:title=" ">
<polygon fill="#e0e0e0" stroke="#999999" points="883.5,-74 824.5,-74 824.5,-55 883.5,-55 883.5,-74"/>
<text text-anchor="middle" x="854" y="-62" font-family="Times,serif" font-size="10.00">complex</text>
</a>
</g>
</g>
<!-- Node29&#45;&gt;Node31 -->
<g id="edge43_Node000029_Node000031" class="edge">
<title>Node29&#45;&gt;Node31</title>
<g id="a_edge43_Node000029_Node000031"><a xlink:title=" ">
<path fill="none" stroke="#63b8ff" d="M983.26,-109.98C957.63,-101.16 917.37,-87.31 888.59,-77.41"/>
<polygon fill="#63b8ff" stroke="#63b8ff" points="889.53,-74.03 878.94,-74.08 887.25,-80.65 889.53,-74.03"/>
</a>
</g>
</g>
<!-- Node32 -->
<g id="Node000032" class="node">
<title>Node32</title>
<g id="a_Node000032"><a xlink:title=" ">
<polygon fill="#e0e0e0" stroke="#999999" points="1045,-19 1001,-19 1001,0 1045,0 1045,-19"/>
<text text-anchor="middle" x="1023" y="-7" font-family="Times,serif" font-size="10.00">array</text>
</a>
</g>
</g>
<!-- Node29&#45;&gt;Node32 -->
<g id="edge45_Node000029_Node000032" class="edge">
<title>Node29&#45;&gt;Node32</title>
<g id="a_edge45_Node000029_Node000032"><a xlink:title=" ">
<path fill="none" stroke="#63b8ff" d="M981.81,-109.83C954.22,-99.19 916.71,-79.5 932,-55 944.88,-34.36 970.42,-23.03 991.17,-16.98"/>
<polygon fill="#63b8ff" stroke="#63b8ff" points="992.12,-20.35 1000.9,-14.41 990.34,-13.58 992.12,-20.35"/>
</a>
</g>
</g>
<!-- Node33 -->
<g id="Node000033" class="node">
<title>Node33</title>
<g id="a_Node000033"><a xlink:title=" ">
<polygon fill="#e0e0e0" stroke="#999999" points="1054,-74 1008,-74 1008,-55 1054,-55 1054,-74"/>
<text text-anchor="middle" x="1031" y="-62" font-family="Times,serif" font-size="10.00">utility</text>
</a>
</g>
</g>
<!-- Node29&#45;&gt;Node33 -->
<g id="edge46_Node000029_Node000033" class="edge">
<title>Node29&#45;&gt;Node33</title>
<g id="a_edge46_Node000029_Node000033"><a xlink:title=" ">
<path fill="none" stroke="#63b8ff" d="M1011.8,-109.75C1014.91,-102.57 1019.42,-92.18 1023.29,-83.27"/>
<polygon fill="#63b8ff" stroke="#63b8ff" points="1026.5,-84.66 1027.27,-74.09 1020.08,-81.87 1026.5,-84.66"/>
</a>
</g>
</g>
<!-- Node35 -->
<g id="Node000035" class="node">
<title>Node35</title>
<g id="a_Node000035"><a xlink:title=" ">
<polygon fill="#e0e0e0" stroke="#999999" points="1623.5,-19 1552.5,-19 1552.5,0 1623.5,0 1623.5,-19"/>
<text text-anchor="middle" x="1588" y="-7" font-family="Times,serif" font-size="10.00">type_traits</text>
</a>
</g>
</g>
<!-- Node34&#45;&gt;Node35 -->
<g id="edge48_Node000034_Node000035" class="edge">
<title>Node34&#45;&gt;Node35</title>
<g id="a_edge48_Node000034_Node000035"><a xlink:title=" ">
<path fill="none" stroke="#63b8ff" d="M1536.74,-274.93C1568.15,-259.8 1626,-225.18 1626,-175.5 1626,-175.5 1626,-175.5 1626,-118.5 1626,-85.02 1609.55,-48.84 1598.3,-28.01"/>
<polygon fill="#63b8ff" stroke="#63b8ff" points="1601.24,-26.1 1593.28,-19.1 1595.13,-29.53 1601.24,-26.1"/>
</a>
</g>
</g>
<!-- Node36 -->
<g id="Node000036" class="node">
<title>Node36</title>
<g id="a_Node000036"><a xlink:href="meta_8h.html" target="_top" xlink:title=" ">
<polygon fill="white" stroke="#666666" points="1483.5,-129 1394.5,-129 1394.5,-110 1483.5,-110 1483.5,-129"/>
<text text-anchor="middle" x="1439" y="-117" font-family="Times,serif" font-size="10.00">ttg/util/meta.h</text>
</a>
</g>
</g>
<!-- Node34&#45;&gt;Node36 -->
<g id="edge49_Node000034_Node000036" class="edge">
<title>Node34&#45;&gt;Node36</title>
<g id="a_edge49_Node000034_Node000036"><a xlink:title=" ">
<path fill="none" stroke="#63b8ff" d="M1512.98,-274.85C1503.85,-255.25 1480.81,-205.97 1461,-165 1456.68,-156.06 1451.79,-146.16 1447.73,-137.97"/>
<polygon fill="#63b8ff" stroke="#63b8ff" points="1450.85,-136.4 1443.26,-129.01 1444.59,-139.52 1450.85,-136.4"/>
</a>
</g>
</g>
<!-- Node43 -->
<g id="Node000043" class="node">
<title>Node43</title>
<g id="a_Node000043"><a xlink:href="hash_8h.html" target="_top" xlink:title=" ">
<polygon fill="white" stroke="#666666" points="1455,-239 1367,-239 1367,-220 1455,-220 1455,-239"/>
<text text-anchor="middle" x="1411" y="-227" font-family="Times,serif" font-size="10.00">ttg/util/hash.h</text>
</a>
</g>
</g>
<!-- Node34&#45;&gt;Node43 -->
<g id="edge60_Node000034_Node000043" class="edge">
<title>Node34&#45;&gt;Node43</title>
<g id="a_edge60_Node000034_Node000043"><a xlink:title=" ">
<path fill="none" stroke="#63b8ff" d="M1499.97,-274.98C1483.07,-266.54 1456.94,-253.47 1437.36,-243.68"/>
<polygon fill="#63b8ff" stroke="#63b8ff" points="1438.85,-240.51 1428.34,-239.17 1435.72,-246.77 1438.85,-240.51"/>
</a>
</g>
</g>
<!-- Node36&#45;&gt;Node35 -->
<g id="edge51_Node000036_Node000035" class="edge">
<title>Node36&#45;&gt;Node35</title>
<g id="a_edge51_Node000036_Node000035"><a xlink:title=" ">
<path fill="none" stroke="#63b8ff" d="M1463.1,-109.85C1482.54,-102.19 1510.01,-89.78 1531,-74 1548.68,-60.7 1565.12,-41.32 1575.76,-27.47"/>
<polygon fill="#63b8ff" stroke="#63b8ff" points="1578.69,-29.39 1581.87,-19.29 1573.08,-25.21 1578.69,-29.39"/>
</a>
</g>
</g>
<!-- Node37 -->
<g id="Node000037" class="node">
<title>Node37</title>
<g id="a_Node000037"><a xlink:title=" ">
<polygon fill="#e0e0e0" stroke="#999999" points="1522,-74 1454,-74 1454,-55 1522,-55 1522,-74"/>
<text text-anchor="middle" x="1488" y="-62" font-family="Times,serif" font-size="10.00">functional</text>
</a>
</g>
</g>
<!-- Node36&#45;&gt;Node37 -->
<g id="edge50_Node000036_Node000037" class="edge">
<title>Node36&#45;&gt;Node37</title>
<g id="a_edge50_Node000036_Node000037"><a xlink:title=" ">
<path fill="none" stroke="#63b8ff" d="M1447.09,-109.75C1454.16,-102.11 1464.59,-90.82 1473.15,-81.56"/>
<polygon fill="#63b8ff" stroke="#63b8ff" points="1475.84,-83.81 1480.06,-74.09 1470.7,-79.06 1475.84,-83.81"/>
</a>
</g>
</g>
<!-- Node38 -->
<g id="Node000038" class="node">
<title>Node38</title>
<g id="a_Node000038"><a xlink:href="span_8h.html" target="_top" xlink:title=" ">
<polygon fill="white" stroke="#666666" points="1436,-74 1348,-74 1348,-55 1436,-55 1436,-74"/>
<text text-anchor="middle" x="1392" y="-62" font-family="Times,serif" font-size="10.00">ttg/util/span.h</text>
</a>
</g>
</g>
<!-- Node36&#45;&gt;Node38 -->
<g id="edge52_Node000036_Node000038" class="edge">
<title>Node36&#45;&gt;Node38</title>
<g id="a_edge52_Node000036_Node000038"><a xlink:title=" ">
<path fill="none" stroke="#63b8ff" d="M1431.24,-109.75C1424.53,-102.18 1414.66,-91.05 1406.49,-81.84"/>
<polygon fill="#63b8ff" stroke="#63b8ff" points="1408.87,-79.25 1399.62,-74.09 1403.63,-83.89 1408.87,-79.25"/>
</a>
</g>
</g>
<!-- Node41 -->
<g id="Node000041" class="node">
<title>Node41</title>
<g id="a_Node000041"><a xlink:href="typelist_8h.html" target="_top" xlink:title=" ">
<polygon fill="white" stroke="#666666" points="1329.5,-74 1228.5,-74 1228.5,-55 1329.5,-55 1329.5,-74"/>
<text text-anchor="middle" x="1279" y="-62" font-family="Times,serif" font-size="10.00">ttg/util/typelist.h</text>
</a>
</g>
</g>
<!-- Node36&#45;&gt;Node41 -->
<g id="edge58_Node000036_Node000041" class="edge">
<title>Node36&#45;&gt;Node41</title>
<g id="a_edge58_Node000036_Node000041"><a xlink:title=" ">
<path fill="none" stroke="#63b8ff" d="M1413.29,-109.98C1386.55,-101.13 1344.47,-87.19 1314.55,-77.28"/>
<polygon fill="#63b8ff" stroke="#63b8ff" points="1315.5,-73.9 1304.91,-74.08 1313.3,-80.55 1315.5,-73.9"/>
</a>
</g>
</g>
<!-- Node38&#45;&gt;Node21 -->
<g id="edge55_Node000038_Node000021" class="edge">
<title>Node38&#45;&gt;Node21</title>
<g id="a_edge55_Node000038_Node000021"><a xlink:title=" ">
<path fill="none" stroke="#63b8ff" d="M1361.15,-54.98C1326.9,-45.53 1271.7,-30.29 1235.63,-20.34"/>
<polygon fill="#63b8ff" stroke="#63b8ff" points="1236.12,-16.84 1225.55,-17.55 1234.26,-23.59 1236.12,-16.84"/>
</a>
</g>
</g>
<!-- Node38&#45;&gt;Node32 -->
<g id="edge53_Node000038_Node000032" class="edge">
<title>Node38&#45;&gt;Node32</title>
<g id="a_edge53_Node000038_Node000032"><a xlink:title=" ">
<path fill="none" stroke="#63b8ff" d="M1347.76,-56.34C1344.8,-55.88 1341.86,-55.43 1339,-55 1235.55,-39.42 1112.78,-22.61 1055.48,-14.87"/>
<polygon fill="#63b8ff" stroke="#63b8ff" points="1055.62,-11.35 1045.24,-13.48 1054.68,-18.29 1055.62,-11.35"/>
</a>
</g>
</g>
<!-- Node38&#45;&gt;Node35 -->
<g id="edge56_Node000038_Node000035" class="edge">
<title>Node38&#45;&gt;Node35</title>
<g id="a_edge56_Node000038_Node000035"><a xlink:title=" ">
<path fill="none" stroke="#63b8ff" d="M1423.49,-54.98C1456.82,-45.97 1509.6,-31.7 1546.35,-21.76"/>
<polygon fill="#63b8ff" stroke="#63b8ff" points="1547.52,-25.07 1556.26,-19.08 1545.7,-18.31 1547.52,-25.07"/>
</a>
</g>
</g>
<!-- Node39 -->
<g id="Node000039" class="node">
<title>Node39</title>
<g id="a_Node000039"><a xlink:title=" ">
<polygon fill="#e0e0e0" stroke="#999999" points="1516,-19 1462,-19 1462,0 1516,0 1516,-19"/>
<text text-anchor="middle" x="1489" y="-7" font-family="Times,serif" font-size="10.00">cstddef</text>
</a>
</g>
</g>
<!-- Node38&#45;&gt;Node39 -->
<g id="edge54_Node000038_Node000039" class="edge">
<title>Node38&#45;&gt;Node39</title>
<g id="a_edge54_Node000038_Node000039"><a xlink:title=" ">
<path fill="none" stroke="#63b8ff" d="M1407.58,-54.98C1422.77,-46.69 1446.1,-33.94 1463.9,-24.22"/>
<polygon fill="#63b8ff" stroke="#63b8ff" points="1466.03,-27.04 1473.13,-19.17 1462.68,-20.89 1466.03,-27.04"/>
</a>
</g>
</g>
<!-- Node40 -->
<g id="Node000040" class="node">
<title>Node40</title>
<g id="a_Node000040"><a xlink:title=" ">
<polygon fill="#e0e0e0" stroke="#999999" points="1425,-19 1359,-19 1359,0 1425,0 1425,-19"/>
<text text-anchor="middle" x="1392" y="-7" font-family="Times,serif" font-size="10.00">exception</text>
</a>
</g>
</g>
<!-- Node38&#45;&gt;Node40 -->
<g id="edge57_Node000038_Node000040" class="edge">
<title>Node38&#45;&gt;Node40</title>
<g id="a_edge57_Node000038_Node000040"><a xlink:title=" ">
<path fill="none" stroke="#63b8ff" d="M1392,-54.75C1392,-47.8 1392,-37.85 1392,-29.13"/>
<polygon fill="#63b8ff" stroke="#63b8ff" points="1395.5,-29.09 1392,-19.09 1388.5,-29.09 1395.5,-29.09"/>
</a>
</g>
</g>
<!-- Node42 -->
<g id="Node000042" class="node">
<title>Node42</title>
<g id="a_Node000042"><a xlink:title=" ">
<polygon fill="#e0e0e0" stroke="#999999" points="1300.5,-19 1257.5,-19 1257.5,0 1300.5,0 1300.5,-19"/>
<text text-anchor="middle" x="1279" y="-7" font-family="Times,serif" font-size="10.00">tuple</text>
</a>
</g>
</g>
<!-- Node41&#45;&gt;Node42 -->
<g id="edge59_Node000041_Node000042" class="edge">
<title>Node41&#45;&gt;Node42</title>
<g id="a_edge59_Node000041_Node000042"><a xlink:title=" ">
<path fill="none" stroke="#63b8ff" d="M1279,-54.75C1279,-47.8 1279,-37.85 1279,-29.13"/>
<polygon fill="#63b8ff" stroke="#63b8ff" points="1282.5,-29.09 1279,-19.09 1275.5,-29.09 1282.5,-29.09"/>
</a>
</g>
</g>
<!-- Node43&#45;&gt;Node21 -->
<g id="edge62_Node000043_Node000021" class="edge">
<title>Node43&#45;&gt;Node21</title>
<g id="a_edge62_Node000043_Node000021"><a xlink:title=" ">
<path fill="none" stroke="#63b8ff" d="M1417.58,-219.58C1426.27,-206.6 1439.24,-182.19 1428,-165 1400.39,-122.78 1253.71,-111.54 1220,-74 1209.02,-61.77 1204.07,-43.54 1201.83,-29.74"/>
<polygon fill="#63b8ff" stroke="#63b8ff" points="1205.26,-28.91 1200.52,-19.43 1198.31,-29.79 1205.26,-28.91"/>
</a>
</g>
</g>
<!-- Node43&#45;&gt;Node39 -->
<g id="edge61_Node000043_Node000039" class="edge">
<title>Node43&#45;&gt;Node39</title>
<g id="a_edge61_Node000043_Node000039"><a xlink:title=" ">
<path fill="none" stroke="#63b8ff" d="M1422.55,-219.75C1433.25,-211.31 1449.25,-197.81 1461,-184 1498.56,-139.87 1514.8,-129.64 1531,-74 1533.36,-65.89 1534.12,-62.85 1531,-55 1526.48,-43.63 1517.53,-33.48 1509.04,-25.76"/>
<polygon fill="#63b8ff" stroke="#63b8ff" points="1511.11,-22.92 1501.21,-19.14 1506.59,-28.27 1511.11,-22.92"/>
</a>
</g>
</g>
<!-- Node44 -->
<g id="Node000044" class="node">
<title>Node44</title>
<g id="a_Node000044"><a xlink:href="void_8h.html" target="_top" xlink:title=" ">
<polygon fill="white" stroke="#666666" points="1418.5,-184 1333.5,-184 1333.5,-165 1418.5,-165 1418.5,-184"/>
<text text-anchor="middle" x="1376" y="-172" font-family="Times,serif" font-size="10.00">ttg/util/void.h</text>
</a>
</g>
</g>
<!-- Node43&#45;&gt;Node44 -->
<g id="edge63_Node000043_Node000044" class="edge">
<title>Node43&#45;&gt;Node44</title>
<g id="a_edge63_Node000043_Node000044"><a xlink:title=" ">
<path fill="none" stroke="#63b8ff" d="M1405.22,-219.75C1400.38,-212.42 1393.32,-201.73 1387.36,-192.7"/>
<polygon fill="#63b8ff" stroke="#63b8ff" points="1390.1,-190.5 1381.67,-184.09 1384.26,-194.36 1390.1,-190.5"/>
</a>
</g>
</g>
<!-- Node45 -->
<g id="Node000045" class="node">
<title>Node45</title>
<g id="a_Node000045"><a xlink:href="util_2hash_2std_2pair_8h.html" target="_top" xlink:title=" ">
<polygon fill="white" stroke="#666666" points="1315.5,-184 1186.5,-184 1186.5,-165 1315.5,-165 1315.5,-184"/>
<text text-anchor="middle" x="1251" y="-172" font-family="Times,serif" font-size="10.00">ttg/util/hash/std/pair.h</text>
</a>
</g>
</g>
<!-- Node43&#45;&gt;Node45 -->
<g id="edge66_Node000043_Node000045" class="edge">
<title>Node43&#45;&gt;Node45</title>
<g id="a_edge66_Node000043_Node000045"><a xlink:title=" ">
<path fill="none" stroke="#63b8ff" d="M1380.18,-219.98C1351.81,-211.23 1310.18,-197.51 1281.82,-187.62"/>
<polygon fill="#63b8ff" stroke="#63b8ff" points="1282.62,-184.19 1272.03,-184.17 1280.29,-190.8 1282.62,-184.19"/>
</a>
</g>
</g>
<!-- Node44&#45;&gt;Node17 -->
<g id="edge64_Node000044_Node000017" class="edge">
<title>Node44&#45;&gt;Node17</title>
<g id="a_edge64_Node000044_Node000017"><a xlink:title=" ">
<path fill="none" stroke="#63b8ff" d="M1357.17,-164.84C1315.9,-145.88 1217.33,-100.58 1168.86,-78.31"/>
<polygon fill="#63b8ff" stroke="#63b8ff" points="1170.15,-75.04 1159.6,-74.05 1167.22,-81.4 1170.15,-75.04"/>
</a>
</g>
</g>
<!-- Node44&#45;&gt;Node36 -->
<g id="edge65_Node000044_Node000036" class="edge">
<title>Node44&#45;&gt;Node36</title>
<g id="a_edge65_Node000044_Node000036"><a xlink:title=" ">
<path fill="none" stroke="#63b8ff" d="M1386.12,-164.98C1395.44,-157.15 1409.47,-145.34 1420.74,-135.86"/>
<polygon fill="#63b8ff" stroke="#63b8ff" points="1423.29,-138.29 1428.69,-129.17 1418.79,-132.93 1423.29,-138.29"/>
</a>
</g>
</g>
<!-- Node45&#45;&gt;Node33 -->
<g id="edge68_Node000045_Node000033" class="edge">
<title>Node45&#45;&gt;Node33</title>
<g id="a_edge68_Node000045_Node000033"><a xlink:title=" ">
<path fill="none" stroke="#63b8ff" d="M1233.37,-164.84C1194.9,-145.96 1103.22,-100.96 1057.66,-78.59"/>
<polygon fill="#63b8ff" stroke="#63b8ff" points="1058.93,-75.31 1048.41,-74.05 1055.84,-81.6 1058.93,-75.31"/>
</a>
</g>
</g>
<!-- Node45&#45;&gt;Node43 -->
<g id="edge67_Node000045_Node000043" class="edge">
<title>Node45&#45;&gt;Node43</title>
<g id="a_edge67_Node000045_Node000043"><a xlink:title=" ">
<path fill="none" stroke="#63b8ff" d="M1282.04,-184.08C1310.56,-192.89 1352.35,-206.67 1380.64,-216.54"/>
<polygon fill="#63b8ff" stroke="#63b8ff" points="1379.81,-219.96 1390.41,-219.98 1382.14,-213.36 1379.81,-219.96"/>
</a>
</g>
</g>
</g>
</svg>
