<?xml version="1.0" encoding="UTF-8" standalone="no"?>
<!DOCTYPE svg PUBLIC "-//W3C//DTD SVG 1.1//EN"
 "http://www.w3.org/Graphics/SVG/1.1/DTD/svg11.dtd">
<!-- Generated by graphviz version 2.43.0 (0)
 -->
<!-- Title: ttg/ttg/run.h Pages: 1 -->
<!--zoomable 489 -->

<svg id="main" version="1.1" xmlns="http://www.w3.org/2000/svg" xmlns:xlink="http://www.w3.org/1999/xlink" xml:space="preserve" onload="init(evt)">
<style type="text/css"><![CDATA[
.node, .edge {opacity: 0.7;}
.node.selected, .edge.selected {opacity: 1;}
.edge:hover path { stroke: red; }
.edge:hover polygon { stroke: red; fill: red; }
]]></style>

<defs>
  <circle id="rim" cx="0" cy="0" r="7"/>
  <circle id="rim2" cx="0" cy="0" r="3.5"/>
  <g id="zoomPlus">
    <use xlink:href="#rim" fill="#404040"><set attributeName="fill" to="#808080" begin="zoomplus.mouseover" end="zoomplus.mouseout"/></use>
    <path d="M-4,0h8M0,-4v8" fill="none" stroke="white" stroke-width="1.5" pointer-events="none"/>
  </g>
  <g id="zoomMin">
    <use xlink:href="#rim" fill="#404040"><set attributeName="fill" to="#808080" begin="zoomminus.mouseover" end="zoomminus.mouseout"/></use>
    <path d="M-4,0h8" fill="none" stroke="white" stroke-width="1.5" pointer-events="none"/>
  </g>
  <g id="arrowUp" transform="translate(30 24)">
    <use xlink:href="#rim"/>
    <path pointer-events="none" fill="none" stroke="white" stroke-width="1.5" d="M0,-3.0v7 M-2.5,-0.5L0,-3.0L2.5,-0.5"/>
  </g>
  <g id="arrowRight" transform="rotate(90) translate(36 -43)">
    <use xlink:href="#rim"/>
    <path pointer-events="none" fill="none" stroke="white" stroke-width="1.5" d="M0,-3.0v7 M-2.5,-0.5L0,-3.0L2.5,-0.5"/>
  </g>
  <g id="arrowDown" transform="rotate(180) translate(-30 -48)">
    <use xlink:href="#rim"/>
    <path pointer-events="none" fill="none" stroke="white" stroke-width="1.5" d="M0,-3.0v7 M-2.5,-0.5L0,-3.0L2.5,-0.5"/>
  </g>
  <g id="arrowLeft" transform="rotate(270) translate(-36 17)">
    <use xlink:href="#rim"/>
    <path pointer-events="none" fill="none" stroke="white" stroke-width="1.5" d="M0,-3.0v7 M-2.5,-0.5L0,-3.0L2.5,-0.5"/>
  </g>
  <g id="resetDef">
    <use xlink:href="#rim2" fill="#404040"><set attributeName="fill" to="#808080" begin="reset.mouseover" end="reset.mouseout"/></use>
  </g>
</defs>
<script type="application/ecmascript">
var viewWidth = 1332;
var viewHeight = 489;
var sectionId = 'dynsection-1';
</script>
<script type="application/ecmascript" xlink:href="svg.min.js"/>
<svg id="graph" class="graph">
<g id="viewport">
<title>ttg/ttg/run.h</title>
<!-- Node1 -->
<g id="Node000001" class="node">
<title>Node1</title>
<g id="a_Node000001"><a xlink:title=" ">
<polygon fill="#999999" stroke="#666666" points="964.5,-481 885.5,-481 885.5,-462 964.5,-462 964.5,-481"/>
<text text-anchor="middle" x="925" y="-469" font-family="Times,serif" font-size="10.00">ttg/ttg/run.h</text>
</a>
</g>
</g>
<!-- Node2 -->
<g id="Node000002" class="node">
<title>Node2</title>
<g id="a_Node000002"><a xlink:href="ttg_8h.html" target="_top" xlink:title=" ">
<polygon fill="white" stroke="#666666" points="783,-96 725,-96 725,-77 783,-77 783,-96"/>
<text text-anchor="middle" x="754" y="-84" font-family="Times,serif" font-size="10.00">ttg/ttg.h</text>
</a>
</g>
</g>
<!-- Node1&#45;&gt;Node2 -->
<g id="edge1_Node000001_Node000002" class="edge">
<title>Node1&#45;&gt;Node2</title>
<g id="a_edge1_Node000001_Node000002"><a xlink:title=" ">
<path fill="none" stroke="#63b8ff" d="M875.5,-460.94C798.55,-444.64 659,-408.71 659,-362.5 659,-362.5 659,-362.5 659,-195.5 659,-148.3 710.78,-111.93 737.88,-96.12"/>
<polygon fill="#63b8ff" stroke="#63b8ff" points="874.96,-464.4 885.46,-463.01 876.39,-457.55 874.96,-464.4"/>
</a>
</g>
</g>
<!-- Node12 -->
<g id="Node000012" class="node">
<title>Node12</title>
<g id="a_Node000012"><a xlink:href="terminal_8h.html" target="_top" xlink:title=" ">
<polygon fill="white" stroke="#666666" points="1285,-426 1181,-426 1181,-407 1285,-407 1285,-426"/>
<text text-anchor="middle" x="1233" y="-414" font-family="Times,serif" font-size="10.00">ttg/ttg/terminal.h</text>
</a>
</g>
</g>
<!-- Node1&#45;&gt;Node12 -->
<g id="edge11_Node000001_Node000012" class="edge">
<title>Node1&#45;&gt;Node12</title>
<g id="a_edge11_Node000001_Node000012"><a xlink:title=" ">
<path fill="none" stroke="#63b8ff" d="M974.57,-461.97C1032.05,-452.08 1126.2,-435.88 1183.6,-426"/>
<polygon fill="#63b8ff" stroke="#63b8ff" points="973.9,-458.53 964.64,-463.68 975.08,-465.43 973.9,-458.53"/>
</a>
</g>
</g>
<!-- Node3 -->
<g id="Node000003" class="node">
<title>Node3</title>
<g id="a_Node000003"><a xlink:href="fibonacci_8cc.html" target="_top" xlink:title=" ">
<polygon fill="white" stroke="#666666" points="1052,-35.5 924,-35.5 924,-5.5 1052,-5.5 1052,-35.5"/>
<text text-anchor="start" x="932" y="-23.5" font-family="Times,serif" font-size="10.00">doc/dox/dev/devsamp</text>
<text text-anchor="middle" x="988" y="-12.5" font-family="Times,serif" font-size="10.00">/fibonacci/fibonacci.cc</text>
</a>
</g>
</g>
<!-- Node2&#45;&gt;Node3 -->
<g id="edge2_Node000002_Node000003" class="edge">
<title>Node2&#45;&gt;Node3</title>
<g id="a_edge2_Node000002_Node000003"><a xlink:title=" ">
<path fill="none" stroke="#63b8ff" d="M792.92,-74.86C832.27,-64.09 893.29,-47.4 936.6,-35.56"/>
<polygon fill="#63b8ff" stroke="#63b8ff" points="791.89,-71.51 783.16,-77.52 793.73,-78.26 791.89,-71.51"/>
</a>
</g>
</g>
<!-- Node4 -->
<g id="Node000004" class="node">
<title>Node4</title>
<g id="a_Node000004"><a xlink:href="fibonacci__device_8cc.html" target="_top" xlink:title=" ">
<polygon fill="white" stroke="#666666" points="128,-41 0,-41 0,0 128,0 128,-41"/>
<text text-anchor="start" x="8" y="-29" font-family="Times,serif" font-size="10.00">doc/dox/dev/devsamp</text>
<text text-anchor="start" x="8" y="-18" font-family="Times,serif" font-size="10.00">/fibonacci/fibonacci</text>
<text text-anchor="middle" x="64" y="-7" font-family="Times,serif" font-size="10.00">_device.cc</text>
</a>
</g>
</g>
<!-- Node2&#45;&gt;Node4 -->
<g id="edge3_Node000002_Node000004" class="edge">
<title>Node2&#45;&gt;Node4</title>
<g id="a_edge3_Node000002_Node000004"><a xlink:title=" ">
<path fill="none" stroke="#63b8ff" d="M714.81,-85.23C616.74,-84.01 353.13,-77.32 137,-41 134.15,-40.52 131.26,-39.98 128.34,-39.39"/>
<polygon fill="#63b8ff" stroke="#63b8ff" points="714.82,-88.73 724.86,-85.35 714.9,-81.73 714.82,-88.73"/>
</a>
</g>
</g>
<!-- Node5 -->
<g id="Node000005" class="node">
<title>Node5</title>
<g id="a_Node000005"><a xlink:href="helloworld_8cpp.html" target="_top" xlink:title=" ">
<polygon fill="white" stroke="#666666" points="297.5,-35.5 146.5,-35.5 146.5,-5.5 297.5,-5.5 297.5,-35.5"/>
<text text-anchor="start" x="154.5" y="-23.5" font-family="Times,serif" font-size="10.00">doc/dox/dev/devsamp</text>
<text text-anchor="middle" x="222" y="-12.5" font-family="Times,serif" font-size="10.00">/helloworld/helloworld.cpp</text>
</a>
</g>
</g>
<!-- Node2&#45;&gt;Node5 -->
<g id="edge4_Node000002_Node000005" class="edge">
<title>Node2&#45;&gt;Node5</title>
<g id="a_edge4_Node000002_Node000005"><a xlink:title=" ">
<path fill="none" stroke="#63b8ff" d="M714.46,-83.25C636.24,-78.42 456.4,-65.47 307,-41 297.74,-39.48 287.97,-37.56 278.5,-35.51"/>
<polygon fill="#63b8ff" stroke="#63b8ff" points="714.62,-86.76 724.81,-83.87 715.04,-79.78 714.62,-86.76"/>
</a>
</g>
</g>
<!-- Node6 -->
<g id="Node000006" class="node">
<title>Node6</title>
<g id="a_Node000006"><a xlink:href="distributed_8cc.html" target="_top" xlink:title=" ">
<polygon fill="white" stroke="#666666" points="450,-35.5 316,-35.5 316,-5.5 450,-5.5 450,-35.5"/>
<text text-anchor="start" x="324" y="-23.5" font-family="Times,serif" font-size="10.00">doc/dox/user/examples</text>
<text text-anchor="middle" x="383" y="-12.5" font-family="Times,serif" font-size="10.00">/distributed.cc</text>
</a>
</g>
</g>
<!-- Node2&#45;&gt;Node6 -->
<g id="edge5_Node000002_Node000006" class="edge">
<title>Node2&#45;&gt;Node6</title>
<g id="a_edge5_Node000002_Node000006"><a xlink:title=" ">
<path fill="none" stroke="#63b8ff" d="M714.97,-80.89C658.29,-73.92 550.03,-59.49 459,-41 451.12,-39.4 442.84,-37.5 434.76,-35.53"/>
<polygon fill="#63b8ff" stroke="#63b8ff" points="714.59,-84.37 724.94,-82.11 715.43,-77.42 714.59,-84.37"/>
</a>
</g>
</g>
<!-- Node7 -->
<g id="Node000007" class="node">
<title>Node7</title>
<g id="a_Node000007"><a xlink:href="iterative_8cc.html" target="_top" xlink:title=" ">
<polygon fill="white" stroke="#666666" points="602,-35.5 468,-35.5 468,-5.5 602,-5.5 602,-35.5"/>
<text text-anchor="start" x="476" y="-23.5" font-family="Times,serif" font-size="10.00">doc/dox/user/examples</text>
<text text-anchor="middle" x="535" y="-12.5" font-family="Times,serif" font-size="10.00">/iterative.cc</text>
</a>
</g>
</g>
<!-- Node2&#45;&gt;Node7 -->
<g id="edge6_Node000002_Node000007" class="edge">
<title>Node2&#45;&gt;Node7</title>
<g id="a_edge6_Node000002_Node000007"><a xlink:title=" ">
<path fill="none" stroke="#63b8ff" d="M715.04,-74.11C678.17,-63.34 622.71,-47.13 583.1,-35.56"/>
<polygon fill="#63b8ff" stroke="#63b8ff" points="714.34,-77.56 724.92,-77 716.3,-70.84 714.34,-77.56"/>
</a>
</g>
</g>
<!-- Node8 -->
<g id="Node000008" class="node">
<title>Node8</title>
<g id="a_Node000008"><a xlink:href="reducing_8cc.html" target="_top" xlink:title=" ">
<polygon fill="white" stroke="#666666" points="754,-35.5 620,-35.5 620,-5.5 754,-5.5 754,-35.5"/>
<text text-anchor="start" x="628" y="-23.5" font-family="Times,serif" font-size="10.00">doc/dox/user/examples</text>
<text text-anchor="middle" x="687" y="-12.5" font-family="Times,serif" font-size="10.00">/reducing.cc</text>
</a>
</g>
</g>
<!-- Node2&#45;&gt;Node8 -->
<g id="edge7_Node000002_Node000008" class="edge">
<title>Node2&#45;&gt;Node8</title>
<g id="a_edge7_Node000002_Node000008"><a xlink:title=" ">
<path fill="none" stroke="#63b8ff" d="M737.68,-69.91C726.72,-59.44 712.4,-45.76 701.78,-35.62"/>
<polygon fill="#63b8ff" stroke="#63b8ff" points="735.32,-72.49 744.96,-76.87 740.15,-67.43 735.32,-72.49"/>
</a>
</g>
</g>
<!-- Node9 -->
<g id="Node000009" class="node">
<title>Node9</title>
<g id="a_Node000009"><a xlink:href="simple_8cc.html" target="_top" xlink:title=" ">
<polygon fill="white" stroke="#666666" points="906,-35.5 772,-35.5 772,-5.5 906,-5.5 906,-35.5"/>
<text text-anchor="start" x="780" y="-23.5" font-family="Times,serif" font-size="10.00">doc/dox/user/examples</text>
<text text-anchor="middle" x="839" y="-12.5" font-family="Times,serif" font-size="10.00">/simple.cc</text>
</a>
</g>
</g>
<!-- Node2&#45;&gt;Node9 -->
<g id="edge8_Node000002_Node000009" class="edge">
<title>Node2&#45;&gt;Node9</title>
<g id="a_edge8_Node000002_Node000009"><a xlink:title=" ">
<path fill="none" stroke="#63b8ff" d="M773.5,-70.82C787.55,-60.24 806.38,-46.06 820.25,-35.62"/>
<polygon fill="#63b8ff" stroke="#63b8ff" points="771.35,-68.06 765.46,-76.87 775.56,-73.65 771.35,-68.06"/>
</a>
</g>
</g>
<!-- Node10 -->
<g id="Node000010" class="node">
<title>Node10</title>
<g id="a_Node000010"><a xlink:href="ttg_2madness_2ttg_8h.html" target="_top" xlink:title=" ">
<polygon fill="white" stroke="#666666" points="1194,-30 1070,-30 1070,-11 1194,-11 1194,-30"/>
<text text-anchor="middle" x="1132" y="-18" font-family="Times,serif" font-size="10.00">ttg/ttg/madness/ttg.h</text>
</a>
</g>
</g>
<!-- Node2&#45;&gt;Node10 -->
<g id="edge9_Node000002_Node000010" class="edge">
<title>Node2&#45;&gt;Node10</title>
<g id="a_edge9_Node000002_Node000010"><a xlink:title=" ">
<path fill="none" stroke="#63b8ff" d="M793.38,-81.38C852.06,-74.87 965.76,-60.9 1061,-41 1075.26,-38.02 1090.9,-33.83 1103.87,-30.09"/>
<polygon fill="#63b8ff" stroke="#63b8ff" points="792.98,-77.9 783.42,-82.47 793.74,-84.86 792.98,-77.9"/>
</a>
</g>
</g>
<!-- Node11 -->
<g id="Node000011" class="node">
<title>Node11</title>
<g id="a_Node000011"><a xlink:href="ttg_2parsec_2ttg_8h.html" target="_top" xlink:title=" ">
<polygon fill="white" stroke="#666666" points="1324,-30 1212,-30 1212,-11 1324,-11 1324,-30"/>
<text text-anchor="middle" x="1268" y="-18" font-family="Times,serif" font-size="10.00">ttg/ttg/parsec/ttg.h</text>
</a>
</g>
</g>
<!-- Node2&#45;&gt;Node11 -->
<g id="edge10_Node000002_Node000011" class="edge">
<title>Node2&#45;&gt;Node11</title>
<g id="a_edge10_Node000002_Node000011"><a xlink:title=" ">
<path fill="none" stroke="#63b8ff" d="M793.58,-84.14C872.27,-80.87 1053.64,-70.52 1203,-41 1216.64,-38.3 1231.51,-33.95 1243.59,-30.04"/>
<polygon fill="#63b8ff" stroke="#63b8ff" points="793.03,-80.66 783.17,-84.55 793.31,-87.65 793.03,-80.66"/>
</a>
</g>
</g>
<!-- Node12&#45;&gt;Node11 -->
<g id="edge33_Node000012_Node000011" class="edge">
<title>Node12&#45;&gt;Node11</title>
<g id="a_edge33_Node000012_Node000011"><a xlink:title=" ">
<path fill="none" stroke="#63b8ff" d="M1252.87,-400.4C1275.39,-381.42 1309,-346.53 1309,-307.5 1309,-307.5 1309,-307.5 1309,-140.5 1309,-97.02 1284.23,-49.23 1273.19,-30.1"/>
<polygon fill="#63b8ff" stroke="#63b8ff" points="1250.44,-397.86 1244.88,-406.88 1254.85,-403.3 1250.44,-397.86"/>
</a>
</g>
</g>
<!-- Node13 -->
<g id="Node000013" class="node">
<title>Node13</title>
<g id="a_Node000013"><a xlink:href="edge_8h.html" target="_top" xlink:title=" ">
<polygon fill="white" stroke="#666666" points="1238,-371 1152,-371 1152,-352 1238,-352 1238,-371"/>
<text text-anchor="middle" x="1195" y="-359" font-family="Times,serif" font-size="10.00">ttg/ttg/edge.h</text>
</a>
</g>
</g>
<!-- Node12&#45;&gt;Node13 -->
<g id="edge12_Node000012_Node000013" class="edge">
<title>Node12&#45;&gt;Node13</title>
<g id="a_edge12_Node000012_Node000013"><a xlink:title=" ">
<path fill="none" stroke="#63b8ff" d="M1220.73,-398.39C1214.19,-389.27 1206.43,-378.45 1201.16,-371.09"/>
<polygon fill="#63b8ff" stroke="#63b8ff" points="1218.05,-400.66 1226.73,-406.75 1223.74,-396.58 1218.05,-400.66"/>
</a>
</g>
</g>
<!-- Node14 -->
<g id="Node000014" class="node">
<title>Node14</title>
<g id="a_Node000014"><a xlink:href="func_8h.html" target="_top" xlink:title=" ">
<polygon fill="white" stroke="#666666" points="1127.5,-206 1044.5,-206 1044.5,-187 1127.5,-187 1127.5,-206"/>
<text text-anchor="middle" x="1086" y="-194" font-family="Times,serif" font-size="10.00">ttg/ttg/func.h</text>
</a>
</g>
</g>
<!-- Node12&#45;&gt;Node14 -->
<g id="edge32_Node000012_Node000014" class="edge">
<title>Node12&#45;&gt;Node14</title>
<g id="a_edge32_Node000012_Node000014"><a xlink:title=" ">
<path fill="none" stroke="#63b8ff" d="M1242.52,-397.75C1248.18,-384.72 1253.17,-366.8 1247,-352 1217.11,-280.31 1135.28,-226.14 1101.21,-206.03"/>
<polygon fill="#63b8ff" stroke="#63b8ff" points="1239.25,-396.47 1238.04,-406.99 1245.55,-399.52 1239.25,-396.47"/>
</a>
</g>
</g>
<!-- Node13&#45;&gt;Node2 -->
<g id="edge13_Node000013_Node000002" class="edge">
<title>Node13&#45;&gt;Node2</title>
<g id="a_edge13_Node000013_Node000002"><a xlink:title=" ">
<path fill="none" stroke="#63b8ff" d="M1141.66,-360.11C1013.16,-357.74 697,-342.73 697,-252.5 697,-252.5 697,-252.5 697,-195.5 697,-154.37 729.73,-113.56 745.59,-96.2"/>
<polygon fill="#63b8ff" stroke="#63b8ff" points="1141.62,-363.61 1151.68,-360.28 1141.74,-356.61 1141.62,-363.61"/>
</a>
</g>
</g>
<!-- Node13&#45;&gt;Node11 -->
<g id="edge20_Node000013_Node000011" class="edge">
<title>Node13&#45;&gt;Node11</title>
<g id="a_edge20_Node000013_Node000011"><a xlink:title=" ">
<path fill="none" stroke="#63b8ff" d="M1208.66,-343.99C1230.54,-315.81 1271,-255.82 1271,-197.5 1271,-197.5 1271,-197.5 1271,-140.5 1271,-99.17 1269.17,-49.79 1268.37,-30.16"/>
<polygon fill="#63b8ff" stroke="#63b8ff" points="1205.79,-341.98 1202.29,-351.97 1211.26,-346.34 1205.79,-341.98"/>
</a>
</g>
</g>
<!-- Node13&#45;&gt;Node14 -->
<g id="edge14_Node000013_Node000014" class="edge">
<title>Node13&#45;&gt;Node14</title>
<g id="a_edge14_Node000013_Node000014"><a xlink:title=" ">
<path fill="none" stroke="#63b8ff" d="M1183.42,-343.18C1160.31,-308.62 1109.23,-232.23 1091.89,-206.31"/>
<polygon fill="#63b8ff" stroke="#63b8ff" points="1180.67,-345.37 1189.14,-351.74 1186.49,-341.48 1180.67,-345.37"/>
</a>
</g>
</g>
<!-- Node16 -->
<g id="Node000016" class="node">
<title>Node16</title>
<g id="a_Node000016"><a xlink:href="tt_8h.html" target="_top" xlink:title=" ">
<polygon fill="white" stroke="#666666" points="1115,-316 1047,-316 1047,-297 1115,-297 1115,-316"/>
<text text-anchor="middle" x="1081" y="-304" font-family="Times,serif" font-size="10.00">ttg/ttg/tt.h</text>
</a>
</g>
</g>
<!-- Node13&#45;&gt;Node16 -->
<g id="edge21_Node000013_Node000016" class="edge">
<title>Node13&#45;&gt;Node16</title>
<g id="a_edge21_Node000013_Node000016"><a xlink:title=" ">
<path fill="none" stroke="#63b8ff" d="M1167.61,-347.77C1146.58,-337.99 1118.11,-324.75 1099.65,-316.17"/>
<polygon fill="#63b8ff" stroke="#63b8ff" points="1166.14,-350.94 1176.68,-351.98 1169.09,-344.6 1166.14,-350.94"/>
</a>
</g>
</g>
<!-- Node14&#45;&gt;Node2 -->
<g id="edge15_Node000014_Node000002" class="edge">
<title>Node14&#45;&gt;Node2</title>
<g id="a_edge15_Node000014_Node000002"><a xlink:title=" ">
<path fill="none" stroke="#63b8ff" d="M1076.91,-177.66C1068.41,-162.91 1054.29,-142.72 1036,-132 993.45,-107.06 846.65,-94.01 783.39,-89.43"/>
<polygon fill="#63b8ff" stroke="#63b8ff" points="1074.03,-179.69 1081.88,-186.81 1080.19,-176.35 1074.03,-179.69"/>
</a>
</g>
</g>
<!-- Node14&#45;&gt;Node10 -->
<g id="edge18_Node000014_Node000010" class="edge">
<title>Node14&#45;&gt;Node10</title>
<g id="a_edge18_Node000014_Node000010"><a xlink:title=" ">
<path fill="none" stroke="#63b8ff" d="M1091.01,-176.56C1100.9,-139.12 1122.63,-56.95 1129.71,-30.14"/>
<polygon fill="#63b8ff" stroke="#63b8ff" points="1087.52,-176.07 1088.34,-186.63 1094.28,-177.86 1087.52,-176.07"/>
</a>
</g>
</g>
<!-- Node14&#45;&gt;Node11 -->
<g id="edge19_Node000014_Node000011" class="edge">
<title>Node14&#45;&gt;Node11</title>
<g id="a_edge19_Node000014_Node000011"><a xlink:title=" ">
<path fill="none" stroke="#63b8ff" d="M1099.39,-178.93C1118.97,-155.15 1157.1,-110.53 1194,-77 1214.09,-58.75 1239.9,-40.41 1255.13,-30.05"/>
<polygon fill="#63b8ff" stroke="#63b8ff" points="1096.45,-176.99 1092.83,-186.95 1101.87,-181.42 1096.45,-176.99"/>
</a>
</g>
</g>
<!-- Node15 -->
<g id="Node000015" class="node">
<title>Node15</title>
<g id="a_Node000015"><a xlink:href="broadcast_8h.html" target="_top" xlink:title=" ">
<polygon fill="white" stroke="#666666" points="1027.5,-151 916.5,-151 916.5,-132 1027.5,-132 1027.5,-151"/>
<text text-anchor="middle" x="972" y="-139" font-family="Times,serif" font-size="10.00">ttg/ttg/broadcast.h</text>
</a>
</g>
</g>
<!-- Node14&#45;&gt;Node15 -->
<g id="edge16_Node000014_Node000015" class="edge">
<title>Node14&#45;&gt;Node15</title>
<g id="a_edge16_Node000014_Node000015"><a xlink:title=" ">
<path fill="none" stroke="#63b8ff" d="M1058.61,-182.77C1037.58,-172.99 1009.11,-159.75 990.65,-151.17"/>
<polygon fill="#63b8ff" stroke="#63b8ff" points="1057.14,-185.94 1067.68,-186.98 1060.09,-179.6 1057.14,-185.94"/>
</a>
</g>
</g>
<!-- Node15&#45;&gt;Node2 -->
<g id="edge17_Node000015_Node000002" class="edge">
<title>Node15&#45;&gt;Node2</title>
<g id="a_edge17_Node000015_Node000002"><a xlink:title=" ">
<path fill="none" stroke="#63b8ff" d="M927.01,-129.56C883.82,-119.06 819.85,-103.51 783.01,-94.55"/>
<polygon fill="#63b8ff" stroke="#63b8ff" points="926.43,-133.02 936.97,-131.98 928.08,-126.22 926.43,-133.02"/>
</a>
</g>
</g>
<!-- Node16&#45;&gt;Node2 -->
<g id="edge22_Node000016_Node000002" class="edge">
<title>Node16&#45;&gt;Node2</title>
<g id="a_edge22_Node000016_Node000002"><a xlink:title=" ">
<path fill="none" stroke="#63b8ff" d="M1036.9,-305.91C988.88,-304.4 911.54,-296.03 856,-261 804.42,-228.47 801.77,-205.29 774,-151 764.52,-132.48 758.49,-108.61 755.74,-96.07"/>
<polygon fill="#63b8ff" stroke="#63b8ff" points="1036.9,-309.41 1046.97,-306.14 1037.06,-302.42 1036.9,-309.41"/>
</a>
</g>
</g>
<!-- Node16&#45;&gt;Node10 -->
<g id="edge25_Node000016_Node000010" class="edge">
<title>Node16&#45;&gt;Node10</title>
<g id="a_edge25_Node000016_Node000010"><a xlink:title=" ">
<path fill="none" stroke="#63b8ff" d="M1094.05,-288.71C1107.84,-269.83 1128.71,-237.64 1137,-206 1154.22,-140.29 1139.49,-56.88 1133.92,-30.15"/>
<polygon fill="#63b8ff" stroke="#63b8ff" points="1091.15,-286.76 1087.94,-296.86 1096.74,-290.96 1091.15,-286.76"/>
</a>
</g>
</g>
<!-- Node16&#45;&gt;Node11 -->
<g id="edge26_Node000016_Node000011" class="edge">
<title>Node16&#45;&gt;Node11</title>
<g id="a_edge26_Node000016_Node000011"><a xlink:title=" ">
<path fill="none" stroke="#63b8ff" d="M1100.74,-290.47C1110.55,-282.4 1122.17,-271.89 1131,-261 1196.79,-179.9 1249.88,-63.25 1264.19,-30.4"/>
<polygon fill="#63b8ff" stroke="#63b8ff" points="1098.34,-287.91 1092.7,-296.88 1102.7,-293.38 1098.34,-287.91"/>
</a>
</g>
</g>
<!-- Node16&#45;&gt;Node14 -->
<g id="edge24_Node000016_Node000014" class="edge">
<title>Node16&#45;&gt;Node14</title>
<g id="a_edge24_Node000016_Node000014"><a xlink:title=" ">
<path fill="none" stroke="#63b8ff" d="M1081.88,-286.48C1082.97,-262.84 1084.8,-223.5 1085.6,-206.16"/>
<polygon fill="#63b8ff" stroke="#63b8ff" points="1078.38,-286.51 1081.41,-296.66 1085.37,-286.83 1078.38,-286.51"/>
</a>
</g>
</g>
<!-- Node16&#45;&gt;Node15 -->
<g id="edge23_Node000016_Node000015" class="edge">
<title>Node16&#45;&gt;Node15</title>
<g id="a_edge23_Node000016_Node000015"><a xlink:title=" ">
<path fill="none" stroke="#63b8ff" d="M1036.88,-302.67C980.83,-298.04 888.86,-286.67 868,-261 833.56,-218.62 915.96,-170.33 954.01,-151.08"/>
<polygon fill="#63b8ff" stroke="#63b8ff" points="1036.66,-306.16 1046.9,-303.45 1037.21,-299.18 1036.66,-306.16"/>
</a>
</g>
</g>
<!-- Node17 -->
<g id="Node000017" class="node">
<title>Node17</title>
<g id="a_Node000017"><a xlink:href="traverse_8h.html" target="_top" xlink:title=" ">
<polygon fill="white" stroke="#666666" points="980.5,-261 877.5,-261 877.5,-242 980.5,-242 980.5,-261"/>
<text text-anchor="middle" x="929" y="-249" font-family="Times,serif" font-size="10.00">ttg/ttg/traverse.h</text>
</a>
</g>
</g>
<!-- Node16&#45;&gt;Node17 -->
<g id="edge27_Node000016_Node000017" class="edge">
<title>Node16&#45;&gt;Node17</title>
<g id="a_edge27_Node000016_Node000017"><a xlink:title=" ">
<path fill="none" stroke="#63b8ff" d="M1047.07,-293.67C1018.73,-283.79 978.98,-269.93 953.61,-261.08"/>
<polygon fill="#63b8ff" stroke="#63b8ff" points="1045.98,-297 1056.58,-296.98 1048.29,-290.39 1045.98,-297"/>
</a>
</g>
</g>
<!-- Node17&#45;&gt;Node2 -->
<g id="edge28_Node000017_Node000002" class="edge">
<title>Node17&#45;&gt;Node2</title>
<g id="a_edge28_Node000017_Node000002"><a xlink:title=" ">
<path fill="none" stroke="#63b8ff" d="M904.24,-236.73C874.87,-219.52 825.66,-187.79 792,-151 776.22,-133.75 763.67,-108.93 757.73,-96.03"/>
<polygon fill="#63b8ff" stroke="#63b8ff" points="902.62,-239.84 913.03,-241.8 906.12,-233.77 902.62,-239.84"/>
</a>
</g>
</g>
<!-- Node17&#45;&gt;Node14 -->
<g id="edge29_Node000017_Node000014" class="edge">
<title>Node17&#45;&gt;Node14</title>
<g id="a_edge29_Node000017_Node000014"><a xlink:title=" ">
<path fill="none" stroke="#63b8ff" d="M964.05,-238.67C993.32,-228.79 1034.37,-214.93 1060.58,-206.08"/>
<polygon fill="#63b8ff" stroke="#63b8ff" points="962.58,-235.47 954.22,-241.98 964.82,-242.1 962.58,-235.47"/>
</a>
</g>
</g>
<!-- Node18 -->
<g id="Node000018" class="node">
<title>Node18</title>
<g id="a_Node000018"><a xlink:href="dot_8h.html" target="_top" xlink:title=" ">
<polygon fill="white" stroke="#666666" points="898.5,-151 801.5,-151 801.5,-132 898.5,-132 898.5,-151"/>
<text text-anchor="middle" x="850" y="-139" font-family="Times,serif" font-size="10.00">ttg/ttg/util/dot.h</text>
</a>
</g>
</g>
<!-- Node17&#45;&gt;Node18 -->
<g id="edge30_Node000017_Node000018" class="edge">
<title>Node17&#45;&gt;Node18</title>
<g id="a_edge30_Node000017_Node000018"><a xlink:title=" ">
<path fill="none" stroke="#63b8ff" d="M916.48,-233.38C899.38,-210.01 869.36,-168.97 856.33,-151.16"/>
<polygon fill="#63b8ff" stroke="#63b8ff" points="913.81,-235.66 922.54,-241.66 919.46,-231.52 913.81,-235.66"/>
</a>
</g>
</g>
<!-- Node18&#45;&gt;Node2 -->
<g id="edge31_Node000018_Node000002" class="edge">
<title>Node18&#45;&gt;Node2</title>
<g id="a_edge31_Node000018_Node000002"><a xlink:title=" ">
<path fill="none" stroke="#63b8ff" d="M825.48,-126.97C807.94,-117.28 784.83,-104.52 769.7,-96.17"/>
<polygon fill="#63b8ff" stroke="#63b8ff" points="824.13,-130.22 834.58,-131.98 827.51,-124.09 824.13,-130.22"/>
</a>
</g>
</g>
</g>
</svg>

<g id="navigator" transform="translate(0 0)" fill="#404254">
  <rect fill="#f2f5e9" fill-opacity="0.5" stroke="#606060" stroke-width=".5" x="0" y="0" width="60" height="60"/>
  <use id="zoomplus" xlink:href="#zoomPlus" x="17" y="9" onmousedown="handleZoom(evt,'in')"/>
  <use id="zoomminus" xlink:href="#zoomMin" x="42" y="9" onmousedown="handleZoom(evt,'out')"/>
  <use id="reset" xlink:href="#resetDef" x="30" y="36" onmousedown="handleReset()"/>
   <use id="arrowup" xlink:href="#arrowUp" x="0" y="0" onmousedown="handlePan(0,-1)"/>
  <use id="arrowright" xlink:href="#arrowRight" x="0" y="0" onmousedown="handlePan(1,0)"/>
  <use id="arrowdown" xlink:href="#arrowDown" x="0" y="0" onmousedown="handlePan(0,1)"/>
  <use id="arrowleft" xlink:href="#arrowLeft" x="0" y="0" onmousedown="handlePan(-1,0)"/>
</g>
<svg viewBox="0 0 15 15" width="100%" height="30px" preserveAspectRatio="xMaxYMin meet">
 <g id="arrow_out" transform="scale(0.3 0.3)">
  <a xlink:href="run_8h__dep__incl_org.svg" target="_base">
   <rect id="button" ry="5" rx="5" y="6" x="6" height="38" width="38"
        fill="#f2f5e9" fill-opacity="0.5" stroke="#606060" stroke-width="1.0"/>
   <path id="arrow"
     d="M 11.500037,31.436501 C 11.940474,20.09759 22.043105,11.32322 32.158766,21.979434 L 37.068811,17.246167 C 37.068811,17.246167 37.088388,32 37.088388,32 L 22.160133,31.978069 C 22.160133,31.978069 26.997745,27.140456 26.997745,27.140456 C 18.528582,18.264221 13.291696,25.230495 11.500037,31.436501 z"
     style="fill:#404040;"/>
  </a>
 </g>
</svg>

<style type='text/css'>
<![CDATA[
[data-mouse-over-selected='false'] { opacity: 0.7; }
[data-mouse-over-selected='true']  { opacity: 1.0; }
]]>
</style>
<script type="application/ecmascript"><![CDATA[
document.addEventListener('DOMContentLoaded', (event) => {
  highlightEdges();
  highlightAdjacentNodes();
});
]]></script>
</svg>
