<?xml version="1.0" encoding="UTF-8" standalone="no"?>
<!DOCTYPE svg PUBLIC "-//W3C//DTD SVG 1.1//EN"
 "http://www.w3.org/Graphics/SVG/1.1/DTD/svg11.dtd">
<!-- Generated by graphviz version 2.43.0 (0)
 -->
<!-- Title: ttg/ttg/util/scope_exit.h Pages: 1 -->
<svg width="262pt" height="93pt"
 viewBox="0.00 0.00 262.00 93.00" xmlns="http://www.w3.org/2000/svg" xmlns:xlink="http://www.w3.org/1999/xlink">
<g id="graph0" class="graph" transform="scale(1 1) rotate(0) translate(4 89)">
<title>ttg/ttg/util/scope_exit.h</title>
<!-- Node1 -->
<g id="Node000001" class="node">
<title>Node1</title>
<g id="a_Node000001"><a xlink:title=" ">
<polygon fill="#999999" stroke="#666666" points="180,-85 80,-85 80,-55 180,-55 180,-85"/>
<text text-anchor="start" x="88" y="-73" font-family="Times,serif" font-size="10.00">ttg/ttg/util/scope</text>
<text text-anchor="middle" x="130" y="-62" font-family="Times,serif" font-size="10.00">_exit.h</text>
</a>
</g>
</g>
<!-- Node2 -->
<g id="Node000002" class="node">
<title>Node2</title>
<g id="a_Node000002"><a xlink:href="ttg_2madness_2ttg_8h.html" target="_top" xlink:title=" ">
<polygon fill="white" stroke="#666666" points="124,-19 0,-19 0,0 124,0 124,-19"/>
<text text-anchor="middle" x="62" y="-7" font-family="Times,serif" font-size="10.00">ttg/ttg/madness/ttg.h</text>
</a>
</g>
</g>
<!-- Node1&#45;&gt;Node2 -->
<g id="edge1_Node000001_Node000002" class="edge">
<title>Node1&#45;&gt;Node2</title>
<g id="a_edge1_Node000001_Node000002"><a xlink:title=" ">
<path fill="none" stroke="#63b8ff" d="M105.87,-48.24C94.31,-38.29 81.07,-26.91 72.19,-19.27"/>
<polygon fill="#63b8ff" stroke="#63b8ff" points="103.68,-50.97 113.54,-54.84 108.24,-45.66 103.68,-50.97"/>
</a>
</g>
</g>
<!-- Node3 -->
<g id="Node000003" class="node">
<title>Node3</title>
<g id="a_Node000003"><a xlink:href="ttg_2parsec_2ttg_8h.html" target="_top" xlink:title=" ">
<polygon fill="white" stroke="#666666" points="254,-19 142,-19 142,0 254,0 254,-19"/>
<text text-anchor="middle" x="198" y="-7" font-family="Times,serif" font-size="10.00">ttg/ttg/parsec/ttg.h</text>
</a>
</g>
</g>
<!-- Node1&#45;&gt;Node3 -->
<g id="edge2_Node000001_Node000003" class="edge">
<title>Node1&#45;&gt;Node3</title>
<g id="a_edge2_Node000001_Node000003"><a xlink:title=" ">
<path fill="none" stroke="#63b8ff" d="M154.13,-48.24C165.69,-38.29 178.93,-26.91 187.81,-19.27"/>
<polygon fill="#63b8ff" stroke="#63b8ff" points="151.76,-45.66 146.46,-54.84 156.32,-50.97 151.76,-45.66"/>
</a>
</g>
</g>
</g>
</svg>
