<?xml version="1.0" encoding="UTF-8" standalone="no"?>
<!DOCTYPE svg PUBLIC "-//W3C//DTD SVG 1.1//EN"
 "http://www.w3.org/Graphics/SVG/1.1/DTD/svg11.dtd">
<!-- Generated by graphviz version 2.43.0 (0)
 -->
<!-- Title: main Pages: 1 -->
<svg width="395pt" height="267pt"
 viewBox="0.00 0.00 395.00 267.00" xmlns="http://www.w3.org/2000/svg" xmlns:xlink="http://www.w3.org/1999/xlink">

<svg id="main" version="1.1" xmlns="http://www.w3.org/2000/svg" xmlns:xlink="http://www.w3.org/1999/xlink" xml:space="preserve" onload="init(evt)">
<style type="text/css"><![CDATA[
.node, .edge {opacity: 0.7;}
.node.selected, .edge.selected {opacity: 1;}
.edge:hover path { stroke: red; }
.edge:hover polygon { stroke: red; fill: red; }
]]></style>
<script type="application/ecmascript" xlink:href="svg.min.js"/>
<svg id="graph" class="graph">
<g id="graph0" class="graph" transform="scale(1 1) rotate(0) translate(4 263)">
<title>main</title>
<!-- Node1 -->
<g id="Node000001" class="node">
<title>Node1</title>
<g id="a_Node000001"><a xlink:title=" ">
<polygon fill="#999999" stroke="#666666" points="42,-130 0,-130 0,-111 42,-111 42,-130"/>
<text text-anchor="middle" x="21" y="-118" font-family="Times,serif" font-size="10.00">main</text>
</a>
</g>
</g>
<!-- Node2 -->
<g id="Node000002" class="node">
<title>Node2</title>
<g id="a_Node000002"><a xlink:href="namespacettg.html#afbabcd9802bf1bbdd302e7a612459353" target="_top" xlink:title="Make a tuple of Edges to pass to.">
<polygon fill="white" stroke="#666666" points="192.5,-259 124.5,-259 124.5,-240 192.5,-240 192.5,-259"/>
<text text-anchor="middle" x="158.5" y="-247" font-family="Times,serif" font-size="10.00">ttg::edges</text>
</a>
</g>
</g>
<!-- Node1&#45;&gt;Node2 -->
<g id="edge1_Node000001_Node000002" class="edge">
<title>Node1&#45;&gt;Node2</title>
<g id="a_edge1_Node000001_Node000002"><a xlink:title=" ">
<path fill="none" stroke="#63b8ff" d="M23.98,-130.3C28.94,-152.13 43.98,-204.93 78,-231.5 88.3,-239.54 101.51,-244.12 114.19,-246.7"/>
<polygon fill="#63b8ff" stroke="#63b8ff" points="113.74,-250.17 124.18,-248.36 114.89,-243.27 113.74,-250.17"/>
</a>
</g>
</g>
<!-- Node3 -->
<g id="Node000003" class="node">
<title>Node3</title>
<g id="a_Node000003"><a xlink:href="namespacettg.html#a1261c57f70c978771f64af07d7f7d7cd" target="_top" xlink:title="Starts the execution in the given execution context.">
<polygon fill="white" stroke="#666666" points="197,-222 120,-222 120,-203 197,-203 197,-222"/>
<text text-anchor="middle" x="158.5" y="-210" font-family="Times,serif" font-size="10.00">ttg::execute</text>
</a>
</g>
</g>
<!-- Node1&#45;&gt;Node3 -->
<g id="edge2_Node000001_Node000003" class="edge">
<title>Node1&#45;&gt;Node3</title>
<g id="a_edge2_Node000001_Node000003"><a xlink:title=" ">
<path fill="none" stroke="#63b8ff" d="M26.49,-130.17C34.47,-146.21 52.68,-178.17 78,-194.5 87.47,-200.61 98.74,-204.66 109.77,-207.34"/>
<polygon fill="#63b8ff" stroke="#63b8ff" points="109.28,-210.81 119.78,-209.44 110.71,-203.96 109.28,-210.81"/>
</a>
</g>
</g>
<!-- Node4 -->
<g id="Node000004" class="node">
<title>Node4</title>
<g id="a_Node000004"><a xlink:href="namespacettg.html#a807bf42719a82b1539603d477aa2a3fd" target="_top" xlink:title="Returns when all tasks associated with the given execution context have finished on all ranks.">
<polygon fill="white" stroke="#666666" points="191,-185 126,-185 126,-166 191,-166 191,-185"/>
<text text-anchor="middle" x="158.5" y="-173" font-family="Times,serif" font-size="10.00">ttg::fence</text>
</a>
</g>
</g>
<!-- Node1&#45;&gt;Node4 -->
<g id="edge3_Node000001_Node000004" class="edge">
<title>Node1&#45;&gt;Node4</title>
<g id="a_edge3_Node000001_Node000004"><a xlink:title=" ">
<path fill="none" stroke="#63b8ff" d="M33.73,-130.09C44.58,-138.5 61.49,-150.46 78,-157.5 89.8,-162.53 103.2,-166.26 115.6,-168.97"/>
<polygon fill="#63b8ff" stroke="#63b8ff" points="115.23,-172.47 125.72,-171.02 116.62,-165.6 115.23,-172.47"/>
</a>
</g>
</g>
<!-- Node5 -->
<g id="Node000005" class="node">
<title>Node5</title>
<g id="a_Node000005"><a xlink:href="namespacettg.html#a96780ef3c553a2f45aa7ea881bdb6490" target="_top" xlink:title="Finalizes the TTG runtime.">
<polygon fill="white" stroke="#666666" points="195.5,-130 121.5,-130 121.5,-111 195.5,-111 195.5,-130"/>
<text text-anchor="middle" x="158.5" y="-118" font-family="Times,serif" font-size="10.00">ttg::finalize</text>
</a>
</g>
</g>
<!-- Node1&#45;&gt;Node5 -->
<g id="edge4_Node000001_Node000005" class="edge">
<title>Node1&#45;&gt;Node5</title>
<g id="a_edge4_Node000001_Node000005"><a xlink:title=" ">
<path fill="none" stroke="#63b8ff" d="M42.29,-120.5C60.42,-120.5 87.68,-120.5 111.12,-120.5"/>
<polygon fill="#63b8ff" stroke="#63b8ff" points="111.24,-124 121.24,-120.5 111.24,-117 111.24,-124"/>
</a>
</g>
</g>
<!-- Node6 -->
<g id="Node000006" class="node">
<title>Node6</title>
<g id="a_Node000006"><a xlink:href="namespacettg.html#a5829b255a41f2e47fa0e27bb5c791824" target="_top" xlink:title=" ">
<polygon fill="white" stroke="#666666" points="222.5,-93 94.5,-93 94.5,-74 222.5,-74 222.5,-93"/>
<text text-anchor="middle" x="158.5" y="-81" font-family="Times,serif" font-size="10.00">ttg::get_default_world</text>
</a>
</g>
</g>
<!-- Node1&#45;&gt;Node6 -->
<g id="edge6_Node000001_Node000006" class="edge">
<title>Node1&#45;&gt;Node6</title>
<g id="a_edge6_Node000001_Node000006"><a xlink:title=" ">
<path fill="none" stroke="#63b8ff" d="M42.11,-113.63C52.72,-110.1 66,-105.86 78,-102.5 86.64,-100.08 95.86,-97.7 104.84,-95.48"/>
<polygon fill="#63b8ff" stroke="#63b8ff" points="105.96,-98.82 114.85,-93.06 104.31,-92.01 105.96,-98.82"/>
</a>
</g>
</g>
<!-- Node7 -->
<g id="Node000007" class="node">
<title>Node7</title>
<g id="a_Node000007"><a xlink:href="namespacettg.html#a19c06079af2c21be154b525ff21028d1" target="_top" xlink:title=" ">
<polygon fill="white" stroke="#666666" points="198.5,-56 118.5,-56 118.5,-37 198.5,-37 198.5,-56"/>
<text text-anchor="middle" x="158.5" y="-44" font-family="Times,serif" font-size="10.00">ttg::initialize</text>
</a>
</g>
</g>
<!-- Node1&#45;&gt;Node7 -->
<g id="edge7_Node000001_Node000007" class="edge">
<title>Node1&#45;&gt;Node7</title>
<g id="a_edge7_Node000001_Node000007"><a xlink:title=" ">
<path fill="none" stroke="#63b8ff" d="M29.17,-110.72C38.84,-98.26 57.25,-76.98 78,-65.5 87.31,-60.34 98,-56.58 108.45,-53.83"/>
<polygon fill="#63b8ff" stroke="#63b8ff" points="109.41,-57.2 118.34,-51.5 107.81,-50.39 109.41,-57.2"/>
</a>
</g>
</g>
<!-- Node8 -->
<g id="Node000008" class="node">
<title>Node8</title>
<g id="a_Node000008"><a xlink:href="namespacettg.html#ade4672895f07e88909dab1644c69e60a" target="_top" xlink:title="Make the TTG tts executable. Applies.">
<polygon fill="white" stroke="#666666" points="239,-19 78,-19 78,0 239,0 239,-19"/>
<text text-anchor="middle" x="158.5" y="-7" font-family="Times,serif" font-size="10.00">ttg::make_graph_executable</text>
</a>
</g>
</g>
<!-- Node1&#45;&gt;Node8 -->
<g id="edge8_Node000001_Node000008" class="edge">
<title>Node1&#45;&gt;Node8</title>
<g id="a_edge8_Node000001_Node000008"><a xlink:title=" ">
<path fill="none" stroke="#63b8ff" d="M25,-110.97C31.46,-92.11 48.52,-49.96 78,-28.5 80.56,-26.64 83.27,-24.96 86.09,-23.44"/>
<polygon fill="#63b8ff" stroke="#63b8ff" points="87.82,-26.5 95.43,-19.12 84.89,-20.14 87.82,-26.5"/>
</a>
</g>
</g>
<!-- Node5&#45;&gt;Node5 -->
<g id="edge5_Node000005_Node000005" class="edge">
<title>Node5&#45;&gt;Node5</title>
<g id="a_edge5_Node000005_Node000005"><a xlink:title=" ">
<path fill="none" stroke="#63b8ff" d="M137.54,-130.08C127.34,-138.73 134.33,-148 158.5,-148 173.99,-148 182.42,-144.2 183.8,-139.19"/>
<polygon fill="#63b8ff" stroke="#63b8ff" points="186.92,-137.61 179.46,-130.08 180.6,-140.62 186.92,-137.61"/>
</a>
</g>
</g>
<!-- Node9 -->
<g id="Node000009" class="node">
<title>Node9</title>
<g id="a_Node000009"><a xlink:href="namespacettg.html#ac9c4eec56ea2e0cbc9bf52e1129bfee5" target="_top" xlink:title=" ">
<polygon fill="white" stroke="#666666" points="387,-19 275,-19 275,0 387,0 387,-19"/>
<text text-anchor="middle" x="331" y="-7" font-family="Times,serif" font-size="10.00">ttg::make_traverse</text>
</a>
</g>
</g>
<!-- Node8&#45;&gt;Node9 -->
<g id="edge9_Node000008_Node000009" class="edge">
<title>Node8&#45;&gt;Node9</title>
<g id="a_edge9_Node000008_Node000009"><a xlink:title=" ">
<path fill="none" stroke="#63b8ff" d="M239.26,-9.5C247.67,-9.5 256.15,-9.5 264.37,-9.5"/>
<polygon fill="#63b8ff" stroke="#63b8ff" points="264.63,-13 274.63,-9.5 264.63,-6 264.63,-13"/>
</a>
</g>
</g>
</g>
</svg>
</svg>

<style type='text/css'>
<![CDATA[
[data-mouse-over-selected='false'] { opacity: 0.7; }
[data-mouse-over-selected='true']  { opacity: 1.0; }
]]>
</style>
<script type="application/ecmascript"><![CDATA[
document.addEventListener('DOMContentLoaded', (event) => {
  highlightEdges();
  highlightAdjacentNodes();
});
]]></script>
</svg>
