<?xml version="1.0" encoding="UTF-8" standalone="no"?>
<!DOCTYPE svg PUBLIC "-//W3C//DTD SVG 1.1//EN"
 "http://www.w3.org/Graphics/SVG/1.1/DTD/svg11.dtd">
<!-- Generated by graphviz version 2.43.0 (0)
 -->
<!-- Title: ttg/ttg/serialization/splitmd_data_descriptor.h Pages: 1 -->
<svg width="479pt" height="203pt"
 viewBox="0.00 0.00 479.00 203.00" xmlns="http://www.w3.org/2000/svg" xmlns:xlink="http://www.w3.org/1999/xlink">
<g id="graph0" class="graph" transform="scale(1 1) rotate(0) translate(4 199)">
<title>ttg/ttg/serialization/splitmd_data_descriptor.h</title>
<!-- Node1 -->
<g id="Node000001" class="node">
<title>Node1</title>
<g id="a_Node000001"><a xlink:title=" ">
<polygon fill="#999999" stroke="#666666" points="291.5,-195 139.5,-195 139.5,-165 291.5,-165 291.5,-195"/>
<text text-anchor="start" x="147.5" y="-183" font-family="Times,serif" font-size="10.00">ttg/ttg/serialization</text>
<text text-anchor="middle" x="215.5" y="-172" font-family="Times,serif" font-size="10.00">/splitmd_data_descriptor.h</text>
</a>
</g>
</g>
<!-- Node2 -->
<g id="Node000002" class="node">
<title>Node2</title>
<g id="a_Node000002"><a xlink:title=" ">
<polygon fill="#e0e0e0" stroke="#999999" points="183,-19 112,-19 112,0 183,0 183,-19"/>
<text text-anchor="middle" x="147.5" y="-7" font-family="Times,serif" font-size="10.00">type_traits</text>
</a>
</g>
</g>
<!-- Node1&#45;&gt;Node2 -->
<g id="edge1_Node000001_Node000002" class="edge">
<title>Node1&#45;&gt;Node2</title>
<g id="a_edge1_Node000001_Node000002"><a xlink:title=" ">
<path fill="none" stroke="#63b8ff" d="M194.5,-164.83C183.09,-155.93 169.84,-143.43 162.5,-129 146.12,-96.76 145.09,-53.46 146.11,-29.12"/>
<polygon fill="#63b8ff" stroke="#63b8ff" points="149.6,-29.29 146.69,-19.11 142.61,-28.89 149.6,-29.29"/>
</a>
</g>
</g>
<!-- Node3 -->
<g id="Node000003" class="node">
<title>Node3</title>
<g id="a_Node000003"><a xlink:href="meta_8h.html" target="_top" xlink:title=" ">
<polygon fill="white" stroke="#666666" points="260,-129 171,-129 171,-110 260,-110 260,-129"/>
<text text-anchor="middle" x="215.5" y="-117" font-family="Times,serif" font-size="10.00">ttg/util/meta.h</text>
</a>
</g>
</g>
<!-- Node1&#45;&gt;Node3 -->
<g id="edge2_Node000001_Node000003" class="edge">
<title>Node1&#45;&gt;Node3</title>
<g id="a_edge2_Node000001_Node000003"><a xlink:title=" ">
<path fill="none" stroke="#63b8ff" d="M215.5,-164.84C215.5,-157.21 215.5,-147.7 215.5,-139.45"/>
<polygon fill="#63b8ff" stroke="#63b8ff" points="219,-139.27 215.5,-129.27 212,-139.27 219,-139.27"/>
</a>
</g>
</g>
<!-- Node12 -->
<g id="Node000012" class="node">
<title>Node12</title>
<g id="a_Node000012"><a xlink:href="iovec_8h.html" target="_top" xlink:title=" ">
<polygon fill="white" stroke="#666666" points="412,-129 323,-129 323,-110 412,-110 412,-129"/>
<text text-anchor="middle" x="367.5" y="-117" font-family="Times,serif" font-size="10.00">ttg/util/iovec.h</text>
</a>
</g>
</g>
<!-- Node1&#45;&gt;Node12 -->
<g id="edge13_Node000001_Node000012" class="edge">
<title>Node1&#45;&gt;Node12</title>
<g id="a_edge13_Node000001_Node000012"><a xlink:title=" ">
<path fill="none" stroke="#63b8ff" d="M251.91,-164.99C277.38,-155.18 311.09,-142.21 335.53,-132.81"/>
<polygon fill="#63b8ff" stroke="#63b8ff" points="336.98,-136 345.05,-129.14 334.46,-129.46 336.98,-136"/>
</a>
</g>
</g>
<!-- Node3&#45;&gt;Node2 -->
<g id="edge4_Node000003_Node000002" class="edge">
<title>Node3&#45;&gt;Node2</title>
<g id="a_edge4_Node000003_Node000002"><a xlink:title=" ">
<path fill="none" stroke="#63b8ff" d="M209.65,-109.68C203.75,-100.73 194.39,-86.47 186.5,-74 176.69,-58.49 165.78,-40.68 158,-27.87"/>
<polygon fill="#63b8ff" stroke="#63b8ff" points="160.9,-25.91 152.73,-19.17 154.92,-29.54 160.9,-25.91"/>
</a>
</g>
</g>
<!-- Node4 -->
<g id="Node000004" class="node">
<title>Node4</title>
<g id="a_Node000004"><a xlink:title=" ">
<polygon fill="#e0e0e0" stroke="#999999" points="263.5,-74 195.5,-74 195.5,-55 263.5,-55 263.5,-74"/>
<text text-anchor="middle" x="229.5" y="-62" font-family="Times,serif" font-size="10.00">functional</text>
</a>
</g>
</g>
<!-- Node3&#45;&gt;Node4 -->
<g id="edge3_Node000003_Node000004" class="edge">
<title>Node3&#45;&gt;Node4</title>
<g id="a_edge3_Node000003_Node000004"><a xlink:title=" ">
<path fill="none" stroke="#63b8ff" d="M217.81,-109.75C219.67,-102.72 222.34,-92.62 224.65,-83.84"/>
<polygon fill="#63b8ff" stroke="#63b8ff" points="228.06,-84.65 227.23,-74.09 221.29,-82.86 228.06,-84.65"/>
</a>
</g>
</g>
<!-- Node5 -->
<g id="Node000005" class="node">
<title>Node5</title>
<g id="a_Node000005"><a xlink:href="span_8h.html" target="_top" xlink:title=" ">
<polygon fill="white" stroke="#666666" points="369.5,-74 281.5,-74 281.5,-55 369.5,-55 369.5,-74"/>
<text text-anchor="middle" x="325.5" y="-62" font-family="Times,serif" font-size="10.00">ttg/util/span.h</text>
</a>
</g>
</g>
<!-- Node3&#45;&gt;Node5 -->
<g id="edge5_Node000003_Node000005" class="edge">
<title>Node3&#45;&gt;Node5</title>
<g id="a_edge5_Node000003_Node000005"><a xlink:title=" ">
<path fill="none" stroke="#63b8ff" d="M233.17,-109.98C250.79,-101.5 278.08,-88.35 298.43,-78.54"/>
<polygon fill="#63b8ff" stroke="#63b8ff" points="300.02,-81.66 307.51,-74.17 296.98,-75.36 300.02,-81.66"/>
</a>
</g>
</g>
<!-- Node10 -->
<g id="Node000010" class="node">
<title>Node10</title>
<g id="a_Node000010"><a xlink:href="typelist_8h.html" target="_top" xlink:title=" ">
<polygon fill="white" stroke="#666666" points="101,-74 0,-74 0,-55 101,-55 101,-74"/>
<text text-anchor="middle" x="50.5" y="-62" font-family="Times,serif" font-size="10.00">ttg/util/typelist.h</text>
</a>
</g>
</g>
<!-- Node3&#45;&gt;Node10 -->
<g id="edge11_Node000003_Node000010" class="edge">
<title>Node3&#45;&gt;Node10</title>
<g id="a_edge11_Node000003_Node000010"><a xlink:title=" ">
<path fill="none" stroke="#63b8ff" d="M188.99,-109.98C161.29,-101.09 117.64,-87.07 86.76,-77.15"/>
<polygon fill="#63b8ff" stroke="#63b8ff" points="87.81,-73.81 77.22,-74.08 85.67,-80.47 87.81,-73.81"/>
</a>
</g>
</g>
<!-- Node5&#45;&gt;Node2 -->
<g id="edge9_Node000005_Node000002" class="edge">
<title>Node5&#45;&gt;Node2</title>
<g id="a_edge9_Node000005_Node000002"><a xlink:title=" ">
<path fill="none" stroke="#63b8ff" d="M296.9,-54.98C266.89,-46.05 219.52,-31.94 186.18,-22.02"/>
<polygon fill="#63b8ff" stroke="#63b8ff" points="186.91,-18.58 176.32,-19.08 184.91,-25.29 186.91,-18.58"/>
</a>
</g>
</g>
<!-- Node6 -->
<g id="Node000006" class="node">
<title>Node6</title>
<g id="a_Node000006"><a xlink:title=" ">
<polygon fill="#e0e0e0" stroke="#999999" points="401.5,-19 357.5,-19 357.5,0 401.5,0 401.5,-19"/>
<text text-anchor="middle" x="379.5" y="-7" font-family="Times,serif" font-size="10.00">array</text>
</a>
</g>
</g>
<!-- Node5&#45;&gt;Node6 -->
<g id="edge6_Node000005_Node000006" class="edge">
<title>Node5&#45;&gt;Node6</title>
<g id="a_edge6_Node000005_Node000006"><a xlink:title=" ">
<path fill="none" stroke="#63b8ff" d="M334.42,-54.75C342.28,-47.03 353.93,-35.6 363.42,-26.28"/>
<polygon fill="#63b8ff" stroke="#63b8ff" points="366.06,-28.59 370.75,-19.09 361.16,-23.6 366.06,-28.59"/>
</a>
</g>
</g>
<!-- Node7 -->
<g id="Node000007" class="node">
<title>Node7</title>
<g id="a_Node000007"><a xlink:title=" ">
<polygon fill="#e0e0e0" stroke="#999999" points="255.5,-19 201.5,-19 201.5,0 255.5,0 255.5,-19"/>
<text text-anchor="middle" x="228.5" y="-7" font-family="Times,serif" font-size="10.00">cstddef</text>
</a>
</g>
</g>
<!-- Node5&#45;&gt;Node7 -->
<g id="edge7_Node000005_Node000007" class="edge">
<title>Node5&#45;&gt;Node7</title>
<g id="a_edge7_Node000005_Node000007"><a xlink:title=" ">
<path fill="none" stroke="#63b8ff" d="M309.92,-54.98C294.73,-46.69 271.4,-33.94 253.6,-24.22"/>
<polygon fill="#63b8ff" stroke="#63b8ff" points="254.82,-20.89 244.37,-19.17 251.47,-27.04 254.82,-20.89"/>
</a>
</g>
</g>
<!-- Node8 -->
<g id="Node000008" class="node">
<title>Node8</title>
<g id="a_Node000008"><a xlink:title=" ">
<polygon fill="#e0e0e0" stroke="#999999" points="471,-19 420,-19 420,0 471,0 471,-19"/>
<text text-anchor="middle" x="445.5" y="-7" font-family="Times,serif" font-size="10.00">cstdint</text>
</a>
</g>
</g>
<!-- Node5&#45;&gt;Node8 -->
<g id="edge8_Node000005_Node000008" class="edge">
<title>Node5&#45;&gt;Node8</title>
<g id="a_edge8_Node000005_Node000008"><a xlink:title=" ">
<path fill="none" stroke="#63b8ff" d="M344.78,-54.98C364.17,-46.42 394.31,-33.11 416.57,-23.28"/>
<polygon fill="#63b8ff" stroke="#63b8ff" points="418.14,-26.41 425.87,-19.17 415.31,-20.01 418.14,-26.41"/>
</a>
</g>
</g>
<!-- Node9 -->
<g id="Node000009" class="node">
<title>Node9</title>
<g id="a_Node000009"><a xlink:title=" ">
<polygon fill="#e0e0e0" stroke="#999999" points="339.5,-19 273.5,-19 273.5,0 339.5,0 339.5,-19"/>
<text text-anchor="middle" x="306.5" y="-7" font-family="Times,serif" font-size="10.00">exception</text>
</a>
</g>
</g>
<!-- Node5&#45;&gt;Node9 -->
<g id="edge10_Node000005_Node000009" class="edge">
<title>Node5&#45;&gt;Node9</title>
<g id="a_edge10_Node000005_Node000009"><a xlink:title=" ">
<path fill="none" stroke="#63b8ff" d="M322.36,-54.75C319.82,-47.65 316.14,-37.4 312.97,-28.56"/>
<polygon fill="#63b8ff" stroke="#63b8ff" points="316.25,-27.32 309.58,-19.09 309.66,-29.68 316.25,-27.32"/>
</a>
</g>
</g>
<!-- Node11 -->
<g id="Node000011" class="node">
<title>Node11</title>
<g id="a_Node000011"><a xlink:title=" ">
<polygon fill="#e0e0e0" stroke="#999999" points="72,-19 29,-19 29,0 72,0 72,-19"/>
<text text-anchor="middle" x="50.5" y="-7" font-family="Times,serif" font-size="10.00">tuple</text>
</a>
</g>
</g>
<!-- Node10&#45;&gt;Node11 -->
<g id="edge12_Node000010_Node000011" class="edge">
<title>Node10&#45;&gt;Node11</title>
<g id="a_edge12_Node000010_Node000011"><a xlink:title=" ">
<path fill="none" stroke="#63b8ff" d="M50.5,-54.75C50.5,-47.8 50.5,-37.85 50.5,-29.13"/>
<polygon fill="#63b8ff" stroke="#63b8ff" points="54,-29.09 50.5,-19.09 47,-29.09 54,-29.09"/>
</a>
</g>
</g>
<!-- Node12&#45;&gt;Node8 -->
<g id="edge14_Node000012_Node000008" class="edge">
<title>Node12&#45;&gt;Node8</title>
<g id="a_edge14_Node000012_Node000008"><a xlink:title=" ">
<path fill="none" stroke="#63b8ff" d="M373.88,-109.66C386.86,-91.69 416.51,-50.64 433.31,-27.38"/>
<polygon fill="#63b8ff" stroke="#63b8ff" points="436.23,-29.31 439.25,-19.16 430.55,-25.22 436.23,-29.31"/>
</a>
</g>
</g>
</g>
</svg>
