<?xml version="1.0" encoding="UTF-8" standalone="no"?>
<!DOCTYPE svg PUBLIC "-//W3C//DTD SVG 1.1//EN"
 "http://www.w3.org/Graphics/SVG/1.1/DTD/svg11.dtd">
<!-- Generated by graphviz version 2.43.0 (0)
 -->
<!-- Title: ttg_parsec::Buffer::get_owner_device Pages: 1 -->
<svg width="287pt" height="194pt"
 viewBox="0.00 0.00 287.00 193.50" xmlns="http://www.w3.org/2000/svg" xmlns:xlink="http://www.w3.org/1999/xlink">
<g id="graph0" class="graph" transform="scale(1 1) rotate(0) translate(4 189.5)">
<title>ttg_parsec::Buffer::get_owner_device</title>
<!-- Node1 -->
<g id="Node000001" class="node">
<title>Node1</title>
<g id="a_Node000001"><a xlink:title=" ">
<polygon fill="#999999" stroke="#666666" points="114,-113.5 0,-113.5 0,-83.5 114,-83.5 114,-113.5"/>
<text text-anchor="start" x="8" y="-101.5" font-family="Times,serif" font-size="10.00">ttg_parsec::Buffer</text>
<text text-anchor="middle" x="57" y="-90.5" font-family="Times,serif" font-size="10.00">::get_owner_device</text>
</a>
</g>
</g>
<!-- Node2 -->
<g id="Node000002" class="node">
<title>Node2</title>
<g id="a_Node000002"><a xlink:href="namespacettg_1_1device.html#a5c5ca5f871db61a4e703ca6170582a5e" target="_top" xlink:title=" ">
<polygon fill="white" stroke="#666666" points="271,-185.5 158,-185.5 158,-155.5 271,-155.5 271,-185.5"/>
<text text-anchor="start" x="166" y="-173.5" font-family="Times,serif" font-size="10.00">ttg::device::current</text>
<text text-anchor="middle" x="214.5" y="-162.5" font-family="Times,serif" font-size="10.00">_device</text>
</a>
</g>
</g>
<!-- Node1&#45;&gt;Node2 -->
<g id="edge1_Node000001_Node000002" class="edge">
<title>Node1&#45;&gt;Node2</title>
<g id="a_edge1_Node000001_Node000002"><a xlink:title=" ">
<path fill="none" stroke="#63b8ff" d="M84.95,-113.65C103.07,-123.56 127.64,-136.48 150,-146.5 153.87,-148.23 157.91,-149.96 161.99,-151.63"/>
<polygon fill="#63b8ff" stroke="#63b8ff" points="160.95,-154.99 171.54,-155.45 163.55,-148.49 160.95,-154.99"/>
</a>
</g>
</g>
<!-- Node3 -->
<g id="Node000003" class="node">
<title>Node3</title>
<g id="a_Node000003"><a xlink:href="structttg__parsec_1_1_buffer.html#ac81a3d9b9e2dcbbcba93cf1a35512f04" target="_top" xlink:title=" ">
<polygon fill="white" stroke="#666666" points="268,-137.5 161,-137.5 161,-107.5 268,-107.5 268,-137.5"/>
<text text-anchor="start" x="169" y="-125.5" font-family="Times,serif" font-size="10.00">ttg_parsec::Buffer</text>
<text text-anchor="middle" x="214.5" y="-114.5" font-family="Times,serif" font-size="10.00">::empty</text>
</a>
</g>
</g>
<!-- Node1&#45;&gt;Node3 -->
<g id="edge2_Node000001_Node000003" class="edge">
<title>Node1&#45;&gt;Node3</title>
<g id="a_edge2_Node000001_Node000003"><a xlink:title=" ">
<path fill="none" stroke="#63b8ff" d="M114.14,-107.16C126.03,-109 138.66,-110.95 150.78,-112.82"/>
<polygon fill="#63b8ff" stroke="#63b8ff" points="150.4,-116.3 160.81,-114.37 151.47,-109.38 150.4,-116.3"/>
</a>
</g>
</g>
<!-- Node4 -->
<g id="Node000004" class="node">
<title>Node4</title>
<g id="a_Node000004"><a xlink:href="structttg__parsec_1_1_buffer.html#a3780a9611c746e0d1ea617720d469ad5" target="_top" xlink:title=" ">
<polygon fill="white" stroke="#666666" points="268,-89.5 161,-89.5 161,-59.5 268,-59.5 268,-89.5"/>
<text text-anchor="start" x="169" y="-77.5" font-family="Times,serif" font-size="10.00">ttg_parsec::Buffer</text>
<text text-anchor="middle" x="214.5" y="-66.5" font-family="Times,serif" font-size="10.00">::is_valid</text>
</a>
</g>
</g>
<!-- Node1&#45;&gt;Node4 -->
<g id="edge3_Node000001_Node000004" class="edge">
<title>Node1&#45;&gt;Node4</title>
<g id="a_edge3_Node000001_Node000004"><a xlink:title=" ">
<path fill="none" stroke="#63b8ff" d="M114.14,-89.84C126.03,-88 138.66,-86.05 150.78,-84.18"/>
<polygon fill="#63b8ff" stroke="#63b8ff" points="151.47,-87.62 160.81,-82.63 150.4,-80.7 151.47,-87.62"/>
</a>
</g>
</g>
<!-- Node5 -->
<g id="Node000005" class="node">
<title>Node5</title>
<g id="a_Node000005"><a xlink:href="namespacettg__parsec_1_1detail.html#a2209440310cdedf55f4d3846ffdc9a2f" target="_top" xlink:title=" ">
<polygon fill="white" stroke="#666666" points="279,-41 150,-41 150,0 279,0 279,-41"/>
<text text-anchor="start" x="158" y="-29" font-family="Times,serif" font-size="10.00">ttg_parsec::detail</text>
<text text-anchor="start" x="158" y="-18" font-family="Times,serif" font-size="10.00">::parsec_device_to_ttg</text>
<text text-anchor="middle" x="214.5" y="-7" font-family="Times,serif" font-size="10.00">_device</text>
</a>
</g>
</g>
<!-- Node1&#45;&gt;Node5 -->
<g id="edge4_Node000001_Node000005" class="edge">
<title>Node1&#45;&gt;Node5</title>
<g id="a_edge4_Node000001_Node000005"><a xlink:title=" ">
<path fill="none" stroke="#63b8ff" d="M86.45,-83.29C104.55,-73.7 128.54,-61.16 150,-50.5 153.31,-48.86 156.72,-47.18 160.17,-45.51"/>
<polygon fill="#63b8ff" stroke="#63b8ff" points="161.84,-48.59 169.33,-41.09 158.8,-42.28 161.84,-48.59"/>
</a>
</g>
</g>
</g>
</svg>
