<?xml version="1.0" encoding="UTF-8" standalone="no"?>
<!DOCTYPE svg PUBLIC "-//W3C//DTD SVG 1.1//EN"
 "http://www.w3.org/Graphics/SVG/1.1/DTD/svg11.dtd">
<!-- Generated by graphviz version 2.43.0 (0)
 -->
<!-- Title: ttg_parsec::detail::ptr_impl::operator= Pages: 1 -->
<svg width="319pt" height="86pt"
 viewBox="0.00 0.00 319.00 86.00" xmlns="http://www.w3.org/2000/svg" xmlns:xlink="http://www.w3.org/1999/xlink">
<g id="graph0" class="graph" transform="scale(1 1) rotate(0) translate(4 82)">
<title>ttg_parsec::detail::ptr_impl::operator=</title>
<!-- Node1 -->
<g id="Node000001" class="node">
<title>Node1</title>
<g id="a_Node000001"><a xlink:title=" ">
<polygon fill="#999999" stroke="#666666" points="123,-54 0,-54 0,-24 123,-24 123,-54"/>
<text text-anchor="start" x="8" y="-42" font-family="Times,serif" font-size="10.00">ttg_parsec::detail</text>
<text text-anchor="middle" x="61.5" y="-31" font-family="Times,serif" font-size="10.00">::ptr_impl::operator=</text>
</a>
</g>
</g>
<!-- Node2 -->
<g id="Node000002" class="node">
<title>Node2</title>
<g id="a_Node000002"><a xlink:href="structttg__parsec_1_1detail_1_1ttg__data__copy__t.html#ad1366b20ef9d7e3168239b887c258b99" target="_top" xlink:title=" ">
<polygon fill="white" stroke="#666666" points="309,-78 161,-78 161,-48 309,-48 309,-78"/>
<text text-anchor="start" x="169" y="-66" font-family="Times,serif" font-size="10.00">ttg_parsec::detail</text>
<text text-anchor="middle" x="235" y="-55" font-family="Times,serif" font-size="10.00">::ttg_data_copy_t::add_ref</text>
</a>
</g>
</g>
<!-- Node1&#45;&gt;Node2 -->
<g id="edge1_Node000001_Node000002" class="edge">
<title>Node1&#45;&gt;Node2</title>
<g id="a_edge1_Node000001_Node000002"><a xlink:title=" ">
<path fill="none" stroke="#63b8ff" d="M123.45,-47.53C132.36,-48.78 141.66,-50.08 150.91,-51.37"/>
<polygon fill="#63b8ff" stroke="#63b8ff" points="150.53,-54.85 160.92,-52.77 151.5,-47.92 150.53,-54.85"/>
</a>
</g>
</g>
<!-- Node3 -->
<g id="Node000003" class="node">
<title>Node3</title>
<g id="a_Node000003"><a xlink:href="structttg__parsec_1_1detail_1_1ttg__data__copy__t.html#a054097c6ebb9a66b4e37b0f16034c7b9" target="_top" xlink:title=" ">
<polygon fill="white" stroke="#666666" points="311,-30 159,-30 159,0 311,0 311,-30"/>
<text text-anchor="start" x="167" y="-18" font-family="Times,serif" font-size="10.00">ttg_parsec::detail</text>
<text text-anchor="middle" x="235" y="-7" font-family="Times,serif" font-size="10.00">::ttg_data_copy_t::num_ref</text>
</a>
</g>
</g>
<!-- Node1&#45;&gt;Node3 -->
<g id="edge2_Node000001_Node000003" class="edge">
<title>Node1&#45;&gt;Node3</title>
<g id="a_edge2_Node000001_Node000003"><a xlink:title=" ">
<path fill="none" stroke="#63b8ff" d="M123.45,-30.47C131.68,-29.32 140.25,-28.12 148.81,-26.92"/>
<polygon fill="#63b8ff" stroke="#63b8ff" points="149.42,-30.37 158.84,-25.52 148.45,-23.44 149.42,-30.37"/>
</a>
</g>
</g>
</g>
</svg>
