<?xml version="1.0" encoding="UTF-8" standalone="no"?>
<!DOCTYPE svg PUBLIC "-//W3C//DTD SVG 1.1//EN"
 "http://www.w3.org/Graphics/SVG/1.1/DTD/svg11.dtd">
<!-- Generated by graphviz version 2.43.0 (0)
 -->
<!-- Title: ttg::SequencedKeysConstraint::release_next Pages: 1 -->
<svg width="596pt" height="134pt"
 viewBox="0.00 0.00 596.00 134.00" xmlns="http://www.w3.org/2000/svg" xmlns:xlink="http://www.w3.org/1999/xlink">
<g id="graph0" class="graph" transform="scale(1 1) rotate(0) translate(4 130)">
<title>ttg::SequencedKeysConstraint::release_next</title>
<!-- Node1 -->
<g id="Node000001" class="node">
<title>Node1</title>
<g id="a_Node000001"><a xlink:title=" ">
<polygon fill="#999999" stroke="#666666" points="172,-78 0,-78 0,-48 172,-48 172,-78"/>
<text text-anchor="start" x="8" y="-66" font-family="Times,serif" font-size="10.00">ttg::SequencedKeysConstraint</text>
<text text-anchor="middle" x="86" y="-55" font-family="Times,serif" font-size="10.00">::release_next</text>
</a>
</g>
</g>
<!-- Node2 -->
<g id="Node000002" class="node">
<title>Node2</title>
<g id="a_Node000002"><a xlink:href="structttg_1_1_sequenced_keys_constraint.html#aef5a29a78590db3c0773d76615736c33" target="_top" xlink:title=" ">
<polygon fill="white" stroke="#666666" points="380,-126 208,-126 208,-96 380,-96 380,-126"/>
<text text-anchor="start" x="216" y="-114" font-family="Times,serif" font-size="10.00">ttg::SequencedKeysConstraint</text>
<text text-anchor="middle" x="294" y="-103" font-family="Times,serif" font-size="10.00">::eligible</text>
</a>
</g>
</g>
<!-- Node1&#45;&gt;Node2 -->
<g id="edge1_Node000001_Node000002" class="edge">
<title>Node1&#45;&gt;Node2</title>
<g id="a_edge1_Node000001_Node000002"><a xlink:title=" ">
<path fill="none" stroke="#63b8ff" d="M151.61,-78.06C172.9,-83.01 196.73,-88.57 218.68,-93.68"/>
<polygon fill="#63b8ff" stroke="#63b8ff" points="218.08,-97.14 228.61,-96 219.67,-90.32 218.08,-97.14"/>
</a>
</g>
</g>
<!-- Node4 -->
<g id="Node000004" class="node">
<title>Node4</title>
<g id="a_Node000004"><a xlink:href="structttg_1_1_constraint_base.html#a81c2b6e0a5febbf5ad3386e695f43890" target="_top" xlink:title=" ">
<polygon fill="white" stroke="#666666" points="351.5,-78 236.5,-78 236.5,-48 351.5,-48 351.5,-78"/>
<text text-anchor="start" x="244.5" y="-66" font-family="Times,serif" font-size="10.00">ttg::ConstraintBase</text>
<text text-anchor="middle" x="294" y="-55" font-family="Times,serif" font-size="10.00">::lock_guard</text>
</a>
</g>
</g>
<!-- Node1&#45;&gt;Node4 -->
<g id="edge3_Node000001_Node000004" class="edge">
<title>Node1&#45;&gt;Node4</title>
<g id="a_edge3_Node000001_Node000004"><a xlink:title=" ">
<path fill="none" stroke="#63b8ff" d="M172.28,-63C190.15,-63 208.76,-63 225.86,-63"/>
<polygon fill="#63b8ff" stroke="#63b8ff" points="226.29,-66.5 236.29,-63 226.29,-59.5 226.29,-66.5"/>
</a>
</g>
</g>
<!-- Node5 -->
<g id="Node000005" class="node">
<title>Node5</title>
<g id="a_Node000005"><a xlink:href="structttg_1_1_constraint_base.html#a116c094e06afb3f7aed3f4e27da47a65" target="_top" xlink:title=" ">
<polygon fill="white" stroke="#666666" points="351.5,-30 236.5,-30 236.5,0 351.5,0 351.5,-30"/>
<text text-anchor="start" x="244.5" y="-18" font-family="Times,serif" font-size="10.00">ttg::ConstraintBase</text>
<text text-anchor="middle" x="294" y="-7" font-family="Times,serif" font-size="10.00">::notify_listener</text>
</a>
</g>
</g>
<!-- Node1&#45;&gt;Node5 -->
<g id="edge4_Node000001_Node000005" class="edge">
<title>Node1&#45;&gt;Node5</title>
<g id="a_edge4_Node000001_Node000005"><a xlink:title=" ">
<path fill="none" stroke="#63b8ff" d="M151.61,-47.94C175.36,-42.41 202.28,-36.14 226.22,-30.56"/>
<polygon fill="#63b8ff" stroke="#63b8ff" points="227.33,-33.9 236.27,-28.22 225.74,-27.08 227.33,-33.9"/>
</a>
</g>
</g>
<!-- Node3 -->
<g id="Node000003" class="node">
<title>Node3</title>
<g id="a_Node000003"><a xlink:href="structttg_1_1_sequenced_keys_constraint.html#a43ce9c6b4b1ceabd4ee595884c7af60d" target="_top" xlink:title=" ">
<polygon fill="white" stroke="#666666" points="588,-126 416,-126 416,-96 588,-96 588,-126"/>
<text text-anchor="start" x="424" y="-114" font-family="Times,serif" font-size="10.00">ttg::SequencedKeysConstraint</text>
<text text-anchor="middle" x="502" y="-103" font-family="Times,serif" font-size="10.00">::comp_equal</text>
</a>
</g>
</g>
<!-- Node2&#45;&gt;Node3 -->
<g id="edge2_Node000002_Node000003" class="edge">
<title>Node2&#45;&gt;Node3</title>
<g id="a_edge2_Node000002_Node000003"><a xlink:title=" ">
<path fill="none" stroke="#63b8ff" d="M380.28,-111C388.62,-111 397.12,-111 405.55,-111"/>
<polygon fill="#63b8ff" stroke="#63b8ff" points="405.79,-114.5 415.79,-111 405.79,-107.5 405.79,-114.5"/>
</a>
</g>
</g>
</g>
</svg>
