<?xml version="1.0" encoding="UTF-8" standalone="no"?>
<!DOCTYPE svg PUBLIC "-//W3C//DTD SVG 1.1//EN"
 "http://www.w3.org/Graphics/SVG/1.1/DTD/svg11.dtd">
<!-- Generated by graphviz version 2.43.0 (0)
 -->
<!-- Title: ttg_parsec::detail::reducer_task_t Pages: 1 -->
<svg width="294pt" height="192pt"
 viewBox="0.00 0.00 294.00 192.00" xmlns="http://www.w3.org/2000/svg" xmlns:xlink="http://www.w3.org/1999/xlink">

<svg id="main" version="1.1" xmlns="http://www.w3.org/2000/svg" xmlns:xlink="http://www.w3.org/1999/xlink" xml:space="preserve" onload="init(evt)">
<style type="text/css"><![CDATA[
.node, .edge {opacity: 0.7;}
.node.selected, .edge.selected {opacity: 1;}
.edge:hover path { stroke: red; }
.edge:hover polygon { stroke: red; fill: red; }
]]></style>
<script type="application/ecmascript" xlink:href="svg.min.js"/>
<svg id="graph" class="graph">
<g id="graph0" class="graph" transform="scale(1 1) rotate(0) translate(4 188)">
<title>ttg_parsec::detail::reducer_task_t</title>
<!-- Node1 -->
<g id="Node000001" class="node">
<title>Node1</title>
<g id="a_Node000001"><a xlink:title=" ">
<polygon fill="#999999" stroke="#666666" points="267,-30 163,-30 163,0 267,0 267,-30"/>
<text text-anchor="start" x="171" y="-18" font-family="Times,serif" font-size="10.00">ttg_parsec::detail</text>
<text text-anchor="middle" x="215" y="-7" font-family="Times,serif" font-size="10.00">::reducer_task_t</text>
</a>
</g>
</g>
<!-- Node2 -->
<g id="Node000002" class="node">
<title>Node2</title>
<g id="a_Node000002"><a xlink:href="structttg__parsec_1_1detail_1_1parsec__ttg__task__base__t.html" target="_top" xlink:title=" ">
<polygon fill="white" stroke="#666666" points="286,-107 146,-107 146,-77 286,-77 286,-107"/>
<text text-anchor="start" x="154" y="-95" font-family="Times,serif" font-size="10.00">ttg_parsec::detail</text>
<text text-anchor="middle" x="216" y="-84" font-family="Times,serif" font-size="10.00">::parsec_ttg_task_base_t</text>
</a>
</g>
</g>
<!-- Node2&#45;&gt;Node1 -->
<g id="edge1_Node000001_Node000002" class="edge">
<title>Node2&#45;&gt;Node1</title>
<g id="a_edge1_Node000001_Node000002"><a xlink:title=" ">
<path fill="none" stroke="#63b8ff" d="M213.47,-66.53C213.28,-63.99 213.11,-61.45 213,-59 212.55,-49.44 213.05,-38.69 213.66,-30.33"/>
<polygon fill="#63b8ff" stroke="#63b8ff" points="210,-67.03 214.37,-76.68 216.97,-66.41 210,-67.03"/>
</a>
</g>
</g>
<!-- Node2&#45;&gt;Node1 -->
<g id="edge6_Node000001_Node000002" class="edge">
<title>Node2&#45;&gt;Node1</title>
<g id="a_edge6_Node000001_Node000002"><a xlink:title=" ">
<path fill="none" stroke="#9a32cd" stroke-dasharray="5,2" d="M215.67,-66.54C215.51,-54.45 215.32,-40.29 215.19,-30.04"/>
<polygon fill="#9a32cd" stroke="#9a32cd" points="212.18,-66.94 215.81,-76.89 219.18,-66.85 212.18,-66.94"/>
</a>
</g>
<text text-anchor="middle" x="247" y="-51" font-family="Times,serif" font-size="10.00" fill="grey"> parent_task</text>
</g>
<!-- Node3 -->
<g id="Node000003" class="node">
<title>Node3</title>
<g id="a_Node000003"><a xlink:href="structttg__parsec_1_1detail_1_1ttg__data__copy__t.html" target="_top" xlink:title=" ">
<polygon fill="white" stroke="#666666" points="147,-184 43,-184 43,-154 147,-154 147,-184"/>
<text text-anchor="start" x="51" y="-172" font-family="Times,serif" font-size="10.00">ttg_parsec::detail</text>
<text text-anchor="middle" x="95" y="-161" font-family="Times,serif" font-size="10.00">::ttg_data_copy_t</text>
</a>
</g>
</g>
<!-- Node3&#45;&gt;Node2 -->
<g id="edge2_Node000002_Node000003" class="edge">
<title>Node3&#45;&gt;Node2</title>
<g id="a_edge2_Node000002_Node000003"><a xlink:title=" ">
<path fill="none" stroke="#9a32cd" stroke-dasharray="5,2" d="M126.33,-148.58C147.31,-135.58 174.44,-118.76 193.34,-107.04"/>
<polygon fill="#9a32cd" stroke="#9a32cd" points="124.41,-145.65 117.76,-153.89 128.1,-151.6 124.41,-145.65"/>
</a>
</g>
<text text-anchor="middle" x="181" y="-128" font-family="Times,serif" font-size="10.00" fill="grey"> copies</text>
</g>
<!-- Node4 -->
<g id="Node000004" class="node">
<title>Node4</title>
<g id="a_Node000004"><a xlink:href="structttg__parsec_1_1detail_1_1ttg__data__copy__self__t.html" target="_top" xlink:title=" ">
<polygon fill="white" stroke="#666666" points="126,-107 0,-107 0,-77 126,-77 126,-107"/>
<text text-anchor="start" x="8" y="-95" font-family="Times,serif" font-size="10.00">ttg_parsec::detail</text>
<text text-anchor="middle" x="63" y="-84" font-family="Times,serif" font-size="10.00">::ttg_data_copy_self_t</text>
</a>
</g>
</g>
<!-- Node3&#45;&gt;Node4 -->
<g id="edge4_Node000004_Node000003" class="edge">
<title>Node3&#45;&gt;Node4</title>
<g id="a_edge4_Node000004_Node000003"><a xlink:title=" ">
<path fill="none" stroke="#9a32cd" stroke-dasharray="5,2" d="M63.43,-146.78C60.45,-143.52 57.85,-139.92 56,-136 51.73,-126.97 53.73,-115.82 56.66,-107.14"/>
<polygon fill="#9a32cd" stroke="#9a32cd" points="61.21,-149.49 70.91,-153.75 65.98,-144.37 61.21,-149.49"/>
</a>
</g>
<text text-anchor="middle" x="67" y="-128" font-family="Times,serif" font-size="10.00" fill="grey"> self</text>
</g>
<!-- Node4&#45;&gt;Node3 -->
<g id="edge3_Node000003_Node000004" class="edge">
<title>Node4&#45;&gt;Node3</title>
<g id="a_edge3_Node000003_Node000004"><a xlink:title=" ">
<path fill="none" stroke="#63b8ff" d="M77.64,-116.18C79.22,-119.09 80.71,-122.08 82,-125 86.09,-134.28 89.37,-145.22 91.62,-153.75"/>
<polygon fill="#63b8ff" stroke="#63b8ff" points="80.51,-114.16 72.47,-107.26 74.46,-117.67 80.51,-114.16"/>
</a>
</g>
</g>
<!-- Node5 -->
<g id="Node000005" class="node">
<title>Node5</title>
<g id="a_Node000005"><a xlink:href="structttg__parsec_1_1detail_1_1device__ptr__t.html" target="_top" xlink:title=" ">
<polygon fill="white" stroke="#666666" points="269,-184 165,-184 165,-154 269,-154 269,-184"/>
<text text-anchor="start" x="173" y="-172" font-family="Times,serif" font-size="10.00">ttg_parsec::detail</text>
<text text-anchor="middle" x="217" y="-161" font-family="Times,serif" font-size="10.00">::device_ptr_t</text>
</a>
</g>
</g>
<!-- Node5&#45;&gt;Node2 -->
<g id="edge5_Node000002_Node000005" class="edge">
<title>Node5&#45;&gt;Node2</title>
<g id="a_edge5_Node000002_Node000005"><a xlink:title=" ">
<path fill="none" stroke="#9a32cd" stroke-dasharray="5,2" d="M216.67,-143.54C216.51,-131.45 216.32,-117.29 216.19,-107.04"/>
<polygon fill="#9a32cd" stroke="#9a32cd" points="213.18,-143.94 216.81,-153.89 220.18,-143.85 213.18,-143.94"/>
</a>
</g>
<text text-anchor="middle" x="237.5" y="-128" font-family="Times,serif" font-size="10.00" fill="grey"> dev_ptr</text>
</g>
</g>
</svg>
</svg>

<style type='text/css'>
<![CDATA[
[data-mouse-over-selected='false'] { opacity: 0.7; }
[data-mouse-over-selected='true']  { opacity: 1.0; }
]]>
</style>
<script type="application/ecmascript"><![CDATA[
document.addEventListener('DOMContentLoaded', (event) => {
  highlightEdges();
  highlightAdjacentNodes();
});
]]></script>
</svg>
