<?xml version="1.0" encoding="UTF-8" standalone="no"?>
<!DOCTYPE svg PUBLIC "-//W3C//DTD SVG 1.1//EN"
 "http://www.w3.org/Graphics/SVG/1.1/DTD/svg11.dtd">
<!-- Generated by graphviz version 2.43.0 (0)
 -->
<!-- Title: ttg::SequencedKeysConstraint::complete Pages: 1 -->
<svg width="747pt" height="86pt"
 viewBox="0.00 0.00 747.00 86.00" xmlns="http://www.w3.org/2000/svg" xmlns:xlink="http://www.w3.org/1999/xlink">
<g id="graph0" class="graph" transform="scale(1 1) rotate(0) translate(4 82)">
<title>ttg::SequencedKeysConstraint::complete</title>
<!-- Node1 -->
<g id="Node000001" class="node">
<title>Node1</title>
<g id="a_Node000001"><a xlink:title=" ">
<polygon fill="#999999" stroke="#666666" points="172,-54 0,-54 0,-24 172,-24 172,-54"/>
<text text-anchor="start" x="8" y="-42" font-family="Times,serif" font-size="10.00">ttg::SequencedKeysConstraint</text>
<text text-anchor="middle" x="86" y="-31" font-family="Times,serif" font-size="10.00">::complete</text>
</a>
</g>
</g>
<!-- Node2 -->
<g id="Node000002" class="node">
<title>Node2</title>
<g id="a_Node000002"><a xlink:href="structttg_1_1_sequenced_keys_constraint.html#a3e090ebe0b9f76133cdb9e23dec1b69d" target="_top" xlink:title=" ">
<polygon fill="white" stroke="#666666" points="380,-54 208,-54 208,-24 380,-24 380,-54"/>
<text text-anchor="start" x="216" y="-42" font-family="Times,serif" font-size="10.00">ttg::SequencedKeysConstraint</text>
<text text-anchor="middle" x="294" y="-31" font-family="Times,serif" font-size="10.00">::complete_key_impl</text>
</a>
</g>
</g>
<!-- Node1&#45;&gt;Node2 -->
<g id="edge1_Node000001_Node000002" class="edge">
<title>Node1&#45;&gt;Node2</title>
<g id="a_edge1_Node000001_Node000002"><a xlink:title=" ">
<path fill="none" stroke="#63b8ff" d="M172.28,-39C180.62,-39 189.12,-39 197.55,-39"/>
<polygon fill="#63b8ff" stroke="#63b8ff" points="197.79,-42.5 207.79,-39 197.79,-35.5 197.79,-42.5"/>
</a>
</g>
</g>
<!-- Node3 -->
<g id="Node000003" class="node">
<title>Node3</title>
<g id="a_Node000003"><a xlink:href="structttg_1_1_sequenced_keys_constraint.html#aa762a5aa4f0110849a0990fdd18da394" target="_top" xlink:title=" ">
<polygon fill="white" stroke="#666666" points="588,-54 416,-54 416,-24 588,-24 588,-54"/>
<text text-anchor="start" x="424" y="-42" font-family="Times,serif" font-size="10.00">ttg::SequencedKeysConstraint</text>
<text text-anchor="middle" x="502" y="-31" font-family="Times,serif" font-size="10.00">::release_next</text>
</a>
</g>
</g>
<!-- Node2&#45;&gt;Node3 -->
<g id="edge2_Node000002_Node000003" class="edge">
<title>Node2&#45;&gt;Node3</title>
<g id="a_edge2_Node000002_Node000003"><a xlink:title=" ">
<path fill="none" stroke="#63b8ff" d="M380.28,-39C388.62,-39 397.12,-39 405.55,-39"/>
<polygon fill="#63b8ff" stroke="#63b8ff" points="405.79,-42.5 415.79,-39 405.79,-35.5 405.79,-42.5"/>
</a>
</g>
</g>
<!-- Node4 -->
<g id="Node000004" class="node">
<title>Node4</title>
<g id="a_Node000004"><a xlink:href="structttg_1_1_constraint_base.html#a81c2b6e0a5febbf5ad3386e695f43890" target="_top" xlink:title=" ">
<polygon fill="white" stroke="#666666" points="739,-78 624,-78 624,-48 739,-48 739,-78"/>
<text text-anchor="start" x="632" y="-66" font-family="Times,serif" font-size="10.00">ttg::ConstraintBase</text>
<text text-anchor="middle" x="681.5" y="-55" font-family="Times,serif" font-size="10.00">::lock_guard</text>
</a>
</g>
</g>
<!-- Node3&#45;&gt;Node4 -->
<g id="edge3_Node000003_Node000004" class="edge">
<title>Node3&#45;&gt;Node4</title>
<g id="a_edge3_Node000003_Node000004"><a xlink:title=" ">
<path fill="none" stroke="#63b8ff" d="M588.11,-50.51C596.71,-51.67 605.36,-52.84 613.73,-53.97"/>
<polygon fill="#63b8ff" stroke="#63b8ff" points="613.4,-57.46 623.78,-55.33 614.34,-50.52 613.4,-57.46"/>
</a>
</g>
</g>
<!-- Node5 -->
<g id="Node000005" class="node">
<title>Node5</title>
<g id="a_Node000005"><a xlink:href="structttg_1_1_constraint_base.html#a116c094e06afb3f7aed3f4e27da47a65" target="_top" xlink:title=" ">
<polygon fill="white" stroke="#666666" points="739,-30 624,-30 624,0 739,0 739,-30"/>
<text text-anchor="start" x="632" y="-18" font-family="Times,serif" font-size="10.00">ttg::ConstraintBase</text>
<text text-anchor="middle" x="681.5" y="-7" font-family="Times,serif" font-size="10.00">::notify_listener</text>
</a>
</g>
</g>
<!-- Node3&#45;&gt;Node5 -->
<g id="edge4_Node000003_Node000005" class="edge">
<title>Node3&#45;&gt;Node5</title>
<g id="a_edge4_Node000003_Node000005"><a xlink:title=" ">
<path fill="none" stroke="#63b8ff" d="M588.11,-27.49C596.71,-26.33 605.36,-25.16 613.73,-24.03"/>
<polygon fill="#63b8ff" stroke="#63b8ff" points="614.34,-27.48 623.78,-22.67 613.4,-20.54 614.34,-27.48"/>
</a>
</g>
</g>
</g>
</svg>
