<?xml version="1.0" encoding="UTF-8" standalone="no"?>
<!DOCTYPE svg PUBLIC "-//W3C//DTD SVG 1.1//EN"
 "http://www.w3.org/Graphics/SVG/1.1/DTD/svg11.dtd">
<!-- Generated by graphviz version 2.43.0 (0)
 -->
<!-- Title: boost::callable_traits::detail::default_callable_traits&lt; T &gt; Pages: 1 -->
<svg width="316pt" height="98pt"
 viewBox="0.00 0.00 316.00 97.50" xmlns="http://www.w3.org/2000/svg" xmlns:xlink="http://www.w3.org/1999/xlink">
<g id="graph0" class="graph" transform="scale(1 1) rotate(0) translate(4 93.5)">
<title>boost::callable_traits::detail::default_callable_traits&lt; T &gt;</title>
<!-- Node1 -->
<g id="Node000001" class="node">
<title>Node1</title>
<g id="a_Node000001"><a xlink:title=" ">
<polygon fill="#999999" stroke="#666666" points="137,-62.5 0,-62.5 0,-21.5 137,-21.5 137,-62.5"/>
<text text-anchor="start" x="8" y="-50.5" font-family="Times,serif" font-size="10.00">boost::callable_traits</text>
<text text-anchor="start" x="8" y="-39.5" font-family="Times,serif" font-size="10.00">::detail::default_callable</text>
<text text-anchor="middle" x="68.5" y="-28.5" font-family="Times,serif" font-size="10.00">_traits&lt; T &gt;</text>
</a>
</g>
</g>
<!-- Node2 -->
<g id="Node000002" class="node">
<title>Node2</title>
<g id="a_Node000002"><a xlink:href="structboost_1_1callable__traits_1_1detail_1_1function__object_3_01_t_01_u_1_1_5_00_01_base_01_4.html" target="_top" xlink:title=" ">
<polygon fill="white" stroke="#666666" points="308,-89.5 173,-89.5 173,-48.5 308,-48.5 308,-89.5"/>
<text text-anchor="start" x="181" y="-77.5" font-family="Times,serif" font-size="10.00">boost::callable_traits</text>
<text text-anchor="start" x="181" y="-66.5" font-family="Times,serif" font-size="10.00">::detail::function_object</text>
<text text-anchor="middle" x="240.5" y="-55.5" font-family="Times,serif" font-size="10.00">&lt; T U::*, Base &gt;</text>
</a>
</g>
</g>
<!-- Node1&#45;&gt;Node2 -->
<g id="edge1_Node000001_Node000002" class="edge">
<title>Node1&#45;&gt;Node2</title>
<g id="a_edge1_Node000001_Node000002"><a xlink:title=" ">
<path fill="none" stroke="#63b8ff" d="M147.19,-54.34C155.77,-55.7 164.46,-57.08 172.89,-58.42"/>
<polygon fill="#63b8ff" stroke="#63b8ff" points="147.6,-50.86 137.18,-52.75 146.5,-57.77 147.6,-50.86"/>
</a>
</g>
</g>
<!-- Node3 -->
<g id="Node000003" class="node">
<title>Node3</title>
<g id="a_Node000003"><a xlink:href="structboost_1_1callable__traits_1_1detail_1_1pmd_3_01_d_01_t_1_1_5_01_4.html" target="_top" xlink:title=" ">
<polygon fill="white" stroke="#666666" points="306,-30 175,-30 175,0 306,0 306,-30"/>
<text text-anchor="start" x="183" y="-18" font-family="Times,serif" font-size="10.00">boost::callable_traits</text>
<text text-anchor="middle" x="240.5" y="-7" font-family="Times,serif" font-size="10.00">::detail::pmd&lt; D T::* &gt;</text>
</a>
</g>
</g>
<!-- Node1&#45;&gt;Node3 -->
<g id="edge2_Node000001_Node000003" class="edge">
<title>Node1&#45;&gt;Node3</title>
<g id="a_edge2_Node000001_Node000003"><a xlink:title=" ">
<path fill="none" stroke="#63b8ff" d="M147.15,-29.67C156.41,-28.2 165.78,-26.71 174.82,-25.27"/>
<polygon fill="#63b8ff" stroke="#63b8ff" points="146.5,-26.23 137.18,-31.25 147.6,-33.14 146.5,-26.23"/>
</a>
</g>
</g>
</g>
</svg>
