<?xml version="1.0" encoding="UTF-8" standalone="no"?>
<!DOCTYPE svg PUBLIC "-//W3C//DTD SVG 1.1//EN"
 "http://www.w3.org/Graphics/SVG/1.1/DTD/svg11.dtd">
<!-- Generated by graphviz version 2.43.0 (0)
 -->
<!-- Title: ttg_madness::Buffer::is_valid Pages: 1 -->
<svg width="464pt" height="470pt"
 viewBox="0.00 0.00 464.00 470.00" xmlns="http://www.w3.org/2000/svg" xmlns:xlink="http://www.w3.org/1999/xlink">
<g id="graph0" class="graph" transform="scale(1 1) rotate(0) translate(4 466)">
<title>ttg_madness::Buffer::is_valid</title>
<!-- Node1 -->
<g id="Node000001" class="node">
<title>Node1</title>
<g id="a_Node000001"><a xlink:title=" ">
<polygon fill="#999999" stroke="#666666" points="456,-246 337,-246 337,-216 456,-216 456,-246"/>
<text text-anchor="start" x="345" y="-234" font-family="Times,serif" font-size="10.00">ttg_madness::Buffer</text>
<text text-anchor="middle" x="396.5" y="-223" font-family="Times,serif" font-size="10.00">::is_valid</text>
</a>
</g>
</g>
<!-- Node2 -->
<g id="Node000002" class="node">
<title>Node2</title>
<g id="a_Node000002"><a xlink:href="structttg__madness_1_1_buffer.html#aad1840c4114274c7ca4021a72a9053ab" target="_top" xlink:title=" ">
<polygon fill="white" stroke="#666666" points="301,-462 182,-462 182,-432 301,-432 301,-462"/>
<text text-anchor="start" x="190" y="-450" font-family="Times,serif" font-size="10.00">ttg_madness::Buffer</text>
<text text-anchor="middle" x="241.5" y="-439" font-family="Times,serif" font-size="10.00">::current_device_ptr</text>
</a>
</g>
</g>
<!-- Node1&#45;&gt;Node2 -->
<g id="edge1_Node000001_Node000002" class="edge">
<title>Node1&#45;&gt;Node2</title>
<g id="a_edge1_Node000001_Node000002"><a xlink:title=" ">
<path fill="none" stroke="#63b8ff" d="M389.39,-256.01C378.34,-296.34 351.34,-375.97 301,-423 297.39,-426.37 293.24,-429.3 288.86,-431.84"/>
<polygon fill="#63b8ff" stroke="#63b8ff" points="392.82,-256.75 391.98,-246.19 386.05,-254.96 392.82,-256.75"/>
</a>
</g>
</g>
<!-- Node4 -->
<g id="Node000004" class="node">
<title>Node4</title>
<g id="a_Node000004"><a xlink:href="structttg__madness_1_1_buffer.html#af01ec1356e7bc85688d37603c1391c92" target="_top" xlink:title=" ">
<polygon fill="white" stroke="#666666" points="301,-414 182,-414 182,-384 301,-384 301,-414"/>
<text text-anchor="start" x="190" y="-402" font-family="Times,serif" font-size="10.00">ttg_madness::Buffer</text>
<text text-anchor="middle" x="241.5" y="-391" font-family="Times,serif" font-size="10.00">::current_device_ptr</text>
</a>
</g>
</g>
<!-- Node1&#45;&gt;Node4 -->
<g id="edge3_Node000001_Node000004" class="edge">
<title>Node1&#45;&gt;Node4</title>
<g id="a_edge3_Node000001_Node000004"><a xlink:title=" ">
<path fill="none" stroke="#63b8ff" d="M385.02,-255.59C370.42,-287.17 341.17,-341.86 301,-375 296.93,-378.35 292.34,-381.29 287.55,-383.85"/>
<polygon fill="#63b8ff" stroke="#63b8ff" points="388.33,-256.75 389.24,-246.2 381.94,-253.88 388.33,-256.75"/>
</a>
</g>
</g>
<!-- Node5 -->
<g id="Node000005" class="node">
<title>Node5</title>
<g id="a_Node000005"><a xlink:href="structttg__madness_1_1_buffer.html#a9c3e638035902bf7709eb0515132f1cb" target="_top" xlink:title=" ">
<polygon fill="white" stroke="#666666" points="301,-366 182,-366 182,-336 301,-336 301,-366"/>
<text text-anchor="start" x="190" y="-354" font-family="Times,serif" font-size="10.00">ttg_madness::Buffer</text>
<text text-anchor="middle" x="241.5" y="-343" font-family="Times,serif" font-size="10.00">::device_ptr_on</text>
</a>
</g>
</g>
<!-- Node1&#45;&gt;Node5 -->
<g id="edge4_Node000001_Node000005" class="edge">
<title>Node1&#45;&gt;Node5</title>
<g id="a_edge4_Node000001_Node000005"><a xlink:title=" ">
<path fill="none" stroke="#63b8ff" d="M377.46,-254.09C359.85,-275.36 331.34,-306.63 301,-327 296.08,-330.3 290.63,-333.28 285.1,-335.93"/>
<polygon fill="#63b8ff" stroke="#63b8ff" points="380.28,-256.16 383.87,-246.19 374.85,-251.74 380.28,-256.16"/>
</a>
</g>
</g>
<!-- Node6 -->
<g id="Node000006" class="node">
<title>Node6</title>
<g id="a_Node000006"><a xlink:href="structttg__madness_1_1_buffer.html#a96481342b1b51b6bb9a0227d0010685c" target="_top" xlink:title=" ">
<polygon fill="white" stroke="#666666" points="301,-318 182,-318 182,-288 301,-288 301,-318"/>
<text text-anchor="start" x="190" y="-306" font-family="Times,serif" font-size="10.00">ttg_madness::Buffer</text>
<text text-anchor="middle" x="241.5" y="-295" font-family="Times,serif" font-size="10.00">::device_ptr_on</text>
</a>
</g>
</g>
<!-- Node1&#45;&gt;Node6 -->
<g id="edge5_Node000001_Node000006" class="edge">
<title>Node1&#45;&gt;Node6</title>
<g id="a_edge5_Node000001_Node000006"><a xlink:title=" ">
<path fill="none" stroke="#63b8ff" d="M358.09,-250.88C340.86,-259.8 320.06,-270.27 301,-279 294.41,-282.02 287.33,-285.08 280.46,-287.95"/>
<polygon fill="#63b8ff" stroke="#63b8ff" points="360.01,-253.82 367.26,-246.1 356.77,-247.62 360.01,-253.82"/>
</a>
</g>
</g>
<!-- Node7 -->
<g id="Node000007" class="node">
<title>Node7</title>
<g id="a_Node000007"><a xlink:href="structttg__madness_1_1_buffer.html#a06f56c6e61ff9b5b75b2144797e3ce31" target="_top" xlink:title=" ">
<polygon fill="white" stroke="#666666" points="301,-270 182,-270 182,-240 301,-240 301,-270"/>
<text text-anchor="start" x="190" y="-258" font-family="Times,serif" font-size="10.00">ttg_madness::Buffer</text>
<text text-anchor="middle" x="241.5" y="-247" font-family="Times,serif" font-size="10.00">::get_owner_device</text>
</a>
</g>
</g>
<!-- Node1&#45;&gt;Node7 -->
<g id="edge6_Node000001_Node000007" class="edge">
<title>Node1&#45;&gt;Node7</title>
<g id="a_edge6_Node000001_Node000007"><a xlink:title=" ">
<path fill="none" stroke="#63b8ff" d="M326.79,-241.78C318.2,-243.13 309.47,-244.49 301.06,-245.81"/>
<polygon fill="#63b8ff" stroke="#63b8ff" points="327.45,-245.22 336.78,-240.21 326.36,-238.3 327.45,-245.22"/>
</a>
</g>
</g>
<!-- Node8 -->
<g id="Node000008" class="node">
<title>Node8</title>
<g id="a_Node000008"><a xlink:href="structttg__madness_1_1_buffer.html#a34842df6c5bbee0201368f0820f91026" target="_top" xlink:title=" ">
<polygon fill="white" stroke="#666666" points="301,-222 182,-222 182,-192 301,-192 301,-222"/>
<text text-anchor="start" x="190" y="-210" font-family="Times,serif" font-size="10.00">ttg_madness::Buffer</text>
<text text-anchor="middle" x="241.5" y="-199" font-family="Times,serif" font-size="10.00">::is_current_on</text>
</a>
</g>
</g>
<!-- Node1&#45;&gt;Node8 -->
<g id="edge7_Node000001_Node000008" class="edge">
<title>Node1&#45;&gt;Node8</title>
<g id="a_edge7_Node000001_Node000008"><a xlink:title=" ">
<path fill="none" stroke="#63b8ff" d="M326.79,-220.22C318.2,-218.87 309.47,-217.51 301.06,-216.19"/>
<polygon fill="#63b8ff" stroke="#63b8ff" points="326.36,-223.7 336.78,-221.79 327.45,-216.78 326.36,-223.7"/>
</a>
</g>
</g>
<!-- Node9 -->
<g id="Node000009" class="node">
<title>Node9</title>
<g id="a_Node000009"><a xlink:href="structttg__madness_1_1_buffer.html#ab856ca462a43f94b61ca8bc4d345383b" target="_top" xlink:title=" ">
<polygon fill="white" stroke="#666666" points="301,-174 182,-174 182,-144 301,-144 301,-174"/>
<text text-anchor="start" x="190" y="-162" font-family="Times,serif" font-size="10.00">ttg_madness::Buffer</text>
<text text-anchor="middle" x="241.5" y="-151" font-family="Times,serif" font-size="10.00">::is_valid_on</text>
</a>
</g>
</g>
<!-- Node1&#45;&gt;Node9 -->
<g id="edge8_Node000001_Node000009" class="edge">
<title>Node1&#45;&gt;Node9</title>
<g id="a_edge8_Node000001_Node000009"><a xlink:title=" ">
<path fill="none" stroke="#63b8ff" d="M358.09,-211.12C340.86,-202.2 320.06,-191.73 301,-183 294.41,-179.98 287.33,-176.92 280.46,-174.05"/>
<polygon fill="#63b8ff" stroke="#63b8ff" points="356.77,-214.38 367.26,-215.9 360.01,-208.18 356.77,-214.38"/>
</a>
</g>
</g>
<!-- Node10 -->
<g id="Node000010" class="node">
<title>Node10</title>
<g id="a_Node000010"><a xlink:href="structttg__madness_1_1_buffer.html#ad0136efc64919628a2aa10558be26f12" target="_top" xlink:title=" ">
<polygon fill="white" stroke="#666666" points="301,-126 182,-126 182,-96 301,-96 301,-126"/>
<text text-anchor="start" x="190" y="-114" font-family="Times,serif" font-size="10.00">ttg_madness::Buffer</text>
<text text-anchor="middle" x="241.5" y="-103" font-family="Times,serif" font-size="10.00">::owner_device_ptr</text>
</a>
</g>
</g>
<!-- Node1&#45;&gt;Node10 -->
<g id="edge9_Node000001_Node000010" class="edge">
<title>Node1&#45;&gt;Node10</title>
<g id="a_edge9_Node000001_Node000010"><a xlink:title=" ">
<path fill="none" stroke="#63b8ff" d="M377.46,-207.91C359.85,-186.64 331.34,-155.37 301,-135 296.08,-131.7 290.63,-128.72 285.1,-126.07"/>
<polygon fill="#63b8ff" stroke="#63b8ff" points="374.85,-210.26 383.87,-215.81 380.28,-205.84 374.85,-210.26"/>
</a>
</g>
</g>
<!-- Node11 -->
<g id="Node000011" class="node">
<title>Node11</title>
<g id="a_Node000011"><a xlink:href="structttg__madness_1_1_buffer.html#a2192f250d6aa8f8dc749ea985910df28" target="_top" xlink:title=" ">
<polygon fill="white" stroke="#666666" points="301,-78 182,-78 182,-48 301,-48 301,-78"/>
<text text-anchor="start" x="190" y="-66" font-family="Times,serif" font-size="10.00">ttg_madness::Buffer</text>
<text text-anchor="middle" x="241.5" y="-55" font-family="Times,serif" font-size="10.00">::owner_device_ptr</text>
</a>
</g>
</g>
<!-- Node1&#45;&gt;Node11 -->
<g id="edge10_Node000001_Node000011" class="edge">
<title>Node1&#45;&gt;Node11</title>
<g id="a_edge10_Node000001_Node000011"><a xlink:title=" ">
<path fill="none" stroke="#63b8ff" d="M385.02,-206.41C370.42,-174.83 341.17,-120.14 301,-87 296.93,-83.65 292.34,-80.71 287.55,-78.15"/>
<polygon fill="#63b8ff" stroke="#63b8ff" points="381.94,-208.12 389.24,-215.8 388.33,-205.25 381.94,-208.12"/>
</a>
</g>
</g>
<!-- Node12 -->
<g id="Node000012" class="node">
<title>Node12</title>
<g id="a_Node000012"><a xlink:href="structttg__madness_1_1_buffer.html#af4997ff30c86321022cd5b89b4a7cd53" target="_top" xlink:title=" ">
<polygon fill="white" stroke="#666666" points="301,-30 182,-30 182,0 301,0 301,-30"/>
<text text-anchor="start" x="190" y="-18" font-family="Times,serif" font-size="10.00">ttg_madness::Buffer</text>
<text text-anchor="middle" x="241.5" y="-7" font-family="Times,serif" font-size="10.00">::set_current_device</text>
</a>
</g>
</g>
<!-- Node1&#45;&gt;Node12 -->
<g id="edge11_Node000001_Node000012" class="edge">
<title>Node1&#45;&gt;Node12</title>
<g id="a_edge11_Node000001_Node000012"><a xlink:title=" ">
<path fill="none" stroke="#63b8ff" d="M389.39,-205.99C378.34,-165.66 351.34,-86.03 301,-39 297.39,-35.63 293.24,-32.7 288.86,-30.16"/>
<polygon fill="#63b8ff" stroke="#63b8ff" points="386.05,-207.04 391.98,-215.81 392.82,-205.25 386.05,-207.04"/>
</a>
</g>
</g>
<!-- Node3 -->
<g id="Node000003" class="node">
<title>Node3</title>
<g id="a_Node000003"><a xlink:href="namespacettg__madness.html#aa582d34e13cfec739360b3c09635e65d" target="_top" xlink:title=" ">
<polygon fill="white" stroke="#666666" points="146,-456.5 0,-456.5 0,-437.5 146,-437.5 146,-456.5"/>
<text text-anchor="middle" x="73" y="-444.5" font-family="Times,serif" font-size="10.00">ttg_madness::buffer_data</text>
</a>
</g>
</g>
<!-- Node2&#45;&gt;Node3 -->
<g id="edge2_Node000002_Node000003" class="edge">
<title>Node2&#45;&gt;Node3</title>
<g id="a_edge2_Node000002_Node000003"><a xlink:title=" ">
<path fill="none" stroke="#63b8ff" d="M171.66,-447C163.25,-447 154.64,-447 146.18,-447"/>
<polygon fill="#63b8ff" stroke="#63b8ff" points="171.8,-450.5 181.8,-447 171.8,-443.5 171.8,-450.5"/>
</a>
</g>
</g>
</g>
</svg>
