<?xml version="1.0" encoding="UTF-8" standalone="no"?>
<!DOCTYPE svg PUBLIC "-//W3C//DTD SVG 1.1//EN"
 "http://www.w3.org/Graphics/SVG/1.1/DTD/svg11.dtd">
<!-- Generated by graphviz version 2.43.0 (0)
 -->
<!-- Title: ttg_parsec::Buffer::empty Pages: 1 -->
<svg width="270pt" height="422pt"
 viewBox="0.00 0.00 270.00 422.00" xmlns="http://www.w3.org/2000/svg" xmlns:xlink="http://www.w3.org/1999/xlink">
<g id="graph0" class="graph" transform="scale(1 1) rotate(0) translate(4 418)">
<title>ttg_parsec::Buffer::empty</title>
<!-- Node1 -->
<g id="Node000001" class="node">
<title>Node1</title>
<g id="a_Node000001"><a xlink:title=" ">
<polygon fill="#999999" stroke="#666666" points="262,-222 155,-222 155,-192 262,-192 262,-222"/>
<text text-anchor="start" x="163" y="-210" font-family="Times,serif" font-size="10.00">ttg_parsec::Buffer</text>
<text text-anchor="middle" x="208.5" y="-199" font-family="Times,serif" font-size="10.00">::empty</text>
</a>
</g>
</g>
<!-- Node2 -->
<g id="Node000002" class="node">
<title>Node2</title>
<g id="a_Node000002"><a xlink:href="structttg__parsec_1_1_buffer.html#ad7c9683797b26ee8911ae7cfe4712d50" target="_top" xlink:title=" ">
<polygon fill="white" stroke="#666666" points="119,-414 0,-414 0,-384 119,-384 119,-414"/>
<text text-anchor="start" x="8" y="-402" font-family="Times,serif" font-size="10.00">ttg_parsec::Buffer</text>
<text text-anchor="middle" x="59.5" y="-391" font-family="Times,serif" font-size="10.00">::current_device_ptr</text>
</a>
</g>
</g>
<!-- Node1&#45;&gt;Node2 -->
<g id="edge1_Node000001_Node000002" class="edge">
<title>Node1&#45;&gt;Node2</title>
<g id="a_edge1_Node000001_Node000002"><a xlink:title=" ">
<path fill="none" stroke="#63b8ff" d="M200.38,-231.95C188.89,-268.09 162.97,-335.05 119,-375 115.26,-378.4 110.98,-381.35 106.47,-383.9"/>
<polygon fill="#63b8ff" stroke="#63b8ff" points="203.79,-232.79 203.37,-222.2 197.09,-230.74 203.79,-232.79"/>
</a>
</g>
</g>
<!-- Node3 -->
<g id="Node000003" class="node">
<title>Node3</title>
<g id="a_Node000003"><a xlink:href="structttg__parsec_1_1_buffer.html#a87cfa2924a1165608d8180337682cdce" target="_top" xlink:title=" ">
<polygon fill="white" stroke="#666666" points="119,-366 0,-366 0,-336 119,-336 119,-366"/>
<text text-anchor="start" x="8" y="-354" font-family="Times,serif" font-size="10.00">ttg_parsec::Buffer</text>
<text text-anchor="middle" x="59.5" y="-343" font-family="Times,serif" font-size="10.00">::current_device_ptr</text>
</a>
</g>
</g>
<!-- Node1&#45;&gt;Node3 -->
<g id="edge2_Node000001_Node000003" class="edge">
<title>Node1&#45;&gt;Node3</title>
<g id="a_edge2_Node000001_Node000003"><a xlink:title=" ">
<path fill="none" stroke="#63b8ff" d="M194.85,-231.43C179.92,-258.14 152.82,-300.63 119,-327 114.67,-330.38 109.8,-333.35 104.77,-335.95"/>
<polygon fill="#63b8ff" stroke="#63b8ff" points="198.08,-232.82 199.78,-222.37 191.93,-229.48 198.08,-232.82"/>
</a>
</g>
</g>
<!-- Node4 -->
<g id="Node000004" class="node">
<title>Node4</title>
<g id="a_Node000004"><a xlink:href="structttg__parsec_1_1_buffer.html#a75237a0fe188810d1741db8091603c01" target="_top" xlink:title=" ">
<polygon fill="white" stroke="#666666" points="113,-318 6,-318 6,-288 113,-288 113,-318"/>
<text text-anchor="start" x="14" y="-306" font-family="Times,serif" font-size="10.00">ttg_parsec::Buffer</text>
<text text-anchor="middle" x="59.5" y="-295" font-family="Times,serif" font-size="10.00">::device_ptr_on</text>
</a>
</g>
</g>
<!-- Node1&#45;&gt;Node4 -->
<g id="edge3_Node000001_Node000004" class="edge">
<title>Node1&#45;&gt;Node4</title>
<g id="a_edge3_Node000001_Node000004"><a xlink:title=" ">
<path fill="none" stroke="#63b8ff" d="M184.17,-229.2C167.1,-244.61 142.85,-264.83 119,-279 113.53,-282.25 107.53,-285.26 101.53,-287.97"/>
<polygon fill="#63b8ff" stroke="#63b8ff" points="186.93,-231.41 191.94,-222.07 182.2,-226.25 186.93,-231.41"/>
</a>
</g>
</g>
<!-- Node5 -->
<g id="Node000005" class="node">
<title>Node5</title>
<g id="a_Node000005"><a xlink:href="structttg__parsec_1_1_buffer.html#a14b779203a13f74eb18077dd76aa2462" target="_top" xlink:title=" ">
<polygon fill="white" stroke="#666666" points="113,-270 6,-270 6,-240 113,-240 113,-270"/>
<text text-anchor="start" x="14" y="-258" font-family="Times,serif" font-size="10.00">ttg_parsec::Buffer</text>
<text text-anchor="middle" x="59.5" y="-247" font-family="Times,serif" font-size="10.00">::device_ptr_on</text>
</a>
</g>
</g>
<!-- Node1&#45;&gt;Node5 -->
<g id="edge4_Node000001_Node000005" class="edge">
<title>Node1&#45;&gt;Node5</title>
<g id="a_edge4_Node000001_Node000005"><a xlink:title=" ">
<path fill="none" stroke="#63b8ff" d="M151.74,-225.21C136.79,-230.09 120.8,-235.31 106.44,-240"/>
<polygon fill="#63b8ff" stroke="#63b8ff" points="152.97,-228.49 161.39,-222.06 150.8,-221.83 152.97,-228.49"/>
</a>
</g>
</g>
<!-- Node6 -->
<g id="Node000006" class="node">
<title>Node6</title>
<g id="a_Node000006"><a xlink:href="structttg__parsec_1_1_buffer.html#a6d94b7f71accdae0bfd9c708006d359e" target="_top" xlink:title=" ">
<polygon fill="white" stroke="#666666" points="116.5,-222 2.5,-222 2.5,-192 116.5,-192 116.5,-222"/>
<text text-anchor="start" x="10.5" y="-210" font-family="Times,serif" font-size="10.00">ttg_parsec::Buffer</text>
<text text-anchor="middle" x="59.5" y="-199" font-family="Times,serif" font-size="10.00">::get_owner_device</text>
</a>
</g>
</g>
<!-- Node1&#45;&gt;Node6 -->
<g id="edge5_Node000001_Node000006" class="edge">
<title>Node1&#45;&gt;Node6</title>
<g id="a_edge5_Node000001_Node000006"><a xlink:title=" ">
<path fill="none" stroke="#63b8ff" d="M144.78,-207C135.39,-207 125.75,-207 116.51,-207"/>
<polygon fill="#63b8ff" stroke="#63b8ff" points="144.84,-210.5 154.84,-207 144.84,-203.5 144.84,-210.5"/>
</a>
</g>
</g>
<!-- Node7 -->
<g id="Node000007" class="node">
<title>Node7</title>
<g id="a_Node000007"><a xlink:href="structttg__parsec_1_1_buffer.html#ab9c2dbfb2165d1beebdf4c2d3a18d937" target="_top" xlink:title=" ">
<polygon fill="white" stroke="#666666" points="113,-174 6,-174 6,-144 113,-144 113,-174"/>
<text text-anchor="start" x="14" y="-162" font-family="Times,serif" font-size="10.00">ttg_parsec::Buffer</text>
<text text-anchor="middle" x="59.5" y="-151" font-family="Times,serif" font-size="10.00">::is_current_on</text>
</a>
</g>
</g>
<!-- Node1&#45;&gt;Node7 -->
<g id="edge6_Node000001_Node000007" class="edge">
<title>Node1&#45;&gt;Node7</title>
<g id="a_edge6_Node000001_Node000007"><a xlink:title=" ">
<path fill="none" stroke="#63b8ff" d="M151.74,-188.79C136.79,-183.91 120.8,-178.69 106.44,-174"/>
<polygon fill="#63b8ff" stroke="#63b8ff" points="150.8,-192.17 161.39,-191.94 152.97,-185.51 150.8,-192.17"/>
</a>
</g>
</g>
<!-- Node8 -->
<g id="Node000008" class="node">
<title>Node8</title>
<g id="a_Node000008"><a xlink:href="structttg__parsec_1_1_buffer.html#ac9affc106bb26f35d73c59575b69fb17" target="_top" xlink:title=" ">
<polygon fill="white" stroke="#666666" points="113,-126 6,-126 6,-96 113,-96 113,-126"/>
<text text-anchor="start" x="14" y="-114" font-family="Times,serif" font-size="10.00">ttg_parsec::Buffer</text>
<text text-anchor="middle" x="59.5" y="-103" font-family="Times,serif" font-size="10.00">::operator bool</text>
</a>
</g>
</g>
<!-- Node1&#45;&gt;Node8 -->
<g id="edge7_Node000001_Node000008" class="edge">
<title>Node1&#45;&gt;Node8</title>
<g id="a_edge7_Node000001_Node000008"><a xlink:title=" ">
<path fill="none" stroke="#63b8ff" d="M184.17,-184.8C167.1,-169.39 142.85,-149.17 119,-135 113.53,-131.75 107.53,-128.74 101.53,-126.03"/>
<polygon fill="#63b8ff" stroke="#63b8ff" points="182.2,-187.75 191.94,-191.93 186.93,-182.59 182.2,-187.75"/>
</a>
</g>
</g>
<!-- Node9 -->
<g id="Node000009" class="node">
<title>Node9</title>
<g id="a_Node000009"><a xlink:href="structttg__parsec_1_1_buffer.html#ac8c052f38d5f4afbbbede1ae4b64f798" target="_top" xlink:title=" ">
<polygon fill="white" stroke="#666666" points="116,-78 3,-78 3,-48 116,-48 116,-78"/>
<text text-anchor="start" x="11" y="-66" font-family="Times,serif" font-size="10.00">ttg_parsec::Buffer</text>
<text text-anchor="middle" x="59.5" y="-55" font-family="Times,serif" font-size="10.00">::owner_device_ptr</text>
</a>
</g>
</g>
<!-- Node1&#45;&gt;Node9 -->
<g id="edge8_Node000001_Node000009" class="edge">
<title>Node1&#45;&gt;Node9</title>
<g id="a_edge8_Node000001_Node000009"><a xlink:title=" ">
<path fill="none" stroke="#63b8ff" d="M194.85,-182.57C179.92,-155.86 152.82,-113.37 119,-87 114.67,-83.62 109.8,-80.65 104.77,-78.05"/>
<polygon fill="#63b8ff" stroke="#63b8ff" points="191.93,-184.52 199.78,-191.63 198.08,-181.18 191.93,-184.52"/>
</a>
</g>
</g>
<!-- Node10 -->
<g id="Node000010" class="node">
<title>Node10</title>
<g id="a_Node000010"><a xlink:href="structttg__parsec_1_1_buffer.html#a36b597388d7fa9a9e02d2183df2bd53d" target="_top" xlink:title=" ">
<polygon fill="white" stroke="#666666" points="116,-30 3,-30 3,0 116,0 116,-30"/>
<text text-anchor="start" x="11" y="-18" font-family="Times,serif" font-size="10.00">ttg_parsec::Buffer</text>
<text text-anchor="middle" x="59.5" y="-7" font-family="Times,serif" font-size="10.00">::owner_device_ptr</text>
</a>
</g>
</g>
<!-- Node1&#45;&gt;Node10 -->
<g id="edge9_Node000001_Node000010" class="edge">
<title>Node1&#45;&gt;Node10</title>
<g id="a_edge9_Node000001_Node000010"><a xlink:title=" ">
<path fill="none" stroke="#63b8ff" d="M200.38,-182.05C188.89,-145.91 162.97,-78.95 119,-39 115.26,-35.6 110.98,-32.65 106.47,-30.1"/>
<polygon fill="#63b8ff" stroke="#63b8ff" points="197.09,-183.26 203.37,-191.8 203.79,-181.21 197.09,-183.26"/>
</a>
</g>
</g>
</g>
</svg>
