<?xml version="1.0" encoding="UTF-8" standalone="no"?>
<!DOCTYPE svg PUBLIC "-//W3C//DTD SVG 1.1//EN"
 "http://www.w3.org/Graphics/SVG/1.1/DTD/svg11.dtd">
<!-- Generated by graphviz version 2.43.0 (0)
 -->
<!-- Title: ttg_parsec::Buffer::current_device_ptr Pages: 1 -->
<svg width="746pt" height="202pt"
 viewBox="0.00 0.00 746.00 201.50" xmlns="http://www.w3.org/2000/svg" xmlns:xlink="http://www.w3.org/1999/xlink">
<g id="graph0" class="graph" transform="scale(1 1) rotate(0) translate(4 197.5)">
<title>ttg_parsec::Buffer::current_device_ptr</title>
<!-- Node1 -->
<g id="Node000001" class="node">
<title>Node1</title>
<g id="a_Node000001"><a xlink:title=" ">
<polygon fill="#999999" stroke="#666666" points="119,-121.5 0,-121.5 0,-91.5 119,-91.5 119,-121.5"/>
<text text-anchor="start" x="8" y="-109.5" font-family="Times,serif" font-size="10.00">ttg_parsec::Buffer</text>
<text text-anchor="middle" x="59.5" y="-98.5" font-family="Times,serif" font-size="10.00">::current_device_ptr</text>
</a>
</g>
</g>
<!-- Node2 -->
<g id="Node000002" class="node">
<title>Node2</title>
<g id="a_Node000002"><a xlink:href="namespacettg_1_1device.html#a5c5ca5f871db61a4e703ca6170582a5e" target="_top" xlink:title=" ">
<polygon fill="white" stroke="#666666" points="276,-193.5 163,-193.5 163,-163.5 276,-163.5 276,-193.5"/>
<text text-anchor="start" x="171" y="-181.5" font-family="Times,serif" font-size="10.00">ttg::device::current</text>
<text text-anchor="middle" x="219.5" y="-170.5" font-family="Times,serif" font-size="10.00">_device</text>
</a>
</g>
</g>
<!-- Node1&#45;&gt;Node2 -->
<g id="edge1_Node000001_Node000002" class="edge">
<title>Node1&#45;&gt;Node2</title>
<g id="a_edge1_Node000001_Node000002"><a xlink:title=" ">
<path fill="none" stroke="#63b8ff" d="M88.23,-121.59C106.87,-131.48 132.11,-144.39 155,-154.5 158.88,-156.21 162.93,-157.92 167.01,-159.59"/>
<polygon fill="#63b8ff" stroke="#63b8ff" points="165.98,-162.94 176.57,-163.39 168.57,-156.44 165.98,-162.94"/>
</a>
</g>
</g>
<!-- Node3 -->
<g id="Node000003" class="node">
<title>Node3</title>
<g id="a_Node000003"><a xlink:href="structttg__parsec_1_1_buffer.html#ac81a3d9b9e2dcbbcba93cf1a35512f04" target="_top" xlink:title=" ">
<polygon fill="white" stroke="#666666" points="273,-145.5 166,-145.5 166,-115.5 273,-115.5 273,-145.5"/>
<text text-anchor="start" x="174" y="-133.5" font-family="Times,serif" font-size="10.00">ttg_parsec::Buffer</text>
<text text-anchor="middle" x="219.5" y="-122.5" font-family="Times,serif" font-size="10.00">::empty</text>
</a>
</g>
</g>
<!-- Node1&#45;&gt;Node3 -->
<g id="edge2_Node000001_Node000003" class="edge">
<title>Node1&#45;&gt;Node3</title>
<g id="a_edge2_Node000001_Node000003"><a xlink:title=" ">
<path fill="none" stroke="#63b8ff" d="M119.33,-115.44C131.26,-117.25 143.84,-119.16 155.9,-120.99"/>
<polygon fill="#63b8ff" stroke="#63b8ff" points="155.46,-124.46 165.87,-122.51 156.51,-117.54 155.46,-124.46"/>
</a>
</g>
</g>
<!-- Node4 -->
<g id="Node000004" class="node">
<title>Node4</title>
<g id="a_Node000004"><a xlink:href="structttg__parsec_1_1_buffer.html#a3780a9611c746e0d1ea617720d469ad5" target="_top" xlink:title=" ">
<polygon fill="white" stroke="#666666" points="273,-97.5 166,-97.5 166,-67.5 273,-67.5 273,-97.5"/>
<text text-anchor="start" x="174" y="-85.5" font-family="Times,serif" font-size="10.00">ttg_parsec::Buffer</text>
<text text-anchor="middle" x="219.5" y="-74.5" font-family="Times,serif" font-size="10.00">::is_valid</text>
</a>
</g>
</g>
<!-- Node1&#45;&gt;Node4 -->
<g id="edge3_Node000001_Node000004" class="edge">
<title>Node1&#45;&gt;Node4</title>
<g id="a_edge3_Node000001_Node000004"><a xlink:title=" ">
<path fill="none" stroke="#63b8ff" d="M119.33,-97.56C131.26,-95.75 143.84,-93.84 155.9,-92.01"/>
<polygon fill="#63b8ff" stroke="#63b8ff" points="156.51,-95.46 165.87,-90.49 155.46,-88.54 156.51,-95.46"/>
</a>
</g>
</g>
<!-- Node5 -->
<g id="Node000005" class="node">
<title>Node5</title>
<g id="a_Node000005"><a xlink:href="namespacettg__parsec_1_1detail.html#a4e193da802fd145fa18041dd40ad7df9" target="_top" xlink:title=" ">
<polygon fill="white" stroke="#666666" points="284,-49 155,-49 155,-8 284,-8 284,-49"/>
<text text-anchor="start" x="163" y="-37" font-family="Times,serif" font-size="10.00">ttg_parsec::detail</text>
<text text-anchor="start" x="163" y="-26" font-family="Times,serif" font-size="10.00">::ttg_device_to_parsec</text>
<text text-anchor="middle" x="219.5" y="-15" font-family="Times,serif" font-size="10.00">_device</text>
</a>
</g>
</g>
<!-- Node1&#45;&gt;Node5 -->
<g id="edge4_Node000001_Node000005" class="edge">
<title>Node1&#45;&gt;Node5</title>
<g id="a_edge4_Node000001_Node000005"><a xlink:title=" ">
<path fill="none" stroke="#63b8ff" d="M89.76,-91.36C108.38,-81.81 133.02,-69.27 155,-58.5 158.32,-56.88 161.73,-55.22 165.19,-53.55"/>
<polygon fill="#63b8ff" stroke="#63b8ff" points="166.85,-56.63 174.36,-49.16 163.82,-50.32 166.85,-56.63"/>
</a>
</g>
</g>
<!-- Node6 -->
<g id="Node000006" class="node">
<title>Node6</title>
<g id="a_Node000006"><a xlink:href="classttg_1_1device_1_1_device.html#acf0992ecbfbc2c91de0452122b06fe81" target="_top" xlink:title=" ">
<polygon fill="white" stroke="#666666" points="446,-19 320,-19 320,0 446,0 446,-19"/>
<text text-anchor="middle" x="383" y="-7" font-family="Times,serif" font-size="10.00">ttg::device::Device::id</text>
</a>
</g>
</g>
<!-- Node5&#45;&gt;Node6 -->
<g id="edge5_Node000005_Node000006" class="edge">
<title>Node5&#45;&gt;Node6</title>
<g id="a_edge5_Node000005_Node000006"><a xlink:title=" ">
<path fill="none" stroke="#63b8ff" d="M284.33,-20.99C292.76,-20 301.44,-18.98 310,-17.97"/>
<polygon fill="#63b8ff" stroke="#63b8ff" points="310.43,-21.44 319.95,-16.8 309.61,-14.49 310.43,-21.44"/>
</a>
</g>
</g>
<!-- Node7 -->
<g id="Node000007" class="node">
<title>Node7</title>
<g id="a_Node000007"><a xlink:href="classttg_1_1device_1_1_device.html#a16a73248d5e812cf4df7d55458faafb4" target="_top" xlink:title=" ">
<polygon fill="white" stroke="#666666" points="592,-62.5 482,-62.5 482,-32.5 592,-32.5 592,-62.5"/>
<text text-anchor="start" x="490" y="-50.5" font-family="Times,serif" font-size="10.00">ttg::device::Device</text>
<text text-anchor="middle" x="537" y="-39.5" font-family="Times,serif" font-size="10.00">::is_host</text>
</a>
</g>
</g>
<!-- Node5&#45;&gt;Node7 -->
<g id="edge9_Node000005_Node000007" class="edge">
<title>Node5&#45;&gt;Node7</title>
<g id="a_edge9_Node000005_Node000007"><a xlink:title=" ">
<path fill="none" stroke="#63b8ff" d="M284.35,-32.34C338.9,-35.63 417.01,-40.33 471.69,-43.63"/>
<polygon fill="#63b8ff" stroke="#63b8ff" points="471.77,-47.14 481.96,-44.25 472.19,-40.15 471.77,-47.14"/>
</a>
</g>
</g>
<!-- Node6&#45;&gt;Node7 -->
<g id="edge6_Node000006_Node000007" class="edge">
<title>Node6&#45;&gt;Node7</title>
<g id="a_edge6_Node000006_Node000007"><a xlink:title=" ">
<path fill="none" stroke="#63b8ff" d="M422.36,-19.09C437.43,-22.86 455.14,-27.29 472.04,-31.51"/>
<polygon fill="#63b8ff" stroke="#63b8ff" points="471.32,-34.94 481.87,-33.97 473.02,-28.15 471.32,-34.94"/>
</a>
</g>
</g>
<!-- Node8 -->
<g id="Node000008" class="node">
<title>Node8</title>
<g id="a_Node000008"><a xlink:href="classttg_1_1device_1_1_device.html#a979477b9cde8927f919c75754d4d8329" target="_top" xlink:title=" ">
<polygon fill="white" stroke="#666666" points="738,-40.5 628,-40.5 628,-10.5 738,-10.5 738,-40.5"/>
<text text-anchor="start" x="636" y="-28.5" font-family="Times,serif" font-size="10.00">ttg::device::Device</text>
<text text-anchor="middle" x="683" y="-17.5" font-family="Times,serif" font-size="10.00">::is_invalid</text>
</a>
</g>
</g>
<!-- Node6&#45;&gt;Node8 -->
<g id="edge8_Node000006_Node000008" class="edge">
<title>Node6&#45;&gt;Node8</title>
<g id="a_edge8_Node000006_Node000008"><a xlink:title=" ">
<path fill="none" stroke="#63b8ff" d="M446.11,-12.83C496.38,-15.53 566.93,-19.32 617.76,-22.05"/>
<polygon fill="#63b8ff" stroke="#63b8ff" points="617.8,-25.56 627.97,-22.6 618.17,-18.57 617.8,-25.56"/>
</a>
</g>
</g>
<!-- Node7&#45;&gt;Node8 -->
<g id="edge7_Node000007_Node000008" class="edge">
<title>Node7&#45;&gt;Node8</title>
<g id="a_edge7_Node000007_Node000008"><a xlink:title=" ">
<path fill="none" stroke="#63b8ff" d="M592.03,-39.25C600.4,-37.97 609.13,-36.63 617.7,-35.32"/>
<polygon fill="#63b8ff" stroke="#63b8ff" points="618.31,-38.77 627.67,-33.8 617.25,-31.85 618.31,-38.77"/>
</a>
</g>
</g>
</g>
</svg>
