<?xml version="1.0" encoding="UTF-8" standalone="no"?>
<!DOCTYPE svg PUBLIC "-//W3C//DTD SVG 1.1//EN"
 "http://www.w3.org/Graphics/SVG/1.1/DTD/svg11.dtd">
<!-- Generated by graphviz version 2.43.0 (0)
 -->
<!-- Title: ttg::SequencedKeysConstraint::comp_equal Pages: 1 -->
<!--zoomable 182 -->

<svg id="main" version="1.1" xmlns="http://www.w3.org/2000/svg" xmlns:xlink="http://www.w3.org/1999/xlink" xml:space="preserve" onload="init(evt)">
<style type="text/css"><![CDATA[
.node, .edge {opacity: 0.7;}
.node.selected, .edge.selected {opacity: 1;}
.edge:hover path { stroke: red; }
.edge:hover polygon { stroke: red; fill: red; }
]]></style>

<defs>
  <circle id="rim" cx="0" cy="0" r="7"/>
  <circle id="rim2" cx="0" cy="0" r="3.5"/>
  <g id="zoomPlus">
    <use xlink:href="#rim" fill="#404040"><set attributeName="fill" to="#808080" begin="zoomplus.mouseover" end="zoomplus.mouseout"/></use>
    <path d="M-4,0h8M0,-4v8" fill="none" stroke="white" stroke-width="1.5" pointer-events="none"/>
  </g>
  <g id="zoomMin">
    <use xlink:href="#rim" fill="#404040"><set attributeName="fill" to="#808080" begin="zoomminus.mouseover" end="zoomminus.mouseout"/></use>
    <path d="M-4,0h8" fill="none" stroke="white" stroke-width="1.5" pointer-events="none"/>
  </g>
  <g id="arrowUp" transform="translate(30 24)">
    <use xlink:href="#rim"/>
    <path pointer-events="none" fill="none" stroke="white" stroke-width="1.5" d="M0,-3.0v7 M-2.5,-0.5L0,-3.0L2.5,-0.5"/>
  </g>
  <g id="arrowRight" transform="rotate(90) translate(36 -43)">
    <use xlink:href="#rim"/>
    <path pointer-events="none" fill="none" stroke="white" stroke-width="1.5" d="M0,-3.0v7 M-2.5,-0.5L0,-3.0L2.5,-0.5"/>
  </g>
  <g id="arrowDown" transform="rotate(180) translate(-30 -48)">
    <use xlink:href="#rim"/>
    <path pointer-events="none" fill="none" stroke="white" stroke-width="1.5" d="M0,-3.0v7 M-2.5,-0.5L0,-3.0L2.5,-0.5"/>
  </g>
  <g id="arrowLeft" transform="rotate(270) translate(-36 17)">
    <use xlink:href="#rim"/>
    <path pointer-events="none" fill="none" stroke="white" stroke-width="1.5" d="M0,-3.0v7 M-2.5,-0.5L0,-3.0L2.5,-0.5"/>
  </g>
  <g id="resetDef">
    <use xlink:href="#rim2" fill="#404040"><set attributeName="fill" to="#808080" begin="reset.mouseover" end="reset.mouseout"/></use>
  </g>
</defs>
<script type="application/ecmascript">
var viewWidth = 804;
var viewHeight = 182;
var sectionId = 'dynsection-8';
</script>
<script type="application/ecmascript" xlink:href="svg.min.js"/>
<svg id="graph" class="graph">
<g id="viewport">
<title>ttg::SequencedKeysConstraint::comp_equal</title>
<!-- Node1 -->
<g id="Node000001" class="node">
<title>Node1</title>
<g id="a_Node000001"><a xlink:title=" ">
<polygon fill="#999999" stroke="#666666" points="796,-78 624,-78 624,-48 796,-48 796,-78"/>
<text text-anchor="start" x="632" y="-66" font-family="Times,serif" font-size="10.00">ttg::SequencedKeysConstraint</text>
<text text-anchor="middle" x="710" y="-55" font-family="Times,serif" font-size="10.00">::comp_equal</text>
</a>
</g>
</g>
<!-- Node2 -->
<g id="Node000002" class="node">
<title>Node2</title>
<g id="a_Node000002"><a xlink:href="structttg_1_1_sequenced_keys_constraint.html#aef5a29a78590db3c0773d76615736c33" target="_top" xlink:title=" ">
<polygon fill="white" stroke="#666666" points="588,-78 416,-78 416,-48 588,-48 588,-78"/>
<text text-anchor="start" x="424" y="-66" font-family="Times,serif" font-size="10.00">ttg::SequencedKeysConstraint</text>
<text text-anchor="middle" x="502" y="-55" font-family="Times,serif" font-size="10.00">::eligible</text>
</a>
</g>
</g>
<!-- Node1&#45;&gt;Node2 -->
<g id="edge1_Node000001_Node000002" class="edge">
<title>Node1&#45;&gt;Node2</title>
<g id="a_edge1_Node000001_Node000002"><a xlink:title=" ">
<path fill="none" stroke="#63b8ff" d="M613.49,-63C605.05,-63 596.55,-63 588.21,-63"/>
<polygon fill="#63b8ff" stroke="#63b8ff" points="613.72,-66.5 623.72,-63 613.72,-59.5 613.72,-66.5"/>
</a>
</g>
</g>
<!-- Node3 -->
<g id="Node000003" class="node">
<title>Node3</title>
<g id="a_Node000003"><a xlink:href="structttg_1_1_sequenced_keys_constraint.html#a3770b125b748b69229835611636ed376" target="_top" xlink:title=" ">
<polygon fill="white" stroke="#666666" points="380,-102 208,-102 208,-72 380,-72 380,-102"/>
<text text-anchor="start" x="216" y="-90" font-family="Times,serif" font-size="10.00">ttg::SequencedKeysConstraint</text>
<text text-anchor="middle" x="294" y="-79" font-family="Times,serif" font-size="10.00">::check_key_impl</text>
</a>
</g>
</g>
<!-- Node2&#45;&gt;Node3 -->
<g id="edge2_Node000002_Node000003" class="edge">
<title>Node2&#45;&gt;Node3</title>
<g id="a_edge2_Node000002_Node000003"><a xlink:title=" ">
<path fill="none" stroke="#63b8ff" d="M405.76,-74.1C397.24,-75.09 388.64,-76.09 380.21,-77.07"/>
<polygon fill="#63b8ff" stroke="#63b8ff" points="406.2,-77.57 415.72,-72.93 405.39,-70.62 406.2,-77.57"/>
</a>
</g>
</g>
<!-- Node8 -->
<g id="Node000008" class="node">
<title>Node8</title>
<g id="a_Node000008"><a xlink:href="structttg_1_1_sequenced_keys_constraint.html#aba01baca1755d4f1447e23e6c4aff0f1" target="_top" xlink:title=" ">
<polygon fill="white" stroke="#666666" points="380,-54 208,-54 208,-24 380,-24 380,-54"/>
<text text-anchor="start" x="216" y="-42" font-family="Times,serif" font-size="10.00">ttg::SequencedKeysConstraint</text>
<text text-anchor="middle" x="294" y="-31" font-family="Times,serif" font-size="10.00">::release_next</text>
</a>
</g>
</g>
<!-- Node2&#45;&gt;Node8 -->
<g id="edge7_Node000002_Node000008" class="edge">
<title>Node2&#45;&gt;Node8</title>
<g id="a_edge7_Node000002_Node000008"><a xlink:title=" ">
<path fill="none" stroke="#63b8ff" d="M405.76,-51.9C397.24,-50.91 388.64,-49.91 380.21,-48.93"/>
<polygon fill="#63b8ff" stroke="#63b8ff" points="405.39,-55.38 415.72,-53.07 406.2,-48.43 405.39,-55.38"/>
</a>
</g>
</g>
<!-- Node4 -->
<g id="Node000004" class="node">
<title>Node4</title>
<g id="a_Node000004"><a xlink:href="structttg_1_1_sequenced_keys_constraint.html#a40911c5c334bf5630ed14f5497c0e57f" target="_top" xlink:title=" ">
<polygon fill="white" stroke="#666666" points="172,-174 0,-174 0,-144 172,-144 172,-174"/>
<text text-anchor="start" x="8" y="-162" font-family="Times,serif" font-size="10.00">ttg::SequencedKeysConstraint</text>
<text text-anchor="middle" x="86" y="-151" font-family="Times,serif" font-size="10.00">::check</text>
</a>
</g>
</g>
<!-- Node3&#45;&gt;Node4 -->
<g id="edge3_Node000003_Node000004" class="edge">
<title>Node3&#45;&gt;Node4</title>
<g id="a_edge3_Node000003_Node000004"><a xlink:title=" ">
<path fill="none" stroke="#63b8ff" d="M248.51,-105.91C225.82,-115.24 197.66,-126.31 172,-135 162.85,-138.1 153.06,-141.12 143.49,-143.93"/>
<polygon fill="#63b8ff" stroke="#63b8ff" points="249.98,-109.09 257.88,-102.04 247.3,-102.63 249.98,-109.09"/>
</a>
</g>
</g>
<!-- Node5 -->
<g id="Node000005" class="node">
<title>Node5</title>
<g id="a_Node000005"><a xlink:href="structttg_1_1_sequenced_keys_constraint.html#aa0b6b5261dff55b0c40447c55420ede4" target="_top" xlink:title=" ">
<polygon fill="white" stroke="#666666" points="172,-126 0,-126 0,-96 172,-96 172,-126"/>
<text text-anchor="start" x="8" y="-114" font-family="Times,serif" font-size="10.00">ttg::SequencedKeysConstraint</text>
<text text-anchor="middle" x="86" y="-103" font-family="Times,serif" font-size="10.00">::check</text>
</a>
</g>
</g>
<!-- Node3&#45;&gt;Node5 -->
<g id="edge4_Node000003_Node000005" class="edge">
<title>Node3&#45;&gt;Node5</title>
<g id="a_edge4_Node000003_Node000005"><a xlink:title=" ">
<path fill="none" stroke="#63b8ff" d="M197.76,-98.1C189.24,-99.09 180.64,-100.09 172.21,-101.07"/>
<polygon fill="#63b8ff" stroke="#63b8ff" points="198.2,-101.57 207.72,-96.93 197.39,-94.62 198.2,-101.57"/>
</a>
</g>
</g>
<!-- Node6 -->
<g id="Node000006" class="node">
<title>Node6</title>
<g id="a_Node000006"><a xlink:href="structttg_1_1_sequenced_keys_constraint.html#a377320521c08099c605336f2b487ded6" target="_top" xlink:title=" ">
<polygon fill="white" stroke="#666666" points="172,-78 0,-78 0,-48 172,-48 172,-78"/>
<text text-anchor="start" x="8" y="-66" font-family="Times,serif" font-size="10.00">ttg::SequencedKeysConstraint</text>
<text text-anchor="middle" x="86" y="-55" font-family="Times,serif" font-size="10.00">::check</text>
</a>
</g>
</g>
<!-- Node3&#45;&gt;Node6 -->
<g id="edge5_Node000003_Node000006" class="edge">
<title>Node3&#45;&gt;Node6</title>
<g id="a_edge5_Node000003_Node000006"><a xlink:title=" ">
<path fill="none" stroke="#63b8ff" d="M197.76,-75.9C189.24,-74.91 180.64,-73.91 172.21,-72.93"/>
<polygon fill="#63b8ff" stroke="#63b8ff" points="197.39,-79.38 207.72,-77.07 198.2,-72.43 197.39,-79.38"/>
</a>
</g>
</g>
<!-- Node7 -->
<g id="Node000007" class="node">
<title>Node7</title>
<g id="a_Node000007"><a xlink:href="structttg_1_1_sequenced_keys_constraint.html#a2c2641c9cf5f080561885dbe040cc9e2" target="_top" xlink:title=" ">
<polygon fill="white" stroke="#666666" points="172,-30 0,-30 0,0 172,0 172,-30"/>
<text text-anchor="start" x="8" y="-18" font-family="Times,serif" font-size="10.00">ttg::SequencedKeysConstraint</text>
<text text-anchor="middle" x="86" y="-7" font-family="Times,serif" font-size="10.00">::check</text>
</a>
</g>
</g>
<!-- Node3&#45;&gt;Node7 -->
<g id="edge6_Node000003_Node000007" class="edge">
<title>Node3&#45;&gt;Node7</title>
<g id="a_edge6_Node000003_Node000007"><a xlink:title=" ">
<path fill="none" stroke="#63b8ff" d="M221.39,-68.56C216.8,-66.83 212.3,-64.98 208,-63 190.53,-54.96 189.47,-47.04 172,-39 164.76,-35.66 156.95,-32.69 149.11,-30.08"/>
<polygon fill="#63b8ff" stroke="#63b8ff" points="220.3,-71.89 230.89,-71.92 222.63,-65.29 220.3,-71.89"/>
</a>
</g>
</g>
</g>
</svg>

<g id="navigator" transform="translate(0 0)" fill="#404254">
  <rect fill="#f2f5e9" fill-opacity="0.5" stroke="#606060" stroke-width=".5" x="0" y="0" width="60" height="60"/>
  <use id="zoomplus" xlink:href="#zoomPlus" x="17" y="9" onmousedown="handleZoom(evt,'in')"/>
  <use id="zoomminus" xlink:href="#zoomMin" x="42" y="9" onmousedown="handleZoom(evt,'out')"/>
  <use id="reset" xlink:href="#resetDef" x="30" y="36" onmousedown="handleReset()"/>
   <use id="arrowup" xlink:href="#arrowUp" x="0" y="0" onmousedown="handlePan(0,-1)"/>
  <use id="arrowright" xlink:href="#arrowRight" x="0" y="0" onmousedown="handlePan(1,0)"/>
  <use id="arrowdown" xlink:href="#arrowDown" x="0" y="0" onmousedown="handlePan(0,1)"/>
  <use id="arrowleft" xlink:href="#arrowLeft" x="0" y="0" onmousedown="handlePan(-1,0)"/>
</g>
<svg viewBox="0 0 15 15" width="100%" height="30px" preserveAspectRatio="xMaxYMin meet">
 <g id="arrow_out" transform="scale(0.3 0.3)">
  <a xlink:href="structttg_1_1_sequenced_keys_constraint_a43ce9c6b4b1ceabd4ee595884c7af60d_icgraph_org.svg" target="_base">
   <rect id="button" ry="5" rx="5" y="6" x="6" height="38" width="38"
        fill="#f2f5e9" fill-opacity="0.5" stroke="#606060" stroke-width="1.0"/>
   <path id="arrow"
     d="M 11.500037,31.436501 C 11.940474,20.09759 22.043105,11.32322 32.158766,21.979434 L 37.068811,17.246167 C 37.068811,17.246167 37.088388,32 37.088388,32 L 22.160133,31.978069 C 22.160133,31.978069 26.997745,27.140456 26.997745,27.140456 C 18.528582,18.264221 13.291696,25.230495 11.500037,31.436501 z"
     style="fill:#404040;"/>
  </a>
 </g>
</svg>

<style type='text/css'>
<![CDATA[
[data-mouse-over-selected='false'] { opacity: 0.7; }
[data-mouse-over-selected='true']  { opacity: 1.0; }
]]>
</style>
<script type="application/ecmascript"><![CDATA[
document.addEventListener('DOMContentLoaded', (event) => {
  highlightEdges();
  highlightAdjacentNodes();
});
]]></script>
</svg>
