<?xml version="1.0" encoding="UTF-8" standalone="no"?>
<!DOCTYPE svg PUBLIC "-//W3C//DTD SVG 1.1//EN"
 "http://www.w3.org/Graphics/SVG/1.1/DTD/svg11.dtd">
<!-- Generated by graphviz version 2.43.0 (0)
 -->
<!-- Title: ttg_parsec::detail::ttg_data_copy_t Pages: 1 -->
<svg width="503pt" height="146pt"
 viewBox="0.00 0.00 503.00 145.50" xmlns="http://www.w3.org/2000/svg" xmlns:xlink="http://www.w3.org/1999/xlink">
<g id="graph0" class="graph" transform="scale(1 1) rotate(0) translate(4 141.5)">
<title>ttg_parsec::detail::ttg_data_copy_t</title>
<!-- Node1 -->
<g id="Node000001" class="node">
<title>Node1</title>
<g id="a_Node000001"><a xlink:title=" ">
<polygon fill="#999999" stroke="#666666" points="266,-89.5 162,-89.5 162,-59.5 266,-59.5 266,-89.5"/>
<text text-anchor="start" x="170" y="-77.5" font-family="Times,serif" font-size="10.00">ttg_parsec::detail</text>
<text text-anchor="middle" x="214" y="-66.5" font-family="Times,serif" font-size="10.00">::ttg_data_copy_t</text>
</a>
</g>
</g>
<!-- Node3 -->
<g id="Node000003" class="node">
<title>Node3</title>
<g id="a_Node000003"><a xlink:href="structttg__parsec_1_1_t_t_value.html" target="_top" xlink:title=" ">
<polygon fill="white" stroke="#666666" points="424,-137.5 307,-137.5 307,-107.5 424,-107.5 424,-137.5"/>
<text text-anchor="start" x="315" y="-125.5" font-family="Times,serif" font-size="10.00">ttg_parsec::TTValue</text>
<text text-anchor="middle" x="365.5" y="-114.5" font-family="Times,serif" font-size="10.00">&lt; Fn &gt;</text>
</a>
</g>
</g>
<!-- Node1&#45;&gt;Node3 -->
<g id="edge2_Node000001_Node000003" class="edge">
<title>Node1&#45;&gt;Node3</title>
<g id="a_edge2_Node000001_Node000003"><a xlink:title=" ">
<path fill="none" stroke="#63b8ff" d="M271.7,-92.71C286.91,-97.59 303.18,-102.81 317.77,-107.5"/>
<polygon fill="#63b8ff" stroke="#63b8ff" points="272.48,-89.28 261.89,-89.56 270.34,-95.95 272.48,-89.28"/>
</a>
</g>
</g>
<!-- Node5 -->
<g id="Node000005" class="node">
<title>Node5</title>
<g id="a_Node000005"><a xlink:href="structttg__parsec_1_1_t_t_value.html" target="_top" xlink:title=" ">
<polygon fill="white" stroke="#666666" points="424,-89.5 307,-89.5 307,-59.5 424,-59.5 424,-89.5"/>
<text text-anchor="start" x="315" y="-77.5" font-family="Times,serif" font-size="10.00">ttg_parsec::TTValue</text>
<text text-anchor="middle" x="365.5" y="-66.5" font-family="Times,serif" font-size="10.00">&lt; DerivedT &gt;</text>
</a>
</g>
</g>
<!-- Node1&#45;&gt;Node5 -->
<g id="edge4_Node000001_Node000005" class="edge">
<title>Node1&#45;&gt;Node5</title>
<g id="a_edge4_Node000001_Node000005"><a xlink:title=" ">
<path fill="none" stroke="#63b8ff" d="M276.04,-74.5C286.19,-74.5 296.7,-74.5 306.76,-74.5"/>
<polygon fill="#63b8ff" stroke="#63b8ff" points="276.03,-71 266.03,-74.5 276.03,-78 276.03,-71"/>
</a>
</g>
</g>
<!-- Node6 -->
<g id="Node000006" class="node">
<title>Node6</title>
<g id="a_Node000006"><a xlink:href="structttg__parsec_1_1detail_1_1ttg__data__value__copy__t.html" target="_top" xlink:title=" ">
<polygon fill="white" stroke="#666666" points="429,-41 302,-41 302,0 429,0 429,-41"/>
<text text-anchor="start" x="310" y="-29" font-family="Times,serif" font-size="10.00">ttg_parsec::detail</text>
<text text-anchor="start" x="310" y="-18" font-family="Times,serif" font-size="10.00">::ttg_data_value_copy</text>
<text text-anchor="middle" x="365.5" y="-7" font-family="Times,serif" font-size="10.00">_t&lt; ValueT &gt;</text>
</a>
</g>
</g>
<!-- Node1&#45;&gt;Node6 -->
<g id="edge5_Node000001_Node000006" class="edge">
<title>Node1&#45;&gt;Node6</title>
<g id="a_edge5_Node000001_Node000006"><a xlink:title=" ">
<path fill="none" stroke="#63b8ff" d="M266.16,-56.02C279.55,-51.18 294.06,-45.94 307.72,-41.01"/>
<polygon fill="#63b8ff" stroke="#63b8ff" points="264.86,-52.77 256.64,-59.46 267.24,-59.35 264.86,-52.77"/>
</a>
</g>
</g>
<!-- Node2 -->
<g id="Node000002" class="node">
<title>Node2</title>
<g id="a_Node000002"><a xlink:href="structttg__parsec_1_1detail_1_1ttg__data__copy__self__t.html" target="_top" xlink:title=" ">
<polygon fill="white" stroke="#666666" points="126,-89.5 0,-89.5 0,-59.5 126,-59.5 126,-89.5"/>
<text text-anchor="start" x="8" y="-77.5" font-family="Times,serif" font-size="10.00">ttg_parsec::detail</text>
<text text-anchor="middle" x="63" y="-66.5" font-family="Times,serif" font-size="10.00">::ttg_data_copy_self_t</text>
</a>
</g>
</g>
<!-- Node2&#45;&gt;Node1 -->
<g id="edge1_Node000001_Node000002" class="edge">
<title>Node2&#45;&gt;Node1</title>
<g id="a_edge1_Node000001_Node000002"><a xlink:title=" ">
<path fill="none" stroke="#63b8ff" d="M136.36,-74.5C144.94,-74.5 153.56,-74.5 161.76,-74.5"/>
<polygon fill="#63b8ff" stroke="#63b8ff" points="136.33,-71 126.33,-74.5 136.33,-78 136.33,-71"/>
</a>
</g>
</g>
<!-- Node4 -->
<g id="Node000004" class="node">
<title>Node4</title>
<g id="a_Node000004"><a xlink:href="struct_fn.html" target="_top" xlink:title="N.B. contains values of F_n and F_{n&#45;1}.">
<polygon fill="white" stroke="#666666" points="495,-132 465,-132 465,-113 495,-113 495,-132"/>
<text text-anchor="middle" x="480" y="-120" font-family="Times,serif" font-size="10.00">Fn</text>
</a>
</g>
</g>
<!-- Node3&#45;&gt;Node4 -->
<g id="edge3_Node000003_Node000004" class="edge">
<title>Node3&#45;&gt;Node4</title>
<g id="a_edge3_Node000003_Node000004"><a xlink:title=" ">
<path fill="none" stroke="#63b8ff" d="M434.29,-122.5C445.77,-122.5 456.59,-122.5 464.71,-122.5"/>
<polygon fill="#63b8ff" stroke="#63b8ff" points="434.07,-119 424.07,-122.5 434.07,-126 434.07,-119"/>
</a>
</g>
</g>
</g>
</svg>
