<?xml version="1.0" encoding="UTF-8" standalone="no"?>
<!DOCTYPE svg PUBLIC "-//W3C//DTD SVG 1.1//EN"
 "http://www.w3.org/Graphics/SVG/1.1/DTD/svg11.dtd">
<!-- Generated by graphviz version 2.43.0 (0)
 -->
<!-- Title: ttg_parsec::Buffer::scope Pages: 1 -->
<svg width="401pt" height="134pt"
 viewBox="0.00 0.00 401.00 134.00" xmlns="http://www.w3.org/2000/svg" xmlns:xlink="http://www.w3.org/1999/xlink">
<g id="graph0" class="graph" transform="scale(1 1) rotate(0) translate(4 130)">
<title>ttg_parsec::Buffer::scope</title>
<!-- Node1 -->
<g id="Node000001" class="node">
<title>Node1</title>
<g id="a_Node000001"><a xlink:title=" ">
<polygon fill="#999999" stroke="#666666" points="393,-78 286,-78 286,-48 393,-48 393,-78"/>
<text text-anchor="start" x="294" y="-66" font-family="Times,serif" font-size="10.00">ttg_parsec::Buffer</text>
<text text-anchor="middle" x="339.5" y="-55" font-family="Times,serif" font-size="10.00">::scope</text>
</a>
</g>
</g>
<!-- Node2 -->
<g id="Node000002" class="node">
<title>Node2</title>
<g id="a_Node000002"><a xlink:href="structttg__parsec_1_1_buffer.html#a436434df7ae479eacea74a9b12be2759" target="_top" xlink:title=" ">
<polygon fill="white" stroke="#666666" points="250,-126 143,-126 143,-96 250,-96 250,-126"/>
<text text-anchor="start" x="151" y="-114" font-family="Times,serif" font-size="10.00">ttg_parsec::Buffer</text>
<text text-anchor="middle" x="196.5" y="-103" font-family="Times,serif" font-size="10.00">::reset</text>
</a>
</g>
</g>
<!-- Node1&#45;&gt;Node2 -->
<g id="edge1_Node000001_Node000002" class="edge">
<title>Node1&#45;&gt;Node2</title>
<g id="a_edge1_Node000001_Node000002"><a xlink:title=" ">
<path fill="none" stroke="#63b8ff" d="M284.61,-81.35C270.39,-86.19 255.21,-91.36 241.57,-96"/>
<polygon fill="#63b8ff" stroke="#63b8ff" points="285.94,-84.59 294.27,-78.06 283.68,-77.97 285.94,-84.59"/>
</a>
</g>
</g>
<!-- Node3 -->
<g id="Node000003" class="node">
<title>Node3</title>
<g id="a_Node000003"><a xlink:href="structttg__parsec_1_1_buffer.html#adccefc633ed38cbaa10b9b49a530254d" target="_top" xlink:title=" ">
<polygon fill="white" stroke="#666666" points="250,-78 143,-78 143,-48 250,-48 250,-78"/>
<text text-anchor="start" x="151" y="-66" font-family="Times,serif" font-size="10.00">ttg_parsec::Buffer</text>
<text text-anchor="middle" x="196.5" y="-55" font-family="Times,serif" font-size="10.00">::reset</text>
</a>
</g>
</g>
<!-- Node1&#45;&gt;Node3 -->
<g id="edge2_Node000001_Node000003" class="edge">
<title>Node1&#45;&gt;Node3</title>
<g id="a_edge2_Node000001_Node000003"><a xlink:title=" ">
<path fill="none" stroke="#63b8ff" d="M275.95,-63C267.3,-63 258.49,-63 250.05,-63"/>
<polygon fill="#63b8ff" stroke="#63b8ff" points="276,-66.5 286,-63 276,-59.5 276,-66.5"/>
</a>
</g>
</g>
<!-- Node5 -->
<g id="Node000005" class="node">
<title>Node5</title>
<g id="a_Node000005"><a xlink:href="structttg__parsec_1_1_buffer.html#a73c1e3baa8e4f21c1c55ea02e9e56892" target="_top" xlink:title=" ">
<polygon fill="white" stroke="#666666" points="250,-30 143,-30 143,0 250,0 250,-30"/>
<text text-anchor="start" x="151" y="-18" font-family="Times,serif" font-size="10.00">ttg_parsec::Buffer</text>
<text text-anchor="middle" x="196.5" y="-7" font-family="Times,serif" font-size="10.00">::reset_scope</text>
</a>
</g>
</g>
<!-- Node1&#45;&gt;Node5 -->
<g id="edge4_Node000001_Node000005" class="edge">
<title>Node1&#45;&gt;Node5</title>
<g id="a_edge4_Node000001_Node000005"><a xlink:title=" ">
<path fill="none" stroke="#63b8ff" d="M284.61,-44.65C270.39,-39.81 255.21,-34.64 241.57,-30"/>
<polygon fill="#63b8ff" stroke="#63b8ff" points="283.68,-48.03 294.27,-47.94 285.94,-41.41 283.68,-48.03"/>
</a>
</g>
</g>
<!-- Node4 -->
<g id="Node000004" class="node">
<title>Node4</title>
<g id="a_Node000004"><a xlink:href="structttg__parsec_1_1_buffer.html#ac03d171f76a9ebf145bdcc2b991cbf5e" target="_top" xlink:title=" ">
<polygon fill="white" stroke="#666666" points="107,-78 0,-78 0,-48 107,-48 107,-78"/>
<text text-anchor="start" x="8" y="-66" font-family="Times,serif" font-size="10.00">ttg_parsec::Buffer</text>
<text text-anchor="middle" x="53.5" y="-55" font-family="Times,serif" font-size="10.00">::allocate_on</text>
</a>
</g>
</g>
<!-- Node3&#45;&gt;Node4 -->
<g id="edge3_Node000003_Node000004" class="edge">
<title>Node3&#45;&gt;Node4</title>
<g id="a_edge3_Node000003_Node000004"><a xlink:title=" ">
<path fill="none" stroke="#63b8ff" d="M132.95,-63C124.3,-63 115.49,-63 107.05,-63"/>
<polygon fill="#63b8ff" stroke="#63b8ff" points="133,-66.5 143,-63 133,-59.5 133,-66.5"/>
</a>
</g>
</g>
</g>
</svg>
