<?xml version="1.0" encoding="UTF-8" standalone="no"?>
<!DOCTYPE svg PUBLIC "-//W3C//DTD SVG 1.1//EN"
 "http://www.w3.org/Graphics/SVG/1.1/DTD/svg11.dtd">
<!-- Generated by graphviz version 2.43.0 (0)
 -->
<!-- Title: ttg::SequencedKeysConstraint::check Pages: 1 -->
<svg width="804pt" height="86pt"
 viewBox="0.00 0.00 804.00 86.00" xmlns="http://www.w3.org/2000/svg" xmlns:xlink="http://www.w3.org/1999/xlink">
<g id="graph0" class="graph" transform="scale(1 1) rotate(0) translate(4 82)">
<title>ttg::SequencedKeysConstraint::check</title>
<!-- Node1 -->
<g id="Node000001" class="node">
<title>Node1</title>
<g id="a_Node000001"><a xlink:title=" ">
<polygon fill="#999999" stroke="#666666" points="172,-54 0,-54 0,-24 172,-24 172,-54"/>
<text text-anchor="start" x="8" y="-42" font-family="Times,serif" font-size="10.00">ttg::SequencedKeysConstraint</text>
<text text-anchor="middle" x="86" y="-31" font-family="Times,serif" font-size="10.00">::check</text>
</a>
</g>
</g>
<!-- Node2 -->
<g id="Node000002" class="node">
<title>Node2</title>
<g id="a_Node000002"><a xlink:href="structttg_1_1_sequenced_keys_constraint.html#a3770b125b748b69229835611636ed376" target="_top" xlink:title=" ">
<polygon fill="white" stroke="#666666" points="380,-54 208,-54 208,-24 380,-24 380,-54"/>
<text text-anchor="start" x="216" y="-42" font-family="Times,serif" font-size="10.00">ttg::SequencedKeysConstraint</text>
<text text-anchor="middle" x="294" y="-31" font-family="Times,serif" font-size="10.00">::check_key_impl</text>
</a>
</g>
</g>
<!-- Node1&#45;&gt;Node2 -->
<g id="edge1_Node000001_Node000002" class="edge">
<title>Node1&#45;&gt;Node2</title>
<g id="a_edge1_Node000001_Node000002"><a xlink:title=" ">
<path fill="none" stroke="#63b8ff" d="M172.28,-39C180.62,-39 189.12,-39 197.55,-39"/>
<polygon fill="#63b8ff" stroke="#63b8ff" points="197.79,-42.5 207.79,-39 197.79,-35.5 197.79,-42.5"/>
</a>
</g>
</g>
<!-- Node3 -->
<g id="Node000003" class="node">
<title>Node3</title>
<g id="a_Node000003"><a xlink:href="structttg_1_1_sequenced_keys_constraint.html#aef5a29a78590db3c0773d76615736c33" target="_top" xlink:title=" ">
<polygon fill="white" stroke="#666666" points="588,-78 416,-78 416,-48 588,-48 588,-78"/>
<text text-anchor="start" x="424" y="-66" font-family="Times,serif" font-size="10.00">ttg::SequencedKeysConstraint</text>
<text text-anchor="middle" x="502" y="-55" font-family="Times,serif" font-size="10.00">::eligible</text>
</a>
</g>
</g>
<!-- Node2&#45;&gt;Node3 -->
<g id="edge2_Node000002_Node000003" class="edge">
<title>Node2&#45;&gt;Node3</title>
<g id="a_edge2_Node000002_Node000003"><a xlink:title=" ">
<path fill="none" stroke="#63b8ff" d="M380.28,-48.93C388.71,-49.92 397.3,-50.92 405.83,-51.91"/>
<polygon fill="#63b8ff" stroke="#63b8ff" points="405.45,-55.39 415.79,-53.07 406.26,-48.44 405.45,-55.39"/>
</a>
</g>
</g>
<!-- Node5 -->
<g id="Node000005" class="node">
<title>Node5</title>
<g id="a_Node000005"><a xlink:href="structttg_1_1_constraint_base.html#a81c2b6e0a5febbf5ad3386e695f43890" target="_top" xlink:title=" ">
<polygon fill="white" stroke="#666666" points="559.5,-30 444.5,-30 444.5,0 559.5,0 559.5,-30"/>
<text text-anchor="start" x="452.5" y="-18" font-family="Times,serif" font-size="10.00">ttg::ConstraintBase</text>
<text text-anchor="middle" x="502" y="-7" font-family="Times,serif" font-size="10.00">::lock_guard</text>
</a>
</g>
</g>
<!-- Node2&#45;&gt;Node5 -->
<g id="edge4_Node000002_Node000005" class="edge">
<title>Node2&#45;&gt;Node5</title>
<g id="a_edge4_Node000002_Node000005"><a xlink:title=" ">
<path fill="none" stroke="#63b8ff" d="M380.28,-29.07C398.32,-26.96 417.11,-24.77 434.34,-22.77"/>
<polygon fill="#63b8ff" stroke="#63b8ff" points="434.76,-26.24 444.29,-21.61 433.95,-19.29 434.76,-26.24"/>
</a>
</g>
</g>
<!-- Node4 -->
<g id="Node000004" class="node">
<title>Node4</title>
<g id="a_Node000004"><a xlink:href="structttg_1_1_sequenced_keys_constraint.html#a43ce9c6b4b1ceabd4ee595884c7af60d" target="_top" xlink:title=" ">
<polygon fill="white" stroke="#666666" points="796,-78 624,-78 624,-48 796,-48 796,-78"/>
<text text-anchor="start" x="632" y="-66" font-family="Times,serif" font-size="10.00">ttg::SequencedKeysConstraint</text>
<text text-anchor="middle" x="710" y="-55" font-family="Times,serif" font-size="10.00">::comp_equal</text>
</a>
</g>
</g>
<!-- Node3&#45;&gt;Node4 -->
<g id="edge3_Node000003_Node000004" class="edge">
<title>Node3&#45;&gt;Node4</title>
<g id="a_edge3_Node000003_Node000004"><a xlink:title=" ">
<path fill="none" stroke="#63b8ff" d="M588.28,-63C596.62,-63 605.12,-63 613.55,-63"/>
<polygon fill="#63b8ff" stroke="#63b8ff" points="613.79,-66.5 623.79,-63 613.79,-59.5 613.79,-66.5"/>
</a>
</g>
</g>
</g>
</svg>
