<?xml version="1.0" encoding="UTF-8" standalone="no"?>
<!DOCTYPE svg PUBLIC "-//W3C//DTD SVG 1.1//EN"
 "http://www.w3.org/Graphics/SVG/1.1/DTD/svg11.dtd">
<!-- Generated by graphviz version 2.43.0 (0)
 -->
<!-- Title: ttg_parsec::detail::parsec_ttg_task_t::parsec_ttg_task_t Pages: 1 -->
<svg width="297pt" height="86pt"
 viewBox="0.00 0.00 297.00 86.00" xmlns="http://www.w3.org/2000/svg" xmlns:xlink="http://www.w3.org/1999/xlink">
<g id="graph0" class="graph" transform="scale(1 1) rotate(0) translate(4 82)">
<title>ttg_parsec::detail::parsec_ttg_task_t::parsec_ttg_task_t</title>
<!-- Node1 -->
<g id="Node000001" class="node">
<title>Node1</title>
<g id="a_Node000001"><a xlink:title=" ">
<polygon fill="#999999" stroke="#666666" points="111,-59.5 0,-59.5 0,-18.5 111,-18.5 111,-59.5"/>
<text text-anchor="start" x="8" y="-47.5" font-family="Times,serif" font-size="10.00">ttg_parsec::detail</text>
<text text-anchor="start" x="8" y="-36.5" font-family="Times,serif" font-size="10.00">::parsec_ttg_task_t</text>
<text text-anchor="middle" x="55.5" y="-25.5" font-family="Times,serif" font-size="10.00">::parsec_ttg_task_t</text>
</a>
</g>
</g>
<!-- Node2 -->
<g id="Node000002" class="node">
<title>Node2</title>
<g id="a_Node000002"><a xlink:href="structttg__parsec_1_1detail_1_1device__state__t.html#a9536ff91bc59a8d536f14a01f72dfc9c" target="_top" xlink:title=" ">
<polygon fill="white" stroke="#666666" points="288,-78 148,-78 148,-48 288,-48 288,-78"/>
<text text-anchor="start" x="156" y="-66" font-family="Times,serif" font-size="10.00">ttg_parsec::detail</text>
<text text-anchor="middle" x="218" y="-55" font-family="Times,serif" font-size="10.00">::device_state_t::dev_ptr</text>
</a>
</g>
</g>
<!-- Node1&#45;&gt;Node2 -->
<g id="edge1_Node000001_Node000002" class="edge">
<title>Node1&#45;&gt;Node2</title>
<g id="a_edge1_Node000001_Node000002"><a xlink:title=" ">
<path fill="none" stroke="#63b8ff" d="M111.29,-47.19C119.86,-48.47 128.87,-49.82 137.87,-51.17"/>
<polygon fill="#63b8ff" stroke="#63b8ff" points="137.58,-54.66 147.99,-52.68 138.61,-47.74 137.58,-54.66"/>
</a>
</g>
</g>
<!-- Node3 -->
<g id="Node000003" class="node">
<title>Node3</title>
<g id="a_Node000003"><a xlink:href="structttg__parsec_1_1detail_1_1parsec__ttg__task__t.html#abb07736d132548ee6293dc5deb51258d" target="_top" xlink:title=" ">
<polygon fill="white" stroke="#666666" points="289,-30 147,-30 147,0 289,0 289,-30"/>
<text text-anchor="start" x="155" y="-18" font-family="Times,serif" font-size="10.00">ttg_parsec::detail</text>
<text text-anchor="middle" x="218" y="-7" font-family="Times,serif" font-size="10.00">::parsec_ttg_task_t::pkey</text>
</a>
</g>
</g>
<!-- Node1&#45;&gt;Node3 -->
<g id="edge2_Node000001_Node000003" class="edge">
<title>Node1&#45;&gt;Node3</title>
<g id="a_edge2_Node000001_Node000003"><a xlink:title=" ">
<path fill="none" stroke="#63b8ff" d="M111.29,-30.81C119.51,-29.58 128.13,-28.29 136.75,-27"/>
<polygon fill="#63b8ff" stroke="#63b8ff" points="137.48,-30.43 146.85,-25.49 136.44,-23.51 137.48,-30.43"/>
</a>
</g>
</g>
</g>
</svg>
