<?xml version="1.0" encoding="UTF-8" standalone="no"?>
<!DOCTYPE svg PUBLIC "-//W3C//DTD SVG 1.1//EN"
 "http://www.w3.org/Graphics/SVG/1.1/DTD/svg11.dtd">
<!-- Generated by graphviz version 2.43.0 (0)
 -->
<!-- Title: ttg_parsec::Buffer::device_ptr_on Pages: 1 -->
<svg width="734pt" height="154pt"
 viewBox="0.00 0.00 734.00 153.50" xmlns="http://www.w3.org/2000/svg" xmlns:xlink="http://www.w3.org/1999/xlink">
<g id="graph0" class="graph" transform="scale(1 1) rotate(0) translate(4 149.5)">
<title>ttg_parsec::Buffer::device_ptr_on</title>
<!-- Node1 -->
<g id="Node000001" class="node">
<title>Node1</title>
<g id="a_Node000001"><a xlink:title=" ">
<polygon fill="#999999" stroke="#666666" points="107,-97.5 0,-97.5 0,-67.5 107,-67.5 107,-97.5"/>
<text text-anchor="start" x="8" y="-85.5" font-family="Times,serif" font-size="10.00">ttg_parsec::Buffer</text>
<text text-anchor="middle" x="53.5" y="-74.5" font-family="Times,serif" font-size="10.00">::device_ptr_on</text>
</a>
</g>
</g>
<!-- Node2 -->
<g id="Node000002" class="node">
<title>Node2</title>
<g id="a_Node000002"><a xlink:href="structttg__parsec_1_1_buffer.html#ac81a3d9b9e2dcbbcba93cf1a35512f04" target="_top" xlink:title=" ">
<polygon fill="white" stroke="#666666" points="261,-145.5 154,-145.5 154,-115.5 261,-115.5 261,-145.5"/>
<text text-anchor="start" x="162" y="-133.5" font-family="Times,serif" font-size="10.00">ttg_parsec::Buffer</text>
<text text-anchor="middle" x="207.5" y="-122.5" font-family="Times,serif" font-size="10.00">::empty</text>
</a>
</g>
</g>
<!-- Node1&#45;&gt;Node2 -->
<g id="edge1_Node000001_Node000002" class="edge">
<title>Node1&#45;&gt;Node2</title>
<g id="a_edge1_Node000001_Node000002"><a xlink:title=" ">
<path fill="none" stroke="#63b8ff" d="M102.18,-97.56C117.03,-102.25 133.57,-107.47 149.02,-112.35"/>
<polygon fill="#63b8ff" stroke="#63b8ff" points="148.4,-115.82 158.99,-115.5 150.51,-109.15 148.4,-115.82"/>
</a>
</g>
</g>
<!-- Node3 -->
<g id="Node000003" class="node">
<title>Node3</title>
<g id="a_Node000003"><a xlink:href="structttg__parsec_1_1_buffer.html#a3780a9611c746e0d1ea617720d469ad5" target="_top" xlink:title=" ">
<polygon fill="white" stroke="#666666" points="261,-97.5 154,-97.5 154,-67.5 261,-67.5 261,-97.5"/>
<text text-anchor="start" x="162" y="-85.5" font-family="Times,serif" font-size="10.00">ttg_parsec::Buffer</text>
<text text-anchor="middle" x="207.5" y="-74.5" font-family="Times,serif" font-size="10.00">::is_valid</text>
</a>
</g>
</g>
<!-- Node1&#45;&gt;Node3 -->
<g id="edge2_Node000001_Node000003" class="edge">
<title>Node1&#45;&gt;Node3</title>
<g id="a_edge2_Node000001_Node000003"><a xlink:title=" ">
<path fill="none" stroke="#63b8ff" d="M107.24,-82.5C119.03,-82.5 131.64,-82.5 143.79,-82.5"/>
<polygon fill="#63b8ff" stroke="#63b8ff" points="143.86,-86 153.86,-82.5 143.86,-79 143.86,-86"/>
</a>
</g>
</g>
<!-- Node4 -->
<g id="Node000004" class="node">
<title>Node4</title>
<g id="a_Node000004"><a xlink:href="namespacettg__parsec_1_1detail.html#a4e193da802fd145fa18041dd40ad7df9" target="_top" xlink:title=" ">
<polygon fill="white" stroke="#666666" points="272,-49 143,-49 143,-8 272,-8 272,-49"/>
<text text-anchor="start" x="151" y="-37" font-family="Times,serif" font-size="10.00">ttg_parsec::detail</text>
<text text-anchor="start" x="151" y="-26" font-family="Times,serif" font-size="10.00">::ttg_device_to_parsec</text>
<text text-anchor="middle" x="207.5" y="-15" font-family="Times,serif" font-size="10.00">_device</text>
</a>
</g>
</g>
<!-- Node1&#45;&gt;Node4 -->
<g id="edge3_Node000001_Node000004" class="edge">
<title>Node1&#45;&gt;Node4</title>
<g id="a_edge3_Node000001_Node000004"><a xlink:title=" ">
<path fill="none" stroke="#63b8ff" d="M96.84,-67.46C109.9,-62.82 124.62,-57.59 138.94,-52.5"/>
<polygon fill="#63b8ff" stroke="#63b8ff" points="140.51,-55.66 148.77,-49.01 138.17,-49.06 140.51,-55.66"/>
</a>
</g>
</g>
<!-- Node5 -->
<g id="Node000005" class="node">
<title>Node5</title>
<g id="a_Node000005"><a xlink:href="classttg_1_1device_1_1_device.html#acf0992ecbfbc2c91de0452122b06fe81" target="_top" xlink:title=" ">
<polygon fill="white" stroke="#666666" points="434,-19 308,-19 308,0 434,0 434,-19"/>
<text text-anchor="middle" x="371" y="-7" font-family="Times,serif" font-size="10.00">ttg::device::Device::id</text>
</a>
</g>
</g>
<!-- Node4&#45;&gt;Node5 -->
<g id="edge4_Node000004_Node000005" class="edge">
<title>Node4&#45;&gt;Node5</title>
<g id="a_edge4_Node000004_Node000005"><a xlink:title=" ">
<path fill="none" stroke="#63b8ff" d="M272.33,-20.99C280.76,-20 289.44,-18.98 298,-17.97"/>
<polygon fill="#63b8ff" stroke="#63b8ff" points="298.43,-21.44 307.95,-16.8 297.61,-14.49 298.43,-21.44"/>
</a>
</g>
</g>
<!-- Node6 -->
<g id="Node000006" class="node">
<title>Node6</title>
<g id="a_Node000006"><a xlink:href="classttg_1_1device_1_1_device.html#a16a73248d5e812cf4df7d55458faafb4" target="_top" xlink:title=" ">
<polygon fill="white" stroke="#666666" points="580,-62.5 470,-62.5 470,-32.5 580,-32.5 580,-62.5"/>
<text text-anchor="start" x="478" y="-50.5" font-family="Times,serif" font-size="10.00">ttg::device::Device</text>
<text text-anchor="middle" x="525" y="-39.5" font-family="Times,serif" font-size="10.00">::is_host</text>
</a>
</g>
</g>
<!-- Node4&#45;&gt;Node6 -->
<g id="edge8_Node000004_Node000006" class="edge">
<title>Node4&#45;&gt;Node6</title>
<g id="a_edge8_Node000004_Node000006"><a xlink:title=" ">
<path fill="none" stroke="#63b8ff" d="M272.35,-32.34C326.9,-35.63 405.01,-40.33 459.69,-43.63"/>
<polygon fill="#63b8ff" stroke="#63b8ff" points="459.77,-47.14 469.96,-44.25 460.19,-40.15 459.77,-47.14"/>
</a>
</g>
</g>
<!-- Node5&#45;&gt;Node6 -->
<g id="edge5_Node000005_Node000006" class="edge">
<title>Node5&#45;&gt;Node6</title>
<g id="a_edge5_Node000005_Node000006"><a xlink:title=" ">
<path fill="none" stroke="#63b8ff" d="M410.36,-19.09C425.43,-22.86 443.14,-27.29 460.04,-31.51"/>
<polygon fill="#63b8ff" stroke="#63b8ff" points="459.32,-34.94 469.87,-33.97 461.02,-28.15 459.32,-34.94"/>
</a>
</g>
</g>
<!-- Node7 -->
<g id="Node000007" class="node">
<title>Node7</title>
<g id="a_Node000007"><a xlink:href="classttg_1_1device_1_1_device.html#a979477b9cde8927f919c75754d4d8329" target="_top" xlink:title=" ">
<polygon fill="white" stroke="#666666" points="726,-40.5 616,-40.5 616,-10.5 726,-10.5 726,-40.5"/>
<text text-anchor="start" x="624" y="-28.5" font-family="Times,serif" font-size="10.00">ttg::device::Device</text>
<text text-anchor="middle" x="671" y="-17.5" font-family="Times,serif" font-size="10.00">::is_invalid</text>
</a>
</g>
</g>
<!-- Node5&#45;&gt;Node7 -->
<g id="edge7_Node000005_Node000007" class="edge">
<title>Node5&#45;&gt;Node7</title>
<g id="a_edge7_Node000005_Node000007"><a xlink:title=" ">
<path fill="none" stroke="#63b8ff" d="M434.11,-12.83C484.38,-15.53 554.93,-19.32 605.76,-22.05"/>
<polygon fill="#63b8ff" stroke="#63b8ff" points="605.8,-25.56 615.97,-22.6 606.17,-18.57 605.8,-25.56"/>
</a>
</g>
</g>
<!-- Node6&#45;&gt;Node7 -->
<g id="edge6_Node000006_Node000007" class="edge">
<title>Node6&#45;&gt;Node7</title>
<g id="a_edge6_Node000006_Node000007"><a xlink:title=" ">
<path fill="none" stroke="#63b8ff" d="M580.03,-39.25C588.4,-37.97 597.13,-36.63 605.7,-35.32"/>
<polygon fill="#63b8ff" stroke="#63b8ff" points="606.31,-38.77 615.67,-33.8 605.25,-31.85 606.31,-38.77"/>
</a>
</g>
</g>
</g>
</svg>
