<?xml version="1.0" encoding="UTF-8" standalone="no"?>
<!DOCTYPE svg PUBLIC "-//W3C//DTD SVG 1.1//EN"
 "http://www.w3.org/Graphics/SVG/1.1/DTD/svg11.dtd">
<!-- Generated by graphviz version 2.43.0 (0)
 -->
<!-- Title: ttg_parsec::Buffer::is_valid Pages: 1 -->
<!--zoomable 470 -->

<svg id="main" version="1.1" xmlns="http://www.w3.org/2000/svg" xmlns:xlink="http://www.w3.org/1999/xlink" xml:space="preserve" onload="init(evt)">
<style type="text/css"><![CDATA[
.node, .edge {opacity: 0.7;}
.node.selected, .edge.selected {opacity: 1;}
.edge:hover path { stroke: red; }
.edge:hover polygon { stroke: red; fill: red; }
]]></style>

<defs>
  <circle id="rim" cx="0" cy="0" r="7"/>
  <circle id="rim2" cx="0" cy="0" r="3.5"/>
  <g id="zoomPlus">
    <use xlink:href="#rim" fill="#404040"><set attributeName="fill" to="#808080" begin="zoomplus.mouseover" end="zoomplus.mouseout"/></use>
    <path d="M-4,0h8M0,-4v8" fill="none" stroke="white" stroke-width="1.5" pointer-events="none"/>
  </g>
  <g id="zoomMin">
    <use xlink:href="#rim" fill="#404040"><set attributeName="fill" to="#808080" begin="zoomminus.mouseover" end="zoomminus.mouseout"/></use>
    <path d="M-4,0h8" fill="none" stroke="white" stroke-width="1.5" pointer-events="none"/>
  </g>
  <g id="arrowUp" transform="translate(30 24)">
    <use xlink:href="#rim"/>
    <path pointer-events="none" fill="none" stroke="white" stroke-width="1.5" d="M0,-3.0v7 M-2.5,-0.5L0,-3.0L2.5,-0.5"/>
  </g>
  <g id="arrowRight" transform="rotate(90) translate(36 -43)">
    <use xlink:href="#rim"/>
    <path pointer-events="none" fill="none" stroke="white" stroke-width="1.5" d="M0,-3.0v7 M-2.5,-0.5L0,-3.0L2.5,-0.5"/>
  </g>
  <g id="arrowDown" transform="rotate(180) translate(-30 -48)">
    <use xlink:href="#rim"/>
    <path pointer-events="none" fill="none" stroke="white" stroke-width="1.5" d="M0,-3.0v7 M-2.5,-0.5L0,-3.0L2.5,-0.5"/>
  </g>
  <g id="arrowLeft" transform="rotate(270) translate(-36 17)">
    <use xlink:href="#rim"/>
    <path pointer-events="none" fill="none" stroke="white" stroke-width="1.5" d="M0,-3.0v7 M-2.5,-0.5L0,-3.0L2.5,-0.5"/>
  </g>
  <g id="resetDef">
    <use xlink:href="#rim2" fill="#404040"><set attributeName="fill" to="#808080" begin="reset.mouseover" end="reset.mouseout"/></use>
  </g>
</defs>
<script type="application/ecmascript">
var viewWidth = 413;
var viewHeight = 470;
var sectionId = 'dynsection-10';
</script>
<script type="application/ecmascript" xlink:href="svg.min.js"/>
<svg id="graph" class="graph">
<g id="viewport">
<title>ttg_parsec::Buffer::is_valid</title>
<!-- Node1 -->
<g id="Node000001" class="node">
<title>Node1</title>
<g id="a_Node000001"><a xlink:title=" ">
<polygon fill="#999999" stroke="#666666" points="405,-246 298,-246 298,-216 405,-216 405,-246"/>
<text text-anchor="start" x="306" y="-234" font-family="Times,serif" font-size="10.00">ttg_parsec::Buffer</text>
<text text-anchor="middle" x="351.5" y="-223" font-family="Times,serif" font-size="10.00">::is_valid</text>
</a>
</g>
</g>
<!-- Node2 -->
<g id="Node000002" class="node">
<title>Node2</title>
<g id="a_Node000002"><a xlink:href="structttg__parsec_1_1_buffer.html#ad7c9683797b26ee8911ae7cfe4712d50" target="_top" xlink:title=" ">
<polygon fill="white" stroke="#666666" points="262,-462 143,-462 143,-432 262,-432 262,-462"/>
<text text-anchor="start" x="151" y="-450" font-family="Times,serif" font-size="10.00">ttg_parsec::Buffer</text>
<text text-anchor="middle" x="202.5" y="-439" font-family="Times,serif" font-size="10.00">::current_device_ptr</text>
</a>
</g>
</g>
<!-- Node1&#45;&gt;Node2 -->
<g id="edge1_Node000001_Node000002" class="edge">
<title>Node1&#45;&gt;Node2</title>
<g id="a_edge1_Node000001_Node000002"><a xlink:title=" ">
<path fill="none" stroke="#63b8ff" d="M345.23,-255.99C335.52,-296.3 311.14,-375.91 262,-423 258.43,-426.42 254.31,-429.38 249.94,-431.93"/>
<polygon fill="#63b8ff" stroke="#63b8ff" points="348.66,-256.71 347.49,-246.18 341.84,-255.14 348.66,-256.71"/>
</a>
</g>
</g>
<!-- Node3 -->
<g id="Node000003" class="node">
<title>Node3</title>
<g id="a_Node000003"><a xlink:href="structttg__parsec_1_1_buffer.html#a87cfa2924a1165608d8180337682cdce" target="_top" xlink:title=" ">
<polygon fill="white" stroke="#666666" points="262,-414 143,-414 143,-384 262,-384 262,-414"/>
<text text-anchor="start" x="151" y="-402" font-family="Times,serif" font-size="10.00">ttg_parsec::Buffer</text>
<text text-anchor="middle" x="202.5" y="-391" font-family="Times,serif" font-size="10.00">::current_device_ptr</text>
</a>
</g>
</g>
<!-- Node1&#45;&gt;Node3 -->
<g id="edge2_Node000001_Node000003" class="edge">
<title>Node1&#45;&gt;Node3</title>
<g id="a_edge2_Node000001_Node000003"><a xlink:title=" ">
<path fill="none" stroke="#63b8ff" d="M341.09,-255.6C327.85,-287.2 300.94,-341.9 262,-375 257.99,-378.41 253.42,-381.39 248.65,-383.97"/>
<polygon fill="#63b8ff" stroke="#63b8ff" points="344.38,-256.79 344.9,-246.21 337.89,-254.15 344.38,-256.79"/>
</a>
</g>
</g>
<!-- Node4 -->
<g id="Node000004" class="node">
<title>Node4</title>
<g id="a_Node000004"><a xlink:href="structttg__parsec_1_1_buffer.html#a75237a0fe188810d1741db8091603c01" target="_top" xlink:title=" ">
<polygon fill="white" stroke="#666666" points="256,-366 149,-366 149,-336 256,-336 256,-366"/>
<text text-anchor="start" x="157" y="-354" font-family="Times,serif" font-size="10.00">ttg_parsec::Buffer</text>
<text text-anchor="middle" x="202.5" y="-343" font-family="Times,serif" font-size="10.00">::device_ptr_on</text>
</a>
</g>
</g>
<!-- Node1&#45;&gt;Node4 -->
<g id="edge3_Node000001_Node000004" class="edge">
<title>Node1&#45;&gt;Node4</title>
<g id="a_edge3_Node000001_Node000004"><a xlink:title=" ">
<path fill="none" stroke="#63b8ff" d="M333.69,-254.44C317.4,-275.75 290.95,-306.87 262,-327 257.22,-330.32 251.92,-333.3 246.51,-335.93"/>
<polygon fill="#63b8ff" stroke="#63b8ff" points="336.64,-256.34 339.83,-246.24 331.03,-252.15 336.64,-256.34"/>
</a>
</g>
</g>
<!-- Node5 -->
<g id="Node000005" class="node">
<title>Node5</title>
<g id="a_Node000005"><a xlink:href="structttg__parsec_1_1_buffer.html#a14b779203a13f74eb18077dd76aa2462" target="_top" xlink:title=" ">
<polygon fill="white" stroke="#666666" points="256,-318 149,-318 149,-288 256,-288 256,-318"/>
<text text-anchor="start" x="157" y="-306" font-family="Times,serif" font-size="10.00">ttg_parsec::Buffer</text>
<text text-anchor="middle" x="202.5" y="-295" font-family="Times,serif" font-size="10.00">::device_ptr_on</text>
</a>
</g>
</g>
<!-- Node1&#45;&gt;Node5 -->
<g id="edge4_Node000001_Node000005" class="edge">
<title>Node1&#45;&gt;Node5</title>
<g id="a_edge4_Node000001_Node000005"><a xlink:title=" ">
<path fill="none" stroke="#63b8ff" d="M315.5,-251.11C299.41,-260.06 279.95,-270.48 262,-279 255.55,-282.06 248.61,-285.11 241.84,-287.97"/>
<polygon fill="#63b8ff" stroke="#63b8ff" points="317.54,-253.98 324.55,-246.03 314.12,-247.87 317.54,-253.98"/>
</a>
</g>
</g>
<!-- Node6 -->
<g id="Node000006" class="node">
<title>Node6</title>
<g id="a_Node000006"><a xlink:href="structttg__parsec_1_1_buffer.html#a6d94b7f71accdae0bfd9c708006d359e" target="_top" xlink:title=" ">
<polygon fill="white" stroke="#666666" points="259.5,-270 145.5,-270 145.5,-240 259.5,-240 259.5,-270"/>
<text text-anchor="start" x="153.5" y="-258" font-family="Times,serif" font-size="10.00">ttg_parsec::Buffer</text>
<text text-anchor="middle" x="202.5" y="-247" font-family="Times,serif" font-size="10.00">::get_owner_device</text>
</a>
</g>
</g>
<!-- Node1&#45;&gt;Node6 -->
<g id="edge5_Node000001_Node000006" class="edge">
<title>Node1&#45;&gt;Node6</title>
<g id="a_edge5_Node000001_Node000006"><a xlink:title=" ">
<path fill="none" stroke="#63b8ff" d="M287.78,-241.24C278.39,-242.77 268.75,-244.35 259.51,-245.85"/>
<polygon fill="#63b8ff" stroke="#63b8ff" points="288.54,-244.66 297.84,-239.6 287.41,-237.75 288.54,-244.66"/>
</a>
</g>
</g>
<!-- Node7 -->
<g id="Node000007" class="node">
<title>Node7</title>
<g id="a_Node000007"><a xlink:href="structttg__parsec_1_1_buffer.html#a57dc7b47c838715a12d2a59fb3d82b76" target="_top" xlink:title=" ">
<polygon fill="white" stroke="#666666" points="256,-222 149,-222 149,-192 256,-192 256,-222"/>
<text text-anchor="start" x="157" y="-210" font-family="Times,serif" font-size="10.00">ttg_parsec::Buffer</text>
<text text-anchor="middle" x="202.5" y="-199" font-family="Times,serif" font-size="10.00">::is_valid_on</text>
</a>
</g>
</g>
<!-- Node1&#45;&gt;Node7 -->
<g id="edge6_Node000001_Node000007" class="edge">
<title>Node1&#45;&gt;Node7</title>
<g id="a_edge6_Node000001_Node000007"><a xlink:title=" ">
<path fill="none" stroke="#63b8ff" d="M287.88,-220.78C277.35,-219.06 266.53,-217.29 256.28,-215.62"/>
<polygon fill="#63b8ff" stroke="#63b8ff" points="287.41,-224.25 297.84,-222.4 288.54,-217.34 287.41,-224.25"/>
</a>
</g>
</g>
<!-- Node10 -->
<g id="Node000010" class="node">
<title>Node10</title>
<g id="a_Node000010"><a xlink:href="structttg__parsec_1_1_buffer.html#ac8c052f38d5f4afbbbede1ae4b64f798" target="_top" xlink:title=" ">
<polygon fill="white" stroke="#666666" points="259,-174 146,-174 146,-144 259,-144 259,-174"/>
<text text-anchor="start" x="154" y="-162" font-family="Times,serif" font-size="10.00">ttg_parsec::Buffer</text>
<text text-anchor="middle" x="202.5" y="-151" font-family="Times,serif" font-size="10.00">::owner_device_ptr</text>
</a>
</g>
</g>
<!-- Node1&#45;&gt;Node10 -->
<g id="edge9_Node000001_Node000010" class="edge">
<title>Node1&#45;&gt;Node10</title>
<g id="a_edge9_Node000001_Node000010"><a xlink:title=" ">
<path fill="none" stroke="#63b8ff" d="M315.5,-210.89C299.41,-201.94 279.95,-191.52 262,-183 255.55,-179.94 248.61,-176.89 241.84,-174.03"/>
<polygon fill="#63b8ff" stroke="#63b8ff" points="314.12,-214.13 324.55,-215.97 317.54,-208.02 314.12,-214.13"/>
</a>
</g>
</g>
<!-- Node11 -->
<g id="Node000011" class="node">
<title>Node11</title>
<g id="a_Node000011"><a xlink:href="structttg__parsec_1_1_buffer.html#a36b597388d7fa9a9e02d2183df2bd53d" target="_top" xlink:title=" ">
<polygon fill="white" stroke="#666666" points="259,-126 146,-126 146,-96 259,-96 259,-126"/>
<text text-anchor="start" x="154" y="-114" font-family="Times,serif" font-size="10.00">ttg_parsec::Buffer</text>
<text text-anchor="middle" x="202.5" y="-103" font-family="Times,serif" font-size="10.00">::owner_device_ptr</text>
</a>
</g>
</g>
<!-- Node1&#45;&gt;Node11 -->
<g id="edge10_Node000001_Node000011" class="edge">
<title>Node1&#45;&gt;Node11</title>
<g id="a_edge10_Node000001_Node000011"><a xlink:title=" ">
<path fill="none" stroke="#63b8ff" d="M333.69,-207.56C317.4,-186.25 290.95,-155.13 262,-135 257.22,-131.68 251.92,-128.7 246.51,-126.07"/>
<polygon fill="#63b8ff" stroke="#63b8ff" points="331.03,-209.85 339.83,-215.76 336.64,-205.66 331.03,-209.85"/>
</a>
</g>
</g>
<!-- Node12 -->
<g id="Node000012" class="node">
<title>Node12</title>
<g id="a_Node000012"><a xlink:href="structttg__parsec_1_1_buffer.html#ace745d5a5d55e60bde6b8a09b138192d" target="_top" xlink:title=" ">
<polygon fill="white" stroke="#666666" points="259,-78 146,-78 146,-48 259,-48 259,-78"/>
<text text-anchor="start" x="154" y="-66" font-family="Times,serif" font-size="10.00">ttg_parsec::Buffer</text>
<text text-anchor="middle" x="202.5" y="-55" font-family="Times,serif" font-size="10.00">::set_owner_device</text>
</a>
</g>
</g>
<!-- Node1&#45;&gt;Node12 -->
<g id="edge11_Node000001_Node000012" class="edge">
<title>Node1&#45;&gt;Node12</title>
<g id="a_edge11_Node000001_Node000012"><a xlink:title=" ">
<path fill="none" stroke="#63b8ff" d="M341.09,-206.4C327.85,-174.8 300.94,-120.1 262,-87 257.99,-83.59 253.42,-80.61 248.65,-78.03"/>
<polygon fill="#63b8ff" stroke="#63b8ff" points="337.89,-207.85 344.9,-215.79 344.38,-205.21 337.89,-207.85"/>
</a>
</g>
</g>
<!-- Node13 -->
<g id="Node000013" class="node">
<title>Node13</title>
<g id="a_Node000013"><a xlink:href="structttg__parsec_1_1_buffer.html#aae442b3f2d8074b03be78bad70c2f9d1" target="_top" xlink:title=" ">
<polygon fill="white" stroke="#666666" points="256,-30 149,-30 149,0 256,0 256,-30"/>
<text text-anchor="start" x="157" y="-18" font-family="Times,serif" font-size="10.00">ttg_parsec::Buffer</text>
<text text-anchor="middle" x="202.5" y="-7" font-family="Times,serif" font-size="10.00">::unpin</text>
</a>
</g>
</g>
<!-- Node1&#45;&gt;Node13 -->
<g id="edge12_Node000001_Node000013" class="edge">
<title>Node1&#45;&gt;Node13</title>
<g id="a_edge12_Node000001_Node000013"><a xlink:title=" ">
<path fill="none" stroke="#63b8ff" d="M345.23,-206.01C335.52,-165.7 311.14,-86.09 262,-39 258.43,-35.58 254.31,-32.62 249.94,-30.07"/>
<polygon fill="#63b8ff" stroke="#63b8ff" points="341.84,-206.86 347.49,-215.82 348.66,-205.29 341.84,-206.86"/>
</a>
</g>
</g>
<!-- Node8 -->
<g id="Node000008" class="node">
<title>Node8</title>
<g id="a_Node000008"><a xlink:href="structttg__parsec_1_1_buffer.html#aa172f84d2b71ad72b065bf2973b47ca4" target="_top" xlink:title=" ">
<polygon fill="white" stroke="#666666" points="107,-246 0,-246 0,-216 107,-216 107,-246"/>
<text text-anchor="start" x="8" y="-234" font-family="Times,serif" font-size="10.00">ttg_parsec::Buffer</text>
<text text-anchor="middle" x="53.5" y="-223" font-family="Times,serif" font-size="10.00">::add_device</text>
</a>
</g>
</g>
<!-- Node7&#45;&gt;Node8 -->
<g id="edge7_Node000007_Node000008" class="edge">
<title>Node7&#45;&gt;Node8</title>
<g id="a_edge7_Node000007_Node000008"><a xlink:title=" ">
<path fill="none" stroke="#63b8ff" d="M138.88,-217.22C128.35,-218.94 117.53,-220.71 107.28,-222.38"/>
<polygon fill="#63b8ff" stroke="#63b8ff" points="139.54,-220.66 148.84,-215.6 138.41,-213.75 139.54,-220.66"/>
</a>
</g>
</g>
<!-- Node9 -->
<g id="Node000009" class="node">
<title>Node9</title>
<g id="a_Node000009"><a xlink:href="structttg__parsec_1_1_buffer.html#ac03d171f76a9ebf145bdcc2b991cbf5e" target="_top" xlink:title=" ">
<polygon fill="white" stroke="#666666" points="107,-198 0,-198 0,-168 107,-168 107,-198"/>
<text text-anchor="start" x="8" y="-186" font-family="Times,serif" font-size="10.00">ttg_parsec::Buffer</text>
<text text-anchor="middle" x="53.5" y="-175" font-family="Times,serif" font-size="10.00">::allocate_on</text>
</a>
</g>
</g>
<!-- Node7&#45;&gt;Node9 -->
<g id="edge8_Node000007_Node000009" class="edge">
<title>Node7&#45;&gt;Node9</title>
<g id="a_edge8_Node000007_Node000009"><a xlink:title=" ">
<path fill="none" stroke="#63b8ff" d="M138.88,-196.78C128.35,-195.06 117.53,-193.29 107.28,-191.62"/>
<polygon fill="#63b8ff" stroke="#63b8ff" points="138.41,-200.25 148.84,-198.4 139.54,-193.34 138.41,-200.25"/>
</a>
</g>
</g>
<!-- Node14 -->
<g id="Node000014" class="node">
<title>Node14</title>
<g id="a_Node000014"><a xlink:href="structttg__parsec_1_1_buffer.html#a436632d1ae4608b3e9747704bbf628a7" target="_top" xlink:title=" ">
<polygon fill="white" stroke="#666666" points="107,-30 0,-30 0,0 107,0 107,-30"/>
<text text-anchor="start" x="8" y="-18" font-family="Times,serif" font-size="10.00">ttg_parsec::Buffer</text>
<text text-anchor="middle" x="53.5" y="-7" font-family="Times,serif" font-size="10.00">::~Buffer</text>
</a>
</g>
</g>
<!-- Node13&#45;&gt;Node14 -->
<g id="edge13_Node000013_Node000014" class="edge">
<title>Node13&#45;&gt;Node14</title>
<g id="a_edge13_Node000013_Node000014"><a xlink:title=" ">
<path fill="none" stroke="#63b8ff" d="M138.55,-15C128.13,-15 117.42,-15 107.28,-15"/>
<polygon fill="#63b8ff" stroke="#63b8ff" points="138.84,-18.5 148.84,-15 138.84,-11.5 138.84,-18.5"/>
</a>
</g>
</g>
</g>
</svg>

<g id="navigator" transform="translate(0 0)" fill="#404254">
  <rect fill="#f2f5e9" fill-opacity="0.5" stroke="#606060" stroke-width=".5" x="0" y="0" width="60" height="60"/>
  <use id="zoomplus" xlink:href="#zoomPlus" x="17" y="9" onmousedown="handleZoom(evt,'in')"/>
  <use id="zoomminus" xlink:href="#zoomMin" x="42" y="9" onmousedown="handleZoom(evt,'out')"/>
  <use id="reset" xlink:href="#resetDef" x="30" y="36" onmousedown="handleReset()"/>
   <use id="arrowup" xlink:href="#arrowUp" x="0" y="0" onmousedown="handlePan(0,-1)"/>
  <use id="arrowright" xlink:href="#arrowRight" x="0" y="0" onmousedown="handlePan(1,0)"/>
  <use id="arrowdown" xlink:href="#arrowDown" x="0" y="0" onmousedown="handlePan(0,1)"/>
  <use id="arrowleft" xlink:href="#arrowLeft" x="0" y="0" onmousedown="handlePan(-1,0)"/>
</g>
<svg viewBox="0 0 15 15" width="100%" height="30px" preserveAspectRatio="xMaxYMin meet">
 <g id="arrow_out" transform="scale(0.3 0.3)">
  <a xlink:href="structttg__parsec_1_1_buffer_a3780a9611c746e0d1ea617720d469ad5_icgraph_org.svg" target="_base">
   <rect id="button" ry="5" rx="5" y="6" x="6" height="38" width="38"
        fill="#f2f5e9" fill-opacity="0.5" stroke="#606060" stroke-width="1.0"/>
   <path id="arrow"
     d="M 11.500037,31.436501 C 11.940474,20.09759 22.043105,11.32322 32.158766,21.979434 L 37.068811,17.246167 C 37.068811,17.246167 37.088388,32 37.088388,32 L 22.160133,31.978069 C 22.160133,31.978069 26.997745,27.140456 26.997745,27.140456 C 18.528582,18.264221 13.291696,25.230495 11.500037,31.436501 z"
     style="fill:#404040;"/>
  </a>
 </g>
</svg>

<style type='text/css'>
<![CDATA[
[data-mouse-over-selected='false'] { opacity: 0.7; }
[data-mouse-over-selected='true']  { opacity: 1.0; }
]]>
</style>
<script type="application/ecmascript"><![CDATA[
document.addEventListener('DOMContentLoaded', (event) => {
  highlightEdges();
  highlightAdjacentNodes();
});
]]></script>
</svg>
