<?xml version="1.0" encoding="UTF-8" standalone="no"?>
<!DOCTYPE svg PUBLIC "-//W3C//DTD SVG 1.1//EN"
 "http://www.w3.org/Graphics/SVG/1.1/DTD/svg11.dtd">
<!-- Generated by graphviz version 2.43.0 (0)
 -->
<!-- Title: ttg::SequencedKeysConstraint::complete_key_impl Pages: 1 -->
<svg width="388pt" height="182pt"
 viewBox="0.00 0.00 388.00 182.00" xmlns="http://www.w3.org/2000/svg" xmlns:xlink="http://www.w3.org/1999/xlink">
<g id="graph0" class="graph" transform="scale(1 1) rotate(0) translate(4 178)">
<title>ttg::SequencedKeysConstraint::complete_key_impl</title>
<!-- Node1 -->
<g id="Node000001" class="node">
<title>Node1</title>
<g id="a_Node000001"><a xlink:title=" ">
<polygon fill="#999999" stroke="#666666" points="380,-102 208,-102 208,-72 380,-72 380,-102"/>
<text text-anchor="start" x="216" y="-90" font-family="Times,serif" font-size="10.00">ttg::SequencedKeysConstraint</text>
<text text-anchor="middle" x="294" y="-79" font-family="Times,serif" font-size="10.00">::complete_key_impl</text>
</a>
</g>
</g>
<!-- Node2 -->
<g id="Node000002" class="node">
<title>Node2</title>
<g id="a_Node000002"><a xlink:href="structttg_1_1_sequenced_keys_constraint.html#ac16c48fccdec317c181ba2d34018b43b" target="_top" xlink:title=" ">
<polygon fill="white" stroke="#666666" points="172,-174 0,-174 0,-144 172,-144 172,-174"/>
<text text-anchor="start" x="8" y="-162" font-family="Times,serif" font-size="10.00">ttg::SequencedKeysConstraint</text>
<text text-anchor="middle" x="86" y="-151" font-family="Times,serif" font-size="10.00">::complete</text>
</a>
</g>
</g>
<!-- Node1&#45;&gt;Node2 -->
<g id="edge1_Node000001_Node000002" class="edge">
<title>Node1&#45;&gt;Node2</title>
<g id="a_edge1_Node000001_Node000002"><a xlink:title=" ">
<path fill="none" stroke="#63b8ff" d="M248.51,-105.91C225.82,-115.24 197.66,-126.31 172,-135 162.85,-138.1 153.06,-141.12 143.49,-143.93"/>
<polygon fill="#63b8ff" stroke="#63b8ff" points="249.98,-109.09 257.88,-102.04 247.3,-102.63 249.98,-109.09"/>
</a>
</g>
</g>
<!-- Node3 -->
<g id="Node000003" class="node">
<title>Node3</title>
<g id="a_Node000003"><a xlink:href="structttg_1_1_sequenced_keys_constraint.html#a00a9ade2ebc0637dc817df47838f3347" target="_top" xlink:title=" ">
<polygon fill="white" stroke="#666666" points="172,-126 0,-126 0,-96 172,-96 172,-126"/>
<text text-anchor="start" x="8" y="-114" font-family="Times,serif" font-size="10.00">ttg::SequencedKeysConstraint</text>
<text text-anchor="middle" x="86" y="-103" font-family="Times,serif" font-size="10.00">::complete</text>
</a>
</g>
</g>
<!-- Node1&#45;&gt;Node3 -->
<g id="edge2_Node000001_Node000003" class="edge">
<title>Node1&#45;&gt;Node3</title>
<g id="a_edge2_Node000001_Node000003"><a xlink:title=" ">
<path fill="none" stroke="#63b8ff" d="M197.76,-98.1C189.24,-99.09 180.64,-100.09 172.21,-101.07"/>
<polygon fill="#63b8ff" stroke="#63b8ff" points="198.2,-101.57 207.72,-96.93 197.39,-94.62 198.2,-101.57"/>
</a>
</g>
</g>
<!-- Node4 -->
<g id="Node000004" class="node">
<title>Node4</title>
<g id="a_Node000004"><a xlink:href="structttg_1_1_sequenced_keys_constraint.html#a08b8c1cdc11e13758e5ee3d185e804c0" target="_top" xlink:title=" ">
<polygon fill="white" stroke="#666666" points="172,-78 0,-78 0,-48 172,-48 172,-78"/>
<text text-anchor="start" x="8" y="-66" font-family="Times,serif" font-size="10.00">ttg::SequencedKeysConstraint</text>
<text text-anchor="middle" x="86" y="-55" font-family="Times,serif" font-size="10.00">::complete</text>
</a>
</g>
</g>
<!-- Node1&#45;&gt;Node4 -->
<g id="edge3_Node000001_Node000004" class="edge">
<title>Node1&#45;&gt;Node4</title>
<g id="a_edge3_Node000001_Node000004"><a xlink:title=" ">
<path fill="none" stroke="#63b8ff" d="M197.76,-75.9C189.24,-74.91 180.64,-73.91 172.21,-72.93"/>
<polygon fill="#63b8ff" stroke="#63b8ff" points="197.39,-79.38 207.72,-77.07 198.2,-72.43 197.39,-79.38"/>
</a>
</g>
</g>
<!-- Node5 -->
<g id="Node000005" class="node">
<title>Node5</title>
<g id="a_Node000005"><a xlink:href="structttg_1_1_sequenced_keys_constraint.html#acbfd8bdcfaf441416d9f11e629b3a0db" target="_top" xlink:title=" ">
<polygon fill="white" stroke="#666666" points="172,-30 0,-30 0,0 172,0 172,-30"/>
<text text-anchor="start" x="8" y="-18" font-family="Times,serif" font-size="10.00">ttg::SequencedKeysConstraint</text>
<text text-anchor="middle" x="86" y="-7" font-family="Times,serif" font-size="10.00">::complete</text>
</a>
</g>
</g>
<!-- Node1&#45;&gt;Node5 -->
<g id="edge4_Node000001_Node000005" class="edge">
<title>Node1&#45;&gt;Node5</title>
<g id="a_edge4_Node000001_Node000005"><a xlink:title=" ">
<path fill="none" stroke="#63b8ff" d="M248.51,-68.09C225.82,-58.76 197.66,-47.69 172,-39 162.85,-35.9 153.06,-32.88 143.49,-30.07"/>
<polygon fill="#63b8ff" stroke="#63b8ff" points="247.3,-71.37 257.88,-71.96 249.98,-64.91 247.3,-71.37"/>
</a>
</g>
</g>
</g>
</svg>
