<?xml version="1.0" encoding="UTF-8" standalone="no"?>
<!DOCTYPE svg PUBLIC "-//W3C//DTD SVG 1.1//EN"
 "http://www.w3.org/Graphics/SVG/1.1/DTD/svg11.dtd">
<!-- Generated by graphviz version 2.43.0 (0)
 -->
<!-- Title: ttg_parsec::Buffer::allocate_on Pages: 1 -->
<svg width="877pt" height="181pt"
 viewBox="0.00 0.00 877.00 181.00" xmlns="http://www.w3.org/2000/svg" xmlns:xlink="http://www.w3.org/1999/xlink">
<g id="graph0" class="graph" transform="scale(1 1) rotate(0) translate(4 177)">
<title>ttg_parsec::Buffer::allocate_on</title>
<!-- Node1 -->
<g id="Node000001" class="node">
<title>Node1</title>
<g id="a_Node000001"><a xlink:title=" ">
<polygon fill="#999999" stroke="#666666" points="107,-105 0,-105 0,-75 107,-75 107,-105"/>
<text text-anchor="start" x="8" y="-93" font-family="Times,serif" font-size="10.00">ttg_parsec::Buffer</text>
<text text-anchor="middle" x="53.5" y="-82" font-family="Times,serif" font-size="10.00">::allocate_on</text>
</a>
</g>
</g>
<!-- Node2 -->
<g id="Node000002" class="node">
<title>Node2</title>
<g id="a_Node000002"><a xlink:href="classttg_1_1device_1_1_device.html#a40e2fd28be27282a6695d102f7c5fc1a" target="_top" xlink:title=" ">
<polygon fill="white" stroke="#666666" points="569,-173 459,-173 459,-143 569,-143 569,-173"/>
<text text-anchor="start" x="467" y="-161" font-family="Times,serif" font-size="10.00">ttg::device::Device</text>
<text text-anchor="middle" x="514" y="-150" font-family="Times,serif" font-size="10.00">::is_device</text>
</a>
</g>
</g>
<!-- Node1&#45;&gt;Node2 -->
<g id="edge1_Node000001_Node000002" class="edge">
<title>Node1&#45;&gt;Node2</title>
<g id="a_edge1_Node000001_Node000002"><a xlink:title=" ">
<path fill="none" stroke="#63b8ff" d="M77.09,-105C94.36,-115.65 119.19,-129.2 143,-136 246.87,-165.65 373.6,-165.88 448.55,-162.52"/>
<polygon fill="#63b8ff" stroke="#63b8ff" points="448.96,-166 458.78,-162.02 448.62,-159.01 448.96,-166"/>
</a>
</g>
</g>
<!-- Node5 -->
<g id="Node000005" class="node">
<title>Node5</title>
<g id="a_Node000005"><a xlink:href="structttg__parsec_1_1_buffer.html#a57dc7b47c838715a12d2a59fb3d82b76" target="_top" xlink:title=" ">
<polygon fill="white" stroke="#666666" points="250,-127 143,-127 143,-97 250,-97 250,-127"/>
<text text-anchor="start" x="151" y="-115" font-family="Times,serif" font-size="10.00">ttg_parsec::Buffer</text>
<text text-anchor="middle" x="196.5" y="-104" font-family="Times,serif" font-size="10.00">::is_valid_on</text>
</a>
</g>
</g>
<!-- Node1&#45;&gt;Node5 -->
<g id="edge4_Node000001_Node000005" class="edge">
<title>Node1&#45;&gt;Node5</title>
<g id="a_edge4_Node000001_Node000005"><a xlink:title=" ">
<path fill="none" stroke="#63b8ff" d="M107,-98.19C115.44,-99.51 124.26,-100.88 132.9,-102.23"/>
<polygon fill="#63b8ff" stroke="#63b8ff" points="132.53,-105.72 142.95,-103.8 133.61,-98.8 132.53,-105.72"/>
</a>
</g>
</g>
<!-- Node7 -->
<g id="Node000007" class="node">
<title>Node7</title>
<g id="a_Node000007"><a xlink:href="namespacettg__parsec_1_1detail.html#a4e193da802fd145fa18041dd40ad7df9" target="_top" xlink:title=" ">
<polygon fill="white" stroke="#666666" points="415,-89.5 286,-89.5 286,-48.5 415,-48.5 415,-89.5"/>
<text text-anchor="start" x="294" y="-77.5" font-family="Times,serif" font-size="10.00">ttg_parsec::detail</text>
<text text-anchor="start" x="294" y="-66.5" font-family="Times,serif" font-size="10.00">::ttg_device_to_parsec</text>
<text text-anchor="middle" x="350.5" y="-55.5" font-family="Times,serif" font-size="10.00">_device</text>
</a>
</g>
</g>
<!-- Node1&#45;&gt;Node7 -->
<g id="edge13_Node000001_Node000007" class="edge">
<title>Node1&#45;&gt;Node7</title>
<g id="a_edge13_Node000001_Node000007"><a xlink:title=" ">
<path fill="none" stroke="#63b8ff" d="M107.24,-86.25C154.16,-82.91 223.27,-77.99 275.68,-74.26"/>
<polygon fill="#63b8ff" stroke="#63b8ff" points="276.2,-77.73 285.93,-73.53 275.7,-70.74 276.2,-77.73"/>
</a>
</g>
</g>
<!-- Node9 -->
<g id="Node000009" class="node">
<title>Node9</title>
<g id="a_Node000009"><a xlink:href="structttg__parsec_1_1_buffer.html#adccefc633ed38cbaa10b9b49a530254d" target="_top" xlink:title=" ">
<polygon fill="white" stroke="#666666" points="250,-36 143,-36 143,-6 250,-6 250,-36"/>
<text text-anchor="start" x="151" y="-24" font-family="Times,serif" font-size="10.00">ttg_parsec::Buffer</text>
<text text-anchor="middle" x="196.5" y="-13" font-family="Times,serif" font-size="10.00">::reset</text>
</a>
</g>
</g>
<!-- Node1&#45;&gt;Node9 -->
<g id="edge11_Node000001_Node000009" class="edge">
<title>Node1&#45;&gt;Node9</title>
<g id="a_edge11_Node000001_Node000009"><a xlink:title=" ">
<path fill="none" stroke="#63b8ff" d="M85.44,-74.86C106.01,-64.79 133.23,-51.47 155.45,-40.6"/>
<polygon fill="#63b8ff" stroke="#63b8ff" points="157.19,-43.65 164.63,-36.11 154.11,-37.36 157.19,-43.65"/>
</a>
</g>
</g>
<!-- Node3 -->
<g id="Node000003" class="node">
<title>Node3</title>
<g id="a_Node000003"><a xlink:href="classttg_1_1device_1_1_device.html#a16a73248d5e812cf4df7d55458faafb4" target="_top" xlink:title=" ">
<polygon fill="white" stroke="#666666" points="723,-125 613,-125 613,-95 723,-95 723,-125"/>
<text text-anchor="start" x="621" y="-113" font-family="Times,serif" font-size="10.00">ttg::device::Device</text>
<text text-anchor="middle" x="668" y="-102" font-family="Times,serif" font-size="10.00">::is_host</text>
</a>
</g>
</g>
<!-- Node2&#45;&gt;Node3 -->
<g id="edge2_Node000002_Node000003" class="edge">
<title>Node2&#45;&gt;Node3</title>
<g id="a_edge2_Node000002_Node000003"><a xlink:title=" ">
<path fill="none" stroke="#63b8ff" d="M562.68,-142.94C577.53,-138.25 594.07,-133.03 609.52,-128.15"/>
<polygon fill="#63b8ff" stroke="#63b8ff" points="611.01,-131.35 619.49,-125 608.9,-124.68 611.01,-131.35"/>
</a>
</g>
</g>
<!-- Node4 -->
<g id="Node000004" class="node">
<title>Node4</title>
<g id="a_Node000004"><a xlink:href="classttg_1_1device_1_1_device.html#a979477b9cde8927f919c75754d4d8329" target="_top" xlink:title=" ">
<polygon fill="white" stroke="#666666" points="869,-103 759,-103 759,-73 869,-73 869,-103"/>
<text text-anchor="start" x="767" y="-91" font-family="Times,serif" font-size="10.00">ttg::device::Device</text>
<text text-anchor="middle" x="814" y="-80" font-family="Times,serif" font-size="10.00">::is_invalid</text>
</a>
</g>
</g>
<!-- Node3&#45;&gt;Node4 -->
<g id="edge3_Node000003_Node000004" class="edge">
<title>Node3&#45;&gt;Node4</title>
<g id="a_edge3_Node000003_Node000004"><a xlink:title=" ">
<path fill="none" stroke="#63b8ff" d="M723.03,-101.75C731.4,-100.47 740.13,-99.13 748.7,-97.82"/>
<polygon fill="#63b8ff" stroke="#63b8ff" points="749.31,-101.27 758.67,-96.3 748.25,-94.35 749.31,-101.27"/>
</a>
</g>
</g>
<!-- Node6 -->
<g id="Node000006" class="node">
<title>Node6</title>
<g id="a_Node000006"><a xlink:href="structttg__parsec_1_1_buffer.html#a3780a9611c746e0d1ea617720d469ad5" target="_top" xlink:title=" ">
<polygon fill="white" stroke="#666666" points="404,-138 297,-138 297,-108 404,-108 404,-138"/>
<text text-anchor="start" x="305" y="-126" font-family="Times,serif" font-size="10.00">ttg_parsec::Buffer</text>
<text text-anchor="middle" x="350.5" y="-115" font-family="Times,serif" font-size="10.00">::is_valid</text>
</a>
</g>
</g>
<!-- Node5&#45;&gt;Node6 -->
<g id="edge5_Node000005_Node000006" class="edge">
<title>Node5&#45;&gt;Node6</title>
<g id="a_edge5_Node000005_Node000006"><a xlink:title=" ">
<path fill="none" stroke="#63b8ff" d="M250.24,-115.82C262.03,-116.67 274.64,-117.58 286.79,-118.46"/>
<polygon fill="#63b8ff" stroke="#63b8ff" points="286.63,-121.96 296.86,-119.19 287.14,-114.98 286.63,-121.96"/>
</a>
</g>
</g>
<!-- Node5&#45;&gt;Node7 -->
<g id="edge6_Node000005_Node000007" class="edge">
<title>Node5&#45;&gt;Node7</title>
<g id="a_edge6_Node000005_Node000007"><a xlink:title=" ">
<path fill="none" stroke="#63b8ff" d="M250.24,-97.08C258.58,-94.72 267.35,-92.24 276.06,-89.77"/>
<polygon fill="#63b8ff" stroke="#63b8ff" points="277.19,-93.09 285.86,-87 275.29,-86.36 277.19,-93.09"/>
</a>
</g>
</g>
<!-- Node7&#45;&gt;Node3 -->
<g id="edge10_Node000007_Node000003" class="edge">
<title>Node7&#45;&gt;Node3</title>
<g id="a_edge10_Node000007_Node000003"><a xlink:title=" ">
<path fill="none" stroke="#63b8ff" d="M415.06,-81.99C426.97,-84.18 439.34,-86.3 451,-88 501.76,-95.42 559.59,-101.17 602.63,-104.92"/>
<polygon fill="#63b8ff" stroke="#63b8ff" points="602.43,-108.42 612.69,-105.79 603.03,-101.44 602.43,-108.42"/>
</a>
</g>
</g>
<!-- Node8 -->
<g id="Node000008" class="node">
<title>Node8</title>
<g id="a_Node000008"><a xlink:href="classttg_1_1device_1_1_device.html#acf0992ecbfbc2c91de0452122b06fe81" target="_top" xlink:title=" ">
<polygon fill="white" stroke="#666666" points="577,-78.5 451,-78.5 451,-59.5 577,-59.5 577,-78.5"/>
<text text-anchor="middle" x="514" y="-66.5" font-family="Times,serif" font-size="10.00">ttg::device::Device::id</text>
</a>
</g>
</g>
<!-- Node7&#45;&gt;Node8 -->
<g id="edge7_Node000007_Node000008" class="edge">
<title>Node7&#45;&gt;Node8</title>
<g id="a_edge7_Node000007_Node000008"><a xlink:title=" ">
<path fill="none" stroke="#63b8ff" d="M415.33,-69C423.67,-69 432.25,-69 440.72,-69"/>
<polygon fill="#63b8ff" stroke="#63b8ff" points="440.95,-72.5 450.95,-69 440.95,-65.5 440.95,-72.5"/>
</a>
</g>
</g>
<!-- Node8&#45;&gt;Node3 -->
<g id="edge8_Node000008_Node000003" class="edge">
<title>Node8&#45;&gt;Node3</title>
<g id="a_edge8_Node000008_Node000003"><a xlink:title=" ">
<path fill="none" stroke="#63b8ff" d="M550.25,-78.51C566.01,-82.76 585.09,-87.91 603.22,-92.8"/>
<polygon fill="#63b8ff" stroke="#63b8ff" points="602.31,-96.18 612.88,-95.4 604.13,-89.42 602.31,-96.18"/>
</a>
</g>
</g>
<!-- Node8&#45;&gt;Node4 -->
<g id="edge9_Node000008_Node000004" class="edge">
<title>Node8&#45;&gt;Node4</title>
<g id="a_edge9_Node000008_Node000004"><a xlink:title=" ">
<path fill="none" stroke="#63b8ff" d="M577.11,-72.96C627.38,-76.16 697.93,-80.66 748.76,-83.9"/>
<polygon fill="#63b8ff" stroke="#63b8ff" points="748.77,-87.41 758.97,-84.56 749.21,-80.43 748.77,-87.41"/>
</a>
</g>
</g>
<!-- Node10 -->
<g id="Node000010" class="node">
<title>Node10</title>
<g id="a_Node000010"><a xlink:href="structttg__parsec_1_1_buffer.html#ac3235b5be36eef6371cba7b3a465de3d" target="_top" xlink:title=" ">
<polygon fill="white" stroke="#666666" points="404,-30 297,-30 297,0 404,0 404,-30"/>
<text text-anchor="start" x="305" y="-18" font-family="Times,serif" font-size="10.00">ttg_parsec::Buffer</text>
<text text-anchor="middle" x="350.5" y="-7" font-family="Times,serif" font-size="10.00">::scope</text>
</a>
</g>
</g>
<!-- Node9&#45;&gt;Node10 -->
<g id="edge12_Node000009_Node000010" class="edge">
<title>Node9&#45;&gt;Node10</title>
<g id="a_edge12_Node000009_Node000010"><a xlink:title=" ">
<path fill="none" stroke="#63b8ff" d="M250.24,-18.92C262.03,-18.45 274.64,-17.95 286.79,-17.48"/>
<polygon fill="#63b8ff" stroke="#63b8ff" points="287,-20.97 296.86,-17.08 286.73,-13.98 287,-20.97"/>
</a>
</g>
</g>
</g>
</svg>
