<?xml version="1.0" encoding="UTF-8" standalone="no"?>
<!DOCTYPE svg PUBLIC "-//W3C//DTD SVG 1.1//EN"
 "http://www.w3.org/Graphics/SVG/1.1/DTD/svg11.dtd">
<!-- Generated by graphviz version 2.43.0 (0)
 -->
<!-- Title: ttg_parsec::detail::parsec_ttg_task_t::release_task Pages: 1 -->
<!--zoomable 263 -->

<svg id="main" version="1.1" xmlns="http://www.w3.org/2000/svg" xmlns:xlink="http://www.w3.org/1999/xlink" xml:space="preserve" onload="init(evt)">
<style type="text/css"><![CDATA[
.node, .edge {opacity: 0.7;}
.node.selected, .edge.selected {opacity: 1;}
.edge:hover path { stroke: red; }
.edge:hover polygon { stroke: red; fill: red; }
]]></style>

<defs>
  <circle id="rim" cx="0" cy="0" r="7"/>
  <circle id="rim2" cx="0" cy="0" r="3.5"/>
  <g id="zoomPlus">
    <use xlink:href="#rim" fill="#404040"><set attributeName="fill" to="#808080" begin="zoomplus.mouseover" end="zoomplus.mouseout"/></use>
    <path d="M-4,0h8M0,-4v8" fill="none" stroke="white" stroke-width="1.5" pointer-events="none"/>
  </g>
  <g id="zoomMin">
    <use xlink:href="#rim" fill="#404040"><set attributeName="fill" to="#808080" begin="zoomminus.mouseover" end="zoomminus.mouseout"/></use>
    <path d="M-4,0h8" fill="none" stroke="white" stroke-width="1.5" pointer-events="none"/>
  </g>
  <g id="arrowUp" transform="translate(30 24)">
    <use xlink:href="#rim"/>
    <path pointer-events="none" fill="none" stroke="white" stroke-width="1.5" d="M0,-3.0v7 M-2.5,-0.5L0,-3.0L2.5,-0.5"/>
  </g>
  <g id="arrowRight" transform="rotate(90) translate(36 -43)">
    <use xlink:href="#rim"/>
    <path pointer-events="none" fill="none" stroke="white" stroke-width="1.5" d="M0,-3.0v7 M-2.5,-0.5L0,-3.0L2.5,-0.5"/>
  </g>
  <g id="arrowDown" transform="rotate(180) translate(-30 -48)">
    <use xlink:href="#rim"/>
    <path pointer-events="none" fill="none" stroke="white" stroke-width="1.5" d="M0,-3.0v7 M-2.5,-0.5L0,-3.0L2.5,-0.5"/>
  </g>
  <g id="arrowLeft" transform="rotate(270) translate(-36 17)">
    <use xlink:href="#rim"/>
    <path pointer-events="none" fill="none" stroke="white" stroke-width="1.5" d="M0,-3.0v7 M-2.5,-0.5L0,-3.0L2.5,-0.5"/>
  </g>
  <g id="resetDef">
    <use xlink:href="#rim2" fill="#404040"><set attributeName="fill" to="#808080" begin="reset.mouseover" end="reset.mouseout"/></use>
  </g>
</defs>
<script type="application/ecmascript">
var viewWidth = 979;
var viewHeight = 263;
var sectionId = 'dynsection-7';
</script>
<script type="application/ecmascript" xlink:href="svg.min.js"/>
<svg id="graph" class="graph">
<g id="viewport">
<title>ttg_parsec::detail::parsec_ttg_task_t::release_task</title>
<!-- Node1 -->
<g id="Node000001" class="node">
<title>Node1</title>
<g id="a_Node000001"><a xlink:title=" ">
<polygon fill="#999999" stroke="#666666" points="111,-151.05 0,-151.05 0,-110.05 111,-110.05 111,-151.05"/>
<text text-anchor="start" x="8" y="-139.05" font-family="Times,serif" font-size="10.00">ttg_parsec::detail</text>
<text text-anchor="start" x="8" y="-128.05" font-family="Times,serif" font-size="10.00">::parsec_ttg_task_t</text>
<text text-anchor="middle" x="55.5" y="-117.05" font-family="Times,serif" font-size="10.00">::release_task</text>
</a>
</g>
</g>
<!-- Node2 -->
<g id="Node000002" class="node">
<title>Node2</title>
<g id="a_Node000002"><a xlink:href="classttg__parsec_1_1_t_t.html#a80885f0e54f741d7c70ae64179578414" target="_top" xlink:title=" ">
<polygon fill="white" stroke="#666666" points="305,-140.05 147,-140.05 147,-121.05 305,-121.05 305,-140.05"/>
<text text-anchor="middle" x="226" y="-128.05" font-family="Times,serif" font-size="10.00">ttg_parsec::TT::release_task</text>
</a>
</g>
</g>
<!-- Node1&#45;&gt;Node2 -->
<g id="edge1_Node000001_Node000002" class="edge">
<title>Node1&#45;&gt;Node2</title>
<g id="a_edge1_Node000001_Node000002"><a xlink:title=" ">
<path fill="none" stroke="#63b8ff" d="M111.21,-130.55C119.36,-130.55 127.93,-130.55 136.56,-130.55"/>
<polygon fill="#63b8ff" stroke="#63b8ff" points="136.7,-134.05 146.7,-130.55 136.7,-127.05 136.7,-134.05"/>
</a>
</g>
</g>
<!-- Node3 -->
<g id="Node000003" class="node">
<title>Node3</title>
<g id="a_Node000003"><a xlink:href="classttg__parsec_1_1_t_t.html#a30d03bedfc5658375d0cc6bf2116ee12" target="_top" xlink:title=" ">
<polygon fill="white" stroke="#666666" points="468.5,-207.55 344.5,-207.55 344.5,-177.55 468.5,-177.55 468.5,-207.55"/>
<text text-anchor="start" x="352.5" y="-195.55" font-family="Times,serif" font-size="10.00">ttg_parsec::TT::check</text>
<text text-anchor="middle" x="406.5" y="-184.55" font-family="Times,serif" font-size="10.00">_constraints</text>
</a>
</g>
</g>
<!-- Node2&#45;&gt;Node3 -->
<g id="edge2_Node000002_Node000003" class="edge">
<title>Node2&#45;&gt;Node3</title>
<g id="a_edge2_Node000002_Node000003"><a xlink:title=" ">
<path fill="none" stroke="#63b8ff" d="M254.5,-140.1C280.47,-149.12 320.11,-162.89 352.27,-174.06"/>
<polygon fill="#63b8ff" stroke="#63b8ff" points="351.39,-177.46 361.98,-177.43 353.68,-170.84 351.39,-177.46"/>
</a>
</g>
</g>
<!-- Node4 -->
<g id="Node000004" class="node">
<title>Node4</title>
<g id="a_Node000004"><a xlink:href="classttg__parsec_1_1_t_t.html#aab59a1bf0fcc4f771457b5f05cb42741" target="_top" xlink:title=" ">
<polygon fill="white" stroke="#666666" points="619,-237.05 508,-237.05 508,-218.05 619,-218.05 619,-237.05"/>
<text text-anchor="middle" x="563.5" y="-225.05" font-family="Times,serif" font-size="10.00">ttg_parsec::TT::get</text>
</a>
</g>
</g>
<!-- Node2&#45;&gt;Node4 -->
<g id="edge7_Node000002_Node000004" class="edge">
<title>Node2&#45;&gt;Node4</title>
<g id="a_edge7_Node000002_Node000004"><a xlink:title=" ">
<path fill="none" stroke="#63b8ff" d="M235.59,-140.06C253.2,-158.79 295.55,-200.06 341,-216.55 391.47,-234.85 452.69,-236.48 497.96,-234.17"/>
<polygon fill="#63b8ff" stroke="#63b8ff" points="498.17,-237.66 507.95,-233.58 497.76,-230.67 498.17,-237.66"/>
</a>
</g>
</g>
<!-- Node5 -->
<g id="Node000005" class="node">
<title>Node5</title>
<g id="a_Node000005"><a xlink:href="namespacettg_1_1meta.html#affd90f350d054c6a5b4859644d834172" target="_top" xlink:title=" ">
<polygon fill="white" stroke="#666666" points="606,-174.05 521,-174.05 521,-155.05 606,-155.05 606,-174.05"/>
<text text-anchor="middle" x="563.5" y="-162.05" font-family="Times,serif" font-size="10.00">ttg::meta::get</text>
</a>
</g>
</g>
<!-- Node2&#45;&gt;Node5 -->
<g id="edge8_Node000002_Node000005" class="edge">
<title>Node2&#45;&gt;Node5</title>
<g id="a_edge8_Node000002_Node000005"><a xlink:title=" ">
<path fill="none" stroke="#63b8ff" d="M305.24,-138.47C368.54,-144.89 455.89,-153.74 510.77,-159.3"/>
<polygon fill="#63b8ff" stroke="#63b8ff" points="510.66,-162.81 520.96,-160.34 511.37,-155.85 510.66,-162.81"/>
</a>
</g>
</g>
<!-- Node6 -->
<g id="Node000006" class="node">
<title>Node6</title>
<g id="a_Node000006"><a xlink:href="classttg_1_1_t_t_base.html#ade3b1e6b149fe1124f7192aeca5f715c" target="_top" xlink:title="Gets the name of this operation.">
<polygon fill="white" stroke="#666666" points="472,-121.05 341,-121.05 341,-102.05 472,-102.05 472,-121.05"/>
<text text-anchor="middle" x="406.5" y="-109.05" font-family="Times,serif" font-size="10.00">ttg::TTBase::get_name</text>
</a>
</g>
</g>
<!-- Node2&#45;&gt;Node6 -->
<g id="edge9_Node000002_Node000006" class="edge">
<title>Node2&#45;&gt;Node6</title>
<g id="a_edge9_Node000002_Node000006"><a xlink:title=" ">
<path fill="none" stroke="#63b8ff" d="M305.03,-122.24C313.66,-121.32 322.44,-120.39 331.02,-119.47"/>
<polygon fill="#63b8ff" stroke="#63b8ff" points="331.42,-122.95 340.99,-118.41 330.68,-115.99 331.42,-122.95"/>
</a>
</g>
</g>
<!-- Node7 -->
<g id="Node000007" class="node">
<title>Node7</title>
<g id="a_Node000007"><a xlink:href="namespacettg.html#af5e470229c1ddef41b83b6398a5dc583" target="_top" xlink:title=" ">
<polygon fill="white" stroke="#666666" points="717,-78.05 655,-78.05 655,-59.05 717,-59.05 717,-78.05"/>
<text text-anchor="middle" x="686" y="-66.05" font-family="Times,serif" font-size="10.00">ttg::trace</text>
</a>
</g>
</g>
<!-- Node2&#45;&gt;Node7 -->
<g id="edge10_Node000002_Node000007" class="edge">
<title>Node2&#45;&gt;Node7</title>
<g id="a_edge10_Node000002_Node000007"><a xlink:title=" ">
<path fill="none" stroke="#63b8ff" d="M250.58,-121.04C273.33,-112.31 308.94,-99.82 341,-93.55 449.27,-72.36 579.88,-68.72 644.59,-68.34"/>
<polygon fill="#63b8ff" stroke="#63b8ff" points="644.78,-71.84 654.77,-68.31 644.76,-64.84 644.78,-71.84"/>
</a>
</g>
</g>
<!-- Node13 -->
<g id="Node000013" class="node">
<title>Node13</title>
<g id="a_Node000013"><a xlink:href="classttg_1_1_t_t_base.html#a6e857d69adab89ba8841e4af29e0fc73" target="_top" xlink:title=" ">
<polygon fill="white" stroke="#666666" points="465,-40.05 348,-40.05 348,-21.05 465,-21.05 465,-40.05"/>
<text text-anchor="middle" x="406.5" y="-28.05" font-family="Times,serif" font-size="10.00">ttg::TTBase::tracing</text>
</a>
</g>
</g>
<!-- Node2&#45;&gt;Node13 -->
<g id="edge18_Node000002_Node000013" class="edge">
<title>Node2&#45;&gt;Node13</title>
<g id="a_edge18_Node000002_Node000013"><a xlink:title=" ">
<path fill="none" stroke="#63b8ff" d="M241.03,-120.95C262.19,-106.67 303.76,-79.4 341,-59.55 351.1,-54.16 362.39,-48.85 372.68,-44.28"/>
<polygon fill="#63b8ff" stroke="#63b8ff" points="374.39,-47.35 382.15,-40.14 371.59,-40.94 374.39,-47.35"/>
</a>
</g>
</g>
<!-- Node3&#45;&gt;Node4 -->
<g id="edge3_Node000003_Node000004" class="edge">
<title>Node3&#45;&gt;Node4</title>
<g id="a_edge3_Node000003_Node000004"><a xlink:title=" ">
<path fill="none" stroke="#63b8ff" d="M468.76,-206.38C482.52,-209.48 496.99,-212.75 510.33,-215.77"/>
<polygon fill="#63b8ff" stroke="#63b8ff" points="509.76,-219.23 520.29,-218.01 511.3,-212.4 509.76,-219.23"/>
</a>
</g>
</g>
<!-- Node3&#45;&gt;Node5 -->
<g id="edge5_Node000003_Node000005" class="edge">
<title>Node3&#45;&gt;Node5</title>
<g id="a_edge5_Node000003_Node000005"><a xlink:title=" ">
<path fill="none" stroke="#63b8ff" d="M468.76,-181.48C482.65,-178.97 497.27,-176.33 510.72,-173.9"/>
<polygon fill="#63b8ff" stroke="#63b8ff" points="511.53,-177.31 520.75,-172.09 510.29,-170.42 511.53,-177.31"/>
</a>
</g>
</g>
<!-- Node4&#45;&gt;Node4 -->
<g id="edge4_Node000004_Node000004" class="edge">
<title>Node4&#45;&gt;Node4</title>
<g id="a_edge4_Node000004_Node000004"><a xlink:title=" ">
<path fill="none" stroke="#63b8ff" d="M544.7,-237.13C535.55,-245.78 541.82,-255.05 563.5,-255.05 577.05,-255.05 584.58,-251.43 586.09,-246.6"/>
<polygon fill="#63b8ff" stroke="#63b8ff" points="589.27,-245.11 582.3,-237.13 582.77,-247.71 589.27,-245.11"/>
</a>
</g>
</g>
<!-- Node5&#45;&gt;Node5 -->
<g id="edge6_Node000005_Node000005" class="edge">
<title>Node5&#45;&gt;Node5</title>
<g id="a_edge6_Node000005_Node000005"><a xlink:title=" ">
<path fill="none" stroke="#63b8ff" d="M544.7,-174.13C535.55,-182.78 541.82,-192.05 563.5,-192.05 577.05,-192.05 584.58,-188.43 586.09,-183.6"/>
<polygon fill="#63b8ff" stroke="#63b8ff" points="589.27,-182.11 582.3,-174.13 582.77,-184.71 589.27,-182.11"/>
</a>
</g>
</g>
<!-- Node8 -->
<g id="Node000008" class="node">
<title>Node8</title>
<g id="a_Node000008"><a xlink:href="namespacettg.html#aacacfe8bc9582308a405c4370650a9d4" target="_top" xlink:title="atomically prints to std::clog a sequence of items (separated by ttg::print_separator) followed by st...">
<polygon fill="white" stroke="#666666" points="816,-149.05 763,-149.05 763,-130.05 816,-130.05 816,-149.05"/>
<text text-anchor="middle" x="789.5" y="-137.05" font-family="Times,serif" font-size="10.00">ttg::log</text>
</a>
</g>
</g>
<!-- Node7&#45;&gt;Node8 -->
<g id="edge11_Node000007_Node000008" class="edge">
<title>Node7&#45;&gt;Node8</title>
<g id="a_edge11_Node000007_Node000008"><a xlink:title=" ">
<path fill="none" stroke="#63b8ff" d="M700.33,-78.18C713.61,-87.75 734.62,-102.79 753,-115.55 757.06,-118.37 761.41,-121.34 765.62,-124.2"/>
<polygon fill="#63b8ff" stroke="#63b8ff" points="763.69,-127.12 773.94,-129.82 767.61,-121.32 763.69,-127.12"/>
</a>
</g>
</g>
<!-- Node10 -->
<g id="Node000010" class="node">
<title>Node10</title>
<g id="a_Node000010"><a xlink:href="namespacettg.html#afbdd9c742be395e0746fdbc26c7d55cc" target="_top" xlink:title="returns whether tracing was enabled at configure time">
<polygon fill="white" stroke="#666666" points="971,-35.05 862,-35.05 862,-16.05 971,-16.05 971,-35.05"/>
<text text-anchor="middle" x="916.5" y="-23.05" font-family="Times,serif" font-size="10.00">ttg::trace_enabled</text>
</a>
</g>
</g>
<!-- Node7&#45;&gt;Node10 -->
<g id="edge13_Node000007_Node000010" class="edge">
<title>Node7&#45;&gt;Node10</title>
<g id="a_edge13_Node000007_Node000010"><a xlink:title=" ">
<path fill="none" stroke="#63b8ff" d="M710.47,-59C722.92,-54.29 738.58,-48.9 753,-45.55 785.21,-38.04 821.71,-33.23 851.94,-30.21"/>
<polygon fill="#63b8ff" stroke="#63b8ff" points="852.32,-33.69 861.94,-29.25 851.65,-26.72 852.32,-33.69"/>
</a>
</g>
</g>
<!-- Node11 -->
<g id="Node000011" class="node">
<title>Node11</title>
<g id="a_Node000011"><a xlink:href="namespacettg.html#abfb8501d408a1ed918cc2a540865a2d8" target="_top" xlink:title="returns whether tracing is enabled">
<polygon fill="white" stroke="#666666" points="826,-73.05 753,-73.05 753,-54.05 826,-54.05 826,-73.05"/>
<text text-anchor="middle" x="789.5" y="-61.05" font-family="Times,serif" font-size="10.00">ttg::tracing</text>
</a>
</g>
</g>
<!-- Node7&#45;&gt;Node11 -->
<g id="edge14_Node000007_Node000011" class="edge">
<title>Node7&#45;&gt;Node11</title>
<g id="a_edge14_Node000007_Node000011"><a xlink:title=" ">
<path fill="none" stroke="#63b8ff" d="M717.18,-67.06C725.24,-66.66 734.14,-66.22 742.84,-65.8"/>
<polygon fill="#63b8ff" stroke="#63b8ff" points="743.08,-69.29 752.89,-65.3 742.73,-62.3 743.08,-69.29"/>
</a>
</g>
</g>
<!-- Node9 -->
<g id="Node000009" class="node">
<title>Node9</title>
<g id="a_Node000009"><a xlink:href="namespacettg_1_1detail.html#a26e07486d5ef8eb5735a8975991a7693" target="_top" xlink:title=" ">
<polygon fill="white" stroke="#666666" points="964.5,-154.55 868.5,-154.55 868.5,-124.55 964.5,-124.55 964.5,-154.55"/>
<text text-anchor="start" x="876.5" y="-142.55" font-family="Times,serif" font-size="10.00">ttg::detail::print</text>
<text text-anchor="middle" x="916.5" y="-131.55" font-family="Times,serif" font-size="10.00">_helper</text>
</a>
</g>
</g>
<!-- Node8&#45;&gt;Node9 -->
<g id="edge12_Node000008_Node000009" class="edge">
<title>Node8&#45;&gt;Node9</title>
<g id="a_edge12_Node000008_Node000009"><a xlink:title=" ">
<path fill="none" stroke="#63b8ff" d="M816.1,-139.55C828.34,-139.55 843.53,-139.55 858.32,-139.55"/>
<polygon fill="#63b8ff" stroke="#63b8ff" points="858.46,-143.05 868.46,-139.55 858.46,-136.05 858.46,-143.05"/>
</a>
</g>
</g>
<!-- Node11&#45;&gt;Node10 -->
<g id="edge17_Node000011_Node000010" class="edge">
<title>Node11&#45;&gt;Node10</title>
<g id="a_edge17_Node000011_Node000010"><a xlink:title=" ">
<path fill="none" stroke="#63b8ff" d="M822.04,-53.96C837.88,-49.14 857.27,-43.25 874.28,-38.08"/>
<polygon fill="#63b8ff" stroke="#63b8ff" points="875.42,-41.39 883.97,-35.13 873.38,-34.69 875.42,-41.39"/>
</a>
</g>
</g>
<!-- Node12 -->
<g id="Node000012" class="node">
<title>Node12</title>
<g id="a_Node000012"><a xlink:href="namespacettg_1_1detail.html#a95356c3874e7ec9268a40feb4fc1519f" target="_top" xlink:title=" ">
<polygon fill="white" stroke="#666666" points="965,-95.55 868,-95.55 868,-65.55 965,-65.55 965,-95.55"/>
<text text-anchor="start" x="876" y="-83.55" font-family="Times,serif" font-size="10.00">ttg::detail::trace</text>
<text text-anchor="middle" x="916.5" y="-72.55" font-family="Times,serif" font-size="10.00">_accessor</text>
</a>
</g>
</g>
<!-- Node11&#45;&gt;Node12 -->
<g id="edge15_Node000011_Node000012" class="edge">
<title>Node11&#45;&gt;Node12</title>
<g id="a_edge15_Node000011_Node000012"><a xlink:title=" ">
<path fill="none" stroke="#63b8ff" d="M826.32,-68.42C836.05,-69.74 846.85,-71.21 857.47,-72.65"/>
<polygon fill="#63b8ff" stroke="#63b8ff" points="857.18,-76.15 867.56,-74.03 858.12,-69.21 857.18,-76.15"/>
</a>
</g>
</g>
<!-- Node12&#45;&gt;Node7 -->
<g id="edge16_Node000012_Node000007" class="edge">
<title>Node12&#45;&gt;Node7</title>
<g id="a_edge16_Node000012_Node000007"><a xlink:title=" ">
<path fill="none" stroke="#63b8ff" d="M867.72,-84.05C835.28,-85.72 791.44,-86.58 753,-82.55 744.46,-81.65 735.4,-80.12 726.81,-78.39"/>
<polygon fill="#63b8ff" stroke="#63b8ff" points="727.53,-74.96 717.02,-76.3 726.06,-81.81 727.53,-74.96"/>
</a>
</g>
</g>
<!-- Node13&#45;&gt;Node10 -->
<g id="edge19_Node000013_Node000010" class="edge">
<title>Node13&#45;&gt;Node10</title>
<g id="a_edge19_Node000013_Node000010"><a xlink:title=" ">
<path fill="none" stroke="#63b8ff" d="M439.29,-20.93C458.89,-15.51 484.66,-9.29 508,-6.55 629.08,7.71 771.57,-5.8 851.94,-16.18"/>
<polygon fill="#63b8ff" stroke="#63b8ff" points="851.53,-19.65 861.9,-17.49 852.45,-12.71 851.53,-19.65"/>
</a>
</g>
</g>
<!-- Node14 -->
<g id="Node000014" class="node">
<title>Node14</title>
<g id="a_Node000014"><a xlink:href="namespacettg_1_1detail.html#a07090477ad763f0b0e3089df7cf8e1eb" target="_top" xlink:title=" ">
<polygon fill="white" stroke="#666666" points="617.5,-45.55 509.5,-45.55 509.5,-15.55 617.5,-15.55 617.5,-45.55"/>
<text text-anchor="start" x="517.5" y="-33.55" font-family="Times,serif" font-size="10.00">ttg::detail::tt_base</text>
<text text-anchor="middle" x="563.5" y="-22.55" font-family="Times,serif" font-size="10.00">_trace_accessor</text>
</a>
</g>
</g>
<!-- Node13&#45;&gt;Node14 -->
<g id="edge20_Node000013_Node000014" class="edge">
<title>Node13&#45;&gt;Node14</title>
<g id="a_edge20_Node000013_Node000014"><a xlink:title=" ">
<path fill="none" stroke="#63b8ff" d="M465.22,-30.55C476.29,-30.55 487.94,-30.55 499.17,-30.55"/>
<polygon fill="#63b8ff" stroke="#63b8ff" points="499.35,-34.05 509.35,-30.55 499.35,-27.05 499.35,-34.05"/>
</a>
</g>
</g>
<!-- Node14&#45;&gt;Node7 -->
<g id="edge21_Node000014_Node000007" class="edge">
<title>Node14&#45;&gt;Node7</title>
<g id="a_edge21_Node000014_Node000007"><a xlink:title=" ">
<path fill="none" stroke="#63b8ff" d="M612.12,-45.56C622.99,-48.99 634.43,-52.6 644.95,-55.92"/>
<polygon fill="#63b8ff" stroke="#63b8ff" points="644.11,-59.32 654.69,-58.99 646.21,-52.64 644.11,-59.32"/>
</a>
</g>
</g>
</g>
</svg>

<g id="navigator" transform="translate(0 0)" fill="#404254">
  <rect fill="#f2f5e9" fill-opacity="0.5" stroke="#606060" stroke-width=".5" x="0" y="0" width="60" height="60"/>
  <use id="zoomplus" xlink:href="#zoomPlus" x="17" y="9" onmousedown="handleZoom(evt,'in')"/>
  <use id="zoomminus" xlink:href="#zoomMin" x="42" y="9" onmousedown="handleZoom(evt,'out')"/>
  <use id="reset" xlink:href="#resetDef" x="30" y="36" onmousedown="handleReset()"/>
   <use id="arrowup" xlink:href="#arrowUp" x="0" y="0" onmousedown="handlePan(0,-1)"/>
  <use id="arrowright" xlink:href="#arrowRight" x="0" y="0" onmousedown="handlePan(1,0)"/>
  <use id="arrowdown" xlink:href="#arrowDown" x="0" y="0" onmousedown="handlePan(0,1)"/>
  <use id="arrowleft" xlink:href="#arrowLeft" x="0" y="0" onmousedown="handlePan(-1,0)"/>
</g>
<svg viewBox="0 0 15 15" width="100%" height="30px" preserveAspectRatio="xMaxYMin meet">
 <g id="arrow_out" transform="scale(0.3 0.3)">
  <a xlink:href="structttg__parsec_1_1detail_1_1parsec__ttg__task__t_ad5cb0f91ede170fec5354d78f9b14797_cgraph_org.svg" target="_base">
   <rect id="button" ry="5" rx="5" y="6" x="6" height="38" width="38"
        fill="#f2f5e9" fill-opacity="0.5" stroke="#606060" stroke-width="1.0"/>
   <path id="arrow"
     d="M 11.500037,31.436501 C 11.940474,20.09759 22.043105,11.32322 32.158766,21.979434 L 37.068811,17.246167 C 37.068811,17.246167 37.088388,32 37.088388,32 L 22.160133,31.978069 C 22.160133,31.978069 26.997745,27.140456 26.997745,27.140456 C 18.528582,18.264221 13.291696,25.230495 11.500037,31.436501 z"
     style="fill:#404040;"/>
  </a>
 </g>
</svg>

<style type='text/css'>
<![CDATA[
[data-mouse-over-selected='false'] { opacity: 0.7; }
[data-mouse-over-selected='true']  { opacity: 1.0; }
]]>
</style>
<script type="application/ecmascript"><![CDATA[
document.addEventListener('DOMContentLoaded', (event) => {
  highlightEdges();
  highlightAdjacentNodes();
});
]]></script>
</svg>
