<?xml version="1.0" encoding="UTF-8" standalone="no"?>
<!DOCTYPE svg PUBLIC "-//W3C//DTD SVG 1.1//EN"
 "http://www.w3.org/Graphics/SVG/1.1/DTD/svg11.dtd">
<!-- Generated by graphviz version 2.43.0 (0)
 -->
<!-- Title: ttg_madness::Buffer::is_valid_on Pages: 1 -->
<svg width="574pt" height="86pt"
 viewBox="0.00 0.00 574.00 86.00" xmlns="http://www.w3.org/2000/svg" xmlns:xlink="http://www.w3.org/1999/xlink">
<g id="graph0" class="graph" transform="scale(1 1) rotate(0) translate(4 82)">
<title>ttg_madness::Buffer::is_valid_on</title>
<!-- Node1 -->
<g id="Node000001" class="node">
<title>Node1</title>
<g id="a_Node000001"><a xlink:title=" ">
<polygon fill="#999999" stroke="#666666" points="119,-54 0,-54 0,-24 119,-24 119,-54"/>
<text text-anchor="start" x="8" y="-42" font-family="Times,serif" font-size="10.00">ttg_madness::Buffer</text>
<text text-anchor="middle" x="59.5" y="-31" font-family="Times,serif" font-size="10.00">::is_valid_on</text>
</a>
</g>
</g>
<!-- Node2 -->
<g id="Node000002" class="node">
<title>Node2</title>
<g id="a_Node000002"><a xlink:href="classttg_1_1device_1_1_device.html#a40e2fd28be27282a6695d102f7c5fc1a" target="_top" xlink:title=" ">
<polygon fill="white" stroke="#666666" points="269.5,-78 159.5,-78 159.5,-48 269.5,-48 269.5,-78"/>
<text text-anchor="start" x="167.5" y="-66" font-family="Times,serif" font-size="10.00">ttg::device::Device</text>
<text text-anchor="middle" x="214.5" y="-55" font-family="Times,serif" font-size="10.00">::is_device</text>
</a>
</g>
</g>
<!-- Node1&#45;&gt;Node2 -->
<g id="edge1_Node000001_Node000002" class="edge">
<title>Node1&#45;&gt;Node2</title>
<g id="a_edge1_Node000001_Node000002"><a xlink:title=" ">
<path fill="none" stroke="#63b8ff" d="M119.22,-48.21C128.97,-49.74 139.14,-51.34 149.03,-52.89"/>
<polygon fill="#63b8ff" stroke="#63b8ff" points="148.79,-56.39 159.21,-54.48 149.87,-49.48 148.79,-56.39"/>
</a>
</g>
</g>
<!-- Node5 -->
<g id="Node000005" class="node">
<title>Node5</title>
<g id="a_Node000005"><a xlink:href="structttg__madness_1_1_buffer.html#a873ee3d33f1b81dd8ddeec2bd05bf5cf" target="_top" xlink:title=" ">
<polygon fill="white" stroke="#666666" points="274,-30 155,-30 155,0 274,0 274,-30"/>
<text text-anchor="start" x="163" y="-18" font-family="Times,serif" font-size="10.00">ttg_madness::Buffer</text>
<text text-anchor="middle" x="214.5" y="-7" font-family="Times,serif" font-size="10.00">::is_valid</text>
</a>
</g>
</g>
<!-- Node1&#45;&gt;Node5 -->
<g id="edge4_Node000001_Node000005" class="edge">
<title>Node1&#45;&gt;Node5</title>
<g id="a_edge4_Node000001_Node000005"><a xlink:title=" ">
<path fill="none" stroke="#63b8ff" d="M119.22,-29.79C127.64,-28.47 136.36,-27.1 144.95,-25.75"/>
<polygon fill="#63b8ff" stroke="#63b8ff" points="145.6,-29.19 154.94,-24.19 144.52,-22.28 145.6,-29.19"/>
</a>
</g>
</g>
<!-- Node3 -->
<g id="Node000003" class="node">
<title>Node3</title>
<g id="a_Node000003"><a xlink:href="classttg_1_1device_1_1_device.html#a16a73248d5e812cf4df7d55458faafb4" target="_top" xlink:title=" ">
<polygon fill="white" stroke="#666666" points="420,-78 310,-78 310,-48 420,-48 420,-78"/>
<text text-anchor="start" x="318" y="-66" font-family="Times,serif" font-size="10.00">ttg::device::Device</text>
<text text-anchor="middle" x="365" y="-55" font-family="Times,serif" font-size="10.00">::is_host</text>
</a>
</g>
</g>
<!-- Node2&#45;&gt;Node3 -->
<g id="edge2_Node000002_Node000003" class="edge">
<title>Node2&#45;&gt;Node3</title>
<g id="a_edge2_Node000002_Node000003"><a xlink:title=" ">
<path fill="none" stroke="#63b8ff" d="M269.53,-63C279.26,-63 289.48,-63 299.47,-63"/>
<polygon fill="#63b8ff" stroke="#63b8ff" points="299.76,-66.5 309.76,-63 299.76,-59.5 299.76,-66.5"/>
</a>
</g>
</g>
<!-- Node4 -->
<g id="Node000004" class="node">
<title>Node4</title>
<g id="a_Node000004"><a xlink:href="classttg_1_1device_1_1_device.html#a979477b9cde8927f919c75754d4d8329" target="_top" xlink:title=" ">
<polygon fill="white" stroke="#666666" points="566,-78 456,-78 456,-48 566,-48 566,-78"/>
<text text-anchor="start" x="464" y="-66" font-family="Times,serif" font-size="10.00">ttg::device::Device</text>
<text text-anchor="middle" x="511" y="-55" font-family="Times,serif" font-size="10.00">::is_invalid</text>
</a>
</g>
</g>
<!-- Node3&#45;&gt;Node4 -->
<g id="edge3_Node000003_Node000004" class="edge">
<title>Node3&#45;&gt;Node4</title>
<g id="a_edge3_Node000003_Node000004"><a xlink:title=" ">
<path fill="none" stroke="#63b8ff" d="M420.03,-63C428.31,-63 436.94,-63 445.42,-63"/>
<polygon fill="#63b8ff" stroke="#63b8ff" points="445.67,-66.5 455.67,-63 445.67,-59.5 445.67,-66.5"/>
</a>
</g>
</g>
</g>
</svg>
