<?xml version="1.0" encoding="UTF-8" standalone="no"?>
<!DOCTYPE svg PUBLIC "-//W3C//DTD SVG 1.1//EN"
 "http://www.w3.org/Graphics/SVG/1.1/DTD/svg11.dtd">
<!-- Generated by graphviz version 2.43.0 (0)
 -->
<!-- Title: ttg_parsec::detail::parsec_ttg_task_t&lt; TT, true &gt;::release_task Pages: 1 -->
<svg width="1015pt" height="263pt"
 viewBox="0.00 0.00 1015.00 263.05" xmlns="http://www.w3.org/2000/svg" xmlns:xlink="http://www.w3.org/1999/xlink">
<g id="graph0" class="graph" transform="scale(1 1) rotate(0) translate(4 259.05)">
<title>ttg_parsec::detail::parsec_ttg_task_t&lt; TT, true &gt;::release_task</title>
<!-- Node1 -->
<g id="Node000001" class="node">
<title>Node1</title>
<g id="a_Node000001"><a xlink:title=" ">
<polygon fill="#999999" stroke="#666666" points="147,-151.05 0,-151.05 0,-110.05 147,-110.05 147,-151.05"/>
<text text-anchor="start" x="8" y="-139.05" font-family="Times,serif" font-size="10.00">ttg_parsec::detail</text>
<text text-anchor="start" x="8" y="-128.05" font-family="Times,serif" font-size="10.00">::parsec_ttg_task_t</text>
<text text-anchor="middle" x="73.5" y="-117.05" font-family="Times,serif" font-size="10.00">&lt; TT, true &gt;::release_task</text>
</a>
</g>
</g>
<!-- Node2 -->
<g id="Node000002" class="node">
<title>Node2</title>
<g id="a_Node000002"><a xlink:href="classttg__parsec_1_1_t_t.html#a80885f0e54f741d7c70ae64179578414" target="_top" xlink:title=" ">
<polygon fill="white" stroke="#666666" points="341,-140.05 183,-140.05 183,-121.05 341,-121.05 341,-140.05"/>
<text text-anchor="middle" x="262" y="-128.05" font-family="Times,serif" font-size="10.00">ttg_parsec::TT::release_task</text>
</a>
</g>
</g>
<!-- Node1&#45;&gt;Node2 -->
<g id="edge1_Node000001_Node000002" class="edge">
<title>Node1&#45;&gt;Node2</title>
<g id="a_edge1_Node000001_Node000002"><a xlink:title=" ">
<path fill="none" stroke="#63b8ff" d="M147.14,-130.55C155.52,-130.55 164.13,-130.55 172.69,-130.55"/>
<polygon fill="#63b8ff" stroke="#63b8ff" points="172.7,-134.05 182.7,-130.55 172.7,-127.05 172.7,-134.05"/>
</a>
</g>
</g>
<!-- Node3 -->
<g id="Node000003" class="node">
<title>Node3</title>
<g id="a_Node000003"><a xlink:href="classttg__parsec_1_1_t_t.html#a30d03bedfc5658375d0cc6bf2116ee12" target="_top" xlink:title=" ">
<polygon fill="white" stroke="#666666" points="504.5,-207.55 380.5,-207.55 380.5,-177.55 504.5,-177.55 504.5,-207.55"/>
<text text-anchor="start" x="388.5" y="-195.55" font-family="Times,serif" font-size="10.00">ttg_parsec::TT::check</text>
<text text-anchor="middle" x="442.5" y="-184.55" font-family="Times,serif" font-size="10.00">_constraints</text>
</a>
</g>
</g>
<!-- Node2&#45;&gt;Node3 -->
<g id="edge2_Node000002_Node000003" class="edge">
<title>Node2&#45;&gt;Node3</title>
<g id="a_edge2_Node000002_Node000003"><a xlink:title=" ">
<path fill="none" stroke="#63b8ff" d="M290.5,-140.1C316.47,-149.12 356.11,-162.89 388.27,-174.06"/>
<polygon fill="#63b8ff" stroke="#63b8ff" points="387.39,-177.46 397.98,-177.43 389.68,-170.84 387.39,-177.46"/>
</a>
</g>
</g>
<!-- Node4 -->
<g id="Node000004" class="node">
<title>Node4</title>
<g id="a_Node000004"><a xlink:href="classttg__parsec_1_1_t_t.html#aab59a1bf0fcc4f771457b5f05cb42741" target="_top" xlink:title=" ">
<polygon fill="white" stroke="#666666" points="655,-237.05 544,-237.05 544,-218.05 655,-218.05 655,-237.05"/>
<text text-anchor="middle" x="599.5" y="-225.05" font-family="Times,serif" font-size="10.00">ttg_parsec::TT::get</text>
</a>
</g>
</g>
<!-- Node2&#45;&gt;Node4 -->
<g id="edge7_Node000002_Node000004" class="edge">
<title>Node2&#45;&gt;Node4</title>
<g id="a_edge7_Node000002_Node000004"><a xlink:title=" ">
<path fill="none" stroke="#63b8ff" d="M271.59,-140.06C289.2,-158.79 331.55,-200.06 377,-216.55 427.47,-234.85 488.69,-236.48 533.96,-234.17"/>
<polygon fill="#63b8ff" stroke="#63b8ff" points="534.17,-237.66 543.95,-233.58 533.76,-230.67 534.17,-237.66"/>
</a>
</g>
</g>
<!-- Node5 -->
<g id="Node000005" class="node">
<title>Node5</title>
<g id="a_Node000005"><a xlink:href="namespacettg_1_1meta.html#affd90f350d054c6a5b4859644d834172" target="_top" xlink:title=" ">
<polygon fill="white" stroke="#666666" points="642,-174.05 557,-174.05 557,-155.05 642,-155.05 642,-174.05"/>
<text text-anchor="middle" x="599.5" y="-162.05" font-family="Times,serif" font-size="10.00">ttg::meta::get</text>
</a>
</g>
</g>
<!-- Node2&#45;&gt;Node5 -->
<g id="edge8_Node000002_Node000005" class="edge">
<title>Node2&#45;&gt;Node5</title>
<g id="a_edge8_Node000002_Node000005"><a xlink:title=" ">
<path fill="none" stroke="#63b8ff" d="M341.24,-138.47C404.54,-144.89 491.89,-153.74 546.77,-159.3"/>
<polygon fill="#63b8ff" stroke="#63b8ff" points="546.66,-162.81 556.96,-160.34 547.37,-155.85 546.66,-162.81"/>
</a>
</g>
</g>
<!-- Node6 -->
<g id="Node000006" class="node">
<title>Node6</title>
<g id="a_Node000006"><a xlink:href="classttg_1_1_t_t_base.html#ade3b1e6b149fe1124f7192aeca5f715c" target="_top" xlink:title="Gets the name of this operation.">
<polygon fill="white" stroke="#666666" points="508,-121.05 377,-121.05 377,-102.05 508,-102.05 508,-121.05"/>
<text text-anchor="middle" x="442.5" y="-109.05" font-family="Times,serif" font-size="10.00">ttg::TTBase::get_name</text>
</a>
</g>
</g>
<!-- Node2&#45;&gt;Node6 -->
<g id="edge9_Node000002_Node000006" class="edge">
<title>Node2&#45;&gt;Node6</title>
<g id="a_edge9_Node000002_Node000006"><a xlink:title=" ">
<path fill="none" stroke="#63b8ff" d="M341.03,-122.24C349.66,-121.32 358.44,-120.39 367.02,-119.47"/>
<polygon fill="#63b8ff" stroke="#63b8ff" points="367.42,-122.95 376.99,-118.41 366.68,-115.99 367.42,-122.95"/>
</a>
</g>
</g>
<!-- Node7 -->
<g id="Node000007" class="node">
<title>Node7</title>
<g id="a_Node000007"><a xlink:href="namespacettg.html#af5e470229c1ddef41b83b6398a5dc583" target="_top" xlink:title=" ">
<polygon fill="white" stroke="#666666" points="753,-78.05 691,-78.05 691,-59.05 753,-59.05 753,-78.05"/>
<text text-anchor="middle" x="722" y="-66.05" font-family="Times,serif" font-size="10.00">ttg::trace</text>
</a>
</g>
</g>
<!-- Node2&#45;&gt;Node7 -->
<g id="edge10_Node000002_Node000007" class="edge">
<title>Node2&#45;&gt;Node7</title>
<g id="a_edge10_Node000002_Node000007"><a xlink:title=" ">
<path fill="none" stroke="#63b8ff" d="M286.58,-121.04C309.33,-112.31 344.94,-99.82 377,-93.55 485.27,-72.36 615.88,-68.72 680.59,-68.34"/>
<polygon fill="#63b8ff" stroke="#63b8ff" points="680.78,-71.84 690.77,-68.31 680.76,-64.84 680.78,-71.84"/>
</a>
</g>
</g>
<!-- Node13 -->
<g id="Node000013" class="node">
<title>Node13</title>
<g id="a_Node000013"><a xlink:href="classttg_1_1_t_t_base.html#a6e857d69adab89ba8841e4af29e0fc73" target="_top" xlink:title=" ">
<polygon fill="white" stroke="#666666" points="501,-40.05 384,-40.05 384,-21.05 501,-21.05 501,-40.05"/>
<text text-anchor="middle" x="442.5" y="-28.05" font-family="Times,serif" font-size="10.00">ttg::TTBase::tracing</text>
</a>
</g>
</g>
<!-- Node2&#45;&gt;Node13 -->
<g id="edge18_Node000002_Node000013" class="edge">
<title>Node2&#45;&gt;Node13</title>
<g id="a_edge18_Node000002_Node000013"><a xlink:title=" ">
<path fill="none" stroke="#63b8ff" d="M277.03,-120.95C298.19,-106.67 339.76,-79.4 377,-59.55 387.1,-54.16 398.39,-48.85 408.68,-44.28"/>
<polygon fill="#63b8ff" stroke="#63b8ff" points="410.39,-47.35 418.15,-40.14 407.59,-40.94 410.39,-47.35"/>
</a>
</g>
</g>
<!-- Node3&#45;&gt;Node4 -->
<g id="edge3_Node000003_Node000004" class="edge">
<title>Node3&#45;&gt;Node4</title>
<g id="a_edge3_Node000003_Node000004"><a xlink:title=" ">
<path fill="none" stroke="#63b8ff" d="M504.76,-206.38C518.52,-209.48 532.99,-212.75 546.33,-215.77"/>
<polygon fill="#63b8ff" stroke="#63b8ff" points="545.76,-219.23 556.29,-218.01 547.3,-212.4 545.76,-219.23"/>
</a>
</g>
</g>
<!-- Node3&#45;&gt;Node5 -->
<g id="edge5_Node000003_Node000005" class="edge">
<title>Node3&#45;&gt;Node5</title>
<g id="a_edge5_Node000003_Node000005"><a xlink:title=" ">
<path fill="none" stroke="#63b8ff" d="M504.76,-181.48C518.65,-178.97 533.27,-176.33 546.72,-173.9"/>
<polygon fill="#63b8ff" stroke="#63b8ff" points="547.53,-177.31 556.75,-172.09 546.29,-170.42 547.53,-177.31"/>
</a>
</g>
</g>
<!-- Node4&#45;&gt;Node4 -->
<g id="edge4_Node000004_Node000004" class="edge">
<title>Node4&#45;&gt;Node4</title>
<g id="a_edge4_Node000004_Node000004"><a xlink:title=" ">
<path fill="none" stroke="#63b8ff" d="M580.7,-237.13C571.55,-245.78 577.82,-255.05 599.5,-255.05 613.05,-255.05 620.58,-251.43 622.09,-246.6"/>
<polygon fill="#63b8ff" stroke="#63b8ff" points="625.27,-245.11 618.3,-237.13 618.77,-247.71 625.27,-245.11"/>
</a>
</g>
</g>
<!-- Node5&#45;&gt;Node5 -->
<g id="edge6_Node000005_Node000005" class="edge">
<title>Node5&#45;&gt;Node5</title>
<g id="a_edge6_Node000005_Node000005"><a xlink:title=" ">
<path fill="none" stroke="#63b8ff" d="M580.7,-174.13C571.55,-182.78 577.82,-192.05 599.5,-192.05 613.05,-192.05 620.58,-188.43 622.09,-183.6"/>
<polygon fill="#63b8ff" stroke="#63b8ff" points="625.27,-182.11 618.3,-174.13 618.77,-184.71 625.27,-182.11"/>
</a>
</g>
</g>
<!-- Node8 -->
<g id="Node000008" class="node">
<title>Node8</title>
<g id="a_Node000008"><a xlink:href="namespacettg.html#aacacfe8bc9582308a405c4370650a9d4" target="_top" xlink:title="atomically prints to std::clog a sequence of items (separated by ttg::print_separator) followed by st...">
<polygon fill="white" stroke="#666666" points="852,-149.05 799,-149.05 799,-130.05 852,-130.05 852,-149.05"/>
<text text-anchor="middle" x="825.5" y="-137.05" font-family="Times,serif" font-size="10.00">ttg::log</text>
</a>
</g>
</g>
<!-- Node7&#45;&gt;Node8 -->
<g id="edge11_Node000007_Node000008" class="edge">
<title>Node7&#45;&gt;Node8</title>
<g id="a_edge11_Node000007_Node000008"><a xlink:title=" ">
<path fill="none" stroke="#63b8ff" d="M736.33,-78.18C749.61,-87.75 770.62,-102.79 789,-115.55 793.06,-118.37 797.41,-121.34 801.62,-124.2"/>
<polygon fill="#63b8ff" stroke="#63b8ff" points="799.69,-127.12 809.94,-129.82 803.61,-121.32 799.69,-127.12"/>
</a>
</g>
</g>
<!-- Node10 -->
<g id="Node000010" class="node">
<title>Node10</title>
<g id="a_Node000010"><a xlink:href="namespacettg.html#afbdd9c742be395e0746fdbc26c7d55cc" target="_top" xlink:title="returns whether tracing was enabled at configure time">
<polygon fill="white" stroke="#666666" points="1007,-35.05 898,-35.05 898,-16.05 1007,-16.05 1007,-35.05"/>
<text text-anchor="middle" x="952.5" y="-23.05" font-family="Times,serif" font-size="10.00">ttg::trace_enabled</text>
</a>
</g>
</g>
<!-- Node7&#45;&gt;Node10 -->
<g id="edge13_Node000007_Node000010" class="edge">
<title>Node7&#45;&gt;Node10</title>
<g id="a_edge13_Node000007_Node000010"><a xlink:title=" ">
<path fill="none" stroke="#63b8ff" d="M746.47,-59C758.92,-54.29 774.58,-48.9 789,-45.55 821.21,-38.04 857.71,-33.23 887.94,-30.21"/>
<polygon fill="#63b8ff" stroke="#63b8ff" points="888.32,-33.69 897.94,-29.25 887.65,-26.72 888.32,-33.69"/>
</a>
</g>
</g>
<!-- Node11 -->
<g id="Node000011" class="node">
<title>Node11</title>
<g id="a_Node000011"><a xlink:href="namespacettg.html#abfb8501d408a1ed918cc2a540865a2d8" target="_top" xlink:title="returns whether tracing is enabled">
<polygon fill="white" stroke="#666666" points="862,-73.05 789,-73.05 789,-54.05 862,-54.05 862,-73.05"/>
<text text-anchor="middle" x="825.5" y="-61.05" font-family="Times,serif" font-size="10.00">ttg::tracing</text>
</a>
</g>
</g>
<!-- Node7&#45;&gt;Node11 -->
<g id="edge14_Node000007_Node000011" class="edge">
<title>Node7&#45;&gt;Node11</title>
<g id="a_edge14_Node000007_Node000011"><a xlink:title=" ">
<path fill="none" stroke="#63b8ff" d="M753.18,-67.06C761.24,-66.66 770.14,-66.22 778.84,-65.8"/>
<polygon fill="#63b8ff" stroke="#63b8ff" points="779.08,-69.29 788.89,-65.3 778.73,-62.3 779.08,-69.29"/>
</a>
</g>
</g>
<!-- Node9 -->
<g id="Node000009" class="node">
<title>Node9</title>
<g id="a_Node000009"><a xlink:href="namespacettg_1_1detail.html#a26e07486d5ef8eb5735a8975991a7693" target="_top" xlink:title=" ">
<polygon fill="white" stroke="#666666" points="1000.5,-154.55 904.5,-154.55 904.5,-124.55 1000.5,-124.55 1000.5,-154.55"/>
<text text-anchor="start" x="912.5" y="-142.55" font-family="Times,serif" font-size="10.00">ttg::detail::print</text>
<text text-anchor="middle" x="952.5" y="-131.55" font-family="Times,serif" font-size="10.00">_helper</text>
</a>
</g>
</g>
<!-- Node8&#45;&gt;Node9 -->
<g id="edge12_Node000008_Node000009" class="edge">
<title>Node8&#45;&gt;Node9</title>
<g id="a_edge12_Node000008_Node000009"><a xlink:title=" ">
<path fill="none" stroke="#63b8ff" d="M852.1,-139.55C864.34,-139.55 879.53,-139.55 894.32,-139.55"/>
<polygon fill="#63b8ff" stroke="#63b8ff" points="894.46,-143.05 904.46,-139.55 894.46,-136.05 894.46,-143.05"/>
</a>
</g>
</g>
<!-- Node11&#45;&gt;Node10 -->
<g id="edge17_Node000011_Node000010" class="edge">
<title>Node11&#45;&gt;Node10</title>
<g id="a_edge17_Node000011_Node000010"><a xlink:title=" ">
<path fill="none" stroke="#63b8ff" d="M858.04,-53.96C873.88,-49.14 893.27,-43.25 910.28,-38.08"/>
<polygon fill="#63b8ff" stroke="#63b8ff" points="911.42,-41.39 919.97,-35.13 909.38,-34.69 911.42,-41.39"/>
</a>
</g>
</g>
<!-- Node12 -->
<g id="Node000012" class="node">
<title>Node12</title>
<g id="a_Node000012"><a xlink:href="namespacettg_1_1detail.html#a95356c3874e7ec9268a40feb4fc1519f" target="_top" xlink:title=" ">
<polygon fill="white" stroke="#666666" points="1001,-95.55 904,-95.55 904,-65.55 1001,-65.55 1001,-95.55"/>
<text text-anchor="start" x="912" y="-83.55" font-family="Times,serif" font-size="10.00">ttg::detail::trace</text>
<text text-anchor="middle" x="952.5" y="-72.55" font-family="Times,serif" font-size="10.00">_accessor</text>
</a>
</g>
</g>
<!-- Node11&#45;&gt;Node12 -->
<g id="edge15_Node000011_Node000012" class="edge">
<title>Node11&#45;&gt;Node12</title>
<g id="a_edge15_Node000011_Node000012"><a xlink:title=" ">
<path fill="none" stroke="#63b8ff" d="M862.32,-68.42C872.05,-69.74 882.85,-71.21 893.47,-72.65"/>
<polygon fill="#63b8ff" stroke="#63b8ff" points="893.18,-76.15 903.56,-74.03 894.12,-69.21 893.18,-76.15"/>
</a>
</g>
</g>
<!-- Node12&#45;&gt;Node7 -->
<g id="edge16_Node000012_Node000007" class="edge">
<title>Node12&#45;&gt;Node7</title>
<g id="a_edge16_Node000012_Node000007"><a xlink:title=" ">
<path fill="none" stroke="#63b8ff" d="M903.72,-84.05C871.28,-85.72 827.44,-86.58 789,-82.55 780.46,-81.65 771.4,-80.12 762.81,-78.39"/>
<polygon fill="#63b8ff" stroke="#63b8ff" points="763.53,-74.96 753.02,-76.3 762.06,-81.81 763.53,-74.96"/>
</a>
</g>
</g>
<!-- Node13&#45;&gt;Node10 -->
<g id="edge19_Node000013_Node000010" class="edge">
<title>Node13&#45;&gt;Node10</title>
<g id="a_edge19_Node000013_Node000010"><a xlink:title=" ">
<path fill="none" stroke="#63b8ff" d="M475.29,-20.93C494.89,-15.51 520.66,-9.29 544,-6.55 665.08,7.71 807.57,-5.8 887.94,-16.18"/>
<polygon fill="#63b8ff" stroke="#63b8ff" points="887.53,-19.65 897.9,-17.49 888.45,-12.71 887.53,-19.65"/>
</a>
</g>
</g>
<!-- Node14 -->
<g id="Node000014" class="node">
<title>Node14</title>
<g id="a_Node000014"><a xlink:href="namespacettg_1_1detail.html#a07090477ad763f0b0e3089df7cf8e1eb" target="_top" xlink:title=" ">
<polygon fill="white" stroke="#666666" points="653.5,-45.55 545.5,-45.55 545.5,-15.55 653.5,-15.55 653.5,-45.55"/>
<text text-anchor="start" x="553.5" y="-33.55" font-family="Times,serif" font-size="10.00">ttg::detail::tt_base</text>
<text text-anchor="middle" x="599.5" y="-22.55" font-family="Times,serif" font-size="10.00">_trace_accessor</text>
</a>
</g>
</g>
<!-- Node13&#45;&gt;Node14 -->
<g id="edge20_Node000013_Node000014" class="edge">
<title>Node13&#45;&gt;Node14</title>
<g id="a_edge20_Node000013_Node000014"><a xlink:title=" ">
<path fill="none" stroke="#63b8ff" d="M501.22,-30.55C512.29,-30.55 523.94,-30.55 535.17,-30.55"/>
<polygon fill="#63b8ff" stroke="#63b8ff" points="535.35,-34.05 545.35,-30.55 535.35,-27.05 535.35,-34.05"/>
</a>
</g>
</g>
<!-- Node14&#45;&gt;Node7 -->
<g id="edge21_Node000014_Node000007" class="edge">
<title>Node14&#45;&gt;Node7</title>
<g id="a_edge21_Node000014_Node000007"><a xlink:title=" ">
<path fill="none" stroke="#63b8ff" d="M648.12,-45.56C658.99,-48.99 670.43,-52.6 680.95,-55.92"/>
<polygon fill="#63b8ff" stroke="#63b8ff" points="680.11,-59.32 690.69,-58.99 682.21,-52.64 680.11,-59.32"/>
</a>
</g>
</g>
</g>
</svg>
