<?xml version="1.0" encoding="UTF-8" standalone="no"?>
<!DOCTYPE svg PUBLIC "-//W3C//DTD SVG 1.1//EN"
 "http://www.w3.org/Graphics/SVG/1.1/DTD/svg11.dtd">
<!-- Generated by graphviz version 2.43.0 (0)
 -->
<!-- Title: ttg_parsec::detail::parsec_ttg_task_t&lt; TT, KeyIsVoid &gt; Pages: 1 -->
<!--zoomable 296 -->

<svg id="main" version="1.1" xmlns="http://www.w3.org/2000/svg" xmlns:xlink="http://www.w3.org/1999/xlink" xml:space="preserve" onload="init(evt)">
<style type="text/css"><![CDATA[
.node, .edge {opacity: 0.7;}
.node.selected, .edge.selected {opacity: 1;}
.edge:hover path { stroke: red; }
.edge:hover polygon { stroke: red; fill: red; }
]]></style>

<defs>
  <circle id="rim" cx="0" cy="0" r="7"/>
  <circle id="rim2" cx="0" cy="0" r="3.5"/>
  <g id="zoomPlus">
    <use xlink:href="#rim" fill="#404040"><set attributeName="fill" to="#808080" begin="zoomplus.mouseover" end="zoomplus.mouseout"/></use>
    <path d="M-4,0h8M0,-4v8" fill="none" stroke="white" stroke-width="1.5" pointer-events="none"/>
  </g>
  <g id="zoomMin">
    <use xlink:href="#rim" fill="#404040"><set attributeName="fill" to="#808080" begin="zoomminus.mouseover" end="zoomminus.mouseout"/></use>
    <path d="M-4,0h8" fill="none" stroke="white" stroke-width="1.5" pointer-events="none"/>
  </g>
  <g id="arrowUp" transform="translate(30 24)">
    <use xlink:href="#rim"/>
    <path pointer-events="none" fill="none" stroke="white" stroke-width="1.5" d="M0,-3.0v7 M-2.5,-0.5L0,-3.0L2.5,-0.5"/>
  </g>
  <g id="arrowRight" transform="rotate(90) translate(36 -43)">
    <use xlink:href="#rim"/>
    <path pointer-events="none" fill="none" stroke="white" stroke-width="1.5" d="M0,-3.0v7 M-2.5,-0.5L0,-3.0L2.5,-0.5"/>
  </g>
  <g id="arrowDown" transform="rotate(180) translate(-30 -48)">
    <use xlink:href="#rim"/>
    <path pointer-events="none" fill="none" stroke="white" stroke-width="1.5" d="M0,-3.0v7 M-2.5,-0.5L0,-3.0L2.5,-0.5"/>
  </g>
  <g id="arrowLeft" transform="rotate(270) translate(-36 17)">
    <use xlink:href="#rim"/>
    <path pointer-events="none" fill="none" stroke="white" stroke-width="1.5" d="M0,-3.0v7 M-2.5,-0.5L0,-3.0L2.5,-0.5"/>
  </g>
  <g id="resetDef">
    <use xlink:href="#rim2" fill="#404040"><set attributeName="fill" to="#808080" begin="reset.mouseover" end="reset.mouseout"/></use>
  </g>
</defs>
<script type="application/ecmascript">
var viewWidth = 547;
var viewHeight = 296;
var sectionId = 'dynsection-1';
</script>
<script type="application/ecmascript" xlink:href="svg.min.js"/>
<svg id="graph" class="graph">
<g id="viewport">
<title>ttg_parsec::detail::parsec_ttg_task_t&lt; TT, KeyIsVoid &gt;</title>
<!-- Node1 -->
<g id="Node000001" class="node">
<title>Node1</title>
<g id="a_Node000001"><a xlink:title=" ">
<polygon fill="#999999" stroke="#666666" points="539,-138 428,-138 428,-97 539,-97 539,-138"/>
<text text-anchor="start" x="436" y="-126" font-family="Times,serif" font-size="10.00">ttg_parsec::detail</text>
<text text-anchor="start" x="436" y="-115" font-family="Times,serif" font-size="10.00">::parsec_ttg_task_t</text>
<text text-anchor="middle" x="483.5" y="-104" font-family="Times,serif" font-size="10.00">&lt; TT, KeyIsVoid &gt;</text>
</a>
</g>
</g>
<!-- Node2 -->
<g id="Node000002" class="node">
<title>Node2</title>
<g id="a_Node000002"><a xlink:href="structttg__parsec_1_1detail_1_1parsec__ttg__task__base__t.html" target="_top" xlink:title=" ">
<polygon fill="white" stroke="#666666" points="331.5,-253.5 191.5,-253.5 191.5,-223.5 331.5,-223.5 331.5,-253.5"/>
<text text-anchor="start" x="199.5" y="-241.5" font-family="Times,serif" font-size="10.00">ttg_parsec::detail</text>
<text text-anchor="middle" x="261.5" y="-230.5" font-family="Times,serif" font-size="10.00">::parsec_ttg_task_base_t</text>
</a>
</g>
</g>
<!-- Node2&#45;&gt;Node1 -->
<g id="edge1_Node000001_Node000002" class="edge">
<title>Node2&#45;&gt;Node1</title>
<g id="a_edge1_Node000001_Node000002"><a xlink:title=" ">
<path fill="none" stroke="#63b8ff" d="M328,-219.76C332.11,-218.11 336.15,-216.36 340,-214.5 384.08,-193.26 429.98,-159.59 457.4,-138.02"/>
<polygon fill="#63b8ff" stroke="#63b8ff" points="326.43,-216.61 318.31,-223.42 328.9,-223.16 326.43,-216.61"/>
</a>
</g>
</g>
<!-- Node3 -->
<g id="Node000003" class="node">
<title>Node3</title>
<g id="a_Node000003"><a xlink:href="structttg__parsec_1_1detail_1_1ttg__data__copy__t.html" target="_top" xlink:title=" ">
<polygon fill="white" stroke="#666666" points="104,-207.5 0,-207.5 0,-177.5 104,-177.5 104,-207.5"/>
<text text-anchor="start" x="8" y="-195.5" font-family="Times,serif" font-size="10.00">ttg_parsec::detail</text>
<text text-anchor="middle" x="52" y="-184.5" font-family="Times,serif" font-size="10.00">::ttg_data_copy_t</text>
</a>
</g>
</g>
<!-- Node3&#45;&gt;Node1 -->
<g id="edge10_Node000001_Node000003" class="edge">
<title>Node3&#45;&gt;Node1</title>
<g id="a_edge10_Node000001_Node000003"><a xlink:title=" ">
<path fill="none" stroke="#9a32cd" stroke-dasharray="5,2" d="M114.04,-174.77C116.73,-174 119.39,-173.24 122,-172.5 149.07,-164.8 155.41,-161.06 183,-155.5 267.65,-138.43 367.39,-127.59 427.73,-122.04"/>
<polygon fill="#9a32cd" stroke="#9a32cd" points="112.87,-171.46 104.23,-177.59 114.81,-178.19 112.87,-171.46"/>
</a>
</g>
<text text-anchor="middle" x="261.5" y="-158.5" font-family="Times,serif" font-size="10.00" fill="grey"> copies</text>
</g>
<!-- Node3&#45;&gt;Node2 -->
<g id="edge2_Node000002_Node000003" class="edge">
<title>Node3&#45;&gt;Node2</title>
<g id="a_edge2_Node000002_Node000003"><a xlink:title=" ">
<path fill="none" stroke="#9a32cd" stroke-dasharray="5,2" d="M114.01,-206.02C138.75,-211.51 167.42,-217.86 192.8,-223.49"/>
<polygon fill="#9a32cd" stroke="#9a32cd" points="114.55,-202.56 104.03,-203.81 113.03,-209.39 114.55,-202.56"/>
</a>
</g>
<text text-anchor="middle" x="143.5" y="-219.5" font-family="Times,serif" font-size="10.00" fill="grey"> copies</text>
</g>
<!-- Node4 -->
<g id="Node000004" class="node">
<title>Node4</title>
<g id="a_Node000004"><a xlink:href="structttg__parsec_1_1detail_1_1ttg__data__copy__self__t.html" target="_top" xlink:title=" ">
<polygon fill="white" stroke="#666666" points="324.5,-205.5 198.5,-205.5 198.5,-175.5 324.5,-175.5 324.5,-205.5"/>
<text text-anchor="start" x="206.5" y="-193.5" font-family="Times,serif" font-size="10.00">ttg_parsec::detail</text>
<text text-anchor="middle" x="261.5" y="-182.5" font-family="Times,serif" font-size="10.00">::ttg_data_copy_self_t</text>
</a>
</g>
</g>
<!-- Node3&#45;&gt;Node4 -->
<g id="edge4_Node000004_Node000003" class="edge">
<title>Node3&#45;&gt;Node4</title>
<g id="a_edge4_Node000004_Node000003"><a xlink:title=" ">
<path fill="none" stroke="#9a32cd" stroke-dasharray="5,2" d="M114.23,-179.42C116.85,-179.07 119.45,-178.76 122,-178.5 146.98,-175.99 174.52,-177.5 198.42,-180.18"/>
<polygon fill="#9a32cd" stroke="#9a32cd" points="113.43,-176 104.07,-180.95 114.48,-182.92 113.43,-176"/>
</a>
</g>
<text text-anchor="middle" x="143.5" y="-181.5" font-family="Times,serif" font-size="10.00" fill="grey"> self</text>
</g>
<!-- Node4&#45;&gt;Node3 -->
<g id="edge3_Node000003_Node000004" class="edge">
<title>Node4&#45;&gt;Node3</title>
<g id="a_edge3_Node000003_Node000004"><a xlink:title=" ">
<path fill="none" stroke="#63b8ff" d="M188.12,-191.27C180.32,-191.35 172.49,-191.43 165,-191.5 145.07,-191.69 123.14,-191.89 104.02,-192.06"/>
<polygon fill="#63b8ff" stroke="#63b8ff" points="188.38,-194.77 198.34,-191.16 188.31,-187.77 188.38,-194.77"/>
</a>
</g>
</g>
<!-- Node5 -->
<g id="Node000005" class="node">
<title>Node5</title>
<g id="a_Node000005"><a xlink:href="structttg__parsec_1_1detail_1_1device__ptr__t.html" target="_top" xlink:title=" ">
<polygon fill="white" stroke="#666666" points="104,-287.5 0,-287.5 0,-257.5 104,-257.5 104,-287.5"/>
<text text-anchor="start" x="8" y="-275.5" font-family="Times,serif" font-size="10.00">ttg_parsec::detail</text>
<text text-anchor="middle" x="52" y="-264.5" font-family="Times,serif" font-size="10.00">::device_ptr_t</text>
</a>
</g>
</g>
<!-- Node5&#45;&gt;Node2 -->
<g id="edge5_Node000002_Node000005" class="edge">
<title>Node5&#45;&gt;Node2</title>
<g id="a_edge5_Node000002_Node000005"><a xlink:title=" ">
<path fill="none" stroke="#9a32cd" stroke-dasharray="5,2" d="M114.15,-262.48C138.35,-258.51 166.29,-253.94 191.24,-249.85"/>
<polygon fill="#9a32cd" stroke="#9a32cd" points="113.33,-259.07 104.03,-264.14 114.46,-265.98 113.33,-259.07"/>
</a>
</g>
<text text-anchor="middle" x="143.5" y="-263.5" font-family="Times,serif" font-size="10.00" fill="grey"> dev_ptr</text>
</g>
<!-- Node6 -->
<g id="Node000006" class="node">
<title>Node6</title>
<g id="a_Node000006"><a xlink:href="classttg__parsec_1_1_t_t.html" target="_top" xlink:title=" ">
<polygon fill="white" stroke="#666666" points="340,-51 183,-51 183,-10 340,-10 340,-51"/>
<text text-anchor="start" x="191" y="-39" font-family="Times,serif" font-size="10.00">ttg_parsec::TT&lt; keyT,</text>
<text text-anchor="start" x="191" y="-28" font-family="Times,serif" font-size="10.00"> output_terminalsT, derived</text>
<text text-anchor="middle" x="261.5" y="-17" font-family="Times,serif" font-size="10.00">T, input_valueTs, Space &gt;</text>
</a>
</g>
</g>
<!-- Node6&#45;&gt;Node1 -->
<g id="edge6_Node000001_Node000006" class="edge">
<title>Node6&#45;&gt;Node1</title>
<g id="a_edge6_Node000001_Node000006"><a xlink:title=" ">
<path fill="none" stroke="#9a32cd" stroke-dasharray="5,2" d="M328.02,-54.71C353.68,-64.37 383.31,-75.73 410,-86.5 418.12,-89.78 426.72,-93.35 435.04,-96.87"/>
<polygon fill="#9a32cd" stroke="#9a32cd" points="328.99,-51.34 318.39,-51.1 326.53,-57.89 328.99,-51.34"/>
</a>
</g>
<text text-anchor="middle" x="384" y="-89.5" font-family="Times,serif" font-size="10.00" fill="grey"> tt</text>
</g>
<!-- Node7 -->
<g id="Node000007" class="node">
<title>Node7</title>
<g id="a_Node000007"><a xlink:href="classttg_1_1_t_t_base.html" target="_top" xlink:title="A base class for all template tasks.">
<polygon fill="white" stroke="#666666" points="89.5,-19 14.5,-19 14.5,0 89.5,0 89.5,-19"/>
<text text-anchor="middle" x="52" y="-7" font-family="Times,serif" font-size="10.00">ttg::TTBase</text>
</a>
</g>
</g>
<!-- Node7&#45;&gt;Node6 -->
<g id="edge7_Node000006_Node000007" class="edge">
<title>Node7&#45;&gt;Node6</title>
<g id="a_edge7_Node000006_Node000007"><a xlink:title=" ">
<path fill="none" stroke="#63b8ff" d="M99.74,-14.23C124.28,-16.71 155,-19.82 183,-22.66"/>
<polygon fill="#63b8ff" stroke="#63b8ff" points="99.92,-10.73 89.62,-13.21 99.22,-17.7 99.92,-10.73"/>
</a>
</g>
</g>
<!-- Node8 -->
<g id="Node000008" class="node">
<title>Node8</title>
<g id="a_Node000008"><a xlink:href="structttg__parsec_1_1detail_1_1_parsec_t_t_base.html" target="_top" xlink:title=" ">
<polygon fill="white" stroke="#666666" points="104,-67.5 0,-67.5 0,-37.5 104,-37.5 104,-67.5"/>
<text text-anchor="start" x="8" y="-55.5" font-family="Times,serif" font-size="10.00">ttg_parsec::detail</text>
<text text-anchor="middle" x="52" y="-44.5" font-family="Times,serif" font-size="10.00">::ParsecTTBase</text>
</a>
</g>
</g>
<!-- Node8&#45;&gt;Node6 -->
<g id="edge8_Node000006_Node000008" class="edge">
<title>Node8&#45;&gt;Node6</title>
<g id="a_edge8_Node000006_Node000008"><a xlink:title=" ">
<path fill="none" stroke="#8b1a1a" d="M114.03,-46.03C135.61,-43.74 160.17,-41.14 182.94,-38.72"/>
<polygon fill="#8b1a1a" stroke="#8b1a1a" points="113.6,-42.56 104.03,-47.09 114.34,-49.52 113.6,-42.56"/>
</a>
</g>
</g>
<!-- Node9 -->
<g id="Node000009" class="node">
<title>Node9</title>
<g id="a_Node000009"><a xlink:href="structttg__parsec_1_1detail_1_1device__state__t.html" target="_top" xlink:title=" ">
<polygon fill="white" stroke="#666666" points="340,-110 183,-110 183,-69 340,-69 340,-110"/>
<text text-anchor="start" x="191" y="-98" font-family="Times,serif" font-size="10.00">ttg_parsec::detail</text>
<text text-anchor="start" x="191" y="-87" font-family="Times,serif" font-size="10.00">::device_state_t&lt; TT</text>
<text text-anchor="middle" x="261.5" y="-76" font-family="Times,serif" font-size="10.00">::derived_has_device_op()&gt;</text>
</a>
</g>
</g>
<!-- Node9&#45;&gt;Node1 -->
<g id="edge9_Node000001_Node000009" class="edge">
<title>Node9&#45;&gt;Node1</title>
<g id="a_edge9_Node000001_Node000009"><a xlink:title=" ">
<path fill="none" stroke="#9a32cd" stroke-dasharray="5,2" d="M350.02,-100.64C376.24,-103.98 404.25,-107.54 427.73,-110.53"/>
<polygon fill="#9a32cd" stroke="#9a32cd" points="350.43,-97.16 340.06,-99.37 349.54,-104.11 350.43,-97.16"/>
</a>
</g>
<text text-anchor="middle" x="384" y="-110.5" font-family="Times,serif" font-size="10.00" fill="grey"> dev_state</text>
</g>
</g>
</svg>

<g id="navigator" transform="translate(0 0)" fill="#404254">
  <rect fill="#f2f5e9" fill-opacity="0.5" stroke="#606060" stroke-width=".5" x="0" y="0" width="60" height="60"/>
  <use id="zoomplus" xlink:href="#zoomPlus" x="17" y="9" onmousedown="handleZoom(evt,'in')"/>
  <use id="zoomminus" xlink:href="#zoomMin" x="42" y="9" onmousedown="handleZoom(evt,'out')"/>
  <use id="reset" xlink:href="#resetDef" x="30" y="36" onmousedown="handleReset()"/>
   <use id="arrowup" xlink:href="#arrowUp" x="0" y="0" onmousedown="handlePan(0,-1)"/>
  <use id="arrowright" xlink:href="#arrowRight" x="0" y="0" onmousedown="handlePan(1,0)"/>
  <use id="arrowdown" xlink:href="#arrowDown" x="0" y="0" onmousedown="handlePan(0,1)"/>
  <use id="arrowleft" xlink:href="#arrowLeft" x="0" y="0" onmousedown="handlePan(-1,0)"/>
</g>
<svg viewBox="0 0 15 15" width="100%" height="30px" preserveAspectRatio="xMaxYMin meet">
 <g id="arrow_out" transform="scale(0.3 0.3)">
  <a xlink:href="structttg__parsec_1_1detail_1_1parsec__ttg__task__t__coll__graph_org.svg" target="_base">
   <rect id="button" ry="5" rx="5" y="6" x="6" height="38" width="38"
        fill="#f2f5e9" fill-opacity="0.5" stroke="#606060" stroke-width="1.0"/>
   <path id="arrow"
     d="M 11.500037,31.436501 C 11.940474,20.09759 22.043105,11.32322 32.158766,21.979434 L 37.068811,17.246167 C 37.068811,17.246167 37.088388,32 37.088388,32 L 22.160133,31.978069 C 22.160133,31.978069 26.997745,27.140456 26.997745,27.140456 C 18.528582,18.264221 13.291696,25.230495 11.500037,31.436501 z"
     style="fill:#404040;"/>
  </a>
 </g>
</svg>

<style type='text/css'>
<![CDATA[
[data-mouse-over-selected='false'] { opacity: 0.7; }
[data-mouse-over-selected='true']  { opacity: 1.0; }
]]>
</style>
<script type="application/ecmascript"><![CDATA[
document.addEventListener('DOMContentLoaded', (event) => {
  highlightEdges();
  highlightAdjacentNodes();
});
]]></script>
</svg>
