<?xml version="1.0" encoding="UTF-8" standalone="no"?>
<!DOCTYPE svg PUBLIC "-//W3C//DTD SVG 1.1//EN"
 "http://www.w3.org/Graphics/SVG/1.1/DTD/svg11.dtd">
<!-- Generated by graphviz version 2.43.0 (0)
 -->
<!-- Title: ttg_parsec::detail::parsec_ttg_task_base_t Pages: 1 -->
<svg width="294pt" height="115pt"
 viewBox="0.00 0.00 294.00 115.00" xmlns="http://www.w3.org/2000/svg" xmlns:xlink="http://www.w3.org/1999/xlink">

<svg id="main" version="1.1" xmlns="http://www.w3.org/2000/svg" xmlns:xlink="http://www.w3.org/1999/xlink" xml:space="preserve" onload="init(evt)">
<style type="text/css"><![CDATA[
.node, .edge {opacity: 0.7;}
.node.selected, .edge.selected {opacity: 1;}
.edge:hover path { stroke: red; }
.edge:hover polygon { stroke: red; fill: red; }
]]></style>
<script type="application/ecmascript" xlink:href="svg.min.js"/>
<svg id="graph" class="graph">
<g id="graph0" class="graph" transform="scale(1 1) rotate(0) translate(4 111)">
<title>ttg_parsec::detail::parsec_ttg_task_base_t</title>
<!-- Node1 -->
<g id="Node000001" class="node">
<title>Node1</title>
<g id="a_Node000001"><a xlink:title=" ">
<polygon fill="#999999" stroke="#666666" points="286,-30 146,-30 146,0 286,0 286,-30"/>
<text text-anchor="start" x="154" y="-18" font-family="Times,serif" font-size="10.00">ttg_parsec::detail</text>
<text text-anchor="middle" x="216" y="-7" font-family="Times,serif" font-size="10.00">::parsec_ttg_task_base_t</text>
</a>
</g>
</g>
<!-- Node2 -->
<g id="Node000002" class="node">
<title>Node2</title>
<g id="a_Node000002"><a xlink:href="structttg__parsec_1_1detail_1_1ttg__data__copy__t.html" target="_top" xlink:title=" ">
<polygon fill="white" stroke="#666666" points="147,-107 43,-107 43,-77 147,-77 147,-107"/>
<text text-anchor="start" x="51" y="-95" font-family="Times,serif" font-size="10.00">ttg_parsec::detail</text>
<text text-anchor="middle" x="95" y="-84" font-family="Times,serif" font-size="10.00">::ttg_data_copy_t</text>
</a>
</g>
</g>
<!-- Node2&#45;&gt;Node1 -->
<g id="edge1_Node000001_Node000002" class="edge">
<title>Node2&#45;&gt;Node1</title>
<g id="a_edge1_Node000001_Node000002"><a xlink:title=" ">
<path fill="none" stroke="#9a32cd" stroke-dasharray="5,2" d="M126.33,-71.58C147.31,-58.58 174.44,-41.76 193.34,-30.04"/>
<polygon fill="#9a32cd" stroke="#9a32cd" points="124.41,-68.65 117.76,-76.89 128.1,-74.6 124.41,-68.65"/>
</a>
</g>
<text text-anchor="middle" x="180" y="-51" font-family="Times,serif" font-size="10.00" fill="grey"> copies</text>
</g>
<!-- Node3 -->
<g id="Node000003" class="node">
<title>Node3</title>
<g id="a_Node000003"><a xlink:href="structttg__parsec_1_1detail_1_1ttg__data__copy__self__t.html" target="_top" xlink:title=" ">
<polygon fill="white" stroke="#666666" points="126,-30 0,-30 0,0 126,0 126,-30"/>
<text text-anchor="start" x="8" y="-18" font-family="Times,serif" font-size="10.00">ttg_parsec::detail</text>
<text text-anchor="middle" x="63" y="-7" font-family="Times,serif" font-size="10.00">::ttg_data_copy_self_t</text>
</a>
</g>
</g>
<!-- Node2&#45;&gt;Node3 -->
<g id="edge3_Node000003_Node000002" class="edge">
<title>Node2&#45;&gt;Node3</title>
<g id="a_edge3_Node000003_Node000002"><a xlink:title=" ">
<path fill="none" stroke="#9a32cd" stroke-dasharray="5,2" d="M63.43,-69.78C60.45,-66.52 57.85,-62.92 56,-59 51.73,-49.97 53.73,-38.82 56.66,-30.14"/>
<polygon fill="#9a32cd" stroke="#9a32cd" points="61.21,-72.49 70.91,-76.75 65.98,-67.37 61.21,-72.49"/>
</a>
</g>
<text text-anchor="middle" x="67" y="-51" font-family="Times,serif" font-size="10.00" fill="grey"> self</text>
</g>
<!-- Node3&#45;&gt;Node2 -->
<g id="edge2_Node000002_Node000003" class="edge">
<title>Node3&#45;&gt;Node2</title>
<g id="a_edge2_Node000002_Node000003"><a xlink:title=" ">
<path fill="none" stroke="#63b8ff" d="M77.64,-39.18C79.22,-42.09 80.71,-45.08 82,-48 86.09,-57.28 89.37,-68.22 91.62,-76.75"/>
<polygon fill="#63b8ff" stroke="#63b8ff" points="80.51,-37.16 72.47,-30.26 74.46,-40.67 80.51,-37.16"/>
</a>
</g>
</g>
<!-- Node4 -->
<g id="Node000004" class="node">
<title>Node4</title>
<g id="a_Node000004"><a xlink:href="structttg__parsec_1_1detail_1_1device__ptr__t.html" target="_top" xlink:title=" ">
<polygon fill="white" stroke="#666666" points="269,-107 165,-107 165,-77 269,-77 269,-107"/>
<text text-anchor="start" x="173" y="-95" font-family="Times,serif" font-size="10.00">ttg_parsec::detail</text>
<text text-anchor="middle" x="217" y="-84" font-family="Times,serif" font-size="10.00">::device_ptr_t</text>
</a>
</g>
</g>
<!-- Node4&#45;&gt;Node1 -->
<g id="edge4_Node000001_Node000004" class="edge">
<title>Node4&#45;&gt;Node1</title>
<g id="a_edge4_Node000001_Node000004"><a xlink:title=" ">
<path fill="none" stroke="#9a32cd" stroke-dasharray="5,2" d="M216.67,-66.54C216.51,-54.45 216.32,-40.29 216.19,-30.04"/>
<polygon fill="#9a32cd" stroke="#9a32cd" points="213.18,-66.94 216.81,-76.89 220.18,-66.85 213.18,-66.94"/>
</a>
</g>
<text text-anchor="middle" x="237.5" y="-51" font-family="Times,serif" font-size="10.00" fill="grey"> dev_ptr</text>
</g>
</g>
</svg>
</svg>

<style type='text/css'>
<![CDATA[
[data-mouse-over-selected='false'] { opacity: 0.7; }
[data-mouse-over-selected='true']  { opacity: 1.0; }
]]>
</style>
<script type="application/ecmascript"><![CDATA[
document.addEventListener('DOMContentLoaded', (event) => {
  highlightEdges();
  highlightAdjacentNodes();
});
]]></script>
</svg>
