<?xml version="1.0" encoding="UTF-8" standalone="no"?>
<!DOCTYPE svg PUBLIC "-//W3C//DTD SVG 1.1//EN"
 "http://www.w3.org/Graphics/SVG/1.1/DTD/svg11.dtd">
<!-- Generated by graphviz version 2.43.0 (0)
 -->
<!-- Title: ttg_parsec::detail::ttg_data_value_copy_t::operator= Pages: 1 -->
<svg width="332pt" height="86pt"
 viewBox="0.00 0.00 332.00 86.00" xmlns="http://www.w3.org/2000/svg" xmlns:xlink="http://www.w3.org/1999/xlink">
<g id="graph0" class="graph" transform="scale(1 1) rotate(0) translate(4 82)">
<title>ttg_parsec::detail::ttg_data_value_copy_t::operator=</title>
<!-- Node1 -->
<g id="Node000001" class="node">
<title>Node1</title>
<g id="a_Node000001"><a xlink:title=" ">
<polygon fill="#999999" stroke="#666666" points="127,-59.5 0,-59.5 0,-18.5 127,-18.5 127,-59.5"/>
<text text-anchor="start" x="8" y="-47.5" font-family="Times,serif" font-size="10.00">ttg_parsec::detail</text>
<text text-anchor="start" x="8" y="-36.5" font-family="Times,serif" font-size="10.00">::ttg_data_value_copy</text>
<text text-anchor="middle" x="63.5" y="-25.5" font-family="Times,serif" font-size="10.00">_t::operator=</text>
</a>
</g>
</g>
<!-- Node2 -->
<g id="Node000002" class="node">
<title>Node2</title>
<g id="a_Node000002"><a xlink:href="structttg__parsec_1_1detail_1_1ttg__data__copy__t.html#acf0c82c2fa074667f2a09f7b8a5a0dbb" target="_top" xlink:title=" ">
<polygon fill="white" stroke="#666666" points="324,-78 163,-78 163,-48 324,-48 324,-78"/>
<text text-anchor="start" x="171" y="-66" font-family="Times,serif" font-size="10.00">ttg_parsec::detail</text>
<text text-anchor="middle" x="243.5" y="-55" font-family="Times,serif" font-size="10.00">::ttg_data_copy_t::operator=</text>
</a>
</g>
</g>
<!-- Node1&#45;&gt;Node2 -->
<g id="edge1_Node000001_Node000002" class="edge">
<title>Node1&#45;&gt;Node2</title>
<g id="a_edge1_Node000001_Node000002"><a xlink:title=" ">
<path fill="none" stroke="#63b8ff" d="M127.01,-47.43C135.45,-48.57 144.24,-49.75 153.04,-50.94"/>
<polygon fill="#63b8ff" stroke="#63b8ff" points="152.58,-54.41 162.96,-52.28 153.52,-47.47 152.58,-54.41"/>
</a>
</g>
</g>
<!-- Node3 -->
<g id="Node000003" class="node">
<title>Node3</title>
<g id="a_Node000003"><a xlink:href="namespacettg__parsec_1_1detail.html#a0b18a921b236e8401ba7abb9624c5bd0" target="_top" xlink:title=" ">
<polygon fill="white" stroke="#666666" points="317,-30 170,-30 170,0 317,0 317,-30"/>
<text text-anchor="start" x="178" y="-18" font-family="Times,serif" font-size="10.00">ttg_parsec::detail</text>
<text text-anchor="middle" x="243.5" y="-7" font-family="Times,serif" font-size="10.00">::ttg_data_copy_container</text>
</a>
</g>
</g>
<!-- Node1&#45;&gt;Node3 -->
<g id="edge2_Node000001_Node000003" class="edge">
<title>Node1&#45;&gt;Node3</title>
<g id="a_edge2_Node000001_Node000003"><a xlink:title=" ">
<path fill="none" stroke="#63b8ff" d="M127.01,-30.57C137.59,-29.15 148.72,-27.64 159.73,-26.16"/>
<polygon fill="#63b8ff" stroke="#63b8ff" points="160.34,-29.61 169.78,-24.8 159.4,-22.67 160.34,-29.61"/>
</a>
</g>
</g>
</g>
</svg>
