<?xml version="1.0" encoding="UTF-8" standalone="no"?>
<!DOCTYPE svg PUBLIC "-//W3C//DTD SVG 1.1//EN"
 "http://www.w3.org/Graphics/SVG/1.1/DTD/svg11.dtd">
<!-- Generated by graphviz version 2.43.0 (0)
 -->
<!-- Title: ttg_parsec::detail::device_state_t::dev_ptr Pages: 1 -->
<svg width="302pt" height="250pt"
 viewBox="0.00 0.00 302.00 249.50" xmlns="http://www.w3.org/2000/svg" xmlns:xlink="http://www.w3.org/1999/xlink">
<g id="graph0" class="graph" transform="scale(1 1) rotate(0) translate(4 245.5)">
<title>ttg_parsec::detail::device_state_t::dev_ptr</title>
<!-- Node1 -->
<g id="Node000001" class="node">
<title>Node1</title>
<g id="a_Node000001"><a xlink:title=" ">
<polygon fill="#999999" stroke="#666666" points="294,-138 154,-138 154,-108 294,-108 294,-138"/>
<text text-anchor="start" x="162" y="-126" font-family="Times,serif" font-size="10.00">ttg_parsec::detail</text>
<text text-anchor="middle" x="224" y="-115" font-family="Times,serif" font-size="10.00">::device_state_t::dev_ptr</text>
</a>
</g>
</g>
<!-- Node2 -->
<g id="Node000002" class="node">
<title>Node2</title>
<g id="a_Node000002"><a xlink:href="structttg__parsec_1_1detail_1_1parsec__ttg__task__t.html#a853337730210dccd59088db746f832dc" target="_top" xlink:title=" ">
<polygon fill="white" stroke="#666666" points="114.5,-241.5 3.5,-241.5 3.5,-200.5 114.5,-200.5 114.5,-241.5"/>
<text text-anchor="start" x="11.5" y="-229.5" font-family="Times,serif" font-size="10.00">ttg_parsec::detail</text>
<text text-anchor="start" x="11.5" y="-218.5" font-family="Times,serif" font-size="10.00">::parsec_ttg_task_t</text>
<text text-anchor="middle" x="59" y="-207.5" font-family="Times,serif" font-size="10.00">::parsec_ttg_task_t</text>
</a>
</g>
</g>
<!-- Node1&#45;&gt;Node2 -->
<g id="edge1_Node000001_Node000002" class="edge">
<title>Node1&#45;&gt;Node2</title>
<g id="a_edge1_Node000001_Node000002"><a xlink:title=" ">
<path fill="none" stroke="#63b8ff" d="M192.48,-143.89C171.79,-157.77 143.64,-176.12 118,-191 112.61,-194.13 106.86,-197.3 101.15,-200.35"/>
<polygon fill="#63b8ff" stroke="#63b8ff" points="194.53,-146.73 200.86,-138.23 190.62,-140.92 194.53,-146.73"/>
</a>
</g>
</g>
<!-- Node3 -->
<g id="Node000003" class="node">
<title>Node3</title>
<g id="a_Node000003"><a xlink:href="structttg__parsec_1_1detail_1_1parsec__ttg__task__t_3_01_t_t_00_01true_01_4.html#a3502860a4ddf6872c2e190f719665e6f" target="_top" xlink:title=" ">
<polygon fill="white" stroke="#666666" points="118,-182 0,-182 0,-130 118,-130 118,-182"/>
<text text-anchor="start" x="8" y="-170" font-family="Times,serif" font-size="10.00">ttg_parsec::detail</text>
<text text-anchor="start" x="8" y="-159" font-family="Times,serif" font-size="10.00">::parsec_ttg_task_t</text>
<text text-anchor="start" x="8" y="-148" font-family="Times,serif" font-size="10.00">&lt; TT, true &gt;::parsec</text>
<text text-anchor="middle" x="59" y="-137" font-family="Times,serif" font-size="10.00">_ttg_task_t</text>
</a>
</g>
</g>
<!-- Node1&#45;&gt;Node3 -->
<g id="edge2_Node000001_Node000003" class="edge">
<title>Node1&#45;&gt;Node3</title>
<g id="a_edge2_Node000001_Node000003"><a xlink:title=" ">
<path fill="none" stroke="#63b8ff" d="M144.06,-138.98C135.34,-140.75 126.58,-142.52 118.18,-144.22"/>
<polygon fill="#63b8ff" stroke="#63b8ff" points="144.77,-142.41 153.87,-136.99 143.38,-135.55 144.77,-142.41"/>
</a>
</g>
</g>
<!-- Node4 -->
<g id="Node000004" class="node">
<title>Node4</title>
<g id="a_Node000004"><a xlink:href="structttg__parsec_1_1detail_1_1parsec__ttg__task__t.html#a3467466975a64dd1138ae2d57df82e4f" target="_top" xlink:title=" ">
<polygon fill="white" stroke="#666666" points="114.5,-111.5 3.5,-111.5 3.5,-70.5 114.5,-70.5 114.5,-111.5"/>
<text text-anchor="start" x="11.5" y="-99.5" font-family="Times,serif" font-size="10.00">ttg_parsec::detail</text>
<text text-anchor="start" x="11.5" y="-88.5" font-family="Times,serif" font-size="10.00">::parsec_ttg_task_t</text>
<text text-anchor="middle" x="59" y="-77.5" font-family="Times,serif" font-size="10.00">::parsec_ttg_task_t</text>
</a>
</g>
</g>
<!-- Node1&#45;&gt;Node4 -->
<g id="edge3_Node000001_Node000004" class="edge">
<title>Node1&#45;&gt;Node4</title>
<g id="a_edge3_Node000001_Node000004"><a xlink:title=" ">
<path fill="none" stroke="#63b8ff" d="M143.99,-107.49C134.06,-105.54 124.09,-103.58 114.65,-101.73"/>
<polygon fill="#63b8ff" stroke="#63b8ff" points="143.39,-110.94 153.87,-109.43 144.73,-104.07 143.39,-110.94"/>
</a>
</g>
</g>
<!-- Node5 -->
<g id="Node000005" class="node">
<title>Node5</title>
<g id="a_Node000005"><a xlink:href="structttg__parsec_1_1detail_1_1parsec__ttg__task__t_3_01_t_t_00_01true_01_4.html#a4afe905ef7e7e8a64947133f7f8a4f9c" target="_top" xlink:title=" ">
<polygon fill="white" stroke="#666666" points="118,-52 0,-52 0,0 118,0 118,-52"/>
<text text-anchor="start" x="8" y="-40" font-family="Times,serif" font-size="10.00">ttg_parsec::detail</text>
<text text-anchor="start" x="8" y="-29" font-family="Times,serif" font-size="10.00">::parsec_ttg_task_t</text>
<text text-anchor="start" x="8" y="-18" font-family="Times,serif" font-size="10.00">&lt; TT, true &gt;::parsec</text>
<text text-anchor="middle" x="59" y="-7" font-family="Times,serif" font-size="10.00">_ttg_task_t</text>
</a>
</g>
</g>
<!-- Node1&#45;&gt;Node5 -->
<g id="edge4_Node000001_Node000005" class="edge">
<title>Node1&#45;&gt;Node5</title>
<g id="a_edge4_Node000001_Node000005"><a xlink:title=" ">
<path fill="none" stroke="#63b8ff" d="M188.87,-102.69C164.21,-88.02 130.68,-68.06 104,-52.19"/>
<polygon fill="#63b8ff" stroke="#63b8ff" points="187.15,-105.74 197.53,-107.84 190.73,-99.72 187.15,-105.74"/>
</a>
</g>
</g>
</g>
</svg>
