<?xml version="1.0" encoding="UTF-8" standalone="no"?>
<!DOCTYPE svg PUBLIC "-//W3C//DTD SVG 1.1//EN"
 "http://www.w3.org/Graphics/SVG/1.1/DTD/svg11.dtd">
<!-- Generated by graphviz version 2.43.0 (0)
 -->
<!-- Title: Fn Pages: 1 -->
<svg width="418pt" height="165pt"
 viewBox="0.00 0.00 418.00 165.00" xmlns="http://www.w3.org/2000/svg" xmlns:xlink="http://www.w3.org/1999/xlink">
<g id="graph0" class="graph" transform="scale(1 1) rotate(0) translate(4 161)">
<title>Fn</title>
<!-- Node1 -->
<g id="Node000001" class="node">
<title>Node1</title>
<g id="a_Node000001"><a xlink:title="N.B. contains values of F_n and F_{n&#45;1}.">
<polygon fill="#999999" stroke="#666666" points="410,-37.5 380,-37.5 380,-18.5 410,-18.5 410,-37.5"/>
<text text-anchor="middle" x="395" y="-25.5" font-family="Times,serif" font-size="10.00">Fn</text>
</a>
</g>
</g>
<!-- Node2 -->
<g id="Node000002" class="node">
<title>Node2</title>
<g id="a_Node000002"><a xlink:href="structttg__parsec_1_1_t_t_value.html" target="_top" xlink:title=" ">
<polygon fill="white" stroke="#666666" points="329.5,-126 212.5,-126 212.5,-96 329.5,-96 329.5,-126"/>
<text text-anchor="start" x="220.5" y="-114" font-family="Times,serif" font-size="10.00">ttg_parsec::TTValue</text>
<text text-anchor="middle" x="271" y="-103" font-family="Times,serif" font-size="10.00">&lt; Fn &gt;</text>
</a>
</g>
</g>
<!-- Node2&#45;&gt;Node1 -->
<g id="edge1_Node000001_Node000002" class="edge">
<title>Node2&#45;&gt;Node1</title>
<g id="a_edge1_Node000001_Node000002"><a xlink:title=" ">
<path fill="none" stroke="#63b8ff" d="M326.47,-91.44C329.07,-90.03 331.59,-88.56 334,-87 355.6,-73.06 375.86,-50.4 386.41,-37.6"/>
<polygon fill="#63b8ff" stroke="#63b8ff" points="324.84,-88.34 317.43,-95.92 327.95,-94.61 324.84,-88.34"/>
</a>
</g>
</g>
<!-- Node3 -->
<g id="Node000003" class="node">
<title>Node3</title>
<g id="a_Node000003"><a xlink:href="structttg__parsec_1_1detail_1_1ttg__data__copy__container__setter.html" target="_top" xlink:title=" ">
<polygon fill="white" stroke="#666666" points="150,-157 0,-157 0,-105 150,-105 150,-157"/>
<text text-anchor="start" x="8" y="-145" font-family="Times,serif" font-size="10.00">ttg_parsec::detail</text>
<text text-anchor="start" x="8" y="-134" font-family="Times,serif" font-size="10.00">::ttg_data_copy_container</text>
<text text-anchor="start" x="8" y="-123" font-family="Times,serif" font-size="10.00">_setter&lt; ttg_parsec::detail</text>
<text text-anchor="middle" x="75" y="-112" font-family="Times,serif" font-size="10.00">::ttg_data_copy_t &gt;</text>
</a>
</g>
</g>
<!-- Node3&#45;&gt;Node2 -->
<g id="edge2_Node000002_Node000003" class="edge">
<title>Node3&#45;&gt;Node2</title>
<g id="a_edge2_Node000002_Node000003"><a xlink:title=" ">
<path fill="none" stroke="#8b1a1a" d="M160.43,-122.3C178,-120.48 196.13,-118.62 212.46,-116.93"/>
<polygon fill="#8b1a1a" stroke="#8b1a1a" points="159.76,-118.85 150.17,-123.35 160.48,-125.81 159.76,-118.85"/>
</a>
</g>
</g>
<!-- Node4 -->
<g id="Node000004" class="node">
<title>Node4</title>
<g id="a_Node000004"><a xlink:href="structttg__parsec_1_1detail_1_1ttg__data__copy__t.html" target="_top" xlink:title=" ">
<polygon fill="white" stroke="#666666" points="127,-87 23,-87 23,-57 127,-57 127,-87"/>
<text text-anchor="start" x="31" y="-75" font-family="Times,serif" font-size="10.00">ttg_parsec::detail</text>
<text text-anchor="middle" x="75" y="-64" font-family="Times,serif" font-size="10.00">::ttg_data_copy_t</text>
</a>
</g>
</g>
<!-- Node4&#45;&gt;Node2 -->
<g id="edge3_Node000002_Node000004" class="edge">
<title>Node4&#45;&gt;Node2</title>
<g id="a_edge3_Node000002_Node000004"><a xlink:title=" ">
<path fill="none" stroke="#63b8ff" d="M137.28,-84.32C161.28,-89.14 188.68,-94.65 212.32,-99.4"/>
<polygon fill="#63b8ff" stroke="#63b8ff" points="137.72,-80.84 127.22,-82.3 136.34,-87.7 137.72,-80.84"/>
</a>
</g>
</g>
<!-- Node5 -->
<g id="Node000005" class="node">
<title>Node5</title>
<g id="a_Node000005"><a xlink:href="structttg__parsec_1_1detail_1_1ttg__data__copy__self__t.html" target="_top" xlink:title=" ">
<polygon fill="white" stroke="#666666" points="334,-78 208,-78 208,-48 334,-48 334,-78"/>
<text text-anchor="start" x="216" y="-66" font-family="Times,serif" font-size="10.00">ttg_parsec::detail</text>
<text text-anchor="middle" x="271" y="-55" font-family="Times,serif" font-size="10.00">::ttg_data_copy_self_t</text>
</a>
</g>
</g>
<!-- Node4&#45;&gt;Node5 -->
<g id="edge5_Node000005_Node000004" class="edge">
<title>Node4&#45;&gt;Node5</title>
<g id="a_edge5_Node000005_Node000004"><a xlink:title=" ">
<path fill="none" stroke="#9a32cd" stroke-dasharray="5,2" d="M137.32,-69.16C159.78,-68.11 185.21,-66.93 207.75,-65.89"/>
<polygon fill="#9a32cd" stroke="#9a32cd" points="137.05,-65.66 127.22,-69.62 137.38,-72.66 137.05,-65.66"/>
</a>
</g>
<text text-anchor="middle" x="179" y="-70" font-family="Times,serif" font-size="10.00" fill="grey"> self</text>
</g>
<!-- Node5&#45;&gt;Node4 -->
<g id="edge4_Node000004_Node000005" class="edge">
<title>Node5&#45;&gt;Node4</title>
<g id="a_edge4_Node000004_Node000005"><a xlink:title=" ">
<path fill="none" stroke="#63b8ff" d="M197.61,-55.44C195.04,-55.27 192.5,-55.12 190,-55 180.23,-54.51 177.74,-54.11 168,-55 154.74,-56.22 140.53,-58.4 127.35,-60.8"/>
<polygon fill="#63b8ff" stroke="#63b8ff" points="197.37,-58.93 207.59,-56.15 197.87,-51.95 197.37,-58.93"/>
</a>
</g>
</g>
<!-- Node6 -->
<g id="Node000006" class="node">
<title>Node6</title>
<g id="a_Node000006"><a xlink:href="structttg__parsec_1_1_buffer.html" target="_top" xlink:title=" ">
<polygon fill="white" stroke="#666666" points="324.5,-30 217.5,-30 217.5,0 324.5,0 324.5,-30"/>
<text text-anchor="start" x="225.5" y="-18" font-family="Times,serif" font-size="10.00">ttg_parsec::Buffer</text>
<text text-anchor="middle" x="271" y="-7" font-family="Times,serif" font-size="10.00">&lt; int64_t &gt;</text>
</a>
</g>
</g>
<!-- Node6&#45;&gt;Node1 -->
<g id="edge6_Node000001_Node000006" class="edge">
<title>Node6&#45;&gt;Node1</title>
<g id="a_edge6_Node000001_Node000006"><a xlink:title=" ">
<path fill="none" stroke="#9a32cd" stroke-dasharray="5,2" d="M334.75,-21.69C351.68,-23.49 368.42,-25.27 379.77,-26.48"/>
<polygon fill="#9a32cd" stroke="#9a32cd" points="335.12,-18.21 324.8,-20.63 334.37,-25.17 335.12,-18.21"/>
</a>
</g>
<text text-anchor="middle" x="357" y="-28" font-family="Times,serif" font-size="10.00" fill="grey"> b</text>
</g>
</g>
</svg>
