<?xml version="1.0" encoding="UTF-8" standalone="no"?>
<!DOCTYPE svg PUBLIC "-//W3C//DTD SVG 1.1//EN"
 "http://www.w3.org/Graphics/SVG/1.1/DTD/svg11.dtd">
<!-- Generated by graphviz version 2.43.0 (0)
 -->
<!-- Title: ttg_parsec::TTValue&lt; DerivedT &gt; Pages: 1 -->
<svg width="342pt" height="119pt"
 viewBox="0.00 0.00 342.00 119.00" xmlns="http://www.w3.org/2000/svg" xmlns:xlink="http://www.w3.org/1999/xlink">

<svg id="main" version="1.1" xmlns="http://www.w3.org/2000/svg" xmlns:xlink="http://www.w3.org/1999/xlink" xml:space="preserve" onload="init(evt)">
<style type="text/css"><![CDATA[
.node, .edge {opacity: 0.7;}
.node.selected, .edge.selected {opacity: 1;}
.edge:hover path { stroke: red; }
.edge:hover polygon { stroke: red; fill: red; }
]]></style>
<script type="application/ecmascript" xlink:href="svg.min.js"/>
<svg id="graph" class="graph">
<g id="graph0" class="graph" transform="scale(1 1) rotate(0) translate(4 115)">
<title>ttg_parsec::TTValue&lt; DerivedT &gt;</title>
<!-- Node1 -->
<g id="Node000001" class="node">
<title>Node1</title>
<g id="a_Node000001"><a xlink:title=" ">
<polygon fill="#999999" stroke="#666666" points="329.5,-85 212.5,-85 212.5,-55 329.5,-55 329.5,-85"/>
<text text-anchor="start" x="220.5" y="-73" font-family="Times,serif" font-size="10.00">ttg_parsec::TTValue</text>
<text text-anchor="middle" x="271" y="-62" font-family="Times,serif" font-size="10.00">&lt; DerivedT &gt;</text>
</a>
</g>
</g>
<!-- Node2 -->
<g id="Node000002" class="node">
<title>Node2</title>
<g id="a_Node000002"><a xlink:href="structttg__parsec_1_1detail_1_1ttg__data__copy__container__setter.html" target="_top" xlink:title=" ">
<polygon fill="white" stroke="#666666" points="150,-111 0,-111 0,-59 150,-59 150,-111"/>
<text text-anchor="start" x="8" y="-99" font-family="Times,serif" font-size="10.00">ttg_parsec::detail</text>
<text text-anchor="start" x="8" y="-88" font-family="Times,serif" font-size="10.00">::ttg_data_copy_container</text>
<text text-anchor="start" x="8" y="-77" font-family="Times,serif" font-size="10.00">_setter&lt; ttg_parsec::detail</text>
<text text-anchor="middle" x="75" y="-66" font-family="Times,serif" font-size="10.00">::ttg_data_copy_t &gt;</text>
</a>
</g>
</g>
<!-- Node2&#45;&gt;Node1 -->
<g id="edge1_Node000001_Node000002" class="edge">
<title>Node2&#45;&gt;Node1</title>
<g id="a_edge1_Node000001_Node000002"><a xlink:title=" ">
<path fill="none" stroke="#8b1a1a" d="M160.43,-78.47C178,-77.11 196.13,-75.71 212.46,-74.45"/>
<polygon fill="#8b1a1a" stroke="#8b1a1a" points="159.87,-75 150.17,-79.26 160.41,-81.98 159.87,-75"/>
</a>
</g>
</g>
<!-- Node3 -->
<g id="Node000003" class="node">
<title>Node3</title>
<g id="a_Node000003"><a xlink:href="structttg__parsec_1_1detail_1_1ttg__data__copy__t.html" target="_top" xlink:title=" ">
<polygon fill="white" stroke="#666666" points="127,-41 23,-41 23,-11 127,-11 127,-41"/>
<text text-anchor="start" x="31" y="-29" font-family="Times,serif" font-size="10.00">ttg_parsec::detail</text>
<text text-anchor="middle" x="75" y="-18" font-family="Times,serif" font-size="10.00">::ttg_data_copy_t</text>
</a>
</g>
</g>
<!-- Node3&#45;&gt;Node1 -->
<g id="edge2_Node000001_Node000003" class="edge">
<title>Node3&#45;&gt;Node1</title>
<g id="a_edge2_Node000001_Node000003"><a xlink:title=" ">
<path fill="none" stroke="#63b8ff" d="M137.28,-39.9C161.28,-45.34 188.68,-51.56 212.32,-56.92"/>
<polygon fill="#63b8ff" stroke="#63b8ff" points="137.75,-36.42 127.22,-37.62 136.2,-43.24 137.75,-36.42"/>
</a>
</g>
</g>
<!-- Node4 -->
<g id="Node000004" class="node">
<title>Node4</title>
<g id="a_Node000004"><a xlink:href="structttg__parsec_1_1detail_1_1ttg__data__copy__self__t.html" target="_top" xlink:title=" ">
<polygon fill="white" stroke="#666666" points="334,-30 208,-30 208,0 334,0 334,-30"/>
<text text-anchor="start" x="216" y="-18" font-family="Times,serif" font-size="10.00">ttg_parsec::detail</text>
<text text-anchor="middle" x="271" y="-7" font-family="Times,serif" font-size="10.00">::ttg_data_copy_self_t</text>
</a>
</g>
</g>
<!-- Node3&#45;&gt;Node4 -->
<g id="edge4_Node000004_Node000003" class="edge">
<title>Node3&#45;&gt;Node4</title>
<g id="a_edge4_Node000004_Node000003"><a xlink:title=" ">
<path fill="none" stroke="#9a32cd" stroke-dasharray="5,2" d="M137.32,-22.52C159.78,-21.25 185.21,-19.81 207.75,-18.53"/>
<polygon fill="#9a32cd" stroke="#9a32cd" points="137.01,-19.03 127.22,-23.1 137.41,-26.02 137.01,-19.03"/>
</a>
</g>
<text text-anchor="middle" x="179" y="-23" font-family="Times,serif" font-size="10.00" fill="grey"> self</text>
</g>
<!-- Node4&#45;&gt;Node3 -->
<g id="edge3_Node000003_Node000004" class="edge">
<title>Node4&#45;&gt;Node3</title>
<g id="a_edge3_Node000003_Node000004"><a xlink:title=" ">
<path fill="none" stroke="#63b8ff" d="M197.33,-9.31C194.85,-9.2 192.41,-9.09 190,-9 180.23,-8.63 177.74,-8.11 168,-9 154.74,-10.22 140.53,-12.4 127.35,-14.8"/>
<polygon fill="#63b8ff" stroke="#63b8ff" points="197.4,-12.82 207.57,-9.86 197.78,-5.83 197.4,-12.82"/>
</a>
</g>
</g>
</g>
</svg>
</svg>

<style type='text/css'>
<![CDATA[
[data-mouse-over-selected='false'] { opacity: 0.7; }
[data-mouse-over-selected='true']  { opacity: 1.0; }
]]>
</style>
<script type="application/ecmascript"><![CDATA[
document.addEventListener('DOMContentLoaded', (event) => {
  highlightEdges();
  highlightAdjacentNodes();
});
]]></script>
</svg>
