<?xml version="1.0" encoding="UTF-8" standalone="no"?>
<!DOCTYPE svg PUBLIC "-//W3C//DTD SVG 1.1//EN"
 "http://www.w3.org/Graphics/SVG/1.1/DTD/svg11.dtd">
<!-- Generated by graphviz version 2.43.0 (0)
 -->
<!-- Title: ttg::ConstraintBase::notify_listener Pages: 1 -->
<svg width="747pt" height="206pt"
 viewBox="0.00 0.00 747.00 206.00" xmlns="http://www.w3.org/2000/svg" xmlns:xlink="http://www.w3.org/1999/xlink">
<g id="graph0" class="graph" transform="scale(1 1) rotate(0) translate(4 202)">
<title>ttg::ConstraintBase::notify_listener</title>
<!-- Node1 -->
<g id="Node000001" class="node">
<title>Node1</title>
<g id="a_Node000001"><a xlink:title=" ">
<polygon fill="#999999" stroke="#666666" points="739,-54 624,-54 624,-24 739,-24 739,-54"/>
<text text-anchor="start" x="632" y="-42" font-family="Times,serif" font-size="10.00">ttg::ConstraintBase</text>
<text text-anchor="middle" x="681.5" y="-31" font-family="Times,serif" font-size="10.00">::notify_listener</text>
</a>
</g>
</g>
<!-- Node2 -->
<g id="Node000002" class="node">
<title>Node2</title>
<g id="a_Node000002"><a xlink:href="structttg_1_1_sequenced_keys_constraint.html#aa762a5aa4f0110849a0990fdd18da394" target="_top" xlink:title=" ">
<polygon fill="white" stroke="#666666" points="588,-78 416,-78 416,-48 588,-48 588,-78"/>
<text text-anchor="start" x="424" y="-66" font-family="Times,serif" font-size="10.00">ttg::SequencedKeysConstraint</text>
<text text-anchor="middle" x="502" y="-55" font-family="Times,serif" font-size="10.00">::release_next</text>
</a>
</g>
</g>
<!-- Node1&#45;&gt;Node2 -->
<g id="edge1_Node000001_Node000002" class="edge">
<title>Node1&#45;&gt;Node2</title>
<g id="a_edge1_Node000001_Node000002"><a xlink:title=" ">
<path fill="none" stroke="#63b8ff" d="M613.81,-48.02C605.46,-49.15 596.82,-50.31 588.22,-51.48"/>
<polygon fill="#63b8ff" stroke="#63b8ff" points="614.41,-51.47 623.85,-46.66 613.47,-44.53 614.41,-51.47"/>
</a>
</g>
</g>
<!-- Node10 -->
<g id="Node000010" class="node">
<title>Node10</title>
<g id="a_Node000010"><a xlink:href="structttg_1_1_sequenced_keys_constraint.html#aba01baca1755d4f1447e23e6c4aff0f1" target="_top" xlink:title=" ">
<polygon fill="white" stroke="#666666" points="588,-30 416,-30 416,0 588,0 588,-30"/>
<text text-anchor="start" x="424" y="-18" font-family="Times,serif" font-size="10.00">ttg::SequencedKeysConstraint</text>
<text text-anchor="middle" x="502" y="-7" font-family="Times,serif" font-size="10.00">::release_next</text>
</a>
</g>
</g>
<!-- Node1&#45;&gt;Node10 -->
<g id="edge9_Node000001_Node000010" class="edge">
<title>Node1&#45;&gt;Node10</title>
<g id="a_edge9_Node000001_Node000010"><a xlink:title=" ">
<path fill="none" stroke="#63b8ff" d="M613.81,-29.98C605.46,-28.85 596.82,-27.69 588.22,-26.52"/>
<polygon fill="#63b8ff" stroke="#63b8ff" points="613.47,-33.47 623.85,-31.34 614.41,-26.53 613.47,-33.47"/>
</a>
</g>
</g>
<!-- Node3 -->
<g id="Node000003" class="node">
<title>Node3</title>
<g id="a_Node000003"><a xlink:href="structttg_1_1_sequenced_keys_constraint.html#a3e090ebe0b9f76133cdb9e23dec1b69d" target="_top" xlink:title=" ">
<polygon fill="white" stroke="#666666" points="380,-126 208,-126 208,-96 380,-96 380,-126"/>
<text text-anchor="start" x="216" y="-114" font-family="Times,serif" font-size="10.00">ttg::SequencedKeysConstraint</text>
<text text-anchor="middle" x="294" y="-103" font-family="Times,serif" font-size="10.00">::complete_key_impl</text>
</a>
</g>
</g>
<!-- Node2&#45;&gt;Node3 -->
<g id="edge2_Node000002_Node000003" class="edge">
<title>Node2&#45;&gt;Node3</title>
<g id="a_edge2_Node000002_Node000003"><a xlink:title=" ">
<path fill="none" stroke="#63b8ff" d="M426.44,-80.37C404.48,-85.49 380.65,-91.04 359.39,-96"/>
<polygon fill="#63b8ff" stroke="#63b8ff" points="427.44,-83.73 436.39,-78.06 425.85,-76.92 427.44,-83.73"/>
</a>
</g>
</g>
<!-- Node8 -->
<g id="Node000008" class="node">
<title>Node8</title>
<g id="a_Node000008"><a xlink:href="structttg_1_1_sequenced_keys_constraint.html#a6d23f85cf62e704e53228691efbb604b" target="_top" xlink:title=" ">
<polygon fill="white" stroke="#666666" points="380,-78 208,-78 208,-48 380,-48 380,-78"/>
<text text-anchor="start" x="216" y="-66" font-family="Times,serif" font-size="10.00">ttg::SequencedKeysConstraint</text>
<text text-anchor="middle" x="294" y="-55" font-family="Times,serif" font-size="10.00">::release</text>
</a>
</g>
</g>
<!-- Node2&#45;&gt;Node8 -->
<g id="edge7_Node000002_Node000008" class="edge">
<title>Node2&#45;&gt;Node8</title>
<g id="a_edge7_Node000002_Node000008"><a xlink:title=" ">
<path fill="none" stroke="#63b8ff" d="M405.49,-63C397.05,-63 388.55,-63 380.21,-63"/>
<polygon fill="#63b8ff" stroke="#63b8ff" points="405.72,-66.5 415.72,-63 405.72,-59.5 405.72,-66.5"/>
</a>
</g>
</g>
<!-- Node9 -->
<g id="Node000009" class="node">
<title>Node9</title>
<g id="a_Node000009"><a xlink:href="structttg_1_1_sequenced_keys_constraint.html#a3d673f68f7af228707c72eb3e888895c" target="_top" xlink:title=" ">
<polygon fill="white" stroke="#666666" points="380,-30 208,-30 208,0 380,0 380,-30"/>
<text text-anchor="start" x="216" y="-18" font-family="Times,serif" font-size="10.00">ttg::SequencedKeysConstraint</text>
<text text-anchor="middle" x="294" y="-7" font-family="Times,serif" font-size="10.00">::start</text>
</a>
</g>
</g>
<!-- Node2&#45;&gt;Node9 -->
<g id="edge8_Node000002_Node000009" class="edge">
<title>Node2&#45;&gt;Node9</title>
<g id="a_edge8_Node000002_Node000009"><a xlink:title=" ">
<path fill="none" stroke="#63b8ff" d="M426.44,-45.63C404.48,-40.51 380.65,-34.96 359.39,-30"/>
<polygon fill="#63b8ff" stroke="#63b8ff" points="425.85,-49.08 436.39,-47.94 427.44,-42.27 425.85,-49.08"/>
</a>
</g>
</g>
<!-- Node4 -->
<g id="Node000004" class="node">
<title>Node4</title>
<g id="a_Node000004"><a xlink:href="structttg_1_1_sequenced_keys_constraint.html#ac16c48fccdec317c181ba2d34018b43b" target="_top" xlink:title=" ">
<polygon fill="white" stroke="#666666" points="172,-198 0,-198 0,-168 172,-168 172,-198"/>
<text text-anchor="start" x="8" y="-186" font-family="Times,serif" font-size="10.00">ttg::SequencedKeysConstraint</text>
<text text-anchor="middle" x="86" y="-175" font-family="Times,serif" font-size="10.00">::complete</text>
</a>
</g>
</g>
<!-- Node3&#45;&gt;Node4 -->
<g id="edge3_Node000003_Node000004" class="edge">
<title>Node3&#45;&gt;Node4</title>
<g id="a_edge3_Node000003_Node000004"><a xlink:title=" ">
<path fill="none" stroke="#63b8ff" d="M248.51,-129.91C225.82,-139.24 197.66,-150.31 172,-159 162.85,-162.1 153.06,-165.12 143.49,-167.93"/>
<polygon fill="#63b8ff" stroke="#63b8ff" points="249.98,-133.09 257.88,-126.04 247.3,-126.63 249.98,-133.09"/>
</a>
</g>
</g>
<!-- Node5 -->
<g id="Node000005" class="node">
<title>Node5</title>
<g id="a_Node000005"><a xlink:href="structttg_1_1_sequenced_keys_constraint.html#a00a9ade2ebc0637dc817df47838f3347" target="_top" xlink:title=" ">
<polygon fill="white" stroke="#666666" points="172,-150 0,-150 0,-120 172,-120 172,-150"/>
<text text-anchor="start" x="8" y="-138" font-family="Times,serif" font-size="10.00">ttg::SequencedKeysConstraint</text>
<text text-anchor="middle" x="86" y="-127" font-family="Times,serif" font-size="10.00">::complete</text>
</a>
</g>
</g>
<!-- Node3&#45;&gt;Node5 -->
<g id="edge4_Node000003_Node000005" class="edge">
<title>Node3&#45;&gt;Node5</title>
<g id="a_edge4_Node000003_Node000005"><a xlink:title=" ">
<path fill="none" stroke="#63b8ff" d="M197.76,-122.1C189.24,-123.09 180.64,-124.09 172.21,-125.07"/>
<polygon fill="#63b8ff" stroke="#63b8ff" points="198.2,-125.57 207.72,-120.93 197.39,-118.62 198.2,-125.57"/>
</a>
</g>
</g>
<!-- Node6 -->
<g id="Node000006" class="node">
<title>Node6</title>
<g id="a_Node000006"><a xlink:href="structttg_1_1_sequenced_keys_constraint.html#a08b8c1cdc11e13758e5ee3d185e804c0" target="_top" xlink:title=" ">
<polygon fill="white" stroke="#666666" points="172,-102 0,-102 0,-72 172,-72 172,-102"/>
<text text-anchor="start" x="8" y="-90" font-family="Times,serif" font-size="10.00">ttg::SequencedKeysConstraint</text>
<text text-anchor="middle" x="86" y="-79" font-family="Times,serif" font-size="10.00">::complete</text>
</a>
</g>
</g>
<!-- Node3&#45;&gt;Node6 -->
<g id="edge5_Node000003_Node000006" class="edge">
<title>Node3&#45;&gt;Node6</title>
<g id="a_edge5_Node000003_Node000006"><a xlink:title=" ">
<path fill="none" stroke="#63b8ff" d="M197.76,-99.9C189.24,-98.91 180.64,-97.91 172.21,-96.93"/>
<polygon fill="#63b8ff" stroke="#63b8ff" points="197.39,-103.38 207.72,-101.07 198.2,-96.43 197.39,-103.38"/>
</a>
</g>
</g>
<!-- Node7 -->
<g id="Node000007" class="node">
<title>Node7</title>
<g id="a_Node000007"><a xlink:href="structttg_1_1_sequenced_keys_constraint.html#acbfd8bdcfaf441416d9f11e629b3a0db" target="_top" xlink:title=" ">
<polygon fill="white" stroke="#666666" points="172,-54 0,-54 0,-24 172,-24 172,-54"/>
<text text-anchor="start" x="8" y="-42" font-family="Times,serif" font-size="10.00">ttg::SequencedKeysConstraint</text>
<text text-anchor="middle" x="86" y="-31" font-family="Times,serif" font-size="10.00">::complete</text>
</a>
</g>
</g>
<!-- Node3&#45;&gt;Node7 -->
<g id="edge6_Node000003_Node000007" class="edge">
<title>Node3&#45;&gt;Node7</title>
<g id="a_edge6_Node000003_Node000007"><a xlink:title=" ">
<path fill="none" stroke="#63b8ff" d="M221.39,-92.56C216.8,-90.83 212.3,-88.98 208,-87 190.53,-78.96 189.47,-71.04 172,-63 164.76,-59.66 156.95,-56.69 149.11,-54.08"/>
<polygon fill="#63b8ff" stroke="#63b8ff" points="220.3,-95.89 230.89,-95.92 222.63,-89.29 220.3,-95.89"/>
</a>
</g>
</g>
</g>
</svg>
