<?xml version="1.0" encoding="UTF-8" standalone="no"?>
<!DOCTYPE svg PUBLIC "-//W3C//DTD SVG 1.1//EN"
 "http://www.w3.org/Graphics/SVG/1.1/DTD/svg11.dtd">
<!-- Generated by graphviz version 2.43.0 (0)
 -->
<!-- Title: ttg_parsec::Buffer::prefer_device Pages: 1 -->
<!--zoomable 114 -->

<svg id="main" version="1.1" xmlns="http://www.w3.org/2000/svg" xmlns:xlink="http://www.w3.org/1999/xlink" xml:space="preserve" onload="init(evt)">
<style type="text/css"><![CDATA[
.node, .edge {opacity: 0.7;}
.node.selected, .edge.selected {opacity: 1;}
.edge:hover path { stroke: red; }
.edge:hover polygon { stroke: red; fill: red; }
]]></style>

<defs>
  <circle id="rim" cx="0" cy="0" r="7"/>
  <circle id="rim2" cx="0" cy="0" r="3.5"/>
  <g id="zoomPlus">
    <use xlink:href="#rim" fill="#404040"><set attributeName="fill" to="#808080" begin="zoomplus.mouseover" end="zoomplus.mouseout"/></use>
    <path d="M-4,0h8M0,-4v8" fill="none" stroke="white" stroke-width="1.5" pointer-events="none"/>
  </g>
  <g id="zoomMin">
    <use xlink:href="#rim" fill="#404040"><set attributeName="fill" to="#808080" begin="zoomminus.mouseover" end="zoomminus.mouseout"/></use>
    <path d="M-4,0h8" fill="none" stroke="white" stroke-width="1.5" pointer-events="none"/>
  </g>
  <g id="arrowUp" transform="translate(30 24)">
    <use xlink:href="#rim"/>
    <path pointer-events="none" fill="none" stroke="white" stroke-width="1.5" d="M0,-3.0v7 M-2.5,-0.5L0,-3.0L2.5,-0.5"/>
  </g>
  <g id="arrowRight" transform="rotate(90) translate(36 -43)">
    <use xlink:href="#rim"/>
    <path pointer-events="none" fill="none" stroke="white" stroke-width="1.5" d="M0,-3.0v7 M-2.5,-0.5L0,-3.0L2.5,-0.5"/>
  </g>
  <g id="arrowDown" transform="rotate(180) translate(-30 -48)">
    <use xlink:href="#rim"/>
    <path pointer-events="none" fill="none" stroke="white" stroke-width="1.5" d="M0,-3.0v7 M-2.5,-0.5L0,-3.0L2.5,-0.5"/>
  </g>
  <g id="arrowLeft" transform="rotate(270) translate(-36 17)">
    <use xlink:href="#rim"/>
    <path pointer-events="none" fill="none" stroke="white" stroke-width="1.5" d="M0,-3.0v7 M-2.5,-0.5L0,-3.0L2.5,-0.5"/>
  </g>
  <g id="resetDef">
    <use xlink:href="#rim2" fill="#404040"><set attributeName="fill" to="#808080" begin="reset.mouseover" end="reset.mouseout"/></use>
  </g>
</defs>
<script type="application/ecmascript">
var viewWidth = 734;
var viewHeight = 114;
var sectionId = 'dynsection-18';
</script>
<script type="application/ecmascript" xlink:href="svg.min.js"/>
<svg id="graph" class="graph">
<g id="viewport">
<title>ttg_parsec::Buffer::prefer_device</title>
<!-- Node1 -->
<g id="Node000001" class="node">
<title>Node1</title>
<g id="a_Node000001"><a xlink:title=" ">
<polygon fill="#999999" stroke="#666666" points="107,-80.5 0,-80.5 0,-50.5 107,-50.5 107,-80.5"/>
<text text-anchor="start" x="8" y="-68.5" font-family="Times,serif" font-size="10.00">ttg_parsec::Buffer</text>
<text text-anchor="middle" x="53.5" y="-57.5" font-family="Times,serif" font-size="10.00">::prefer_device</text>
</a>
</g>
</g>
<!-- Node2 -->
<g id="Node000002" class="node">
<title>Node2</title>
<g id="a_Node000002"><a xlink:href="classttg_1_1device_1_1_device.html#a40e2fd28be27282a6695d102f7c5fc1a" target="_top" xlink:title=" ">
<polygon fill="white" stroke="#666666" points="426,-105.5 316,-105.5 316,-75.5 426,-75.5 426,-105.5"/>
<text text-anchor="start" x="324" y="-93.5" font-family="Times,serif" font-size="10.00">ttg::device::Device</text>
<text text-anchor="middle" x="371" y="-82.5" font-family="Times,serif" font-size="10.00">::is_device</text>
</a>
</g>
</g>
<!-- Node1&#45;&gt;Node2 -->
<g id="edge1_Node000001_Node000002" class="edge">
<title>Node1&#45;&gt;Node2</title>
<g id="a_edge1_Node000001_Node000002"><a xlink:title=" ">
<path fill="none" stroke="#63b8ff" d="M107.31,-69.68C161.92,-74.01 247.23,-80.77 305.73,-85.41"/>
<polygon fill="#63b8ff" stroke="#63b8ff" points="305.72,-88.92 315.96,-86.22 306.27,-81.94 305.72,-88.92"/>
</a>
</g>
</g>
<!-- Node5 -->
<g id="Node000005" class="node">
<title>Node5</title>
<g id="a_Node000005"><a xlink:href="namespacettg__parsec_1_1detail.html#a4e193da802fd145fa18041dd40ad7df9" target="_top" xlink:title=" ">
<polygon fill="white" stroke="#666666" points="272,-62 143,-62 143,-21 272,-21 272,-62"/>
<text text-anchor="start" x="151" y="-50" font-family="Times,serif" font-size="10.00">ttg_parsec::detail</text>
<text text-anchor="start" x="151" y="-39" font-family="Times,serif" font-size="10.00">::ttg_device_to_parsec</text>
<text text-anchor="middle" x="207.5" y="-28" font-family="Times,serif" font-size="10.00">_device</text>
</a>
</g>
</g>
<!-- Node1&#45;&gt;Node5 -->
<g id="edge4_Node000001_Node000005" class="edge">
<title>Node1&#45;&gt;Node5</title>
<g id="a_edge4_Node000001_Node000005"><a xlink:title=" ">
<path fill="none" stroke="#63b8ff" d="M107.24,-57.17C115.49,-55.87 124.16,-54.5 132.78,-53.14"/>
<polygon fill="#63b8ff" stroke="#63b8ff" points="133.53,-56.56 142.86,-51.55 132.44,-49.65 133.53,-56.56"/>
</a>
</g>
</g>
<!-- Node3 -->
<g id="Node000003" class="node">
<title>Node3</title>
<g id="a_Node000003"><a xlink:href="classttg_1_1device_1_1_device.html#a16a73248d5e812cf4df7d55458faafb4" target="_top" xlink:title=" ">
<polygon fill="white" stroke="#666666" points="580,-65.5 470,-65.5 470,-35.5 580,-35.5 580,-65.5"/>
<text text-anchor="start" x="478" y="-53.5" font-family="Times,serif" font-size="10.00">ttg::device::Device</text>
<text text-anchor="middle" x="525" y="-42.5" font-family="Times,serif" font-size="10.00">::is_host</text>
</a>
</g>
</g>
<!-- Node2&#45;&gt;Node3 -->
<g id="edge2_Node000002_Node000003" class="edge">
<title>Node2&#45;&gt;Node3</title>
<g id="a_edge2_Node000002_Node000003"><a xlink:title=" ">
<path fill="none" stroke="#63b8ff" d="M426.02,-76.28C437.04,-73.38 448.74,-70.31 460.07,-67.32"/>
<polygon fill="#63b8ff" stroke="#63b8ff" points="461.12,-70.67 469.9,-64.74 459.34,-63.9 461.12,-70.67"/>
</a>
</g>
</g>
<!-- Node4 -->
<g id="Node000004" class="node">
<title>Node4</title>
<g id="a_Node000004"><a xlink:href="classttg_1_1device_1_1_device.html#a979477b9cde8927f919c75754d4d8329" target="_top" xlink:title=" ">
<polygon fill="white" stroke="#666666" points="726,-43.5 616,-43.5 616,-13.5 726,-13.5 726,-43.5"/>
<text text-anchor="start" x="624" y="-31.5" font-family="Times,serif" font-size="10.00">ttg::device::Device</text>
<text text-anchor="middle" x="671" y="-20.5" font-family="Times,serif" font-size="10.00">::is_invalid</text>
</a>
</g>
</g>
<!-- Node3&#45;&gt;Node4 -->
<g id="edge3_Node000003_Node000004" class="edge">
<title>Node3&#45;&gt;Node4</title>
<g id="a_edge3_Node000003_Node000004"><a xlink:title=" ">
<path fill="none" stroke="#63b8ff" d="M580.03,-42.25C588.4,-40.97 597.13,-39.63 605.7,-38.32"/>
<polygon fill="#63b8ff" stroke="#63b8ff" points="606.31,-41.77 615.67,-36.8 605.25,-34.85 606.31,-41.77"/>
</a>
</g>
</g>
<!-- Node5&#45;&gt;Node3 -->
<g id="edge8_Node000005_Node000003" class="edge">
<title>Node5&#45;&gt;Node3</title>
<g id="a_edge8_Node000005_Node000003"><a xlink:title=" ">
<path fill="none" stroke="#63b8ff" d="M272.35,-43.32C326.9,-44.88 405.01,-47.11 459.69,-48.67"/>
<polygon fill="#63b8ff" stroke="#63b8ff" points="459.87,-52.17 469.96,-48.96 460.07,-45.17 459.87,-52.17"/>
</a>
</g>
</g>
<!-- Node6 -->
<g id="Node000006" class="node">
<title>Node6</title>
<g id="a_Node000006"><a xlink:href="classttg_1_1device_1_1_device.html#acf0992ecbfbc2c91de0452122b06fe81" target="_top" xlink:title=" ">
<polygon fill="white" stroke="#666666" points="434,-19 308,-19 308,0 434,0 434,-19"/>
<text text-anchor="middle" x="371" y="-7" font-family="Times,serif" font-size="10.00">ttg::device::Device::id</text>
</a>
</g>
</g>
<!-- Node5&#45;&gt;Node6 -->
<g id="edge5_Node000005_Node000006" class="edge">
<title>Node5&#45;&gt;Node6</title>
<g id="a_edge5_Node000005_Node000006"><a xlink:title=" ">
<path fill="none" stroke="#63b8ff" d="M272.33,-28.85C285.27,-26.29 298.82,-23.6 311.56,-21.08"/>
<polygon fill="#63b8ff" stroke="#63b8ff" points="312.45,-24.47 321.58,-19.09 311.09,-17.6 312.45,-24.47"/>
</a>
</g>
</g>
<!-- Node6&#45;&gt;Node3 -->
<g id="edge6_Node000006_Node000003" class="edge">
<title>Node6&#45;&gt;Node3</title>
<g id="a_edge6_Node000006_Node000003"><a xlink:title=" ">
<path fill="none" stroke="#63b8ff" d="M407.25,-19.01C423.01,-23.26 442.09,-28.41 460.22,-33.3"/>
<polygon fill="#63b8ff" stroke="#63b8ff" points="459.31,-36.68 469.88,-35.9 461.13,-29.92 459.31,-36.68"/>
</a>
</g>
</g>
<!-- Node6&#45;&gt;Node4 -->
<g id="edge7_Node000006_Node000004" class="edge">
<title>Node6&#45;&gt;Node4</title>
<g id="a_edge7_Node000006_Node000004"><a xlink:title=" ">
<path fill="none" stroke="#63b8ff" d="M434.11,-13.46C484.38,-16.66 554.93,-21.16 605.76,-24.4"/>
<polygon fill="#63b8ff" stroke="#63b8ff" points="605.77,-27.91 615.97,-25.06 606.21,-20.93 605.77,-27.91"/>
</a>
</g>
</g>
</g>
</svg>

<g id="navigator" transform="translate(0 0)" fill="#404254">
  <rect fill="#f2f5e9" fill-opacity="0.5" stroke="#606060" stroke-width=".5" x="0" y="0" width="60" height="60"/>
  <use id="zoomplus" xlink:href="#zoomPlus" x="17" y="9" onmousedown="handleZoom(evt,'in')"/>
  <use id="zoomminus" xlink:href="#zoomMin" x="42" y="9" onmousedown="handleZoom(evt,'out')"/>
  <use id="reset" xlink:href="#resetDef" x="30" y="36" onmousedown="handleReset()"/>
   <use id="arrowup" xlink:href="#arrowUp" x="0" y="0" onmousedown="handlePan(0,-1)"/>
  <use id="arrowright" xlink:href="#arrowRight" x="0" y="0" onmousedown="handlePan(1,0)"/>
  <use id="arrowdown" xlink:href="#arrowDown" x="0" y="0" onmousedown="handlePan(0,1)"/>
  <use id="arrowleft" xlink:href="#arrowLeft" x="0" y="0" onmousedown="handlePan(-1,0)"/>
</g>
<svg viewBox="0 0 15 15" width="100%" height="30px" preserveAspectRatio="xMaxYMin meet">
 <g id="arrow_out" transform="scale(0.3 0.3)">
  <a xlink:href="structttg__parsec_1_1_buffer_a17ee629839b81f7e11adf24164f3116b_cgraph_org.svg" target="_base">
   <rect id="button" ry="5" rx="5" y="6" x="6" height="38" width="38"
        fill="#f2f5e9" fill-opacity="0.5" stroke="#606060" stroke-width="1.0"/>
   <path id="arrow"
     d="M 11.500037,31.436501 C 11.940474,20.09759 22.043105,11.32322 32.158766,21.979434 L 37.068811,17.246167 C 37.068811,17.246167 37.088388,32 37.088388,32 L 22.160133,31.978069 C 22.160133,31.978069 26.997745,27.140456 26.997745,27.140456 C 18.528582,18.264221 13.291696,25.230495 11.500037,31.436501 z"
     style="fill:#404040;"/>
  </a>
 </g>
</svg>

<style type='text/css'>
<![CDATA[
[data-mouse-over-selected='false'] { opacity: 0.7; }
[data-mouse-over-selected='true']  { opacity: 1.0; }
]]>
</style>
<script type="application/ecmascript"><![CDATA[
document.addEventListener('DOMContentLoaded', (event) => {
  highlightEdges();
  highlightAdjacentNodes();
});
]]></script>
</svg>
