<?xml version="1.0" encoding="UTF-8" standalone="no"?>
<!DOCTYPE svg PUBLIC "-//W3C//DTD SVG 1.1//EN"
 "http://www.w3.org/Graphics/SVG/1.1/DTD/svg11.dtd">
<!-- Generated by graphviz version 2.43.0 (0)
 -->
<!-- Title: ttg_parsec::detail::ttg_data_copy_t::num_ref Pages: 1 -->
<svg width="319pt" height="230pt"
 viewBox="0.00 0.00 319.00 230.00" xmlns="http://www.w3.org/2000/svg" xmlns:xlink="http://www.w3.org/1999/xlink">
<g id="graph0" class="graph" transform="scale(1 1) rotate(0) translate(4 226)">
<title>ttg_parsec::detail::ttg_data_copy_t::num_ref</title>
<!-- Node1 -->
<g id="Node000001" class="node">
<title>Node1</title>
<g id="a_Node000001"><a xlink:title=" ">
<polygon fill="#999999" stroke="#666666" points="311,-126 159,-126 159,-96 311,-96 311,-126"/>
<text text-anchor="start" x="167" y="-114" font-family="Times,serif" font-size="10.00">ttg_parsec::detail</text>
<text text-anchor="middle" x="235" y="-103" font-family="Times,serif" font-size="10.00">::ttg_data_copy_t::num_ref</text>
</a>
</g>
</g>
<!-- Node2 -->
<g id="Node000002" class="node">
<title>Node2</title>
<g id="a_Node000002"><a xlink:href="structttg__parsec_1_1detail_1_1ptr__impl.html#a90bcbcc1f0f46ab77c74bd709dae99cd" target="_top" xlink:title=" ">
<polygon fill="white" stroke="#666666" points="123,-222 0,-222 0,-192 123,-192 123,-222"/>
<text text-anchor="start" x="8" y="-210" font-family="Times,serif" font-size="10.00">ttg_parsec::detail</text>
<text text-anchor="middle" x="61.5" y="-199" font-family="Times,serif" font-size="10.00">::ptr_impl::operator=</text>
</a>
</g>
</g>
<!-- Node1&#45;&gt;Node2 -->
<g id="edge1_Node000001_Node000002" class="edge">
<title>Node1&#45;&gt;Node2</title>
<g id="a_edge1_Node000001_Node000002"><a xlink:title=" ">
<path fill="none" stroke="#63b8ff" d="M205.28,-131.89C183.41,-147.23 152.19,-167.93 123,-183 116.88,-186.16 110.23,-189.18 103.67,-191.94"/>
<polygon fill="#63b8ff" stroke="#63b8ff" points="207.33,-134.73 213.47,-126.09 203.28,-129.01 207.33,-134.73"/>
</a>
</g>
</g>
<!-- Node3 -->
<g id="Node000003" class="node">
<title>Node3</title>
<g id="a_Node000003"><a xlink:href="structttg__parsec_1_1detail_1_1ptr__impl.html#a04cbcbf3af33f4eb38cc7c7bbecd8749" target="_top" xlink:title=" ">
<polygon fill="white" stroke="#666666" points="123,-174 0,-174 0,-144 123,-144 123,-174"/>
<text text-anchor="start" x="8" y="-162" font-family="Times,serif" font-size="10.00">ttg_parsec::detail</text>
<text text-anchor="middle" x="61.5" y="-151" font-family="Times,serif" font-size="10.00">::ptr_impl::operator=</text>
</a>
</g>
</g>
<!-- Node1&#45;&gt;Node3 -->
<g id="edge2_Node000001_Node000003" class="edge">
<title>Node1&#45;&gt;Node3</title>
<g id="a_edge2_Node000001_Node000003"><a xlink:title=" ">
<path fill="none" stroke="#63b8ff" d="M170.44,-128.79C152.58,-133.79 133.33,-139.18 116.1,-144"/>
<polygon fill="#63b8ff" stroke="#63b8ff" points="171.52,-132.12 180.21,-126.06 169.63,-125.38 171.52,-132.12"/>
</a>
</g>
</g>
<!-- Node4 -->
<g id="Node000004" class="node">
<title>Node4</title>
<g id="a_Node000004"><a xlink:href="structttg__parsec_1_1detail_1_1ptr__impl.html#a7e7445d185fae740185ae00ec50e1211" target="_top" xlink:title=" ">
<polygon fill="white" stroke="#666666" points="118.5,-126 4.5,-126 4.5,-96 118.5,-96 118.5,-126"/>
<text text-anchor="start" x="12.5" y="-114" font-family="Times,serif" font-size="10.00">ttg_parsec::detail</text>
<text text-anchor="middle" x="61.5" y="-103" font-family="Times,serif" font-size="10.00">::ptr_impl::ptr_impl</text>
</a>
</g>
</g>
<!-- Node1&#45;&gt;Node4 -->
<g id="edge3_Node000001_Node000004" class="edge">
<title>Node1&#45;&gt;Node4</title>
<g id="a_edge3_Node000001_Node000004"><a xlink:title=" ">
<path fill="none" stroke="#63b8ff" d="M148.61,-111C138.41,-111 128.21,-111 118.58,-111"/>
<polygon fill="#63b8ff" stroke="#63b8ff" points="148.78,-114.5 158.78,-111 148.78,-107.5 148.78,-114.5"/>
</a>
</g>
</g>
<!-- Node5 -->
<g id="Node000005" class="node">
<title>Node5</title>
<g id="a_Node000005"><a xlink:href="structttg__parsec_1_1detail_1_1ptr__impl.html#a3d59e4676b69f4e3e5e2136bee544b84" target="_top" xlink:title=" ">
<polygon fill="white" stroke="#666666" points="118.5,-78 4.5,-78 4.5,-48 118.5,-48 118.5,-78"/>
<text text-anchor="start" x="12.5" y="-66" font-family="Times,serif" font-size="10.00">ttg_parsec::detail</text>
<text text-anchor="middle" x="61.5" y="-55" font-family="Times,serif" font-size="10.00">::ptr_impl::ptr_impl</text>
</a>
</g>
</g>
<!-- Node1&#45;&gt;Node5 -->
<g id="edge4_Node000001_Node000005" class="edge">
<title>Node1&#45;&gt;Node5</title>
<g id="a_edge4_Node000001_Node000005"><a xlink:title=" ">
<path fill="none" stroke="#63b8ff" d="M170.44,-93.21C152.58,-88.21 133.33,-82.82 116.1,-78"/>
<polygon fill="#63b8ff" stroke="#63b8ff" points="169.63,-96.62 180.21,-95.94 171.52,-89.88 169.63,-96.62"/>
</a>
</g>
</g>
<!-- Node6 -->
<g id="Node000006" class="node">
<title>Node6</title>
<g id="a_Node000006"><a xlink:href="structttg__parsec_1_1detail_1_1ptr__impl.html#a3cb9e1ee6ad948296ad10583a11f256b" target="_top" xlink:title=" ">
<polygon fill="white" stroke="#666666" points="118.5,-30 4.5,-30 4.5,0 118.5,0 118.5,-30"/>
<text text-anchor="start" x="12.5" y="-18" font-family="Times,serif" font-size="10.00">ttg_parsec::detail</text>
<text text-anchor="middle" x="61.5" y="-7" font-family="Times,serif" font-size="10.00">::ptr_impl::ptr_impl</text>
</a>
</g>
</g>
<!-- Node1&#45;&gt;Node6 -->
<g id="edge5_Node000001_Node000006" class="edge">
<title>Node1&#45;&gt;Node6</title>
<g id="a_edge5_Node000001_Node000006"><a xlink:title=" ">
<path fill="none" stroke="#63b8ff" d="M205.28,-90.11C183.41,-74.77 152.19,-54.07 123,-39 116.88,-35.84 110.23,-32.82 103.67,-30.06"/>
<polygon fill="#63b8ff" stroke="#63b8ff" points="203.28,-92.99 213.47,-95.91 207.33,-87.27 203.28,-92.99"/>
</a>
</g>
</g>
</g>
</svg>
