<?xml version="1.0" encoding="UTF-8" standalone="no"?>
<!DOCTYPE svg PUBLIC "-//W3C//DTD SVG 1.1//EN"
 "http://www.w3.org/Graphics/SVG/1.1/DTD/svg11.dtd">
<!-- Generated by graphviz version 2.43.0 (0)
 -->
<!-- Title: ttg_parsec::detail::ParsecTTBase Pages: 1 -->
<!--zoomable 245 -->

<svg id="main" version="1.1" xmlns="http://www.w3.org/2000/svg" xmlns:xlink="http://www.w3.org/1999/xlink" xml:space="preserve" onload="init(evt)">
<style type="text/css"><![CDATA[
.node, .edge {opacity: 0.7;}
.node.selected, .edge.selected {opacity: 1;}
.edge:hover path { stroke: red; }
.edge:hover polygon { stroke: red; fill: red; }
]]></style>

<defs>
  <circle id="rim" cx="0" cy="0" r="7"/>
  <circle id="rim2" cx="0" cy="0" r="3.5"/>
  <g id="zoomPlus">
    <use xlink:href="#rim" fill="#404040"><set attributeName="fill" to="#808080" begin="zoomplus.mouseover" end="zoomplus.mouseout"/></use>
    <path d="M-4,0h8M0,-4v8" fill="none" stroke="white" stroke-width="1.5" pointer-events="none"/>
  </g>
  <g id="zoomMin">
    <use xlink:href="#rim" fill="#404040"><set attributeName="fill" to="#808080" begin="zoomminus.mouseover" end="zoomminus.mouseout"/></use>
    <path d="M-4,0h8" fill="none" stroke="white" stroke-width="1.5" pointer-events="none"/>
  </g>
  <g id="arrowUp" transform="translate(30 24)">
    <use xlink:href="#rim"/>
    <path pointer-events="none" fill="none" stroke="white" stroke-width="1.5" d="M0,-3.0v7 M-2.5,-0.5L0,-3.0L2.5,-0.5"/>
  </g>
  <g id="arrowRight" transform="rotate(90) translate(36 -43)">
    <use xlink:href="#rim"/>
    <path pointer-events="none" fill="none" stroke="white" stroke-width="1.5" d="M0,-3.0v7 M-2.5,-0.5L0,-3.0L2.5,-0.5"/>
  </g>
  <g id="arrowDown" transform="rotate(180) translate(-30 -48)">
    <use xlink:href="#rim"/>
    <path pointer-events="none" fill="none" stroke="white" stroke-width="1.5" d="M0,-3.0v7 M-2.5,-0.5L0,-3.0L2.5,-0.5"/>
  </g>
  <g id="arrowLeft" transform="rotate(270) translate(-36 17)">
    <use xlink:href="#rim"/>
    <path pointer-events="none" fill="none" stroke="white" stroke-width="1.5" d="M0,-3.0v7 M-2.5,-0.5L0,-3.0L2.5,-0.5"/>
  </g>
  <g id="resetDef">
    <use xlink:href="#rim2" fill="#404040"><set attributeName="fill" to="#808080" begin="reset.mouseover" end="reset.mouseout"/></use>
  </g>
</defs>
<script type="application/ecmascript">
var viewWidth = 572;
var viewHeight = 245;
var sectionId = 'dynsection-0';
</script>
<script type="application/ecmascript" xlink:href="svg.min.js"/>
<svg id="graph" class="graph">
<g id="viewport">
<title>ttg_parsec::detail::ParsecTTBase</title>
<!-- Node1 -->
<g id="Node000001" class="node">
<title>Node1</title>
<g id="a_Node000001"><a xlink:title=" ">
<polygon fill="#999999" stroke="#666666" points="104,-116.5 0,-116.5 0,-86.5 104,-86.5 104,-116.5"/>
<text text-anchor="start" x="8" y="-104.5" font-family="Times,serif" font-size="10.00">ttg_parsec::detail</text>
<text text-anchor="middle" x="52" y="-93.5" font-family="Times,serif" font-size="10.00">::ParsecTTBase</text>
</a>
</g>
</g>
<!-- Node2 -->
<g id="Node000002" class="node">
<title>Node2</title>
<g id="a_Node000002"><a xlink:href="classttg__parsec_1_1_t_t.html" target="_top" xlink:title=" ">
<polygon fill="white" stroke="#666666" points="336,-236.5 166,-236.5 166,-162.5 336,-162.5 336,-236.5"/>
<text text-anchor="start" x="174" y="-224.5" font-family="Times,serif" font-size="10.00">ttg_parsec::TT&lt; int,</text>
<text text-anchor="start" x="174" y="-213.5" font-family="Times,serif" font-size="10.00"> std::tuple&lt; Out&lt; int,</text>
<text text-anchor="start" x="174" y="-202.5" font-family="Times,serif" font-size="10.00"> Value &gt;, Out&lt; int, Value</text>
<text text-anchor="start" x="174" y="-191.5" font-family="Times,serif" font-size="10.00"> &gt;, Out&lt; int, Value &gt; &gt;,</text>
<text text-anchor="start" x="174" y="-180.5" font-family="Times,serif" font-size="10.00"> BinaryTreeBroadcast&lt; Value,</text>
<text text-anchor="middle" x="251" y="-169.5" font-family="Times,serif" font-size="10.00"> int &gt;, ttg::typelist&lt; Value &gt; &gt;</text>
</a>
</g>
</g>
<!-- Node1&#45;&gt;Node2 -->
<g id="edge1_Node000001_Node000002" class="edge">
<title>Node1&#45;&gt;Node2</title>
<g id="a_edge1_Node000001_Node000002"><a xlink:title=" ">
<path fill="none" stroke="#8b1a1a" d="M84.69,-121.93C100.92,-132 121.18,-144 140,-153.5 148.32,-157.7 157.11,-161.84 165.95,-165.82"/>
<polygon fill="#8b1a1a" stroke="#8b1a1a" points="86.45,-118.9 76.12,-116.55 82.73,-124.83 86.45,-118.9"/>
</a>
</g>
</g>
<!-- Node3 -->
<g id="Node000003" class="node">
<title>Node3</title>
<g id="a_Node000003"><a xlink:href="classttg__parsec_1_1_t_t.html" target="_top" xlink:title=" ">
<polygon fill="white" stroke="#666666" points="362,-144 140,-144 140,-59 362,-59 362,-144"/>
<text text-anchor="start" x="148" y="-132" font-family="Times,serif" font-size="10.00">ttg_parsec::TT&lt; int,</text>
<text text-anchor="start" x="148" y="-121" font-family="Times,serif" font-size="10.00"> std::tuple&lt; Out&lt; int,</text>
<text text-anchor="start" x="148" y="-110" font-family="Times,serif" font-size="10.00"> Value &gt;, Out&lt; int, Value</text>
<text text-anchor="start" x="148" y="-99" font-family="Times,serif" font-size="10.00"> &gt;, Out&lt; int, Value &gt;, Out</text>
<text text-anchor="start" x="148" y="-88" font-family="Times,serif" font-size="10.00">&lt; OutKey, Value &gt; &gt;, BinaryTreeReduce</text>
<text text-anchor="start" x="148" y="-77" font-family="Times,serif" font-size="10.00">&lt; Value, BinaryOp, OutKey &gt;, ttg</text>
<text text-anchor="middle" x="251" y="-66" font-family="Times,serif" font-size="10.00">::typelist&lt; Value, Value, Value &gt; &gt;</text>
</a>
</g>
</g>
<!-- Node1&#45;&gt;Node3 -->
<g id="edge2_Node000001_Node000003" class="edge">
<title>Node1&#45;&gt;Node3</title>
<g id="a_edge2_Node000001_Node000003"><a xlink:title=" ">
<path fill="none" stroke="#8b1a1a" d="M114.35,-101.5C122.51,-101.5 131.07,-101.5 139.75,-101.5"/>
<polygon fill="#8b1a1a" stroke="#8b1a1a" points="114.25,-98 104.25,-101.5 114.25,-105 114.25,-98"/>
</a>
</g>
</g>
<!-- Node5 -->
<g id="Node000005" class="node">
<title>Node5</title>
<g id="a_Node000005"><a xlink:href="classttg__parsec_1_1_t_t.html" target="_top" xlink:title=" ">
<polygon fill="white" stroke="#666666" points="329.5,-41 172.5,-41 172.5,0 329.5,0 329.5,-41"/>
<text text-anchor="start" x="180.5" y="-29" font-family="Times,serif" font-size="10.00">ttg_parsec::TT&lt; keyT,</text>
<text text-anchor="start" x="180.5" y="-18" font-family="Times,serif" font-size="10.00"> output_terminalsT, derived</text>
<text text-anchor="middle" x="251" y="-7" font-family="Times,serif" font-size="10.00">T, input_valueTs, Space &gt;</text>
</a>
</g>
</g>
<!-- Node1&#45;&gt;Node5 -->
<g id="edge4_Node000001_Node000005" class="edge">
<title>Node1&#45;&gt;Node5</title>
<g id="a_edge4_Node000001_Node000005"><a xlink:title=" ">
<path fill="none" stroke="#8b1a1a" d="M82.82,-80.82C99.12,-70.26 120.02,-57.91 140,-49.5 150.29,-45.17 161.39,-41.34 172.45,-38"/>
<polygon fill="#8b1a1a" stroke="#8b1a1a" points="80.69,-78.04 74.27,-86.47 84.54,-83.88 80.69,-78.04"/>
</a>
</g>
</g>
<!-- Node4 -->
<g id="Node000004" class="node">
<title>Node4</title>
<g id="a_Node000004"><a xlink:href="classttg_1_1_binary_tree_reduce.html" target="_top" xlink:title="generic binary reduction of a set of key&#45;value pairs.">
<polygon fill="white" stroke="#666666" points="564,-116.5 398,-116.5 398,-86.5 564,-86.5 564,-116.5"/>
<text text-anchor="start" x="406" y="-104.5" font-family="Times,serif" font-size="10.00">ttg::BinaryTreeReduce</text>
<text text-anchor="middle" x="481" y="-93.5" font-family="Times,serif" font-size="10.00">&lt; Value, BinaryOp, OutKey &gt;</text>
</a>
</g>
</g>
<!-- Node3&#45;&gt;Node4 -->
<g id="edge3_Node000003_Node000004" class="edge">
<title>Node3&#45;&gt;Node4</title>
<g id="a_edge3_Node000003_Node000004"><a xlink:title=" ">
<path fill="none" stroke="#63b8ff" d="M372.4,-101.5C380.97,-101.5 389.49,-101.5 397.77,-101.5"/>
<polygon fill="#63b8ff" stroke="#63b8ff" points="372.33,-98 362.33,-101.5 372.33,-105 372.33,-98"/>
</a>
</g>
</g>
<!-- Node6 -->
<g id="Node000006" class="node">
<title>Node6</title>
<g id="a_Node000006"><a xlink:href="classttg_1_1_binary_tree_broadcast.html" target="_top" xlink:title="generic binary broadcast of a value to a set of {key,value} pairs">
<polygon fill="white" stroke="#666666" points="553.5,-35.5 408.5,-35.5 408.5,-5.5 553.5,-5.5 553.5,-35.5"/>
<text text-anchor="start" x="416.5" y="-23.5" font-family="Times,serif" font-size="10.00">ttg::BinaryTreeBroadcast</text>
<text text-anchor="middle" x="481" y="-12.5" font-family="Times,serif" font-size="10.00">&lt; Value, OutKey &gt;</text>
</a>
</g>
</g>
<!-- Node5&#45;&gt;Node6 -->
<g id="edge5_Node000005_Node000006" class="edge">
<title>Node5&#45;&gt;Node6</title>
<g id="a_edge5_Node000005_Node000006"><a xlink:title=" ">
<path fill="none" stroke="#63b8ff" d="M339.52,-20.5C362.31,-20.5 386.6,-20.5 408.46,-20.5"/>
<polygon fill="#63b8ff" stroke="#63b8ff" points="339.51,-17 329.51,-20.5 339.51,-24 339.51,-17"/>
</a>
</g>
</g>
</g>
</svg>

<g id="navigator" transform="translate(0 0)" fill="#404254">
  <rect fill="#f2f5e9" fill-opacity="0.5" stroke="#606060" stroke-width=".5" x="0" y="0" width="60" height="60"/>
  <use id="zoomplus" xlink:href="#zoomPlus" x="17" y="9" onmousedown="handleZoom(evt,'in')"/>
  <use id="zoomminus" xlink:href="#zoomMin" x="42" y="9" onmousedown="handleZoom(evt,'out')"/>
  <use id="reset" xlink:href="#resetDef" x="30" y="36" onmousedown="handleReset()"/>
   <use id="arrowup" xlink:href="#arrowUp" x="0" y="0" onmousedown="handlePan(0,-1)"/>
  <use id="arrowright" xlink:href="#arrowRight" x="0" y="0" onmousedown="handlePan(1,0)"/>
  <use id="arrowdown" xlink:href="#arrowDown" x="0" y="0" onmousedown="handlePan(0,1)"/>
  <use id="arrowleft" xlink:href="#arrowLeft" x="0" y="0" onmousedown="handlePan(-1,0)"/>
</g>
<svg viewBox="0 0 15 15" width="100%" height="30px" preserveAspectRatio="xMaxYMin meet">
 <g id="arrow_out" transform="scale(0.3 0.3)">
  <a xlink:href="structttg__parsec_1_1detail_1_1_parsec_t_t_base__inherit__graph_org.svg" target="_base">
   <rect id="button" ry="5" rx="5" y="6" x="6" height="38" width="38"
        fill="#f2f5e9" fill-opacity="0.5" stroke="#606060" stroke-width="1.0"/>
   <path id="arrow"
     d="M 11.500037,31.436501 C 11.940474,20.09759 22.043105,11.32322 32.158766,21.979434 L 37.068811,17.246167 C 37.068811,17.246167 37.088388,32 37.088388,32 L 22.160133,31.978069 C 22.160133,31.978069 26.997745,27.140456 26.997745,27.140456 C 18.528582,18.264221 13.291696,25.230495 11.500037,31.436501 z"
     style="fill:#404040;"/>
  </a>
 </g>
</svg>

<style type='text/css'>
<![CDATA[
[data-mouse-over-selected='false'] { opacity: 0.7; }
[data-mouse-over-selected='true']  { opacity: 1.0; }
]]>
</style>
<script type="application/ecmascript"><![CDATA[
document.addEventListener('DOMContentLoaded', (event) => {
  highlightEdges();
  highlightAdjacentNodes();
});
]]></script>
</svg>
