<?xml version="1.0" encoding="UTF-8" standalone="no"?>
<!DOCTYPE svg PUBLIC "-//W3C//DTD SVG 1.1//EN"
 "http://www.w3.org/Graphics/SVG/1.1/DTD/svg11.dtd">
<!-- Generated by graphviz version 2.43.0 (0)
 -->
<!-- Title: ttg::detail::value_copy_handler&lt; ttg::Runtime::PaRSEC &gt;::operator() Pages: 1 -->
<svg width="530pt" height="146pt"
 viewBox="0.00 0.00 530.00 145.50" xmlns="http://www.w3.org/2000/svg" xmlns:xlink="http://www.w3.org/1999/xlink">
<g id="graph0" class="graph" transform="scale(1 1) rotate(0) translate(4 141.5)">
<title>ttg::detail::value_copy_handler&lt; ttg::Runtime::PaRSEC &gt;::operator()</title>
<!-- Node1 -->
<g id="Node000001" class="node">
<title>Node1</title>
<g id="a_Node000001"><a xlink:title=" ">
<polygon fill="#999999" stroke="#666666" points="176,-95 0,-95 0,-54 176,-54 176,-95"/>
<text text-anchor="start" x="8" y="-83" font-family="Times,serif" font-size="10.00">ttg::detail::value</text>
<text text-anchor="start" x="8" y="-72" font-family="Times,serif" font-size="10.00">_copy_handler&lt; ttg::</text>
<text text-anchor="middle" x="88" y="-61" font-family="Times,serif" font-size="10.00">Runtime::PaRSEC &gt;::operator()</text>
</a>
</g>
</g>
<!-- Node2 -->
<g id="Node000002" class="node">
<title>Node2</title>
<g id="a_Node000002"><a xlink:href="namespacettg__parsec_1_1detail.html#abb5f8a2eb005a7dc66279a6decd9e8c5" target="_top" xlink:title=" ">
<polygon fill="white" stroke="#666666" points="351,-137.5 219,-137.5 219,-107.5 351,-107.5 351,-137.5"/>
<text text-anchor="start" x="227" y="-125.5" font-family="Times,serif" font-size="10.00">ttg_parsec::detail</text>
<text text-anchor="middle" x="285" y="-114.5" font-family="Times,serif" font-size="10.00">::create_new_datacopy</text>
</a>
</g>
</g>
<!-- Node1&#45;&gt;Node2 -->
<g id="edge1_Node000001_Node000002" class="edge">
<title>Node1&#45;&gt;Node2</title>
<g id="a_edge1_Node000001_Node000002"><a xlink:title=" ">
<path fill="none" stroke="#63b8ff" d="M172.55,-95.07C186.06,-98.39 199.93,-101.81 213.1,-105.05"/>
<polygon fill="#63b8ff" stroke="#63b8ff" points="212.47,-108.5 223.02,-107.49 214.15,-101.7 212.47,-108.5"/>
</a>
</g>
</g>
<!-- Node4 -->
<g id="Node000004" class="node">
<title>Node4</title>
<g id="a_Node000004"><a xlink:href="structttg__parsec_1_1detail_1_1ttg__data__copy__t.html#a7e1910ed6d9295519d18342582f3ba97" target="_top" xlink:title=" ">
<polygon fill="white" stroke="#666666" points="358,-89.5 212,-89.5 212,-59.5 358,-59.5 358,-89.5"/>
<text text-anchor="start" x="220" y="-77.5" font-family="Times,serif" font-size="10.00">ttg_parsec::detail</text>
<text text-anchor="middle" x="285" y="-66.5" font-family="Times,serif" font-size="10.00">::ttg_data_copy_t::get_ptr</text>
</a>
</g>
</g>
<!-- Node1&#45;&gt;Node4 -->
<g id="edge3_Node000001_Node000004" class="edge">
<title>Node1&#45;&gt;Node4</title>
<g id="a_edge3_Node000001_Node000004"><a xlink:title=" ">
<path fill="none" stroke="#63b8ff" d="M176.23,-74.5C184.67,-74.5 193.21,-74.5 201.59,-74.5"/>
<polygon fill="#63b8ff" stroke="#63b8ff" points="201.73,-78 211.73,-74.5 201.73,-71 201.73,-78"/>
</a>
</g>
</g>
<!-- Node5 -->
<g id="Node000005" class="node">
<title>Node5</title>
<g id="a_Node000005"><a xlink:href="structttg__parsec_1_1detail_1_1ttg__data__copy__t.html#a3b04f6116bfe07ada540a0e36a516588" target="_top" xlink:title=" ">
<polygon fill="white" stroke="#666666" points="352,-41 218,-41 218,0 352,0 352,-41"/>
<text text-anchor="start" x="226" y="-29" font-family="Times,serif" font-size="10.00">ttg_parsec::detail</text>
<text text-anchor="start" x="226" y="-18" font-family="Times,serif" font-size="10.00">::ttg_data_copy_t::reset</text>
<text text-anchor="middle" x="285" y="-7" font-family="Times,serif" font-size="10.00">_readers</text>
</a>
</g>
</g>
<!-- Node1&#45;&gt;Node5 -->
<g id="edge4_Node000001_Node000005" class="edge">
<title>Node1&#45;&gt;Node5</title>
<g id="a_edge4_Node000001_Node000005"><a xlink:title=" ">
<path fill="none" stroke="#63b8ff" d="M163.28,-53.93C177.88,-49.89 193.22,-45.64 207.89,-41.58"/>
<polygon fill="#63b8ff" stroke="#63b8ff" points="209.21,-44.84 217.91,-38.8 207.34,-38.1 209.21,-44.84"/>
</a>
</g>
</g>
<!-- Node3 -->
<g id="Node000003" class="node">
<title>Node3</title>
<g id="a_Node000003"><a xlink:href="namespacettg.html#a78c09561304884c05c8a8f25006b0ee6" target="_top" xlink:title="Accesses the default backend&#39;s default execution context.">
<polygon fill="white" stroke="#666666" points="522,-137.5 394,-137.5 394,-107.5 522,-107.5 522,-137.5"/>
<text text-anchor="start" x="402" y="-125.5" font-family="Times,serif" font-size="10.00">ttg::default_execution</text>
<text text-anchor="middle" x="458" y="-114.5" font-family="Times,serif" font-size="10.00">_context</text>
</a>
</g>
</g>
<!-- Node2&#45;&gt;Node3 -->
<g id="edge2_Node000002_Node000003" class="edge">
<title>Node2&#45;&gt;Node3</title>
<g id="a_edge2_Node000002_Node000003"><a xlink:title=" ">
<path fill="none" stroke="#63b8ff" d="M351.14,-122.5C361.72,-122.5 372.75,-122.5 383.52,-122.5"/>
<polygon fill="#63b8ff" stroke="#63b8ff" points="383.74,-126 393.74,-122.5 383.74,-119 383.74,-126"/>
</a>
</g>
</g>
</g>
</svg>
