<?xml version="1.0" encoding="UTF-8" standalone="no"?>
<!DOCTYPE svg PUBLIC "-//W3C//DTD SVG 1.1//EN"
 "http://www.w3.org/Graphics/SVG/1.1/DTD/svg11.dtd">
<!-- Generated by graphviz version 2.43.0 (0)
 -->
<!-- Title: ttg/ttg/terminal.h Pages: 1 -->
<!--zoomable 434 -->

<svg id="main" version="1.1" xmlns="http://www.w3.org/2000/svg" xmlns:xlink="http://www.w3.org/1999/xlink" xml:space="preserve" onload="init(evt)">
<style type="text/css"><![CDATA[
.node, .edge {opacity: 0.7;}
.node.selected, .edge.selected {opacity: 1;}
.edge:hover path { stroke: red; }
.edge:hover polygon { stroke: red; fill: red; }
]]></style>

<defs>
  <circle id="rim" cx="0" cy="0" r="7"/>
  <circle id="rim2" cx="0" cy="0" r="3.5"/>
  <g id="zoomPlus">
    <use xlink:href="#rim" fill="#404040"><set attributeName="fill" to="#808080" begin="zoomplus.mouseover" end="zoomplus.mouseout"/></use>
    <path d="M-4,0h8M0,-4v8" fill="none" stroke="white" stroke-width="1.5" pointer-events="none"/>
  </g>
  <g id="zoomMin">
    <use xlink:href="#rim" fill="#404040"><set attributeName="fill" to="#808080" begin="zoomminus.mouseover" end="zoomminus.mouseout"/></use>
    <path d="M-4,0h8" fill="none" stroke="white" stroke-width="1.5" pointer-events="none"/>
  </g>
  <g id="arrowUp" transform="translate(30 24)">
    <use xlink:href="#rim"/>
    <path pointer-events="none" fill="none" stroke="white" stroke-width="1.5" d="M0,-3.0v7 M-2.5,-0.5L0,-3.0L2.5,-0.5"/>
  </g>
  <g id="arrowRight" transform="rotate(90) translate(36 -43)">
    <use xlink:href="#rim"/>
    <path pointer-events="none" fill="none" stroke="white" stroke-width="1.5" d="M0,-3.0v7 M-2.5,-0.5L0,-3.0L2.5,-0.5"/>
  </g>
  <g id="arrowDown" transform="rotate(180) translate(-30 -48)">
    <use xlink:href="#rim"/>
    <path pointer-events="none" fill="none" stroke="white" stroke-width="1.5" d="M0,-3.0v7 M-2.5,-0.5L0,-3.0L2.5,-0.5"/>
  </g>
  <g id="arrowLeft" transform="rotate(270) translate(-36 17)">
    <use xlink:href="#rim"/>
    <path pointer-events="none" fill="none" stroke="white" stroke-width="1.5" d="M0,-3.0v7 M-2.5,-0.5L0,-3.0L2.5,-0.5"/>
  </g>
  <g id="resetDef">
    <use xlink:href="#rim2" fill="#404040"><set attributeName="fill" to="#808080" begin="reset.mouseover" end="reset.mouseout"/></use>
  </g>
</defs>
<script type="application/ecmascript">
var viewWidth = 1366;
var viewHeight = 434;
var sectionId = 'dynsection-1';
</script>
<script type="application/ecmascript" xlink:href="svg.min.js"/>
<svg id="graph" class="graph">
<g id="viewport">
<title>ttg/ttg/terminal.h</title>
<!-- Node1 -->
<g id="Node000001" class="node">
<title>Node1</title>
<g id="a_Node000001"><a xlink:title=" ">
<polygon fill="#999999" stroke="#666666" points="1357.5,-426 1253.5,-426 1253.5,-407 1357.5,-407 1357.5,-426"/>
<text text-anchor="middle" x="1305.5" y="-414" font-family="Times,serif" font-size="10.00">ttg/ttg/terminal.h</text>
</a>
</g>
</g>
<!-- Node2 -->
<g id="Node000002" class="node">
<title>Node2</title>
<g id="a_Node000002"><a xlink:href="edge_8h.html" target="_top" xlink:title=" ">
<polygon fill="white" stroke="#666666" points="1189.5,-371 1103.5,-371 1103.5,-352 1189.5,-352 1189.5,-371"/>
<text text-anchor="middle" x="1146.5" y="-359" font-family="Times,serif" font-size="10.00">ttg/ttg/edge.h</text>
</a>
</g>
</g>
<!-- Node1&#45;&gt;Node2 -->
<g id="edge1_Node000001_Node000002" class="edge">
<title>Node1&#45;&gt;Node2</title>
<g id="a_edge1_Node000001_Node000002"><a xlink:title=" ">
<path fill="none" stroke="#63b8ff" d="M1270.4,-403.8C1240.72,-393.91 1198.9,-379.97 1172.25,-371.08"/>
<polygon fill="#63b8ff" stroke="#63b8ff" points="1269.36,-407.14 1279.95,-406.98 1271.57,-400.5 1269.36,-407.14"/>
</a>
</g>
</g>
<!-- Node12 -->
<g id="Node000012" class="node">
<title>Node12</title>
<g id="a_Node000012"><a xlink:href="ttg_2parsec_2ttg_8h.html" target="_top" xlink:title=" ">
<polygon fill="white" stroke="#666666" points="1323.5,-30 1211.5,-30 1211.5,-11 1323.5,-11 1323.5,-30"/>
<text text-anchor="middle" x="1267.5" y="-18" font-family="Times,serif" font-size="10.00">ttg/ttg/parsec/ttg.h</text>
</a>
</g>
</g>
<!-- Node1&#45;&gt;Node12 -->
<g id="edge31_Node000001_Node000012" class="edge">
<title>Node1&#45;&gt;Node12</title>
<g id="a_edge31_Node000001_Node000012"><a xlink:title=" ">
<path fill="none" stroke="#63b8ff" d="M1315.8,-397.99C1327.05,-377.16 1343.5,-340.98 1343.5,-307.5 1343.5,-307.5 1343.5,-307.5 1343.5,-140.5 1343.5,-92.45 1298.95,-48.22 1278.07,-30.13"/>
<polygon fill="#63b8ff" stroke="#63b8ff" points="1312.63,-396.47 1310.78,-406.9 1318.74,-399.9 1312.63,-396.47"/>
</a>
</g>
</g>
<!-- Node13 -->
<g id="Node000013" class="node">
<title>Node13</title>
<g id="a_Node000013"><a xlink:href="func_8h.html" target="_top" xlink:title=" ">
<polygon fill="white" stroke="#666666" points="1147,-206 1064,-206 1064,-187 1147,-187 1147,-206"/>
<text text-anchor="middle" x="1105.5" y="-194" font-family="Times,serif" font-size="10.00">ttg/ttg/func.h</text>
</a>
</g>
</g>
<!-- Node1&#45;&gt;Node13 -->
<g id="edge30_Node000001_Node000013" class="edge">
<title>Node1&#45;&gt;Node13</title>
<g id="a_edge30_Node000001_Node000013"><a xlink:title=" ">
<path fill="none" stroke="#63b8ff" d="M1290.69,-399.35C1251.08,-356.18 1143.71,-239.15 1113.5,-206.22"/>
<polygon fill="#63b8ff" stroke="#63b8ff" points="1288.32,-401.95 1297.66,-406.95 1293.48,-397.22 1288.32,-401.95"/>
</a>
</g>
</g>
<!-- Node3 -->
<g id="Node000003" class="node">
<title>Node3</title>
<g id="a_Node000003"><a xlink:href="ttg_8h.html" target="_top" xlink:title=" ">
<polygon fill="white" stroke="#666666" points="823.5,-96 765.5,-96 765.5,-77 823.5,-77 823.5,-96"/>
<text text-anchor="middle" x="794.5" y="-84" font-family="Times,serif" font-size="10.00">ttg/ttg.h</text>
</a>
</g>
</g>
<!-- Node2&#45;&gt;Node3 -->
<g id="edge2_Node000002_Node000003" class="edge">
<title>Node2&#45;&gt;Node3</title>
<g id="a_edge2_Node000002_Node000003"><a xlink:title=" ">
<path fill="none" stroke="#63b8ff" d="M1092.78,-358.19C977.85,-351.78 718.5,-328.86 718.5,-252.5 718.5,-252.5 718.5,-252.5 718.5,-195.5 718.5,-151.48 761.25,-112.74 782.62,-96.12"/>
<polygon fill="#63b8ff" stroke="#63b8ff" points="1092.93,-361.7 1103.11,-358.74 1093.31,-354.71 1092.93,-361.7"/>
</a>
</g>
</g>
<!-- Node2&#45;&gt;Node12 -->
<g id="edge18_Node000002_Node000012" class="edge">
<title>Node2&#45;&gt;Node12</title>
<g id="a_edge18_Node000002_Node000012"><a xlink:title=" ">
<path fill="none" stroke="#63b8ff" d="M1179.44,-347.81C1215.27,-331.6 1267.5,-299.86 1267.5,-252.5 1267.5,-252.5 1267.5,-252.5 1267.5,-140.5 1267.5,-99.18 1267.5,-49.79 1267.5,-30.16"/>
<polygon fill="#63b8ff" stroke="#63b8ff" points="1177.62,-344.79 1169.83,-351.97 1180.4,-351.21 1177.62,-344.79"/>
</a>
</g>
</g>
<!-- Node2&#45;&gt;Node13 -->
<g id="edge12_Node000002_Node000013" class="edge">
<title>Node2&#45;&gt;Node13</title>
<g id="a_edge12_Node000002_Node000013"><a xlink:title=" ">
<path fill="none" stroke="#63b8ff" d="M1141.8,-341.83C1132.96,-306.67 1114.15,-231.9 1107.72,-206.31"/>
<polygon fill="#63b8ff" stroke="#63b8ff" points="1138.46,-342.89 1144.3,-351.74 1145.25,-341.18 1138.46,-342.89"/>
</a>
</g>
</g>
<!-- Node15 -->
<g id="Node000015" class="node">
<title>Node15</title>
<g id="a_Node000015"><a xlink:href="tt_8h.html" target="_top" xlink:title=" ">
<polygon fill="white" stroke="#666666" points="1118.5,-316 1050.5,-316 1050.5,-297 1118.5,-297 1118.5,-316"/>
<text text-anchor="middle" x="1084.5" y="-304" font-family="Times,serif" font-size="10.00">ttg/ttg/tt.h</text>
</a>
</g>
</g>
<!-- Node2&#45;&gt;Node15 -->
<g id="edge19_Node000002_Node000015" class="edge">
<title>Node2&#45;&gt;Node15</title>
<g id="a_edge19_Node000002_Node000015"><a xlink:title=" ">
<path fill="none" stroke="#63b8ff" d="M1128.75,-345.32C1117.69,-335.87 1103.87,-324.06 1094.64,-316.17"/>
<polygon fill="#63b8ff" stroke="#63b8ff" points="1126.66,-348.15 1136.54,-351.98 1131.21,-342.83 1126.66,-348.15"/>
</a>
</g>
</g>
<!-- Node4 -->
<g id="Node000004" class="node">
<title>Node4</title>
<g id="a_Node000004"><a xlink:href="fibonacci_8cc.html" target="_top" xlink:title=" ">
<polygon fill="white" stroke="#666666" points="905.5,-35.5 777.5,-35.5 777.5,-5.5 905.5,-5.5 905.5,-35.5"/>
<text text-anchor="start" x="785.5" y="-23.5" font-family="Times,serif" font-size="10.00">doc/dox/dev/devsamp</text>
<text text-anchor="middle" x="841.5" y="-12.5" font-family="Times,serif" font-size="10.00">/fibonacci/fibonacci.cc</text>
</a>
</g>
</g>
<!-- Node3&#45;&gt;Node4 -->
<g id="edge3_Node000003_Node000004" class="edge">
<title>Node3&#45;&gt;Node4</title>
<g id="a_edge3_Node000003_Node000004"><a xlink:title=" ">
<path fill="none" stroke="#63b8ff" d="M806.81,-68.74C814.31,-58.52 823.8,-45.6 830.95,-35.86"/>
<polygon fill="#63b8ff" stroke="#63b8ff" points="803.94,-66.74 800.84,-76.87 809.58,-70.88 803.94,-66.74"/>
</a>
</g>
</g>
<!-- Node5 -->
<g id="Node000005" class="node">
<title>Node5</title>
<g id="a_Node000005"><a xlink:href="fibonacci__device_8cc.html" target="_top" xlink:title=" ">
<polygon fill="white" stroke="#666666" points="1051.5,-41 923.5,-41 923.5,0 1051.5,0 1051.5,-41"/>
<text text-anchor="start" x="931.5" y="-29" font-family="Times,serif" font-size="10.00">doc/dox/dev/devsamp</text>
<text text-anchor="start" x="931.5" y="-18" font-family="Times,serif" font-size="10.00">/fibonacci/fibonacci</text>
<text text-anchor="middle" x="987.5" y="-7" font-family="Times,serif" font-size="10.00">_device.cc</text>
</a>
</g>
</g>
<!-- Node3&#45;&gt;Node5 -->
<g id="edge4_Node000003_Node000005" class="edge">
<title>Node3&#45;&gt;Node5</title>
<g id="a_edge4_Node000003_Node000005"><a xlink:title=" ">
<path fill="none" stroke="#63b8ff" d="M830.15,-73.68C857.73,-64.53 896.51,-51.67 928.67,-41.01"/>
<polygon fill="#63b8ff" stroke="#63b8ff" points="828.92,-70.4 820.53,-76.87 831.12,-77.04 828.92,-70.4"/>
</a>
</g>
</g>
<!-- Node6 -->
<g id="Node000006" class="node">
<title>Node6</title>
<g id="a_Node000006"><a xlink:href="helloworld_8cpp.html" target="_top" xlink:title=" ">
<polygon fill="white" stroke="#666666" points="151,-35.5 0,-35.5 0,-5.5 151,-5.5 151,-35.5"/>
<text text-anchor="start" x="8" y="-23.5" font-family="Times,serif" font-size="10.00">doc/dox/dev/devsamp</text>
<text text-anchor="middle" x="75.5" y="-12.5" font-family="Times,serif" font-size="10.00">/helloworld/helloworld.cpp</text>
</a>
</g>
</g>
<!-- Node3&#45;&gt;Node6 -->
<g id="edge5_Node000003_Node000006" class="edge">
<title>Node3&#45;&gt;Node6</title>
<g id="a_edge5_Node000003_Node000006"><a xlink:title=" ">
<path fill="none" stroke="#63b8ff" d="M755.02,-84.86C654.99,-82.77 383.74,-74.23 160.5,-41 150.92,-39.57 140.81,-37.64 131.05,-35.55"/>
<polygon fill="#63b8ff" stroke="#63b8ff" points="755.19,-88.36 765.26,-85.06 755.33,-81.36 755.19,-88.36"/>
</a>
</g>
</g>
<!-- Node7 -->
<g id="Node000007" class="node">
<title>Node7</title>
<g id="a_Node000007"><a xlink:href="distributed_8cc.html" target="_top" xlink:title=" ">
<polygon fill="white" stroke="#666666" points="303.5,-35.5 169.5,-35.5 169.5,-5.5 303.5,-5.5 303.5,-35.5"/>
<text text-anchor="start" x="177.5" y="-23.5" font-family="Times,serif" font-size="10.00">doc/dox/user/examples</text>
<text text-anchor="middle" x="236.5" y="-12.5" font-family="Times,serif" font-size="10.00">/distributed.cc</text>
</a>
</g>
</g>
<!-- Node3&#45;&gt;Node7 -->
<g id="edge6_Node000003_Node000007" class="edge">
<title>Node3&#45;&gt;Node7</title>
<g id="a_edge6_Node000003_Node000007"><a xlink:title=" ">
<path fill="none" stroke="#63b8ff" d="M755.33,-84C672.86,-80.37 475.51,-69.25 312.5,-41 304.04,-39.53 295.15,-37.61 286.54,-35.54"/>
<polygon fill="#63b8ff" stroke="#63b8ff" points="755.35,-87.5 765.5,-84.43 755.65,-80.51 755.35,-87.5"/>
</a>
</g>
</g>
<!-- Node8 -->
<g id="Node000008" class="node">
<title>Node8</title>
<g id="a_Node000008"><a xlink:href="iterative_8cc.html" target="_top" xlink:title=" ">
<polygon fill="white" stroke="#666666" points="455.5,-35.5 321.5,-35.5 321.5,-5.5 455.5,-5.5 455.5,-35.5"/>
<text text-anchor="start" x="329.5" y="-23.5" font-family="Times,serif" font-size="10.00">doc/dox/user/examples</text>
<text text-anchor="middle" x="388.5" y="-12.5" font-family="Times,serif" font-size="10.00">/iterative.cc</text>
</a>
</g>
</g>
<!-- Node3&#45;&gt;Node8 -->
<g id="edge7_Node000003_Node000008" class="edge">
<title>Node3&#45;&gt;Node8</title>
<g id="a_edge7_Node000003_Node000008"><a xlink:title=" ">
<path fill="none" stroke="#63b8ff" d="M755.03,-81.69C692.88,-75.35 568.56,-61.29 464.5,-41 456.48,-39.44 448.04,-37.53 439.83,-35.54"/>
<polygon fill="#63b8ff" stroke="#63b8ff" points="754.88,-85.19 765.18,-82.71 755.58,-78.23 754.88,-85.19"/>
</a>
</g>
</g>
<!-- Node9 -->
<g id="Node000009" class="node">
<title>Node9</title>
<g id="a_Node000009"><a xlink:href="reducing_8cc.html" target="_top" xlink:title=" ">
<polygon fill="white" stroke="#666666" points="607.5,-35.5 473.5,-35.5 473.5,-5.5 607.5,-5.5 607.5,-35.5"/>
<text text-anchor="start" x="481.5" y="-23.5" font-family="Times,serif" font-size="10.00">doc/dox/user/examples</text>
<text text-anchor="middle" x="540.5" y="-12.5" font-family="Times,serif" font-size="10.00">/reducing.cc</text>
</a>
</g>
</g>
<!-- Node3&#45;&gt;Node9 -->
<g id="edge8_Node000003_Node000009" class="edge">
<title>Node3&#45;&gt;Node9</title>
<g id="a_edge8_Node000003_Node000009"><a xlink:title=" ">
<path fill="none" stroke="#63b8ff" d="M755.08,-75.72C719,-66.75 664.14,-53.07 616.5,-41 609.63,-39.26 602.42,-37.42 595.29,-35.6"/>
<polygon fill="#63b8ff" stroke="#63b8ff" points="754.64,-79.22 765.19,-78.23 756.33,-72.42 754.64,-79.22"/>
</a>
</g>
</g>
<!-- Node10 -->
<g id="Node000010" class="node">
<title>Node10</title>
<g id="a_Node000010"><a xlink:href="simple_8cc.html" target="_top" xlink:title=" ">
<polygon fill="white" stroke="#666666" points="759.5,-35.5 625.5,-35.5 625.5,-5.5 759.5,-5.5 759.5,-35.5"/>
<text text-anchor="start" x="633.5" y="-23.5" font-family="Times,serif" font-size="10.00">doc/dox/user/examples</text>
<text text-anchor="middle" x="692.5" y="-12.5" font-family="Times,serif" font-size="10.00">/simple.cc</text>
</a>
</g>
</g>
<!-- Node3&#45;&gt;Node10 -->
<g id="edge9_Node000003_Node000010" class="edge">
<title>Node3&#45;&gt;Node10</title>
<g id="a_edge9_Node000003_Node000010"><a xlink:title=" ">
<path fill="none" stroke="#63b8ff" d="M772.05,-71.41C755.1,-60.78 731.95,-46.25 715,-35.62"/>
<polygon fill="#63b8ff" stroke="#63b8ff" points="770.41,-74.52 780.74,-76.87 774.13,-68.59 770.41,-74.52"/>
</a>
</g>
</g>
<!-- Node11 -->
<g id="Node000011" class="node">
<title>Node11</title>
<g id="a_Node000011"><a xlink:href="ttg_2madness_2ttg_8h.html" target="_top" xlink:title=" ">
<polygon fill="white" stroke="#666666" points="1193.5,-30 1069.5,-30 1069.5,-11 1193.5,-11 1193.5,-30"/>
<text text-anchor="middle" x="1131.5" y="-18" font-family="Times,serif" font-size="10.00">ttg/ttg/madness/ttg.h</text>
</a>
</g>
</g>
<!-- Node3&#45;&gt;Node11 -->
<g id="edge10_Node000003_Node000011" class="edge">
<title>Node3&#45;&gt;Node11</title>
<g id="a_edge10_Node000003_Node000011"><a xlink:title=" ">
<path fill="none" stroke="#63b8ff" d="M833.97,-80.18C886.13,-72.87 980.72,-58.58 1060.5,-41 1074.61,-37.89 1090.09,-33.73 1102.99,-30.05"/>
<polygon fill="#63b8ff" stroke="#63b8ff" points="833.24,-76.75 823.81,-81.6 834.2,-83.69 833.24,-76.75"/>
</a>
</g>
</g>
<!-- Node3&#45;&gt;Node12 -->
<g id="edge11_Node000003_Node000012" class="edge">
<title>Node3&#45;&gt;Node12</title>
<g id="a_edge11_Node000003_Node000012"><a xlink:title=" ">
<path fill="none" stroke="#63b8ff" d="M833.86,-83.6C907.08,-79.55 1068.88,-68.09 1202.5,-41 1216.01,-38.26 1230.75,-33.95 1242.77,-30.08"/>
<polygon fill="#63b8ff" stroke="#63b8ff" points="833.52,-80.12 823.72,-84.15 833.89,-87.11 833.52,-80.12"/>
</a>
</g>
</g>
<!-- Node13&#45;&gt;Node3 -->
<g id="edge13_Node000013_Node000003" class="edge">
<title>Node13&#45;&gt;Node3</title>
<g id="a_edge13_Node000013_Node000003"><a xlink:title=" ">
<path fill="none" stroke="#63b8ff" d="M1096.92,-177.72C1088.86,-163.01 1075.35,-142.84 1057.5,-132 1018.51,-108.33 883.78,-94.74 823.76,-89.73"/>
<polygon fill="#63b8ff" stroke="#63b8ff" points="1093.93,-179.56 1101.62,-186.84 1100.16,-176.35 1093.93,-179.56"/>
</a>
</g>
</g>
<!-- Node13&#45;&gt;Node11 -->
<g id="edge16_Node000013_Node000011" class="edge">
<title>Node13&#45;&gt;Node11</title>
<g id="a_edge16_Node000013_Node000011"><a xlink:title=" ">
<path fill="none" stroke="#63b8ff" d="M1108.33,-176.56C1113.92,-139.12 1126.2,-56.95 1130.21,-30.14"/>
<polygon fill="#63b8ff" stroke="#63b8ff" points="1104.84,-176.22 1106.83,-186.63 1111.76,-177.26 1104.84,-176.22"/>
</a>
</g>
</g>
<!-- Node13&#45;&gt;Node12 -->
<g id="edge17_Node000013_Node000012" class="edge">
<title>Node13&#45;&gt;Node12</title>
<g id="a_edge17_Node000013_Node000012"><a xlink:title=" ">
<path fill="none" stroke="#63b8ff" d="M1120.38,-179.43C1141.5,-156.62 1181.4,-113.57 1215.5,-77 1230.99,-60.39 1249.14,-41.05 1259.38,-30.14"/>
<polygon fill="#63b8ff" stroke="#63b8ff" points="1117.72,-177.15 1113.49,-186.86 1122.85,-181.9 1117.72,-177.15"/>
</a>
</g>
</g>
<!-- Node14 -->
<g id="Node000014" class="node">
<title>Node14</title>
<g id="a_Node000014"><a xlink:href="broadcast_8h.html" target="_top" xlink:title=" ">
<polygon fill="white" stroke="#666666" points="1049,-151 938,-151 938,-132 1049,-132 1049,-151"/>
<text text-anchor="middle" x="993.5" y="-139" font-family="Times,serif" font-size="10.00">ttg/ttg/broadcast.h</text>
</a>
</g>
</g>
<!-- Node13&#45;&gt;Node14 -->
<g id="edge14_Node000013_Node000014" class="edge">
<title>Node13&#45;&gt;Node14</title>
<g id="a_edge14_Node000013_Node000014"><a xlink:title=" ">
<path fill="none" stroke="#63b8ff" d="M1078.31,-182.63C1057.68,-172.87 1029.88,-159.71 1011.82,-151.17"/>
<polygon fill="#63b8ff" stroke="#63b8ff" points="1076.97,-185.87 1087.51,-186.98 1079.96,-179.54 1076.97,-185.87"/>
</a>
</g>
</g>
<!-- Node14&#45;&gt;Node3 -->
<g id="edge15_Node000014_Node000003" class="edge">
<title>Node14&#45;&gt;Node3</title>
<g id="a_edge15_Node000014_Node000003"><a xlink:title=" ">
<path fill="none" stroke="#63b8ff" d="M951.7,-129.37C913.37,-119.16 857.58,-104.3 823.8,-95.3"/>
<polygon fill="#63b8ff" stroke="#63b8ff" points="950.96,-132.79 961.53,-131.98 952.76,-126.03 950.96,-132.79"/>
</a>
</g>
</g>
<!-- Node15&#45;&gt;Node3 -->
<g id="edge20_Node000015_Node000003" class="edge">
<title>Node15&#45;&gt;Node3</title>
<g id="a_edge20_Node000015_Node000003"><a xlink:title=" ">
<path fill="none" stroke="#63b8ff" d="M1039.91,-301.77C980.92,-296.04 881.09,-283.33 852.5,-261 798.69,-218.97 794.35,-125.16 794.35,-96.19"/>
<polygon fill="#63b8ff" stroke="#63b8ff" points="1039.78,-305.28 1050.07,-302.73 1040.44,-298.31 1039.78,-305.28"/>
</a>
</g>
</g>
<!-- Node15&#45;&gt;Node11 -->
<g id="edge23_Node000015_Node000011" class="edge">
<title>Node15&#45;&gt;Node11</title>
<g id="a_edge23_Node000015_Node000011"><a xlink:title=" ">
<path fill="none" stroke="#63b8ff" d="M1112.91,-292.16C1144.61,-275.07 1191.5,-242.23 1191.5,-197.5 1191.5,-197.5 1191.5,-197.5 1191.5,-140.5 1191.5,-94.69 1155.61,-48.56 1139.34,-30"/>
<polygon fill="#63b8ff" stroke="#63b8ff" points="1110.91,-289.25 1103.63,-296.95 1114.12,-295.47 1110.91,-289.25"/>
</a>
</g>
</g>
<!-- Node15&#45;&gt;Node12 -->
<g id="edge24_Node000015_Node000012" class="edge">
<title>Node15&#45;&gt;Node12</title>
<g id="a_edge24_Node000015_Node000012"><a xlink:title=" ">
<path fill="none" stroke="#63b8ff" d="M1126.69,-293.81C1169.5,-279.07 1229.5,-249.19 1229.5,-197.5 1229.5,-197.5 1229.5,-197.5 1229.5,-140.5 1229.5,-97.34 1252.46,-49.37 1262.69,-30.15"/>
<polygon fill="#63b8ff" stroke="#63b8ff" points="1125.45,-290.53 1117.04,-296.98 1127.63,-297.18 1125.45,-290.53"/>
</a>
</g>
</g>
<!-- Node15&#45;&gt;Node13 -->
<g id="edge22_Node000015_Node000013" class="edge">
<title>Node15&#45;&gt;Node13</title>
<g id="a_edge22_Node000015_Node000013"><a xlink:title=" ">
<path fill="none" stroke="#63b8ff" d="M1088.14,-286.8C1092.72,-263.2 1100.43,-223.58 1103.82,-206.16"/>
<polygon fill="#63b8ff" stroke="#63b8ff" points="1084.69,-286.18 1086.22,-296.66 1091.56,-287.51 1084.69,-286.18"/>
</a>
</g>
</g>
<!-- Node15&#45;&gt;Node14 -->
<g id="edge21_Node000015_Node000014" class="edge">
<title>Node15&#45;&gt;Node14</title>
<g id="a_edge21_Node000015_Node000014"><a xlink:title=" ">
<path fill="none" stroke="#63b8ff" d="M1074.58,-287.73C1055.17,-252.97 1012.83,-177.12 998.42,-151.31"/>
<polygon fill="#63b8ff" stroke="#63b8ff" points="1071.68,-289.71 1079.61,-296.74 1077.79,-286.3 1071.68,-289.71"/>
</a>
</g>
</g>
<!-- Node16 -->
<g id="Node000016" class="node">
<title>Node16</title>
<g id="a_Node000016"><a xlink:href="traverse_8h.html" target="_top" xlink:title=" ">
<polygon fill="white" stroke="#666666" points="965,-261 862,-261 862,-242 965,-242 965,-261"/>
<text text-anchor="middle" x="913.5" y="-249" font-family="Times,serif" font-size="10.00">ttg/ttg/traverse.h</text>
</a>
</g>
</g>
<!-- Node15&#45;&gt;Node16 -->
<g id="edge25_Node000015_Node000016" class="edge">
<title>Node15&#45;&gt;Node16</title>
<g id="a_edge25_Node000015_Node000016"><a xlink:title=" ">
<path fill="none" stroke="#63b8ff" d="M1047.16,-293.93C1015.22,-284.03 969.98,-270.01 941.19,-261.08"/>
<polygon fill="#63b8ff" stroke="#63b8ff" points="1046.44,-297.37 1057.03,-296.98 1048.51,-290.68 1046.44,-297.37"/>
</a>
</g>
</g>
<!-- Node16&#45;&gt;Node3 -->
<g id="edge26_Node000016_Node000003" class="edge">
<title>Node16&#45;&gt;Node3</title>
<g id="a_edge26_Node000016_Node000003"><a xlink:title=" ">
<path fill="none" stroke="#63b8ff" d="M893.2,-235.46C870.6,-217.69 834.49,-186.06 813.5,-151 802.86,-133.23 797.79,-109.05 795.72,-96.27"/>
<polygon fill="#63b8ff" stroke="#63b8ff" points="891.36,-238.46 901.42,-241.78 895.63,-232.91 891.36,-238.46"/>
</a>
</g>
</g>
<!-- Node16&#45;&gt;Node13 -->
<g id="edge27_Node000016_Node000013" class="edge">
<title>Node16&#45;&gt;Node13</title>
<g id="a_edge27_Node000016_Node000013"><a xlink:title=" ">
<path fill="none" stroke="#63b8ff" d="M954.03,-239.31C989.96,-229.39 1041.66,-215.12 1074.41,-206.08"/>
<polygon fill="#63b8ff" stroke="#63b8ff" points="953.06,-235.95 944.35,-241.98 954.92,-242.7 953.06,-235.95"/>
</a>
</g>
</g>
<!-- Node17 -->
<g id="Node000017" class="node">
<title>Node17</title>
<g id="a_Node000017"><a xlink:href="dot_8h.html" target="_top" xlink:title=" ">
<polygon fill="white" stroke="#666666" points="920,-151 823,-151 823,-132 920,-132 920,-151"/>
<text text-anchor="middle" x="871.5" y="-139" font-family="Times,serif" font-size="10.00">ttg/ttg/util/dot.h</text>
</a>
</g>
</g>
<!-- Node16&#45;&gt;Node17 -->
<g id="edge28_Node000016_Node000017" class="edge">
<title>Node16&#45;&gt;Node17</title>
<g id="a_edge28_Node000016_Node000017"><a xlink:title=" ">
<path fill="none" stroke="#63b8ff" d="M906.35,-232.12C897.19,-208.56 881.67,-168.66 874.87,-151.16"/>
<polygon fill="#63b8ff" stroke="#63b8ff" points="903.18,-233.61 910.06,-241.66 909.7,-231.07 903.18,-233.61"/>
</a>
</g>
</g>
<!-- Node17&#45;&gt;Node3 -->
<g id="edge29_Node000017_Node000003" class="edge">
<title>Node17&#45;&gt;Node3</title>
<g id="a_edge29_Node000017_Node000003"><a xlink:title=" ">
<path fill="none" stroke="#63b8ff" d="M850.65,-126.15C836.74,-116.57 818.89,-104.29 807.1,-96.17"/>
<polygon fill="#63b8ff" stroke="#63b8ff" points="848.91,-129.2 859.13,-131.98 852.88,-123.43 848.91,-129.2"/>
</a>
</g>
</g>
</g>
</svg>

<g id="navigator" transform="translate(0 0)" fill="#404254">
  <rect fill="#f2f5e9" fill-opacity="0.5" stroke="#606060" stroke-width=".5" x="0" y="0" width="60" height="60"/>
  <use id="zoomplus" xlink:href="#zoomPlus" x="17" y="9" onmousedown="handleZoom(evt,'in')"/>
  <use id="zoomminus" xlink:href="#zoomMin" x="42" y="9" onmousedown="handleZoom(evt,'out')"/>
  <use id="reset" xlink:href="#resetDef" x="30" y="36" onmousedown="handleReset()"/>
   <use id="arrowup" xlink:href="#arrowUp" x="0" y="0" onmousedown="handlePan(0,-1)"/>
  <use id="arrowright" xlink:href="#arrowRight" x="0" y="0" onmousedown="handlePan(1,0)"/>
  <use id="arrowdown" xlink:href="#arrowDown" x="0" y="0" onmousedown="handlePan(0,1)"/>
  <use id="arrowleft" xlink:href="#arrowLeft" x="0" y="0" onmousedown="handlePan(-1,0)"/>
</g>
<svg viewBox="0 0 15 15" width="100%" height="30px" preserveAspectRatio="xMaxYMin meet">
 <g id="arrow_out" transform="scale(0.3 0.3)">
  <a xlink:href="terminal_8h__dep__incl_org.svg" target="_base">
   <rect id="button" ry="5" rx="5" y="6" x="6" height="38" width="38"
        fill="#f2f5e9" fill-opacity="0.5" stroke="#606060" stroke-width="1.0"/>
   <path id="arrow"
     d="M 11.500037,31.436501 C 11.940474,20.09759 22.043105,11.32322 32.158766,21.979434 L 37.068811,17.246167 C 37.068811,17.246167 37.088388,32 37.088388,32 L 22.160133,31.978069 C 22.160133,31.978069 26.997745,27.140456 26.997745,27.140456 C 18.528582,18.264221 13.291696,25.230495 11.500037,31.436501 z"
     style="fill:#404040;"/>
  </a>
 </g>
</svg>

<style type='text/css'>
<![CDATA[
[data-mouse-over-selected='false'] { opacity: 0.7; }
[data-mouse-over-selected='true']  { opacity: 1.0; }
]]>
</style>
<script type="application/ecmascript"><![CDATA[
document.addEventListener('DOMContentLoaded', (event) => {
  highlightEdges();
  highlightAdjacentNodes();
});
]]></script>
</svg>
