<?xml version="1.0" encoding="UTF-8" standalone="no"?>
<!DOCTYPE svg PUBLIC "-//W3C//DTD SVG 1.1//EN"
 "http://www.w3.org/Graphics/SVG/1.1/DTD/svg11.dtd">
<!-- Generated by graphviz version 2.43.0 (0)
 -->
<!-- Title: ttg/ttg/parsec/thread_local.h Pages: 1 -->
<!--zoomable 280 -->

<svg id="main" version="1.1" xmlns="http://www.w3.org/2000/svg" xmlns:xlink="http://www.w3.org/1999/xlink" xml:space="preserve" onload="init(evt)">
<style type="text/css"><![CDATA[
.node, .edge {opacity: 0.7;}
.node.selected, .edge.selected {opacity: 1;}
.edge:hover path { stroke: red; }
.edge:hover polygon { stroke: red; fill: red; }
]]></style>

<defs>
  <circle id="rim" cx="0" cy="0" r="7"/>
  <circle id="rim2" cx="0" cy="0" r="3.5"/>
  <g id="zoomPlus">
    <use xlink:href="#rim" fill="#404040"><set attributeName="fill" to="#808080" begin="zoomplus.mouseover" end="zoomplus.mouseout"/></use>
    <path d="M-4,0h8M0,-4v8" fill="none" stroke="white" stroke-width="1.5" pointer-events="none"/>
  </g>
  <g id="zoomMin">
    <use xlink:href="#rim" fill="#404040"><set attributeName="fill" to="#808080" begin="zoomminus.mouseover" end="zoomminus.mouseout"/></use>
    <path d="M-4,0h8" fill="none" stroke="white" stroke-width="1.5" pointer-events="none"/>
  </g>
  <g id="arrowUp" transform="translate(30 24)">
    <use xlink:href="#rim"/>
    <path pointer-events="none" fill="none" stroke="white" stroke-width="1.5" d="M0,-3.0v7 M-2.5,-0.5L0,-3.0L2.5,-0.5"/>
  </g>
  <g id="arrowRight" transform="rotate(90) translate(36 -43)">
    <use xlink:href="#rim"/>
    <path pointer-events="none" fill="none" stroke="white" stroke-width="1.5" d="M0,-3.0v7 M-2.5,-0.5L0,-3.0L2.5,-0.5"/>
  </g>
  <g id="arrowDown" transform="rotate(180) translate(-30 -48)">
    <use xlink:href="#rim"/>
    <path pointer-events="none" fill="none" stroke="white" stroke-width="1.5" d="M0,-3.0v7 M-2.5,-0.5L0,-3.0L2.5,-0.5"/>
  </g>
  <g id="arrowLeft" transform="rotate(270) translate(-36 17)">
    <use xlink:href="#rim"/>
    <path pointer-events="none" fill="none" stroke="white" stroke-width="1.5" d="M0,-3.0v7 M-2.5,-0.5L0,-3.0L2.5,-0.5"/>
  </g>
  <g id="resetDef">
    <use xlink:href="#rim2" fill="#404040"><set attributeName="fill" to="#808080" begin="reset.mouseover" end="reset.mouseout"/></use>
  </g>
</defs>
<script type="application/ecmascript">
var viewWidth = 796;
var viewHeight = 280;
var sectionId = 'dynsection-0';
</script>
<script type="application/ecmascript" xlink:href="svg.min.js"/>
<svg id="graph" class="graph">
<g id="viewport">
<title>ttg/ttg/parsec/thread_local.h</title>
<!-- Node1 -->
<g id="Node000001" class="node">
<title>Node1</title>
<g id="a_Node000001"><a xlink:title=" ">
<polygon fill="#999999" stroke="#666666" points="143.63,-272 21.63,-272 21.63,-242 143.63,-242 143.63,-272"/>
<text text-anchor="start" x="29.63" y="-260" font-family="Times,serif" font-size="10.00">ttg/ttg/parsec/thread</text>
<text text-anchor="middle" x="82.63" y="-249" font-family="Times,serif" font-size="10.00">_local.h</text>
</a>
</g>
</g>
<!-- Node2 -->
<g id="Node000002" class="node">
<title>Node2</title>
<g id="a_Node000002"><a xlink:href="parsec_2ptr_8h.html" target="_top" xlink:title=" ">
<polygon fill="white" stroke="#666666" points="138.63,-79.5 26.63,-79.5 26.63,-60.5 138.63,-60.5 138.63,-79.5"/>
<text text-anchor="middle" x="82.63" y="-67.5" font-family="Times,serif" font-size="10.00">ttg/ttg/parsec/ptr.h</text>
</a>
</g>
</g>
<!-- Node1&#45;&gt;Node2 -->
<g id="edge1_Node000001_Node000002" class="edge">
<title>Node1&#45;&gt;Node2</title>
<g id="a_edge1_Node000001_Node000002"><a xlink:title=" ">
<path fill="none" stroke="#63b8ff" d="M82.63,-231.66C82.63,-189.87 82.63,-106.38 82.63,-79.53"/>
<polygon fill="#63b8ff" stroke="#63b8ff" points="79.13,-231.79 82.63,-241.79 86.13,-231.79 79.13,-231.79"/>
</a>
</g>
</g>
<!-- Node3 -->
<g id="Node000003" class="node">
<title>Node3</title>
<g id="a_Node000003"><a xlink:href="ttg_2parsec_2ttg_8h.html" target="_top" xlink:title=" ">
<polygon fill="white" stroke="#666666" points="512.63,-19 400.63,-19 400.63,0 512.63,0 512.63,-19"/>
<text text-anchor="middle" x="456.63" y="-7" font-family="Times,serif" font-size="10.00">ttg/ttg/parsec/ttg.h</text>
</a>
</g>
</g>
<!-- Node1&#45;&gt;Node3 -->
<g id="edge3_Node000001_Node000003" class="edge">
<title>Node1&#45;&gt;Node3</title>
<g id="a_edge3_Node000001_Node000003"><a xlink:title=" ">
<path fill="none" stroke="#63b8ff" d="M63.3,-234C30.2,-193.63 -29.44,-107.08 17.63,-55 42.86,-27.08 288.01,-15.8 400.6,-12.07"/>
<polygon fill="#63b8ff" stroke="#63b8ff" points="60.81,-236.47 69.91,-241.89 66.17,-231.98 60.81,-236.47"/>
</a>
</g>
</g>
<!-- Node4 -->
<g id="Node000004" class="node">
<title>Node4</title>
<g id="a_Node000004"><a xlink:href="ttg__data__copy_8h.html" target="_top" xlink:title=" ">
<polygon fill="white" stroke="#666666" points="476.63,-206 374.63,-206 374.63,-176 476.63,-176 476.63,-206"/>
<text text-anchor="start" x="382.63" y="-194" font-family="Times,serif" font-size="10.00">ttg/ttg/parsec/ttg</text>
<text text-anchor="middle" x="425.63" y="-183" font-family="Times,serif" font-size="10.00">_data_copy.h</text>
</a>
</g>
</g>
<!-- Node1&#45;&gt;Node4 -->
<g id="edge4_Node000001_Node000004" class="edge">
<title>Node1&#45;&gt;Node4</title>
<g id="a_edge4_Node000001_Node000004"><a xlink:title=" ">
<path fill="none" stroke="#63b8ff" d="M153.85,-242.71C219.75,-230.42 316.09,-212.44 374.62,-201.52"/>
<polygon fill="#63b8ff" stroke="#63b8ff" points="153.14,-239.28 143.95,-244.56 154.42,-246.16 153.14,-239.28"/>
</a>
</g>
</g>
<!-- Node2&#45;&gt;Node3 -->
<g id="edge2_Node000002_Node000003" class="edge">
<title>Node2&#45;&gt;Node3</title>
<g id="a_edge2_Node000002_Node000003"><a xlink:title=" ">
<path fill="none" stroke="#63b8ff" d="M129.91,-58.42C135.86,-57.2 141.88,-56.03 147.63,-55 235.65,-39.2 338.57,-25.28 400.62,-17.38"/>
<polygon fill="#63b8ff" stroke="#63b8ff" points="129.08,-55.02 120.01,-60.49 130.51,-61.87 129.08,-55.02"/>
</a>
</g>
</g>
<!-- Node4&#45;&gt;Node2 -->
<g id="edge9_Node000004_Node000002" class="edge">
<title>Node4&#45;&gt;Node2</title>
<g id="a_edge9_Node000004_Node000002"><a xlink:title=" ">
<path fill="none" stroke="#63b8ff" d="M375.62,-172.65C301.03,-146.77 163.41,-99.03 107.36,-79.58"/>
<polygon fill="#63b8ff" stroke="#63b8ff" points="374.68,-176.03 385.27,-176 376.97,-169.41 374.68,-176.03"/>
</a>
</g>
</g>
<!-- Node4&#45;&gt;Node3 -->
<g id="edge17_Node000004_Node000003" class="edge">
<title>Node4&#45;&gt;Node3</title>
<g id="a_edge17_Node000004_Node000003"><a xlink:title=" ">
<path fill="none" stroke="#63b8ff" d="M486.83,-186.1C518.82,-180.59 555.42,-168.03 575.63,-140 590.04,-120 585.56,-86.61 558.63,-55 542.9,-36.55 518.08,-25.49 496.86,-19.01"/>
<polygon fill="#63b8ff" stroke="#63b8ff" points="486,-182.69 476.64,-187.66 487.05,-189.61 486,-182.69"/>
</a>
</g>
</g>
<!-- Node5 -->
<g id="Node000005" class="node">
<title>Node5</title>
<g id="a_Node000005"><a xlink:href="parsec_2buffer_8h.html" target="_top" xlink:title=" ">
<polygon fill="white" stroke="#666666" points="755.63,-140 627.63,-140 627.63,-121 755.63,-121 755.63,-140"/>
<text text-anchor="middle" x="691.63" y="-128" font-family="Times,serif" font-size="10.00">ttg/ttg/parsec/buffer.h</text>
</a>
</g>
</g>
<!-- Node4&#45;&gt;Node5 -->
<g id="edge5_Node000004_Node000005" class="edge">
<title>Node4&#45;&gt;Node5</title>
<g id="a_edge5_Node000004_Node000005"><a xlink:title=" ">
<path fill="none" stroke="#63b8ff" d="M486.84,-176.54C537.85,-165.32 608.99,-149.67 652.59,-140.08"/>
<polygon fill="#63b8ff" stroke="#63b8ff" points="485.93,-173.15 476.92,-178.72 487.43,-179.99 485.93,-173.15"/>
</a>
</g>
</g>
<!-- Node7 -->
<g id="Node000007" class="node">
<title>Node7</title>
<g id="a_Node000007"><a xlink:href="parsec_2task_8h.html" target="_top" xlink:title=" ">
<polygon fill="white" stroke="#666666" points="411.13,-140 292.13,-140 292.13,-121 411.13,-121 411.13,-140"/>
<text text-anchor="middle" x="351.63" y="-128" font-family="Times,serif" font-size="10.00">ttg/ttg/parsec/task.h</text>
</a>
</g>
</g>
<!-- Node4&#45;&gt;Node7 -->
<g id="edge10_Node000004_Node000007" class="edge">
<title>Node4&#45;&gt;Node7</title>
<g id="a_edge10_Node000004_Node000007"><a xlink:title=" ">
<path fill="none" stroke="#63b8ff" d="M399.73,-169.53C387.06,-159.51 372.48,-147.98 362.72,-140.27"/>
<polygon fill="#63b8ff" stroke="#63b8ff" points="397.7,-172.38 407.72,-175.84 402.04,-166.89 397.7,-172.38"/>
</a>
</g>
</g>
<!-- Node10 -->
<g id="Node000010" class="node">
<title>Node10</title>
<g id="a_Node000010"><a xlink:href="parsec_2ttvalue_8h.html" target="_top" xlink:title=" ">
<polygon fill="white" stroke="#666666" points="567.13,-140 434.13,-140 434.13,-121 567.13,-121 567.13,-140"/>
<text text-anchor="middle" x="500.63" y="-128" font-family="Times,serif" font-size="10.00">ttg/ttg/parsec/ttvalue.h</text>
</a>
</g>
</g>
<!-- Node4&#45;&gt;Node10 -->
<g id="edge18_Node000004_Node000010" class="edge">
<title>Node4&#45;&gt;Node10</title>
<g id="a_edge18_Node000004_Node000010"><a xlink:title=" ">
<path fill="none" stroke="#63b8ff" d="M451.87,-169.53C464.72,-159.51 479.5,-147.98 489.39,-140.27"/>
<polygon fill="#63b8ff" stroke="#63b8ff" points="449.52,-166.93 443.78,-175.84 453.82,-172.45 449.52,-166.93"/>
</a>
</g>
</g>
<!-- Node5&#45;&gt;Node3 -->
<g id="edge8_Node000005_Node000003" class="edge">
<title>Node5&#45;&gt;Node3</title>
<g id="a_edge8_Node000005_Node000003"><a xlink:title=" ">
<path fill="none" stroke="#63b8ff" d="M678.4,-112.77C664.14,-95.83 639.93,-70.04 613.63,-55 581.78,-36.79 541.98,-25.62 510.42,-19.02"/>
<polygon fill="#63b8ff" stroke="#63b8ff" points="675.87,-115.2 684.91,-120.72 681.28,-110.76 675.87,-115.2"/>
</a>
</g>
</g>
<!-- Node6 -->
<g id="Node000006" class="node">
<title>Node6</title>
<g id="a_Node000006"><a xlink:href="parsec__data_8h.html" target="_top" xlink:title=" ">
<polygon fill="white" stroke="#666666" points="787.63,-85 665.63,-85 665.63,-55 787.63,-55 787.63,-85"/>
<text text-anchor="start" x="673.63" y="-73" font-family="Times,serif" font-size="10.00">ttg/ttg/parsec/parsec</text>
<text text-anchor="middle" x="726.63" y="-62" font-family="Times,serif" font-size="10.00">_data.h</text>
</a>
</g>
</g>
<!-- Node5&#45;&gt;Node6 -->
<g id="edge6_Node000005_Node000006" class="edge">
<title>Node5&#45;&gt;Node6</title>
<g id="a_edge6_Node000005_Node000006"><a xlink:title=" ">
<path fill="none" stroke="#63b8ff" d="M702.07,-112.05C707.21,-103.45 713.34,-93.21 718.18,-85.11"/>
<polygon fill="#63b8ff" stroke="#63b8ff" points="698.92,-110.49 696.79,-120.87 704.93,-114.08 698.92,-110.49"/>
</a>
</g>
</g>
<!-- Node6&#45;&gt;Node3 -->
<g id="edge7_Node000006_Node000003" class="edge">
<title>Node6&#45;&gt;Node3</title>
<g id="a_edge7_Node000006_Node000003"><a xlink:title=" ">
<path fill="none" stroke="#63b8ff" d="M655.38,-53.56C604.38,-42.51 537.62,-28.05 495.93,-19.02"/>
<polygon fill="#63b8ff" stroke="#63b8ff" points="654.85,-57.03 665.36,-55.73 656.33,-50.19 654.85,-57.03"/>
</a>
</g>
</g>
<!-- Node7&#45;&gt;Node2 -->
<g id="edge15_Node000007_Node000002" class="edge">
<title>Node7&#45;&gt;Node2</title>
<g id="a_edge15_Node000007_Node000002"><a xlink:title=" ">
<path fill="none" stroke="#63b8ff" d="M302.53,-118.82C250.57,-107.52 169.63,-89.92 121.79,-79.52"/>
<polygon fill="#63b8ff" stroke="#63b8ff" points="302,-122.29 312.51,-120.99 303.49,-115.45 302,-122.29"/>
</a>
</g>
</g>
<!-- Node7&#45;&gt;Node3 -->
<g id="edge16_Node000007_Node000003" class="edge">
<title>Node7&#45;&gt;Node3</title>
<g id="a_edge16_Node000007_Node000003"><a xlink:title=" ">
<path fill="none" stroke="#63b8ff" d="M352.26,-110.24C353.72,-93.95 358.07,-70.81 370.63,-55 384.75,-37.23 407.89,-25.83 426.62,-19.02"/>
<polygon fill="#63b8ff" stroke="#63b8ff" points="348.74,-110.49 351.63,-120.68 355.72,-110.91 348.74,-110.49"/>
</a>
</g>
</g>
<!-- Node8 -->
<g id="Node000008" class="node">
<title>Node8</title>
<g id="a_Node000008"><a xlink:href="parsec_2devicefunc_8h.html" target="_top" xlink:title=" ">
<polygon fill="white" stroke="#666666" points="533.13,-79.5 380.13,-79.5 380.13,-60.5 533.13,-60.5 533.13,-79.5"/>
<text text-anchor="middle" x="456.63" y="-67.5" font-family="Times,serif" font-size="10.00">ttg/ttg/parsec/devicefunc.h</text>
</a>
</g>
</g>
<!-- Node7&#45;&gt;Node8 -->
<g id="edge11_Node000007_Node000008" class="edge">
<title>Node7&#45;&gt;Node8</title>
<g id="a_edge11_Node000007_Node000008"><a xlink:title=" ">
<path fill="none" stroke="#63b8ff" d="M376,-115.92C396.06,-104.74 423.91,-89.23 441.07,-79.67"/>
<polygon fill="#63b8ff" stroke="#63b8ff" points="374.15,-112.94 367.12,-120.87 377.56,-119.06 374.15,-112.94"/>
</a>
</g>
</g>
<!-- Node9 -->
<g id="Node000009" class="node">
<title>Node9</title>
<g id="a_Node000009"><a xlink:href="parsec_2devicescratch_8h.html" target="_top" xlink:title=" ">
<polygon fill="white" stroke="#666666" points="324.13,-79.5 157.13,-79.5 157.13,-60.5 324.13,-60.5 324.13,-79.5"/>
<text text-anchor="middle" x="240.63" y="-67.5" font-family="Times,serif" font-size="10.00">ttg/ttg/parsec/devicescratch.h</text>
</a>
</g>
</g>
<!-- Node7&#45;&gt;Node9 -->
<g id="edge13_Node000007_Node000009" class="edge">
<title>Node7&#45;&gt;Node9</title>
<g id="a_edge13_Node000007_Node000009"><a xlink:title=" ">
<path fill="none" stroke="#63b8ff" d="M326.16,-116.08C304.92,-104.88 275.3,-89.27 257.07,-79.67"/>
<polygon fill="#63b8ff" stroke="#63b8ff" points="324.77,-119.3 335.25,-120.87 328.04,-113.11 324.77,-119.3"/>
</a>
</g>
</g>
<!-- Node8&#45;&gt;Node3 -->
<g id="edge12_Node000008_Node000003" class="edge">
<title>Node8&#45;&gt;Node3</title>
<g id="a_edge12_Node000008_Node000003"><a xlink:title=" ">
<path fill="none" stroke="#63b8ff" d="M456.63,-50.16C456.63,-39.74 456.63,-27.3 456.63,-19.17"/>
<polygon fill="#63b8ff" stroke="#63b8ff" points="453.13,-50.37 456.63,-60.37 460.13,-50.37 453.13,-50.37"/>
</a>
</g>
</g>
<!-- Node9&#45;&gt;Node3 -->
<g id="edge14_Node000009_Node000003" class="edge">
<title>Node9&#45;&gt;Node3</title>
<g id="a_edge14_Node000009_Node000003"><a xlink:title=" ">
<path fill="none" stroke="#63b8ff" d="M281.9,-57.82C323.66,-46.51 387.33,-29.27 425.18,-19.02"/>
<polygon fill="#63b8ff" stroke="#63b8ff" points="280.77,-54.5 272.04,-60.49 282.6,-61.26 280.77,-54.5"/>
</a>
</g>
</g>
<!-- Node10&#45;&gt;Node3 -->
<g id="edge19_Node000010_Node000003" class="edge">
<title>Node10&#45;&gt;Node3</title>
<g id="a_edge19_Node000010_Node000003"><a xlink:title=" ">
<path fill="none" stroke="#63b8ff" d="M520.2,-114.15C528.49,-106.41 537.23,-96.27 541.63,-85 546.48,-72.58 548.53,-66.41 541.63,-55 530.59,-36.76 509.34,-25.63 490.85,-19.07"/>
<polygon fill="#63b8ff" stroke="#63b8ff" points="517.81,-111.6 512.56,-120.8 522.4,-116.88 517.81,-111.6"/>
</a>
</g>
</g>
</g>
</svg>

<g id="navigator" transform="translate(0 0)" fill="#404254">
  <rect fill="#f2f5e9" fill-opacity="0.5" stroke="#606060" stroke-width=".5" x="0" y="0" width="60" height="60"/>
  <use id="zoomplus" xlink:href="#zoomPlus" x="17" y="9" onmousedown="handleZoom(evt,'in')"/>
  <use id="zoomminus" xlink:href="#zoomMin" x="42" y="9" onmousedown="handleZoom(evt,'out')"/>
  <use id="reset" xlink:href="#resetDef" x="30" y="36" onmousedown="handleReset()"/>
   <use id="arrowup" xlink:href="#arrowUp" x="0" y="0" onmousedown="handlePan(0,-1)"/>
  <use id="arrowright" xlink:href="#arrowRight" x="0" y="0" onmousedown="handlePan(1,0)"/>
  <use id="arrowdown" xlink:href="#arrowDown" x="0" y="0" onmousedown="handlePan(0,1)"/>
  <use id="arrowleft" xlink:href="#arrowLeft" x="0" y="0" onmousedown="handlePan(-1,0)"/>
</g>
<svg viewBox="0 0 15 15" width="100%" height="30px" preserveAspectRatio="xMaxYMin meet">
 <g id="arrow_out" transform="scale(0.3 0.3)">
  <a xlink:href="thread__local_8h__dep__incl_org.svg" target="_base">
   <rect id="button" ry="5" rx="5" y="6" x="6" height="38" width="38"
        fill="#f2f5e9" fill-opacity="0.5" stroke="#606060" stroke-width="1.0"/>
   <path id="arrow"
     d="M 11.500037,31.436501 C 11.940474,20.09759 22.043105,11.32322 32.158766,21.979434 L 37.068811,17.246167 C 37.068811,17.246167 37.088388,32 37.088388,32 L 22.160133,31.978069 C 22.160133,31.978069 26.997745,27.140456 26.997745,27.140456 C 18.528582,18.264221 13.291696,25.230495 11.500037,31.436501 z"
     style="fill:#404040;"/>
  </a>
 </g>
</svg>

<style type='text/css'>
<![CDATA[
[data-mouse-over-selected='false'] { opacity: 0.7; }
[data-mouse-over-selected='true']  { opacity: 1.0; }
]]>
</style>
<script type="application/ecmascript"><![CDATA[
document.addEventListener('DOMContentLoaded', (event) => {
  highlightEdges();
  highlightAdjacentNodes();
});
]]></script>
</svg>
