<?xml version="1.0" encoding="UTF-8" standalone="no"?>
<!DOCTYPE svg PUBLIC "-//W3C//DTD SVG 1.1//EN"
 "http://www.w3.org/Graphics/SVG/1.1/DTD/svg11.dtd">
<!-- Generated by graphviz version 2.43.0 (0)
 -->
<!-- Title: ttg/ttg/util/trace.h Pages: 1 -->
<svg width="1332pt" height="709pt"
 viewBox="0.00 0.00 1332.00 709.00" xmlns="http://www.w3.org/2000/svg" xmlns:xlink="http://www.w3.org/1999/xlink">
<g id="graph0" class="graph" transform="scale(1 1) rotate(0) translate(4 705)">
<title>ttg/ttg/util/trace.h</title>
<!-- Node1 -->
<g id="Node000001" class="node">
<title>Node1</title>
<g id="a_Node000001"><a xlink:title=" ">
<polygon fill="#999999" stroke="#666666" points="548,-701 442,-701 442,-682 548,-682 548,-701"/>
<text text-anchor="middle" x="495" y="-689" font-family="Times,serif" font-size="10.00">ttg/ttg/util/trace.h</text>
</a>
</g>
</g>
<!-- Node2 -->
<g id="Node000002" class="node">
<title>Node2</title>
<g id="a_Node000002"><a xlink:href="ttg_8h.html" target="_top" xlink:title=" ">
<polygon fill="white" stroke="#666666" points="694,-96 636,-96 636,-77 694,-77 694,-96"/>
<text text-anchor="middle" x="665" y="-84" font-family="Times,serif" font-size="10.00">ttg/ttg.h</text>
</a>
</g>
</g>
<!-- Node1&#45;&gt;Node2 -->
<g id="edge1_Node000001_Node000002" class="edge">
<title>Node1&#45;&gt;Node2</title>
<g id="a_edge1_Node000001_Node000002"><a xlink:title=" ">
<path fill="none" stroke="#63b8ff" d="M431.75,-683.5C333.4,-670.82 155,-639.92 155,-582.5 155,-582.5 155,-582.5 155,-525.5 155,-341.17 121.66,-215.48 286,-132 347.28,-100.87 558.22,-90.97 635.94,-88.33"/>
<polygon fill="#63b8ff" stroke="#63b8ff" points="431.52,-686.99 441.88,-684.77 432.39,-680.05 431.52,-686.99"/>
</a>
</g>
</g>
<!-- Node11 -->
<g id="Node000011" class="node">
<title>Node11</title>
<g id="a_Node000011"><a xlink:href="ttg_2parsec_2ttg_8h.html" target="_top" xlink:title=" ">
<polygon fill="white" stroke="#666666" points="112,-30 0,-30 0,-11 112,-11 112,-30"/>
<text text-anchor="middle" x="56" y="-18" font-family="Times,serif" font-size="10.00">ttg/ttg/parsec/ttg.h</text>
</a>
</g>
</g>
<!-- Node1&#45;&gt;Node11 -->
<g id="edge49_Node000001_Node000011" class="edge">
<title>Node1&#45;&gt;Node11</title>
<g id="a_edge49_Node000001_Node000011"><a xlink:title=" ">
<path fill="none" stroke="#63b8ff" d="M431.47,-689.29C301.63,-685.08 18,-666.31 18,-582.5 18,-582.5 18,-582.5 18,-140.5 18,-97.34 40.96,-49.37 51.19,-30.15"/>
<polygon fill="#63b8ff" stroke="#63b8ff" points="431.57,-692.79 441.67,-689.6 431.78,-685.8 431.57,-692.79"/>
</a>
</g>
</g>
<!-- Node12 -->
<g id="Node000012" class="node">
<title>Node12</title>
<g id="a_Node000012"><a xlink:href="base_2tt_8h.html" target="_top" xlink:title=" ">
<polygon fill="white" stroke="#666666" points="618.5,-646 523.5,-646 523.5,-627 618.5,-627 618.5,-646"/>
<text text-anchor="middle" x="571" y="-634" font-family="Times,serif" font-size="10.00">ttg/ttg/base/tt.h</text>
</a>
</g>
</g>
<!-- Node1&#45;&gt;Node12 -->
<g id="edge11_Node000001_Node000012" class="edge">
<title>Node1&#45;&gt;Node12</title>
<g id="a_edge11_Node000001_Node000012"><a xlink:title=" ">
<path fill="none" stroke="#63b8ff" d="M515.58,-676.15C529.31,-666.57 546.93,-654.29 558.57,-646.17"/>
<polygon fill="#63b8ff" stroke="#63b8ff" points="513.41,-673.39 507.21,-681.98 517.42,-679.14 513.41,-673.39"/>
</a>
</g>
</g>
<!-- Node17 -->
<g id="Node000017" class="node">
<title>Node17</title>
<g id="a_Node000017"><a xlink:href="terminal_8h.html" target="_top" xlink:title=" ">
<polygon fill="white" stroke="#666666" points="500,-426 396,-426 396,-407 500,-407 500,-426"/>
<text text-anchor="middle" x="448" y="-414" font-family="Times,serif" font-size="10.00">ttg/ttg/terminal.h</text>
</a>
</g>
</g>
<!-- Node1&#45;&gt;Node17 -->
<g id="edge50_Node000001_Node000017" class="edge">
<title>Node1&#45;&gt;Node17</title>
<g id="a_edge50_Node000001_Node000017"><a xlink:title=" ">
<path fill="none" stroke="#63b8ff" d="M495,-671.77C495,-650.23 495,-613.81 495,-582.5 495,-582.5 495,-582.5 495,-525.5 495,-485.63 467.73,-443.83 454.73,-426.18"/>
<polygon fill="#63b8ff" stroke="#63b8ff" points="491.5,-671.82 495,-681.82 498.5,-671.82 491.5,-671.82"/>
</a>
</g>
</g>
<!-- Node18 -->
<g id="Node000018" class="node">
<title>Node18</title>
<g id="a_Node000018"><a xlink:href="edge_8h.html" target="_top" xlink:title=" ">
<polygon fill="white" stroke="#666666" points="559,-371 473,-371 473,-352 559,-352 559,-371"/>
<text text-anchor="middle" x="516" y="-359" font-family="Times,serif" font-size="10.00">ttg/ttg/edge.h</text>
</a>
</g>
</g>
<!-- Node1&#45;&gt;Node18 -->
<g id="edge48_Node000001_Node000018" class="edge">
<title>Node1&#45;&gt;Node18</title>
<g id="a_edge48_Node000001_Node000018"><a xlink:title=" ">
<path fill="none" stroke="#63b8ff" d="M558.4,-689.26C687.97,-685.01 971,-666.14 971,-582.5 971,-582.5 971,-582.5 971,-470.5 971,-386.37 672.79,-367.67 559.22,-363.61"/>
<polygon fill="#63b8ff" stroke="#63b8ff" points="558.1,-685.77 548.22,-689.58 558.32,-692.77 558.1,-685.77"/>
</a>
</g>
</g>
<!-- Node3 -->
<g id="Node000003" class="node">
<title>Node3</title>
<g id="a_Node000003"><a xlink:href="fibonacci_8cc.html" target="_top" xlink:title=" ">
<polygon fill="white" stroke="#666666" points="1182,-35.5 1054,-35.5 1054,-5.5 1182,-5.5 1182,-35.5"/>
<text text-anchor="start" x="1062" y="-23.5" font-family="Times,serif" font-size="10.00">doc/dox/dev/devsamp</text>
<text text-anchor="middle" x="1118" y="-12.5" font-family="Times,serif" font-size="10.00">/fibonacci/fibonacci.cc</text>
</a>
</g>
</g>
<!-- Node2&#45;&gt;Node3 -->
<g id="edge2_Node000002_Node000003" class="edge">
<title>Node2&#45;&gt;Node3</title>
<g id="a_edge2_Node000002_Node000003"><a xlink:title=" ">
<path fill="none" stroke="#63b8ff" d="M704.09,-80C711.69,-78.97 719.59,-77.93 727,-77 868.14,-59.34 905.24,-67.43 1045,-41 1052.99,-39.49 1061.39,-37.57 1069.54,-35.52"/>
<polygon fill="#63b8ff" stroke="#63b8ff" points="703.43,-76.56 694,-81.38 704.38,-83.49 703.43,-76.56"/>
</a>
</g>
</g>
<!-- Node4 -->
<g id="Node000004" class="node">
<title>Node4</title>
<g id="a_Node000004"><a xlink:href="fibonacci__device_8cc.html" target="_top" xlink:title=" ">
<polygon fill="white" stroke="#666666" points="258,-41 130,-41 130,0 258,0 258,-41"/>
<text text-anchor="start" x="138" y="-29" font-family="Times,serif" font-size="10.00">doc/dox/dev/devsamp</text>
<text text-anchor="start" x="138" y="-18" font-family="Times,serif" font-size="10.00">/fibonacci/fibonacci</text>
<text text-anchor="middle" x="194" y="-7" font-family="Times,serif" font-size="10.00">_device.cc</text>
</a>
</g>
</g>
<!-- Node2&#45;&gt;Node4 -->
<g id="edge3_Node000002_Node000004" class="edge">
<title>Node2&#45;&gt;Node4</title>
<g id="a_edge3_Node000002_Node000004"><a xlink:title=" ">
<path fill="none" stroke="#63b8ff" d="M625.86,-77.6C624.56,-77.39 623.27,-77.19 622,-77 465.15,-53.6 423,-69.55 267,-41 264.16,-40.48 261.27,-39.91 258.36,-39.29"/>
<polygon fill="#63b8ff" stroke="#63b8ff" points="625.47,-81.09 635.92,-79.37 626.68,-74.19 625.47,-81.09"/>
</a>
</g>
</g>
<!-- Node5 -->
<g id="Node000005" class="node">
<title>Node5</title>
<g id="a_Node000005"><a xlink:href="helloworld_8cpp.html" target="_top" xlink:title=" ">
<polygon fill="white" stroke="#666666" points="427.5,-35.5 276.5,-35.5 276.5,-5.5 427.5,-5.5 427.5,-35.5"/>
<text text-anchor="start" x="284.5" y="-23.5" font-family="Times,serif" font-size="10.00">doc/dox/dev/devsamp</text>
<text text-anchor="middle" x="352" y="-12.5" font-family="Times,serif" font-size="10.00">/helloworld/helloworld.cpp</text>
</a>
</g>
</g>
<!-- Node2&#45;&gt;Node5 -->
<g id="edge4_Node000002_Node000005" class="edge">
<title>Node2&#45;&gt;Node5</title>
<g id="a_edge4_Node000002_Node000005"><a xlink:title=" ">
<path fill="none" stroke="#63b8ff" d="M625.83,-77.75C624.54,-77.5 623.26,-77.25 622,-77 539.8,-60.88 518.94,-58.37 437,-41 429,-39.3 420.6,-37.46 412.31,-35.6"/>
<polygon fill="#63b8ff" stroke="#63b8ff" points="625.37,-81.23 635.86,-79.73 626.72,-74.36 625.37,-81.23"/>
</a>
</g>
</g>
<!-- Node6 -->
<g id="Node000006" class="node">
<title>Node6</title>
<g id="a_Node000006"><a xlink:href="distributed_8cc.html" target="_top" xlink:title=" ">
<polygon fill="white" stroke="#666666" points="580,-35.5 446,-35.5 446,-5.5 580,-5.5 580,-35.5"/>
<text text-anchor="start" x="454" y="-23.5" font-family="Times,serif" font-size="10.00">doc/dox/user/examples</text>
<text text-anchor="middle" x="513" y="-12.5" font-family="Times,serif" font-size="10.00">/distributed.cc</text>
</a>
</g>
</g>
<!-- Node2&#45;&gt;Node6 -->
<g id="edge5_Node000002_Node000006" class="edge">
<title>Node2&#45;&gt;Node6</title>
<g id="a_edge5_Node000002_Node000006"><a xlink:title=" ">
<path fill="none" stroke="#63b8ff" d="M634.99,-72.86C609.5,-62.13 572.96,-46.75 546.52,-35.62"/>
<polygon fill="#63b8ff" stroke="#63b8ff" points="633.93,-76.21 644.5,-76.87 636.64,-69.76 633.93,-76.21"/>
</a>
</g>
</g>
<!-- Node7 -->
<g id="Node000007" class="node">
<title>Node7</title>
<g id="a_Node000007"><a xlink:href="iterative_8cc.html" target="_top" xlink:title=" ">
<polygon fill="white" stroke="#666666" points="732,-35.5 598,-35.5 598,-5.5 732,-5.5 732,-35.5"/>
<text text-anchor="start" x="606" y="-23.5" font-family="Times,serif" font-size="10.00">doc/dox/user/examples</text>
<text text-anchor="middle" x="665" y="-12.5" font-family="Times,serif" font-size="10.00">/iterative.cc</text>
</a>
</g>
</g>
<!-- Node2&#45;&gt;Node7 -->
<g id="edge6_Node000002_Node000007" class="edge">
<title>Node2&#45;&gt;Node7</title>
<g id="a_edge6_Node000002_Node000007"><a xlink:title=" ">
<path fill="none" stroke="#63b8ff" d="M665,-66.85C665,-56.97 665,-45.01 665,-35.86"/>
<polygon fill="#63b8ff" stroke="#63b8ff" points="661.5,-66.87 665,-76.87 668.5,-66.87 661.5,-66.87"/>
</a>
</g>
</g>
<!-- Node8 -->
<g id="Node000008" class="node">
<title>Node8</title>
<g id="a_Node000008"><a xlink:href="reducing_8cc.html" target="_top" xlink:title=" ">
<polygon fill="white" stroke="#666666" points="884,-35.5 750,-35.5 750,-5.5 884,-5.5 884,-35.5"/>
<text text-anchor="start" x="758" y="-23.5" font-family="Times,serif" font-size="10.00">doc/dox/user/examples</text>
<text text-anchor="middle" x="817" y="-12.5" font-family="Times,serif" font-size="10.00">/reducing.cc</text>
</a>
</g>
</g>
<!-- Node2&#45;&gt;Node8 -->
<g id="edge7_Node000002_Node000008" class="edge">
<title>Node2&#45;&gt;Node8</title>
<g id="a_edge7_Node000002_Node000008"><a xlink:title=" ">
<path fill="none" stroke="#63b8ff" d="M695.01,-72.86C720.5,-62.13 757.04,-46.75 783.48,-35.62"/>
<polygon fill="#63b8ff" stroke="#63b8ff" points="693.36,-69.76 685.5,-76.87 696.07,-76.21 693.36,-69.76"/>
</a>
</g>
</g>
<!-- Node9 -->
<g id="Node000009" class="node">
<title>Node9</title>
<g id="a_Node000009"><a xlink:href="simple_8cc.html" target="_top" xlink:title=" ">
<polygon fill="white" stroke="#666666" points="1036,-35.5 902,-35.5 902,-5.5 1036,-5.5 1036,-35.5"/>
<text text-anchor="start" x="910" y="-23.5" font-family="Times,serif" font-size="10.00">doc/dox/user/examples</text>
<text text-anchor="middle" x="969" y="-12.5" font-family="Times,serif" font-size="10.00">/simple.cc</text>
</a>
</g>
</g>
<!-- Node2&#45;&gt;Node9 -->
<g id="edge8_Node000002_Node000009" class="edge">
<title>Node2&#45;&gt;Node9</title>
<g id="a_edge8_Node000002_Node000009"><a xlink:title=" ">
<path fill="none" stroke="#63b8ff" d="M704.32,-78.55C749.87,-70.32 827.12,-55.87 893,-41 900.44,-39.32 908.26,-37.44 915.94,-35.53"/>
<polygon fill="#63b8ff" stroke="#63b8ff" points="703.49,-75.14 694.27,-80.35 704.73,-82.03 703.49,-75.14"/>
</a>
</g>
</g>
<!-- Node10 -->
<g id="Node000010" class="node">
<title>Node10</title>
<g id="a_Node000010"><a xlink:href="ttg_2madness_2ttg_8h.html" target="_top" xlink:title=" ">
<polygon fill="white" stroke="#666666" points="1324,-30 1200,-30 1200,-11 1324,-11 1324,-30"/>
<text text-anchor="middle" x="1262" y="-18" font-family="Times,serif" font-size="10.00">ttg/ttg/madness/ttg.h</text>
</a>
</g>
</g>
<!-- Node2&#45;&gt;Node10 -->
<g id="edge9_Node000002_Node000010" class="edge">
<title>Node2&#45;&gt;Node10</title>
<g id="a_edge9_Node000002_Node000010"><a xlink:title=" ">
<path fill="none" stroke="#63b8ff" d="M704.29,-79.76C711.82,-78.76 719.65,-77.79 727,-77 932.66,-54.94 987.24,-76.55 1191,-41 1205.99,-38.39 1222.38,-33.99 1235.64,-30.03"/>
<polygon fill="#63b8ff" stroke="#63b8ff" points="703.72,-76.3 694.29,-81.12 704.67,-83.24 703.72,-76.3"/>
</a>
</g>
</g>
<!-- Node2&#45;&gt;Node11 -->
<g id="edge10_Node000002_Node000011" class="edge">
<title>Node2&#45;&gt;Node11</title>
<g id="a_edge10_Node000002_Node000011"><a xlink:title=" ">
<path fill="none" stroke="#63b8ff" d="M625.87,-77.55C624.56,-77.36 623.27,-77.17 622,-77 400.74,-47.3 340.57,-81.32 121,-41 107.09,-38.45 91.94,-34 79.77,-30"/>
<polygon fill="#63b8ff" stroke="#63b8ff" points="625.49,-81.04 635.94,-79.25 626.66,-74.14 625.49,-81.04"/>
</a>
</g>
</g>
<!-- Node12&#45;&gt;Node10 -->
<g id="edge45_Node000012_Node000010" class="edge">
<title>Node12&#45;&gt;Node10</title>
<g id="a_edge45_Node000012_Node000010"><a xlink:title=" ">
<path fill="none" stroke="#63b8ff" d="M628.94,-634.73C685.62,-632 773.21,-622.44 842,-591 956.4,-538.71 1009,-488.29 1009,-362.5 1009,-362.5 1009,-362.5 1009,-140.5 1009,-115.38 1174.42,-53.08 1237.74,-30.15"/>
<polygon fill="#63b8ff" stroke="#63b8ff" points="628.57,-631.24 618.73,-635.16 628.87,-638.24 628.57,-631.24"/>
</a>
</g>
</g>
<!-- Node12&#45;&gt;Node11 -->
<g id="edge46_Node000012_Node000011" class="edge">
<title>Node12&#45;&gt;Node11</title>
<g id="a_edge46_Node000012_Node000011"><a xlink:title=" ">
<path fill="none" stroke="#63b8ff" d="M513.36,-635.45C378.94,-633.77 56,-620.1 56,-527.5 56,-527.5 56,-527.5 56,-140.5 56,-99.18 56,-49.79 56,-30.16"/>
<polygon fill="#63b8ff" stroke="#63b8ff" points="513.44,-638.95 523.47,-635.55 513.51,-631.95 513.44,-638.95"/>
</a>
</g>
</g>
<!-- Node13 -->
<g id="Node000013" class="node">
<title>Node13</title>
<g id="a_Node000013"><a xlink:href="base_2world_8h.html" target="_top" xlink:title=" ">
<polygon fill="white" stroke="#666666" points="346,-591 230,-591 230,-572 346,-572 346,-591"/>
<text text-anchor="middle" x="288" y="-579" font-family="Times,serif" font-size="10.00">ttg/ttg/base/world.h</text>
</a>
</g>
</g>
<!-- Node12&#45;&gt;Node13 -->
<g id="edge12_Node000012_Node000013" class="edge">
<title>Node12&#45;&gt;Node13</title>
<g id="a_edge12_Node000012_Node000013"><a xlink:title=" ">
<path fill="none" stroke="#63b8ff" d="M515.61,-625.13C462.56,-615.19 383.43,-600.37 333.83,-591.08"/>
<polygon fill="#63b8ff" stroke="#63b8ff" points="515.06,-628.58 525.53,-626.98 516.35,-621.7 515.06,-628.58"/>
</a>
</g>
</g>
<!-- Node20 -->
<g id="Node000020" class="node">
<title>Node20</title>
<g id="a_Node000020"><a xlink:href="tt_8h.html" target="_top" xlink:title=" ">
<polygon fill="white" stroke="#666666" points="723,-316 655,-316 655,-297 723,-297 723,-316"/>
<text text-anchor="middle" x="689" y="-304" font-family="Times,serif" font-size="10.00">ttg/ttg/tt.h</text>
</a>
</g>
</g>
<!-- Node12&#45;&gt;Node20 -->
<g id="edge47_Node000012_Node000020" class="edge">
<title>Node12&#45;&gt;Node20</title>
<g id="a_edge47_Node000012_Node000020"><a xlink:title=" ">
<path fill="none" stroke="#63b8ff" d="M628.94,-628.27C722.14,-615.01 895,-582.94 895,-527.5 895,-527.5 895,-527.5 895,-415.5 895,-338.78 781.53,-316.45 723.02,-310.04"/>
<polygon fill="#63b8ff" stroke="#63b8ff" points="628.23,-624.84 618.81,-629.68 629.19,-631.77 628.23,-624.84"/>
</a>
</g>
</g>
<!-- Node13&#45;&gt;Node2 -->
<g id="edge13_Node000013_Node000002" class="edge">
<title>Node13&#45;&gt;Node2</title>
<g id="a_edge13_Node000013_Node000002"><a xlink:title=" ">
<path fill="none" stroke="#63b8ff" d="M272.95,-564.24C256.06,-544.24 231,-508.49 231,-472.5 231,-472.5 231,-472.5 231,-250.5 231,-183.55 264.51,-162.7 324,-132 378.25,-104 563.43,-92.34 635.74,-88.78"/>
<polygon fill="#63b8ff" stroke="#63b8ff" points="270.36,-566.6 279.59,-571.8 275.62,-561.98 270.36,-566.6"/>
</a>
</g>
</g>
<!-- Node13&#45;&gt;Node11 -->
<g id="edge14_Node000013_Node000011" class="edge">
<title>Node13&#45;&gt;Node11</title>
<g id="a_edge14_Node000013_Node000011"><a xlink:title=" ">
<path fill="none" stroke="#63b8ff" d="M268.04,-565.53C258.54,-557.6 247.62,-547.19 240,-536 177.52,-444.27 75.53,-90.36 58.46,-30.21"/>
<polygon fill="#63b8ff" stroke="#63b8ff" points="265.91,-568.31 275.9,-571.82 270.28,-562.84 265.91,-568.31"/>
</a>
</g>
</g>
<!-- Node14 -->
<g id="Node000014" class="node">
<title>Node14</title>
<g id="a_Node000014"><a xlink:href="world_8h.html" target="_top" xlink:title=" ">
<polygon fill="white" stroke="#666666" points="399.5,-536 310.5,-536 310.5,-517 399.5,-517 399.5,-536"/>
<text text-anchor="middle" x="355" y="-524" font-family="Times,serif" font-size="10.00">ttg/ttg/world.h</text>
</a>
</g>
</g>
<!-- Node13&#45;&gt;Node14 -->
<g id="edge15_Node000013_Node000014" class="edge">
<title>Node13&#45;&gt;Node14</title>
<g id="a_edge15_Node000013_Node000014"><a xlink:title=" ">
<path fill="none" stroke="#63b8ff" d="M306.83,-565.6C318.84,-556.11 333.97,-544.13 344.04,-536.17"/>
<polygon fill="#63b8ff" stroke="#63b8ff" points="304.44,-563.04 298.76,-571.98 308.78,-568.53 304.44,-563.04"/>
</a>
</g>
</g>
<!-- Node14&#45;&gt;Node2 -->
<g id="edge16_Node000014_Node000002" class="edge">
<title>Node14&#45;&gt;Node2</title>
<g id="a_edge16_Node000014_Node000002"><a xlink:title=" ">
<path fill="none" stroke="#63b8ff" d="M332.39,-510.91C306.91,-492.49 269,-458.24 269,-417.5 269,-417.5 269,-417.5 269,-250.5 269,-183.82 302.46,-163.93 361,-132 408.18,-106.27 569.43,-93.47 635.95,-89.19"/>
<polygon fill="#63b8ff" stroke="#63b8ff" points="330.59,-513.92 340.8,-516.75 334.58,-508.17 330.59,-513.92"/>
</a>
</g>
</g>
<!-- Node14&#45;&gt;Node10 -->
<g id="edge19_Node000014_Node000010" class="edge">
<title>Node14&#45;&gt;Node10</title>
<g id="a_edge19_Node000014_Node000010"><a xlink:title=" ">
<path fill="none" stroke="#63b8ff" d="M409.78,-521.99C560.62,-509.07 971,-450.66 971,-197.5 971,-197.5 971,-197.5 971,-140.5 971,-110.33 971.84,-96.33 995,-77 1062.99,-20.25 1104.66,-60.75 1191,-41 1204.96,-37.81 1220.29,-33.68 1233.13,-30.04"/>
<polygon fill="#63b8ff" stroke="#63b8ff" points="409.48,-518.5 399.8,-522.81 410.05,-525.48 409.48,-518.5"/>
</a>
</g>
</g>
<!-- Node15 -->
<g id="Node000015" class="node">
<title>Node15</title>
<g id="a_Node000015"><a xlink:href="broadcast_8h.html" target="_top" xlink:title=" ">
<polygon fill="white" stroke="#666666" points="598.5,-151 487.5,-151 487.5,-132 598.5,-132 598.5,-151"/>
<text text-anchor="middle" x="543" y="-139" font-family="Times,serif" font-size="10.00">ttg/ttg/broadcast.h</text>
</a>
</g>
</g>
<!-- Node14&#45;&gt;Node15 -->
<g id="edge17_Node000014_Node000015" class="edge">
<title>Node14&#45;&gt;Node15</title>
<g id="a_edge17_Node000014_Node000015"><a xlink:title=" ">
<path fill="none" stroke="#63b8ff" d="M347.85,-507.18C345.13,-499.26 342.35,-489.81 341,-481 339.72,-472.65 339.88,-470.37 341,-462 350.42,-391.47 383,-378.66 383,-307.5 383,-307.5 383,-307.5 383,-250.5 383,-192.69 455.65,-163.75 503.04,-151.02"/>
<polygon fill="#63b8ff" stroke="#63b8ff" points="344.66,-508.65 351.4,-516.82 351.23,-506.23 344.66,-508.65"/>
</a>
</g>
</g>
<!-- Node16 -->
<g id="Node000016" class="node">
<title>Node16</title>
<g id="a_Node000016"><a xlink:href="run_8h.html" target="_top" xlink:title=" ">
<polygon fill="white" stroke="#666666" points="428.5,-481 349.5,-481 349.5,-462 428.5,-462 428.5,-481"/>
<text text-anchor="middle" x="389" y="-469" font-family="Times,serif" font-size="10.00">ttg/ttg/run.h</text>
</a>
</g>
</g>
<!-- Node14&#45;&gt;Node16 -->
<g id="edge20_Node000014_Node000016" class="edge">
<title>Node14&#45;&gt;Node16</title>
<g id="a_edge20_Node000014_Node000016"><a xlink:title=" ">
<path fill="none" stroke="#63b8ff" d="M366.16,-508.1C371.97,-499.04 378.82,-488.37 383.49,-481.09"/>
<polygon fill="#63b8ff" stroke="#63b8ff" points="363.07,-506.44 360.61,-516.75 368.96,-510.22 363.07,-506.44"/>
</a>
</g>
</g>
<!-- Node14&#45;&gt;Node17 -->
<g id="edge44_Node000014_Node000017" class="edge">
<title>Node14&#45;&gt;Node17</title>
<g id="a_edge44_Node000014_Node000017"><a xlink:title=" ">
<path fill="none" stroke="#63b8ff" d="M394.62,-513.08C410.5,-506.12 427.5,-495.79 438,-481 449.76,-464.44 449.85,-439.33 448.92,-426.2"/>
<polygon fill="#63b8ff" stroke="#63b8ff" points="392.91,-510 384.94,-516.98 395.53,-516.49 392.91,-510"/>
</a>
</g>
</g>
<!-- Node15&#45;&gt;Node2 -->
<g id="edge18_Node000015_Node000002" class="edge">
<title>Node15&#45;&gt;Node2</title>
<g id="a_edge18_Node000015_Node000002"><a xlink:title=" ">
<path fill="none" stroke="#63b8ff" d="M572.01,-127.9C594.54,-118.11 625.2,-104.79 645.04,-96.17"/>
<polygon fill="#63b8ff" stroke="#63b8ff" points="570.38,-124.79 562.6,-131.98 573.17,-131.21 570.38,-124.79"/>
</a>
</g>
</g>
<!-- Node16&#45;&gt;Node2 -->
<g id="edge21_Node000016_Node000002" class="edge">
<title>Node16&#45;&gt;Node2</title>
<g id="a_edge21_Node000016_Node000002"><a xlink:title=" ">
<path fill="none" stroke="#63b8ff" d="M367.5,-455.71C343.21,-437.06 307,-402.55 307,-362.5 307,-362.5 307,-362.5 307,-250.5 307,-106.4 550.2,-89.11 635.7,-87.48"/>
<polygon fill="#63b8ff" stroke="#63b8ff" points="365.7,-458.73 375.83,-461.84 369.85,-453.09 365.7,-458.73"/>
</a>
</g>
</g>
<!-- Node16&#45;&gt;Node17 -->
<g id="edge22_Node000016_Node000017" class="edge">
<title>Node16&#45;&gt;Node17</title>
<g id="a_edge22_Node000016_Node000017"><a xlink:title=" ">
<path fill="none" stroke="#63b8ff" d="M406.2,-455.04C416.67,-445.64 429.65,-433.98 438.35,-426.17"/>
<polygon fill="#63b8ff" stroke="#63b8ff" points="403.58,-452.7 398.48,-461.98 408.26,-457.91 403.58,-452.7"/>
</a>
</g>
</g>
<!-- Node17&#45;&gt;Node11 -->
<g id="edge43_Node000017_Node000011" class="edge">
<title>Node17&#45;&gt;Node11</title>
<g id="a_edge43_Node000017_Node000011"><a xlink:title=" ">
<path fill="none" stroke="#63b8ff" d="M432.01,-399.43C365.89,-332.97 114.98,-80.79 64.78,-30.32"/>
<polygon fill="#63b8ff" stroke="#63b8ff" points="429.91,-402.28 439.45,-406.9 434.88,-397.35 429.91,-402.28"/>
</a>
</g>
</g>
<!-- Node17&#45;&gt;Node18 -->
<g id="edge23_Node000017_Node000018" class="edge">
<title>Node17&#45;&gt;Node18</title>
<g id="a_edge23_Node000017_Node000018"><a xlink:title=" ">
<path fill="none" stroke="#63b8ff" d="M467.12,-400.6C479.3,-391.11 494.66,-379.13 504.88,-371.17"/>
<polygon fill="#63b8ff" stroke="#63b8ff" points="464.66,-398.08 458.93,-406.98 468.96,-403.6 464.66,-398.08"/>
</a>
</g>
</g>
<!-- Node19 -->
<g id="Node000019" class="node">
<title>Node19</title>
<g id="a_Node000019"><a xlink:href="func_8h.html" target="_top" xlink:title=" ">
<polygon fill="white" stroke="#666666" points="682.5,-206 599.5,-206 599.5,-187 682.5,-187 682.5,-206"/>
<text text-anchor="middle" x="641" y="-194" font-family="Times,serif" font-size="10.00">ttg/ttg/func.h</text>
</a>
</g>
</g>
<!-- Node17&#45;&gt;Node19 -->
<g id="edge42_Node000017_Node000019" class="edge">
<title>Node17&#45;&gt;Node19</title>
<g id="a_edge42_Node000017_Node000019"><a xlink:title=" ">
<path fill="none" stroke="#63b8ff" d="M449.79,-396.34C451.72,-383.09 455.73,-365.49 464,-352 506.85,-282.1 591.53,-226.72 625.93,-206.15"/>
<polygon fill="#63b8ff" stroke="#63b8ff" points="446.27,-396.3 448.57,-406.65 453.22,-397.13 446.27,-396.3"/>
</a>
</g>
</g>
<!-- Node18&#45;&gt;Node2 -->
<g id="edge24_Node000018_Node000002" class="edge">
<title>Node18&#45;&gt;Node2</title>
<g id="a_edge24_Node000018_Node000002"><a xlink:title=" ">
<path fill="none" stroke="#63b8ff" d="M505.31,-343.25C481.21,-301.93 428.53,-195.97 479,-132 498.23,-107.63 588.61,-95.12 635.94,-90.14"/>
<polygon fill="#63b8ff" stroke="#63b8ff" points="502.34,-345.11 510.49,-351.89 508.35,-341.51 502.34,-345.11"/>
</a>
</g>
</g>
<!-- Node18&#45;&gt;Node11 -->
<g id="edge30_Node000018_Node000011" class="edge">
<title>Node18&#45;&gt;Node11</title>
<g id="a_edge30_Node000018_Node000011"><a xlink:title=" ">
<path fill="none" stroke="#63b8ff" d="M497.87,-345.56C445,-302.19 285.83,-173.32 146,-77 120.3,-59.3 89.04,-40.63 70.95,-30.09"/>
<polygon fill="#63b8ff" stroke="#63b8ff" points="495.75,-348.34 505.69,-351.98 500.19,-342.93 495.75,-348.34"/>
</a>
</g>
</g>
<!-- Node18&#45;&gt;Node19 -->
<g id="edge25_Node000018_Node000019" class="edge">
<title>Node18&#45;&gt;Node19</title>
<g id="a_edge25_Node000018_Node000019"><a xlink:title=" ">
<path fill="none" stroke="#63b8ff" d="M528.95,-343.62C555.28,-309.28 614.28,-232.34 634.25,-206.31"/>
<polygon fill="#63b8ff" stroke="#63b8ff" points="526.03,-341.67 522.72,-351.74 531.58,-345.93 526.03,-341.67"/>
</a>
</g>
</g>
<!-- Node18&#45;&gt;Node20 -->
<g id="edge31_Node000018_Node000020" class="edge">
<title>Node18&#45;&gt;Node20</title>
<g id="a_edge31_Node000018_Node000020"><a xlink:title=" ">
<path fill="none" stroke="#63b8ff" d="M553.77,-348.93C586.09,-339.03 631.86,-325.01 660.99,-316.08"/>
<polygon fill="#63b8ff" stroke="#63b8ff" points="552.33,-345.71 543.8,-351.98 554.38,-352.4 552.33,-345.71"/>
</a>
</g>
</g>
<!-- Node19&#45;&gt;Node2 -->
<g id="edge26_Node000019_Node000002" class="edge">
<title>Node19&#45;&gt;Node2</title>
<g id="a_edge26_Node000019_Node000002"><a xlink:title=" ">
<path fill="none" stroke="#63b8ff" d="M645.15,-176.8C650.4,-153.2 659.21,-113.58 663.08,-96.16"/>
<polygon fill="#63b8ff" stroke="#63b8ff" points="641.72,-176.14 642.96,-186.66 648.55,-177.66 641.72,-176.14"/>
</a>
</g>
</g>
<!-- Node19&#45;&gt;Node10 -->
<g id="edge28_Node000019_Node000010" class="edge">
<title>Node19&#45;&gt;Node10</title>
<g id="a_edge28_Node000019_Node000010"><a xlink:title=" ">
<path fill="none" stroke="#63b8ff" d="M664.08,-181.93C687.87,-168.28 726.28,-147.13 761,-132 829.17,-102.3 846.66,-94.19 919,-77 1037.64,-48.81 1071.48,-65.2 1191,-41 1205.41,-38.08 1221.2,-33.85 1234.22,-30.07"/>
<polygon fill="#63b8ff" stroke="#63b8ff" points="662.33,-178.91 655.43,-186.94 665.83,-184.97 662.33,-178.91"/>
</a>
</g>
</g>
<!-- Node19&#45;&gt;Node11 -->
<g id="edge29_Node000019_Node000011" class="edge">
<title>Node19&#45;&gt;Node11</title>
<g id="a_edge29_Node000019_Node000011"><a xlink:title=" ">
<path fill="none" stroke="#63b8ff" d="M635.71,-177.06C630.73,-162.86 621.94,-143.73 608,-132 439.54,9.8 336.68,-85.35 121,-41 107.5,-38.22 92.76,-33.91 80.74,-30.05"/>
<polygon fill="#63b8ff" stroke="#63b8ff" points="632.42,-178.28 638.79,-186.75 639.1,-176.16 632.42,-178.28"/>
</a>
</g>
</g>
<!-- Node19&#45;&gt;Node15 -->
<g id="edge27_Node000019_Node000015" class="edge">
<title>Node19&#45;&gt;Node15</title>
<g id="a_edge27_Node000019_Node000015"><a xlink:title=" ">
<path fill="none" stroke="#63b8ff" d="M615.97,-181.97C598.06,-172.28 574.47,-159.52 559.03,-151.17"/>
<polygon fill="#63b8ff" stroke="#63b8ff" points="614.79,-185.31 625.25,-186.98 618.12,-179.15 614.79,-185.31"/>
</a>
</g>
</g>
<!-- Node20&#45;&gt;Node2 -->
<g id="edge32_Node000020_Node000002" class="edge">
<title>Node20&#45;&gt;Node2</title>
<g id="a_edge32_Node000020_Node000002"><a xlink:title=" ">
<path fill="none" stroke="#63b8ff" d="M722.18,-293.21C789.49,-266.5 931.17,-200.02 876,-132 853.42,-104.16 746.55,-93.07 694.13,-89.25"/>
<polygon fill="#63b8ff" stroke="#63b8ff" points="720.87,-289.97 712.83,-296.86 723.41,-296.49 720.87,-289.97"/>
</a>
</g>
</g>
<!-- Node20&#45;&gt;Node10 -->
<g id="edge35_Node000020_Node000010" class="edge">
<title>Node20&#45;&gt;Node10</title>
<g id="a_edge35_Node000020_Node000010"><a xlink:title=" ">
<path fill="none" stroke="#63b8ff" d="M733.54,-305.03C803.93,-301.67 933,-283.75 933,-197.5 933,-197.5 933,-197.5 933,-140.5 933,-17.6 1070.81,-66.66 1191,-41 1205.25,-37.96 1220.89,-33.76 1233.85,-30.03"/>
<polygon fill="#63b8ff" stroke="#63b8ff" points="733.04,-301.55 723.18,-305.44 733.31,-308.54 733.04,-301.55"/>
</a>
</g>
</g>
<!-- Node20&#45;&gt;Node11 -->
<g id="edge36_Node000020_Node000011" class="edge">
<title>Node20&#45;&gt;Node11</title>
<g id="a_edge36_Node000020_Node000011"><a xlink:title=" ">
<path fill="none" stroke="#63b8ff" d="M660.81,-292.56C584.32,-257.47 366.3,-157.76 184,-77 145.91,-60.13 101.22,-40.87 76,-30.05"/>
<polygon fill="#63b8ff" stroke="#63b8ff" points="659.7,-295.9 670.25,-296.89 662.62,-289.53 659.7,-295.9"/>
</a>
</g>
</g>
<!-- Node20&#45;&gt;Node15 -->
<g id="edge33_Node000020_Node000015" class="edge">
<title>Node20&#45;&gt;Node15</title>
<g id="a_edge33_Node000020_Node000015"><a xlink:title=" ">
<path fill="none" stroke="#63b8ff" d="M672.24,-289.79C652.17,-270.69 617.89,-237.12 591,-206 574.92,-187.39 557.99,-163.96 549.17,-151.41"/>
<polygon fill="#63b8ff" stroke="#63b8ff" points="670,-292.49 679.67,-296.82 674.81,-287.41 670,-292.49"/>
</a>
</g>
</g>
<!-- Node20&#45;&gt;Node19 -->
<g id="edge34_Node000020_Node000019" class="edge">
<title>Node20&#45;&gt;Node19</title>
<g id="a_edge34_Node000020_Node000019"><a xlink:title=" ">
<path fill="none" stroke="#63b8ff" d="M680.98,-287.74C677.32,-279.59 672.92,-269.81 669,-261 660.28,-241.41 650.15,-218.36 644.78,-206.14"/>
<polygon fill="#63b8ff" stroke="#63b8ff" points="677.85,-289.3 685.15,-296.98 684.23,-286.42 677.85,-289.3"/>
</a>
</g>
</g>
<!-- Node21 -->
<g id="Node000021" class="node">
<title>Node21</title>
<g id="a_Node000021"><a xlink:href="traverse_8h.html" target="_top" xlink:title=" ">
<polygon fill="white" stroke="#666666" points="780.5,-261 677.5,-261 677.5,-242 780.5,-242 780.5,-261"/>
<text text-anchor="middle" x="729" y="-249" font-family="Times,serif" font-size="10.00">ttg/ttg/traverse.h</text>
</a>
</g>
</g>
<!-- Node20&#45;&gt;Node21 -->
<g id="edge37_Node000020_Node000021" class="edge">
<title>Node20&#45;&gt;Node21</title>
<g id="a_edge37_Node000020_Node000021"><a xlink:title=" ">
<path fill="none" stroke="#63b8ff" d="M701.7,-288.67C708.63,-279.5 716.91,-268.52 722.52,-261.09"/>
<polygon fill="#63b8ff" stroke="#63b8ff" points="698.84,-286.66 695.61,-296.75 704.42,-290.87 698.84,-286.66"/>
</a>
</g>
</g>
<!-- Node21&#45;&gt;Node2 -->
<g id="edge38_Node000021_Node000002" class="edge">
<title>Node21&#45;&gt;Node2</title>
<g id="a_edge38_Node000021_Node000002"><a xlink:title=" ">
<path fill="none" stroke="#63b8ff" d="M721.85,-232.28C708.12,-197.32 678.55,-122.01 668.46,-96.31"/>
<polygon fill="#63b8ff" stroke="#63b8ff" points="718.65,-233.71 725.56,-241.74 725.16,-231.15 718.65,-233.71"/>
</a>
</g>
</g>
<!-- Node21&#45;&gt;Node19 -->
<g id="edge39_Node000021_Node000019" class="edge">
<title>Node21&#45;&gt;Node19</title>
<g id="a_edge39_Node000021_Node000019"><a xlink:title=" ">
<path fill="none" stroke="#63b8ff" d="M706.08,-236.7C690.05,-227.04 669.13,-214.44 655.4,-206.17"/>
<polygon fill="#63b8ff" stroke="#63b8ff" points="704.49,-239.82 714.86,-241.98 708.1,-233.83 704.49,-239.82"/>
</a>
</g>
</g>
<!-- Node22 -->
<g id="Node000022" class="node">
<title>Node22</title>
<g id="a_Node000022"><a xlink:href="dot_8h.html" target="_top" xlink:title=" ">
<polygon fill="white" stroke="#666666" points="866.5,-151 769.5,-151 769.5,-132 866.5,-132 866.5,-151"/>
<text text-anchor="middle" x="818" y="-139" font-family="Times,serif" font-size="10.00">ttg/ttg/util/dot.h</text>
</a>
</g>
</g>
<!-- Node21&#45;&gt;Node22 -->
<g id="edge40_Node000021_Node000022" class="edge">
<title>Node21&#45;&gt;Node22</title>
<g id="a_edge40_Node000021_Node000022"><a xlink:title=" ">
<path fill="none" stroke="#63b8ff" d="M742.85,-233.69C762.07,-210.37 796.12,-169.05 810.86,-151.16"/>
<polygon fill="#63b8ff" stroke="#63b8ff" points="739.94,-231.72 736.28,-241.66 745.34,-236.17 739.94,-231.72"/>
</a>
</g>
</g>
<!-- Node22&#45;&gt;Node2 -->
<g id="edge41_Node000022_Node000002" class="edge">
<title>Node22&#45;&gt;Node2</title>
<g id="a_edge41_Node000022_Node000002"><a xlink:title=" ">
<path fill="none" stroke="#63b8ff" d="M783.85,-128.67C755.32,-118.79 715.31,-104.93 689.77,-96.08"/>
<polygon fill="#63b8ff" stroke="#63b8ff" points="782.82,-132.02 793.42,-131.98 785.11,-125.4 782.82,-132.02"/>
</a>
</g>
</g>
</g>
</svg>
