<?xml version="1.0" encoding="UTF-8" standalone="no"?>
<!DOCTYPE svg PUBLIC "-//W3C//DTD SVG 1.1//EN"
 "http://www.w3.org/Graphics/SVG/1.1/DTD/svg11.dtd">
<!-- Generated by graphviz version 2.43.0 (0)
 -->
<!-- Title: ttg/ttg/util/trace.h Pages: 1 -->
<svg width="406pt" height="137pt"
 viewBox="0.00 0.00 405.50 137.00" xmlns="http://www.w3.org/2000/svg" xmlns:xlink="http://www.w3.org/1999/xlink">
<g id="graph0" class="graph" transform="scale(1 1) rotate(0) translate(4 133)">
<title>ttg/ttg/util/trace.h</title>
<!-- Node1 -->
<g id="Node000001" class="node">
<title>Node1</title>
<g id="a_Node000001"><a xlink:title=" ">
<polygon fill="#999999" stroke="#666666" points="264.5,-129 158.5,-129 158.5,-110 264.5,-110 264.5,-129"/>
<text text-anchor="middle" x="211.5" y="-117" font-family="Times,serif" font-size="10.00">ttg/ttg/util/trace.h</text>
</a>
</g>
</g>
<!-- Node2 -->
<g id="Node000002" class="node">
<title>Node2</title>
<g id="a_Node000002"><a xlink:href="print_8h.html" target="_top" xlink:title=" ">
<polygon fill="white" stroke="#666666" points="255.5,-74 167.5,-74 167.5,-55 255.5,-55 255.5,-74"/>
<text text-anchor="middle" x="211.5" y="-62" font-family="Times,serif" font-size="10.00">ttg/util/print.h</text>
</a>
</g>
</g>
<!-- Node1&#45;&gt;Node2 -->
<g id="edge1_Node000001_Node000002" class="edge">
<title>Node1&#45;&gt;Node2</title>
<g id="a_edge1_Node000001_Node000002"><a xlink:title=" ">
<path fill="none" stroke="#63b8ff" d="M211.5,-109.75C211.5,-102.8 211.5,-92.85 211.5,-84.13"/>
<polygon fill="#63b8ff" stroke="#63b8ff" points="215,-84.09 211.5,-74.09 208,-84.09 215,-84.09"/>
</a>
</g>
</g>
<!-- Node3 -->
<g id="Node000003" class="node">
<title>Node3</title>
<g id="a_Node000003"><a xlink:title=" ">
<polygon fill="#e0e0e0" stroke="#999999" points="61,-19 0,-19 0,0 61,0 61,-19"/>
<text text-anchor="middle" x="30.5" y="-7" font-family="Times,serif" font-size="10.00">iostream</text>
</a>
</g>
</g>
<!-- Node2&#45;&gt;Node3 -->
<g id="edge2_Node000002_Node000003" class="edge">
<title>Node2&#45;&gt;Node3</title>
<g id="a_edge2_Node000002_Node000003"><a xlink:title=" ">
<path fill="none" stroke="#63b8ff" d="M182.42,-54.98C151.9,-46.05 103.74,-31.94 69.84,-22.02"/>
<polygon fill="#63b8ff" stroke="#63b8ff" points="70.39,-18.53 59.81,-19.08 68.42,-25.25 70.39,-18.53"/>
</a>
</g>
</g>
<!-- Node4 -->
<g id="Node000004" class="node">
<title>Node4</title>
<g id="a_Node000004"><a xlink:title=" ">
<polygon fill="#e0e0e0" stroke="#999999" points="128,-19 79,-19 79,0 128,0 128,-19"/>
<text text-anchor="middle" x="103.5" y="-7" font-family="Times,serif" font-size="10.00">mutex</text>
</a>
</g>
</g>
<!-- Node2&#45;&gt;Node4 -->
<g id="edge3_Node000002_Node000004" class="edge">
<title>Node2&#45;&gt;Node4</title>
<g id="a_edge3_Node000002_Node000004"><a xlink:title=" ">
<path fill="none" stroke="#63b8ff" d="M194.15,-54.98C176.93,-46.54 150.3,-33.47 130.35,-23.68"/>
<polygon fill="#63b8ff" stroke="#63b8ff" points="131.69,-20.43 121.17,-19.17 128.6,-26.72 131.69,-20.43"/>
</a>
</g>
</g>
<!-- Node5 -->
<g id="Node000005" class="node">
<title>Node5</title>
<g id="a_Node000005"><a xlink:title=" ">
<polygon fill="#e0e0e0" stroke="#999999" points="205,-19 146,-19 146,0 205,0 205,-19"/>
<text text-anchor="middle" x="175.5" y="-7" font-family="Times,serif" font-size="10.00">complex</text>
</a>
</g>
</g>
<!-- Node2&#45;&gt;Node5 -->
<g id="edge4_Node000002_Node000005" class="edge">
<title>Node2&#45;&gt;Node5</title>
<g id="a_edge4_Node000002_Node000005"><a xlink:title=" ">
<path fill="none" stroke="#63b8ff" d="M205.56,-54.75C200.52,-47.34 193.16,-36.5 186.99,-27.41"/>
<polygon fill="#63b8ff" stroke="#63b8ff" points="189.85,-25.39 181.33,-19.09 184.06,-29.33 189.85,-25.39"/>
</a>
</g>
</g>
<!-- Node6 -->
<g id="Node000006" class="node">
<title>Node6</title>
<g id="a_Node000006"><a xlink:title=" ">
<polygon fill="#e0e0e0" stroke="#999999" points="271.5,-19 223.5,-19 223.5,0 271.5,0 271.5,-19"/>
<text text-anchor="middle" x="247.5" y="-7" font-family="Times,serif" font-size="10.00">vector</text>
</a>
</g>
</g>
<!-- Node2&#45;&gt;Node6 -->
<g id="edge5_Node000002_Node000006" class="edge">
<title>Node2&#45;&gt;Node6</title>
<g id="a_edge5_Node000002_Node000006"><a xlink:title=" ">
<path fill="none" stroke="#63b8ff" d="M217.44,-54.75C222.48,-47.34 229.84,-36.5 236.01,-27.41"/>
<polygon fill="#63b8ff" stroke="#63b8ff" points="238.94,-29.33 241.67,-19.09 233.15,-25.39 238.94,-29.33"/>
</a>
</g>
</g>
<!-- Node7 -->
<g id="Node000007" class="node">
<title>Node7</title>
<g id="a_Node000007"><a xlink:title=" ">
<polygon fill="#e0e0e0" stroke="#999999" points="333.5,-19 289.5,-19 289.5,0 333.5,0 333.5,-19"/>
<text text-anchor="middle" x="311.5" y="-7" font-family="Times,serif" font-size="10.00">array</text>
</a>
</g>
</g>
<!-- Node2&#45;&gt;Node7 -->
<g id="edge6_Node000002_Node000007" class="edge">
<title>Node2&#45;&gt;Node7</title>
<g id="a_edge6_Node000002_Node000007"><a xlink:title=" ">
<path fill="none" stroke="#63b8ff" d="M227.57,-54.98C243.36,-46.61 267.72,-33.7 286.13,-23.95"/>
<polygon fill="#63b8ff" stroke="#63b8ff" points="287.94,-26.95 295.14,-19.17 284.67,-20.76 287.94,-26.95"/>
</a>
</g>
</g>
<!-- Node8 -->
<g id="Node000008" class="node">
<title>Node8</title>
<g id="a_Node000008"><a xlink:title=" ">
<polygon fill="#e0e0e0" stroke="#999999" points="397.5,-19 351.5,-19 351.5,0 397.5,0 397.5,-19"/>
<text text-anchor="middle" x="374.5" y="-7" font-family="Times,serif" font-size="10.00">utility</text>
</a>
</g>
</g>
<!-- Node2&#45;&gt;Node8 -->
<g id="edge7_Node000002_Node000008" class="edge">
<title>Node2&#45;&gt;Node8</title>
<g id="a_edge7_Node000002_Node000008"><a xlink:title=" ">
<path fill="none" stroke="#63b8ff" d="M237.69,-54.98C265.91,-45.81 310.87,-31.19 341.49,-21.23"/>
<polygon fill="#63b8ff" stroke="#63b8ff" points="342.85,-24.47 351.28,-18.05 340.69,-17.81 342.85,-24.47"/>
</a>
</g>
</g>
</g>
</svg>
