<?xml version="1.0" encoding="UTF-8" standalone="no"?>
<!DOCTYPE svg PUBLIC "-//W3C//DTD SVG 1.1//EN"
 "http://www.w3.org/Graphics/SVG/1.1/DTD/svg11.dtd">
<!-- Generated by graphviz version 2.43.0 (0)
 -->
<!-- Title: ttg/ttg/external/boost/callable_traits/detail/traits.hpp Pages: 1 -->
<svg width="639pt" height="335pt"
 viewBox="0.00 0.00 639.00 335.00" xmlns="http://www.w3.org/2000/svg" xmlns:xlink="http://www.w3.org/1999/xlink">
<g id="graph0" class="graph" transform="scale(1 1) rotate(0) translate(4 331)">
<title>ttg/ttg/external/boost/callable_traits/detail/traits.hpp</title>
<!-- Node1 -->
<g id="Node000001" class="node">
<title>Node1</title>
<g id="a_Node000001"><a xlink:title=" ">
<polygon fill="#999999" stroke="#666666" points="237,-327 113,-327 113,-286 237,-286 237,-327"/>
<text text-anchor="start" x="121" y="-315" font-family="Times,serif" font-size="10.00">ttg/ttg/external/boost</text>
<text text-anchor="start" x="121" y="-304" font-family="Times,serif" font-size="10.00">/callable_traits/detail</text>
<text text-anchor="middle" x="175" y="-293" font-family="Times,serif" font-size="10.00">/traits.hpp</text>
</a>
</g>
</g>
<!-- Node2 -->
<g id="Node000002" class="node">
<title>Node2</title>
<g id="a_Node000002"><a xlink:href="forward__declarations_8hpp.html" target="_top" xlink:title=" ">
<polygon fill="white" stroke="#666666" points="182,-250 0,-250 0,-220 182,-220 182,-250"/>
<text text-anchor="start" x="8" y="-238" font-family="Times,serif" font-size="10.00">boost/callable_traits</text>
<text text-anchor="middle" x="91" y="-227" font-family="Times,serif" font-size="10.00">/detail/forward_declarations.hpp</text>
</a>
</g>
</g>
<!-- Node1&#45;&gt;Node2 -->
<g id="edge1_Node000001_Node000002" class="edge">
<title>Node1&#45;&gt;Node2</title>
<g id="a_edge1_Node000001_Node000002"><a xlink:title=" ">
<path fill="none" stroke="#63b8ff" d="M151.15,-285.77C140.07,-276.6 126.9,-265.7 115.71,-256.44"/>
<polygon fill="#63b8ff" stroke="#63b8ff" points="117.9,-253.72 107.97,-250.04 113.44,-259.11 117.9,-253.72"/>
</a>
</g>
</g>
<!-- Node11 -->
<g id="Node000011" class="node">
<title>Node11</title>
<g id="a_Node000011"><a xlink:href="utility_8hpp.html" target="_top" xlink:title=" ">
<polygon fill="white" stroke="#666666" points="330,-250 212,-250 212,-220 330,-220 330,-250"/>
<text text-anchor="start" x="220" y="-238" font-family="Times,serif" font-size="10.00">boost/callable_traits</text>
<text text-anchor="middle" x="271" y="-227" font-family="Times,serif" font-size="10.00">/detail/utility.hpp</text>
</a>
</g>
</g>
<!-- Node1&#45;&gt;Node11 -->
<g id="edge10_Node000001_Node000011" class="edge">
<title>Node1&#45;&gt;Node11</title>
<g id="a_edge10_Node000001_Node000011"><a xlink:title=" ">
<path fill="none" stroke="#63b8ff" d="M202,-285.96C214.92,-276.6 230.37,-265.42 243.37,-256.01"/>
<polygon fill="#63b8ff" stroke="#63b8ff" points="245.46,-258.81 251.51,-250.11 241.35,-253.14 245.46,-258.81"/>
</a>
</g>
</g>
<!-- Node3 -->
<g id="Node000003" class="node">
<title>Node3</title>
<g id="a_Node000003"><a xlink:href="config_8hpp.html" target="_top" xlink:title=" ">
<polygon fill="white" stroke="#666666" points="293,-107 175,-107 175,-77 293,-77 293,-107"/>
<text text-anchor="start" x="183" y="-95" font-family="Times,serif" font-size="10.00">boost/callable_traits</text>
<text text-anchor="middle" x="234" y="-84" font-family="Times,serif" font-size="10.00">/detail/config.hpp</text>
</a>
</g>
</g>
<!-- Node2&#45;&gt;Node3 -->
<g id="edge2_Node000002_Node000003" class="edge">
<title>Node2&#45;&gt;Node3</title>
<g id="a_edge2_Node000002_Node000003"><a xlink:title=" ">
<path fill="none" stroke="#63b8ff" d="M55.93,-219.85C40.77,-211.77 24.57,-200 16,-184 7.4,-167.93 4.65,-157.25 16,-143 34.43,-119.86 108.13,-106.56 164.79,-99.57"/>
<polygon fill="#63b8ff" stroke="#63b8ff" points="165.28,-103.04 174.8,-98.38 164.46,-96.09 165.28,-103.04"/>
</a>
</g>
</g>
<!-- Node10 -->
<g id="Node000010" class="node">
<title>Node10</title>
<g id="a_Node000010"><a xlink:href="default__callable__traits_8hpp.html" target="_top" xlink:title=" ">
<polygon fill="white" stroke="#666666" points="156.5,-184 25.5,-184 25.5,-143 156.5,-143 156.5,-184"/>
<text text-anchor="start" x="33.5" y="-172" font-family="Times,serif" font-size="10.00">boost/callable_traits</text>
<text text-anchor="start" x="33.5" y="-161" font-family="Times,serif" font-size="10.00">/detail/default_callable</text>
<text text-anchor="middle" x="91" y="-150" font-family="Times,serif" font-size="10.00">_traits.hpp</text>
</a>
</g>
</g>
<!-- Node2&#45;&gt;Node10 -->
<g id="edge9_Node000002_Node000010" class="edge">
<title>Node2&#45;&gt;Node10</title>
<g id="a_edge9_Node000002_Node000010"><a xlink:title=" ">
<path fill="none" stroke="#63b8ff" d="M91,-219.94C91,-212.52 91,-203.14 91,-194.2"/>
<polygon fill="#63b8ff" stroke="#63b8ff" points="94.5,-194.07 91,-184.07 87.5,-194.07 94.5,-194.07"/>
</a>
</g>
</g>
<!-- Node4 -->
<g id="Node000004" class="node">
<title>Node4</title>
<g id="a_Node000004"><a xlink:title=" ">
<polygon fill="#e0e0e0" stroke="#999999" points="98.5,-30 27.5,-30 27.5,-11 98.5,-11 98.5,-30"/>
<text text-anchor="middle" x="63" y="-18" font-family="Times,serif" font-size="10.00">type_traits</text>
</a>
</g>
</g>
<!-- Node3&#45;&gt;Node4 -->
<g id="edge3_Node000003_Node000004" class="edge">
<title>Node3&#45;&gt;Node4</title>
<g id="a_edge3_Node000003_Node000004"><a xlink:title=" ">
<path fill="none" stroke="#63b8ff" d="M197.16,-76.97C171.72,-67.16 137.17,-53.62 107,-41 101.8,-38.82 96.28,-36.44 90.97,-34.11"/>
<polygon fill="#63b8ff" stroke="#63b8ff" points="92.33,-30.88 81.77,-30.03 89.49,-37.28 92.33,-30.88"/>
</a>
</g>
</g>
<!-- Node5 -->
<g id="Node000005" class="node">
<title>Node5</title>
<g id="a_Node000005"><a xlink:title=" ">
<polygon fill="#e0e0e0" stroke="#999999" points="159.5,-30 116.5,-30 116.5,-11 159.5,-11 159.5,-30"/>
<text text-anchor="middle" x="138" y="-18" font-family="Times,serif" font-size="10.00">tuple</text>
</a>
</g>
</g>
<!-- Node3&#45;&gt;Node5 -->
<g id="edge4_Node000003_Node000005" class="edge">
<title>Node3&#45;&gt;Node5</title>
<g id="a_edge4_Node000003_Node000005"><a xlink:title=" ">
<path fill="none" stroke="#63b8ff" d="M214.57,-76.94C198.21,-65.09 174.88,-48.2 158.28,-36.18"/>
<polygon fill="#63b8ff" stroke="#63b8ff" points="159.99,-33.1 149.83,-30.07 155.88,-38.77 159.99,-33.1"/>
</a>
</g>
</g>
<!-- Node6 -->
<g id="Node000006" class="node">
<title>Node6</title>
<g id="a_Node000006"><a xlink:title=" ">
<polygon fill="#e0e0e0" stroke="#999999" points="224,-30 178,-30 178,-11 224,-11 224,-30"/>
<text text-anchor="middle" x="201" y="-18" font-family="Times,serif" font-size="10.00">utility</text>
</a>
</g>
</g>
<!-- Node3&#45;&gt;Node6 -->
<g id="edge5_Node000003_Node000006" class="edge">
<title>Node3&#45;&gt;Node6</title>
<g id="a_edge5_Node000003_Node000006"><a xlink:title=" ">
<path fill="none" stroke="#63b8ff" d="M227.32,-76.94C222.19,-66.14 215.08,-51.15 209.54,-39.48"/>
<polygon fill="#63b8ff" stroke="#63b8ff" points="212.61,-37.8 205.16,-30.27 206.29,-40.8 212.61,-37.8"/>
</a>
</g>
</g>
<!-- Node7 -->
<g id="Node000007" class="node">
<title>Node7</title>
<g id="a_Node000007"><a xlink:title=" ">
<polygon fill="#e0e0e0" stroke="#999999" points="293.5,-30 242.5,-30 242.5,-11 293.5,-11 293.5,-30"/>
<text text-anchor="middle" x="268" y="-18" font-family="Times,serif" font-size="10.00">cstdint</text>
</a>
</g>
</g>
<!-- Node3&#45;&gt;Node7 -->
<g id="edge6_Node000003_Node000007" class="edge">
<title>Node3&#45;&gt;Node7</title>
<g id="a_edge6_Node000003_Node000007"><a xlink:title=" ">
<path fill="none" stroke="#63b8ff" d="M240.88,-76.94C246.16,-66.14 253.5,-51.15 259.2,-39.48"/>
<polygon fill="#63b8ff" stroke="#63b8ff" points="262.46,-40.79 263.71,-30.27 256.17,-37.71 262.46,-40.79"/>
</a>
</g>
</g>
<!-- Node8 -->
<g id="Node000008" class="node">
<title>Node8</title>
<g id="a_Node000008"><a xlink:href="disjunction_8hpp.html" target="_top" xlink:title=" ">
<polygon fill="white" stroke="#666666" points="484.5,-35.5 311.5,-35.5 311.5,-5.5 484.5,-5.5 484.5,-35.5"/>
<text text-anchor="start" x="319.5" y="-23.5" font-family="Times,serif" font-size="10.00">boost/callable_traits</text>
<text text-anchor="middle" x="398" y="-12.5" font-family="Times,serif" font-size="10.00">/detail/polyfills/disjunction.hpp</text>
</a>
</g>
</g>
<!-- Node3&#45;&gt;Node8 -->
<g id="edge7_Node000003_Node000008" class="edge">
<title>Node3&#45;&gt;Node8</title>
<g id="a_edge7_Node000003_Node000008"><a xlink:title=" ">
<path fill="none" stroke="#63b8ff" d="M267.19,-76.94C292.64,-66.15 327.96,-51.18 355.48,-39.52"/>
<polygon fill="#63b8ff" stroke="#63b8ff" points="357.02,-42.67 364.86,-35.54 354.29,-36.22 357.02,-42.67"/>
</a>
</g>
</g>
<!-- Node9 -->
<g id="Node000009" class="node">
<title>Node9</title>
<g id="a_Node000009"><a xlink:href="make__index__sequence_8hpp.html" target="_top" xlink:title=" ">
<polygon fill="white" stroke="#666666" points="631,-41 503,-41 503,0 631,0 631,-41"/>
<text text-anchor="start" x="511" y="-29" font-family="Times,serif" font-size="10.00">boost/callable_traits</text>
<text text-anchor="start" x="511" y="-18" font-family="Times,serif" font-size="10.00">/detail/polyfills/make</text>
<text text-anchor="middle" x="567" y="-7" font-family="Times,serif" font-size="10.00">_index_sequence.hpp</text>
</a>
</g>
</g>
<!-- Node3&#45;&gt;Node9 -->
<g id="edge8_Node000003_Node000009" class="edge">
<title>Node3&#45;&gt;Node9</title>
<g id="a_edge8_Node000003_Node000009"><a xlink:title=" ">
<path fill="none" stroke="#63b8ff" d="M293.11,-80.87C343.7,-71.92 418.67,-57.99 492.97,-41.16"/>
<polygon fill="#63b8ff" stroke="#63b8ff" points="494,-44.52 502.97,-38.88 492.44,-37.69 494,-44.52"/>
</a>
</g>
</g>
<!-- Node11&#45;&gt;Node3 -->
<g id="edge11_Node000011_Node000003" class="edge">
<title>Node11&#45;&gt;Node3</title>
<g id="a_edge11_Node000011_Node000003"><a xlink:title=" ">
<path fill="none" stroke="#63b8ff" d="M240.97,-219.84C227.02,-211.53 211.81,-199.57 204,-184 192.85,-161.76 204.96,-134.46 216.96,-115.59"/>
<polygon fill="#63b8ff" stroke="#63b8ff" points="220.03,-117.31 222.74,-107.06 214.23,-113.38 220.03,-117.31"/>
</a>
</g>
</g>
<!-- Node12 -->
<g id="Node000012" class="node">
<title>Node12</title>
<g id="a_Node000012"><a xlink:href="sfinae__errors_8hpp.html" target="_top" xlink:title=" ">
<polygon fill="white" stroke="#666666" points="354.5,-178.5 213.5,-178.5 213.5,-148.5 354.5,-148.5 354.5,-178.5"/>
<text text-anchor="start" x="221.5" y="-166.5" font-family="Times,serif" font-size="10.00">boost/callable_traits</text>
<text text-anchor="middle" x="284" y="-155.5" font-family="Times,serif" font-size="10.00">/detail/sfinae_errors.hpp</text>
</a>
</g>
</g>
<!-- Node11&#45;&gt;Node12 -->
<g id="edge12_Node000011_Node000012" class="edge">
<title>Node11&#45;&gt;Node12</title>
<g id="a_edge12_Node000011_Node000012"><a xlink:title=" ">
<path fill="none" stroke="#63b8ff" d="M273.63,-219.94C275.32,-210.89 277.56,-198.91 279.53,-188.4"/>
<polygon fill="#63b8ff" stroke="#63b8ff" points="282.97,-189.02 281.37,-178.54 276.09,-187.73 282.97,-189.02"/>
</a>
</g>
</g>
<!-- Node13 -->
<g id="Node000013" class="node">
<title>Node13</title>
<g id="a_Node000013"><a xlink:href="qualifier__flags_8hpp.html" target="_top" xlink:title=" ">
<polygon fill="white" stroke="#666666" points="519.5,-178.5 372.5,-178.5 372.5,-148.5 519.5,-148.5 519.5,-178.5"/>
<text text-anchor="start" x="380.5" y="-166.5" font-family="Times,serif" font-size="10.00">boost/callable_traits</text>
<text text-anchor="middle" x="446" y="-155.5" font-family="Times,serif" font-size="10.00">/detail/qualifier_flags.hpp</text>
</a>
</g>
</g>
<!-- Node11&#45;&gt;Node13 -->
<g id="edge14_Node000011_Node000013" class="edge">
<title>Node11&#45;&gt;Node13</title>
<g id="a_edge14_Node000011_Node000013"><a xlink:title=" ">
<path fill="none" stroke="#63b8ff" d="M306.41,-219.94C333.69,-209.1 371.59,-194.05 401.01,-182.37"/>
<polygon fill="#63b8ff" stroke="#63b8ff" points="402.64,-185.49 410.64,-178.54 400.05,-178.98 402.64,-185.49"/>
</a>
</g>
</g>
<!-- Node12&#45;&gt;Node3 -->
<g id="edge13_Node000012_Node000003" class="edge">
<title>Node12&#45;&gt;Node3</title>
<g id="a_edge13_Node000012_Node000003"><a xlink:title=" ">
<path fill="none" stroke="#63b8ff" d="M273.88,-148.44C267.04,-138.92 257.85,-126.15 250.02,-115.27"/>
<polygon fill="#63b8ff" stroke="#63b8ff" points="252.78,-113.12 244.1,-107.04 247.1,-117.21 252.78,-113.12"/>
</a>
</g>
</g>
<!-- Node13&#45;&gt;Node3 -->
<g id="edge15_Node000013_Node000003" class="edge">
<title>Node13&#45;&gt;Node3</title>
<g id="a_edge15_Node000013_Node000003"><a xlink:title=" ">
<path fill="none" stroke="#63b8ff" d="M403.1,-148.44C369.48,-137.41 322.54,-122.03 286.65,-110.26"/>
<polygon fill="#63b8ff" stroke="#63b8ff" points="287.43,-106.83 276.84,-107.04 285.25,-113.48 287.43,-106.83"/>
</a>
</g>
</g>
</g>
</svg>
