<?xml version="1.0" encoding="UTF-8" standalone="no"?>
<!DOCTYPE svg PUBLIC "-//W3C//DTD SVG 1.1//EN"
 "http://www.w3.org/Graphics/SVG/1.1/DTD/svg11.dtd">
<!-- Generated by graphviz version 2.43.0 (0)
 -->
<!-- Title: ttg/ttg/serialization/traits.h Pages: 1 -->
<svg width="822pt" height="214pt"
 viewBox="0.00 0.00 821.64 214.00" xmlns="http://www.w3.org/2000/svg" xmlns:xlink="http://www.w3.org/1999/xlink">
<g id="graph0" class="graph" transform="scale(1 1) rotate(0) translate(4 210)">
<title>ttg/ttg/serialization/traits.h</title>
<!-- Node1 -->
<g id="Node000001" class="node">
<title>Node1</title>
<g id="a_Node000001"><a xlink:title=" ">
<polygon fill="#999999" stroke="#666666" points="739,-206 626,-206 626,-176 739,-176 739,-206"/>
<text text-anchor="start" x="634" y="-194" font-family="Times,serif" font-size="10.00">ttg/ttg/serialization</text>
<text text-anchor="middle" x="682.5" y="-183" font-family="Times,serif" font-size="10.00">/traits.h</text>
</a>
</g>
</g>
<!-- Node2 -->
<g id="Node000002" class="node">
<title>Node2</title>
<g id="a_Node000002"><a xlink:href="meta_8h.html" target="_top" xlink:title=" ">
<polygon fill="white" stroke="#666666" points="436,-140 347,-140 347,-121 436,-121 436,-140"/>
<text text-anchor="middle" x="391.5" y="-128" font-family="Times,serif" font-size="10.00">ttg/util/meta.h</text>
</a>
</g>
</g>
<!-- Node1&#45;&gt;Node2 -->
<g id="edge1_Node000001_Node000002" class="edge">
<title>Node1&#45;&gt;Node2</title>
<g id="a_edge1_Node000001_Node000002"><a xlink:title=" ">
<path fill="none" stroke="#63b8ff" d="M625.7,-178.58C572.98,-167.98 495.13,-152.33 443.88,-142.03"/>
<polygon fill="#63b8ff" stroke="#63b8ff" points="444.49,-138.58 433.99,-140.04 443.11,-145.44 444.49,-138.58"/>
</a>
</g>
</g>
<!-- Node4 -->
<g id="Node000004" class="node">
<title>Node4</title>
<g id="a_Node000004"><a xlink:title=" ">
<polygon fill="#e0e0e0" stroke="#999999" points="591,-19 520,-19 520,0 591,0 591,-19"/>
<text text-anchor="middle" x="555.5" y="-7" font-family="Times,serif" font-size="10.00">type_traits</text>
</a>
</g>
</g>
<!-- Node1&#45;&gt;Node4 -->
<g id="edge12_Node000001_Node000004" class="edge">
<title>Node1&#45;&gt;Node4</title>
<g id="a_edge12_Node000001_Node000004"><a xlink:title=" ">
<path fill="none" stroke="#63b8ff" d="M711.99,-175.9C758.85,-151.64 841.37,-100.26 803.5,-55 778.24,-24.81 665.92,-15.07 601.44,-11.95"/>
<polygon fill="#63b8ff" stroke="#63b8ff" points="601.28,-8.44 591.14,-11.49 600.97,-15.44 601.28,-8.44"/>
</a>
</g>
</g>
<!-- Node12 -->
<g id="Node000012" class="node">
<title>Node12</title>
<g id="a_Node000012"><a xlink:title=" ">
<polygon fill="#e0e0e0" stroke="#999999" points="713,-140 652,-140 652,-121 713,-121 713,-140"/>
<text text-anchor="middle" x="682.5" y="-128" font-family="Times,serif" font-size="10.00">iostream</text>
</a>
</g>
</g>
<!-- Node1&#45;&gt;Node12 -->
<g id="edge13_Node000001_Node000012" class="edge">
<title>Node1&#45;&gt;Node12</title>
<g id="a_edge13_Node000001_Node000012"><a xlink:title=" ">
<path fill="none" stroke="#63b8ff" d="M682.5,-175.84C682.5,-168.21 682.5,-158.7 682.5,-150.45"/>
<polygon fill="#63b8ff" stroke="#63b8ff" points="686,-150.27 682.5,-140.27 679,-150.27 686,-150.27"/>
</a>
</g>
</g>
<!-- Node13 -->
<g id="Node000013" class="node">
<title>Node13</title>
<g id="a_Node000013"><a xlink:href="backends_8h.html" target="_top" xlink:title=" ">
<polygon fill="white" stroke="#666666" points="634,-140 477,-140 477,-121 634,-121 634,-140"/>
<text text-anchor="middle" x="555.5" y="-128" font-family="Times,serif" font-size="10.00">ttg/serialization/backends.h</text>
</a>
</g>
</g>
<!-- Node1&#45;&gt;Node13 -->
<g id="edge14_Node000001_Node000013" class="edge">
<title>Node1&#45;&gt;Node13</title>
<g id="a_edge14_Node000001_Node000013"><a xlink:title=" ">
<path fill="none" stroke="#63b8ff" d="M652.08,-175.99C631.27,-166.4 603.88,-153.79 583.59,-144.44"/>
<polygon fill="#63b8ff" stroke="#63b8ff" points="584.8,-141.14 574.26,-140.14 581.87,-147.5 584.8,-141.14"/>
</a>
</g>
</g>
<!-- Node3 -->
<g id="Node000003" class="node">
<title>Node3</title>
<g id="a_Node000003"><a xlink:title=" ">
<polygon fill="#e0e0e0" stroke="#999999" points="425.5,-79.5 357.5,-79.5 357.5,-60.5 425.5,-60.5 425.5,-79.5"/>
<text text-anchor="middle" x="391.5" y="-67.5" font-family="Times,serif" font-size="10.00">functional</text>
</a>
</g>
</g>
<!-- Node2&#45;&gt;Node3 -->
<g id="edge2_Node000002_Node000003" class="edge">
<title>Node2&#45;&gt;Node3</title>
<g id="a_edge2_Node000002_Node000003"><a xlink:title=" ">
<path fill="none" stroke="#63b8ff" d="M391.5,-120.87C391.5,-112.75 391.5,-100.31 391.5,-89.89"/>
<polygon fill="#63b8ff" stroke="#63b8ff" points="395,-89.67 391.5,-79.67 388,-89.67 395,-89.67"/>
</a>
</g>
</g>
<!-- Node2&#45;&gt;Node4 -->
<g id="edge3_Node000002_Node000004" class="edge">
<title>Node2&#45;&gt;Node4</title>
<g id="a_edge3_Node000002_Node000004"><a xlink:title=" ">
<path fill="none" stroke="#63b8ff" d="M399.41,-120.93C413.26,-106.23 443.22,-75.81 472.5,-55 489.66,-42.81 510.55,-31.62 527.08,-23.52"/>
<polygon fill="#63b8ff" stroke="#63b8ff" points="528.74,-26.6 536.25,-19.12 525.72,-20.29 528.74,-26.6"/>
</a>
</g>
</g>
<!-- Node5 -->
<g id="Node000005" class="node">
<title>Node5</title>
<g id="a_Node000005"><a xlink:href="span_8h.html" target="_top" xlink:title=" ">
<polygon fill="white" stroke="#666666" points="219.5,-79.5 131.5,-79.5 131.5,-60.5 219.5,-60.5 219.5,-79.5"/>
<text text-anchor="middle" x="175.5" y="-67.5" font-family="Times,serif" font-size="10.00">ttg/util/span.h</text>
</a>
</g>
</g>
<!-- Node2&#45;&gt;Node5 -->
<g id="edge4_Node000002_Node000005" class="edge">
<title>Node2&#45;&gt;Node5</title>
<g id="a_edge4_Node000002_Node000005"><a xlink:title=" ">
<path fill="none" stroke="#63b8ff" d="M360.09,-120.99C322.26,-110.75 258.59,-93.5 216.81,-82.19"/>
<polygon fill="#63b8ff" stroke="#63b8ff" points="217.51,-78.75 206.95,-79.52 215.68,-85.51 217.51,-78.75"/>
</a>
</g>
</g>
<!-- Node10 -->
<g id="Node000010" class="node">
<title>Node10</title>
<g id="a_Node000010"><a xlink:href="typelist_8h.html" target="_top" xlink:title=" ">
<polygon fill="white" stroke="#666666" points="339,-79.5 238,-79.5 238,-60.5 339,-60.5 339,-79.5"/>
<text text-anchor="middle" x="288.5" y="-67.5" font-family="Times,serif" font-size="10.00">ttg/util/typelist.h</text>
</a>
</g>
</g>
<!-- Node2&#45;&gt;Node10 -->
<g id="edge10_Node000002_Node000010" class="edge">
<title>Node2&#45;&gt;Node10</title>
<g id="a_edge10_Node000002_Node000010"><a xlink:title=" ">
<path fill="none" stroke="#63b8ff" d="M376.3,-120.87C359.49,-111.32 332.18,-95.81 312.48,-84.62"/>
<polygon fill="#63b8ff" stroke="#63b8ff" points="314.18,-81.56 303.76,-79.67 310.73,-87.65 314.18,-81.56"/>
</a>
</g>
</g>
<!-- Node5&#45;&gt;Node4 -->
<g id="edge8_Node000005_Node000004" class="edge">
<title>Node5&#45;&gt;Node4</title>
<g id="a_edge8_Node000005_Node000004"><a xlink:title=" ">
<path fill="none" stroke="#63b8ff" d="M205.34,-60.43C212.86,-58.46 220.94,-56.51 228.5,-55 328.03,-35.16 446.39,-21.47 509.86,-14.92"/>
<polygon fill="#63b8ff" stroke="#63b8ff" points="510.35,-18.39 519.94,-13.89 509.64,-11.42 510.35,-18.39"/>
</a>
</g>
</g>
<!-- Node6 -->
<g id="Node000006" class="node">
<title>Node6</title>
<g id="a_Node000006"><a xlink:title=" ">
<polygon fill="#e0e0e0" stroke="#999999" points="197.5,-19 153.5,-19 153.5,0 197.5,0 197.5,-19"/>
<text text-anchor="middle" x="175.5" y="-7" font-family="Times,serif" font-size="10.00">array</text>
</a>
</g>
</g>
<!-- Node5&#45;&gt;Node6 -->
<g id="edge5_Node000005_Node000006" class="edge">
<title>Node5&#45;&gt;Node6</title>
<g id="a_edge5_Node000005_Node000006"><a xlink:title=" ">
<path fill="none" stroke="#63b8ff" d="M175.5,-60.37C175.5,-52.25 175.5,-39.81 175.5,-29.39"/>
<polygon fill="#63b8ff" stroke="#63b8ff" points="179,-29.17 175.5,-19.17 172,-29.17 179,-29.17"/>
</a>
</g>
</g>
<!-- Node7 -->
<g id="Node000007" class="node">
<title>Node7</title>
<g id="a_Node000007"><a xlink:title=" ">
<polygon fill="#e0e0e0" stroke="#999999" points="269.5,-19 215.5,-19 215.5,0 269.5,0 269.5,-19"/>
<text text-anchor="middle" x="242.5" y="-7" font-family="Times,serif" font-size="10.00">cstddef</text>
</a>
</g>
</g>
<!-- Node5&#45;&gt;Node7 -->
<g id="edge6_Node000005_Node000007" class="edge">
<title>Node5&#45;&gt;Node7</title>
<g id="a_edge6_Node000005_Node000007"><a xlink:title=" ">
<path fill="none" stroke="#63b8ff" d="M185.39,-60.37C195.78,-51.3 212.34,-36.84 224.95,-25.82"/>
<polygon fill="#63b8ff" stroke="#63b8ff" points="227.34,-28.38 232.57,-19.17 222.74,-23.11 227.34,-28.38"/>
</a>
</g>
</g>
<!-- Node8 -->
<g id="Node000008" class="node">
<title>Node8</title>
<g id="a_Node000008"><a xlink:title=" ">
<polygon fill="#e0e0e0" stroke="#999999" points="51,-19 0,-19 0,0 51,0 51,-19"/>
<text text-anchor="middle" x="25.5" y="-7" font-family="Times,serif" font-size="10.00">cstdint</text>
</a>
</g>
</g>
<!-- Node5&#45;&gt;Node8 -->
<g id="edge7_Node000005_Node000008" class="edge">
<title>Node5&#45;&gt;Node8</title>
<g id="a_edge7_Node000005_Node000008"><a xlink:title=" ">
<path fill="none" stroke="#63b8ff" d="M153.69,-60.49C128.25,-50.57 85.99,-34.09 56.99,-22.78"/>
<polygon fill="#63b8ff" stroke="#63b8ff" points="57.93,-19.39 47.34,-19.02 55.38,-25.91 57.93,-19.39"/>
</a>
</g>
</g>
<!-- Node9 -->
<g id="Node000009" class="node">
<title>Node9</title>
<g id="a_Node000009"><a xlink:title=" ">
<polygon fill="#e0e0e0" stroke="#999999" points="135.5,-19 69.5,-19 69.5,0 135.5,0 135.5,-19"/>
<text text-anchor="middle" x="102.5" y="-7" font-family="Times,serif" font-size="10.00">exception</text>
</a>
</g>
</g>
<!-- Node5&#45;&gt;Node9 -->
<g id="edge9_Node000005_Node000009" class="edge">
<title>Node5&#45;&gt;Node9</title>
<g id="a_edge9_Node000005_Node000009"><a xlink:title=" ">
<path fill="none" stroke="#63b8ff" d="M164.73,-60.37C153.3,-51.21 135.02,-36.56 121.22,-25.51"/>
<polygon fill="#63b8ff" stroke="#63b8ff" points="123.31,-22.69 113.32,-19.17 118.93,-28.15 123.31,-22.69"/>
</a>
</g>
</g>
<!-- Node11 -->
<g id="Node000011" class="node">
<title>Node11</title>
<g id="a_Node000011"><a xlink:title=" ">
<polygon fill="#e0e0e0" stroke="#999999" points="331,-19 288,-19 288,0 331,0 331,-19"/>
<text text-anchor="middle" x="309.5" y="-7" font-family="Times,serif" font-size="10.00">tuple</text>
</a>
</g>
</g>
<!-- Node10&#45;&gt;Node11 -->
<g id="edge11_Node000010_Node000011" class="edge">
<title>Node10&#45;&gt;Node11</title>
<g id="a_edge11_Node000010_Node000011"><a xlink:title=" ">
<path fill="none" stroke="#63b8ff" d="M291.6,-60.37C294.58,-52.07 299.17,-39.28 302.96,-28.72"/>
<polygon fill="#63b8ff" stroke="#63b8ff" points="306.3,-29.76 306.39,-19.17 299.72,-27.4 306.3,-29.76"/>
</a>
</g>
</g>
<!-- Node14 -->
<g id="Node000014" class="node">
<title>Node14</title>
<g id="a_Node000014"><a xlink:href="boost_8h.html" target="_top" xlink:title=" ">
<polygon fill="white" stroke="#666666" points="629,-85 482,-85 482,-55 629,-55 629,-85"/>
<text text-anchor="start" x="490" y="-73" font-family="Times,serif" font-size="10.00">ttg/serialization/backends</text>
<text text-anchor="middle" x="555.5" y="-62" font-family="Times,serif" font-size="10.00">/boost.h</text>
</a>
</g>
</g>
<!-- Node13&#45;&gt;Node14 -->
<g id="edge15_Node000013_Node000014" class="edge">
<title>Node13&#45;&gt;Node14</title>
<g id="a_edge15_Node000013_Node000014"><a xlink:title=" ">
<path fill="none" stroke="#63b8ff" d="M555.5,-120.87C555.5,-114.11 555.5,-104.35 555.5,-95.26"/>
<polygon fill="#63b8ff" stroke="#63b8ff" points="559,-95.11 555.5,-85.11 552,-95.11 559,-95.11"/>
</a>
</g>
</g>
<!-- Node15 -->
<g id="Node000015" class="node">
<title>Node15</title>
<g id="a_Node000015"><a xlink:href="madness_8h.html" target="_top" xlink:title=" ">
<polygon fill="white" stroke="#666666" points="794,-85 647,-85 647,-55 794,-55 794,-85"/>
<text text-anchor="start" x="655" y="-73" font-family="Times,serif" font-size="10.00">ttg/serialization/backends</text>
<text text-anchor="middle" x="720.5" y="-62" font-family="Times,serif" font-size="10.00">/madness.h</text>
</a>
</g>
</g>
<!-- Node13&#45;&gt;Node15 -->
<g id="edge17_Node000013_Node000015" class="edge">
<title>Node13&#45;&gt;Node15</title>
<g id="a_edge17_Node000013_Node000015"><a xlink:title=" ">
<path fill="none" stroke="#63b8ff" d="M579.49,-120.99C603.45,-112.5 640.96,-99.2 671.27,-88.45"/>
<polygon fill="#63b8ff" stroke="#63b8ff" points="672.58,-91.7 680.83,-85.06 670.24,-85.11 672.58,-91.7"/>
</a>
</g>
</g>
<!-- Node14&#45;&gt;Node4 -->
<g id="edge16_Node000014_Node000004" class="edge">
<title>Node14&#45;&gt;Node4</title>
<g id="a_edge16_Node000014_Node000004"><a xlink:title=" ">
<path fill="none" stroke="#63b8ff" d="M555.5,-54.84C555.5,-47.21 555.5,-37.7 555.5,-29.45"/>
<polygon fill="#63b8ff" stroke="#63b8ff" points="559,-29.27 555.5,-19.27 552,-29.27 559,-29.27"/>
</a>
</g>
</g>
<!-- Node15&#45;&gt;Node1 -->
<g id="edge19_Node000015_Node000001" class="edge">
<title>Node15&#45;&gt;Node1</title>
<g id="a_edge19_Node000015_Node000001"><a xlink:title=" ">
<path fill="none" stroke="#63b8ff" d="M723.81,-85.2C726.48,-99.48 728.85,-121.91 722.5,-140 718.86,-150.38 712.05,-160.22 705.07,-168.37"/>
<polygon fill="#63b8ff" stroke="#63b8ff" points="702.32,-166.18 698.14,-175.92 707.48,-170.91 702.32,-166.18"/>
</a>
</g>
</g>
<!-- Node15&#45;&gt;Node4 -->
<g id="edge18_Node000015_Node000004" class="edge">
<title>Node15&#45;&gt;Node4</title>
<g id="a_edge18_Node000015_Node000004"><a xlink:title=" ">
<path fill="none" stroke="#63b8ff" d="M680.98,-54.99C653.08,-45.1 616.09,-31.98 589.5,-22.56"/>
<polygon fill="#63b8ff" stroke="#63b8ff" points="590.46,-19.18 579.87,-19.14 588.12,-25.78 590.46,-19.18"/>
</a>
</g>
</g>
</g>
</svg>
