<?xml version="1.0" encoding="UTF-8" standalone="no"?>
<!DOCTYPE svg PUBLIC "-//W3C//DTD SVG 1.1//EN"
 "http://www.w3.org/Graphics/SVG/1.1/DTD/svg11.dtd">
<!-- Generated by graphviz version 2.43.0 (0)
 -->
<!-- Title: ttg/ttg/traverse.h Pages: 1 -->
<svg width="1332pt" height="269pt"
 viewBox="0.00 0.00 1332.00 269.00" xmlns="http://www.w3.org/2000/svg" xmlns:xlink="http://www.w3.org/1999/xlink">
<g id="graph0" class="graph" transform="scale(1 1) rotate(0) translate(4 265)">
<title>ttg/ttg/traverse.h</title>
<!-- Node1 -->
<g id="Node000001" class="node">
<title>Node1</title>
<g id="a_Node000001"><a xlink:title=" ">
<polygon fill="#999999" stroke="#666666" points="544.5,-261 441.5,-261 441.5,-242 544.5,-242 544.5,-261"/>
<text text-anchor="middle" x="493" y="-249" font-family="Times,serif" font-size="10.00">ttg/ttg/traverse.h</text>
</a>
</g>
</g>
<!-- Node2 -->
<g id="Node000002" class="node">
<title>Node2</title>
<g id="a_Node000002"><a xlink:href="ttg_8h.html" target="_top" xlink:title=" ">
<polygon fill="white" stroke="#666666" points="538,-96 480,-96 480,-77 538,-77 538,-96"/>
<text text-anchor="middle" x="509" y="-84" font-family="Times,serif" font-size="10.00">ttg/ttg.h</text>
</a>
</g>
</g>
<!-- Node1&#45;&gt;Node2 -->
<g id="edge1_Node000001_Node000002" class="edge">
<title>Node1&#45;&gt;Node2</title>
<g id="a_edge1_Node000001_Node000002"><a xlink:title=" ">
<path fill="none" stroke="#63b8ff" d="M506.28,-233.75C520.31,-214.9 541.55,-182.74 550,-151 552.17,-142.84 553.07,-139.87 550,-132 544.19,-117.13 530.83,-104.23 520.93,-96.2"/>
<polygon fill="#63b8ff" stroke="#63b8ff" points="503.36,-231.81 500.06,-241.88 508.92,-236.07 503.36,-231.81"/>
</a>
</g>
</g>
<!-- Node12 -->
<g id="Node000012" class="node">
<title>Node12</title>
<g id="a_Node000012"><a xlink:href="func_8h.html" target="_top" xlink:title=" ">
<polygon fill="white" stroke="#666666" points="373.5,-206 290.5,-206 290.5,-187 373.5,-187 373.5,-206"/>
<text text-anchor="middle" x="332" y="-194" font-family="Times,serif" font-size="10.00">ttg/ttg/func.h</text>
</a>
</g>
</g>
<!-- Node1&#45;&gt;Node12 -->
<g id="edge11_Node000001_Node000012" class="edge">
<title>Node1&#45;&gt;Node12</title>
<g id="a_edge11_Node000001_Node000012"><a xlink:title=" ">
<path fill="none" stroke="#63b8ff" d="M457.45,-238.8C427.41,-228.91 385.06,-214.97 358.07,-206.08"/>
<polygon fill="#63b8ff" stroke="#63b8ff" points="456.54,-242.18 467.13,-241.98 458.73,-235.53 456.54,-242.18"/>
</a>
</g>
</g>
<!-- Node14 -->
<g id="Node000014" class="node">
<title>Node14</title>
<g id="a_Node000014"><a xlink:href="dot_8h.html" target="_top" xlink:title=" ">
<polygon fill="white" stroke="#666666" points="541.5,-151 444.5,-151 444.5,-132 541.5,-132 541.5,-151"/>
<text text-anchor="middle" x="493" y="-139" font-family="Times,serif" font-size="10.00">ttg/ttg/util/dot.h</text>
</a>
</g>
</g>
<!-- Node1&#45;&gt;Node14 -->
<g id="edge17_Node000001_Node000014" class="edge">
<title>Node1&#45;&gt;Node14</title>
<g id="a_edge17_Node000001_Node000014"><a xlink:title=" ">
<path fill="none" stroke="#63b8ff" d="M493,-231.48C493,-207.84 493,-168.5 493,-151.16"/>
<polygon fill="#63b8ff" stroke="#63b8ff" points="489.5,-231.66 493,-241.66 496.5,-231.66 489.5,-231.66"/>
</a>
</g>
</g>
<!-- Node3 -->
<g id="Node000003" class="node">
<title>Node3</title>
<g id="a_Node000003"><a xlink:href="fibonacci_8cc.html" target="_top" xlink:title=" ">
<polygon fill="white" stroke="#666666" points="1178,-35.5 1050,-35.5 1050,-5.5 1178,-5.5 1178,-35.5"/>
<text text-anchor="start" x="1058" y="-23.5" font-family="Times,serif" font-size="10.00">doc/dox/dev/devsamp</text>
<text text-anchor="middle" x="1114" y="-12.5" font-family="Times,serif" font-size="10.00">/fibonacci/fibonacci.cc</text>
</a>
</g>
</g>
<!-- Node2&#45;&gt;Node3 -->
<g id="edge2_Node000002_Node000003" class="edge">
<title>Node2&#45;&gt;Node3</title>
<g id="a_edge2_Node000002_Node000003"><a xlink:title=" ">
<path fill="none" stroke="#63b8ff" d="M548.18,-84.6C636.67,-82.05 858.49,-72.75 1041,-41 1049.27,-39.56 1057.97,-37.62 1066.36,-35.52"/>
<polygon fill="#63b8ff" stroke="#63b8ff" points="547.96,-81.1 538.06,-84.88 548.16,-88.1 547.96,-81.1"/>
</a>
</g>
</g>
<!-- Node4 -->
<g id="Node000004" class="node">
<title>Node4</title>
<g id="a_Node000004"><a xlink:href="fibonacci__device_8cc.html" target="_top" xlink:title=" ">
<polygon fill="white" stroke="#666666" points="1324,-41 1196,-41 1196,0 1324,0 1324,-41"/>
<text text-anchor="start" x="1204" y="-29" font-family="Times,serif" font-size="10.00">doc/dox/dev/devsamp</text>
<text text-anchor="start" x="1204" y="-18" font-family="Times,serif" font-size="10.00">/fibonacci/fibonacci</text>
<text text-anchor="middle" x="1260" y="-7" font-family="Times,serif" font-size="10.00">_device.cc</text>
</a>
</g>
</g>
<!-- Node2&#45;&gt;Node4 -->
<g id="edge3_Node000002_Node000004" class="edge">
<title>Node2&#45;&gt;Node4</title>
<g id="a_edge3_Node000002_Node000004"><a xlink:title=" ">
<path fill="none" stroke="#63b8ff" d="M548.42,-85.59C653.15,-85.26 946.75,-80.58 1187,-41 1189.85,-40.53 1192.74,-40 1195.66,-39.42"/>
<polygon fill="#63b8ff" stroke="#63b8ff" points="548.3,-82.09 538.31,-85.61 548.32,-89.09 548.3,-82.09"/>
</a>
</g>
</g>
<!-- Node5 -->
<g id="Node000005" class="node">
<title>Node5</title>
<g id="a_Node000005"><a xlink:href="helloworld_8cpp.html" target="_top" xlink:title=" ">
<polygon fill="white" stroke="#666666" points="423.5,-35.5 272.5,-35.5 272.5,-5.5 423.5,-5.5 423.5,-35.5"/>
<text text-anchor="start" x="280.5" y="-23.5" font-family="Times,serif" font-size="10.00">doc/dox/dev/devsamp</text>
<text text-anchor="middle" x="348" y="-12.5" font-family="Times,serif" font-size="10.00">/helloworld/helloworld.cpp</text>
</a>
</g>
</g>
<!-- Node2&#45;&gt;Node5 -->
<g id="edge4_Node000002_Node000005" class="edge">
<title>Node2&#45;&gt;Node5</title>
<g id="a_edge4_Node000002_Node000005"><a xlink:title=" ">
<path fill="none" stroke="#63b8ff" d="M477.92,-73.15C450.9,-62.4 411.76,-46.85 383.51,-35.62"/>
<polygon fill="#63b8ff" stroke="#63b8ff" points="476.7,-76.43 487.29,-76.87 479.29,-69.92 476.7,-76.43"/>
</a>
</g>
</g>
<!-- Node6 -->
<g id="Node000006" class="node">
<title>Node6</title>
<g id="a_Node000006"><a xlink:href="distributed_8cc.html" target="_top" xlink:title=" ">
<polygon fill="white" stroke="#666666" points="576,-35.5 442,-35.5 442,-5.5 576,-5.5 576,-35.5"/>
<text text-anchor="start" x="450" y="-23.5" font-family="Times,serif" font-size="10.00">doc/dox/user/examples</text>
<text text-anchor="middle" x="509" y="-12.5" font-family="Times,serif" font-size="10.00">/distributed.cc</text>
</a>
</g>
</g>
<!-- Node2&#45;&gt;Node6 -->
<g id="edge5_Node000002_Node000006" class="edge">
<title>Node2&#45;&gt;Node6</title>
<g id="a_edge5_Node000002_Node000006"><a xlink:title=" ">
<path fill="none" stroke="#63b8ff" d="M509,-66.85C509,-56.97 509,-45.01 509,-35.86"/>
<polygon fill="#63b8ff" stroke="#63b8ff" points="505.5,-66.87 509,-76.87 512.5,-66.87 505.5,-66.87"/>
</a>
</g>
</g>
<!-- Node7 -->
<g id="Node000007" class="node">
<title>Node7</title>
<g id="a_Node000007"><a xlink:href="iterative_8cc.html" target="_top" xlink:title=" ">
<polygon fill="white" stroke="#666666" points="728,-35.5 594,-35.5 594,-5.5 728,-5.5 728,-35.5"/>
<text text-anchor="start" x="602" y="-23.5" font-family="Times,serif" font-size="10.00">doc/dox/user/examples</text>
<text text-anchor="middle" x="661" y="-12.5" font-family="Times,serif" font-size="10.00">/iterative.cc</text>
</a>
</g>
</g>
<!-- Node2&#45;&gt;Node7 -->
<g id="edge6_Node000002_Node000007" class="edge">
<title>Node2&#45;&gt;Node7</title>
<g id="a_edge6_Node000002_Node000007"><a xlink:title=" ">
<path fill="none" stroke="#63b8ff" d="M539.01,-72.86C564.5,-62.13 601.04,-46.75 627.48,-35.62"/>
<polygon fill="#63b8ff" stroke="#63b8ff" points="537.36,-69.76 529.5,-76.87 540.07,-76.21 537.36,-69.76"/>
</a>
</g>
</g>
<!-- Node8 -->
<g id="Node000008" class="node">
<title>Node8</title>
<g id="a_Node000008"><a xlink:href="reducing_8cc.html" target="_top" xlink:title=" ">
<polygon fill="white" stroke="#666666" points="880,-35.5 746,-35.5 746,-5.5 880,-5.5 880,-35.5"/>
<text text-anchor="start" x="754" y="-23.5" font-family="Times,serif" font-size="10.00">doc/dox/user/examples</text>
<text text-anchor="middle" x="813" y="-12.5" font-family="Times,serif" font-size="10.00">/reducing.cc</text>
</a>
</g>
</g>
<!-- Node2&#45;&gt;Node8 -->
<g id="edge7_Node000002_Node000008" class="edge">
<title>Node2&#45;&gt;Node8</title>
<g id="a_edge7_Node000002_Node000008"><a xlink:title=" ">
<path fill="none" stroke="#63b8ff" d="M548.32,-78.55C593.87,-70.32 671.12,-55.87 737,-41 744.44,-39.32 752.26,-37.44 759.94,-35.53"/>
<polygon fill="#63b8ff" stroke="#63b8ff" points="547.49,-75.14 538.27,-80.35 548.73,-82.03 547.49,-75.14"/>
</a>
</g>
</g>
<!-- Node9 -->
<g id="Node000009" class="node">
<title>Node9</title>
<g id="a_Node000009"><a xlink:href="simple_8cc.html" target="_top" xlink:title=" ">
<polygon fill="white" stroke="#666666" points="1032,-35.5 898,-35.5 898,-5.5 1032,-5.5 1032,-35.5"/>
<text text-anchor="start" x="906" y="-23.5" font-family="Times,serif" font-size="10.00">doc/dox/user/examples</text>
<text text-anchor="middle" x="965" y="-12.5" font-family="Times,serif" font-size="10.00">/simple.cc</text>
</a>
</g>
</g>
<!-- Node2&#45;&gt;Node9 -->
<g id="edge8_Node000002_Node000009" class="edge">
<title>Node2&#45;&gt;Node9</title>
<g id="a_edge8_Node000002_Node000009"><a xlink:title=" ">
<path fill="none" stroke="#63b8ff" d="M548.31,-82.65C617.57,-77.24 765.7,-63.93 889,-41 897.17,-39.48 905.76,-37.58 914.11,-35.56"/>
<polygon fill="#63b8ff" stroke="#63b8ff" points="547.98,-79.17 538.28,-83.42 548.52,-86.15 547.98,-79.17"/>
</a>
</g>
</g>
<!-- Node10 -->
<g id="Node000010" class="node">
<title>Node10</title>
<g id="a_Node000010"><a xlink:href="ttg_2madness_2ttg_8h.html" target="_top" xlink:title=" ">
<polygon fill="white" stroke="#666666" points="124,-30 0,-30 0,-11 124,-11 124,-30"/>
<text text-anchor="middle" x="62" y="-18" font-family="Times,serif" font-size="10.00">ttg/ttg/madness/ttg.h</text>
</a>
</g>
</g>
<!-- Node2&#45;&gt;Node10 -->
<g id="edge9_Node000002_Node000010" class="edge">
<title>Node2&#45;&gt;Node10</title>
<g id="a_edge9_Node000002_Node000010"><a xlink:title=" ">
<path fill="none" stroke="#63b8ff" d="M469.64,-82.8C400.86,-77.64 254.56,-64.75 133,-41 118.45,-38.16 102.5,-33.89 89.42,-30.07"/>
<polygon fill="#63b8ff" stroke="#63b8ff" points="469.77,-86.32 480,-83.56 470.28,-79.34 469.77,-86.32"/>
</a>
</g>
</g>
<!-- Node11 -->
<g id="Node000011" class="node">
<title>Node11</title>
<g id="a_Node000011"><a xlink:href="ttg_2parsec_2ttg_8h.html" target="_top" xlink:title=" ">
<polygon fill="white" stroke="#666666" points="254,-30 142,-30 142,-11 254,-11 254,-30"/>
<text text-anchor="middle" x="198" y="-18" font-family="Times,serif" font-size="10.00">ttg/ttg/parsec/ttg.h</text>
</a>
</g>
</g>
<!-- Node2&#45;&gt;Node11 -->
<g id="edge10_Node000002_Node000011" class="edge">
<title>Node2&#45;&gt;Node11</title>
<g id="a_edge10_Node000002_Node000011"><a xlink:title=" ">
<path fill="none" stroke="#63b8ff" d="M469.88,-79.82C421.11,-72.41 335.35,-58.34 263,-41 250.05,-37.9 235.87,-33.73 224.07,-30.05"/>
<polygon fill="#63b8ff" stroke="#63b8ff" points="469.59,-83.31 480,-81.34 470.63,-76.39 469.59,-83.31"/>
</a>
</g>
</g>
<!-- Node12&#45;&gt;Node2 -->
<g id="edge12_Node000012_Node000002" class="edge">
<title>Node12&#45;&gt;Node2</title>
<g id="a_edge12_Node000012_Node000002"><a xlink:title=" ">
<path fill="none" stroke="#63b8ff" d="M354.72,-181.39C375.56,-168.48 407.3,-148.86 435,-132 455.61,-119.45 479.57,-105.08 494.51,-96.15"/>
<polygon fill="#63b8ff" stroke="#63b8ff" points="352.62,-178.58 345.96,-186.82 356.31,-184.53 352.62,-178.58"/>
</a>
</g>
</g>
<!-- Node12&#45;&gt;Node10 -->
<g id="edge15_Node000012_Node000010" class="edge">
<title>Node12&#45;&gt;Node10</title>
<g id="a_edge15_Node000012_Node000010"><a xlink:title=" ">
<path fill="none" stroke="#63b8ff" d="M305.43,-182.23C288.93,-173.75 267.42,-162.27 249,-151 180.28,-108.97 102.33,-51.69 73.51,-30.16"/>
<polygon fill="#63b8ff" stroke="#63b8ff" points="304.01,-185.44 314.51,-186.85 307.19,-179.2 304.01,-185.44"/>
</a>
</g>
</g>
<!-- Node12&#45;&gt;Node11 -->
<g id="edge16_Node000012_Node000011" class="edge">
<title>Node12&#45;&gt;Node11</title>
<g id="a_edge16_Node000012_Node000011"><a xlink:title=" ">
<path fill="none" stroke="#63b8ff" d="M306.21,-181.81C293.29,-174.04 278.08,-163.38 267,-151 232.17,-112.08 208.88,-52.45 200.98,-30.24"/>
<polygon fill="#63b8ff" stroke="#63b8ff" points="304.7,-184.99 315.12,-186.95 308.2,-178.92 304.7,-184.99"/>
</a>
</g>
</g>
<!-- Node13 -->
<g id="Node000013" class="node">
<title>Node13</title>
<g id="a_Node000013"><a xlink:href="broadcast_8h.html" target="_top" xlink:title=" ">
<polygon fill="white" stroke="#666666" points="387.5,-151 276.5,-151 276.5,-132 387.5,-132 387.5,-151"/>
<text text-anchor="middle" x="332" y="-139" font-family="Times,serif" font-size="10.00">ttg/ttg/broadcast.h</text>
</a>
</g>
</g>
<!-- Node12&#45;&gt;Node13 -->
<g id="edge13_Node000012_Node000013" class="edge">
<title>Node12&#45;&gt;Node13</title>
<g id="a_edge13_Node000012_Node000013"><a xlink:title=" ">
<path fill="none" stroke="#63b8ff" d="M332,-176.66C332,-167.93 332,-157.99 332,-151.09"/>
<polygon fill="#63b8ff" stroke="#63b8ff" points="328.5,-176.75 332,-186.75 335.5,-176.75 328.5,-176.75"/>
</a>
</g>
</g>
<!-- Node13&#45;&gt;Node2 -->
<g id="edge14_Node000013_Node000002" class="edge">
<title>Node13&#45;&gt;Node2</title>
<g id="a_edge14_Node000013_Node000002"><a xlink:title=" ">
<path fill="none" stroke="#63b8ff" d="M370.22,-129.06C403.3,-119.15 450.41,-105.04 480.34,-96.08"/>
<polygon fill="#63b8ff" stroke="#63b8ff" points="369.01,-125.76 360.44,-131.98 371.02,-132.47 369.01,-125.76"/>
</a>
</g>
</g>
<!-- Node14&#45;&gt;Node2 -->
<g id="edge18_Node000014_Node000002" class="edge">
<title>Node14&#45;&gt;Node2</title>
<g id="a_edge18_Node000014_Node000002"><a xlink:title=" ">
<path fill="none" stroke="#63b8ff" d="M498.6,-121.95C501.26,-113.15 504.3,-103.06 506.41,-96.09"/>
<polygon fill="#63b8ff" stroke="#63b8ff" points="495.18,-121.16 495.64,-131.75 501.88,-123.19 495.18,-121.16"/>
</a>
</g>
</g>
</g>
</svg>
