<?xml version="1.0" encoding="UTF-8" standalone="no"?>
<!DOCTYPE svg PUBLIC "-//W3C//DTD SVG 1.1//EN"
 "http://www.w3.org/Graphics/SVG/1.1/DTD/svg11.dtd">
<!-- Generated by graphviz version 2.43.0 (0)
 -->
<!-- Title: ttg/ttg/util/tree.h Pages: 1 -->
<svg width="126pt" height="82pt"
 viewBox="0.00 0.00 125.50 82.00" xmlns="http://www.w3.org/2000/svg" xmlns:xlink="http://www.w3.org/1999/xlink">
<g id="graph0" class="graph" transform="scale(1 1) rotate(0) translate(4 78)">
<title>ttg/ttg/util/tree.h</title>
<!-- Node1 -->
<g id="Node000001" class="node">
<title>Node1</title>
<g id="a_Node000001"><a xlink:title=" ">
<polygon fill="#999999" stroke="#666666" points="111,-74 10,-74 10,-55 111,-55 111,-74"/>
<text text-anchor="middle" x="60.5" y="-62" font-family="Times,serif" font-size="10.00">ttg/ttg/util/tree.h</text>
</a>
</g>
</g>
<!-- Node2 -->
<g id="Node000002" class="node">
<title>Node2</title>
<g id="a_Node000002"><a xlink:title=" ">
<polygon fill="#e0e0e0" stroke="#999999" points="53,-19 0,-19 0,0 53,0 53,-19"/>
<text text-anchor="middle" x="26.5" y="-7" font-family="Times,serif" font-size="10.00">cassert</text>
</a>
</g>
</g>
<!-- Node1&#45;&gt;Node2 -->
<g id="edge1_Node000001_Node000002" class="edge">
<title>Node1&#45;&gt;Node2</title>
<g id="a_edge1_Node000001_Node000002"><a xlink:title=" ">
<path fill="none" stroke="#63b8ff" d="M54.89,-54.75C50.18,-47.42 43.33,-36.73 37.53,-27.7"/>
<polygon fill="#63b8ff" stroke="#63b8ff" points="40.36,-25.62 32.01,-19.09 34.46,-29.4 40.36,-25.62"/>
</a>
</g>
</g>
<!-- Node3 -->
<g id="Node000003" class="node">
<title>Node3</title>
<g id="a_Node000003"><a xlink:title=" ">
<polygon fill="#e0e0e0" stroke="#999999" points="117.5,-19 71.5,-19 71.5,0 117.5,0 117.5,-19"/>
<text text-anchor="middle" x="94.5" y="-7" font-family="Times,serif" font-size="10.00">utility</text>
</a>
</g>
</g>
<!-- Node1&#45;&gt;Node3 -->
<g id="edge2_Node000001_Node000003" class="edge">
<title>Node1&#45;&gt;Node3</title>
<g id="a_edge2_Node000001_Node000003"><a xlink:title=" ">
<path fill="none" stroke="#63b8ff" d="M66.11,-54.75C70.82,-47.42 77.67,-36.73 83.47,-27.7"/>
<polygon fill="#63b8ff" stroke="#63b8ff" points="86.54,-29.4 88.99,-19.09 80.64,-25.62 86.54,-29.4"/>
</a>
</g>
</g>
</g>
</svg>
