<?xml version="1.0" encoding="UTF-8" standalone="no"?>
<!DOCTYPE svg PUBLIC "-//W3C//DTD SVG 1.1//EN"
 "http://www.w3.org/Graphics/SVG/1.1/DTD/svg11.dtd">
<!-- Generated by graphviz version 2.43.0 (0)
 -->
<!-- Title: ttg/ttg/parsec/ttg_data_copy.h Pages: 1 -->
<svg width="746pt" height="214pt"
 viewBox="0.00 0.00 746.20 214.00" xmlns="http://www.w3.org/2000/svg" xmlns:xlink="http://www.w3.org/1999/xlink">
<g id="graph0" class="graph" transform="scale(1 1) rotate(0) translate(4 210)">
<title>ttg/ttg/parsec/ttg_data_copy.h</title>
<!-- Node1 -->
<g id="Node000001" class="node">
<title>Node1</title>
<g id="a_Node000001"><a xlink:title=" ">
<polygon fill="#999999" stroke="#666666" points="321,-206 219,-206 219,-176 321,-176 321,-206"/>
<text text-anchor="start" x="227" y="-194" font-family="Times,serif" font-size="10.00">ttg/ttg/parsec/ttg</text>
<text text-anchor="middle" x="270" y="-183" font-family="Times,serif" font-size="10.00">_data_copy.h</text>
</a>
</g>
</g>
<!-- Node2 -->
<g id="Node000002" class="node">
<title>Node2</title>
<g id="a_Node000002"><a xlink:href="parsec_2buffer_8h.html" target="_top" xlink:title=" ">
<polygon fill="white" stroke="#666666" points="160,-140 32,-140 32,-121 160,-121 160,-140"/>
<text text-anchor="middle" x="96" y="-128" font-family="Times,serif" font-size="10.00">ttg/ttg/parsec/buffer.h</text>
</a>
</g>
</g>
<!-- Node1&#45;&gt;Node2 -->
<g id="edge1_Node000001_Node000002" class="edge">
<title>Node1&#45;&gt;Node2</title>
<g id="a_edge1_Node000001_Node000002"><a xlink:title=" ">
<path fill="none" stroke="#63b8ff" d="M218.66,-172.74C186.66,-161.98 146.86,-148.6 121.44,-140.05"/>
<polygon fill="#63b8ff" stroke="#63b8ff" points="217.73,-176.12 228.32,-175.99 219.96,-169.48 217.73,-176.12"/>
</a>
</g>
</g>
<!-- Node4 -->
<g id="Node000004" class="node">
<title>Node4</title>
<g id="a_Node000004"><a xlink:href="ttg_2parsec_2ttg_8h.html" target="_top" xlink:title=" ">
<polygon fill="white" stroke="#666666" points="370,-19 258,-19 258,0 370,0 370,-19"/>
<text text-anchor="middle" x="314" y="-7" font-family="Times,serif" font-size="10.00">ttg/ttg/parsec/ttg.h</text>
</a>
</g>
</g>
<!-- Node1&#45;&gt;Node4 -->
<g id="edge14_Node000001_Node000004" class="edge">
<title>Node1&#45;&gt;Node4</title>
<g id="a_edge14_Node000001_Node000004"><a xlink:title=" ">
<path fill="none" stroke="#63b8ff" d="M246.91,-168.69C219.96,-141.17 182.07,-92.37 207,-55 219.56,-36.17 241.75,-25.3 262.67,-19.02"/>
<polygon fill="#63b8ff" stroke="#63b8ff" points="244.59,-171.31 254.16,-175.86 249.51,-166.34 244.59,-171.31"/>
</a>
</g>
</g>
<!-- Node5 -->
<g id="Node000005" class="node">
<title>Node5</title>
<g id="a_Node000005"><a xlink:href="parsec_2ptr_8h.html" target="_top" xlink:title=" ">
<polygon fill="white" stroke="#666666" points="328,-79.5 216,-79.5 216,-60.5 328,-60.5 328,-79.5"/>
<text text-anchor="middle" x="272" y="-67.5" font-family="Times,serif" font-size="10.00">ttg/ttg/parsec/ptr.h</text>
</a>
</g>
</g>
<!-- Node1&#45;&gt;Node5 -->
<g id="edge5_Node000001_Node000005" class="edge">
<title>Node1&#45;&gt;Node5</title>
<g id="a_edge5_Node000001_Node000005"><a xlink:title=" ">
<path fill="none" stroke="#63b8ff" d="M270.41,-165.8C270.86,-139.12 271.55,-97.62 271.85,-79.71"/>
<polygon fill="#63b8ff" stroke="#63b8ff" points="266.91,-165.82 270.24,-175.88 273.9,-165.94 266.91,-165.82"/>
</a>
</g>
</g>
<!-- Node6 -->
<g id="Node000006" class="node">
<title>Node6</title>
<g id="a_Node000006"><a xlink:href="parsec_2task_8h.html" target="_top" xlink:title=" ">
<polygon fill="white" stroke="#666666" points="417.5,-140 298.5,-140 298.5,-121 417.5,-121 417.5,-140"/>
<text text-anchor="middle" x="358" y="-128" font-family="Times,serif" font-size="10.00">ttg/ttg/parsec/task.h</text>
</a>
</g>
</g>
<!-- Node1&#45;&gt;Node6 -->
<g id="edge7_Node000001_Node000006" class="edge">
<title>Node1&#45;&gt;Node6</title>
<g id="a_edge7_Node000001_Node000006"><a xlink:title=" ">
<path fill="none" stroke="#63b8ff" d="M299.99,-170.06C315.35,-159.85 333.26,-147.95 345.07,-140.09"/>
<polygon fill="#63b8ff" stroke="#63b8ff" points="297.69,-167.39 291.3,-175.84 301.57,-173.22 297.69,-167.39"/>
</a>
</g>
</g>
<!-- Node9 -->
<g id="Node000009" class="node">
<title>Node9</title>
<g id="a_Node000009"><a xlink:href="parsec_2ttvalue_8h.html" target="_top" xlink:title=" ">
<polygon fill="white" stroke="#666666" points="693.5,-140 560.5,-140 560.5,-121 693.5,-121 693.5,-140"/>
<text text-anchor="middle" x="627" y="-128" font-family="Times,serif" font-size="10.00">ttg/ttg/parsec/ttvalue.h</text>
</a>
</g>
</g>
<!-- Node1&#45;&gt;Node9 -->
<g id="edge15_Node000001_Node000009" class="edge">
<title>Node1&#45;&gt;Node9</title>
<g id="a_edge15_Node000001_Node000009"><a xlink:title=" ">
<path fill="none" stroke="#63b8ff" d="M331.4,-179.94C400.17,-168.67 510.43,-150.6 575.08,-140.01"/>
<polygon fill="#63b8ff" stroke="#63b8ff" points="330.45,-176.55 321.15,-181.62 331.58,-183.46 330.45,-176.55"/>
</a>
</g>
</g>
<!-- Node3 -->
<g id="Node000003" class="node">
<title>Node3</title>
<g id="a_Node000003"><a xlink:href="parsec__data_8h.html" target="_top" xlink:title=" ">
<polygon fill="white" stroke="#666666" points="122,-85 0,-85 0,-55 122,-55 122,-85"/>
<text text-anchor="start" x="8" y="-73" font-family="Times,serif" font-size="10.00">ttg/ttg/parsec/parsec</text>
<text text-anchor="middle" x="61" y="-62" font-family="Times,serif" font-size="10.00">_data.h</text>
</a>
</g>
</g>
<!-- Node2&#45;&gt;Node3 -->
<g id="edge2_Node000002_Node000003" class="edge">
<title>Node2&#45;&gt;Node3</title>
<g id="a_edge2_Node000002_Node000003"><a xlink:title=" ">
<path fill="none" stroke="#63b8ff" d="M85.56,-112.05C80.42,-103.45 74.29,-93.21 69.44,-85.11"/>
<polygon fill="#63b8ff" stroke="#63b8ff" points="82.7,-114.08 90.84,-120.87 88.7,-110.49 82.7,-114.08"/>
</a>
</g>
</g>
<!-- Node2&#45;&gt;Node4 -->
<g id="edge4_Node000002_Node000004" class="edge">
<title>Node2&#45;&gt;Node4</title>
<g id="a_edge4_Node000002_Node000004"><a xlink:title=" ">
<path fill="none" stroke="#63b8ff" d="M109.33,-112.94C123.66,-96.13 147.94,-70.45 174,-55 203.84,-37.31 241.48,-25.86 270.22,-19.01"/>
<polygon fill="#63b8ff" stroke="#63b8ff" points="106.48,-110.89 102.78,-120.82 111.86,-115.36 106.48,-110.89"/>
</a>
</g>
</g>
<!-- Node3&#45;&gt;Node4 -->
<g id="edge3_Node000003_Node000004" class="edge">
<title>Node3&#45;&gt;Node4</title>
<g id="a_edge3_Node000003_Node000004"><a xlink:title=" ">
<path fill="none" stroke="#63b8ff" d="M131.46,-52.71C178.67,-41.79 238.93,-27.86 277.01,-19.05"/>
<polygon fill="#63b8ff" stroke="#63b8ff" points="130.55,-49.32 121.6,-54.99 132.13,-56.14 130.55,-49.32"/>
</a>
</g>
</g>
<!-- Node5&#45;&gt;Node4 -->
<g id="edge6_Node000005_Node000004" class="edge">
<title>Node5&#45;&gt;Node4</title>
<g id="a_edge6_Node000005_Node000004"><a xlink:title=" ">
<path fill="none" stroke="#63b8ff" d="M284.11,-52.13C291.85,-41.35 301.56,-27.82 307.78,-19.17"/>
<polygon fill="#63b8ff" stroke="#63b8ff" points="281.19,-50.2 278.2,-60.37 286.87,-54.29 281.19,-50.2"/>
</a>
</g>
</g>
<!-- Node6&#45;&gt;Node4 -->
<g id="edge13_Node000006_Node000004" class="edge">
<title>Node6&#45;&gt;Node4</title>
<g id="a_edge13_Node000006_Node000004"><a xlink:title=" ">
<path fill="none" stroke="#63b8ff" d="M353.84,-110.81C350.18,-95.53 344.3,-73.51 337,-55 331.89,-42.06 324.18,-27.91 319.12,-19.12"/>
<polygon fill="#63b8ff" stroke="#63b8ff" points="350.44,-111.64 356.11,-120.59 357.26,-110.06 350.44,-111.64"/>
</a>
</g>
</g>
<!-- Node6&#45;&gt;Node5 -->
<g id="edge12_Node000006_Node000005" class="edge">
<title>Node6&#45;&gt;Node5</title>
<g id="a_edge12_Node000006_Node000005"><a xlink:title=" ">
<path fill="none" stroke="#63b8ff" d="M336.92,-115.16C320.58,-104.05 298.48,-89.01 284.74,-79.67"/>
<polygon fill="#63b8ff" stroke="#63b8ff" points="335.07,-118.14 345.31,-120.87 339.01,-112.35 335.07,-118.14"/>
</a>
</g>
</g>
<!-- Node7 -->
<g id="Node000007" class="node">
<title>Node7</title>
<g id="a_Node000007"><a xlink:href="parsec_2devicefunc_8h.html" target="_top" xlink:title=" ">
<polygon fill="white" stroke="#666666" points="537.5,-79.5 384.5,-79.5 384.5,-60.5 537.5,-60.5 537.5,-79.5"/>
<text text-anchor="middle" x="461" y="-67.5" font-family="Times,serif" font-size="10.00">ttg/ttg/parsec/devicefunc.h</text>
</a>
</g>
</g>
<!-- Node6&#45;&gt;Node7 -->
<g id="edge8_Node000006_Node000007" class="edge">
<title>Node6&#45;&gt;Node7</title>
<g id="a_edge8_Node000006_Node000007"><a xlink:title=" ">
<path fill="none" stroke="#63b8ff" d="M381.9,-115.92C401.59,-104.74 428.9,-89.23 445.74,-79.67"/>
<polygon fill="#63b8ff" stroke="#63b8ff" points="380.16,-112.89 373.2,-120.87 383.62,-118.97 380.16,-112.89"/>
</a>
</g>
</g>
<!-- Node8 -->
<g id="Node000008" class="node">
<title>Node8</title>
<g id="a_Node000008"><a xlink:href="parsec_2devicescratch_8h.html" target="_top" xlink:title=" ">
<polygon fill="white" stroke="#666666" points="722.5,-79.5 555.5,-79.5 555.5,-60.5 722.5,-60.5 722.5,-79.5"/>
<text text-anchor="middle" x="639" y="-67.5" font-family="Times,serif" font-size="10.00">ttg/ttg/parsec/devicescratch.h</text>
</a>
</g>
</g>
<!-- Node6&#45;&gt;Node8 -->
<g id="edge10_Node000006_Node000008" class="edge">
<title>Node6&#45;&gt;Node8</title>
<g id="a_edge10_Node000006_Node000008"><a xlink:title=" ">
<path fill="none" stroke="#63b8ff" d="M408.95,-118.89C463.21,-107.6 548.02,-89.94 598.09,-79.52"/>
<polygon fill="#63b8ff" stroke="#63b8ff" points="407.94,-115.53 398.86,-120.99 409.36,-122.38 407.94,-115.53"/>
</a>
</g>
</g>
<!-- Node7&#45;&gt;Node4 -->
<g id="edge9_Node000007_Node000004" class="edge">
<title>Node7&#45;&gt;Node4</title>
<g id="a_edge9_Node000007_Node000004"><a xlink:title=" ">
<path fill="none" stroke="#63b8ff" d="M430.17,-56.73C401.76,-45.42 360.34,-28.94 335.4,-19.02"/>
<polygon fill="#63b8ff" stroke="#63b8ff" points="429.04,-60.05 439.62,-60.49 431.63,-53.54 429.04,-60.05"/>
</a>
</g>
</g>
<!-- Node8&#45;&gt;Node4 -->
<g id="edge11_Node000008_Node000004" class="edge">
<title>Node8&#45;&gt;Node4</title>
<g id="a_edge11_Node000008_Node000004"><a xlink:title=" ">
<path fill="none" stroke="#63b8ff" d="M581.63,-58.67C518.95,-47.39 419.71,-29.53 361.31,-19.02"/>
<polygon fill="#63b8ff" stroke="#63b8ff" points="581.28,-62.17 591.74,-60.49 582.52,-55.28 581.28,-62.17"/>
</a>
</g>
</g>
<!-- Node9&#45;&gt;Node4 -->
<g id="edge16_Node000009_Node000004" class="edge">
<title>Node9&#45;&gt;Node4</title>
<g id="a_edge16_Node000009_Node000004"><a xlink:title=" ">
<path fill="none" stroke="#63b8ff" d="M686.38,-117.69C704.05,-111.11 721.48,-100.88 732,-85 739.36,-73.88 740.92,-64.91 732,-55 708.24,-28.58 478.72,-16.6 370.25,-12.39"/>
<polygon fill="#63b8ff" stroke="#63b8ff" points="684.94,-114.48 676.58,-120.98 687.17,-121.11 684.94,-114.48"/>
</a>
</g>
</g>
</g>
</svg>
