<?xml version="1.0" encoding="UTF-8" standalone="no"?>
<!DOCTYPE svg PUBLIC "-//W3C//DTD SVG 1.1//EN"
 "http://www.w3.org/Graphics/SVG/1.1/DTD/svg11.dtd">
<!-- Generated by graphviz version 2.43.0 (0)
 -->
<!-- Title: ttg/ttg/parsec/ttg_data_copy.h Pages: 1 -->
<!--zoomable 148 -->

<svg id="main" version="1.1" xmlns="http://www.w3.org/2000/svg" xmlns:xlink="http://www.w3.org/1999/xlink" xml:space="preserve" onload="init(evt)">
<style type="text/css"><![CDATA[
.node, .edge {opacity: 0.7;}
.node.selected, .edge.selected {opacity: 1;}
.edge:hover path { stroke: red; }
.edge:hover polygon { stroke: red; fill: red; }
]]></style>

<defs>
  <circle id="rim" cx="0" cy="0" r="7"/>
  <circle id="rim2" cx="0" cy="0" r="3.5"/>
  <g id="zoomPlus">
    <use xlink:href="#rim" fill="#404040"><set attributeName="fill" to="#808080" begin="zoomplus.mouseover" end="zoomplus.mouseout"/></use>
    <path d="M-4,0h8M0,-4v8" fill="none" stroke="white" stroke-width="1.5" pointer-events="none"/>
  </g>
  <g id="zoomMin">
    <use xlink:href="#rim" fill="#404040"><set attributeName="fill" to="#808080" begin="zoomminus.mouseover" end="zoomminus.mouseout"/></use>
    <path d="M-4,0h8" fill="none" stroke="white" stroke-width="1.5" pointer-events="none"/>
  </g>
  <g id="arrowUp" transform="translate(30 24)">
    <use xlink:href="#rim"/>
    <path pointer-events="none" fill="none" stroke="white" stroke-width="1.5" d="M0,-3.0v7 M-2.5,-0.5L0,-3.0L2.5,-0.5"/>
  </g>
  <g id="arrowRight" transform="rotate(90) translate(36 -43)">
    <use xlink:href="#rim"/>
    <path pointer-events="none" fill="none" stroke="white" stroke-width="1.5" d="M0,-3.0v7 M-2.5,-0.5L0,-3.0L2.5,-0.5"/>
  </g>
  <g id="arrowDown" transform="rotate(180) translate(-30 -48)">
    <use xlink:href="#rim"/>
    <path pointer-events="none" fill="none" stroke="white" stroke-width="1.5" d="M0,-3.0v7 M-2.5,-0.5L0,-3.0L2.5,-0.5"/>
  </g>
  <g id="arrowLeft" transform="rotate(270) translate(-36 17)">
    <use xlink:href="#rim"/>
    <path pointer-events="none" fill="none" stroke="white" stroke-width="1.5" d="M0,-3.0v7 M-2.5,-0.5L0,-3.0L2.5,-0.5"/>
  </g>
  <g id="resetDef">
    <use xlink:href="#rim2" fill="#404040"><set attributeName="fill" to="#808080" begin="reset.mouseover" end="reset.mouseout"/></use>
  </g>
</defs>
<script type="application/ecmascript">
var viewWidth = 959;
var viewHeight = 148;
var sectionId = 'dynsection-0';
</script>
<script type="application/ecmascript" xlink:href="svg.min.js"/>
<svg id="graph" class="graph">
<g id="viewport">
<title>ttg/ttg/parsec/ttg_data_copy.h</title>
<!-- Node1 -->
<g id="Node000001" class="node">
<title>Node1</title>
<g id="a_Node000001"><a xlink:title=" ">
<polygon fill="#999999" stroke="#666666" points="366,-140 264,-140 264,-110 366,-110 366,-140"/>
<text text-anchor="start" x="272" y="-128" font-family="Times,serif" font-size="10.00">ttg/ttg/parsec/ttg</text>
<text text-anchor="middle" x="315" y="-117" font-family="Times,serif" font-size="10.00">_data_copy.h</text>
</a>
</g>
</g>
<!-- Node2 -->
<g id="Node000002" class="node">
<title>Node2</title>
<g id="a_Node000002"><a xlink:title=" ">
<polygon fill="#e0e0e0" stroke="#999999" points="46,-74 0,-74 0,-55 46,-55 46,-74"/>
<text text-anchor="middle" x="23" y="-62" font-family="Times,serif" font-size="10.00">utility</text>
</a>
</g>
</g>
<!-- Node1&#45;&gt;Node2 -->
<g id="edge1_Node000001_Node000002" class="edge">
<title>Node1&#45;&gt;Node2</title>
<g id="a_edge1_Node000001_Node000002"><a xlink:title=" ">
<path fill="none" stroke="#63b8ff" d="M263.96,-115.27C213.54,-106.4 134,-91.76 56.02,-74.1"/>
<polygon fill="#63b8ff" stroke="#63b8ff" points="56.55,-70.63 46.02,-71.82 54.99,-77.46 56.55,-70.63"/>
</a>
</g>
</g>
<!-- Node3 -->
<g id="Node000003" class="node">
<title>Node3</title>
<g id="a_Node000003"><a xlink:title=" ">
<polygon fill="#e0e0e0" stroke="#999999" points="108,-74 64,-74 64,-55 108,-55 108,-74"/>
<text text-anchor="middle" x="86" y="-62" font-family="Times,serif" font-size="10.00">limits</text>
</a>
</g>
</g>
<!-- Node1&#45;&gt;Node3 -->
<g id="edge2_Node000001_Node000003" class="edge">
<title>Node1&#45;&gt;Node3</title>
<g id="a_edge2_Node000001_Node000003"><a xlink:title=" ">
<path fill="none" stroke="#63b8ff" d="M263.65,-111.33C225.9,-101.96 173.11,-88.7 117.96,-74.21"/>
<polygon fill="#63b8ff" stroke="#63b8ff" points="118.56,-70.75 108,-71.59 116.78,-77.52 118.56,-70.75"/>
</a>
</g>
</g>
<!-- Node4 -->
<g id="Node000004" class="node">
<title>Node4</title>
<g id="a_Node000004"><a xlink:title=" ">
<polygon fill="#e0e0e0" stroke="#999999" points="174,-74 126,-74 126,-55 174,-55 174,-74"/>
<text text-anchor="middle" x="150" y="-62" font-family="Times,serif" font-size="10.00">vector</text>
</a>
</g>
</g>
<!-- Node1&#45;&gt;Node4 -->
<g id="edge3_Node000001_Node000004" class="edge">
<title>Node1&#45;&gt;Node4</title>
<g id="a_edge3_Node000001_Node000004"><a xlink:title=" ">
<path fill="none" stroke="#63b8ff" d="M275.48,-109.99C247.58,-100.1 210.59,-86.98 184,-77.56"/>
<polygon fill="#63b8ff" stroke="#63b8ff" points="184.96,-74.18 174.37,-74.14 182.62,-80.78 184.96,-74.18"/>
</a>
</g>
</g>
<!-- Node5 -->
<g id="Node000005" class="node">
<title>Node5</title>
<g id="a_Node000005"><a xlink:title=" ">
<polygon fill="#e0e0e0" stroke="#999999" points="246,-74 192,-74 192,-55 246,-55 246,-74"/>
<text text-anchor="middle" x="219" y="-62" font-family="Times,serif" font-size="10.00">iterator</text>
</a>
</g>
</g>
<!-- Node1&#45;&gt;Node5 -->
<g id="edge4_Node000001_Node000005" class="edge">
<title>Node1&#45;&gt;Node5</title>
<g id="a_edge4_Node000001_Node000005"><a xlink:title=" ">
<path fill="none" stroke="#63b8ff" d="M291.76,-109.84C276.6,-100.6 256.89,-88.59 241.81,-79.4"/>
<polygon fill="#63b8ff" stroke="#63b8ff" points="243.46,-76.31 233.1,-74.09 239.82,-82.29 243.46,-76.31"/>
</a>
</g>
</g>
<!-- Node6 -->
<g id="Node000006" class="node">
<title>Node6</title>
<g id="a_Node000006"><a xlink:title=" ">
<polygon fill="#e0e0e0" stroke="#999999" points="314,-74 264,-74 264,-55 314,-55 314,-74"/>
<text text-anchor="middle" x="289" y="-62" font-family="Times,serif" font-size="10.00">atomic</text>
</a>
</g>
</g>
<!-- Node1&#45;&gt;Node6 -->
<g id="edge5_Node000001_Node000006" class="edge">
<title>Node1&#45;&gt;Node6</title>
<g id="a_edge5_Node000001_Node000006"><a xlink:title=" ">
<path fill="none" stroke="#63b8ff" d="M308.71,-109.84C305.2,-101.95 300.8,-92.05 297.05,-83.61"/>
<polygon fill="#63b8ff" stroke="#63b8ff" points="300.16,-81.98 292.9,-74.27 293.76,-84.83 300.16,-81.98"/>
</a>
</g>
</g>
<!-- Node7 -->
<g id="Node000007" class="node">
<title>Node7</title>
<g id="a_Node000007"><a xlink:title=" ">
<polygon fill="#e0e0e0" stroke="#999999" points="537.5,-19 466.5,-19 466.5,0 537.5,0 537.5,-19"/>
<text text-anchor="middle" x="502" y="-7" font-family="Times,serif" font-size="10.00">type_traits</text>
</a>
</g>
</g>
<!-- Node1&#45;&gt;Node7 -->
<g id="edge6_Node000001_Node000007" class="edge">
<title>Node1&#45;&gt;Node7</title>
<g id="a_edge6_Node000001_Node000007"><a xlink:title=" ">
<path fill="none" stroke="#63b8ff" d="M320.97,-109.73C328.22,-94.11 341.89,-69.35 361,-55 388.81,-34.11 426.69,-22.86 456.19,-16.91"/>
<polygon fill="#63b8ff" stroke="#63b8ff" points="457.06,-20.31 466.24,-15.02 455.77,-13.43 457.06,-20.31"/>
</a>
</g>
</g>
<!-- Node8 -->
<g id="Node000008" class="node">
<title>Node8</title>
<g id="a_Node000008"><a xlink:title=" ">
<polygon fill="#e0e0e0" stroke="#999999" points="430,-74 370,-74 370,-55 430,-55 430,-74"/>
<text text-anchor="middle" x="400" y="-62" font-family="Times,serif" font-size="10.00">parsec.h</text>
</a>
</g>
</g>
<!-- Node1&#45;&gt;Node8 -->
<g id="edge7_Node000001_Node000008" class="edge">
<title>Node1&#45;&gt;Node8</title>
<g id="a_edge7_Node000001_Node000008"><a xlink:title=" ">
<path fill="none" stroke="#63b8ff" d="M335.58,-109.84C348.67,-100.83 365.59,-89.18 378.8,-80.09"/>
<polygon fill="#63b8ff" stroke="#63b8ff" points="381.01,-82.82 387.26,-74.27 377.04,-77.05 381.01,-82.82"/>
</a>
</g>
</g>
<!-- Node9 -->
<g id="Node000009" class="node">
<title>Node9</title>
<g id="a_Node000009"><a xlink:href="thread__local_8h.html" target="_top" xlink:title=" ">
<polygon fill="white" stroke="#666666" points="591.5,-74 448.5,-74 448.5,-55 591.5,-55 591.5,-74"/>
<text text-anchor="middle" x="520" y="-62" font-family="Times,serif" font-size="10.00">ttg/parsec/thread_local.h</text>
</a>
</g>
</g>
<!-- Node1&#45;&gt;Node9 -->
<g id="edge8_Node000001_Node000009" class="edge">
<title>Node1&#45;&gt;Node9</title>
<g id="a_edge8_Node000001_Node000009"><a xlink:title=" ">
<path fill="none" stroke="#63b8ff" d="M364.1,-109.99C399.63,-99.85 447.04,-86.32 480.22,-76.85"/>
<polygon fill="#63b8ff" stroke="#63b8ff" points="481.37,-80.16 490.03,-74.05 479.45,-73.43 481.37,-80.16"/>
</a>
</g>
</g>
<!-- Node10 -->
<g id="Node000010" class="node">
<title>Node10</title>
<g id="a_Node000010"><a xlink:href="parsec-ext_8h.html" target="_top" xlink:title=" ">
<polygon fill="white" stroke="#666666" points="744,-74 610,-74 610,-55 744,-55 744,-74"/>
<text text-anchor="middle" x="677" y="-62" font-family="Times,serif" font-size="10.00">ttg/parsec/parsec&#45;ext.h</text>
</a>
</g>
</g>
<!-- Node1&#45;&gt;Node10 -->
<g id="edge9_Node000001_Node000010" class="edge">
<title>Node1&#45;&gt;Node10</title>
<g id="a_edge9_Node000001_Node000010"><a xlink:title=" ">
<path fill="none" stroke="#63b8ff" d="M366.1,-115.74C431.3,-105.21 544.03,-86.99 614.34,-75.63"/>
<polygon fill="#63b8ff" stroke="#63b8ff" points="615.09,-79.05 624.4,-74 613.97,-72.14 615.09,-79.05"/>
</a>
</g>
</g>
<!-- Node11 -->
<g id="Node000011" class="node">
<title>Node11</title>
<g id="a_Node000011"><a xlink:href="span_8h.html" target="_top" xlink:title=" ">
<polygon fill="white" stroke="#666666" points="850,-74 762,-74 762,-55 850,-55 850,-74"/>
<text text-anchor="middle" x="806" y="-62" font-family="Times,serif" font-size="10.00">ttg/util/span.h</text>
</a>
</g>
</g>
<!-- Node1&#45;&gt;Node11 -->
<g id="edge10_Node000001_Node000011" class="edge">
<title>Node1&#45;&gt;Node11</title>
<g id="a_edge10_Node000001_Node000011"><a xlink:title=" ">
<path fill="none" stroke="#63b8ff" d="M366.01,-118.94C445.96,-110.83 605.9,-93.95 751.75,-74.12"/>
<polygon fill="#63b8ff" stroke="#63b8ff" points="752.34,-77.57 761.78,-72.75 751.39,-70.63 752.34,-77.57"/>
</a>
</g>
</g>
<!-- Node11&#45;&gt;Node7 -->
<g id="edge14_Node000011_Node000007" class="edge">
<title>Node11&#45;&gt;Node7</title>
<g id="a_edge14_Node000011_Node000007"><a xlink:title=" ">
<path fill="none" stroke="#63b8ff" d="M761.8,-55.79C704.63,-45.83 605.55,-28.55 547.67,-18.46"/>
<polygon fill="#63b8ff" stroke="#63b8ff" points="548.16,-15 537.71,-16.73 546.96,-21.89 548.16,-15"/>
</a>
</g>
</g>
<!-- Node12 -->
<g id="Node000012" class="node">
<title>Node12</title>
<g id="a_Node000012"><a xlink:title=" ">
<polygon fill="#e0e0e0" stroke="#999999" points="725,-19 681,-19 681,0 725,0 725,-19"/>
<text text-anchor="middle" x="703" y="-7" font-family="Times,serif" font-size="10.00">array</text>
</a>
</g>
</g>
<!-- Node11&#45;&gt;Node12 -->
<g id="edge11_Node000011_Node000012" class="edge">
<title>Node11&#45;&gt;Node12</title>
<g id="a_edge11_Node000011_Node000012"><a xlink:title=" ">
<path fill="none" stroke="#63b8ff" d="M789.45,-54.98C773.11,-46.57 747.87,-33.59 728.87,-23.81"/>
<polygon fill="#63b8ff" stroke="#63b8ff" points="730.34,-20.63 719.85,-19.17 727.14,-26.86 730.34,-20.63"/>
</a>
</g>
</g>
<!-- Node13 -->
<g id="Node000013" class="node">
<title>Node13</title>
<g id="a_Node000013"><a xlink:title=" ">
<polygon fill="#e0e0e0" stroke="#999999" points="797,-19 743,-19 743,0 797,0 797,-19"/>
<text text-anchor="middle" x="770" y="-7" font-family="Times,serif" font-size="10.00">cstddef</text>
</a>
</g>
</g>
<!-- Node11&#45;&gt;Node13 -->
<g id="edge12_Node000011_Node000013" class="edge">
<title>Node11&#45;&gt;Node13</title>
<g id="a_edge12_Node000011_Node000013"><a xlink:title=" ">
<path fill="none" stroke="#63b8ff" d="M800.06,-54.75C795.02,-47.34 787.66,-36.5 781.49,-27.41"/>
<polygon fill="#63b8ff" stroke="#63b8ff" points="784.35,-25.39 775.83,-19.09 778.56,-29.33 784.35,-25.39"/>
</a>
</g>
</g>
<!-- Node14 -->
<g id="Node000014" class="node">
<title>Node14</title>
<g id="a_Node000014"><a xlink:title=" ">
<polygon fill="#e0e0e0" stroke="#999999" points="866.5,-19 815.5,-19 815.5,0 866.5,0 866.5,-19"/>
<text text-anchor="middle" x="841" y="-7" font-family="Times,serif" font-size="10.00">cstdint</text>
</a>
</g>
</g>
<!-- Node11&#45;&gt;Node14 -->
<g id="edge13_Node000011_Node000014" class="edge">
<title>Node11&#45;&gt;Node14</title>
<g id="a_edge13_Node000011_Node000014"><a xlink:title=" ">
<path fill="none" stroke="#63b8ff" d="M811.78,-54.75C816.62,-47.42 823.68,-36.73 829.64,-27.7"/>
<polygon fill="#63b8ff" stroke="#63b8ff" points="832.74,-29.36 835.33,-19.09 826.9,-25.5 832.74,-29.36"/>
</a>
</g>
</g>
<!-- Node15 -->
<g id="Node000015" class="node">
<title>Node15</title>
<g id="a_Node000015"><a xlink:title=" ">
<polygon fill="#e0e0e0" stroke="#999999" points="951,-19 885,-19 885,0 951,0 951,-19"/>
<text text-anchor="middle" x="918" y="-7" font-family="Times,serif" font-size="10.00">exception</text>
</a>
</g>
</g>
<!-- Node11&#45;&gt;Node15 -->
<g id="edge15_Node000011_Node000015" class="edge">
<title>Node11&#45;&gt;Node15</title>
<g id="a_edge15_Node000011_Node000015"><a xlink:title=" ">
<path fill="none" stroke="#63b8ff" d="M823.99,-54.98C841.93,-46.5 869.72,-33.35 890.43,-23.54"/>
<polygon fill="#63b8ff" stroke="#63b8ff" points="892.14,-26.61 899.68,-19.17 889.14,-20.28 892.14,-26.61"/>
</a>
</g>
</g>
</g>
</svg>

<g id="navigator" transform="translate(0 0)" fill="#404254">
  <rect fill="#f2f5e9" fill-opacity="0.5" stroke="#606060" stroke-width=".5" x="0" y="0" width="60" height="60"/>
  <use id="zoomplus" xlink:href="#zoomPlus" x="17" y="9" onmousedown="handleZoom(evt,'in')"/>
  <use id="zoomminus" xlink:href="#zoomMin" x="42" y="9" onmousedown="handleZoom(evt,'out')"/>
  <use id="reset" xlink:href="#resetDef" x="30" y="36" onmousedown="handleReset()"/>
   <use id="arrowup" xlink:href="#arrowUp" x="0" y="0" onmousedown="handlePan(0,-1)"/>
  <use id="arrowright" xlink:href="#arrowRight" x="0" y="0" onmousedown="handlePan(1,0)"/>
  <use id="arrowdown" xlink:href="#arrowDown" x="0" y="0" onmousedown="handlePan(0,1)"/>
  <use id="arrowleft" xlink:href="#arrowLeft" x="0" y="0" onmousedown="handlePan(-1,0)"/>
</g>
<svg viewBox="0 0 15 15" width="100%" height="30px" preserveAspectRatio="xMaxYMin meet">
 <g id="arrow_out" transform="scale(0.3 0.3)">
  <a xlink:href="ttg__data__copy_8h__incl_org.svg" target="_base">
   <rect id="button" ry="5" rx="5" y="6" x="6" height="38" width="38"
        fill="#f2f5e9" fill-opacity="0.5" stroke="#606060" stroke-width="1.0"/>
   <path id="arrow"
     d="M 11.500037,31.436501 C 11.940474,20.09759 22.043105,11.32322 32.158766,21.979434 L 37.068811,17.246167 C 37.068811,17.246167 37.088388,32 37.088388,32 L 22.160133,31.978069 C 22.160133,31.978069 26.997745,27.140456 26.997745,27.140456 C 18.528582,18.264221 13.291696,25.230495 11.500037,31.436501 z"
     style="fill:#404040;"/>
  </a>
 </g>
</svg>

<style type='text/css'>
<![CDATA[
[data-mouse-over-selected='false'] { opacity: 0.7; }
[data-mouse-over-selected='true']  { opacity: 1.0; }
]]>
</style>
<script type="application/ecmascript"><![CDATA[
document.addEventListener('DOMContentLoaded', (event) => {
  highlightEdges();
  highlightAdjacentNodes();
});
]]></script>
</svg>
