<?xml version="1.0" encoding="UTF-8" standalone="no"?>
<!DOCTYPE svg PUBLIC "-//W3C//DTD SVG 1.1//EN"
 "http://www.w3.org/Graphics/SVG/1.1/DTD/svg11.dtd">
<!-- Generated by graphviz version 2.43.0 (0)
 -->
<!-- Title: ttg/ttg/external/boost/callable_traits/detail/unguarded/function.hpp Pages: 1 -->
<svg width="196pt" height="181pt"
 viewBox="0.00 0.00 196.00 181.00" xmlns="http://www.w3.org/2000/svg" xmlns:xlink="http://www.w3.org/1999/xlink">
<g id="graph0" class="graph" transform="scale(1 1) rotate(0) translate(4 177)">
<title>ttg/ttg/external/boost/callable_traits/detail/unguarded/function.hpp</title>
<!-- Node1 -->
<g id="Node000001" class="node">
<title>Node1</title>
<g id="a_Node000001"><a xlink:title=" ">
<polygon fill="#999999" stroke="#666666" points="166.5,-173 21.5,-173 21.5,-132 166.5,-132 166.5,-173"/>
<text text-anchor="start" x="29.5" y="-161" font-family="Times,serif" font-size="10.00">ttg/ttg/external/boost</text>
<text text-anchor="start" x="29.5" y="-150" font-family="Times,serif" font-size="10.00">/callable_traits/detail</text>
<text text-anchor="middle" x="94" y="-139" font-family="Times,serif" font-size="10.00">/unguarded/function.hpp</text>
</a>
</g>
</g>
<!-- Node2 -->
<g id="Node000002" class="node">
<title>Node2</title>
<g id="a_Node000002"><a xlink:href="function__2_8hpp.html" target="_top" xlink:title=" ">
<polygon fill="white" stroke="#666666" points="188,-96 0,-96 0,-66 188,-66 188,-96"/>
<text text-anchor="start" x="8" y="-84" font-family="Times,serif" font-size="10.00">boost/callable_traits</text>
<text text-anchor="middle" x="94" y="-73" font-family="Times,serif" font-size="10.00">/detail/unguarded/function_2.hpp</text>
</a>
</g>
</g>
<!-- Node1&#45;&gt;Node2 -->
<g id="edge1_Node000001_Node000002" class="edge">
<title>Node1&#45;&gt;Node2</title>
<g id="a_edge1_Node000001_Node000002"><a xlink:title=" ">
<path fill="none" stroke="#63b8ff" d="M94,-131.77C94,-123.85 94,-114.63 94,-106.3"/>
<polygon fill="#63b8ff" stroke="#63b8ff" points="97.5,-106.04 94,-96.04 90.5,-106.04 97.5,-106.04"/>
</a>
</g>
</g>
<!-- Node3 -->
<g id="Node000003" class="node">
<title>Node3</title>
<g id="a_Node000003"><a xlink:href="function__3_8hpp.html" target="_top" xlink:title=" ">
<polygon fill="white" stroke="#666666" points="188,-30 0,-30 0,0 188,0 188,-30"/>
<text text-anchor="start" x="8" y="-18" font-family="Times,serif" font-size="10.00">boost/callable_traits</text>
<text text-anchor="middle" x="94" y="-7" font-family="Times,serif" font-size="10.00">/detail/unguarded/function_3.hpp</text>
</a>
</g>
</g>
<!-- Node2&#45;&gt;Node3 -->
<g id="edge2_Node000002_Node000003" class="edge">
<title>Node2&#45;&gt;Node3</title>
<g id="a_edge2_Node000002_Node000003"><a xlink:title=" ">
<path fill="none" stroke="#63b8ff" d="M94,-65.8C94,-58.34 94,-48.99 94,-40.41"/>
<polygon fill="#63b8ff" stroke="#63b8ff" points="97.5,-40.16 94,-30.16 90.5,-40.16 97.5,-40.16"/>
</a>
</g>
</g>
</g>
</svg>
