<?xml version="1.0" encoding="UTF-8" standalone="no"?>
<!DOCTYPE svg PUBLIC "-//W3C//DTD SVG 1.1//EN"
 "http://www.w3.org/Graphics/SVG/1.1/DTD/svg11.dtd">
<!-- Generated by graphviz version 2.43.0 (0)
 -->
<!-- Title: ttg/ttg/util/env.h Pages: 1 -->
<svg width="1332pt" height="544pt"
 viewBox="0.00 0.00 1332.00 544.00" xmlns="http://www.w3.org/2000/svg" xmlns:xlink="http://www.w3.org/1999/xlink">
<g id="graph0" class="graph" transform="scale(1 1) rotate(0) translate(4 540)">
<title>ttg/ttg/util/env.h</title>
<!-- Node1 -->
<g id="Node000001" class="node">
<title>Node1</title>
<g id="a_Node000001"><a xlink:title=" ">
<polygon fill="#999999" stroke="#666666" points="788,-536 690,-536 690,-517 788,-517 788,-536"/>
<text text-anchor="middle" x="739" y="-524" font-family="Times,serif" font-size="10.00">ttg/ttg/util/env.h</text>
</a>
</g>
</g>
<!-- Node2 -->
<g id="Node000002" class="node">
<title>Node2</title>
<g id="a_Node000002"><a xlink:href="ttg_2madness_2ttg_8h.html" target="_top" xlink:title=" ">
<polygon fill="white" stroke="#666666" points="1324,-30 1200,-30 1200,-11 1324,-11 1324,-30"/>
<text text-anchor="middle" x="1262" y="-18" font-family="Times,serif" font-size="10.00">ttg/ttg/madness/ttg.h</text>
</a>
</g>
</g>
<!-- Node1&#45;&gt;Node2 -->
<g id="edge1_Node000001_Node000002" class="edge">
<title>Node1&#45;&gt;Node2</title>
<g id="a_edge1_Node000001_Node000002"><a xlink:title=" ">
<path fill="none" stroke="#63b8ff" d="M748.21,-507.86C758.28,-486.9 773,-450.61 773,-417.5 773,-417.5 773,-417.5 773,-140.5 773,-45.02 1098.5,-64.7 1191,-41 1204.37,-37.57 1219.1,-33.57 1231.66,-30.08"/>
<polygon fill="#63b8ff" stroke="#63b8ff" points="745.07,-506.32 743.73,-516.83 751.33,-509.45 745.07,-506.32"/>
</a>
</g>
</g>
<!-- Node3 -->
<g id="Node000003" class="node">
<title>Node3</title>
<g id="a_Node000003"><a xlink:href="ttg_2parsec_2ttg_8h.html" target="_top" xlink:title=" ">
<polygon fill="white" stroke="#666666" points="112,-30 0,-30 0,-11 112,-11 112,-30"/>
<text text-anchor="middle" x="56" y="-18" font-family="Times,serif" font-size="10.00">ttg/ttg/parsec/ttg.h</text>
</a>
</g>
</g>
<!-- Node1&#45;&gt;Node3 -->
<g id="edge2_Node000001_Node000003" class="edge">
<title>Node1&#45;&gt;Node3</title>
<g id="a_edge2_Node000001_Node000003"><a xlink:title=" ">
<path fill="none" stroke="#63b8ff" d="M679.85,-522.34C513.9,-512.7 56,-480.41 56,-417.5 56,-417.5 56,-417.5 56,-140.5 56,-99.18 56,-49.79 56,-30.16"/>
<polygon fill="#63b8ff" stroke="#63b8ff" points="679.7,-525.84 689.88,-522.92 680.1,-518.85 679.7,-525.84"/>
</a>
</g>
</g>
<!-- Node4 -->
<g id="Node000004" class="node">
<title>Node4</title>
<g id="a_Node000004"><a xlink:href="run_8h.html" target="_top" xlink:title=" ">
<polygon fill="white" stroke="#666666" points="744.5,-481 665.5,-481 665.5,-462 744.5,-462 744.5,-481"/>
<text text-anchor="middle" x="705" y="-469" font-family="Times,serif" font-size="10.00">ttg/ttg/run.h</text>
</a>
</g>
</g>
<!-- Node1&#45;&gt;Node4 -->
<g id="edge3_Node000001_Node000004" class="edge">
<title>Node1&#45;&gt;Node4</title>
<g id="a_edge3_Node000001_Node000004"><a xlink:title=" ">
<path fill="none" stroke="#63b8ff" d="M727.84,-508.1C722.03,-499.04 715.18,-488.37 710.51,-481.09"/>
<polygon fill="#63b8ff" stroke="#63b8ff" points="725.04,-510.22 733.39,-516.75 730.93,-506.44 725.04,-510.22"/>
</a>
</g>
</g>
<!-- Node20 -->
<g id="Node000020" class="node">
<title>Node20</title>
<g id="a_Node000020"><a xlink:href="env_8cpp.html" target="_top" xlink:title=" ">
<polygon fill="white" stroke="#666666" points="911,-481 801,-481 801,-462 911,-462 911,-481"/>
<text text-anchor="middle" x="856" y="-469" font-family="Times,serif" font-size="10.00">ttg/ttg/util/env.cpp</text>
</a>
</g>
</g>
<!-- Node1&#45;&gt;Node20 -->
<g id="edge37_Node000001_Node000020" class="edge">
<title>Node1&#45;&gt;Node20</title>
<g id="a_edge37_Node000001_Node000020"><a xlink:title=" ">
<path fill="none" stroke="#63b8ff" d="M767.11,-512.77C788.69,-502.99 817.91,-489.75 836.86,-481.17"/>
<polygon fill="#63b8ff" stroke="#63b8ff" points="765.46,-509.67 757.8,-516.98 768.35,-516.05 765.46,-509.67"/>
</a>
</g>
</g>
<!-- Node5 -->
<g id="Node000005" class="node">
<title>Node5</title>
<g id="a_Node000005"><a xlink:href="ttg_8h.html" target="_top" xlink:title=" ">
<polygon fill="white" stroke="#666666" points="616,-96 558,-96 558,-77 616,-77 616,-96"/>
<text text-anchor="middle" x="587" y="-84" font-family="Times,serif" font-size="10.00">ttg/ttg.h</text>
</a>
</g>
</g>
<!-- Node4&#45;&gt;Node5 -->
<g id="edge4_Node000004_Node000005" class="edge">
<title>Node4&#45;&gt;Node5</title>
<g id="a_edge4_Node000004_Node000005"><a xlink:title=" ">
<path fill="none" stroke="#63b8ff" d="M709.18,-451.87C713.62,-430.44 720,-394.11 720,-362.5 720,-362.5 720,-362.5 720,-195.5 720,-141.66 653.51,-109.97 614.56,-96.02"/>
<polygon fill="#63b8ff" stroke="#63b8ff" points="705.71,-451.36 707.02,-461.88 712.55,-452.84 705.71,-451.36"/>
</a>
</g>
</g>
<!-- Node13 -->
<g id="Node000013" class="node">
<title>Node13</title>
<g id="a_Node000013"><a xlink:href="terminal_8h.html" target="_top" xlink:title=" ">
<polygon fill="white" stroke="#666666" points="528,-426 424,-426 424,-407 528,-407 528,-426"/>
<text text-anchor="middle" x="476" y="-414" font-family="Times,serif" font-size="10.00">ttg/ttg/terminal.h</text>
</a>
</g>
</g>
<!-- Node4&#45;&gt;Node13 -->
<g id="edge14_Node000004_Node000013" class="edge">
<title>Node4&#45;&gt;Node13</title>
<g id="a_edge14_Node000004_Node000013"><a xlink:title=" ">
<path fill="none" stroke="#63b8ff" d="M658.29,-459.69C615.39,-449.76 552.64,-435.24 513.08,-426.08"/>
<polygon fill="#63b8ff" stroke="#63b8ff" points="657.68,-463.14 668.21,-461.98 659.25,-456.32 657.68,-463.14"/>
</a>
</g>
</g>
<!-- Node5&#45;&gt;Node2 -->
<g id="edge12_Node000005_Node000002" class="edge">
<title>Node5&#45;&gt;Node2</title>
<g id="a_edge12_Node000005_Node000002"><a xlink:title=" ">
<path fill="none" stroke="#63b8ff" d="M626.13,-77.54C627.43,-77.35 628.73,-77.17 630,-77 877.75,-44.71 944.59,-82.3 1191,-41 1206.13,-38.46 1222.67,-34.02 1235.99,-30.02"/>
<polygon fill="#63b8ff" stroke="#63b8ff" points="625.35,-74.12 616.06,-79.22 626.5,-81.03 625.35,-74.12"/>
</a>
</g>
</g>
<!-- Node5&#45;&gt;Node3 -->
<g id="edge13_Node000005_Node000003" class="edge">
<title>Node5&#45;&gt;Node3</title>
<g id="a_edge13_Node000005_Node000003"><a xlink:title=" ">
<path fill="none" stroke="#63b8ff" d="M547.86,-77.58C546.56,-77.37 545.27,-77.18 544,-77 357.17,-50.67 306.35,-76.3 121,-41 107.23,-38.38 92.21,-33.98 80.09,-30.02"/>
<polygon fill="#63b8ff" stroke="#63b8ff" points="547.48,-81.06 557.93,-79.3 548.67,-74.16 547.48,-81.06"/>
</a>
</g>
</g>
<!-- Node6 -->
<g id="Node000006" class="node">
<title>Node6</title>
<g id="a_Node000006"><a xlink:href="fibonacci_8cc.html" target="_top" xlink:title=" ">
<polygon fill="white" stroke="#666666" points="1182,-35.5 1054,-35.5 1054,-5.5 1182,-5.5 1182,-35.5"/>
<text text-anchor="start" x="1062" y="-23.5" font-family="Times,serif" font-size="10.00">doc/dox/dev/devsamp</text>
<text text-anchor="middle" x="1118" y="-12.5" font-family="Times,serif" font-size="10.00">/fibonacci/fibonacci.cc</text>
</a>
</g>
</g>
<!-- Node5&#45;&gt;Node6 -->
<g id="edge5_Node000005_Node000006" class="edge">
<title>Node5&#45;&gt;Node6</title>
<g id="a_edge5_Node000005_Node000006"><a xlink:title=" ">
<path fill="none" stroke="#63b8ff" d="M626.14,-77.58C627.44,-77.37 628.73,-77.18 630,-77 813.3,-51.01 862.65,-73.01 1045,-41 1053.27,-39.55 1061.97,-37.6 1070.36,-35.5"/>
<polygon fill="#63b8ff" stroke="#63b8ff" points="625.33,-74.16 616.07,-79.31 626.52,-81.06 625.33,-74.16"/>
</a>
</g>
</g>
<!-- Node7 -->
<g id="Node000007" class="node">
<title>Node7</title>
<g id="a_Node000007"><a xlink:href="fibonacci__device_8cc.html" target="_top" xlink:title=" ">
<polygon fill="white" stroke="#666666" points="258,-41 130,-41 130,0 258,0 258,-41"/>
<text text-anchor="start" x="138" y="-29" font-family="Times,serif" font-size="10.00">doc/dox/dev/devsamp</text>
<text text-anchor="start" x="138" y="-18" font-family="Times,serif" font-size="10.00">/fibonacci/fibonacci</text>
<text text-anchor="middle" x="194" y="-7" font-family="Times,serif" font-size="10.00">_device.cc</text>
</a>
</g>
</g>
<!-- Node5&#45;&gt;Node7 -->
<g id="edge6_Node000005_Node000007" class="edge">
<title>Node5&#45;&gt;Node7</title>
<g id="a_edge6_Node000005_Node000007"><a xlink:title=" ">
<path fill="none" stroke="#63b8ff" d="M547.85,-77.65C546.55,-77.42 545.27,-77.21 544,-77 421.48,-56.95 388.79,-65.07 267,-41 264.17,-40.44 261.29,-39.83 258.38,-39.19"/>
<polygon fill="#63b8ff" stroke="#63b8ff" points="547.44,-81.13 557.9,-79.48 548.69,-74.24 547.44,-81.13"/>
</a>
</g>
</g>
<!-- Node8 -->
<g id="Node000008" class="node">
<title>Node8</title>
<g id="a_Node000008"><a xlink:href="helloworld_8cpp.html" target="_top" xlink:title=" ">
<polygon fill="white" stroke="#666666" points="427.5,-35.5 276.5,-35.5 276.5,-5.5 427.5,-5.5 427.5,-35.5"/>
<text text-anchor="start" x="284.5" y="-23.5" font-family="Times,serif" font-size="10.00">doc/dox/dev/devsamp</text>
<text text-anchor="middle" x="352" y="-12.5" font-family="Times,serif" font-size="10.00">/helloworld/helloworld.cpp</text>
</a>
</g>
</g>
<!-- Node5&#45;&gt;Node8 -->
<g id="edge7_Node000005_Node000008" class="edge">
<title>Node5&#45;&gt;Node8</title>
<g id="a_edge7_Node000005_Node000008"><a xlink:title=" ">
<path fill="none" stroke="#63b8ff" d="M547.91,-74.86C508.4,-64.09 447.11,-47.4 403.62,-35.56"/>
<polygon fill="#63b8ff" stroke="#63b8ff" points="547.14,-78.27 557.71,-77.52 548.98,-71.52 547.14,-78.27"/>
</a>
</g>
</g>
<!-- Node9 -->
<g id="Node000009" class="node">
<title>Node9</title>
<g id="a_Node000009"><a xlink:href="distributed_8cc.html" target="_top" xlink:title=" ">
<polygon fill="white" stroke="#666666" points="580,-35.5 446,-35.5 446,-5.5 580,-5.5 580,-35.5"/>
<text text-anchor="start" x="454" y="-23.5" font-family="Times,serif" font-size="10.00">doc/dox/user/examples</text>
<text text-anchor="middle" x="513" y="-12.5" font-family="Times,serif" font-size="10.00">/distributed.cc</text>
</a>
</g>
</g>
<!-- Node5&#45;&gt;Node9 -->
<g id="edge8_Node000005_Node000009" class="edge">
<title>Node5&#45;&gt;Node9</title>
<g id="a_edge8_Node000005_Node000009"><a xlink:title=" ">
<path fill="none" stroke="#63b8ff" d="M569.33,-70.21C557.18,-59.71 541.17,-45.86 529.32,-35.62"/>
<polygon fill="#63b8ff" stroke="#63b8ff" points="567.17,-72.97 577.02,-76.87 571.75,-67.68 567.17,-72.97"/>
</a>
</g>
</g>
<!-- Node10 -->
<g id="Node000010" class="node">
<title>Node10</title>
<g id="a_Node000010"><a xlink:href="iterative_8cc.html" target="_top" xlink:title=" ">
<polygon fill="white" stroke="#666666" points="732,-35.5 598,-35.5 598,-5.5 732,-5.5 732,-35.5"/>
<text text-anchor="start" x="606" y="-23.5" font-family="Times,serif" font-size="10.00">doc/dox/user/examples</text>
<text text-anchor="middle" x="665" y="-12.5" font-family="Times,serif" font-size="10.00">/iterative.cc</text>
</a>
</g>
</g>
<!-- Node5&#45;&gt;Node10 -->
<g id="edge9_Node000005_Node000010" class="edge">
<title>Node5&#45;&gt;Node10</title>
<g id="a_edge9_Node000005_Node000010"><a xlink:title=" ">
<path fill="none" stroke="#63b8ff" d="M605.26,-70.52C618.11,-59.98 635.19,-45.96 647.8,-35.62"/>
<polygon fill="#63b8ff" stroke="#63b8ff" points="603.03,-67.82 597.52,-76.87 607.47,-73.23 603.03,-67.82"/>
</a>
</g>
</g>
<!-- Node11 -->
<g id="Node000011" class="node">
<title>Node11</title>
<g id="a_Node000011"><a xlink:href="reducing_8cc.html" target="_top" xlink:title=" ">
<polygon fill="white" stroke="#666666" points="884,-35.5 750,-35.5 750,-5.5 884,-5.5 884,-35.5"/>
<text text-anchor="start" x="758" y="-23.5" font-family="Times,serif" font-size="10.00">doc/dox/user/examples</text>
<text text-anchor="middle" x="817" y="-12.5" font-family="Times,serif" font-size="10.00">/reducing.cc</text>
</a>
</g>
</g>
<!-- Node5&#45;&gt;Node11 -->
<g id="edge10_Node000005_Node000011" class="edge">
<title>Node5&#45;&gt;Node11</title>
<g id="a_edge10_Node000005_Node000011"><a xlink:title=" ">
<path fill="none" stroke="#63b8ff" d="M625.96,-74.66C664.59,-63.91 723.96,-47.39 766.26,-35.62"/>
<polygon fill="#63b8ff" stroke="#63b8ff" points="624.83,-71.34 616.13,-77.39 626.7,-78.09 624.83,-71.34"/>
</a>
</g>
</g>
<!-- Node12 -->
<g id="Node000012" class="node">
<title>Node12</title>
<g id="a_Node000012"><a xlink:href="simple_8cc.html" target="_top" xlink:title=" ">
<polygon fill="white" stroke="#666666" points="1036,-35.5 902,-35.5 902,-5.5 1036,-5.5 1036,-35.5"/>
<text text-anchor="start" x="910" y="-23.5" font-family="Times,serif" font-size="10.00">doc/dox/user/examples</text>
<text text-anchor="middle" x="969" y="-12.5" font-family="Times,serif" font-size="10.00">/simple.cc</text>
</a>
</g>
</g>
<!-- Node5&#45;&gt;Node12 -->
<g id="edge11_Node000005_Node000012" class="edge">
<title>Node5&#45;&gt;Node12</title>
<g id="a_edge11_Node000005_Node000012"><a xlink:title=" ">
<path fill="none" stroke="#63b8ff" d="M626.15,-77.66C627.45,-77.43 628.73,-77.21 630,-77 746.36,-57.55 777.23,-63.7 893,-41 901.02,-39.43 909.46,-37.52 917.67,-35.52"/>
<polygon fill="#63b8ff" stroke="#63b8ff" points="625.3,-74.26 616.1,-79.51 626.57,-81.14 625.3,-74.26"/>
</a>
</g>
</g>
<!-- Node13&#45;&gt;Node3 -->
<g id="edge36_Node000013_Node000003" class="edge">
<title>Node13&#45;&gt;Node3</title>
<g id="a_edge36_Node000013_Node000003"><a xlink:title=" ">
<path fill="none" stroke="#63b8ff" d="M413.54,-410.78C305.22,-400.86 94,-373.1 94,-307.5 94,-307.5 94,-307.5 94,-140.5 94,-97.34 71.04,-49.37 60.81,-30.15"/>
<polygon fill="#63b8ff" stroke="#63b8ff" points="413.41,-414.28 423.69,-411.68 414.04,-407.31 413.41,-414.28"/>
</a>
</g>
</g>
<!-- Node14 -->
<g id="Node000014" class="node">
<title>Node14</title>
<g id="a_Node000014"><a xlink:href="edge_8h.html" target="_top" xlink:title=" ">
<polygon fill="white" stroke="#666666" points="462,-371 376,-371 376,-352 462,-352 462,-371"/>
<text text-anchor="middle" x="419" y="-359" font-family="Times,serif" font-size="10.00">ttg/ttg/edge.h</text>
</a>
</g>
</g>
<!-- Node13&#45;&gt;Node14 -->
<g id="edge15_Node000013_Node000014" class="edge">
<title>Node13&#45;&gt;Node14</title>
<g id="a_edge15_Node000013_Node000014"><a xlink:title=" ">
<path fill="none" stroke="#63b8ff" d="M459.38,-400.04C449.27,-390.64 436.72,-378.98 428.32,-371.17"/>
<polygon fill="#63b8ff" stroke="#63b8ff" points="457.14,-402.74 466.84,-406.98 461.9,-397.61 457.14,-402.74"/>
</a>
</g>
</g>
<!-- Node15 -->
<g id="Node000015" class="node">
<title>Node15</title>
<g id="a_Node000015"><a xlink:href="func_8h.html" target="_top" xlink:title=" ">
<polygon fill="white" stroke="#666666" points="582.5,-206 499.5,-206 499.5,-187 582.5,-187 582.5,-206"/>
<text text-anchor="middle" x="541" y="-194" font-family="Times,serif" font-size="10.00">ttg/ttg/func.h</text>
</a>
</g>
</g>
<!-- Node13&#45;&gt;Node15 -->
<g id="edge35_Node000013_Node000015" class="edge">
<title>Node13&#45;&gt;Node15</title>
<g id="a_edge35_Node000013_Node000015"><a xlink:title=" ">
<path fill="none" stroke="#63b8ff" d="M481.68,-397.24C490.63,-368.37 508.49,-310.37 523,-261 528.75,-241.43 535.21,-218.38 538.61,-206.14"/>
<polygon fill="#63b8ff" stroke="#63b8ff" points="478.33,-396.22 478.71,-406.81 485.02,-398.29 478.33,-396.22"/>
</a>
</g>
</g>
<!-- Node14&#45;&gt;Node3 -->
<g id="edge23_Node000014_Node000003" class="edge">
<title>Node14&#45;&gt;Node3</title>
<g id="a_edge23_Node000014_Node000003"><a xlink:title=" ">
<path fill="none" stroke="#63b8ff" d="M365.71,-351.68C282.71,-336.41 132,-301.88 132,-252.5 132,-252.5 132,-252.5 132,-140.5 132,-92.45 87.45,-48.22 66.57,-30.13"/>
<polygon fill="#63b8ff" stroke="#63b8ff" points="365.26,-355.15 375.72,-353.49 366.5,-348.26 365.26,-355.15"/>
</a>
</g>
</g>
<!-- Node14&#45;&gt;Node5 -->
<g id="edge16_Node000014_Node000005" class="edge">
<title>Node14&#45;&gt;Node5</title>
<g id="a_edge16_Node000014_Node000005"><a xlink:title=" ">
<path fill="none" stroke="#63b8ff" d="M394.87,-346.72C333.85,-310.21 182.87,-208.58 250,-132 270.21,-108.95 479.55,-94.01 557.75,-89.19"/>
<polygon fill="#63b8ff" stroke="#63b8ff" points="393.12,-349.75 403.51,-351.81 396.68,-343.72 393.12,-349.75"/>
</a>
</g>
</g>
<!-- Node14&#45;&gt;Node15 -->
<g id="edge17_Node000014_Node000015" class="edge">
<title>Node14&#45;&gt;Node15</title>
<g id="a_edge17_Node000014_Node000015"><a xlink:title=" ">
<path fill="none" stroke="#63b8ff" d="M435.72,-344.61C444,-336.4 453.93,-326.02 462,-316 493.18,-277.3 524.1,-226.32 535.94,-206.2"/>
<polygon fill="#63b8ff" stroke="#63b8ff" points="433.12,-342.26 428.4,-351.74 438.01,-347.27 433.12,-342.26"/>
</a>
</g>
</g>
<!-- Node17 -->
<g id="Node000017" class="node">
<title>Node17</title>
<g id="a_Node000017"><a xlink:href="tt_8h.html" target="_top" xlink:title=" ">
<polygon fill="white" stroke="#666666" points="453,-316 385,-316 385,-297 453,-297 453,-316"/>
<text text-anchor="middle" x="419" y="-304" font-family="Times,serif" font-size="10.00">ttg/ttg/tt.h</text>
</a>
</g>
</g>
<!-- Node14&#45;&gt;Node17 -->
<g id="edge24_Node000014_Node000017" class="edge">
<title>Node14&#45;&gt;Node17</title>
<g id="a_edge24_Node000014_Node000017"><a xlink:title=" ">
<path fill="none" stroke="#63b8ff" d="M419,-341.66C419,-332.93 419,-322.99 419,-316.09"/>
<polygon fill="#63b8ff" stroke="#63b8ff" points="415.5,-341.75 419,-351.75 422.5,-341.75 415.5,-341.75"/>
</a>
</g>
</g>
<!-- Node15&#45;&gt;Node2 -->
<g id="edge21_Node000015_Node000002" class="edge">
<title>Node15&#45;&gt;Node2</title>
<g id="a_edge21_Node000015_Node000002"><a xlink:title=" ">
<path fill="none" stroke="#63b8ff" d="M561.88,-180.78C573.23,-172.47 587.29,-161.64 599,-151 632.29,-120.77 627.4,-96.34 668,-77 773.17,-26.9 1076.15,-60.52 1191,-41 1206,-38.45 1222.39,-34.06 1235.65,-30.09"/>
<polygon fill="#63b8ff" stroke="#63b8ff" points="559.53,-178.17 553.47,-186.86 563.62,-183.84 559.53,-178.17"/>
</a>
</g>
</g>
<!-- Node15&#45;&gt;Node3 -->
<g id="edge22_Node000015_Node000003" class="edge">
<title>Node15&#45;&gt;Node3</title>
<g id="a_edge22_Node000015_Node000003"><a xlink:title=" ">
<path fill="none" stroke="#63b8ff" d="M549.51,-177.1C554.53,-163.22 558.12,-144.5 548,-132 425.93,18.83 308.97,-89.14 121,-41 108.33,-37.76 94.43,-33.66 82.74,-30.06"/>
<polygon fill="#63b8ff" stroke="#63b8ff" points="546.18,-176 545.6,-186.58 552.65,-178.67 546.18,-176"/>
</a>
</g>
</g>
<!-- Node15&#45;&gt;Node5 -->
<g id="edge18_Node000015_Node000005" class="edge">
<title>Node15&#45;&gt;Node5</title>
<g id="a_edge18_Node000015_Node000005"><a xlink:title=" ">
<path fill="none" stroke="#63b8ff" d="M559.85,-180.29C568.14,-172.48 577.1,-162.24 582,-151 589.96,-132.76 589.2,-108.77 588.04,-96.14"/>
<polygon fill="#63b8ff" stroke="#63b8ff" points="557.44,-177.75 552.26,-187 562.07,-183 557.44,-177.75"/>
</a>
</g>
</g>
<!-- Node16 -->
<g id="Node000016" class="node">
<title>Node16</title>
<g id="a_Node000016"><a xlink:href="broadcast_8h.html" target="_top" xlink:title=" ">
<polygon fill="white" stroke="#666666" points="539.5,-151 428.5,-151 428.5,-132 539.5,-132 539.5,-151"/>
<text text-anchor="middle" x="484" y="-139" font-family="Times,serif" font-size="10.00">ttg/ttg/broadcast.h</text>
</a>
</g>
</g>
<!-- Node15&#45;&gt;Node16 -->
<g id="edge19_Node000015_Node000016" class="edge">
<title>Node15&#45;&gt;Node16</title>
<g id="a_edge19_Node000015_Node000016"><a xlink:title=" ">
<path fill="none" stroke="#63b8ff" d="M524.38,-180.04C514.27,-170.64 501.72,-158.98 493.32,-151.17"/>
<polygon fill="#63b8ff" stroke="#63b8ff" points="522.14,-182.74 531.84,-186.98 526.9,-177.61 522.14,-182.74"/>
</a>
</g>
</g>
<!-- Node16&#45;&gt;Node5 -->
<g id="edge20_Node000016_Node000005" class="edge">
<title>Node16&#45;&gt;Node5</title>
<g id="a_edge20_Node000016_Node000005"><a xlink:title=" ">
<path fill="none" stroke="#63b8ff" d="M509.52,-127.37C528.44,-117.63 553.7,-104.64 570.15,-96.17"/>
<polygon fill="#63b8ff" stroke="#63b8ff" points="507.84,-124.3 500.55,-131.98 511.04,-130.52 507.84,-124.3"/>
</a>
</g>
</g>
<!-- Node17&#45;&gt;Node2 -->
<g id="edge28_Node000017_Node000002" class="edge">
<title>Node17&#45;&gt;Node2</title>
<g id="a_edge28_Node000017_Node000002"><a xlink:title=" ">
<path fill="none" stroke="#63b8ff" d="M463.21,-306.36C538.13,-305.25 682,-290.96 682,-197.5 682,-197.5 682,-197.5 682,-140.5 682,35.6 719.68,-124.62 1191,-41 1205.85,-38.37 1222.1,-34.02 1235.3,-30.09"/>
<polygon fill="#63b8ff" stroke="#63b8ff" points="463.09,-302.86 453.11,-306.43 463.14,-309.86 463.09,-302.86"/>
</a>
</g>
</g>
<!-- Node17&#45;&gt;Node3 -->
<g id="edge29_Node000017_Node000003" class="edge">
<title>Node17&#45;&gt;Node3</title>
<g id="a_edge29_Node000017_Node000003"><a xlink:title=" ">
<path fill="none" stroke="#63b8ff" d="M374.83,-295.94C349.81,-289.05 318.85,-277.93 295,-261 209.19,-200.09 225.02,-146.49 146,-77 123.39,-57.12 92.82,-39.93 73.76,-30.15"/>
<polygon fill="#63b8ff" stroke="#63b8ff" points="374.24,-299.4 384.8,-298.55 376.02,-292.63 374.24,-299.4"/>
</a>
</g>
</g>
<!-- Node17&#45;&gt;Node5 -->
<g id="edge25_Node000017_Node000005" class="edge">
<title>Node17&#45;&gt;Node5</title>
<g id="a_edge25_Node000017_Node000005"><a xlink:title=" ">
<path fill="none" stroke="#63b8ff" d="M375.07,-293.74C355.69,-286.78 333.79,-276.27 318,-261 273.43,-217.92 224.28,-178.73 265,-132 302.91,-88.49 485.73,-86.1 557.75,-86.9"/>
<polygon fill="#63b8ff" stroke="#63b8ff" points="374.03,-297.09 384.63,-296.97 376.27,-290.46 374.03,-297.09"/>
</a>
</g>
</g>
<!-- Node17&#45;&gt;Node15 -->
<g id="edge27_Node000017_Node000015" class="edge">
<title>Node17&#45;&gt;Node15</title>
<g id="a_edge27_Node000017_Node000015"><a xlink:title=" ">
<path fill="none" stroke="#63b8ff" d="M437.98,-290.34C448.44,-281.86 461.59,-271.02 473,-261 494.61,-242.04 519.04,-218.74 531.93,-206.31"/>
<polygon fill="#63b8ff" stroke="#63b8ff" points="435.51,-287.83 429.92,-296.83 439.91,-293.28 435.51,-287.83"/>
</a>
</g>
</g>
<!-- Node17&#45;&gt;Node16 -->
<g id="edge26_Node000017_Node000016" class="edge">
<title>Node17&#45;&gt;Node16</title>
<g id="a_edge26_Node000017_Node000016"><a xlink:title=" ">
<path fill="none" stroke="#63b8ff" d="M427.37,-287.53C431.05,-279.46 435.35,-269.8 439,-261 455.84,-220.34 473.83,-170.88 480.9,-151.19"/>
<polygon fill="#63b8ff" stroke="#63b8ff" points="424.15,-286.16 423.14,-296.7 430.51,-289.09 424.15,-286.16"/>
</a>
</g>
</g>
<!-- Node18 -->
<g id="Node000018" class="node">
<title>Node18</title>
<g id="a_Node000018"><a xlink:href="traverse_8h.html" target="_top" xlink:title=" ">
<polygon fill="white" stroke="#666666" points="430.5,-261 327.5,-261 327.5,-242 430.5,-242 430.5,-261"/>
<text text-anchor="middle" x="379" y="-249" font-family="Times,serif" font-size="10.00">ttg/ttg/traverse.h</text>
</a>
</g>
</g>
<!-- Node17&#45;&gt;Node18 -->
<g id="edge30_Node000017_Node000018" class="edge">
<title>Node17&#45;&gt;Node18</title>
<g id="a_edge30_Node000017_Node000018"><a xlink:title=" ">
<path fill="none" stroke="#63b8ff" d="M406.3,-288.67C399.37,-279.5 391.09,-268.52 385.48,-261.09"/>
<polygon fill="#63b8ff" stroke="#63b8ff" points="403.58,-290.87 412.39,-296.75 409.16,-286.66 403.58,-290.87"/>
</a>
</g>
</g>
<!-- Node18&#45;&gt;Node5 -->
<g id="edge31_Node000018_Node000005" class="edge">
<title>Node18&#45;&gt;Node5</title>
<g id="a_edge31_Node000018_Node000005"><a xlink:title=" ">
<path fill="none" stroke="#63b8ff" d="M379.99,-231.81C382.41,-205.68 390.68,-158.49 419,-132 457.23,-96.24 520.81,-88.51 557.81,-87.24"/>
<polygon fill="#63b8ff" stroke="#63b8ff" points="376.49,-231.66 379.26,-241.89 383.48,-232.17 376.49,-231.66"/>
</a>
</g>
</g>
<!-- Node18&#45;&gt;Node15 -->
<g id="edge32_Node000018_Node000015" class="edge">
<title>Node18&#45;&gt;Node15</title>
<g id="a_edge32_Node000018_Node000015"><a xlink:title=" ">
<path fill="none" stroke="#63b8ff" d="M414.77,-238.8C445,-228.91 487.61,-214.97 514.77,-206.08"/>
<polygon fill="#63b8ff" stroke="#63b8ff" points="413.44,-235.55 405.03,-241.98 415.62,-242.2 413.44,-235.55"/>
</a>
</g>
</g>
<!-- Node19 -->
<g id="Node000019" class="node">
<title>Node19</title>
<g id="a_Node000019"><a xlink:href="dot_8h.html" target="_top" xlink:title=" ">
<polygon fill="white" stroke="#666666" points="371.5,-151 274.5,-151 274.5,-132 371.5,-132 371.5,-151"/>
<text text-anchor="middle" x="323" y="-139" font-family="Times,serif" font-size="10.00">ttg/ttg/util/dot.h</text>
</a>
</g>
</g>
<!-- Node18&#45;&gt;Node19 -->
<g id="edge33_Node000018_Node000019" class="edge">
<title>Node18&#45;&gt;Node19</title>
<g id="a_edge33_Node000018_Node000019"><a xlink:title=" ">
<path fill="none" stroke="#63b8ff" d="M369.8,-232.76C357.63,-209.28 336.64,-168.81 327.49,-151.16"/>
<polygon fill="#63b8ff" stroke="#63b8ff" points="366.71,-234.4 374.42,-241.66 372.92,-231.17 366.71,-234.4"/>
</a>
</g>
</g>
<!-- Node19&#45;&gt;Node5 -->
<g id="edge34_Node000019_Node000005" class="edge">
<title>Node19&#45;&gt;Node5</title>
<g id="a_edge34_Node000019_Node000005"><a xlink:title=" ">
<path fill="none" stroke="#63b8ff" d="M375.27,-130.01C429.94,-119.03 513.79,-102.2 557.77,-93.37"/>
<polygon fill="#63b8ff" stroke="#63b8ff" points="374.53,-126.58 365.42,-131.98 375.91,-133.45 374.53,-126.58"/>
</a>
</g>
</g>
</g>
</svg>
