<?xml version="1.0" encoding="UTF-8" standalone="no"?>
<!DOCTYPE svg PUBLIC "-//W3C//DTD SVG 1.1//EN"
 "http://www.w3.org/Graphics/SVG/1.1/DTD/svg11.dtd">
<!-- Generated by graphviz version 2.43.0 (0)
 -->
<!-- Title: ttg/ttg/util/hash/std/pair.h Pages: 1 -->
<svg width="525pt" height="313pt"
 viewBox="0.00 0.00 525.00 313.00" xmlns="http://www.w3.org/2000/svg" xmlns:xlink="http://www.w3.org/1999/xlink">
<g id="graph0" class="graph" transform="scale(1 1) rotate(0) translate(4 309)">
<title>ttg/ttg/util/hash/std/pair.h</title>
<!-- Node1 -->
<g id="Node000001" class="node">
<title>Node1</title>
<g id="a_Node000001"><a xlink:title=" ">
<polygon fill="#999999" stroke="#666666" points="155,-305 41,-305 41,-275 155,-275 155,-305"/>
<text text-anchor="start" x="49" y="-293" font-family="Times,serif" font-size="10.00">ttg/ttg/util/hash/std</text>
<text text-anchor="middle" x="98" y="-282" font-family="Times,serif" font-size="10.00">/pair.h</text>
</a>
</g>
</g>
<!-- Node2 -->
<g id="Node000002" class="node">
<title>Node2</title>
<g id="a_Node000002"><a xlink:href="hash_8h.html" target="_top" xlink:title=" ">
<polygon fill="white" stroke="#666666" points="142,-239 54,-239 54,-220 142,-220 142,-239"/>
<text text-anchor="middle" x="98" y="-227" font-family="Times,serif" font-size="10.00">ttg/util/hash.h</text>
</a>
</g>
</g>
<!-- Node1&#45;&gt;Node2 -->
<g id="edge1_Node000001_Node000002" class="edge">
<title>Node1&#45;&gt;Node2</title>
<g id="a_edge1_Node000001_Node000002"><a xlink:title=" ">
<path fill="none" stroke="#63b8ff" d="M92.12,-274.84C91.15,-267.21 90.99,-257.7 91.64,-249.45"/>
<polygon fill="#63b8ff" stroke="#63b8ff" points="95.14,-249.65 93.02,-239.27 88.21,-248.71 95.14,-249.65"/>
</a>
</g>
</g>
<!-- Node15 -->
<g id="Node000015" class="node">
<title>Node15</title>
<g id="a_Node000015"><a xlink:title=" ">
<polygon fill="#e0e0e0" stroke="#999999" points="206,-239 160,-239 160,-220 206,-220 206,-239"/>
<text text-anchor="middle" x="183" y="-227" font-family="Times,serif" font-size="10.00">utility</text>
</a>
</g>
</g>
<!-- Node1&#45;&gt;Node15 -->
<g id="edge18_Node000001_Node000015" class="edge">
<title>Node1&#45;&gt;Node15</title>
<g id="a_edge18_Node000001_Node000015"><a xlink:title=" ">
<path fill="none" stroke="#63b8ff" d="M118.58,-274.84C131.67,-265.83 148.59,-254.18 161.8,-245.09"/>
<polygon fill="#63b8ff" stroke="#63b8ff" points="164.01,-247.82 170.26,-239.27 160.04,-242.05 164.01,-247.82"/>
</a>
</g>
</g>
<!-- Node2&#45;&gt;Node1 -->
<g id="edge17_Node000002_Node000001" class="edge">
<title>Node2&#45;&gt;Node1</title>
<g id="a_edge17_Node000002_Node000001"><a xlink:title=" ">
<path fill="none" stroke="#63b8ff" d="M102.98,-239.27C104.42,-246.03 104.98,-255.72 104.66,-264.75"/>
<polygon fill="#63b8ff" stroke="#63b8ff" points="101.16,-264.6 103.88,-274.84 108.14,-265.14 101.16,-264.6"/>
</a>
</g>
</g>
<!-- Node3 -->
<g id="Node000003" class="node">
<title>Node3</title>
<g id="a_Node000003"><a xlink:title=" ">
<polygon fill="#e0e0e0" stroke="#999999" points="54,-19 0,-19 0,0 54,0 54,-19"/>
<text text-anchor="middle" x="27" y="-7" font-family="Times,serif" font-size="10.00">cstddef</text>
</a>
</g>
</g>
<!-- Node2&#45;&gt;Node3 -->
<g id="edge2_Node000002_Node000003" class="edge">
<title>Node2&#45;&gt;Node3</title>
<g id="a_edge2_Node000002_Node000003"><a xlink:title=" ">
<path fill="none" stroke="#63b8ff" d="M95.22,-219.95C84.75,-187.81 47.59,-73.72 32.97,-28.83"/>
<polygon fill="#63b8ff" stroke="#63b8ff" points="36.27,-27.65 29.84,-19.22 29.61,-29.82 36.27,-27.65"/>
</a>
</g>
</g>
<!-- Node4 -->
<g id="Node000004" class="node">
<title>Node4</title>
<g id="a_Node000004"><a xlink:title=" ">
<polygon fill="#e0e0e0" stroke="#999999" points="123.5,-19 72.5,-19 72.5,0 123.5,0 123.5,-19"/>
<text text-anchor="middle" x="98" y="-7" font-family="Times,serif" font-size="10.00">cstdint</text>
</a>
</g>
</g>
<!-- Node2&#45;&gt;Node4 -->
<g id="edge3_Node000002_Node000004" class="edge">
<title>Node2&#45;&gt;Node4</title>
<g id="a_edge3_Node000002_Node000004"><a xlink:title=" ">
<path fill="none" stroke="#63b8ff" d="M98,-219.95C98,-187.95 98,-74.68 98,-29.4"/>
<polygon fill="#63b8ff" stroke="#63b8ff" points="101.5,-29.22 98,-19.22 94.5,-29.22 101.5,-29.22"/>
</a>
</g>
</g>
<!-- Node5 -->
<g id="Node000005" class="node">
<title>Node5</title>
<g id="a_Node000005"><a xlink:href="void_8h.html" target="_top" xlink:title=" ">
<polygon fill="white" stroke="#666666" points="343.5,-184 258.5,-184 258.5,-165 343.5,-165 343.5,-184"/>
<text text-anchor="middle" x="301" y="-172" font-family="Times,serif" font-size="10.00">ttg/util/void.h</text>
</a>
</g>
</g>
<!-- Node2&#45;&gt;Node5 -->
<g id="edge4_Node000002_Node000005" class="edge">
<title>Node2&#45;&gt;Node5</title>
<g id="a_edge4_Node000002_Node000005"><a xlink:title=" ">
<path fill="none" stroke="#63b8ff" d="M130.62,-219.98C165.29,-210.93 220.26,-196.58 258.35,-186.64"/>
<polygon fill="#63b8ff" stroke="#63b8ff" points="259.34,-189.99 268.13,-184.08 257.57,-183.22 259.34,-189.99"/>
</a>
</g>
</g>
<!-- Node6 -->
<g id="Node000006" class="node">
<title>Node6</title>
<g id="a_Node000006"><a xlink:title=" ">
<polygon fill="#e0e0e0" stroke="#999999" points="424.5,-129 363.5,-129 363.5,-110 424.5,-110 424.5,-129"/>
<text text-anchor="middle" x="394" y="-117" font-family="Times,serif" font-size="10.00">iostream</text>
</a>
</g>
</g>
<!-- Node5&#45;&gt;Node6 -->
<g id="edge5_Node000005_Node000006" class="edge">
<title>Node5&#45;&gt;Node6</title>
<g id="a_edge5_Node000005_Node000006"><a xlink:title=" ">
<path fill="none" stroke="#63b8ff" d="M315.94,-164.98C330.5,-156.69 352.87,-143.94 369.93,-134.22"/>
<polygon fill="#63b8ff" stroke="#63b8ff" points="371.83,-137.16 378.79,-129.17 368.36,-131.08 371.83,-137.16"/>
</a>
</g>
</g>
<!-- Node7 -->
<g id="Node000007" class="node">
<title>Node7</title>
<g id="a_Node000007"><a xlink:href="meta_8h.html" target="_top" xlink:title=" ">
<polygon fill="white" stroke="#666666" points="345.5,-129 256.5,-129 256.5,-110 345.5,-110 345.5,-129"/>
<text text-anchor="middle" x="301" y="-117" font-family="Times,serif" font-size="10.00">ttg/util/meta.h</text>
</a>
</g>
</g>
<!-- Node5&#45;&gt;Node7 -->
<g id="edge6_Node000005_Node000007" class="edge">
<title>Node5&#45;&gt;Node7</title>
<g id="a_edge6_Node000005_Node000007"><a xlink:title=" ">
<path fill="none" stroke="#63b8ff" d="M301,-164.75C301,-157.8 301,-147.85 301,-139.13"/>
<polygon fill="#63b8ff" stroke="#63b8ff" points="304.5,-139.09 301,-129.09 297.5,-139.09 304.5,-139.09"/>
</a>
</g>
</g>
<!-- Node8 -->
<g id="Node000008" class="node">
<title>Node8</title>
<g id="a_Node000008"><a xlink:title=" ">
<polygon fill="#e0e0e0" stroke="#999999" points="517,-74 449,-74 449,-55 517,-55 517,-74"/>
<text text-anchor="middle" x="483" y="-62" font-family="Times,serif" font-size="10.00">functional</text>
</a>
</g>
</g>
<!-- Node7&#45;&gt;Node8 -->
<g id="edge7_Node000007_Node000008" class="edge">
<title>Node7&#45;&gt;Node8</title>
<g id="a_edge7_Node000007_Node000008"><a xlink:title=" ">
<path fill="none" stroke="#63b8ff" d="M330.24,-109.98C361.06,-101.01 409.78,-86.82 443.89,-76.89"/>
<polygon fill="#63b8ff" stroke="#63b8ff" points="444.91,-80.24 453.53,-74.08 442.95,-73.52 444.91,-80.24"/>
</a>
</g>
</g>
<!-- Node9 -->
<g id="Node000009" class="node">
<title>Node9</title>
<g id="a_Node000009"><a xlink:title=" ">
<polygon fill="#e0e0e0" stroke="#999999" points="359.5,-19 288.5,-19 288.5,0 359.5,0 359.5,-19"/>
<text text-anchor="middle" x="324" y="-7" font-family="Times,serif" font-size="10.00">type_traits</text>
</a>
</g>
</g>
<!-- Node7&#45;&gt;Node9 -->
<g id="edge8_Node000007_Node000009" class="edge">
<title>Node7&#45;&gt;Node9</title>
<g id="a_edge8_Node000007_Node000009"><a xlink:title=" ">
<path fill="none" stroke="#63b8ff" d="M302.88,-109.66C306.62,-92.09 315.07,-52.45 320.07,-28.95"/>
<polygon fill="#63b8ff" stroke="#63b8ff" points="323.5,-29.67 322.16,-19.16 316.65,-28.21 323.5,-29.67"/>
</a>
</g>
</g>
<!-- Node10 -->
<g id="Node000010" class="node">
<title>Node10</title>
<g id="a_Node000010"><a xlink:href="span_8h.html" target="_top" xlink:title=" ">
<polygon fill="white" stroke="#666666" points="237,-74 149,-74 149,-55 237,-55 237,-74"/>
<text text-anchor="middle" x="193" y="-62" font-family="Times,serif" font-size="10.00">ttg/util/span.h</text>
</a>
</g>
</g>
<!-- Node7&#45;&gt;Node10 -->
<g id="edge9_Node000007_Node000010" class="edge">
<title>Node7&#45;&gt;Node10</title>
<g id="a_edge9_Node000007_Node000010"><a xlink:title=" ">
<path fill="none" stroke="#63b8ff" d="M283.65,-109.98C266.43,-101.54 239.8,-88.47 219.85,-78.68"/>
<polygon fill="#63b8ff" stroke="#63b8ff" points="221.19,-75.43 210.67,-74.17 218.1,-81.72 221.19,-75.43"/>
</a>
</g>
</g>
<!-- Node13 -->
<g id="Node000013" class="node">
<title>Node13</title>
<g id="a_Node000013"><a xlink:href="typelist_8h.html" target="_top" xlink:title=" ">
<polygon fill="white" stroke="#666666" points="430.5,-74 329.5,-74 329.5,-55 430.5,-55 430.5,-74"/>
<text text-anchor="middle" x="380" y="-62" font-family="Times,serif" font-size="10.00">ttg/util/typelist.h</text>
</a>
</g>
</g>
<!-- Node7&#45;&gt;Node13 -->
<g id="edge15_Node000007_Node000013" class="edge">
<title>Node7&#45;&gt;Node13</title>
<g id="a_edge15_Node000007_Node000013"><a xlink:title=" ">
<path fill="none" stroke="#63b8ff" d="M313.69,-109.98C325.83,-101.84 344.36,-89.41 358.75,-79.76"/>
<polygon fill="#63b8ff" stroke="#63b8ff" points="360.72,-82.65 367.08,-74.17 356.82,-76.84 360.72,-82.65"/>
</a>
</g>
</g>
<!-- Node10&#45;&gt;Node3 -->
<g id="edge11_Node000010_Node000003" class="edge">
<title>Node10&#45;&gt;Node3</title>
<g id="a_edge11_Node000010_Node000003"><a xlink:title=" ">
<path fill="none" stroke="#63b8ff" d="M166.33,-54.98C138.46,-46.09 94.55,-32.07 63.48,-22.15"/>
<polygon fill="#63b8ff" stroke="#63b8ff" points="64.47,-18.79 53.88,-19.08 62.34,-25.46 64.47,-18.79"/>
</a>
</g>
</g>
<!-- Node10&#45;&gt;Node4 -->
<g id="edge12_Node000010_Node000004" class="edge">
<title>Node10&#45;&gt;Node4</title>
<g id="a_edge12_Node000010_Node000004"><a xlink:title=" ">
<path fill="none" stroke="#63b8ff" d="M177.74,-54.98C162.87,-46.69 140.02,-33.94 122.58,-24.22"/>
<polygon fill="#63b8ff" stroke="#63b8ff" points="123.98,-20.99 113.54,-19.17 120.57,-27.1 123.98,-20.99"/>
</a>
</g>
</g>
<!-- Node10&#45;&gt;Node9 -->
<g id="edge13_Node000010_Node000009" class="edge">
<title>Node10&#45;&gt;Node9</title>
<g id="a_edge13_Node000010_Node000009"><a xlink:title=" ">
<path fill="none" stroke="#63b8ff" d="M214.05,-54.98C235.41,-46.34 268.7,-32.87 293.06,-23.02"/>
<polygon fill="#63b8ff" stroke="#63b8ff" points="294.61,-26.17 302.57,-19.17 291.99,-19.68 294.61,-26.17"/>
</a>
</g>
</g>
<!-- Node11 -->
<g id="Node000011" class="node">
<title>Node11</title>
<g id="a_Node000011"><a xlink:title=" ">
<polygon fill="#e0e0e0" stroke="#999999" points="270,-19 226,-19 226,0 270,0 270,-19"/>
<text text-anchor="middle" x="248" y="-7" font-family="Times,serif" font-size="10.00">array</text>
</a>
</g>
</g>
<!-- Node10&#45;&gt;Node11 -->
<g id="edge10_Node000010_Node000011" class="edge">
<title>Node10&#45;&gt;Node11</title>
<g id="a_edge10_Node000010_Node000011"><a xlink:title=" ">
<path fill="none" stroke="#63b8ff" d="M202.08,-54.75C210.09,-47.03 221.96,-35.6 231.62,-26.28"/>
<polygon fill="#63b8ff" stroke="#63b8ff" points="234.31,-28.55 239.09,-19.09 229.46,-23.51 234.31,-28.55"/>
</a>
</g>
</g>
<!-- Node12 -->
<g id="Node000012" class="node">
<title>Node12</title>
<g id="a_Node000012"><a xlink:title=" ">
<polygon fill="#e0e0e0" stroke="#999999" points="208,-19 142,-19 142,0 208,0 208,-19"/>
<text text-anchor="middle" x="175" y="-7" font-family="Times,serif" font-size="10.00">exception</text>
</a>
</g>
</g>
<!-- Node10&#45;&gt;Node12 -->
<g id="edge14_Node000010_Node000012" class="edge">
<title>Node10&#45;&gt;Node12</title>
<g id="a_edge14_Node000010_Node000012"><a xlink:title=" ">
<path fill="none" stroke="#63b8ff" d="M190.03,-54.75C187.64,-47.72 184.21,-37.62 181.23,-28.84"/>
<polygon fill="#63b8ff" stroke="#63b8ff" points="184.45,-27.43 177.92,-19.09 177.82,-29.68 184.45,-27.43"/>
</a>
</g>
</g>
<!-- Node14 -->
<g id="Node000014" class="node">
<title>Node14</title>
<g id="a_Node000014"><a xlink:title=" ">
<polygon fill="#e0e0e0" stroke="#999999" points="420.5,-19 377.5,-19 377.5,0 420.5,0 420.5,-19"/>
<text text-anchor="middle" x="399" y="-7" font-family="Times,serif" font-size="10.00">tuple</text>
</a>
</g>
</g>
<!-- Node13&#45;&gt;Node14 -->
<g id="edge16_Node000013_Node000014" class="edge">
<title>Node13&#45;&gt;Node14</title>
<g id="a_edge16_Node000013_Node000014"><a xlink:title=" ">
<path fill="none" stroke="#63b8ff" d="M383.14,-54.75C385.68,-47.65 389.36,-37.4 392.53,-28.56"/>
<polygon fill="#63b8ff" stroke="#63b8ff" points="395.84,-29.68 395.92,-19.09 389.25,-27.32 395.84,-29.68"/>
</a>
</g>
</g>
</g>
</svg>
