<?xml version="1.0" encoding="UTF-8" standalone="no"?>
<!DOCTYPE svg PUBLIC "-//W3C//DTD SVG 1.1//EN"
 "http://www.w3.org/Graphics/SVG/1.1/DTD/svg11.dtd">
<!-- Generated by graphviz version 2.43.0 (0)
 -->
<!-- Title: ttg/ttg/util/hash/std/pair.h Pages: 1 -->
<!--zoomable 720 -->

<svg id="main" version="1.1" xmlns="http://www.w3.org/2000/svg" xmlns:xlink="http://www.w3.org/1999/xlink" xml:space="preserve" onload="init(evt)">
<style type="text/css"><![CDATA[
.node, .edge {opacity: 0.7;}
.node.selected, .edge.selected {opacity: 1;}
.edge:hover path { stroke: red; }
.edge:hover polygon { stroke: red; fill: red; }
]]></style>

<defs>
  <circle id="rim" cx="0" cy="0" r="7"/>
  <circle id="rim2" cx="0" cy="0" r="3.5"/>
  <g id="zoomPlus">
    <use xlink:href="#rim" fill="#404040"><set attributeName="fill" to="#808080" begin="zoomplus.mouseover" end="zoomplus.mouseout"/></use>
    <path d="M-4,0h8M0,-4v8" fill="none" stroke="white" stroke-width="1.5" pointer-events="none"/>
  </g>
  <g id="zoomMin">
    <use xlink:href="#rim" fill="#404040"><set attributeName="fill" to="#808080" begin="zoomminus.mouseover" end="zoomminus.mouseout"/></use>
    <path d="M-4,0h8" fill="none" stroke="white" stroke-width="1.5" pointer-events="none"/>
  </g>
  <g id="arrowUp" transform="translate(30 24)">
    <use xlink:href="#rim"/>
    <path pointer-events="none" fill="none" stroke="white" stroke-width="1.5" d="M0,-3.0v7 M-2.5,-0.5L0,-3.0L2.5,-0.5"/>
  </g>
  <g id="arrowRight" transform="rotate(90) translate(36 -43)">
    <use xlink:href="#rim"/>
    <path pointer-events="none" fill="none" stroke="white" stroke-width="1.5" d="M0,-3.0v7 M-2.5,-0.5L0,-3.0L2.5,-0.5"/>
  </g>
  <g id="arrowDown" transform="rotate(180) translate(-30 -48)">
    <use xlink:href="#rim"/>
    <path pointer-events="none" fill="none" stroke="white" stroke-width="1.5" d="M0,-3.0v7 M-2.5,-0.5L0,-3.0L2.5,-0.5"/>
  </g>
  <g id="arrowLeft" transform="rotate(270) translate(-36 17)">
    <use xlink:href="#rim"/>
    <path pointer-events="none" fill="none" stroke="white" stroke-width="1.5" d="M0,-3.0v7 M-2.5,-0.5L0,-3.0L2.5,-0.5"/>
  </g>
  <g id="resetDef">
    <use xlink:href="#rim2" fill="#404040"><set attributeName="fill" to="#808080" begin="reset.mouseover" end="reset.mouseout"/></use>
  </g>
</defs>
<script type="application/ecmascript">
var viewWidth = 1332;
var viewHeight = 720;
var sectionId = 'dynsection-1';
</script>
<script type="application/ecmascript" xlink:href="svg.min.js"/>
<svg id="graph" class="graph">
<g id="viewport">
<title>ttg/ttg/util/hash/std/pair.h</title>
<!-- Node1 -->
<g id="Node000001" class="node">
<title>Node1</title>
<g id="a_Node000001"><a xlink:title=" ">
<polygon fill="#999999" stroke="#666666" points="606,-712 492,-712 492,-682 606,-682 606,-712"/>
<text text-anchor="start" x="500" y="-700" font-family="Times,serif" font-size="10.00">ttg/ttg/util/hash/std</text>
<text text-anchor="middle" x="549" y="-689" font-family="Times,serif" font-size="10.00">/pair.h</text>
</a>
</g>
</g>
<!-- Node2 -->
<g id="Node000002" class="node">
<title>Node2</title>
<g id="a_Node000002"><a xlink:href="distributed_8cc.html" target="_top" xlink:title=" ">
<polygon fill="white" stroke="#666666" points="134,-35.5 0,-35.5 0,-5.5 134,-5.5 134,-35.5"/>
<text text-anchor="start" x="8" y="-23.5" font-family="Times,serif" font-size="10.00">doc/dox/user/examples</text>
<text text-anchor="middle" x="67" y="-12.5" font-family="Times,serif" font-size="10.00">/distributed.cc</text>
</a>
</g>
</g>
<!-- Node1&#45;&gt;Node2 -->
<g id="edge1_Node000001_Node000002" class="edge">
<title>Node1&#45;&gt;Node2</title>
<g id="a_edge1_Node000001_Node000002"><a xlink:title=" ">
<path fill="none" stroke="#63b8ff" d="M481.69,-693.54C352.62,-686.98 83,-663.57 83,-582.5 83,-582.5 83,-582.5 83,-140.5 83,-102.35 74.82,-57.93 70.16,-35.7"/>
<polygon fill="#63b8ff" stroke="#63b8ff" points="481.7,-697.04 491.86,-694.04 482.04,-690.05 481.7,-697.04"/>
</a>
</g>
</g>
<!-- Node3 -->
<g id="Node000003" class="node">
<title>Node3</title>
<g id="a_Node000003"><a xlink:href="iterative_8cc.html" target="_top" xlink:title=" ">
<polygon fill="white" stroke="#666666" points="1172,-35.5 1038,-35.5 1038,-5.5 1172,-5.5 1172,-35.5"/>
<text text-anchor="start" x="1046" y="-23.5" font-family="Times,serif" font-size="10.00">doc/dox/user/examples</text>
<text text-anchor="middle" x="1105" y="-12.5" font-family="Times,serif" font-size="10.00">/iterative.cc</text>
</a>
</g>
</g>
<!-- Node1&#45;&gt;Node3 -->
<g id="edge2_Node000001_Node000003" class="edge">
<title>Node1&#45;&gt;Node3</title>
<g id="a_edge2_Node000001_Node000003"><a xlink:title=" ">
<path fill="none" stroke="#63b8ff" d="M616.52,-696.13C763.84,-694.59 1101,-680.37 1101,-582.5 1101,-582.5 1101,-582.5 1101,-140.5 1101,-102.67 1103.04,-58.12 1104.21,-35.78"/>
<polygon fill="#63b8ff" stroke="#63b8ff" points="616.22,-692.63 606.25,-696.22 616.28,-699.63 616.22,-692.63"/>
</a>
</g>
</g>
<!-- Node4 -->
<g id="Node000004" class="node">
<title>Node4</title>
<g id="a_Node000004"><a xlink:href="reducing_8cc.html" target="_top" xlink:title=" ">
<polygon fill="white" stroke="#666666" points="1324,-35.5 1190,-35.5 1190,-5.5 1324,-5.5 1324,-35.5"/>
<text text-anchor="start" x="1198" y="-23.5" font-family="Times,serif" font-size="10.00">doc/dox/user/examples</text>
<text text-anchor="middle" x="1257" y="-12.5" font-family="Times,serif" font-size="10.00">/reducing.cc</text>
</a>
</g>
</g>
<!-- Node1&#45;&gt;Node4 -->
<g id="edge3_Node000001_Node000004" class="edge">
<title>Node1&#45;&gt;Node4</title>
<g id="a_edge3_Node000001_Node000004"><a xlink:title=" ">
<path fill="none" stroke="#63b8ff" d="M616.38,-692.68C737.56,-686.18 987.43,-670.28 1071,-646 1130.84,-628.61 1196,-644.81 1196,-582.5 1196,-582.5 1196,-582.5 1196,-140.5 1196,-98.71 1226.16,-56.86 1244.06,-35.69"/>
<polygon fill="#63b8ff" stroke="#63b8ff" points="615.92,-689.2 606.12,-693.22 616.29,-696.19 615.92,-689.2"/>
</a>
</g>
</g>
<!-- Node5 -->
<g id="Node000005" class="node">
<title>Node5</title>
<g id="a_Node000005"><a xlink:href="hash_8h.html" target="_top" xlink:title=" ">
<polygon fill="white" stroke="#666666" points="601.5,-646 496.5,-646 496.5,-627 601.5,-627 601.5,-646"/>
<text text-anchor="middle" x="549" y="-634" font-family="Times,serif" font-size="10.00">ttg/ttg/util/hash.h</text>
</a>
</g>
</g>
<!-- Node1&#45;&gt;Node5 -->
<g id="edge4_Node000001_Node000005" class="edge">
<title>Node1&#45;&gt;Node5</title>
<g id="a_edge4_Node000001_Node000005"><a xlink:title=" ">
<path fill="none" stroke="#63b8ff" d="M542.34,-671.75C542.02,-662.72 542.58,-653.03 544.02,-646.27"/>
<polygon fill="#63b8ff" stroke="#63b8ff" points="538.86,-672.14 543.12,-681.84 545.84,-671.6 538.86,-672.14"/>
</a>
</g>
</g>
<!-- Node5&#45;&gt;Node1 -->
<g id="edge51_Node000005_Node000001" class="edge">
<title>Node5&#45;&gt;Node1</title>
<g id="a_edge51_Node000005_Node000001"><a xlink:title=" ">
<path fill="none" stroke="#63b8ff" d="M555.36,-656.45C556.01,-664.7 555.85,-674.21 554.88,-681.84"/>
<polygon fill="#63b8ff" stroke="#63b8ff" points="558.79,-655.71 553.98,-646.27 551.86,-656.65 558.79,-655.71"/>
</a>
</g>
</g>
<!-- Node6 -->
<g id="Node000006" class="node">
<title>Node6</title>
<g id="a_Node000006"><a xlink:href="ttg_8h.html" target="_top" xlink:title=" ">
<polygon fill="white" stroke="#666666" points="836,-96 778,-96 778,-77 836,-77 836,-96"/>
<text text-anchor="middle" x="807" y="-84" font-family="Times,serif" font-size="10.00">ttg/ttg.h</text>
</a>
</g>
</g>
<!-- Node5&#45;&gt;Node6 -->
<g id="edge5_Node000005_Node000006" class="edge">
<title>Node5&#45;&gt;Node6</title>
<g id="a_edge5_Node000005_Node000006"><a xlink:title=" ">
<path fill="none" stroke="#63b8ff" d="M611.96,-635.14C747.55,-632.65 1055,-617.12 1055,-527.5 1055,-527.5 1055,-527.5 1055,-195.5 1055,-101.11 902.12,-88.36 836.42,-87.24"/>
<polygon fill="#63b8ff" stroke="#63b8ff" points="611.66,-631.64 601.72,-635.3 611.78,-638.64 611.66,-631.64"/>
</a>
</g>
</g>
<!-- Node11 -->
<g id="Node000011" class="node">
<title>Node11</title>
<g id="a_Node000011"><a xlink:href="ttg_2madness_2ttg_8h.html" target="_top" xlink:title=" ">
<polygon fill="white" stroke="#666666" points="276,-30 152,-30 152,-11 276,-11 276,-30"/>
<text text-anchor="middle" x="214" y="-18" font-family="Times,serif" font-size="10.00">ttg/ttg/madness/ttg.h</text>
</a>
</g>
</g>
<!-- Node5&#45;&gt;Node11 -->
<g id="edge49_Node000005_Node000011" class="edge">
<title>Node5&#45;&gt;Node11</title>
<g id="a_edge49_Node000005_Node000011"><a xlink:title=" ">
<path fill="none" stroke="#63b8ff" d="M486.16,-632.51C368.12,-625.18 125,-601.13 125,-527.5 125,-527.5 125,-527.5 125,-140.5 125,-90.45 176.11,-47.92 200.87,-30.25"/>
<polygon fill="#63b8ff" stroke="#63b8ff" points="485.97,-636.01 496.16,-633.11 486.39,-629.02 485.97,-636.01"/>
</a>
</g>
</g>
<!-- Node12 -->
<g id="Node000012" class="node">
<title>Node12</title>
<g id="a_Node000012"><a xlink:href="ttg_2parsec_2ttg_8h.html" target="_top" xlink:title=" ">
<polygon fill="white" stroke="#666666" points="406,-30 294,-30 294,-11 406,-11 406,-30"/>
<text text-anchor="middle" x="350" y="-18" font-family="Times,serif" font-size="10.00">ttg/ttg/parsec/ttg.h</text>
</a>
</g>
</g>
<!-- Node5&#45;&gt;Node12 -->
<g id="edge50_Node000005_Node000012" class="edge">
<title>Node5&#45;&gt;Node12</title>
<g id="a_edge50_Node000005_Node000012"><a xlink:title=" ">
<path fill="none" stroke="#63b8ff" d="M486.13,-629C385.88,-616.88 201,-586.52 201,-527.5 201,-527.5 201,-527.5 201,-250.5 201,-164.63 233.63,-145.05 286,-77 300.89,-57.65 323.38,-40.06 337.35,-30.08"/>
<polygon fill="#63b8ff" stroke="#63b8ff" points="485.8,-632.49 496.15,-630.19 486.63,-625.54 485.8,-632.49"/>
</a>
</g>
</g>
<!-- Node13 -->
<g id="Node000013" class="node">
<title>Node13</title>
<g id="a_Node000013"><a xlink:href="keymap_8h.html" target="_top" xlink:title=" ">
<polygon fill="white" stroke="#666666" points="613,-591 485,-591 485,-572 613,-572 613,-591"/>
<text text-anchor="middle" x="549" y="-579" font-family="Times,serif" font-size="10.00">ttg/ttg/base/keymap.h</text>
</a>
</g>
</g>
<!-- Node5&#45;&gt;Node13 -->
<g id="edge15_Node000005_Node000013" class="edge">
<title>Node5&#45;&gt;Node13</title>
<g id="a_edge15_Node000005_Node000013"><a xlink:title=" ">
<path fill="none" stroke="#63b8ff" d="M549,-616.66C549,-607.93 549,-597.99 549,-591.09"/>
<polygon fill="#63b8ff" stroke="#63b8ff" points="545.5,-616.75 549,-626.75 552.5,-616.75 545.5,-616.75"/>
</a>
</g>
</g>
<!-- Node6&#45;&gt;Node2 -->
<g id="edge9_Node000006_Node000002" class="edge">
<title>Node6&#45;&gt;Node2</title>
<g id="a_edge9_Node000006_Node000002"><a xlink:title=" ">
<path fill="none" stroke="#63b8ff" d="M767.74,-85.38C664.64,-84.54 377.96,-78.69 143,-41 134.26,-39.6 125.06,-37.65 116.19,-35.53"/>
<polygon fill="#63b8ff" stroke="#63b8ff" points="767.96,-88.89 777.99,-85.46 768.01,-81.89 767.96,-88.89"/>
</a>
</g>
</g>
<!-- Node6&#45;&gt;Node3 -->
<g id="edge10_Node000006_Node000003" class="edge">
<title>Node6&#45;&gt;Node3</title>
<g id="a_edge10_Node000006_Node000003"><a xlink:title=" ">
<path fill="none" stroke="#63b8ff" d="M846.29,-78.28C890.77,-69.96 965.32,-55.54 1029,-41 1036.3,-39.33 1043.98,-37.48 1051.52,-35.6"/>
<polygon fill="#63b8ff" stroke="#63b8ff" points="845.39,-74.89 836.2,-80.16 846.67,-81.77 845.39,-74.89"/>
</a>
</g>
</g>
<!-- Node6&#45;&gt;Node4 -->
<g id="edge11_Node000006_Node000004" class="edge">
<title>Node6&#45;&gt;Node4</title>
<g id="a_edge11_Node000006_Node000004"><a xlink:title=" ">
<path fill="none" stroke="#63b8ff" d="M846.63,-82.53C915.19,-76.99 1060.2,-63.58 1181,-41 1189.17,-39.47 1197.76,-37.57 1206.11,-35.55"/>
<polygon fill="#63b8ff" stroke="#63b8ff" points="845.99,-79.06 836.3,-83.35 846.54,-86.04 845.99,-79.06"/>
</a>
</g>
</g>
<!-- Node7 -->
<g id="Node000007" class="node">
<title>Node7</title>
<g id="a_Node000007"><a xlink:href="fibonacci_8cc.html" target="_top" xlink:title=" ">
<polygon fill="white" stroke="#666666" points="1020,-35.5 892,-35.5 892,-5.5 1020,-5.5 1020,-35.5"/>
<text text-anchor="start" x="900" y="-23.5" font-family="Times,serif" font-size="10.00">doc/dox/dev/devsamp</text>
<text text-anchor="middle" x="956" y="-12.5" font-family="Times,serif" font-size="10.00">/fibonacci/fibonacci.cc</text>
</a>
</g>
</g>
<!-- Node6&#45;&gt;Node7 -->
<g id="edge6_Node000006_Node000007" class="edge">
<title>Node6&#45;&gt;Node7</title>
<g id="a_edge6_Node000006_Node000007"><a xlink:title=" ">
<path fill="none" stroke="#63b8ff" d="M836.42,-72.86C861.4,-62.13 897.22,-46.75 923.14,-35.62"/>
<polygon fill="#63b8ff" stroke="#63b8ff" points="834.9,-69.71 827.09,-76.87 837.66,-76.14 834.9,-69.71"/>
</a>
</g>
</g>
<!-- Node8 -->
<g id="Node000008" class="node">
<title>Node8</title>
<g id="a_Node000008"><a xlink:href="fibonacci__device_8cc.html" target="_top" xlink:title=" ">
<polygon fill="white" stroke="#666666" points="552,-41 424,-41 424,0 552,0 552,-41"/>
<text text-anchor="start" x="432" y="-29" font-family="Times,serif" font-size="10.00">doc/dox/dev/devsamp</text>
<text text-anchor="start" x="432" y="-18" font-family="Times,serif" font-size="10.00">/fibonacci/fibonacci</text>
<text text-anchor="middle" x="488" y="-7" font-family="Times,serif" font-size="10.00">_device.cc</text>
</a>
</g>
</g>
<!-- Node6&#45;&gt;Node8 -->
<g id="edge7_Node000006_Node000008" class="edge">
<title>Node6&#45;&gt;Node8</title>
<g id="a_edge7_Node000006_Node000008"><a xlink:title=" ">
<path fill="none" stroke="#63b8ff" d="M767.57,-79.39C718.81,-71.6 633.41,-57.19 561,-41 558.06,-40.34 555.05,-39.64 552.02,-38.92"/>
<polygon fill="#63b8ff" stroke="#63b8ff" points="767.26,-82.89 777.69,-81 768.36,-75.97 767.26,-82.89"/>
</a>
</g>
</g>
<!-- Node9 -->
<g id="Node000009" class="node">
<title>Node9</title>
<g id="a_Node000009"><a xlink:href="helloworld_8cpp.html" target="_top" xlink:title=" ">
<polygon fill="white" stroke="#666666" points="721.5,-35.5 570.5,-35.5 570.5,-5.5 721.5,-5.5 721.5,-35.5"/>
<text text-anchor="start" x="578.5" y="-23.5" font-family="Times,serif" font-size="10.00">doc/dox/dev/devsamp</text>
<text text-anchor="middle" x="646" y="-12.5" font-family="Times,serif" font-size="10.00">/helloworld/helloworld.cpp</text>
</a>
</g>
</g>
<!-- Node6&#45;&gt;Node9 -->
<g id="edge8_Node000006_Node000009" class="edge">
<title>Node6&#45;&gt;Node9</title>
<g id="a_edge8_Node000006_Node000009"><a xlink:title=" ">
<path fill="none" stroke="#63b8ff" d="M775.92,-73.15C748.9,-62.4 709.76,-46.85 681.51,-35.62"/>
<polygon fill="#63b8ff" stroke="#63b8ff" points="774.7,-76.43 785.29,-76.87 777.29,-69.92 774.7,-76.43"/>
</a>
</g>
</g>
<!-- Node10 -->
<g id="Node000010" class="node">
<title>Node10</title>
<g id="a_Node000010"><a xlink:href="simple_8cc.html" target="_top" xlink:title=" ">
<polygon fill="white" stroke="#666666" points="874,-35.5 740,-35.5 740,-5.5 874,-5.5 874,-35.5"/>
<text text-anchor="start" x="748" y="-23.5" font-family="Times,serif" font-size="10.00">doc/dox/user/examples</text>
<text text-anchor="middle" x="807" y="-12.5" font-family="Times,serif" font-size="10.00">/simple.cc</text>
</a>
</g>
</g>
<!-- Node6&#45;&gt;Node10 -->
<g id="edge12_Node000006_Node000010" class="edge">
<title>Node6&#45;&gt;Node10</title>
<g id="a_edge12_Node000006_Node000010"><a xlink:title=" ">
<path fill="none" stroke="#63b8ff" d="M807,-66.85C807,-56.97 807,-45.01 807,-35.86"/>
<polygon fill="#63b8ff" stroke="#63b8ff" points="803.5,-66.87 807,-76.87 810.5,-66.87 803.5,-66.87"/>
</a>
</g>
</g>
<!-- Node6&#45;&gt;Node11 -->
<g id="edge13_Node000006_Node000011" class="edge">
<title>Node6&#45;&gt;Node11</title>
<g id="a_edge13_Node000006_Node000011"><a xlink:title=" ">
<path fill="none" stroke="#63b8ff" d="M767.64,-84.6C680.19,-82.06 463.36,-72.82 285,-41 270.15,-38.35 253.91,-34 240.71,-30.08"/>
<polygon fill="#63b8ff" stroke="#63b8ff" points="767.8,-88.1 777.9,-84.88 768,-81.11 767.8,-88.1"/>
</a>
</g>
</g>
<!-- Node6&#45;&gt;Node12 -->
<g id="edge14_Node000006_Node000012" class="edge">
<title>Node6&#45;&gt;Node12</title>
<g id="a_edge14_Node000006_Node000012"><a xlink:title=" ">
<path fill="none" stroke="#63b8ff" d="M767.42,-83.35C696.27,-78.96 542.32,-67.11 415,-41 401.5,-38.23 386.76,-33.92 374.74,-30.05"/>
<polygon fill="#63b8ff" stroke="#63b8ff" points="767.51,-86.86 777.71,-83.96 767.93,-79.87 767.51,-86.86"/>
</a>
</g>
</g>
<!-- Node13&#45;&gt;Node6 -->
<g id="edge16_Node000013_Node000006" class="edge">
<title>Node13&#45;&gt;Node6</title>
<g id="a_edge16_Node000013_Node000006"><a xlink:title=" ">
<path fill="none" stroke="#63b8ff" d="M623.13,-578.59C755.09,-573.17 1017,-552.35 1017,-472.5 1017,-472.5 1017,-472.5 1017,-195.5 1017,-115.15 893.9,-94.53 836.2,-89.27"/>
<polygon fill="#63b8ff" stroke="#63b8ff" points="622.95,-575.1 613.09,-578.99 623.22,-582.09 622.95,-575.1"/>
</a>
</g>
</g>
<!-- Node13&#45;&gt;Node11 -->
<g id="edge17_Node000013_Node000011" class="edge">
<title>Node13&#45;&gt;Node11</title>
<g id="a_edge17_Node000013_Node000011"><a xlink:title=" ">
<path fill="none" stroke="#63b8ff" d="M474.59,-574.87C362.42,-564.31 163,-536.52 163,-472.5 163,-472.5 163,-472.5 163,-140.5 163,-96 193.51,-49.15 207.33,-30.2"/>
<polygon fill="#63b8ff" stroke="#63b8ff" points="474.55,-578.38 484.83,-575.81 475.19,-571.41 474.55,-578.38"/>
</a>
</g>
</g>
<!-- Node13&#45;&gt;Node12 -->
<g id="edge18_Node000013_Node000012" class="edge">
<title>Node13&#45;&gt;Node12</title>
<g id="a_edge18_Node000013_Node000012"><a xlink:title=" ">
<path fill="none" stroke="#63b8ff" d="M478.08,-570.31C386.57,-555.12 239,-522.83 239,-472.5 239,-472.5 239,-472.5 239,-415.5 239,-341.11 277,-326.89 277,-252.5 277,-252.5 277,-252.5 277,-140.5 277,-92.99 319.79,-48.48 339.85,-30.22"/>
<polygon fill="#63b8ff" stroke="#63b8ff" points="477.69,-573.79 488.12,-571.94 478.82,-566.88 477.69,-573.79"/>
</a>
</g>
</g>
<!-- Node14 -->
<g id="Node000014" class="node">
<title>Node14</title>
<g id="a_Node000014"><a xlink:href="world_8h.html" target="_top" xlink:title=" ">
<polygon fill="white" stroke="#666666" points="837.5,-536 748.5,-536 748.5,-517 837.5,-517 837.5,-536"/>
<text text-anchor="middle" x="793" y="-524" font-family="Times,serif" font-size="10.00">ttg/ttg/world.h</text>
</a>
</g>
</g>
<!-- Node13&#45;&gt;Node14 -->
<g id="edge19_Node000013_Node000014" class="edge">
<title>Node13&#45;&gt;Node14</title>
<g id="a_edge19_Node000013_Node000014"><a xlink:title=" ">
<path fill="none" stroke="#63b8ff" d="M598.19,-569.82C643.92,-559.88 711.16,-545.28 753.49,-536.08"/>
<polygon fill="#63b8ff" stroke="#63b8ff" points="597.23,-566.44 588.2,-571.98 598.72,-573.28 597.23,-566.44"/>
</a>
</g>
</g>
<!-- Node14&#45;&gt;Node6 -->
<g id="edge20_Node000014_Node000006" class="edge">
<title>Node14&#45;&gt;Node6</title>
<g id="a_edge20_Node000014_Node000006"><a xlink:title=" ">
<path fill="none" stroke="#63b8ff" d="M847.52,-517.47C902.41,-505.93 979,-478.84 979,-417.5 979,-417.5 979,-417.5 979,-195.5 979,-128.86 885.25,-101.75 836.18,-92.13"/>
<polygon fill="#63b8ff" stroke="#63b8ff" points="846.68,-514.06 837.55,-519.44 848.04,-520.93 846.68,-514.06"/>
</a>
</g>
</g>
<!-- Node14&#45;&gt;Node11 -->
<g id="edge23_Node000014_Node000011" class="edge">
<title>Node14&#45;&gt;Node11</title>
<g id="a_edge23_Node000014_Node000011"><a xlink:title=" ">
<path fill="none" stroke="#63b8ff" d="M738.43,-517.74C649.14,-502.77 469.7,-462.86 349,-371 231.24,-281.38 216.17,-75.03 214.27,-30.2"/>
<polygon fill="#63b8ff" stroke="#63b8ff" points="737.91,-521.21 748.34,-519.37 739.04,-514.3 737.91,-521.21"/>
</a>
</g>
</g>
<!-- Node15 -->
<g id="Node000015" class="node">
<title>Node15</title>
<g id="a_Node000015"><a xlink:href="broadcast_8h.html" target="_top" xlink:title=" ">
<polygon fill="white" stroke="#666666" points="836.5,-151 725.5,-151 725.5,-132 836.5,-132 836.5,-151"/>
<text text-anchor="middle" x="781" y="-139" font-family="Times,serif" font-size="10.00">ttg/ttg/broadcast.h</text>
</a>
</g>
</g>
<!-- Node14&#45;&gt;Node15 -->
<g id="edge21_Node000014_Node000015" class="edge">
<title>Node14&#45;&gt;Node15</title>
<g id="a_edge21_Node000014_Node000015"><a xlink:title=" ">
<path fill="none" stroke="#63b8ff" d="M836.53,-513.92C880.19,-499.35 941,-469.69 941,-417.5 941,-417.5 941,-417.5 941,-305.5 941,-226.19 843.34,-171.32 800.62,-151.1"/>
<polygon fill="#63b8ff" stroke="#63b8ff" points="835.42,-510.6 826.95,-516.97 837.54,-517.27 835.42,-510.6"/>
</a>
</g>
</g>
<!-- Node16 -->
<g id="Node000016" class="node">
<title>Node16</title>
<g id="a_Node000016"><a xlink:href="run_8h.html" target="_top" xlink:title=" ">
<polygon fill="white" stroke="#666666" points="866.5,-481 787.5,-481 787.5,-462 866.5,-462 866.5,-481"/>
<text text-anchor="middle" x="827" y="-469" font-family="Times,serif" font-size="10.00">ttg/ttg/run.h</text>
</a>
</g>
</g>
<!-- Node14&#45;&gt;Node16 -->
<g id="edge24_Node000014_Node000016" class="edge">
<title>Node14&#45;&gt;Node16</title>
<g id="a_edge24_Node000014_Node000016"><a xlink:title=" ">
<path fill="none" stroke="#63b8ff" d="M804.16,-508.1C809.97,-499.04 816.82,-488.37 821.49,-481.09"/>
<polygon fill="#63b8ff" stroke="#63b8ff" points="801.07,-506.44 798.61,-516.75 806.96,-510.22 801.07,-506.44"/>
</a>
</g>
</g>
<!-- Node17 -->
<g id="Node000017" class="node">
<title>Node17</title>
<g id="a_Node000017"><a xlink:href="terminal_8h.html" target="_top" xlink:title=" ">
<polygon fill="white" stroke="#666666" points="811,-426 707,-426 707,-407 811,-407 811,-426"/>
<text text-anchor="middle" x="759" y="-414" font-family="Times,serif" font-size="10.00">ttg/ttg/terminal.h</text>
</a>
</g>
</g>
<!-- Node14&#45;&gt;Node17 -->
<g id="edge48_Node000014_Node000017" class="edge">
<title>Node14&#45;&gt;Node17</title>
<g id="a_edge48_Node000014_Node000017"><a xlink:title=" ">
<path fill="none" stroke="#63b8ff" d="M786.78,-507.5C784.02,-499.42 780.78,-489.75 778,-481 771.79,-461.48 765.03,-438.41 761.49,-426.16"/>
<polygon fill="#63b8ff" stroke="#63b8ff" points="783.48,-508.68 790.04,-517 790.1,-506.4 783.48,-508.68"/>
</a>
</g>
</g>
<!-- Node15&#45;&gt;Node6 -->
<g id="edge22_Node000015_Node000006" class="edge">
<title>Node15&#45;&gt;Node6</title>
<g id="a_edge22_Node000015_Node000006"><a xlink:title=" ">
<path fill="none" stroke="#63b8ff" d="M789.82,-122.53C794.2,-113.6 799.29,-103.22 802.79,-96.09"/>
<polygon fill="#63b8ff" stroke="#63b8ff" points="786.56,-121.23 785.29,-131.75 792.84,-124.31 786.56,-121.23"/>
</a>
</g>
</g>
<!-- Node16&#45;&gt;Node6 -->
<g id="edge25_Node000016_Node000006" class="edge">
<title>Node16&#45;&gt;Node6</title>
<g id="a_edge25_Node000016_Node000006"><a xlink:title=" ">
<path fill="none" stroke="#63b8ff" d="M846.87,-455.4C869.39,-436.42 903,-401.53 903,-362.5 903,-362.5 903,-362.5 903,-305.5 903,-227.53 919.51,-197.36 877,-132 865.93,-114.98 845.82,-103.21 829.98,-96.07"/>
<polygon fill="#63b8ff" stroke="#63b8ff" points="844.44,-452.86 838.88,-461.88 848.85,-458.3 844.44,-452.86"/>
</a>
</g>
</g>
<!-- Node16&#45;&gt;Node17 -->
<g id="edge26_Node000016_Node000017" class="edge">
<title>Node16&#45;&gt;Node17</title>
<g id="a_edge26_Node000016_Node000017"><a xlink:title=" ">
<path fill="none" stroke="#63b8ff" d="M807.88,-455.6C795.7,-446.11 780.34,-434.13 770.12,-426.17"/>
<polygon fill="#63b8ff" stroke="#63b8ff" points="806.04,-458.6 816.07,-461.98 810.34,-453.08 806.04,-458.6"/>
</a>
</g>
</g>
<!-- Node17&#45;&gt;Node12 -->
<g id="edge47_Node000017_Node000012" class="edge">
<title>Node17&#45;&gt;Node12</title>
<g id="a_edge47_Node000017_Node000012"><a xlink:title=" ">
<path fill="none" stroke="#63b8ff" d="M696.42,-413.25C574.07,-407.15 315,-385.07 315,-307.5 315,-307.5 315,-307.5 315,-140.5 315,-97.65 336.15,-49.51 345.57,-30.2"/>
<polygon fill="#63b8ff" stroke="#63b8ff" points="696.61,-416.77 706.76,-413.75 696.94,-409.77 696.61,-416.77"/>
</a>
</g>
</g>
<!-- Node18 -->
<g id="Node000018" class="node">
<title>Node18</title>
<g id="a_Node000018"><a xlink:href="edge_8h.html" target="_top" xlink:title=" ">
<polygon fill="white" stroke="#666666" points="744,-371 658,-371 658,-352 744,-352 744,-371"/>
<text text-anchor="middle" x="701" y="-359" font-family="Times,serif" font-size="10.00">ttg/ttg/edge.h</text>
</a>
</g>
</g>
<!-- Node17&#45;&gt;Node18 -->
<g id="edge27_Node000017_Node000018" class="edge">
<title>Node17&#45;&gt;Node18</title>
<g id="a_edge27_Node000017_Node000018"><a xlink:title=" ">
<path fill="none" stroke="#63b8ff" d="M742.09,-400.04C731.8,-390.64 719.03,-378.98 710.49,-371.17"/>
<polygon fill="#63b8ff" stroke="#63b8ff" points="739.94,-402.82 749.68,-406.98 744.66,-397.66 739.94,-402.82"/>
</a>
</g>
</g>
<!-- Node19 -->
<g id="Node000019" class="node">
<title>Node19</title>
<g id="a_Node000019"><a xlink:href="func_8h.html" target="_top" xlink:title=" ">
<polygon fill="white" stroke="#666666" points="702.5,-206 619.5,-206 619.5,-187 702.5,-187 702.5,-206"/>
<text text-anchor="middle" x="661" y="-194" font-family="Times,serif" font-size="10.00">ttg/ttg/func.h</text>
</a>
</g>
</g>
<!-- Node17&#45;&gt;Node19 -->
<g id="edge46_Node000017_Node000019" class="edge">
<title>Node17&#45;&gt;Node19</title>
<g id="a_edge46_Node000017_Node000019"><a xlink:title=" ">
<path fill="none" stroke="#63b8ff" d="M759.32,-396.25C759.01,-383.43 757.61,-366.37 753,-352 733.44,-291.06 686.21,-228.65 668.17,-206.2"/>
<polygon fill="#63b8ff" stroke="#63b8ff" points="755.82,-396.64 759.35,-406.63 762.82,-396.62 755.82,-396.64"/>
</a>
</g>
</g>
<!-- Node18&#45;&gt;Node6 -->
<g id="edge28_Node000018_Node000006" class="edge">
<title>Node18&#45;&gt;Node6</title>
<g id="a_edge28_Node000018_Node000006"><a xlink:title=" ">
<path fill="none" stroke="#63b8ff" d="M719.67,-345.3C756.53,-313.81 837.14,-237.15 861,-151 863.25,-142.86 864.6,-139.64 861,-132 853.38,-115.85 836.71,-103.57 823.89,-96.05"/>
<polygon fill="#63b8ff" stroke="#63b8ff" points="717.12,-342.87 711.7,-351.98 721.62,-348.24 717.12,-342.87"/>
</a>
</g>
</g>
<!-- Node18&#45;&gt;Node12 -->
<g id="edge34_Node000018_Node000012" class="edge">
<title>Node18&#45;&gt;Node12</title>
<g id="a_edge34_Node000018_Node000012"><a xlink:title=" ">
<path fill="none" stroke="#63b8ff" d="M653.03,-349.28C603.56,-335.61 526.7,-308.29 476,-261 400.41,-190.5 361.69,-64.29 352.29,-30.19"/>
<polygon fill="#63b8ff" stroke="#63b8ff" points="652.28,-352.7 662.84,-351.91 654.09,-345.94 652.28,-352.7"/>
</a>
</g>
</g>
<!-- Node18&#45;&gt;Node19 -->
<g id="edge29_Node000018_Node000019" class="edge">
<title>Node18&#45;&gt;Node19</title>
<g id="a_edge29_Node000018_Node000019"><a xlink:title=" ">
<path fill="none" stroke="#63b8ff" d="M696.42,-341.83C687.79,-306.67 669.44,-231.9 663.16,-206.31"/>
<polygon fill="#63b8ff" stroke="#63b8ff" points="693.07,-342.86 698.85,-351.74 699.87,-341.19 693.07,-342.86"/>
</a>
</g>
</g>
<!-- Node20 -->
<g id="Node000020" class="node">
<title>Node20</title>
<g id="a_Node000020"><a xlink:href="tt_8h.html" target="_top" xlink:title=" ">
<polygon fill="white" stroke="#666666" points="673,-316 605,-316 605,-297 673,-297 673,-316"/>
<text text-anchor="middle" x="639" y="-304" font-family="Times,serif" font-size="10.00">ttg/ttg/tt.h</text>
</a>
</g>
</g>
<!-- Node18&#45;&gt;Node20 -->
<g id="edge35_Node000018_Node000020" class="edge">
<title>Node18&#45;&gt;Node20</title>
<g id="a_edge35_Node000018_Node000020"><a xlink:title=" ">
<path fill="none" stroke="#63b8ff" d="M683.25,-345.32C672.19,-335.87 658.37,-324.06 649.14,-316.17"/>
<polygon fill="#63b8ff" stroke="#63b8ff" points="681.16,-348.15 691.04,-351.98 685.71,-342.83 681.16,-348.15"/>
</a>
</g>
</g>
<!-- Node19&#45;&gt;Node6 -->
<g id="edge30_Node000019_Node000006" class="edge">
<title>Node19&#45;&gt;Node6</title>
<g id="a_edge30_Node000019_Node000006"><a xlink:title=" ">
<path fill="none" stroke="#63b8ff" d="M672.71,-178.52C682.91,-164.67 698.74,-145.28 716,-132 736.63,-116.13 763.82,-103.73 783.09,-96.1"/>
<polygon fill="#63b8ff" stroke="#63b8ff" points="669.82,-176.54 666.86,-186.71 675.52,-180.61 669.82,-176.54"/>
</a>
</g>
</g>
<!-- Node19&#45;&gt;Node11 -->
<g id="edge32_Node000019_Node000011" class="edge">
<title>Node19&#45;&gt;Node11</title>
<g id="a_edge32_Node000019_Node000011"><a xlink:title=" ">
<path fill="none" stroke="#63b8ff" d="M649.17,-178.61C638.25,-164.21 620.75,-144 601,-132 593.12,-127.21 334.72,-55.08 244.62,-30.01"/>
<polygon fill="#63b8ff" stroke="#63b8ff" points="646.36,-180.69 655.09,-186.7 652.01,-176.56 646.36,-180.69"/>
</a>
</g>
</g>
<!-- Node19&#45;&gt;Node12 -->
<g id="edge33_Node000019_Node000012" class="edge">
<title>Node19&#45;&gt;Node12</title>
<g id="a_edge33_Node000019_Node000012"><a xlink:title=" ">
<path fill="none" stroke="#63b8ff" d="M657.54,-176.92C654.05,-162.91 647.34,-144.11 635,-132 615.45,-112.81 442,-52.68 375.65,-30.14"/>
<polygon fill="#63b8ff" stroke="#63b8ff" points="654.17,-177.87 659.7,-186.9 661.01,-176.39 654.17,-177.87"/>
</a>
</g>
</g>
<!-- Node19&#45;&gt;Node15 -->
<g id="edge31_Node000019_Node000015" class="edge">
<title>Node19&#45;&gt;Node15</title>
<g id="a_edge31_Node000019_Node000015"><a xlink:title=" ">
<path fill="none" stroke="#63b8ff" d="M689.53,-182.9C711.7,-173.11 741.85,-159.79 761.37,-151.17"/>
<polygon fill="#63b8ff" stroke="#63b8ff" points="688.01,-179.74 680.28,-186.98 690.84,-186.15 688.01,-179.74"/>
</a>
</g>
</g>
<!-- Node20&#45;&gt;Node6 -->
<g id="edge36_Node000020_Node000006" class="edge">
<title>Node20&#45;&gt;Node6</title>
<g id="a_edge36_Node000020_Node000006"><a xlink:title=" ">
<path fill="none" stroke="#63b8ff" d="M670.56,-292.99C718.69,-271.96 808.66,-224.48 845,-151 855.02,-130.73 833.3,-108.32 818.75,-96.29"/>
<polygon fill="#63b8ff" stroke="#63b8ff" points="669.07,-289.82 661.24,-296.96 671.81,-296.26 669.07,-289.82"/>
</a>
</g>
</g>
<!-- Node20&#45;&gt;Node11 -->
<g id="edge39_Node000020_Node000011" class="edge">
<title>Node20&#45;&gt;Node11</title>
<g id="a_edge39_Node000020_Node000011"><a xlink:title=" ">
<path fill="none" stroke="#63b8ff" d="M594.65,-299.23C560.6,-293.07 513.26,-281.52 476,-261 356.71,-195.28 248.12,-64.54 220.66,-30.02"/>
<polygon fill="#63b8ff" stroke="#63b8ff" points="594.32,-302.73 604.77,-300.97 595.51,-295.83 594.32,-302.73"/>
</a>
</g>
</g>
<!-- Node20&#45;&gt;Node12 -->
<g id="edge40_Node000020_Node000012" class="edge">
<title>Node20&#45;&gt;Node12</title>
<g id="a_edge40_Node000020_Node000012"><a xlink:title=" ">
<path fill="none" stroke="#63b8ff" d="M594.67,-300.6C564.48,-295.25 525.21,-284.12 498,-261 428.17,-201.67 458.57,-151.34 405,-77 391.68,-58.51 372.15,-40.39 360.31,-30.11"/>
<polygon fill="#63b8ff" stroke="#63b8ff" points="594.5,-304.12 604.93,-302.26 595.62,-297.21 594.5,-304.12"/>
</a>
</g>
</g>
<!-- Node20&#45;&gt;Node15 -->
<g id="edge37_Node000020_Node000015" class="edge">
<title>Node20&#45;&gt;Node15</title>
<g id="a_edge37_Node000020_Node000015"><a xlink:title=" ">
<path fill="none" stroke="#63b8ff" d="M653.33,-289.05C683.05,-254.93 750.55,-177.45 773.33,-151.31"/>
<polygon fill="#63b8ff" stroke="#63b8ff" points="650.56,-286.9 646.63,-296.74 655.84,-291.5 650.56,-286.9"/>
</a>
</g>
</g>
<!-- Node20&#45;&gt;Node19 -->
<g id="edge38_Node000020_Node000019" class="edge">
<title>Node20&#45;&gt;Node19</title>
<g id="a_edge38_Node000020_Node000019"><a xlink:title=" ">
<path fill="none" stroke="#63b8ff" d="M642.81,-286.8C647.62,-263.2 655.69,-223.58 659.24,-206.16"/>
<polygon fill="#63b8ff" stroke="#63b8ff" points="639.37,-286.16 640.8,-296.66 646.23,-287.56 639.37,-286.16"/>
</a>
</g>
</g>
<!-- Node21 -->
<g id="Node000021" class="node">
<title>Node21</title>
<g id="a_Node000021"><a xlink:href="traverse_8h.html" target="_top" xlink:title=" ">
<polygon fill="white" stroke="#666666" points="610.5,-261 507.5,-261 507.5,-242 610.5,-242 610.5,-261"/>
<text text-anchor="middle" x="559" y="-249" font-family="Times,serif" font-size="10.00">ttg/ttg/traverse.h</text>
</a>
</g>
</g>
<!-- Node20&#45;&gt;Node21 -->
<g id="edge41_Node000020_Node000021" class="edge">
<title>Node20&#45;&gt;Node21</title>
<g id="a_edge41_Node000020_Node000021"><a xlink:title=" ">
<path fill="none" stroke="#63b8ff" d="M617.75,-291.42C603.24,-281.81 584.46,-269.37 572.09,-261.17"/>
<polygon fill="#63b8ff" stroke="#63b8ff" points="615.88,-294.38 626.15,-296.98 619.74,-288.54 615.88,-294.38"/>
</a>
</g>
</g>
<!-- Node21&#45;&gt;Node6 -->
<g id="edge42_Node000021_Node000006" class="edge">
<title>Node21&#45;&gt;Node6</title>
<g id="a_edge42_Node000021_Node000006"><a xlink:title=" ">
<path fill="none" stroke="#63b8ff" d="M538.32,-235.85C507.64,-212.4 456.7,-165.64 486,-132 523.78,-88.62 706.04,-86.15 777.84,-86.91"/>
<polygon fill="#63b8ff" stroke="#63b8ff" points="536.23,-238.67 546.35,-241.82 540.41,-233.05 536.23,-238.67"/>
</a>
</g>
</g>
<!-- Node21&#45;&gt;Node19 -->
<g id="edge43_Node000021_Node000019" class="edge">
<title>Node21&#45;&gt;Node19</title>
<g id="a_edge43_Node000021_Node000019"><a xlink:title=" ">
<path fill="none" stroke="#63b8ff" d="M584.27,-237.37C603.01,-227.63 628.02,-214.64 644.31,-206.17"/>
<polygon fill="#63b8ff" stroke="#63b8ff" points="582.65,-234.27 575.39,-241.98 585.88,-240.48 582.65,-234.27"/>
</a>
</g>
</g>
<!-- Node22 -->
<g id="Node000022" class="node">
<title>Node22</title>
<g id="a_Node000022"><a xlink:href="dot_8h.html" target="_top" xlink:title=" ">
<polygon fill="white" stroke="#666666" points="592.5,-151 495.5,-151 495.5,-132 592.5,-132 592.5,-151"/>
<text text-anchor="middle" x="544" y="-139" font-family="Times,serif" font-size="10.00">ttg/ttg/util/dot.h</text>
</a>
</g>
</g>
<!-- Node21&#45;&gt;Node22 -->
<g id="edge44_Node000021_Node000022" class="edge">
<title>Node21&#45;&gt;Node22</title>
<g id="a_edge44_Node000021_Node000022"><a xlink:title=" ">
<path fill="none" stroke="#63b8ff" d="M556.36,-231.48C553.08,-207.84 547.61,-168.5 545.2,-151.16"/>
<polygon fill="#63b8ff" stroke="#63b8ff" points="552.93,-232.24 557.77,-241.66 559.86,-231.28 552.93,-232.24"/>
</a>
</g>
</g>
<!-- Node22&#45;&gt;Node6 -->
<g id="edge45_Node000022_Node000006" class="edge">
<title>Node22&#45;&gt;Node6</title>
<g id="a_edge45_Node000022_Node000006"><a xlink:title=" ">
<path fill="none" stroke="#63b8ff" d="M596.07,-130.01C650.53,-119.03 734.06,-102.2 777.88,-93.37"/>
<polygon fill="#63b8ff" stroke="#63b8ff" points="595.37,-126.58 586.26,-131.98 596.75,-133.44 595.37,-126.58"/>
</a>
</g>
</g>
</g>
</svg>

<g id="navigator" transform="translate(0 0)" fill="#404254">
  <rect fill="#f2f5e9" fill-opacity="0.5" stroke="#606060" stroke-width=".5" x="0" y="0" width="60" height="60"/>
  <use id="zoomplus" xlink:href="#zoomPlus" x="17" y="9" onmousedown="handleZoom(evt,'in')"/>
  <use id="zoomminus" xlink:href="#zoomMin" x="42" y="9" onmousedown="handleZoom(evt,'out')"/>
  <use id="reset" xlink:href="#resetDef" x="30" y="36" onmousedown="handleReset()"/>
   <use id="arrowup" xlink:href="#arrowUp" x="0" y="0" onmousedown="handlePan(0,-1)"/>
  <use id="arrowright" xlink:href="#arrowRight" x="0" y="0" onmousedown="handlePan(1,0)"/>
  <use id="arrowdown" xlink:href="#arrowDown" x="0" y="0" onmousedown="handlePan(0,1)"/>
  <use id="arrowleft" xlink:href="#arrowLeft" x="0" y="0" onmousedown="handlePan(-1,0)"/>
</g>
<svg viewBox="0 0 15 15" width="100%" height="30px" preserveAspectRatio="xMaxYMin meet">
 <g id="arrow_out" transform="scale(0.3 0.3)">
  <a xlink:href="util_2hash_2std_2pair_8h__dep__incl_org.svg" target="_base">
   <rect id="button" ry="5" rx="5" y="6" x="6" height="38" width="38"
        fill="#f2f5e9" fill-opacity="0.5" stroke="#606060" stroke-width="1.0"/>
   <path id="arrow"
     d="M 11.500037,31.436501 C 11.940474,20.09759 22.043105,11.32322 32.158766,21.979434 L 37.068811,17.246167 C 37.068811,17.246167 37.088388,32 37.088388,32 L 22.160133,31.978069 C 22.160133,31.978069 26.997745,27.140456 26.997745,27.140456 C 18.528582,18.264221 13.291696,25.230495 11.500037,31.436501 z"
     style="fill:#404040;"/>
  </a>
 </g>
</svg>

<style type='text/css'>
<![CDATA[
[data-mouse-over-selected='false'] { opacity: 0.7; }
[data-mouse-over-selected='true']  { opacity: 1.0; }
]]>
</style>
<script type="application/ecmascript"><![CDATA[
document.addEventListener('DOMContentLoaded', (event) => {
  highlightEdges();
  highlightAdjacentNodes();
});
]]></script>
</svg>
