<?xml version="1.0" encoding="UTF-8" standalone="no"?>
<!DOCTYPE svg PUBLIC "-//W3C//DTD SVG 1.1//EN"
 "http://www.w3.org/Graphics/SVG/1.1/DTD/svg11.dtd">
<!-- Generated by graphviz version 2.43.0 (0)
 -->
<!-- Title: ttg/ttg/util/void.h Pages: 1 -->
<svg width="1423pt" height="720pt"
 viewBox="0.00 0.00 1423.00 720.00" xmlns="http://www.w3.org/2000/svg" xmlns:xlink="http://www.w3.org/1999/xlink">
<g id="graph0" class="graph" transform="scale(1 1) rotate(0) translate(4 716)">
<title>ttg/ttg/util/void.h</title>
<!-- Node1 -->
<g id="Node000001" class="node">
<title>Node1</title>
<g id="a_Node000001"><a xlink:title=" ">
<polygon fill="#999999" stroke="#666666" points="830,-712 728,-712 728,-693 830,-693 830,-712"/>
<text text-anchor="middle" x="779" y="-700" font-family="Times,serif" font-size="10.00">ttg/ttg/util/void.h</text>
</a>
</g>
</g>
<!-- Node2 -->
<g id="Node000002" class="node">
<title>Node2</title>
<g id="a_Node000002"><a xlink:href="ttg_8h.html" target="_top" xlink:title=" ">
<polygon fill="white" stroke="#666666" points="667,-101.5 609,-101.5 609,-82.5 667,-82.5 667,-101.5"/>
<text text-anchor="middle" x="638" y="-89.5" font-family="Times,serif" font-size="10.00">ttg/ttg.h</text>
</a>
</g>
</g>
<!-- Node1&#45;&gt;Node2 -->
<g id="edge1_Node000001_Node000002" class="edge">
<title>Node1&#45;&gt;Node2</title>
<g id="a_edge1_Node000001_Node000002"><a xlink:title=" ">
<path fill="none" stroke="#63b8ff" d="M717.29,-698.66C599.22,-691.52 353,-667.75 353,-593.5 353,-593.5 353,-593.5 353,-206.5 353,-151.84 536.2,-111.87 608.84,-98.17"/>
<polygon fill="#63b8ff" stroke="#63b8ff" points="717.43,-702.17 727.61,-699.26 717.83,-695.18 717.43,-702.17"/>
</a>
</g>
</g>
<!-- Node10 -->
<g id="Node000010" class="node">
<title>Node10</title>
<g id="a_Node000010"><a xlink:href="ttg_2madness_2ttg_8h.html" target="_top" xlink:title=" ">
<polygon fill="white" stroke="#666666" points="1325,-30 1201,-30 1201,-11 1325,-11 1325,-30"/>
<text text-anchor="middle" x="1263" y="-18" font-family="Times,serif" font-size="10.00">ttg/ttg/madness/ttg.h</text>
</a>
</g>
</g>
<!-- Node1&#45;&gt;Node10 -->
<g id="edge11_Node000001_Node000010" class="edge">
<title>Node1&#45;&gt;Node10</title>
<g id="a_edge11_Node000001_Node000010"><a xlink:title=" ">
<path fill="none" stroke="#63b8ff" d="M840.37,-697.49C999.84,-686.24 1415,-651.41 1415,-593.5 1415,-593.5 1415,-593.5 1415,-151.5 1415,-85.87 1332.15,-46.29 1288.78,-30.07"/>
<polygon fill="#63b8ff" stroke="#63b8ff" points="839.97,-694.01 830.24,-698.19 840.46,-700.99 839.97,-694.01"/>
</a>
</g>
</g>
<!-- Node12 -->
<g id="Node000012" class="node">
<title>Node12</title>
<g id="a_Node000012"><a xlink:href="hash_8h.html" target="_top" xlink:title=" ">
<polygon fill="white" stroke="#666666" points="831.5,-657 726.5,-657 726.5,-638 831.5,-638 831.5,-657"/>
<text text-anchor="middle" x="779" y="-645" font-family="Times,serif" font-size="10.00">ttg/ttg/util/hash.h</text>
</a>
</g>
</g>
<!-- Node1&#45;&gt;Node12 -->
<g id="edge12_Node000001_Node000012" class="edge">
<title>Node1&#45;&gt;Node12</title>
<g id="a_edge12_Node000001_Node000012"><a xlink:title=" ">
<path fill="none" stroke="#63b8ff" d="M779,-682.66C779,-673.93 779,-663.99 779,-657.09"/>
<polygon fill="#63b8ff" stroke="#63b8ff" points="775.5,-682.75 779,-692.75 782.5,-682.75 775.5,-682.75"/>
</a>
</g>
</g>
<!-- Node3 -->
<g id="Node000003" class="node">
<title>Node3</title>
<g id="a_Node000003"><a xlink:href="fibonacci_8cc.html" target="_top" xlink:title=" ">
<polygon fill="white" stroke="#666666" points="1052,-35.5 924,-35.5 924,-5.5 1052,-5.5 1052,-35.5"/>
<text text-anchor="start" x="932" y="-23.5" font-family="Times,serif" font-size="10.00">doc/dox/dev/devsamp</text>
<text text-anchor="middle" x="988" y="-12.5" font-family="Times,serif" font-size="10.00">/fibonacci/fibonacci.cc</text>
</a>
</g>
</g>
<!-- Node2&#45;&gt;Node3 -->
<g id="edge2_Node000002_Node000003" class="edge">
<title>Node2&#45;&gt;Node3</title>
<g id="a_edge2_Node000002_Node000003"><a xlink:title=" ">
<path fill="none" stroke="#63b8ff" d="M677.42,-84.93C731.33,-76.4 830.94,-59.78 915,-41 922.3,-39.37 929.96,-37.5 937.47,-35.57"/>
<polygon fill="#63b8ff" stroke="#63b8ff" points="676.61,-81.52 667.27,-86.53 677.69,-88.43 676.61,-81.52"/>
</a>
</g>
</g>
<!-- Node4 -->
<g id="Node000004" class="node">
<title>Node4</title>
<g id="a_Node000004"><a xlink:href="fibonacci__device_8cc.html" target="_top" xlink:title=" ">
<polygon fill="white" stroke="#666666" points="584,-41 456,-41 456,0 584,0 584,-41"/>
<text text-anchor="start" x="464" y="-29" font-family="Times,serif" font-size="10.00">doc/dox/dev/devsamp</text>
<text text-anchor="start" x="464" y="-18" font-family="Times,serif" font-size="10.00">/fibonacci/fibonacci</text>
<text text-anchor="middle" x="520" y="-7" font-family="Times,serif" font-size="10.00">_device.cc</text>
</a>
</g>
</g>
<!-- Node2&#45;&gt;Node4 -->
<g id="edge3_Node000002_Node000004" class="edge">
<title>Node2&#45;&gt;Node4</title>
<g id="a_edge3_Node000002_Node000004"><a xlink:title=" ">
<path fill="none" stroke="#63b8ff" d="M614.57,-77.2C597.07,-66.89 572.92,-52.67 553.4,-41.17"/>
<polygon fill="#63b8ff" stroke="#63b8ff" points="613.14,-80.42 623.53,-82.48 616.69,-74.39 613.14,-80.42"/>
</a>
</g>
</g>
<!-- Node5 -->
<g id="Node000005" class="node">
<title>Node5</title>
<g id="a_Node000005"><a xlink:href="helloworld_8cpp.html" target="_top" xlink:title=" ">
<polygon fill="white" stroke="#666666" points="753.5,-35.5 602.5,-35.5 602.5,-5.5 753.5,-5.5 753.5,-35.5"/>
<text text-anchor="start" x="610.5" y="-23.5" font-family="Times,serif" font-size="10.00">doc/dox/dev/devsamp</text>
<text text-anchor="middle" x="678" y="-12.5" font-family="Times,serif" font-size="10.00">/helloworld/helloworld.cpp</text>
</a>
</g>
</g>
<!-- Node2&#45;&gt;Node5 -->
<g id="edge4_Node000002_Node000005" class="edge">
<title>Node2&#45;&gt;Node5</title>
<g id="a_edge4_Node000002_Node000005"><a xlink:title=" ">
<path fill="none" stroke="#63b8ff" d="M647.99,-73.64C654.74,-61.91 663.54,-46.62 669.86,-35.64"/>
<polygon fill="#63b8ff" stroke="#63b8ff" points="644.86,-72.06 642.9,-82.48 650.93,-75.56 644.86,-72.06"/>
</a>
</g>
</g>
<!-- Node6 -->
<g id="Node000006" class="node">
<title>Node6</title>
<g id="a_Node000006"><a xlink:href="distributed_8cc.html" target="_top" xlink:title=" ">
<polygon fill="white" stroke="#666666" points="438,-35.5 304,-35.5 304,-5.5 438,-5.5 438,-35.5"/>
<text text-anchor="start" x="312" y="-23.5" font-family="Times,serif" font-size="10.00">doc/dox/user/examples</text>
<text text-anchor="middle" x="371" y="-12.5" font-family="Times,serif" font-size="10.00">/distributed.cc</text>
</a>
</g>
</g>
<!-- Node2&#45;&gt;Node6 -->
<g id="edge5_Node000002_Node000006" class="edge">
<title>Node2&#45;&gt;Node6</title>
<g id="a_edge5_Node000002_Node000006"><a xlink:title=" ">
<path fill="none" stroke="#63b8ff" d="M599.05,-80.86C553.13,-68.91 476.55,-48.97 424.94,-35.54"/>
<polygon fill="#63b8ff" stroke="#63b8ff" points="598.36,-84.3 608.92,-83.43 600.12,-77.52 598.36,-84.3"/>
</a>
</g>
</g>
<!-- Node7 -->
<g id="Node000007" class="node">
<title>Node7</title>
<g id="a_Node000007"><a xlink:href="iterative_8cc.html" target="_top" xlink:title=" ">
<polygon fill="white" stroke="#666666" points="134,-35.5 0,-35.5 0,-5.5 134,-5.5 134,-35.5"/>
<text text-anchor="start" x="8" y="-23.5" font-family="Times,serif" font-size="10.00">doc/dox/user/examples</text>
<text text-anchor="middle" x="67" y="-12.5" font-family="Times,serif" font-size="10.00">/iterative.cc</text>
</a>
</g>
</g>
<!-- Node2&#45;&gt;Node7 -->
<g id="edge6_Node000002_Node000007" class="edge">
<title>Node2&#45;&gt;Node7</title>
<g id="a_edge6_Node000002_Node000007"><a xlink:title=" ">
<path fill="none" stroke="#63b8ff" d="M598.69,-87.8C497.64,-79.45 230.58,-56.57 143,-41 134.68,-39.52 125.94,-37.62 117.46,-35.58"/>
<polygon fill="#63b8ff" stroke="#63b8ff" points="598.53,-91.3 608.78,-88.63 599.11,-84.32 598.53,-91.3"/>
</a>
</g>
</g>
<!-- Node8 -->
<g id="Node000008" class="node">
<title>Node8</title>
<g id="a_Node000008"><a xlink:href="reducing_8cc.html" target="_top" xlink:title=" ">
<polygon fill="white" stroke="#666666" points="286,-35.5 152,-35.5 152,-5.5 286,-5.5 286,-35.5"/>
<text text-anchor="start" x="160" y="-23.5" font-family="Times,serif" font-size="10.00">doc/dox/user/examples</text>
<text text-anchor="middle" x="219" y="-12.5" font-family="Times,serif" font-size="10.00">/reducing.cc</text>
</a>
</g>
</g>
<!-- Node2&#45;&gt;Node8 -->
<g id="edge7_Node000002_Node000008" class="edge">
<title>Node2&#45;&gt;Node8</title>
<g id="a_edge7_Node000002_Node000008"><a xlink:title=" ">
<path fill="none" stroke="#63b8ff" d="M598.87,-86.67C534.94,-79.29 404.27,-62.92 295,-41 287.12,-39.42 278.84,-37.53 270.75,-35.56"/>
<polygon fill="#63b8ff" stroke="#63b8ff" points="598.58,-90.16 608.91,-87.82 599.37,-83.21 598.58,-90.16"/>
</a>
</g>
</g>
<!-- Node9 -->
<g id="Node000009" class="node">
<title>Node9</title>
<g id="a_Node000009"><a xlink:href="simple_8cc.html" target="_top" xlink:title=" ">
<polygon fill="white" stroke="#666666" points="906,-35.5 772,-35.5 772,-5.5 906,-5.5 906,-35.5"/>
<text text-anchor="start" x="780" y="-23.5" font-family="Times,serif" font-size="10.00">doc/dox/user/examples</text>
<text text-anchor="middle" x="839" y="-12.5" font-family="Times,serif" font-size="10.00">/simple.cc</text>
</a>
</g>
</g>
<!-- Node2&#45;&gt;Node9 -->
<g id="edge8_Node000002_Node000009" class="edge">
<title>Node2&#45;&gt;Node9</title>
<g id="a_edge8_Node000002_Node000009"><a xlink:title=" ">
<path fill="none" stroke="#63b8ff" d="M672.4,-79.1C707.36,-67.02 761.48,-48.3 798.49,-35.51"/>
<polygon fill="#63b8ff" stroke="#63b8ff" points="670.95,-75.9 662.65,-82.48 673.24,-82.52 670.95,-75.9"/>
</a>
</g>
</g>
<!-- Node2&#45;&gt;Node10 -->
<g id="edge9_Node000002_Node000010" class="edge">
<title>Node2&#45;&gt;Node10</title>
<g id="a_edge9_Node000002_Node000010"><a xlink:title=" ">
<path fill="none" stroke="#63b8ff" d="M677.14,-89.8C768.05,-86.51 1000.24,-75.19 1191,-41 1206.04,-38.3 1222.51,-33.95 1235.9,-30.04"/>
<polygon fill="#63b8ff" stroke="#63b8ff" points="676.89,-86.31 667.02,-90.16 677.14,-93.31 676.89,-86.31"/>
</a>
</g>
</g>
<!-- Node11 -->
<g id="Node000011" class="node">
<title>Node11</title>
<g id="a_Node000011"><a xlink:href="ttg_2parsec_2ttg_8h.html" target="_top" xlink:title=" ">
<polygon fill="white" stroke="#666666" points="1182,-30 1070,-30 1070,-11 1182,-11 1182,-30"/>
<text text-anchor="middle" x="1126" y="-18" font-family="Times,serif" font-size="10.00">ttg/ttg/parsec/ttg.h</text>
</a>
</g>
</g>
<!-- Node2&#45;&gt;Node11 -->
<g id="edge10_Node000002_Node000011" class="edge">
<title>Node2&#45;&gt;Node11</title>
<g id="a_edge10_Node000002_Node000011"><a xlink:title=" ">
<path fill="none" stroke="#63b8ff" d="M677.68,-88.62C753.04,-83.59 921.77,-69.89 1061,-41 1074.5,-38.2 1089.23,-33.89 1101.26,-30.03"/>
<polygon fill="#63b8ff" stroke="#63b8ff" points="677.01,-85.15 667.26,-89.3 677.46,-92.14 677.01,-85.15"/>
</a>
</g>
</g>
<!-- Node12&#45;&gt;Node2 -->
<g id="edge13_Node000012_Node000002" class="edge">
<title>Node12&#45;&gt;Node2</title>
<g id="a_edge13_Node000012_Node000002"><a xlink:title=" ">
<path fill="none" stroke="#63b8ff" d="M716.19,-639.07C619.95,-625.92 447,-594.5 447,-538.5 447,-538.5 447,-538.5 447,-206.5 447,-132.05 555.56,-105.35 608.99,-96.71"/>
<polygon fill="#63b8ff" stroke="#63b8ff" points="716.02,-642.58 726.39,-640.44 716.95,-635.64 716.02,-642.58"/>
</a>
</g>
</g>
<!-- Node12&#45;&gt;Node10 -->
<g id="edge48_Node000012_Node000010" class="edge">
<title>Node12&#45;&gt;Node10</title>
<g id="a_edge48_Node000012_Node000010"><a xlink:title=" ">
<path fill="none" stroke="#63b8ff" d="M842.02,-646.27C963.65,-645 1226.01,-638.02 1308,-602 1346.16,-585.24 1377,-580.18 1377,-538.5 1377,-538.5 1377,-538.5 1377,-151.5 1377,-92.96 1310.86,-48.18 1279.33,-30.16"/>
<polygon fill="#63b8ff" stroke="#63b8ff" points="841.72,-642.77 831.75,-646.36 841.79,-649.77 841.72,-642.77"/>
</a>
</g>
</g>
<!-- Node12&#45;&gt;Node11 -->
<g id="edge49_Node000012_Node000011" class="edge">
<title>Node12&#45;&gt;Node11</title>
<g id="a_edge49_Node000012_Node000011"><a xlink:title=" ">
<path fill="none" stroke="#63b8ff" d="M841.85,-647.46C988.13,-647.99 1339,-638.82 1339,-538.5 1339,-538.5 1339,-538.5 1339,-151.5 1339,-107.42 1204.41,-51.27 1149.2,-30.1"/>
<polygon fill="#63b8ff" stroke="#63b8ff" points="841.7,-643.95 831.68,-647.4 841.66,-650.95 841.7,-643.95"/>
</a>
</g>
</g>
<!-- Node13 -->
<g id="Node000013" class="node">
<title>Node13</title>
<g id="a_Node000013"><a xlink:href="keymap_8h.html" target="_top" xlink:title=" ">
<polygon fill="white" stroke="#666666" points="1175,-602 1047,-602 1047,-583 1175,-583 1175,-602"/>
<text text-anchor="middle" x="1111" y="-590" font-family="Times,serif" font-size="10.00">ttg/ttg/base/keymap.h</text>
</a>
</g>
</g>
<!-- Node12&#45;&gt;Node13 -->
<g id="edge14_Node000012_Node000013" class="edge">
<title>Node12&#45;&gt;Node13</title>
<g id="a_edge14_Node000012_Node000013"><a xlink:title=" ">
<path fill="none" stroke="#63b8ff" d="M841.71,-636.49C904.05,-626.54 998.65,-611.44 1057.54,-602.03"/>
<polygon fill="#63b8ff" stroke="#63b8ff" points="840.93,-633.07 831.61,-638.1 842.03,-639.98 840.93,-633.07"/>
</a>
</g>
</g>
<!-- Node23 -->
<g id="Node000023" class="node">
<title>Node23</title>
<g id="a_Node000023"><a xlink:href="util_2hash_2std_2pair_8h.html" target="_top" xlink:title=" ">
<polygon fill="white" stroke="#666666" points="428,-107 314,-107 314,-77 428,-77 428,-107"/>
<text text-anchor="start" x="322" y="-95" font-family="Times,serif" font-size="10.00">ttg/ttg/util/hash/std</text>
<text text-anchor="middle" x="371" y="-84" font-family="Times,serif" font-size="10.00">/pair.h</text>
</a>
</g>
</g>
<!-- Node12&#45;&gt;Node23 -->
<g id="edge50_Node000012_Node000023" class="edge">
<title>Node12&#45;&gt;Node23</title>
<g id="a_edge50_Node000012_Node000023"><a xlink:title=" ">
<path fill="none" stroke="#63b8ff" d="M716.14,-646.04C652.94,-643.74 554.17,-634.67 476,-602 432.49,-583.81 391,-585.66 391,-538.5 391,-538.5 391,-538.5 391,-206.5 391,-169.69 376.5,-128.19 371.19,-107.04"/>
<polygon fill="#63b8ff" stroke="#63b8ff" points="716.25,-649.55 726.36,-646.37 716.47,-642.55 716.25,-649.55"/>
</a>
</g>
</g>
<!-- Node13&#45;&gt;Node2 -->
<g id="edge15_Node000013_Node000002" class="edge">
<title>Node13&#45;&gt;Node2</title>
<g id="a_edge15_Node000013_Node000002"><a xlink:title=" ">
<path fill="none" stroke="#63b8ff" d="M1111,-572.77C1111,-551.23 1111,-514.81 1111,-483.5 1111,-483.5 1111,-483.5 1111,-206.5 1111,-114.77 770.36,-96.99 667.23,-93.71"/>
<polygon fill="#63b8ff" stroke="#63b8ff" points="1107.5,-572.82 1111,-582.82 1114.5,-572.82 1107.5,-572.82"/>
</a>
</g>
</g>
<!-- Node13&#45;&gt;Node10 -->
<g id="edge16_Node000013_Node000010" class="edge">
<title>Node13&#45;&gt;Node10</title>
<g id="a_edge16_Node000013_Node000010"><a xlink:title=" ">
<path fill="none" stroke="#63b8ff" d="M1180.82,-580.78C1235.02,-568.02 1301,-540.74 1301,-483.5 1301,-483.5 1301,-483.5 1301,-151.5 1301,-104 1277.34,-50.52 1267.36,-30.07"/>
<polygon fill="#63b8ff" stroke="#63b8ff" points="1179.86,-577.41 1170.86,-582.99 1181.38,-584.24 1179.86,-577.41"/>
</a>
</g>
</g>
<!-- Node13&#45;&gt;Node11 -->
<g id="edge17_Node000013_Node000011" class="edge">
<title>Node13&#45;&gt;Node11</title>
<g id="a_edge17_Node000013_Node000011"><a xlink:title=" ">
<path fill="none" stroke="#63b8ff" d="M1121.3,-573.99C1132.55,-553.16 1149,-516.98 1149,-483.5 1149,-483.5 1149,-483.5 1149,-151.5 1149,-105.2 1134.68,-51.03 1128.64,-30.23"/>
<polygon fill="#63b8ff" stroke="#63b8ff" points="1118.13,-572.47 1116.28,-582.9 1124.24,-575.9 1118.13,-572.47"/>
</a>
</g>
</g>
<!-- Node14 -->
<g id="Node000014" class="node">
<title>Node14</title>
<g id="a_Node000014"><a xlink:href="world_8h.html" target="_top" xlink:title=" ">
<polygon fill="white" stroke="#666666" points="810.5,-547 721.5,-547 721.5,-528 810.5,-528 810.5,-547"/>
<text text-anchor="middle" x="766" y="-535" font-family="Times,serif" font-size="10.00">ttg/ttg/world.h</text>
</a>
</g>
</g>
<!-- Node13&#45;&gt;Node14 -->
<g id="edge18_Node000013_Node000014" class="edge">
<title>Node13&#45;&gt;Node14</title>
<g id="a_edge18_Node000013_Node000014"><a xlink:title=" ">
<path fill="none" stroke="#63b8ff" d="M1045.28,-581.4C976.45,-570.83 870.23,-554.51 810.59,-545.35"/>
<polygon fill="#63b8ff" stroke="#63b8ff" points="1045.15,-584.93 1055.57,-582.98 1046.22,-578.01 1045.15,-584.93"/>
</a>
</g>
</g>
<!-- Node14&#45;&gt;Node2 -->
<g id="edge19_Node000014_Node000002" class="edge">
<title>Node14&#45;&gt;Node2</title>
<g id="a_edge19_Node000014_Node000002"><a xlink:title=" ">
<path fill="none" stroke="#63b8ff" d="M710.96,-532.66C667.02,-527.8 604.93,-516.81 556,-492 518.24,-472.86 485,-470.83 485,-428.5 485,-428.5 485,-428.5 485,-206.5 485,-145.48 564.47,-113.46 608.86,-100.34"/>
<polygon fill="#63b8ff" stroke="#63b8ff" points="710.86,-536.17 721.16,-533.72 711.58,-529.21 710.86,-536.17"/>
</a>
</g>
</g>
<!-- Node14&#45;&gt;Node10 -->
<g id="edge22_Node000014_Node000010" class="edge">
<title>Node14&#45;&gt;Node10</title>
<g id="a_edge22_Node000014_Node000010"><a xlink:title=" ">
<path fill="none" stroke="#63b8ff" d="M820.62,-536.06C949.73,-533.56 1263,-518.23 1263,-428.5 1263,-428.5 1263,-428.5 1263,-151.5 1263,-105.68 1263,-50.79 1263,-30.02"/>
<polygon fill="#63b8ff" stroke="#63b8ff" points="820.48,-532.56 810.54,-536.24 820.6,-539.56 820.48,-532.56"/>
</a>
</g>
</g>
<!-- Node15 -->
<g id="Node000015" class="node">
<title>Node15</title>
<g id="a_Node000015"><a xlink:href="broadcast_8h.html" target="_top" xlink:title=" ">
<polygon fill="white" stroke="#666666" points="892.5,-162 781.5,-162 781.5,-143 892.5,-143 892.5,-162"/>
<text text-anchor="middle" x="837" y="-150" font-family="Times,serif" font-size="10.00">ttg/ttg/broadcast.h</text>
</a>
</g>
</g>
<!-- Node14&#45;&gt;Node15 -->
<g id="edge20_Node000014_Node000015" class="edge">
<title>Node14&#45;&gt;Node15</title>
<g id="a_edge20_Node000014_Node000015"><a xlink:title=" ">
<path fill="none" stroke="#63b8ff" d="M741.47,-522.3C713.92,-504.31 673,-470.52 673,-428.5 673,-428.5 673,-428.5 673,-316.5 673,-287.04 674.64,-276.8 692,-253 725.01,-207.73 785.2,-176.24 816.64,-162.03"/>
<polygon fill="#63b8ff" stroke="#63b8ff" points="739.89,-525.44 750.22,-527.79 743.61,-519.51 739.89,-525.44"/>
</a>
</g>
</g>
<!-- Node16 -->
<g id="Node000016" class="node">
<title>Node16</title>
<g id="a_Node000016"><a xlink:href="run_8h.html" target="_top" xlink:title=" ">
<polygon fill="white" stroke="#666666" points="644.5,-492 565.5,-492 565.5,-473 644.5,-473 644.5,-492"/>
<text text-anchor="middle" x="605" y="-480" font-family="Times,serif" font-size="10.00">ttg/ttg/run.h</text>
</a>
</g>
</g>
<!-- Node14&#45;&gt;Node16 -->
<g id="edge23_Node000014_Node000016" class="edge">
<title>Node14&#45;&gt;Node16</title>
<g id="a_edge23_Node000014_Node000016"><a xlink:title=" ">
<path fill="none" stroke="#63b8ff" d="M730.45,-524.8C700.41,-514.91 658.06,-500.97 631.07,-492.08"/>
<polygon fill="#63b8ff" stroke="#63b8ff" points="729.54,-528.18 740.13,-527.98 731.73,-521.53 729.54,-528.18"/>
</a>
</g>
</g>
<!-- Node17 -->
<g id="Node000017" class="node">
<title>Node17</title>
<g id="a_Node000017"><a xlink:href="terminal_8h.html" target="_top" xlink:title=" ">
<polygon fill="white" stroke="#666666" points="911,-437 807,-437 807,-418 911,-418 911,-437"/>
<text text-anchor="middle" x="859" y="-425" font-family="Times,serif" font-size="10.00">ttg/ttg/terminal.h</text>
</a>
</g>
</g>
<!-- Node14&#45;&gt;Node17 -->
<g id="edge47_Node000014_Node000017" class="edge">
<title>Node14&#45;&gt;Node17</title>
<g id="a_edge47_Node000014_Node000017"><a xlink:title=" ">
<path fill="none" stroke="#63b8ff" d="M780.21,-520C800.24,-496.73 836.07,-455.13 851.54,-437.16"/>
<polygon fill="#63b8ff" stroke="#63b8ff" points="777.48,-517.8 773.61,-527.66 782.79,-522.37 777.48,-517.8"/>
</a>
</g>
</g>
<!-- Node15&#45;&gt;Node2 -->
<g id="edge21_Node000015_Node000002" class="edge">
<title>Node15&#45;&gt;Node2</title>
<g id="a_edge21_Node000015_Node000002"><a xlink:title=" ">
<path fill="none" stroke="#63b8ff" d="M798.25,-140.11C759.76,-128.79 701.62,-111.7 666.97,-101.52"/>
<polygon fill="#63b8ff" stroke="#63b8ff" points="797.48,-143.53 808.06,-142.99 799.46,-136.82 797.48,-143.53"/>
</a>
</g>
</g>
<!-- Node16&#45;&gt;Node2 -->
<g id="edge24_Node000016_Node000002" class="edge">
<title>Node16&#45;&gt;Node2</title>
<g id="a_edge24_Node000016_Node000002"><a xlink:title=" ">
<path fill="none" stroke="#63b8ff" d="M583.5,-466.71C559.21,-448.06 523,-413.55 523,-373.5 523,-373.5 523,-373.5 523,-206.5 523,-153.76 585.02,-117.27 617.97,-101.61"/>
<polygon fill="#63b8ff" stroke="#63b8ff" points="581.7,-469.73 591.83,-472.84 585.85,-464.09 581.7,-469.73"/>
</a>
</g>
</g>
<!-- Node16&#45;&gt;Node17 -->
<g id="edge25_Node000016_Node000017" class="edge">
<title>Node16&#45;&gt;Node17</title>
<g id="a_edge25_Node000016_Node000017"><a xlink:title=" ">
<path fill="none" stroke="#63b8ff" d="M654.78,-471.11C702.41,-461.17 773.41,-446.36 817.91,-437.07"/>
<polygon fill="#63b8ff" stroke="#63b8ff" points="653.76,-467.75 644.69,-473.22 655.19,-474.6 653.76,-467.75"/>
</a>
</g>
</g>
<!-- Node17&#45;&gt;Node11 -->
<g id="edge46_Node000017_Node000011" class="edge">
<title>Node17&#45;&gt;Node11</title>
<g id="a_edge46_Node000017_Node000011"><a xlink:title=" ">
<path fill="none" stroke="#63b8ff" d="M921.37,-421.22C984.54,-412.06 1073,-386.99 1073,-318.5 1073,-318.5 1073,-318.5 1073,-151.5 1073,-102.51 1105.67,-50.31 1119.71,-30.14"/>
<polygon fill="#63b8ff" stroke="#63b8ff" points="920.52,-417.81 911.08,-422.61 921.45,-424.74 920.52,-417.81"/>
</a>
</g>
</g>
<!-- Node18 -->
<g id="Node000018" class="node">
<title>Node18</title>
<g id="a_Node000018"><a xlink:href="edge_8h.html" target="_top" xlink:title=" ">
<polygon fill="white" stroke="#666666" points="902,-382 816,-382 816,-363 902,-363 902,-382"/>
<text text-anchor="middle" x="859" y="-370" font-family="Times,serif" font-size="10.00">ttg/ttg/edge.h</text>
</a>
</g>
</g>
<!-- Node17&#45;&gt;Node18 -->
<g id="edge26_Node000017_Node000018" class="edge">
<title>Node17&#45;&gt;Node18</title>
<g id="a_edge26_Node000017_Node000018"><a xlink:title=" ">
<path fill="none" stroke="#63b8ff" d="M859,-407.66C859,-398.93 859,-388.99 859,-382.09"/>
<polygon fill="#63b8ff" stroke="#63b8ff" points="855.5,-407.75 859,-417.75 862.5,-407.75 855.5,-407.75"/>
</a>
</g>
</g>
<!-- Node19 -->
<g id="Node000019" class="node">
<title>Node19</title>
<g id="a_Node000019"><a xlink:href="func_8h.html" target="_top" xlink:title=" ">
<polygon fill="white" stroke="#666666" points="968.5,-217 885.5,-217 885.5,-198 968.5,-198 968.5,-217"/>
<text text-anchor="middle" x="927" y="-205" font-family="Times,serif" font-size="10.00">ttg/ttg/func.h</text>
</a>
</g>
</g>
<!-- Node17&#45;&gt;Node19 -->
<g id="edge45_Node000017_Node000019" class="edge">
<title>Node17&#45;&gt;Node19</title>
<g id="a_edge45_Node000017_Node000019"><a xlink:title=" ">
<path fill="none" stroke="#63b8ff" d="M879.96,-411.77C890.23,-403.8 902.24,-393.3 911,-382 927.69,-360.48 931.84,-353.53 938,-327 947.35,-286.75 935.38,-237.06 929.69,-217.25"/>
<polygon fill="#63b8ff" stroke="#63b8ff" points="877.77,-409.04 871.85,-417.82 881.95,-414.65 877.77,-409.04"/>
</a>
</g>
</g>
<!-- Node18&#45;&gt;Node2 -->
<g id="edge27_Node000018_Node000002" class="edge">
<title>Node18&#45;&gt;Node2</title>
<g id="a_edge27_Node000018_Node000002"><a xlink:title=" ">
<path fill="none" stroke="#63b8ff" d="M823.36,-359.59C781.62,-344.3 712.06,-314.59 664,-272 623.67,-236.26 619.7,-215.47 613,-162 611.95,-153.62 611.06,-151.22 613,-143 616.66,-127.51 625.89,-111.35 632.05,-101.73"/>
<polygon fill="#63b8ff" stroke="#63b8ff" points="822.25,-362.9 832.84,-362.98 824.61,-356.31 822.25,-362.9"/>
</a>
</g>
</g>
<!-- Node18&#45;&gt;Node11 -->
<g id="edge33_Node000018_Node000011" class="edge">
<title>Node18&#45;&gt;Node11</title>
<g id="a_edge33_Node000018_Node000011"><a xlink:title=" ">
<path fill="none" stroke="#63b8ff" d="M911.81,-362.23C963.65,-349.74 1035,-321.93 1035,-263.5 1035,-263.5 1035,-263.5 1035,-151.5 1035,-116.71 1039.49,-105.8 1059,-77 1072.81,-56.62 1096.19,-39.69 1111.36,-30.08"/>
<polygon fill="#63b8ff" stroke="#63b8ff" points="911.02,-358.82 902.05,-364.46 912.58,-365.64 911.02,-358.82"/>
</a>
</g>
</g>
<!-- Node18&#45;&gt;Node19 -->
<g id="edge28_Node000018_Node000019" class="edge">
<title>Node18&#45;&gt;Node19</title>
<g id="a_edge28_Node000018_Node000019"><a xlink:title=" ">
<path fill="none" stroke="#63b8ff" d="M852.89,-353.01C849.59,-340.1 847.11,-322.63 852,-308 865.04,-269.02 900.04,-233.09 917.22,-217.16"/>
<polygon fill="#63b8ff" stroke="#63b8ff" points="849.53,-354.01 855.7,-362.62 856.25,-352.04 849.53,-354.01"/>
</a>
</g>
</g>
<!-- Node20 -->
<g id="Node000020" class="node">
<title>Node20</title>
<g id="a_Node000020"><a xlink:href="tt_8h.html" target="_top" xlink:title=" ">
<polygon fill="white" stroke="#666666" points="929,-327 861,-327 861,-308 929,-308 929,-327"/>
<text text-anchor="middle" x="895" y="-315" font-family="Times,serif" font-size="10.00">ttg/ttg/tt.h</text>
</a>
</g>
</g>
<!-- Node18&#45;&gt;Node20 -->
<g id="edge34_Node000018_Node000020" class="edge">
<title>Node18&#45;&gt;Node20</title>
<g id="a_edge34_Node000018_Node000020"><a xlink:title=" ">
<path fill="none" stroke="#63b8ff" d="M870.62,-354.39C876.82,-345.27 884.17,-334.45 889.17,-327.09"/>
<polygon fill="#63b8ff" stroke="#63b8ff" points="867.67,-352.51 864.94,-362.75 873.46,-356.44 867.67,-352.51"/>
</a>
</g>
</g>
<!-- Node19&#45;&gt;Node2 -->
<g id="edge29_Node000019_Node000002" class="edge">
<title>Node19&#45;&gt;Node2</title>
<g id="a_edge29_Node000019_Node000002"><a xlink:title=" ">
<path fill="none" stroke="#63b8ff" d="M924.33,-188.15C921.23,-173.69 914.67,-154.17 901,-143 865.46,-113.96 728.22,-99.97 667.36,-95.09"/>
<polygon fill="#63b8ff" stroke="#63b8ff" points="920.88,-188.77 926.08,-198 927.77,-187.54 920.88,-188.77"/>
</a>
</g>
</g>
<!-- Node19&#45;&gt;Node10 -->
<g id="edge31_Node000019_Node000010" class="edge">
<title>Node19&#45;&gt;Node10</title>
<g id="a_edge31_Node000019_Node000010"><a xlink:title=" ">
<path fill="none" stroke="#63b8ff" d="M951.56,-192.98C1016.87,-157.02 1193.54,-59.75 1247.28,-30.16"/>
<polygon fill="#63b8ff" stroke="#63b8ff" points="949.83,-189.94 942.76,-197.83 953.2,-196.07 949.83,-189.94"/>
</a>
</g>
</g>
<!-- Node19&#45;&gt;Node11 -->
<g id="edge32_Node000019_Node000011" class="edge">
<title>Node19&#45;&gt;Node11</title>
<g id="a_edge32_Node000019_Node000011"><a xlink:title=" ">
<path fill="none" stroke="#63b8ff" d="M930.29,-188.01C936.14,-160.29 950.9,-107.91 983,-77 999.64,-60.98 1059.41,-41.18 1096.2,-30.08"/>
<polygon fill="#63b8ff" stroke="#63b8ff" points="926.83,-187.46 928.35,-197.95 933.7,-188.8 926.83,-187.46"/>
</a>
</g>
</g>
<!-- Node19&#45;&gt;Node15 -->
<g id="edge30_Node000019_Node000015" class="edge">
<title>Node19&#45;&gt;Node15</title>
<g id="a_edge30_Node000019_Node000015"><a xlink:title=" ">
<path fill="none" stroke="#63b8ff" d="M903.56,-192.7C887.16,-183.04 865.77,-170.44 851.72,-162.17"/>
<polygon fill="#63b8ff" stroke="#63b8ff" points="902.15,-195.93 912.54,-197.98 905.7,-189.89 902.15,-195.93"/>
</a>
</g>
</g>
<!-- Node20&#45;&gt;Node2 -->
<g id="edge35_Node000020_Node000002" class="edge">
<title>Node20&#45;&gt;Node2</title>
<g id="a_edge35_Node000020_Node000002"><a xlink:title=" ">
<path fill="none" stroke="#63b8ff" d="M850.66,-316.1C806.84,-313.69 739.65,-304.4 692,-272 643.28,-238.87 635.19,-218.36 618,-162 611.38,-140.29 624.28,-114.57 632.29,-101.52"/>
<polygon fill="#63b8ff" stroke="#63b8ff" points="850.58,-319.6 860.72,-316.56 850.89,-312.61 850.58,-319.6"/>
</a>
</g>
</g>
<!-- Node20&#45;&gt;Node10 -->
<g id="edge38_Node000020_Node000010" class="edge">
<title>Node20&#45;&gt;Node10</title>
<g id="a_edge38_Node000020_Node000010"><a xlink:title=" ">
<path fill="none" stroke="#63b8ff" d="M939.24,-311.43C1029.2,-299.89 1225,-267.94 1225,-208.5 1225,-208.5 1225,-208.5 1225,-151.5 1225,-104 1248.66,-50.52 1258.64,-30.07"/>
<polygon fill="#63b8ff" stroke="#63b8ff" points="938.56,-307.99 929.07,-312.71 939.43,-314.93 938.56,-307.99"/>
</a>
</g>
</g>
<!-- Node20&#45;&gt;Node11 -->
<g id="edge39_Node000020_Node000011" class="edge">
<title>Node20&#45;&gt;Node11</title>
<g id="a_edge39_Node000020_Node000011"><a xlink:title=" ">
<path fill="none" stroke="#63b8ff" d="M921.6,-303.08C951.82,-285.73 997,-252.44 997,-208.5 997,-208.5 997,-208.5 997,-151.5 997,-116.71 998.64,-103.65 1021,-77 1040.75,-53.46 1073.08,-38.52 1096.65,-30.15"/>
<polygon fill="#63b8ff" stroke="#63b8ff" points="919.84,-300.06 912.77,-307.95 923.21,-306.19 919.84,-300.06"/>
</a>
</g>
</g>
<!-- Node20&#45;&gt;Node15 -->
<g id="edge36_Node000020_Node000015" class="edge">
<title>Node20&#45;&gt;Node15</title>
<g id="a_edge36_Node000020_Node000015"><a xlink:title=" ">
<path fill="none" stroke="#63b8ff" d="M888.52,-298.28C876.08,-263.32 849.28,-188.01 840.13,-162.31"/>
<polygon fill="#63b8ff" stroke="#63b8ff" points="885.23,-299.49 891.88,-307.74 891.83,-297.14 885.23,-299.49"/>
</a>
</g>
</g>
<!-- Node20&#45;&gt;Node19 -->
<g id="edge37_Node000020_Node000019" class="edge">
<title>Node20&#45;&gt;Node19</title>
<g id="a_edge37_Node000020_Node000019"><a xlink:title=" ">
<path fill="none" stroke="#63b8ff" d="M900.54,-297.8C907.53,-274.2 919.27,-234.58 924.43,-217.16"/>
<polygon fill="#63b8ff" stroke="#63b8ff" points="897.1,-297.08 897.62,-307.66 903.82,-299.07 897.1,-297.08"/>
</a>
</g>
</g>
<!-- Node21 -->
<g id="Node000021" class="node">
<title>Node21</title>
<g id="a_Node000021"><a xlink:href="traverse_8h.html" target="_top" xlink:title=" ">
<polygon fill="white" stroke="#666666" points="804.5,-272 701.5,-272 701.5,-253 804.5,-253 804.5,-272"/>
<text text-anchor="middle" x="753" y="-260" font-family="Times,serif" font-size="10.00">ttg/ttg/traverse.h</text>
</a>
</g>
</g>
<!-- Node20&#45;&gt;Node21 -->
<g id="edge40_Node000020_Node000021" class="edge">
<title>Node20&#45;&gt;Node21</title>
<g id="a_edge40_Node000020_Node000021"><a xlink:title=" ">
<path fill="none" stroke="#63b8ff" d="M862.64,-304.42C836.29,-294.59 799.74,-280.95 776.23,-272.17"/>
<polygon fill="#63b8ff" stroke="#63b8ff" points="861.59,-307.77 872.19,-307.98 864.04,-301.21 861.59,-307.77"/>
</a>
</g>
</g>
<!-- Node21&#45;&gt;Node2 -->
<g id="edge41_Node000021_Node000002" class="edge">
<title>Node21&#45;&gt;Node2</title>
<g id="a_edge41_Node000021_Node000002"><a xlink:title=" ">
<path fill="none" stroke="#63b8ff" d="M754.67,-242.75C755.91,-217.62 754.54,-172.75 733,-143 717.15,-121.11 688.78,-107.98 667.15,-100.7"/>
<polygon fill="#63b8ff" stroke="#63b8ff" points="751.17,-242.56 753.98,-252.78 758.16,-243.04 751.17,-242.56"/>
</a>
</g>
</g>
<!-- Node21&#45;&gt;Node19 -->
<g id="edge42_Node000021_Node000019" class="edge">
<title>Node21&#45;&gt;Node19</title>
<g id="a_edge42_Node000021_Node000019"><a xlink:title=" ">
<path fill="none" stroke="#63b8ff" d="M790.57,-250.06C823.09,-240.15 869.4,-226.04 898.82,-217.08"/>
<polygon fill="#63b8ff" stroke="#63b8ff" points="789.5,-246.72 780.96,-252.98 791.54,-253.42 789.5,-246.72"/>
</a>
</g>
</g>
<!-- Node22 -->
<g id="Node000022" class="node">
<title>Node22</title>
<g id="a_Node000022"><a xlink:href="dot_8h.html" target="_top" xlink:title=" ">
<polygon fill="white" stroke="#666666" points="724.5,-162 627.5,-162 627.5,-143 724.5,-143 724.5,-162"/>
<text text-anchor="middle" x="676" y="-150" font-family="Times,serif" font-size="10.00">ttg/ttg/util/dot.h</text>
</a>
</g>
</g>
<!-- Node21&#45;&gt;Node22 -->
<g id="edge43_Node000021_Node000022" class="edge">
<title>Node21&#45;&gt;Node22</title>
<g id="a_edge43_Node000021_Node000022"><a xlink:title=" ">
<path fill="none" stroke="#63b8ff" d="M740.8,-244.38C724.13,-221.01 694.87,-179.97 682.17,-162.16"/>
<polygon fill="#63b8ff" stroke="#63b8ff" points="738.04,-246.55 746.7,-252.66 743.74,-242.49 738.04,-246.55"/>
</a>
</g>
</g>
<!-- Node22&#45;&gt;Node2 -->
<g id="edge44_Node000022_Node000002" class="edge">
<title>Node22&#45;&gt;Node2</title>
<g id="a_edge44_Node000022_Node000002"><a xlink:title=" ">
<path fill="none" stroke="#63b8ff" d="M664.83,-134.3C657.86,-123.58 649.2,-110.23 643.63,-101.67"/>
<polygon fill="#63b8ff" stroke="#63b8ff" points="662.01,-136.39 670.39,-142.87 667.88,-132.58 662.01,-136.39"/>
</a>
</g>
</g>
<!-- Node23&#45;&gt;Node6 -->
<g id="edge51_Node000023_Node000006" class="edge">
<title>Node23&#45;&gt;Node6</title>
<g id="a_edge51_Node000023_Node000006"><a xlink:title=" ">
<path fill="none" stroke="#63b8ff" d="M371,-66.75C371,-56.31 371,-44.49 371,-35.54"/>
<polygon fill="#63b8ff" stroke="#63b8ff" points="367.5,-66.94 371,-76.94 374.5,-66.94 367.5,-66.94"/>
</a>
</g>
</g>
<!-- Node23&#45;&gt;Node7 -->
<g id="edge52_Node000023_Node000007" class="edge">
<title>Node23&#45;&gt;Node7</title>
<g id="a_edge52_Node000023_Node000007"><a xlink:title=" ">
<path fill="none" stroke="#63b8ff" d="M303.68,-76.89C258.21,-67.2 196.88,-53.82 143,-41 135.84,-39.3 128.33,-37.45 120.92,-35.58"/>
<polygon fill="#63b8ff" stroke="#63b8ff" points="303.21,-80.37 313.72,-79.02 304.66,-73.52 303.21,-80.37"/>
</a>
</g>
</g>
<!-- Node23&#45;&gt;Node8 -->
<g id="edge53_Node000023_Node000008" class="edge">
<title>Node23&#45;&gt;Node8</title>
<g id="a_edge53_Node000023_Node000008"><a xlink:title=" ">
<path fill="none" stroke="#63b8ff" d="M330.87,-72.65C305.45,-61.03 273.09,-46.23 249.71,-35.54"/>
<polygon fill="#63b8ff" stroke="#63b8ff" points="329.69,-75.96 340.24,-76.94 332.6,-69.59 329.69,-75.96"/>
</a>
</g>
</g>
<!-- Node23&#45;&gt;Node12 -->
<g id="edge54_Node000023_Node000012" class="edge">
<title>Node23&#45;&gt;Node12</title>
<g id="a_edge54_Node000023_Node000012"><a xlink:title=" ">
<path fill="none" stroke="#63b8ff" d="M387.45,-116.18C398,-138.81 409,-174.43 409,-206.5 409,-538.5 409,-538.5 409,-538.5 409,-585.66 450.49,-583.81 494,-602 570.8,-634.1 667.5,-643.42 726.3,-645.92"/>
<polygon fill="#63b8ff" stroke="#63b8ff" points="390.46,-114.39 382.83,-107.04 384.21,-117.54 390.46,-114.39"/>
</a>
</g>
</g>
</g>
</svg>
