<?xml version="1.0" encoding="UTF-8" standalone="no"?>
<!DOCTYPE svg PUBLIC "-//W3C//DTD SVG 1.1//EN"
 "http://www.w3.org/Graphics/SVG/1.1/DTD/svg11.dtd">
<!-- Generated by graphviz version 2.43.0 (0)
 -->
<!-- Title: ttg/ttg/util/void.h Pages: 1 -->
<svg width="429pt" height="192pt"
 viewBox="0.00 0.00 429.00 192.00" xmlns="http://www.w3.org/2000/svg" xmlns:xlink="http://www.w3.org/1999/xlink">

<svg id="main" version="1.1" xmlns="http://www.w3.org/2000/svg" xmlns:xlink="http://www.w3.org/1999/xlink" xml:space="preserve" onload="init(evt)">
<style type="text/css"><![CDATA[
.node, .edge {opacity: 0.7;}
.node.selected, .edge.selected {opacity: 1;}
.edge:hover path { stroke: red; }
.edge:hover polygon { stroke: red; fill: red; }
]]></style>
<script type="application/ecmascript" xlink:href="svg.min.js"/>
<svg id="graph" class="graph">
<g id="graph0" class="graph" transform="scale(1 1) rotate(0) translate(4 188)">
<title>ttg/ttg/util/void.h</title>
<!-- Node1 -->
<g id="Node000001" class="node">
<title>Node1</title>
<g id="a_Node000001"><a xlink:title=" ">
<polygon fill="#999999" stroke="#666666" points="146.5,-184 44.5,-184 44.5,-165 146.5,-165 146.5,-184"/>
<text text-anchor="middle" x="95.5" y="-172" font-family="Times,serif" font-size="10.00">ttg/ttg/util/void.h</text>
</a>
</g>
</g>
<!-- Node2 -->
<g id="Node000002" class="node">
<title>Node2</title>
<g id="a_Node000002"><a xlink:title=" ">
<polygon fill="#e0e0e0" stroke="#999999" points="80,-129 19,-129 19,-110 80,-110 80,-129"/>
<text text-anchor="middle" x="49.5" y="-117" font-family="Times,serif" font-size="10.00">iostream</text>
</a>
</g>
</g>
<!-- Node1&#45;&gt;Node2 -->
<g id="edge1_Node000001_Node000002" class="edge">
<title>Node1&#45;&gt;Node2</title>
<g id="a_edge1_Node000001_Node000002"><a xlink:title=" ">
<path fill="none" stroke="#63b8ff" d="M87.9,-164.75C81.34,-157.18 71.68,-146.05 63.69,-136.84"/>
<polygon fill="#63b8ff" stroke="#63b8ff" points="66.15,-134.35 56.95,-129.09 60.87,-138.94 66.15,-134.35"/>
</a>
</g>
</g>
<!-- Node3 -->
<g id="Node000003" class="node">
<title>Node3</title>
<g id="a_Node000003"><a xlink:href="meta_8h.html" target="_top" xlink:title=" ">
<polygon fill="white" stroke="#666666" points="187,-129 98,-129 98,-110 187,-110 187,-129"/>
<text text-anchor="middle" x="142.5" y="-117" font-family="Times,serif" font-size="10.00">ttg/util/meta.h</text>
</a>
</g>
</g>
<!-- Node1&#45;&gt;Node3 -->
<g id="edge2_Node000001_Node000003" class="edge">
<title>Node1&#45;&gt;Node3</title>
<g id="a_edge2_Node000001_Node000003"><a xlink:title=" ">
<path fill="none" stroke="#63b8ff" d="M103.26,-164.75C109.97,-157.18 119.84,-146.05 128.01,-136.84"/>
<polygon fill="#63b8ff" stroke="#63b8ff" points="130.87,-138.89 134.88,-129.09 125.63,-134.25 130.87,-138.89"/>
</a>
</g>
</g>
<!-- Node4 -->
<g id="Node000004" class="node">
<title>Node4</title>
<g id="a_Node000004"><a xlink:title=" ">
<polygon fill="#e0e0e0" stroke="#999999" points="78.5,-74 10.5,-74 10.5,-55 78.5,-55 78.5,-74"/>
<text text-anchor="middle" x="44.5" y="-62" font-family="Times,serif" font-size="10.00">functional</text>
</a>
</g>
</g>
<!-- Node3&#45;&gt;Node4 -->
<g id="edge3_Node000003_Node000004" class="edge">
<title>Node3&#45;&gt;Node4</title>
<g id="a_edge3_Node000003_Node000004"><a xlink:title=" ">
<path fill="none" stroke="#63b8ff" d="M126.75,-109.98C111.27,-101.61 87.41,-88.7 69.36,-78.95"/>
<polygon fill="#63b8ff" stroke="#63b8ff" points="70.99,-75.85 60.53,-74.17 67.66,-82.01 70.99,-75.85"/>
</a>
</g>
</g>
<!-- Node5 -->
<g id="Node000005" class="node">
<title>Node5</title>
<g id="a_Node000005"><a xlink:title=" ">
<polygon fill="#e0e0e0" stroke="#999999" points="71,-19 0,-19 0,0 71,0 71,-19"/>
<text text-anchor="middle" x="35.5" y="-7" font-family="Times,serif" font-size="10.00">type_traits</text>
</a>
</g>
</g>
<!-- Node3&#45;&gt;Node5 -->
<g id="edge4_Node000003_Node000005" class="edge">
<title>Node3&#45;&gt;Node5</title>
<g id="a_edge4_Node000003_Node000005"><a xlink:title=" ">
<path fill="none" stroke="#63b8ff" d="M135.76,-109.93C125.75,-97.38 106.12,-73.51 87.5,-55 77.1,-44.66 64.64,-33.95 54.52,-25.62"/>
<polygon fill="#63b8ff" stroke="#63b8ff" points="56.64,-22.84 46.67,-19.25 52.23,-28.27 56.64,-22.84"/>
</a>
</g>
</g>
<!-- Node6 -->
<g id="Node000006" class="node">
<title>Node6</title>
<g id="a_Node000006"><a xlink:href="span_8h.html" target="_top" xlink:title=" ">
<polygon fill="white" stroke="#666666" points="222.5,-74 134.5,-74 134.5,-55 222.5,-55 222.5,-74"/>
<text text-anchor="middle" x="178.5" y="-62" font-family="Times,serif" font-size="10.00">ttg/util/span.h</text>
</a>
</g>
</g>
<!-- Node3&#45;&gt;Node6 -->
<g id="edge5_Node000003_Node000006" class="edge">
<title>Node3&#45;&gt;Node6</title>
<g id="a_edge5_Node000003_Node000006"><a xlink:title=" ">
<path fill="none" stroke="#63b8ff" d="M148.44,-109.75C153.48,-102.34 160.84,-91.5 167.01,-82.41"/>
<polygon fill="#63b8ff" stroke="#63b8ff" points="169.94,-84.33 172.67,-74.09 164.15,-80.39 169.94,-84.33"/>
</a>
</g>
</g>
<!-- Node11 -->
<g id="Node000011" class="node">
<title>Node11</title>
<g id="a_Node000011"><a xlink:href="typelist_8h.html" target="_top" xlink:title=" ">
<polygon fill="white" stroke="#666666" points="396,-74 295,-74 295,-55 396,-55 396,-74"/>
<text text-anchor="middle" x="345.5" y="-62" font-family="Times,serif" font-size="10.00">ttg/util/typelist.h</text>
</a>
</g>
</g>
<!-- Node3&#45;&gt;Node11 -->
<g id="edge11_Node000003_Node000011" class="edge">
<title>Node3&#45;&gt;Node11</title>
<g id="a_edge11_Node000003_Node000011"><a xlink:title=" ">
<path fill="none" stroke="#63b8ff" d="M175.12,-109.98C209.79,-100.93 264.76,-86.58 302.85,-76.64"/>
<polygon fill="#63b8ff" stroke="#63b8ff" points="303.84,-79.99 312.63,-74.08 302.07,-73.22 303.84,-79.99"/>
</a>
</g>
</g>
<!-- Node6&#45;&gt;Node5 -->
<g id="edge9_Node000006_Node000005" class="edge">
<title>Node6&#45;&gt;Node5</title>
<g id="a_edge9_Node000006_Node000005"><a xlink:title=" ">
<path fill="none" stroke="#63b8ff" d="M155.52,-54.98C132,-46.27 95.21,-32.63 68.56,-22.75"/>
<polygon fill="#63b8ff" stroke="#63b8ff" points="69.49,-19.36 58.89,-19.17 67.05,-25.93 69.49,-19.36"/>
</a>
</g>
</g>
<!-- Node7 -->
<g id="Node000007" class="node">
<title>Node7</title>
<g id="a_Node000007"><a xlink:title=" ">
<polygon fill="#e0e0e0" stroke="#999999" points="133.5,-19 89.5,-19 89.5,0 133.5,0 133.5,-19"/>
<text text-anchor="middle" x="111.5" y="-7" font-family="Times,serif" font-size="10.00">array</text>
</a>
</g>
</g>
<!-- Node6&#45;&gt;Node7 -->
<g id="edge6_Node000006_Node000007" class="edge">
<title>Node6&#45;&gt;Node7</title>
<g id="a_edge6_Node000006_Node000007"><a xlink:title=" ">
<path fill="none" stroke="#63b8ff" d="M167.74,-54.98C157.73,-47.07 142.61,-35.11 130.57,-25.58"/>
<polygon fill="#63b8ff" stroke="#63b8ff" points="132.47,-22.63 122.46,-19.17 128.13,-28.12 132.47,-22.63"/>
</a>
</g>
</g>
<!-- Node8 -->
<g id="Node000008" class="node">
<title>Node8</title>
<g id="a_Node000008"><a xlink:title=" ">
<polygon fill="#e0e0e0" stroke="#999999" points="205.5,-19 151.5,-19 151.5,0 205.5,0 205.5,-19"/>
<text text-anchor="middle" x="178.5" y="-7" font-family="Times,serif" font-size="10.00">cstddef</text>
</a>
</g>
</g>
<!-- Node6&#45;&gt;Node8 -->
<g id="edge7_Node000006_Node000008" class="edge">
<title>Node6&#45;&gt;Node8</title>
<g id="a_edge7_Node000006_Node000008"><a xlink:title=" ">
<path fill="none" stroke="#63b8ff" d="M178.5,-54.75C178.5,-47.8 178.5,-37.85 178.5,-29.13"/>
<polygon fill="#63b8ff" stroke="#63b8ff" points="182,-29.09 178.5,-19.09 175,-29.09 182,-29.09"/>
</a>
</g>
</g>
<!-- Node9 -->
<g id="Node000009" class="node">
<title>Node9</title>
<g id="a_Node000009"><a xlink:title=" ">
<polygon fill="#e0e0e0" stroke="#999999" points="275,-19 224,-19 224,0 275,0 275,-19"/>
<text text-anchor="middle" x="249.5" y="-7" font-family="Times,serif" font-size="10.00">cstdint</text>
</a>
</g>
</g>
<!-- Node6&#45;&gt;Node9 -->
<g id="edge8_Node000006_Node000009" class="edge">
<title>Node6&#45;&gt;Node9</title>
<g id="a_edge8_Node000006_Node000009"><a xlink:title=" ">
<path fill="none" stroke="#63b8ff" d="M189.91,-54.98C200.61,-47 216.84,-34.88 229.66,-25.31"/>
<polygon fill="#63b8ff" stroke="#63b8ff" points="231.97,-27.96 237.89,-19.17 227.78,-22.35 231.97,-27.96"/>
</a>
</g>
</g>
<!-- Node10 -->
<g id="Node000010" class="node">
<title>Node10</title>
<g id="a_Node000010"><a xlink:title=" ">
<polygon fill="#e0e0e0" stroke="#999999" points="359.5,-19 293.5,-19 293.5,0 359.5,0 359.5,-19"/>
<text text-anchor="middle" x="326.5" y="-7" font-family="Times,serif" font-size="10.00">exception</text>
</a>
</g>
</g>
<!-- Node6&#45;&gt;Node10 -->
<g id="edge10_Node000006_Node000010" class="edge">
<title>Node6&#45;&gt;Node10</title>
<g id="a_edge10_Node000006_Node000010"><a xlink:title=" ">
<path fill="none" stroke="#63b8ff" d="M202.28,-54.98C226.73,-46.23 265.03,-32.51 292.65,-22.62"/>
<polygon fill="#63b8ff" stroke="#63b8ff" points="294.05,-25.84 302.29,-19.17 291.69,-19.25 294.05,-25.84"/>
</a>
</g>
</g>
<!-- Node12 -->
<g id="Node000012" class="node">
<title>Node12</title>
<g id="a_Node000012"><a xlink:title=" ">
<polygon fill="#e0e0e0" stroke="#999999" points="421,-19 378,-19 378,0 421,0 421,-19"/>
<text text-anchor="middle" x="399.5" y="-7" font-family="Times,serif" font-size="10.00">tuple</text>
</a>
</g>
</g>
<!-- Node11&#45;&gt;Node12 -->
<g id="edge12_Node000011_Node000012" class="edge">
<title>Node11&#45;&gt;Node12</title>
<g id="a_edge12_Node000011_Node000012"><a xlink:title=" ">
<path fill="none" stroke="#63b8ff" d="M354.42,-54.75C362.28,-47.03 373.93,-35.6 383.42,-26.28"/>
<polygon fill="#63b8ff" stroke="#63b8ff" points="386.06,-28.59 390.75,-19.09 381.16,-23.6 386.06,-28.59"/>
</a>
</g>
</g>
</g>
</svg>
</svg>

<style type='text/css'>
<![CDATA[
[data-mouse-over-selected='false'] { opacity: 0.7; }
[data-mouse-over-selected='true']  { opacity: 1.0; }
]]>
</style>
<script type="application/ecmascript"><![CDATA[
document.addEventListener('DOMContentLoaded', (event) => {
  highlightEdges();
  highlightAdjacentNodes();
});
]]></script>
</svg>
