<?xml version="1.0" encoding="UTF-8" standalone="no"?>
<!DOCTYPE svg PUBLIC "-//W3C//DTD SVG 1.1//EN"
 "http://www.w3.org/Graphics/SVG/1.1/DTD/svg11.dtd">
<!-- Generated by graphviz version 2.43.0 (0)
 -->
<!-- Title: ttg/ttg/world.h Pages: 1 -->
<!--zoomable 544 -->

<svg id="main" version="1.1" xmlns="http://www.w3.org/2000/svg" xmlns:xlink="http://www.w3.org/1999/xlink" xml:space="preserve" onload="init(evt)">
<style type="text/css"><![CDATA[
.node, .edge {opacity: 0.7;}
.node.selected, .edge.selected {opacity: 1;}
.edge:hover path { stroke: red; }
.edge:hover polygon { stroke: red; fill: red; }
]]></style>

<defs>
  <circle id="rim" cx="0" cy="0" r="7"/>
  <circle id="rim2" cx="0" cy="0" r="3.5"/>
  <g id="zoomPlus">
    <use xlink:href="#rim" fill="#404040"><set attributeName="fill" to="#808080" begin="zoomplus.mouseover" end="zoomplus.mouseout"/></use>
    <path d="M-4,0h8M0,-4v8" fill="none" stroke="white" stroke-width="1.5" pointer-events="none"/>
  </g>
  <g id="zoomMin">
    <use xlink:href="#rim" fill="#404040"><set attributeName="fill" to="#808080" begin="zoomminus.mouseover" end="zoomminus.mouseout"/></use>
    <path d="M-4,0h8" fill="none" stroke="white" stroke-width="1.5" pointer-events="none"/>
  </g>
  <g id="arrowUp" transform="translate(30 24)">
    <use xlink:href="#rim"/>
    <path pointer-events="none" fill="none" stroke="white" stroke-width="1.5" d="M0,-3.0v7 M-2.5,-0.5L0,-3.0L2.5,-0.5"/>
  </g>
  <g id="arrowRight" transform="rotate(90) translate(36 -43)">
    <use xlink:href="#rim"/>
    <path pointer-events="none" fill="none" stroke="white" stroke-width="1.5" d="M0,-3.0v7 M-2.5,-0.5L0,-3.0L2.5,-0.5"/>
  </g>
  <g id="arrowDown" transform="rotate(180) translate(-30 -48)">
    <use xlink:href="#rim"/>
    <path pointer-events="none" fill="none" stroke="white" stroke-width="1.5" d="M0,-3.0v7 M-2.5,-0.5L0,-3.0L2.5,-0.5"/>
  </g>
  <g id="arrowLeft" transform="rotate(270) translate(-36 17)">
    <use xlink:href="#rim"/>
    <path pointer-events="none" fill="none" stroke="white" stroke-width="1.5" d="M0,-3.0v7 M-2.5,-0.5L0,-3.0L2.5,-0.5"/>
  </g>
  <g id="resetDef">
    <use xlink:href="#rim2" fill="#404040"><set attributeName="fill" to="#808080" begin="reset.mouseover" end="reset.mouseout"/></use>
  </g>
</defs>
<script type="application/ecmascript">
var viewWidth = 1332;
var viewHeight = 544;
var sectionId = 'dynsection-1';
</script>
<script type="application/ecmascript" xlink:href="svg.min.js"/>
<svg id="graph" class="graph">
<g id="viewport">
<title>ttg/ttg/world.h</title>
<!-- Node1 -->
<g id="Node000001" class="node">
<title>Node1</title>
<g id="a_Node000001"><a xlink:title=" ">
<polygon fill="#999999" stroke="#666666" points="748.5,-536 659.5,-536 659.5,-517 748.5,-517 748.5,-536"/>
<text text-anchor="middle" x="704" y="-524" font-family="Times,serif" font-size="10.00">ttg/ttg/world.h</text>
</a>
</g>
</g>
<!-- Node2 -->
<g id="Node000002" class="node">
<title>Node2</title>
<g id="a_Node000002"><a xlink:href="ttg_8h.html" target="_top" xlink:title=" ">
<polygon fill="white" stroke="#666666" points="798,-96 740,-96 740,-77 798,-77 798,-96"/>
<text text-anchor="middle" x="769" y="-84" font-family="Times,serif" font-size="10.00">ttg/ttg.h</text>
</a>
</g>
</g>
<!-- Node1&#45;&gt;Node2 -->
<g id="edge1_Node000001_Node000002" class="edge">
<title>Node1&#45;&gt;Node2</title>
<g id="a_edge1_Node000001_Node000002"><a xlink:title=" ">
<path fill="none" stroke="#63b8ff" d="M679.31,-511.67C651.16,-493.86 609,-460.09 609,-417.5 609,-417.5 609,-417.5 609,-195.5 609,-133.16 693.46,-104.4 739.65,-93.33"/>
<polygon fill="#63b8ff" stroke="#63b8ff" points="677.52,-514.68 687.88,-516.88 681.16,-508.69 677.52,-514.68"/>
</a>
</g>
</g>
<!-- Node10 -->
<g id="Node000010" class="node">
<title>Node10</title>
<g id="a_Node000010"><a xlink:href="ttg_2madness_2ttg_8h.html" target="_top" xlink:title=" ">
<polygon fill="white" stroke="#666666" points="1194,-30 1070,-30 1070,-11 1194,-11 1194,-30"/>
<text text-anchor="middle" x="1132" y="-18" font-family="Times,serif" font-size="10.00">ttg/ttg/madness/ttg.h</text>
</a>
</g>
</g>
<!-- Node1&#45;&gt;Node10 -->
<g id="edge13_Node000001_Node000010" class="edge">
<title>Node1&#45;&gt;Node10</title>
<g id="a_edge13_Node000001_Node000010"><a xlink:title=" ">
<path fill="none" stroke="#63b8ff" d="M707.55,-507C710.61,-493.83 715.84,-476.06 724,-462 784.46,-357.89 1068.01,-83 1122.82,-30.3"/>
<polygon fill="#63b8ff" stroke="#63b8ff" points="704.13,-506.28 705.48,-516.79 710.97,-507.73 704.13,-506.28"/>
</a>
</g>
</g>
<!-- Node12 -->
<g id="Node000012" class="node">
<title>Node12</title>
<g id="a_Node000012"><a xlink:href="broadcast_8h.html" target="_top" xlink:title=" ">
<polygon fill="white" stroke="#666666" points="824.5,-151 713.5,-151 713.5,-132 824.5,-132 824.5,-151"/>
<text text-anchor="middle" x="769" y="-139" font-family="Times,serif" font-size="10.00">ttg/ttg/broadcast.h</text>
</a>
</g>
</g>
<!-- Node1&#45;&gt;Node12 -->
<g id="edge11_Node000001_Node000012" class="edge">
<title>Node1&#45;&gt;Node12</title>
<g id="a_edge11_Node000001_Node000012"><a xlink:title=" ">
<path fill="none" stroke="#63b8ff" d="M688.95,-509.24C672.06,-489.24 647,-453.49 647,-417.5 647,-417.5 647,-417.5 647,-250.5 647,-198.59 709.68,-165.61 745.19,-151.09"/>
<polygon fill="#63b8ff" stroke="#63b8ff" points="686.36,-511.6 695.59,-516.8 691.62,-506.98 686.36,-511.6"/>
</a>
</g>
</g>
<!-- Node13 -->
<g id="Node000013" class="node">
<title>Node13</title>
<g id="a_Node000013"><a xlink:href="run_8h.html" target="_top" xlink:title=" ">
<polygon fill="white" stroke="#666666" points="811.5,-481 732.5,-481 732.5,-462 811.5,-462 811.5,-481"/>
<text text-anchor="middle" x="772" y="-469" font-family="Times,serif" font-size="10.00">ttg/ttg/run.h</text>
</a>
</g>
</g>
<!-- Node1&#45;&gt;Node13 -->
<g id="edge14_Node000001_Node000013" class="edge">
<title>Node1&#45;&gt;Node13</title>
<g id="a_edge14_Node000001_Node000013"><a xlink:title=" ">
<path fill="none" stroke="#63b8ff" d="M723.12,-510.6C735.3,-501.11 750.66,-489.13 760.88,-481.17"/>
<polygon fill="#63b8ff" stroke="#63b8ff" points="720.66,-508.08 714.93,-516.98 724.96,-513.6 720.66,-508.08"/>
</a>
</g>
</g>
<!-- Node14 -->
<g id="Node000014" class="node">
<title>Node14</title>
<g id="a_Node000014"><a xlink:href="terminal_8h.html" target="_top" xlink:title=" ">
<polygon fill="white" stroke="#666666" points="1198,-426 1094,-426 1094,-407 1198,-407 1198,-426"/>
<text text-anchor="middle" x="1146" y="-414" font-family="Times,serif" font-size="10.00">ttg/ttg/terminal.h</text>
</a>
</g>
</g>
<!-- Node1&#45;&gt;Node14 -->
<g id="edge38_Node000001_Node000014" class="edge">
<title>Node1&#45;&gt;Node14</title>
<g id="a_edge38_Node000001_Node000014"><a xlink:title=" ">
<path fill="none" stroke="#63b8ff" d="M749.03,-514.5C837.3,-492.93 1031.4,-445.5 1110.94,-426.07"/>
<polygon fill="#63b8ff" stroke="#63b8ff" points="747.94,-511.16 739.05,-516.94 749.6,-517.96 747.94,-511.16"/>
</a>
</g>
</g>
<!-- Node3 -->
<g id="Node000003" class="node">
<title>Node3</title>
<g id="a_Node000003"><a xlink:href="fibonacci_8cc.html" target="_top" xlink:title=" ">
<polygon fill="white" stroke="#666666" points="584,-35.5 456,-35.5 456,-5.5 584,-5.5 584,-35.5"/>
<text text-anchor="start" x="464" y="-23.5" font-family="Times,serif" font-size="10.00">doc/dox/dev/devsamp</text>
<text text-anchor="middle" x="520" y="-12.5" font-family="Times,serif" font-size="10.00">/fibonacci/fibonacci.cc</text>
</a>
</g>
</g>
<!-- Node2&#45;&gt;Node3 -->
<g id="edge2_Node000002_Node000003" class="edge">
<title>Node2&#45;&gt;Node3</title>
<g id="a_edge2_Node000002_Node000003"><a xlink:title=" ">
<path fill="none" stroke="#63b8ff" d="M729.69,-75.72C693.99,-66.8 639.92,-53.2 593,-41 586.27,-39.25 579.2,-37.39 572.22,-35.54"/>
<polygon fill="#63b8ff" stroke="#63b8ff" points="729.15,-79.19 739.7,-78.22 730.84,-72.4 729.15,-79.19"/>
</a>
</g>
</g>
<!-- Node4 -->
<g id="Node000004" class="node">
<title>Node4</title>
<g id="a_Node000004"><a xlink:href="fibonacci__device_8cc.html" target="_top" xlink:title=" ">
<polygon fill="white" stroke="#666666" points="730,-41 602,-41 602,0 730,0 730,-41"/>
<text text-anchor="start" x="610" y="-29" font-family="Times,serif" font-size="10.00">doc/dox/dev/devsamp</text>
<text text-anchor="start" x="610" y="-18" font-family="Times,serif" font-size="10.00">/fibonacci/fibonacci</text>
<text text-anchor="middle" x="666" y="-7" font-family="Times,serif" font-size="10.00">_device.cc</text>
</a>
</g>
</g>
<!-- Node2&#45;&gt;Node4 -->
<g id="edge3_Node000002_Node000004" class="edge">
<title>Node2&#45;&gt;Node4</title>
<g id="a_edge3_Node000002_Node000004"><a xlink:title=" ">
<path fill="none" stroke="#63b8ff" d="M746.38,-71.45C732.01,-62.52 713.21,-50.83 697.4,-41.01"/>
<polygon fill="#63b8ff" stroke="#63b8ff" points="744.77,-74.56 755.11,-76.87 748.46,-68.62 744.77,-74.56"/>
</a>
</g>
</g>
<!-- Node5 -->
<g id="Node000005" class="node">
<title>Node5</title>
<g id="a_Node000005"><a xlink:href="helloworld_8cpp.html" target="_top" xlink:title=" ">
<polygon fill="white" stroke="#666666" points="899.5,-35.5 748.5,-35.5 748.5,-5.5 899.5,-5.5 899.5,-35.5"/>
<text text-anchor="start" x="756.5" y="-23.5" font-family="Times,serif" font-size="10.00">doc/dox/dev/devsamp</text>
<text text-anchor="middle" x="824" y="-12.5" font-family="Times,serif" font-size="10.00">/helloworld/helloworld.cpp</text>
</a>
</g>
</g>
<!-- Node2&#45;&gt;Node5 -->
<g id="edge4_Node000002_Node000005" class="edge">
<title>Node2&#45;&gt;Node5</title>
<g id="a_edge4_Node000002_Node000005"><a xlink:title=" ">
<path fill="none" stroke="#63b8ff" d="M783.14,-69.04C791.96,-58.78 803.2,-45.7 811.66,-35.86"/>
<polygon fill="#63b8ff" stroke="#63b8ff" points="780.28,-67 776.42,-76.87 785.59,-71.57 780.28,-67"/>
</a>
</g>
</g>
<!-- Node6 -->
<g id="Node000006" class="node">
<title>Node6</title>
<g id="a_Node000006"><a xlink:href="distributed_8cc.html" target="_top" xlink:title=" ">
<polygon fill="white" stroke="#666666" points="1052,-35.5 918,-35.5 918,-5.5 1052,-5.5 1052,-35.5"/>
<text text-anchor="start" x="926" y="-23.5" font-family="Times,serif" font-size="10.00">doc/dox/user/examples</text>
<text text-anchor="middle" x="985" y="-12.5" font-family="Times,serif" font-size="10.00">/distributed.cc</text>
</a>
</g>
</g>
<!-- Node2&#45;&gt;Node6 -->
<g id="edge5_Node000002_Node000006" class="edge">
<title>Node2&#45;&gt;Node6</title>
<g id="a_edge5_Node000002_Node000006"><a xlink:title=" ">
<path fill="none" stroke="#63b8ff" d="M807.87,-73.98C844.17,-63.23 898.46,-47.14 937.36,-35.62"/>
<polygon fill="#63b8ff" stroke="#63b8ff" points="806.72,-70.67 798.13,-76.87 808.71,-77.38 806.72,-70.67"/>
</a>
</g>
</g>
<!-- Node7 -->
<g id="Node000007" class="node">
<title>Node7</title>
<g id="a_Node000007"><a xlink:href="iterative_8cc.html" target="_top" xlink:title=" ">
<polygon fill="white" stroke="#666666" points="134,-35.5 0,-35.5 0,-5.5 134,-5.5 134,-35.5"/>
<text text-anchor="start" x="8" y="-23.5" font-family="Times,serif" font-size="10.00">doc/dox/user/examples</text>
<text text-anchor="middle" x="67" y="-12.5" font-family="Times,serif" font-size="10.00">/iterative.cc</text>
</a>
</g>
</g>
<!-- Node2&#45;&gt;Node7 -->
<g id="edge6_Node000002_Node000007" class="edge">
<title>Node2&#45;&gt;Node7</title>
<g id="a_edge6_Node000002_Node000007"><a xlink:title=" ">
<path fill="none" stroke="#63b8ff" d="M729.61,-85.16C630.44,-83.76 362.72,-76.7 143,-41 134.39,-39.6 125.34,-37.68 116.6,-35.59"/>
<polygon fill="#63b8ff" stroke="#63b8ff" points="729.72,-88.66 739.77,-85.29 729.81,-81.66 729.72,-88.66"/>
</a>
</g>
</g>
<!-- Node8 -->
<g id="Node000008" class="node">
<title>Node8</title>
<g id="a_Node000008"><a xlink:href="reducing_8cc.html" target="_top" xlink:title=" ">
<polygon fill="white" stroke="#666666" points="286,-35.5 152,-35.5 152,-5.5 286,-5.5 286,-35.5"/>
<text text-anchor="start" x="160" y="-23.5" font-family="Times,serif" font-size="10.00">doc/dox/user/examples</text>
<text text-anchor="middle" x="219" y="-12.5" font-family="Times,serif" font-size="10.00">/reducing.cc</text>
</a>
</g>
</g>
<!-- Node2&#45;&gt;Node8 -->
<g id="edge7_Node000002_Node000008" class="edge">
<title>Node2&#45;&gt;Node8</title>
<g id="a_edge7_Node000002_Node000008"><a xlink:title=" ">
<path fill="none" stroke="#63b8ff" d="M729.63,-83.9C648.04,-80.13 454.76,-68.82 295,-41 286.55,-39.53 277.65,-37.6 269.04,-35.53"/>
<polygon fill="#63b8ff" stroke="#63b8ff" points="729.79,-87.41 739.93,-84.37 730.1,-80.42 729.79,-87.41"/>
</a>
</g>
</g>
<!-- Node9 -->
<g id="Node000009" class="node">
<title>Node9</title>
<g id="a_Node000009"><a xlink:href="simple_8cc.html" target="_top" xlink:title=" ">
<polygon fill="white" stroke="#666666" points="438,-35.5 304,-35.5 304,-5.5 438,-5.5 438,-35.5"/>
<text text-anchor="start" x="312" y="-23.5" font-family="Times,serif" font-size="10.00">doc/dox/user/examples</text>
<text text-anchor="middle" x="371" y="-12.5" font-family="Times,serif" font-size="10.00">/simple.cc</text>
</a>
</g>
</g>
<!-- Node2&#45;&gt;Node9 -->
<g id="edge8_Node000002_Node000009" class="edge">
<title>Node2&#45;&gt;Node9</title>
<g id="a_edge8_Node000002_Node000009"><a xlink:title=" ">
<path fill="none" stroke="#63b8ff" d="M729.64,-81.52C668.73,-75.04 548.08,-60.88 447,-41 438.98,-39.42 430.55,-37.51 422.33,-35.51"/>
<polygon fill="#63b8ff" stroke="#63b8ff" points="729.64,-85.04 739.95,-82.61 730.37,-78.08 729.64,-85.04"/>
</a>
</g>
</g>
<!-- Node2&#45;&gt;Node10 -->
<g id="edge9_Node000002_Node000010" class="edge">
<title>Node2&#45;&gt;Node10</title>
<g id="a_edge9_Node000002_Node000010"><a xlink:title=" ">
<path fill="none" stroke="#63b8ff" d="M808.47,-80.97C864.83,-74.17 971.47,-60.05 1061,-41 1075.25,-37.97 1090.89,-33.77 1103.86,-30.04"/>
<polygon fill="#63b8ff" stroke="#63b8ff" points="807.73,-77.53 798.22,-82.19 808.56,-84.49 807.73,-77.53"/>
</a>
</g>
</g>
<!-- Node11 -->
<g id="Node000011" class="node">
<title>Node11</title>
<g id="a_Node000011"><a xlink:href="ttg_2parsec_2ttg_8h.html" target="_top" xlink:title=" ">
<polygon fill="white" stroke="#666666" points="1324,-30 1212,-30 1212,-11 1324,-11 1324,-30"/>
<text text-anchor="middle" x="1268" y="-18" font-family="Times,serif" font-size="10.00">ttg/ttg/parsec/ttg.h</text>
</a>
</g>
</g>
<!-- Node2&#45;&gt;Node11 -->
<g id="edge10_Node000002_Node000011" class="edge">
<title>Node2&#45;&gt;Node11</title>
<g id="a_edge10_Node000002_Node000011"><a xlink:title=" ">
<path fill="none" stroke="#63b8ff" d="M808.39,-83.96C885.04,-80.41 1059.34,-69.65 1203,-41 1216.63,-38.28 1231.51,-33.93 1243.58,-30.02"/>
<polygon fill="#63b8ff" stroke="#63b8ff" points="808.07,-80.47 798.23,-84.41 808.38,-87.46 808.07,-80.47"/>
</a>
</g>
</g>
<!-- Node12&#45;&gt;Node2 -->
<g id="edge12_Node000012_Node000002" class="edge">
<title>Node12&#45;&gt;Node2</title>
<g id="a_edge12_Node000012_Node000002"><a xlink:title=" ">
<path fill="none" stroke="#63b8ff" d="M769,-121.66C769,-112.93 769,-102.99 769,-96.09"/>
<polygon fill="#63b8ff" stroke="#63b8ff" points="765.5,-121.75 769,-131.75 772.5,-121.75 765.5,-121.75"/>
</a>
</g>
</g>
<!-- Node13&#45;&gt;Node2 -->
<g id="edge15_Node000013_Node000002" class="edge">
<title>Node13&#45;&gt;Node2</title>
<g id="a_edge15_Node000013_Node000002"><a xlink:title=" ">
<path fill="none" stroke="#63b8ff" d="M766.23,-452C751.38,-403.32 712.13,-267.45 699,-151 698.05,-142.61 694.93,-139.4 699,-132 708.57,-114.58 728.16,-103.01 744.19,-96.05"/>
<polygon fill="#63b8ff" stroke="#63b8ff" points="762.94,-453.21 769.23,-461.73 769.63,-451.14 762.94,-453.21"/>
</a>
</g>
</g>
<!-- Node13&#45;&gt;Node14 -->
<g id="edge16_Node000013_Node000014" class="edge">
<title>Node13&#45;&gt;Node14</title>
<g id="a_edge16_Node000013_Node000014"><a xlink:title=" ">
<path fill="none" stroke="#63b8ff" d="M821.68,-463.46C892.49,-453.42 1021.84,-435.1 1093.94,-424.88"/>
<polygon fill="#63b8ff" stroke="#63b8ff" points="821.08,-460.01 811.67,-464.88 822.06,-466.94 821.08,-460.01"/>
</a>
</g>
</g>
<!-- Node14&#45;&gt;Node11 -->
<g id="edge37_Node000014_Node000011" class="edge">
<title>Node14&#45;&gt;Node11</title>
<g id="a_edge37_Node000014_Node000011"><a xlink:title=" ">
<path fill="none" stroke="#63b8ff" d="M1202.47,-404.4C1252.27,-390.94 1317,-362.8 1317,-307.5 1317,-307.5 1317,-307.5 1317,-140.5 1317,-96.26 1287.69,-49.27 1274.41,-30.24"/>
<polygon fill="#63b8ff" stroke="#63b8ff" points="1201.54,-401.02 1192.73,-406.9 1203.28,-407.8 1201.54,-401.02"/>
</a>
</g>
</g>
<!-- Node15 -->
<g id="Node000015" class="node">
<title>Node15</title>
<g id="a_Node000015"><a xlink:href="edge_8h.html" target="_top" xlink:title=" ">
<polygon fill="white" stroke="#666666" points="1189,-371 1103,-371 1103,-352 1189,-352 1189,-371"/>
<text text-anchor="middle" x="1146" y="-359" font-family="Times,serif" font-size="10.00">ttg/ttg/edge.h</text>
</a>
</g>
</g>
<!-- Node14&#45;&gt;Node15 -->
<g id="edge17_Node000014_Node000015" class="edge">
<title>Node14&#45;&gt;Node15</title>
<g id="a_edge17_Node000014_Node000015"><a xlink:title=" ">
<path fill="none" stroke="#63b8ff" d="M1146,-396.66C1146,-387.93 1146,-377.99 1146,-371.09"/>
<polygon fill="#63b8ff" stroke="#63b8ff" points="1142.5,-396.75 1146,-406.75 1149.5,-396.75 1142.5,-396.75"/>
</a>
</g>
</g>
<!-- Node16 -->
<g id="Node000016" class="node">
<title>Node16</title>
<g id="a_Node000016"><a xlink:href="func_8h.html" target="_top" xlink:title=" ">
<polygon fill="white" stroke="#666666" points="1200.5,-206 1117.5,-206 1117.5,-187 1200.5,-187 1200.5,-206"/>
<text text-anchor="middle" x="1159" y="-194" font-family="Times,serif" font-size="10.00">ttg/ttg/func.h</text>
</a>
</g>
</g>
<!-- Node14&#45;&gt;Node16 -->
<g id="edge36_Node000014_Node000016" class="edge">
<title>Node14&#45;&gt;Node16</title>
<g id="a_edge36_Node000014_Node000016"><a xlink:title=" ">
<path fill="none" stroke="#63b8ff" d="M1170.58,-401.29C1181.09,-393.76 1192.25,-383.48 1198,-371 1225.24,-311.83 1181.08,-232.33 1164.72,-206.21"/>
<polygon fill="#63b8ff" stroke="#63b8ff" points="1168.43,-398.51 1162.03,-406.95 1172.3,-404.35 1168.43,-398.51"/>
</a>
</g>
</g>
<!-- Node15&#45;&gt;Node2 -->
<g id="edge18_Node000015_Node000002" class="edge">
<title>Node15&#45;&gt;Node2</title>
<g id="a_edge18_Node000015_Node000002"><a xlink:title=" ">
<path fill="none" stroke="#63b8ff" d="M1092.7,-352.77C1024.43,-341.08 904.29,-314.36 815,-261 755.65,-225.53 731.46,-214.88 705,-151 694.88,-126.56 726.01,-106.72 748.34,-96.05"/>
<polygon fill="#63b8ff" stroke="#63b8ff" points="1092.35,-356.26 1102.79,-354.45 1093.5,-349.36 1092.35,-356.26"/>
</a>
</g>
</g>
<!-- Node15&#45;&gt;Node11 -->
<g id="edge24_Node000015_Node000011" class="edge">
<title>Node15&#45;&gt;Node11</title>
<g id="a_edge24_Node000015_Node000011"><a xlink:title=" ">
<path fill="none" stroke="#63b8ff" d="M1169.21,-346.62C1207.32,-321.85 1279,-266.14 1279,-197.5 1279,-197.5 1279,-197.5 1279,-140.5 1279,-99 1272.29,-49.71 1269.35,-30.13"/>
<polygon fill="#63b8ff" stroke="#63b8ff" points="1167.32,-343.67 1160.74,-351.97 1171.06,-349.58 1167.32,-343.67"/>
</a>
</g>
</g>
<!-- Node15&#45;&gt;Node16 -->
<g id="edge19_Node000015_Node000016" class="edge">
<title>Node15&#45;&gt;Node16</title>
<g id="a_edge19_Node000015_Node000016"><a xlink:title=" ">
<path fill="none" stroke="#63b8ff" d="M1147.53,-341.37C1150.34,-306.03 1156.27,-231.79 1158.3,-206.31"/>
<polygon fill="#63b8ff" stroke="#63b8ff" points="1144.01,-341.49 1146.7,-351.74 1150.98,-342.05 1144.01,-341.49"/>
</a>
</g>
</g>
<!-- Node17 -->
<g id="Node000017" class="node">
<title>Node17</title>
<g id="a_Node000017"><a xlink:href="tt_8h.html" target="_top" xlink:title=" ">
<polygon fill="white" stroke="#666666" points="1123,-316 1055,-316 1055,-297 1123,-297 1123,-316"/>
<text text-anchor="middle" x="1089" y="-304" font-family="Times,serif" font-size="10.00">ttg/ttg/tt.h</text>
</a>
</g>
</g>
<!-- Node15&#45;&gt;Node17 -->
<g id="edge25_Node000015_Node000017" class="edge">
<title>Node15&#45;&gt;Node17</title>
<g id="a_edge25_Node000015_Node000017"><a xlink:title=" ">
<path fill="none" stroke="#63b8ff" d="M1129.38,-345.04C1119.27,-335.64 1106.72,-323.98 1098.32,-316.17"/>
<polygon fill="#63b8ff" stroke="#63b8ff" points="1127.14,-347.74 1136.84,-351.98 1131.9,-342.61 1127.14,-347.74"/>
</a>
</g>
</g>
<!-- Node16&#45;&gt;Node2 -->
<g id="edge20_Node000016_Node000002" class="edge">
<title>Node16&#45;&gt;Node2</title>
<g id="a_edge20_Node000016_Node000002"><a xlink:title=" ">
<path fill="none" stroke="#63b8ff" d="M1140.82,-180.64C1121.68,-165.83 1090.06,-143.65 1059,-132 968.15,-97.91 851.93,-89.91 798.4,-88.05"/>
<polygon fill="#63b8ff" stroke="#63b8ff" points="1138.68,-183.41 1148.69,-186.87 1143.02,-177.92 1138.68,-183.41"/>
</a>
</g>
</g>
<!-- Node16&#45;&gt;Node10 -->
<g id="edge22_Node000016_Node000010" class="edge">
<title>Node16&#45;&gt;Node10</title>
<g id="a_edge22_Node000016_Node000010"><a xlink:title=" ">
<path fill="none" stroke="#63b8ff" d="M1156.06,-176.56C1150.25,-139.12 1137.5,-56.95 1133.34,-30.14"/>
<polygon fill="#63b8ff" stroke="#63b8ff" points="1152.63,-177.29 1157.62,-186.63 1159.55,-176.21 1152.63,-177.29"/>
</a>
</g>
</g>
<!-- Node16&#45;&gt;Node11 -->
<g id="edge23_Node000016_Node000011" class="edge">
<title>Node16&#45;&gt;Node11</title>
<g id="a_edge23_Node000016_Node000011"><a xlink:title=" ">
<path fill="none" stroke="#63b8ff" d="M1166.86,-177.58C1177.65,-153.75 1198.3,-110.73 1221,-77 1232.98,-59.19 1249.78,-40.56 1259.71,-30.05"/>
<polygon fill="#63b8ff" stroke="#63b8ff" points="1163.63,-176.24 1162.75,-186.8 1170.02,-179.1 1163.63,-176.24"/>
</a>
</g>
</g>
<!-- Node16&#45;&gt;Node12 -->
<g id="edge21_Node000016_Node000012" class="edge">
<title>Node16&#45;&gt;Node12</title>
<g id="a_edge21_Node000016_Node000012"><a xlink:title=" ">
<path fill="none" stroke="#63b8ff" d="M1107.33,-188.48C1034.01,-178.51 900.33,-160.35 824.81,-150.08"/>
<polygon fill="#63b8ff" stroke="#63b8ff" points="1106.88,-191.95 1117.26,-189.83 1107.83,-185.01 1106.88,-191.95"/>
</a>
</g>
</g>
<!-- Node17&#45;&gt;Node2 -->
<g id="edge26_Node000017_Node000002" class="edge">
<title>Node17&#45;&gt;Node2</title>
<g id="a_edge26_Node000017_Node000002"><a xlink:title=" ">
<path fill="none" stroke="#63b8ff" d="M1045,-297.83C1016.03,-291.32 978.19,-279.93 949,-261 884.55,-219.21 891.67,-182.73 834,-132 817.98,-117.91 797.35,-104.47 783.67,-96.11"/>
<polygon fill="#63b8ff" stroke="#63b8ff" points="1044.34,-301.27 1054.85,-299.94 1045.81,-294.42 1044.34,-301.27"/>
</a>
</g>
</g>
<!-- Node17&#45;&gt;Node10 -->
<g id="edge29_Node000017_Node000010" class="edge">
<title>Node17&#45;&gt;Node10</title>
<g id="a_edge29_Node000017_Node000010"><a xlink:title=" ">
<path fill="none" stroke="#63b8ff" d="M1091.88,-286.49C1100.31,-230.81 1124.73,-69.5 1130.68,-30.21"/>
<polygon fill="#63b8ff" stroke="#63b8ff" points="1088.37,-286.28 1090.33,-296.69 1095.29,-287.33 1088.37,-286.28"/>
</a>
</g>
</g>
<!-- Node17&#45;&gt;Node11 -->
<g id="edge30_Node000017_Node000011" class="edge">
<title>Node17&#45;&gt;Node11</title>
<g id="a_edge30_Node000017_Node000011"><a xlink:title=" ">
<path fill="none" stroke="#63b8ff" d="M1113,-291.74C1140.32,-274.89 1184.44,-243.88 1210,-206 1250,-146.72 1263.59,-58.36 1267.03,-30.35"/>
<polygon fill="#63b8ff" stroke="#63b8ff" points="1111.19,-288.74 1104.43,-296.9 1114.8,-294.74 1111.19,-288.74"/>
</a>
</g>
</g>
<!-- Node17&#45;&gt;Node12 -->
<g id="edge27_Node000017_Node000012" class="edge">
<title>Node17&#45;&gt;Node12</title>
<g id="a_edge27_Node000017_Node000012"><a xlink:title=" ">
<path fill="none" stroke="#63b8ff" d="M1044.58,-302.04C981.93,-296.43 871.59,-283.62 839,-261 798.56,-232.94 777.88,-173.31 771.34,-151.08"/>
<polygon fill="#63b8ff" stroke="#63b8ff" points="1044.31,-305.53 1054.58,-302.91 1044.92,-298.56 1044.31,-305.53"/>
</a>
</g>
</g>
<!-- Node17&#45;&gt;Node16 -->
<g id="edge28_Node000017_Node000016" class="edge">
<title>Node17&#45;&gt;Node16</title>
<g id="a_edge28_Node000017_Node000016"><a xlink:title=" ">
<path fill="none" stroke="#63b8ff" d="M1100.3,-288.07C1115.48,-264.64 1141.89,-223.89 1153.39,-206.16"/>
<polygon fill="#63b8ff" stroke="#63b8ff" points="1097.23,-286.37 1094.73,-296.66 1103.1,-290.17 1097.23,-286.37"/>
</a>
</g>
</g>
<!-- Node18 -->
<g id="Node000018" class="node">
<title>Node18</title>
<g id="a_Node000018"><a xlink:href="traverse_8h.html" target="_top" xlink:title=" ">
<polygon fill="white" stroke="#666666" points="1060.5,-261 957.5,-261 957.5,-242 1060.5,-242 1060.5,-261"/>
<text text-anchor="middle" x="1009" y="-249" font-family="Times,serif" font-size="10.00">ttg/ttg/traverse.h</text>
</a>
</g>
</g>
<!-- Node17&#45;&gt;Node18 -->
<g id="edge31_Node000017_Node000018" class="edge">
<title>Node17&#45;&gt;Node18</title>
<g id="a_edge31_Node000017_Node000018"><a xlink:title=" ">
<path fill="none" stroke="#63b8ff" d="M1067.75,-291.42C1053.24,-281.81 1034.46,-269.37 1022.09,-261.17"/>
<polygon fill="#63b8ff" stroke="#63b8ff" points="1065.88,-294.38 1076.15,-296.98 1069.74,-288.54 1065.88,-294.38"/>
</a>
</g>
</g>
<!-- Node18&#45;&gt;Node2 -->
<g id="edge32_Node000018_Node000002" class="edge">
<title>Node18&#45;&gt;Node2</title>
<g id="a_edge32_Node000018_Node000002"><a xlink:title=" ">
<path fill="none" stroke="#63b8ff" d="M1011.55,-231.87C1013.98,-205.82 1014.05,-158.71 988,-132 962,-105.34 851.81,-93.64 798.34,-89.45"/>
<polygon fill="#63b8ff" stroke="#63b8ff" points="1008.06,-231.58 1010.39,-241.92 1015.01,-232.38 1008.06,-231.58"/>
</a>
</g>
</g>
<!-- Node18&#45;&gt;Node16 -->
<g id="edge33_Node000018_Node000016" class="edge">
<title>Node18&#45;&gt;Node16</title>
<g id="a_edge33_Node000018_Node000016"><a xlink:title=" ">
<path fill="none" stroke="#63b8ff" d="M1042.82,-238.55C1070.68,-228.71 1109.51,-214.98 1134.46,-206.17"/>
<polygon fill="#63b8ff" stroke="#63b8ff" points="1041.36,-235.35 1033.1,-241.98 1043.69,-241.95 1041.36,-235.35"/>
</a>
</g>
</g>
<!-- Node19 -->
<g id="Node000019" class="node">
<title>Node19</title>
<g id="a_Node000019"><a xlink:href="dot_8h.html" target="_top" xlink:title=" ">
<polygon fill="white" stroke="#666666" points="978.5,-151 881.5,-151 881.5,-132 978.5,-132 978.5,-151"/>
<text text-anchor="middle" x="930" y="-139" font-family="Times,serif" font-size="10.00">ttg/ttg/util/dot.h</text>
</a>
</g>
</g>
<!-- Node18&#45;&gt;Node19 -->
<g id="edge34_Node000018_Node000019" class="edge">
<title>Node18&#45;&gt;Node19</title>
<g id="a_edge34_Node000018_Node000019"><a xlink:title=" ">
<path fill="none" stroke="#63b8ff" d="M996.48,-233.38C979.38,-210.01 949.36,-168.97 936.33,-151.16"/>
<polygon fill="#63b8ff" stroke="#63b8ff" points="993.81,-235.66 1002.54,-241.66 999.46,-231.52 993.81,-235.66"/>
</a>
</g>
</g>
<!-- Node19&#45;&gt;Node2 -->
<g id="edge35_Node000019_Node000002" class="edge">
<title>Node19&#45;&gt;Node2</title>
<g id="a_edge35_Node000019_Node000002"><a xlink:title=" ">
<path fill="none" stroke="#63b8ff" d="M894.45,-128.8C864.41,-118.91 822.06,-104.97 795.07,-96.08"/>
<polygon fill="#63b8ff" stroke="#63b8ff" points="893.54,-132.18 904.13,-131.98 895.73,-125.53 893.54,-132.18"/>
</a>
</g>
</g>
</g>
</svg>

<g id="navigator" transform="translate(0 0)" fill="#404254">
  <rect fill="#f2f5e9" fill-opacity="0.5" stroke="#606060" stroke-width=".5" x="0" y="0" width="60" height="60"/>
  <use id="zoomplus" xlink:href="#zoomPlus" x="17" y="9" onmousedown="handleZoom(evt,'in')"/>
  <use id="zoomminus" xlink:href="#zoomMin" x="42" y="9" onmousedown="handleZoom(evt,'out')"/>
  <use id="reset" xlink:href="#resetDef" x="30" y="36" onmousedown="handleReset()"/>
   <use id="arrowup" xlink:href="#arrowUp" x="0" y="0" onmousedown="handlePan(0,-1)"/>
  <use id="arrowright" xlink:href="#arrowRight" x="0" y="0" onmousedown="handlePan(1,0)"/>
  <use id="arrowdown" xlink:href="#arrowDown" x="0" y="0" onmousedown="handlePan(0,1)"/>
  <use id="arrowleft" xlink:href="#arrowLeft" x="0" y="0" onmousedown="handlePan(-1,0)"/>
</g>
<svg viewBox="0 0 15 15" width="100%" height="30px" preserveAspectRatio="xMaxYMin meet">
 <g id="arrow_out" transform="scale(0.3 0.3)">
  <a xlink:href="world_8h__dep__incl_org.svg" target="_base">
   <rect id="button" ry="5" rx="5" y="6" x="6" height="38" width="38"
        fill="#f2f5e9" fill-opacity="0.5" stroke="#606060" stroke-width="1.0"/>
   <path id="arrow"
     d="M 11.500037,31.436501 C 11.940474,20.09759 22.043105,11.32322 32.158766,21.979434 L 37.068811,17.246167 C 37.068811,17.246167 37.088388,32 37.088388,32 L 22.160133,31.978069 C 22.160133,31.978069 26.997745,27.140456 26.997745,27.140456 C 18.528582,18.264221 13.291696,25.230495 11.500037,31.436501 z"
     style="fill:#404040;"/>
  </a>
 </g>
</svg>

<style type='text/css'>
<![CDATA[
[data-mouse-over-selected='false'] { opacity: 0.7; }
[data-mouse-over-selected='true']  { opacity: 1.0; }
]]>
</style>
<script type="application/ecmascript"><![CDATA[
document.addEventListener('DOMContentLoaded', (event) => {
  highlightEdges();
  highlightAdjacentNodes();
});
]]></script>
</svg>
